<svg width="88" height="133" viewBox="0 0 88 133" fill="none" xmlns="http://www.w3.org/2000/svg">
<g clip-path="url(#clip0)">
<path d="M80.3303 67.13C82.6952 82.3297 84.2906 97.6393 85.1103 113L20.1103 124.07C15.1334 109.471 11.1707 94.5453 8.25027 79.4C7.72361 76.7334 7.23027 73.9933 6.77027 71.18C6.21027 67.7867 5.71361 64.4533 5.28027 61.18C3.41986 47.4559 2.41791 33.629 2.28027 19.78L67.3503 8.70001C70.9103 20.93 74.2803 34.37 77.1403 48.94C77.5803 51.2 78.0103 53.48 78.4303 55.8C79.1303 59.6333 79.7636 63.41 80.3303 67.13Z" fill="white" stroke="#010101" stroke-miterlimit="10" stroke-linecap="round"/>
<path d="M1.90992 19.4C1.50326 17.1333 1.08992 14.8533 0.669922 12.56C1.97992 13.22 3.28992 13.9 4.57992 14.56L8.37992 11.1C9.90992 11.63 11.3799 12.16 12.9699 12.68L16.9699 9.85L22.9399 11L27.4299 7.94L33.1499 9.49L36.4899 6.23L41.9999 8.31L46.8499 4.22C48.6799 5.01 50.4999 5.81 52.3299 6.59L57.1899 2.79L61.1899 5.21C62.4399 4 64.8099 2.2 66.0499 0.940002C66.7499 3.16 66.5999 6.04 67.2999 8.26C45.5799 12 23.5999 15.64 1.90992 19.4Z" fill="#1F705E" stroke="#010101" stroke-miterlimit="10" stroke-linecap="round"/>
<path d="M6.4802 23C7.3802 26.54 8.1502 30.1 8.8402 33.67C9.5302 37.24 10.1802 40.82 10.6802 44.43C11.1802 48.04 11.5202 51.66 12.0502 55.26C12.5802 58.86 13.2902 62.41 14.0002 66C14.7102 69.59 15.4702 73.13 16.1202 76.71C16.7702 80.29 17.4402 83.87 18.0202 87.46C19.1502 94.65 20.1302 101.86 20.7902 109.12C20.7933 109.132 20.7936 109.145 20.791 109.157C20.7884 109.169 20.783 109.18 20.7752 109.19C20.7675 109.2 20.7575 109.207 20.7463 109.213C20.735 109.218 20.7226 109.22 20.7102 109.22C20.6894 109.22 20.6691 109.214 20.6527 109.201C20.6363 109.188 20.6248 109.17 20.6202 109.15C18.9002 102.07 17.4902 94.93 16.2202 87.76C15.6002 84.17 15.0802 80.57 14.5302 76.97C13.9802 73.37 13.5302 69.77 13.0702 66.15C12.6102 62.53 12.1302 58.93 11.4702 55.36C10.8102 51.79 10.0002 48.2 9.2902 44.63C8.5802 41.06 8.0502 37.47 7.5402 33.86C7.0302 30.25 6.6102 26.64 6.3102 23C6.30877 22.9887 6.30978 22.9772 6.31316 22.9663C6.31654 22.9554 6.3222 22.9453 6.32978 22.9368C6.33735 22.9283 6.34666 22.9215 6.35708 22.9169C6.36751 22.9122 6.3788 22.9099 6.3902 22.91C6.4402 22.92 6.4802 23 6.4802 23Z" fill="#010101"/>
<path d="M32.6397 117C34.5399 116.381 36.4728 115.867 38.4297 115.46C40.3715 115.027 42.334 114.694 44.3097 114.46C46.3097 114.24 48.3097 114.18 50.3097 113.92C52.2824 113.638 54.2385 113.251 56.1697 112.76C58.1097 112.28 60.0497 111.83 62.0097 111.47C63.9697 111.11 65.9097 110.69 67.8797 110.39C71.8272 109.78 75.8076 109.406 79.7997 109.27C79.8219 109.27 79.8434 109.278 79.86 109.293C79.8766 109.308 79.8872 109.328 79.8897 109.35C79.8894 109.369 79.8835 109.388 79.8729 109.404C79.8623 109.42 79.8473 109.432 79.8297 109.44C76.0026 110.581 72.1128 111.499 68.1797 112.19C66.1797 112.53 64.2497 112.79 62.2697 113.05C60.2897 113.31 58.2697 113.52 56.2697 113.69C54.2834 113.84 52.307 114.1 50.3497 114.47C48.3497 114.85 46.4797 115.47 44.5297 115.87C42.5797 116.27 40.6097 116.56 38.6297 116.79C36.6381 117.029 34.6353 117.163 32.6297 117.19C32.6175 117.192 32.605 117.19 32.5934 117.187C32.5817 117.183 32.5711 117.176 32.5624 117.167C32.5537 117.159 32.5471 117.148 32.5432 117.136C32.5392 117.125 32.538 117.112 32.5397 117.1C32.5354 117.086 32.535 117.071 32.5385 117.057C32.542 117.043 32.5493 117.03 32.5596 117.02C32.5698 117.01 32.5827 117.002 32.5969 116.999C32.611 116.995 32.6258 116.996 32.6397 117Z" fill="#010101"/>
<path d="M80.3303 67.13L8.25027 79.4C7.72361 76.7333 7.23027 73.9933 6.77027 71.18C6.21027 67.7867 5.71361 64.4533 5.28027 61.18L77.1403 48.94C77.5803 51.2 78.0203 53.48 78.4303 55.8C79.1303 59.6333 79.7636 63.41 80.3303 67.13Z" fill="#1F705E" stroke="#010101" stroke-miterlimit="10" stroke-linecap="round"/>
<path d="M52.5196 86.17C66.8796 80.94 74.8996 66.72 70.4196 54.41C65.9396 42.1 50.6596 36.41 36.2896 41.59C21.9196 46.77 13.9096 61 18.3896 73.35C22.8696 85.7 38.1496 91.4 52.5196 86.17Z" fill="#FAF28C" stroke="#010101" stroke-miterlimit="10"/>
<path d="M19.9199 124.29C20.2799 126.58 20.6499 128.87 21.0099 131.17C22.0299 130.11 23.0299 129.043 24.0099 127.97L28.7299 129.97L32.5399 126.97L37.2799 128.31L42.5199 125.31L47.7599 126.71L52.6499 123.35L56.8799 125.35L61.3499 121.57L67.2899 123.83C68.7499 122.47 70.1999 121.12 71.6699 119.77C73.6099 120.44 75.5599 121.09 77.5099 121.77C78.5099 120.56 79.5099 119.36 80.5099 118.16C82.0999 118.93 84.9199 119.8 86.5099 120.57C86.4399 118.24 85.3399 115.57 85.2699 113.25C63.5699 116.79 41.6399 120.66 19.9199 124.29Z" fill="#1F705E" stroke="#010101" stroke-miterlimit="10" stroke-linecap="round"/>
<path d="M79.69 61.78L79.95 63.28L77.51 64.1L76.81 64.33L76.89 66.06L77.17 72.73L77 72.36L75.7 68.72L74.4 65L66.54 64.83H66L66.66 64.65L74.39 62.49L73.93 53.65L76.06 61.96L78.06 61.88L79.69 61.78Z" fill="white" stroke="#010101" stroke-width="0.5" stroke-miterlimit="10" stroke-linecap="round"/>
<path d="M66.57 68.2L67.8 73L73 72.8L68.2 74.41L68.41 79.27L66.8 74.78L62 74.68L66.86 73.32L66.57 68.2Z" fill="white" stroke="#010101" stroke-width="0.5" stroke-miterlimit="10" stroke-linecap="round"/>
<path d="M38.7802 106C38.4671 105.832 38.1297 105.714 37.7802 105.65C37.4511 105.575 37.1093 105.575 36.7802 105.65C36.5814 105.681 36.3868 105.735 36.2002 105.81C36.0274 105.872 35.8704 105.971 35.7402 106.1C35.6818 106.16 35.6394 106.233 35.6166 106.313C35.5939 106.394 35.5917 106.479 35.6102 106.56C35.6239 106.643 35.6574 106.722 35.7078 106.79C35.7583 106.858 35.8242 106.913 35.9002 106.95C36.0849 107.029 36.2804 107.079 36.4802 107.1H37.2702C37.5568 107.1 37.8368 107.12 38.1102 107.16C38.3739 107.178 38.6335 107.235 38.8802 107.33C39.1088 107.411 39.317 107.54 39.4902 107.71C39.663 107.899 39.7746 108.136 39.8102 108.39C39.8816 108.732 39.8246 109.088 39.6502 109.39C39.4696 109.701 39.2111 109.959 38.9002 110.14C38.5544 110.345 38.1753 110.487 37.7802 110.56C37.2796 110.635 36.7708 110.635 36.2702 110.56C35.8047 110.489 35.3665 110.296 35.0002 110L35.6302 109.19C35.913 109.402 36.2377 109.55 36.5826 109.626C36.9276 109.702 37.2847 109.703 37.6302 109.63C37.8183 109.59 38.0024 109.533 38.1802 109.46C38.3542 109.391 38.5111 109.285 38.6402 109.15C38.697 109.085 38.7375 109.008 38.7584 108.925C38.7793 108.841 38.7799 108.754 38.7602 108.67C38.7498 108.591 38.7184 108.515 38.6692 108.452C38.6199 108.389 38.5547 108.34 38.4802 108.31C38.2962 108.221 38.0947 108.173 37.8902 108.17C37.6402 108.17 37.3802 108.17 37.1102 108.17C36.7374 108.133 36.3669 108.077 36.0002 108C35.6618 107.953 35.3395 107.827 35.0602 107.63C34.7863 107.391 34.6086 107.06 34.5602 106.7C34.5006 106.384 34.5574 106.057 34.7202 105.78C34.9087 105.477 35.17 105.226 35.4802 105.05C35.8359 104.844 36.2251 104.701 36.6302 104.63C36.9239 104.579 37.2222 104.559 37.5202 104.57C37.8312 104.573 38.1405 104.617 38.4402 104.7C38.7328 104.776 39.0079 104.909 39.2502 105.09L38.7802 106ZM47.5502 107.93C47.3675 108.135 47.1629 108.319 46.9402 108.48C46.6874 108.67 46.4119 108.828 46.1202 108.95C45.799 109.089 45.4637 109.193 45.1202 109.26C44.5248 109.398 43.9056 109.398 43.3102 109.26C42.7866 109.118 42.3125 108.835 41.9402 108.44C41.5766 108.048 41.3366 107.558 41.2502 107.03C41.1246 106.458 41.1769 105.861 41.4002 105.32C41.6141 104.82 41.9598 104.388 42.4002 104.07C42.8623 103.731 43.3959 103.502 43.9602 103.4C44.4731 103.304 45.0019 103.334 45.5002 103.49C45.9683 103.633 46.3896 103.899 46.7202 104.26C47.0749 104.64 47.3082 105.117 47.3902 105.63L47.4702 106.15L42.4702 107.07C42.5602 107.296 42.6953 107.501 42.8672 107.673C43.0392 107.845 43.2443 107.98 43.4702 108.07C44.0028 108.287 44.589 108.336 45.1502 108.21C45.5475 108.151 45.9266 108.004 46.2602 107.78C46.5013 107.612 46.7256 107.421 46.9302 107.21L47.5502 107.93ZM44.1402 104.38C43.671 104.459 43.2281 104.651 42.8502 104.94C42.6755 105.085 42.5355 105.267 42.4403 105.473C42.3451 105.679 42.2972 105.903 42.3002 106.13L46.1702 105.42V105.3C46.1023 105.061 45.9539 104.852 45.7502 104.71C45.5312 104.548 45.2781 104.439 45.0102 104.39C44.7257 104.319 44.43 104.306 44.1402 104.35V104.38ZM55.3802 106.5C55.1971 106.702 54.9925 106.883 54.7702 107.04C54.5118 107.23 54.2335 107.391 53.9402 107.52C53.6214 107.663 53.2852 107.764 52.9402 107.82C52.3412 107.945 51.7213 107.928 51.1302 107.77C50.6089 107.628 50.1356 107.348 49.7602 106.96C49.3985 106.567 49.1589 106.077 49.0702 105.55C48.9427 104.994 48.982 104.413 49.183 103.88C49.3839 103.346 49.7378 102.884 50.2002 102.55C50.6623 102.211 51.1959 101.981 51.7602 101.88C52.2728 101.778 52.8029 101.809 53.3002 101.97C53.7683 102.113 54.1896 102.379 54.5202 102.74C54.877 103.118 55.1106 103.596 55.1902 104.11L55.2702 104.63L50.2702 105.55C50.3602 105.776 50.4953 105.981 50.6672 106.153C50.8392 106.325 51.0443 106.46 51.2702 106.55C51.804 106.762 52.3887 106.811 52.9502 106.69C53.3475 106.631 53.7266 106.484 54.0602 106.26C54.2966 106.086 54.5205 105.895 54.7302 105.69L55.3802 106.5ZM52.0002 102.92C51.5297 102.994 51.0858 103.187 50.7102 103.48C50.5363 103.623 50.3966 103.804 50.3015 104.008C50.2063 104.212 50.158 104.435 50.1602 104.66L54.0002 104V103.88C53.93 103.639 53.7824 103.428 53.5802 103.28C53.3607 103.121 53.1074 103.015 52.8402 102.97C52.566 102.9 52.2808 102.883 52.0002 102.92ZM62.2702 97.71L63.7302 105.71L62.6202 105.92L62.4602 105.03C62.342 105.243 62.1901 105.436 62.0102 105.6C61.8107 105.802 61.5854 105.977 61.3402 106.12C61.0609 106.268 60.7608 106.372 60.4502 106.43C59.9137 106.534 59.3597 106.499 58.8402 106.33C58.3521 106.164 57.9194 105.867 57.5902 105.47C57.2496 105.052 57.0254 104.552 56.9402 104.02C56.831 103.487 56.869 102.933 57.0502 102.42C57.2164 101.932 57.5182 101.502 57.9202 101.18C58.338 100.832 58.8427 100.604 59.3802 100.52C59.8217 100.425 60.2786 100.425 60.7202 100.52C61.082 100.596 61.4231 100.75 61.7202 100.97L61.1502 97.89L62.2702 97.71ZM60.4702 105.41C60.8372 105.344 61.1814 105.186 61.4702 104.95C61.7376 104.731 61.9414 104.445 62.0602 104.12C62.1744 103.779 62.1985 103.413 62.1302 103.06C62.0792 102.692 61.9268 102.346 61.6902 102.06C61.4722 101.792 61.1801 101.593 60.8502 101.49C60.4917 101.374 60.1091 101.353 59.7402 101.43C59.3726 101.488 59.0273 101.643 58.7402 101.88C58.4709 102.093 58.2665 102.377 58.1502 102.7C58.0284 103.04 58.0007 103.406 58.0702 103.76C58.1241 104.129 58.2799 104.475 58.5202 104.76C58.7465 105.019 59.0358 105.215 59.3602 105.33C59.7076 105.448 60.0792 105.475 60.4402 105.41H60.4702ZM69.3202 100.41C69.0092 100.237 68.671 100.119 68.3202 100.06C67.9903 99.9924 67.6501 99.9924 67.3202 100.06C67.1254 100.094 66.9344 100.148 66.7502 100.22C66.5749 100.281 66.417 100.384 66.2902 100.52C66.2293 100.578 66.1852 100.651 66.1623 100.732C66.1395 100.813 66.1387 100.899 66.1602 100.98C66.172 101.062 66.2037 101.139 66.2525 101.205C66.3014 101.271 66.3658 101.325 66.4402 101.36C66.6253 101.448 66.8257 101.498 67.0302 101.51H67.8202C68.1012 101.51 68.382 101.53 68.6602 101.57C68.9238 101.589 69.1832 101.646 69.4302 101.74C69.6588 101.815 69.865 101.945 70.0302 102.12C70.2118 102.304 70.3277 102.543 70.3602 102.8C70.4288 103.142 70.372 103.497 70.2002 103.8C70.016 104.114 69.7543 104.376 69.4402 104.56C69.0966 104.767 68.7163 104.906 68.3202 104.97C67.8238 105.055 67.3166 105.055 66.8202 104.97C66.3359 104.899 65.8797 104.699 65.5002 104.39L66.1402 103.58C66.4134 103.771 66.718 103.914 67.0402 104C67.4092 104.08 67.7912 104.08 68.1602 104C68.3499 103.966 68.5346 103.909 68.7102 103.83C68.8817 103.761 69.038 103.659 69.1702 103.53C69.2282 103.464 69.2701 103.385 69.2926 103.3C69.3152 103.215 69.3178 103.126 69.3002 103.04C69.2846 102.962 69.2513 102.889 69.2027 102.827C69.1541 102.764 69.0916 102.714 69.0202 102.68C68.8292 102.601 68.6265 102.554 68.4202 102.54C68.1802 102.54 67.9202 102.54 67.6402 102.54C67.2402 102.54 66.8502 102.54 66.4902 102.44C66.1306 102.398 65.787 102.267 65.4902 102.06C65.2193 101.82 65.0451 101.489 65.0002 101.13C64.9358 100.814 64.9929 100.486 65.1602 100.21C65.3493 99.9103 65.6106 99.6627 65.9202 99.49C66.2751 99.282 66.6647 99.1397 67.0702 99.07C67.3766 99.0118 67.6885 98.9883 68.0002 99C68.3116 98.9976 68.6216 99.0414 68.9202 99.13C69.2143 99.2023 69.4902 99.3352 69.7302 99.52L69.3202 100.41Z" fill="#010101"/>
<path d="M46.2003 75.35C47.4231 75.3376 48.6264 75.0423 49.7159 74.4871C50.8055 73.9319 51.7516 73.132 52.4803 72.15C53.4397 70.7592 53.9535 69.1096 53.9535 67.42C53.9535 65.7304 53.4397 64.0808 52.4803 62.69C50.2104 63.5165 48.3074 65.1217 47.1103 67.22C46.4282 68.4475 45.9965 69.7982 45.8403 71.1938C45.6841 72.5894 45.8064 74.0021 46.2003 75.35Z" fill="#3E9581"/>
<path d="M46.2301 75.31C47.6164 75.0899 48.9414 74.5823 50.1201 73.82C51.2448 73.0477 52.1702 72.0196 52.8201 70.82C53.5325 69.6111 53.8798 68.2219 53.8201 66.82C53.7065 65.406 53.1659 64.0599 52.2701 62.96L52.6501 63.08C51.5093 63.5632 50.4606 64.2398 49.5501 65.08C47.7476 66.8062 46.5782 69.0886 46.2301 71.56C46.053 72.8037 46.053 74.0663 46.2301 75.31ZM46.1701 75.39C45.6443 74.1523 45.3985 72.8137 45.4501 71.47C45.4876 70.1101 45.8042 68.7725 46.3801 67.54C46.9736 66.3149 47.8123 65.2248 48.8444 64.3371C49.8765 63.4495 51.08 62.7834 52.3801 62.38L52.6401 62.3L52.7601 62.5C53.5161 63.7906 53.9643 65.238 54.0701 66.73C54.2287 68.2203 54.0369 69.727 53.5101 71.13C52.9228 72.562 51.8645 73.7508 50.5101 74.5C49.1946 75.25 47.6746 75.5617 46.1701 75.39Z" fill="#231F20"/>
<path d="M46.2104 75.42C46.5304 75.06 46.8804 74.62 47.2104 74.13C48.2484 72.8295 49.1813 71.4485 50.0004 70C51.1938 67.7044 52.0397 65.2442 52.5104 62.7C50.4255 63.4426 48.6413 64.8476 47.4304 66.7C46.6374 67.9911 46.1198 69.4321 45.9098 70.9326C45.6999 72.4332 45.8022 73.9609 46.2104 75.42Z" fill="#1E6F5D"/>
<path d="M46.2202 75.37C46.6102 74.8 46.8302 74.32 47.1402 73.87L48.1402 72.36C48.7702 71.36 49.3602 70.36 49.9202 69.3C50.517 68.2779 51.0417 67.2153 51.4902 66.12C51.9083 65.0012 52.1903 63.8362 52.3302 62.65L52.6402 62.92C51.4719 63.4205 50.4019 64.1248 49.4802 65C48.585 65.8614 47.8532 66.8778 47.3202 68C46.7646 69.1183 46.3996 70.3215 46.2402 71.56C46.077 72.8244 46.0703 74.104 46.2202 75.37ZM46.2202 75.47C45.6619 74.2131 45.4018 72.8441 45.4602 71.47C45.4752 70.086 45.7891 68.7215 46.3802 67.47C46.9803 66.2316 47.8357 65.1342 48.8902 64.25C49.9315 63.3824 51.1448 62.745 52.4502 62.38L52.8602 62.27L52.7602 62.65L51.7602 66.14C51.4659 67.3211 51.0815 68.4778 50.6102 69.6C50.0754 70.6949 49.4322 71.7334 48.6902 72.7C48.3202 73.18 47.9302 73.65 47.5202 74.1C47.1102 74.55 46.5602 75.12 46.2002 75.47H46.2202Z" fill="#231F20"/>
<path d="M49.8296 91C47.9421 87.5638 46.4525 83.9236 45.3896 80.15C44.3898 76.3775 43.6876 72.5324 43.2896 68.65C42.7696 64.7766 42.3929 60.8933 42.1596 57C41.9546 53.1193 41.9546 49.2306 42.1596 45.35H42.4596C42.6996 49.21 43.0696 53.05 43.6396 56.85C44.2096 60.65 44.8396 64.45 45.6396 68.2C46.4396 71.95 47.6396 75.63 48.2896 79.4C48.9396 83.17 49.7296 87 50.1096 90.89L49.8296 91Z" fill="#1E6F5D"/>
<path d="M37.3801 40.71C36.395 39.4512 35.9041 37.8756 36.0001 36.28C36.0777 34.2495 36.7757 32.2916 38.0001 30.67C39.2093 31.6859 40.1935 32.9426 40.8901 34.36C41.6301 35.88 42.5401 37.75 41.5601 39.92C41.0935 40.901 40.4096 41.7628 39.5601 42.44C38.7287 42.0093 37.9884 41.4218 37.3801 40.71Z" fill="#F8C803"/>
<path d="M37.3401 40.74C36.7691 40.0308 36.3166 39.2338 36.0001 38.38C35.6683 37.4929 35.5318 36.5447 35.6001 35.6C35.6741 34.6595 35.9395 33.7441 36.3801 32.91C36.8145 32.0974 37.3092 31.3186 37.8601 30.58L37.9601 30.44L38.0801 30.55C38.9729 31.313 39.79 32.1602 40.5201 33.08C40.8801 33.5528 41.1948 34.0584 41.4601 34.59C41.7503 35.1133 41.9913 35.6623 42.1801 36.23C42.5987 37.4439 42.5343 38.7723 42.0001 39.94C41.4992 41.0706 40.6517 42.0127 39.5801 42.63L39.4101 42.74L39.3001 42.65C38.5698 42.0974 37.9114 41.4558 37.3401 40.74ZM37.4201 40.68C37.7136 41.0244 38.0497 41.3302 38.4201 41.59C38.7914 41.8389 39.1867 42.05 39.6001 42.22H39.3201C40.0802 41.4437 40.6814 40.5266 41.0901 39.52C41.4432 38.5568 41.4817 37.5065 41.2001 36.52C40.878 35.456 40.4561 34.4247 39.9401 33.44C39.4138 32.4319 38.7013 31.5327 37.8401 30.79H38.0701C37.5576 31.5127 37.172 32.3176 36.9301 33.17C36.4631 34.834 36.2872 36.5661 36.4101 38.29C36.5138 39.1662 36.864 39.995 37.4201 40.68Z" fill="#231F20"/>
<path d="M40.8302 54.45C40.5162 56.0051 40.7755 57.6212 41.5602 59C42.5392 60.7767 44.0354 62.2136 45.8502 63.12C46.4675 61.6655 46.7805 60.1 46.7702 58.52C46.7702 56.83 46.7002 54.75 44.8502 53.25C43.9766 52.6175 42.9717 52.1903 41.9102 52C41.4095 52.7471 41.0439 53.5764 40.8302 54.45Z" fill="#F8C803"/>
<path d="M40.8797 54.46C40.6881 55.3293 40.7506 56.2353 41.0597 57.07C41.3813 57.8751 41.7833 58.6457 42.2597 59.37C42.7206 60.0834 43.2462 60.7529 43.8297 61.37C44.4288 62.028 45.1356 62.5792 45.9197 63L45.7097 63.08C46.1421 62.0326 46.3728 60.913 46.3897 59.78C46.3999 58.6679 46.3129 57.557 46.1297 56.46C45.9295 55.4387 45.4156 54.5054 44.6597 53.79C43.8374 53.0823 42.8869 52.5391 41.8597 52.19L42.1197 52.08C41.8284 52.4212 41.5705 52.7895 41.3497 53.18C41.1372 53.5841 40.9791 54.0145 40.8797 54.46ZM40.7797 54.46C40.9734 53.5542 41.2826 52.6771 41.6997 51.85L41.7697 51.72H41.9597C43.1921 51.7846 44.3737 52.2321 45.3397 53C46.3207 53.8254 46.9471 54.996 47.0897 56.27C47.1771 56.8658 47.2106 57.4682 47.1897 58.07C47.183 58.6714 47.1194 59.2707 46.9997 59.86C46.7799 61.0107 46.4449 62.1364 45.9997 63.22L45.9397 63.37L45.7897 63.29C44.9656 62.8856 44.1763 62.414 43.4297 61.88C42.6499 61.3449 41.9945 60.6481 41.5079 59.8371C41.0213 59.0261 40.7149 58.1199 40.6097 57.18C40.5196 56.2635 40.577 55.3384 40.7797 54.44V54.46Z" fill="#231F20"/>
<path d="M45.3895 53.07C46.3347 54.3656 47.7224 55.2693 49.2895 55.61C51.2633 56.0803 53.3342 55.9301 55.2195 55.18C54.5565 53.7464 53.603 52.466 52.4195 51.42C51.1495 50.31 49.5795 48.94 47.2295 49.31C46.142 49.5041 45.1147 49.9492 44.2295 50.61C44.4649 51.4932 44.8579 52.3265 45.3895 53.07Z" fill="#F8C803"/>
<path d="M45.43 53C45.9476 53.726 46.6625 54.2882 47.49 54.62C48.303 54.9195 49.1438 55.1372 50 55.27C50.8484 55.4176 51.7089 55.4846 52.57 55.47C53.4567 55.4586 54.3354 55.2997 55.17 55L55.08 55.21C54.5949 54.1829 53.9158 53.2593 53.08 52.49C52.2607 51.7468 51.3773 51.0775 50.44 50.49C49.5415 49.9404 48.4884 49.6982 47.44 49.8C46.3637 49.9266 45.3234 50.2666 44.38 50.8L44.47 50.53C44.5341 50.9751 44.6379 51.4135 44.78 51.84C44.9476 52.2522 45.1659 52.6419 45.43 53ZM45.35 53.06C44.802 52.3229 44.3484 51.5199 44 50.67V50.54L44.15 50.41C45.0274 49.539 46.1581 48.9684 47.38 48.78C48.6497 48.6043 49.9384 48.9229 50.98 49.67C51.4805 50.0027 51.9492 50.381 52.38 50.8C52.8204 51.1942 53.2222 51.6295 53.58 52.1C54.2769 53.0386 54.8798 54.0434 55.38 55.1L55.46 55.25L55.3 55.31C54.439 55.6384 53.557 55.909 52.66 56.12C51.7362 56.3086 50.7838 56.3086 49.86 56.12C48.9311 55.9314 48.0521 55.5499 47.28 55C46.5414 54.4713 45.8902 53.8302 45.35 53.1V53.06Z" fill="#231F20"/>
<path d="M45.7497 41.55C47.1324 40.7429 48.1686 39.4539 48.6597 37.93C49.3251 36.0183 49.388 33.9485 48.8397 32C47.3561 32.5223 45.9949 33.3425 44.8397 34.41C43.6097 35.56 42.0897 36.98 42.2197 39.41C42.3117 40.4999 42.6539 41.5539 43.2197 42.49C44.1127 42.3314 44.9698 42.0129 45.7497 41.55Z" fill="#F8C803"/>
<path d="M45.7204 41.51C46.4956 41.0673 47.1273 40.4113 47.5404 39.62C47.9193 38.8426 48.2175 38.0283 48.4304 37.19C48.6685 36.3639 48.826 35.5166 48.9004 34.66C48.9779 33.7678 48.907 32.869 48.6904 32L48.8904 32.11C47.8268 32.4997 46.8463 33.0866 46.0004 33.84C45.1671 34.5743 44.4038 35.3844 43.7204 36.26C43.0887 37.0889 42.7383 38.098 42.7204 39.14C42.7404 40.2242 42.9714 41.2941 43.4004 42.29L43.1504 42.17C43.5945 42.1522 44.0363 42.0953 44.4704 42C44.9058 41.8891 45.3257 41.7245 45.7204 41.51ZM45.7704 41.6C44.968 42.0585 44.1114 42.4146 43.2204 42.66H43.0804L43.0004 42.54C42.2329 41.5729 41.7824 40.3926 41.7104 39.16C41.671 37.8775 42.1175 36.6274 42.9604 35.66C43.348 35.2024 43.7728 34.7776 44.2304 34.39C44.669 33.9894 45.1444 33.6312 45.6504 33.32C46.6586 32.7222 47.7238 32.2264 48.8304 31.84L48.9904 31.78L49.0004 32C49.2475 32.8853 49.428 33.7878 49.5404 34.7C49.6557 35.6366 49.574 36.5869 49.3004 37.49C49.0291 38.3974 48.5614 39.2338 47.9304 39.94C47.3035 40.605 46.5743 41.1654 45.7704 41.6Z" fill="#231F20"/>
<path d="M43.4496 39.9C43.8318 39.4421 44.1137 38.9092 44.2773 38.3356C44.441 37.7621 44.4826 37.1606 44.3996 36.57C44.1977 34.9985 43.4966 33.5333 42.3996 32.39C41.4519 33.139 40.6861 34.0928 40.1596 35.18C39.6196 36.32 38.9596 37.73 39.9096 39.35C40.3887 40.0965 41.0231 40.7309 41.7696 41.21C42.4088 40.8857 42.9793 40.4409 43.4496 39.9Z" fill="#A86F09"/>
<path d="M43.4202 39.86C43.856 39.3402 44.1027 38.6881 44.1202 38.01C44.1062 37.3601 44.0258 36.7135 43.8802 36.08C43.7524 35.4449 43.5683 34.8224 43.3302 34.22C43.1021 33.5886 42.7635 33.0028 42.3302 32.49H42.5502C41.8758 33.0356 41.3238 33.717 40.9302 34.49C40.5388 35.256 40.2271 36.0602 40.0002 36.89C39.8445 37.6371 39.9653 38.4153 40.3402 39.08C40.7741 39.7938 41.3098 40.4406 41.9302 41H41.6702C42.3442 40.7817 42.9481 40.3883 43.4202 39.86ZM43.4902 39.93C43.0199 40.4897 42.4863 40.993 41.9002 41.43L41.8202 41.5L41.6402 41.42C40.7489 41.0475 39.9921 40.4128 39.4702 39.6C39.1946 39.1681 39.0168 38.6811 38.9494 38.1732C38.8821 37.6653 38.9267 37.1488 39.0802 36.66C39.3499 35.7613 39.7839 34.9204 40.3602 34.18C40.9624 33.4791 41.6323 32.8393 42.3602 32.27L42.4702 32.17L42.5702 32.28C43.056 32.7982 43.5133 33.3423 43.9402 33.91C44.3786 34.5018 44.6761 35.1858 44.8102 35.91C44.9312 36.6404 44.8694 37.3894 44.6302 38.09C44.3649 38.7674 43.9786 39.3908 43.4902 39.93Z" fill="#231F20"/>
<path d="M47.4697 52.21C48.0163 52.447 48.5076 52.7952 48.9122 53.2325C49.3168 53.6698 49.6259 54.1866 49.8197 54.75C50.3446 56.2429 50.3831 57.8638 49.9297 59.38C48.7452 59.1393 47.6306 58.6333 46.6697 57.9C45.6697 57.12 44.4497 56.16 44.5697 54.29C44.6547 53.4062 44.9348 52.5524 45.3897 51.79C46.1035 51.7959 46.8096 51.9385 47.4697 52.21Z" fill="#A86F09"/>
<path d="M47.4899 52.16C48.1485 52.4327 48.7543 52.8185 49.2799 53.3C49.8154 53.8159 50.2111 54.4593 50.4299 55.17C50.6419 55.8767 50.6864 56.6231 50.5599 57.35C50.4391 58.0494 50.2754 58.7407 50.0699 59.42V59.57H49.9199C49.0295 59.374 48.1591 59.0961 47.3199 58.74C46.4465 58.3374 45.6588 57.7705 44.9999 57.07C44.6399 56.7018 44.364 56.2599 44.1914 55.7748C44.0188 55.2897 43.9534 54.7728 43.9999 54.26C44.1027 53.3003 44.4931 52.394 45.1199 51.66L45.2399 51.51H45.3499C46.0846 51.6486 46.8022 51.8665 47.4899 52.16ZM47.4899 52.25C46.8219 51.978 46.0929 51.8916 45.3799 52L45.6099 51.87C45.323 52.648 45.1479 53.4628 45.0899 54.29C45.0579 55.0519 45.299 55.8002 45.7699 56.4C46.3268 57.0308 46.943 57.6068 47.6099 58.12C48.3155 58.6608 49.1314 59.0398 49.9999 59.23L49.8199 59.34C49.9795 58.6861 50.0269 58.0098 49.9599 57.34C49.9004 56.6949 49.7867 56.056 49.6199 55.43C49.4593 54.7988 49.2348 54.1857 48.9499 53.6C48.6208 52.9903 48.0908 52.5133 47.4499 52.25H47.4899Z" fill="#231F20"/>
<path d="M34.5002 53.62C33.5449 54.9084 32.1501 55.8015 30.5802 56.13C28.606 56.5834 26.5405 56.4229 24.6602 55.67C25.3292 54.2376 26.2897 52.9604 27.4802 51.92C28.7602 50.82 30.3302 49.46 32.6802 49.84C33.7694 50.04 34.7968 50.4921 35.6802 51.16C35.4364 52.0437 35.0368 52.8768 34.5002 53.62Z" fill="#F8C803"/>
<path d="M34.5404 53.65C34.012 54.4154 33.3636 55.0907 32.6204 55.65C31.8345 56.1877 30.9401 56.5461 30.0004 56.7C29.0693 56.8702 28.1134 56.8498 27.1904 56.64C26.2953 56.4254 25.4165 56.1481 24.5604 55.81L24.4004 55.75L24.4804 55.6C24.9859 54.5441 25.592 53.5395 26.2904 52.6C26.6605 52.1369 27.0686 51.7054 27.5104 51.31C27.9722 50.8894 28.4708 50.5112 29.0004 50.18C30.0474 49.4373 31.34 49.1258 32.6104 49.31C33.817 49.5301 34.9251 50.1208 35.7804 51L35.9204 51.14V51.27C35.5596 52.1168 35.0961 52.9161 34.5404 53.65ZM34.4604 53.59C34.7217 53.2207 34.9303 52.8168 35.0804 52.39C35.2269 51.9674 35.334 51.5322 35.4004 51.09L35.4904 51.36C34.5452 50.8306 33.5058 50.4909 32.4304 50.36C31.3844 50.2557 30.3326 50.4906 29.4304 51.03C28.4873 51.6136 27.6002 52.2831 26.7804 53.03C25.9501 53.7964 25.2717 54.7124 24.7804 55.73L24.7004 55.53C25.5344 55.8331 26.4131 55.9953 27.3004 56.01C28.1612 56.0324 29.0222 55.9688 29.8704 55.82C30.7259 55.694 31.5668 55.4829 32.3804 55.19C33.2113 54.8645 33.9326 54.3096 34.4604 53.59Z" fill="#231F20"/>
<path d="M33.0999 47.86C31.7744 48.757 30.1677 49.1408 28.5799 48.94C26.5628 48.7149 24.6619 47.8813 23.1299 46.55C24.2301 45.4272 25.5466 44.5393 26.9999 43.94C28.5699 43.32 30.5099 42.56 32.5999 43.7C33.5628 44.2374 34.3851 44.9946 34.9999 45.91C34.4943 46.6733 33.8497 47.3347 33.0999 47.86Z" fill="#F8C803"/>
<path d="M33.1304 47.9C32.3796 48.4311 31.5493 48.8395 30.6704 49.11C29.7613 49.3724 28.8066 49.4372 27.8704 49.3C26.9355 49.1465 26.041 48.8064 25.2404 48.3C24.4526 47.8118 23.7037 47.2635 23.0004 46.66L22.8604 46.55L22.9904 46.44C23.8116 45.6031 24.7163 44.8526 25.6904 44.2C26.189 43.8817 26.7143 43.6074 27.2604 43.38C27.8061 43.125 28.3755 42.924 28.9604 42.78C30.1928 42.4309 31.5118 42.5631 32.6504 43.15C33.7373 43.7402 34.6117 44.6566 35.1504 45.77L35.2404 45.94L35.1504 46.05C34.5573 46.749 33.8787 47.3706 33.1304 47.9ZM33.0704 47.82C33.441 47.5566 33.777 47.2475 34.0704 46.9C34.3438 46.5457 34.5848 46.1675 34.7904 45.77V46.05C34.0772 45.2252 33.2113 44.5461 32.2404 44.05C31.3012 43.6231 30.2512 43.504 29.2404 43.71C28.1563 43.9493 27.0955 44.284 26.0704 44.71C25.0303 45.16 24.084 45.8011 23.2804 46.6V46.38C23.964 46.9432 24.7383 47.3862 25.5704 47.69C26.3752 47.998 27.2096 48.2225 28.0604 48.36C28.9096 48.5299 29.7743 48.6104 30.6404 48.6C31.5064 48.567 32.3469 48.2973 33.0704 47.82Z" fill="#231F20"/>
<path d="M33.9302 43.86C32.3968 43.3905 31.0902 42.3723 30.2602 41C29.1694 39.2899 28.6285 37.2867 28.7102 35.26C30.2822 35.4133 31.8048 35.8936 33.1802 36.67C34.6502 37.51 36.4502 38.54 36.8802 40.88C37.0446 41.9583 36.9591 43.06 36.6302 44.1C35.7231 44.1888 34.8074 44.1074 33.9302 43.86Z" fill="#F8C803"/>
<path d="M33.9199 43.91C33.0313 43.6643 32.1898 43.2723 31.4299 42.75C30.6581 42.2054 30.0105 41.5033 29.5299 40.69C29.0584 39.8625 28.7623 38.9468 28.6599 38C28.5573 37.0871 28.5239 36.1679 28.5599 35.25V35.1H28.7299C29.896 35.2252 31.0477 35.4596 32.1699 35.8C32.7305 35.9908 33.2727 36.2318 33.7899 36.52C34.3275 36.786 34.8397 37.1007 35.3199 37.46C36.3595 38.203 37.0752 39.3158 37.3199 40.57C37.542 41.7864 37.3777 43.0418 36.8499 44.16L36.7699 44.34H36.6299C35.7124 44.3082 34.8023 44.1637 33.9199 43.91ZM33.9199 43.82C34.3582 43.9328 34.8076 43.9965 35.2599 44.01C35.7066 44.0035 36.1517 43.9566 36.5899 43.87L36.3699 44.04C36.5612 42.9731 36.5408 41.879 36.3099 40.82C36.0577 39.8073 35.4862 38.9027 34.6799 38.24C33.8084 37.5502 32.8781 36.9378 31.8999 36.41C30.8992 35.8768 29.8067 35.5375 28.6799 35.41L28.8399 35.26C28.8345 36.1464 28.9729 37.0279 29.2499 37.87C29.5059 38.6872 29.8408 39.4776 30.2499 40.23C30.6525 40.9964 31.1316 41.7201 31.6799 42.39C32.2789 43.0754 33.064 43.5722 33.9399 43.82H33.9199Z" fill="#231F20"/>
<path d="M35.6898 53.85C34.6905 55.1071 34.1855 56.6863 34.2698 58.29C34.3532 60.3163 35.0507 62.2693 36.2698 63.89C37.4758 62.871 38.4595 61.615 39.1598 60.2C39.8898 58.68 40.7998 56.8 39.8198 54.63C39.3535 53.6516 38.6693 52.793 37.8198 52.12C37.0105 52.5623 36.2887 53.1485 35.6898 53.85Z" fill="#F8C803"/>
<path d="M35.7199 53.88C35.1674 54.5776 34.821 55.4159 34.7199 56.3C34.5943 58.0246 34.7737 59.7578 35.2499 61.42C35.4897 62.2732 35.8754 63.0784 36.3899 63.8H36.1599C37.021 63.0573 37.7336 62.1581 38.2599 61.15C38.7717 60.1633 39.1934 59.1325 39.5199 58.07C39.7882 57.0813 39.7463 56.0341 39.3999 55.07C38.9835 54.0681 38.3793 53.155 37.6199 52.38H37.8999C37.4926 52.5562 37.1012 52.767 36.7299 53.01C36.3606 53.2599 36.0217 53.5518 35.7199 53.88ZM35.6499 53.82C36.233 53.1012 36.9051 52.4594 37.6499 51.91L37.7699 51.82L37.9299 51.93C39.0043 52.5468 39.8552 53.4887 40.3599 54.62C40.8647 55.7993 40.8969 57.1276 40.4499 58.33C40.2596 58.9084 40.0152 59.4675 39.7199 60C39.458 60.5314 39.1466 61.037 38.7899 61.51C38.0578 62.4159 37.2407 63.2497 36.3499 64L36.2299 64.11L36.1299 63.97C35.5811 63.2335 35.0865 62.4581 34.6499 61.65C34.213 60.828 33.9444 59.9271 33.8599 59C33.7916 58.0554 33.928 57.1071 34.2599 56.22C34.5887 55.3493 35.0583 54.5385 35.6499 53.82Z" fill="#231F20"/>
<path d="M37.0002 54.05C37.0127 54.6456 36.9019 55.2373 36.6747 55.788C36.4476 56.3387 36.109 56.8364 35.6802 57.25C34.5383 58.3374 33.0826 59.0372 31.5202 59.25C31.2498 58.072 31.2498 56.848 31.5202 55.67C31.8002 54.44 32.1602 52.93 33.9102 52.25C34.7499 51.9543 35.6454 51.8517 36.5302 51.95C36.8197 52.6135 36.9793 53.3264 37.0002 54.05Z" fill="#A86F09"/>
<path d="M37.0798 54.05C37.1088 54.7642 37.0141 55.4781 36.7998 56.16C36.5558 56.8668 36.1359 57.5 35.5798 58C35.0258 58.4773 34.3685 58.8196 33.6598 59C32.9725 59.1854 32.2746 59.329 31.5698 59.43H31.4298V59.28C31.23 58.3896 31.1161 57.4821 31.0898 56.57C31.0935 55.6315 31.2733 54.7021 31.6198 53.83C31.8078 53.3531 32.0962 52.9223 32.4654 52.5669C32.8347 52.2114 33.2762 51.9396 33.7598 51.77C34.6738 51.46 35.6598 51.4321 36.5898 51.69L36.7798 51.74V51.85C36.9659 52.569 37.0666 53.3074 37.0798 54.05ZM36.9798 54.05C36.9476 53.3339 36.7155 52.641 36.3098 52.05L36.5198 52.2C35.6945 52.2618 34.8826 52.4438 34.1098 52.74C33.4023 53.0254 32.8229 53.5586 32.4798 54.24C32.1335 55.0068 31.8687 55.8078 31.6898 56.63C31.495 57.4823 31.495 58.3677 31.6898 59.22L31.5098 59.1C32.1742 58.9673 32.8125 58.7275 33.3998 58.39C33.9602 58.0717 34.4951 57.7107 34.9998 57.31C35.506 56.9023 35.9684 56.4431 36.3798 55.94C36.8006 55.4016 37.0199 54.733 36.9998 54.05H36.9798Z" fill="#231F20"/>
<path d="M48.4096 46.76C49.9977 46.9655 51.606 46.5812 52.9296 45.68C54.6259 44.5687 55.9442 42.9679 56.7096 41.09C55.215 40.5835 53.6323 40.3895 52.0596 40.52C50.3796 40.68 48.3096 40.87 46.9496 42.83C46.3613 43.7342 45.9853 44.7598 45.8496 45.83C46.639 46.2936 47.5067 46.6088 48.4096 46.76Z" fill="#F8C803"/>
<path d="M48.4097 46.71C49.2949 46.832 50.1965 46.7002 51.0097 46.33C51.7798 45.9563 52.513 45.511 53.1997 45C53.8956 44.4886 54.5388 43.909 55.1197 43.27C55.7289 42.6016 56.2194 41.8338 56.5697 41L56.6597 41.2C55.5833 40.8478 54.4502 40.7019 53.3197 40.77C52.2097 40.8449 51.1087 41.019 50.0297 41.29C49.0173 41.5695 48.1226 42.1694 47.4797 43C46.8336 43.8717 46.3617 44.8597 46.0897 45.91L45.9997 45.65C46.3605 45.9128 46.7456 46.1405 47.1497 46.33C47.5539 46.5042 47.9766 46.6317 48.4097 46.71ZM48.4097 46.81C47.4925 46.6801 46.5954 46.4348 45.7397 46.08H45.6097V45.88C45.5756 44.6508 45.9251 43.4415 46.6097 42.42C47.3575 41.3762 48.4783 40.66 49.7397 40.42C50.325 40.2907 50.9207 40.2137 51.5197 40.19C52.112 40.1401 52.7074 40.1401 53.2997 40.19C54.4617 40.3421 55.6067 40.6032 56.7197 40.97L56.8797 41.02L56.8097 41.18C56.4643 42.0308 56.0531 42.8533 55.5797 43.64C55.1046 44.4593 54.4585 45.1665 53.6854 45.7136C52.9123 46.2606 52.0304 46.6346 51.0997 46.81C50.2052 46.9507 49.2942 46.9507 48.3997 46.81H48.4097Z" fill="#231F20"/>
<path d="M32.6003 45.42C32.0127 45.5218 31.4102 45.4997 30.8316 45.3551C30.253 45.2104 29.711 44.9464 29.2404 44.58C27.9803 43.6225 27.0589 42.2877 26.6104 40.77C27.7291 40.3178 28.9371 40.1296 30.1404 40.22C31.4004 40.32 32.9504 40.45 33.8804 42.08C34.2898 42.8674 34.5251 43.7337 34.5704 44.62C33.9699 45.0083 33.3015 45.2797 32.6003 45.42Z" fill="#A86F09"/>
<path d="M32.6104 45.47C31.9055 45.5901 31.1853 45.5901 30.4804 45.47C29.7477 45.334 29.0604 45.0179 28.4804 44.55C27.9192 44.0695 27.4746 43.4677 27.1804 42.79C26.8944 42.1397 26.6505 41.4716 26.4504 40.79L26.4004 40.65L26.5404 40.6C27.3919 40.2739 28.2726 40.0294 29.1704 39.87C30.1134 39.7336 31.0738 39.7778 32.0004 40C32.5013 40.1131 32.9716 40.3334 33.3791 40.6459C33.7865 40.9584 34.1213 41.3556 34.3604 41.81C34.8001 42.6697 34.9708 43.6419 34.8504 44.6V44.79H34.7504C34.0643 45.0947 33.3466 45.3228 32.6104 45.47ZM32.6104 45.37C33.3036 45.2111 33.94 44.8653 34.4504 44.37L34.3304 44.6C34.1472 43.7924 33.851 43.0148 33.4504 42.29C33.054 41.6386 32.4419 41.1467 31.7204 40.9C30.9068 40.676 30.0725 40.5352 29.2304 40.48C28.362 40.4196 27.491 40.5528 26.6804 40.87L26.7704 40.68C27.0029 41.3185 27.3409 41.9134 27.7704 42.44C28.1808 42.9432 28.6287 43.4145 29.1104 43.85C29.5935 44.284 30.1157 44.6723 30.6704 45.01C31.2523 45.3408 31.9282 45.4676 32.5904 45.37H32.6104Z" fill="#231F20"/>
<path d="M45.4701 40.78C45.6039 40.1999 45.8559 39.6536 46.2104 39.1753C46.5648 38.697 47.0141 38.2969 47.5301 38C48.896 37.195 50.4823 36.8449 52.0601 37C52.0466 38.2086 51.7594 39.3984 51.2201 40.48C50.6401 41.6 49.9301 42.99 48.0701 43.22C47.1831 43.306 46.2881 43.1932 45.4501 42.89C45.328 42.1914 45.3347 41.4762 45.4701 40.78Z" fill="#A86F09"/>
<path d="M45.4203 40.77C45.561 40.0612 45.8286 39.3837 46.2103 38.77C46.6138 38.1491 47.1676 37.64 47.8203 37.29C48.4763 36.9503 49.2016 36.7655 49.9403 36.75C50.6515 36.7344 51.3629 36.7645 52.0703 36.84H52.2203V37C52.1965 37.9112 52.0894 38.8183 51.9003 39.71C51.667 40.6191 51.2668 41.477 50.7203 42.24C50.4259 42.6602 50.0435 43.0112 49.5996 43.2685C49.1558 43.5259 48.6612 43.6833 48.1503 43.73C47.1864 43.8129 46.2202 43.6001 45.3803 43.12L45.2103 43.03V42.92C45.2048 42.198 45.2752 41.4774 45.4203 40.77ZM45.5203 40.77C45.3969 41.4638 45.459 42.1779 45.7003 42.84L45.5303 42.64C46.3502 42.7744 47.1848 42.7946 48.0103 42.7C48.778 42.5998 49.4842 42.2272 50.0003 41.65C50.5181 40.9873 50.967 40.2737 51.3403 39.52C51.7113 38.7319 51.9026 37.8711 51.9003 37L52.0403 37.16C51.3653 37.1203 50.6886 37.1982 50.0403 37.39C49.4198 37.5764 48.8147 37.8105 48.2303 38.09C47.6419 38.3673 47.0825 38.7023 46.5603 39.09C46.0263 39.5183 45.6584 40.1196 45.5203 40.79V40.77Z" fill="#231F20"/>
<path d="M47.5804 49.6C47.9588 50.0604 48.429 50.4369 48.9611 50.7055C49.4931 50.9741 50.0752 51.1288 50.6704 51.16C52.2489 51.258 53.8178 50.8518 55.1504 50C54.5921 48.9299 53.799 48 52.8304 47.28C51.8304 46.54 50.5504 45.62 48.8304 46.28C48.004 46.6074 47.2597 47.1127 46.6504 47.76C46.8456 48.4249 47.1607 49.0485 47.5804 49.6Z" fill="#A86F09"/>
<path d="M47.6104 49.57C48.0424 50.0872 48.6391 50.4402 49.3004 50.57C49.9405 50.6826 50.5909 50.7262 51.2404 50.7C51.8914 50.6953 52.5407 50.6317 53.1804 50.51C53.8453 50.3901 54.4846 50.1567 55.0704 49.82L55.0103 50.03C54.6069 49.2491 54.0368 48.5663 53.3404 48.03C52.6612 47.5322 51.9382 47.0971 51.1804 46.73C50.4761 46.4749 49.7046 46.4749 49.0004 46.73C48.2232 47.0131 47.4894 47.4036 46.8204 47.89L46.8804 47.64C46.9455 48.3373 47.1977 49.0041 47.6104 49.57ZM47.5404 49.63C47.0751 49.0659 46.6789 48.4482 46.3604 47.79V47.69L46.4704 47.54C47.0035 46.7365 47.7668 46.1126 48.6604 45.75C49.1424 45.5573 49.6609 45.4726 50.1792 45.502C50.6976 45.5313 51.2032 45.674 51.6604 45.92C52.4948 46.3505 53.2384 46.9379 53.8503 47.65C54.4297 48.3533 54.9357 49.1139 55.3604 49.92L55.4403 50.05L55.3104 50.12C54.712 50.4921 54.0908 50.8261 53.4504 51.12C52.7864 51.4408 52.0577 51.6051 51.3204 51.6C50.5774 51.5831 49.8511 51.3766 49.2104 51C48.5733 50.6512 48.007 50.1866 47.5404 49.63Z" fill="#231F20"/>
<path d="M33.8496 50.25C33.4935 50.7246 33.0432 51.1206 32.527 51.4131C32.0108 51.7056 31.4397 51.8884 30.8496 51.95C29.2681 52.1123 27.6765 51.7617 26.3096 50.95C26.8165 49.8534 27.5653 48.8859 28.4996 48.12C29.4996 47.33 30.6896 46.35 32.4996 46.89C33.3392 47.18 34.1066 47.6472 34.7496 48.26C34.5811 48.9753 34.2755 49.6512 33.8496 50.25Z" fill="#A86F09"/>
<path d="M33.8896 50.28C33.4702 50.8557 32.9563 51.3561 32.3696 51.76C31.7456 52.1633 31.0305 52.404 30.2896 52.46C29.5499 52.5021 28.8105 52.372 28.1296 52.08C27.4799 51.8009 26.8456 51.4871 26.2296 51.14L26.0996 51.07L26.1696 50.94C26.5595 50.1155 27.0249 49.3288 27.5596 48.59C28.1466 47.8576 28.8615 47.2375 29.6696 46.76C30.1089 46.4961 30.6006 46.3316 31.1103 46.2781C31.6199 46.2245 32.1351 46.2832 32.6196 46.45C33.5328 46.7651 34.3281 47.3512 34.8996 48.13L35.0196 48.28V48.38C34.7114 49.0516 34.3326 49.6885 33.8896 50.28ZM33.8096 50.22C34.2114 49.6263 34.4463 48.9356 34.4896 48.22L34.5596 48.47C33.8685 48.0159 33.1181 47.6592 32.3296 47.41C31.5947 47.2082 30.8122 47.272 30.1196 47.59C29.3673 47.9875 28.6571 48.4599 27.9996 49C27.333 49.5431 26.7937 50.2258 26.4196 51L26.3596 50.8C26.9613 51.1066 27.6104 51.3095 28.2796 51.4C28.9226 51.4841 29.5716 51.5142 30.2196 51.49C30.869 51.486 31.516 51.4122 32.1496 51.27C32.8051 51.1162 33.3898 50.7464 33.8096 50.22Z" fill="#231F20"/>
<path d="M42.3999 55.26C42.7549 55.7375 43.006 56.2841 43.1369 56.8645C43.2678 57.4449 43.2756 58.0463 43.1599 58.63C42.8914 60.182 42.1347 61.6078 40.9999 62.7C40.0899 61.9026 39.3749 60.9071 38.9099 59.79C38.4399 58.62 37.9099 57.18 38.9099 55.62C39.4363 54.8909 40.1198 54.2894 40.9099 53.86C41.4879 54.2318 41.9929 54.7063 42.3999 55.26Z" fill="#A86F09"/>
<path d="M42.4401 55.23C42.8807 55.7934 43.2191 56.4297 43.4401 57.11C43.6481 57.8223 43.6722 58.5758 43.5101 59.3C43.3377 60.0357 42.9952 60.7207 42.5101 61.3C42.0579 61.845 41.5738 62.3626 41.0601 62.85L40.9501 62.96L40.8401 62.85C40.1664 62.2414 39.5505 61.5719 39.0001 60.85C38.4616 60.0788 38.0716 59.2141 37.8501 58.3C37.7267 57.8017 37.713 57.2827 37.8096 56.7785C37.9063 56.2744 38.1112 55.7973 38.4101 55.38C38.9766 54.6025 39.7641 54.0136 40.6701 53.69L40.8501 53.62L40.9401 53.69C41.4951 54.1467 41.9981 54.6632 42.4401 55.23ZM42.3601 55.29C41.9144 54.7411 41.3313 54.3202 40.6701 54.07H40.9301C40.2959 54.6053 39.7375 55.2243 39.2701 55.91C38.8644 56.5523 38.7013 57.3182 38.8101 58.07C38.9738 58.8997 39.2217 59.7106 39.5501 60.49C39.8918 61.2905 40.4036 62.0071 41.0501 62.59H40.8401C41.3177 62.1024 41.7099 61.5378 42.0001 60.92C42.2711 60.3307 42.4887 59.7182 42.6501 59.09C42.8329 58.4673 42.9502 57.8271 43.0001 57.18C43.0086 56.4954 42.7828 55.8285 42.3601 55.29Z" fill="#231F20"/>
<path d="M35.4699 41.16C34.9062 40.9639 34.3894 40.6529 33.9521 40.2467C33.5149 39.8404 33.1668 39.3478 32.9299 38.8C32.2959 37.3497 32.1384 35.7356 32.4799 34.19C33.6773 34.3457 34.825 34.7659 35.8399 35.42C36.8399 36.12 38.1799 36.99 38.1999 38.87C38.1823 39.7595 37.9671 40.6339 37.5699 41.43C36.8593 41.4689 36.1476 41.3774 35.4699 41.16Z" fill="#A86F09"/>
<path d="M35.4504 41.21C34.7726 40.9903 34.1394 40.6517 33.5804 40.21C33.0071 39.7391 32.5631 39.1299 32.2904 38.44C32.0294 37.7448 31.9302 36.9993 32.0004 36.26C32.0738 35.5548 32.184 34.8538 32.3304 34.16V34.01H32.4704C33.3756 34.132 34.2666 34.3431 35.1304 34.64C36.0085 34.9726 36.816 35.4679 37.5104 36.1C37.8938 36.4418 38.1981 36.8632 38.4019 37.3347C38.6057 37.8062 38.7042 38.3165 38.6904 38.83C38.6602 39.7925 38.3395 40.7233 37.7704 41.5L37.6604 41.66H37.5604C36.8428 41.587 36.1353 41.4361 35.4504 41.21ZM35.4504 41.12C36.1261 41.3262 36.8455 41.3435 37.5304 41.17L37.3104 41.32C37.5435 40.5243 37.6613 39.6992 37.6604 38.87C37.6161 38.1272 37.3198 37.4217 36.8204 36.87C36.2124 36.273 35.5418 35.7433 34.8204 35.29C34.0899 34.8153 33.2635 34.508 32.4004 34.39L32.5704 34.27C32.4585 34.932 32.4585 35.608 32.5704 36.27C32.6792 36.9096 32.8432 37.5386 33.0604 38.15C33.2613 38.7659 33.5261 39.3591 33.8504 39.92C34.2383 40.4968 34.8144 40.9209 35.4804 41.12H35.4504Z" fill="#231F20"/>
<path d="M48.5586 48.9286C49.281 44.4131 46.2062 40.167 41.6907 39.4445C37.1752 38.722 32.929 41.7969 32.2066 46.3124C31.4841 50.8279 34.559 55.0741 39.0745 55.7965C43.5899 56.519 47.8361 53.4441 48.5586 48.9286Z" fill="#8B5E3C"/>
<path d="M48.4897 45.69C49.0196 47.8569 48.7423 50.1426 47.7097 52.12C47.1728 53.1359 46.4187 54.021 45.5009 54.7124C44.5831 55.4037 43.5243 55.8843 42.3997 56.12C40.1825 56.5104 37.8993 56.065 35.9914 54.87C34.0835 53.675 32.6862 51.8152 32.0697 49.65C31.7475 48.5421 31.6576 47.3795 31.8055 46.2352C31.9535 45.0909 32.3362 43.9895 32.9297 43C33.5176 42.005 34.2995 41.1382 35.2288 40.4511C36.1581 39.7639 37.216 39.2705 38.3397 39C39.4587 38.7325 40.6217 38.7047 41.7523 38.9184C42.8828 39.1321 43.9554 39.5825 44.8997 40.24C46.7248 41.5543 48.0027 43.4942 48.4897 45.69ZM48.3897 45.69C48.1302 44.6542 47.6537 43.6853 46.9917 42.8475C46.3298 42.0097 45.4974 41.322 44.5497 40.83C42.7108 39.8487 40.5751 39.5782 38.5497 40.07C36.5511 40.551 34.8143 41.7828 33.6997 43.51C32.5741 45.2751 32.1662 47.4039 32.5597 49.46C32.7639 50.5038 33.1844 51.4932 33.7941 52.3647C34.4038 53.2361 35.1891 53.9703 36.0997 54.52C37.0107 55.0426 38.0177 55.3765 39.0605 55.5019C40.1033 55.6273 41.1606 55.5417 42.1697 55.25C44.1887 54.7091 45.9565 53.4822 47.1697 51.78C47.7893 50.9114 48.2184 49.9215 48.4286 48.8754C48.6389 47.8293 48.6256 46.7506 48.3897 45.71V45.69Z" fill="#231F20"/>
<path d="M46.8511 48.6553C47.4227 45.0833 44.9902 41.7243 41.4182 41.1528C37.8462 40.5813 34.4872 43.0137 33.9157 46.5857C33.3442 50.1578 35.7766 53.5168 39.3486 54.0883C42.9206 54.6598 46.2796 52.2274 46.8511 48.6553Z" fill="#3C2415"/>
<path d="M46.8103 46.09C47.245 47.8151 47.0463 49.639 46.2503 51.23C45.8195 52.0513 45.217 52.7703 44.4836 53.338C43.7503 53.9057 42.9033 54.3088 42.0003 54.52C41.098 54.7359 40.1614 54.7666 39.247 54.6102C38.3326 54.4538 37.4594 54.1135 36.6803 53.61C35.9044 53.1224 35.2375 52.48 34.7213 51.7229C34.2051 50.9658 33.8507 50.1103 33.6803 49.21C33.3532 47.4515 33.6804 45.634 34.6003 44.1C35.4975 42.5271 36.9656 41.3598 38.7003 40.84C39.5833 40.5988 40.5089 40.5572 41.41 40.718C42.3112 40.8789 43.1652 41.2382 43.9103 41.77C45.3693 42.8102 46.4001 44.3457 46.8103 46.09ZM46.7103 46.09C46.5067 45.2738 46.1286 44.5115 45.6021 43.8554C45.0755 43.1994 44.4131 42.6654 43.6603 42.29C42.2106 41.5534 40.5567 41.3211 38.9603 41.63C38.1518 41.7759 37.381 42.083 36.6938 42.5332C36.0066 42.9833 35.417 43.5672 34.9603 44.25C34.5141 44.9585 34.2245 45.7542 34.1106 46.5837C33.9968 47.4132 34.0615 48.2575 34.3003 49.06C34.7617 50.6272 35.7973 51.9628 37.2003 52.8C38.5846 53.6017 40.2227 53.8449 41.7803 53.48C43.351 53.1051 44.737 52.1834 45.6903 50.88C46.1947 50.2057 46.547 49.4302 46.7231 48.6068C46.8992 47.7834 46.8948 46.9316 46.7103 46.11V46.09Z" fill="#231F20"/>
<path d="M39.5798 45.92C39.8946 45.92 40.1498 45.6648 40.1498 45.35C40.1498 45.0352 39.8946 44.78 39.5798 44.78C39.265 44.78 39.0098 45.0352 39.0098 45.35C39.0098 45.6648 39.265 45.92 39.5798 45.92Z" fill="#3A331A"/>
<path d="M40.77 46.93C41.0351 46.93 41.25 46.7151 41.25 46.45C41.25 46.1849 41.0351 45.97 40.77 45.97C40.5049 45.97 40.29 46.1849 40.29 46.45C40.29 46.7151 40.5049 46.93 40.77 46.93Z" fill="#3A331A"/>
<path d="M40.9704 45.79C41.2852 45.79 41.5404 45.5348 41.5404 45.22C41.5404 44.9052 41.2852 44.65 40.9704 44.65C40.6556 44.65 40.4004 44.9052 40.4004 45.22C40.4004 45.5348 40.6556 45.79 40.9704 45.79Z" fill="#3A331A"/>
<path d="M39.4097 48.23C39.6748 48.23 39.8897 48.0151 39.8897 47.75C39.8897 47.4849 39.6748 47.27 39.4097 47.27C39.1446 47.27 38.9297 47.4849 38.9297 47.75C38.9297 48.0151 39.1446 48.23 39.4097 48.23Z" fill="#3A331A"/>
<path d="M41.9401 49.32C42.2549 49.32 42.5101 49.0648 42.5101 48.75C42.5101 48.4352 42.2549 48.18 41.9401 48.18C41.6253 48.18 41.3701 48.4352 41.3701 48.75C41.3701 49.0648 41.6253 49.32 41.9401 49.32Z" fill="#3A331A"/>
<path d="M42.5095 47.87C42.8243 47.87 43.0795 47.6148 43.0795 47.3C43.0795 46.9852 42.8243 46.73 42.5095 46.73C42.1947 46.73 41.9395 46.9852 41.9395 47.3C41.9395 47.6148 42.1947 47.87 42.5095 47.87Z" fill="#3A331A"/>
<path d="M38.32 46.81C38.6348 46.81 38.89 46.5548 38.89 46.24C38.89 45.9252 38.6348 45.67 38.32 45.67C38.0052 45.67 37.75 45.9252 37.75 46.24C37.75 46.5548 38.0052 46.81 38.32 46.81Z" fill="#3A331A"/>
<path d="M38.0895 48.29C38.4043 48.29 38.6595 48.0348 38.6595 47.72C38.6595 47.4052 38.4043 47.15 38.0895 47.15C37.7747 47.15 37.5195 47.4052 37.5195 47.72C37.5195 48.0348 37.7747 48.29 38.0895 48.29Z" fill="#3A331A"/>
<path d="M39.5396 47.1C39.8047 47.1 40.0196 46.8851 40.0196 46.62C40.0196 46.3549 39.8047 46.14 39.5396 46.14C39.2745 46.14 39.0596 46.3549 39.0596 46.62C39.0596 46.8851 39.2745 47.1 39.5396 47.1Z" fill="#3A331A"/>
<path d="M40.7096 50.1C41.0245 50.1 41.2796 49.8448 41.2796 49.53C41.2796 49.2152 41.0245 48.96 40.7096 48.96C40.3948 48.96 40.1396 49.2152 40.1396 49.53C40.1396 49.8448 40.3948 50.1 40.7096 50.1Z" fill="#3A331A"/>
<path d="M38.9499 49.83C39.2647 49.83 39.5199 49.5748 39.5199 49.26C39.5199 48.9452 39.2647 48.69 38.9499 48.69C38.6351 48.69 38.3799 48.9452 38.3799 49.26C38.3799 49.5748 38.6351 49.83 38.9499 49.83Z" fill="#3A331A"/>
<path d="M42.1901 46.5C42.5049 46.5 42.7601 46.2448 42.7601 45.93C42.7601 45.6152 42.5049 45.36 42.1901 45.36C41.8753 45.36 41.6201 45.6152 41.6201 45.93C41.6201 46.2448 41.8753 46.5 42.1901 46.5Z" fill="#3A331A"/>
<path d="M40.4302 48.77C40.6953 48.77 40.9102 48.5551 40.9102 48.29C40.9102 48.0249 40.6953 47.81 40.4302 47.81C40.1651 47.81 39.9502 48.0249 39.9502 48.29C39.9502 48.5551 40.1651 48.77 40.4302 48.77Z" fill="#3A331A"/>
<path d="M41.3404 47.92C41.6054 47.92 41.8204 47.7051 41.8204 47.44C41.8204 47.1749 41.6054 46.96 41.3404 46.96C41.0753 46.96 40.8604 47.1749 40.8604 47.44C40.8604 47.7051 41.0753 47.92 41.3404 47.92Z" fill="#3A331A"/>
<path d="M40.2903 47.46C40.4339 47.46 40.5503 47.3436 40.5503 47.2C40.5503 47.0564 40.4339 46.94 40.2903 46.94C40.1467 46.94 40.0303 47.0564 40.0303 47.2C40.0303 47.3436 40.1467 47.46 40.2903 47.46Z" fill="#3A331A"/>
<path d="M38.8401 47.34C38.9837 47.34 39.1001 47.2236 39.1001 47.08C39.1001 46.9364 38.9837 46.82 38.8401 46.82C38.6965 46.82 38.5801 46.9364 38.5801 47.08C38.5801 47.2236 38.6965 47.34 38.8401 47.34Z" fill="#3A331A"/>
<path d="M39.6096 48.84C39.7532 48.84 39.8696 48.7236 39.8696 48.58C39.8696 48.4364 39.7532 48.32 39.6096 48.32C39.466 48.32 39.3496 48.4364 39.3496 48.58C39.3496 48.7236 39.466 48.84 39.6096 48.84Z" fill="#3A331A"/>
<path d="M41.5696 46.89C41.7132 46.89 41.8296 46.7736 41.8296 46.63C41.8296 46.4864 41.7132 46.37 41.5696 46.37C41.426 46.37 41.3096 46.4864 41.3096 46.63C41.3096 46.7736 41.426 46.89 41.5696 46.89Z" fill="#3A331A"/>
<path d="M46.3802 78.36C45.2844 78.9029 44.0781 79.1854 42.8552 79.1854C41.6323 79.1854 40.4259 78.9029 39.3302 78.36C37.8337 77.5602 36.6172 76.3224 35.8434 74.8123C35.0696 73.3022 34.7754 71.5919 35.0002 69.91C37.4002 69.6216 39.8245 70.1958 41.8402 71.53C43.0123 72.3103 44.0173 73.316 44.7968 74.4886C45.5762 75.6612 46.1145 76.9773 46.3802 78.36Z" fill="#3E9581"/>
<path d="M46.42 78.38C45.151 79.2167 43.6481 79.6266 42.13 79.55C40.5855 79.4967 39.1062 78.9141 37.94 77.9C36.8346 76.888 35.9818 75.6311 35.45 74.23C34.8735 72.8488 34.6204 71.354 34.71 69.86V69.63H34.98C36.3079 69.3893 37.6721 69.437 38.98 69.77C40.3173 70.0758 41.5705 70.6734 42.65 71.52C43.7227 72.3561 44.6113 73.4047 45.26 74.6C45.9178 75.7603 46.3138 77.0505 46.42 78.38ZM46.33 78.38C45.9426 77.1755 45.3763 76.0361 44.65 75C43.9527 73.9712 43.0752 73.0769 42.06 72.36C40.0465 70.8606 37.5651 70.1269 35.06 70.29L35.35 70.01C35.0461 71.3978 35.1716 72.8453 35.71 74.16C36.2768 75.46 37.212 76.5655 38.4 77.34C39.522 78.1225 40.8144 78.6265 42.17 78.81C43.5743 78.9468 44.9916 78.7867 46.33 78.34V78.38Z" fill="#231F20"/>
<path d="M46.41 78.43C45.96 78.24 45.41 78.02 44.88 77.75C43.3802 77.0459 41.939 76.2233 40.57 75.29C38.4552 73.7848 36.5777 71.9714 35 69.91C37.2023 69.6263 39.4364 70.0837 41.35 71.21C42.6458 71.9994 43.7642 73.0484 44.635 74.2909C45.5058 75.5334 46.1101 76.9427 46.41 78.43Z" fill="#1E6F5D"/>
<path d="M46.4398 78.47C45.9598 78.31 45.2598 78.16 44.6498 77.93C44.0398 77.7 43.5298 77.47 42.9798 77.21C41.8774 76.6912 40.8346 76.0541 39.8698 75.31C38.9382 74.525 38.072 73.6655 37.2798 72.74L34.8498 70.05L34.5898 69.76L35.0098 69.68C36.3322 69.4143 37.6961 69.4348 39.0098 69.74C40.3506 70.0481 41.6092 70.6416 42.6998 71.48C43.7828 72.3188 44.6701 73.3835 45.2998 74.6C45.9678 75.7871 46.3576 77.1104 46.4398 78.47ZM46.3698 78.39C45.9307 77.1968 45.3534 76.0591 44.6498 75C43.9468 73.9711 43.0784 73.0655 42.0798 72.32C41.0977 71.5582 39.9867 70.979 38.7998 70.61C37.5938 70.2347 36.3316 70.0723 35.0698 70.13L35.2198 69.76C35.8799 70.7545 36.659 71.6646 37.5398 72.47C38.4335 73.2511 39.3827 73.9663 40.3798 74.61C41.3798 75.27 42.3298 75.92 43.3798 76.53L44.9098 77.45C45.3498 77.73 45.7598 78.05 46.3698 78.39Z" fill="#231F20"/>
</g>
<defs>
<clipPath id="clip0">
<rect width="87.08" height="132.25" fill="white"/>
</clipPath>
</defs>
</svg>
