<svg width="111" height="102" viewBox="0 0 111 102" fill="none" xmlns="http://www.w3.org/2000/svg">
<path d="M62.7711 48.7511C63.3173 47.1249 66.7503 37.2902 76.4252 30.0496C79 28.1524 83.3303 25.3646 84.0325 26.139C84.8908 27.107 78.844 32.5277 73.4213 40.7749C63.9415 55.101 63.1612 67.4912 61.6008 67.2202C60.1964 66.9104 59.8062 57.5403 62.7711 48.7511Z" fill="#1E6F5D"/>
<path d="M62.5759 48.6735C63.9803 44.8016 65.4237 40.8909 67.6084 37.2126C69.715 33.4956 72.836 30.3206 76.4641 28.0361C78.3366 26.952 80.1312 25.9453 82.3548 25.2096C82.6669 25.1322 82.94 25.0548 83.3301 25.016C83.4862 24.9773 83.7983 25.016 84.0713 25.0548C84.4615 25.1709 84.8906 25.5194 85.0076 25.984C85.1247 26.7971 84.8126 27.0682 84.6955 27.3392C84.5395 27.6489 84.3444 27.8038 84.1884 28.0749C83.5252 28.9267 82.784 29.6624 82.1208 30.4367C79.3509 33.4956 76.9322 36.8254 74.9426 40.3876C70.9634 47.4732 67.9985 54.8686 65.7358 62.6512L64.7605 65.5938C64.5655 66.0972 64.4094 66.6005 64.0973 67.2588C63.8243 67.6072 63.7853 67.9557 63.044 68.6139C62.7319 68.8075 62.4979 68.9624 61.9907 69.0399C61.4445 69.1173 61.0544 69.0011 60.7814 68.885C60.4693 68.7301 60.1572 68.5365 59.9231 68.3042L59.65 67.917C59.0648 66.8716 59.1038 66.3682 58.9868 65.71C58.9478 65.1292 58.9088 64.5484 58.9478 64.0064C58.9478 62.8835 59.1038 61.8381 59.2599 60.7927C59.9621 56.5335 61.2885 52.5842 62.5759 48.6735ZM62.927 48.7897C61.6396 52.6616 61.4836 56.882 61.8347 60.8314C61.9127 61.8381 62.0687 62.8061 62.2248 63.7353C62.3028 64.1999 62.4198 64.6646 62.4979 65.0905C62.5759 65.439 62.81 65.981 62.7709 65.7874C62.7709 65.7487 62.7319 65.7487 62.6929 65.71C62.5759 65.5551 62.3808 65.4002 62.1858 65.3228C62.0297 65.2841 61.7176 65.2066 61.3275 65.2454C60.9374 65.3228 60.8594 65.3615 60.6253 65.5164C60.2742 65.8262 60.4302 65.6713 60.4693 65.5551C60.5863 65.2454 60.7423 64.7807 60.8594 64.3161L61.6786 61.3734C64.0193 53.3973 67.7644 45.576 73.109 39.1099C75.7228 35.8574 78.5317 32.7986 81.0674 29.5849C81.7306 28.888 82.3548 28.0361 82.823 27.223C82.901 27.0294 83.057 26.7971 83.096 26.6422C83.1741 26.4874 83.1351 26.2163 83.1351 26.5648C83.1741 26.7971 83.4081 26.9907 83.5642 26.9907C83.6032 27.0294 83.6422 27.0294 83.5642 27.0294C83.4472 27.0682 83.2521 27.1456 83.057 27.2618C81.4576 28.1136 79.8191 29.43 78.2976 30.6691C75.2157 33.1471 72.3678 35.78 69.52 38.6452C66.7892 41.5492 64.2144 44.9177 62.927 48.7897Z" fill="black"/>
<path d="M58.4801 26.1779C57.3878 26.1005 53.6427 37.2903 54.5009 50.1451C54.813 54.9463 55.5933 56.9984 55.4762 62.9612C55.3202 71.8279 53.4086 75.6611 54.3449 76.087C56.0614 76.8227 66.0484 65.2844 64.4099 53.6299C63.8637 49.7579 62.5373 49.5643 60.7818 43.0595C58.051 32.8763 59.3384 26.2553 58.4801 26.1779Z" fill="#3E9581"/>
<path d="M58.4795 26.3713C57.9723 26.836 57.5042 28.1137 57.1921 29.0817C56.919 30.1658 56.6459 31.2112 56.5289 32.2954C56.2168 34.4249 56.0608 36.5932 56.0608 38.7615C56.0608 43.0981 56.0998 47.3185 56.2558 51.5776C56.2948 53.7071 56.4899 55.9141 56.4509 58.1599C56.4119 60.4056 56.2168 62.6513 56.0217 64.8583C55.8657 67.0653 55.6316 69.2723 55.3586 71.4406C55.2415 72.5247 55.0465 73.6476 54.9684 74.693C54.9684 74.964 54.9294 75.1963 54.9684 75.3899C54.9684 75.4674 55.0074 75.5448 55.0074 75.5061C55.0465 75.4674 54.7734 75.1963 54.6954 75.1576C54.6563 75.0415 54.4613 75.1189 54.5393 75.1189L54.7344 75.0027C54.8514 74.9253 55.0855 74.7317 55.2415 74.5768C60.5471 68.5366 63.9021 59.5538 62.0295 52.2358C61.6004 50.6096 60.313 48.3639 59.8059 46.1182C59.1427 43.9112 58.8306 41.6654 58.6355 39.4197C58.4795 37.1353 58.4015 34.9283 58.4795 32.6826L58.5575 29.3914C58.5965 28.3847 58.6355 26.9521 58.4795 26.3713ZM58.4795 25.9841C59.0256 26.2939 58.8696 26.6036 58.9866 26.8747L59.0647 27.7265L59.1817 29.3527C59.2597 30.4756 59.3377 31.5597 59.5718 32.6051C59.9619 34.7347 60.4691 36.8643 61.1713 38.9164C61.8345 40.9685 62.6147 42.9819 63.3559 44.9179C64.0972 46.9313 65.0725 48.4413 66.0087 50.9968C67.3742 55.9141 66.5159 60.7928 64.7604 65.0906C62.9658 69.3885 60.4301 73.2604 56.5679 76.203C56.2558 76.3966 56.0998 76.5515 55.7097 76.7064L55.1635 76.9387C54.9684 77.0162 54.5003 77.0162 54.1882 76.9387C54.0712 76.9387 53.7591 76.7451 53.603 76.5902C53.408 76.3966 53.408 76.2418 53.3299 76.0869C53.2519 75.7771 53.2519 75.5835 53.2519 75.3899C53.2909 75.0415 53.3299 74.7317 53.408 74.4607C53.681 73.3378 53.9151 72.2924 54.1492 71.247C54.5783 69.1174 54.8124 66.9491 54.8514 64.7809C55.0074 60.3669 53.9151 56.3401 53.0959 51.8873C52.3546 47.3959 52.5497 42.827 53.642 38.4905C54.1492 36.3222 54.7734 34.1539 55.5536 32.0631C55.9437 31.0176 56.2948 29.9722 56.724 28.9268C56.958 28.4234 57.1141 27.8814 57.3872 27.378C57.6212 26.9134 57.6602 26.3326 58.4795 25.9841Z" fill="black"/>
<path d="M54.1106 74.3446C50.5996 62.8062 45.6451 56.6111 41.6269 53.0102C39.8324 51.4227 37.4526 49.6804 34.6048 46.1182C29.2602 39.5359 28.2459 34.1152 27.3096 34.3475C26.0612 34.6186 25.32 45.8472 30.3915 55.7206C36.7114 68.0333 49.3122 72.8345 54.1106 74.3446Z" fill="#3E9581"/>
<path d="M53.9545 74.2284C51.9259 70.7824 50.0924 66.7556 47.8687 63.387C45.645 59.9022 43.0703 56.766 40.1834 53.9395C38.701 52.4681 37.1015 50.8807 35.7751 49.1383C34.4097 47.4346 33.2003 45.6148 32.03 43.795C30.8986 41.9752 29.8063 40.1167 28.792 38.2194C28.3238 37.2902 27.8167 36.2835 27.3095 35.4704C27.1925 35.2768 26.9584 35.0057 27.0755 35.1606C27.0365 35.1219 27.1925 35.2768 27.3876 35.2381C27.5826 35.1993 27.6216 35.2381 27.6997 35.1993C27.8947 35.0057 27.8167 35.1219 27.8167 35.1993C27.7387 35.4317 27.6606 35.9737 27.6216 36.4384C27.6606 44.492 30.1964 52.7005 34.9168 59.0504C39.4812 65.594 46.6984 70.3565 53.9545 74.2284ZM54.2276 74.4994C49.5462 73.8799 45.684 72.2924 41.7049 70.1629C37.8817 67.9559 34.3316 65.0906 31.5618 61.4897C28.831 57.8888 26.9974 53.6297 25.9831 49.3319C24.9688 44.9953 24.6177 40.5813 25.515 36.1286C25.671 35.5478 25.7491 35.0057 26.1392 34.3088C26.1002 34.1539 27.1145 32.9536 28.0508 33.6893C28.5969 34.1539 28.5969 34.3862 28.753 34.6573L30.0013 37.6387C30.8206 39.5746 31.8739 41.3944 33.0833 43.0981C35.58 46.5441 38.818 49.0608 42.29 51.5389C45.8401 54.2879 48.5319 58.005 50.4825 61.9156C52.4331 65.9037 53.7595 69.8531 54.2276 74.4994Z" fill="black"/>
</svg>
