<svg width="108" height="103" viewBox="0 0 108 103" fill="none" xmlns="http://www.w3.org/2000/svg">
<path d="M47.3598 99.47C42.4398 93.26 25.1398 70 30.9198 43.72C32.2698 37.6 34.8398 25.93 44.9998 20.83C54.0698 16.28 66.7898 18.16 73.1698 25.52C77.3898 30.41 77.7998 36.52 77.8598 41.37C77.9998 51.82 76.6798 71.08 66.1298 97.7C64.8623 99.1128 63.3241 100.257 61.6064 101.064C59.8886 101.871 58.0263 102.326 56.1298 102.4C52.959 102.445 49.8669 101.412 47.3598 99.47Z" fill="#3A7867"/>
<path d="M47.32 99.5C44.8033 96.3497 42.4886 93.0431 40.39 89.6C38.2707 86.1647 36.3864 82.5899 34.75 78.9C33.1233 75.1933 31.8217 71.3522 30.86 67.42C29.9128 63.4722 29.4162 59.4297 29.38 55.37C29.3466 53.3433 29.4334 51.3165 29.64 49.3L29.7 48.54L29.84 47.79L30.11 46.29C30.29 45.29 30.45 44.29 30.66 43.29C31.4752 39.3252 32.7505 35.4691 34.46 31.8C36.1833 28.107 38.7944 24.8981 42.06 22.46C43.7004 21.2625 45.5059 20.3092 47.42 19.63C49.3281 18.9363 51.318 18.4926 53.34 18.31C55.3586 18.0901 57.3962 18.1102 59.41 18.37C61.4314 18.6125 63.4159 19.0994 65.32 19.82C67.2309 20.5439 69.0368 21.5191 70.69 22.72C72.3265 23.9711 73.7513 25.477 74.91 27.18C77.049 30.7047 78.2057 34.7375 78.26 38.86C78.4321 42.907 78.3687 46.9605 78.07 51C77.4389 59.0619 76.1004 67.0526 74.07 74.88C72.0223 82.6851 69.4395 90.3399 66.34 97.79C65.138 99.1053 63.7084 100.193 62.12 101C60.5574 101.787 58.8617 102.275 57.12 102.44C55.3773 102.594 53.6213 102.407 51.95 101.89C50.2725 101.386 48.7027 100.575 47.32 99.5ZM47.39 99.43C48.7715 100.479 50.3341 101.266 52 101.75C53.6498 102.255 55.3837 102.427 57.1005 102.255C58.8174 102.084 60.4829 101.572 62 100.75C63.5102 99.9423 64.8646 98.8723 66 97.59V97.66C71.59 82.6001 75.9 66.97 77.14 50.96C77.463 46.9687 77.5565 42.9621 77.42 38.96C77.3959 34.9875 76.3379 31.0896 74.35 27.65C73.2581 25.9982 71.9075 24.5328 70.35 23.31C68.7616 22.1178 67.0234 21.1394 65.18 20.4C63.3256 19.6627 61.3878 19.1556 59.41 18.89C57.4238 18.5944 55.4091 18.5407 53.41 18.73C51.4027 18.8932 49.4257 19.3202 47.53 20C45.6363 20.645 43.8523 21.5757 42.24 22.76C39.0466 25.1775 36.5065 28.3534 34.85 32C33.241 35.6716 32.0632 39.5172 31.34 43.46C31.15 44.46 31.02 45.46 30.85 46.46L30.62 47.94L30.5 48.68V49.43C30.3059 51.4238 30.2325 53.4274 30.28 55.43C30.28 56.43 30.28 57.43 30.38 58.43L30.71 61.43C30.7964 62.4374 30.94 63.439 31.14 64.43C31.33 65.43 31.48 66.43 31.7 67.38C32.6116 71.2815 33.815 75.1089 35.3 78.83C36.8307 82.5413 38.608 86.1461 40.62 89.62C42.6646 93.0314 44.9259 96.3082 47.39 99.43Z" fill="#231F20"/>
<path d="M65.3693 42.86C60.6993 29.52 48.5993 24.34 50.9093 20.41C53.2193 16.48 66.4893 17.74 73.1793 25.28C77.5493 30.22 77.8693 36.57 77.8693 41.13C77.8693 62.06 71.2693 83.75 66.1293 97.7C64.9654 99.0724 63.5192 100.178 61.8893 100.94C59.6693 101.94 55.8893 102.87 54.4293 101.94C48.8493 98.22 74.0793 67.78 65.3693 42.86Z" fill="#1E6F5D"/>
<path d="M65.3396 42.87C63.4635 37.9031 60.5603 33.388 56.8196 29.62C55.0396 27.62 53.0396 25.91 51.4196 23.77C51.0006 23.2275 50.6977 22.6046 50.5296 21.94C50.4572 21.6021 50.4618 21.2522 50.5432 20.9164C50.6245 20.5805 50.7806 20.2673 50.9996 20C51.9921 19.0462 53.279 18.4574 54.6496 18.33C57.3281 17.9811 60.0495 18.1784 62.6496 18.91C65.2421 19.5821 67.6985 20.6987 69.9096 22.21C72.1347 23.6977 73.9862 25.6792 75.3196 28C76.5944 30.3567 77.4024 32.9372 77.6996 35.6C77.9964 38.2557 78.0767 40.9312 77.9396 43.6C77.9396 44.93 77.8396 46.25 77.7596 47.6C77.6796 48.95 77.5596 50.25 77.4396 51.6C76.942 56.8451 76.1609 62.0594 75.0996 67.22C72.963 77.614 70.0378 87.8302 66.3496 97.78C65.3126 98.9964 64.0621 100.013 62.6596 100.78C61.2504 101.509 59.7405 102.025 58.1796 102.31C57.3908 102.474 56.5832 102.527 55.7796 102.47C55.3603 102.444 54.9498 102.339 54.5696 102.16C54.1668 101.966 53.8447 101.637 53.6596 101.23C53.3908 100.445 53.3424 99.6008 53.5196 98.79C53.6643 98.0109 53.8615 97.2425 54.1096 96.49C55.1096 93.49 56.4096 90.66 57.6496 87.79C58.8896 84.92 60.1396 82.07 61.3096 79.18C63.7391 73.4358 65.5072 67.4339 66.5796 61.29C67.6748 55.1408 67.2491 48.817 65.3396 42.87ZM65.3396 42.87C67.3073 48.8408 67.7845 55.2024 66.7296 61.4C65.7151 67.5712 64.0111 73.609 61.6496 79.4C60.5296 82.32 59.2696 85.18 58.0096 88.04C56.7496 90.9 55.4596 93.74 54.4796 96.68C54.2628 97.41 54.1024 98.1555 53.9996 98.91C53.832 99.6281 53.8631 100.378 54.0896 101.08C54.2583 101.392 54.5104 101.65 54.8177 101.827C55.125 102.004 55.4754 102.091 55.8296 102.08C56.5863 102.13 57.3461 102.079 58.0896 101.93C59.6053 101.657 61.0716 101.158 62.4396 100.45C63.7925 99.7118 64.9991 98.7323 65.9996 97.56V97.63C69.7444 87.7151 72.7525 77.5375 74.9996 67.18C76.0924 61.9952 76.897 56.7538 77.4096 51.48C77.5196 50.16 77.6496 48.85 77.6996 47.48C77.7496 46.11 77.8496 44.84 77.8396 43.48C77.9534 40.8365 77.8564 38.1881 77.5496 35.56C77.1748 32.9607 76.3094 30.4563 74.9996 28.18C73.6787 25.9023 71.8516 23.9588 69.6596 22.5C67.4719 21.0346 65.0506 19.9524 62.4996 19.3C59.9762 18.5634 57.331 18.339 54.7196 18.64C53.4285 18.7447 52.21 19.2799 51.2596 20.16C51.0536 20.3908 50.9039 20.6663 50.8223 20.9647C50.7408 21.2632 50.7296 21.5765 50.7896 21.88C50.9462 22.5069 51.2286 23.0955 51.6196 23.61C53.1796 25.72 55.1696 27.51 56.9296 29.49C60.6624 33.2952 63.5458 37.8487 65.3896 42.85L65.3396 42.87Z" fill="#231F20"/>
<path d="M68.82 24.49C66.94 13.06 79.33 0.469998 91.47 0.249998C96.47 0.159998 104.1 2.09 106.57 7.8C109.99 15.8 100.77 25.09 99.41 26.47C90.79 35.21 78.91 35.3 75.57 35.21C73.11 33.18 69.65 29.57 68.82 24.49Z" fill="#3A7867"/>
<path d="M68.7696 24.49C68.4561 22.3772 68.5341 20.2247 68.9996 18.14C69.5034 16.0529 70.3121 14.0513 71.3996 12.2C71.6578 11.7293 71.945 11.2751 72.2596 10.84C72.5696 10.41 72.8496 9.94002 73.1896 9.53002C73.8534 8.67803 74.5751 7.87279 75.3496 7.12002C76.8645 5.57036 78.5757 4.22561 80.4396 3.12002C84.1694 0.871065 88.4914 -0.198988 92.8396 0.0500231C94.9758 0.196152 97.0819 0.633532 99.0996 1.35002C100.099 1.72176 101.069 2.16974 102 2.69002C102.933 3.22888 103.796 3.88044 104.57 4.63002C106.148 6.1487 107.172 8.1517 107.48 10.32C107.727 12.4934 107.424 14.694 106.6 16.72C104.927 20.7037 102.441 24.2938 99.2996 27.26C96.1928 30.2835 92.4277 32.546 88.2996 33.87C84.1935 35.2107 79.871 35.7637 75.5596 35.5H75.4596L75.3896 35.44C73.7297 34.0185 72.2876 32.3608 71.1096 30.52C69.919 28.6945 69.1221 26.6408 68.7696 24.49ZM68.8696 24.49C69.263 26.61 70.0977 28.6235 71.3196 30.4C72.5596 32.1481 74.0565 33.6989 75.7596 35L75.5796 34.93C79.8019 34.926 83.9958 34.2405 87.9996 32.9C91.9568 31.5834 95.5757 29.4121 98.5996 26.54C100.126 25.1032 101.519 23.53 102.76 21.84C104.023 20.1748 105.077 18.3614 105.9 16.44C106.758 14.5445 107.136 12.4665 107 10.39C106.789 8.30655 105.859 6.36157 104.37 4.89002C102.848 3.41782 101.012 2.31002 98.9996 1.65002C97.0049 0.962538 94.9184 0.57826 92.8096 0.510023C90.7145 0.467319 88.6257 0.754152 86.6196 1.36002L85.1396 1.86002C84.6396 2.02002 84.1396 2.28002 83.6996 2.47002C82.744 2.89203 81.8156 3.37296 80.9196 3.91002C77.3345 6.08565 74.264 9.01294 71.9196 12.49C70.7592 14.2485 69.8662 16.1694 69.2696 18.19C68.747 20.2437 68.6114 22.3767 68.8696 24.48V24.49Z" fill="#231F20"/>
<path d="M73.8298 28.49C72.3998 28.32 70.8298 21.49 73.0798 15.27C74.3734 11.9197 76.5758 8.99656 79.4393 6.82903C82.3028 4.6615 85.7141 3.3355 89.2898 3.00002C92.8998 2.72002 96.8698 3.62002 96.9498 4.66002C97.0498 6.06002 89.8098 5.66002 83.8898 10.21C75.3098 16.7 75.7498 28.71 73.8298 28.49Z" fill="#1E6F5D"/>
<path d="M73.8296 28.51C73.3796 28.42 73.1596 28 72.9596 27.65C72.7754 27.2763 72.6216 26.8884 72.4996 26.49C72.2725 25.6936 72.1054 24.8814 71.9996 24.06C71.8022 22.3992 71.8022 20.7208 71.9996 19.06C72.3818 15.7318 73.7189 12.5853 75.8496 10C77.9927 7.43895 80.743 5.45529 83.8496 4.23001C86.9361 2.93472 90.3184 2.50934 93.6296 3.00001C94.4626 3.10252 95.2792 3.31086 96.0596 3.62001C96.2759 3.68796 96.4761 3.79925 96.6481 3.94711C96.82 4.09497 96.96 4.27628 97.0596 4.48001C97.0933 4.61741 97.0813 4.76206 97.0253 4.892C96.9694 5.02195 96.8725 5.13009 96.7496 5.20001C96.5646 5.32147 96.3667 5.42208 96.1596 5.50001C94.5496 6.04001 92.9396 6.32001 91.3696 6.81001C88.2017 7.65973 85.2703 9.22294 82.7996 11.38C80.4175 13.6377 78.5575 16.3885 77.3496 19.44C76.7233 20.962 76.1824 22.5178 75.7296 24.1L75.0496 26.49C74.9296 26.88 74.7996 27.28 74.6396 27.66C74.4796 28.04 74.3096 28.51 73.8296 28.51ZM73.8296 28.46C74.2596 28.46 74.4496 27.99 74.6096 27.64C74.7638 27.2575 74.8973 26.8669 75.0096 26.47C75.2296 25.68 75.4396 24.88 75.6396 24.08C76.032 22.4693 76.5196 20.8831 77.0996 19.33C78.2068 16.1635 80.0548 13.3075 82.4896 11C85.006 8.77224 88.0205 7.18101 91.2796 6.36001C92.8596 5.88001 94.5296 5.62001 96.0596 5.14001C96.4196 5.01001 96.8496 4.80001 96.7496 4.57001C96.6496 4.34001 96.2796 4.07001 95.9296 3.92001C95.1796 3.60697 94.3935 3.38862 93.5896 3.27001C90.3315 2.70596 86.98 3.08413 83.9296 4.36001C80.8829 5.61988 78.2109 7.64112 76.1696 10.23C74.1268 12.8043 72.7958 15.8699 72.3096 19.12C72.0604 20.7343 72.0033 22.3723 72.1396 24C72.2155 24.8212 72.3627 25.6343 72.5796 26.43C72.6834 26.8385 72.824 27.2368 72.9996 27.62C73.1996 28 73.4296 28.38 73.8296 28.46Z" fill="#231F20"/>
<path d="M35.5092 37.39C32.5092 37.85 31.5092 53.39 34.8992 67.39C38.7292 83.11 48.0592 96.79 50.0992 96.14C51.4492 95.71 49.8392 88.87 49.1792 86.05C45.9992 72.39 40.5992 71.18 40.1192 62.32C39.7192 55.01 43.2092 52.83 41.0392 45.7C39.8992 42 37.2892 37.12 35.5092 37.39Z" fill="#1E6F5D"/>
<path d="M35.5097 37.41C34.8597 37.56 34.5097 38.21 34.2097 38.79C33.9452 39.3952 33.7409 40.0249 33.5997 40.67C33.2992 41.9593 33.0986 43.2699 32.9997 44.59C32.8247 47.2338 32.8247 49.8863 32.9997 52.53C33.2933 57.8178 34.0767 63.0669 35.3397 68.21C36.6509 73.3459 38.4734 78.3375 40.7797 83.11C41.913 85.5035 43.199 87.8216 44.6297 90.05C45.3497 91.16 46.0997 92.25 46.9197 93.29C47.3236 93.8116 47.7576 94.3092 48.2197 94.78C48.6284 95.2797 49.1312 95.6942 49.6997 96C50.3297 96.29 50.4497 95.38 50.4697 94.79C50.4709 94.1378 50.4274 93.4863 50.3397 92.84C50.1697 91.53 49.9097 90.23 49.6297 88.94C49.0799 86.3532 48.3855 83.7992 47.5497 81.29C46.687 78.7947 45.5887 76.3872 44.2697 74.1C42.8362 71.8467 41.6335 69.4546 40.6797 66.96C39.9001 64.3696 39.6618 61.6465 39.9797 58.96C40.2597 56.28 41.3197 53.78 41.5497 51.17C41.6999 48.5287 41.22 45.8895 40.1497 43.47C39.6593 42.241 39.0637 41.0566 38.3697 39.93C38.0275 39.3644 37.6288 38.8351 37.1797 38.35C36.9853 38.0825 36.7354 37.86 36.4472 37.6978C36.159 37.5356 35.8393 37.4375 35.5097 37.41ZM35.5097 37.41C35.8447 37.4301 36.1716 37.5217 36.4683 37.6787C36.765 37.8356 37.0246 38.0543 37.2297 38.32C37.6859 38.804 38.0914 39.3334 38.4397 39.9C39.1473 41.0286 39.7626 42.2125 40.2797 43.44C41.4181 45.8674 41.9631 48.5306 41.8697 51.21C41.6697 53.91 40.6597 56.42 40.4497 59.04C40.1667 61.6488 40.4116 64.2879 41.1697 66.8C42.1265 69.2433 43.3188 71.5877 44.7297 73.8C46.0415 76.1209 47.1361 78.5579 47.9997 81.08C48.8194 83.6147 49.4873 86.1959 49.9997 88.81C50.2697 90.11 50.5097 91.42 50.6597 92.75C50.7462 93.413 50.783 94.0816 50.7697 94.75C50.7653 95.091 50.7044 95.4289 50.5897 95.75C50.5211 95.9414 50.3814 96.099 50.1997 96.19C50.0978 96.2143 49.9916 96.2143 49.8897 96.19C49.7952 96.1759 49.7017 96.1558 49.6097 96.13C49.0098 95.8526 48.4645 95.4699 47.9997 95C47.5397 94.52 47.1197 94 46.7097 93.48C45.8897 92.42 45.1497 91.32 44.4397 90.2C43.0297 87.94 41.7697 85.6 40.5797 83.2C38.2063 78.4344 36.3169 73.4428 34.9397 68.3C33.5817 63.1507 32.8168 57.8631 32.6597 52.54C32.5562 49.8714 32.6296 47.1989 32.8797 44.54C33.0076 43.2176 33.2214 41.9048 33.5197 40.61C33.6677 39.9611 33.8787 39.328 34.1497 38.72C34.2618 38.4069 34.4419 38.1226 34.677 37.8874C34.9122 37.6522 35.1966 37.4721 35.5097 37.36V37.41Z" fill="#231F20"/>
<path d="M37.9394 20.22L39.4094 29.47L46.4394 23.32L40.6094 30.27L49.9694 30.8L40.4594 31.25L46.4394 38.29L39.2594 32.84L37.9394 41.39L37.2394 32.84L29.4294 38.29L36.1194 31.39L25.8994 30.8L35.7394 30.4L29.4294 23.32L36.9594 29.52L37.9394 20.22Z" fill="#F7A49D"/>
<path d="M34.2094 53.13C34.0194 51.26 31.7094 28.41 18.3194 26.51C11.5394 25.54 3.06936 30.1 0.839359 37.24C-2.09064 46.59 7.40936 54.91 10.3694 57.5C16.7794 63.11 27.8194 68 32.4294 64C35.0794 61.66 34.6294 57.24 34.2094 53.13Z" fill="#3A7867"/>
<path d="M34.1595 53.13C33.653 48.3798 32.4815 43.7243 30.6795 39.3C29.7918 37.1093 28.665 35.0234 27.3195 33.08C26.0184 31.1436 24.3125 29.5127 22.3195 28.3C20.2917 27.1288 17.9682 26.5696 15.6295 26.69C13.2604 26.8012 10.9437 27.4256 8.83954 28.52C6.69863 29.5857 4.82292 31.1163 3.34954 33C2.61645 33.9157 2.00783 34.9245 1.53954 36C1.09719 37.0888 0.80452 38.2325 0.669536 39.4C0.469342 41.7305 0.875862 44.0732 1.84954 46.2C2.82776 48.342 4.1037 50.335 5.63954 52.12C7.1937 53.9156 8.88549 55.5874 10.6995 57.12C12.491 58.6558 14.419 60.0248 16.4595 61.21C18.4936 62.4011 20.645 63.3796 22.8795 64.13C23.4326 64.3268 23.997 64.4904 24.5695 64.62C25.1321 64.7679 25.7032 64.8814 26.2795 64.96C26.8568 65.0364 27.4375 65.0832 28.0195 65.1C28.5934 65.1022 29.1661 65.0486 29.7295 64.94C30.2887 64.8332 30.8327 64.6586 31.3495 64.42C31.8441 64.142 32.304 63.8063 32.7195 63.42C33.4812 62.535 33.9891 61.4603 34.1895 60.31C34.5091 57.9266 34.499 55.5106 34.1595 53.13ZM34.2595 53.13C34.6311 55.5085 34.6983 57.9246 34.4595 60.32C34.3072 61.5495 33.8232 62.7144 33.0595 63.69C32.631 64.148 32.1473 64.551 31.6195 64.89C31.0649 65.182 30.4774 65.4069 29.8695 65.56C29.2659 65.7084 28.65 65.8021 28.0295 65.84C27.4153 65.8568 26.8007 65.8334 26.1895 65.77C25.5775 65.7057 24.9698 65.6056 24.3695 65.47C23.7707 65.3488 23.1796 65.1919 22.5995 65C20.2752 64.2802 18.0407 63.2972 15.9395 62.07C13.8275 60.8706 11.838 59.4672 9.99954 57.88C8.17449 56.2915 6.47291 54.5666 4.90954 52.72C3.33771 50.8529 2.05662 48.7593 1.10954 46.51C0.142877 44.2449 -0.202313 41.7629 0.109536 39.32C0.290023 38.115 0.626165 36.9385 1.10954 35.82C1.63428 34.7214 2.28534 33.6878 3.04954 32.74C4.58609 30.8702 6.48392 29.3295 8.62954 28.21C10.778 27.0707 13.129 26.364 15.5495 26.13C18.0168 25.9064 20.4956 26.4105 22.6795 27.58C24.8185 28.8091 26.6403 30.5213 27.9995 32.58C29.3539 34.5936 30.4397 36.7754 31.2295 39.07C32.0327 41.3539 32.6677 43.6934 33.1295 46.07C33.6334 48.3978 34.0107 50.7513 34.2595 53.12V53.13Z" fill="#231F20"/>
<path d="M8.5293 32.32C8.5293 33.57 15.4093 32.18 20.5293 36.32C29.7493 43.65 25.3993 62.01 28.0193 62.32C29.3593 62.48 31.1993 57.82 31.6893 54.09C32.3193 49.34 30.7993 45.72 29.1993 42.09C26.9693 36.99 25.2893 33.15 21.2693 31.22C15.6493 28.44 8.5293 31.05 8.5293 32.32Z" fill="#1E6F5D"/>
<path d="M8.55977 32.32C8.55977 32.55 8.82977 32.66 9.03977 32.72C9.263 32.782 9.49019 32.8288 9.71977 32.86L11.1198 33.01C12.0598 33.1 12.9898 33.22 13.9198 33.37C15.7963 33.6627 17.6071 34.2821 19.2698 35.2C20.9266 36.1578 22.3426 37.4815 23.4098 39.07C24.4591 40.6606 25.2459 42.4096 25.7398 44.25C26.6393 47.918 27.0793 51.6835 27.0498 55.46C27.0256 57.3329 27.1426 59.2048 27.3998 61.06C27.4898 61.49 27.6298 62.06 27.9998 62.14C28.3698 62.22 28.7598 61.85 28.9998 61.52C29.5269 60.7543 29.9537 59.9243 30.2698 59.05C30.9277 57.3053 31.3612 55.4841 31.5598 53.63C31.7376 51.7806 31.6024 49.9145 31.1598 48.11C30.7001 46.3028 30.0741 44.5419 29.2898 42.85C28.5298 41.13 27.7998 39.4 26.9598 37.73C26.1621 36.0558 25.1021 34.5198 23.8198 33.18C22.4866 31.8883 20.8387 30.9678 19.0398 30.51C17.2259 30.0585 15.3435 29.95 13.4898 30.19C12.5613 30.3097 11.6468 30.5208 10.7598 30.82C10.317 30.9757 9.88587 31.1629 9.46977 31.38C9.11977 31.61 8.63977 31.87 8.55977 32.32ZM8.50977 32.32C8.59977 31.81 9.08977 31.57 9.50977 31.32C9.92345 31.0923 10.3549 30.8983 10.7998 30.74C11.6901 30.4291 12.6074 30.2015 13.5398 30.06C15.4151 29.7449 17.3338 29.7958 19.1898 30.21C21.0558 30.6395 22.7786 31.5457 24.1898 32.84C25.5435 34.1927 26.6532 35.7693 27.4698 37.5C28.3198 39.19 29.0698 40.91 29.8098 42.64C30.5846 44.3671 31.2005 46.1612 31.6498 48C32.1007 49.8545 32.2192 51.7742 31.9998 53.67C31.7644 55.5502 31.2871 57.3922 30.5798 59.15C30.2511 60.0457 29.8038 60.8933 29.2498 61.67C29.0932 61.8598 28.9154 62.0309 28.7198 62.18C28.6119 62.2498 28.4981 62.31 28.3798 62.36C28.2398 62.36 28.0998 62.42 27.9698 62.36C27.4198 62.13 27.3398 61.55 27.2298 61.11C27.0832 60.1737 27.0064 59.2278 26.9998 58.28L26.8998 55.46C26.8707 51.7109 26.3632 47.9808 25.3898 44.36C24.3898 40.82 22.3898 37.36 19.1498 35.47C17.5453 34.4999 15.7812 33.8227 13.9398 33.47C13.0198 33.28 12.0898 33.17 11.1498 33.07L9.74977 32.9C9.49736 32.8769 9.2468 32.8368 8.99977 32.78C8.80977 32.71 8.51977 32.6 8.50977 32.32Z" fill="#231F20"/>
<path d="M6.45969 42.09L7.23969 45.35L10.4897 46.12L7.23969 46.9L6.45969 50.15L5.68969 46.9L2.42969 46.12L5.68969 45.35L6.45969 42.09Z" fill="#FAF28A" stroke="#231F20" stroke-width="0.5" stroke-miterlimit="10"/>
<path d="M71.9697 35.8L72.7397 39.0601L75.9997 39.84L72.7397 40.6101L71.9697 43.87L71.1897 40.6101L67.9297 39.84L71.1897 39.0601L71.9697 35.8Z" fill="#FAF28A" stroke="#231F20" stroke-width="0.5" stroke-miterlimit="10"/>
<path d="M41.6794 64.79L42.4494 68.05L45.7094 68.82L42.4494 69.59L41.6794 72.85L40.9094 69.59L37.6494 68.82L40.9094 68.05L41.6794 64.79Z" fill="#FAF28A" stroke="#231F20" stroke-width="0.5" stroke-miterlimit="10"/>
<path d="M68.6296 79.3L69.3996 82.56L72.6596 83.33L69.3996 84.1L68.6296 87.36L67.8596 84.1L64.5996 83.33L67.8596 82.56L68.6296 79.3Z" fill="#FAF28A" stroke="#231F20" stroke-width="0.5" stroke-miterlimit="10"/>
<path d="M75.9997 13.71L76.7697 16.96L80.0297 17.74L76.7697 18.51L75.9997 21.77L75.2197 18.51L71.9697 17.74L75.2197 16.96L75.9997 13.71Z" fill="#FAF28A" stroke="#231F20" stroke-width="0.5" stroke-miterlimit="10"/>
<path d="M28.2994 43.72L28.7694 45.66L30.7094 46.12L28.7694 46.58L28.2994 48.52L27.8494 46.58L25.8994 46.12L27.8494 45.66L28.2994 43.72Z" fill="#FAF28A" stroke="#231F20" stroke-width="0.5" stroke-miterlimit="10"/>
<path d="M64.5992 21.77L65.0592 23.71L66.9992 24.17L65.0592 24.63L64.5992 26.57L64.1392 24.63L62.1992 24.17L64.1392 23.71L64.5992 21.77Z" fill="#FAF28A" stroke="#231F20" stroke-width="0.5" stroke-miterlimit="10"/>
</svg>
