<svg width="84" height="149" viewBox="0 0 84 149" fill="none" xmlns="http://www.w3.org/2000/svg">
<path d="M12.2803 52.32C25.4103 61.75 31.5303 71.48 34.7003 78.61C39.2503 88.84 37.7003 93.61 42.1703 117.07C46.1703 137.78 49.9203 147.24 48.5303 147.78C46.5303 148.58 36.0603 128.68 28.3303 109.32C20.989 90.9379 15.6092 71.832 12.2803 52.32Z" fill="#3A7867"/>
<path d="M12.25 52.26C13.1 52.85 14.11 53.46 15.01 54.14C15.91 54.82 16.76 55.44 17.6 56.14C19.3117 57.4998 20.9538 58.945 22.52 60.47C24.0977 61.9926 25.5931 63.5982 27 65.28C28.4458 66.9449 29.7819 68.7019 31 70.54C33.4373 74.2163 35.4185 78.1754 36.9 82.33C38.4 86.52 38.9 90.94 39.43 95.25C40.43 103.9 41.54 112.52 43.26 121.05C44.09 125.32 45.07 129.56 46.13 133.78C46.64 135.89 47.2 138 47.76 140.1C48.3786 142.21 48.8761 144.353 49.25 146.52C49.2901 146.829 49.2901 147.141 49.25 147.45C49.25 147.54 49.2 147.64 49.17 147.74C49.1124 147.862 49.0307 147.971 48.93 148.06C48.8213 148.149 48.6911 148.208 48.5524 148.231C48.4137 148.254 48.2715 148.24 48.14 148.19C47.5547 147.919 47.0435 147.511 46.65 147C45.9275 146.153 45.2595 145.261 44.65 144.33C43.43 142.5 42.33 140.61 41.26 138.7C39.13 134.88 37.15 130.99 35.26 127.05C31.5 119.18 28.02 111.16 25.04 102.95C22.0238 94.775 19.4402 86.4468 17.3 78C16.22 73.77 15.3 69.51 14.41 65.24C13.97 63.1 13.59 60.96 13.23 58.81L12.7 55.58C12.52 54.51 12.38 53.3 12.25 52.26ZM12.32 52.38C12.57 53.49 12.79 54.38 13.01 55.51L13.69 58.7C14.1633 60.82 14.65 62.94 15.15 65.06C16.15 69.29 17.27 73.49 18.44 77.67C19.61 81.85 20.87 86.02 22.24 90.14C23.61 94.26 24.99 98.37 26.53 102.44C29.53 110.56 32.92 118.59 36.53 126.44C38.37 130.38 40.26 134.29 42.29 138.12C43.29 140.03 44.36 141.93 45.49 143.77C46.0423 144.68 46.6501 145.555 47.31 146.39C47.5798 146.765 47.9193 147.084 48.31 147.33C48.38 147.33 48.31 147.33 48.31 147.33V147.23C48.3406 146.998 48.3406 146.762 48.31 146.53C47.9974 144.398 47.5668 142.285 47.02 140.2L45.49 133.85C44.49 129.61 43.55 125.35 42.64 121.09C42.18 118.96 41.76 116.82 41.34 114.69C40.92 112.56 40.51 110.41 40.11 108.26C39.34 103.97 38.68 99.66 38.11 95.35C37.6808 91.0569 36.83 86.8164 35.57 82.69C34.1899 78.6373 32.3193 74.7686 30 71.17C27.6825 67.5193 25.0023 64.112 22 61C20.5 59.4467 18.9367 57.95 17.31 56.51C16.51 55.77 15.66 55.1 14.83 54.39L12.32 52.38Z" fill="#231F20"/>
<path d="M47.7 147.81C52.52 133.07 55.64 121.73 57.7 113.81C58.88 109.21 60.7 101.56 66.84 95.27C68.71 93.34 73.14 88.76 78.46 89.18C80.66 89.36 82.72 90.37 82.88 90.01C83.04 89.65 80.2 87.5 77.63 86.42C77.63 86.42 70.82 83.56 61.58 87.25C51.52 91.2 45.36 115.63 47.7 147.81Z" fill="#3A7867"/>
<path d="M47.7103 147.73C47.9703 146.88 48.1103 146.07 48.3303 145.32L49.0103 142.91L50.4003 138L53.1203 128.25C54.0336 125.01 54.9103 121.753 55.7503 118.48L57.0003 113.62C57.4203 111.98 57.8603 110.33 58.3903 108.71C59.4487 105.449 60.953 102.349 62.8603 99.5C63.8088 98.0709 64.8867 96.7319 66.0803 95.5C67.2335 94.2465 68.4841 93.0862 69.8203 92.03C71.1663 90.9598 72.6711 90.1062 74.2803 89.5C75.9189 88.8801 77.693 88.7075 79.4203 89C80.2567 89.1575 81.0844 89.3578 81.9003 89.6C82.0938 89.6565 82.2909 89.7 82.4903 89.73C82.5703 89.73 82.6903 89.73 82.6603 89.73C82.6303 89.73 82.6603 89.73 82.6003 89.73C82.5972 89.7599 82.5972 89.7901 82.6003 89.82C82.6003 89.91 82.6003 89.82 82.6003 89.82C82.3597 89.527 82.0805 89.2679 81.7703 89.05C80.436 88.0704 78.9848 87.2608 77.4503 86.64C74.2808 85.6998 70.9364 85.5081 67.6803 86.08C66.0509 86.3335 64.4523 86.7558 62.9103 87.34C62.5203 87.49 62.1303 87.62 61.7603 87.78C61.4144 87.9357 61.0802 88.1162 60.7603 88.32C60.4109 88.5147 60.0767 88.7353 59.7603 88.98C59.441 89.2208 59.1371 89.4813 58.8503 89.76C56.5802 92.1327 54.8177 94.9433 53.6703 98.02C52.4168 101.111 51.4136 104.298 50.6703 107.55C47.6903 120.71 47.3903 134.39 47.7103 147.73ZM47.7103 147.88C47.6403 147.07 47.5003 146.21 47.4103 145.31L47.1903 142.76C47.0603 141.07 46.9403 139.38 46.8803 137.69C46.7503 134.31 46.6903 130.92 46.7903 127.53C46.9258 120.728 47.7093 113.954 49.1303 107.3C49.8337 103.953 50.8378 100.676 52.1303 97.51C53.403 94.2598 55.3294 91.3055 57.7903 88.83C58.1056 88.523 58.4395 88.2358 58.7903 87.97C59.1731 87.6912 59.5777 87.4437 60.0003 87.23C60.3903 87.0042 60.7945 86.8038 61.2103 86.63C61.6203 86.46 62.0303 86.34 62.4403 86.19C64.0626 85.6259 65.7378 85.2272 67.4403 85C70.8843 84.4997 74.3982 84.8428 77.6803 86C79.26 86.6965 80.7452 87.5903 82.1003 88.66C82.4855 88.9371 82.8232 89.2748 83.1003 89.66C83.1596 89.7555 83.1844 89.8685 83.1703 89.98C83.1703 90.12 82.9603 90.35 82.8803 90.34C82.7327 90.3777 82.5779 90.3777 82.4303 90.34C82.2106 90.2996 81.9936 90.2462 81.7803 90.18C80.9816 89.9312 80.1705 89.7243 79.3503 89.56C77.7216 89.2685 76.0448 89.4134 74.4903 89.98C72.9357 90.5721 71.4896 91.4168 70.2103 92.48C67.613 94.5973 65.3859 97.1319 63.6203 99.98C61.8822 102.833 60.5367 105.907 59.6203 109.12C58.6203 112.3 57.9703 115.63 57.0303 118.88C56.0903 122.13 55.2003 125.39 54.2403 128.63C53.2803 131.87 52.2403 135.08 51.1603 138.3C50.6403 139.9 50.0703 141.5 49.5103 143.09L48.6503 145.5C48.3303 146.33 48.0003 147.12 47.6903 147.88H47.7103Z" fill="#231F20"/>
<path d="M47.6995 135.33C51.0895 108.67 55.6995 89.05 59.0495 82.2C60.3095 79.64 62.2895 75.63 66.5195 73.63C69.7895 72.07 72.7895 72.48 72.8795 71.69C72.9995 70.69 68.0795 68.35 63.4795 68.69C55.3795 69.22 49.9295 77.69 47.6995 81.15C35.4195 100.19 45.6295 129.63 47.6995 135.33Z" fill="#3A7867"/>
<path d="M47.6898 135.26C47.8898 133.51 47.9398 131.91 48.1098 130.34C48.2798 128.77 48.4598 127.02 48.6698 125.34C49.1098 122.03 49.5298 118.72 50.0698 115.42C51.1498 108.83 52.3498 102.25 54.0698 95.78C54.9298 92.54 55.8798 89.33 57.0698 86.18C57.6354 84.5982 58.3035 83.0549 59.0698 81.56C59.8099 80.041 60.7011 78.6005 61.7298 77.26C63.8247 74.5416 66.8802 72.7277 70.2698 72.19L71.4498 72C71.8247 71.9541 72.1916 71.8565 72.5398 71.71C72.6398 71.63 72.5398 71.71 72.5398 71.54C72.4452 71.3975 72.3268 71.2723 72.1898 71.17C71.8761 70.936 71.5413 70.7318 71.1898 70.56C69.7166 69.8578 68.1396 69.3985 66.5198 69.2C63.3018 68.7452 60.0302 69.5123 57.3498 71.35C54.6719 73.2095 52.3514 75.5367 50.4998 78.22C48.551 80.8523 46.9259 83.7095 45.6598 86.73C44.4444 89.7698 43.5886 92.9414 43.1098 96.18C42.6343 99.4374 42.4336 102.729 42.5098 106.02C42.555 109.327 42.8156 112.627 43.2898 115.9C43.7498 119.18 44.3398 122.44 45.1098 125.68C45.4998 127.29 45.8998 128.91 46.3398 130.51L47.0298 132.91L47.3898 134.11L47.5798 134.7C47.6324 134.883 47.6692 135.071 47.6898 135.26ZM47.6898 135.41C47.5998 135.23 47.4698 135 47.3798 134.78L47.1498 134.19L46.7298 133L45.8898 130.64C45.3398 129.06 44.8198 127.47 44.3698 125.86C43.4476 122.639 42.6998 119.371 42.1298 116.07C40.8933 109.45 40.7077 102.677 41.5798 96C42.0407 92.6292 42.9243 89.3299 44.2098 86.18C45.5751 83.0682 47.3074 80.1307 49.3698 77.43C51.3567 74.6543 53.8505 72.2792 56.7198 70.43C59.6615 68.5413 63.2122 67.844 66.6498 68.48C68.3337 68.726 69.9675 69.2392 71.4898 70C71.8786 70.2081 72.2469 70.4526 72.5898 70.73C72.7814 70.8843 72.941 71.0745 73.0598 71.29C73.1425 71.4356 73.1775 71.6035 73.1598 71.77C73.1114 71.9459 73.0014 72.0985 72.8498 72.2C72.4349 72.3868 71.9925 72.5051 71.5398 72.55L70.3098 72.75C68.6845 72.9948 67.1183 73.5372 65.6898 74.35C64.2819 75.1904 63.0549 76.3019 62.0798 77.62C60.1598 80.315 58.7062 83.3134 57.7798 86.49C56.7798 89.65 55.9898 92.88 55.2398 96.11C54.4898 99.34 53.8098 102.61 53.1098 105.86C52.4098 109.11 51.7898 112.38 51.2098 115.66C50.6298 118.94 49.9998 122.21 49.4498 125.49L48.6098 130.42C48.3398 132.15 47.9998 133.85 47.7098 135.41H47.6898Z" fill="#231F20"/>
<path d="M67.83 20.28C65.0437 19.2988 62.1436 18.6771 59.2 18.43C56.269 18.1758 53.3198 18.6284 50.6 19.75C47.9303 20.9522 45.6183 22.8267 43.89 25.19C42.1671 27.5529 40.818 30.1668 39.89 32.94C38.04 38.541 36.9339 44.3608 36.6 50.25C36.1821 56.1575 36.1153 62.0846 36.4 68C37.0235 79.8202 38.3391 91.5937 40.34 103.26C42.29 114.93 44.67 126.56 47.56 138.02L45.39 138.18C46.81 123.49 47.93 108.78 48.54 94.05C49.15 79.32 49.25 64.59 48.37 49.94C48.11 46.29 47.8 42.63 47.37 39C46.94 35.37 46.37 31.75 45.67 28.18C44.9868 24.6164 44.0238 21.1123 42.79 17.7C41.6293 14.3158 39.9638 11.1265 37.85 8.24C37.3174 7.53648 36.7395 6.8684 36.12 6.24C35.8 5.94 35.51 5.61 35.18 5.33L34.18 4.52C32.7902 3.48751 31.2249 2.71507 29.56 2.24C26.1002 1.40735 22.4745 1.58083 19.11 2.74C12.17 4.88 6 9.18 0.19 13.67L0 13.44C2.74751 10.9488 5.66086 8.64682 8.72 6.55C11.7941 4.39929 15.1313 2.6517 18.65 1.35C22.2695 -0.028759 26.2084 -0.341094 30 0.449999C31.9096 0.92303 33.7185 1.736 35.34 2.85L36.53 3.72C36.91 4.02 37.25 4.37 37.61 4.72C38.3222 5.38226 38.9903 6.09044 39.61 6.84C41.9541 9.86911 43.8161 13.2422 45.13 16.84C46.4689 20.3545 47.5419 23.9647 48.34 27.64C49.9142 34.9064 50.9438 42.2803 51.42 49.7C51.94 57.12 52.13 64.54 52.05 71.95C51.97 79.36 51.74 86.77 51.32 94.16C50.49 108.94 49.15 123.67 47.58 138.37L46.91 144.72L45.42 138.53C42.64 126.94 40.42 115.27 38.56 103.53C36.6583 91.7692 35.4694 79.9043 35 68C34.79 62.0436 34.9302 56.08 35.42 50.14C35.8483 44.1733 37.0621 38.2892 39.03 32.64C40.0376 29.8023 41.478 27.1375 43.3 24.74C45.1313 22.3171 47.5606 20.4115 50.35 19.21C53.1698 18.099 56.2158 17.684 59.23 18C62.2001 18.2934 65.1205 18.9655 67.92 20L67.83 20.28Z" fill="#1E6F5D"/>
<path d="M24.7402 102C27.7402 109.62 30.5802 115.53 32.6202 119.54C35.0002 124.1 35.2102 124.16 37.0002 128C40.0902 134.53 40.8202 137.53 43.7702 141.94C45.1676 144.046 46.7614 146.015 48.5302 147.82C50.0102 136.2 47.3502 129.35 44.6602 125.26C42.9002 122.57 41.3102 121.26 37.1902 116.96C32.7213 112.248 28.5626 107.25 24.7402 102Z" fill="#1E6F5D"/>
<path d="M24.7702 102C25.0202 102.54 25.3102 102.92 25.5002 103.37L26.1902 104.84L27.5702 107.77C28.4802 109.77 29.4402 111.66 30.3902 113.59C31.3402 115.52 32.3202 117.45 33.3002 119.36C34.2802 121.27 35.3002 123.13 36.3002 125.09C37.3002 127.05 38.0802 129.09 38.9002 131.09C39.7202 133.09 40.4402 135.09 41.3302 137.09C42.2174 139.048 43.3066 140.908 44.5802 142.64C45.8305 144.386 47.2398 146.013 48.7902 147.5L48.1302 147.71C48.6129 143.288 48.4309 138.818 47.5902 134.45C46.7493 130.14 44.7513 126.141 41.8102 122.88C40.3402 121.24 38.7102 119.65 37.1902 117.98C35.6702 116.31 34.1902 114.62 32.7102 112.89C31.2302 111.16 29.8802 109.36 28.5202 107.56C27.8402 106.66 27.1902 105.74 26.5202 104.81L25.5202 103.41L25.0602 102.71C25.0002 102.54 24.9302 102.3 24.7702 102ZM24.7002 101.87C24.8702 102.06 25.1302 102.28 25.3302 102.54L25.8702 103.19L26.9502 104.49L29.1402 107.06C30.5902 108.77 32.1402 110.42 33.6202 112.06C36.6202 115.41 39.8602 118.46 43.0202 121.76C46.1655 125.247 48.2413 129.566 49.0002 134.2C49.7505 138.714 49.7303 143.323 48.9402 147.83L48.8202 148.63L48.2902 148.05C45.3299 144.85 42.8476 141.24 40.9202 137.33C39.0402 133.41 37.2802 129.47 35.2202 125.72C33.079 121.954 31.1298 118.083 29.3802 114.12C28.5002 112.12 27.6902 110.12 26.8902 108.12C26.4802 107.12 26.1202 106.12 25.7502 105.07L25.2102 103.54C25.0002 103 24.8602 102.37 24.7002 101.91V101.87Z" fill="#231F20"/>
<path d="M48.8004 38.47C46.823 38.4012 44.8524 38.7384 43.0104 39.4608C41.1683 40.1831 39.4939 41.2753 38.0904 42.67C36.3493 44.5209 35.1581 46.8201 34.6504 49.31" stroke="#1E6F5D" stroke-width="1.5" stroke-miterlimit="10"/>
<path d="M50.25 77.14C50.5403 74.6698 51.5673 72.3441 53.1974 70.4656C54.8276 68.5871 56.9853 67.2427 59.39 66.6072C61.7946 65.9718 64.3349 66.0748 66.6802 66.9029C69.0255 67.7309 71.0673 69.2457 72.54 71.25" stroke="#1E6F5D" stroke-width="1.5" stroke-miterlimit="10"/>
<path d="M50.9998 78.17C49.0242 78.1038 47.0559 78.4422 45.2158 79.1644C43.3758 79.8867 41.7029 80.9776 40.2998 82.37C38.5354 84.2088 37.3228 86.5059 36.7998 89" stroke="#1E6F5D" stroke-width="1.5" stroke-miterlimit="10"/>
</svg>
