<svg width="88" height="133" viewBox="0 0 88 133" fill="none" xmlns="http://www.w3.org/2000/svg">
<g clip-path="url(#clip0)">
<path d="M80.3303 67.13C82.6952 82.3297 84.2906 97.6393 85.1103 113L20.1103 124.07C15.1334 109.471 11.1707 94.5453 8.25027 79.4C7.72361 76.7334 7.23027 73.9933 6.77027 71.18C6.21027 67.7867 5.71361 64.4533 5.28027 61.18C3.41986 47.4559 2.41791 33.629 2.28027 19.78L67.3503 8.70001C70.9103 20.93 74.2803 34.37 77.1403 48.94C77.5803 51.2 78.0103 53.48 78.4303 55.8C79.1303 59.6333 79.7636 63.41 80.3303 67.13Z" fill="white" stroke="#010101" stroke-miterlimit="10" stroke-linecap="round"/>
<path d="M1.90992 19.4C1.50326 17.1333 1.08992 14.8533 0.669922 12.56C1.97992 13.22 3.28992 13.9 4.57992 14.56L8.37992 11.1C9.90992 11.63 11.3799 12.16 12.9699 12.68L16.9699 9.85L22.9399 11L27.4299 7.94L33.1499 9.49L36.4899 6.23L41.9999 8.31L46.8499 4.22C48.6799 5.01 50.4999 5.81 52.3299 6.59L57.1899 2.79L61.1899 5.21C62.4399 4 64.8099 2.2 66.0499 0.940002C66.7499 3.16 66.5999 6.04 67.2999 8.26C45.5799 12 23.5999 15.64 1.90992 19.4Z" fill="#1F705E" stroke="#010101" stroke-miterlimit="10" stroke-linecap="round"/>
<path d="M6.4802 23C7.3802 26.54 8.1502 30.1 8.8402 33.67C9.5302 37.24 10.1802 40.82 10.6802 44.43C11.1802 48.04 11.5202 51.66 12.0502 55.26C12.5802 58.86 13.2902 62.41 14.0002 66C14.7102 69.59 15.4702 73.13 16.1202 76.71C16.7702 80.29 17.4402 83.87 18.0202 87.46C19.1502 94.65 20.1302 101.86 20.7902 109.12C20.7933 109.132 20.7936 109.145 20.791 109.157C20.7884 109.169 20.783 109.18 20.7752 109.19C20.7675 109.2 20.7575 109.207 20.7463 109.213C20.735 109.218 20.7226 109.22 20.7102 109.22C20.6894 109.22 20.6691 109.214 20.6527 109.201C20.6363 109.188 20.6248 109.17 20.6202 109.15C18.9002 102.07 17.4902 94.93 16.2202 87.76C15.6002 84.17 15.0802 80.57 14.5302 76.97C13.9802 73.37 13.5302 69.77 13.0702 66.15C12.6102 62.53 12.1302 58.93 11.4702 55.36C10.8102 51.79 10.0002 48.2 9.2902 44.63C8.5802 41.06 8.0502 37.47 7.5402 33.86C7.0302 30.25 6.6102 26.64 6.3102 23C6.30877 22.9887 6.30978 22.9772 6.31316 22.9663C6.31654 22.9554 6.3222 22.9453 6.32978 22.9368C6.33735 22.9283 6.34666 22.9215 6.35708 22.9169C6.36751 22.9122 6.3788 22.9099 6.3902 22.91C6.4402 22.92 6.4802 23 6.4802 23Z" fill="#010101"/>
<path d="M32.6397 117C34.5399 116.381 36.4728 115.867 38.4297 115.46C40.3715 115.027 42.334 114.694 44.3097 114.46C46.3097 114.24 48.3097 114.18 50.3097 113.92C52.2824 113.638 54.2385 113.251 56.1697 112.76C58.1097 112.28 60.0497 111.83 62.0097 111.47C63.9697 111.11 65.9097 110.69 67.8797 110.39C71.8272 109.78 75.8076 109.406 79.7997 109.27C79.8219 109.27 79.8434 109.278 79.86 109.293C79.8766 109.308 79.8872 109.328 79.8897 109.35C79.8894 109.369 79.8835 109.388 79.8729 109.404C79.8623 109.42 79.8473 109.432 79.8297 109.44C76.0026 110.581 72.1128 111.499 68.1797 112.19C66.1797 112.53 64.2497 112.79 62.2697 113.05C60.2897 113.31 58.2697 113.52 56.2697 113.69C54.2834 113.84 52.307 114.1 50.3497 114.47C48.3497 114.85 46.4797 115.47 44.5297 115.87C42.5797 116.27 40.6097 116.56 38.6297 116.79C36.6381 117.029 34.6353 117.163 32.6297 117.19C32.6175 117.192 32.605 117.19 32.5934 117.187C32.5817 117.183 32.5711 117.176 32.5624 117.167C32.5537 117.159 32.5471 117.148 32.5432 117.136C32.5392 117.125 32.538 117.112 32.5397 117.1C32.5354 117.086 32.535 117.071 32.5385 117.057C32.542 117.043 32.5493 117.03 32.5596 117.02C32.5698 117.01 32.5827 117.002 32.5969 116.999C32.611 116.995 32.6258 116.996 32.6397 117Z" fill="#010101"/>
<path d="M80.3303 67.13L8.25027 79.4C7.72361 76.7333 7.23027 73.9933 6.77027 71.18C6.21027 67.7867 5.71361 64.4533 5.28027 61.18L77.1403 48.94C77.5803 51.2 78.0203 53.48 78.4303 55.8C79.1303 59.6333 79.7636 63.41 80.3303 67.13Z" fill="#1F705E" stroke="#010101" stroke-miterlimit="10" stroke-linecap="round"/>
<path d="M52.5196 86.17C66.8796 80.94 74.8996 66.72 70.4196 54.41C65.9396 42.1 50.6596 36.41 36.2896 41.59C21.9196 46.77 13.9096 61 18.3896 73.35C22.8696 85.7 38.1496 91.4 52.5196 86.17Z" fill="#FAF28C" stroke="#010101" stroke-miterlimit="10"/>
<path d="M19.9199 124.29C20.2799 126.58 20.6499 128.87 21.0099 131.17C22.0299 130.11 23.0299 129.043 24.0099 127.97L28.7299 129.97L32.5399 126.97L37.2799 128.31L42.5199 125.31L47.7599 126.71L52.6499 123.35L56.8799 125.35L61.3499 121.57L67.2899 123.83C68.7499 122.47 70.1999 121.12 71.6699 119.77C73.6099 120.44 75.5599 121.09 77.5099 121.77C78.5099 120.56 79.5099 119.36 80.5099 118.16C82.0999 118.93 84.9199 119.8 86.5099 120.57C86.4399 118.24 85.3399 115.57 85.2699 113.25C63.5699 116.79 41.6399 120.66 19.9199 124.29Z" fill="#1F705E" stroke="#010101" stroke-miterlimit="10" stroke-linecap="round"/>
<path d="M79.69 61.78L79.95 63.28L77.51 64.1L76.81 64.33L76.89 66.06L77.17 72.73L77 72.36L75.7 68.72L74.4 65L66.54 64.83H66L66.66 64.65L74.39 62.49L73.93 53.65L76.06 61.96L78.06 61.88L79.69 61.78Z" fill="white" stroke="#010101" stroke-width="0.5" stroke-miterlimit="10" stroke-linecap="round"/>
<path d="M66.57 68.2L67.8 73L73 72.8L68.2 74.41L68.41 79.27L66.8 74.78L62 74.68L66.86 73.32L66.57 68.2Z" fill="white" stroke="#010101" stroke-width="0.5" stroke-miterlimit="10" stroke-linecap="round"/>
<path d="M38.7802 106C38.4671 105.832 38.1297 105.714 37.7802 105.65C37.4511 105.575 37.1093 105.575 36.7802 105.65C36.5814 105.681 36.3868 105.735 36.2002 105.81C36.0274 105.872 35.8704 105.971 35.7402 106.1C35.6818 106.16 35.6394 106.233 35.6166 106.313C35.5939 106.394 35.5917 106.479 35.6102 106.56C35.6239 106.643 35.6574 106.722 35.7078 106.79C35.7583 106.858 35.8242 106.913 35.9002 106.95C36.0849 107.029 36.2804 107.079 36.4802 107.1H37.2702C37.5568 107.1 37.8368 107.12 38.1102 107.16C38.3739 107.178 38.6335 107.235 38.8802 107.33C39.1088 107.411 39.317 107.54 39.4902 107.71C39.663 107.899 39.7746 108.136 39.8102 108.39C39.8816 108.732 39.8246 109.088 39.6502 109.39C39.4696 109.701 39.2111 109.959 38.9002 110.14C38.5544 110.345 38.1753 110.487 37.7802 110.56C37.2796 110.635 36.7708 110.635 36.2702 110.56C35.8047 110.489 35.3665 110.296 35.0002 110L35.6302 109.19C35.913 109.402 36.2377 109.55 36.5826 109.626C36.9276 109.702 37.2847 109.703 37.6302 109.63C37.8183 109.59 38.0024 109.533 38.1802 109.46C38.3542 109.391 38.5111 109.285 38.6402 109.15C38.697 109.085 38.7375 109.008 38.7584 108.925C38.7793 108.841 38.7799 108.754 38.7602 108.67C38.7498 108.591 38.7184 108.515 38.6692 108.452C38.6199 108.389 38.5547 108.34 38.4802 108.31C38.2962 108.221 38.0947 108.173 37.8902 108.17C37.6402 108.17 37.3802 108.17 37.1102 108.17C36.7374 108.133 36.3669 108.077 36.0002 108C35.6618 107.953 35.3395 107.827 35.0602 107.63C34.7863 107.391 34.6086 107.06 34.5602 106.7C34.5006 106.384 34.5574 106.057 34.7202 105.78C34.9087 105.477 35.17 105.226 35.4802 105.05C35.8359 104.844 36.2251 104.701 36.6302 104.63C36.9239 104.579 37.2222 104.559 37.5202 104.57C37.8312 104.573 38.1405 104.617 38.4402 104.7C38.7328 104.776 39.0079 104.909 39.2502 105.09L38.7802 106ZM47.5502 107.93C47.3675 108.135 47.1629 108.319 46.9402 108.48C46.6874 108.67 46.4119 108.828 46.1202 108.95C45.799 109.089 45.4637 109.193 45.1202 109.26C44.5248 109.398 43.9056 109.398 43.3102 109.26C42.7866 109.118 42.3125 108.835 41.9402 108.44C41.5766 108.048 41.3366 107.558 41.2502 107.03C41.1246 106.458 41.1769 105.861 41.4002 105.32C41.6141 104.82 41.9598 104.388 42.4002 104.07C42.8623 103.731 43.3959 103.502 43.9602 103.4C44.4731 103.304 45.0019 103.334 45.5002 103.49C45.9683 103.633 46.3896 103.899 46.7202 104.26C47.0749 104.64 47.3082 105.117 47.3902 105.63L47.4702 106.15L42.4702 107.07C42.5602 107.296 42.6953 107.501 42.8672 107.673C43.0392 107.845 43.2443 107.98 43.4702 108.07C44.0028 108.287 44.589 108.336 45.1502 108.21C45.5475 108.151 45.9266 108.004 46.2602 107.78C46.5013 107.612 46.7256 107.421 46.9302 107.21L47.5502 107.93ZM44.1402 104.38C43.671 104.459 43.2281 104.651 42.8502 104.94C42.6755 105.085 42.5355 105.267 42.4403 105.473C42.3451 105.679 42.2972 105.903 42.3002 106.13L46.1702 105.42V105.3C46.1023 105.061 45.9539 104.852 45.7502 104.71C45.5312 104.548 45.2781 104.439 45.0102 104.39C44.7257 104.319 44.43 104.306 44.1402 104.35V104.38ZM55.3802 106.5C55.1971 106.702 54.9925 106.883 54.7702 107.04C54.5118 107.23 54.2335 107.391 53.9402 107.52C53.6214 107.663 53.2852 107.764 52.9402 107.82C52.3412 107.945 51.7213 107.928 51.1302 107.77C50.6089 107.628 50.1356 107.348 49.7602 106.96C49.3985 106.567 49.1589 106.077 49.0702 105.55C48.9427 104.994 48.982 104.413 49.183 103.88C49.3839 103.346 49.7378 102.884 50.2002 102.55C50.6623 102.211 51.1959 101.981 51.7602 101.88C52.2728 101.778 52.8029 101.809 53.3002 101.97C53.7683 102.113 54.1896 102.379 54.5202 102.74C54.877 103.118 55.1106 103.596 55.1902 104.11L55.2702 104.63L50.2702 105.55C50.3602 105.776 50.4953 105.981 50.6672 106.153C50.8392 106.325 51.0443 106.46 51.2702 106.55C51.804 106.762 52.3887 106.811 52.9502 106.69C53.3475 106.631 53.7266 106.484 54.0602 106.26C54.2966 106.086 54.5205 105.895 54.7302 105.69L55.3802 106.5ZM52.0002 102.92C51.5297 102.994 51.0858 103.187 50.7102 103.48C50.5363 103.623 50.3966 103.804 50.3015 104.008C50.2063 104.212 50.158 104.435 50.1602 104.66L54.0002 104V103.88C53.93 103.639 53.7824 103.428 53.5802 103.28C53.3607 103.121 53.1074 103.015 52.8402 102.97C52.566 102.9 52.2808 102.883 52.0002 102.92ZM62.2702 97.71L63.7302 105.71L62.6202 105.92L62.4602 105.03C62.342 105.243 62.1901 105.436 62.0102 105.6C61.8107 105.802 61.5854 105.977 61.3402 106.12C61.0609 106.268 60.7608 106.372 60.4502 106.43C59.9137 106.534 59.3597 106.499 58.8402 106.33C58.3521 106.164 57.9194 105.867 57.5902 105.47C57.2496 105.052 57.0254 104.552 56.9402 104.02C56.831 103.487 56.869 102.933 57.0502 102.42C57.2164 101.932 57.5182 101.502 57.9202 101.18C58.338 100.832 58.8427 100.604 59.3802 100.52C59.8217 100.425 60.2786 100.425 60.7202 100.52C61.082 100.596 61.4231 100.75 61.7202 100.97L61.1502 97.89L62.2702 97.71ZM60.4702 105.41C60.8372 105.344 61.1814 105.186 61.4702 104.95C61.7376 104.731 61.9414 104.445 62.0602 104.12C62.1744 103.779 62.1985 103.413 62.1302 103.06C62.0792 102.692 61.9268 102.346 61.6902 102.06C61.4722 101.792 61.1801 101.593 60.8502 101.49C60.4917 101.374 60.1091 101.353 59.7402 101.43C59.3726 101.488 59.0273 101.643 58.7402 101.88C58.4709 102.093 58.2665 102.377 58.1502 102.7C58.0284 103.04 58.0007 103.406 58.0702 103.76C58.1241 104.129 58.2799 104.475 58.5202 104.76C58.7465 105.019 59.0358 105.215 59.3602 105.33C59.7076 105.448 60.0792 105.475 60.4402 105.41H60.4702ZM69.3202 100.41C69.0092 100.237 68.671 100.119 68.3202 100.06C67.9903 99.9924 67.6501 99.9924 67.3202 100.06C67.1254 100.094 66.9344 100.148 66.7502 100.22C66.5749 100.281 66.417 100.384 66.2902 100.52C66.2293 100.578 66.1852 100.651 66.1623 100.732C66.1395 100.813 66.1387 100.899 66.1602 100.98C66.172 101.062 66.2037 101.139 66.2525 101.205C66.3014 101.271 66.3658 101.325 66.4402 101.36C66.6253 101.448 66.8257 101.498 67.0302 101.51H67.8202C68.1012 101.51 68.382 101.53 68.6602 101.57C68.9238 101.589 69.1832 101.646 69.4302 101.74C69.6588 101.815 69.865 101.945 70.0302 102.12C70.2118 102.304 70.3277 102.543 70.3602 102.8C70.4288 103.142 70.372 103.497 70.2002 103.8C70.016 104.114 69.7543 104.376 69.4402 104.56C69.0966 104.767 68.7163 104.906 68.3202 104.97C67.8238 105.055 67.3166 105.055 66.8202 104.97C66.3359 104.899 65.8797 104.699 65.5002 104.39L66.1402 103.58C66.4134 103.771 66.718 103.914 67.0402 104C67.4092 104.08 67.7912 104.08 68.1602 104C68.3499 103.966 68.5346 103.909 68.7102 103.83C68.8817 103.761 69.038 103.659 69.1702 103.53C69.2282 103.464 69.2701 103.385 69.2926 103.3C69.3152 103.215 69.3178 103.126 69.3002 103.04C69.2846 102.962 69.2513 102.889 69.2027 102.827C69.1541 102.764 69.0916 102.714 69.0202 102.68C68.8292 102.601 68.6265 102.554 68.4202 102.54C68.1802 102.54 67.9202 102.54 67.6402 102.54C67.2402 102.54 66.8502 102.54 66.4902 102.44C66.1306 102.398 65.787 102.267 65.4902 102.06C65.2193 101.82 65.0451 101.489 65.0002 101.13C64.9358 100.814 64.9929 100.486 65.1602 100.21C65.3493 99.9103 65.6106 99.6627 65.9202 99.49C66.2751 99.282 66.6647 99.1397 67.0702 99.07C67.3766 99.0118 67.6885 98.9883 68.0002 99C68.3116 98.9976 68.6216 99.0414 68.9202 99.13C69.2143 99.2023 69.4902 99.3352 69.7302 99.52L69.3202 100.41Z" fill="#010101"/>
<path d="M51.26 109.6C50.66 107.89 50.14 106.15 49.59 104.42C49.04 102.69 48.59 100.93 48.14 99.18C47.21 95.67 46.43 92.13 45.72 88.57C44.3837 81.4377 43.4456 74.2366 42.91 67C42.29 59.78 42 52.53 42 45.29C42.0273 38.0489 42.4513 30.8147 43.27 23.62H43.47C42.9183 30.826 42.7614 38.0568 43 45.28C43.2 52.4867 43.71 59.6767 44.53 66.85C45.36 74.01 46.53 81.11 47.72 88.22C48.28 91.78 48.92 95.32 49.53 98.88L51.53 109.55L51.26 109.6Z" fill="#1E6F5D"/>
<path d="M48.3202 83.84C48.8967 78.3765 50.3099 73.034 52.5102 68C53.3602 66.2 54.8202 63.52 55.0902 64C55.3602 64.48 53.4802 69.49 51.8402 76.37C48.9802 88.37 49.1802 97.62 48.6002 97.64C48.0202 97.66 47.6002 90.76 48.3202 83.84Z" fill="#1E6F5D"/>
<path d="M48.2694 83.84C48.9394 78.1 49.7594 72.18 52.5594 66.95C52.8994 66.3 53.2694 65.67 53.6694 65.04C53.8668 64.7226 54.0804 64.4155 54.3094 64.12C54.4475 63.9309 54.6249 63.774 54.8294 63.66C54.902 63.6292 54.9817 63.6195 55.0595 63.6319C55.1373 63.6442 55.21 63.6783 55.2694 63.73C55.3994 63.87 55.3594 63.91 55.3994 64C55.4198 64.1192 55.4198 64.2409 55.3994 64.36C55.2518 65.0903 55.0513 65.8088 54.7994 66.51L54.1494 68.59C53.2738 71.3503 52.556 74.1582 51.9994 77C50.9017 82.6815 50.1271 88.4208 49.6794 94.19L49.4494 96.37C49.4111 96.761 49.3442 97.1487 49.2494 97.53C49.228 97.5987 49.2013 97.6655 49.1694 97.73C49.1421 97.7869 49.1085 97.8405 49.0694 97.89C48.9636 98.0085 48.8174 98.0833 48.6594 98.1C48.5009 98.1036 48.347 98.0464 48.2294 97.94C48.1786 97.8918 48.1378 97.8341 48.1094 97.77C48.069 97.7086 48.0386 97.6411 48.0194 97.57C47.9534 97.3716 47.9066 97.1673 47.8794 96.96C47.6938 95.4945 47.6269 94.0163 47.6794 92.54C47.7194 89.62 47.9994 86.72 48.2694 83.84ZM48.3694 83.84C48.1045 86.7265 48.0844 89.6302 48.3094 92.52C48.3881 93.9442 48.545 95.363 48.7794 96.77C48.81 96.9234 48.8535 97.074 48.9094 97.22L48.8294 97.16C48.7607 97.1413 48.6882 97.1413 48.6194 97.16C48.5094 97.16 48.3194 97.28 48.3194 97.3C48.3194 97.3 48.3194 97.3 48.3194 97.25C48.3794 96.99 48.4194 96.61 48.4594 96.25L48.6394 94.1C49.0816 88.2874 50.0353 82.5251 51.4894 76.88C52.2294 74.06 53.0894 71.28 53.8794 68.49C54.3138 67.1228 54.648 65.7258 54.8794 64.31C54.8848 64.2501 54.8848 64.1899 54.8794 64.13C54.9101 64.1466 54.9445 64.1554 54.9794 64.1554C55.0144 64.1554 55.0487 64.1466 55.0794 64.13C54.9849 64.2229 54.898 64.3233 54.8194 64.43C54.6294 64.71 54.4494 65.02 54.2794 65.33C53.9294 65.96 53.6194 66.61 53.2794 67.25C52.0702 69.8599 51.0411 72.5495 50.1994 75.3C49.3105 78.0831 48.6975 80.9469 48.3694 83.85V83.84Z" fill="#231F20"/>
<path d="M45.1497 80.11C43.9297 79.63 43.8597 75.28 45.4497 72.11C46.8197 69.3 49.6397 66.98 50.6797 67.59C51.7197 68.2 50.6797 72.02 50.5497 72.59C49.4197 76.53 46.4897 80.63 45.1497 80.11Z" fill="#BF90C1" stroke="#231F20" stroke-miterlimit="10"/>
<path d="M40.1395 63.53C37.7699 58.5689 34.6462 54.0048 30.8795 50C29.4795 48.59 27.1995 46.55 27.0895 47.07C26.9795 47.59 30.4595 51.7 34.3095 57.64C40.9995 68 43.9995 76.76 44.5095 76.59C45.0195 76.42 43.1495 69.8 40.1395 63.53Z" fill="#1E6F5D"/>
<path d="M40.1 63.55C38.8161 60.9515 37.2787 58.4862 35.51 56.19C33.7956 53.881 31.9245 51.6925 29.91 49.64C29.39 49.14 28.91 48.64 28.35 48.16C28.08 47.92 27.81 47.69 27.54 47.49C27.4335 47.4151 27.3196 47.3514 27.2 47.3C27.2345 47.2949 27.2673 47.2812 27.2952 47.2603C27.3231 47.2393 27.3454 47.2117 27.36 47.18C27.36 47.09 27.36 47.18 27.36 47.18C27.36 47.18 27.36 47.3 27.41 47.36C28.1145 48.6078 28.9064 49.8041 29.78 50.94C31.47 53.31 33.21 55.63 34.84 58.04C38.1096 62.8659 40.944 67.9726 43.31 73.3L44.21 75.3C44.3478 75.6062 44.5048 75.9035 44.68 76.19C44.68 76.19 44.68 76.24 44.68 76.19C44.68 76.14 44.68 76.19 44.68 76.19C44.6305 76.1646 44.5756 76.1513 44.52 76.1513C44.4643 76.1513 44.4095 76.1646 44.36 76.19C44.2894 76.2071 44.2241 76.2415 44.17 76.29L44.11 76.37C44.1051 76.3931 44.1051 76.4169 44.11 76.44C44.1231 76.2869 44.1231 76.133 44.11 75.98C43.8552 74.5723 43.5213 73.1801 43.11 71.81C42.3481 68.9746 41.341 66.2108 40.1 63.55ZM40.19 63.55C41.43 66.18 42.66 68.82 43.7 71.55C44.2415 72.9039 44.6762 74.2982 45 75.72C45.0409 75.9277 45.0643 76.1384 45.07 76.35C45.0794 76.423 45.0794 76.497 45.07 76.57C45.051 76.6381 45.0276 76.7049 45 76.77C44.9254 76.9106 44.8004 77.0178 44.65 77.07C44.4966 77.1056 44.3353 77.0805 44.2 77C44.146 76.9691 44.0957 76.9322 44.05 76.89C43.9964 76.8394 43.9494 76.7823 43.91 76.72C43.6925 76.4013 43.4987 76.067 43.33 75.72L42.33 73.72C39.9619 68.4337 37.2908 63.2885 34.33 58.31C32.8423 55.8219 31.213 53.4212 29.45 51.12L28.14 49.38C27.667 48.8072 27.2391 48.1988 26.86 47.56C26.8017 47.454 26.7612 47.3391 26.74 47.22C26.74 47.11 26.69 47.09 26.74 46.92C26.7784 46.8487 26.8365 46.7899 26.9075 46.7509C26.9785 46.7119 27.0592 46.6942 27.14 46.7C27.3698 46.7444 27.5878 46.8364 27.78 46.97C28.0985 47.1694 28.4056 47.3864 28.7 47.62C29.28 48.07 29.84 48.55 30.38 49.04C34.87 53 37.64 58.33 40.19 63.5V63.55Z" fill="#231F20"/>
<path d="M45.2903 80.09C46.2903 79.23 44.8803 75.09 42.2903 72.6C40.0503 70.42 36.6103 69.18 35.8403 70.1C35.0703 71.02 37.3003 74.28 37.6403 74.77C40.0603 78.15 44.2003 81 45.2903 80.09Z" fill="#BF90C1" stroke="#231F20" stroke-miterlimit="10"/>
<path d="M45.4501 81.14C44.7601 80.02 47.3501 76.52 50.5601 74.91C53.3501 73.52 57.0001 73.37 57.4601 74.49C57.9201 75.61 54.8001 78 54.3301 78.39C51.0001 80.88 46.2001 82.37 45.4501 81.14Z" fill="#BF90C1" stroke="#231F20" stroke-miterlimit="10"/>
<path d="M45.3798 81.35C45.6498 80.07 42.0398 77.63 38.4798 77.2C35.3698 76.83 31.8898 77.92 31.8298 79.12C31.7698 80.32 35.5198 81.56 36.0898 81.74C40.0498 83 45.0898 82.76 45.3798 81.35Z" fill="#BF90C1" stroke="#231F20" stroke-miterlimit="10"/>
<path d="M43.4901 63.85C42.5801 63.5 42.4901 60.25 43.7201 57.85C44.7201 55.76 46.8501 54.02 47.6201 54.48C48.3901 54.94 47.6201 57.78 47.5201 58.21C46.6801 61.18 44.5001 64.24 43.4901 63.85Z" fill="#BF90C1" stroke="#231F20" stroke-miterlimit="10"/>
<path d="M43.5996 63.83C44.3396 63.19 43.2996 60.12 41.3696 58.25C39.6996 56.63 37.1396 55.7 36.5696 56.39C35.9996 57.08 37.6596 59.51 37.9096 59.87C39.6996 62.39 42.7896 64.54 43.5996 63.83Z" fill="#BF90C1" stroke="#231F20" stroke-miterlimit="10"/>
<path d="M43.7204 64.62C43.2104 63.79 45.1304 61.17 47.5304 59.98C49.6104 58.98 52.3304 58.83 52.6704 59.66C53.0104 60.49 50.6704 62.3 50.3404 62.57C47.8704 64.43 44.2804 65.54 43.7204 64.62Z" fill="#BF90C1" stroke="#231F20" stroke-miterlimit="10"/>
<path d="M43.6697 64.78C43.8697 63.78 41.1797 62.01 38.5197 61.68C36.2097 61.4 33.6097 62.22 33.5197 63.11C33.4297 64 36.2797 64.93 36.6997 65.11C39.6897 66 43.4497 65.83 43.6697 64.78Z" fill="#BF90C1" stroke="#231F20" stroke-miterlimit="10"/>
<path d="M42.94 54.07C42.18 53.7 42.36 50.91 43.53 48.93C44.53 47.21 46.47 45.87 47.11 46.31C47.75 46.75 46.9 49.14 46.77 49.5C45.85 52 43.77 54.47 42.94 54.07Z" fill="#BF90C1" stroke="#231F20" stroke-miterlimit="10"/>
<path d="M42.9996 54.06C43.6796 53.56 42.9996 50.85 41.4696 49.12C40.1496 47.62 38.0096 46.65 37.4696 47.2C36.9296 47.75 38.1996 49.95 38.3896 50.27C39.7796 52.55 42.2896 54.61 42.9996 54.06Z" fill="#BF90C1" stroke="#231F20" stroke-miterlimit="10"/>
<path d="M42.4103 44.56C41.7203 44.23 41.8803 41.69 42.9503 39.89C43.8803 38.32 45.6203 37.09 46.2003 37.5C46.7803 37.91 46.0103 40.08 45.8903 40.4C45.0503 42.67 43.1603 44.93 42.4103 44.56Z" fill="#BF90C1" stroke="#231F20" stroke-miterlimit="10"/>
<path d="M42.4894 44.55C43.0994 44.1 42.4894 41.63 41.0994 40.06C39.8894 38.69 37.9494 37.8 37.4594 38.31C36.9694 38.82 38.1194 40.81 38.2994 41.11C39.5394 43.18 41.8094 45.05 42.4894 44.55Z" fill="#BF90C1" stroke="#231F20" stroke-miterlimit="10"/>
<path d="M42.4897 36.37C42.0597 36.09 42.3797 34.37 43.2497 33.28C44.1197 32.19 45.2497 31.63 45.6297 31.95C46.0097 32.27 45.2897 33.66 45.1797 33.87C44.4297 35.32 42.9997 36.68 42.4897 36.37Z" fill="#BF90C1" stroke="#231F20" stroke-miterlimit="10"/>
<path d="M42.5495 36.37C42.9995 36.12 42.7895 34.37 41.9895 33.24C41.1895 32.11 40.0795 31.46 39.6995 31.76C39.3195 32.06 39.9295 33.49 40.0295 33.7C40.6895 35.2 42.0595 36.65 42.5495 36.37Z" fill="#BF90C1" stroke="#231F20" stroke-miterlimit="10"/>
<path d="M42.4797 30.38C42.0397 30.1 42.3597 28.38 43.2297 27.29C43.9897 26.29 45.2297 25.64 45.6097 25.96C45.9897 26.28 45.2697 27.68 45.1597 27.89C44.4097 29.34 42.9997 30.7 42.4797 30.38Z" fill="#BF90C1" stroke="#231F20" stroke-miterlimit="10"/>
<path d="M42.8501 30.39C43.3001 30.13 43.0901 28.39 42.2901 27.25C41.6001 26.25 40.3701 25.48 40.0001 25.77C39.6301 26.06 40.2301 27.5 40.3301 27.72C41.0001 29.22 42.3501 30.66 42.8501 30.39Z" fill="#BF90C1" stroke="#231F20" stroke-miterlimit="10"/>
<path d="M42.5298 25C42.2198 24.8 42.4498 23.6 43.0698 22.8C43.6898 22 44.5098 21.63 44.7598 21.85C45.0098 22.07 44.5198 23.07 44.4398 23.22C43.9098 24.29 42.8698 25.26 42.5298 25Z" fill="#BF90C1" stroke="#231F20" stroke-miterlimit="10"/>
<path d="M42.7896 25C43.1096 24.82 42.9596 23.6 42.3996 22.77C41.8396 21.94 41.0296 21.51 40.7696 21.77C40.5096 22.03 40.9296 23 40.9996 23.15C41.4696 24.21 42.4396 25.24 42.7896 25Z" fill="#BF90C1" stroke="#231F20" stroke-miterlimit="10"/>
</g>
<defs>
<clipPath id="clip0">
<rect width="87.08" height="132.25" fill="white"/>
</clipPath>
</defs>
</svg>
