<svg width="88" height="133" viewBox="0 0 88 133" fill="none" xmlns="http://www.w3.org/2000/svg">
<path d="M80.3303 67.13C82.6952 82.3297 84.2906 97.6393 85.1103 113L20.1103 124.07C15.1334 109.471 11.1707 94.5453 8.25027 79.4C7.72361 76.7334 7.23027 73.9933 6.77027 71.18C6.21027 67.7867 5.71361 64.4533 5.28027 61.18C3.41986 47.4559 2.41791 33.629 2.28027 19.78L67.3503 8.70001C70.9103 20.93 74.2803 34.37 77.1403 48.94C77.5803 51.2 78.0103 53.48 78.4303 55.8C79.1303 59.6333 79.7636 63.41 80.3303 67.13Z" fill="white" stroke="#010101" stroke-miterlimit="10" stroke-linecap="round"/>
<path d="M1.90992 19.4C1.50326 17.1333 1.08992 14.8533 0.669922 12.56C1.97992 13.22 3.28992 13.9 4.57992 14.56L8.37992 11.1C9.90992 11.63 11.3799 12.16 12.9699 12.68L16.9699 9.85L22.9399 11L27.4299 7.94L33.1499 9.49L36.4899 6.23L41.9999 8.31L46.8499 4.22C48.6799 5.01 50.4999 5.81 52.3299 6.59L57.1899 2.79L61.1899 5.21C62.4399 4 64.8099 2.2 66.0499 0.940002C66.7499 3.16 66.5999 6.04 67.2999 8.26C45.5799 12 23.5999 15.64 1.90992 19.4Z" fill="#1F705E" stroke="#010101" stroke-miterlimit="10" stroke-linecap="round"/>
<path d="M6.4802 23C7.3802 26.54 8.1502 30.1 8.8402 33.67C9.5302 37.24 10.1802 40.82 10.6802 44.43C11.1802 48.04 11.5202 51.66 12.0502 55.26C12.5802 58.86 13.2902 62.41 14.0002 66C14.7102 69.59 15.4702 73.13 16.1202 76.71C16.7702 80.29 17.4402 83.87 18.0202 87.46C19.1502 94.65 20.1302 101.86 20.7902 109.12C20.7933 109.132 20.7936 109.145 20.791 109.157C20.7884 109.169 20.783 109.18 20.7752 109.19C20.7675 109.2 20.7575 109.207 20.7463 109.213C20.735 109.218 20.7226 109.22 20.7102 109.22C20.6894 109.22 20.6691 109.214 20.6527 109.201C20.6363 109.188 20.6248 109.17 20.6202 109.15C18.9002 102.07 17.4902 94.93 16.2202 87.76C15.6002 84.17 15.0802 80.57 14.5302 76.97C13.9802 73.37 13.5302 69.77 13.0702 66.15C12.6102 62.53 12.1302 58.93 11.4702 55.36C10.8102 51.79 10.0002 48.2 9.2902 44.63C8.5802 41.06 8.0502 37.47 7.5402 33.86C7.0302 30.25 6.6102 26.64 6.3102 23C6.30877 22.9887 6.30978 22.9772 6.31316 22.9663C6.31654 22.9554 6.3222 22.9453 6.32978 22.9368C6.33735 22.9283 6.34666 22.9215 6.35708 22.9169C6.36751 22.9122 6.3788 22.9099 6.3902 22.91C6.4402 22.92 6.4802 23 6.4802 23Z" fill="#010101"/>
<path d="M32.6397 117C34.5399 116.381 36.4728 115.867 38.4297 115.46C40.3715 115.027 42.334 114.694 44.3097 114.46C46.3097 114.24 48.3097 114.18 50.3097 113.92C52.2824 113.638 54.2385 113.251 56.1697 112.76C58.1097 112.28 60.0497 111.83 62.0097 111.47C63.9697 111.11 65.9097 110.69 67.8797 110.39C71.8272 109.78 75.8076 109.406 79.7997 109.27C79.8219 109.27 79.8434 109.278 79.86 109.293C79.8766 109.308 79.8872 109.328 79.8897 109.35C79.8894 109.369 79.8835 109.388 79.8729 109.404C79.8623 109.42 79.8473 109.432 79.8297 109.44C76.0026 110.581 72.1128 111.499 68.1797 112.19C66.1797 112.53 64.2497 112.79 62.2697 113.05C60.2897 113.31 58.2697 113.52 56.2697 113.69C54.2834 113.84 52.307 114.1 50.3497 114.47C48.3497 114.85 46.4797 115.47 44.5297 115.87C42.5797 116.27 40.6097 116.56 38.6297 116.79C36.6381 117.029 34.6353 117.163 32.6297 117.19C32.6175 117.192 32.605 117.19 32.5934 117.187C32.5817 117.183 32.5711 117.176 32.5624 117.167C32.5537 117.159 32.5471 117.148 32.5432 117.136C32.5392 117.125 32.538 117.112 32.5397 117.1C32.5354 117.086 32.535 117.071 32.5385 117.057C32.542 117.043 32.5493 117.03 32.5596 117.02C32.5698 117.01 32.5827 117.002 32.5969 116.999C32.611 116.995 32.6258 116.996 32.6397 117Z" fill="#010101"/>
<path d="M80.3303 67.13L8.25027 79.4C7.72361 76.7333 7.23027 73.9933 6.77027 71.18C6.21027 67.7867 5.71361 64.4533 5.28027 61.18L77.1403 48.94C77.5803 51.2 78.0203 53.48 78.4303 55.8C79.1303 59.6333 79.7636 63.41 80.3303 67.13Z" fill="#1F705E" stroke="#010101" stroke-miterlimit="10" stroke-linecap="round"/>
<path d="M52.5196 86.17C66.8796 80.94 74.8996 66.72 70.4196 54.41C65.9396 42.1 50.6596 36.41 36.2896 41.59C21.9196 46.77 13.9096 61 18.3896 73.35C22.8696 85.7 38.1496 91.4 52.5196 86.17Z" fill="#FAF28C" stroke="#010101" stroke-miterlimit="10"/>
<path d="M19.9199 124.29C20.2799 126.58 20.6499 128.87 21.0099 131.17C22.0299 130.11 23.0299 129.043 24.0099 127.97L28.7299 129.97L32.5399 126.97L37.2799 128.31L42.5199 125.31L47.7599 126.71L52.6499 123.35L56.8799 125.35L61.3499 121.57L67.2899 123.83C68.7499 122.47 70.1999 121.12 71.6699 119.77C73.6099 120.44 75.5599 121.09 77.5099 121.77C78.5099 120.56 79.5099 119.36 80.5099 118.16C82.0999 118.93 84.9199 119.8 86.5099 120.57C86.4399 118.24 85.3399 115.57 85.2699 113.25C63.5699 116.79 41.6399 120.66 19.9199 124.29Z" fill="#1F705E" stroke="#010101" stroke-miterlimit="10" stroke-linecap="round"/>
<path d="M79.69 61.78L79.95 63.28L77.51 64.1L76.81 64.33L76.89 66.06L77.17 72.73L77 72.36L75.7 68.72L74.4 65L66.54 64.83H66L66.66 64.65L74.39 62.49L73.93 53.65L76.06 61.96L78.06 61.88L79.69 61.78Z" fill="white" stroke="#010101" stroke-width="0.5" stroke-miterlimit="10" stroke-linecap="round"/>
<path d="M66.57 68.2L67.8 73L73 72.8L68.2 74.41L68.41 79.27L66.8 74.78L62 74.68L66.86 73.32L66.57 68.2Z" fill="white" stroke="#010101" stroke-width="0.5" stroke-miterlimit="10" stroke-linecap="round"/>
<path d="M38.7802 106C38.4671 105.832 38.1297 105.714 37.7802 105.65C37.4511 105.575 37.1093 105.575 36.7802 105.65C36.5814 105.681 36.3868 105.735 36.2002 105.81C36.0274 105.872 35.8704 105.971 35.7402 106.1C35.6818 106.16 35.6394 106.233 35.6166 106.313C35.5939 106.394 35.5917 106.479 35.6102 106.56C35.6239 106.643 35.6574 106.722 35.7078 106.79C35.7583 106.858 35.8242 106.913 35.9002 106.95C36.0849 107.029 36.2804 107.079 36.4802 107.1H37.2702C37.5568 107.1 37.8368 107.12 38.1102 107.16C38.3739 107.178 38.6335 107.235 38.8802 107.33C39.1088 107.411 39.317 107.54 39.4902 107.71C39.663 107.899 39.7746 108.136 39.8102 108.39C39.8816 108.732 39.8246 109.088 39.6502 109.39C39.4696 109.701 39.2111 109.959 38.9002 110.14C38.5544 110.345 38.1753 110.487 37.7802 110.56C37.2796 110.635 36.7708 110.635 36.2702 110.56C35.8047 110.489 35.3665 110.296 35.0002 110L35.6302 109.19C35.913 109.402 36.2377 109.55 36.5826 109.626C36.9276 109.702 37.2847 109.703 37.6302 109.63C37.8183 109.59 38.0024 109.533 38.1802 109.46C38.3542 109.391 38.5111 109.285 38.6402 109.15C38.697 109.085 38.7375 109.008 38.7584 108.925C38.7793 108.841 38.7799 108.754 38.7602 108.67C38.7498 108.591 38.7184 108.515 38.6692 108.452C38.6199 108.389 38.5547 108.34 38.4802 108.31C38.2962 108.221 38.0947 108.173 37.8902 108.17C37.6402 108.17 37.3802 108.17 37.1102 108.17C36.7374 108.133 36.3669 108.077 36.0002 108C35.6618 107.953 35.3395 107.827 35.0602 107.63C34.7863 107.391 34.6086 107.06 34.5602 106.7C34.5006 106.384 34.5574 106.057 34.7202 105.78C34.9087 105.477 35.17 105.226 35.4802 105.05C35.8359 104.844 36.2251 104.701 36.6302 104.63C36.9239 104.579 37.2222 104.559 37.5202 104.57C37.8312 104.573 38.1405 104.617 38.4402 104.7C38.7328 104.776 39.0079 104.909 39.2502 105.09L38.7802 106ZM47.5502 107.93C47.3675 108.135 47.1629 108.319 46.9402 108.48C46.6874 108.67 46.4119 108.828 46.1202 108.95C45.799 109.089 45.4637 109.193 45.1202 109.26C44.5248 109.398 43.9056 109.398 43.3102 109.26C42.7866 109.118 42.3125 108.835 41.9402 108.44C41.5766 108.048 41.3366 107.558 41.2502 107.03C41.1246 106.458 41.1769 105.861 41.4002 105.32C41.6141 104.82 41.9598 104.388 42.4002 104.07C42.8623 103.731 43.3959 103.502 43.9602 103.4C44.4731 103.304 45.0019 103.334 45.5002 103.49C45.9683 103.633 46.3896 103.899 46.7202 104.26C47.0749 104.64 47.3082 105.117 47.3902 105.63L47.4702 106.15L42.4702 107.07C42.5602 107.296 42.6953 107.501 42.8672 107.673C43.0392 107.845 43.2443 107.98 43.4702 108.07C44.0028 108.287 44.589 108.336 45.1502 108.21C45.5475 108.151 45.9266 108.004 46.2602 107.78C46.5013 107.612 46.7256 107.421 46.9302 107.21L47.5502 107.93ZM44.1402 104.38C43.671 104.459 43.2281 104.651 42.8502 104.94C42.6755 105.085 42.5355 105.267 42.4403 105.473C42.3451 105.679 42.2972 105.903 42.3002 106.13L46.1702 105.42V105.3C46.1023 105.061 45.9539 104.852 45.7502 104.71C45.5312 104.548 45.2781 104.439 45.0102 104.39C44.7257 104.319 44.43 104.306 44.1402 104.35V104.38ZM55.3802 106.5C55.1971 106.702 54.9925 106.883 54.7702 107.04C54.5118 107.23 54.2335 107.391 53.9402 107.52C53.6214 107.663 53.2852 107.764 52.9402 107.82C52.3412 107.945 51.7213 107.928 51.1302 107.77C50.6089 107.628 50.1356 107.348 49.7602 106.96C49.3985 106.567 49.1589 106.077 49.0702 105.55C48.9427 104.994 48.982 104.413 49.183 103.88C49.3839 103.346 49.7378 102.884 50.2002 102.55C50.6623 102.211 51.1959 101.981 51.7602 101.88C52.2728 101.778 52.8029 101.809 53.3002 101.97C53.7683 102.113 54.1896 102.379 54.5202 102.74C54.877 103.118 55.1106 103.596 55.1902 104.11L55.2702 104.63L50.2702 105.55C50.3602 105.776 50.4953 105.981 50.6672 106.153C50.8392 106.325 51.0443 106.46 51.2702 106.55C51.804 106.762 52.3887 106.811 52.9502 106.69C53.3475 106.631 53.7266 106.484 54.0602 106.26C54.2966 106.086 54.5205 105.895 54.7302 105.69L55.3802 106.5ZM52.0002 102.92C51.5297 102.994 51.0858 103.187 50.7102 103.48C50.5363 103.623 50.3966 103.804 50.3015 104.008C50.2063 104.212 50.158 104.435 50.1602 104.66L54.0002 104V103.88C53.93 103.639 53.7824 103.428 53.5802 103.28C53.3607 103.121 53.1074 103.015 52.8402 102.97C52.566 102.9 52.2808 102.883 52.0002 102.92ZM62.2702 97.71L63.7302 105.71L62.6202 105.92L62.4602 105.03C62.342 105.243 62.1901 105.436 62.0102 105.6C61.8107 105.802 61.5854 105.977 61.3402 106.12C61.0609 106.268 60.7608 106.372 60.4502 106.43C59.9137 106.534 59.3597 106.499 58.8402 106.33C58.3521 106.164 57.9194 105.867 57.5902 105.47C57.2496 105.052 57.0254 104.552 56.9402 104.02C56.831 103.487 56.869 102.933 57.0502 102.42C57.2164 101.932 57.5182 101.502 57.9202 101.18C58.338 100.832 58.8427 100.604 59.3802 100.52C59.8217 100.425 60.2786 100.425 60.7202 100.52C61.082 100.596 61.4231 100.75 61.7202 100.97L61.1502 97.89L62.2702 97.71ZM60.4702 105.41C60.8372 105.344 61.1814 105.186 61.4702 104.95C61.7376 104.731 61.9414 104.445 62.0602 104.12C62.1744 103.779 62.1985 103.413 62.1302 103.06C62.0792 102.692 61.9268 102.346 61.6902 102.06C61.4722 101.792 61.1801 101.593 60.8502 101.49C60.4917 101.374 60.1091 101.353 59.7402 101.43C59.3726 101.488 59.0273 101.643 58.7402 101.88C58.4709 102.093 58.2665 102.377 58.1502 102.7C58.0284 103.04 58.0007 103.406 58.0702 103.76C58.1241 104.129 58.2799 104.475 58.5202 104.76C58.7465 105.019 59.0358 105.215 59.3602 105.33C59.7076 105.448 60.0792 105.475 60.4402 105.41H60.4702ZM69.3202 100.41C69.0092 100.237 68.671 100.119 68.3202 100.06C67.9903 99.9924 67.6501 99.9924 67.3202 100.06C67.1254 100.094 66.9344 100.148 66.7502 100.22C66.5749 100.281 66.417 100.384 66.2902 100.52C66.2293 100.578 66.1852 100.651 66.1623 100.732C66.1395 100.813 66.1387 100.899 66.1602 100.98C66.172 101.062 66.2037 101.139 66.2525 101.205C66.3014 101.271 66.3658 101.325 66.4402 101.36C66.6253 101.448 66.8257 101.498 67.0302 101.51H67.8202C68.1012 101.51 68.382 101.53 68.6602 101.57C68.9238 101.589 69.1832 101.646 69.4302 101.74C69.6588 101.815 69.865 101.945 70.0302 102.12C70.2118 102.304 70.3277 102.543 70.3602 102.8C70.4288 103.142 70.372 103.497 70.2002 103.8C70.016 104.114 69.7543 104.376 69.4402 104.56C69.0966 104.767 68.7163 104.906 68.3202 104.97C67.8238 105.055 67.3166 105.055 66.8202 104.97C66.3359 104.899 65.8797 104.699 65.5002 104.39L66.1402 103.58C66.4134 103.771 66.718 103.914 67.0402 104C67.4092 104.08 67.7912 104.08 68.1602 104C68.3499 103.966 68.5346 103.909 68.7102 103.83C68.8817 103.761 69.038 103.659 69.1702 103.53C69.2282 103.464 69.2701 103.385 69.2926 103.3C69.3152 103.215 69.3178 103.126 69.3002 103.04C69.2846 102.962 69.2513 102.889 69.2027 102.827C69.1541 102.764 69.0916 102.714 69.0202 102.68C68.8292 102.601 68.6265 102.554 68.4202 102.54C68.1802 102.54 67.9202 102.54 67.6402 102.54C67.2402 102.54 66.8502 102.54 66.4902 102.44C66.1306 102.398 65.787 102.267 65.4902 102.06C65.2193 101.82 65.0451 101.489 65.0002 101.13C64.9358 100.814 64.9929 100.486 65.1602 100.21C65.3493 99.9103 65.6106 99.6627 65.9202 99.49C66.2751 99.282 66.6647 99.1397 67.0702 99.07C67.3766 99.0118 67.6885 98.9883 68.0002 99C68.3116 98.9976 68.6216 99.0414 68.9202 99.13C69.2143 99.2023 69.4902 99.3352 69.7302 99.52L69.3202 100.41Z" fill="#010101"/>
<path d="M29.9197 68C31.5797 62.64 40.6197 61.31 43.2997 60.92C46.8097 60.41 54.0097 59.35 57.1497 63.38C58.5197 65.13 58.3997 68.32 58.1497 74.7C57.9597 79.7 57.8297 82.2 56.4897 84.08C54.1697 87.33 50.1997 88.08 47.4897 88.56C44.7797 89.04 40.2197 90 36.8397 87.36C35.9997 86.71 35.2597 85.87 32.4797 77.96C29.5497 69.58 29.7197 68.65 29.9197 68Z" fill="#8B5E3C" stroke="#231F20" stroke-miterlimit="10"/>
<path d="M29.8502 67.62C29.5002 64.92 37.2902 61.22 44.1102 60.37C49.5302 59.7 57.0002 60.5 57.4902 63C57.9802 65.5 51.5602 69.51 45.4902 70.74C38.5202 72.16 30.2002 70.3 29.8502 67.62Z" fill="#A97C50" stroke="#231F20" stroke-miterlimit="10"/>
<path d="M32.8601 67.06C32.6101 65.13 38.5801 62.43 43.7801 61.78C47.9101 61.26 53.5701 61.78 53.9501 63.56C54.3301 65.34 49.3801 68.25 44.7401 69.17C39.4301 70.22 33.1101 69 32.8601 67.06Z" fill="#231F20" stroke="#231F20" stroke-miterlimit="10"/>
<path d="M43.1302 60.81C43.1302 60.95 43.1302 61.09 43.2002 61.24C43.2702 61.39 43.3002 61.83 43.3402 62.13C43.7502 64.74 44.0402 67.21 44.2502 69.51C43.8302 69.51 43.4202 69.58 43.0002 69.6C42.2902 69.6 41.5802 69.65 40.9002 69.6C40.3902 68.23 39.9002 66.76 39.4002 65.21C39.2202 64.64 39.0402 64.06 38.8602 63.46C38.7602 63.09 38.6502 62.72 38.5502 62.35L38.4902 62.14C36.9738 56.7292 35.9431 51.194 35.4102 45.6C35.3102 44.6 35.2402 43.67 35.1802 42.73C34.9702 39.57 34.9402 36.62 35.0202 33.9C37.0273 38.3875 38.7311 43.0045 40.1202 47.72C40.3602 48.53 40.5802 49.33 40.7902 50.12C41.8102 53.87 42.5602 57.45 43.1302 60.81Z" fill="#3A7867"/>
<path d="M43.1802 60.8C43.4402 62.24 43.5902 63.69 43.8202 65.14L44.5302 69.48V69.76H44.2402C43.6702 69.76 43.1102 69.92 42.5402 69.92L40.8402 69.99H40.5802L40.4802 69.72C39.6802 67.55 38.9102 65.37 38.3102 63.14C37.7102 60.91 37.2302 58.65 36.8102 56.38C36.3902 54.11 36.0202 51.85 35.6702 49.57C35.3202 47.29 35.0602 45 34.8302 42.71C34.5551 39.7618 34.4449 36.8005 34.5002 33.84V31.77L35.3702 33.66C36.5906 36.2702 37.6786 38.9403 38.6302 41.66C39.1102 43.03 39.5602 44.4 39.9902 45.78C40.4202 47.16 40.7402 48.56 41.0802 49.96C41.4935 51.7467 41.8568 53.54 42.1702 55.34L43.1802 60.8ZM43.0802 60.8C42.7602 59 42.4002 57.21 41.9302 55.45C41.4602 53.69 41.0002 52 40.4202 50.23C39.9902 48.87 39.5802 47.5 39.1102 46.14C38.6402 44.78 38.2202 43.42 37.7402 42.08C36.7402 39.4 35.7402 36.73 34.5802 34.08L35.5002 33.9C35.3802 36.83 35.3902 39.76 35.5002 42.7C35.6102 44.98 35.7302 47.28 36.0502 49.55C36.3427 51.8272 36.7566 54.087 37.2902 56.32C37.8402 58.55 38.4702 60.75 39.1602 62.94C39.8502 65.13 40.6202 67.27 41.2802 69.47L40.9302 69.21H42.5702C43.1202 69.21 43.6702 69.21 44.2202 69.21L43.9702 69.51L43.6102 65.15L43.3802 63C43.3102 62.26 43.1902 61.54 43.0802 60.82V60.8Z" fill="#231F20"/>
<path d="M36.1201 39.05C36.3994 43.889 37.0075 48.7035 37.9401 53.46C38.9061 58.4564 40.2227 63.3786 41.8801 68.19" fill="#3A7867"/>
<path d="M36.1201 39.05V39.55" stroke="white" stroke-miterlimit="10" stroke-linecap="round"/>
<path d="M36.5801 44.49C36.8801 47.28 37.3201 50.28 37.9401 53.49C38.7142 57.5102 39.7158 61.4833 40.9401 65.39" stroke="white" stroke-miterlimit="10" stroke-linecap="round" stroke-dasharray="0.99 4.96"/>
<path d="M41.7197 67.72C41.7697 67.88 41.8297 68.03 41.8797 68.19" stroke="white" stroke-miterlimit="10" stroke-linecap="round"/>
<path d="M51.0003 60.45L51.2803 61.93C51.3803 62.42 51.5303 62.93 51.6503 63.39C51.9203 64.39 52.2103 65.33 52.4903 66.29L52.5403 66.45L52.4003 66.54L50.9503 67.54C50.7106 67.7035 50.46 67.8505 50.2003 67.98L49.8203 68.2L49.4203 68.39L49.1003 68.55L48.9203 68.22L48.5203 67.5V67.42V67.54C47.9169 66.4039 47.4085 65.2199 47.0003 64V63.93V64L46.5003 62.22L46.2103 60.75C46.1003 60.05 46.0103 59.31 45.9603 58.59C45.9103 57.87 45.9003 57.14 45.9603 56.42C45.9737 54.9374 46.1142 53.4586 46.3803 52V52.12V52L46.7703 50.34V50.42V50.34C46.9403 49.84 47.1003 49.34 47.2503 48.85V48.75V48.87V48.8C47.9139 46.9411 48.8399 45.1867 50.0003 43.59C51.1818 41.9986 52.5746 40.5755 54.1403 39.36L56.7603 37.36L54.8403 40.09C53.8287 41.5317 52.9802 43.0812 52.3103 44.71C51.6409 46.3346 51.1675 48.0333 50.9003 49.77C50.6528 51.5354 50.5458 53.3176 50.5803 55.1C50.6266 56.8894 50.7668 58.6752 51.0003 60.45ZM50.9103 60.45C50.7903 59.56 50.6903 58.66 50.5603 57.77C50.4303 56.88 50.2903 55.98 50.2103 55.08C49.9558 53.2718 49.8855 51.4424 50.0003 49.62C50.3636 45.9305 51.7489 42.4154 54.0003 39.47L54.7003 40.15C53.1718 41.2835 51.7911 42.6037 50.5903 44.08C49.3639 45.5561 48.3537 47.1993 47.5903 48.96V48.84V48.97C47.4103 49.45 47.2303 49.97 47.0603 50.41V50.33V50.42L46.6303 52.04V52V52.07V52.01C46.3291 53.4022 46.2015 54.8264 46.2503 56.25C46.2796 56.9601 46.3497 57.6679 46.4603 58.37C46.5603 59.08 46.6903 59.76 46.8503 60.47L47.2303 61.88L47.7703 63.59V63.66V63.59C48.1803 64.76 48.6503 65.91 49.1603 67.04V67.1V66.98L49.5003 67.71L49.0003 67.54L49.3903 67.38L49.7803 67.21C50.0444 67.1029 50.3016 66.9793 50.5503 66.84L52.0403 66.03L51.9503 66.28C51.7503 65.28 51.5703 64.28 51.3703 63.28C51.1703 62.28 51.0003 61.46 50.8903 60.46L50.9103 60.45Z" fill="#231F20"/>
<path d="M48.5203 48.68V48.85C48.8403 50.66 49.0803 52.41 49.2803 54.12C49.5203 56.2 49.6803 58.21 49.7803 60.12C49.7803 60.22 49.7803 60.32 49.7803 60.41C49.7803 60.82 49.7803 61.22 49.7803 61.61C49.7803 62 49.7803 62.25 49.7803 62.55C49.7803 64.12 49.7803 65.63 49.7803 67.05C49.7803 67.35 49.7803 67.65 49.7803 67.95L48.8703 68.3C48.2203 68.54 47.5503 68.75 46.8703 68.93L46.4203 69.04C45.9103 66.79 45.4203 64.36 45.0103 61.76C45.0103 61.47 44.9203 61.17 44.8803 60.87C44.8803 60.72 44.8803 60.57 44.8103 60.42C44.517 58.46 44.2703 56.4167 44.0703 54.29C43.9003 52.48 43.7803 50.63 43.7003 48.7C43.7003 48.3 43.7003 47.9 43.7003 47.5C43.7003 46.71 43.7003 45.93 43.7003 45.17C43.653 41.0323 43.8467 36.8953 44.2803 32.78C45.621 36.4672 46.7298 40.2345 47.6003 44.06C48.0003 45.64 48.2603 47.18 48.5203 48.68Z" fill="#3A7867"/>
<path d="M48.5695 48.68V48.85C48.7395 49.99 48.9095 51.13 49.1095 52.26L49.4095 53.97C49.4995 54.54 49.5495 55.11 49.6295 55.68L50.0495 59.13C50.1295 59.7 50.1795 60.3 50.2095 60.87C50.2395 61.44 50.2895 62.02 50.3095 62.6V62.54V62.59C50.3095 64.1 50.3095 65.59 50.3095 67.11V67.04V67.11V68.02V68.29L50.0595 68.38C49.5063 68.5932 48.9422 68.7768 48.3695 68.93C47.7895 69.09 47.2295 69.28 46.6395 69.4L46.3195 69.46V69.17C46.0395 67.47 45.7795 65.77 45.4595 64.09C45.1395 62.41 44.8295 60.71 44.6495 59.01C44.4695 57.31 44.1395 55.62 43.9495 53.91L43.4795 48.76C43.3095 46.09 43.2795 43.43 43.3295 40.76C43.3795 38.09 43.5995 35.43 43.8695 32.76L43.9995 30.6L44.7495 32.6C45.2295 33.89 45.6095 35.21 45.9995 36.54C46.3895 37.87 46.6895 39.2 46.9995 40.54C47.3095 41.88 47.5795 43.23 47.7995 44.54C48.0195 45.85 48.3095 47.33 48.5695 48.68ZM48.4695 48.68C48.1995 47.34 47.9095 46 47.6095 44.68C47.3095 43.36 46.8995 42.04 46.4995 40.68C46.0995 39.32 45.6495 38.09 45.2195 36.79C44.7895 35.49 44.2995 34.28 43.8395 33L44.8395 32.88C44.5595 35.51 44.4295 38.15 44.3195 40.8C44.2595 42.12 44.2295 43.44 44.2195 44.8C44.2095 46.16 44.2195 47.45 44.2195 48.8L44.4395 53.91C44.5495 55.62 44.7295 57.33 44.9095 59.03C45.0095 59.88 45.0995 60.73 45.2295 61.58C45.3595 62.43 45.5695 63.25 45.7295 64.09C46.0595 65.77 46.4495 67.44 46.8295 69.09L46.4595 68.87C47.0195 68.72 47.5595 68.5 48.1095 68.32C48.6595 68.14 49.1895 67.92 49.7195 67.69L49.4595 68.05V67.23V67.1C49.4595 65.61 49.4095 64.1 49.4595 62.63V62.57C49.4595 61.43 49.4595 60.27 49.3695 59.14L49.2195 55.69C49.2195 55.12 49.2195 54.54 49.1295 53.97L48.9995 52.29C48.8595 51.15 48.7095 50.01 48.5495 48.87L48.4695 48.68Z" fill="#231F20"/>
<path d="M44.8799 38.06C46.1197 42.7464 47.0451 47.5103 47.6499 52.32C48.2819 57.3711 48.5626 62.46 48.4899 67.55" fill="#3A7867"/>
<path d="M44.8799 38.06C44.8799 38.22 44.9699 38.38 45.0099 38.55" stroke="white" stroke-miterlimit="10" stroke-linecap="round"/>
<path d="M46.1396 43.38C46.7196 46.12 47.2397 49.11 47.6497 52.32C48.1609 56.3842 48.4413 60.4741 48.4897 64.57" stroke="white" stroke-miterlimit="10" stroke-linecap="round" stroke-dasharray="0.99 4.96"/>
<path d="M48.5 67.05C48.5 67.22 48.5 67.38 48.5 67.55" stroke="white" stroke-miterlimit="10" stroke-linecap="round"/>
<path d="M40.6699 69.61C39.4664 69.5536 38.271 69.3828 37.0999 69.1C36.2613 68.0706 35.4897 66.9884 34.7899 65.86C34.5099 65.41 34.2599 64.98 34.0399 64.55L33.9299 64.35C32.5807 61.8998 31.8754 59.1472 31.8799 56.35C31.8799 54.07 32.4799 52.56 32.7899 48.29C33.0276 44.9154 32.9808 41.5268 32.6499 38.16C33.6187 39.593 34.465 41.105 35.1799 42.68C35.9575 44.3902 36.567 46.1719 36.9999 48C37.1599 48.65 37.2999 49.34 37.4199 50C37.5399 50.66 37.6399 51.54 37.6899 52.21C37.7799 53.29 37.7899 54.21 37.8599 55.44C37.9958 57.645 38.2697 59.8393 38.6799 62.01C38.6799 62.09 38.6799 62.16 38.6799 62.24C38.7499 62.61 38.8299 62.98 38.9099 63.36C39.0432 63.9467 39.1832 64.5467 39.3299 65.16C39.7499 66.61 40.1599 68.07 40.6699 69.61Z" fill="#3A7867"/>
<path d="M40.7103 69.64C40.3773 69.6619 40.0432 69.6619 39.7103 69.64L38.8003 69.58C38.1955 69.5355 37.5943 69.452 37.0003 69.33L36.9403 69.26C36.0371 68.2312 35.2052 67.142 34.4503 66C33.7194 64.8399 33.0904 63.6187 32.5703 62.35C31.5036 59.78 31.2083 56.955 31.7203 54.22C31.9603 52.89 32.2303 51.58 32.4103 50.22C32.5903 48.86 32.6903 47.55 32.7403 46.22C32.8229 43.5466 32.6858 40.8709 32.3303 38.22L32.1603 37L32.9203 38C33.9443 39.4234 34.8379 40.9362 35.5903 42.52V42.59V42.47C36.4032 44.184 37.0495 45.9723 37.5203 47.81C37.6703 48.52 37.8403 49.23 37.9703 49.95L38.2503 52.14C38.3203 53.61 38.3603 55.14 38.4503 56.54C38.5403 57.94 38.7003 59.45 38.9103 60.89C39.1203 62.33 39.3803 63.76 39.6903 65.21C40.0003 66.66 40.3603 68.27 40.7103 69.64ZM40.6303 69.58C40.1603 68.12 39.6303 66.76 39.1903 65.43C38.7503 64.1 38.3903 62.57 38.1303 61.12C37.8703 59.67 37.6303 58.2 37.4703 56.72C37.3103 55.24 37.2803 53.79 37.1803 52.32L36.9203 50.23L36.5203 48.15C36.1016 46.3623 35.5157 44.618 34.7703 42.94V42.88V42.8V42.92C34.0895 41.3517 33.2905 39.8373 32.3803 38.39L32.9703 38.17C33.1368 40.8668 33.1635 43.5704 33.0503 46.27C32.9703 48.96 32.7103 51.68 32.3903 54.34C32.2402 55.6424 32.2402 56.9576 32.3903 58.26C32.5929 59.5608 32.9279 60.8374 33.3903 62.07C34.3556 64.553 35.6687 66.8863 37.2903 69L37.1603 68.91C37.731 69.0885 38.3121 69.2321 38.9003 69.34L39.7803 69.49C40.0653 69.5007 40.3493 69.5307 40.6303 69.58Z" fill="#231F20"/>
<path d="M33.6299 42.64C35.9099 48.35 35.7499 52.4 35.1399 55.08C34.7635 56.2601 34.5383 57.4832 34.4699 58.72C34.4699 62.56 36.7599 65.72 38.7499 67.72" fill="#3A7867"/>
<path d="M33.6299 42.64C33.6999 42.8 33.7599 42.95 33.8199 43.11" stroke="white" stroke-miterlimit="10" stroke-linecap="round"/>
<path d="M35.2897 48.49C35.6591 50.6762 35.6082 52.9128 35.1397 55.08C34.7633 56.2601 34.5382 57.4832 34.4697 58.72C34.5053 61.0618 35.2709 63.3341 36.6597 65.22" stroke="white" stroke-miterlimit="10" stroke-linecap="round" stroke-dasharray="1.12 5.58"/>
<path d="M38.4102 67.39L38.7502 67.75" stroke="white" stroke-miterlimit="10" stroke-linecap="round"/>
<path d="M47.3902 60.24C47.3902 60.37 47.3902 60.5 47.3902 60.62C47.3902 60.97 47.3902 61.31 47.3902 61.62C47.4631 64.0865 47.3326 66.5549 47.0002 69L46.5502 69.11L46.0502 69.22C45.4602 69.34 44.8602 69.44 44.2502 69.51C43.8302 69.51 43.4202 69.58 43.0002 69.6C42.2642 67.3138 41.7092 64.9732 41.3402 62.6C41.2802 62.26 41.2302 61.9267 41.1902 61.6C41.1902 61.48 41.1902 61.37 41.1902 61.26C41.1202 60.67 41.0602 60.13 41.0202 59.63C40.6902 55.89 41.0202 53.72 40.8302 50.08C40.8302 49.41 40.7602 48.68 40.7002 47.88C40.3962 44.0942 39.7264 40.3467 38.7002 36.69C40.7319 39.3108 42.4502 42.1602 43.8202 45.18C44.2669 46.16 44.6869 47.2 45.0802 48.3C46.4277 52.1462 47.206 56.1687 47.3902 60.24Z" fill="#3A7867"/>
<path d="M47.44 60.23C47.53 61.7 47.55 63.16 47.54 64.63C47.53 66.1 47.45 67.57 47.3 69.04V69.23L47.09 69.29C46.4361 69.4993 45.7676 69.6597 45.09 69.77C44.75 69.77 44.42 69.91 44.09 69.94L43 70H42.67L42.56 69.67C41.5241 66.5424 40.912 63.2901 40.74 60C40.64 58.35 40.62 56.69 40.65 55C40.68 53.31 40.65 51.72 40.65 50.08C40.55 48.96 40.47 47.83 40.32 46.71C40.17 45.59 39.98 44.48 39.77 43.37C39.3615 41.1574 38.8374 38.9678 38.2 36.81L37.5 34.42L39.05 36.42C40.3941 38.102 41.5982 39.8913 42.65 41.77C43.6955 43.6486 44.5723 45.6164 45.27 47.65C45.9862 49.6732 46.5118 51.759 46.84 53.88C47.1541 55.9843 47.3544 58.1041 47.44 60.23ZM47.35 60.23C47.2181 58.1128 46.8832 56.0132 46.35 53.96C45.8221 51.9164 45.1539 49.9116 44.35 47.96L43.09 45.07C42.64 44.12 42.15 43.2 41.65 42.28C40.6323 40.4437 39.4896 38.6796 38.23 37L39.08 36.57C39.6878 38.7709 40.1521 41.0089 40.47 43.27C40.62 44.4 40.74 45.54 40.82 46.67C40.9 47.8 40.93 48.95 40.98 50.09C41.05 51.73 40.98 53.38 40.98 55.02C40.9647 56.6583 41.0649 58.2957 41.28 59.92C41.7211 63.1484 42.437 66.3333 43.42 69.44L42.98 69.14L43.98 69.08C44.31 69.08 44.64 69.01 44.98 68.97C45.6528 68.9162 46.321 68.8159 46.98 68.67L46.75 68.92C47.02 67.49 47.22 66.05 47.35 64.59C47.4437 63.1415 47.4437 61.6885 47.35 60.24V60.23Z" fill="#231F20"/>
<path d="M41.1299 42.94C42.2201 44.4377 43.0516 46.1075 43.5899 47.88C44.2948 50.4685 44.4649 53.1736 44.0899 55.83C43.812 60.1425 44.2513 64.4712 45.3899 68.64" fill="#3A7867"/>
<path d="M41.1299 42.94C41.2299 43.07 41.3199 43.21 41.4199 43.35" stroke="white" stroke-miterlimit="10" stroke-linecap="round"/>
<path d="M43.7295 48.36C44.3052 50.807 44.4272 53.3389 44.0895 55.83C43.8647 59.0449 44.0597 62.2754 44.6695 65.44" stroke="white" stroke-miterlimit="10" stroke-linecap="round" stroke-dasharray="1.11 5.54"/>
<path d="M45.2598 68.15L45.3898 68.64" stroke="white" stroke-miterlimit="10" stroke-linecap="round"/>
</svg>
