<svg width="108" height="135" viewBox="0 0 108 135" fill="none" xmlns="http://www.w3.org/2000/svg">
<path d="M49.5103 14.4C43.2629 10.8777 36.3811 8.62455 29.2603 7.76999C33.1303 10.27 33.8803 11.06 33.7603 11.3C33.6403 11.54 31.3103 10.51 28.1903 10.14C25.7591 9.86441 23.2973 10.0786 20.9503 10.77L26.0603 12.82C22.1039 12.5325 18.1509 13.4233 14.7003 15.38C12.9424 16.39 11.356 17.6726 10.0003 19.18L14.3403 19.3C12.5915 19.7381 10.9905 20.6328 9.70085 21.8926C8.41123 23.1523 7.47927 24.732 7.00027 26.47H10.3503C6.09948 29.9938 2.80766 34.5342 0.780273 39.67L14.9003 40C14.0903 40.53 13.7203 40.9 13.7903 41.12C14.0236 41.7867 18.2203 41.09 26.3803 39.03L25.1403 41.33C27.9911 41.6534 30.8686 41.0202 33.3203 39.53C35.7103 37.96 37.1903 35.53 37.5903 35.81C37.7703 35.93 37.7003 36.6 36.5903 39.04C38.6646 38.6106 40.5548 37.5485 42.0003 36C43.4603 34.35 44.1003 32.34 44.4203 32.45C44.7403 32.56 43.9503 35.45 44.2603 35.53C44.5703 35.61 47.1803 30.28 48.8503 24.53C49.7944 21.7125 50.1084 18.7221 49.7703 15.77C49.6703 15.21 49.5803 14.73 49.5103 14.4Z" fill="#3E9581"/>
<path d="M49.45 14.45C47.9 13.67 46.25 12.89 44.62 12.23C42.99 11.57 41.29 10.97 39.62 10.44C36.2292 9.40389 32.7464 8.69729 29.22 8.33001L29.59 7.33001C30.9425 8.14579 32.2479 9.0372 33.5 10C33.66 10.13 33.82 10.28 33.99 10.44C34.0877 10.5481 34.1748 10.6653 34.25 10.79C34.2806 10.8413 34.3074 10.8947 34.33 10.95C34.3581 11.0409 34.3749 11.135 34.38 11.23C34.3757 11.3871 34.3195 11.5383 34.22 11.66C34.1347 11.7694 34.0203 11.8525 33.89 11.9C33.6962 11.9479 33.4938 11.9479 33.3 11.9L33 11.88L32.4 11.72C31.64 11.5 30.91 11.29 30.16 11.13C28.6827 10.7849 27.1662 10.6369 25.65 10.69C24.1342 10.7521 22.6307 10.9903 21.17 11.4L21.24 10.16L26.33 12.24L29.9 13.7L26 13.44C24.557 13.3282 23.1063 13.3617 21.67 13.54C20.2302 13.7135 18.8146 14.0489 17.45 14.54C14.704 15.5583 12.2347 17.2056 10.24 19.35L10.02 18.85L14.37 19L16.37 19.07L14.43 19.53C12.6991 19.9268 11.1092 20.7884 9.83163 22.0219C8.55408 23.2554 7.63728 24.8141 7.18 26.53L7 26.21H10.35H11.1L10.53 26.7C6.37436 30.2318 3.18739 34.7645 1.27 39.87L0.79 39.14L14.92 39.34H17.16L15.28 40.58C15.0515 40.728 14.8312 40.8882 14.62 41.06C14.5535 41.1169 14.4932 41.1806 14.44 41.25C14.4623 41.1784 14.4623 41.1017 14.44 41.03C14.4377 40.9345 14.4101 40.8414 14.36 40.76C14.328 40.7092 14.2832 40.6678 14.23 40.64C14.14 40.64 14.52 40.64 14.75 40.64C14.98 40.64 15.31 40.64 15.6 40.57C16.75 40.43 17.94 40.19 19.11 39.95C21.46 39.45 23.81 38.86 26.11 38.25L27.85 37.81L27 39.39L25.76 41.69L25.12 40.53C27.9189 40.8792 30.7513 40.2312 33.12 38.7C34.2634 37.8436 35.3127 36.8681 36.25 35.79C36.395 35.6314 36.5522 35.4843 36.72 35.35L36.9 35.22L37.01 35.15L37.23 35.07C37.3288 35.0477 37.4312 35.0477 37.53 35.07C37.6899 35.0832 37.8442 35.1346 37.98 35.22C38.1826 35.3576 38.3228 35.5697 38.37 35.81C38.413 36.1089 38.3856 36.4136 38.29 36.7C38.29 36.91 38.17 37.1 38.11 37.29C37.84 38.03 37.53 38.71 37.21 39.39L36.36 38.39C37.7422 38.0968 39.0514 37.5289 40.21 36.72C41.3738 35.8616 42.3278 34.7504 43 33.47C43.18 33.15 43.35 32.83 43.58 32.47C43.646 32.3616 43.7195 32.2581 43.8 32.16L43.89 32.06L44.09 31.92C44.2269 31.855 44.3797 31.8307 44.53 31.85C44.6944 31.8767 44.8435 31.962 44.95 32.09C45.0183 32.1609 45.0696 32.2464 45.1 32.34C45.1213 32.402 45.138 32.4655 45.15 32.53V32.75C45.15 32.88 45.15 33 45.15 33.1C45.1 33.52 45.03 33.89 44.96 34.26C44.8886 34.5898 44.8385 34.9238 44.81 35.26C44.81 35.26 44.81 35.34 44.81 35.26C44.81 35.18 44.81 35.26 44.81 35.21C44.7654 35.1428 44.7043 35.0881 44.6325 35.0513C44.5607 35.0146 44.4806 34.9969 44.4 35C44.3185 34.9753 44.2315 34.9753 44.15 35H44.05H44C44.0936 34.8748 44.1804 34.7446 44.26 34.61C44.44 34.31 44.62 33.99 44.79 33.66C45.13 33.01 45.44 32.33 45.79 31.66C47.0013 28.9244 48.0302 26.1116 48.87 23.24C49.2953 21.8155 49.5734 20.3512 49.7 18.87C49.797 17.392 49.7131 15.9077 49.45 14.45ZM49.57 14.36C50.2906 17.3375 50.2597 20.4474 49.48 23.41C48.752 26.3523 47.8266 29.2422 46.71 32.06C46.42 32.76 46.13 33.46 45.8 34.16C45.64 34.51 45.47 34.85 45.27 35.16C45.1631 35.3516 45.0428 35.5354 44.91 35.71L44.74 35.88C44.6885 35.9268 44.6314 35.9671 44.57 36C44.5183 36.024 44.4648 36.0441 44.41 36.06C44.2617 36.0932 44.1064 36.0733 43.9713 36.0039C43.8361 35.9345 43.7295 35.8199 43.67 35.68C43.6423 35.6194 43.6222 35.5556 43.61 35.49C43.6022 35.4069 43.6022 35.3232 43.61 35.24C43.6335 34.8305 43.6836 34.423 43.76 34.02C43.76 33.65 43.88 33.28 43.9 32.95C43.9045 32.8801 43.9045 32.8099 43.9 32.74V32.68C43.8938 32.6961 43.8938 32.7139 43.9 32.73C43.9 32.73 43.9 32.73 43.98 32.86C44.0623 32.9487 44.171 33.0083 44.29 33.03C44.3917 33.0563 44.4983 33.0563 44.6 33.03L44.69 32.97L44.59 33.12C44.42 33.4 44.25 33.75 44.07 34.12C43.3527 35.5551 42.3285 36.8149 41.07 37.81C39.7801 38.762 38.3105 39.4424 36.75 39.81L35.28 40.19L35.9 38.78C36.19 38.12 36.5 37.45 36.73 36.78L36.87 36.32C36.87 36.2 36.87 35.98 36.93 36.12C36.946 36.1922 36.9764 36.2603 37.0194 36.3205C37.0623 36.3806 37.117 36.4315 37.18 36.47C37.2693 36.5464 37.3825 36.5888 37.5 36.59H37.67C37.6964 36.5957 37.7236 36.5957 37.75 36.59L37.41 36.91C36.3918 38.0636 35.248 39.1 34 40C32.7013 40.9091 31.2317 41.5453 29.68 41.87C28.1611 42.1818 26.6055 42.2761 25.06 42.15L23.83 42.06L24.45 41L25.69 38.71L26.58 39.84C24.21 40.42 21.85 40.98 19.45 41.46C18.25 41.69 17.04 41.91 15.79 42.05C15.48 42.05 15.16 42.11 14.79 42.12C14.3582 42.154 13.9247 42.0784 13.53 41.9C13.4116 41.8328 13.3093 41.7407 13.23 41.63C13.1224 41.4999 13.0593 41.3386 13.05 41.17C13.0427 40.9418 13.1094 40.7173 13.24 40.53C13.3638 40.3505 13.5119 40.1889 13.68 40.05C13.9406 39.8392 14.2145 39.6455 14.5 39.47L14.85 40.74L0.77 40.2H0L0.29 39.5C1.353 36.9269 2.73012 34.4951 4.39 32.26C6.05019 30.0355 7.97426 28.0208 10.12 26.26L10.3 26.74H6.61L6.7 26.42C7.213 24.6262 8.18612 22.9978 9.52278 21.6962C10.8595 20.3946 12.5132 19.4651 14.32 19V19.52L10 19.48H9.4L9.81 19C11.8052 16.6912 14.3116 14.8798 17.13 13.71C19.9828 12.5535 23.0567 12.0446 26.13 12.22L25.86 13.41L20.74 11.41L18.96 10.71L20.8 10.18C23.9314 9.22498 27.2633 9.13857 30.44 9.93002C31.22 10.12 31.99 10.35 32.74 10.58L33.28 10.73C33.3551 10.7532 33.4321 10.7699 33.51 10.78C33.57 10.78 33.66 10.78 33.51 10.78C33.51 10.78 33.34 10.84 33.3 10.93C33.233 11.0193 33.1978 11.1284 33.2 11.24C33.1897 11.2861 33.1897 11.3339 33.2 11.38L33.1 11.26C32.9837 11.1361 32.8602 11.0192 32.73 10.91C31.5353 9.95699 30.2902 9.06904 29 8.25001L26.9 6.89001L29.33 7.21001C32.9052 7.69311 36.4228 8.53399 39.83 9.72002C41.5332 10.3145 43.2024 11.0022 44.83 11.78C46.4623 12.5402 48.0454 13.4019 49.57 14.36Z" fill="#231F20"/>
<path d="M49.3601 14.89C46.2297 13.4244 42.9463 12.3109 39.5701 11.57C37.079 11.0176 34.5475 10.6665 32.0001 10.52C35.3701 12.33 36.0001 12.93 36.0001 13.12C36.0001 13.31 33.9101 12.61 31.2701 12.45C29.2195 12.3325 27.1655 12.6109 25.2201 13.27L29.6001 14.67C26.2825 14.615 23.017 15.499 20.1801 17.22C18.7765 18.0923 17.518 19.1788 16.4501 20.44L20.1001 20.34C18.6036 20.7685 17.2474 21.5863 16.1701 22.71C15.19 23.7345 14.4998 25.001 14.1701 26.38L17.0001 26.21C15.4495 27.5815 14.0636 29.1285 12.8701 30.82C11.5029 32.7717 10.4094 34.9015 9.62012 37.15L21.5001 36.8C20.8401 37.26 20.5001 37.57 20.6201 37.8C20.8401 38.3133 24.3301 37.57 31.0901 35.57L30.1601 37.45C32.5524 37.5839 34.9257 36.9573 36.9401 35.66C38.8801 34.3 40.0101 32.33 40.3501 32.51C40.5101 32.6 40.4801 33.13 39.6401 35.13C41.3442 34.6957 42.8798 33.7625 44.0501 32.45C45.1901 31.07 45.6401 29.45 45.9201 29.52C46.2001 29.59 45.6601 31.9 45.9201 31.98C46.1801 32.06 48.1301 27.68 49.2601 23.03C49.9196 20.7561 50.0462 18.3608 49.6301 16.03C49.5301 15.52 49.4301 15.14 49.3601 14.89Z" fill="#1E6F5D"/>
<path d="M49.5501 14.46C46.9501 16.56 44.2901 18.59 41.5501 20.51C38.8101 22.43 36.0001 24.22 33.0801 25.93C30.2171 27.6855 27.2481 29.2618 24.1901 30.65C22.6553 31.3359 21.0866 31.9434 19.4901 32.47C17.9001 33 16.3001 33.52 14.6801 34L14.6201 33.86C17.5601 32.19 20.6201 30.86 23.5501 29.33C26.4801 27.8 29.5501 26.47 32.4901 24.92C35.4301 23.37 38.3101 21.69 41.1301 19.92C43.9501 18.15 46.7401 16.31 49.4601 14.37L49.5501 14.46Z" fill="#231F20"/>
<path d="M45.4401 17.45C44.2839 17.3848 43.1342 17.2344 42.0001 17C40.8801 16.83 39.8201 16.43 38.7101 16.22C37.5917 15.9969 36.4588 15.8532 35.3201 15.79C34.7501 15.79 34.1801 15.73 33.6001 15.72H31.8701V15.57C33.0087 15.2993 34.1649 15.1088 35.3301 15C36.5119 14.915 37.6983 14.915 38.8801 15C40.0716 15.0131 41.2558 15.188 42.4001 15.52C43.5432 15.8942 44.6052 16.4812 45.5301 17.25L45.4401 17.45Z" fill="#231F20"/>
<path d="M45.3604 17.5C45.7935 18.5668 46.011 19.7087 46.0004 20.86C45.9593 21.9953 45.7608 23.1193 45.4104 24.2C44.8604 26.3761 43.991 28.4588 42.8304 30.38L42.6904 30.31C43.4378 28.2682 43.9674 26.1531 44.2704 24C44.4104 22.93 44.3504 21.85 44.5304 20.79C44.6765 19.6914 44.9038 18.6051 45.2104 17.54L45.3604 17.5Z" fill="#231F20"/>
<path d="M39.8304 21.42C38.7287 21.3928 37.6299 21.2959 36.5404 21.13C35.5404 21 34.4704 20.66 33.4104 20.52C31.2605 20.2469 29.083 20.2738 26.9404 20.6V20.46C29.0494 19.6829 31.2831 19.2999 33.5304 19.33C34.668 19.263 35.809 19.3777 36.9104 19.67C38.0127 19.9892 39.0351 20.5379 39.9104 21.28L39.8304 21.42Z" fill="#231F20"/>
<path d="M39.9296 21.36C40.1759 22.3233 40.2302 23.3257 40.0896 24.31C39.9124 25.2701 39.6063 26.2019 39.1796 27.08C38.4685 28.8717 37.5488 30.5734 36.4396 32.15L36.3096 32.08C36.6496 31.19 36.9996 30.31 37.3096 29.41C37.6196 28.51 37.8596 27.62 38.0796 26.71C38.2128 25.798 38.393 24.8934 38.6196 24C38.9024 23.0748 39.2916 22.1855 39.7796 21.35L39.9296 21.36Z" fill="#231F20"/>
<path d="M32.4996 26C31.6685 26.0865 30.8307 26.0865 29.9996 26C29.2196 25.93 28.4796 25.63 27.6896 25.51C26.0865 25.2697 24.4581 25.2495 22.8496 25.45V25.3C24.437 24.65 26.1343 24.3105 27.8496 24.3C28.7092 24.2175 29.5767 24.292 30.4096 24.52C31.255 24.7835 32.0192 25.2585 32.6296 25.9L32.4996 26Z" fill="#231F20"/>
<path d="M32.6001 26C32.8727 26.7236 32.9687 27.5018 32.8801 28.27C32.7599 29.0055 32.5164 29.7155 32.1601 30.37C31.601 31.7185 30.8754 32.9917 30.0001 34.16L29.8701 34.08C30.3312 32.7448 30.7086 31.3822 31.0001 30C31.0765 29.3068 31.2103 28.6211 31.4001 27.95C31.6291 27.2361 31.9663 26.5615 32.4001 25.95L32.6001 26Z" fill="#231F20"/>
<path d="M23.8704 30C23.2607 30.1387 22.6333 30.1825 22.0104 30.13C21.4513 30.0417 20.8998 29.9113 20.3604 29.74C19.2069 29.5249 18.0303 29.4611 16.8604 29.55V29.4C17.9995 28.8802 19.2292 28.5881 20.4804 28.54C21.1157 28.4476 21.7635 28.4919 22.3804 28.67C23.0175 28.8935 23.5696 29.3093 23.9604 29.86L23.8704 30Z" fill="#231F20"/>
<path d="M24 30C24.2935 30.5126 24.4292 31.1006 24.39 31.69C24.3055 32.2333 24.1116 32.7539 23.82 33.22C23.3724 34.2057 22.7901 35.1244 22.09 35.95L21.96 35.88C22.25 34.88 22.5 33.88 22.68 32.88C22.6981 32.372 22.7787 31.8682 22.92 31.38C23.1298 30.8599 23.4466 30.3897 23.85 30H24Z" fill="#231F20"/>
<path d="M47.6605 133.21C46.612 127.749 46.3159 122.171 46.7805 116.63C47.1835 111.032 48.5361 105.544 50.7805 100.4C51.9751 97.8597 53.387 95.4273 55.0005 93.13C56.5505 90.83 58.2005 88.64 59.5505 86.29C60.9315 83.9562 61.9435 81.423 62.5505 78.78C63.1358 76.1538 63.4276 73.4707 63.4205 70.78C63.4179 68.1186 63.0819 65.4679 62.4205 62.89C61.8287 60.3764 60.7593 57.9999 59.2705 55.89C58.5618 54.8966 57.7169 54.0079 56.7605 53.25C56.2451 52.8887 55.711 52.5549 55.1605 52.25C54.4963 51.8993 53.858 51.5017 53.2505 51.06C52.0749 50.1685 50.9897 49.1636 50.0105 48.06C49.028 47.0027 48.1223 45.8765 47.3005 44.69C43.8935 39.9172 42.2788 34.0958 42.7405 28.25C43.3736 22.5561 46.0701 17.2913 50.3205 13.45C50.3485 13.4225 50.3862 13.4071 50.4255 13.4071C50.4647 13.4071 50.5024 13.4225 50.5305 13.45C50.5516 13.4791 50.563 13.5141 50.563 13.55C50.563 13.5859 50.5516 13.621 50.5305 13.65C47.2055 17.8653 45.3011 23.0254 45.0905 28.39C45.1012 33.6028 46.7914 38.6733 49.9105 42.85C50.6632 43.8978 51.478 44.8996 52.3505 45.85C53.2032 46.7982 54.1294 47.6776 55.1205 48.48C55.6145 48.8472 56.1323 49.1813 56.6705 49.48C57.3268 49.8443 57.9582 50.2519 58.5605 50.7C59.7243 51.6775 60.7355 52.8235 61.5605 54.1C63.1768 56.5471 64.2602 59.3069 64.7405 62.2C65.2298 65.0471 65.3173 67.9487 65.0005 70.82C64.7287 73.5822 64.2337 76.3178 63.5205 79C62.7781 81.6856 61.7349 84.2787 60.4105 86.73C59.1205 89.19 57.6605 91.53 56.4105 93.95C55.1568 96.337 54.0579 98.8021 53.1205 101.33C52.1805 103.83 51.3671 106.377 50.6805 108.97C50.0072 111.573 49.4731 114.21 49.0805 116.87C48.3558 122.276 47.995 127.725 48.0005 133.18C48.0005 133.22 47.9847 133.258 47.9565 133.286C47.9284 133.314 47.8902 133.33 47.8505 133.33C47.8107 133.33 47.7725 133.314 47.7444 133.286C47.7163 133.258 47.7005 133.22 47.7005 133.18L47.6605 133.21Z" fill="#1E6F5D"/>
<path d="M83.1801 53.73C87.1281 52.4993 90.9227 50.8218 94.4901 48.73C97.0898 47.1964 99.5582 45.4505 101.87 43.51C97.4101 44.63 96.3101 44.63 96.2201 44.38C96.1301 44.13 98.4701 43.13 100.88 41.11C102.747 39.5308 104.277 37.5924 105.38 35.41L100.38 37.73C103.289 35.0487 105.344 31.571 106.29 27.73C106.739 25.7636 106.88 23.7397 106.71 21.73L103.65 24.82C104.549 23.2416 105.009 21.452 104.985 19.636C104.96 17.82 104.451 16.0435 103.51 14.49L101.23 16.95C101.379 14.4148 101.231 11.8709 100.79 9.37C100.283 6.44309 99.3852 3.5976 98.1201 0.910004L88.1901 11C88.3701 10 88.3501 9.52 88.1301 9.42C87.5034 9.14 85.1268 12.6667 81.0001 20C80.7201 19.17 80.4501 18.34 80.1701 17.52C77.9859 19.376 76.4804 21.9052 75.8901 24.71C75.3901 27.53 76.1301 30.25 75.6701 30.37C75.4601 30.42 75.0201 29.91 74.0201 27.37C72.9237 29.1711 72.407 31.2656 72.5401 33.37C72.7501 35.56 73.7701 37.37 73.4701 37.57C73.1701 37.77 71.6301 35.19 71.3401 35.34C71.0501 35.49 73.1601 41.06 76.2101 46.21C77.6106 48.8761 79.5887 51.1959 82.0001 53C82.4801 53.3 82.8901 53.56 83.1801 53.73Z" fill="#3E9581"/>
<path d="M83.1899 53.66C84.8099 53.06 86.5099 52.39 88.1099 51.66C89.7099 50.93 91.3099 50.08 92.8499 49.21C95.9317 47.4572 98.8324 45.4039 101.51 43.08L102.01 44.08C100.469 44.4951 98.9064 44.8288 97.3299 45.08H96.6699C96.5268 45.0914 96.383 45.0914 96.2399 45.08H96.0699C95.9833 45.0373 95.9026 44.9835 95.8299 44.92C95.7206 44.8086 95.6504 44.6647 95.6299 44.51C95.6089 44.3713 95.6262 44.2296 95.6799 44.1C95.7706 43.9257 95.9007 43.775 96.0599 43.66C96.151 43.5856 96.248 43.5187 96.3499 43.46L96.8699 43.13C97.5499 42.73 98.2099 42.34 98.8699 41.9C100.132 41.0563 101.276 40.0473 102.27 38.9C103.268 37.7588 104.127 36.5034 104.83 35.16L105.68 36.05L100.68 38.34L97.1799 39.94L99.9999 37.27C101.06 36.2807 102.015 35.1849 102.85 34C105.459 30.4407 106.724 26.0727 106.42 21.67L106.93 21.86L103.85 25L102.43 26.41L103.43 24.69C104.3 23.1668 104.762 21.4443 104.77 19.69C104.73 17.9227 104.223 16.1974 103.3 14.69H103.71L101.44 17.16L100.93 17.72V16.96C101.202 11.4923 100.069 6.04595 97.6399 1.14L98.4999 1.28L88.6799 11.45L87.1299 13.06L87.5099 10.84C87.5611 10.5725 87.5945 10.3019 87.6099 10.03C87.6171 9.94348 87.6171 9.85652 87.6099 9.77C87.6099 9.77 87.6099 9.82 87.7399 9.95C87.8131 10.0106 87.8983 10.0549 87.9899 10.08C88.0699 10.08 88.1899 10.08 88.1699 10.08C88.0403 10.1969 87.9168 10.3204 87.7999 10.45C87.6199 10.65 87.4499 10.88 87.2699 11.11C86.5899 12.05 85.9499 13.11 85.2699 14.11C84.0299 16.17 82.8499 18.28 81.6899 20.4L80.8599 22L80.2899 20.29L79.4599 17.82L80.7499 18.15C78.6084 19.9351 77.1552 22.4101 76.6399 25.15C76.4895 26.5727 76.4895 28.0073 76.6399 29.43C76.6399 29.62 76.6399 29.82 76.6399 30.07C76.6399 30.12 76.6399 30.22 76.6399 30.3V30.42C76.6188 30.4967 76.5886 30.5705 76.5499 30.64C76.5058 30.7308 76.4447 30.8122 76.3699 30.88C76.2563 30.992 76.1147 31.0715 75.9599 31.11C75.7199 31.1631 75.4686 31.12 75.2599 30.99C75.0126 30.817 74.8103 30.5872 74.6699 30.32C74.5499 30.14 74.4599 29.96 74.3599 29.79C74.0099 29.08 73.7199 28.39 73.4499 27.69L74.7799 27.78C74.053 28.9903 73.5737 30.333 73.3699 31.73C73.2177 33.1384 73.3817 34.563 73.8499 35.9C73.9599 36.26 74.0799 36.6 74.1799 37.01C74.2175 37.1341 74.2443 37.2613 74.2599 37.39V37.52C74.2691 37.5997 74.2691 37.6803 74.2599 37.76C74.2139 37.9048 74.1271 38.0333 74.0099 38.13C73.8789 38.2323 73.7161 38.2854 73.5499 38.28C73.4521 38.2811 73.3557 38.257 73.2699 38.21L72.9999 38.11L72.8099 38L72.5699 37.74C72.2999 37.42 72.0799 37.12 71.8499 36.81C71.6551 36.5259 71.4412 36.2553 71.2099 36C71.2746 36.0342 71.3467 36.052 71.4199 36.052C71.4931 36.052 71.5652 36.0342 71.6299 36C71.7084 35.9618 71.7717 35.8984 71.8099 35.82C71.8099 35.74 71.8099 35.77 71.8099 35.73C71.8121 35.7067 71.8121 35.6833 71.8099 35.66V35.71C71.8099 35.83 71.8699 36 71.9099 36.17C72.0099 36.5 72.1199 36.85 72.2399 37.17C72.4933 37.8367 72.7633 38.5267 73.0499 39.24C74.2062 41.9916 75.5425 44.664 77.0499 47.24C77.8401 48.5192 78.7618 49.7123 79.7999 50.8C80.8085 51.8886 81.947 52.8492 83.1899 53.66ZM83.1899 53.81C80.5289 52.2877 78.283 50.1345 76.6499 47.54C74.999 44.9997 73.5287 42.3465 72.2499 39.6C71.9299 38.91 71.6199 38.22 71.3299 37.51C71.1899 37.15 71.0499 36.79 70.9399 36.4C70.8738 36.1908 70.8236 35.9768 70.7899 35.76C70.7788 35.6837 70.7788 35.6063 70.7899 35.53C70.7784 35.4605 70.7784 35.3895 70.7899 35.32C70.803 35.2643 70.8232 35.2106 70.8499 35.16C70.9109 35.0691 70.989 34.9909 71.0799 34.93C71.1687 34.8931 71.2638 34.8742 71.3599 34.8742C71.456 34.8742 71.5512 34.8931 71.6399 34.93C71.6997 34.9536 71.7568 34.9838 71.8099 35.02C71.8832 35.0645 71.9504 35.1183 72.0099 35.18C72.2951 35.4708 72.5591 35.7816 72.7999 36.11C73.0299 36.41 73.2599 36.71 73.4799 36.95C73.4799 37.02 73.5899 37.06 73.6299 37.11H73.6799H73.6299H73.4799C73.3604 37.1069 73.2436 37.1458 73.1499 37.22C73.0624 37.2796 72.9986 37.3681 72.9699 37.47C72.961 37.5061 72.961 37.5439 72.9699 37.58C72.9699 37.58 72.9699 37.48 72.9699 37.4C72.8799 37.09 72.7499 36.72 72.6299 36.4C72.0698 34.8969 71.8512 33.288 71.9899 31.69C72.1319 30.0449 72.6155 28.4476 73.4099 27L74.1399 25.67L74.7499 27.09C75.0299 27.76 75.3099 28.43 75.6199 29.04C75.6999 29.19 75.7799 29.34 75.8599 29.47C75.9399 29.6 76.0799 29.73 75.9699 29.65C75.9059 29.6119 75.8348 29.5869 75.761 29.5766C75.6871 29.5663 75.612 29.5709 75.5399 29.59C75.4259 29.6047 75.3201 29.6576 75.2399 29.74L75.1299 29.88C75.1242 29.9064 75.1242 29.9336 75.1299 29.96C75.14 29.8068 75.14 29.6532 75.1299 29.5C74.97 27.9842 74.97 26.4558 75.1299 24.94C75.3601 23.3739 75.9043 21.8705 76.7299 20.52C77.5559 19.194 78.566 17.992 79.7299 16.95L80.6399 16.12L80.9999 17.27L81.8299 19.75L80.3899 19.61C81.5899 17.5 82.7999 15.39 84.0899 13.31C84.7399 12.31 85.4099 11.25 86.1599 10.24C86.3599 9.99 86.5499 9.74 86.7799 9.49C87.0422 9.15235 87.3864 8.8873 87.7799 8.72C87.9114 8.68893 88.0484 8.68893 88.1799 8.72C88.3489 8.73541 88.5093 8.80165 88.6399 8.91C88.8108 9.05916 88.9299 9.25876 88.9799 9.48C89.0121 9.69547 89.0121 9.91453 88.9799 10.13C88.9589 10.4659 88.9154 10.7999 88.8499 11.13L87.6799 10.52L97.6799 0.58L98.2899 0L98.5999 0.69C99.7474 3.24558 100.577 5.93233 101.07 8.69C101.551 11.4221 101.699 14.2024 101.51 16.97L101.04 16.77L103.33 14.33L103.56 14.08L103.74 14.37C104.685 15.9694 105.195 17.7877 105.222 19.6451C105.248 21.5024 104.789 23.3345 103.89 24.96L103.47 24.64L106.47 21.53L107 21L107.07 21.63C107.393 24.6794 106.996 27.7621 105.91 30.63C104.819 33.4866 103.112 36.0678 100.91 38.19L100.23 37.19L105.23 34.84L106.96 34.03L106 35.71C105.275 37.1585 104.361 38.5038 103.28 39.71C102.188 40.9181 100.944 41.9802 99.5799 42.87C98.9099 43.31 98.2099 43.71 97.5799 44.1L97.0899 44.39L96.8899 44.53C96.8899 44.53 96.7999 44.64 96.8899 44.53C96.9133 44.4449 96.9133 44.3551 96.8899 44.27C96.867 44.1623 96.811 44.0644 96.7299 43.99C96.6992 43.956 96.6617 43.9287 96.6199 43.91H96.7399H97.2599C98.7882 43.6823 100.304 43.3752 101.8 42.99L104.19 42.43L102.3 43.97C99.5046 46.244 96.4898 48.2338 93.2999 49.91C91.7052 50.7424 90.0661 51.4869 88.3899 52.14C86.6829 52.795 84.9401 53.3525 83.1699 53.81H83.1899Z" fill="#231F20"/>
<path d="M82.9297 53.29C86.1384 52.0088 89.1968 50.379 92.0497 48.43C94.156 46.9998 96.1456 45.4048 97.9997 43.66C94.3697 44.88 93.4797 44.95 93.3997 44.76C93.3197 44.57 95.2097 43.58 97.1297 41.76C98.6155 40.3324 99.8167 38.6357 100.67 36.76L96.6697 38.99C98.9814 36.6106 100.573 33.6256 101.26 30.38C101.582 28.7572 101.653 27.0944 101.47 25.45L98.9997 28.22C99.7252 26.8385 100.07 25.2889 99.9997 23.73C99.9216 22.3219 99.4656 20.9609 98.6797 19.79L96.8297 22C96.8893 19.9327 96.7081 17.8654 96.2897 15.84C95.8134 13.5032 95.0123 11.2446 93.9097 9.13C91.303 12.07 88.6664 15.0267 85.9997 18C86.1197 17.2 86.0897 16.78 85.9097 16.71C85.3897 16.5167 83.5397 19.57 80.3597 25.87L79.6297 23.87C77.8969 25.5241 76.7314 27.6837 76.2997 30.04C75.9597 32.38 76.6197 34.56 76.2997 34.68C76.1297 34.74 75.7597 34.35 74.8797 32.38C74.0337 33.903 73.6644 35.6448 73.8197 37.38C74.0397 39.16 74.9197 40.59 74.6797 40.75C74.4397 40.91 73.0997 39 72.8597 39.12C72.6197 39.24 74.4797 43.67 77.0897 47.68C78.313 49.7237 79.9938 51.4557 81.9997 52.74C82.3497 53 82.6897 53.17 82.9297 53.29Z" fill="#1E6F5D"/>
<path d="M83.1104 53.72C83.3504 50.39 83.7004 47.06 84.1804 43.72C84.6604 40.38 85.2903 37.12 86.0303 33.84C86.7047 30.5509 87.5864 27.3077 88.6703 24.13C89.2403 22.55 89.8403 20.98 90.5603 19.46C91.2803 17.94 92.0003 16.43 92.7703 15H92.9104C92.1204 18.28 91.0003 21.41 90.0903 24.61C89.1803 27.81 88.0904 30.94 87.1904 34.14C86.2904 37.34 85.5603 40.6 84.9203 43.86C84.2803 47.12 83.7004 50.42 83.2504 53.73L83.1104 53.72Z" fill="#231F20"/>
<path d="M83.7402 48.68C84.5799 47.8714 85.4755 47.1229 86.4202 46.44C87.3002 45.75 88.3302 45.25 89.2402 44.58C90.1636 43.9152 91.0422 43.1903 91.8702 42.41C92.2902 42.02 92.7002 41.62 93.1002 41.2L94.2602 39.91L94.3802 40C93.7851 41.0204 93.1167 41.9963 92.3802 42.92C91.642 43.8324 90.8471 44.6974 90.0002 45.51C89.1741 46.3663 88.2355 47.1064 87.2102 47.71C86.1531 48.2902 84.9964 48.6668 83.8002 48.82L83.7402 48.68Z" fill="#231F20"/>
<path d="M83.7598 48.59C82.6802 48.1853 81.6937 47.5662 80.8598 46.77C80.0691 45.9652 79.3958 45.0529 78.8598 44.06C77.648 42.1848 76.7149 40.1435 76.0898 38L76.2299 37.94C77.2181 39.885 78.4116 41.7188 79.7898 43.41C80.4798 44.25 81.2998 44.95 81.9498 45.8C82.6524 46.6563 83.2876 47.5657 83.8498 48.52L83.7598 48.59Z" fill="#231F20"/>
<path d="M84.6904 41.87C85.4655 41.0879 86.287 40.3532 87.1504 39.67C87.9704 38.99 88.9104 38.49 89.7404 37.81C91.4163 36.4204 92.8875 34.8011 94.1104 33L94.2404 33.07C93.3631 35.1352 92.1159 37.0228 90.5604 38.64C89.8323 39.5271 88.9682 40.2932 88.0004 40.91C87.0116 41.5025 85.9063 41.8743 84.7604 42L84.6904 41.87Z" fill="#231F20"/>
<path d="M84.6697 42C83.7954 41.5263 83.0266 40.8799 82.4097 40.1C81.8243 39.3119 81.3499 38.4471 80.9997 37.53C80.185 35.7826 79.5743 33.9472 79.1797 32.06L79.3197 32.01C79.7397 32.87 80.1397 33.72 80.6097 34.54C81.0489 35.3638 81.5296 36.1648 82.0497 36.94C82.5597 37.73 83.2097 38.41 83.6397 39.23C84.1136 40.0721 84.4926 40.9643 84.7697 41.89L84.6697 42Z" fill="#231F20"/>
<path d="M86.3398 33.37C86.8615 32.719 87.4478 32.1226 88.0898 31.59C88.6798 31.06 89.4098 30.73 90.0298 30.23C91.3068 29.2325 92.4377 28.0611 93.3898 26.75L93.5198 26.83C92.9082 28.4125 92.0022 29.8648 90.8498 31.11C90.3193 31.7949 89.6688 32.3777 88.9298 32.83C88.1594 33.2613 87.2928 33.4917 86.4099 33.5L86.3398 33.37Z" fill="#231F20"/>
<path d="M86.3104 33.48C85.5969 33.1855 84.9655 32.7223 84.4704 32.13C84.0275 31.524 83.6895 30.8479 83.4704 30.13C82.8649 28.8118 82.4217 27.425 82.1504 26L82.2904 25.95C82.9394 27.2167 83.671 28.4393 84.4804 29.61C84.9368 30.1416 85.3482 30.7103 85.7104 31.31C86.0587 31.9681 86.3017 32.6767 86.4304 33.41L86.3104 33.48Z" fill="#231F20"/>
<path d="M89.3496 24.35C89.6658 23.8144 90.0601 23.3291 90.5196 22.91C90.9688 22.5705 91.4435 22.2663 91.9396 22C92.8859 21.3047 93.7394 20.4915 94.4796 19.58L94.6096 19.65C94.2137 20.8389 93.5848 21.9369 92.7596 22.88C92.3926 23.4096 91.9149 23.8531 91.3596 24.18C90.7622 24.4869 90.0858 24.6055 89.4196 24.52L89.3496 24.35Z" fill="#231F20"/>
<path d="M89.33 24.47C88.7541 24.3312 88.2322 24.025 87.83 23.59C87.4875 23.1596 87.2388 22.6623 87.1 22.13C86.6882 21.1286 86.4156 20.0755 86.29 19L86.43 18.95C86.9556 19.8441 87.5298 20.7088 88.15 21.54C88.5068 21.9027 88.8159 22.3093 89.07 22.75C89.3091 23.2604 89.4353 23.8164 89.44 24.38L89.33 24.47Z" fill="#231F20"/>
<path d="M43.0896 63.2C43.6659 61.9695 44.102 60.678 44.3896 59.35C44.5966 58.3823 44.7204 57.3988 44.7596 56.41C44.0396 57.73 43.7596 58 43.7596 57.97C43.7596 57.94 43.9596 57.15 43.9996 56.11C44.0345 55.3089 43.9051 54.5092 43.6196 53.76L42.9996 55.48C42.9984 54.1758 42.6084 52.9015 41.8796 51.82C41.5043 51.2747 41.0453 50.7921 40.5196 50.39C40.5196 50.86 40.5696 51.39 40.5896 51.81C40.4017 51.2242 40.0556 50.7016 39.5896 50.3C39.1515 49.9242 38.625 49.6661 38.0596 49.55L38.1496 50.65C37.5683 50.0546 36.9208 49.5279 36.2196 49.08C35.3997 48.5541 34.5114 48.1435 33.5796 47.86C33.6596 49.4 33.7396 50.95 33.8096 52.49C33.6162 52.2433 33.4862 52.1333 33.4196 52.16C33.2096 52.25 33.5396 53.61 34.4196 56.23L33.6396 55.88C33.6054 56.8229 33.8831 57.7508 34.4296 58.52C34.9996 59.26 35.8196 59.69 35.7496 59.82C35.6796 59.95 35.4996 59.88 34.6696 59.57C34.8614 60.2398 35.2562 60.8338 35.7996 61.27C36.3796 61.7 37.0496 61.87 37.0296 61.97C37.0096 62.07 36.0296 61.89 36.0296 61.97C37.1955 62.5771 38.4516 62.9924 39.7496 63.2C40.6944 63.4432 41.6814 63.474 42.6396 63.29C42.8296 63.28 42.9996 63.23 43.0896 63.2Z" fill="#1E6F5D"/>
<path d="M42.9997 63.15C43.1497 62.64 43.3497 62.04 43.4897 61.49C43.6297 60.94 43.7397 60.36 43.8497 59.8C44.0521 58.6712 44.1558 57.5268 44.1597 56.38L45.2197 56.68C44.9846 57.1685 44.7208 57.6427 44.4297 58.1C44.3811 58.1735 44.3276 58.2436 44.2697 58.31C44.2142 58.372 44.1502 58.4258 44.0797 58.47L43.9697 58.53C43.8987 58.5675 43.82 58.588 43.7397 58.59C43.6033 58.5989 43.4675 58.5651 43.351 58.4935C43.2346 58.4218 43.1433 58.3158 43.0897 58.19C43.0357 58.0676 43.015 57.933 43.0297 57.8V57.65V57.43C43.0797 57.17 43.1297 56.94 43.1597 56.7C43.329 55.8005 43.2741 54.8732 42.9997 54H44.2697C44.0897 54.57 43.8797 55.14 43.6797 55.71L42.2997 59.71L42.4597 55.55C42.5059 54.6272 42.3489 53.7055 41.9997 52.85C41.6516 51.9924 41.107 51.2286 40.4097 50.62L40.8897 50.37V51.8V53.67L40.3797 51.89C40.2191 51.3524 39.9109 50.8707 39.4902 50.4995C39.0695 50.1283 38.5531 49.8825 37.9997 49.79L38.2897 49.54L38.4097 50.63L38.4897 51.36L37.9997 50.84C36.7357 49.6325 35.1773 48.7774 33.4797 48.36L34.1597 47.83C34.2497 48.6 34.2997 49.37 34.3697 50.14C34.4397 50.91 34.4997 51.69 34.5497 52.46L34.6897 54.65L33.3097 52.91L33.1797 52.76C33.2887 52.8137 33.4109 52.8346 33.5315 52.8204C33.6522 52.8063 33.7662 52.7575 33.8597 52.68C33.9243 52.6231 33.9784 52.5555 34.0197 52.48C34.1197 52.2 34.0197 52.37 34.0797 52.4V52.63C34.1597 52.98 34.2697 53.35 34.3797 53.72C34.6097 54.46 34.8697 55.21 35.1297 55.95L35.7297 57.64L34.1197 57L33.3297 56.66L34.4597 55.93C34.4219 56.7249 34.6584 57.5087 35.1297 58.15C35.4151 58.4814 35.7334 58.7829 36.0797 59.05L36.2797 59.23C36.2797 59.23 36.3397 59.3 36.3597 59.34V59.4L36.4397 59.57C36.4547 59.656 36.4547 59.744 36.4397 59.83C36.4374 59.9756 36.4032 60.119 36.3397 60.25C36.2873 60.3445 36.2157 60.4271 36.1297 60.4926C36.0436 60.558 35.9448 60.6048 35.8397 60.63C35.6699 60.6795 35.4895 60.6795 35.3197 60.63L35.0797 60.57C34.8239 60.497 34.5734 60.4068 34.3297 60.3L35.3297 59.38C35.4191 59.7732 35.5983 60.1403 35.8533 60.4526C36.1084 60.7649 36.4323 61.0139 36.7997 61.18L37.1597 61.36L37.3197 61.46H37.3797C37.4279 61.5092 37.4714 61.5628 37.5097 61.62C37.5774 61.7347 37.6087 61.8672 37.5997 62C37.5887 62.1504 37.525 62.292 37.4197 62.4C37.3629 62.4619 37.2951 62.5128 37.2197 62.55H37.0697H36.9497H36.7897C36.6489 62.5413 36.5087 62.5246 36.3697 62.5H36.0997H36.1597H36.2497C36.3205 62.4636 36.3829 62.4127 36.4329 62.3507C36.4828 62.2887 36.5192 62.2169 36.5397 62.14C36.5786 62.0266 36.5786 61.9034 36.5397 61.79C36.5218 61.7366 36.4909 61.6885 36.4497 61.65H36.5197L36.8097 61.8L37.4597 62.08C38.3606 62.4386 39.2823 62.7425 40.2197 62.99C41.1238 63.2445 42.0724 63.2991 42.9997 63.15ZM43.0997 63.26C42.1489 63.6422 41.1149 63.7697 40.0997 63.63C39.0861 63.5102 38.0832 63.3129 37.0997 63.04L36.3597 62.82L35.9997 62.67L35.7497 62.53L35.6397 62.44C35.6019 62.3896 35.5685 62.3361 35.5397 62.28C35.5063 62.1522 35.5063 62.0179 35.5397 61.89C35.5637 61.8054 35.6044 61.7264 35.6593 61.6577C35.7143 61.589 35.7824 61.532 35.8597 61.49L35.9897 61.44H36.1497C36.3028 61.4285 36.4566 61.4285 36.6097 61.44H36.9297H36.8297C36.7674 61.4713 36.7101 61.5118 36.6597 61.56C36.5674 61.6586 36.511 61.7854 36.4997 61.92C36.4992 62.0413 36.5266 62.161 36.5797 62.27C36.6079 62.311 36.6416 62.348 36.6797 62.38L36.3597 62.25C35.8089 62.0271 35.3138 61.6857 34.9097 61.25C34.5162 60.8295 34.2073 60.3372 33.9997 59.8L33.4997 58.4L34.9697 58.87C35.1897 58.94 35.4097 59.02 35.5997 59.07H35.7097C35.7097 59.07 35.7997 59.07 35.5397 59.07C35.3619 59.1263 35.2119 59.2478 35.1197 59.41C35.0527 59.5249 35.0213 59.6572 35.0297 59.79C35.0142 59.8592 35.0142 59.9309 35.0297 60C35.0413 60.0468 35.0617 60.0909 35.0897 60.13H35.0297C34.6175 59.8279 34.2387 59.4826 33.8997 59.1C33.1944 58.1796 32.8399 57.0381 32.8997 55.88V54.64L34.0097 55.15L34.7897 55.51L33.7197 56.51C33.4897 55.74 33.2497 54.97 33.0397 54.18C32.9397 53.79 32.8397 53.39 32.7597 52.95C32.7597 52.84 32.7597 52.73 32.7597 52.59C32.7219 52.3627 32.7533 52.1293 32.8497 51.92C32.8938 51.8181 32.9625 51.7288 33.0497 51.66C33.1603 51.5664 33.2959 51.5073 33.4397 51.49C33.613 51.4622 33.7905 51.4977 33.9397 51.59C34.0411 51.644 34.1325 51.715 34.2097 51.8C34.3002 51.8973 34.3838 52.0009 34.4597 52.11L33.2197 52.56C33.2197 51.78 33.2197 51.01 33.2197 50.24C33.2197 49.47 33.2197 48.69 33.2197 47.91V47.1L33.8997 47.35C35.6622 47.999 37.2408 49.0662 38.4997 50.46L38.0397 50.67L37.9797 49.57V49.25L38.2897 49.32C38.9125 49.4565 39.4897 49.7507 39.966 50.1745C40.4423 50.5983 40.8017 51.1374 41.0097 51.74L40.5197 51.83L40.3997 50.4V49.79L40.9397 50.15C41.7959 50.7448 42.5041 51.5283 43.0097 52.44C43.5106 53.3652 43.8009 54.3896 43.8597 55.44L42.6397 55.25C42.7997 54.67 42.9597 54.09 43.1397 53.52L43.7197 51.74L44.4097 53.49C44.8194 54.5637 44.93 55.7284 44.7297 56.86C44.7297 57.14 44.6197 57.41 44.5697 57.65V57.81C44.5697 57.81 44.5697 57.81 44.5697 57.6C44.5246 57.4986 44.4518 57.4119 44.3597 57.35C44.2517 57.284 44.1261 57.2525 43.9997 57.26C43.937 57.2476 43.8725 57.2476 43.8097 57.26H43.7397C43.7736 57.2373 43.8011 57.2063 43.8197 57.17C44.0797 56.83 44.3497 56.37 44.6097 55.94L45.5397 54L45.3297 56.45C45.2313 57.6552 44.9999 58.8457 44.6397 60C44.4553 60.5641 44.2417 61.1181 43.9997 61.66C43.7526 62.2136 43.4651 62.7484 43.1397 63.26H43.0997Z" fill="#231F20"/>
<path d="M63.1998 69C60.1998 66.66 54.6498 63.09 47.5198 63.9C44.1995 64.33 41.0272 65.5359 38.2598 67.42" stroke="#1E6F5D" stroke-width="3" stroke-miterlimit="10" stroke-linecap="round"/>
<path d="M42.0996 64.43C43.4805 66.3362 45.228 67.9477 47.2396 69.17C46.4296 67.9 46.3096 67.56 46.3796 67.51C46.4496 67.46 46.9996 68.07 47.8896 68.61C48.5754 69.0235 49.337 69.2955 50.1296 69.41L48.8896 68.1C50.0306 68.7276 51.3322 69.0026 52.6296 68.89C53.2917 68.824 53.9394 68.6553 54.5496 68.39L53.2596 67.76C53.8686 67.8769 54.498 67.825 55.0796 67.61C55.6183 67.4016 56.0938 67.0571 56.4596 66.61L55.4596 66.16C56.2623 65.9384 57.0373 65.6264 57.7696 65.23C58.619 64.7576 59.4052 64.1797 60.1096 63.51L55.9396 61.51C56.2529 61.47 56.4129 61.41 56.4196 61.33C56.4196 61.1 55.0996 60.74 52.3696 60.24L53.0596 59.72C52.2521 59.2337 51.3058 59.0297 50.3696 59.14C49.4396 59.28 48.6696 59.8 48.5796 59.67C48.4896 59.54 48.6596 59.42 49.3296 58.84C48.6601 58.6954 47.9625 58.7582 47.3296 59.02C46.6696 59.31 46.2096 59.83 46.1296 59.75C46.0496 59.67 46.6696 58.93 46.5996 58.85C45.4987 59.5708 44.5254 60.4697 43.7196 61.51C43.0374 62.2174 42.5216 63.0681 42.2096 64C42.1596 64.16 42.1196 64.32 42.0996 64.43Z" fill="#1E6F5D"/>
<path d="M43.3795 65.64C42.9695 65.25 42.5495 64.79 42.1695 64.41C42.4617 63.4722 42.9645 62.6136 43.6395 61.9C44.2732 61.226 44.9461 60.5901 45.6548 59.9956C45.6029 59.9326 45.5635 59.8595 45.5395 59.78C45.5223 59.6976 45.5223 59.6124 45.5395 59.53C45.5347 59.4801 45.5347 59.4299 45.5395 59.38V59.26C45.5567 59.2105 45.5802 59.1634 45.6095 59.12C45.6995 58.98 45.7795 58.88 45.8495 58.78L46.0095 58.55V58.62V58.71C46.0038 58.851 46.0525 58.9888 46.1456 59.0949C46.2387 59.201 46.369 59.2673 46.5095 59.28C46.5356 59.2851 46.5621 59.2876 46.5886 59.2877L46.5995 59.28H46.6695C46.6428 59.2852 46.6157 59.2878 46.5886 59.2877L46.3295 59.47C46.1395 59.6 45.9495 59.75 45.7695 59.9C45.7312 59.9318 45.693 59.9636 45.6548 59.9956C45.6982 60.0483 45.7504 60.0938 45.8095 60.13C45.9245 60.1979 46.056 60.2326 46.1895 60.23C46.2527 60.2372 46.3164 60.2372 46.3795 60.23H46.4595L46.6295 60.13L46.9595 59.91C47.2317 59.7056 47.5408 59.5569 47.8691 59.4719C47.8737 59.4376 47.8805 59.4036 47.8895 59.37C47.9277 59.1982 48.0105 59.0396 48.1295 58.91L48.2995 58.73C48.4891 58.5419 48.6895 58.365 48.8995 58.2L49.2395 59.49C48.8529 59.3789 48.4458 59.3589 48.0501 59.4318C47.9892 59.443 47.9289 59.4564 47.8691 59.4719C47.8596 59.5439 47.86 59.6171 47.8704 59.6893C47.8859 59.7959 47.923 59.8983 47.9795 59.99C48.0611 60.1112 48.1709 60.2107 48.2995 60.28C48.3772 60.322 48.4619 60.3491 48.5495 60.36C48.6125 60.3699 48.6766 60.3699 48.7395 60.36H48.8195H48.9495L49.2095 60.28C49.6095 60.0992 50.0289 59.965 50.4595 59.88C50.806 59.835 51.1547 59.8428 51.4943 59.9009L51.9495 59.55L52.6295 59.02L52.7195 60.36C52.3412 60.1292 51.9251 59.9746 51.4943 59.9009L50.5095 60.66L52.2795 60.95L52.2797 60.95C52.7663 61.0311 53.2529 61.1122 53.7347 61.2006L53.6695 61.17L55.8595 60.8C55.9283 60.793 55.9956 60.7762 56.0595 60.75C55.9545 60.8158 55.8737 60.9141 55.8295 61.03C55.8011 61.1483 55.8011 61.2717 55.8295 61.39C55.8433 61.4721 55.8739 61.5504 55.9195 61.62C56.1295 61.84 56.0095 61.7 55.9195 61.71L55.6995 61.64C55.3377 61.5313 54.9706 61.4412 54.5995 61.37C54.3137 61.3098 54.0251 61.2539 53.7347 61.2006L55.6695 62.11L57.7895 63.11C58.2692 63.3194 58.7443 63.538 59.224 63.7472C59.416 63.5691 59.6013 63.3833 59.7795 63.19L59.9195 64.04C59.6859 63.9459 59.4544 63.8476 59.224 63.7472C58.1398 64.7528 56.8448 65.5096 55.4295 65.96L54.7095 66.18L55.3895 66.47L56.0846 66.7619C56.1637 66.6857 56.2388 66.605 56.3095 66.52L56.3895 66.89L56.0846 66.7619C55.7638 67.071 55.3772 67.3057 54.952 67.4474C54.4219 67.6241 53.8531 67.6492 53.3095 67.52L51.4995 67.1L53.1495 68L53.7296 68.281C53.9664 68.2253 54.2002 68.1549 54.4295 68.07V68.62L53.7296 68.281C53.0699 68.4361 52.3865 68.477 51.7095 68.4C50.8134 68.2827 49.9517 67.9796 49.1795 67.51L45.6095 65.37L47.751 67.7393C48.4881 68.2552 49.3377 68.588 50.2295 68.71L49.6495 69.83C49.2295 69.4 48.8395 68.94 48.4295 68.49L47.751 67.7393C47.7372 67.7296 47.7233 67.7199 47.7095 67.71L47.1395 67.24L46.9595 67.1L46.8395 67.02C46.7279 66.9398 46.5965 66.8914 46.4595 66.88C46.3355 66.8714 46.2113 66.8956 46.0995 66.95C45.9697 67.0149 45.8644 67.1202 45.7995 67.25C45.7725 67.3281 45.7524 67.4084 45.7395 67.49V67.5616C46.3189 67.9692 46.9197 68.3459 47.5395 68.69L46.7695 69.48C46.4523 69.0377 46.1618 68.5769 45.8995 68.1C45.8995 68.03 45.8295 67.95 45.7995 67.86C45.7723 67.782 45.7522 67.7017 45.7395 67.62V67.5616C45.3811 67.3094 45.0309 67.0454 44.6895 66.77C44.2495 66.41 43.7895 66.03 43.3795 65.64Z" fill="#231F20"/>
<path d="M61.0002 55.65C59.7502 53.12 55.2502 43.31 59.4102 33.65C59.9874 31.7869 61.0183 30.0963 62.4102 28.73C63.7522 27.5435 65.3961 26.751 67.1602 26.44C71.4502 25.77 77.1602 30.44 80.3502 38.44" stroke="#1E6F5D" stroke-width="3" stroke-miterlimit="10" stroke-linecap="round"/>
<path d="M21.2996 38.49C22.0096 42.09 22.7396 45.81 25.8696 47.98C29.3996 50.43 33.8696 49.47 37.5396 48.7C51.7596 45.7 58.0096 33.14 58.9096 30.19C59.0876 29.5954 59.1884 28.9803 59.2096 28.36C59.2096 27.36 59.0096 24.97 55.8296 21.67C55.0896 20.9 52.4196 18.24 45.3696 15.24C39.5296 12.75 36.5396 11.53 32.8396 12.24C30.4646 12.7497 28.275 13.9016 26.5096 15.57C23.9996 18 23.2696 20.68 22.2296 24.93C21.2696 28.83 20.2396 33.06 21.2996 38.49Z" fill="#ED1B36"/>
<path d="M21.3804 38.48C21.8704 40.88 22.3804 43.38 23.7204 45.41C24.3795 46.4119 25.2538 47.254 26.2797 47.8751C27.3056 48.4961 28.4571 48.8805 29.6504 49C32.0593 49.1198 34.4721 48.86 36.8004 48.23C37.4104 48.11 37.9804 47.93 38.5604 47.78C39.1404 47.63 39.7504 47.51 40.3104 47.29L42.0104 46.68C42.5804 46.48 43.1204 46.2 43.6704 45.96C48.1515 43.9219 52.0478 40.7891 55.0004 36.85C56.4929 34.9054 57.6924 32.7525 58.5604 30.46C58.9895 29.3495 59.0594 28.1324 58.7604 26.98C58.4302 25.8347 57.88 24.7647 57.1404 23.83C56.4048 22.8746 55.5701 21.9997 54.6504 21.22C53.6983 20.4599 52.696 19.765 51.6504 19.14C49.5493 17.9012 47.3601 16.8182 45.1004 15.9C40.5804 14.1 35.9004 11.7 31.4404 13.5C29.2323 14.2663 27.2822 15.6344 25.8104 17.45C24.4714 19.4379 23.5182 21.6598 23.0004 24C22.2472 26.3426 21.6591 28.7352 21.2404 31.16C20.8752 33.5905 20.9225 36.0652 21.3804 38.48ZM21.2304 38.48C20.7524 36.0375 20.6078 33.5414 20.8004 31.06C21.0496 28.5944 21.4504 26.1464 22.0004 23.73C22.3575 21.1849 23.2578 18.7465 24.6404 16.58C26.248 14.4795 28.429 12.8889 30.9204 12C32.1667 11.5536 33.4768 11.3105 34.8004 11.28C36.1152 11.2708 37.4237 11.4631 38.6804 11.85C41.0649 12.6343 43.4022 13.5559 45.6804 14.61C47.9873 15.5988 50.2054 16.7831 52.3104 18.15C54.473 19.4915 56.3352 21.2652 57.7804 23.36C58.533 24.4048 59.0732 25.5871 59.3704 26.84C59.624 28.1123 59.5095 29.4305 59.0404 30.64C58.0975 32.9566 56.8643 35.1441 55.3704 37.15C53.9003 39.1833 52.2248 41.0599 50.3704 42.75C48.5158 44.4305 46.448 45.8594 44.2204 47C41.9619 48.1415 39.5555 48.9627 37.0704 49.44C34.6003 50.0627 32.0332 50.2019 29.5104 49.85C28.2397 49.6339 27.0323 49.1401 25.9745 48.4037C24.9166 47.6673 24.0342 46.7066 23.3904 45.59C22.2977 43.3602 21.5685 40.97 21.2304 38.51V38.48Z" fill="#231F20"/>
<path d="M24.6105 37.7C25.2505 40.83 25.9105 44.06 28.7105 45.96C31.8605 48.1 35.8805 47.27 39.1005 46.61C43.3303 45.6903 47.2717 43.7522 50.5828 40.964C53.8938 38.1757 56.4743 34.6216 58.1005 30.61C58.2578 30.0875 58.342 29.5456 58.3505 29C58.3505 28.1 58.1605 26.06 55.3505 23.18C54.6905 22.51 52.3505 20.18 46.0105 17.56C40.8105 15.39 38.1405 14.32 34.8505 14.96C32.7452 15.3882 30.7958 16.3802 29.2105 17.83C26.9505 19.91 26.3405 22.23 25.4305 25.92C24.5605 29.31 23.6405 33 24.6105 37.7Z" fill="#ED2A43"/>
<path d="M43.24 15.11C42.1139 15.3105 41.0554 15.7882 40.16 16.5C39.2596 17.2339 38.5696 18.193 38.16 19.28L44.16 17.09C44.7759 18.0429 45.5665 18.8708 46.49 19.53C47.3443 20.1392 48.2939 20.6022 49.3 20.9C46.63 17.28 46.18 16.27 46.37 16.12C46.56 15.97 47.88 17.29 50.37 18.03C50.9499 18.1952 51.5416 18.3156 52.14 18.39C51.6983 17.7112 51.1515 17.107 50.52 16.6C49.4349 15.7549 48.1502 15.2038 46.79 15C48.8316 15.1505 50.8694 14.6612 52.62 13.6C50.8291 12.9215 48.8938 12.7149 47 13C46.3185 13.1151 45.6491 13.2925 45 13.53C44.4802 12.6442 43.8023 11.8613 43 11.22C41.9456 10.4063 40.7223 9.83912 39.42 9.56C39.685 10.3891 40.0836 11.1693 40.6 11.87C41.1323 12.5883 41.7733 13.2192 42.5 13.74C39.8918 12.5985 36.9542 12.4597 34.25 13.35C35.429 13.903 36.6623 14.332 37.93 14.63C39.668 15.0425 41.4562 15.2042 43.24 15.11Z" fill="#009444"/>
<path d="M43.31 15.1C43.2752 15.1539 43.2218 15.1931 43.16 15.21H43.05L42.85 15.28L42.45 15.42C42.1892 15.5237 41.9354 15.644 41.69 15.78C41.1966 16.0504 40.7424 16.3869 40.34 16.78C39.5363 17.5084 38.9337 18.4313 38.59 19.46L37.99 18.86C39.94 18.05 41.91 17.27 43.88 16.51L44.35 16.33L44.64 16.76C45.7987 18.4567 47.5031 19.7059 49.47 20.3L48.78 21.3C48.2 20.48 47.65 19.64 47.12 18.78C46.85 18.35 46.59 17.92 46.34 17.46C46.22 17.23 46.11 17 46 16.73C45.9168 16.5276 45.8892 16.3067 45.92 16.09C45.92 16.01 46.06 15.78 46.21 15.75C46.3231 15.7096 46.4468 15.7096 46.56 15.75C46.6615 15.7771 46.759 15.8175 46.85 15.87C47.6481 16.4571 48.4944 16.9756 49.38 17.42C50.2746 17.7951 51.2114 18.0604 52.17 18.21L51.95 18.57C51.3748 17.6822 50.6085 16.9341 49.7071 16.3804C48.8057 15.8268 47.7919 15.4816 46.74 15.37L46.81 14.75C48.7706 14.829 50.706 14.2865 52.34 13.2L52.43 14.2C51.2592 13.813 50.033 13.6205 48.8 13.63C47.5813 13.6425 46.375 13.8763 45.24 14.32L44.69 14.54L44.38 14.02C43.8006 13.1095 43.0431 12.3256 42.1529 11.7155C41.2626 11.1054 40.2582 10.6817 39.2 10.47L40.13 9.47C40.6389 10.9895 41.6023 12.316 42.89 13.27L48.62 17.52L42.14 14.59C40.9359 14.043 39.6475 13.7048 38.33 13.59C36.9981 13.4924 35.6596 13.6381 34.38 14.02L34.44 13.02C35.7832 13.7185 37.2072 14.2491 38.68 14.6C39.4208 14.7851 40.1722 14.9253 40.93 15.02C41.31 15.07 41.69 15.11 42.08 15.13H42.66H43C43.1005 15.1005 43.2057 15.0903 43.31 15.1ZM43.17 15.1C43.05 15.1 43.04 15.21 42.95 15.2H42.66L42.08 15.25C41.69 15.25 41.29 15.25 40.9 15.25C40.1105 15.2428 39.3223 15.186 38.54 15.08C36.9839 14.8641 35.4595 14.4611 34 13.88L32.71 13.34L34.06 12.84C36.8973 11.8117 40.0179 11.8902 42.8 13.06L42 14.39C40.4021 13.2812 39.2114 11.6796 38.61 9.83L38.19 8.53L39.53 8.8C40.7926 9.06614 41.9858 9.59325 43.0328 10.3475C44.0798 11.1018 44.9577 12.0666 45.61 13.18L44.74 12.88C46.0423 12.4048 47.4246 12.1874 48.81 12.24C50.1828 12.2867 51.5367 12.5744 52.81 13.09L53.86 13.52L52.86 14.05C50.9974 15.0978 48.8555 15.5416 46.73 15.32L46.8 14.69C47.9357 14.8852 49.0226 15.2996 50 15.91C50.95 16.5169 51.7611 17.3177 52.38 18.26L52.7 18.73L52.16 18.62C51.1383 18.4816 50.1332 18.2404 49.16 17.9C48.2318 17.5228 47.3355 17.0713 46.48 16.55C46.48 16.55 46.39 16.55 46.42 16.55C46.45 16.55 46.42 16.55 46.58 16.55L46.71 16.45C46.71 16.39 46.71 16.35 46.77 16.34C46.83 16.33 46.77 16.34 46.84 16.42C46.91 16.5 47.06 16.81 47.18 17.01C47.44 17.42 47.73 17.82 48.02 18.21L49.82 20.56L50.93 22L49.12 21.54C46.8143 20.9443 44.8246 19.4878 43.56 17.47L44.32 17.72C42.32 18.42 40.32 19.1 38.32 19.72L37.32 20.03L37.7 19.13C38.1843 17.9832 38.9813 16.9956 40 16.28C40.4854 15.9343 41.013 15.652 41.57 15.44C41.8424 15.3306 42.1234 15.2437 42.41 15.18L42.84 15.09H43.06H43.16C43.16 15.09 43.12 15.11 43.17 15.12V15.1Z" fill="#231F20"/>
<path d="M23.8399 29.1C23.3899 29.1 21.9899 33.51 22.6099 38.29C22.8138 40.9665 23.8368 43.5153 25.5399 45.59C26.5399 46.7 28.1899 48.2 28.6699 47.89C29.3699 47.42 25.9399 44.01 25.2599 38.22C24.9399 35.58 24.4699 32.96 24.1399 30.32C24.0499 29.61 23.9999 29.12 23.8399 29.1Z" fill="white"/>
<path d="M31.3004 20.69C31.7404 21.02 34.4304 19.01 34.1004 18.08C34.021 17.9382 33.9047 17.8206 33.7638 17.7397C33.623 17.6587 33.4629 17.6173 33.3004 17.62C32.0004 17.6 30.8904 20.37 31.3004 20.69Z" fill="#FFDE17"/>
<path d="M33.3501 25.41C33.7801 25.74 36.4301 23.76 36.1101 22.85C36.0307 22.7083 35.9144 22.5907 35.7736 22.5097C35.6327 22.4287 35.4726 22.3873 35.3101 22.39C34.0001 22.37 32.9401 25.1 33.3501 25.41Z" fill="#FFDE17"/>
<path d="M47.47 25.52C47.9 25.85 50.55 23.87 50.22 22.95C50.1418 22.8102 50.0268 22.6944 49.8876 22.6151C49.7484 22.5358 49.5902 22.496 49.43 22.5C48.16 22.48 47.06 25.21 47.47 25.52Z" fill="#FFDE17"/>
<path d="M51.8001 31.32C52.2301 31.65 54.8801 29.67 54.5501 28.76C54.4736 28.6187 54.359 28.5016 54.2194 28.4221C54.0798 28.3425 53.9207 28.3037 53.7601 28.31C52.4901 28.28 51.3901 31 51.8001 31.32Z" fill="#FFDE17"/>
<path d="M41.2799 28.33C41.7099 28.66 44.3599 26.68 44.0299 25.77C43.9534 25.6287 43.8389 25.5116 43.6993 25.4321C43.5596 25.3525 43.4005 25.3137 43.2399 25.32C41.9999 25.29 40.8699 28 41.2799 28.33Z" fill="#FFDE17"/>
<path d="M44 34.94C44.43 35.27 47.08 33.29 46.75 32.38C46.6744 32.2379 46.5601 32.1202 46.4202 32.0405C46.2804 31.9608 46.1208 31.9225 45.96 31.93C44.65 31.9 43.55 34.63 44 34.94Z" fill="#FFDE17"/>
<path d="M34.5598 31.85C34.9898 32.18 37.6398 30.2 37.3098 29.29C37.2334 29.1487 37.1188 29.0316 36.9792 28.9521C36.8395 28.8725 36.6804 28.8337 36.5198 28.84C35.2498 28.81 34.1498 31.54 34.5598 31.85Z" fill="#FFDE17"/>
<path d="M26.2395 32.43C26.6695 32.76 29.3195 30.79 28.9895 29.87C28.9113 29.7302 28.7964 29.6144 28.6572 29.5351C28.5179 29.4558 28.3597 29.416 28.1995 29.42C26.9295 29.4 25.8295 32.12 26.2395 32.43Z" fill="#FFDE17"/>
<path d="M36.5801 38C37.0101 38.33 39.6601 36.36 39.3401 35.44C39.2594 35.3001 39.1426 35.1845 39.0018 35.1054C38.861 35.0262 38.7016 34.9863 38.5401 34.99C37.2701 35 36.1801 37.73 36.5801 38Z" fill="#FFDE17"/>
<path d="M29 38.86C29.43 39.18 32.08 37.21 31.76 36.29C31.6793 36.1501 31.5625 36.0345 31.4217 35.9554C31.281 35.8762 31.1215 35.8363 30.96 35.84C29.69 35.82 28.6 38.55 29 38.86Z" fill="#FFDE17"/>
<path d="M38.7903 45C39.2203 45.33 41.8703 43.35 41.5403 42.44C41.4638 42.2987 41.3493 42.1816 41.2096 42.1021C41.07 42.0225 40.9109 41.9837 40.7503 41.99C39.4803 42 38.3803 44.72 38.7903 45Z" fill="#FFDE17"/>
<path d="M29.7202 46.9C30.1502 47.23 32.8102 45.25 32.4802 44.34C32.4028 44.1994 32.2881 44.083 32.1487 44.0036C32.0092 43.9242 31.8506 43.8849 31.6902 43.89C30.4202 43.86 29.3202 46.59 29.7202 46.9Z" fill="#FFDE17"/>
<path d="M23.3098 87C24.3098 90.17 25.3598 93.44 28.3098 95C31.6498 96.8 35.4498 95.42 38.5098 94.3C50.5098 89.92 54.5098 77.9 54.9898 75.14C55.0793 74.5813 55.0995 74.0137 55.0498 73.45C54.9498 72.45 54.4998 70.45 51.3798 67.8C50.6598 67.19 48.0498 65.09 41.5898 63.2C36.2598 61.63 33.5298 60.86 30.4098 61.97C28.3894 62.7128 26.6162 64.0046 25.2898 65.7C23.3498 68.16 23.0398 70.7 22.6098 74.61C22.2098 78.27 21.7798 82.21 23.3098 87Z" fill="#ED1B36"/>
<path d="M23.3803 87C23.9179 89.1269 24.8545 91.1325 26.1403 92.91C26.8061 93.7336 27.6538 94.3916 28.6168 94.8323C29.5797 95.273 30.6318 95.4845 31.6903 95.45C33.8247 95.2698 35.9154 94.7429 37.8803 93.89C39.8953 93.1434 41.8205 92.174 43.6203 91C47.2736 88.6082 50.2766 85.3475 52.3603 81.51C53.419 79.597 54.2002 77.5431 54.6803 75.41C54.9077 74.3756 54.8242 73.2971 54.4403 72.31C54.027 71.3343 53.4333 70.4455 52.6903 69.69C51.9554 68.9155 51.1371 68.2246 50.2503 67.63C49.3436 67.0521 48.398 66.5375 47.4203 66.09C45.4381 65.2075 43.3924 64.4754 41.3003 63.9C39.2358 63.2537 37.1313 62.7426 35.0003 62.37C34.0035 62.2357 32.9921 62.2526 32.0003 62.42C31.0034 62.6204 30.0447 62.9782 29.1603 63.48C27.353 64.4853 25.8687 65.9835 24.8803 67.8C24.0178 69.749 23.4645 71.8205 23.2403 73.94C22.8485 76.1009 22.6046 78.286 22.5103 80.48C22.4364 82.6866 22.7304 84.89 23.3803 87ZM23.2303 87C22.5459 84.891 22.1325 82.7034 22.0003 80.49C21.9166 78.2686 21.9734 76.0442 22.1703 73.83C22.1862 71.5392 22.6375 69.2722 23.5003 67.15C24.5587 65.0281 26.222 63.2674 28.2803 62.09C30.354 60.8737 32.789 60.4242 35.1603 60.82C37.3652 61.2436 39.5398 61.8115 41.6703 62.52C43.8305 63.1567 45.929 63.9867 47.9403 65C49.9984 65.9877 51.8274 67.3944 53.3103 69.13C54.0738 69.9929 54.6645 70.9944 55.0503 72.08C55.3984 73.1839 55.4502 74.3599 55.2003 75.49C54.6439 77.6539 53.835 79.745 52.7903 81.72C51.7755 83.7066 50.5734 85.5918 49.2003 87.35C47.7761 89.0959 46.1402 90.6579 44.3303 92C42.4921 93.3229 40.4709 94.3706 38.3303 95.11C36.2157 95.9789 33.9462 96.4077 31.6603 96.37C30.5055 96.3118 29.3794 95.9894 28.3687 95.4277C27.358 94.866 26.4896 94.0799 25.8303 93.13C24.6627 91.2278 23.7863 89.1616 23.2303 87Z" fill="#231F20"/>
<path d="M26.0895 85.9C26.9895 88.64 27.9195 91.48 30.5495 92.9C33.5495 94.47 36.9095 93.27 39.6295 92.3C50.3195 88.46 53.9195 78 54.3295 75.63C54.4012 75.1434 54.418 74.6503 54.3795 74.16C54.2895 73.35 53.8895 71.53 51.1095 69.26C50.4595 68.73 48.1095 66.91 42.3895 65.26C37.6295 63.9 35.1995 63.26 32.3895 64.2C30.598 64.8408 29.0171 65.9616 27.8195 67.44C26.0895 69.57 25.8195 71.74 25.4295 75.18C25.1095 78.32 24.7295 81.75 26.0895 85.9Z" fill="#ED2A43"/>
<path d="M39.7402 63.36C38.7715 63.6773 37.9027 64.2428 37.2202 65C36.5162 65.7716 36.0236 66.712 35.7902 67.73L40.7002 65C41.9306 66.5298 43.6895 67.5431 45.6302 67.84C42.9202 64.89 42.4202 64.03 42.5602 63.84C42.7002 63.65 44.0002 64.72 46.2502 65.1C46.7697 65.1801 47.2946 65.2202 47.8202 65.22C47.3698 64.6608 46.829 64.1808 46.2202 63.8C45.1897 63.1677 44.009 62.8224 42.8002 62.8C43.9798 62.7315 45.1316 62.4145 46.1802 61.87C46.7226 61.5944 47.2324 61.2589 47.7002 60.87C46.0522 60.463 44.3249 60.5079 42.7002 61C42.1242 61.1798 41.568 61.4177 41.0402 61.71C40.4976 60.9687 39.8188 60.3375 39.0402 59.85C38.0462 59.2387 36.9229 58.8689 35.7602 58.77C36.0784 59.4821 36.5107 60.1373 37.0402 60.71C37.5744 61.2983 38.1989 61.7979 38.8902 62.19C37.6912 61.8171 36.4305 61.6846 35.1802 61.8C33.9664 61.9049 32.7845 62.2445 31.7002 62.8C32.78 63.1648 33.8968 63.4096 35.0302 63.53C36.6001 63.7029 38.1868 63.6457 39.7402 63.36Z" fill="#009444"/>
<path d="M39.81 63.34C39.782 63.394 39.736 63.4364 39.68 63.46H39.59L39.42 63.54L39.09 63.72C38.8742 63.846 38.6671 63.9863 38.47 64.14C38.0943 64.428 37.7581 64.7643 37.47 65.14C36.8745 65.8937 36.4758 66.7838 36.31 67.73L35.61 67.2C37.21 66.2 38.83 65.32 40.45 64.4L40.9 64.14L41.25 64.56C42.411 65.9297 44.0127 66.8525 45.78 67.17L45.21 68.23C44.62 67.57 44.06 66.87 43.51 66.17C43.24 65.81 42.97 65.45 42.71 65.07C42.5742 64.8745 42.4507 64.6707 42.34 64.46C42.2609 64.3159 42.2036 64.1609 42.17 64C42.1532 63.904 42.1532 63.8059 42.17 63.71C42.2001 63.6346 42.2474 63.5673 42.3082 63.5134C42.369 63.4596 42.4415 63.4207 42.52 63.4C42.6055 63.3796 42.6945 63.3796 42.78 63.4H42.91C43.42 63.62 43.72 63.84 44.13 64.03C44.5097 64.2272 44.9042 64.3944 45.31 64.53C46.1321 64.7739 46.9828 64.9084 47.84 64.93L47.66 65.31C47.0826 64.5851 46.3451 64.0038 45.5054 63.6117C44.6656 63.2196 43.7465 63.0273 42.82 63.05V62.41C44.5212 62.2615 46.1267 61.5589 47.39 60.41L47.62 61.36C46.5693 61.1505 45.4908 61.1201 44.43 61.27C43.3769 61.4157 42.3599 61.7547 41.43 62.27L40.9 62.57L40.51 62.07C39.929 61.3329 39.2017 60.724 38.3739 60.2817C37.5461 59.8394 36.6357 59.5732 35.7 59.5L36.5 58.37C37.0924 59.6577 38.0619 60.7352 39.28 61.46L45.23 64.94L38.67 63C37.5831 62.6469 36.4418 62.4911 35.3 62.54C34.1443 62.5961 33.0103 62.8745 31.96 63.36L31.88 62.36C33.109 62.8547 34.396 63.1907 35.71 63.36C36.3739 63.4385 37.0415 63.4819 37.71 63.49C38.04 63.49 38.38 63.49 38.71 63.49H39.22H39.47C39.5692 63.4126 39.686 63.3611 39.81 63.34ZM39.67 63.34C39.56 63.4 39.58 63.46 39.5 63.47L39.26 63.53L38.75 63.64C38.42 63.71 38.08 63.77 37.75 63.81C37.064 63.9031 36.3722 63.9465 35.68 63.94C34.2798 63.9117 32.8888 63.7067 31.54 63.33L30.25 63L31.46 62.34C33.8097 61.0709 36.5632 60.7729 39.13 61.51L38.52 62.91C36.9626 62.0764 35.7249 60.7508 35 59.14L34.45 57.92L35.8 58.02C36.9497 58.1219 38.0641 58.4692 39.0681 59.0384C40.0721 59.6077 40.9423 60.3857 41.62 61.32L40.7 61.12C41.7827 60.5415 42.9685 60.1813 44.19 60.06C45.3995 59.9498 46.6189 60.0582 47.79 60.38L48.85 60.67L48.01 61.33C46.5021 62.4754 44.6729 63.1189 42.78 63.17V62.53C43.7823 62.5883 44.7623 62.8503 45.66 63.3C46.5646 63.7358 47.3632 64.3637 48 65.14L48.36 65.56H47.82C46.9142 65.554 46.0119 65.4467 45.13 65.24C44.6888 65.1257 44.2547 64.9854 43.83 64.82C43.42 64.67 42.96 64.44 42.64 64.34H42.71C42.7634 64.3258 42.8129 64.2994 42.8545 64.263C42.8961 64.2266 42.9288 64.1811 42.95 64.13C43 64 43 64 43 64C43 64 43 64.08 43.09 64.14C43.2001 64.3103 43.3204 64.474 43.45 64.63C43.72 64.95 44.01 65.28 44.31 65.63L46.13 67.52L47.37 68.8L45.56 68.58C43.4507 68.2988 41.5364 67.1997 40.23 65.52L41.04 65.68C39.39 66.54 37.72 67.38 36.04 68.19L35.04 68.66L35.31 67.66C35.5984 66.5689 36.1833 65.5789 37 64.8C37.3827 64.4237 37.8171 64.1038 38.29 63.85C38.5176 63.7186 38.755 63.6049 39 63.51L39.38 63.38L39.56 63.33H39.65C39.65 63.33 39.62 63.37 39.67 63.37V63.34Z" fill="#231F20"/>
<path d="M24.47 78.22C24.07 78.22 23.35 82.41 24.41 86.65C24.8716 89.0232 26.0393 91.2017 27.76 92.9C28.76 93.8 30.35 94.96 30.76 94.62C31.32 94.12 27.97 91.43 26.76 86.29C26.2 83.94 25.5 81.63 24.92 79.29C24.7 78.66 24.6 78.22 24.47 78.22Z" fill="white"/>
<path d="M30.0004 69.77C30.4204 70.02 32.5304 67.89 32.1404 67.09C32.0579 66.9718 31.9439 66.8791 31.8113 66.8226C31.6787 66.766 31.5329 66.7478 31.3904 66.77C30.2704 66.9 29.6104 69.53 30.0004 69.77Z" fill="#FFDE17"/>
<path d="M32.2995 73.79C32.7095 74.04 34.7895 71.95 34.4095 71.16C34.3278 71.0435 34.2154 70.9519 34.0848 70.8954C33.9541 70.8389 33.8104 70.8197 33.6695 70.84C32.5695 71 31.9195 73.56 32.2995 73.79Z" fill="#FFDE17"/>
<path d="M44.5495 72.26C44.9595 72.51 47.0395 70.42 46.6595 69.63C46.5782 69.5136 46.4655 69.4226 46.3345 69.3677C46.2035 69.3128 46.0596 69.2963 45.9195 69.32C44.8195 69.44 44.1695 72 44.5495 72.26Z" fill="#FFDE17"/>
<path d="M48.9996 77C49.4096 77.25 51.4896 75.16 51.1096 74.37C51.0275 74.2544 50.9147 74.1642 50.7839 74.1094C50.6531 74.0546 50.5096 74.0375 50.3696 74.06C49.2196 74.18 48.5596 76.77 48.9996 77Z" fill="#FFDE17"/>
<path d="M39.4996 75.52C39.9096 75.76 41.9896 73.67 41.5996 72.89C41.5211 72.7726 41.4107 72.68 41.2814 72.6233C41.152 72.5666 41.0091 72.5481 40.8696 72.57C39.7596 72.69 39.1096 75.28 39.4996 75.52Z" fill="#FFDE17"/>
<path d="M42.5602 81.17C42.9702 81.42 45.0502 79.33 44.6602 78.54C44.5789 78.4236 44.4662 78.3326 44.3352 78.2777C44.2041 78.2228 44.0603 78.2063 43.9202 78.23C42.8202 78.35 42.1702 80.94 42.5602 81.17Z" fill="#FFDE17"/>
<path d="M34.0603 79.47C34.4703 79.71 36.5503 77.62 36.1703 76.84C36.0894 76.7226 35.9771 76.6304 35.8462 76.5738C35.7153 76.5172 35.5712 76.4986 35.4303 76.52C34.3303 76.64 33.6803 79.23 34.0603 79.47Z" fill="#FFDE17"/>
<path d="M26.9097 81C27.3197 81.25 29.3997 79.16 29.0097 78.37C28.93 78.2544 28.819 78.1638 28.6898 78.109C28.5605 78.0541 28.4183 78.0371 28.2797 78.06C27.1697 78.13 26.5197 80.72 26.9097 81Z" fill="#FFDE17"/>
<path d="M36.4997 84.82C36.9097 85.07 38.9897 82.98 38.6097 82.19C38.5284 82.0736 38.4157 81.9826 38.2847 81.9278C38.1537 81.8729 38.0098 81.8563 37.8697 81.88C36.7697 82 36.1197 84.59 36.4997 84.82Z" fill="#FFDE17"/>
<path d="M29.9999 86.43C30.4099 86.68 32.4899 84.59 32.0999 83.8C32.0215 83.6826 31.911 83.59 31.7817 83.5333C31.6523 83.4766 31.5095 83.4581 31.3699 83.48C30.2799 83.61 29.6299 86.2 29.9999 86.43Z" fill="#FFDE17"/>
<path d="M39.1901 90.88C39.6001 91.12 41.6801 89.03 41.2901 88.25C41.21 88.1318 41.0978 88.0388 40.9668 87.9821C40.8357 87.9255 40.6911 87.9074 40.5501 87.93C39.4501 88.06 38.8001 90.64 39.1901 90.88Z" fill="#FFDE17"/>
<path d="M31.5397 93.61C31.9497 93.86 34.0297 91.77 33.6397 90.98C33.5596 90.8617 33.4474 90.7688 33.3164 90.7121C33.1853 90.6554 33.0407 90.6374 32.8997 90.66C31.7997 90.79 31.1497 93.38 31.5397 93.61Z" fill="#FFDE17"/>
<path d="M78.0495 72.76C81.8095 74.76 85.6995 76.88 89.8595 75.76C94.5595 74.46 96.8595 69.76 98.6695 66.02C105.87 51.27 98.8895 36.54 96.8395 33.58C96.4211 32.9853 95.9344 32.4416 95.3895 31.96C94.4595 31.18 92.1795 29.64 86.9495 29.96C85.7395 30.05 81.4595 30.44 73.7895 34.43C67.4495 37.73 64.2395 39.43 62.3395 43.27C61.1392 45.7553 60.6479 48.5235 60.9195 51.27C61.3195 55.27 63.2595 57.86 66.3895 61.91C69.2595 65.66 72.3795 69.69 78.0495 72.76Z" fill="#ED1B36"/>
<path d="M78.0901 72.69C80.5701 74.01 83.0901 75.4 85.9201 75.69C87.2843 75.8655 88.6706 75.726 89.9725 75.2822C91.2744 74.8385 92.4572 74.1022 93.4301 73.13C95.2834 71.0632 96.7713 68.6961 97.8301 66.13C100.296 61.1179 101.514 55.5842 101.38 50C101.283 47.1859 100.854 44.3931 100.1 41.68C99.3706 38.9778 98.263 36.3923 96.8101 34C96.0969 32.825 95.0535 31.8859 93.8101 31.3C92.5451 30.7501 91.1885 30.4415 89.8101 30.39C88.4285 30.328 87.0442 30.4118 85.6801 30.64C84.3223 30.9022 82.9854 31.2631 81.6801 31.72C79.0346 32.6533 76.4667 33.7935 74.0001 35.13C71.4981 36.3802 69.0827 37.7967 66.7701 39.37C65.6906 40.1548 64.7364 41.0989 63.9401 42.17C63.1822 43.2677 62.6049 44.4797 62.2301 45.76C61.4457 48.3442 61.4145 51.0986 62.1401 53.7C62.9001 56.27 64.5601 58.57 66.1401 60.87C67.725 63.2105 69.4692 65.4391 71.3601 67.54C73.3142 69.6049 75.5863 71.3436 78.0901 72.69ZM78.0201 72.82C75.5092 71.4608 73.1863 69.78 71.1101 67.82C69.0792 65.8216 67.1724 63.701 65.4001 61.47C63.6301 59.28 61.7101 57.01 60.7601 54.12C59.8704 51.2469 59.8495 48.1749 60.7001 45.29C61.1173 43.8571 61.7731 42.5047 62.6401 41.29C63.5269 40.0711 64.612 39.0097 65.8501 38.15C68.2505 36.5702 70.7564 35.1568 73.3501 33.92C75.8953 32.5873 78.5521 31.4798 81.2901 30.61C82.6736 30.1722 84.0922 29.8543 85.5301 29.66C86.9739 29.4834 88.4327 29.4666 89.8801 29.61C91.343 29.7199 92.7717 30.1068 94.0901 30.75C95.395 31.4463 96.487 32.483 97.2501 33.75C98.6735 36.2352 99.7884 38.8848 100.57 41.64C101.393 44.379 101.942 47.1927 102.21 50.04C102.433 52.9159 102.296 55.8084 101.8 58.65C101.258 61.4793 100.315 64.2169 99.0001 66.78C97.8251 69.4572 96.1248 71.8715 94.0001 73.88C92.9027 74.8546 91.6059 75.5781 90.2001 76C88.7844 76.382 87.3002 76.4368 85.8601 76.16C83.0826 75.4617 80.4308 74.3348 78.0001 72.82H78.0201Z" fill="#231F20"/>
<path d="M79.6505 69.26C82.9405 71 86.3305 72.8 90.0005 71.74C94.1505 70.54 96.2105 66.4 97.8705 63.08C104.37 50.02 98.4005 37.15 96.6305 34.57C96.2704 34.0527 95.8471 33.5824 95.3705 33.17C94.5605 32.49 92.5705 31.17 87.9705 31.54C86.9005 31.63 83.1205 32.02 76.3305 35.62C70.7105 38.62 67.8705 40.16 66.1505 43.53C65.0607 45.7181 64.5969 48.1649 64.8105 50.6C65.1205 54.12 66.8105 56.37 69.5005 59.89C72.0005 63.12 74.6905 66.63 79.6505 69.26Z" fill="#ED2A43"/>
<path d="M72.19 36.22C71.5693 37.3896 71.2632 38.7005 71.3017 40.0241C71.3403 41.3477 71.7222 42.6385 72.41 43.77C73.13 41.4767 73.8567 39.1933 74.59 36.92C77.0879 37.2301 79.6119 36.5991 81.67 35.15C76.53 34.84 75.3 34.49 75.29 34.21C75.28 33.93 77.41 33.75 79.83 32.08C80.3862 31.6994 80.9081 31.2711 81.39 30.8C80.477 30.6828 79.5507 30.72 78.65 30.91C77.1266 31.2266 75.717 31.9487 74.57 33C75.5967 31.8834 76.3799 30.5655 76.87 29.13C77.1247 28.3846 77.2957 27.6132 77.38 26.83C75.5042 27.9244 73.9569 29.5028 72.9 31.4C72.5294 32.078 72.2279 32.7916 72 33.53C70.8281 33.3389 69.6307 33.3694 68.47 33.62C67.0058 33.9467 65.6369 34.6072 64.47 35.55C65.3988 35.923 66.3811 36.1458 67.38 36.21C68.3884 36.2707 69.4002 36.1763 70.38 35.93C68.937 36.649 67.6493 37.6446 66.59 38.86C65.5673 40.0357 64.7737 41.3924 64.25 42.86C65.5776 42.2436 66.8349 41.4859 68 40.6C69.6047 39.3542 71.0166 37.8783 72.19 36.22Z" fill="#009444"/>
<path d="M72.2204 36.15C72.2401 36.2186 72.2401 36.2914 72.2204 36.36V36.48L72.1304 36.71C72.0699 36.8597 72.0198 37.0134 71.9804 37.17C71.8904 37.48 71.8104 37.79 71.7504 38.11C71.639 38.7369 71.6121 39.3759 71.6704 40.01C71.7693 41.2622 72.182 42.4693 72.8704 43.52L72.0204 43.62C72.6604 41.31 73.3404 39.02 74.0204 36.73L74.1804 36.22L74.7204 36.28C77.0589 36.5278 79.4099 35.9436 81.3604 34.63L81.6904 35.79C80.5504 35.71 79.4104 35.58 78.2804 35.42C77.7104 35.34 77.1404 35.26 76.5704 35.14C76.2729 35.0844 75.979 35.0109 75.6904 34.92C75.4998 34.8651 75.3204 34.7771 75.1604 34.66C75.0786 34.5965 75.0134 34.5142 74.9704 34.42C74.9292 34.3431 74.9077 34.2572 74.9077 34.17C74.9077 34.0828 74.9292 33.9969 74.9704 33.92C75.0267 33.8465 75.0941 33.7824 75.1704 33.73L75.3104 33.66C75.9504 33.42 76.4404 33.34 76.9804 33.15C77.5119 32.9867 78.0301 32.7828 78.5304 32.54C79.528 32.0488 80.4424 31.4044 81.2404 30.63L81.3704 31.03C80.1789 30.8834 78.9697 31.0068 77.8323 31.3911C76.695 31.7754 75.6588 32.4107 74.8004 33.25L74.3504 32.8C75.8095 31.1223 76.6865 29.0174 76.8504 26.8L77.6604 27.33C76.4774 28.071 75.4319 29.0116 74.5704 30.11C73.7247 31.197 73.0873 32.4311 72.6904 33.75L72.5204 34.34L71.8904 34.25C70.6639 34.0691 69.4129 34.1509 68.2204 34.49C67.0454 34.8337 65.9507 35.4083 65.0004 36.18L64.7904 34.81C66.5329 35.4891 68.4408 35.6216 70.2604 35.19L77.0004 33.52L70.7604 36.61C69.4147 37.2664 68.2012 38.1646 67.1804 39.26C66.1557 40.3699 65.3544 41.6669 64.8204 43.08L64.0004 42.39C65.5722 41.7151 67.0509 40.8413 68.4004 39.79C69.0817 39.2677 69.7296 38.7032 70.3404 38.1C70.6504 37.8 70.9504 37.49 71.2404 37.16L71.6704 36.68L71.8804 36.43C71.977 36.318 72.092 36.2233 72.2204 36.15ZM72.1504 36.28C72.1004 36.41 72.1504 36.46 72.0704 36.54L71.8904 36.82L71.5204 37.36C71.2704 37.72 71.0004 38.07 70.7204 38.36C70.1555 39.0415 69.5476 39.6861 68.9004 40.29C67.5769 41.476 66.1045 42.4845 64.5204 43.29L63.3404 44L63.7604 42.7C64.8019 39.4784 67.0683 36.7954 70.0704 35.23L70.6004 36.66C68.4701 37.2351 66.2108 37.1053 64.1604 36.29L62.9004 35.78L64.0004 34.93C65.12 34.025 66.4184 33.3673 67.8104 33C69.2162 32.6442 70.6809 32.5863 72.1104 32.83L71.3104 33.33C71.786 31.862 72.5473 30.5026 73.5504 29.33C74.5526 28.1607 75.7546 27.1788 77.1004 26.43L78.1004 25.9L77.9604 26.96C77.6155 29.3417 76.5271 31.5536 74.8504 33.28L74.4004 32.83C75.3646 31.9927 76.4866 31.3569 77.7004 30.96C78.916 30.5846 80.1963 30.4654 81.4604 30.61L81.9504 30.67L81.6004 31.01C80.775 31.832 79.8394 32.5354 78.8204 33.1C78.3119 33.38 77.7877 33.6305 77.2504 33.85C76.7304 34.07 76.1204 34.25 75.7004 34.44V34.39C75.7249 34.3456 75.7378 34.2957 75.7378 34.245C75.7378 34.1943 75.7249 34.1444 75.7004 34.1C75.6886 34.0653 75.6679 34.0342 75.6404 34.01C75.7253 34.042 75.8122 34.0687 75.9004 34.09C76.1404 34.15 76.4104 34.19 76.6804 34.23C77.2304 34.3 77.7904 34.34 78.3504 34.38C79.4704 34.45 80.6004 34.48 81.7204 34.54L83.5004 34.62L82.0004 35.68C79.8266 37.2539 77.1289 37.9274 74.4704 37.56L75.1604 37.12C74.4004 39.39 73.6304 41.65 72.8104 43.91L72.4604 44.91L72.0004 44C71.3129 42.781 70.9674 41.3991 71.0004 40C71.0133 39.3224 71.1175 38.6497 71.3104 38C71.3923 37.6555 71.5096 37.3204 71.6604 37C71.7216 36.8444 71.7951 36.6939 71.8804 36.55L72.0004 36.4L72.0604 36.3C72.0604 36.3 72.1004 36.32 72.1504 36.28Z" fill="#231F20"/>
<path d="M71.31 63.6C71 64 74 68.47 78.78 71.46C81.3246 73.2389 84.3455 74.2111 87.45 74.25C89.14 74.25 91.68 73.85 91.73 73.25C91.8 72.25 86.3 72.79 80.57 69.13C77.95 67.46 75.24 65.94 72.57 64.28C71.91 63.79 71.42 63.48 71.31 63.6Z" fill="white"/>
<path d="M68.8902 50.84C69.5002 50.7 69.5602 46.84 68.4802 46.45C68.2956 46.4111 68.1037 46.4251 67.9268 46.4906C67.7498 46.5561 67.595 46.6703 67.4802 46.82C66.5802 47.94 68.3102 51 68.8902 50.84Z" fill="#FFDE17"/>
<path d="M74.6099 52.51C75.2099 52.37 75.2699 48.58 74.2099 48.2C74.0263 48.1599 73.835 48.1725 73.6581 48.2361C73.4813 48.2998 73.3259 48.4121 73.2099 48.56C72.3399 49.66 73.9999 52.64 74.6099 52.51Z" fill="#FFDE17"/>
<path d="M84.5904 40.17C85.1904 40.03 85.2504 36.24 84.1904 35.86C84.0068 35.8199 83.8155 35.8325 83.6387 35.8961C83.4618 35.9598 83.3064 36.0721 83.1904 36.22C82.3204 37.32 84.0004 40.3 84.5904 40.17Z" fill="#FFDE17"/>
<path d="M92.8902 40.64C93.4902 40.5 93.5502 36.71 92.4902 36.32C92.3056 36.2811 92.1137 36.2951 91.9368 36.3606C91.7598 36.4261 91.605 36.5403 91.4902 36.69C90.6102 37.79 92.3202 40.76 92.8902 40.64Z" fill="#FFDE17"/>
<path d="M82.8102 47.69C83.4102 47.55 83.4702 43.76 82.4102 43.38C82.2266 43.3399 82.0353 43.3525 81.8584 43.4161C81.6816 43.4798 81.5262 43.5921 81.4102 43.74C80.5402 44.84 82.2402 47.82 82.8102 47.69Z" fill="#FFDE17"/>
<path d="M90.6801 50.2C91.2801 50.06 91.3501 46.27 90.2901 45.89C90.1064 45.8499 89.9152 45.8625 89.7383 45.9261C89.5614 45.9898 89.4061 46.1021 89.2901 46.25C88.4101 47.35 90.1201 50.33 90.6801 50.2Z" fill="#FFDE17"/>
<path d="M81.3002 56.2C81.9002 56.06 81.9602 52.27 80.9002 51.88C80.7156 51.8411 80.5238 51.8551 80.3468 51.9206C80.1698 51.9861 80.015 52.1003 79.9002 52.25C79.0002 53.35 80.7302 56.33 81.3002 56.2Z" fill="#FFDE17"/>
<path d="M76.0004 64C76.6004 63.86 76.6704 60.07 75.6104 59.69C75.4267 59.65 75.2355 59.6625 75.0586 59.7262C74.8818 59.7898 74.7264 59.9021 74.6104 60.05C73.7304 61.1 75.4404 64.08 76.0004 64Z" fill="#FFDE17"/>
<path d="M88.3403 59C88.9403 58.86 89.0003 55.07 87.9403 54.69C87.7702 54.6557 87.5941 54.6662 87.4293 54.7205C87.2645 54.7749 87.1167 54.8712 87.0003 55C86.0703 56.13 87.7703 59.11 88.3403 59Z" fill="#FFDE17"/>
<path d="M83.7702 66.25C84.3702 66.11 84.4302 62.32 83.3702 61.94C83.1865 61.9 82.9953 61.9125 82.8184 61.9762C82.6415 62.0398 82.4862 62.1521 82.3702 62.3C81.5002 63.4 83.2002 66.38 83.7702 66.25Z" fill="#FFDE17"/>
<path d="M96.2201 62.19C96.8201 62.05 96.8801 58.26 95.8201 57.88C95.6364 57.8399 95.4452 57.8525 95.2683 57.9161C95.0914 57.9798 94.9361 58.0921 94.8201 58.24C94.0001 59.34 95.6601 62.32 96.2201 62.19Z" fill="#FFDE17"/>
<path d="M91.5697 71.54C92.1697 71.41 92.2397 67.62 91.1797 67.23C90.9951 67.1911 90.8032 67.2051 90.6263 67.2706C90.4493 67.3361 90.2945 67.4503 90.1797 67.6C89.2997 68.7 90.9997 71.67 91.5697 71.54Z" fill="#FFDE17"/>
<path d="M61.3498 86C59.5112 89.704 58.1021 93.606 57.1498 97.63C56.4481 100.567 55.9965 103.557 55.7998 106.57C58.0898 102.57 58.7998 101.78 59.0798 101.89C59.3598 102 58.4298 104.37 58.2198 107.51C58.0683 109.953 58.4084 112.401 59.2198 114.71C59.8098 112.97 60.4098 111.23 60.9998 109.5C60.9243 113.467 62.0238 117.367 64.1598 120.71C65.2519 122.394 66.6017 123.895 68.1598 125.16C68.1598 123.71 68.0898 122.27 68.0498 120.82C68.5725 122.553 69.5476 124.114 70.8746 125.345C72.2017 126.575 73.8327 127.43 75.5998 127.82C75.5398 126.7 75.4698 125.59 75.4098 124.47C79.1678 128.511 83.8827 131.541 89.1198 133.28C88.9798 128.567 88.8465 123.86 88.7198 119.16C89.2898 119.95 89.7198 120.3 89.8998 120.16C90.5665 119.9 89.6498 115.747 87.1498 107.7L89.5098 108.81C89.6767 105.948 88.8927 103.11 87.2798 100.74C85.5798 98.44 83.1098 97.09 83.3398 96.68C83.4498 96.49 84.1198 96.52 86.6198 97.53C86.0749 95.4773 84.9083 93.6434 83.2798 92.28C81.5498 90.91 79.5098 90.38 79.5998 90.05C79.6898 89.72 82.5998 90.37 82.6898 90.05C82.7798 89.73 77.2998 87.41 71.4698 86.05C68.6092 85.2524 65.608 85.0953 62.6798 85.59C62.1498 85.82 61.6698 85.94 61.3498 86Z" fill="#3E9581"/>
<path d="M61.4 86.09C60.71 87.67 60.01 89.36 59.4 91.03C58.79 92.7 58.32 94.42 57.88 96.14C57.0261 99.5822 56.5037 103.098 56.32 106.64L55.32 106.32C56.0841 104.917 56.9219 103.555 57.83 102.24C57.9606 102.066 58.1008 101.899 58.25 101.74C58.3516 101.634 58.462 101.537 58.58 101.45C58.6302 101.417 58.6838 101.391 58.74 101.37C58.8295 101.333 58.9238 101.31 59.02 101.3C59.1783 101.296 59.3334 101.345 59.46 101.44C59.5705 101.522 59.6568 101.633 59.71 101.76C59.7774 101.945 59.798 102.145 59.77 102.34C59.7762 102.457 59.7762 102.573 59.77 102.69L59.64 103.29C59.46 104.06 59.29 104.81 59.17 105.56C58.9041 107.055 58.8368 108.578 58.97 110.09C59.1087 111.598 59.4242 113.085 59.91 114.52H58.61L60.42 109.32L61.69 105.68L61.63 109.53C61.5952 110.977 61.7058 112.425 61.96 113.85C62.2208 115.276 62.6401 116.668 63.21 118C64.3636 120.71 66.1421 123.109 68.4 125L67.91 125.24L67.83 120.89V118.89L68.39 120.8C68.8899 122.499 69.8279 124.038 71.11 125.26C72.4156 126.461 74.017 127.292 75.75 127.67L75.44 127.93L75.22 124.59L75.17 123.84L75.7 124.39C79.4639 128.332 84.1677 131.254 89.37 132.88L88.68 133.4L88.12 119.28L88 117L89.34 118.82C89.5009 119.037 89.6745 119.244 89.86 119.44C89.9158 119.505 89.9797 119.562 90.05 119.61C90.05 119.61 90.05 119.61 89.84 119.61C89.7433 119.621 89.6507 119.656 89.57 119.71C89.5 119.71 89.45 119.87 89.45 119.85C89.4588 119.677 89.4588 119.503 89.45 119.33C89.45 119.06 89.38 118.77 89.34 118.49C89.13 117.34 88.83 116.17 88.53 115.01C87.9 112.69 87.19 110.38 86.46 108.07L85.93 106.36L87.55 107.12L89.92 108.23L88.79 108.93C88.976 106.137 88.1801 103.368 86.54 101.1C85.6288 99.9914 84.5993 98.9854 83.47 98.1C83.3091 97.958 83.1555 97.8078 83.01 97.65C82.9538 97.5981 82.9065 97.5372 82.87 97.47L82.79 97.37L82.7 97.16C82.6645 97.0641 82.6476 96.9623 82.65 96.86C82.6494 96.7001 82.6871 96.5423 82.76 96.4C82.8241 96.2951 82.9084 96.204 83.008 96.1319C83.1075 96.0598 83.2204 96.0082 83.34 95.98C83.6329 95.9132 83.9371 95.9132 84.23 95.98C84.44 95.98 84.64 96.08 84.83 96.13C85.5679 96.3822 86.2922 96.6726 87 97L86 97.9C85.6373 96.5362 85.0011 95.2603 84.13 94.15C83.2152 93.0657 82.071 92.1982 80.78 91.61C80.45 91.44 80.12 91.29 79.78 91.09C79.69 91.03 79.59 90.98 79.46 90.88L79.36 90.79C79.2999 90.7353 79.2492 90.6711 79.21 90.6C79.134 90.4664 79.0993 90.3133 79.11 90.16C79.1273 89.9943 79.2058 89.841 79.33 89.73C79.397 89.6594 79.479 89.6047 79.57 89.57L79.76 89.51H79.98C80.0964 89.4998 80.2136 89.4998 80.33 89.51C80.75 89.51 81.12 89.58 81.5 89.63C81.8311 89.6825 82.165 89.7159 82.5 89.73C82.4324 89.7614 82.3733 89.8087 82.328 89.8679C82.2828 89.9271 82.2525 89.9965 82.24 90.07C82.2146 90.1514 82.2146 90.2386 82.24 90.32V90.41C82.24 90.46 82.3 90.48 82.29 90.47C82.28 90.46 82.29 90.47 82.29 90.47C82.1612 90.3827 82.0277 90.3025 81.89 90.23C81.58 90.06 81.25 89.91 80.89 89.75C80.22 89.45 79.53 89.17 78.89 88.9C76.0932 87.8416 73.2305 86.9664 70.32 86.28C68.8752 85.9257 67.397 85.7246 65.91 85.68C64.3954 85.6263 62.8801 85.764 61.4 86.09ZM61.3 86C64.2229 85.1357 67.3133 85.0018 70.3 85.61C73.2757 86.1798 76.2092 86.9515 79.08 87.92C79.8 88.17 80.52 88.42 81.23 88.71C81.59 88.86 81.94 89.01 82.3 89.19C82.4936 89.2916 82.6806 89.4051 82.86 89.53C82.928 89.5695 82.9889 89.6202 83.04 89.68C83.094 89.7276 83.1382 89.7854 83.17 89.85C83.2053 89.8935 83.2294 89.945 83.24 90C83.2651 90.1052 83.2651 90.2148 83.24 90.32C83.1871 90.5102 83.0613 90.6719 82.89 90.77L82.7 90.83C82.6171 90.8415 82.5329 90.8415 82.45 90.83C82.0418 90.8366 81.6338 90.8099 81.23 90.75C80.86 90.75 80.48 90.67 80.16 90.66H80L80.13 90.57C80.2089 90.4896 80.2602 90.3862 80.2764 90.2747C80.2926 90.1632 80.2728 90.0495 80.22 89.95C80.22 89.95 80.22 89.88 80.16 89.86L80.31 89.95C80.6 90.1 80.96 90.26 81.31 90.42C82.7835 91.0591 84.098 92.0151 85.16 93.22C86.18 94.4584 86.9386 95.8905 87.39 97.43L87.85 98.87L86.41 98.33C85.73 98.07 85.05 97.8 84.41 97.61L83.94 97.49C83.81 97.49 83.6 97.49 83.73 97.49C83.8024 97.4682 83.8698 97.4322 83.9281 97.3842C83.9865 97.3361 84.0347 97.2769 84.07 97.21C84.1424 97.1197 84.1781 97.0054 84.17 96.89C84.17 96.74 84.17 96.76 84.17 96.72V96.64C84.17 96.64 84.37 96.84 84.5 96.96C85.7071 97.8919 86.8102 98.9514 87.79 100.12C88.7619 101.369 89.4727 102.801 89.88 104.33C90.2702 105.834 90.4453 107.386 90.4 108.94V110.17L89.29 109.64L86.93 108.52L88.02 107.52C88.72 109.85 89.4 112.19 90.02 114.52C90.32 115.7 90.6 116.89 90.81 118.13C90.81 118.45 90.9 118.76 90.92 119.13C90.9861 119.562 90.9343 120.005 90.77 120.41C90.7106 120.531 90.6252 120.636 90.52 120.72C90.3917 120.834 90.2306 120.904 90.06 120.92C89.8363 120.937 89.6128 120.885 89.42 120.77C89.236 120.652 89.0679 120.511 88.92 120.35C88.6921 120.105 88.4816 119.844 88.29 119.57L89.54 119.14L89.78 133.27V134.03L89.07 133.78C86.4428 132.856 83.9403 131.61 81.62 130.07C79.3118 128.528 77.1996 126.712 75.33 124.66L75.8 124.46L75.98 127.8V128.14L75.66 128.07C73.8505 127.645 72.183 126.756 70.8222 125.489C69.4613 124.223 68.4541 122.624 67.9 120.85L68.42 120.77L68.57 125.11V125.75L68.06 125.35C65.6522 123.491 63.7136 121.094 62.4 118.35C61.0849 115.574 60.4019 112.541 60.4 109.47L61.61 109.68L59.85 115L59.24 116.81L58.61 115C58.0721 113.467 57.736 111.87 57.61 110.25C57.4874 108.625 57.5816 106.99 57.89 105.39C58.03 104.6 58.23 103.81 58.41 103.06L58.54 102.51C58.54 102.42 58.54 102.34 58.54 102.27C58.54 102.2 58.54 102.12 58.54 102.27C58.54 102.27 58.62 102.44 58.71 102.48C58.8011 102.541 58.9106 102.57 59.02 102.56C59.0626 102.571 59.1074 102.571 59.15 102.56L59.04 102.66C58.9194 102.787 58.8058 102.92 58.7 103.06C57.8066 104.32 56.9788 105.625 56.22 106.97L55 109L55.2 106.56C55.4925 102.964 56.1458 99.4057 57.15 95.94C57.6719 94.2104 58.2895 92.5111 59 90.85C59.676 89.1919 60.4438 87.5727 61.3 86Z" fill="#231F20"/>
<path d="M61.8404 86.15C59.6044 91.7224 58.4375 97.6658 58.4004 103.67C60.0204 100.22 60.5904 99.52 60.7804 99.6C60.9704 99.68 60.3804 101.71 60.3604 104.36C60.3585 106.414 60.7453 108.45 61.5004 110.36L62.6704 105.91C62.7832 109.223 63.8225 112.438 65.6704 115.19C66.6232 116.543 67.7764 117.744 69.0904 118.75C69.0004 117.53 68.9004 116.32 68.8004 115.1C69.3049 116.575 70.1959 117.887 71.3804 118.9C72.4548 119.815 73.752 120.429 75.1404 120.68L74.8204 117.88C76.2698 119.354 77.8876 120.653 79.6404 121.75C81.6621 123.018 83.8495 124.001 86.1404 124.67C85.8071 120.717 85.4737 116.77 85.1404 112.83C85.6304 113.46 85.9604 113.74 86.1404 113.66C86.6404 113.413 85.7137 109.963 83.3604 103.31L85.2904 104.14C85.3022 101.744 84.5489 99.4077 83.1404 97.47C81.6904 95.6 79.6604 94.58 79.8204 94.23C79.9004 94.06 80.4304 94.06 82.4704 94.8C81.9494 93.1203 80.9356 91.6361 79.5604 90.54C78.1304 89.47 76.4804 89.11 76.5604 88.83C76.6404 88.55 79.0004 89 79.0004 88.68C79.0004 88.36 74.5904 86.68 69.8904 85.82C67.5888 85.2757 65.192 85.2757 62.8904 85.82C62.4704 85.94 62.1004 86.07 61.8404 86.15Z" fill="#1E6F5D"/>
<path d="M61.4098 86C63.6398 88.49 65.8098 91 67.8698 93.68C69.9298 96.36 71.8698 99.05 73.7298 101.85C75.6388 104.612 77.3722 107.491 78.9198 110.47C79.6598 111.98 80.3798 113.47 80.9798 115.07C81.5798 116.67 82.1998 118.2 82.7198 119.8L82.5898 119.86C80.7598 117.02 79.2798 114.05 77.5898 111.18C75.8998 108.31 74.4098 105.35 72.7098 102.49C71.0098 99.63 69.1698 96.85 67.2598 94.12C65.3498 91.39 63.3698 88.71 61.2598 86.12L61.4098 86Z" fill="#231F20"/>
<path d="M64.6104 89.93C64.6117 91.0938 64.5348 92.2564 64.3804 93.41C64.2604 94.53 63.9204 95.61 63.7704 96.74C63.6068 97.866 63.5233 99.0022 63.5204 100.14C63.5204 100.71 63.5204 101.29 63.5204 101.86L63.6504 103.59H63.5004C63.1703 102.466 62.9197 101.319 62.7504 100.16C62.6035 98.9859 62.5366 97.8032 62.5504 96.62C62.5032 95.43 62.6176 94.2392 62.8904 93.08C63.2007 91.9159 63.7264 90.8203 64.4404 89.85L64.6104 89.93Z" fill="#231F20"/>
<path d="M64.6699 90C65.7124 89.4997 66.8449 89.2141 67.9999 89.16C69.1368 89.1409 70.2708 89.2789 71.3699 89.57C73.5729 90.0092 75.6991 90.7707 77.6799 91.83L77.5999 92C75.5081 91.3751 73.3562 90.9728 71.1799 90.8C70.1099 90.71 69.0299 90.8 67.9599 90.7C66.8561 90.6114 65.76 90.4443 64.6799 90.2L64.6699 90Z" fill="#231F20"/>
<path d="M68.8697 95.33C68.8997 96.4279 68.8629 97.5266 68.7597 98.62C68.6797 99.68 68.3997 100.71 68.3197 101.78C68.1509 103.942 68.2923 106.118 68.7397 108.24H68.5897C67.708 106.177 67.2099 103.971 67.1197 101.73C66.9926 100.595 67.0466 99.4477 67.2797 98.33C67.5386 97.2089 68.0329 96.1556 68.7297 95.24L68.8697 95.33Z" fill="#231F20"/>
<path d="M68.8098 95.23C69.7584 94.9271 70.7583 94.8183 71.7498 94.91C72.7129 95.037 73.6547 95.2926 74.5498 95.67C76.3812 96.2845 78.1333 97.1136 79.7698 98.14L79.6998 98.27C78.7898 97.98 77.8998 97.68 76.9898 97.46C76.0798 97.24 75.1698 97 74.2498 96.83C73.3263 96.7296 72.4085 96.5828 71.4998 96.39C70.5639 96.163 69.6578 95.8274 68.7998 95.39L68.8098 95.23Z" fill="#231F20"/>
<path d="M73.8703 102.4C73.9802 103.229 74.007 104.066 73.9503 104.9C73.9503 105.68 73.6603 106.44 73.5803 107.23C73.4245 108.841 73.4884 110.466 73.7703 112.06H73.6303C72.9117 110.522 72.4878 108.864 72.3803 107.17C72.2551 106.312 72.2856 105.438 72.4703 104.59C72.6902 103.732 73.1236 102.945 73.7303 102.3L73.8703 102.4Z" fill="#231F20"/>
<path d="M73.8096 102.3C74.5172 101.99 75.2885 101.853 76.0596 101.9C76.7986 101.983 77.5186 102.189 78.1896 102.51C79.5758 103.008 80.8931 103.68 82.1096 104.51L82.0496 104.65C80.6862 104.227 79.2965 103.892 77.8896 103.65C77.1901 103.605 76.4948 103.508 75.8096 103.36C75.1 103.152 74.4258 102.839 73.8096 102.43V102.3Z" fill="#231F20"/>
<path d="M78.3004 110.81C78.4729 111.408 78.5505 112.028 78.5304 112.65C78.4741 113.214 78.3738 113.772 78.2304 114.32C78.0802 115.485 78.0802 116.665 78.2304 117.83H78.0904C77.5193 116.716 77.1791 115.499 77.0904 114.25C76.9504 113.624 76.9504 112.976 77.0904 112.35C77.2774 111.702 77.662 111.129 78.1904 110.71L78.3004 110.81Z" fill="#231F20"/>
<path d="M78.2297 110.71C78.7297 110.387 79.3145 110.22 79.9097 110.23C80.4545 110.286 80.982 110.452 81.4597 110.72C82.4698 111.117 83.4217 111.648 84.2897 112.3L84.2197 112.43C83.2197 112.2 82.2197 112 81.1597 111.88C80.6544 111.889 80.1501 111.832 79.6597 111.71C79.1267 111.528 78.6366 111.239 78.2197 110.86L78.2297 110.71Z" fill="#231F20"/>
<path d="M76.75 31.45C76.75 33.45 78.11 34.83 79.31 34.76C79.804 34.7078 80.2652 34.4877 80.6164 34.1364C80.9677 33.7852 81.1878 33.324 81.24 32.83C81.24 31.52 79.24 30.42 77.82 30.83C77.4142 30.937 77.0446 31.1511 76.75 31.45Z" fill="#FAE8F1"/>
<path d="M76.8197 31.48C77.1097 31.97 77.3297 32.48 77.5997 32.83C77.852 33.1857 78.1329 33.5201 78.4397 33.83C78.5611 34.0243 78.731 34.1836 78.9326 34.2923C79.1342 34.401 79.3607 34.4553 79.5897 34.45C79.832 34.3911 80.0535 34.2666 80.2299 34.0902C80.4063 33.9138 80.5307 33.6924 80.5897 33.45C80.6438 33.2537 80.6438 33.0464 80.5897 32.85C80.5521 32.6979 80.484 32.5551 80.3897 32.43C80.1055 32.1333 79.7657 31.8955 79.3897 31.73C79.0069 31.4996 78.5776 31.3576 78.133 31.3144C77.6883 31.2711 77.2397 31.3277 76.8197 31.48ZM76.6797 31.42C76.8055 31.1028 77.007 30.8211 77.2668 30.5998C77.5265 30.3784 77.8365 30.224 78.1697 30.15C78.8394 29.9956 79.5411 30.0622 80.1697 30.34C80.8385 30.625 81.3769 31.1491 81.6797 31.81C81.8503 32.182 81.9026 32.5973 81.8297 33C81.7481 33.3582 81.564 33.6848 81.2997 33.94C80.8511 34.388 80.3078 34.7297 79.7097 34.94C79.3912 35.0726 79.0481 35.1358 78.7032 35.1254C78.3584 35.1151 78.0197 35.0314 77.7097 34.88C77.4171 34.7103 77.1612 34.4841 76.9569 34.2146C76.7526 33.945 76.604 33.6375 76.5197 33.31C76.339 32.6818 76.3959 32.0089 76.6797 31.42Z" fill="#231F20"/>
<path d="M76.4604 27.17C78.4604 26.8 79.4604 25.17 79.1904 24C79.0434 23.5284 78.7384 23.1218 78.3268 22.8486C77.9153 22.5754 77.4221 22.4523 76.9304 22.5C75.6404 22.76 74.9304 24.92 75.6204 26.25C75.8105 26.6281 76.1011 26.9464 76.4604 27.17Z" fill="#FAE8F1"/>
<path d="M76.4696 27.1C76.8896 26.71 77.3296 26.41 77.6496 26.1C77.9492 25.7865 78.2266 25.4523 78.4796 25.1C78.6948 24.957 78.8556 24.7456 78.936 24.5C79.0164 24.2545 79.0117 23.989 78.9227 23.7463C78.8338 23.5037 78.6657 23.2981 78.4456 23.1627C78.2255 23.0273 77.9662 22.97 77.7096 23C77.5052 22.9786 77.2987 23.0095 77.1096 23.09C76.9698 23.1594 76.8443 23.2544 76.7396 23.37C76.5084 23.6928 76.3388 24.0556 76.2396 24.44C76.0699 24.871 76.0024 25.3355 76.0423 25.797C76.0823 26.2585 76.2285 26.7045 76.4696 27.1ZM76.4696 27.25C76.1255 27.1894 75.8022 27.0432 75.5296 26.8247C75.2569 26.6062 75.0437 26.3226 74.9096 26C74.6188 25.3755 74.5415 24.6728 74.6896 24C74.8458 23.2902 75.2545 22.6612 75.8396 22.23C76.1513 21.9979 76.5292 21.8717 76.9179 21.8699C77.3066 21.8681 77.6857 21.9908 77.9996 22.22C78.5203 22.5778 78.9598 23.0411 79.2896 23.58C79.4829 23.8711 79.6123 24.1998 79.6692 24.5446C79.7261 24.8894 79.7092 25.2423 79.6196 25.58C79.3912 26.2067 78.9238 26.7174 78.3196 27C77.7449 27.3115 77.0757 27.4005 76.4396 27.25H76.4696Z" fill="#231F20"/>
<path d="M78 28.91C79.33 30.44 81.26 30.53 82.12 29.67C82.4472 29.3111 82.644 28.8524 82.6784 28.368C82.7129 27.8835 82.5831 27.4016 82.31 27C81.44 26 79.22 26.52 78.41 27.76C78.174 28.1003 78.0325 28.4971 78 28.91Z" fill="#FAE8F1"/>
<path d="M78.1098 28.88C78.6598 29.05 79.1098 29.28 79.5998 29.38C80.0269 29.4802 80.4618 29.5438 80.8998 29.57C81.1191 29.6364 81.3521 29.6436 81.5752 29.5909C81.7982 29.5382 82.0033 29.4275 82.1698 29.27C82.316 29.0717 82.4039 28.8364 82.4233 28.5907C82.4427 28.345 82.393 28.0989 82.2798 27.88C82.2095 27.7128 82.0986 27.5658 81.9572 27.4523C81.8157 27.3388 81.6482 27.2624 81.4698 27.23C80.8146 27.1886 80.1599 27.3191 79.5705 27.6085C78.9812 27.8979 78.4777 28.3362 78.1098 28.88ZM77.9698 28.93C77.8541 28.6112 77.8173 28.2691 77.8626 27.933C77.9078 27.5969 78.0338 27.2768 78.2298 27C78.6269 26.4321 79.1996 26.0105 79.8598 25.8C80.5489 25.5789 81.2948 25.6144 81.9598 25.9C82.3218 26.0432 82.6276 26.3 82.8313 26.6317C83.0351 26.9635 83.1258 27.3523 83.0898 27.74C83.0499 28.3708 82.8724 28.9851 82.5698 29.54C82.4124 29.8515 82.1913 30.1264 81.9208 30.3469C81.6504 30.5674 81.3366 30.7286 80.9998 30.82C80.3559 30.92 79.6975 30.7838 79.1461 30.4365C78.5947 30.0891 78.1876 29.554 77.9998 28.93H77.9698Z" fill="#231F20"/>
<path d="M74.2498 27.76C73.9898 25.76 72.4198 24.61 71.2498 24.86C70.7743 24.9778 70.3529 25.2538 70.0549 25.6427C69.7569 26.0316 69.6 26.5102 69.6098 27C69.7998 28.3 71.9298 29.09 73.2898 28.51C73.6719 28.3517 74.0038 28.0924 74.2498 27.76Z" fill="#FAE8F1"/>
<path d="M74.1803 27.74C73.8203 27.3 73.5403 26.84 73.1803 26.51C72.8675 26.1942 72.5333 25.9001 72.1803 25.63C72.0374 25.4616 71.8544 25.3321 71.6481 25.2534C71.4418 25.1748 71.2189 25.1495 71.0003 25.18C70.7664 25.2659 70.5611 25.4152 70.4074 25.6113C70.2538 25.8074 70.1578 26.0424 70.1303 26.29C70.0961 26.4918 70.1168 26.699 70.1903 26.89C70.252 27.032 70.3403 27.161 70.4503 27.27C70.7443 27.5171 71.0841 27.704 71.4503 27.82C71.8792 28.0237 72.3503 28.1226 72.8249 28.1087C73.2995 28.0948 73.764 27.9684 74.1803 27.74ZM74.3303 27.74C74.2529 28.0818 74.0904 28.3986 73.8579 28.6608C73.6254 28.9231 73.3304 29.1223 73.0003 29.24C72.3643 29.4977 71.6607 29.5364 71.0003 29.35C70.2963 29.1628 69.687 28.7209 69.2903 28.11C69.0873 27.7763 68.9865 27.3904 69.0003 27C69.0336 26.6366 69.1688 26.29 69.3903 26C69.7714 25.4996 70.2557 25.0869 70.8103 24.79C71.1093 24.6146 71.4416 24.5035 71.786 24.4639C72.1304 24.4243 72.4793 24.457 72.8103 24.56C73.1239 24.685 73.4093 24.8715 73.6498 25.1085C73.8902 25.3455 74.0808 25.6282 74.2103 25.94C74.4675 26.5196 74.51 27.1719 74.3303 27.78V27.74Z" fill="#231F20"/>
<path d="M74.4101 30.09C72.4901 29.44 70.7701 30.35 70.4701 31.51C70.3682 31.9944 70.4358 32.4991 70.6615 32.9396C70.8872 33.3801 71.2574 33.7298 71.7101 33.93C72.9601 34.34 74.6101 32.78 74.7101 31.3C74.7218 30.8769 74.6181 30.4586 74.4101 30.09Z" fill="#FAE8F1"/>
<path d="M74.3602 30.15C73.8002 30.28 73.2702 30.33 72.8302 30.47C72.4079 30.6168 71.9968 30.7939 71.6002 31C71.2202 31.16 70.7402 31.4 70.6602 31.9C70.6261 32.2516 70.7302 32.6027 70.9504 32.879C71.1707 33.1552 71.4898 33.3349 71.8402 33.38C71.9965 33.3854 72.1525 33.3617 72.3002 33.31C72.6762 33.1536 73.0164 32.9222 73.3002 32.63C73.654 32.3246 73.9334 31.9424 74.1171 31.5126C74.3008 31.0828 74.3839 30.6168 74.3602 30.15ZM74.4602 30.03C74.7207 30.2476 74.925 30.5248 75.0556 30.8382C75.1861 31.1515 75.2392 31.4918 75.2102 31.83C75.1477 32.5192 74.8675 33.1706 74.4102 33.69C73.9318 34.2377 73.2709 34.5931 72.5502 34.69C72.1435 34.7432 71.7303 34.6662 71.3702 34.47C71.0579 34.2755 70.8053 33.9987 70.6402 33.67C70.3582 33.1069 70.2013 32.4894 70.1802 31.86C70.1601 31.5208 70.2091 31.181 70.3243 30.8613C70.4395 30.5415 70.6184 30.2485 70.8502 30C71.1022 29.7746 71.3962 29.6012 71.7154 29.4897C72.0346 29.3781 72.3726 29.3307 72.7102 29.35C73.3532 29.3463 73.9755 29.5774 74.4602 30V30.03Z" fill="#231F20"/>
<path d="M75.85 30.73C76.7337 30.73 77.45 30.0137 77.45 29.13C77.45 28.2463 76.7337 27.53 75.85 27.53C74.9663 27.53 74.25 28.2463 74.25 29.13C74.25 30.0137 74.9663 30.73 75.85 30.73Z" fill="#FEE77A"/>
<path d="M62.1104 88.59C62.1104 90.45 63.3604 91.69 64.4604 91.59C64.9094 91.5387 65.3279 91.3368 65.6475 91.0171C65.9671 90.6975 66.169 90.2791 66.2204 89.83C66.2204 88.62 64.4004 87.62 63.0904 87.97C62.7145 88.0862 62.3763 88.3002 62.1104 88.59Z" fill="#FAE8F1"/>
<path d="M62.1799 88.62C62.4699 89.07 62.6799 89.51 62.9399 89.84C63.1725 90.1572 63.4229 90.4611 63.6899 90.75C63.9199 91.04 64.2499 91.41 64.6899 91.34C64.9087 91.2955 65.11 91.1888 65.2696 91.0327C65.4293 90.8766 65.5405 90.6777 65.5899 90.46C65.6394 90.2834 65.6394 90.0966 65.5899 89.92C65.5565 89.7915 65.495 89.6719 65.4099 89.57C65.1657 89.3214 64.8818 89.1153 64.5699 88.96C64.2201 88.7331 63.8251 88.5852 63.4124 88.5265C62.9996 88.4678 62.5791 88.4997 62.1799 88.62ZM61.9999 88.56C62.1102 88.2634 62.292 87.9986 62.5293 87.7893C62.7665 87.5799 63.0519 87.4324 63.3599 87.36C63.9875 87.2097 64.6467 87.2658 65.2399 87.52C65.8623 87.7894 66.3616 88.2815 66.6399 88.9C66.8075 89.2407 66.8668 89.6246 66.8099 90C66.7319 90.3355 66.5582 90.6412 66.3099 90.88C65.8815 91.278 65.3785 91.5873 64.8299 91.79C64.5366 91.9183 64.22 91.9845 63.8999 91.9845C63.5798 91.9845 63.2632 91.9183 62.9699 91.79C62.6965 91.6335 62.4573 91.4235 62.2666 91.1727C62.0759 90.9219 61.9376 90.6353 61.8599 90.33C61.6816 89.7434 61.7316 89.1112 61.9999 88.56Z" fill="#231F20"/>
<path d="M61.8401 84.68C63.6701 84.34 64.6301 82.84 64.3501 81.77C64.2095 81.3401 63.9272 80.9705 63.5494 80.7217C63.1717 80.4729 62.7207 80.3595 62.2702 80.4C61.0902 80.63 60.4701 82.62 61.0701 83.84C61.2512 84.1809 61.5162 84.47 61.8401 84.68Z" fill="#FAE8F1"/>
<path d="M61.8604 84.6C62.2304 84.23 62.6304 83.94 62.8604 83.6C63.1219 83.3082 63.3657 83.001 63.5904 82.68C63.7496 82.5513 63.8715 82.3824 63.9436 82.1907C64.0156 81.9991 64.0353 81.7917 64.0004 81.59C63.9157 81.3907 63.7774 81.2188 63.6009 81.0935C63.4243 80.9681 63.2164 80.8942 63.0004 80.88C62.8212 80.866 62.6416 80.9006 62.4804 80.98C62.3627 81.0438 62.2576 81.1285 62.1704 81.23C61.9692 81.5354 61.8236 81.8739 61.7404 82.23C61.587 82.61 61.5182 83.0189 61.539 83.4282C61.5597 83.8375 61.6694 84.2374 61.8604 84.6ZM61.8604 84.75C61.5467 84.7045 61.2495 84.5808 60.9961 84.3903C60.7427 84.1999 60.5413 83.9487 60.4104 83.66C60.1304 83.0787 60.0529 82.4204 60.1904 81.79C60.3367 81.1265 60.7209 80.5396 61.2704 80.14C61.5814 79.9138 61.9558 79.7913 62.3404 79.79C62.6986 79.7918 63.0477 79.9035 63.3404 80.11C63.8156 80.4451 64.2172 80.8739 64.5204 81.37C64.7607 81.7661 64.8752 82.2258 64.8488 82.6884C64.8224 83.1509 64.6563 83.5946 64.3725 83.9608C64.0886 84.327 63.7004 84.5984 63.259 84.7393C62.8176 84.8803 62.3439 84.884 61.9004 84.75H61.8604Z" fill="#231F20"/>
<path d="M63.29 86.27C64.51 87.67 66.29 87.75 67.06 86.97C67.362 86.6322 67.5402 86.2019 67.5657 85.7495C67.5911 85.2971 67.4622 84.8496 67.2 84.48C66.4 83.58 64.38 84.04 63.63 85.18C63.4249 85.5081 63.3078 85.8835 63.29 86.27Z" fill="#FAE8F1"/>
<path d="M63.3599 86.24C63.8799 86.38 64.3599 86.57 64.7399 86.65C65.1255 86.7338 65.5164 86.7906 65.9099 86.82C66.1047 86.8873 66.314 86.9015 66.5161 86.861C66.7182 86.8206 66.9059 86.727 67.0599 86.59C67.1923 86.4096 67.2703 86.195 67.2844 85.9717C67.2986 85.7484 67.2485 85.5257 67.1399 85.33C67.0584 85.1669 66.9382 85.0261 66.7899 84.92C66.6713 84.856 66.5429 84.812 66.4099 84.79C66.0726 84.7649 65.7336 84.8021 65.4099 84.9C64.989 84.9534 64.5858 85.1018 64.2306 85.334C63.8755 85.5661 63.5777 85.8759 63.3599 86.24ZM63.2199 86.29C63.1031 85.996 63.0612 85.6777 63.0978 85.3635C63.1345 85.0493 63.2486 84.7492 63.4299 84.49C63.7949 83.9572 64.3258 83.5599 64.9399 83.36C65.5944 83.1337 66.3112 83.1695 66.9399 83.46C67.2951 83.6093 67.5931 83.8687 67.7899 84.2C67.9524 84.507 68.0252 84.8536 67.9999 85.2C67.9402 85.7801 67.7705 86.3434 67.4999 86.86C67.3599 87.1473 67.1626 87.4028 66.9201 87.6109C66.6776 87.819 66.3951 87.9753 66.0899 88.07C65.7812 88.1362 65.4622 88.1384 65.1526 88.0765C64.843 88.0145 64.5494 87.8898 64.2899 87.71C63.7603 87.3959 63.3758 86.8857 63.2199 86.29Z" fill="#231F20"/>
<path d="M59.8204 85.22C59.5804 83.37 58.1404 82.33 57.0604 82.56C56.6222 82.6753 56.2362 82.9359 55.9655 83.2993C55.6948 83.6626 55.5555 84.1071 55.5704 84.56C55.7404 85.76 57.6904 86.49 58.9404 85.95C59.2917 85.7865 59.5948 85.535 59.8204 85.22Z" fill="#FAE8F1"/>
<path d="M59.7502 85.2C59.3902 84.8 59.1302 84.39 58.8302 84.1C58.5512 83.8173 58.2539 83.5534 57.9402 83.31C57.815 83.1478 57.6492 83.0217 57.4595 82.9444C57.2698 82.8671 57.063 82.8414 56.8602 82.87C56.6503 82.9467 56.4665 83.0814 56.3302 83.2584C56.1939 83.4354 56.1107 83.6475 56.0902 83.87C56.0683 84.053 56.0923 84.2386 56.1602 84.41C56.2223 84.526 56.3034 84.6308 56.4002 84.72C56.6766 84.9322 56.9879 85.0946 57.3202 85.2C57.7003 85.3784 58.1152 85.4709 58.5352 85.4709C58.9551 85.4709 59.37 85.3784 59.7502 85.2ZM59.9002 85.2C59.8358 85.512 59.694 85.8029 59.4878 86.0458C59.2816 86.2887 59.0176 86.4758 58.7202 86.59C58.1278 86.8381 57.4694 86.8803 56.8502 86.71C56.1964 86.5301 55.631 86.1176 55.2602 85.55C55.0513 85.2258 54.9466 84.8454 54.9602 84.46C54.999 84.1149 55.1303 83.7867 55.3402 83.51C55.7039 83.0578 56.1523 82.6808 56.6602 82.4C56.9367 82.238 57.2434 82.1341 57.5615 82.0946C57.8795 82.055 58.2023 82.0807 58.5102 82.17C58.8039 82.2833 59.0716 82.4552 59.2968 82.6752C59.522 82.8953 59.7001 83.1589 59.8202 83.45C60.0794 84.0098 60.1082 84.6492 59.9002 85.23V85.2Z" fill="#231F20"/>
<path d="M60.0002 87.35C58.2302 86.76 56.6702 87.59 56.3902 88.66C56.3021 89.1018 56.3658 89.5604 56.5708 89.9615C56.7759 90.3626 57.1104 90.6827 57.5202 90.87C58.6702 91.24 60.1802 89.82 60.2502 88.46C60.267 88.0743 60.1807 87.6912 60.0002 87.35Z" fill="#FAE8F1"/>
<path d="M59.9203 87.41C59.4003 87.55 58.9203 87.61 58.5203 87.75C58.1489 87.8758 57.7849 88.0227 57.4303 88.19C57.0803 88.32 56.6303 88.52 56.5503 88.98C56.5282 89.203 56.57 89.4278 56.671 89.6279C56.7719 89.828 56.9278 89.9952 57.1203 90.11C57.2716 90.2121 57.448 90.2709 57.6303 90.28C57.763 90.2761 57.8945 90.2525 58.0203 90.21C58.3344 90.054 58.6187 89.8442 58.8603 89.59C59.1869 89.3273 59.4513 88.9957 59.6346 88.6188C59.8178 88.2419 59.9154 87.8291 59.9203 87.41ZM60.0103 87.29C60.2683 87.4886 60.4709 87.7502 60.5988 88.0496C60.7266 88.349 60.7753 88.6763 60.7403 89C60.6849 89.629 60.425 90.2226 60.0003 90.69C59.5526 91.2032 58.9275 91.5282 58.2503 91.6C57.8706 91.6502 57.4848 91.5765 57.1503 91.39C56.8535 91.2139 56.6166 90.9525 56.4703 90.64C56.2309 90.1248 56.095 89.5676 56.0703 89C56.0478 88.6806 56.0903 88.36 56.1951 88.0575C56.3 87.7551 56.465 87.4769 56.6803 87.24C56.9119 87.0263 57.185 86.8628 57.4827 86.7595C57.7804 86.6563 58.0962 86.6156 58.4103 86.64C59.0025 86.6521 59.5692 86.8838 60.0003 87.29H60.0103Z" fill="#231F20"/>
<path d="M61.2901 87.93C62.0964 87.93 62.7501 87.2763 62.7501 86.47C62.7501 85.6637 62.0964 85.01 61.2901 85.01C60.4837 85.01 59.8301 85.6637 59.8301 86.47C59.8301 87.2763 60.4837 87.93 61.2901 87.93Z" fill="#FEE77A"/>
</svg>
