<svg width="35" height="143" viewBox="0 0 35 143" fill="none" xmlns="http://www.w3.org/2000/svg">
<path d="M21.5964 80.2019C22.7094 65.805 25.2965 51.5602 29.317 37.6911C30.7574 33.3421 33.235 27.0922 33.6095 28.7915C34.0992 30.9516 30.7286 43.1922 27.6173 62.0282C22.259 94.6025 21.8557 122.77 20.9338 122.108C20.0119 121.445 19.9543 100.161 21.5964 80.2019Z" fill="#1F705E"/>
<path d="M24.0166 56.4984C22.8642 64.3899 22.2016 72.2815 21.5102 80.2019C20.8476 88.0934 20.1274 95.985 20.041 103.992C19.6953 107.966 19.6953 111.941 19.6953 115.916V118.94C19.6988 120.002 19.7952 121.062 19.9834 122.108V122.425V122.655C20.0829 122.802 20.1989 122.937 20.3291 123.058C20.5883 123.186 20.8847 123.217 21.1645 123.145C21.3874 123.075 21.5868 122.946 21.7407 122.77C21.8242 122.655 21.892 122.529 21.9424 122.396C21.9424 122.281 21.7695 122.453 21.9424 122.079C22.1152 121.705 21.9136 121.705 22.1152 121.186C22.3169 120.668 22.3169 120.149 22.3169 119.66L22.5762 116.78C23.2099 108.859 23.6709 100.996 24.3911 93.1049C25.1113 85.2133 25.8603 77.3505 26.811 69.4878C27.7617 61.625 29.0292 53.791 30.6425 46.0435C31.4779 42.2417 32.3998 38.4111 33.2641 34.523C33.4945 33.5821 33.6962 32.6221 33.869 31.6428C34.0995 31.1244 34.0995 30.6348 34.0995 30.0875C34.1155 29.8094 34.1155 29.5305 34.0995 29.2523V28.7627C34.1152 28.6287 34.1152 28.4934 34.0995 28.3595C34.0221 28.2305 33.9177 28.12 33.7933 28.0354C33.6689 27.9509 33.5277 27.8944 33.3793 27.8698C33.2298 27.8194 33.0679 27.8194 32.9184 27.8698H32.6879L32.3998 28.1003L32.1117 28.5035C31.9473 28.7205 31.8027 28.9518 31.6796 29.1947C31.4203 29.6555 31.1899 30.1163 30.9594 30.5772C30.5561 31.614 30.1528 32.5069 29.7782 33.4573C26.9413 40.8792 25.0069 48.615 24.0166 56.4984Z" fill="#010101"/>
<path d="M19.2044 28.8203C18.5706 28.5899 16.3236 54.0791 16.9286 83.2548C17.1302 94.1417 17.5623 98.8939 17.4759 112.373C17.4759 132.534 16.3236 141.174 16.8421 142.154C17.8216 143.795 23.4681 117.644 22.6038 91.1464C22.2869 82.3332 21.5379 81.9299 20.5584 67.0973C18.9451 44.1138 19.6654 29.1083 19.2044 28.8203Z" fill="#3E9582"/>
<path d="M19.1479 29.0219V29.2523V29.6555V30.5484L18.9462 32.3053C18.9462 33.4861 18.7157 34.667 18.6581 35.8478C18.6581 38.2095 18.3412 40.5712 18.3124 42.9618C18.1396 47.714 18.082 52.4374 18.082 57.1896V85.6165V99.8732C18.082 104.625 18.082 109.378 17.9091 114.13C17.7363 118.882 17.9091 123.605 17.6498 128.358L17.4482 135.587V139.158C17.4482 139.734 17.4482 140.339 17.4482 140.915C17.4329 141.184 17.4329 141.453 17.4482 141.722V141.923C17.4482 141.923 17.3041 141.923 17.2177 141.923H16.7856C17.0023 141.45 17.1759 140.958 17.3041 140.454L17.7363 138.755C17.9955 137.603 18.1972 136.451 18.4277 135.299C18.831 132.995 19.1767 130.633 19.5224 128.3C20.1562 123.634 20.6171 118.911 20.9916 114.216C21.3661 109.522 21.5678 104.769 21.5966 100.046C21.6254 95.3226 21.5966 90.5992 21.1645 85.9622C20.7323 81.3251 20.1274 76.5153 19.8681 71.7631C19.6088 67.0109 19.4071 62.2586 19.3207 57.5064C19.2343 52.7542 19.3207 48.002 19.3207 43.2498V36.107V29.1371C19.3207 29.1371 19.0903 29.0219 19.1479 29.0219ZM19.1479 28.8203C19.3495 29.0795 19.1479 29.1947 19.3207 29.3675V30.6924V32.4781V36.0494C19.3207 38.4111 19.3207 40.8017 19.5224 43.1634C19.7528 47.8868 20.0409 52.6102 20.4154 57.3624C20.7899 62.1146 21.1933 66.8093 21.6254 71.5327C21.8271 73.8656 22.0575 76.2273 22.3168 78.589C22.5761 80.9507 22.893 83.2836 23.1234 85.6741C23.7717 95.2125 23.6272 104.788 22.6913 114.303C22.2592 119.055 21.6254 123.807 20.8476 128.502C20.4731 130.863 20.0409 133.196 19.4936 135.529C19.2343 136.71 18.975 137.862 18.6293 139.014C18.6293 139.59 18.3124 140.166 18.1396 140.742C17.9505 141.375 17.6895 141.984 17.3617 142.557C17.2596 142.723 17.1087 142.854 16.9296 142.931C16.8266 142.964 16.7158 142.964 16.6127 142.931H16.2382C16.225 142.865 16.225 142.796 16.2382 142.73C16.2382 142.73 16.2382 142.499 16.2382 142.355V142.096C16.2102 141.78 16.2102 141.462 16.2382 141.146C16.2382 140.541 16.2382 139.936 16.2382 139.331L16.4399 135.788C16.6127 133.398 16.728 131.036 16.8144 128.675C17.016 123.922 17.1601 119.199 17.1313 114.447C17.1313 104.942 16.4975 95.4954 16.0654 85.991C15.6332 76.4865 15.8637 66.9533 16.4687 57.4776C16.7568 52.7254 17.0737 47.9732 17.477 43.2498L18.1396 36.1646L18.4853 32.6221L18.7157 30.8364V29.9436V29.5115V29.2811C18.6546 29.2124 18.6233 29.1222 18.6287 29.0304C18.6341 28.9385 18.6758 28.8526 18.7446 28.7915C18.8133 28.7304 18.9035 28.6991 18.9954 28.7045C19.0872 28.7099 19.1732 28.7516 19.2343 28.8203H19.1479Z" fill="#010101"/>
<path d="M16.7005 138.409C14.7416 112.2 11.9183 98.0875 9.64248 89.9655C8.63419 86.4229 7.309 82.3331 5.69573 74.3264C2.67085 59.2921 2.12349 46.9651 1.60494 47.4547C1.08639 47.9444 0.452605 73.6351 3.33344 96.0138C6.90568 124.037 14.0214 134.896 16.7005 138.409Z" fill="#3E9582"/>
<path d="M16.6705 138.265C16.6705 137.257 16.3824 136.278 16.2383 135.385C16.0943 134.492 16.0079 133.6 15.8638 132.505L15.1148 126.745C14.6539 122.885 14.1065 119.055 13.5592 115.224C12.4356 107.563 11.1392 99.9596 9.41074 92.4712C8.54649 88.7558 7.42296 85.0117 6.5299 81.1811C5.63684 77.3505 5.03187 73.5487 4.39808 69.6606C3.7643 65.7724 3.15932 61.9994 2.61196 58.14L1.83413 52.3798L1.43082 49.4996C1.43082 49.0388 1.43082 48.5492 1.20035 48.0884C0.969883 47.6276 1.20035 47.57 1.20035 47.57C1.25085 47.6265 1.31314 47.6712 1.38282 47.7011C1.45251 47.731 1.52789 47.7452 1.60367 47.7428C1.74173 47.7412 1.87463 47.6901 1.97818 47.5988C1.97265 47.6947 1.97265 47.7908 1.97818 47.8868C1.69009 51.6309 1.97818 55.5479 1.97818 59.4073C1.97818 63.2667 2.23745 67.1261 2.4103 70.9278C2.81362 78.6082 3.45701 86.2885 4.34046 93.9689C5.16227 101.631 6.48062 109.231 8.28721 116.722C9.18847 120.57 10.3237 124.36 11.6866 128.07C12.3562 129.864 13.1158 131.623 13.9625 133.34C14.3679 134.209 14.8199 135.055 15.3165 135.875C15.7198 136.739 16.3248 137.517 16.6705 138.265ZM16.6705 138.496L16.0943 137.92C15.9294 137.727 15.7755 137.525 15.6334 137.315L14.7691 136.163C14.2217 135.356 13.7032 134.55 13.2135 133.686C12.2087 132.013 11.3045 130.282 10.5055 128.502C8.91424 124.939 7.56675 121.273 6.47229 117.528C5.40638 113.784 4.51332 109.982 3.59145 106.008C2.66958 102.033 2.23745 98.3179 1.74771 94.4873C0.768224 86.7398 0.30729 78.9634 0.0768224 71.187C0.0768224 67.2989 -0.096028 63.4107 0.0768224 59.5225C0.0768224 57.564 0.0768224 55.6055 0.249673 53.7622C0.307972 51.8357 0.461806 49.9133 0.710607 48.002V47.57V47.3107C0.831763 47.1856 0.997359 47.1131 1.17154 47.1091C1.35646 47.1273 1.52945 47.2086 1.66128 47.3395V47.4835C1.78557 47.7669 1.86339 48.0683 1.89175 48.3764L2.0646 49.8453L2.35269 52.7254C2.48712 54.6455 2.68878 56.5656 2.95766 58.4857C3.4186 62.3162 3.93715 66.1756 4.65736 70.0062C5.37757 73.8368 6.24182 77.5809 7.27892 81.2963C8.31602 85.0117 10.1598 88.3526 11.1969 92.1832C13.1253 99.7512 14.4832 107.453 15.2588 115.224C15.7198 119.084 16.0079 122.972 16.2959 126.745C16.44 128.674 16.5264 130.604 16.6128 132.505C16.6128 133.427 16.6128 134.492 16.6128 135.385C16.6128 136.278 16.6993 137.574 16.7569 138.525L16.6705 138.496Z" fill="#010101"/>
<path d="M13.7029 19.8055C14.5095 20.3815 12.1185 43.2209 14.7976 68.7677C16.2679 78.1065 17.0574 87.5398 17.1599 96.993C17.1599 104.337 16.2381 114.274 15.1721 114.648C13.3284 115.224 10.3323 86.7973 10.6492 58.8025C10.8797 37.4607 13.0115 19.287 13.7029 19.8055Z" fill="#1F705E" stroke="#010101" stroke-width="0.75" stroke-miterlimit="10"/>
<path d="M16.4968 135.385C17.8571 115.67 17.4618 95.8726 15.3156 76.2273C13.7024 63.3819 11.1672 53.7622 11.6858 38.8432C11.8245 31.9659 12.6253 25.118 14.0769 18.3942C11.8736 29.7075 10.3536 41.1431 9.52514 52.639C8.26502 80.4063 10.6084 108.22 16.4968 135.385Z" fill="#3E9582"/>
<path d="M16.4967 135.385C16.4967 134.089 16.4967 132.851 16.4967 131.727V128.012V120.668C16.4967 115.772 16.4967 110.875 16.2951 105.979C16.0646 96.2154 15.5172 86.423 14.5666 76.7457C14.0768 71.9071 13.3566 67.0397 12.7516 62.1722C12.1467 57.3048 11.6281 52.4086 11.4553 47.4836C11.4553 45.0355 11.4553 42.5585 11.4553 40.1104C11.4553 37.6623 11.4553 35.1854 11.7433 32.7373C12.0314 30.2892 11.9738 27.8123 12.2619 25.3642C12.4155 24.1545 12.5884 22.9448 12.7804 21.7352L13.0685 19.8919L13.2702 18.9703V18.5094V18.2502C12.3483 18.2502 14.5954 17.847 14.4513 18.2502V18.423C14.481 18.5266 14.481 18.6363 14.4513 18.7398C12.9245 28.3595 11.6857 38.0367 10.9655 47.7716C10.2741 57.5096 10.101 67.2774 10.447 77.0337C10.7351 86.7974 11.3976 96.561 12.4924 106.267C13.0109 111.135 13.6159 115.973 14.3073 120.668L15.402 127.926L16.007 131.555L16.2951 133.34C16.3815 134.06 16.3815 134.636 16.4967 135.385ZM16.4967 135.616C16.4967 135.068 16.1222 134.435 15.9494 133.772L15.4884 131.958L14.5666 128.243C14.0192 125.852 13.5007 123.461 13.0685 121.042C12.1467 116.204 11.2536 111.365 10.6198 106.642C9.19833 96.8941 8.2944 87.0783 7.91183 77.2353C7.57085 67.3476 7.86916 57.4481 8.80489 47.5988C9.72428 37.8182 11.2444 28.1034 13.3566 18.5094C13.3566 18.7686 15.402 18.5094 14.4801 18.5094V18.711V19.1431L14.1921 20.1799L13.8464 21.9656C13.6159 23.1753 13.3854 24.3561 13.2126 25.5658C12.8093 27.9851 12.5212 30.4044 12.3195 32.8525C11.8876 37.7173 11.8009 42.6065 12.0602 47.4836C12.55 57.276 14.9411 66.8093 16.2951 76.5441C17.5326 86.3154 18.1101 96.159 18.0236 106.008C18.0236 110.933 17.8507 115.829 17.6491 120.754C17.6491 123.202 17.3898 125.65 17.2169 128.098V129.942C17.2169 130.547 17.2169 131.238 17.0441 131.871C16.7848 133.11 16.5832 134.32 16.4967 135.385V135.616Z" fill="#010101"/>
<path d="M18.0254 11.5395C18.0254 8.37136 18.4287 2.7551 16.7578 2.7551C15.0869 2.7551 11.169 9.43701 9.5557 15.4277C6.67487 25.7674 9.78617 35.5886 12.4365 34.5518C15.0869 33.5149 17.6221 20.1799 18.0254 11.5395Z" fill="#FFF200"/>
<path d="M17.8807 11.5395C17.9958 10.1017 17.9958 8.65706 17.8807 7.2193C17.785 6.49043 17.6407 5.76878 17.4486 5.0592C17.2757 4.42557 16.9876 3.67673 16.7284 3.56153C16.4691 3.44632 16.9588 3.70553 16.7284 3.73433C16.5516 3.8939 16.3879 4.06725 16.2386 4.25276C15.8495 4.73711 15.4934 5.24709 15.1727 5.77923C14.4525 6.93128 13.7611 8.11214 13.0697 9.35059C11.5585 11.8295 10.3953 14.5042 9.6127 17.2998C8.93707 20.0715 8.81955 22.9498 9.267 25.7674C9.47819 27.153 9.79603 28.5204 10.2177 29.8571C10.5091 31.0032 11.007 32.0865 11.6869 33.0541C11.7369 33.1292 11.8067 33.189 11.8886 33.2269H11.8309C12.1301 32.8514 12.3727 32.4341 12.5512 31.9884C13.0805 30.7405 13.5326 29.4612 13.9051 28.1579C14.7118 25.4793 15.3456 22.7144 16.2386 19.9495C17.1116 17.2196 17.6627 14.3972 17.8807 11.5395ZM18.1688 11.5395C18.1688 14.4196 18.1688 17.2998 18.1688 20.1799C18.0977 23.1007 17.672 26.0021 16.9012 28.8203C16.5139 30.3082 15.9833 31.755 15.3168 33.1405C14.8951 34.0123 14.2851 34.7796 13.5306 35.387C13.2168 35.6313 12.8469 35.7936 12.4546 35.8589C12.0622 35.9243 11.6597 35.8908 11.2836 35.7614C10.9513 35.6566 10.6463 35.4795 10.3905 35.243C10.1843 35.0657 9.99167 34.8732 9.81436 34.667C8.88484 33.2982 8.29253 31.729 8.08585 30.0876C7.82834 28.595 7.74136 27.078 7.82658 25.5657C7.94009 22.6654 8.26748 19.7775 8.80606 16.9253C9.25955 13.9793 10.0026 11.0852 11.0243 8.28494C11.5845 6.87917 12.3097 5.54495 13.1849 4.31036C13.5828 3.6954 14.0464 3.12561 14.5677 2.61108C14.9604 2.26102 15.4215 1.99623 15.9217 1.83345C16.271 1.74062 16.6384 1.74062 16.9876 1.83345C17.3682 1.88224 17.7223 2.0542 17.9959 2.32307C18.4543 3.09587 18.6653 3.99027 18.6009 4.88639C18.6009 5.66402 18.6009 6.38406 18.6009 7.13289C18.3704 8.65936 18.2552 10.0418 18.1688 11.5395Z" fill="#231F20"/>
<path d="M21.7125 9.46577C21.7094 8.12147 21.9738 6.78998 22.4903 5.54879C23.5562 2.89907 25.688 0.796572 26.2642 1.19979C26.8404 1.60301 26.2642 2.23664 26.7251 2.40945C27.1861 2.58225 27.5894 1.86222 27.9351 1.83342C28.2808 1.80462 28.8858 3.10068 28.1367 7.59369C26.898 15.1396 22.6343 29.8283 20.7906 30.0011C19.9264 30.1163 19.2926 27.0634 21.7125 9.46577Z" fill="#FFF200"/>
<path d="M21.5674 9.4658C21.5376 6.67902 22.351 3.94831 23.9009 1.63183C24.1143 1.3137 24.3553 1.01494 24.6211 0.738994C24.7921 0.581118 24.9751 0.436682 25.1684 0.306974C25.5297 0.0570646 25.9727 -0.0459176 26.4072 0.0189604C26.6138 0.0584353 26.809 0.143574 26.9785 0.268152C27.1479 0.39273 27.2874 0.553598 27.3867 0.738994C27.4881 0.917262 27.5565 1.11242 27.5884 1.31502C27.5963 1.46852 27.5963 1.62234 27.5884 1.77584C27.5884 1.77584 27.5883 1.37262 27.0122 1.17101C26.436 0.969404 26.3784 1.17101 26.436 1.17101L26.8969 0.911802C27.0685 0.796436 27.252 0.699875 27.4443 0.623788C27.8693 0.502295 28.325 0.554076 28.7119 0.767795C29.1174 1.01543 29.4154 1.40588 29.5473 1.86225C29.6224 2.09772 29.6802 2.33838 29.7202 2.58228C29.8077 3.32856 29.8077 4.0825 29.7202 4.82878C29.1601 7.48819 28.4483 10.1134 27.5884 12.6915C26.8969 15.2549 26.3784 17.8758 25.8598 20.4967C25.4068 23.1776 24.673 25.8033 23.6704 28.3307C23.3893 29.0485 23.032 29.734 22.6045 30.3756L22.0859 30.9516C21.8839 31.1296 21.649 31.2666 21.3945 31.3548C21.0861 31.458 20.7524 31.458 20.4439 31.3548C20.0464 31.2943 19.681 31.1015 19.4068 30.8076C19.2691 30.6343 19.144 30.4514 19.0323 30.2604C18.8992 30.0164 18.8022 29.7545 18.7442 29.4827C18.4743 28.04 18.3968 26.568 18.5137 25.1049C18.6595 22.4658 19.0844 19.8495 19.7813 17.2998C20.5458 14.7299 21.1424 12.1131 21.5674 9.4658ZM21.8555 9.4658C21.5721 12.1249 21.5046 14.8026 21.6538 17.4726C21.6538 20.1223 21.6538 22.772 21.6538 25.3353C21.5777 26.5246 21.5777 27.7175 21.6538 28.9067C21.6538 28.9067 21.6538 28.9067 21.6538 29.0507V28.9067C21.4878 28.7438 21.2773 28.6336 21.0488 28.5899H20.4727C20.4011 28.6492 20.3506 28.73 20.3286 28.8203V28.6475C20.6637 28.2075 20.9533 27.7346 21.1929 27.2362C22.2876 24.9321 23.2095 22.484 24.3618 20.1799C25.3817 17.7459 26.1631 15.2187 26.6953 12.6339C27.1224 10.0546 27.3248 7.4431 27.3003 4.82878C27.3328 4.25321 27.3328 3.67627 27.3003 3.1007C27.2934 3.02405 27.2934 2.94694 27.3003 2.87029C27.3003 2.87029 27.3003 2.87029 27.5884 3.15831C27.716 3.21217 27.8531 3.23992 27.9917 3.23992C28.1302 3.23992 28.2673 3.21217 28.395 3.15831L27.9629 3.44632C27.7499 3.60193 27.5052 3.70846 27.2461 3.75826C26.9871 3.80805 26.7203 3.79988 26.4648 3.73433C26.2582 3.66637 26.0675 3.55734 25.9041 3.41381C25.7408 3.27027 25.6081 3.09519 25.5141 2.89909C25.3919 2.70727 25.3132 2.49098 25.2837 2.26546C25.2584 2.08393 25.2584 1.89977 25.2837 1.71824C25.4207 1.93614 25.638 2.09134 25.8887 2.15026C26.292 2.15026 26.2632 2.15026 26.1767 2.15026H25.8887L25.2261 2.89909C24.214 3.67687 23.3869 4.66912 22.8041 5.80453C22.2213 6.93993 21.8974 8.19031 21.8555 9.4658Z" fill="#231F20"/>
<path d="M24.8239 11.3667C26.4948 8.28495 29.462 2.7263 31.0753 3.01431C32.6886 3.30232 32.6022 10.1858 30.7296 16.1765C27.5031 26.4874 18.8894 35.7614 17.0744 34.3502C15.2595 32.9389 20.1281 19.9783 24.8239 11.3667Z" fill="#FFF200"/>
<path d="M24.6783 11.3091C25.947 8.49125 27.3803 5.7504 28.9708 3.10071C29.2938 2.69745 29.6957 2.36425 30.1519 2.12147C30.5507 1.96846 30.9919 1.96846 31.3907 2.12147C31.8104 2.23292 32.1837 2.47501 32.4566 2.8127C33.0113 3.62187 33.3304 4.56906 33.3785 5.54883C33.5401 7.15589 33.4526 8.77826 33.1192 10.3586C32.4705 13.3464 31.4948 16.2536 30.2095 19.0278C28.9708 21.8504 27.6168 24.5865 26.0899 27.2938C24.6398 30.0601 22.6858 32.5314 20.3283 34.5806C19.9823 34.8788 19.6057 35.1395 19.2047 35.3582C18.6117 35.6986 17.9251 35.8399 17.2458 35.7614C16.7814 35.6655 16.358 35.4287 16.0332 35.0834C15.7084 34.738 15.4981 34.301 15.4308 33.8317C15.3642 33.3154 15.3642 32.7927 15.4308 32.2765C15.5597 30.6554 15.8986 29.058 16.4391 27.5242C17.9084 21.5912 21.7975 16.6085 24.6783 11.3091ZM24.9376 11.5395C23.5729 14.22 22.5008 17.0396 21.7399 19.9495C20.9332 22.8296 19.9249 25.7098 19.1471 28.5899C18.7232 29.9359 18.4054 31.3129 18.1964 32.7085C18.1964 32.9389 18.1964 33.3421 18.1964 33.4285C18.0522 33.3223 17.884 33.253 17.7067 33.2269C17.4474 33.2269 17.7067 33.2269 17.9372 33.2269C18.2168 33.1106 18.4786 32.9554 18.715 32.7661C20.9921 30.899 23.0334 28.7615 24.7936 26.401C26.7251 24.101 28.2543 21.4914 29.3165 18.6822C30.2499 15.8924 30.7739 12.982 30.8721 10.0418C30.9432 8.62186 30.9432 7.19921 30.8721 5.77924C30.8563 5.23465 30.779 4.69359 30.6417 4.16636C30.6417 4.16636 31.045 4.16636 30.9297 4.16636C30.6834 4.20745 30.4537 4.31727 30.2672 4.48318C28.0793 6.49454 26.2737 8.88518 24.9376 11.5395Z" fill="#231F20"/>
<path d="M19.3779 2.06384C15.2526 8.26393 12.3216 15.1795 10.7353 22.4552C9.82781 25.5388 9.82781 28.8184 10.7353 31.902C11.542 33.7741 13.4433 35.7614 15.892 34.7822C19.81 33.0541 22.662 24.4137 23.6415 20.3815C25.37 13.0948 24.5922 5.26079 20.7607 2.78388C20.3394 2.47442 19.873 2.23157 19.3779 2.06384Z" fill="#FFF200"/>
<path d="M19.4362 2.20788C17.0163 7.96815 14.5388 13.7284 12.7239 19.4887C11.5958 22.3611 10.8688 25.3751 10.5633 28.4459C10.4729 29.9412 10.8669 31.4258 11.6868 32.6797C12.0162 33.254 12.522 33.707 13.129 33.9716C13.7361 34.2361 14.4123 34.2982 15.0574 34.1486C16.2918 33.5085 17.298 32.5025 17.9382 31.2684C18.6771 29.9777 19.3315 28.6404 19.8972 27.265C20.9868 24.4599 21.8443 21.57 22.4611 18.6246C23.1481 15.6819 23.4004 12.6545 23.2101 9.63862C23.2754 8.17984 22.9621 6.72898 22.3009 5.42696C21.6396 4.12494 20.6528 3.01602 19.4362 2.20788ZM19.4362 1.94867C20.2944 2.04654 21.1182 2.34193 21.843 2.81167C22.5678 3.28141 23.1738 3.9127 23.6135 4.65599C24.5362 6.07733 25.1813 7.66049 25.5148 9.32181C26.1196 12.5676 26.1196 15.8972 25.5148 19.1431C24.8794 22.3457 23.8337 25.453 22.4035 28.3883C21.6889 29.8859 20.82 31.3048 19.8107 32.6221C18.7804 34.1222 17.2479 35.2049 15.4895 35.675C14.4946 35.8785 13.4596 35.6819 12.6087 35.1278C11.9004 34.6194 11.3026 33.9727 10.8513 33.2269C10.01 31.7824 9.55369 30.1461 9.52615 28.4747C9.43898 25.2495 9.69977 22.0243 10.304 18.855C11.0632 15.7144 12.2456 12.6915 13.8186 9.86903C15.308 6.99849 17.1676 4.33566 19.3498 1.94867H19.4362Z" fill="#231F20"/>
</svg>
