<svg width="202" height="454" viewBox="0 0 202 454" fill="none" xmlns="http://www.w3.org/2000/svg">
<path d="M79.6001 186.5C83.6001 192.4 80.1 200.6 81.8 207.5C84 216.4 95.1 221.1 103.8 218.2C112.5 215.3 118.2 206.5 119.7 197.4C120.2 194.1 120.3 190.7 121.4 187.6C124.5 179.3 135.4 175.5 143.7 178.7C152 181.9 157.3 190.6 158.2 199.5C159.1 207.8 156.6 216 156 224.3C155.4 232.6 157.1 242 163.9 246.8C169.1 250.5 176 250.2 181.9 247.4L182.1 247.9C186.9 311.7 187.1 375.8 182.9 439.7C131.4 455.3 75.3001 455.6 23.6001 440.7C21.3001 440 18.8 439.2 17.3 437.3C15.4 434.9 15.5 431.5 15.8 428.5C20.4 371.3 21.7 317.8 19.4 260.4L20.1001 258.6C22.0001 259.8 24.2001 260.4 26.6001 260.4C32.1001 260.3 36.9001 256.4 40.1001 251.9C49.4001 239.1 49.8 222.3 51.9 206.6C52.9 199.2 54.6 191.4 59.9 186.3C65.4 181.1 75.5001 180.3 79.6001 186.5Z" fill="#F7E1CB"/>
<path d="M9.00005 240.5C4.30005 223.4 2.20004 205.7 2.70004 188C3.10004 174.4 5.30005 160.4 12.8001 149C20.3001 137.6 36.1 128.9 49.4 131.6C73.3 130.3 97.2001 129 121.2 127.8C134 127.1 147.1 126.4 159.6 129.2C172.2 131.9 184.4 138.6 191.2 149.5C196 157.2 197.6 166.5 198.6 175.6C200 188.4 200.1 201.3 199 214.1C198.1 223.8 196.2 233.8 190 241.3C187.9 243.8 185.1 245.9 182 247.4C176.1 250.2 169.3 250.5 164 246.8C157.2 242 155.5 232.6 156.1 224.3C156.8 216 159.2 207.8 158.3 199.5C157.4 190.7 152 181.9 143.8 178.7C135.5 175.5 124.6 179.3 121.5 187.6C120.4 190.7 120.3 194.1 119.8 197.4C118.4 206.5 112.6 215.3 103.9 218.2C95.2 221.1 84.1 216.4 81.9 207.5C80.2 200.6 83.6001 192.4 79.7001 186.5C75.6001 180.3 65.5001 181.1 60.1001 186.3C54.8001 191.5 53.1001 199.3 52.1001 206.6C50.0001 222.2 49.6001 239.1 40.3001 251.9C37.0001 256.4 32.3001 260.3 26.8001 260.4C24.4001 260.4 22.2001 259.8 20.3001 258.6C14.5001 255.1 10.9 247.4 9.00005 240.5Z" fill="#F2EDE9"/>
<path d="M118 21.2998C132.3 35.6998 139.4 57.0998 136.5 77.1998C134.4 91.4998 126.6 105.9 113.3 111.4C99.9 117 83.3 111.8 74 100.7C64.7 89.4998 62.4 73.4998 66.4 59.4998C69.1 50.1998 74.2 41.8998 79.2 33.6998C85.6 23.1998 92.1 12.7998 98.5 2.2998C103.9 9.6998 111.6 14.8998 118 21.2998Z" fill="#FDA91B"/>
<path d="M49.4 131.6C36.1 128.9 20.3001 137.6 12.8001 149C5.30005 160.4 3.20004 174.4 2.70004 188C2.20004 205.7 4.30005 223.5 9.00005 240.5C10.9 247.4 14.5 255.1 20.2 258.5C22.1 259.7 24.3 260.3 26.7 260.3C32.2 260.2 37 256.3 40.2 251.8C49.5 239 49.9 222.2 52 206.5C53 199.1 54.7 191.3 60 186.2C65.3 181 75.4001 180.2 79.6001 186.4C83.6001 192.3 80.1 200.5 81.8 207.4C84 216.3 95.1 221 103.8 218.1C112.5 215.2 118.2 206.4 119.7 197.3C120.2 194 120.3 190.6 121.4 187.5C124.5 179.2 135.4 175.4 143.7 178.6C152 181.8 157.3 190.5 158.2 199.4C159.1 207.7 156.6 215.9 156 224.2C155.4 232.5 157.1 241.9 163.9 246.7C169.1 250.4 176 250.1 181.9 247.3C184.9 245.9 187.7 243.8 189.9 241.2C196.1 233.8 198 223.7 198.9 214C200.1 201.2 199.9 188.3 198.5 175.5C197.5 166.4 195.9 157.2 191.1 149.4C184.4 138.4 172.1 131.8 159.5 129.1C146.9 126.4 133.9 127 121.1 127.7C97.2001 129.1 73.3 130.4 49.4 131.6Z" stroke="black" stroke-width="4" stroke-miterlimit="10" stroke-linecap="round" stroke-linejoin="round"/>
<path d="M19.4998 260.4C21.7998 317.8 20.3998 371.2 15.8998 428.5C15.6998 431.5 15.4998 434.9 17.3998 437.3C18.8998 439.2 21.3998 440 23.6998 440.7C75.3998 455.6 131.5 455.3 183 439.7C187.2 375.9 187 311.7 182.2 247.9" stroke="black" stroke-width="4" stroke-miterlimit="10" stroke-linecap="round" stroke-linejoin="round"/>
<path d="M99.8999 124.7C99.8999 121.1 99.8999 117.6 99.8999 114" stroke="black" stroke-width="4" stroke-miterlimit="10" stroke-linecap="round" stroke-linejoin="round"/>
<path d="M98.5999 2.3C98.4999 2.2 98.3999 2.1 98.3999 2" stroke="black" stroke-width="4" stroke-miterlimit="10" stroke-linecap="round" stroke-linejoin="round"/>
<path d="M98.6001 2.2998C92.2001 12.7998 85.7001 23.1998 79.3001 33.6998C74.2001 41.8998 69.1001 50.2998 66.5001 59.4998C62.5001 73.4998 64.8001 89.4998 74.1001 100.7C83.4001 111.9 100 117 113.4 111.4C126.7 105.9 134.6 91.4998 136.6 77.1998C139.5 57.0998 132.5 35.6998 118.1 21.2998C111.6 14.8998 103.9 9.6998 98.6001 2.2998Z" stroke="black" stroke-width="4" stroke-miterlimit="10" stroke-linecap="round" stroke-linejoin="round"/>
<path d="M98.8001 2C98.7001 2.1 98.7001 2.2 98.6001 2.3" stroke="black" stroke-width="4" stroke-miterlimit="10" stroke-linecap="round" stroke-linejoin="round"/>
<path d="M98.5999 36.2002C90.3999 50.1002 84.7999 65.6002 82.0999 81.5002C81.6999 83.9002 81.3999 86.3002 81.3999 88.8002C81.6999 97.9002 88.7999 106.3 97.5999 108.2C104.7 109.7 112.4 107.3 117.5 102.2C122.6 97.1002 125.1 89.5002 124.2 82.4002C123.4 75.2002 119.6 68.8002 115.9 62.6002C110.5 53.6002 105.1 44.6002 98.2999 36.6002" fill="#E8921B"/>
<g opacity="0.38">
<path opacity="0.38" d="M100.9 65.9004C97.8002 71.3004 95.4002 77.1004 93.8002 83.0004C92.6002 87.6004 91.8002 92.6004 93.3002 97.2004C94.8002 101.8 99.1002 105.7 103.9 105.3C107.7 105 111 102 112.4 98.4004C113.8 94.8004 113.6 90.8004 112.7 87.0004C110.8 79.4004 106.2 72.8004 101.7 66.4004" fill="white"/>
</g>
<path d="M81.2998 299.6C84.3998 309.7 95.5998 316.7 106.1 315C108.2 314.7 110.3 314 112.2 313.1C117.6 310.5 121.9 305.5 123.6 299.7" stroke="black" stroke-width="4" stroke-miterlimit="10" stroke-linecap="round" stroke-linejoin="round"/>
<path opacity="0.39" d="M57.5761 296.062C63.925 296.922 69.48 294.601 69.9836 290.879C70.4872 287.157 65.7487 283.444 59.3999 282.585C53.0511 281.726 47.496 284.046 46.9924 287.768C46.4888 291.49 51.2273 295.203 57.5761 296.062Z" fill="#FF38F8"/>
<path opacity="0.39" d="M146.441 302.922C152.774 301.953 157.447 298.157 156.879 294.445C156.31 290.733 150.716 288.509 144.383 289.478C138.05 290.448 133.377 294.243 133.945 297.955C134.514 301.668 140.108 303.891 146.441 302.922Z" fill="#FF38F8"/>
<path d="M66.8 276.9C71.384 276.9 75.1 273.184 75.1 268.6C75.1 264.016 71.384 260.3 66.8 260.3C62.216 260.3 58.5 264.016 58.5 268.6C58.5 273.184 62.216 276.9 66.8 276.9Z" fill="black"/>
<path d="M137.1 280.8C141.684 280.8 145.4 277.084 145.4 272.5C145.4 267.916 141.684 264.2 137.1 264.2C132.516 264.2 128.8 267.916 128.8 272.5C128.8 277.084 132.516 280.8 137.1 280.8Z" fill="black"/>
<g opacity="0.37">
<path opacity="0.37" d="M53.7999 148.6C46.3999 151.2 41.2999 158.1 38.7999 165.5C36.2999 172.9 36.1999 180.8 35.9999 188.6C35.7999 198.3 35.5999 208 35.4999 217.7C35.2999 226.8 35.0999 236.1 31.8999 244.5C30.4999 248.3 27.9999 252.2 23.9999 253C17.3999 254.3 12.8999 246.4 11.1999 239.9C6.59994 222.8 4.89995 205 6.09995 187.3C7.09995 173.3 10.2 158.8 19.3 148.1C28.4 137.4 44.7999 132 56.9999 138.9C56.5999 142.2 55.5 145.3 53.7 148.1" fill="#C1B9B2"/>
</g>
<g opacity="0.24">
<path opacity="0.24" d="M23.1998 265.7C31.2998 267.5 40.3998 264.2 45.2998 257.5C34.3998 285.8 39.1998 317.3 40.9998 347.6C42.6998 376.4 41.2998 405.4 36.9998 434C36.7998 435 36.5998 436.2 35.6998 436.8C34.6998 437.5 33.3998 437.1 32.2998 436.8C27.2998 435.1 22.2998 433.4 17.2998 431.7C25.8998 407 25.7998 380.2 25.4998 354C25.1998 325.2 24.9998 296.4 24.6998 267.6" fill="#C1B9B2"/>
</g>
</svg>
