<svg width="43" height="147" viewBox="0 0 43 147" fill="none" xmlns="http://www.w3.org/2000/svg">
<path d="M22.7796 146.48C21.2461 134.25 20.3914 121.945 20.2196 109.62C19.9996 97.3 20.6296 85 21.6196 72.69C22.6096 60.38 24.0896 48.16 26.1296 36C28.1766 23.8598 30.8907 11.8416 34.2596 0L34.4496 0.05C31.3441 11.9461 28.8971 24.0044 27.1196 36.17C25.2796 48.3233 23.9796 60.5333 23.2196 72.8C22.4396 85.06 22.2696 97.34 22.2196 109.61C22.1696 121.88 22.5096 134.17 22.9796 146.47L22.7796 146.48Z" fill="#1E6F5D"/>
<path d="M25.2501 102.45C25.8501 100.33 29.5301 87.57 36.8701 77.1C38.8101 74.33 42.0401 70.25 42.3701 71.1C42.7801 72.16 38.0701 79.84 33.3701 90.92C25.1001 110.21 22.7501 125.76 21.7701 125.64C20.7901 125.52 22.0001 113.84 25.2501 102.45Z" fill="#1E6F5D"/>
<path d="M25.1995 102.43C25.8495 100.05 26.6295 97.7 27.4495 95.37C28.2695 93.04 29.1395 90.72 30.1195 88.44C32.0463 83.8551 34.521 79.5202 37.4895 75.53C38.2395 74.53 39.0195 73.53 39.8495 72.64C40.2637 72.1623 40.7044 71.7083 41.1695 71.28C41.4219 71.0261 41.7252 70.8284 42.0595 70.7C42.1532 70.6734 42.2528 70.6754 42.3454 70.7057C42.438 70.7359 42.5195 70.7932 42.5795 70.87C42.6235 70.9358 42.651 71.0113 42.6595 71.09C42.6677 71.1463 42.6677 71.2036 42.6595 71.26C42.6453 71.4397 42.6118 71.6174 42.5595 71.79C42.1207 72.9621 41.5994 74.1016 40.9995 75.2L39.3195 78.51C37.0795 82.89 34.9995 87.38 33.1695 92C31.3395 96.62 29.6895 101.23 28.1695 105.92C26.6495 110.61 25.3595 115.36 24.0695 120.13C23.7495 121.32 23.4295 122.51 23.0695 123.71C22.9008 124.335 22.6869 124.946 22.4295 125.54C22.3891 125.637 22.3352 125.728 22.2695 125.81C22.2299 125.878 22.1792 125.939 22.1195 125.99C22.0539 126.047 21.9778 126.09 21.8954 126.118C21.813 126.145 21.7261 126.156 21.6395 126.15C21.4656 126.121 21.3088 126.028 21.1995 125.89C21.1496 125.819 21.1093 125.742 21.0795 125.66C21.044 125.56 21.0205 125.456 21.0095 125.35C20.963 125.019 20.9396 124.685 20.9395 124.35C21.0347 121.855 21.3188 119.372 21.7895 116.92C22.2195 114.48 22.7295 112.06 23.2995 109.65C23.8695 107.24 24.4995 104.8 25.1995 102.43ZM25.2995 102.43C23.9992 107.21 23.0566 112.08 22.4795 117C22.1519 119.424 21.9716 121.865 21.9395 124.31C21.9404 124.591 21.9638 124.872 22.0095 125.15C22.0056 125.197 22.0056 125.243 22.0095 125.29C21.9869 125.259 21.96 125.233 21.9295 125.21C21.871 125.191 21.8079 125.191 21.7495 125.21C21.3895 125.21 21.4795 125.34 21.4795 125.28L21.5495 125.15C21.7735 124.607 21.9606 124.049 22.1095 123.48C22.4495 122.3 22.7595 121.11 23.1095 119.91C25.5142 110.304 28.7153 100.915 32.6795 91.84C34.6795 87.31 36.8795 82.84 39.0495 78.44C40.1946 76.2711 41.1967 74.0296 42.0495 71.73C42.0866 71.6066 42.1068 71.4788 42.1095 71.35C42.1095 71.3 42.1095 71.26 42.1095 71.3C42.1095 71.34 42.2595 71.36 42.2095 71.36C41.9842 71.4859 41.7786 71.6442 41.5995 71.83C41.1795 72.25 40.7795 72.71 40.3895 73.18C39.6195 74.18 38.8895 75.12 38.1695 76.11C35.3287 80.0903 32.8266 84.3017 30.6895 88.7C28.4951 93.1207 26.6916 97.725 25.2995 102.46V102.43Z" fill="#231F20"/>
<path d="M17.4293 66C16.8293 63.88 13.1393 51.13 5.80931 40.65C3.86931 37.88 0.639306 33.8 0.309306 34.65C-0.110694 35.71 4.60931 43.38 9.30931 54.46C17.6293 73.75 19.9993 89.31 20.9993 89.18C21.9993 89.05 20.6393 77.4 17.4293 66Z" fill="#1E6F5D"/>
<path d="M17.3797 66C15.9898 61.2721 14.1896 56.6746 11.9997 52.26C9.86494 47.8318 7.36286 43.5903 4.51973 39.58C3.79973 38.58 3.06973 37.58 2.29973 36.65C1.91986 36.1827 1.51598 35.7354 1.08973 35.31C0.913259 35.1212 0.70723 34.9625 0.479731 34.84C0.479731 34.84 0.539731 34.84 0.569731 34.78C0.599731 34.72 0.569731 34.78 0.569731 34.78C0.568809 34.9091 0.589079 35.0374 0.629731 35.16C1.48442 37.4556 2.48651 39.6936 3.62973 41.86C5.81973 46.35 7.99973 50.78 9.99973 55.31C13.9655 64.3874 17.1666 73.78 19.5697 83.39C19.8797 84.58 20.1897 85.78 20.5197 86.95C20.6717 87.5189 20.8621 88.0769 21.0897 88.62C21.1069 88.6695 21.1304 88.7166 21.1597 88.76C21.1597 88.82 21.2397 88.71 20.8897 88.68C20.8246 88.6784 20.7609 88.6996 20.7097 88.74C20.6397 88.74 20.6197 88.83 20.6197 88.81C20.6197 88.79 20.6197 88.81 20.6197 88.81C20.6235 88.76 20.6235 88.7099 20.6197 88.66C20.665 88.3856 20.6884 88.1081 20.6897 87.83C20.658 85.3813 20.4777 82.9368 20.1497 80.51C19.5851 75.6117 18.6592 70.7618 17.3797 66ZM17.4797 66C18.1797 68.37 18.7697 70.77 19.3397 73.17C19.9097 75.57 20.4197 78 20.8497 80.44C21.317 82.8919 21.5978 85.3757 21.6897 87.87C21.6976 88.2044 21.6776 88.5389 21.6297 88.87C21.6186 88.9724 21.5951 89.0732 21.5597 89.17C21.5256 89.2496 21.4855 89.3265 21.4397 89.4C21.328 89.5404 21.1672 89.6333 20.9897 89.66C20.9045 89.6684 20.8185 89.6585 20.7374 89.6309C20.6563 89.6033 20.5821 89.5586 20.5197 89.5C20.4632 89.4464 20.4098 89.3896 20.3597 89.33C20.3024 89.2408 20.2522 89.1471 20.2097 89.05C19.9523 88.4563 19.7384 87.8447 19.5697 87.22C19.2197 86.03 18.9097 84.83 18.5697 83.64C17.2797 78.88 15.9797 74.13 14.4697 69.43C12.9597 64.73 11.3197 60.09 9.46973 55.51C7.61973 50.93 5.59973 46.46 3.33973 42.07L1.65973 38.77C1.05755 37.6693 0.536176 36.5263 0.0997311 35.35C0.0473194 35.1809 0.013782 35.0065 -0.000268901 34.83C-0.00902495 34.7703 -0.00902495 34.7097 -0.000268901 34.65C0.0082316 34.5713 0.0356816 34.4958 0.0797311 34.43C0.140517 34.3542 0.222069 34.2977 0.314418 34.2676C0.406767 34.2374 0.505911 34.2347 0.599731 34.26C0.933963 34.3884 1.23726 34.5861 1.48973 34.84C1.96167 35.2677 2.40905 35.7218 2.82973 36.2C3.64973 37.14 4.43973 38.1 5.18973 39.09C8.15821 43.0802 10.6329 47.4151 12.5597 52C13.5397 54.28 14.4297 56.59 15.2297 58.93C15.9997 61.27 16.8297 63.61 17.4797 66Z" fill="#231F20"/>
<path d="M20.2094 114.16C18.2094 113.1 19.0294 105.73 22.3694 100.61C25.2794 96.16 30.5194 92.82 32.1494 94.06C33.7794 95.3 31.2794 101.54 30.8894 102.48C28.1694 109 22.3694 115.32 20.2094 114.16Z" fill="white" stroke="#231F20" stroke-miterlimit="10"/>
<path d="M20.4595 114.14C22.2995 112.9 20.7895 105.64 16.9595 100.88C13.6195 96.75 8.06948 93.94 6.56948 95.34C5.06948 96.74 8.17948 102.7 8.65948 103.59C11.9995 109.79 18.4195 115.52 20.4595 114.14Z" fill="white" stroke="#231F20" stroke-miterlimit="10"/>
<path d="M20.7697 86.35C19.2997 85.56 19.8897 80.07 22.3797 76.26C24.5497 72.94 28.4497 70.44 29.6697 71.37C30.8897 72.3 28.9997 77 28.7297 77.65C26.6997 82.5 22.3797 87.22 20.7697 86.35Z" fill="white" stroke="#231F20" stroke-miterlimit="10"/>
<path d="M20.9996 86.34C22.3796 85.41 21.2496 80 18.3896 76.46C15.8996 73.37 11.7696 71.28 10.6496 72.32C9.52958 73.36 11.8496 77.81 12.2096 78.47C14.6596 83.1 19.4296 87.37 20.9996 86.34Z" fill="white" stroke="#231F20" stroke-miterlimit="10"/>
<path d="M21.8394 69.7C20.6394 68.93 21.5094 64.26 23.9094 61.16C25.9894 58.46 29.5094 56.59 30.4894 57.47C31.4694 58.35 29.5594 62.2 29.2594 62.78C27.1894 66.8 23.1694 70.56 21.8394 69.7Z" fill="white" stroke="#231F20" stroke-miterlimit="10"/>
<path d="M21.9998 69.71C23.2398 69.01 22.6398 64.29 20.4298 61.06C18.5098 58.25 15.1098 56.17 14.0798 56.99C13.0498 57.81 14.7298 61.78 14.9998 62.37C16.8298 66.5 20.6298 70.48 21.9998 69.71Z" fill="white" stroke="#231F20" stroke-miterlimit="10"/>
<path d="M22.8997 53.54C21.8097 52.83 22.5997 48.54 24.7797 45.75C26.6697 43.3 29.8697 41.59 30.7797 42.39C31.6897 43.19 29.9397 46.71 29.6697 47.23C27.7697 50.9 24.1097 54.32 22.8997 53.54Z" fill="white" stroke="#231F20" stroke-miterlimit="10"/>
<path d="M23.0501 53.54C24.1801 52.9 23.6301 48.61 21.6201 45.66C19.8701 43.1 16.7801 41.21 15.8401 41.96C14.9001 42.71 16.4401 46.31 16.6801 46.86C18.3401 50.62 21.8001 54.25 23.0501 53.54Z" fill="white" stroke="#231F20" stroke-miterlimit="10"/>
<path d="M24.7395 39.72C24.0695 39.15 24.9595 36.36 26.6595 34.65C28.1295 33.16 30.4195 32.28 30.9495 32.9C31.4795 33.52 29.9995 35.72 29.7995 36.05C28.2295 38.35 25.4795 40.34 24.7395 39.72Z" fill="white" stroke="#231F20" stroke-miterlimit="10"/>
<path d="M24.8401 39.73C25.6501 39.4 25.6501 36.47 24.5401 34.33C23.5901 32.46 21.6701 30.93 20.9801 31.33C20.2901 31.73 20.9801 34.33 21.1301 34.69C21.9301 37.38 23.9401 40.1 24.8401 39.73Z" fill="white" stroke="#231F20" stroke-miterlimit="10"/>
<path d="M25.9998 29.61C25.3198 29.04 26.2098 26.25 27.9098 24.54C29.3898 23.05 31.6798 22.17 32.2098 22.78C32.7398 23.39 31.2798 25.61 31.0498 25.94C29.4298 28.24 26.6898 30.23 25.9998 29.61Z" fill="white" stroke="#231F20" stroke-miterlimit="10"/>
<path d="M26.5696 29.69C27.3896 29.35 27.3796 26.42 26.2796 24.28C25.2796 22.41 23.3996 20.88 22.7096 21.28C22.0196 21.68 22.7096 24.28 22.8596 24.64C23.6596 27.33 25.6796 30.05 26.5696 29.69Z" fill="white" stroke="#231F20" stroke-miterlimit="10"/>
</svg>
