<svg width="383" height="467" viewBox="0 0 383 467" fill="none" xmlns="http://www.w3.org/2000/svg">
<path d="M128.2 389.8C128.9 387.1 132.9 386.2 135.5 387.5C139.7 389.5 141.7 395.2 139.4 399.2C137.1 403.2 131 404.4 127.5 401.4C124.2 398.4 124.5 392.3 128.2 389.8Z" fill="#F7F7F7"/>
<path d="M159.8 379.9C159.7 379.9 159.7 379.9 159.6 379.9C155 379 150.5 378 146 376.8C148.5 373.5 150.3 370 152 366.4L153.1 366.7C155.3 369.6 158.4 376.6 159.8 379.9Z" fill="#3FB0D8"/>
<path d="M2.80005 401.3C24.2 379.3 41.7 355.3 59.8 330.4C63.6 330 67.5 330.2 71.3 331L72.8 331.8C71.8 333.7 70.7001 335.5 69.6001 337.3L68.4 338.8C91.4 356.5 117.9 369.5 146 376.8C150.5 378 155.1 379 159.6 379.9L159.5 380.6C146.8 410.5 132.2 437.5 114.1 464.4H112.8C71.4 453.4 33.1 431.4 2.80005 401.3ZM139.5 399.1C141.8 395.1 139.8 389.3 135.6 387.4C132.9 386.2 129 387 128.3 389.7C124.6 392.2 124.3 398.3 127.7 401.3C131 404.4 137.2 403.2 139.5 399.1Z" fill="#2ABDFF"/>
<path d="M137.7 38.8L139.8 39.1C139.6 40.1 139.5 41.1 139.4 42.1C135.5 68.7 129.8 95.1 122.2 121L122.4 121.1C116.9 131.7 111.5 142.3 106.9 153.1C115.6 127 122.7 93.6 125.6 66.2C126.5 57.3 127.4 47.7 133 40.7C134.1 39.3 136.1 37.8 137.7 38.8Z" fill="#FECB94"/>
<path d="M154 17.6001L155.5 17.7001C155.4 18.6001 155.4 19.5001 155.3 20.4001C154.5 37.1001 151.3 53.8001 145.9 69.6001C139.8 87.5001 131 104.2 122.4 121L122.2 120.9C129.7 95.0001 135.5 68.7001 139.4 42.0001C139.5 41.0001 139.7 40.0001 139.8 39.0001C140.4 35.0001 141.2 30.9001 142.9 27.2001C145.1 22.8001 149 18.7001 154 17.6001Z" fill="#FECB94"/>
<path d="M175.1 116.5C178.5 118.7 181.4 121.8 183.1 125.4C187.4 134.8 185.9 145.8 184.4 156.1C179.2 191.8 175.8 228 180 263.8C181.5 276.7 184 289.6 183.8 302.6C183.6 315.6 180.3 329.1 171.6 338.8C168.4 342.4 164.5 345.4 161.4 349.2C157 354.5 154.7 360.6 152 366.6C150.4 370.2 148.6 373.7 146 377C118 369.7 91.4001 356.6 68.4001 339L69.6002 337.5C70.7002 335.7 71.8002 333.9 72.8002 332C84.7002 310.4 88.2001 284.9 89.7001 260.1C91.3001 233.2 90.9002 205.9 97.6002 179.8C100 170.7 103.2 161.9 106.9 153.2C111.5 142.3 116.9 131.8 122.4 121.2C131.1 104.4 139.9 87.6002 145.9 69.8002C151.3 53.9002 154.4 37.3002 155.3 20.6002C155.3 19.7002 155.4 18.8002 155.5 17.9002C155.9 12.5002 156.9 6.80018 161.4 4.10018C166.7 0.900184 173.9 4.10019 177.2 9.40019C180.5 14.7002 180.8 21.1002 181 27.3002C181.9 57.0002 181.5 87.0002 175.5 116.1L175.1 116.5Z" fill="#FECB94"/>
<path d="M111.4 255C121.2 236.7 131.1 218.2 137 198.3C143.5 176.5 145 153.5 149.9 131.3C151.2 125.6 152.9 119.4 157.6 115.9C162.7 112.1 169.6 113 175.1 116.5C178.5 118.7 181.4 121.8 183.1 125.4C187.4 134.8 185.9 145.8 184.4 156.1C179.2 191.8 175.8 228 180 263.8C181.5 276.7 184 289.6 183.8 302.6C183.6 315.6 180.3 329.1 171.6 338.8C168.4 342.4 164.5 345.4 161.4 349.2C157 354.5 154.7 360.6 152 366.6C150.4 370.2 148.6 373.7 146 377" stroke="black" stroke-width="5" stroke-miterlimit="10" stroke-linecap="round" stroke-linejoin="round"/>
<path d="M106.9 153.1C111.5 142.2 116.9 131.7 122.4 121.1C131.1 104.3 139.9 87.5001 145.9 69.7001C151.3 53.8001 154.4 37.2001 155.3 20.5001C155.3 19.6001 155.4 18.7001 155.5 17.8001C155.9 12.4001 156.9 6.70009 161.4 4.00009C166.7 0.800086 173.9 4.00009 177.2 9.30009C180.5 14.6001 180.8 21.0001 181 27.2001C181.9 56.9001 181.5 86.9001 175.5 116" stroke="black" stroke-width="5" stroke-miterlimit="10" stroke-linecap="round" stroke-linejoin="round"/>
<path d="M69.6001 337.3C70.7001 335.5 71.8001 333.7 72.8001 331.8C84.7001 310.2 88.2001 284.7 89.7001 259.9C91.3001 233 90.9001 205.7 97.6001 179.6C100 170.5 103.2 161.7 106.9 153" stroke="black" stroke-width="5" stroke-miterlimit="10" stroke-linecap="round" stroke-linejoin="round"/>
<path d="M61 332.8C63.4 334.8 65.9 336.8 68.4 338.8C91.4 356.5 117.9 369.5 146 376.8C150.5 378 155.1 379 159.6 379.9C159.7 379.9 159.7 379.9 159.8 379.9" stroke="black" stroke-width="5" stroke-miterlimit="10" stroke-linecap="round" stroke-linejoin="round"/>
<path d="M159.8 379.9C158.4 376.5 155.3 369.5 153 366.7" stroke="black" stroke-width="5" stroke-miterlimit="10" stroke-linecap="round" stroke-linejoin="round"/>
<path d="M59.8 330.4C63.6 330 67.5 330.2 71.3 331" stroke="black" stroke-width="5" stroke-miterlimit="10" stroke-linecap="round" stroke-linejoin="round"/>
<path d="M59.8 330.4C41.8 355.2 24.3 379.3 2.80005 401.3C33.1 431.4 71.4 453.4 112.7 464.4" stroke="black" stroke-width="5" stroke-miterlimit="10" stroke-linecap="round" stroke-linejoin="round"/>
<path d="M114 464.4C132.2 437.5 146.7 410.5 159.4 380.6" stroke="black" stroke-width="5" stroke-miterlimit="10" stroke-linecap="round" stroke-linejoin="round"/>
<path d="M128.2 389.8C128.2 389.9 128.1 390 128.1 390.2" stroke="black" stroke-width="5" stroke-miterlimit="10" stroke-linecap="round" stroke-linejoin="round"/>
<path d="M128.2 389.8C124.5 392.3 124.2 398.4 127.6 401.4C131.1 404.4 137.2 403.2 139.5 399.2C141.8 395.2 139.8 389.4 135.6 387.5C132.9 386.2 128.9 387 128.2 389.8Z" stroke="black" stroke-width="5" stroke-miterlimit="10" stroke-linecap="round" stroke-linejoin="round"/>
<path d="M128.6 389.5C128.5 389.6 128.3 389.6 128.2 389.7" stroke="black" stroke-width="5" stroke-miterlimit="10" stroke-linecap="round" stroke-linejoin="round"/>
<path d="M154 17.6001C149 18.6001 145.1 22.7001 143 27.3001C141.3 31.0001 140.5 35.0001 139.9 39.1001C139.7 40.1001 139.6 41.1001 139.5 42.1001C135.6 68.7001 129.9 95.1001 122.3 121" stroke="black" stroke-width="5" stroke-miterlimit="10" stroke-linecap="round" stroke-linejoin="round"/>
<path d="M137.7 38.8001C136.1 37.8001 134.1 39.2001 133 40.7001C127.4 47.7001 126.5 57.3001 125.6 66.2001C122.7 93.6001 115.7 127 106.9 153.1" stroke="black" stroke-width="5" stroke-miterlimit="10" stroke-linecap="round" stroke-linejoin="round"/>
<path d="M207.3 116.5C203.9 118.7 201 121.8 199.3 125.4C195 134.8 196.5 145.8 198 156.1C203.2 191.8 206.6 228 202.4 263.8C200.9 276.7 198.4 289.6 198.6 302.6C198.8 315.6 202.1 329.1 210.8 338.8C214 342.4 217.9 345.4 221 349.2C225.4 354.5 227.7 360.6 230.4 366.6C232 370.2 233.8 373.7 236.4 377C264.4 369.7 291 356.6 314 339L312.9 337.5C311.8 335.7 310.7 333.9 309.7 332C297.8 310.4 294.3 284.9 292.8 260.1C291.2 233.2 291.7 205.9 284.9 179.8C282.5 170.7 279.3 161.9 275.6 153.2C271 142.3 265.5 131.8 260.1 121.2C251.4 104.4 242.6 87.6002 236.6 69.8002C231.2 53.9002 228.1 37.3002 227.2 20.6002C227.2 19.7002 227.1 18.8002 227 17.9002C226.6 12.5002 225.5 6.80018 221.1 4.10018C215.8 0.900184 208.6 4.10019 205.3 9.40019C202 14.7002 201.7 21.1002 201.5 27.3002C200.6 57.0002 201 87.0002 207 116.1L207.3 116.5Z" fill="#FECB94"/>
<path d="M222.6 379.9C222.7 379.9 222.7 379.9 222.8 379.9C227.4 379 231.9 378 236.4 376.8C233.9 373.5 232.1 370 230.4 366.4L229.3 366.7C227.1 369.6 224 376.6 222.6 379.9Z" fill="#3FB0D8"/>
<path d="M222.8 379.9L222.9 380.6C235.6 410.5 250.2 437.5 268.3 464.4H269.6C310.9 453.4 349.2 431.4 379.5 401.3C358.4 379.6 341 355.9 323.2 331.4L321.3 332.8C318.9 334.8 316.4 336.8 313.9 338.8C290.9 356.5 264.4 369.5 236.3 376.8C231.9 378 227.3 379 222.8 379.9ZM242.9 399.1C240.6 395.1 242.6 389.3 246.8 387.4C249.5 386.2 253.4 387 254.2 389.7C257.8 392.2 258.2 398.3 254.8 401.3C251.3 404.4 245.2 403.2 242.9 399.1Z" fill="#2ABDFF"/>
<path d="M228.4 17.6001L226.9 17.7001C227 18.6001 227 19.5001 227.1 20.4001C227.9 37.1001 231.1 53.8001 236.5 69.6001C242.6 87.5001 251.4 104.2 260 121L260.2 120.9C252.7 95.0001 246.9 68.7001 243 42.0001C242.9 41.0001 242.7 40.0001 242.6 39.0001C242 35.0001 241.2 30.9001 239.5 27.2001C237.3 22.8001 233.4 18.7001 228.4 17.6001Z" fill="#FECB94"/>
<path d="M244.7 38.8L242.6 39.1C242.8 40.1 242.9 41.1 243 42.1C246.9 68.7 252.6 95.1 260.2 121L260 121.1C265.5 131.7 270.9 142.3 275.5 153.1C266.8 127 259.7 93.6 256.8 66.2C255.9 57.3 255 47.7 249.4 40.7C248.3 39.3 246.3 37.8 244.7 38.8Z" fill="#FECB94"/>
<path d="M254.2 389.8C253.5 387.1 249.5 386.2 246.8 387.5C242.6 389.5 240.6 395.2 242.9 399.2C245.2 403.2 251.3 404.4 254.8 401.4C258.2 398.4 257.8 392.3 254.2 389.8Z" fill="#F7F7F7"/>
<path d="M311.1 331L309.6 331.8C310.6 333.7 311.7 335.5 312.8 337.3L313.9 338.8C316.4 336.9 318.9 334.9 321.3 332.8L323.2 331.4C323 331.1 322.7 330.8 322.5 330.4C318.8 330.1 314.9 330.3 311.1 331Z" fill="#2ABDFF"/>
<path d="M271 255C261.2 236.7 251.3 218.2 245.4 198.3C238.9 176.5 237.4 153.5 232.5 131.3C231.2 125.6 229.5 119.4 224.8 115.9C219.7 112.1 212.8 113 207.3 116.5C203.9 118.7 201 121.8 199.3 125.4C195 134.8 196.5 145.8 198 156.1C203.2 191.8 206.6 228 202.4 263.8C200.9 276.7 198.4 289.6 198.6 302.6C198.8 315.6 202.1 329.1 210.8 338.8C214 342.4 217.9 345.4 221 349.2C225.4 354.5 227.7 360.6 230.4 366.6C232 370.2 233.8 373.7 236.4 377" stroke="black" stroke-width="5" stroke-miterlimit="10" stroke-linecap="round" stroke-linejoin="round"/>
<path d="M275.5 153.1C270.9 142.2 265.4 131.7 260 121.1C251.3 104.3 242.5 87.5001 236.5 69.7001C231.1 53.8001 228 37.2001 227.1 20.5001C227.1 19.6001 227 18.7001 226.9 17.8001C226.5 12.4001 225.4 6.70009 221 4.00009C215.7 0.800086 208.5 4.00009 205.2 9.30009C201.9 14.6001 201.6 21.0001 201.4 27.2001C200.5 56.9001 200.9 86.9001 206.9 116" stroke="black" stroke-width="5" stroke-miterlimit="10" stroke-linecap="round" stroke-linejoin="round"/>
<path d="M312.8 337.3C311.7 335.5 310.6 333.7 309.6 331.8C297.7 310.2 294.2 284.7 292.7 259.9C291.1 233 291.6 205.7 284.8 179.6C282.4 170.5 279.2 161.7 275.5 153" stroke="black" stroke-width="5" stroke-miterlimit="10" stroke-linecap="round" stroke-linejoin="round"/>
<path d="M321.4 332.8C319 334.8 316.5 336.8 314 338.8C291 356.5 264.5 369.5 236.4 376.8C231.9 378 227.3 379 222.8 379.9C222.7 379.9 222.7 379.9 222.6 379.9" stroke="black" stroke-width="5" stroke-miterlimit="10" stroke-linecap="round" stroke-linejoin="round"/>
<path d="M222.6 379.9C224 376.5 227.1 369.5 229.4 366.7" stroke="black" stroke-width="5" stroke-miterlimit="10" stroke-linecap="round" stroke-linejoin="round"/>
<path d="M322.6 330.4C318.7 330 314.9 330.2 311.1 331" stroke="black" stroke-width="5" stroke-miterlimit="10" stroke-linecap="round" stroke-linejoin="round"/>
<path d="M322.6 330.4C322.8 330.7 323.1 331 323.3 331.4C341.1 355.9 358.4 379.6 379.6 401.3C349.3 431.4 311 453.4 269.7 464.4" stroke="black" stroke-width="5" stroke-miterlimit="10" stroke-linecap="round" stroke-linejoin="round"/>
<path d="M268.3 464.4C250.1 437.5 235.6 410.5 222.9 380.6" stroke="black" stroke-width="5" stroke-miterlimit="10" stroke-linecap="round" stroke-linejoin="round"/>
<path d="M254.2 389.8C254.2 389.9 254.3 390 254.3 390.2" stroke="black" stroke-width="5" stroke-miterlimit="10" stroke-linecap="round" stroke-linejoin="round"/>
<path d="M254.2 389.8C257.8 392.3 258.2 398.4 254.8 401.4C251.3 404.4 245.2 403.2 242.9 399.2C240.6 395.2 242.6 389.4 246.8 387.5C249.5 386.2 253.5 387 254.2 389.8Z" stroke="black" stroke-width="5" stroke-miterlimit="10" stroke-linecap="round" stroke-linejoin="round"/>
<path d="M253.8 389.5C253.9 389.6 254.1 389.6 254.2 389.7" stroke="black" stroke-width="5" stroke-miterlimit="10" stroke-linecap="round" stroke-linejoin="round"/>
<path d="M228.4 17.6001C233.4 18.6001 237.2 22.7001 239.4 27.3001C241.1 31.0001 241.9 35.0001 242.5 39.1001C242.7 40.1001 242.8 41.1001 242.9 42.1001C246.8 68.7001 252.5 95.1001 260.1 121" stroke="black" stroke-width="5" stroke-miterlimit="10" stroke-linecap="round" stroke-linejoin="round"/>
<path d="M244.7 38.8001C246.3 37.8001 248.3 39.2001 249.4 40.7001C255 47.7001 255.9 57.3001 256.8 66.2001C259.7 93.6001 266.7 127 275.5 153.1" stroke="black" stroke-width="5" stroke-miterlimit="10" stroke-linecap="round" stroke-linejoin="round"/>
</svg>
