<svg width="39" height="39" viewBox="0 0 39 39" fill="none" xmlns="http://www.w3.org/2000/svg">
<g clip-path="url(#clip0_1477:176)">
<path d="M28.3399 0.140036C27.4299 -0.539964 23.5099 2.14004 21.1499 5.93004C16.9999 12.66 18.1999 22.28 20.7799 23C21.8699 23.31 23.0899 22 23.4199 21.68C25.7499 19.26 24.4999 16 24.9999 11.28C25.6299 4.38003 29.2899 0.850036 28.3399 0.140036Z" fill="white"/>
<path d="M28.311 0.170019C27.831 -0.0699811 27.241 0.230019 26.771 0.460019C26.2872 0.72807 25.8287 1.03934 25.401 1.39002C24.5507 2.10035 23.7704 2.89063 23.071 3.75002C21.6809 5.45448 20.5889 7.38161 19.841 9.45002C19.0556 11.5234 18.623 13.7137 18.561 15.93C18.5291 17.0404 18.623 18.1508 18.841 19.24C19.0039 20.3226 19.4221 21.351 20.061 22.24C20.1982 22.4388 20.3873 22.5961 20.6077 22.6948C20.8281 22.7936 21.0714 22.83 21.311 22.8C21.8018 22.6647 22.2517 22.4105 22.621 22.06C23.4381 21.3847 24.0194 20.4672 24.281 19.44C24.5064 18.3791 24.5805 17.2917 24.501 16.21C24.501 15.11 24.441 13.98 24.501 12.85C24.5504 10.5734 24.9971 8.32289 25.821 6.20002C26.2421 5.15658 26.7229 4.13823 27.261 3.15002C27.531 2.66002 27.781 2.15002 28.031 1.66002C28.1554 1.41316 28.2656 1.15942 28.361 0.900019C28.441 0.650019 28.531 0.330019 28.311 0.170019ZM28.361 0.110019C28.631 0.320019 28.531 0.680019 28.461 0.930019C28.3768 1.20048 28.2732 1.4645 28.151 1.72002C27.921 2.23002 27.661 2.72002 27.451 3.24002C26.0901 6.2701 25.3424 9.5396 25.251 12.86C25.251 13.96 25.251 15.07 25.251 16.19C25.32 17.3394 25.2359 18.4928 25.001 19.62C24.6664 20.7725 23.964 21.7839 23.001 22.5C22.5451 22.909 21.984 23.1826 21.381 23.29C21.0369 23.3449 20.6844 23.2814 20.381 23.11C20.1184 22.9467 19.8879 22.7365 19.701 22.49C19.0861 21.5205 18.6903 20.4284 18.541 19.29C18.358 18.1793 18.2644 17.0557 18.261 15.93C18.237 13.6681 18.5574 11.4156 19.211 9.25002C19.91 7.07431 21.0969 5.08708 22.681 3.44002C23.4607 2.62216 24.3181 1.88201 25.241 1.23002C25.7162 0.910269 26.2105 0.619732 26.721 0.360019C26.9606 0.203435 27.231 0.100088 27.5139 0.0569591C27.7968 0.0138303 28.0857 0.0319243 28.361 0.110019Z" fill="#231F20"/>
<path d="M20.4213 23C20.4213 20.93 14.9013 19.43 9.05128 17.87C4.98128 16.78 3.35128 16.8 2.16128 17.72C0.491285 19 0.281285 21.68 0.261285 22C0.183916 22.4546 0.288048 22.9214 0.551285 23.3C0.790622 23.5071 1.07148 23.6607 1.37504 23.7504C1.67859 23.8401 1.99781 23.8638 2.31128 23.82C3.7671 23.9928 5.21015 24.26 6.63128 24.62C10.9913 25.19 11.3213 26.42 13.8913 26.38C16.8613 26.34 20.3813 24.64 20.4213 23Z" fill="white"/>
<path d="M20.3803 23C20.3601 22.7578 20.2869 22.523 20.1659 22.3122C20.045 22.1014 19.8792 21.9197 19.6803 21.78C19.2952 21.4675 18.8718 21.2054 18.4203 21C17.5134 20.597 16.5774 20.2627 15.6203 20L9.89034 18.42C8.89034 18.14 7.98034 17.84 7.02034 17.6C6.07498 17.3247 5.09497 17.1866 4.11034 17.19C3.62789 17.1925 3.15241 17.3054 2.72034 17.52C2.29539 17.7455 1.92636 18.0632 1.64034 18.45C1.06562 19.2391 0.700866 20.1613 0.580342 21.13C0.491437 21.5979 0.471225 22.0763 0.520342 22.55C0.541781 22.7459 0.620607 22.9311 0.746924 23.0823C0.873241 23.2335 1.04142 23.3441 1.23034 23.4C1.68919 23.5047 2.16187 23.5351 2.63034 23.49C3.14594 23.517 3.65803 23.5906 4.16034 23.71C5.11483 23.9599 6.08316 24.1536 7.06034 24.29C8.08139 24.4216 9.08652 24.6561 10.0603 24.99C10.963 25.378 11.888 25.7119 12.8303 25.99C13.7774 26.1449 14.7433 26.1449 15.6903 25.99C16.6614 25.8392 17.6048 25.546 18.4903 25.12C18.9371 24.9117 19.3487 24.635 19.7103 24.3C20.0898 23.9668 20.3291 23.5024 20.3803 23ZM20.4603 23C20.4026 23.5134 20.1568 23.9872 19.7703 24.33C19.4006 24.6756 18.995 24.9807 18.5603 25.24C17.6835 25.7511 16.7417 26.1413 15.7603 26.4C14.759 26.6794 13.7129 26.7609 12.6803 26.64C11.6919 26.4144 10.7249 26.1032 9.79034 25.71C8.87877 25.4207 7.94591 25.2034 7.00034 25.06C5.9879 24.901 4.98606 24.6806 4.00034 24.4C3.53881 24.2765 3.06677 24.1961 2.59034 24.16C2.05541 24.1833 1.51992 24.1294 1.00034 24C0.710944 23.8975 0.457404 23.7135 0.270342 23.47C0.0982154 23.2159 0.0043459 22.9169 0.000341973 22.61C-0.0207131 22.0845 0.0365814 21.5587 0.170342 21.05C0.373369 20.0444 0.800642 19.0976 1.42034 18.28C1.73883 17.8673 2.14095 17.5265 2.60034 17.28C3.06696 17.056 3.57342 16.9268 4.09034 16.9C6.12013 16.9394 8.13653 17.2385 10.0903 17.79C12.036 18.2534 13.95 18.8413 15.8203 19.55C16.7592 19.9045 17.6715 20.3255 18.5503 20.81C18.9914 21.0584 19.4067 21.3498 19.7903 21.68C19.9892 21.84 20.1518 22.0404 20.2673 22.268C20.3828 22.4955 20.4486 22.7451 20.4603 23Z" fill="#231F20"/>
<path d="M4.41111 20.25C5.59951 20.225 6.78242 20.4182 7.90111 20.82C8.45111 21.03 8.98111 21.34 9.54111 21.53C10.1037 21.7079 10.6836 21.8253 11.2711 21.88C12.4445 22.011 13.6051 22.2385 14.7411 22.56C15.8801 22.9115 16.9742 23.3948 18.0011 24C17.9935 24.0044 17.9849 24.0067 17.9761 24.0067C17.9673 24.0067 17.9587 24.0044 17.9511 24C16.7642 23.9795 15.5834 23.8252 14.4311 23.54C13.2885 23.2352 12.1717 22.8406 11.0911 22.36C10.5565 22.1107 9.9966 21.9196 9.42111 21.79C8.85111 21.66 8.24111 21.67 7.66111 21.57C6.48993 21.3454 5.36873 20.9118 4.35111 20.29C4.34378 20.2798 4.33984 20.2676 4.33984 20.255C4.33984 20.2425 4.34378 20.2302 4.35111 20.22C4.35111 20.22 4.39111 20.25 4.41111 20.25Z" fill="#231F20"/>
<path d="M13.0012 6.29004C12.215 6.54985 11.5011 6.99127 10.9173 7.57851C10.3336 8.16576 9.89639 8.88229 9.64125 9.67004C8.64125 12.84 11.4312 16.2 13.5312 18.67C14.6912 20.05 18.7113 24.82 20.8612 23.81C22.5413 23.01 22.2013 19.08 22.0312 17.14C21.8413 14.97 21.5612 11.73 19.3912 10.24C18.4569 9.82141 17.6116 9.22733 16.9012 8.49004C16.1512 7.57004 16.1412 6.89004 15.3612 6.49004C14.63 6.12096 13.7842 6.04928 13.0012 6.29004Z" fill="white"/>
<path d="M12.9995 6.33C12.0777 6.63557 11.2678 7.20867 10.673 7.97626C10.0781 8.74384 9.72531 9.67115 9.65946 10.64C9.63849 11.5827 9.83705 12.5173 10.2395 13.37C10.632 14.2487 11.1111 15.0862 11.6695 15.87C12.2095 16.68 12.7995 17.47 13.4095 18.24C13.9982 19.0301 14.6291 19.7879 15.2995 20.51C15.9518 21.2427 16.6716 21.9123 17.4495 22.51C18.1768 23.1367 19.0562 23.5609 19.9995 23.74C20.2108 23.7582 20.4234 23.726 20.6198 23.6461C20.8163 23.5661 20.991 23.4406 21.1295 23.28C21.396 22.9197 21.5741 22.5018 21.6495 22.06C21.8206 21.1169 21.871 20.1558 21.7995 19.2C21.7995 18.2 21.6495 17.25 21.5495 16.28C21.4576 15.321 21.287 14.3711 21.0395 13.44C20.802 12.5366 20.3568 11.701 19.7395 11C19.4288 10.6618 19.0638 10.3778 18.6595 10.16C18.1998 9.92978 17.77 9.64434 17.3795 9.31C16.983 8.96327 16.6453 8.55465 16.3795 8.1C16.1733 7.66034 15.936 7.23593 15.6695 6.83C15.3121 6.51157 14.8745 6.29672 14.404 6.20861C13.9335 6.1205 13.4479 6.16247 12.9995 6.33ZM12.9995 6.26C13.4725 6.07057 13.988 6.01238 14.4914 6.09158C14.9948 6.17079 15.4674 6.38445 15.8595 6.71C16.1729 7.09837 16.457 7.5095 16.7095 7.94C16.9877 8.32418 17.3253 8.66171 17.7095 8.94C18.1197 9.20517 18.5512 9.43596 18.9995 9.63C19.4784 9.85383 19.9175 10.1545 20.2995 10.52C21.037 11.2722 21.5675 12.2023 21.8395 13.22C22.3277 15.1825 22.5729 17.1976 22.5695 19.22C22.613 20.2281 22.5188 21.2374 22.2895 22.22C22.1716 22.751 21.9204 23.2431 21.5595 23.65C21.362 23.8521 21.1195 24.0045 20.8519 24.0949C20.5842 24.1853 20.299 24.211 20.0195 24.17C19.0263 23.9179 18.1097 23.427 17.3495 22.74C16.5795 22.11 15.8795 21.41 15.1795 20.74C13.8195 19.29 12.4495 17.87 11.1795 16.28C10.5638 15.4782 10.053 14.6011 9.65946 13.67C9.24071 12.7292 9.0885 11.6914 9.21946 10.67C9.37868 9.65409 9.83441 8.70785 10.5295 7.95C11.1706 7.15809 12.0291 6.57071 12.9995 6.26Z" fill="#231F20"/>
<path d="M20.2804 23.54C19.1118 22.8014 18.1269 21.8062 17.4004 20.63C17.0604 20.03 16.8104 19.38 16.5004 18.78C16.1904 18.18 15.8104 17.61 15.4404 17.03C14.6852 15.8638 14.1403 14.5743 13.8304 13.22C13.5402 11.8563 13.5607 10.4447 13.8904 9.09001C13.901 9.08386 13.9131 9.08063 13.9254 9.08063C13.9377 9.08063 13.9497 9.08386 13.9604 9.09001C14.2404 10.44 14.5104 11.72 14.8404 12.99C15.0104 13.62 15.1404 14.26 15.3304 14.89L15.9004 16.8C16.0957 17.4423 16.3784 18.0547 16.7404 18.62C17.139 19.1614 17.5768 19.6728 18.0504 20.15C18.8965 21.1928 19.6557 22.3032 20.3204 23.47C20.3276 23.4796 20.3311 23.4915 20.3302 23.5035C20.3294 23.5156 20.3242 23.5268 20.3157 23.5354C20.3072 23.5439 20.2959 23.549 20.2839 23.5499C20.2719 23.5507 20.26 23.5472 20.2504 23.54H20.2804Z" fill="#231F20"/>
<path d="M19.2403 21.69C21.9703 16.84 23.3403 14.42 25.5503 12.97C27.2759 11.7639 29.3075 11.0706 31.4103 10.97C32.5203 10.97 35.9603 10.82 37.4103 13.09C37.6584 13.3941 37.8385 13.7477 37.9385 14.1272C38.0386 14.5067 38.0562 14.9031 37.9904 15.29C37.3604 17.29 33.2503 16.03 28.9003 18.96L25.7004 21.54C23.7704 23.08 23.3504 23.73 22.1004 24.4C20.8504 25.07 18.6103 26 18.0003 25.28C17.6203 24.85 18.0003 23.91 19.2403 21.69Z" fill="white"/>
<path d="M19.2106 21.67C20.3206 19.75 21.2606 17.74 22.4506 15.84C23.0421 14.8656 23.7809 13.9885 24.6406 13.24C25.5294 12.5233 26.5203 11.9436 27.5806 11.52C29.7176 10.7327 32.0345 10.5696 34.2606 11.05C35.3993 11.2494 36.4478 11.7981 37.2606 12.62C37.6289 13.0593 37.9289 13.5515 38.1506 14.08C38.2771 14.362 38.3297 14.6715 38.3034 14.9794C38.2772 15.2874 38.173 15.5835 38.0006 15.84C37.5998 16.2938 37.0632 16.6059 36.4706 16.73C35.9106 16.9 35.3706 16.99 34.8306 17.11C33.7582 17.3116 32.7045 17.6026 31.6806 17.98C30.6796 18.3614 29.7397 18.887 28.8906 19.54L26.2406 21.6C25.3606 22.28 24.5706 23 23.6906 23.73C22.7999 24.4469 21.7822 24.9897 20.6906 25.33C20.147 25.5168 19.583 25.6377 19.0106 25.69C18.7058 25.7237 18.3976 25.6718 18.1206 25.54C17.9793 25.4545 17.8696 25.3253 17.8083 25.172C17.7469 25.0186 17.7372 24.8494 17.7806 24.69C18.1244 23.6257 18.6051 22.6105 19.2106 21.67ZM19.2806 21.67C19.0106 22.16 18.7506 22.67 18.5106 23.14C18.2623 23.6381 18.0904 24.1708 18.0006 24.72C17.9779 24.8329 17.9919 24.95 18.0405 25.0543C18.089 25.1587 18.1697 25.2447 18.2706 25.3C18.5058 25.378 18.7569 25.3952 19.0006 25.35C19.5301 25.2553 20.0446 25.0905 20.5306 24.86C21.5302 24.4606 22.4536 23.8924 23.2606 23.18C24.0506 22.44 24.9206 21.69 25.7906 21C26.6606 20.31 27.5106 19.6 28.3906 18.92C29.3113 18.2497 30.321 17.7112 31.3906 17.32C32.4599 16.9514 33.5614 16.6835 34.6806 16.52C35.2206 16.43 35.7706 16.35 36.3006 16.24C36.8008 16.167 37.2657 15.9397 37.6306 15.59C37.7757 15.3886 37.8681 15.1541 37.8996 14.9079C37.931 14.6616 37.9004 14.4114 37.8106 14.18C37.6229 13.6734 37.3488 13.2031 37.0006 12.79C36.2666 11.9859 35.2776 11.4596 34.2006 11.3C32.0426 10.9252 29.822 11.2002 27.8206 12.09C26.8328 12.5238 25.9024 13.078 25.0506 13.74C24.2189 14.4357 23.4766 15.2318 22.8406 16.11C21.5348 17.8982 20.3457 19.7688 19.2806 21.71V21.67Z" fill="#231F20"/>
<path d="M21.2999 25.87C21.1199 26.71 17.2999 25.54 12.8699 27.34C10.2814 28.2337 8.06232 29.9605 6.55992 32.25C4.90992 35.07 5.16992 38.07 4.06992 38.19C3.39992 38.26 2.78992 37.19 2.67992 37.01C0.92992 34 3.73992 29.5 3.99992 29.1C5.35887 27.0106 7.29317 25.3589 9.56962 24.344C11.8461 23.3291 14.3675 22.9943 16.8299 23.38C19.1999 23.85 21.4399 25.21 21.2999 25.87Z" fill="white"/>
<path d="M21.3294 25.88C21.1994 26.2 20.8294 26.2 20.5794 26.24H19.7294C19.1694 26.24 18.6094 26.24 18.0494 26.32C16.9389 26.4169 15.8404 26.6212 14.7694 26.93C12.6531 27.5581 10.6726 28.5755 8.92937 29.93C8.0682 30.6105 7.32493 31.4281 6.72937 32.35C6.15502 33.2982 5.72371 34.3259 5.44937 35.4L4.99937 37.05C4.92506 37.3317 4.81764 37.6036 4.67937 37.86C4.60659 38.0088 4.48991 38.1318 4.34508 38.2123C4.20024 38.2927 4.03421 38.3268 3.86937 38.31C3.56565 38.2412 3.29215 38.0764 3.08937 37.84C2.88714 37.6308 2.70933 37.3993 2.55937 37.15C2.27159 36.6433 2.08163 36.0869 1.99937 35.51C1.83909 34.354 1.94862 33.1766 2.31937 32.07C2.65113 30.9682 3.12157 29.9131 3.71937 28.93C4.96401 26.9653 6.71553 25.3727 8.78937 24.32C10.8296 23.2401 13.1414 22.7812 15.4394 23C16.5792 23.1156 17.6933 23.4127 18.7394 23.88C19.2582 24.102 19.7596 24.3627 20.2394 24.66C20.4806 24.8097 20.7081 24.9803 20.9194 25.17C21.034 25.2527 21.1298 25.3587 21.2005 25.4811C21.2712 25.6034 21.3151 25.7394 21.3294 25.88ZM21.2594 25.88C21.2413 25.7487 21.1954 25.6228 21.1247 25.5107C21.0539 25.3986 20.9601 25.3029 20.8494 25.23C20.6394 25.0476 20.4116 24.8868 20.1694 24.75C19.6908 24.4665 19.1849 24.232 18.6594 24.05C17.6153 23.6792 16.5172 23.4832 15.4094 23.47C13.2186 23.4618 11.059 23.9897 9.11901 25.0076C7.17902 26.0255 5.51751 27.5026 4.27937 29.31C3.69045 30.2328 3.2074 31.219 2.83937 32.25C2.45152 33.2697 2.29112 34.3618 2.36937 35.45C2.42692 35.9917 2.58639 36.5176 2.83937 37C3.09937 37.46 3.45937 38 3.91937 38.07C4.37937 38.14 4.62937 37.5 4.78937 37C4.94937 36.5 5.04937 35.92 5.19937 35.37C5.46208 34.261 5.8548 33.1869 6.36937 32.17C6.93154 31.1602 7.66205 30.2538 8.52937 29.49C10.294 27.9996 12.3999 26.969 14.6594 26.49C15.7599 26.2768 16.8784 26.1696 17.9994 26.17H19.6894C19.9694 26.17 20.2494 26.17 20.5294 26.17C20.8294 26.12 21.1694 26.1 21.2594 25.86V25.88Z" fill="#231F20"/>
<path d="M14.2598 16.91L19.0998 24.34L14.2598 16.91Z" fill="white"/>
<path d="M14.2598 16.91L19.0998 24.34" stroke="#231F20" stroke-width="0.75" stroke-miterlimit="10"/>
<path d="M11.9996 13.62C11.5996 13.85 12.0796 15.62 13.1296 16.8C13.5696 17.3 14.3396 17.97 14.6396 17.8C14.9396 17.63 14.6396 16.69 14.4496 16.19C13.8896 14.69 12.4496 13.4 11.9996 13.62Z" fill="#380000" stroke="#231F20" stroke-width="0.75" stroke-miterlimit="10"/>
<path d="M13.6504 20.48C15.2171 21.9667 16.8037 23.4734 18.4104 25L13.6504 20.48Z" fill="white"/>
<path d="M13.6504 20.48C15.2171 21.9667 16.8037 23.4734 18.4104 25" stroke="#231F20" stroke-width="0.75" stroke-miterlimit="10"/>
<path d="M3.66992 31.48C4.10003 30.0233 4.93594 28.7192 6.07992 27.72C6.69459 27.2657 7.33572 26.8483 7.99992 26.47L9.86992 25.24C10.1899 25.05 10.5299 24.87 10.8699 24.69C11.2099 24.51 11.5899 24.42 11.9499 24.3L12.9999 24C13.3805 23.9388 13.7646 23.902 14.1499 23.89C15.6851 23.8669 17.1959 24.2758 18.5099 25.07V25.14C17.093 24.9359 15.6597 24.8689 14.2299 24.94C12.8159 24.9948 11.4161 25.2438 10.0699 25.68C9.37583 25.8972 8.72576 26.2358 8.14992 26.68C7.60086 27.1516 7.10462 27.6814 6.66992 28.26L3.75992 31.53H3.68992C3.68992 31.53 3.66992 31.5 3.66992 31.48Z" fill="#231F20"/>
<path d="M10.6905 17.15C10.3305 17.44 11.1005 19.09 12.3405 20.09C12.8605 20.5 13.7305 21.03 13.9905 20.81C14.2505 20.59 13.8205 19.72 13.5405 19.26C12.6905 17.89 11.0505 16.86 10.6905 17.15Z" fill="#380000" stroke="#231F20" stroke-width="0.75" stroke-miterlimit="10"/>
<path d="M17.3203 18.14L20.3203 23.95L17.3203 18.14Z" fill="white"/>
<path d="M17.3203 18.14L20.3203 23.95" stroke="#231F20" stroke-width="0.75" stroke-miterlimit="10"/>
<path d="M20.6401 23.3C19.4001 23.84 15.6401 25.45 15.5101 28.88C15.3701 31.64 17.6401 33.5 18.2201 33.93C19.6301 35 22.2201 36.06 23.2801 35.11C23.8101 34.64 23.5301 34.11 23.3501 28.88C23.2132 27.5487 23.2367 26.2058 23.4201 24.88C23.6401 23.93 23.9401 23.34 23.6401 22.98C23.0701 22.25 20.9401 23.17 20.6401 23.3Z" fill="white"/>
<path d="M20.6495 23.34C19.303 23.8735 18.1032 24.7202 17.1495 25.81C16.2345 26.8458 15.7639 28.2001 15.8395 29.58C15.9656 30.9973 16.61 32.3183 17.6495 33.29C18.692 34.2821 20.0029 34.9462 21.4195 35.2C21.7229 35.2838 22.0426 35.2892 22.3486 35.2158C22.6547 35.1423 22.9371 34.9924 23.1695 34.78C23.2705 34.4983 23.2981 34.1954 23.2495 33.9L23.1795 32.82C23.0695 31.37 22.9695 29.91 22.9395 28.45C22.9395 27.72 22.9395 26.98 22.9395 26.24C22.9523 25.8614 22.989 25.484 23.0495 25.11C23.1325 24.7326 23.2428 24.3616 23.3795 24C23.5283 23.7178 23.5876 23.3969 23.5495 23.08C23.4595 22.84 23.0795 22.76 22.7395 22.77C22.014 22.8317 21.3058 23.0248 20.6495 23.34ZM20.6495 23.27C21.3185 22.957 22.0239 22.7286 22.7495 22.59C22.954 22.535 23.1701 22.5397 23.3721 22.6035C23.5741 22.6673 23.7536 22.7875 23.8895 22.95C24.0251 23.342 24.0251 23.7681 23.8895 24.16C23.8195 24.52 23.7395 24.88 23.7095 25.16C23.6795 25.44 23.7095 25.86 23.7095 26.21L23.7895 28.38L23.9295 32.74C23.9295 33.11 23.9295 33.47 23.9295 33.85C23.9687 34.2789 23.8818 34.7099 23.6795 35.09C23.5348 35.2562 23.3588 35.3921 23.1614 35.4899C22.964 35.5878 22.7493 35.6456 22.5295 35.66C22.1399 35.6986 21.7466 35.6647 21.3695 35.56C19.9281 35.1686 18.6013 34.4383 17.4995 33.43C16.3239 32.4591 15.5245 31.1079 15.2395 29.61C15.1435 28.838 15.2383 28.0541 15.5155 27.3272C15.7927 26.6002 16.2438 25.9522 16.8295 25.44C17.9632 24.5108 19.2442 23.7774 20.6195 23.27H20.6495Z" fill="#231F20"/>
<path d="M15.6299 14C15.1999 14.15 15.3799 16 16.2099 17.32C16.5599 17.88 17.2099 18.67 17.5299 18.55C17.8499 18.43 17.7299 17.47 17.6199 16.94C17.2699 15.38 16.0699 13.86 15.6299 14Z" fill="#380000" stroke="#231F20" stroke-width="0.75" stroke-miterlimit="10"/>
<path d="M19.0907 23.4C19.558 22.12 20.3263 20.971 21.3307 20.05C21.8607 19.62 22.4507 19.26 22.9707 18.86C23.4907 18.46 23.9707 17.99 24.4907 17.53C24.9788 17.0586 25.5151 16.6396 26.0907 16.28C26.6519 15.8925 27.2478 15.5578 27.8707 15.28C29.1343 14.7326 30.4937 14.4403 31.8707 14.42C31.8848 14.4224 31.8976 14.4298 31.9068 14.4408C31.916 14.4518 31.9209 14.4657 31.9207 14.48C30.7107 15.1 29.5307 15.64 28.3707 16.21C27.2107 16.78 26.0007 17.39 24.8107 18C24.2191 18.2925 23.6733 18.6699 23.1907 19.12C22.7351 19.5996 22.314 20.1109 21.9307 20.65C21.0779 21.6567 20.1557 22.6024 19.1707 23.48C19.1605 23.4874 19.1482 23.4913 19.1357 23.4913C19.1231 23.4913 19.1109 23.4874 19.1007 23.48C19.1007 23.48 19.0807 23.42 19.0907 23.4Z" fill="#231F20"/>
</g>
<defs>
<clipPath id="clip0_1477:176">
<rect width="38.27" height="38.32" fill="white"/>
</clipPath>
</defs>
</svg>
