<svg width="227" height="113" viewBox="0 0 227 113" fill="none" xmlns="http://www.w3.org/2000/svg">
<g clip-path="url(#clip0)">
<path d="M128.602 35.4532C132.574 35.8644 142.203 36.3311 152.617 31.0442C164.838 24.849 170.372 14.6615 172.061 11.213C168.089 10.8018 158.46 10.3351 148.046 15.622C135.825 21.8172 130.29 32.0047 128.602 35.4532Z" fill="#3E9581"/>
<path d="M128.658 35.4182C132.971 35.5973 137.429 35.3271 141.677 34.3684C143.807 33.9178 145.913 33.3063 147.949 32.5229C149.975 31.728 151.999 30.8987 153.897 29.8057C154.875 29.3165 155.795 28.7242 156.738 28.1778C157.647 27.5626 158.578 26.9817 159.441 26.3093C160.338 25.6712 161.166 24.953 162.016 24.2577C162.822 23.5167 163.626 22.7642 164.385 21.9546C167.445 18.7847 169.941 15.0665 171.797 11.0766L172.04 11.5234C167.681 11.1837 163.28 11.488 159.02 12.3778C154.76 13.2791 150.653 14.8577 146.845 16.9403C145.867 17.4294 144.982 18.056 144.05 18.6139C143.165 19.2519 142.244 19.8442 141.393 20.5165C139.645 21.8269 138.012 23.2861 136.494 24.8595C133.423 27.995 130.778 31.6336 128.658 35.4182ZM128.556 35.4764C130.354 31.3029 132.839 27.6078 135.829 24.2659C138.83 20.9584 142.347 18.0845 146.268 15.9208C154.053 11.4902 163.292 9.76344 172.093 10.9023L172.549 10.9568L172.347 11.349C170.285 15.3172 167.662 18.9442 164.661 22.2172C161.636 25.4674 158.222 28.4096 154.347 30.6306C150.484 32.8629 146.216 34.3966 141.853 35.2295C137.445 36.0398 133.009 36.1949 128.556 35.4764Z" fill="black"/>
<path d="M-13.2137 101.464C2.86955 87.5068 35.4461 63.0265 83.4892 50.9433C125.941 40.2645 161.757 43.9765 182.026 47.6396" stroke="#3E9581" stroke-width="2" stroke-miterlimit="10" stroke-linecap="round"/>
<path d="M128.602 35.4531C136.095 31.8522 143.939 27.8121 152.019 23.2646C159.133 19.2638 165.814 15.2197 172.061 11.2129C170.215 14.9843 165.861 22.5544 157.128 28.3822C144.965 36.5316 132.471 35.819 128.602 35.4531Z" fill="#1E6F5D"/>
<path d="M128.545 35.4534C132.261 33.3484 135.876 31.5086 139.536 29.5075L150.47 23.5849C154.118 21.6069 157.79 19.6862 161.369 17.5936C164.96 15.5125 168.47 13.3054 171.911 10.9838L172.74 10.4266L172.313 11.3491C170.434 15.3967 167.961 19.1836 164.914 22.4799C161.867 25.7532 158.35 28.6272 154.405 30.7451C152.462 31.8498 150.392 32.7255 148.31 33.5092C146.193 34.2127 144.041 34.8014 141.854 35.2179C137.444 35.9592 133.032 36.1487 128.545 35.4534ZM128.659 35.4411C132.959 35.5858 137.428 35.2465 141.665 34.3109C145.925 33.3521 150.032 31.808 153.84 29.691C157.635 27.5626 161.131 24.8957 164.156 21.7375C167.181 18.5793 169.781 14.9985 171.809 11.088L172.211 11.4533L161.588 17.9601C158.044 20.1329 154.545 22.3629 150.931 24.4327C147.329 26.5139 143.635 28.4118 139.94 30.2867C136.233 32.0926 132.424 33.9567 128.659 35.4411Z" fill="black"/>
<path d="M34.0245 81.2353C35.7281 85.3976 40.3996 95.2318 51.1242 102.785C63.7165 111.66 76.6628 111.76 80.939 111.606C79.2354 107.444 74.5525 97.6095 63.8279 90.0563C51.2471 81.193 38.3007 81.0812 34.0245 81.2353Z" fill="#3E9581"/>
<path d="M34.0699 81.2695C36.1629 85.6822 38.8026 89.9765 41.9975 93.7154C43.5723 95.6022 45.306 97.373 47.1528 98.9821C49.0108 100.58 50.9143 102.142 52.9986 103.451C53.9955 104.169 55.0829 104.76 56.125 105.408C57.2122 105.976 58.277 106.602 59.4094 107.1C60.5079 107.645 61.6627 108.086 62.8064 108.561C63.9724 108.968 65.1384 109.374 66.3267 109.688C71.0688 111.037 76.0451 111.557 80.948 111.307L80.6657 111.746C78.6859 107.206 76.0581 102.98 72.8972 99.2182C71.3224 97.3314 69.6002 95.572 67.7535 93.9629C65.8954 92.3653 63.992 90.814 61.9078 89.5169C60.8995 88.8106 59.8124 88.2542 58.759 87.6287C57.6605 87.084 56.5959 86.4815 55.475 85.9944C53.2555 84.951 50.946 84.1037 48.5921 83.429C43.8952 82.0223 38.9179 81.3416 34.0699 81.2695ZM33.9782 81.2011C39.0171 80.8121 43.9705 81.3205 48.8258 82.5308C51.2478 83.1475 53.6254 83.9484 55.9244 84.9453C58.2346 85.9076 60.4439 87.135 62.5513 88.4895C71.0264 93.8728 77.6495 102.131 81.2456 111.477L81.4081 111.902L80.9632 111.905C75.9793 111.971 71.0248 111.291 66.2149 110.045C61.4276 108.766 56.7278 106.911 52.4904 104.236C48.2416 101.573 44.4672 98.1717 41.3281 94.26C38.189 90.3369 35.6631 86.0074 33.9782 81.2011Z" fill="black"/>
<path d="M34.0234 81.2344C41.5415 86.7848 49.6875 92.4346 58.4493 98.0575C66.1688 103.009 73.6915 107.513 80.9493 111.605C76.2625 111.762 66.5085 111.445 56.1388 105.867C41.6715 98.0739 35.7148 85.2704 34.0234 81.2344Z" fill="#1E6F5D"/>
<path d="M33.9893 81.1895C37.9981 83.7848 41.7448 86.4164 45.6508 89.001C49.5001 91.6204 53.4172 94.1474 57.2891 96.7322C61.1723 99.3054 65.0216 101.925 68.9952 104.371C72.9461 106.829 76.9874 109.16 81.0962 111.352L81.9776 111.829L80.9742 111.882C76.003 112.155 70.9814 111.682 66.1485 110.402C61.3269 109.111 56.6377 107.13 52.4679 104.34C50.3492 102.997 48.3886 101.411 46.5073 99.7565C44.6827 98.0323 42.96 96.2039 41.3847 94.2481C38.2681 90.2788 35.7084 85.9955 33.9893 81.1895ZM34.0583 81.281C36.1852 85.6591 38.8818 89.93 42.0653 93.6689C45.2717 97.4076 48.977 100.683 53.0889 103.347C57.2007 105.999 61.6965 108.063 66.4043 109.389C71.112 110.715 76.0209 111.385 80.9364 111.33L80.8144 111.86L68.7695 104.752C64.7621 102.375 60.7095 100.056 56.7698 97.5633C52.8188 95.0825 48.9807 92.4285 45.1652 89.7399C41.395 87.005 37.5446 84.2132 34.0583 81.281Z" fill="black"/>
<path d="M43.793 57.5231C41.7252 53.478 37.3146 43.4123 38.9409 30.3183C40.8489 14.9347 49.8531 5.11566 52.981 1.9913C55.0487 6.03634 59.4594 16.1021 57.8331 29.1961C55.9364 44.5796 46.9207 54.3872 43.793 57.5231Z" fill="#3E9581"/>
<path d="M43.7825 57.5806C41.2331 53.1363 39.6052 48.3296 38.7288 43.3227C37.8753 38.327 37.8762 33.1649 38.7906 28.1694C39.705 23.1738 41.5562 18.4022 43.9227 13.9606C46.335 9.5417 49.2624 5.40691 52.752 1.77435L53.0466 1.47353L53.2543 1.85158C58.0337 10.7423 59.8814 21.3305 58.0871 31.3673C57.2527 36.3854 55.4933 41.2369 53.0583 45.6674C50.6005 50.1096 47.5468 54.1187 43.7825 57.5806ZM43.8045 57.4655C47.1116 53.8341 50.0502 49.6763 52.28 45.2471C53.4291 43.0438 54.3723 40.7383 55.1441 38.3764C55.9273 36.026 56.539 33.6077 56.9453 31.1678C57.7349 26.2765 57.8394 21.2632 57.089 16.3474C56.3501 11.4315 54.8706 6.63534 52.72 2.13096L53.2224 2.20819C49.6518 5.65732 46.5869 9.68953 44.3003 14.1421C43.7143 15.2496 43.2084 16.391 42.7026 17.5325C42.2652 18.6965 41.7937 19.8607 41.4365 21.0587C40.6534 23.4321 40.1217 25.8729 39.7497 28.3241C39.3093 30.7758 39.1885 33.2599 39.1247 35.7437C39.0723 38.2273 39.2481 40.721 39.6176 43.1789C40.288 48.0953 41.8022 52.9602 43.8045 57.4655Z" fill="black"/>
<path d="M43.7943 57.5229C44.7376 48.1698 46.0311 38.2857 47.7778 27.9387C49.3158 18.8347 51.0848 10.1777 52.9823 1.99112C49.5713 5.41623 42.9591 12.9779 40.0452 24.4936C35.9745 40.5695 41.8183 53.5577 43.7943 57.5229Z" fill="#1E6F5D"/>
<path d="M43.7822 57.4655C43.9579 52.8772 44.4747 48.1256 44.9921 43.4775C45.578 38.8175 46.198 34.1573 47.0235 29.5302C47.8377 24.9032 48.8459 20.3094 49.8086 15.716L52.7192 1.92392L53.1771 2.18539C49.733 5.78316 46.8281 9.87182 44.5526 14.2783C42.2771 18.6848 40.6882 23.4433 39.8643 28.3233C39.0405 33.2148 38.993 38.2277 39.675 43.1555C40.3682 48.0602 41.837 52.9598 43.7822 57.4655ZM43.8058 57.5804C41.279 53.1014 39.7082 48.3059 38.7863 43.3107C38.3595 40.8071 38.1493 38.2792 38.0873 35.7388C38.1051 33.1978 38.2711 30.656 38.6998 28.1469C39.4656 23.1063 41.2479 18.2661 43.6257 13.8014C44.8202 11.5633 46.2209 9.45035 47.7477 7.44004C49.2974 5.44107 50.9847 3.56768 52.7984 1.81993L53.4896 1.11416L53.2448 2.05848C52.0879 6.60722 51.0796 11.1895 50.2198 15.8053C49.3485 20.4212 48.6827 25.0587 47.9599 29.6966C47.2599 34.3344 46.4914 38.9611 45.837 43.5985C45.137 48.2478 44.5735 52.8272 43.8058 57.5804Z" fill="black"/>
<path d="M80.6095 58.9293C81.782 62.1064 85.0126 69.593 92.4065 75.3511C101.084 82.1127 110.004 82.2046 112.958 82.0935C111.785 78.9165 108.555 71.4299 101.161 65.6717C92.4713 58.8987 83.5629 58.8183 80.6095 58.9293Z" fill="#3E9581"/>
<path d="M80.6549 58.9636C82.101 62.1159 83.8437 65.2778 85.9717 68.0463C87.0187 69.4536 88.1792 70.7798 89.419 72.0134C90.6588 73.2471 91.944 74.4345 93.3536 75.4716C96.1048 77.6152 99.196 79.4117 102.545 80.4708C105.882 81.5875 109.444 81.9898 112.933 81.7833L112.65 82.2106C109.985 75.6746 105.727 69.8042 100.111 65.6786C97.3373 63.5926 94.2355 61.9111 90.9206 60.8058C87.6511 59.6427 84.1001 59.0678 80.6549 58.9636ZM80.5632 58.8952C84.188 58.5384 87.7378 58.9408 91.2001 59.9302C94.6398 60.9312 97.935 62.531 100.846 64.6736C103.779 66.7816 106.272 69.4672 108.378 72.3853C110.473 75.315 112.102 78.5696 113.253 81.9767L113.393 82.4012L112.971 82.4039C109.39 82.4386 105.85 81.8636 102.445 80.8509C99.0502 79.8036 95.7444 78.3303 92.811 76.2339C89.855 74.172 87.374 71.4863 85.2793 68.5681C83.2185 65.6037 81.6011 62.4181 80.5632 58.8952Z" fill="black"/>
<path d="M80.6084 58.9285C85.7912 63.1603 91.4079 67.4699 97.4465 71.7652C102.763 75.5478 107.952 78.9748 112.957 82.0927C109.73 82.217 103.01 81.9615 95.8652 77.7078C85.881 71.7709 81.7688 62.0021 80.6084 58.9285Z" fill="#1E6F5D"/>
<path d="M80.5742 58.8835C83.4154 60.8197 85.9717 62.8036 88.676 64.7521L96.6867 70.6327C99.3682 72.5699 102.061 74.507 104.788 76.3978C107.515 78.2887 110.287 80.0988 113.092 81.8512L113.825 82.3063L112.959 82.3694C109.402 82.5993 105.784 82.2203 102.332 81.1849C98.8925 80.1494 95.6198 78.5035 92.7315 76.3377C89.8206 74.1951 87.3623 71.4978 85.3017 68.5564C84.2543 67.0915 83.3773 65.5221 82.5685 63.9178C82.1642 63.1156 81.8053 62.3017 81.4691 61.4646C81.1557 60.6158 80.8086 59.8593 80.5742 58.8835ZM80.6432 58.9751C82.1233 62.0927 83.9002 65.2543 86.0395 68.0112C88.179 70.7912 90.6588 73.293 93.4665 75.3443C96.2628 77.4071 99.3419 79.1003 102.657 80.1711C105.96 81.2534 109.442 81.8288 112.944 81.8062L112.81 82.3244C110.095 80.399 107.357 78.5426 104.562 76.7442C101.79 74.9341 98.8938 73.2858 96.1442 71.4065C93.4061 69.5272 90.781 67.4863 88.1672 65.4337C85.5989 63.3694 82.939 61.2366 80.6432 58.9751Z" fill="black"/>
<path d="M94.1783 42.3552C96.7121 40.8557 102.629 36.8971 106.469 29.2728C110.985 20.3221 109.779 11.9832 109.271 9.25019C106.737 10.7496 100.82 14.7083 96.9803 22.3325C92.4643 31.2833 93.6587 39.6108 94.1783 42.3552Z" fill="#3E9581"/>
<path d="M94.2004 42.3091C96.755 40.4991 99.2506 38.379 101.322 35.9858C102.387 34.7947 103.337 33.5239 104.195 32.1847C105.042 30.8456 105.888 29.495 106.529 28.0308C107.238 26.6006 107.845 25.1251 108.325 23.5929C108.829 22.0721 109.184 20.4947 109.379 18.8954C109.814 15.7079 109.633 12.4325 108.963 9.30966L109.432 9.52507C106.751 11.2439 104.313 13.3291 102.206 15.6996C100.1 18.07 98.3726 20.76 97.0453 23.6428C96.3588 25.0728 95.8095 26.5595 95.3517 28.08C94.8825 29.6006 94.5389 31.1549 94.3211 32.7429C93.8395 35.8846 93.8494 39.1842 94.2004 42.3091ZM94.1554 42.4128C93.3247 39.1761 93.1326 35.9237 93.4307 32.6337C93.7404 29.3666 94.552 26.1192 95.9356 23.1211C98.6684 17.1136 103.415 12.0933 109.121 8.97523L109.518 8.75422L109.59 9.17915C110.101 12.418 110.111 15.6945 109.789 18.9272C109.422 22.1602 108.736 25.3953 107.41 28.4045C106.106 31.4251 104.219 34.1736 101.988 36.5563C99.6876 38.9395 97.1456 40.9334 94.1554 42.4128Z" fill="black"/>
<path d="M94.178 42.3553C97.0404 36.9792 99.9002 31.2008 102.689 25.0205C105.14 19.5781 107.33 14.3099 109.259 9.25033C109.826 12.2474 110.574 18.5543 107.975 25.7566C104.355 35.8168 96.6322 40.8793 94.178 42.3553Z" fill="#1E6F5D"/>
<path d="M94.1437 42.4014C95.3681 39.4848 96.6856 36.855 97.945 34.0646L101.804 25.8309C103.075 23.0865 104.358 20.3419 105.583 17.5633C106.808 14.7846 107.942 11.972 109.019 9.13686L109.344 8.26099L109.544 9.17945C110.249 12.371 110.475 15.6807 110.12 18.9596C109.765 22.227 108.919 25.4631 107.512 28.4498C106.838 29.9603 105.969 31.3685 105.065 32.731C104.116 34.0708 103.074 35.3421 101.953 36.5336C99.6529 38.8938 97.1338 40.9105 94.1437 42.4014ZM94.223 42.3204C96.7433 40.4876 99.2272 38.3332 101.288 35.94C103.371 33.5352 105.098 30.8453 106.414 27.9511C107.742 25.0798 108.668 22.0041 109.081 18.8513C109.495 15.6985 109.496 12.4679 109.008 9.29788L109.545 9.3519C108.285 12.1193 107.094 14.9092 105.972 17.7332C104.827 20.5458 103.864 23.4378 102.685 26.2391C101.483 29.0291 100.109 31.7513 98.7345 34.4504C97.3032 37.1154 95.8497 39.8726 94.223 42.3204Z" fill="black"/>
<path d="M2.20875 20.5994C-0.0358884 24.4884 -4.94602 34.2119 -4.38189 47.3837C-3.72308 62.8542 4.05458 73.2777 6.77933 76.6172C9.02397 72.7282 13.9341 63.0046 13.37 49.8329C12.7112 34.3623 4.9335 23.9389 2.20875 20.5994Z" fill="#3E9581"/>
<path d="M2.20903 20.6569C0.00165394 25.0169 -1.78135 29.7422 -2.77672 34.5658C-3.30865 36.9721 -3.6464 39.4231 -3.79011 41.8958C-3.91108 44.357 -3.99777 46.8293 -3.76517 49.2882C-3.72301 50.5181 -3.53258 51.747 -3.41058 52.9764C-3.19741 54.1937 -3.0412 55.4228 -2.74827 56.6281C-2.51229 57.8453 -2.16241 59.0387 -1.83533 60.2322C-1.45131 61.4139 -1.05595 62.5841 -0.592312 63.7307C1.22825 68.3522 3.83371 72.6467 7.0175 76.4201L6.50448 76.4579C8.87168 72.1198 10.6094 67.4409 11.6618 62.6284C12.1938 60.2221 12.5315 57.7711 12.6754 55.3213C12.8077 52.8601 12.8717 50.3994 12.6277 47.9406C12.5741 46.7108 12.3496 45.4936 12.2048 44.2759C11.9689 43.0702 11.79 41.8527 11.497 40.6474C10.9682 38.2365 10.2344 35.8729 9.3299 33.5793C7.58939 28.9918 5.10865 24.5816 2.20903 20.6569ZM2.20829 20.5419C5.57471 24.3371 8.18002 28.6086 10.1831 33.2404C11.1675 35.5449 11.9814 37.9425 12.5903 40.3874C13.2333 42.8206 13.6146 45.336 13.8247 47.8409C14.7337 57.9063 12.2454 68.2121 7.06542 76.7762L6.82843 77.1687L6.5524 76.814C3.47015 72.8675 1.00096 68.4802 -0.944912 63.8825C-2.84524 59.273 -4.23411 54.3843 -4.69997 49.3632C-5.18856 44.3537 -4.78805 39.258 -3.62205 34.3643C-2.43324 29.4705 -0.547139 24.8135 2.20829 20.5419Z" fill="black"/>
<path d="M2.20874 20.5994C2.40627 29.991 2.89258 39.9442 3.79259 50.3775C4.58194 59.5699 5.59658 68.324 6.79073 76.617C3.81305 72.9688 -1.86176 64.9576 -3.76221 53.2661C-6.42246 36.9577 0.05482 24.4073 2.20874 20.5994Z" fill="#1E6F5D"/>
<path d="M2.21996 20.5418C2.60449 25.3335 2.80528 29.931 3.14359 34.631C3.42474 39.3084 3.80845 43.9737 4.12373 48.6394C4.45042 53.305 4.73164 57.9939 5.20652 62.6471C5.67007 67.3118 6.29315 71.9525 7.05302 76.5809L7.21908 77.5685L6.56392 76.791C3.33429 72.9834 0.648853 68.6664 -1.28591 64.0227C-3.19787 59.3788 -4.48454 54.4204 -4.82501 49.387C-5.04657 46.8706 -4.99447 44.341 -4.82818 41.8336C-4.58204 39.3257 -4.18749 36.8398 -3.59882 34.3872C-2.34158 29.4929 -0.512433 24.8478 2.21996 20.5418ZM2.19789 20.6569C0.036138 25.0167 -1.68962 29.7761 -2.69646 34.5883C-3.70316 39.4235 -4.02472 44.3807 -3.62804 49.2873C-3.21996 54.1938 -2.11652 59.0384 -0.296249 63.6139C1.52402 68.1894 3.9701 72.5309 7.00643 76.4317L6.51741 76.6533L4.80763 62.6957C4.2415 58.0431 3.61835 53.3909 3.17753 48.7145C2.73672 44.0381 2.48979 39.3605 2.28842 34.6711C2.14421 30.0043 1.99934 25.234 2.19789 20.6569Z" fill="black"/>
<path d="M158.256 52.9783C159.127 55.3985 161.514 61.1315 166.983 65.534C173.403 70.7006 179.996 70.773 182.174 70.6899C181.303 68.2697 178.917 62.5367 173.448 58.1342C167.027 52.9561 160.434 52.8837 158.256 52.9783Z" fill="#3E9581"/>
<path d="M158.301 53.001C159.411 55.3277 160.704 57.7107 162.269 59.793C163.811 61.9214 165.648 63.7836 167.666 65.4376C169.661 67.1032 171.929 68.5142 174.421 69.3719C176.902 70.2296 179.573 70.5458 182.172 70.3565L181.889 70.7722C179.896 65.8989 176.811 61.4696 172.696 58.3C170.666 56.7036 168.388 55.3846 165.942 54.5152C163.518 53.6111 160.857 53.1569 158.301 53.001ZM158.21 52.9441C160.945 52.6045 163.605 52.9207 166.221 53.6741C168.804 54.4507 171.276 55.6879 173.431 57.341C175.608 58.9825 177.435 61.0401 178.967 63.2836C180.498 65.5271 181.666 68.0029 182.47 70.573L182.598 70.9976L182.187 71.0002C179.496 70.9946 176.847 70.5519 174.298 69.7406C171.749 68.9522 169.278 67.807 167.089 66.2116C164.889 64.6277 163.074 62.547 161.554 60.315C160.056 58.0368 158.9 55.6299 158.21 52.9441Z" fill="black"/>
<path d="M158.254 52.9778C162.084 56.2067 166.235 59.5024 170.704 62.7847C174.635 65.668 178.473 68.299 182.172 70.6779C179.789 70.7738 174.815 70.576 169.536 67.322C162.161 62.7824 159.113 55.3291 158.254 52.9778Z" fill="#1E6F5D"/>
<path d="M158.221 52.9326C160.386 54.3787 162.266 55.8727 164.294 57.3427C166.277 58.836 168.26 60.3062 170.22 61.8227C172.18 63.3276 174.163 64.8209 176.157 66.2911C178.174 67.7382 180.224 69.1275 182.32 70.4476L183.03 70.8914L182.187 70.9544C179.519 71.1556 176.78 70.8858 174.197 70.0747C171.603 69.2752 169.165 67.9803 167.021 66.3041C164.866 64.6395 163.073 62.5472 161.576 60.3034C160.816 59.1816 160.192 57.9785 159.614 56.7636C159.325 56.1561 159.07 55.5369 158.838 54.9061C158.617 54.2522 158.351 53.6906 158.221 52.9326ZM158.29 53.0241C159.434 55.3161 160.727 57.7106 162.314 59.7813C163.096 60.8225 163.936 61.8403 164.854 62.7541C165.761 63.691 166.725 64.5585 167.756 65.3336C169.808 66.907 172.064 68.2375 174.51 69.0725C176.956 69.9189 179.537 70.3966 182.16 70.4027L182.027 70.9209C180.033 69.4277 178.004 68.0037 175.931 66.6375C173.858 65.2712 171.694 64.032 169.643 62.6197C167.615 61.1842 165.666 59.6332 163.751 58.0475C161.882 56.427 159.909 54.7727 158.29 53.0241Z" fill="black"/>
<path d="M206.337 20.3615C204.362 23.5819 199.244 31.0879 190.525 35.7085C180.284 41.1322 171.568 39.142 168.723 38.3211C170.698 35.1008 175.817 27.5947 184.535 22.9742C194.777 17.562 203.492 19.5521 206.337 20.3615Z" fill="#3E9581"/>
<path d="M206.394 20.3496C204.591 23.7528 202.33 26.7451 199.69 29.464C198.352 30.8062 196.935 32.0571 195.437 33.2049C193.927 34.3529 192.291 35.3177 190.62 36.2022C188.914 37.018 187.162 37.7307 185.341 38.2483C183.53 38.7543 181.685 39.1227 179.816 39.3532C176.089 39.7566 172.29 39.5742 168.634 38.6436L168.245 38.5427L168.46 38.1734C170.343 34.9076 172.639 31.8576 175.313 29.173C176.651 27.8308 178.068 26.5684 179.578 25.4205C181.087 24.2726 182.723 23.2848 184.394 22.4002C186.088 21.5615 187.828 20.7685 189.65 20.2393C191.471 19.7102 193.328 19.3188 195.209 19.1112C198.993 18.7419 202.771 19.0854 206.394 20.3496ZM206.292 20.3848C202.74 19.6144 198.94 19.4435 195.328 19.9957C191.693 20.5251 188.2 21.7663 184.949 23.4428C181.721 25.1882 178.724 27.369 176.071 29.9384C173.419 32.5079 171.042 35.3859 168.998 38.4918L168.812 38.0216C172.332 39.1141 176.11 39.4576 179.779 38.951C183.46 38.4789 186.964 37.1111 190.181 35.3543C193.409 33.5744 196.406 31.4051 199.081 28.8356C201.768 26.3004 204.155 23.3648 206.292 20.3848Z" fill="black"/>
<path d="M206.337 20.3613C200.166 23.8157 193.573 27.2499 186.557 30.5603C180.383 33.4744 174.423 36.0537 168.723 38.3209C171.842 39.209 178.455 40.5114 186.545 37.493C197.832 33.2812 204.396 23.4895 206.337 20.3613Z" fill="#1E6F5D"/>
<path d="M206.303 20.4076C203.51 22.3111 200.384 24.0213 197.361 25.7079C194.292 27.3373 191.2 28.9668 188.039 30.4014C184.877 31.8589 181.646 33.1559 178.439 34.4988C175.231 35.8416 172.035 37.1959 168.838 38.5847L168.812 38.056C172.388 38.9641 176.119 39.1355 179.743 38.6292C181.555 38.3876 183.343 37.9621 185.073 37.3761C186.802 36.7901 188.486 36.0434 190.123 35.2281C191.737 34.3554 193.305 33.4025 194.78 32.3008C196.279 31.2334 197.708 30.0515 199.046 28.7782C201.733 26.289 204.155 23.3416 206.303 20.4076ZM206.383 20.3266C204.568 23.7414 202.295 26.6993 199.655 29.4411C197.038 32.1597 193.996 34.5018 190.654 36.2939C187.313 38.086 183.625 39.271 179.852 39.6862C176.08 40.1245 172.233 39.7239 168.645 38.5974L167.856 38.3496L168.618 38.0687C171.884 36.875 175.092 35.5551 178.254 34.1091C181.415 32.6745 184.507 31.068 187.611 29.5304L196.957 24.9287C200.106 23.4023 203.107 21.8193 206.383 20.3266Z" fill="black"/>
<path d="M147.527 78.2602C144.193 77.5804 136.264 75.5507 129.644 69.5346C121.865 62.4683 120.809 54.3813 120.598 51.6809C123.933 52.3607 131.861 54.3904 138.481 60.4065C146.272 67.4842 147.316 75.5713 147.527 78.2602Z" fill="#3E9581"/>
<path d="M147.561 78.3059C144.114 77.8568 140.891 76.8543 137.757 75.449C136.212 74.7232 134.702 73.9051 133.258 72.9832C131.815 72.0498 130.485 70.9547 129.223 69.7902C127.995 68.5794 126.857 67.2991 125.856 65.903C124.866 64.4952 123.978 63.0409 123.204 61.5053C121.702 58.4338 120.654 55.1295 120.289 51.7058L120.241 51.3037L120.664 51.37C124.009 51.9462 127.312 52.9481 130.412 54.3997C133.524 55.8282 136.456 57.7062 138.992 60.0467C140.231 61.2459 141.437 62.4912 142.45 63.8988C143.474 65.2948 144.385 66.772 145.136 68.3192C146.628 71.4598 147.516 74.7996 147.561 78.3059ZM147.493 78.2258C147.004 74.9524 145.956 71.648 144.352 68.7382C142.759 65.7938 140.62 63.1978 138.177 60.9602C135.71 58.7342 132.937 56.8437 129.951 55.3799C126.965 53.9161 123.798 52.7753 120.542 51.9916L120.916 51.6558C121.086 55.0002 121.975 58.3516 123.568 61.3305C125.127 64.3326 127.379 66.8934 129.88 69.0846C132.381 71.2759 135.153 73.1779 138.151 74.6532C141.092 76.1747 144.327 77.3035 147.493 78.2258Z" fill="black"/>
<path d="M147.527 78.2602C142.687 74.0606 137.719 69.4824 132.725 64.5136C128.328 60.1387 124.297 55.8419 120.598 51.6809C120.822 54.6227 121.808 60.6981 126.888 66.6782C133.968 75.0252 144.284 77.5798 147.527 78.2602Z" fill="#1E6F5D"/>
<path d="M147.469 78.2376C144.982 76.4601 142.539 74.326 140.176 72.2718C137.836 70.1485 135.495 68.0252 133.291 65.7631C131.075 63.5125 128.984 61.1347 126.847 58.8031C124.711 56.4715 122.563 54.1631 120.392 51.8662L120.87 51.6562C121.245 54.9993 122.27 58.2348 123.828 61.168C125.365 64.1242 127.525 66.7086 129.958 68.9577C131.197 70.0649 132.481 71.1259 133.867 72.0366C135.231 72.9936 136.673 73.835 138.161 74.5842C141.102 76.1403 144.349 77.292 147.469 78.2376ZM147.572 78.2944C144.102 77.834 140.901 76.8314 137.767 75.426C134.644 74.0321 131.713 72.177 129.131 69.8828C126.584 67.5539 124.422 64.7742 122.896 61.6684C121.348 58.5742 120.493 55.1422 120.323 51.7057L120.283 50.8782L120.8 51.4957C122.824 53.9199 124.937 56.2631 127.153 58.5137C129.358 60.7644 131.687 62.8992 133.971 65.0689L140.777 71.6241C143.038 73.8629 145.298 75.9292 147.572 78.2944Z" fill="black"/>
<path d="M226.322 59.4021C223.386 60.4328 216.248 62.5713 208.276 60.9558C198.911 59.0733 194.346 53.2279 192.941 51.2135C195.877 50.1828 203.015 48.0443 210.986 49.6598C220.351 51.5423 224.917 57.3877 226.322 59.4021Z" fill="#3E9581"/>
<path d="M226.379 59.4248C223.467 60.7197 220.484 61.4518 217.372 61.8283C214.283 62.1587 211.112 62.1102 208.062 61.4056C206.543 61.0245 205.046 60.5513 203.627 59.9281C202.209 59.2935 200.835 58.5435 199.53 57.7127C196.918 56.028 194.578 53.9277 192.691 51.4106L192.45 51.0902L192.848 50.9382C195.738 49.8044 198.778 49.0374 201.89 48.7184C204.99 48.3765 208.161 48.4709 211.245 49.1064C212.776 49.4644 214.295 49.8799 215.748 50.5029C217.189 51.1259 218.585 51.8527 219.903 52.7179C222.48 54.4718 224.73 56.6647 226.379 59.4248ZM226.264 59.3795C224.356 57.0695 222.004 54.9692 219.405 53.4569C216.806 51.9102 213.925 50.8825 210.979 50.2808C208.032 49.7019 204.986 49.5147 201.976 49.7641C198.955 50.0135 195.96 50.6077 193.045 51.5118L193.202 51.0279C194.872 53.5809 197.122 55.7738 199.722 57.378C202.344 58.9707 205.281 59.9174 208.25 60.4616C211.23 60.9827 214.266 61.2045 217.298 60.9435C220.308 60.7516 223.372 60.1225 226.264 59.3795Z" fill="black"/>
<path d="M226.322 59.4022C220.59 58.3815 214.582 57.1327 208.379 55.5862C202.907 54.2189 197.764 52.746 192.941 51.2251C194.484 53.4225 198.059 57.7338 204.803 60.0241C214.2 63.2285 223.466 60.3864 226.322 59.4022Z" fill="#1E6F5D"/>
<path d="M226.265 59.4027C223.503 59.2136 220.603 58.6805 217.794 58.1927C214.984 57.636 212.164 57.0794 209.387 56.3386C206.622 55.5631 203.912 54.5919 201.158 53.7589C198.416 52.9259 195.65 52.1734 192.852 51.4902L193.157 51.0629C194.997 53.4998 197.303 55.5428 199.88 57.1013C202.445 58.6943 205.326 59.6874 208.261 60.3122C209.734 60.5902 211.23 60.8219 212.736 60.8927C214.242 60.9979 215.759 60.9996 217.275 60.8864C220.297 60.7289 223.372 60.0997 226.265 59.4027ZM226.379 59.4019C225.617 59.8092 224.911 59.9978 224.172 60.2785C223.443 60.5246 222.692 60.7479 221.94 60.9367C220.437 61.3258 218.911 61.6346 217.361 61.8055C214.272 62.1934 211.101 62.1219 208.018 61.5325C204.946 60.9085 201.961 59.7321 199.315 58.0132C196.658 56.3058 194.408 54.0095 192.703 51.3877L192.276 50.7236L193.019 50.9603C195.751 51.8279 198.494 52.6379 201.27 53.3673C204.046 54.0622 206.822 54.7456 209.621 55.3943L217.982 57.3522C220.77 58.0355 223.499 58.5928 226.379 59.4019Z" fill="black"/>
</g>
<defs>
<clipPath id="clip0">
<rect width="241" height="111" fill="white" transform="translate(-15 1.55664) rotate(-0.370086)"/>
</clipPath>
</defs>
</svg>
