<svg width="21" height="16" viewBox="0 0 21 16" fill="none" xmlns="http://www.w3.org/2000/svg">
<g clip-path="url(#clip0)">
<path d="M0.169922 15.2501C0.339922 13.9501 1.53992 5.64013 8.50992 2.02014C12.1499 0.130135 17.8299 -0.739865 19.4499 1.51014C21.2199 3.97014 17.8299 9.73013 13.7199 12.7101C8.26992 16.6401 1.74992 15.5501 0.169922 15.2501Z" fill="#A97C50"/>
<path d="M0.129883 15.2801C0.249883 12.8901 0.859883 10.6301 1.85988 8.48005C2.89988 6.38005 4.30988 4.36005 6.26988 2.98005L6.99988 2.47005C7.24988 2.32005 7.51988 2.18005 7.77988 2.04005C8.29988 1.74005 8.83988 1.50005 9.38988 1.30005C10.4899 0.880054 11.6199 0.580054 12.7699 0.350054C13.9099 0.130054 15.0799 -0.0299458 16.2599 0.0100542C17.3999 0.100054 18.7099 0.250054 19.5899 1.26005C19.9899 1.76005 20.2399 2.40005 20.2599 3.03005C20.2999 3.35005 20.2599 3.65005 20.2499 3.96005C20.1899 4.26005 20.1599 4.57005 20.0699 4.86005C19.7599 6.04005 19.2399 7.12005 18.6199 8.13005C17.3699 10.1501 15.7499 11.9401 13.7799 13.3101C11.7999 14.6701 9.47988 15.4701 7.13988 15.7701C4.76988 16.0501 2.43988 15.9101 0.129883 15.2801ZM0.209883 15.2201C4.69988 15.7201 9.52988 15.0501 13.1599 12.4301C14.9699 11.1401 16.5799 9.50005 17.8199 7.62005C18.4299 6.68005 18.9699 5.69005 19.2999 4.64005C19.6299 3.61005 19.7499 2.44005 19.1599 1.60005C18.5399 0.770054 17.3399 0.440054 16.2299 0.360054C15.0999 0.290054 13.9499 0.410054 12.8299 0.670054C10.5999 1.17005 8.49988 2.21005 6.76988 3.63005C3.23988 6.43005 1.21988 10.8101 0.209883 15.2201Z" fill="black"/>
<path d="M0.990234 15.2301C4.16023 14.2201 8.49023 12.4101 12.7102 8.95006C17.2402 5.23006 19.1402 1.67006 19.7402 2.03006C20.4902 2.48006 19.0402 8.97006 14.2102 12.7001C9.04023 16.6801 2.54023 15.5401 0.990234 15.2301Z" fill="#8B5E3C" stroke="black" stroke-width="0.5" stroke-miterlimit="10"/>
<path d="M7.45996 5.26009C7.59996 4.91009 8.59996 2.50009 11.16 1.72009C12.28 1.38009 13.89 1.29009 14.01 1.69009C14.12 2.07009 12.9 2.99009 7.45996 5.26009Z" fill="white" stroke="black" stroke-width="0.5" stroke-miterlimit="10"/>
</g>
<defs>
<clipPath id="clip0">
<rect width="20.27" height="15.91" fill="white"/>
</clipPath>
</defs>
</svg>
