<svg width="38" height="36" viewBox="0 0 38 36" fill="none" xmlns="http://www.w3.org/2000/svg">
<path d="M17.0454 10.483C16.3232 8.94384 16.1898 7.1934 16.6704 5.56255C17.2385 3.4887 18.4282 1.63864 20.0795 0.261414C21.0776 1.61692 21.7837 3.16465 22.1534 4.80687C22.5398 6.55119 23.017 8.71028 21.4772 10.7103C20.748 11.6092 19.8203 12.3269 18.767 12.8069C18.056 12.144 17.4725 11.3563 17.0454 10.483V10.483Z" fill="#F8C803"/>
<path d="M17.0103 10.5057C16.5794 9.62777 16.2862 8.68874 16.141 7.72159C16.071 7.22281 16.0576 6.7177 16.1012 6.21591C16.148 5.71874 16.2451 5.22759 16.391 4.75C16.7038 3.79317 17.2105 2.91115 17.8797 2.15909C18.5339 1.43436 19.2383 0.756552 19.9876 0.130682L20.1297 0L20.2433 0.159091C20.982 1.16397 21.6231 2.23701 22.1581 3.36364C22.4165 3.93842 22.6219 4.53559 22.7717 5.14773C22.9391 5.76174 23.0532 6.38907 23.1126 7.02273C23.1841 7.69167 23.1419 8.3679 22.9876 9.02273C22.8199 9.68834 22.5183 10.3128 22.1012 10.858C21.2986 11.9028 20.1842 12.6649 18.9194 13.0341L18.7035 13.1023L18.6069 12.983C18.2934 12.5998 18.0013 12.1995 17.7319 11.7841C17.4638 11.3741 17.2228 10.9471 17.0103 10.5057V10.5057ZM17.1126 10.4545C17.3263 10.8821 17.5957 11.2795 17.9137 11.6364C18.2342 11.9873 18.5924 12.3017 18.9819 12.5739L18.6637 12.5C19.6274 11.8796 20.4658 11.0836 21.1353 10.1534C21.7363 9.23976 22.0363 8.16094 21.9933 7.06818C21.967 6.48503 21.9025 5.90424 21.8001 5.32955C21.6978 4.72159 21.6126 4.15909 21.4649 3.57955C21.1739 2.41917 20.6628 1.32549 19.9592 0.357955L20.2149 0.392046C19.5122 1.01495 18.9204 1.75272 18.4649 2.57386C18.0219 3.36984 17.653 4.20478 17.3626 5.06818C17.2262 5.48296 17.0728 5.93182 16.9592 6.36932C16.8249 6.80891 16.7298 7.25954 16.6751 7.71591C16.5463 8.65198 16.6986 9.6052 17.1126 10.4545Z" fill="#231F20"/>
<path d="M17.238 25.5057C16.5166 27.0454 16.3852 28.7962 16.8687 30.4262C17.4378 32.4996 18.6273 34.3494 20.2778 35.7273C21.2776 34.3721 21.9856 32.8244 22.3573 31.1819C22.7437 29.4376 23.2153 27.2842 21.6755 25.2785C20.9443 24.3816 20.0171 23.6644 18.9653 23.1819C18.2547 23.8465 17.6696 24.6337 17.238 25.5057Z" fill="#F8C803"/>
<path d="M17.2888 25.5284C16.8781 26.3788 16.7259 27.331 16.8513 28.267C16.9109 28.7226 17.0059 29.1728 17.1354 29.6136C17.2547 30.0568 17.4025 30.5 17.5388 30.9205C17.8312 31.7822 18.2021 32.6152 18.6468 33.4091C19.1002 34.2318 19.69 34.9714 20.3911 35.5966L20.1411 35.625C20.8459 34.6526 21.3553 33.5528 21.6411 32.3864C21.7823 31.811 21.8942 31.2288 21.9763 30.642C22.0805 30.066 22.1412 29.4829 22.1582 28.8977C22.2075 27.8025 21.907 26.7199 21.3002 25.8068C20.6333 24.8763 19.7967 24.0802 18.8343 23.4602L19.1468 23.4148C18.7589 23.6869 18.4026 24.0013 18.0843 24.3523C17.7704 24.709 17.5031 25.1042 17.2888 25.5284ZM17.1866 25.4773C17.4007 25.0397 17.6397 24.6148 17.9025 24.2045C18.1592 23.7857 18.442 23.3834 18.7491 23L18.8513 22.8807L19.0672 22.9545C20.3312 23.3222 21.4456 24.0823 22.2491 25.125C22.6644 25.6705 22.9641 26.2949 23.1297 26.9602C23.302 27.6178 23.3577 28.3005 23.2945 28.9773C23.2356 29.611 23.1216 30.2384 22.9536 30.8523C22.8084 31.4669 22.6048 32.0662 22.3457 32.642C21.8111 33.7677 21.1719 34.8406 20.4366 35.8466L20.3286 36L20.1809 35.875C19.4334 35.247 18.7309 34.5673 18.0786 33.8409C17.3997 33.0931 16.8866 32.2101 16.5729 31.25C16.4241 30.7712 16.327 30.2779 16.2832 29.7784C16.2376 29.2768 16.2491 28.7717 16.3172 28.2727C16.4622 27.3019 16.7554 26.3591 17.1866 25.4773V25.4773Z" fill="#231F20"/>
<path d="M22.2839 25.2045C22.944 26.7746 24.1569 28.0482 25.693 28.7841C27.6142 29.751 29.7855 30.1059 31.9146 29.8011C31.5795 28.1677 30.9123 26.6205 29.9544 25.2557C28.9146 23.7954 27.6305 22 25.1135 21.8011C23.9586 21.7427 22.8058 21.9507 21.7441 22.4091C21.7545 23.3658 21.9373 24.3128 22.2839 25.2045Z" fill="#F8C803"/>
<path d="M22.3358 25.1875C22.6934 26.0624 23.2999 26.8131 24.0801 27.3466C24.4561 27.6101 24.8533 27.8419 25.2676 28.0398C25.6767 28.25 26.1028 28.4318 26.5062 28.6079C27.3424 28.968 28.2096 29.2514 29.0971 29.4545C30.0124 29.6705 30.9579 29.7281 31.8926 29.625L31.7449 29.8295C31.4928 28.6547 31.0162 27.5396 30.3414 26.5454C30.0087 26.0534 29.6502 25.5793 29.2676 25.125C28.9213 24.6621 28.5415 24.2253 28.1312 23.8182C27.359 23.0521 26.3649 22.5491 25.2903 22.3807C24.1476 22.2538 22.9912 22.3425 21.8812 22.642L22.0517 22.375C22.0033 22.8472 22.0033 23.3232 22.0517 23.7954C22.0898 24.2692 22.1852 24.7367 22.3358 25.1875V25.1875ZM22.2335 25.2273C22.0482 24.7829 21.8907 24.3275 21.7619 23.8636C21.6302 23.3854 21.5278 22.8997 21.4551 22.4091V22.2557L21.6539 22.142C22.7762 21.4501 24.0897 21.1337 25.4039 21.2386C26.0858 21.2913 26.7494 21.4848 27.3528 21.8068C27.9433 22.1281 28.4738 22.5491 28.921 23.0511C29.3426 23.5213 29.7228 24.0269 30.0574 24.5625C30.413 25.082 30.7192 25.6337 30.9721 26.2102C31.4539 27.3612 31.8231 28.5562 32.0744 29.7784L32.1199 29.9602H31.9267C30.9592 30.0974 29.9833 30.1657 29.0062 30.1648C28.0023 30.162 27.0098 29.9512 26.0914 29.5454C25.6375 29.3337 25.2071 29.0747 24.8074 28.7727C24.4049 28.4715 24.0388 28.1245 23.7164 27.7386C23.0957 26.9829 22.5955 26.1358 22.2335 25.2273V25.2273Z" fill="#231F20"/>
<path d="M25.4884 13.4091C27.1136 12.9121 28.5003 11.8367 29.3862 10.3864C30.5449 8.57238 31.1181 6.44609 31.0282 4.29547C29.3611 4.46309 27.7462 4.97173 26.2839 5.78979C24.7328 6.67615 22.818 7.76706 22.3634 10.25C22.19 11.3915 22.2794 12.5574 22.6248 13.6591C23.5866 13.7491 24.5568 13.6644 25.4884 13.4091Z" fill="#F8C803"/>
<path d="M25.4729 13.3523C26.3812 13.0886 27.1915 12.5629 27.8024 11.8409C28.1014 11.4843 28.3712 11.1043 28.6093 10.7045C28.8536 10.3239 29.0865 9.91477 29.3024 9.52841C29.7579 8.73609 30.1384 7.90292 30.4388 7.03977C30.7445 6.15158 30.8963 5.21771 30.8877 4.27841L31.0809 4.44886C29.8874 4.57986 28.7301 4.93861 27.6718 5.50568C27.1444 5.79534 26.6323 6.11205 26.1377 6.45455C25.6404 6.76118 25.1657 7.10296 24.7172 7.47727C23.8773 8.17583 23.2805 9.12272 23.0127 10.1818C22.7695 11.3026 22.7406 12.4593 22.9274 13.5909L22.6774 13.3864C23.1397 13.4925 23.6122 13.5478 24.0865 13.5511C24.5553 13.5451 25.0213 13.4783 25.4729 13.3523V13.3523ZM25.507 13.4659C25.0393 13.6053 24.5629 13.7135 24.0808 13.7898C23.592 13.8717 23.0987 13.9249 22.6036 13.9489H22.4502L22.3593 13.7443C21.7806 12.5584 21.5974 11.2182 21.8365 9.92046C21.9605 9.24759 22.2216 8.60743 22.6036 8.03977C22.9856 7.48567 23.4581 6.99973 24.0013 6.60227C24.5141 6.2242 25.0577 5.88969 25.6263 5.60227C26.1708 5.30313 26.7413 5.05401 27.3308 4.85795C28.5231 4.49999 29.7462 4.2546 30.9843 4.125H31.1774V4.31818C31.2158 5.29461 31.1835 6.27254 31.0809 7.24432C30.9758 8.24518 30.6623 9.21294 30.1604 10.0852C29.9038 10.5151 29.6029 10.9169 29.2627 11.2841C28.922 11.6534 28.5408 11.9831 28.1263 12.267C27.3177 12.7947 26.4349 13.1988 25.507 13.4659V13.4659Z" fill="#231F20"/>
<path d="M23.5273 11.1363C24.0304 10.759 24.4498 10.2814 24.7588 9.73376C25.0679 9.18608 25.2599 8.58023 25.3228 7.95452C25.498 6.28556 25.1378 4.60413 24.2944 3.15338C23.1326 3.69287 22.1087 4.48947 21.3001 5.48293C20.4648 6.52838 19.4364 7.81816 20.0217 9.72157C20.3264 10.6133 20.8252 11.4264 21.4819 12.1022C22.2192 11.9142 22.9136 11.5863 23.5273 11.1363V11.1363Z" fill="#A86F09"/>
<path d="M23.4944 11.0909C24.0649 10.6597 24.4668 10.0427 24.6307 9.34657C24.7146 9.01117 24.7678 8.66886 24.7898 8.32384C24.7898 7.97725 24.8353 7.63066 24.8466 7.30112C24.8686 6.61765 24.8344 5.93353 24.7444 5.25566C24.6596 4.54311 24.4459 3.85193 24.1137 3.21589L24.3466 3.28975C23.5096 3.68845 22.7735 4.27114 22.1932 4.9943C21.9035 5.34657 21.6705 5.70452 21.4035 6.09657C21.1503 6.45598 20.9279 6.83612 20.7387 7.23293C20.4048 7.95757 20.3404 8.77752 20.5569 9.54543C20.8273 10.381 21.2095 11.1761 21.6932 11.9091L21.4091 11.8238C22.1591 11.7796 22.8817 11.5257 23.4944 11.0909ZM23.5626 11.1818C22.9377 11.644 22.2653 12.0383 21.5569 12.3579L21.4489 12.4091L21.2728 12.2784C20.4326 11.6798 19.7977 10.8365 19.4546 9.86362C19.2692 9.34526 19.205 8.79131 19.2671 8.2443C19.3282 7.70177 19.5003 7.17763 19.7728 6.70452C20.0245 6.2673 20.3216 5.85784 20.6591 5.48293C20.9782 5.10538 21.3363 4.76257 21.7273 4.46021C22.5134 3.8917 23.3481 3.39357 24.2216 2.97157L24.3694 2.89771L24.4489 3.04543C24.8012 3.69884 25.1762 4.35225 25.4773 5.06248C25.7897 5.77772 25.9317 6.55573 25.8921 7.33521C25.8633 7.72239 25.785 8.10429 25.6591 8.47157C25.5344 8.847 25.3606 9.20427 25.1421 9.53407C24.7142 10.17 24.1798 10.7274 23.5626 11.1818V11.1818Z" fill="#231F20"/>
<path d="M24.6474 24.8238C25.1531 25.2036 25.5741 25.6848 25.8832 26.2366C26.1924 26.7884 26.383 27.3987 26.4428 28.0284C26.6181 29.6973 26.2579 31.3787 25.4144 32.8295C24.254 32.2878 23.2305 31.4916 22.4201 30.5C21.5849 29.4545 20.5565 28.1647 21.136 26.2613C21.4426 25.3641 21.9431 24.5455 22.6019 23.8636C23.3385 24.051 24.0327 24.3768 24.6474 24.8238Z" fill="#A86F09"/>
<path d="M24.6805 24.7785C25.2949 25.2227 25.829 25.7684 26.26 26.3921C26.4763 26.7231 26.65 27.0801 26.7771 27.4546C26.9001 27.8226 26.9783 28.2042 27.01 28.591C27.0469 29.3703 26.9051 30.1477 26.5952 30.8637C26.2941 31.5739 25.9191 32.2273 25.5668 32.875L25.4873 33.0285L25.3339 32.9489C24.4623 32.5289 23.6295 32.0326 22.8452 31.466C22.4542 31.1636 22.0961 30.8208 21.7771 30.4432C21.4373 30.0701 21.14 29.6604 20.8907 29.2216C20.6163 28.749 20.4422 28.2248 20.3793 27.6819C20.3222 27.1326 20.3882 26.5774 20.5725 26.0569C20.9153 25.0854 21.5504 24.2438 22.3907 23.6478L22.5612 23.5171L22.6748 23.5682C23.3841 23.8999 24.0564 24.3056 24.6805 24.7785V24.7785ZM24.6123 24.8694C23.9971 24.4427 23.2748 24.1966 22.5271 24.1591L22.8112 24.0739C22.3277 24.807 21.9455 25.6021 21.6748 26.4375C21.4606 27.2062 21.527 28.026 21.8623 28.75C22.0493 29.148 22.2718 29.5283 22.5271 29.8864C22.7713 30.2671 23.0349 30.635 23.3168 30.9887C23.8949 31.7117 24.6291 32.2945 25.4646 32.6932L25.2373 32.7671C25.5827 32.1186 25.8043 31.4115 25.8907 30.6819C25.9777 30.0037 26.0119 29.3198 25.993 28.6364C25.993 28.3069 25.993 27.9603 25.9305 27.6137C25.9132 27.2685 25.8618 26.926 25.7771 26.591C25.5992 25.8998 25.1876 25.2916 24.6123 24.8694V24.8694Z" fill="#231F20"/>
<path d="M10.9187 23.0909C9.61378 24.1869 7.95163 24.7652 6.24823 24.7159C4.09952 24.7005 2.00728 24.0262 0.253906 22.7841C1.30172 21.4758 2.6071 20.3967 4.08913 19.6136C5.68004 18.7954 7.63459 17.7784 9.96982 18.75C11.0246 19.225 11.9559 19.9366 12.6914 20.8295C12.2427 21.6847 11.642 22.451 10.9187 23.0909Z" fill="#F8C803"/>
<path d="M10.9545 23.1307C10.2165 23.7734 9.38502 24.3003 8.48864 24.6932C8.02494 24.8872 7.54081 25.0283 7.04546 25.1136C6.55234 25.2001 6.05127 25.2325 5.55114 25.2102C4.54523 25.1551 3.56201 24.8899 2.66477 24.4318C1.79672 23.9867 0.959607 23.4837 0.159091 22.9261L0 22.8239L0.125 22.6761C0.906874 21.7065 1.77813 20.8124 2.72727 20.0057C3.21699 19.6101 3.74191 19.2601 4.29546 18.9602C4.83962 18.6401 5.40983 18.3664 6 18.1421C6.6285 17.9014 7.29319 17.7689 7.96591 17.75C8.6516 17.7387 9.33232 17.8683 9.96591 18.1307C11.1803 18.641 12.2025 19.5219 12.8864 20.6477L13.0114 20.8352L12.9205 20.9602C12.6322 21.3584 12.3191 21.7379 11.983 22.0966C11.6632 22.4635 11.3197 22.8089 10.9545 23.1307V23.1307ZM10.8807 23.0455C11.2388 22.7296 11.5523 22.3664 11.8125 21.9659C12.0687 21.5681 12.2803 21.1432 12.4432 20.6989L12.5 21.0227C11.6528 20.2524 10.6678 19.649 9.59659 19.2443C8.55885 18.8946 7.437 18.8827 6.39205 19.2102C5.83415 19.3836 5.28922 19.5963 4.76137 19.8466C4.19318 20.0966 3.68182 20.3239 3.15909 20.6193C2.10736 21.1944 1.17574 21.9659 0.414773 22.8921L0.380682 22.6421C1.16328 23.1651 2.03012 23.5495 2.94318 23.7784C3.824 24.0028 4.72365 24.1455 5.63068 24.2046C6.07387 24.2046 6.53977 24.2614 7 24.2614C7.45764 24.2706 7.91533 24.2459 8.36932 24.1875C9.29996 24.0601 10.173 23.6631 10.8807 23.0455V23.0455Z" fill="#231F20"/>
<path d="M10.8936 16.8069C9.30312 17.4102 7.54668 17.4102 5.95614 16.8069C3.93027 16.0847 2.17502 14.7579 0.927734 13.0057C2.34882 12.1227 3.93687 11.5424 5.59251 11.3012C7.36524 11.0512 9.56978 10.733 11.4277 12.4375C12.2654 13.2279 12.9107 14.1998 13.3141 15.2785C12.6063 15.9301 11.7863 16.448 10.8936 16.8069V16.8069Z" fill="#F8C803"/>
<path d="M10.9142 16.8579C10.0061 17.2201 9.0482 17.4424 8.07333 17.517C7.57193 17.5446 7.06901 17.5179 6.57333 17.4375C6.0743 17.3578 5.58492 17.2264 5.11311 17.0454C4.18372 16.654 3.3459 16.0735 2.65288 15.3409C1.98096 14.6263 1.35832 13.867 0.78924 13.0682L0.669922 12.9147L0.840377 12.8182C1.89648 12.169 3.01354 11.6248 4.1756 11.1932C4.76873 10.977 5.38146 10.8191 6.00515 10.7216C6.63066 10.5997 7.26569 10.5331 7.90288 10.5227C8.57464 10.4987 9.24549 10.591 9.88583 10.7954C10.5362 11.0106 11.1357 11.3568 11.6472 11.8125C12.628 12.6907 13.3028 13.8592 13.5733 15.1477L13.6302 15.3693L13.4995 15.4602C13.0952 15.7451 12.674 16.005 12.2381 16.2386C11.8114 16.4749 11.3691 16.6818 10.9142 16.8579V16.8579ZM10.8688 16.75C11.3109 16.5683 11.7273 16.3296 12.1074 16.0397C12.48 15.7486 12.8192 15.417 13.1188 15.0511L13.0677 15.3409C12.5188 14.3367 11.7887 13.4428 10.9142 12.7045C10.0489 12.0316 8.99281 11.6497 7.8972 11.6136C7.31501 11.5924 6.73206 11.6133 6.15288 11.6761C5.5609 11.7127 4.97114 11.7791 4.38583 11.875C3.1979 12.0735 2.05958 12.4999 1.03356 13.1307L1.08469 12.8807C1.65174 13.6282 2.34375 14.2722 3.13015 14.7841C3.88264 15.2922 4.67943 15.7315 5.51083 16.0966C5.91992 16.2613 6.35174 16.4488 6.78356 16.5966C7.21218 16.7596 7.65293 16.8888 8.10174 16.9829C9.02694 17.1788 9.98936 17.0978 10.8688 16.75V16.75Z" fill="#231F20"/>
<path d="M12.7261 12.8864C11.2699 12.0198 10.1792 10.6523 9.65794 9.03985C8.95563 7.00701 8.89415 4.8076 9.48181 2.73871C11.0641 3.28746 12.5165 4.15584 13.7489 5.28985C15.05 6.51712 16.6636 8.0228 16.5216 10.5455C16.4272 11.6991 16.0674 12.8153 15.4704 13.8069C14.5071 13.6705 13.5769 13.3585 12.7261 12.8864V12.8864Z" fill="#F8C803"/>
<path d="M12.6989 12.9375C11.8522 12.4567 11.0855 11.8472 10.4261 11.1307C10.0844 10.7605 9.7887 10.3503 9.54545 9.90913C9.30822 9.47206 9.11777 9.01117 8.97727 8.53413C8.69178 7.56905 8.61051 6.55508 8.73864 5.55685C8.86446 4.59827 9.05428 3.64918 9.30682 2.71594L9.35227 2.52844L9.53409 2.59662C10.7164 3.01074 11.8577 3.53382 12.9432 4.15913C13.4796 4.49251 13.9853 4.87279 14.4545 5.29549C14.9392 5.70928 15.3878 6.16357 15.7955 6.65344C16.2311 7.15915 16.577 7.73564 16.8182 8.35799C17.0593 8.99988 17.1657 9.68456 17.1307 10.3694C17.0585 11.6862 16.5689 12.9459 15.733 13.9659L15.5966 14.1421L15.4489 14.1023C14.971 13.9655 14.5022 13.7985 14.0455 13.6023C13.5833 13.4087 13.1336 13.1867 12.6989 12.9375ZM12.7557 12.8409C13.176 13.0672 13.6225 13.2409 14.0852 13.358C14.5474 13.4657 15.0198 13.5229 15.4943 13.5284L15.2045 13.6648C15.6469 12.6092 15.8859 11.4796 15.9091 10.3353C15.8925 9.23932 15.5284 8.17694 14.8693 7.30117C14.5226 6.8333 14.1429 6.39088 13.733 5.97731C13.3432 5.5402 12.9317 5.12301 12.5 4.72731C11.594 3.92246 10.5405 3.30112 9.39773 2.89776L9.625 2.77844C9.39884 3.69 9.32967 4.63342 9.42045 5.56822C9.50238 6.47546 9.66786 7.3732 9.91477 8.25004C10.0398 8.67049 10.1648 9.12504 10.3182 9.55685C10.4585 9.99326 10.6353 10.4171 10.8466 10.8239C11.2703 11.6696 11.9345 12.3714 12.7557 12.8409V12.8409Z" fill="#231F20"/>
<path d="M12.0785 23.6251C10.7454 24.6739 9.84037 26.1728 9.53302 27.841C9.11162 29.9433 9.3436 32.1243 10.1978 34.091C11.6935 33.3337 13.0166 32.2756 14.0842 30.983C15.2205 29.5966 16.6069 27.8864 16.1353 25.4091C15.8874 24.2778 15.3797 23.2196 14.6523 22.3182C13.7219 22.5932 12.8496 23.0361 12.0785 23.6251V23.6251Z" fill="#F8C803"/>
<path d="M12.114 23.6704C11.3612 24.2523 10.7961 25.0427 10.489 25.9432C10.3403 26.377 10.2244 26.8215 10.1424 27.2727C10.0458 27.7216 9.98328 28.1818 9.9151 28.6193C9.78563 29.5203 9.74187 30.4316 9.78441 31.3409C9.81431 32.2797 10.0065 33.2063 10.3526 34.0795L10.114 33.9943C11.1815 33.4403 12.1325 32.6861 12.9151 31.7727C13.3128 31.3238 13.6367 30.8579 14.0003 30.3636C14.3526 29.8981 14.6716 29.4082 14.9549 28.8977C15.488 27.942 15.7067 26.8427 15.5799 25.7557C15.4042 24.6242 15.0188 23.5355 14.4435 22.5454L14.7446 22.642C14.2771 22.7137 13.8182 22.8337 13.3753 23C12.928 23.1688 12.5041 23.3941 12.114 23.6704V23.6704ZM12.0458 23.5795C12.4306 23.2803 12.8349 23.007 13.256 22.7613C13.6822 22.5094 14.1223 22.2817 14.5742 22.0795L14.7162 22.017L14.881 22.1761C15.8455 23.0811 16.498 24.2688 16.7446 25.5682C16.8706 26.2418 16.8571 26.9341 16.7049 27.6023C16.5468 28.2515 16.2777 28.8686 15.9094 29.4261C15.5748 29.967 15.1946 30.4783 14.7731 30.9545C14.3644 31.4332 13.9137 31.8743 13.4265 32.2727C12.4419 33.0378 11.3881 33.7092 10.2787 34.2784L10.1083 34.3693L10.0401 34.1875C9.65716 33.2913 9.34003 32.3684 9.09123 31.4261C8.82882 30.4542 8.7727 29.4381 8.92646 28.4432C9.00943 27.9498 9.1427 27.4662 9.32419 27C9.51084 26.5336 9.74907 26.0896 10.0344 25.6761C10.5933 24.8781 11.2717 24.171 12.0458 23.5795Z" fill="#231F20"/>
<path d="M13.4217 24.1591C13.2897 24.7779 13.0301 25.3624 12.6592 25.875C12.2884 26.3877 11.8147 26.8173 11.2683 27.1364C9.82724 27.9967 8.1493 28.3749 6.47852 28.2159C6.47835 26.9336 6.77184 25.6683 7.33647 24.5171C7.93306 23.3239 8.67738 21.8466 10.649 21.5796C11.5862 21.4828 12.5333 21.5953 13.4217 21.9091C13.5652 22.6522 13.5652 23.416 13.4217 24.1591Z" fill="#A86F09"/>
<path d="M13.4778 24.1705C13.3329 24.9155 13.062 25.6303 12.6767 26.2842C12.4686 26.6196 12.2184 26.927 11.9324 27.1989C11.6454 27.4676 11.3267 27.7004 10.9835 27.8921C10.281 28.2572 9.50242 28.4518 8.71076 28.4603C7.94372 28.4603 7.19371 28.4205 6.43803 28.3694H6.26758V28.2046C6.28345 27.2353 6.38614 26.2693 6.5744 25.3183C6.81137 24.3466 7.22341 23.4263 7.79031 22.6024C8.10572 22.1553 8.50998 21.7781 8.97781 21.4944C9.46461 21.2214 10.0061 21.0603 10.563 21.0228C11.5886 20.9284 12.6184 21.1526 13.5119 21.6649L13.7051 21.7671V21.8864C13.7088 22.6536 13.6326 23.4191 13.4778 24.1705ZM13.3699 24.1705C13.4994 23.434 13.4187 22.6758 13.1369 21.983L13.3358 22.2046C12.4686 22.0856 11.5893 22.0856 10.7221 22.2046C9.93429 22.3311 9.21721 22.7339 8.6994 23.341C8.42165 23.6634 8.1726 24.0094 7.95508 24.3751C7.71083 24.7608 7.48704 25.1591 7.28462 25.5683C6.87429 26.3952 6.65672 27.3043 6.64826 28.2274L6.48917 28.0512C7.20513 28.0859 7.92141 27.9896 8.60281 27.7671C9.25749 27.5648 9.89416 27.3082 10.5062 27.0001C10.8017 26.8524 11.1085 26.6933 11.4096 26.5228C11.7129 26.358 12.0018 26.1679 12.2733 25.9546C12.8409 25.5009 13.2294 24.8608 13.3699 24.1478V24.1705Z" fill="#231F20"/>
<path d="M26.9483 19.4318C28.5385 20.0373 30.2957 20.0373 31.8858 19.4318C33.9185 18.7109 35.6801 17.3818 36.9313 15.625C35.5093 14.7437 33.9217 14.1635 32.2665 13.9204C30.4938 13.6704 28.2892 13.3523 26.4313 15.0568C25.5939 15.8474 24.9487 16.8192 24.5449 17.8977C25.248 18.5486 26.062 19.0682 26.9483 19.4318Z" fill="#F8C803"/>
<path d="M26.9705 19.3807C27.8505 19.7267 28.8129 19.8057 29.7376 19.608C30.1864 19.5166 30.6273 19.3893 31.0558 19.2273C31.4876 19.0739 31.9194 18.8921 32.3285 18.7216C33.165 18.3649 33.9675 17.9333 34.7262 17.4319C35.5115 16.9163 36.2033 16.2707 36.7717 15.5228L36.8228 15.7728C35.7981 15.1447 34.6618 14.7202 33.4762 14.5228C32.908 14.4148 32.3398 14.375 31.7092 14.3182C31.128 14.2573 30.5431 14.2383 29.9592 14.2614C28.8665 14.2939 27.8122 14.6718 26.9478 15.3409C26.0687 16.0783 25.3362 16.9746 24.7887 17.983L24.7205 17.6705C25.0215 18.0368 25.3605 18.3701 25.7319 18.6648C26.1138 18.9534 26.5298 19.1938 26.9705 19.3807V19.3807ZM26.9308 19.483C26.4742 19.3088 26.03 19.1038 25.6012 18.8694C25.1641 18.6379 24.7427 18.3778 24.3398 18.0909L24.2148 18.0057L24.266 17.7841C24.5372 16.4943 25.2118 15.3242 26.1921 14.4432C26.7052 13.9897 27.3042 13.6438 27.9535 13.4262C28.5936 13.2202 29.2644 13.1261 29.9364 13.1478C30.5736 13.1579 31.2087 13.2245 31.8342 13.3466C32.457 13.4482 33.0694 13.606 33.6637 13.8182C34.8274 14.2642 35.946 14.8197 37.0046 15.4773L37.1694 15.5739L37.0501 15.7273C36.4857 16.5297 35.8628 17.2894 35.1864 18C34.4913 18.7354 33.6492 19.3161 32.7148 19.7046C32.2498 19.8897 31.7659 20.0231 31.2717 20.1023C30.7766 20.1884 30.273 20.2151 29.7717 20.1819C28.7938 20.1002 27.8349 19.8644 26.9308 19.483V19.483Z" fill="#231F20"/>
<path d="M10.9714 14.159C10.339 14.118 9.72218 13.9451 9.16052 13.6516C8.59887 13.358 8.1048 12.9503 7.71005 12.4545C6.6489 11.1539 6.0264 9.55087 5.93164 7.87495C7.19948 7.68599 8.49373 7.78899 9.71573 8.17608C10.9885 8.59086 12.5566 9.1079 13.1248 11.017C13.3566 11.9315 13.3857 12.8856 13.2101 13.8124C12.4925 14.0687 11.7328 14.1863 10.9714 14.159V14.159Z" fill="#A86F09"/>
<path d="M10.9663 14.2046C10.2089 14.1735 9.46275 14.0101 8.76172 13.7217C8.39761 13.5667 8.05562 13.3641 7.74467 13.1194C7.43412 12.8789 7.15705 12.598 6.92081 12.2842C6.45517 11.65 6.14212 10.917 6.00604 10.1421C5.86967 9.38074 5.82422 8.63074 5.76172 7.86938V7.69893H5.92649C6.88892 7.57413 7.8603 7.53231 8.8299 7.57393C9.32081 7.61243 9.80638 7.70193 10.2788 7.84097C10.7678 7.96876 11.242 8.14778 11.6935 8.37506C12.1812 8.62365 12.614 8.96756 12.9663 9.38643C13.3137 9.81339 13.5621 10.3121 13.6935 10.8467C13.9431 11.8462 13.8756 12.8986 13.5004 13.858L13.4265 14.0626H13.3072C12.5341 14.1926 11.7494 14.2402 10.9663 14.2046V14.2046ZM10.9663 14.091C11.7175 14.1054 12.4578 13.9085 13.1026 13.5228L12.9094 13.7444C12.9032 12.87 12.7789 12.0004 12.5401 11.1592C12.2982 10.4004 11.7948 9.75206 11.1197 9.32961C10.7448 9.1066 10.3513 8.91649 9.94354 8.76143C9.50036 8.57961 9.11399 8.40915 8.67649 8.27279C7.796 7.99346 6.86433 7.91387 5.94922 8.03983L6.10263 7.85233C6.16594 8.56487 6.35847 9.25992 6.67081 9.90347C6.97042 10.5189 7.31809 11.1097 7.71058 11.6705C7.90376 11.9432 8.10831 12.2387 8.32422 12.4944C8.53046 12.7697 8.76052 13.0264 9.01172 13.2614C9.54297 13.768 10.2388 14.0665 10.9719 14.1023L10.9663 14.091Z" fill="#231F20"/>
<path d="M25.3919 12.5397C25.6709 11.9725 26.0643 11.4691 26.5473 11.0613C27.0304 10.6536 27.5926 10.3502 28.1987 10.1704C29.8068 9.68301 31.5283 9.72083 33.1135 10.2784C32.8045 11.5183 32.2221 12.6733 31.4089 13.659C30.5396 14.6761 29.4601 15.9318 27.4828 15.7159C26.5507 15.5778 25.6593 15.2406 24.8691 14.7272C24.9065 13.972 25.0837 13.2302 25.3919 12.5397V12.5397Z" fill="#A86F09"/>
<path d="M25.342 12.5001C25.6655 11.8132 26.1014 11.1853 26.6317 10.6421C27.202 10.0963 27.9021 9.7052 28.6658 9.50573C29.4317 9.32402 30.2295 9.32402 30.9954 9.50573C31.7511 9.66482 32.4556 9.90914 33.1658 10.1307L33.3306 10.1819L33.2795 10.3466C33.0317 11.2815 32.7009 12.1923 32.2908 13.0682C32.0661 13.507 31.7977 13.9219 31.4897 14.3069C31.1861 14.7108 30.8394 15.0804 30.4556 15.4091C30.0441 15.7679 29.5622 16.0369 29.0408 16.1989C28.5129 16.3595 27.9558 16.4002 27.4102 16.3182C26.3917 16.1638 25.4454 15.6996 24.6999 14.9887L24.5352 14.841V14.7216C24.7242 13.9545 24.9947 13.2097 25.342 12.5001V12.5001ZM25.4442 12.5455C25.1364 13.2448 25.032 14.0168 25.1431 14.7728L25.0011 14.483C25.8111 14.8112 26.6615 15.0291 27.5295 15.1307C28.3256 15.1967 29.1191 14.9771 29.7681 14.5114C30.1224 14.249 30.4532 13.9562 30.7567 13.6364C31.092 13.2955 31.3988 13.0057 31.6886 12.6478C32.2881 11.9469 32.7213 11.1194 32.9556 10.2273L33.0693 10.4376C32.3775 10.2397 31.6557 10.1685 30.9386 10.2273C30.2542 10.2729 29.5743 10.3697 28.9045 10.5171C28.5863 10.591 28.2511 10.6705 27.9158 10.7671C27.58 10.8519 27.2528 10.968 26.9386 11.1137C26.2887 11.4105 25.761 11.9222 25.4442 12.5626V12.5455Z" fill="#231F20"/>
<path d="M25.3919 22.1591C25.6709 22.7263 26.0643 23.2297 26.5473 23.6375C27.0304 24.0452 27.5926 24.3486 28.1987 24.5284C29.8056 25.0194 31.5271 24.9856 33.1135 24.4318C32.8084 23.1819 32.2258 22.0167 31.4089 21.0227C30.5396 20.0057 29.4601 18.75 27.4828 18.9659C26.5507 19.104 25.6593 19.4412 24.8691 19.9545C24.9044 20.7155 25.0817 21.4633 25.3919 22.1591V22.1591Z" fill="#A86F09"/>
<path d="M25.4432 22.1592C25.7557 22.8081 26.2839 23.3282 26.9375 23.6308C27.2518 23.7765 27.5789 23.8925 27.9148 23.9774C28.25 24.074 28.5852 24.1535 28.9034 24.2274C29.5732 24.3748 30.2532 24.4716 30.9375 24.5172C31.6525 24.5654 32.3704 24.4846 33.0568 24.2785L32.9432 24.4888C32.713 23.5957 32.2837 22.7663 31.6875 22.0626C31.3948 21.7185 31.0837 21.3904 30.7557 21.0797C30.455 20.7607 30.126 20.4698 29.7727 20.2103C29.122 19.7482 28.3298 19.5291 27.5341 19.591C26.6649 19.6867 25.8126 19.8989 25 20.2217L25.1364 19.9603C25.0325 20.7076 25.1387 21.469 25.4432 22.1592V22.1592ZM25.3409 22.2047C25.0057 21.5047 24.7448 20.7715 24.5625 20.0172V19.8978L24.7273 19.7501C25.4728 19.0392 26.419 18.575 27.4375 18.4206C27.9832 18.3386 28.5403 18.3794 29.0682 18.5399C29.5786 18.7021 30.0503 18.967 30.4545 19.3183C30.8383 19.647 31.185 20.0166 31.4886 20.4206C31.7966 20.8055 32.065 21.2205 32.2898 21.6592C32.7001 22.5369 33.031 23.4497 33.2784 24.3865L33.3295 24.5513L33.1648 24.6024C32.4545 24.824 31.75 25.0683 30.9943 25.2274C30.2284 25.4091 29.4307 25.4091 28.6648 25.2274C27.9011 25.0279 27.2009 24.6368 26.6307 24.091C26.0961 23.5341 25.66 22.8905 25.3409 22.1876V22.2047Z" fill="#231F20"/>
<path d="M11.0732 19.4489C10.5872 19.8525 10.0224 20.1504 9.41493 20.3235C8.80741 20.4967 8.17047 20.5413 7.54475 20.4546C5.87789 20.2478 4.32092 19.5131 3.10156 18.358C3.89276 17.3511 4.90068 16.5354 6.05043 15.9716C7.26065 15.4034 8.75497 14.6932 10.4709 15.6932C11.2691 16.1957 11.9478 16.8667 12.4595 17.6591C12.1148 18.338 11.6444 18.9454 11.0732 19.4489V19.4489Z" fill="#A86F09"/>
<path d="M11.1049 19.4943C10.5344 19.9945 9.88059 20.3907 9.17312 20.6648C8.43012 20.9356 7.63064 21.0138 6.84926 20.892C6.07539 20.7517 5.34432 20.4348 4.71289 19.9659C4.12008 19.5087 3.55115 19.0213 3.00835 18.5057L2.83789 18.392L2.94585 18.267C3.55444 17.5113 4.22948 16.8115 4.96289 16.1761C5.36002 15.8609 5.79064 15.5903 6.24698 15.3693C6.68979 15.1316 7.15637 14.9412 7.63903 14.8011C8.16119 14.6421 8.71076 14.5938 9.25267 14.6591C9.80003 14.7316 10.3242 14.9257 10.7868 15.2273C11.6567 15.7812 12.3336 16.591 12.7243 17.5455L12.8152 17.7443L12.7356 17.8409C12.2535 18.4494 11.7067 19.0038 11.1049 19.4943V19.4943ZM11.0368 19.4091C11.5909 18.9061 11.9942 18.2589 12.2015 17.5398V17.8352C11.5929 17.2066 10.9031 16.662 10.1504 16.2159C9.458 15.8342 8.65236 15.7113 7.87766 15.8693C7.44853 15.9633 7.02838 16.0945 6.62198 16.2614C6.18448 16.4318 5.78107 16.5739 5.37198 16.7784C4.54015 17.1778 3.80971 17.7606 3.23562 18.483V18.2386C3.77288 18.7064 4.39095 19.0722 5.05948 19.3182C5.70101 19.5582 6.36018 19.7482 7.03107 19.8864C7.35494 19.9489 7.69585 20.0114 8.04244 20.0625C8.3824 20.1179 8.72642 20.1445 9.07085 20.142C9.79183 20.1358 10.4877 19.8764 11.0368 19.4091V19.4091Z" fill="#231F20"/>
<path d="M18.6642 26.7045C18.9122 27.2859 19.0363 27.9126 19.0285 28.5446C19.0206 29.1765 18.8811 29.8 18.6187 30.375C17.9444 31.9162 16.7959 33.2021 15.3403 34.0454C14.6022 32.9985 14.1107 31.7981 13.9028 30.5341C13.704 29.2102 13.454 27.5795 14.9085 26.2216C15.6199 25.6002 16.4601 25.1442 17.3687 24.8864C17.9072 25.4089 18.3462 26.0249 18.6642 26.7045V26.7045Z" fill="#A86F09"/>
<path d="M18.718 26.7045C19.0291 27.3965 19.2212 28.1361 19.2862 28.892C19.3107 29.2877 19.284 29.685 19.2067 30.0738C19.1304 30.467 19.0044 30.8488 18.8317 31.2102C18.4684 31.8999 17.9513 32.4967 17.3203 32.9545C16.7121 33.399 16.0805 33.8106 15.4283 34.1875L15.2805 34.2784L15.1896 34.1363C14.645 33.3365 14.1716 32.4905 13.7749 31.6079C13.5865 31.1525 13.4475 30.6782 13.3601 30.1931C13.252 29.6985 13.1968 29.1938 13.1953 28.6875C13.1966 28.1403 13.3087 27.5992 13.5249 27.0965C13.7501 26.5941 14.0838 26.1478 14.5021 25.7897C15.2828 25.1163 16.254 24.7032 17.2805 24.6079H17.4965L17.5646 24.7045C18.0177 25.3292 18.4043 25.9995 18.718 26.7045V26.7045ZM18.6101 26.75C18.2912 26.0727 17.7893 25.4981 17.1612 25.0909L17.451 25.159C16.6719 25.5567 15.9511 26.0595 15.309 26.6534C14.7381 27.2113 14.3854 27.9549 14.3146 28.75C14.275 29.1866 14.275 29.6259 14.3146 30.0625C14.3364 30.5134 14.3819 30.9629 14.451 31.409C14.5957 32.3211 14.9433 33.189 15.468 33.9488L15.2351 33.8977C15.8404 33.5123 16.3699 33.0193 16.7976 32.4431C17.2207 31.9058 17.6007 31.3358 17.934 30.7386C18.0874 30.4488 18.2465 30.1363 18.3942 29.8238C18.5475 29.5136 18.673 29.1903 18.7692 28.8579C18.9685 28.1587 18.9121 27.4113 18.6101 26.75V26.75Z" fill="#231F20"/>
<path d="M14.9768 10.4773C14.4439 10.1373 13.9877 9.68981 13.6374 9.16346C13.2872 8.63712 13.0506 8.04349 12.9428 7.42053C12.6504 5.765 12.8932 4.05939 13.6359 2.55121C14.833 3.004 15.9128 3.7206 16.795 4.6478C17.7041 5.63076 18.8291 6.84098 18.3916 8.78417C18.1498 9.69555 17.7115 10.543 17.1075 11.2671C16.3536 11.1414 15.6305 10.8734 14.9768 10.4773V10.4773Z" fill="#A86F09"/>
<path d="M14.9452 10.5284C14.2971 10.1296 13.7209 9.62443 13.2407 9.0341C12.9976 8.72095 12.797 8.37707 12.6441 8.01137C12.4899 7.64772 12.383 7.26583 12.3259 6.87501C12.2282 6.08918 12.3157 5.29138 12.5816 4.54546C12.8374 3.83772 13.1294 3.14362 13.4566 2.46591L13.5248 2.30682L13.6782 2.37501C14.5821 2.72516 15.4514 3.15886 16.2748 3.67046C16.6865 3.94079 17.0675 4.25514 17.4111 4.60796C17.7752 4.95203 18.1027 5.33284 18.3884 5.74432C18.695 6.19475 18.9058 6.70337 19.0077 7.23864C19.1079 7.78231 19.0846 8.34156 18.9395 8.87501C18.6682 9.8683 18.0991 10.7547 17.3089 11.4148L17.1441 11.5568L17.0304 11.5171C16.304 11.2582 15.6054 10.9269 14.9452 10.5284V10.5284ZM15.0077 10.4318C15.6522 10.8135 16.3894 11.0101 17.1384 11L16.86 11.1023C17.281 10.3364 17.5946 9.51621 17.7918 8.66478C17.9481 7.88941 17.8232 7.08374 17.4395 6.39205C17.2214 6.01106 16.9705 5.64983 16.6895 5.31251C16.3941 4.94319 16.1214 4.60228 15.8202 4.27273C15.1862 3.60135 14.4095 3.08096 13.5475 2.75001L13.7748 2.6591C13.4906 3.3175 13.3288 4.02221 13.2975 4.73864C13.2601 5.42263 13.2772 6.10851 13.3486 6.78978C13.3827 7.11364 13.4282 7.46023 13.485 7.80683C13.5301 8.14825 13.6062 8.48486 13.7123 8.81251C13.9451 9.48513 14.4026 10.057 15.0077 10.4318V10.4318Z" fill="#231F20"/>
<path d="M26.5758 21.7085C28.4312 17.2294 26.3041 12.0943 21.825 10.239C17.3459 8.38368 12.2108 10.5107 10.3554 14.9898C8.50013 19.469 10.6272 24.6041 15.1063 26.4594C19.5854 28.3147 24.7205 26.1877 26.5758 21.7085Z" fill="#8B5E3C"/>
<path d="M27.3024 18.3523C27.3224 20.7229 26.4781 23.0195 24.9274 24.8126C24.1206 25.7228 23.124 26.4448 22.0078 26.9279C20.8915 27.4109 19.6829 27.6431 18.4671 27.608C17.2609 27.559 16.0767 27.2693 14.9842 26.7557C13.3798 25.9892 12.012 24.804 11.025 23.325C10.038 21.846 9.46837 20.128 9.37622 18.3523C9.32152 17.1417 9.51565 15.9327 9.94662 14.8C10.3776 13.6674 11.0363 12.6352 11.8819 11.7671C12.7359 10.8854 13.7554 10.1807 14.8819 9.69324C16.0126 9.20577 17.2321 8.95812 18.4634 8.96594C19.6947 8.97376 20.9109 9.23689 22.0353 9.7387C23.1486 10.231 24.1398 10.9624 24.9387 11.8807C26.4893 13.6776 27.3299 15.9791 27.3024 18.3523ZM27.1887 18.3523C27.1777 17.2228 26.9262 16.1086 26.4511 15.0839C25.976 14.0591 25.288 13.1473 24.433 12.4092C22.7807 10.9665 20.6606 10.173 18.4671 10.1762C16.2982 10.1765 14.2119 11.0082 12.6376 12.5001C11.0466 14.0452 10.1022 16.1371 9.99554 18.3523C9.94855 19.4738 10.1303 20.5931 10.5296 21.6421C10.9438 22.6934 11.5772 23.6445 12.3876 24.4319C13.1993 25.1926 14.156 25.7819 15.2006 26.1645C16.2451 26.5472 17.3561 26.7154 18.4671 26.6592C20.6665 26.5867 22.7737 25.7579 24.433 24.3126C25.2735 23.5695 25.9589 22.6678 26.4501 21.6592C26.941 20.6262 27.1934 19.496 27.1887 18.3523Z" fill="#231F20"/>
<path d="M24.8877 21.0084C26.3564 17.4628 24.6726 13.3979 21.127 11.9293C17.5814 10.4606 13.5165 12.1443 12.0479 15.6899C10.5792 19.2356 12.263 23.3004 15.8086 24.7691C19.3542 26.2377 23.4191 24.554 24.8877 21.0084Z" fill="#3C2415"/>
<path d="M25.4454 18.3523C25.4617 20.2177 24.7715 22.0202 23.5136 23.3977C22.8716 24.0948 22.0913 24.6503 21.2226 25.0289C20.3539 25.4075 19.4157 25.6008 18.4681 25.5966C17.5155 25.602 16.5716 25.415 15.6929 25.047C14.8142 24.6789 14.0189 24.1373 13.3545 23.4546C12.6924 22.7817 12.1733 21.9817 11.8286 21.1029C11.4839 20.224 11.3207 19.2845 11.3488 18.3409C11.4072 16.4722 12.1657 14.6937 13.4738 13.358C14.1293 12.6964 14.8993 12.1593 15.7465 11.7727C16.604 11.3806 17.5335 11.1705 18.4762 11.1559C19.419 11.1412 20.3546 11.3222 21.2238 11.6875C22.0871 12.0583 22.8618 12.6083 23.4965 13.3011C24.7577 14.6802 25.4534 16.4835 25.4454 18.3523V18.3523ZM25.3886 18.3523C25.3834 17.4501 25.1913 16.5587 24.8246 15.7343C24.4579 14.91 23.9245 14.1705 23.2579 13.5625C21.9466 12.3626 20.245 11.6783 18.4681 11.6364C17.5792 11.6109 16.6942 11.7631 15.8649 12.0841C15.0356 12.4051 14.2787 12.8884 13.6386 13.5057C12.997 14.1354 12.4927 14.8911 12.1573 15.7252C11.8219 16.5593 11.6627 17.4537 11.6897 18.3523C11.734 20.124 12.4664 21.8089 13.7317 23.0498C14.9971 24.2907 16.6959 24.9902 18.4681 25C20.2403 24.9907 21.9456 24.3224 23.2522 23.125C23.9175 22.5192 24.4506 21.7827 24.8182 20.9615C25.1858 20.1402 25.38 19.252 25.3886 18.3523V18.3523Z" fill="#231F20"/>
<path d="M18.196 16.4148C18.5286 16.4148 18.7983 16.1451 18.7983 15.8125C18.7983 15.4799 18.5286 15.2102 18.196 15.2102C17.8634 15.2102 17.5938 15.4799 17.5938 15.8125C17.5938 16.1451 17.8634 16.4148 18.196 16.4148Z" fill="#3A331A"/>
<path d="M19.1522 17.7443C19.4314 17.7443 19.6578 17.5179 19.6578 17.2387C19.6578 16.9594 19.4314 16.733 19.1522 16.733C18.8729 16.733 18.6465 16.9594 18.6465 17.2387C18.6465 17.5179 18.8729 17.7443 19.1522 17.7443Z" fill="#3A331A"/>
<path d="M19.6667 16.6193C19.9994 16.6193 20.269 16.3497 20.269 16.0171C20.269 15.6844 19.9994 15.4148 19.6667 15.4148C19.3341 15.4148 19.0645 15.6844 19.0645 16.0171C19.0645 16.3497 19.3341 16.6193 19.6667 16.6193Z" fill="#3A331A"/>
<path d="M17.4276 18.7556C17.7068 18.7556 17.9332 18.5292 17.9332 18.2499C17.9332 17.9706 17.7068 17.7442 17.4276 17.7442C17.1483 17.7442 16.9219 17.9706 16.9219 18.2499C16.9219 18.5292 17.1483 18.7556 17.4276 18.7556Z" fill="#3A331A"/>
<path d="M19.7839 20.4944C20.1165 20.4944 20.3862 20.2248 20.3862 19.8921C20.3862 19.5595 20.1165 19.2899 19.7839 19.2899C19.4513 19.2899 19.1816 19.5595 19.1816 19.8921C19.1816 20.2248 19.4513 20.4944 19.7839 20.4944Z" fill="#3A331A"/>
<path d="M20.737 19.1421C21.0697 19.1421 21.3393 18.8725 21.3393 18.5398C21.3393 18.2072 21.0697 17.9376 20.737 17.9376C20.4044 17.9376 20.1348 18.2072 20.1348 18.5398C20.1348 18.8725 20.4044 19.1421 20.737 19.1421Z" fill="#3A331A"/>
<path d="M16.6745 17.017C17.0072 17.017 17.2768 16.7474 17.2768 16.4148C17.2768 16.0821 17.0072 15.8125 16.6745 15.8125C16.3419 15.8125 16.0723 16.0821 16.0723 16.4148C16.0723 16.7474 16.3419 17.017 16.6745 17.017Z" fill="#3A331A"/>
<path d="M16.0691 18.4887C16.4017 18.4887 16.6713 18.219 16.6713 17.8864C16.6713 17.5538 16.4017 17.2841 16.0691 17.2841C15.7364 17.2841 15.4668 17.5538 15.4668 17.8864C15.4668 18.219 15.7364 18.4887 16.0691 18.4887Z" fill="#3A331A"/>
<path d="M17.8397 17.6193C18.1189 17.6193 18.3453 17.3929 18.3453 17.1136C18.3453 16.8343 18.1189 16.6079 17.8397 16.6079C17.5604 16.6079 17.334 16.8343 17.334 17.1136C17.334 17.3929 17.5604 17.6193 17.8397 17.6193Z" fill="#3A331A"/>
<path d="M18.3288 21.0057C18.6615 21.0057 18.9311 20.736 18.9311 20.4034C18.9311 20.0708 18.6615 19.8011 18.3288 19.8011C17.9962 19.8011 17.7266 20.0708 17.7266 20.4034C17.7266 20.736 17.9962 21.0057 18.3288 21.0057Z" fill="#3A331A"/>
<path d="M16.5827 20.2841C16.9154 20.2841 17.185 20.0145 17.185 19.6819C17.185 19.3492 16.9154 19.0796 16.5827 19.0796C16.2501 19.0796 15.9805 19.3492 15.9805 19.6819C15.9805 20.0145 16.2501 20.2841 16.5827 20.2841Z" fill="#3A331A"/>
<path d="M20.737 17.6477C21.0697 17.6477 21.3393 17.3781 21.3393 17.0454C21.3393 16.7128 21.0697 16.4432 20.737 16.4432C20.4044 16.4432 20.1348 16.7128 20.1348 17.0454C20.1348 17.3781 20.4044 17.6477 20.737 17.6477Z" fill="#3A331A"/>
<path d="M18.3494 19.5512C18.6287 19.5512 18.8551 19.3248 18.8551 19.0455C18.8551 18.7662 18.6287 18.5398 18.3494 18.5398C18.0702 18.5398 17.8438 18.7662 17.8438 19.0455C17.8438 19.3248 18.0702 19.5512 18.3494 19.5512Z" fill="#3A331A"/>
<path d="M19.494 18.9035C19.7732 18.9035 19.9996 18.6771 19.9996 18.3978C19.9996 18.1185 19.7732 17.8921 19.494 17.8921C19.2147 17.8921 18.9883 18.1185 18.9883 18.3978C18.9883 18.6771 19.2147 18.9035 19.494 18.9035Z" fill="#3A331A"/>
<path d="M18.4661 18.1592C18.6167 18.1592 18.7388 18.0371 18.7388 17.8864C18.7388 17.7358 18.6167 17.6137 18.4661 17.6137C18.3155 17.6137 18.1934 17.7358 18.1934 17.8864C18.1934 18.0371 18.3155 18.1592 18.4661 18.1592Z" fill="#3A331A"/>
<path d="M17.0051 17.6818C17.1558 17.6818 17.2779 17.5597 17.2779 17.4091C17.2779 17.2585 17.1558 17.1364 17.0051 17.1364C16.8545 17.1364 16.7324 17.2585 16.7324 17.4091C16.7324 17.5597 16.8545 17.6818 17.0051 17.6818Z" fill="#3A331A"/>
<path d="M17.429 19.4205C17.5796 19.4205 17.7017 19.2984 17.7017 19.1477C17.7017 18.9971 17.5796 18.875 17.429 18.875C17.2784 18.875 17.1562 18.9971 17.1562 19.1477C17.1562 19.2984 17.2784 19.4205 17.429 19.4205Z" fill="#3A331A"/>
<path d="M19.9329 17.8921C20.0835 17.8921 20.2056 17.77 20.2056 17.6193C20.2056 17.4687 20.0835 17.3466 19.9329 17.3466C19.7823 17.3466 19.6602 17.4687 19.6602 17.6193C19.6602 17.77 19.7823 17.8921 19.9329 17.8921Z" fill="#3A331A"/>
</svg>
