<svg width="44" height="57" viewBox="0 0 44 57" fill="none" xmlns="http://www.w3.org/2000/svg">
<path d="M29.033 42.8218C29.3123 41.9946 31.0534 37.0015 35.9618 33.3203C37.2632 32.3453 39.4678 30.9449 39.8184 31.329C40.2582 31.8135 37.1919 34.573 34.4346 38.7565C29.6273 46.0422 29.2351 52.3352 28.4329 52.1874C27.7436 52.0634 27.5415 47.289 29.033 42.8218Z" fill="#1E6F5D"/>
<path d="M28.9745 42.8041C29.6757 40.8364 30.5255 38.9042 31.6783 37.1079C32.8133 35.3056 34.3702 33.7457 36.1588 32.5698C37.068 32.0026 37.9653 31.4589 39.029 31.0749C39.1656 31.0335 39.3023 30.9921 39.4806 30.9744C39.5578 30.9626 39.6767 30.9685 39.7896 30.9921C39.9263 31.0276 40.1045 31.1635 40.1283 31.3408C40.164 31.6539 40.0511 31.7603 39.9857 31.8962C39.9084 32.0262 39.8312 32.1326 39.748 32.2448C39.4212 32.6762 39.0706 33.0662 38.7319 33.4621C37.3592 35.0397 36.0934 36.6942 35.0119 38.4669C33.9423 40.2396 33.0094 42.0832 32.1834 43.9622C31.3574 45.8471 30.7216 47.7971 30.1154 49.7766L29.6341 51.2774C29.545 51.5374 29.4618 51.7856 29.3251 52.0751C29.2835 52.152 29.2597 52.217 29.1944 52.3115C29.1468 52.3883 29.0636 52.5006 28.927 52.6129C28.8141 52.6778 28.7487 52.7369 28.5704 52.7606C28.3981 52.7842 28.2555 52.7547 28.1307 52.6897C28 52.6247 27.9584 52.5715 27.8811 52.5006C27.8336 52.4474 27.7979 52.3883 27.7623 52.3351C27.5602 51.9511 27.5364 51.6733 27.483 51.3838C27.4473 51.1002 27.4354 50.8225 27.4354 50.5506C27.4235 50.007 27.4711 49.4693 27.5305 48.9434C27.7801 46.8221 28.3268 44.7895 28.9745 42.8041ZM29.0874 42.8395C28.4337 44.8131 28.2317 46.9226 28.309 48.9671C28.3268 49.4752 28.3743 49.9893 28.4337 50.4797C28.4635 50.7279 28.5051 50.9702 28.5585 51.2006C28.6001 51.4193 28.6833 51.6674 28.7368 51.7383C28.7368 51.7324 28.7368 51.7324 28.7309 51.7265C28.7071 51.6911 28.7011 51.697 28.6358 51.6497C28.5764 51.6202 28.4932 51.5965 28.3862 51.6083C28.2792 51.6379 28.2614 51.6379 28.2079 51.6792C28.1307 51.7442 28.2139 51.6497 28.2376 51.567C28.3208 51.3838 28.3981 51.1356 28.4694 50.8993L28.8972 49.4102C29.4796 47.3953 30.2402 45.404 31.1613 43.5013C32.0645 41.5868 33.1876 39.7787 34.4712 38.1065C35.7369 36.4224 37.1274 34.8507 38.4288 33.2198C38.7497 32.8121 39.0706 32.3985 39.338 31.973C39.3974 31.8667 39.4628 31.7603 39.5103 31.6539C39.5578 31.5653 39.5757 31.4235 39.5638 31.4708C39.5697 31.5062 39.6173 31.5712 39.6351 31.5653C39.6232 31.5771 39.6113 31.5653 39.5578 31.583C39.4746 31.6008 39.3617 31.6421 39.2548 31.6894C38.3813 32.1089 37.5315 32.753 36.7233 33.3675C35.1011 34.6084 33.6274 36.0029 32.2666 37.551C30.9355 39.0992 29.7529 40.8659 29.0874 42.8395Z" fill="black"/>
<path d="M32.0292 20.5452C30.7932 23.7064 29.3195 28.4986 28.7669 34.7502C28.5648 37.0369 28.5173 39.2232 28.5648 41.2677C28.648 44.6122 28.9986 47.5843 29.4027 50.0306" stroke="#1E6F5D" stroke-width="3" stroke-miterlimit="10"/>
<path d="M9.7041 23.6238C12.1108 26.7023 15.2186 31.394 17.4411 37.6338C18.2552 39.9146 18.8434 42.1128 19.2594 44.175C19.9487 47.5431 20.1864 50.5684 20.2221 53.062" stroke="#1E6F5D" stroke-width="3" stroke-miterlimit="10"/>
<path d="M26.8657 31.3646C26.3012 31.3114 24.4056 37.0135 24.8453 43.5311C25.0117 45.9655 25.398 47.0292 25.3385 50.0427C25.2494 54.5394 24.2986 56.507 24.774 56.702C25.6475 57.0684 30.7164 51.2245 29.8844 45.2978C29.6051 43.3243 28.9396 43.2356 28.0423 39.9266C26.6399 34.7623 27.2936 31.406 26.8657 31.3646Z" fill="#3E9581"/>
<path d="M26.8601 31.4236C26.7948 31.4354 26.6937 31.5713 26.6284 31.6777C26.5571 31.7959 26.4976 31.9199 26.4442 32.044C26.3372 32.2981 26.2362 32.5522 26.153 32.8181C25.9925 33.3499 25.8559 33.8876 25.7608 34.4312C25.5587 35.5185 25.4577 36.6234 25.3864 37.7225C25.2795 39.9265 25.2616 42.1069 25.3983 44.2873C25.4518 45.3745 25.5766 46.4913 25.6063 47.6258C25.6301 48.7544 25.5647 49.8771 25.4934 50.9939C25.4221 52.1107 25.3092 53.2275 25.1547 54.3324C25.0774 54.8879 24.9883 55.4433 24.9289 55.981C24.917 56.111 24.9051 56.2469 24.911 56.3592C24.911 56.4124 24.9229 56.4656 24.9289 56.4715C24.9289 56.4597 24.9289 56.4892 24.9229 56.4537C24.911 56.4301 24.8754 56.4301 24.8754 56.4183C24.8397 56.4124 24.9645 56.3947 25.0536 56.3238C25.1487 56.2647 25.2497 56.1878 25.3448 56.1051C26.1173 55.402 26.7294 54.4743 27.288 53.5584C27.8347 52.6248 28.2922 51.6439 28.6428 50.6335C29.344 48.6244 29.5758 46.4086 29.0528 44.4587C28.9221 43.9859 28.6904 43.5132 28.4646 42.9814C28.2387 42.4555 28.0308 41.9119 27.8763 41.3565C27.5435 40.2574 27.3355 39.1465 27.1988 38.0239C27.0562 36.9012 27.0027 35.7726 26.979 34.6558C26.979 34.0944 26.9611 33.539 26.973 32.9776C26.979 32.6999 26.973 32.4222 26.9671 32.1445C26.9611 32.0086 26.9611 31.8668 26.9493 31.7309C26.9433 31.6186 26.9017 31.4354 26.8601 31.4236ZM26.872 31.3054C27.0027 31.3409 27.0146 31.4472 27.0443 31.5122C27.0622 31.5831 27.074 31.654 27.0859 31.725C27.1038 31.8668 27.1097 32.0086 27.1216 32.1445L27.1632 32.9776C27.2048 33.5331 27.2404 34.0885 27.3177 34.6321C27.4603 35.7312 27.698 36.8125 27.9773 37.8761C28.2685 38.9338 28.6072 39.9856 28.9697 41.0019C29.1598 41.5101 29.3619 42.0006 29.5877 42.491C29.8075 42.9755 30.0868 43.4955 30.277 44.0982C30.9425 46.4618 30.5325 48.8785 29.7065 51.0175C29.2965 52.0989 28.7379 53.1093 28.0961 54.0606C27.4484 55.012 26.7116 55.8924 25.7608 56.6192C25.6419 56.7078 25.5112 56.7965 25.3626 56.8674C25.2141 56.9324 25.0596 57.0387 24.7506 56.9856C24.6793 56.9796 24.5901 56.9146 24.5248 56.8496C24.4475 56.7846 24.4475 56.7256 24.4178 56.6546C24.3822 56.5306 24.3822 56.4478 24.3822 56.3592C24.3881 56.1938 24.4178 56.0519 24.4416 55.9101C24.5545 55.3488 24.6793 54.817 24.7743 54.2674C24.9764 53.1802 25.0893 52.0752 25.1249 50.9703C25.1547 49.8653 25.1071 48.7544 24.9645 47.6672C24.8278 46.58 24.5842 45.4986 24.4297 44.3759C24.1445 42.1305 24.2217 39.8379 24.6674 37.622C24.8754 36.5112 25.1606 35.4239 25.4815 34.3485C25.6538 33.8167 25.8083 33.279 26.0163 32.7531C26.1173 32.4931 26.2124 32.2272 26.3372 31.9731C26.3966 31.8431 26.462 31.719 26.5392 31.595C26.6105 31.5004 26.6521 31.3468 26.872 31.3054Z" fill="black"/>
<path d="M24.6374 55.8392C22.8547 49.9835 20.3411 46.8281 18.2969 45.0082C17.3878 44.1987 16.1815 43.3064 14.7375 41.5101C12.0337 38.1479 11.5226 35.4003 11.0591 35.5066C10.4114 35.6544 10.043 41.3565 12.6101 46.3613C15.8309 52.6189 22.2248 55.0533 24.6374 55.8392Z" fill="#3E9581"/>
<path d="M24.5959 55.7979C24.4889 55.5261 24.3523 55.2897 24.2512 55.077L23.9363 54.3738C23.7224 53.8775 23.4787 53.3989 23.2589 52.9143C22.7894 51.9571 22.2903 51.0176 21.7376 50.1076C21.185 49.2035 20.5908 48.3349 19.9311 47.5136C19.2656 46.7041 18.5585 45.93 17.7919 45.215C17.0135 44.4882 16.1993 43.7201 15.4922 42.8751C14.7851 42.0301 14.1492 41.1438 13.555 40.2279C12.9548 39.3179 12.42 38.3666 11.9268 37.4034C11.6772 36.9248 11.4514 36.4226 11.184 35.9794C11.1246 35.8789 11.0354 35.7549 11.0117 35.7549C10.9879 35.7667 11.1543 35.7903 11.1662 35.7549C11.1721 35.7549 11.1483 35.7844 11.1365 35.8258C11.0651 36.0149 11.0236 36.2748 10.9938 36.5289C10.8691 38.597 11.2434 40.7302 11.8079 42.7333C12.3903 44.7482 13.3292 46.6273 14.5652 48.2995C15.7893 49.9776 17.3225 51.4371 19.0398 52.6721C19.9014 53.2807 20.7987 53.8657 21.7376 54.3738C22.213 54.622 22.6825 54.8761 23.1697 55.1124C23.6689 55.3606 24.174 55.5379 24.5959 55.7979ZM24.6791 55.8806C24.4236 55.8452 24.0551 55.7743 23.8234 55.6974C23.5619 55.6265 23.3005 55.5438 23.039 55.467C22.5161 55.3015 21.9991 55.1243 21.494 54.9175C20.4778 54.4979 19.4855 54.0252 18.5347 53.452C16.6331 52.3175 14.9277 50.8285 13.5609 49.0499C12.8954 48.1518 12.3071 47.1886 11.8377 46.1723C11.3801 45.15 11.0176 44.0982 10.7443 43.0228C10.465 41.9533 10.2986 40.8542 10.2213 39.7552C10.1381 38.6561 10.1679 37.5453 10.364 36.4344C10.4174 36.1567 10.4769 35.8789 10.6254 35.5776C10.667 35.5008 10.7145 35.4121 10.8215 35.3235C10.8928 35.2762 10.9701 35.2231 11.0949 35.229C11.2078 35.229 11.2969 35.2821 11.3444 35.3235C11.5346 35.489 11.5702 35.613 11.6475 35.743C11.8852 36.2571 12.0754 36.7476 12.3012 37.238C12.7409 38.213 13.2698 39.1466 13.8818 40.027C14.4998 40.9015 15.2129 41.7051 15.9795 42.4378C16.746 43.1824 17.5839 43.8087 18.4456 44.4882C20.1748 45.8946 21.5296 47.7263 22.5458 49.6703C23.0568 50.6453 23.4906 51.6557 23.8472 52.6839C24.0254 53.198 24.1859 53.7179 24.3226 54.2497C24.3939 54.5097 24.4711 54.7638 24.5305 55.077C24.5959 55.3606 24.6256 55.6383 24.6791 55.8806Z" fill="black"/>
<path d="M21.9444 29.326C22.6456 29.456 20.5182 34.5613 22.9189 40.2398C23.8935 42.5383 25.1949 43.9565 25.0225 46.5505C24.9156 48.1873 24.2025 50.4267 23.2398 50.4977C21.57 50.6217 18.9019 44.2697 19.1871 38.0121C19.407 33.2377 21.3145 29.2078 21.9444 29.326Z" fill="#1E6F5D" stroke="black" stroke-width="2" stroke-miterlimit="10"/>
<path d="M24.4531 55.1594C25.8139 48.6833 24.7027 44.547 23.3834 41.9353C21.9276 39.0458 19.6576 36.9127 20.0438 33.5801C20.3528 30.9211 22.1712 29.0007 22.2009 29.0125C22.2366 29.0302 19.2297 32.5047 18.1779 36.6705C16.0565 45.0611 22.6644 53.109 24.4531 55.1594Z" fill="#3E9581"/>
<path d="M24.4348 55.1005C24.4764 54.7873 24.4704 54.486 24.4883 54.226L24.5596 53.381C24.6131 52.796 24.6249 52.2051 24.6606 51.6202C24.7022 50.4502 24.6725 49.2861 24.5536 48.1339C24.3278 45.8294 23.6979 43.6077 22.6283 41.575C22.1113 40.541 21.4874 39.5305 20.9347 38.4551C20.6614 37.9174 20.4118 37.3561 20.2276 36.777C20.0315 36.2038 19.8889 35.6011 19.8473 34.9925C19.7284 33.7753 19.9661 32.5521 20.4118 31.4294C20.6376 30.8681 20.911 30.3244 21.2319 29.8045C21.3923 29.5445 21.5646 29.2963 21.7548 29.0481C21.8023 28.989 21.8499 28.9299 21.9093 28.8649L21.9568 28.8177C21.9687 28.8059 21.939 28.8295 21.9925 28.7881C22.0341 28.7527 22.0994 28.7231 22.1708 28.7172C22.2421 28.7113 22.3074 28.729 22.349 28.7468C22.3787 28.7645 22.3966 28.7881 22.4263 28.8236C22.4916 28.8945 22.5095 29.0718 22.4619 29.1545C22.4084 29.2549 22.4084 29.2372 22.4084 29.249L22.3728 29.2963L22.1173 29.6627C20.7981 31.6008 19.6928 33.6748 19.0035 35.8552C18.3498 38.0415 18.2547 40.3401 18.6232 42.5854C18.9738 44.8426 19.7997 47.023 20.804 49.1207C21.3329 50.1607 21.8736 51.2006 22.5095 52.1874C22.8244 52.6838 23.1394 53.186 23.4721 53.6706C23.6385 53.9187 23.8049 54.161 23.9772 54.3973C24.1733 54.6573 24.2625 54.8287 24.4348 55.1005ZM24.4645 55.2187C24.2506 55.0414 23.9535 54.7696 23.7752 54.5628C23.5672 54.3442 23.3652 54.1255 23.1691 53.901C22.765 53.4578 22.3787 53.0028 22.0162 52.5242C21.2735 51.5847 20.596 50.5861 19.978 49.552C18.7658 47.4721 17.8091 45.2031 17.3693 42.7863C17.1911 41.575 17.0663 40.3401 17.1911 39.1051L17.2742 38.1833L17.4585 37.2733C17.5714 36.6647 17.7318 36.0679 17.9398 35.4947C18.7539 33.1785 20.0672 31.1044 21.6003 29.2608L21.8855 28.9181L21.9212 28.8768C21.9271 28.8709 21.939 28.8413 21.8974 28.924C21.8617 28.989 21.8915 29.1486 21.9628 29.2077C21.9984 29.2372 22.0281 29.249 22.0519 29.2668C22.0876 29.2904 22.141 29.314 22.2064 29.314C22.2718 29.314 22.3312 29.2845 22.3609 29.2608C22.4025 29.2254 22.3668 29.2549 22.3728 29.249L22.3431 29.2786C22.2955 29.3199 22.248 29.3731 22.2005 29.4263C22.0103 29.6331 21.8261 29.8576 21.6597 30.094C21.3151 30.5549 21.0239 31.0631 20.7921 31.589C20.3227 32.6407 20.0909 33.8166 20.2395 34.957C20.3702 36.1034 20.8991 37.1551 21.523 38.136C22.147 39.1169 22.8719 40.0623 23.5018 41.1023C24.7676 43.2 25.3856 45.664 25.4806 48.0748C25.5282 49.2861 25.4688 50.4916 25.2964 51.6793C25.2073 52.2701 25.1063 52.861 24.9637 53.446C24.8983 53.7355 24.8448 54.0192 24.7438 54.3501C24.6487 54.6692 24.5417 54.9528 24.4645 55.2187Z" fill="black"/>
<path d="M9.63347 10.8785C9.33041 10.4885 8.77183 9.65533 8.73023 8.51491C8.66486 6.79541 9.8058 5.10547 10.507 5.18228C10.8754 5.22364 10.9883 5.74954 11.434 5.74363C11.8737 5.74363 12.0342 5.22955 12.361 5.14092C12.7948 5.02865 13.7634 5.60772 14.9459 8.314C16.901 12.7989 18.9451 21.9931 17.2456 22.5308C16.4672 22.7849 14.6013 21.2427 9.63347 10.8785Z" fill="#F26B6C"/>
<path d="M9.58551 10.9138C9.04476 10.2224 8.6585 9.37156 8.58125 8.45568C8.50994 7.5398 8.69416 6.60028 9.1636 5.75531C9.28839 5.54849 9.41912 5.33577 9.61522 5.14078C9.81132 4.9576 10.0431 4.73306 10.5066 4.71534C10.7443 4.70943 10.982 4.83942 11.1008 4.94578C11.2315 5.05214 11.3088 5.14078 11.3682 5.18214C11.4871 5.27668 11.4217 5.21169 11.4455 5.2235C11.4514 5.22941 11.5465 5.12896 11.7545 4.91624C11.8555 4.8217 12.0397 4.66216 12.3071 4.62079C12.5626 4.57943 12.7647 4.63261 12.9192 4.69761C13.5312 4.96942 13.8046 5.37713 14.0958 5.76121C15.1297 7.35662 15.5457 9.08793 16.0805 10.7661C16.5916 12.456 17.1264 14.1341 17.5958 15.8418C18.0534 17.5613 18.4872 19.2808 18.4277 21.1717C18.4099 21.4139 18.3921 21.6562 18.3267 21.9162C18.2732 22.1703 18.1782 22.4657 17.9226 22.7671C17.7919 22.9148 17.578 23.0566 17.3522 23.1098C17.1085 23.1689 16.9065 23.1334 16.7163 23.0921C16.3776 22.9798 16.134 22.8202 15.9319 22.6548C15.51 22.3298 15.2189 21.9694 14.9217 21.6089C14.6365 21.2426 14.3691 20.8762 14.1195 20.498C13.139 18.9854 12.319 17.4136 11.6475 15.7709C10.9641 14.1401 10.3521 12.4856 9.58551 10.9138ZM9.68653 10.8488C10.4531 12.4383 11.3801 13.9451 12.3428 15.4164C13.3233 16.8759 14.1968 18.3945 15.1713 19.8067C15.6408 20.5099 16.1696 21.2189 16.7104 21.7094C16.8411 21.8335 16.9778 21.9103 17.0551 21.9457C17.1323 21.9457 17.0194 21.9812 17.0551 21.9694C17.0848 21.9398 17.168 21.8157 17.2036 21.6385C17.2512 21.473 17.2809 21.278 17.2987 21.083C17.37 20.2794 17.3165 19.4167 17.2452 18.5599C17.168 17.7031 17.0729 16.8345 16.9422 15.9718C16.6807 14.2464 16.2944 12.5269 15.7002 10.8783C15.409 10.057 15.0465 9.25338 14.6484 8.47931C14.2503 7.71115 13.8105 6.96072 13.2876 6.34029C13.044 6.03893 12.7231 5.7494 12.5151 5.66667C12.4676 5.64304 12.4438 5.65485 12.4794 5.64895C12.527 5.63713 12.527 5.62531 12.4676 5.67849C12.3606 5.76712 12.1883 6.03893 11.7664 6.19847C11.5584 6.26938 11.3385 6.27529 11.1186 6.20438C10.8988 6.13348 10.7443 6.00348 10.6432 5.90303L10.459 5.6844C10.4174 5.64304 10.4472 5.65485 10.459 5.65485C10.4769 5.63122 10.3164 5.67849 10.1857 5.77894C10.0431 5.87348 9.91234 6.02121 9.78161 6.16893C9.29433 6.79527 8.93185 7.60479 8.88431 8.44977C8.83083 9.30065 9.15172 10.1515 9.68653 10.8488Z" fill="black"/>
<path d="M13.3519 11.1915C13.6669 9.06434 14.2255 5.31809 15.8299 5.02855C17.5948 4.71538 20.2391 8.64481 20.9403 12.4206C22.1466 18.9145 17.8087 26.1529 15.5209 25.8161C13.1737 25.4734 12.4725 17.0886 13.3519 11.1915Z" fill="#F26B6C"/>
<path d="M13.293 11.1797C13.4297 10.2047 13.5604 9.22385 13.7268 8.24297C13.9229 7.268 14.0655 6.25758 14.7132 5.32397C14.7964 5.20579 14.9093 5.09943 15.0103 4.99307C15.1351 4.89853 15.2599 4.79217 15.4085 4.72126C15.7115 4.57354 16.0859 4.53218 16.4009 4.59717C17.0426 4.71535 17.5299 5.04625 17.934 5.40079C18.754 6.11576 19.3186 6.99619 19.7999 7.90025C20.715 9.73202 21.2023 11.7351 21.3033 13.7383C21.4043 15.7355 21.1845 17.7386 20.6734 19.6885C20.1505 21.6267 19.3601 23.5411 17.9399 25.1306C17.5715 25.5206 17.1734 25.8988 16.6207 26.1824C16.3533 26.3242 16.0146 26.4306 15.6343 26.4306C15.248 26.4365 14.8499 26.2711 14.5884 26.0642C14.0358 25.6388 13.7803 25.1188 13.5485 24.6284C13.3287 24.132 13.1682 23.6298 13.0434 23.1275C12.0629 19.0976 12.7641 15.0737 13.293 11.1797ZM13.4118 11.1974C13.1266 13.1474 13.192 15.1387 13.3881 17.0827C13.6139 19.0267 13.7981 20.9767 14.2794 22.8025C14.4042 23.2575 14.535 23.7007 14.7192 24.1084C14.8974 24.5043 15.1232 24.8943 15.355 25.0775C15.4738 25.1838 15.563 25.2134 15.6759 25.2193C15.7888 25.2252 15.9492 25.2015 16.1216 25.1129C16.4662 24.9652 16.8228 24.6697 17.1377 24.3566C17.7795 23.7066 18.3202 22.9089 18.8075 22.0875C19.2888 21.2603 19.7167 20.3858 20.0613 19.4817C20.3882 18.5717 20.6734 17.6322 20.822 16.6691C20.9705 15.7059 21.0121 14.725 20.923 13.756C20.8398 12.7869 20.5783 11.8415 20.2277 10.9433C19.8831 10.0393 19.4433 9.17658 18.9382 8.37297C18.4391 7.56345 17.8805 6.78347 17.2387 6.16303C16.9178 5.85577 16.5554 5.6076 16.2226 5.50715C16.0562 5.44806 15.9136 5.46578 15.7591 5.49533C15.6818 5.51896 15.6046 5.56623 15.5214 5.60169C15.4501 5.66669 15.3669 5.71987 15.2896 5.79077C14.9925 6.09213 14.7489 6.50575 14.5468 6.9371C14.3448 7.37436 14.1665 7.82935 14.0299 8.30206C13.7327 9.24749 13.5604 10.2225 13.4118 11.1974Z" fill="black"/>
<path d="M0.0283203 9.64844C2.67861 19.7113 6.76696 26.5479 10.7127 26.4357C10.8196 26.4297 12.5905 26.3588 13.1906 25.2007C14.6941 22.3171 7.39685 15.5573 0.0283203 9.64844Z" fill="#F26B6C"/>
<path d="M0.0653659 9.69659C0.231752 10.1929 0.445677 10.6243 0.612063 11.0025C0.766564 11.3629 0.944835 11.812 1.11122 12.2492L2.12142 14.8433C2.81668 16.5627 3.56542 18.2468 4.35575 19.9072C4.5459 20.3267 4.742 20.7403 4.95593 21.1481C5.15797 21.5617 5.38972 21.9576 5.62147 22.3535C5.84134 22.7612 6.11469 23.1275 6.37021 23.5116C6.64356 23.8839 6.94662 24.2325 7.25562 24.5634C7.8974 25.2134 8.66396 25.757 9.51966 26.0288C9.73953 26.0702 9.94751 26.1706 10.1674 26.1647C10.3872 26.1647 10.6071 26.1943 10.8151 26.1706C11.2489 26.1115 11.6827 25.9875 12.057 25.7925C12.4255 25.5916 12.7166 25.3138 12.8474 24.9829C12.9722 24.652 12.9603 24.2739 12.8652 23.8839C12.6632 23.098 12.1937 22.318 11.6767 21.5912C10.6249 20.1258 9.32356 18.8022 8.02813 17.4845C6.73269 16.1609 5.38972 14.8787 4.0408 13.5847L2.01446 11.6465C1.6698 11.3275 1.33703 10.9966 0.998316 10.6716C0.837873 10.512 0.641775 10.3288 0.516985 10.1989C0.392196 10.0629 0.255521 9.87386 0.0653659 9.69659ZM0 9.60205C0.178271 9.72023 0.40408 9.82659 0.635832 9.97431L1.24195 10.3879C1.62821 10.6538 2.0204 10.9197 2.39477 11.1975C3.14945 11.7529 3.91601 12.3083 4.65287 12.8933C6.13846 14.0515 7.55868 15.2923 8.91948 16.6041C10.2684 17.9336 11.5341 19.3577 12.5978 20.9767C13.1148 21.7921 13.6139 22.6607 13.7922 23.7125C13.8754 24.2325 13.8516 24.8293 13.5664 25.3493C13.2871 25.8693 12.7998 26.2061 12.3185 26.3893C11.8372 26.5784 11.344 26.667 10.8448 26.6847C10.3338 26.6611 9.84055 26.5961 9.37704 26.4129C8.46192 26.0643 7.67159 25.4911 6.97633 24.8411C5.58582 23.5353 4.433 21.993 3.4644 20.3622C2.51956 18.7136 1.81836 16.9468 1.24195 15.1564C0.968604 14.2524 0.695256 13.3542 0.493216 12.4383C0.386253 11.9833 0.279291 11.5402 0.196098 10.9966C0.118847 10.4707 0.083193 10.0039 0 9.60205Z" fill="black"/>
<path d="M32.2069 3.84671C32.3258 3.54535 32.8784 2.19812 33.639 2.18039C34.0907 2.16858 34.2214 2.64129 34.9167 2.81265C35.8021 3.03719 36.2953 2.4522 36.7528 2.65311C37.6739 3.06082 37.151 5.98573 37.151 5.98573C37.0024 6.8248 33.9837 23.6416 31.167 23.1984C28.4217 22.7611 31.0363 6.71253 32.2069 3.84671Z" fill="#F26B6C"/>
<path d="M32.1476 3.82306C32.3318 3.35626 32.5517 2.90127 32.8904 2.50538C33.0568 2.31038 33.2707 2.1213 33.5678 2.07994C33.8768 2.01494 34.1561 2.22766 34.3403 2.35765C34.7207 2.63537 35.1901 2.70628 35.6061 2.58219C35.82 2.5231 36.0101 2.41083 36.3132 2.32811C36.4618 2.28675 36.6757 2.26311 36.8777 2.34584C36.9669 2.3872 37.056 2.44038 37.1392 2.49947C37.2105 2.56447 37.264 2.62946 37.3293 2.70037C37.6978 3.27945 37.7334 3.82306 37.7631 4.35487C37.7929 4.88667 37.7572 5.40074 37.6859 5.92073C37.5373 6.93706 37.3234 7.8943 37.0917 8.87518C36.6103 10.8133 36.0042 12.7278 35.4634 14.6482C34.9167 16.5686 34.4473 18.5067 33.7877 20.4153C33.6213 20.8939 33.4371 21.3666 33.2172 21.8393C32.9914 22.3061 32.7478 22.7789 32.3259 23.2102C32.112 23.417 31.8327 23.6534 31.4048 23.7066C31.3038 23.7243 31.1909 23.7125 31.0839 23.7066C30.9829 23.6829 30.8759 23.6475 30.7749 23.612C30.5788 23.5352 30.4303 23.3934 30.2936 23.2693C29.842 22.7198 29.7231 22.1761 29.5983 21.6503C29.218 19.5644 29.3131 17.5495 29.4735 15.5404C29.8063 11.5106 30.9413 7.6284 32.1476 3.82306ZM32.2605 3.87034C31.6069 5.74346 31.4464 7.7584 31.2563 9.72607C31.1077 11.7056 30.8878 13.6732 30.7452 15.635C30.662 16.6159 30.6145 17.5967 30.5788 18.5717C30.5491 19.5408 30.561 20.5216 30.7036 21.4375C30.7749 21.8807 30.9175 22.3357 31.0899 22.572C31.1849 22.6548 31.2206 22.7139 31.3038 22.702C31.3751 22.7079 31.5296 22.637 31.6782 22.513C31.9812 22.253 32.2605 21.8571 32.5101 21.4553C32.7597 21.0475 32.9855 20.6103 33.1935 20.1671C34.0254 18.3826 34.6434 16.474 35.101 14.5477C35.5526 12.6096 35.82 10.636 36.1349 8.67428C36.2954 7.69931 36.4736 6.70661 36.6638 5.76119C36.7411 5.29438 36.8005 4.81576 36.8302 4.34896C36.854 3.89397 36.848 3.39762 36.7113 3.10218C36.6281 2.96627 36.6281 2.93082 36.4439 2.93673C36.2597 2.95445 35.9864 3.049 35.7071 3.08445C35.1366 3.16127 34.5424 2.95445 34.1561 2.5881C33.96 2.41084 33.8115 2.26311 33.5975 2.29266C33.3896 2.30447 33.1816 2.44038 33.0152 2.60583C32.6765 2.96627 32.4507 3.41535 32.2605 3.87034Z" fill="black"/>
<path d="M38.4473 5.65468C38.6374 5.38878 39.4813 4.20109 40.224 4.36063C40.6697 4.45517 40.6876 4.9397 41.3234 5.26469C42.1315 5.68422 42.7495 5.22924 43.1477 5.52468C43.9558 6.1333 42.7733 8.85731 42.7733 8.85731C42.4346 9.64319 35.6425 25.3314 33.0041 24.2618C30.431 23.216 36.6586 8.17778 38.4473 5.65468Z" fill="#F26B6C"/>
<path d="M38.3993 5.61962C38.6845 5.20599 39.0054 4.81009 39.4214 4.50283C39.6294 4.3492 39.8849 4.21329 40.182 4.24284C40.4969 4.24875 40.7228 4.52056 40.8713 4.68601C41.1803 5.04645 41.62 5.21781 42.0479 5.19417C42.2737 5.18826 42.4817 5.12327 42.7966 5.10554C42.9511 5.09963 43.1651 5.12918 43.3433 5.24735C43.4206 5.30644 43.4919 5.38326 43.5632 5.46007C43.6167 5.53689 43.6583 5.61961 43.6999 5.70234C43.9257 6.34641 43.8365 6.89003 43.7474 7.41002C43.6523 7.93591 43.4978 8.42635 43.3136 8.91679C42.9333 9.87403 42.5114 10.7604 42.0598 11.6585C41.1447 13.4371 40.1166 15.1625 39.154 16.9115C38.1794 18.6547 37.2821 20.4392 36.2006 22.1468C35.9273 22.5723 35.642 22.9977 35.3152 23.4054C34.9884 23.8132 34.6437 24.2091 34.1327 24.5399C33.8772 24.6936 33.5503 24.859 33.1165 24.8177C33.0096 24.8118 32.9085 24.7763 32.8075 24.7468C32.7125 24.6995 32.6174 24.6404 32.5282 24.5813C32.35 24.4631 32.243 24.2918 32.142 24.1381C31.827 23.5059 31.8389 22.9445 31.8389 22.4068C31.9459 20.2855 32.4985 18.3474 33.1225 16.427C34.3585 12.5744 36.3492 9.05269 38.3993 5.61962ZM38.4944 5.69052C37.4307 7.36274 36.8127 9.28905 36.1768 11.1681C35.5767 13.0648 34.9111 14.9262 34.3228 16.8052C34.0198 17.7388 33.7464 18.6842 33.4909 19.6237C33.2413 20.5633 33.0215 21.5205 32.9561 22.4423C32.9204 22.8914 32.9561 23.3641 33.0749 23.6359C33.1462 23.7363 33.17 23.8072 33.2473 23.8132C33.3186 23.8368 33.485 23.8013 33.6573 23.7127C34.0138 23.5295 34.3704 23.2045 34.7091 22.8677C35.0478 22.525 35.3627 22.1528 35.6717 21.7687C36.8899 20.2205 37.9239 18.501 38.8153 16.7284C39.7007 14.9439 40.4137 13.0826 41.1684 11.2449C41.5487 10.3349 41.9528 9.40723 42.351 8.5268C42.5292 8.08954 42.7016 7.64046 42.8382 7.19139C42.963 6.75413 43.0759 6.2696 43.0106 5.95642C42.9571 5.8087 42.969 5.77325 42.7847 5.73779C42.6005 5.71416 42.3153 5.7437 42.036 5.71416C41.4537 5.65507 40.9248 5.31826 40.6336 4.87509C40.4851 4.66237 40.3722 4.4792 40.1582 4.46147C39.9502 4.42011 39.7185 4.50874 39.5165 4.63874C39.1064 4.90464 38.7855 5.29462 38.4944 5.69052Z" fill="black"/>
<path d="M4.36663 7.33883C3.57036 10.2106 2.63146 15.3868 4.67563 20.7343C5.34712 22.4893 6.23253 24.7051 8.55005 25.9696C10.107 26.8205 12.7335 27.4646 14.5875 26.2769C17.5765 24.3624 16.7327 18.8848 15.9839 16.4208C14.6231 11.9537 10.6418 7.79381 6.07209 7.33292C5.38278 7.26792 4.80042 7.29746 4.36663 7.33883Z" fill="#F26B6C"/>
<path d="M4.40871 7.38609C4.07 9.50739 3.82636 11.7291 3.90955 13.88C3.98681 16.0426 4.34929 18.1699 5.02078 20.2143C5.34166 21.2543 5.68632 22.2884 6.19142 23.2279C6.69058 24.1674 7.39178 25.0124 8.29502 25.6033C9.19825 26.1882 10.2619 26.5546 11.3316 26.6728C12.4012 26.8028 13.5124 26.6137 14.3503 26.0464C15.2 25.4733 15.6635 24.5278 15.925 23.5411C16.1627 22.5365 16.1805 21.4729 16.1152 20.4152C16.0439 19.3575 15.8537 18.2939 15.5744 17.2658C15.2951 16.2435 14.9326 15.2568 14.4275 14.3232C13.453 12.45 12.0744 10.766 10.3808 9.47784C9.53103 8.83968 8.59808 8.29606 7.58193 7.94153L6.80943 7.70517L6.01315 7.5279C5.49022 7.42745 4.89599 7.40973 4.40871 7.38609ZM4.33146 7.29155C6.61927 6.81883 8.96056 7.48654 10.9097 8.70969C12.8647 9.94465 14.4335 11.7173 15.5506 13.7382C16.0973 14.7486 16.5192 15.8476 16.7748 16.9703C17.0362 18.0871 17.1967 19.2157 17.2323 20.3621C17.2739 21.5025 17.1848 22.6724 16.8342 23.801C16.4895 24.9178 15.7586 26.0169 14.689 26.6019C13.6253 27.2046 12.3893 27.24 11.2721 27.0746C10.149 26.8914 9.06158 26.5132 8.08703 25.9283C7.11249 25.3433 6.26867 24.516 5.62095 23.5706C4.97324 22.6193 4.50379 21.5852 4.08188 20.5452C3.65998 19.4934 3.3688 18.3826 3.19647 17.2658C3.0182 16.1431 2.94689 15.0145 2.98255 13.8859C3.05385 11.611 3.49953 9.43057 4.33146 7.29155Z" fill="black"/>
<path d="M26.1411 16.539C25.2141 11.8532 26.1352 9.17649 27.2583 7.57518C28.4289 5.90296 30.895 3.84666 30.2889 2.18034C30.1522 1.80217 29.867 1.48309 29.8908 1.46537C29.9442 1.42991 31.5546 3.20259 32.6837 5.35343C33.1472 6.23386 34.7694 9.31831 34.4367 13.0468C34.0266 17.6085 30.7524 22.312 28.6964 21.9279C28.0605 21.8097 26.8958 21.0889 26.1411 16.539Z" fill="#F26B6C"/>
<path d="M26.087 16.5448C25.7423 14.6303 25.3739 12.6744 25.6057 10.6536C25.7186 9.64909 26.0038 8.63275 26.5446 7.72869C27.0734 6.8069 27.7806 6.09783 28.4164 5.37695C29.0582 4.66788 29.7237 3.9529 30.003 3.13747C30.1397 2.72975 30.1278 2.33386 29.9079 1.93796C29.8545 1.8316 29.795 1.74887 29.7237 1.6307L29.7059 1.60115L29.6881 1.5657C29.7118 1.5657 29.6168 1.55979 29.7237 1.32934C29.8901 1.15207 30.1278 1.35298 30.0743 1.32343C30.104 1.34707 30.1337 1.38252 30.1575 1.40025L30.2882 1.54206C30.4546 1.73115 30.6032 1.92614 30.7577 2.12114C31.964 3.68109 33.0574 5.32967 33.8655 7.15553C34.6856 8.96956 35.1431 11.0022 35.0005 13.0526C34.8401 15.0912 34.2459 17.0766 33.2297 18.8493C32.7068 19.7238 32.1185 20.5747 31.3341 21.2896C31.138 21.4669 30.9241 21.6324 30.7102 21.7978C30.4665 21.9396 30.2466 22.0933 29.9674 22.1937C29.7118 22.3119 29.3969 22.3769 29.0879 22.3946C28.9274 22.3828 28.7611 22.371 28.6066 22.3414C28.4461 22.3001 28.2976 22.2351 28.1609 22.1523C27.6261 21.8155 27.3527 21.3251 27.1388 20.8642C26.9308 20.3915 26.7823 19.9188 26.6575 19.4342C26.4079 18.4711 26.2415 17.5079 26.087 16.5448ZM26.1999 16.5271C26.3722 17.4843 26.5921 18.4415 26.9546 19.3338C27.1329 19.7829 27.3468 20.2142 27.6023 20.5983C27.8578 20.9824 28.1787 21.331 28.5115 21.4551C28.8324 21.591 29.177 21.4728 29.5336 21.2837C29.8842 21.0946 30.2169 20.7874 30.5259 20.4742C31.138 19.8124 31.6728 19.0502 32.1125 18.2288C32.5761 17.4193 32.9385 16.5507 33.2475 15.6703C33.5506 14.7898 33.7705 13.874 33.8774 12.9522C34.0557 11.1086 33.8239 9.20592 33.2475 7.38007C32.6652 5.56012 31.7025 3.82881 30.4487 2.35749C30.2942 2.16841 30.1278 1.99705 29.9614 1.82569L29.8366 1.70751C29.8129 1.68388 29.801 1.67797 29.7831 1.66024C29.7118 1.60706 29.9139 1.79615 30.0624 1.61297C30.1694 1.38843 30.0803 1.38843 30.104 1.39434C30.104 1.38843 30.0921 1.3707 30.0981 1.37661L30.104 1.38252L30.3239 1.68388C30.4843 1.8966 30.5854 2.16841 30.6567 2.44613C30.6983 2.72975 30.6983 3.01929 30.6388 3.2911C30.3952 4.37834 29.7534 5.20559 29.1711 5.99738C28.565 6.78327 27.9172 7.49824 27.4359 8.25458C26.9546 9.02274 26.5921 9.87363 26.3366 10.7836C25.8315 12.6154 25.8196 14.6185 26.1999 16.5271Z" fill="black"/>
<path d="M29.7895 7.22069C32.0179 3.14354 35.8804 0.141816 36.4093 0.55544C36.6173 0.714981 36.2607 1.34723 35.8507 2.45811C34.5137 6.11573 35.1792 7.98294 34.6563 10.3879C33.7234 14.6659 29.5221 18.2822 28.197 17.6854C26.8183 17.0708 27.472 11.4633 29.7895 7.22069Z" fill="#F26B6C"/>
<path d="M29.7361 7.19114C30.58 5.69619 31.4713 4.20714 32.5647 2.83628C33.1114 2.15084 33.7116 1.50086 34.4187 0.945426C34.7693 0.661798 35.1377 0.401806 35.5894 0.183176C35.7082 0.129996 35.8271 0.0768158 35.9934 0.0354535C36.0707 0.0118178 36.1777 0 36.2965 0C36.3797 0.00590891 36.4391 0.0118178 36.5342 0.0472713C36.6412 0.0945426 36.7303 0.135905 36.8194 0.242265C36.9858 0.443168 36.9858 0.64998 36.9799 0.744523C36.9739 0.862701 36.9561 0.933608 36.9383 1.00451C36.9026 1.14633 36.8551 1.25269 36.8135 1.36496C36.4391 2.18039 36.0826 2.90128 35.8033 3.70489C35.5121 4.49077 35.2982 5.31211 35.2031 6.15709C34.9951 7.82931 35.2328 9.59016 34.7455 11.3274C34.3118 13.0528 33.4204 14.6482 32.2379 15.9954C31.6436 16.669 30.984 17.2895 30.1937 17.8095C29.7837 18.0576 29.3618 18.2999 28.7497 18.3826C28.5952 18.4004 28.4229 18.4004 28.2387 18.3708C28.0485 18.3354 27.8405 18.2467 27.6801 18.1226C27.3651 17.8685 27.2166 17.579 27.1215 17.319C26.9432 16.799 26.9016 16.3263 26.8838 15.8595C26.8719 15.3986 26.8957 14.9436 26.9611 14.5005C27.068 13.6141 27.2998 12.7573 27.585 11.9301C28.1555 10.2579 28.922 8.70383 29.7361 7.19114ZM29.8431 7.25023C29.0231 8.7511 28.5833 10.4351 28.3397 12.1014C28.2149 12.9346 28.1436 13.7678 28.096 14.5891C28.0663 15.3868 28.0663 16.2613 28.2981 16.8581C28.3516 16.9999 28.4229 17.0945 28.4466 17.1122C28.4466 17.1181 28.4704 17.1299 28.6011 17.124C28.8507 17.1004 29.2132 16.9349 29.54 16.7518C30.2056 16.3618 30.8414 15.8241 31.4059 15.2391C32.529 14.0455 33.4976 12.6687 34.1157 11.1265C34.4068 10.3524 34.6029 9.53698 34.6624 8.69201C34.7337 7.84703 34.7337 6.98433 34.805 6.12163C34.8644 5.25893 34.9714 4.39032 35.1496 3.52762C35.3279 2.67674 35.6131 1.80813 35.8686 1.02815C35.8984 0.933608 35.9281 0.839065 35.94 0.774067C35.9459 0.738614 35.9518 0.709069 35.9459 0.720887C35.9459 0.709069 35.9281 0.797703 36.0231 0.92179C36.0826 0.980879 36.1182 1.01042 36.1777 1.02815C36.2252 1.03997 36.2252 1.04588 36.2549 1.04588C36.2668 1.05179 36.2668 1.04588 36.2371 1.0577C36.1955 1.06951 36.1123 1.10497 36.035 1.14042C35.732 1.28814 35.3933 1.53041 35.0605 1.76676C34.4068 2.2572 33.7472 2.78901 33.1114 3.34444C31.8457 4.46123 30.6513 5.73755 29.8431 7.25023Z" fill="black"/>
<path d="M30.5304 25.8929C27.7316 24.847 26.763 21.6857 26.5431 20.9767C24.8911 15.6114 28.8666 10.8192 33.7987 4.87487C33.8582 4.80396 35.2784 3.11992 36.0331 3.44491C36.4193 3.61627 36.449 4.2308 36.9125 4.31943C37.3463 4.40216 37.5602 3.91172 37.9465 4.00035C38.4635 4.12444 38.517 5.10532 38.826 5.11123C39.1171 5.11123 39.1944 4.25443 39.3845 4.23671C39.8837 4.19534 41.7555 9.82063 40.8226 16.2909C40.3947 19.2572 40.0144 21.8748 37.792 23.9075C37.6018 24.0847 34.0602 27.2165 30.5304 25.8929Z" fill="#F26B6C"/>
<path d="M30.5083 25.952C29.2842 25.497 28.2859 24.587 27.5253 23.5293C26.7587 22.4657 26.2417 21.2544 25.9149 19.9603C25.6059 18.6604 25.6356 17.2659 25.9803 15.9718C26.3071 14.6719 26.8954 13.4723 27.5788 12.3556C28.9693 10.1338 30.7282 8.24887 32.3742 6.29302L33.6043 4.8217C34.0262 4.31944 34.4778 3.85264 35.0424 3.46856C35.185 3.37402 35.3454 3.29129 35.5237 3.23811C35.702 3.17902 35.9337 3.16721 36.1476 3.26766C36.5636 3.50992 36.6409 3.89991 36.8132 4.00627C36.9736 4.10672 37.0628 4.07718 37.3658 3.85855C37.4431 3.81128 37.5382 3.75219 37.6629 3.71673C37.7877 3.68128 37.9422 3.68719 38.067 3.72855C38.3344 3.81719 38.4889 4.01218 38.59 4.17172C38.691 4.33717 38.7623 4.49671 38.8336 4.62671C38.8692 4.6917 38.899 4.7567 38.9227 4.78625C38.9346 4.80397 38.9406 4.80397 38.9287 4.79216C38.9108 4.77443 38.8574 4.74488 38.792 4.74488C38.6434 4.76852 38.6553 4.81579 38.6732 4.76852C38.691 4.73898 38.7147 4.66807 38.7385 4.60898C38.792 4.46126 38.7979 4.33717 38.9465 4.07718C38.9762 4.03582 39.0832 3.84673 39.3684 3.829C39.4635 3.82309 39.6299 3.88809 39.6477 3.90582C39.6893 3.93536 39.7368 3.97082 39.7725 4.00036C39.8735 4.10081 39.9329 4.18945 39.9864 4.27217C40.0874 4.43762 40.1647 4.59125 40.236 4.74488C40.3786 5.05806 40.4915 5.37123 40.5925 5.6844C41.0026 6.93709 41.27 8.21342 41.4363 9.50747C41.6027 10.8015 41.68 12.1015 41.6622 13.4073C41.6503 14.7073 41.4898 16.0368 41.2878 17.2895C41.0679 18.554 40.8421 19.8658 40.3192 21.1185C39.8141 22.3771 38.9524 23.5057 37.8709 24.327C36.7894 25.107 35.6009 25.7097 34.3352 26.0465C33.6994 26.2001 33.0457 26.3006 32.398 26.2947C31.7622 26.3006 31.1204 26.1647 30.5083 25.952ZM30.5499 25.8397C31.1561 26.0288 31.78 26.1588 32.4158 26.1292C33.0457 26.0879 33.6697 25.9756 34.258 25.7452C35.4286 25.2902 36.4982 24.5811 37.3896 23.742C38.2512 22.8912 38.8752 21.8453 39.2733 20.7167C39.6715 19.5822 39.8854 18.359 40.0577 17.1063C40.4618 14.6187 40.5925 12.1369 40.343 9.63746C40.2122 8.39659 40.0221 7.15572 39.7071 5.96212C39.6239 5.66668 39.5348 5.37123 39.4278 5.09351C39.3743 4.95761 39.3209 4.8217 39.2614 4.70352L39.1961 4.58534C39.202 4.60307 39.2198 4.60898 39.2317 4.61489H39.2436C39.2555 4.6208 39.2733 4.63262 39.2912 4.63852C39.3268 4.65034 39.3625 4.65625 39.3981 4.65034C39.6002 4.63852 39.6477 4.50853 39.6358 4.53807C39.612 4.54989 39.5407 4.73898 39.4754 4.89261C39.4397 4.97533 39.4041 5.05806 39.3328 5.16442C39.2674 5.24714 39.1664 5.44214 38.8514 5.47759C38.7801 5.4835 38.7088 5.46577 38.6434 5.44214C38.584 5.4185 38.5424 5.38896 38.4949 5.3535C38.4295 5.29441 38.376 5.22942 38.3523 5.17624C38.2869 5.06988 38.2572 4.98715 38.2215 4.91033C38.1621 4.7567 38.1086 4.61489 38.0492 4.50262C37.9898 4.38444 37.9304 4.32535 37.8888 4.30763C37.8472 4.28399 37.8174 4.27808 37.6867 4.34899C37.5679 4.40808 37.4074 4.53807 37.1638 4.58534C36.9202 4.63262 36.6587 4.54989 36.4923 4.39035C36.1892 4.07127 36.1298 3.74037 35.9575 3.66355C35.8089 3.58083 35.5118 3.66355 35.2622 3.81719C34.2223 4.46126 33.4974 5.56622 32.6773 6.54119C31.881 7.5398 31.1264 8.57386 30.4133 9.61974C29.6883 10.6656 29.0287 11.7469 28.4404 12.846C27.2519 15.0264 26.3725 17.384 26.6518 19.8362C26.8063 21.0417 27.1687 22.2766 27.7867 23.3639C28.3988 24.457 29.3615 25.3847 30.5499 25.8397Z" fill="black"/>
</svg>
