<svg width="88" height="133" viewBox="0 0 88 133" fill="none" xmlns="http://www.w3.org/2000/svg">
<path d="M80.3303 67.13C82.6952 82.3297 84.2906 97.6393 85.1103 113L20.1103 124.07C15.1334 109.471 11.1707 94.5453 8.25027 79.4C7.72361 76.7334 7.23027 73.9933 6.77027 71.18C6.21027 67.7867 5.71361 64.4533 5.28027 61.18C3.41986 47.4559 2.41791 33.629 2.28027 19.78L67.3503 8.70001C70.9103 20.93 74.2803 34.37 77.1403 48.94C77.5803 51.2 78.0103 53.48 78.4303 55.8C79.1303 59.6333 79.7636 63.41 80.3303 67.13Z" fill="white" stroke="#010101" stroke-miterlimit="10" stroke-linecap="round"/>
<path d="M1.90992 19.4C1.50326 17.1333 1.08992 14.8533 0.669922 12.56C1.97992 13.22 3.28992 13.9 4.57992 14.56L8.37992 11.1C9.90992 11.63 11.3799 12.16 12.9699 12.68L16.9699 9.85L22.9399 11L27.4299 7.94L33.1499 9.49L36.4899 6.23L41.9999 8.31L46.8499 4.22C48.6799 5.01 50.4999 5.81 52.3299 6.59L57.1899 2.79L61.1899 5.21C62.4399 4 64.8099 2.2 66.0499 0.940002C66.7499 3.16 66.5999 6.04 67.2999 8.26C45.5799 12 23.5999 15.64 1.90992 19.4Z" fill="#1F705E" stroke="#010101" stroke-miterlimit="10" stroke-linecap="round"/>
<path d="M6.4802 23C7.3802 26.54 8.1502 30.1 8.8402 33.67C9.5302 37.24 10.1802 40.82 10.6802 44.43C11.1802 48.04 11.5202 51.66 12.0502 55.26C12.5802 58.86 13.2902 62.41 14.0002 66C14.7102 69.59 15.4702 73.13 16.1202 76.71C16.7702 80.29 17.4402 83.87 18.0202 87.46C19.1502 94.65 20.1302 101.86 20.7902 109.12C20.7933 109.132 20.7936 109.145 20.791 109.157C20.7884 109.169 20.783 109.18 20.7752 109.19C20.7675 109.2 20.7575 109.207 20.7463 109.213C20.735 109.218 20.7226 109.22 20.7102 109.22C20.6894 109.22 20.6691 109.214 20.6527 109.201C20.6363 109.188 20.6248 109.17 20.6202 109.15C18.9002 102.07 17.4902 94.93 16.2202 87.76C15.6002 84.17 15.0802 80.57 14.5302 76.97C13.9802 73.37 13.5302 69.77 13.0702 66.15C12.6102 62.53 12.1302 58.93 11.4702 55.36C10.8102 51.79 10.0002 48.2 9.2902 44.63C8.5802 41.06 8.0502 37.47 7.5402 33.86C7.0302 30.25 6.6102 26.64 6.3102 23C6.30877 22.9887 6.30978 22.9772 6.31316 22.9663C6.31654 22.9554 6.3222 22.9453 6.32978 22.9368C6.33735 22.9283 6.34666 22.9215 6.35708 22.9169C6.36751 22.9122 6.3788 22.9099 6.3902 22.91C6.4402 22.92 6.4802 23 6.4802 23Z" fill="#010101"/>
<path d="M32.6397 117C34.5399 116.381 36.4728 115.867 38.4297 115.46C40.3715 115.027 42.334 114.694 44.3097 114.46C46.3097 114.24 48.3097 114.18 50.3097 113.92C52.2824 113.638 54.2385 113.251 56.1697 112.76C58.1097 112.28 60.0497 111.83 62.0097 111.47C63.9697 111.11 65.9097 110.69 67.8797 110.39C71.8272 109.78 75.8076 109.406 79.7997 109.27C79.8219 109.27 79.8434 109.278 79.86 109.293C79.8766 109.308 79.8872 109.328 79.8897 109.35C79.8894 109.369 79.8835 109.388 79.8729 109.404C79.8623 109.42 79.8473 109.432 79.8297 109.44C76.0026 110.581 72.1128 111.499 68.1797 112.19C66.1797 112.53 64.2497 112.79 62.2697 113.05C60.2897 113.31 58.2697 113.52 56.2697 113.69C54.2834 113.84 52.307 114.1 50.3497 114.47C48.3497 114.85 46.4797 115.47 44.5297 115.87C42.5797 116.27 40.6097 116.56 38.6297 116.79C36.6381 117.029 34.6353 117.163 32.6297 117.19C32.6175 117.192 32.605 117.19 32.5934 117.187C32.5817 117.183 32.5711 117.176 32.5624 117.167C32.5537 117.159 32.5471 117.148 32.5432 117.136C32.5392 117.125 32.538 117.112 32.5397 117.1C32.5354 117.086 32.535 117.071 32.5385 117.057C32.542 117.043 32.5493 117.03 32.5596 117.02C32.5698 117.01 32.5827 117.002 32.5969 116.999C32.611 116.995 32.6258 116.996 32.6397 117Z" fill="#010101"/>
<path d="M80.3303 67.13L8.25027 79.4C7.72361 76.7333 7.23027 73.9933 6.77027 71.18C6.21027 67.7867 5.71361 64.4533 5.28027 61.18L77.1403 48.94C77.5803 51.2 78.0203 53.48 78.4303 55.8C79.1303 59.6333 79.7636 63.41 80.3303 67.13Z" fill="#1F705E" stroke="#010101" stroke-miterlimit="10" stroke-linecap="round"/>
<path d="M52.5196 86.17C66.8796 80.94 74.8996 66.72 70.4196 54.41C65.9396 42.1 50.6596 36.41 36.2896 41.59C21.9196 46.77 13.9096 61 18.3896 73.35C22.8696 85.7 38.1496 91.4 52.5196 86.17Z" fill="#FAF28C" stroke="#010101" stroke-miterlimit="10"/>
<path d="M19.9199 124.29C20.2799 126.58 20.6499 128.87 21.0099 131.17C22.0299 130.11 23.0299 129.043 24.0099 127.97L28.7299 129.97L32.5399 126.97L37.2799 128.31L42.5199 125.31L47.7599 126.71L52.6499 123.35L56.8799 125.35L61.3499 121.57L67.2899 123.83C68.7499 122.47 70.1999 121.12 71.6699 119.77C73.6099 120.44 75.5599 121.09 77.5099 121.77C78.5099 120.56 79.5099 119.36 80.5099 118.16C82.0999 118.93 84.9199 119.8 86.5099 120.57C86.4399 118.24 85.3399 115.57 85.2699 113.25C63.5699 116.79 41.6399 120.66 19.9199 124.29Z" fill="#1F705E" stroke="#010101" stroke-miterlimit="10" stroke-linecap="round"/>
<path d="M79.69 61.78L79.95 63.28L77.51 64.1L76.81 64.33L76.89 66.06L77.17 72.73L77 72.36L75.7 68.72L74.4 65L66.54 64.83H66L66.66 64.65L74.39 62.49L73.93 53.65L76.06 61.96L78.06 61.88L79.69 61.78Z" fill="white" stroke="#010101" stroke-width="0.5" stroke-miterlimit="10" stroke-linecap="round"/>
<path d="M66.57 68.2L67.8 73L73 72.8L68.2 74.41L68.41 79.27L66.8 74.78L62 74.68L66.86 73.32L66.57 68.2Z" fill="white" stroke="#010101" stroke-width="0.5" stroke-miterlimit="10" stroke-linecap="round"/>
<path d="M38.7802 106C38.4671 105.832 38.1297 105.714 37.7802 105.65C37.4511 105.575 37.1093 105.575 36.7802 105.65C36.5814 105.681 36.3868 105.735 36.2002 105.81C36.0274 105.872 35.8704 105.971 35.7402 106.1C35.6818 106.16 35.6394 106.233 35.6166 106.313C35.5939 106.394 35.5917 106.479 35.6102 106.56C35.6239 106.643 35.6574 106.722 35.7078 106.79C35.7583 106.858 35.8242 106.913 35.9002 106.95C36.0849 107.029 36.2804 107.079 36.4802 107.1H37.2702C37.5568 107.1 37.8368 107.12 38.1102 107.16C38.3739 107.178 38.6335 107.235 38.8802 107.33C39.1088 107.411 39.317 107.54 39.4902 107.71C39.663 107.899 39.7746 108.136 39.8102 108.39C39.8816 108.732 39.8246 109.088 39.6502 109.39C39.4696 109.701 39.2111 109.959 38.9002 110.14C38.5544 110.345 38.1753 110.487 37.7802 110.56C37.2796 110.635 36.7708 110.635 36.2702 110.56C35.8047 110.489 35.3665 110.296 35.0002 110L35.6302 109.19C35.913 109.402 36.2377 109.55 36.5826 109.626C36.9276 109.702 37.2847 109.703 37.6302 109.63C37.8183 109.59 38.0024 109.533 38.1802 109.46C38.3542 109.391 38.5111 109.285 38.6402 109.15C38.697 109.085 38.7375 109.008 38.7584 108.925C38.7793 108.841 38.7799 108.754 38.7602 108.67C38.7498 108.591 38.7184 108.515 38.6692 108.452C38.6199 108.389 38.5547 108.34 38.4802 108.31C38.2962 108.221 38.0947 108.173 37.8902 108.17C37.6402 108.17 37.3802 108.17 37.1102 108.17C36.7374 108.133 36.3669 108.077 36.0002 108C35.6618 107.953 35.3395 107.827 35.0602 107.63C34.7863 107.391 34.6086 107.06 34.5602 106.7C34.5006 106.384 34.5574 106.057 34.7202 105.78C34.9087 105.477 35.17 105.226 35.4802 105.05C35.8359 104.844 36.2251 104.701 36.6302 104.63C36.9239 104.579 37.2222 104.559 37.5202 104.57C37.8312 104.573 38.1405 104.617 38.4402 104.7C38.7328 104.776 39.0079 104.909 39.2502 105.09L38.7802 106ZM47.5502 107.93C47.3675 108.135 47.1629 108.319 46.9402 108.48C46.6874 108.67 46.4119 108.828 46.1202 108.95C45.799 109.089 45.4637 109.193 45.1202 109.26C44.5248 109.398 43.9056 109.398 43.3102 109.26C42.7866 109.118 42.3125 108.835 41.9402 108.44C41.5766 108.048 41.3366 107.558 41.2502 107.03C41.1246 106.458 41.1769 105.861 41.4002 105.32C41.6141 104.82 41.9598 104.388 42.4002 104.07C42.8623 103.731 43.3959 103.502 43.9602 103.4C44.4731 103.304 45.0019 103.334 45.5002 103.49C45.9683 103.633 46.3896 103.899 46.7202 104.26C47.0749 104.64 47.3082 105.117 47.3902 105.63L47.4702 106.15L42.4702 107.07C42.5602 107.296 42.6953 107.501 42.8672 107.673C43.0392 107.845 43.2443 107.98 43.4702 108.07C44.0028 108.287 44.589 108.336 45.1502 108.21C45.5475 108.151 45.9266 108.004 46.2602 107.78C46.5013 107.612 46.7256 107.421 46.9302 107.21L47.5502 107.93ZM44.1402 104.38C43.671 104.459 43.2281 104.651 42.8502 104.94C42.6755 105.085 42.5355 105.267 42.4403 105.473C42.3451 105.679 42.2972 105.903 42.3002 106.13L46.1702 105.42V105.3C46.1023 105.061 45.9539 104.852 45.7502 104.71C45.5312 104.548 45.2781 104.439 45.0102 104.39C44.7257 104.319 44.43 104.306 44.1402 104.35V104.38ZM55.3802 106.5C55.1971 106.702 54.9925 106.883 54.7702 107.04C54.5118 107.23 54.2335 107.391 53.9402 107.52C53.6214 107.663 53.2852 107.764 52.9402 107.82C52.3412 107.945 51.7213 107.928 51.1302 107.77C50.6089 107.628 50.1356 107.348 49.7602 106.96C49.3985 106.567 49.1589 106.077 49.0702 105.55C48.9427 104.994 48.982 104.413 49.183 103.88C49.3839 103.346 49.7378 102.884 50.2002 102.55C50.6623 102.211 51.1959 101.981 51.7602 101.88C52.2728 101.778 52.8029 101.809 53.3002 101.97C53.7683 102.113 54.1896 102.379 54.5202 102.74C54.877 103.118 55.1106 103.596 55.1902 104.11L55.2702 104.63L50.2702 105.55C50.3602 105.776 50.4953 105.981 50.6672 106.153C50.8392 106.325 51.0443 106.46 51.2702 106.55C51.804 106.762 52.3887 106.811 52.9502 106.69C53.3475 106.631 53.7266 106.484 54.0602 106.26C54.2966 106.086 54.5205 105.895 54.7302 105.69L55.3802 106.5ZM52.0002 102.92C51.5297 102.994 51.0858 103.187 50.7102 103.48C50.5363 103.623 50.3966 103.804 50.3015 104.008C50.2063 104.212 50.158 104.435 50.1602 104.66L54.0002 104V103.88C53.93 103.639 53.7824 103.428 53.5802 103.28C53.3607 103.121 53.1074 103.015 52.8402 102.97C52.566 102.9 52.2808 102.883 52.0002 102.92ZM62.2702 97.71L63.7302 105.71L62.6202 105.92L62.4602 105.03C62.342 105.243 62.1901 105.436 62.0102 105.6C61.8107 105.802 61.5854 105.977 61.3402 106.12C61.0609 106.268 60.7608 106.372 60.4502 106.43C59.9137 106.534 59.3597 106.499 58.8402 106.33C58.3521 106.164 57.9194 105.867 57.5902 105.47C57.2496 105.052 57.0254 104.552 56.9402 104.02C56.831 103.487 56.869 102.933 57.0502 102.42C57.2164 101.932 57.5182 101.502 57.9202 101.18C58.338 100.832 58.8427 100.604 59.3802 100.52C59.8217 100.425 60.2786 100.425 60.7202 100.52C61.082 100.596 61.4231 100.75 61.7202 100.97L61.1502 97.89L62.2702 97.71ZM60.4702 105.41C60.8372 105.344 61.1814 105.186 61.4702 104.95C61.7376 104.731 61.9414 104.445 62.0602 104.12C62.1744 103.779 62.1985 103.413 62.1302 103.06C62.0792 102.692 61.9268 102.346 61.6902 102.06C61.4722 101.792 61.1801 101.593 60.8502 101.49C60.4917 101.374 60.1091 101.353 59.7402 101.43C59.3726 101.488 59.0273 101.643 58.7402 101.88C58.4709 102.093 58.2665 102.377 58.1502 102.7C58.0284 103.04 58.0007 103.406 58.0702 103.76C58.1241 104.129 58.2799 104.475 58.5202 104.76C58.7465 105.019 59.0358 105.215 59.3602 105.33C59.7076 105.448 60.0792 105.475 60.4402 105.41H60.4702ZM69.3202 100.41C69.0092 100.237 68.671 100.119 68.3202 100.06C67.9903 99.9924 67.6501 99.9924 67.3202 100.06C67.1254 100.094 66.9344 100.148 66.7502 100.22C66.5749 100.281 66.417 100.384 66.2902 100.52C66.2293 100.578 66.1852 100.651 66.1623 100.732C66.1395 100.813 66.1387 100.899 66.1602 100.98C66.172 101.062 66.2037 101.139 66.2525 101.205C66.3014 101.271 66.3658 101.325 66.4402 101.36C66.6253 101.448 66.8257 101.498 67.0302 101.51H67.8202C68.1012 101.51 68.382 101.53 68.6602 101.57C68.9238 101.589 69.1832 101.646 69.4302 101.74C69.6588 101.815 69.865 101.945 70.0302 102.12C70.2118 102.304 70.3277 102.543 70.3602 102.8C70.4288 103.142 70.372 103.497 70.2002 103.8C70.016 104.114 69.7543 104.376 69.4402 104.56C69.0966 104.767 68.7163 104.906 68.3202 104.97C67.8238 105.055 67.3166 105.055 66.8202 104.97C66.3359 104.899 65.8797 104.699 65.5002 104.39L66.1402 103.58C66.4134 103.771 66.718 103.914 67.0402 104C67.4092 104.08 67.7912 104.08 68.1602 104C68.3499 103.966 68.5346 103.909 68.7102 103.83C68.8817 103.761 69.038 103.659 69.1702 103.53C69.2282 103.464 69.2701 103.385 69.2926 103.3C69.3152 103.215 69.3178 103.126 69.3002 103.04C69.2846 102.962 69.2513 102.889 69.2027 102.827C69.1541 102.764 69.0916 102.714 69.0202 102.68C68.8292 102.601 68.6265 102.554 68.4202 102.54C68.1802 102.54 67.9202 102.54 67.6402 102.54C67.2402 102.54 66.8502 102.54 66.4902 102.44C66.1306 102.398 65.787 102.267 65.4902 102.06C65.2193 101.82 65.0451 101.489 65.0002 101.13C64.9358 100.814 64.9929 100.486 65.1602 100.21C65.3493 99.9103 65.6106 99.6627 65.9202 99.49C66.2751 99.282 66.6647 99.1397 67.0702 99.07C67.3766 99.0118 67.6885 98.9883 68.0002 99C68.3116 98.9976 68.6216 99.0414 68.9202 99.13C69.2143 99.2023 69.4902 99.3352 69.7302 99.52L69.3202 100.41Z" fill="#010101"/>
<path d="M30.8799 57.17C35.1776 59.7005 38.704 63.3549 41.0799 67.74C43.2799 72 42.7299 74 45.2599 83.87C47.4899 92.55 49.3399 96.47 48.7599 96.73C47.9199 97.13 42.9699 88.95 39.1899 80.94C35.5911 73.3312 32.8057 65.3637 30.8799 57.17Z" fill="#3A7867" stroke="#231F20" stroke-width="0.5" stroke-miterlimit="10"/>
<path d="M48.4101 96.76C50.0701 90.38 51.1001 85.49 51.7501 82.06C52.1371 79.118 53.308 76.3342 55.1401 74C55.8801 73.13 57.6401 71.07 59.9101 71.11C60.8501 71.11 61.7501 71.5 61.8101 71.34C61.8701 71.18 60.6101 70.34 59.4901 69.96C57.2092 69.3713 54.7913 69.6455 52.7001 70.73C48.5501 72.64 46.5801 83.17 48.4101 96.76Z" fill="#3A7867" stroke="#231F20" stroke-width="0.5" stroke-miterlimit="10"/>
<path d="M48.09 91.47C48.83 80.07 50.26 71.62 51.51 68.63C52.0333 67.0402 53.0941 65.6824 54.51 64.79C55.85 64.05 57.14 64.15 57.16 63.79C57.18 63.43 55 62.51 53 62.76C49.58 63.2 47.49 66.93 46.64 68.46C42 76.88 47.06 89.11 48.09 91.47Z" fill="#3A7867" stroke="#231F20" stroke-width="0.5" stroke-miterlimit="10"/>
<path d="M53.6099 42.16C51.2099 41.52 48.5399 41.27 46.3199 42.41C45.2426 43.0014 44.3314 43.8543 43.6699 44.89C43.3266 45.403 43.0288 45.9451 42.7799 46.51C42.5799 47.1 42.3199 47.66 42.1799 48.26C41.5566 50.6801 41.2507 53.171 41.2699 55.67C41.2652 58.176 41.4054 60.6802 41.6899 63.17C42.2909 68.159 43.1723 73.1101 44.3299 78C45.4799 82.89 46.8099 87.75 48.3299 92.52L46.8899 92.71C47.427 80.2123 47.046 67.6919 45.7499 55.25C45.3807 52.1786 44.823 49.1329 44.0799 46.13C43.448 43.1846 42.1858 40.4111 40.3799 38C39.4851 36.8735 38.2447 36.0724 36.8499 35.72C35.4015 35.4513 33.9066 35.6005 32.5399 36.15C29.6747 37.3443 27.044 39.0372 24.7699 41.15L24.6299 41C25.7118 39.8452 26.8748 38.7692 28.1099 37.78C29.3563 36.7632 30.7273 35.9096 32.1899 35.24C33.7201 34.5341 35.4204 34.2808 37.0899 34.51C38.7897 34.8356 40.3356 35.7104 41.4899 37C42.5918 38.2332 43.4959 39.6298 44.1699 41.14C44.8459 42.6044 45.4076 44.1189 45.8499 45.67C46.7364 48.7253 47.385 51.8446 47.7899 55C48.5663 61.2694 48.9304 67.5829 48.8799 73.9C48.8799 80.2 48.6799 86.49 48.3799 92.77L48.1799 97L46.9999 93C45.5199 88.14 44.2799 83.24 43.2099 78.29C42.1169 73.3422 41.3221 68.3331 40.8299 63.29C40.5999 60.7603 40.5198 58.2192 40.5899 55.68C40.6311 53.1266 41.0008 50.589 41.6899 48.13C41.8599 47.52 42.1399 46.93 42.3599 46.33L42.8199 45.48L42.9999 45L43.2799 44.61C44.0069 43.5296 44.9938 42.6494 46.1499 42.05C48.5399 40.91 51.2599 41.25 53.6599 41.95L53.6099 42.16Z" fill="#1E6F5D"/>
<path d="M37.4697 77.92C38.9497 81.07 40.2997 83.5 41.2697 85.15C42.3797 87.04 42.4897 87.06 43.3497 88.62C44.8297 91.31 45.2197 92.57 46.5897 94.36C47.2374 95.2161 47.9639 96.0096 48.7597 96.73C49.0897 91.73 47.7597 88.93 46.5297 87.26C45.5009 86.0515 44.3664 84.9371 43.1397 83.93C41.1242 82.0489 39.2304 80.0415 37.4697 77.92Z" fill="#1E6F5D"/>
<path d="M37.4895 78C38.4895 79.46 39.3495 81.15 40.2895 82.69L43.1195 87.4C44.0195 89.03 44.6795 90.77 45.4895 92.4C46.3453 94.0092 47.515 95.4305 48.9295 96.58L48.5095 96.76C48.5573 94.8819 48.3385 93.0066 47.8595 91.19C47.3847 89.4196 46.4416 87.8098 45.1295 86.53C43.7695 85.25 42.3395 83.9 41.0395 82.53C40.3895 81.82 39.7695 81.08 39.1595 80.34C38.8495 79.97 38.5595 79.58 38.2695 79.2C37.9699 78.8271 37.7086 78.4251 37.4895 78ZM37.4395 77.91C37.8172 78.2236 38.1778 78.5574 38.5195 78.91L39.5195 79.91C40.1895 80.59 40.8995 81.23 41.5895 81.91C42.9695 83.23 44.4195 84.41 45.8595 85.74C47.2982 87.1573 48.2981 88.9592 48.7395 90.93C49.157 92.841 49.2449 94.8093 48.9995 96.75L48.9395 97.29L48.5695 96.92C47.2468 95.6136 46.1035 94.1374 45.1695 92.53C44.2595 90.92 43.3595 89.32 42.3695 87.8C41.3575 86.2565 40.4392 84.6536 39.6195 83C38.7648 81.3472 38.0361 79.6324 37.4395 77.87V77.91Z" fill="#231F20"/>
<path d="M58.9395 71.21C59.9733 71.7964 60.8168 72.6677 61.3695 73.72C62.5595 76.15 61.4295 78.65 61.9295 78.81C62.4295 78.97 63.6895 77.2 63.7495 75.17C63.8205 74.5 63.7253 73.8229 63.4724 73.1985C63.2195 72.5741 62.8167 72.0216 62.2995 71.59C61.8044 71.2772 61.2449 71.0805 60.663 71.0147C60.0811 70.9489 59.4919 71.0156 58.9395 71.21Z" fill="#1E6F5D" stroke="#231F20" stroke-width="0.5" stroke-miterlimit="10"/>
<path d="M47.0996 57.82C47.1558 56.7635 47.5293 55.7485 48.1714 54.9075C48.8134 54.0666 49.6941 53.4388 50.6985 53.1062C51.7029 52.7736 52.7842 52.7515 53.8013 53.043C54.8183 53.3345 55.7239 53.9259 56.3996 54.74" stroke="#1E6F5D" stroke-width="1.5" stroke-miterlimit="10"/>
<path d="M41.3199 37.92C38.2499 37.56 35.5299 38.65 34.4699 40.68C34.1126 41.3988 33.9505 42.1988 33.9999 43" stroke="#1E6F5D" stroke-width="1.5" stroke-miterlimit="10"/>
<path d="M42.7197 40.23C43.7197 37.66 45.7197 36.43 47.2597 36.95C48.0036 37.2829 48.5958 37.8822 48.9197 38.63" stroke="#1E6F5D" stroke-width="1.5" stroke-miterlimit="10"/>
<path d="M46.0003 50.34C45.1587 50.3618 44.3305 50.5558 43.5669 50.9101C42.8032 51.2644 42.1203 51.7715 41.5603 52.4C40.8691 53.2307 40.4255 54.2392 40.2803 55.31" stroke="#1E6F5D" stroke-width="1.5" stroke-miterlimit="10"/>
<path d="M41.0001 59.88C40.7501 59.88 37.0501 60.32 36.0701 62.88C35.9062 63.3177 35.8281 63.7828 35.8401 64.25" stroke="#1E6F5D" stroke-width="1.5" stroke-miterlimit="10"/>
<path d="M54.9996 53.51C53.4896 54.07 53.1096 55.93 52.9996 56.62C52.7921 57.669 52.8751 58.7547 53.2396 59.76C53.2503 59.8391 53.2432 59.9196 53.219 59.9957C53.1948 60.0718 53.154 60.1415 53.0996 60.2C53.032 60.2599 52.9526 60.3052 52.8665 60.3327C52.7804 60.3602 52.6895 60.3695 52.5996 60.36C52.1896 60.36 51.9896 60.06 51.9196 60.12C51.8496 60.18 52.0296 60.96 52.5996 61.12C52.8492 61.1805 53.1116 61.1586 53.3477 61.0577C53.5838 60.9567 53.7809 60.7822 53.9096 60.56C54.1111 60.7853 54.389 60.9279 54.6896 60.96C55.0396 60.9346 55.3707 60.7912 55.6287 60.5533C55.8866 60.3153 56.0562 59.9968 56.1096 59.65C56.3116 59.8737 56.5695 60.0398 56.8568 60.131C57.144 60.2223 57.4504 60.2356 57.7445 60.1694C58.0386 60.1033 58.3099 59.9601 58.5304 59.7546C58.7509 59.5491 58.9129 59.2887 58.9996 59C59.0993 59.2054 59.2561 59.3779 59.4511 59.4967C59.6462 59.6155 59.8713 59.6756 60.0996 59.67C60.5396 59.67 60.8196 59.29 61.1996 58.8C61.1996 58.8 61.5896 58.3 61.4996 58.21C61.4096 58.12 60.9596 58.64 60.4296 58.56C60.1877 58.5158 59.9705 58.3841 59.8196 58.19C59.1196 57.44 59.1896 56.62 58.7296 55.58C58.469 54.7868 57.9334 54.1129 57.2196 53.68C56.8796 53.5052 56.508 53.4001 56.1268 53.3709C55.7455 53.3417 55.3623 53.389 54.9996 53.51Z" fill="url(#paint0_linear)"/>
<path d="M54.9995 53.56C54.4759 53.7842 54.0502 54.1887 53.7995 54.7C53.5541 55.2173 53.3953 55.7713 53.3295 56.34C53.1795 57.4393 53.2856 58.5584 53.6395 59.61V59.67C53.6539 59.8436 53.6228 60.018 53.5491 60.1758C53.4754 60.3337 53.3618 60.4696 53.2195 60.57C53.0899 60.6477 52.9453 60.6968 52.7953 60.714C52.6452 60.7313 52.4932 60.7163 52.3495 60.67C52.2186 60.641 52.0935 60.5903 51.9795 60.52L51.8395 60.42C51.8395 60.42 51.8395 60.42 51.9495 60.42C52.0157 60.4164 52.0791 60.3924 52.1311 60.3512C52.183 60.31 52.2209 60.2537 52.2395 60.19C52.2395 60.19 52.2395 60.19 52.2395 60.27C52.2502 60.3391 52.2703 60.4064 52.2995 60.47C52.3436 60.6082 52.4302 60.7289 52.5468 60.8151C52.6635 60.9013 52.8044 60.9485 52.9495 60.95C53.1144 60.9397 53.2748 60.892 53.4186 60.8106C53.5624 60.7292 53.6858 60.6161 53.7795 60.48L53.8995 60.31L54.0295 60.45C54.1705 60.6179 54.3586 60.7398 54.5695 60.8C54.7814 60.8413 55.0012 60.8058 55.1895 60.7C55.3786 60.578 55.5391 60.4165 55.6599 60.2266C55.7807 60.0368 55.859 59.823 55.8895 59.6L55.9595 59.21L56.2695 59.51C56.4437 59.6789 56.6595 59.7988 56.8949 59.8577C57.1303 59.9166 57.3771 59.9123 57.6104 59.8454C57.8437 59.7785 58.0552 59.6512 58.2235 59.4764C58.3919 59.3017 58.5112 59.0856 58.5695 58.85L58.8095 57.69L59.3595 58.78C59.437 58.9175 59.5564 59.0266 59.7004 59.0913C59.8443 59.1561 60.0051 59.1731 60.1595 59.14C60.4869 58.8602 60.7583 58.5209 60.9595 58.14C60.9595 58.14 60.9595 58.03 60.9595 58.14C60.9488 58.2021 60.9523 58.2658 60.9696 58.3264C60.9869 58.387 61.0176 58.4429 61.0595 58.49C61.1336 58.5784 61.2361 58.6385 61.3495 58.66C61.4018 58.6745 61.4571 58.6745 61.5095 58.66H61.5895C61.5195 58.66 61.3695 58.8 61.2195 58.87C61.0385 58.9808 60.8351 59.05 60.6241 59.0725C60.4131 59.095 60.1997 59.0702 59.9995 59C59.672 58.8376 59.3953 58.5886 59.1995 58.28C59.0161 58.0202 58.8744 57.7334 58.7795 57.43C58.5995 56.85 58.5295 56.35 58.3795 55.87C58.249 55.3813 58.0504 54.9133 57.7895 54.48C57.4932 54.0379 57.0579 53.7074 56.5525 53.5407C56.0471 53.3741 55.5006 53.3808 54.9995 53.56ZM54.9995 53.47C55.5213 53.279 56.0867 53.2408 56.6295 53.36C57.2057 53.4466 57.7388 53.7166 58.1495 54.13C58.5631 54.5414 58.9015 55.022 59.1495 55.55C59.3658 56.0498 59.5561 56.5605 59.7195 57.08C59.7901 57.2861 59.8949 57.4787 60.0295 57.65C60.1339 57.795 60.2666 57.9174 60.4195 58.01C60.4895 58.01 60.5695 58.01 60.7495 58.01L61.0795 57.82C61.1598 57.7721 61.2477 57.7383 61.3395 57.72C61.412 57.7052 61.4869 57.7052 61.5595 57.72C61.6897 57.7455 61.8066 57.8163 61.8895 57.92C61.9848 58.0456 62.0279 58.2033 62.0095 58.36C61.9861 58.4956 61.9351 58.625 61.8595 58.74C61.6991 58.991 61.5185 59.2284 61.3195 59.45C61.099 59.7302 60.8143 59.9531 60.4895 60.1C60.1185 60.2088 59.7207 60.1796 59.3696 60.0179C59.0185 59.8561 58.7378 59.5727 58.5795 59.22L59.3795 59.15C59.2594 59.4949 59.0498 59.8016 58.7722 60.0388C58.4945 60.2761 58.1588 60.4352 57.7995 60.5C57.4555 60.5597 57.102 60.5283 56.7739 60.4091C56.4458 60.2898 56.1547 60.0867 55.9295 59.82L56.2995 59.73C56.2291 59.9978 56.1039 60.2481 55.9317 60.465C55.7596 60.6819 55.5443 60.8606 55.2995 60.99C55.0512 61.1321 54.7595 61.1784 54.4795 61.12C54.2035 61.0535 53.9532 60.9075 53.7595 60.7H54.0095C53.8959 60.889 53.7437 61.0517 53.5627 61.1775C53.3817 61.3034 53.1761 61.3894 52.9595 61.43C52.7176 61.4591 52.4725 61.4157 52.2553 61.3053C52.0381 61.195 51.8585 61.0226 51.7395 60.81C51.6703 60.7084 51.6164 60.5972 51.5795 60.48C51.5569 60.4149 51.5402 60.348 51.5295 60.28C51.5201 60.2237 51.5201 60.1663 51.5295 60.11C51.5429 60.0222 51.586 59.9417 51.6514 59.8817C51.7169 59.8217 51.8008 59.7858 51.8895 59.78C51.978 59.777 52.0653 59.8015 52.1395 59.85H52.2195L52.3295 59.9C52.3858 59.9082 52.4431 59.9082 52.4995 59.9C52.5814 59.9212 52.6675 59.9212 52.7495 59.9C52.7592 59.8606 52.7592 59.8194 52.7495 59.78V59.89C52.5277 59.2944 52.4094 58.6654 52.3995 58.03C52.4051 57.4016 52.5201 56.7789 52.7395 56.19C52.89 55.597 53.171 55.0451 53.562 54.5745C53.9529 54.1039 54.4441 53.7266 54.9995 53.47Z" fill="#231F20"/>
<path d="M40.3199 53.62C38.7299 53.8 37.8999 55.52 37.5999 56.16C37.1479 57.1267 36.9714 58.1994 37.0899 59.26C37.0768 59.3399 37.048 59.4164 37.0051 59.4851C36.9622 59.5538 36.906 59.6132 36.8399 59.66C36.758 59.6964 36.6695 59.7152 36.5799 59.7152C36.4903 59.7152 36.4017 59.6964 36.3199 59.66C35.9299 59.54 35.7999 59.22 35.7199 59.26C35.6399 59.3 35.6199 60.11 36.1299 60.43C36.3599 60.545 36.6206 60.5838 36.8741 60.5406C37.1277 60.4974 37.3609 60.3746 37.5399 60.19C37.6778 60.4567 37.9092 60.6632 38.1899 60.77C38.5379 60.8305 38.8962 60.7703 39.2054 60.5993C39.5146 60.4284 39.7561 60.1569 39.8899 59.83C40.0325 60.1047 40.2478 60.335 40.5123 60.4957C40.7768 60.6564 41.0804 60.7414 41.3899 60.7414C41.6994 60.7414 42.003 60.6564 42.2675 60.4957C42.532 60.335 42.7473 60.1047 42.8899 59.83C42.9372 60.0535 43.0484 60.2584 43.2099 60.4199C43.3714 60.5815 43.5764 60.6927 43.7999 60.74C44.2299 60.83 44.5899 60.54 45.0799 60.15C45.0799 60.15 45.5699 59.76 45.5099 59.66C45.4499 59.56 44.8799 59.95 44.3799 59.74C44.1561 59.6373 43.9781 59.4557 43.8799 59.23C43.3899 58.34 43.6399 57.57 43.4499 56.44C43.3875 55.6114 43.0331 54.8318 42.4499 54.24C42.154 54 41.8132 53.8215 41.4474 53.715C41.0817 53.6086 40.6983 53.5763 40.3199 53.62Z" fill="url(#paint1_linear)"/>
<path d="M40.3296 53.67C39.7533 53.7484 39.2262 54.0369 38.8496 54.48C38.4834 54.9357 38.1961 55.4495 37.9996 56C37.5971 57.0333 37.4363 58.145 37.5296 59.25V59.36C37.5018 59.5311 37.4301 59.692 37.3214 59.827C37.2127 59.962 37.0708 60.0664 36.9096 60.13C36.7577 60.1766 36.5973 60.1891 36.44 60.1666C36.2827 60.1442 36.1323 60.0873 35.9996 60C35.8813 59.9409 35.7733 59.8632 35.6796 59.77L35.5596 59.64C35.5596 59.64 35.5596 59.64 35.6696 59.64C35.7334 59.6544 35.8002 59.6476 35.8598 59.6205C35.9194 59.5934 35.9684 59.5476 35.9996 59.49C35.9996 59.49 35.9996 59.49 35.9996 59.57C35.9896 59.643 35.9896 59.717 35.9996 59.79C36.0107 59.9332 36.0656 60.0695 36.1568 60.1804C36.2481 60.2913 36.3712 60.3715 36.5096 60.41C36.6733 60.4389 36.8416 60.4295 37.0012 60.3827C37.1607 60.3359 37.3073 60.2528 37.4296 60.14L37.5896 60.01L37.6796 60.18C37.7798 60.3744 37.9322 60.5371 38.1196 60.65C38.3229 60.725 38.5463 60.725 38.7496 60.65C38.9618 60.5794 39.1559 60.4631 39.3183 60.3093C39.4807 60.1555 39.6074 59.968 39.6896 59.76L39.8496 59.39L40.0796 59.75C40.2144 59.9638 40.4045 60.1371 40.6299 60.2516C40.8553 60.366 41.1074 60.4173 41.3596 60.4C41.5923 60.3815 41.8164 60.3037 42.0107 60.1742C42.205 60.0447 42.3629 59.8677 42.4696 59.66L42.9996 58.6L43.2796 59.78C43.3187 59.9317 43.4063 60.0666 43.529 60.164C43.6517 60.2615 43.8029 60.3163 43.9596 60.32C44.3395 60.1391 44.6795 59.8841 44.9596 59.57C44.9596 59.57 45.0196 59.47 44.9596 59.57C44.9129 59.6855 44.9129 59.8145 44.9596 59.93C45.0103 60.0323 45.0952 60.1136 45.1996 60.16C45.2523 60.1717 45.3069 60.1717 45.3596 60.16H45.4396L45.0296 60.28C44.8241 60.3349 44.6091 60.3437 44.3999 60.3057C44.1907 60.2676 43.9925 60.1837 43.8196 60.06C43.5357 59.8274 43.3241 59.5186 43.2096 59.17C43.0981 58.8916 43.0274 58.5986 42.9996 58.3C42.9996 57.69 42.9996 57.19 42.9996 56.7C42.9889 56.1906 42.9047 55.6854 42.7496 55.2C42.5654 54.7179 42.2302 54.3083 41.794 54.0325C41.3578 53.7567 40.844 53.6296 40.3296 53.67ZM40.3296 53.57C40.8816 53.5167 41.4379 53.6134 41.9396 53.85C42.4783 54.0865 42.9269 54.4896 43.2196 55C43.5143 55.4985 43.7238 56.0426 43.8396 56.61C43.9209 57.1368 43.9743 57.6676 43.9996 58.2C44.0276 58.4167 44.0848 58.6286 44.1696 58.83C44.2406 58.9921 44.3386 59.1408 44.4596 59.27C44.5129 59.2943 44.5709 59.3069 44.6296 59.3069C44.6882 59.3069 44.7462 59.2943 44.7996 59.27C44.9217 59.2407 45.0419 59.204 45.1596 59.16C45.2525 59.1475 45.3466 59.1475 45.4396 59.16C45.5123 59.1686 45.5832 59.1888 45.6496 59.22C45.7689 59.2749 45.8647 59.3706 45.9196 59.49C45.9714 59.5631 46.0055 59.6471 46.0194 59.7356C46.0333 59.8241 46.0265 59.9146 45.9996 60C45.9434 60.123 45.8655 60.2348 45.7696 60.33C45.5549 60.5389 45.3205 60.7264 45.0696 60.89C44.7809 61.1223 44.4359 61.2741 44.0696 61.33C43.6791 61.3499 43.295 61.2253 42.9907 60.98C42.6863 60.7346 42.483 60.3858 42.4196 60L43.2096 60.12C43.0245 60.442 42.7534 60.7062 42.4266 60.8828C42.0998 61.0594 41.7304 61.1415 41.3596 61.12C41.0088 61.0957 40.6707 60.9793 40.3793 60.7827C40.0879 60.5861 39.8534 60.3161 39.6996 60H40.0796C39.9456 60.2413 39.7653 60.4538 39.5491 60.6254C39.3329 60.797 39.085 60.9243 38.8196 61C38.5422 61.0734 38.2478 61.045 37.9896 60.92C37.74 60.789 37.5348 60.5872 37.3996 60.34H37.6496C37.4918 60.495 37.3039 60.6158 37.0974 60.6949C36.891 60.7741 36.6704 60.8098 36.4496 60.8C36.213 60.7645 35.9921 60.6603 35.8143 60.5003C35.6365 60.3403 35.5097 60.1315 35.4496 59.9C35.41 59.7872 35.3864 59.6694 35.3796 59.55C35.3696 59.4804 35.3696 59.4096 35.3796 59.34C35.37 59.2871 35.37 59.2329 35.3796 59.18C35.4159 59.0996 35.4777 59.0335 35.5555 58.9919C35.6332 58.9503 35.7226 58.9356 35.8096 58.95C35.8948 58.9707 35.9738 59.0119 36.0396 59.07L36.1096 59.13L36.1996 59.21C36.2474 59.2465 36.3017 59.2736 36.3596 59.29C36.4596 59.29 36.6196 59.29 36.6096 59.29C36.5996 59.29 36.6096 59.29 36.6096 59.18V59.29C36.5379 58.6621 36.5717 58.0267 36.7096 57.41C36.867 56.8003 37.1274 56.222 37.4796 55.7C37.7654 55.1566 38.1685 54.6835 38.6597 54.3151C39.1509 53.9468 39.7178 53.6922 40.3196 53.57H40.3296Z" fill="#231F20"/>
<path d="M35.9996 62.77C34.3996 62.95 33.5796 64.67 33.2796 65.3C32.8258 66.2698 32.646 67.3453 32.7596 68.41C32.7476 68.4877 32.7202 68.5622 32.6789 68.6292C32.6377 68.6962 32.5835 68.7543 32.5196 68.8C32.4376 68.8358 32.349 68.8542 32.2596 68.8542C32.1701 68.8542 32.0816 68.8358 31.9996 68.8C31.5996 68.68 31.4796 68.36 31.3996 68.4C31.3196 68.44 31.2996 69.24 31.8096 69.57C32.0396 69.685 32.3003 69.7238 32.5538 69.6806C32.8074 69.6375 33.0406 69.5146 33.2196 69.33C33.3575 69.5967 33.5889 69.8032 33.8696 69.91C34.2173 69.9668 34.5741 69.905 34.8824 69.7345C35.1908 69.564 35.4328 69.2947 35.5696 68.97C35.7163 69.2323 35.9303 69.4508 36.1896 69.6028C36.4489 69.7549 36.744 69.8351 37.0446 69.8351C37.3451 69.8351 37.6403 69.7549 37.8996 69.6028C38.1588 69.4508 38.3729 69.2323 38.5196 68.97C38.568 69.1929 38.6796 69.3973 38.8409 69.5586C39.0023 69.7199 39.2066 69.8315 39.4296 69.88C39.8596 69.97 40.2196 69.68 40.7096 69.29C40.7096 69.29 41.1996 68.9 41.1396 68.8C41.0796 68.7 40.5096 69.08 40.0096 68.88C39.7858 68.7773 39.6078 68.5957 39.5096 68.37C39.0096 67.48 39.2696 66.7 39.0796 65.58C39.0111 64.75 38.6578 63.9693 38.0796 63.37C37.4882 62.9118 36.7441 62.6971 35.9996 62.77Z" fill="url(#paint2_linear)"/>
<path d="M36 62.82C35.4222 62.8938 34.8936 63.1831 34.52 63.63C34.1554 64.072 33.868 64.5724 33.67 65.11C33.2651 66.1428 33.101 67.2543 33.19 68.36V68.48C33.1606 68.6493 33.0882 68.8081 32.9796 68.9413C32.871 69.0744 32.7299 69.1773 32.57 69.24C32.426 69.285 32.2743 69.2994 32.1244 69.2822C31.9746 69.2649 31.83 69.2165 31.7 69.14C31.5814 69.0773 31.4734 68.9963 31.38 68.9L31.26 68.78C31.26 68.78 31.26 68.78 31.37 68.78C31.4335 68.793 31.4996 68.7843 31.5576 68.7553C31.6156 68.7263 31.6622 68.6786 31.69 68.62C31.6843 68.6464 31.6843 68.6737 31.69 68.7C31.6752 68.7726 31.6752 68.8474 31.69 68.92C31.7011 69.0632 31.7561 69.1995 31.8473 69.3104C31.9385 69.4213 32.0617 69.5015 32.2 69.54C32.3638 69.5667 32.5314 69.5562 32.6907 69.5095C32.8499 69.4628 32.9966 69.3809 33.12 69.27L33.27 69.14L33.37 69.31C33.4626 69.5072 33.6171 69.6687 33.81 69.77C34.0089 69.8501 34.2311 69.8501 34.43 69.77C34.6536 69.7079 34.8599 69.5953 35.0333 69.441C35.2066 69.2868 35.3423 69.0949 35.43 68.88L35.59 68.51L35.82 68.87C35.9468 69.0781 36.1269 69.2486 36.3416 69.364C36.5563 69.4793 36.7979 69.5352 37.0414 69.5261C37.2849 69.5169 37.5216 69.4429 37.727 69.3118C37.9325 69.1806 38.0992 68.9971 38.21 68.78L38.72 67.72L39 68.9C39.0391 69.0518 39.1267 69.1866 39.2494 69.2841C39.3722 69.3815 39.5233 69.4363 39.68 69.44C40.0585 69.2524 40.3979 68.9945 40.68 68.68C40.68 68.68 40.68 68.59 40.68 68.68C40.654 68.7365 40.6405 68.7979 40.6405 68.86C40.6405 68.9222 40.654 68.9836 40.68 69.04C40.7268 69.1416 40.8084 69.2232 40.91 69.27L41.07 69.32C41.19 69.32 41.17 69.32 41.16 69.32L40.74 69.44C40.5343 69.4916 40.3199 69.4986 40.1112 69.4607C39.9026 69.4228 39.7044 69.3407 39.53 69.22C39.2526 68.9836 39.0452 68.6758 38.93 68.33C38.8081 68.0341 38.7371 67.7197 38.72 67.4C38.72 66.79 38.72 66.29 38.72 65.79C38.7126 65.2844 38.6318 64.7825 38.48 64.3C38.2847 63.8166 37.9366 63.4103 37.4888 63.1431C37.0411 62.8759 36.5182 62.7624 36 62.82ZM36 62.72C36.5489 62.6645 37.1026 62.7613 37.6 63C38.1403 63.2233 38.5931 63.6164 38.89 64.12C39.1833 64.6182 39.3896 65.1626 39.5 65.73C39.597 66.2655 39.6605 66.8066 39.69 67.35C39.7133 67.5676 39.7707 67.7802 39.86 67.98C39.9261 68.1447 40.0247 68.2943 40.15 68.42C40.21 68.42 40.29 68.48 40.49 68.42L40.85 68.31C40.9423 68.2903 41.0377 68.2903 41.13 68.31H41.34C41.4561 68.3741 41.5502 68.4717 41.61 68.59C41.6417 68.6608 41.6581 68.7375 41.6581 68.815C41.6581 68.8926 41.6417 68.9693 41.61 69.04C41.556 69.1671 41.4779 69.2826 41.38 69.38C41.1627 69.5859 40.9286 69.7733 40.68 69.94C40.3905 70.1692 40.0455 70.3175 39.68 70.37C39.2946 70.3929 38.9143 70.2729 38.6118 70.0331C38.3093 69.7933 38.1057 69.4504 38.04 69.07L38.83 69.19C38.6472 69.5016 38.3834 69.7578 38.0667 69.9315C37.75 70.1052 37.3921 70.1899 37.0312 70.1766C36.6702 70.1633 36.3196 70.0524 36.0165 69.8558C35.7135 69.6592 35.4693 69.3842 35.31 69.06H35.7C35.5664 69.3017 35.3863 69.5145 35.1701 69.6861C34.9538 69.8578 34.7057 69.9848 34.44 70.06C34.1632 70.1391 33.8666 70.1106 33.61 69.98C33.3585 69.8528 33.1499 69.6547 33.01 69.41H33.26C33.1049 69.5657 32.9188 69.6871 32.7138 69.7664C32.5088 69.8456 32.2895 69.8809 32.07 69.87C31.8334 69.8346 31.6125 69.7303 31.4347 69.5703C31.2569 69.4103 31.1301 69.2016 31.07 68.97C31.0375 68.8826 31.0141 68.7922 31 68.7V68.49C31.0117 68.4353 31.0284 68.3817 31.05 68.33C31.0849 68.2485 31.1465 68.1813 31.2246 68.1395C31.3028 68.0977 31.3929 68.0838 31.48 68.1C31.567 68.116 31.6471 68.1578 31.71 68.22L31.78 68.28L31.87 68.35C31.9153 68.3872 31.9659 68.4175 32.02 68.44C32.13 68.44 32.29 68.44 32.28 68.44C32.2873 68.4037 32.2873 68.3663 32.28 68.33V68.44C32.208 67.8122 32.2418 67.1767 32.38 66.56C32.534 65.9509 32.791 65.3725 33.14 64.85C33.4301 64.3061 33.837 63.833 34.3315 63.4647C34.8259 63.0965 35.3957 62.8422 36 62.72Z" fill="#231F20"/>
<path d="M47.6396 66.71C47.7329 65.5635 48.1865 64.4759 48.9356 63.6029C49.6846 62.73 50.6906 62.1164 51.8097 61.85C52.7549 61.6538 53.7355 61.7155 54.6486 62.0287C55.5618 62.3418 56.3738 62.895 56.9996 63.63" stroke="#1E6F5D" stroke-width="1.5" stroke-miterlimit="10"/>
<path d="M55.7203 62.48C54.2203 63.03 53.8303 64.89 53.7203 65.58C53.5193 66.6294 53.6022 67.7134 53.9603 68.72C53.971 68.7991 53.9639 68.8796 53.9397 68.9557C53.9155 69.0318 53.8747 69.1016 53.8203 69.16C53.7527 69.22 53.6733 69.2652 53.5872 69.2927C53.5011 69.3203 53.4102 69.3296 53.3203 69.32C52.9103 69.32 52.7103 69.02 52.6403 69.08C52.5703 69.14 52.7503 69.92 53.3203 70.08C53.5699 70.1405 53.8323 70.1186 54.0684 70.0177C54.3045 69.9168 54.5016 69.7422 54.6303 69.52C54.8318 69.7454 55.1097 69.8879 55.4103 69.92C55.761 69.8964 56.093 69.7537 56.3513 69.5154C56.6096 69.2771 56.7786 68.9576 56.8303 68.61C57.0312 68.8195 57.2823 68.9741 57.5598 69.0591C57.8373 69.144 58.132 69.1565 58.4157 69.0954C58.6994 69.0342 58.9627 68.9014 59.1806 68.7097C59.3985 68.518 59.5636 68.2736 59.6603 68C59.76 68.2055 59.9168 68.3779 60.1118 68.4967C60.3069 68.6155 60.532 68.6757 60.7603 68.67C61.2003 68.67 61.4803 68.29 61.8603 67.8C61.8603 67.8 62.2503 67.3 62.1603 67.21C62.0703 67.12 61.6203 67.64 61.0903 67.56C60.8484 67.5159 60.6312 67.3841 60.4803 67.19C59.7903 66.44 59.8503 65.63 59.3903 64.58C59.1307 63.7893 58.5992 63.1161 57.8903 62.68C57.2211 62.3317 56.4419 62.2599 55.7203 62.48Z" fill="url(#paint3_linear)"/>
<path d="M55.7397 62.52C55.2012 62.7362 54.7602 63.1416 54.4997 63.66C54.2439 64.1755 54.075 64.7296 53.9997 65.3C53.8497 66.3993 53.9558 67.5185 54.3097 68.57V68.63V68.68C54.3241 68.8536 54.293 69.028 54.2193 69.1858C54.1456 69.3437 54.032 69.4796 53.8897 69.58C53.7602 69.6577 53.6155 69.7068 53.4655 69.7241C53.3155 69.7413 53.1635 69.7263 53.0197 69.68C52.8888 69.651 52.7638 69.6003 52.6497 69.53L52.5097 69.43C52.5097 69.43 52.5097 69.43 52.6197 69.43C52.6859 69.4265 52.7494 69.4024 52.8013 69.3612C52.8533 69.32 52.8911 69.2637 52.9097 69.2C52.9097 69.2 52.9097 69.2 52.9097 69.28C52.9204 69.3491 52.9406 69.4164 52.9697 69.48C53.0138 69.6182 53.1004 69.7389 53.2171 69.8251C53.3338 69.9113 53.4746 69.9585 53.6197 69.96C53.785 69.9512 53.9459 69.9042 54.09 69.8226C54.234 69.7411 54.3571 69.6272 54.4497 69.49L54.5697 69.32L54.6997 69.47C54.8444 69.6316 55.0314 69.7494 55.2397 69.81C55.4517 69.8522 55.6717 69.8167 55.8597 69.71C56.0485 69.5866 56.2092 69.4249 56.3316 69.2354C56.4539 69.046 56.535 68.8329 56.5697 68.61L56.6297 68.22L56.9397 68.52C57.114 68.6889 57.3297 68.8088 57.5651 68.8677C57.8006 68.9266 58.0474 68.9223 58.2806 68.8554C58.5139 68.7885 58.7254 68.6612 58.8938 68.4864C59.0621 68.3117 59.1815 68.0956 59.2397 67.86L59.4797 66.7L59.9997 67.76C60.0747 67.8998 60.1939 68.0108 60.3385 68.0759C60.4832 68.141 60.6453 68.1565 60.7997 68.12C61.1271 67.8402 61.3986 67.5009 61.5997 67.12C61.5997 67.12 61.5997 67.02 61.5997 67.12C61.5922 67.1821 61.5973 67.245 61.6144 67.3051C61.6316 67.3652 61.6606 67.4213 61.6997 67.47C61.7738 67.5585 61.8763 67.6185 61.9897 67.64C62.042 67.6545 62.0973 67.6545 62.1497 67.64H62.2297C62.1597 67.64 62.0097 67.78 61.8597 67.85C61.6736 67.9542 61.4666 68.0155 61.2538 68.0293C61.0409 68.0432 60.8277 68.0093 60.6297 67.93C60.3022 67.7676 60.0256 67.5186 59.8297 67.21C59.6464 66.9502 59.5047 66.6635 59.4097 66.36C59.2297 65.78 59.1597 65.28 59.0097 64.8C58.8792 64.3113 58.6806 63.8434 58.4197 63.41C58.1254 62.9962 57.7071 62.6869 57.2252 62.5269C56.7433 62.3669 56.223 62.3645 55.7397 62.52ZM55.7397 62.43C56.2615 62.239 56.827 62.2008 57.3697 62.32C57.9466 62.4045 58.4803 62.6748 58.8897 63.09C59.3033 63.5014 59.6417 63.982 59.8897 64.51C60.0878 64.9977 60.2614 65.495 60.4097 66C60.4803 66.2061 60.5851 66.3988 60.7197 66.57C60.8242 66.715 60.9568 66.8374 61.1097 66.93C61.1797 66.93 61.2597 66.93 61.4397 66.93L61.7697 66.74C61.85 66.6921 61.938 66.6583 62.0297 66.64C62.1023 66.6252 62.1771 66.6252 62.2497 66.64C62.3922 66.6691 62.5182 66.7516 62.6018 66.8706C62.6855 66.9896 62.7205 67.1361 62.6997 67.28C62.6764 67.4157 62.6253 67.545 62.5497 67.66C62.3893 67.911 62.2087 68.1485 62.0097 68.37C61.7892 68.6502 61.5045 68.8731 61.1797 69.02C60.8087 69.1288 60.4109 69.0997 60.0598 68.9379C59.7087 68.7761 59.428 68.4927 59.2697 68.14L60.0697 68.07C59.9564 68.421 59.751 68.7352 59.4748 68.9797C59.1986 69.2242 58.8619 69.3901 58.4997 69.46C58.1558 69.5197 57.8022 69.4884 57.4741 69.3691C57.1461 69.2498 56.8549 69.0467 56.6297 68.78L56.9997 68.69C56.9322 68.9654 56.8085 69.224 56.6364 69.4494C56.4643 69.6748 56.2476 69.8623 55.9997 70C55.7477 70.1419 55.453 70.1881 55.1697 70.13C54.8938 70.0635 54.6434 69.9175 54.4497 69.71H54.7097C54.5927 69.8981 54.4382 70.0599 54.2558 70.1856C54.0734 70.3112 53.8671 70.3978 53.6497 70.44C53.4078 70.4691 53.1627 70.4257 52.9455 70.3154C52.7283 70.205 52.5488 70.0326 52.4297 69.82C52.3605 69.7184 52.3066 69.6072 52.2697 69.49C52.263 69.4235 52.263 69.3565 52.2697 69.29C52.2604 69.2337 52.2604 69.1763 52.2697 69.12C52.2848 69.033 52.3284 68.9534 52.3935 68.8937C52.4586 68.834 52.5417 68.7975 52.6297 68.79C52.7182 68.787 52.8056 68.8115 52.8797 68.86H52.9597H53.0697C53.1256 68.8729 53.1838 68.8729 53.2397 68.86C53.3217 68.8812 53.4077 68.8812 53.4897 68.86C53.4897 68.86 53.4897 68.86 53.4897 68.74V68.85C53.2725 68.257 53.1575 67.6315 53.1497 67C53.1553 66.3716 53.2703 65.749 53.4897 65.16C53.6359 64.5696 53.9106 64.0187 54.2944 63.5468C54.6782 63.0748 55.1614 62.6935 55.7097 62.43H55.7397Z" fill="#231F20"/>
<path d="M52.3004 41.61C50.7904 42.16 50.4104 44.02 50.3004 44.72C50.0937 45.7657 50.1767 46.848 50.5404 47.85C50.551 47.9291 50.544 48.0096 50.5198 48.0857C50.4956 48.1618 50.4548 48.2315 50.4004 48.29C50.3328 48.3499 50.2534 48.3951 50.1673 48.4227C50.0812 48.4502 49.9903 48.4595 49.9004 48.45C49.4904 48.45 49.2904 48.15 49.2204 48.21C49.1504 48.27 49.3304 49.05 49.9004 49.21C50.1499 49.2705 50.4124 49.2486 50.6485 49.1477C50.8846 49.0467 51.0817 48.8722 51.2104 48.65C51.4119 48.8753 51.6898 49.0179 51.9904 49.05C52.341 49.0264 52.6731 48.8836 52.9314 48.6453C53.1897 48.4071 53.3587 48.0876 53.4104 47.74C53.6143 47.9612 53.8736 48.124 54.1615 48.2114C54.4494 48.2989 54.7554 48.308 55.048 48.2376C55.3405 48.1673 55.609 48.0202 55.8257 47.8114C56.0423 47.6026 56.1993 47.3397 56.2804 47.05C56.3781 47.257 56.5344 47.4309 56.7299 47.55C56.9254 47.6691 57.1516 47.7282 57.3804 47.72C57.8204 47.72 58.1004 47.34 58.4804 46.85C58.4804 46.85 58.8704 46.35 58.7804 46.27C58.6904 46.19 58.2404 46.69 57.7104 46.62C57.4705 46.5645 57.256 46.4308 57.1004 46.24C56.4004 45.49 56.4704 44.68 56.0104 43.63C55.7474 42.8381 55.2125 42.1649 54.5004 41.73C54.1602 41.5644 53.7903 41.4685 53.4125 41.4479C53.0347 41.4273 52.6566 41.4824 52.3004 41.61Z" fill="url(#paint4_linear)"/>
<path d="M52.3199 41.65C51.7814 41.8662 51.3404 42.2716 51.0799 42.79C50.8358 43.3078 50.6771 43.8616 50.6099 44.43C50.4591 45.5293 50.5652 46.6486 50.9199 47.7V47.76V47.81C50.9343 47.9836 50.9032 48.158 50.8295 48.3159C50.7558 48.4737 50.6422 48.6096 50.4999 48.71C50.3699 48.7865 50.2258 48.8357 50.0762 48.8546C49.9266 48.8735 49.7748 48.8617 49.6299 48.82C49.5 48.7833 49.3756 48.7295 49.2599 48.66L49.1199 48.57C49.1199 48.57 49.1199 48.57 49.2299 48.57C49.2961 48.5665 49.3595 48.5424 49.4115 48.5012C49.4634 48.46 49.5013 48.4037 49.5199 48.34C49.5098 48.3658 49.5098 48.3943 49.5199 48.42C49.5321 48.492 49.5523 48.5624 49.5799 48.63C49.6278 48.7659 49.7153 48.8842 49.8312 48.9698C49.9471 49.0554 50.0859 49.1042 50.2299 49.11C50.3949 49.0958 50.5549 49.0454 50.6983 48.9624C50.8417 48.8795 50.9652 48.766 51.0599 48.63L51.1799 48.46L51.3099 48.61C51.4515 48.7752 51.6397 48.8937 51.8499 48.95C52.0619 48.9913 52.2816 48.9559 52.4699 48.85C52.6587 48.7301 52.8192 48.5705 52.9401 48.3822C53.0609 48.194 53.1394 47.9817 53.1699 47.76L53.2399 47.36L53.5499 47.66C53.7332 47.8339 53.9598 47.9553 54.2061 48.0116C54.4524 48.0679 54.7092 48.057 54.9499 47.98C55.1727 47.904 55.3724 47.7722 55.53 47.5971C55.6875 47.4221 55.7976 47.2097 55.8499 46.98L56.0899 45.83L56.6399 46.91C56.7149 47.0498 56.834 47.1608 56.9787 47.2259C57.1234 47.291 57.2855 47.3065 57.4399 47.27C57.7673 46.9902 58.0387 46.6509 58.2399 46.27C58.2399 46.27 58.2399 46.17 58.2399 46.27C58.23 46.3306 58.2339 46.3926 58.2512 46.4514C58.2685 46.5102 58.2988 46.5644 58.3399 46.61C58.4163 46.6978 58.5173 46.7605 58.6299 46.79H58.7899H58.8699L58.4999 47.01C58.3121 47.11 58.1049 47.168 57.8926 47.1801C57.6802 47.1922 57.4677 47.158 57.2699 47.08C56.9424 46.9176 56.6657 46.6686 56.4699 46.36C56.2847 46.1014 56.1428 45.8143 56.0499 45.51C55.8699 44.93 55.7999 44.43 55.6499 43.95C55.5194 43.4613 55.3208 42.9934 55.0599 42.56C54.7637 42.1316 54.3363 41.8111 53.842 41.6469C53.3477 41.4828 52.8135 41.4839 52.3199 41.65ZM52.3199 41.56C52.8426 41.3733 53.4068 41.3352 53.9499 41.45C54.5261 41.5366 55.0592 41.8066 55.4699 42.22C55.881 42.6335 56.2192 43.1136 56.4699 43.64C56.6727 44.1406 56.8496 44.6513 56.9999 45.17C57.0705 45.3761 57.1753 45.5688 57.3099 45.74C57.4144 45.885 57.547 46.0075 57.6999 46.1C57.7699 46.1 57.8499 46.1 58.0299 46.05C58.2099 46 58.1999 45.95 58.3599 45.86C58.4402 45.8121 58.5281 45.7783 58.6199 45.76C58.6929 45.7503 58.7669 45.7503 58.8399 45.76C58.9701 45.7855 59.087 45.8564 59.1699 45.96C59.2653 46.0857 59.3083 46.2434 59.2899 46.4C59.2666 46.5357 59.2155 46.665 59.1399 46.78C58.9795 47.031 58.7989 47.2685 58.5999 47.49C58.382 47.7728 58.0966 47.9963 57.7699 48.14C57.3989 48.2511 57.0003 48.2229 56.6486 48.0609C56.297 47.8989 56.0165 47.6141 55.8599 47.26L56.6599 47.19C56.5525 47.5443 56.3488 47.8619 56.0716 48.1073C55.7944 48.3527 55.4546 48.5164 55.0899 48.58C54.7468 48.6409 54.3938 48.6111 54.0658 48.4936C53.7378 48.3761 53.4462 48.1749 53.2199 47.91L53.5899 47.81C53.5174 48.0782 53.3915 48.329 53.2196 48.5472C53.0478 48.7655 52.8336 48.9467 52.5899 49.08C52.3389 49.2145 52.0488 49.2569 51.7699 49.2C51.4939 49.1335 51.2436 48.9875 51.0499 48.78H51.2999C51.1932 48.9647 51.0492 49.125 50.877 49.2507C50.7048 49.3764 50.5082 49.4647 50.2999 49.51C50.0442 49.5588 49.7797 49.5238 49.5455 49.4103C49.3114 49.2968 49.12 49.1109 48.9999 48.88C48.9307 48.7784 48.8768 48.6672 48.8399 48.55C48.8332 48.4835 48.8332 48.4165 48.8399 48.35C48.8307 48.2937 48.8307 48.2363 48.8399 48.18C48.855 48.093 48.8985 48.0134 48.9637 47.9537C49.0288 47.894 49.1118 47.8576 49.1999 47.85C49.2877 47.8527 49.3735 47.8767 49.4499 47.92H49.5299H49.6399C49.6958 47.9329 49.7539 47.9329 49.8099 47.92C49.9199 47.92 50.0699 47.92 50.0599 47.92C50.0696 47.8806 50.0696 47.8394 50.0599 47.8V47.91C49.8381 47.3145 49.7198 46.6854 49.7099 46.05C49.7146 45.4248 49.8297 44.8053 50.0499 44.22C50.2067 43.6402 50.4885 43.1016 50.8755 42.6421C51.2624 42.1826 51.7452 41.8133 52.2899 41.56H52.3199Z" fill="#231F20"/>
<path d="M33.9195 41.51C32.4095 42.06 32.0295 43.92 31.9195 44.62C31.7129 45.6657 31.7959 46.748 32.1595 47.75C32.1731 47.8354 32.1655 47.9229 32.1374 48.0048C32.1094 48.0867 32.0617 48.1604 31.9986 48.2196C31.9354 48.2788 31.8588 48.3216 31.7753 48.3443C31.6918 48.3671 31.604 48.369 31.5195 48.35C31.1095 48.35 30.9095 48.05 30.8395 48.11C30.7695 48.17 30.9495 48.95 31.5195 49.11C31.7701 49.1663 32.0321 49.1414 32.2676 49.0389C32.5031 48.9365 32.6999 48.7617 32.8295 48.54C33.0254 48.7671 33.3011 48.9103 33.5995 48.94C33.9403 48.9123 34.2623 48.7728 34.5155 48.5431C34.7687 48.3134 34.9389 48.0064 34.9995 47.67C35.2019 47.8912 35.4598 48.0542 35.7464 48.1421C36.033 48.23 36.3379 48.2396 36.6295 48.17C36.9182 48.098 37.1833 47.9524 37.3989 47.7473C37.6145 47.5422 37.7732 47.2847 37.8595 47C37.9572 47.207 38.1135 47.3809 38.309 47.5C38.5046 47.6191 38.7307 47.6782 38.9595 47.67C39.3995 47.67 39.6795 47.29 40.0595 46.8C40.0595 46.8 40.4395 46.3 40.3595 46.22C40.2795 46.14 39.8195 46.64 39.2895 46.57C39.0482 46.5182 38.8324 46.3838 38.6795 46.19C37.9795 45.44 38.0495 44.63 37.5895 43.58C37.3228 42.7901 36.7887 42.1182 36.0795 41.68C35.4088 41.3453 34.6343 41.2844 33.9195 41.51Z" fill="url(#paint5_linear)"/>
<path d="M33.9403 41.56C33.4005 41.7688 32.9582 42.1718 32.7003 42.69C32.4549 43.2108 32.2961 43.7681 32.2303 44.34C32.0807 45.4393 32.1867 46.5584 32.5403 47.61V47.67C32.553 47.842 32.5209 48.0143 32.4474 48.1702C32.3738 48.3262 32.2611 48.4605 32.1203 48.56C31.9904 48.6365 31.8462 48.6856 31.6966 48.7046C31.547 48.7235 31.3952 48.7117 31.2503 48.67C31.1189 48.6375 30.9939 48.5835 30.8803 48.51L30.7403 48.42C30.7403 48.42 30.7403 48.42 30.8503 48.42C30.9165 48.4164 30.98 48.3924 31.0319 48.3512C31.0839 48.31 31.1217 48.2537 31.1403 48.19C31.136 48.2165 31.136 48.2435 31.1403 48.27C31.151 48.3423 31.1711 48.4129 31.2003 48.48C31.247 48.6166 31.3342 48.7357 31.4504 48.8215C31.5665 48.9072 31.706 48.9556 31.8503 48.96C32.0147 48.9485 32.1743 48.8993 32.3165 48.816C32.4587 48.7327 32.5798 48.6178 32.6703 48.48L32.8003 48.31L32.9303 48.46C33.0744 48.6244 33.2613 48.7456 33.4703 48.81C33.6802 48.8485 33.897 48.8094 34.0803 48.7C34.2715 48.5816 34.4342 48.4226 34.5569 48.2342C34.6796 48.0458 34.7593 47.8327 34.7903 47.61L34.8603 47.21L35.1703 47.51C35.3503 47.6858 35.5752 47.8087 35.8204 47.8652C36.0656 47.9216 36.3216 47.9094 36.5603 47.83C36.7857 47.7584 36.9879 47.628 37.1461 47.4522C37.3043 47.2764 37.4127 47.0616 37.4603 46.83L37.7103 45.67L38.2603 46.75C38.3354 46.8898 38.4545 47.0008 38.5991 47.0659C38.7438 47.131 38.9059 47.1465 39.0603 47.11C39.389 46.8314 39.6606 46.4918 39.8603 46.11C39.8603 46.11 39.8603 46 39.8603 46.11C39.8497 46.1705 39.8532 46.2327 39.8706 46.2917C39.8879 46.3506 39.9186 46.4048 39.9603 46.45C40.035 46.5398 40.1367 46.6029 40.2503 46.63H40.4103C40.5303 46.63 40.5003 46.63 40.4903 46.63L40.1203 46.85C39.9332 46.9519 39.7259 47.0111 39.5132 47.0232C39.3005 47.0353 39.0877 47 38.8903 46.92C38.5668 46.7563 38.2912 46.5117 38.0903 46.21C37.9068 45.9467 37.7651 45.6566 37.6703 45.35C37.4803 44.77 37.4203 44.27 37.2703 43.79C37.1398 43.3013 36.9412 42.8334 36.6803 42.4C36.3757 41.9826 35.9441 41.6752 35.4502 41.5238C34.9562 41.3723 34.4264 41.385 33.9403 41.56ZM33.9403 41.46C34.463 41.2732 35.0272 41.2352 35.5703 41.35C36.1453 41.4406 36.6771 41.71 37.0903 42.12C37.5015 42.5334 37.8396 43.0136 38.0903 43.54C38.3503 44.07 38.4903 44.63 38.6603 45.07C38.7331 45.2781 38.8377 45.4738 38.9703 45.65C39.0743 45.7927 39.2072 45.912 39.3603 46C39.4303 46 39.5103 46 39.6903 46C39.8703 46 39.8603 45.9 40.0203 45.81C40.0999 45.7626 40.1884 45.732 40.2803 45.72C40.3529 45.7049 40.4277 45.7049 40.5003 45.72C40.6296 45.7478 40.7458 45.8182 40.8303 45.92C40.9257 46.0456 40.9687 46.2033 40.9503 46.36C40.927 46.4956 40.8759 46.625 40.8003 46.74C40.6392 46.9931 40.4551 47.2308 40.2503 47.45C40.0417 47.7377 39.758 47.9625 39.4303 48.1C39.0594 48.2133 38.6598 48.1862 38.3076 48.0239C37.9554 47.8616 37.6752 47.5755 37.5203 47.22L38.3203 47.15C38.2129 47.5043 38.0093 47.8218 37.7321 48.0673C37.4549 48.3127 37.115 48.4763 36.7503 48.54C36.4072 48.6009 36.0542 48.5711 35.7262 48.4536C35.3982 48.336 35.1066 48.1349 34.8803 47.87L35.2503 47.77C35.0958 48.3078 34.7368 48.7637 34.2503 49.04C33.996 49.1752 33.7025 49.2176 33.4203 49.16C33.1466 49.0951 32.899 48.9486 32.7103 48.74H32.9603C32.8483 48.9302 32.6965 49.094 32.5152 49.22C32.334 49.346 32.1276 49.4313 31.9103 49.47C31.668 49.5033 31.4213 49.4618 31.2033 49.351C30.9852 49.2401 30.8062 49.0654 30.6903 48.85C30.6212 48.7484 30.5673 48.6372 30.5303 48.52C30.5236 48.4535 30.5236 48.3865 30.5303 48.32C30.5212 48.2637 30.5212 48.2063 30.5303 48.15C30.5422 48.0625 30.5851 47.9821 30.6511 47.9234C30.7171 47.8647 30.802 47.8316 30.8903 47.83C30.9775 47.8269 31.064 47.8476 31.1403 47.89H31.2203H31.3303C31.3861 47.904 31.4445 47.904 31.5003 47.89C31.6103 47.89 31.7603 47.89 31.7503 47.89C31.76 47.8506 31.76 47.8094 31.7503 47.77V47.88C31.5295 47.2877 31.4111 46.6621 31.4003 46.03C31.404 45.4014 31.5191 44.7784 31.7403 44.19C31.8804 43.604 32.1473 43.0558 32.5222 42.5841C32.8971 42.1124 33.371 41.7287 33.9103 41.46H33.9403Z" fill="#231F20"/>
<path d="M24.9996 39.85C23.4996 40.4 23.1096 42.26 22.9996 42.96C22.8004 44.0062 22.8833 45.0865 23.2396 46.09C23.2503 46.1692 23.2432 46.2497 23.219 46.3257C23.1948 46.4018 23.154 46.4716 23.0996 46.53C23.032 46.59 22.9526 46.6352 22.8665 46.6628C22.7804 46.6903 22.6895 46.6996 22.5996 46.69C22.1896 46.69 21.9896 46.39 21.9196 46.45C21.8496 46.51 22.0296 47.29 22.5996 47.45C22.8492 47.5105 23.1116 47.4887 23.3477 47.3877C23.5838 47.2868 23.7809 47.1122 23.9096 46.89C24.1111 47.1154 24.389 47.2579 24.6896 47.29C25.029 47.2584 25.3482 47.1142 25.5964 46.8805C25.8446 46.6468 26.0076 46.3369 26.0596 46C26.2636 46.2212 26.5229 46.384 26.8107 46.4715C27.0986 46.559 27.4047 46.568 27.6972 46.4977C27.9898 46.4274 28.2582 46.2802 28.4749 46.0714C28.6915 45.8626 28.8485 45.5998 28.9296 45.31C29.0223 45.5161 29.1727 45.6909 29.3625 45.8133C29.5524 45.9358 29.7737 46.0006 29.9996 46C30.4396 46 30.7196 45.62 31.0996 45.13C31.0996 45.13 31.4896 44.63 31.3996 44.55C31.3096 44.47 30.8596 44.97 30.3296 44.9C30.0898 44.8445 29.8752 44.7108 29.7196 44.52C29.0296 43.77 29.0896 42.96 28.6296 41.91C28.3669 41.1209 27.8362 40.4487 27.1296 40.01C26.4664 39.6856 25.7039 39.6284 24.9996 39.85Z" fill="url(#paint6_linear)"/>
<path d="M24.9996 39.89C24.4699 40.1008 24.0334 40.4947 23.7696 41C23.5256 41.5178 23.3668 42.0716 23.2996 42.64C23.1496 43.7393 23.2557 44.8585 23.6096 45.91V45.97C23.624 46.1436 23.5929 46.318 23.5192 46.4759C23.4456 46.6337 23.3319 46.7696 23.1896 46.87C23.0597 46.9465 22.9155 46.9957 22.7659 47.0146C22.6163 47.0335 22.4645 47.0217 22.3196 46.98C22.2104 46.965 22.1031 46.9381 21.9996 46.9L21.8596 46.81C21.8596 46.81 21.8596 46.81 21.9696 46.81C22.0358 46.8065 22.0993 46.7824 22.1512 46.7412C22.2032 46.7 22.241 46.6437 22.2596 46.58C22.2596 46.58 22.2596 46.63 22.2596 46.66C22.2719 46.732 22.292 46.8024 22.3196 46.87C22.3675 47.0059 22.455 47.1242 22.5709 47.2098C22.6868 47.2954 22.8257 47.3442 22.9696 47.35C23.135 47.3371 23.2955 47.2873 23.4391 47.2043C23.5827 47.1212 23.7059 47.007 23.7996 46.87L23.9196 46.7L24.0496 46.85C24.1943 47.0116 24.3813 47.1294 24.5896 47.19C24.8016 47.2322 25.0216 47.1967 25.2096 47.09C25.3851 46.9617 25.5325 46.7988 25.6426 46.6114C25.7526 46.4239 25.8231 46.2158 25.8496 46L25.9096 45.6L26.2196 45.9C26.4029 46.0739 26.6295 46.1953 26.8758 46.2516C27.1221 46.3079 27.379 46.297 27.6196 46.22C27.8425 46.144 28.0422 46.0122 28.1997 45.8371C28.3572 45.6621 28.4674 45.4497 28.5196 45.22L28.7596 44.07L29.3096 45.15C29.3847 45.2898 29.5038 45.4008 29.6484 45.4659C29.7931 45.531 29.9552 45.5465 30.1096 45.51C30.437 45.2302 30.7085 44.8909 30.9096 44.51C30.9096 44.51 30.9096 44.41 30.9096 44.51C30.9024 44.5705 30.9075 44.6318 30.9247 44.6903C30.9419 44.7487 30.9708 44.8031 31.0096 44.85C31.0837 44.9385 31.1862 44.9985 31.2996 45.02C31.3519 45.0345 31.4072 45.0345 31.4596 45.02H31.5396L31.1696 45.24C30.9818 45.34 30.7746 45.398 30.5623 45.4101C30.3499 45.4222 30.1375 45.388 29.9396 45.31C29.6121 45.1476 29.3355 44.8986 29.1396 44.59C28.9544 44.3314 28.8125 44.0443 28.7196 43.74C28.5396 43.16 28.4696 42.66 28.3196 42.18C28.1891 41.6913 27.9905 41.2234 27.7296 40.79C27.4338 40.3642 27.0075 40.0461 26.515 39.8837C26.0226 39.7214 25.4907 39.7236 24.9996 39.89ZM24.9996 39.8C25.5223 39.6133 26.0865 39.5752 26.6296 39.69C27.2065 39.7745 27.7402 40.0448 28.1496 40.46C28.5608 40.8735 28.8989 41.3536 29.1496 41.88C29.366 42.3798 29.5562 42.8905 29.7196 43.41C29.7789 43.6211 29.8736 43.8206 29.9996 44C30.1041 44.145 30.2367 44.2674 30.3896 44.36C30.4596 44.36 30.5396 44.36 30.7196 44.31C30.8996 44.26 30.8896 44.21 31.0496 44.12C31.1299 44.0721 31.2179 44.0383 31.3096 44.02C31.3826 44.0103 31.4566 44.0103 31.5296 44.02C31.6721 44.0491 31.7981 44.1316 31.8817 44.2506C31.9654 44.3696 32.0004 44.5161 31.9796 44.66C31.9563 44.7957 31.9052 44.925 31.8296 45.04C31.6692 45.291 31.4886 45.5285 31.2896 45.75C31.0718 46.0328 30.7864 46.2563 30.4596 46.4C30.0887 46.511 29.69 46.4829 29.3383 46.3209C28.9867 46.1589 28.7062 45.8741 28.5496 45.52L29.3496 45.45C29.2422 45.8043 29.0386 46.1219 28.7614 46.3673C28.4842 46.6127 28.1443 46.7763 27.7796 46.84C27.4365 46.9009 27.0835 46.8711 26.7555 46.7536C26.4275 46.6361 26.1359 46.4349 25.9096 46.17L26.2796 46.07C26.2061 46.3377 26.0798 46.588 25.908 46.8061C25.7363 47.0243 25.5226 47.2058 25.2796 47.34C25.025 47.4744 24.7318 47.5168 24.4496 47.46C24.1737 47.3935 23.9233 47.2475 23.7296 47.04L23.9996 47C23.8845 47.1897 23.7305 47.3528 23.5478 47.4786C23.3651 47.6045 23.1578 47.6901 22.9396 47.73C22.6974 47.7619 22.4513 47.7197 22.2335 47.6091C22.0158 47.4984 21.8366 47.3244 21.7196 47.11C21.6505 47.0084 21.5965 46.8972 21.5596 46.78C21.5529 46.7135 21.5529 46.6465 21.5596 46.58C21.5504 46.5237 21.5504 46.4663 21.5596 46.41C21.5747 46.323 21.6183 46.2434 21.6834 46.1837C21.7485 46.124 21.8316 46.0876 21.9196 46.08C22.0082 46.077 22.0955 46.1015 22.1696 46.15H22.2496H22.3596C22.4155 46.1629 22.4737 46.1629 22.5296 46.15C22.6396 46.15 22.7996 46.15 22.7796 46.15C22.7596 46.15 22.7796 46.15 22.7796 46.03V46.14C22.5579 45.5445 22.4395 44.9154 22.4296 44.28C22.4343 43.6548 22.5494 43.0352 22.7696 42.45C22.9285 41.8738 23.21 41.3386 23.5949 40.8813C23.9798 40.4239 24.459 40.0551 24.9996 39.8Z" fill="#231F20"/>
<path d="M48.0003 67.13C47.1605 67.1537 46.3345 67.3486 45.5727 67.7029C44.8109 68.0571 44.1295 68.5631 43.5703 69.19C42.8745 70.019 42.4273 71.0278 42.2803 72.1" stroke="#1E6F5D" stroke-width="1.5" stroke-miterlimit="10"/>
<path d="M41.9901 75.37C43.3211 75.37 44.4001 74.291 44.4001 72.96C44.4001 71.629 43.3211 70.55 41.9901 70.55C40.6591 70.55 39.5801 71.629 39.5801 72.96C39.5801 74.291 40.6591 75.37 41.9901 75.37Z" fill="url(#paint7_linear)" stroke="#231F20" stroke-width="0.5" stroke-miterlimit="10"/>
<path d="M48.6395 42.28C49.9705 42.28 51.0495 41.201 51.0495 39.87C51.0495 38.539 49.9705 37.46 48.6395 37.46C47.3085 37.46 46.2295 38.539 46.2295 39.87C46.2295 41.201 47.3085 42.28 48.6395 42.28Z" fill="url(#paint8_linear)"/>
<path d="M51.0896 39.72C51.163 40.413 51.0197 41.1117 50.6796 41.72C50.4802 42.0334 50.2033 42.2901 49.8757 42.4653C49.5482 42.6404 49.181 42.7282 48.8096 42.72C48.0953 42.6657 47.4276 42.3443 46.9396 41.82C46.4422 41.3276 46.1132 40.6906 45.9996 40C45.9402 39.6292 45.9593 39.2501 46.0558 38.8873C46.1523 38.5244 46.324 38.1859 46.5597 37.8936C46.7954 37.6013 47.0899 37.3619 47.424 37.1907C47.7582 37.0195 48.1247 36.9205 48.4996 36.9C48.8798 36.8774 49.2599 36.9465 49.608 37.1014C49.956 37.2563 50.2618 37.4924 50.4996 37.79C50.8894 38.3577 51.0953 39.0314 51.0896 39.72ZM50.9896 39.72C50.9602 39.4182 50.8525 39.1293 50.6771 38.882C50.5016 38.6347 50.2647 38.4375 49.9896 38.31C49.5375 38.0732 49.0288 37.9659 48.5196 38C48.0218 38.0309 47.5509 38.2362 47.1896 38.58C46.8084 38.9625 46.5686 39.4632 46.5096 40C46.4789 40.2912 46.5213 40.5854 46.6331 40.8561C46.7449 41.1268 46.9224 41.3653 47.1496 41.55C47.3808 41.7125 47.6438 41.8241 47.9213 41.8775C48.1989 41.931 48.4845 41.925 48.7596 41.86C49.2806 41.7614 49.7748 41.5535 50.2096 41.25C50.462 41.0847 50.6673 40.8569 50.8058 40.5889C50.9442 40.3208 51.011 40.0215 50.9996 39.72H50.9896Z" fill="#231F20"/>
<defs>
<linearGradient id="paint0_linear" x1="51.3588" y1="58.8552" x2="60.5813" y2="55.4821" gradientUnits="userSpaceOnUse">
<stop offset="0.58" stop-color="white"/>
<stop offset="0.65" stop-color="#F5F6F6"/>
<stop offset="0.76" stop-color="#DBDCDD"/>
<stop offset="0.89" stop-color="#B1B3B5"/>
<stop offset="1" stop-color="#8D9092"/>
</linearGradient>
<linearGradient id="paint1_linear" x1="733.106" y1="316.307" x2="828.849" y2="305.669" gradientUnits="userSpaceOnUse">
<stop offset="0.58" stop-color="white"/>
<stop offset="0.65" stop-color="#F5F6F6"/>
<stop offset="0.76" stop-color="#DBDCDD"/>
<stop offset="0.89" stop-color="#B1B3B5"/>
<stop offset="1" stop-color="#8D9092"/>
</linearGradient>
<linearGradient id="paint2_linear" x1="681.549" y1="392.331" x2="776.805" y2="381.747" gradientUnits="userSpaceOnUse">
<stop offset="0.58" stop-color="white"/>
<stop offset="0.65" stop-color="#F5F6F6"/>
<stop offset="0.76" stop-color="#DBDCDD"/>
<stop offset="0.89" stop-color="#B1B3B5"/>
<stop offset="1" stop-color="#8D9092"/>
</linearGradient>
<linearGradient id="paint3_linear" x1="2016.71" y1="1030.11" x2="2110.56" y2="1030.11" gradientUnits="userSpaceOnUse">
<stop offset="0.58" stop-color="white"/>
<stop offset="0.65" stop-color="#F5F6F6"/>
<stop offset="0.76" stop-color="#DBDCDD"/>
<stop offset="0.89" stop-color="#B1B3B5"/>
<stop offset="1" stop-color="#8D9092"/>
</linearGradient>
<linearGradient id="paint4_linear" x1="2059.39" y1="852.304" x2="2153.64" y2="852.304" gradientUnits="userSpaceOnUse">
<stop offset="0.58" stop-color="white"/>
<stop offset="0.65" stop-color="#F5F6F6"/>
<stop offset="0.76" stop-color="#DBDCDD"/>
<stop offset="0.89" stop-color="#B1B3B5"/>
<stop offset="1" stop-color="#8D9092"/>
</linearGradient>
<linearGradient id="paint5_linear" x1="1867.65" y1="798.778" x2="1961.48" y2="798.778" gradientUnits="userSpaceOnUse">
<stop offset="0.58" stop-color="white"/>
<stop offset="0.65" stop-color="#F5F6F6"/>
<stop offset="0.76" stop-color="#DBDCDD"/>
<stop offset="0.89" stop-color="#B1B3B5"/>
<stop offset="1" stop-color="#8D9092"/>
</linearGradient>
<linearGradient id="paint6_linear" x1="1777.24" y1="761.444" x2="1870.7" y2="761.444" gradientUnits="userSpaceOnUse">
<stop offset="0.58" stop-color="white"/>
<stop offset="0.65" stop-color="#F5F6F6"/>
<stop offset="0.76" stop-color="#DBDCDD"/>
<stop offset="0.89" stop-color="#B1B3B5"/>
<stop offset="1" stop-color="#8D9092"/>
</linearGradient>
<linearGradient id="paint7_linear" x1="251.145" y1="395.585" x2="273.151" y2="387.515" gradientUnits="userSpaceOnUse">
<stop offset="0.58" stop-color="white"/>
<stop offset="0.65" stop-color="#F5F6F6"/>
<stop offset="0.76" stop-color="#DBDCDD"/>
<stop offset="0.89" stop-color="#B1B3B5"/>
<stop offset="1" stop-color="#8D9092"/>
</linearGradient>
<linearGradient id="paint8_linear" x1="287.774" y1="202.646" x2="309.828" y2="194.573" gradientUnits="userSpaceOnUse">
<stop offset="0.58" stop-color="white"/>
<stop offset="0.65" stop-color="#F5F6F6"/>
<stop offset="0.76" stop-color="#DBDCDD"/>
<stop offset="0.89" stop-color="#B1B3B5"/>
<stop offset="1" stop-color="#8D9092"/>
</linearGradient>
</defs>
</svg>
