<svg width="67" height="68" viewBox="0 0 67 68" fill="none" xmlns="http://www.w3.org/2000/svg">
<path d="M0.669406 13.19C6.43941 1.54001 27.5694 1.82001 33.8394 1.90001C42.0594 2.01001 58.8994 2.23001 64.6194 12.58C67.1194 17.08 65.6194 24.33 62.7794 38.83C60.5294 50.14 59.3194 55.83 55.5694 59.67C49.0594 66.26 39.7294 66.5 33.4694 66.67C27.0394 66.83 16.2194 67.1 9.46941 59.94C7.76941 58.15 6.38941 55.94 2.93941 36.85C-0.740594 16.61 -0.000594318 14.54 0.669406 13.19Z" fill="#8B5E3C"/>
<path d="M0.579122 13.15C1.63758 11.1168 3.14998 9.3546 4.99912 8C6.83291 6.61129 8.85263 5.48698 10.9991 4.66C15.252 3.02739 19.7054 1.97461 24.2391 1.53C28.781 1.08047 33.3482 0.940147 37.9091 1.11C40.199 1.15547 42.4852 1.31567 44.7591 1.59C47.0541 1.84294 49.3248 2.28104 51.5491 2.9C53.7989 3.48573 55.966 4.35255 57.9991 5.48C60.0815 6.57861 61.9214 8.08521 63.4091 9.91C63.7932 10.3491 64.1285 10.8286 64.4091 11.34C64.7397 11.8293 65.0306 12.3443 65.2791 12.88C65.7497 13.9657 66.0402 15.1208 66.1391 16.3C66.3135 18.5924 66.2263 20.8973 65.8791 23.17C65.2791 27.69 64.3891 32.17 63.5591 36.59C62.7291 41.01 61.9991 45.52 60.9091 50C60.4039 52.2586 59.6527 54.455 58.6691 56.55C58.1429 57.6207 57.4953 58.6273 56.7391 59.55C56.3575 60.003 55.9466 60.4306 55.5091 60.83C55.0921 61.2489 54.6478 61.6397 54.1791 62C50.4312 64.8628 45.9688 66.6408 41.2791 67.14C38.9998 67.4351 36.7067 67.612 34.4091 67.67C32.1391 67.74 29.8491 67.83 27.5391 67.75C22.8304 67.7422 18.1832 66.6795 13.9391 64.64C11.8134 63.5189 9.90371 62.0291 8.29912 60.24C7.51269 59.2693 6.9003 58.1697 6.48912 56.99C6.09683 55.8918 5.76303 54.7736 5.48912 53.64C4.89912 51.42 4.48912 49.18 4.02912 46.94C3.56912 44.7 3.23912 42.46 2.87912 40.22C2.18912 35.73 1.50912 31.22 0.949122 26.74C0.649122 24.44 0.359122 22.18 0.179122 19.92C0.0891219 18.79 -0.000878092 17.65 -0.000878092 16.51C-0.0793569 15.3597 0.119554 14.2074 0.579122 13.15ZM0.759122 13.24C0.329394 14.2735 0.151174 15.3942 0.239122 16.51C0.239122 17.64 0.339122 18.77 0.479122 19.89C0.739122 22.14 1.05912 24.38 1.47912 26.61C2.27912 31.06 3.18912 35.5 4.15912 39.93C5.12912 44.36 6.09912 48.78 7.30912 53.08C7.62912 54.15 7.95912 55.21 8.30912 56.21C8.65051 57.1711 9.15824 58.0647 9.80912 58.85C11.2611 60.4198 12.9771 61.7229 14.8791 62.7C18.8508 64.5719 23.1787 65.5678 27.5691 65.62C29.7891 65.72 32.0391 65.68 34.2991 65.62C36.5381 65.6082 38.7747 65.4747 40.9991 65.22C45.3969 64.8316 49.6099 63.2707 53.1991 60.7C53.6399 60.3937 54.0608 60.0597 54.4591 59.7C54.8645 59.3429 55.2485 58.9623 55.6091 58.56C56.3196 57.7496 56.9399 56.8644 57.4591 55.92C58.4792 53.9465 59.2806 51.8675 59.8491 49.72C61.0491 45.38 61.9891 40.93 62.8491 36.5C63.7091 32.07 64.6991 27.62 65.2191 23.13C65.5088 20.9111 65.5389 18.6659 65.3091 16.44C65.1658 15.3606 64.8519 14.3109 64.3791 13.33C64.132 12.8497 63.8443 12.3913 63.5191 11.96C63.2343 11.4945 62.8989 11.0619 62.5191 10.67C61.0594 9.02933 59.284 7.69955 57.2991 6.76C56.3262 6.26664 55.3244 5.83252 54.2991 5.46C53.2391 5.14 52.1891 4.79 51.1091 4.55C46.7563 3.54883 42.3141 2.98602 37.8491 2.87C33.3391 2.73 28.8491 2.54 24.3391 2.78C19.8377 2.94893 15.3802 3.72942 11.0891 5.1C8.94633 5.81177 6.92347 6.84343 5.08912 8.16C3.26783 9.49082 1.78465 11.2309 0.759122 13.24Z" fill="#231F20"/>
<path d="M0.659376 12.24C0.839376 5.93001 19.9994 0.310006 35.9194 0.870006C48.5494 1.32001 65.2694 5.87001 65.5394 11.8C65.8094 17.73 49.5994 24.52 35.2594 25.11C18.8294 25.78 0.489376 18.48 0.659376 12.24Z" fill="#A97C50"/>
<path d="M0.558594 12.24C0.599942 11.4558 0.871216 10.7011 1.33859 10.07C1.78441 9.43933 2.3124 8.87097 2.90859 8.38C4.094 7.40968 5.3816 6.5714 6.74859 5.88C9.48523 4.48796 12.3481 3.35954 15.2986 2.51C21.1953 0.752027 27.3261 -0.0944118 33.4786 -1.64565e-06C39.6025 0.218038 45.6786 1.16471 51.5786 2.82C54.5434 3.57835 57.4348 4.59904 60.2186 5.87C61.6347 6.52354 62.9565 7.3644 64.1486 8.37C64.768 8.907 65.2774 9.55904 65.6486 10.29C66.0512 11.0757 66.1747 11.9749 65.9986 12.84C65.5345 14.4182 64.5952 15.8149 63.3086 16.84C62.1349 17.8807 60.8505 18.7894 59.4786 19.55C56.7891 21.0791 53.9469 22.3225 50.9986 23.26C45.1229 25.2146 38.9709 26.2107 32.7786 26.21C26.5858 26.155 20.4454 25.0702 14.6086 23C11.7049 21.9569 8.91672 20.6164 6.28859 19C4.96985 18.2156 3.74522 17.2829 2.63859 16.22C2.08026 15.6871 1.59594 15.0817 1.19859 14.42C0.785647 13.7675 0.563923 13.0122 0.558594 12.24ZM0.758594 12.24C0.772977 12.9842 0.998386 13.7089 1.40859 14.33C1.80075 14.9538 2.28258 15.5165 2.83859 16C3.96377 17.0029 5.21827 17.8504 6.56859 18.52C9.25486 19.8828 12.0815 20.9491 14.9986 21.7C20.7965 23.2118 26.7572 24.0111 32.7486 24.08C38.7238 24.0665 44.6655 23.1874 50.3886 21.47C53.2495 20.6362 56.0278 19.5416 58.6886 18.2C59.9942 17.5257 61.2389 16.7395 62.4086 15.85C63.5518 15.0405 64.4234 13.9041 64.9086 12.59C65.0254 11.9256 64.9617 11.2419 64.7242 10.6105C64.4868 9.97904 64.0842 9.42286 63.5586 9C62.4784 7.98508 61.2512 7.13889 59.9186 6.49C57.2067 5.1745 54.3554 4.16818 51.4186 3.49C48.4815 2.77982 45.4971 2.28186 42.4886 2C39.499 1.69414 36.4924 1.58723 33.4886 1.68C27.4804 1.84318 21.4978 2.5291 15.6086 3.73C12.6594 4.31792 9.7754 5.19551 6.99859 6.35C5.60681 6.92409 4.29578 7.6771 3.09859 8.59C2.49852 9.04606 1.96942 9.58864 1.52859 10.2C1.0789 10.7944 0.811416 11.5065 0.758594 12.25V12.24Z" fill="#231F20"/>
<path d="M7.75885 12.05C7.88885 7.55001 22.5089 3.56001 34.6489 4.00001C44.2789 4.32001 57.0389 7.57001 57.2389 11.78C57.4389 15.99 45.0889 20.8 34.1489 21.21C21.6189 21.69 7.61885 16.49 7.75885 12.05Z" fill="#231F20" stroke="#231F20" stroke-width="3" stroke-miterlimit="10"/>
</svg>
