<svg width="388" height="398" viewBox="0 0 388 398" fill="none" xmlns="http://www.w3.org/2000/svg">
<path d="M2.40039 395.1L14.5004 342.7L17.5004 343.4C21.6004 342.8 21.7004 344.1 25.4004 346.1C28.5004 347.8 31.2004 350.3 33.8004 352.7C41.8004 360.3 50.2004 368.5 52.9004 379.3L53.4004 381L2.40039 395.1Z" fill="black"/>
<path d="M232.701 59.5008C234.201 58.1008 235.601 56.6008 237.001 55.0008C239.701 51.9008 242.201 48.5008 244.801 45.3008C252.101 36.5008 261.101 29.2008 271.101 23.8008L271.701 24.5008C273.001 25.1008 274.401 25.7008 275.701 26.3008C315.301 44.8008 347.401 79.0008 363.301 119.801C363.801 121.101 364.301 122.501 364.801 123.801L363.301 125.801C355.301 131.301 349.001 138.901 342.801 146.301C334.901 155.901 327.001 165.401 319.101 175.001L317.601 173.801C317.501 173.401 317.401 173.001 317.201 172.601C309.901 149.101 293.501 129.501 277.601 110.601C273.601 105.901 269.601 101.101 264.901 97.1008C261.001 93.8008 256.701 91.0008 252.401 88.3008C244.601 83.3008 236.801 78.4008 228.901 73.4008C226.801 72.0008 224.601 70.7008 222.401 69.3008L221.701 68.4008C225.701 65.7008 229.401 62.7008 232.701 59.5008Z" fill="#DBD8D5"/>
<path d="M25.3004 346.101C21.7004 344.201 21.5004 342.901 17.4004 343.401L14.4004 342.701L31.1004 270.301L31.3004 270.401C36.0004 280.301 47.4004 286.701 58.4004 285.501C57.7004 296.701 61.9004 308.201 69.7004 316.301C77.5004 324.401 88.8004 329.101 100 329.001C100.8 336.001 102 343.201 105.2 349.501C108.3 355.601 113.8 360.801 120.5 362.101C120.7 362.201 121 362.201 121.2 362.201L53.2004 381.101L52.7004 379.401C50.0004 368.701 41.6004 360.401 33.6004 352.801C31.1004 350.201 28.5004 347.701 25.3004 346.101Z" fill="#FFD59B"/>
<path d="M379.101 63.7004C384.901 73.2004 386.001 84.9004 385.601 96.0004C378.701 103.7 371.801 111.4 364.801 119.1L363.301 119.7C347.401 78.9004 315.301 44.7004 275.701 26.2004L275.901 24.2004C282.001 16.8004 288.601 9.70039 295.401 2.90039C329.501 13.0004 360.401 33.4004 379.101 63.7004Z" fill="#FFB8D9"/>
<path d="M317.301 172.401L316.601 172.601C253.101 237.601 187.701 300.701 120.601 362.001C113.901 360.701 108.401 355.501 105.301 349.401C102.001 343.101 100.901 336.001 100.101 328.901C88.8012 329.101 77.6012 324.401 69.8012 316.201C62.0012 308.101 57.8012 296.601 58.5012 285.401C47.5012 286.601 36.2012 280.301 31.4012 270.301L31.2012 270.201L31.7012 268.101C95.9012 202.201 161.501 137.501 228.301 74.2006L229.001 73.1006C236.801 78.1006 244.601 83.0006 252.501 88.0006C256.801 90.7006 261.101 93.5006 265.001 96.8006C269.701 100.801 273.701 105.601 277.701 110.301C293.601 129.301 309.901 148.901 317.301 172.401Z" fill="#F8931F"/>
<path d="M271.701 24.4004C273.001 25.0004 274.401 25.6004 275.701 26.2004C315.301 44.7004 347.401 78.9004 363.301 119.7C363.801 121 364.301 122.4 364.801 123.7" stroke="black" stroke-width="4" stroke-miterlimit="10" stroke-linecap="round" stroke-linejoin="round"/>
<path d="M222.5 69.2002C224.6 70.6002 226.8 71.9002 229 73.3002C236.8 78.3002 244.6 83.2002 252.5 88.2002C256.8 90.9002 261.1 93.7002 265 97.0002C269.7 101 273.7 105.8 277.7 110.5C293.6 129.4 310 149 317.3 172.5C317.4 172.9 317.5 173.3 317.7 173.7" stroke="black" stroke-width="4" stroke-miterlimit="10" stroke-linecap="round" stroke-linejoin="round"/>
<path d="M318.201 176.1C318.501 175.7 318.901 175.3 319.201 174.9C327.101 165.3 335.001 155.8 342.901 146.2C349.101 138.7 355.401 131.1 363.401 125.7" stroke="black" stroke-width="4" stroke-miterlimit="10" stroke-linecap="round" stroke-linejoin="round"/>
<path d="M221.6 68.4008C221.7 68.3008 221.8 68.3008 221.8 68.2008C225.7 65.7008 229.3 62.7008 232.7 59.5008C234.2 58.1008 235.6 56.6008 237 55.0008C239.7 51.9008 242.2 48.5008 244.8 45.3008C252.1 36.5008 261.1 29.2008 271.1 23.8008" stroke="black" stroke-width="4" stroke-miterlimit="10" stroke-linecap="round" stroke-linejoin="round"/>
<path d="M364.801 119.1C371.701 111.4 378.601 103.7 385.601 96" stroke="black" stroke-width="4" stroke-miterlimit="10" stroke-linecap="round" stroke-linejoin="round"/>
<path d="M275.801 24.2004C281.901 16.8004 288.501 9.70039 295.301 2.90039" stroke="black" stroke-width="4" stroke-miterlimit="10" stroke-linecap="round" stroke-linejoin="round"/>
<path d="M295.301 2.90039C329.501 13.0004 360.401 33.4004 379.001 63.7004C384.801 73.2004 385.901 84.9004 385.501 96.0004" stroke="black" stroke-width="4" stroke-miterlimit="10" stroke-linecap="round" stroke-linejoin="round"/>
<path d="M228.3 74.3008C161.5 137.601 95.9004 202.301 31.7004 268.201L31.2004 270.301L14.5004 342.701L2.40039 395.101L53.3004 381.001L121.3 362.101C121.1 362.101 120.8 362.001 120.6 362.001C113.9 360.701 108.4 355.501 105.3 349.401C102 343.101 100.9 336.001 100.1 328.901C88.8004 329.101 77.6004 324.401 69.8004 316.201C62.0004 308.101 57.8004 296.601 58.5004 285.401C47.5004 286.601 36.2004 280.301 31.4004 270.301" stroke="black" stroke-width="4" stroke-miterlimit="10" stroke-linecap="round" stroke-linejoin="round"/>
<path d="M316.6 172.601C253.1 237.601 187.7 300.701 120.6 362.001C120.6 362.001 120.6 362.001 120.5 362.101" stroke="black" stroke-width="4" stroke-miterlimit="10" stroke-linecap="round" stroke-linejoin="round"/>
<path d="M231.801 60.0006C232.101 59.7006 232.401 59.6006 232.701 59.5006C233.901 59.1006 235.501 59.7006 236.701 60.3006C249.001 66.6006 260.401 74.6006 270.501 84.1006" stroke="black" stroke-width="4" stroke-miterlimit="10" stroke-linecap="round" stroke-linejoin="round"/>
<path d="M335.1 151.5C330.5 139.1 323.5 127.7 314.6 117.9" stroke="black" stroke-width="4" stroke-miterlimit="10" stroke-linecap="round" stroke-linejoin="round"/>
<path d="M309.9 78.6006C316.1 85.5006 322 92.5006 327.7 99.7006C336.6 110.901 345.1 123.001 348.6 136.901" stroke="black" stroke-width="4" stroke-miterlimit="10" stroke-linecap="round" stroke-linejoin="round"/>
<path d="M73.2012 270.9C117.301 228.7 159.901 184.9 201.001 139.7" stroke="black" stroke-width="4" stroke-miterlimit="10" stroke-linecap="round" stroke-linejoin="round"/>
<path d="M144.6 290.5C185.7 247.3 228.3 205.4 272.2 165" stroke="black" stroke-width="4" stroke-miterlimit="10" stroke-linecap="round" stroke-linejoin="round"/>
<path d="M17.5 343.4C21.6 342.8 21.7 344.1 25.4 346.1C28.5 347.8 31.2 350.3 33.8 352.7C41.8 360.3 50.2 368.5 52.9 379.3" stroke="black" stroke-width="4" stroke-miterlimit="10" stroke-linecap="round" stroke-linejoin="round"/>
<g opacity="0.65">
<path opacity="0.65" d="M35 268.9C37.3 273.2 40 277.5 44.3 279.7C49.8 282.5 56.6 281.4 61.9 278.3C67.2 275.2 71.4 270.5 75.4 265.8C98.4 239.5 122.3 214 147.5 189.7C181 157.4 217 127 242.9 88.4C238 86.5 233.5 83.4 229.9 79.5C206.7 101.1 183.8 123 161.2 145.1C118.9 186.4 77.6 228.7 36.7 271.4" fill="#F6A61E"/>
</g>
<g opacity="0.57">
<path opacity="0.57" d="M355.201 94.2005C361.401 86.7005 367.501 79.2005 373.701 71.7005C374.801 70.4005 376.401 69.0005 377.901 69.7005C378.701 70.1005 379.101 71.0005 379.501 71.8005C381.401 76.2005 383.301 80.8005 383.301 85.7005C383.201 96.6005 373.701 104.6 366.301 112.5C366.001 104.7 361.201 97.3005 354.201 93.9005" fill="#EF7FB8"/>
</g>
<g opacity="0.34">
<path opacity="0.34" d="M284.1 34.4004C273 50.3004 258 62.8004 244.9 77.1004C246.8 78.9004 248.8 80.7004 250.7 82.6004C251.3 83.1004 251.9 83.7004 252.7 83.7004C253.4 83.7004 253.9 83.1004 254.4 82.6004C267.5 69.4004 279.8 55.4004 291.1 40.6004C289 39.3004 286.9 38.1004 284.8 36.8004" fill="white"/>
</g>
<g opacity="0.41">
<path opacity="0.41" d="M304.1 141.901C318.9 130.201 332.8 117.201 345.6 103.301C350.5 109.401 355.2 115.701 359.6 122.301C359.8 122.601 360 122.901 360.1 123.301C360.2 124.101 359.4 124.801 358.7 125.201C349.6 131.001 341.7 138.801 335.9 147.901C331.1 155.301 327.3 163.801 319.7 168.301C317.4 159.301 313.3 150.901 307.7 143.501" fill="#BCBAB8"/>
</g>
<g opacity="0.34">
<path opacity="0.34" d="M19.5004 349C15.3004 362.7 11.1004 376.4 6.90039 390.1C12.4004 383.2 18.0004 376.4 23.4004 369.5C26.5004 365.5 29.7004 361.1 29.6004 356C29.5004 350.9 23.7004 346.1 19.4004 348.7" fill="white"/>
</g>
<g opacity="0.49">
<path opacity="0.49" d="M49.5996 363.3C53.0996 364.5 55.9996 367.4 57.0996 370.9C57.2996 371.5 57.4996 372.2 57.9996 372.5C58.4996 372.9 59.2996 372.9 59.8996 372.8C75.8996 371.3 91.6996 367.6 106.8 362C100.8 354.4 97.1996 344.9 96.5996 335.2C79.2996 340.8 66.9996 356.2 50.4996 364" fill="#E5BD8F"/>
</g>
<g opacity="0.81">
<path opacity="0.81" d="M304.9 159.2C306.9 163.4 309 167.6 311 171.9C263.8 218.2 216.4 264.2 168.9 310.2C152.8 325.8 136.7 341.5 120.5 357.1C119.8 357.8 118.9 358.6 117.9 358.6C116.5 358.7 115.4 357.4 114.6 356.2C111.1 350.8 108.5 344.7 107 338.4C175.2 282.2 240.7 222.7 303.2 160.3" fill="#E27F1B"/>
</g>
</svg>
