<svg width="14" height="14" viewBox="0 0 14 14" fill="none" xmlns="http://www.w3.org/2000/svg">
<path d="M7.11554 13.787C10.8706 13.787 13.9147 10.7429 13.9147 6.98785C13.9147 3.23279 10.8706 0.188721 7.11554 0.188721C3.36048 0.188721 0.316406 3.23279 0.316406 6.98785C0.316406 10.7429 3.36048 13.787 7.11554 13.787Z" fill="#E7D855"/>
<path d="M8.32723 7.16446C8.18114 7.0549 8.00462 6.95751 7.80375 6.88446C7.65158 6.82359 7.47506 6.78099 7.29854 6.73229V4.96099C7.37767 4.97316 7.4568 4.97316 7.54201 4.99751C7.69419 5.04012 7.83419 5.10099 7.95593 5.17403C8.07767 5.24707 8.18723 5.33229 8.27245 5.42359C8.31506 5.45403 8.36375 5.47838 8.41854 5.47838C8.49767 5.47838 8.56462 5.44794 8.62549 5.38707C8.68636 5.3262 8.7168 5.25925 8.7168 5.1862C8.7168 5.0949 8.6681 5.00968 8.57071 4.91838C8.41245 4.74794 8.1994 4.61403 7.93158 4.51664C7.73071 4.44359 7.51767 4.40707 7.29854 4.38881V3.81664C7.29854 3.66446 7.1768 3.54272 7.02462 3.54272C6.87245 3.54272 6.75071 3.66446 6.75071 3.81664V4.40099C6.54984 4.42533 6.36114 4.46794 6.1968 4.54099C5.94114 4.65664 5.73419 4.8149 5.5881 5.02794C5.4481 5.2349 5.37506 5.47838 5.37506 5.75229C5.37506 5.97142 5.41158 6.16012 5.49071 6.32446C5.56375 6.48881 5.67332 6.62881 5.80723 6.73838C5.94114 6.84794 6.10549 6.95142 6.29419 7.02446C6.43419 7.08533 6.59854 7.12794 6.7568 7.17055V9.0149C6.59854 8.99055 6.44636 8.96012 6.30636 8.89925C6.08723 8.80186 5.88028 8.66186 5.69158 8.47925C5.6368 8.42446 5.57593 8.40012 5.50897 8.40012C5.42375 8.40012 5.3568 8.43055 5.30201 8.49142C5.24723 8.55229 5.2168 8.61925 5.2168 8.69838C5.2168 8.74707 5.22897 8.78968 5.24723 8.83229C5.27158 8.8749 5.29593 8.91142 5.33245 8.94794C5.5881 9.17925 5.84984 9.34968 6.12375 9.45925C6.31245 9.53229 6.53158 9.5749 6.7568 9.59316V10.1775C6.7568 10.3297 6.87854 10.4514 7.03071 10.4514C7.18288 10.4514 7.30462 10.3297 7.30462 10.1775V9.59316C7.53593 9.56881 7.75506 9.52012 7.94984 9.4349C8.21158 9.31925 8.41854 9.14881 8.56462 8.94186C8.71071 8.7349 8.78984 8.49142 8.78984 8.2236C8.78984 7.96794 8.74723 7.7549 8.6681 7.58446C8.58897 7.42012 8.47332 7.27403 8.32723 7.16446ZM6.75071 6.54968C6.68375 6.52533 6.61071 6.50707 6.54375 6.48272C6.36114 6.40968 6.22114 6.31229 6.11158 6.19055C6.00201 6.06881 5.95332 5.92272 5.95332 5.73403C5.95332 5.56968 6.00201 5.42359 6.09332 5.30794C6.19071 5.19229 6.31854 5.0949 6.48897 5.02794C6.5681 4.99751 6.65332 4.97316 6.74462 4.96099V6.54968H6.75071ZM8.04723 8.66794C7.94375 8.78968 7.80984 8.88707 7.63332 8.95403C7.52984 8.99664 7.42027 9.02099 7.29854 9.03316V7.34099C7.39593 7.37142 7.48723 7.40794 7.57245 7.44446C7.76723 7.52968 7.91332 7.63316 8.02288 7.76099C8.13245 7.88881 8.18723 8.04707 8.19332 8.24186C8.1994 8.4062 8.14462 8.5462 8.04723 8.66794Z" fill="#FAF28A"/>
<path d="M3.14105 9.36778C3.04975 9.22778 2.86714 9.17908 2.72105 9.27039C2.58105 9.36169 2.53235 9.5443 2.62366 9.69039C2.73322 9.873 2.85496 10.0434 2.98888 10.2078C3.04975 10.2808 3.13496 10.3234 3.22627 10.3234C3.29322 10.3234 3.36018 10.2991 3.41496 10.2565C3.54888 10.153 3.56714 9.95821 3.46366 9.83039C3.34801 9.67821 3.23844 9.52604 3.14105 9.36778Z" fill="#FAF28A"/>
<path d="M2.67789 8.35743C2.62311 8.18091 2.5805 8.00439 2.54398 7.81569C2.51355 7.65135 2.35529 7.54178 2.19094 7.57222C2.02659 7.60265 1.91703 7.76091 1.94746 7.92526C1.98398 8.13222 2.03876 8.33917 2.09963 8.54004C2.14224 8.66787 2.25789 8.75309 2.39181 8.75309C2.42224 8.75309 2.45268 8.747 2.48311 8.74091C2.64137 8.68613 2.73268 8.51569 2.67789 8.35743Z" fill="#FAF28A"/>
<path d="M4.28485 3.38426C4.41876 3.28078 4.44919 3.09208 4.34572 2.95817C4.24224 2.82426 4.05354 2.79382 3.91963 2.8973C3.74919 3.02513 3.59093 3.15904 3.43876 3.30513C3.31702 3.42078 3.31702 3.61556 3.43267 3.7373C3.49354 3.79817 3.57267 3.82861 3.6518 3.82861C3.72485 3.82861 3.80398 3.79817 3.86485 3.74339C3.99267 3.61556 4.13267 3.49382 4.28485 3.38426Z" fill="#FAF28A"/>
<path d="M2.1613 6.98791C2.16738 6.98791 2.17347 6.98791 2.17956 6.98791C2.33782 6.98791 2.47173 6.86618 2.4839 6.70183C2.49608 6.51313 2.52043 6.33052 2.55086 6.14792C2.5813 5.98357 2.47173 5.82531 2.30738 5.79487C2.14303 5.76444 1.98477 5.874 1.95434 6.03835C1.91782 6.24531 1.88738 6.45226 1.87521 6.66531C1.86912 6.83574 1.99695 6.97574 2.1613 6.98791Z" fill="#FAF28A"/>
<path d="M11.2185 5.36874C11.2672 5.49048 11.3828 5.56353 11.5046 5.56353C11.5411 5.56353 11.5776 5.55744 11.6142 5.54526C11.7724 5.48439 11.8515 5.30787 11.7907 5.14961C11.7176 4.95483 11.6263 4.76005 11.5289 4.57744C11.4498 4.43135 11.2672 4.37048 11.115 4.4557C10.9689 4.53483 10.9142 4.71744 10.9933 4.86961C11.0724 5.02179 11.1515 5.19222 11.2185 5.36874Z" fill="#FAF28A"/>
<path d="M8.51 2.73306C8.68652 2.79393 8.85696 2.86698 9.02131 2.95219C9.06391 2.97654 9.11261 2.98263 9.15522 2.98263C9.26478 2.98263 9.37435 2.92176 9.42913 2.81219C9.50217 2.66002 9.44131 2.47741 9.29522 2.40437C9.10652 2.31306 8.91174 2.22784 8.71087 2.1548C8.55261 2.10002 8.37609 2.18524 8.32131 2.3435C8.26652 2.50176 8.35174 2.67828 8.51 2.73306Z" fill="#FAF28A"/>
<path d="M6.87217 2.47735H6.99999C7.14608 2.47735 7.28608 2.48344 7.42608 2.49561C7.43825 2.49561 7.44434 2.49561 7.45651 2.49561C7.60869 2.49561 7.7426 2.37996 7.76086 2.2217C7.77304 2.05126 7.6513 1.90517 7.48695 1.893C7.32869 1.88083 7.17043 1.86865 7.00608 1.86865H6.85391C6.68347 1.87474 6.55565 2.01474 6.56173 2.18517C6.56173 2.34952 6.70173 2.48344 6.87217 2.47735Z" fill="#FAF28A"/>
<path d="M2.4892 5.24091C2.53181 5.26526 2.57442 5.27134 2.61703 5.27134C2.73268 5.27134 2.84224 5.20439 2.89094 5.09482C2.97007 4.92439 3.05529 4.76004 3.15877 4.60786C3.25007 4.46786 3.20138 4.27917 3.06138 4.18786C2.92138 4.09656 2.73268 4.13917 2.64138 4.28526C2.53181 4.46178 2.42833 4.65047 2.34311 4.83917C2.27007 4.99134 2.33703 5.17395 2.4892 5.24091Z" fill="#FAF28A"/>
<path d="M4.71744 10.9079C4.55918 10.8165 4.40092 10.7131 4.25483 10.5974C4.12092 10.4939 3.93222 10.5244 3.82874 10.6522C3.72526 10.78 3.74961 10.9748 3.88352 11.0783C4.04787 11.2061 4.22439 11.3218 4.407 11.4313C4.4557 11.4618 4.51048 11.4739 4.55918 11.4739C4.66265 11.4739 4.76613 11.4192 4.82092 11.3218C4.91222 11.1757 4.86352 10.9931 4.71744 10.9079Z" fill="#FAF28A"/>
<path d="M10.6767 9.64171C10.5671 9.79389 10.4514 9.93389 10.3236 10.0739C10.208 10.1956 10.214 10.3904 10.3419 10.5061C10.4027 10.5608 10.4758 10.5852 10.5488 10.5852C10.628 10.5852 10.7132 10.5548 10.774 10.4878C10.9201 10.3356 11.048 10.1713 11.1758 9.99476C11.2732 9.86084 11.2427 9.66606 11.1088 9.56867C10.9627 9.47128 10.774 9.50171 10.6767 9.64171Z" fill="#FAF28A"/>
<path d="M11.7545 7.91918C11.5902 7.87657 11.4258 7.97396 11.3832 8.13831C11.3345 8.32092 11.2797 8.49744 11.2128 8.66787C11.1519 8.82614 11.2249 9.00266 11.3832 9.06353C11.4197 9.0757 11.4562 9.08179 11.4928 9.08179C11.6145 9.08179 11.7302 9.00874 11.7789 8.88701C11.858 8.69222 11.9189 8.49135 11.9736 8.2844C12.0102 8.12614 11.9128 7.96179 11.7545 7.91918Z" fill="#FAF28A"/>
<path d="M10.5725 4.05387C10.6455 4.05387 10.7186 4.02952 10.7795 3.97474C10.9012 3.85909 10.9134 3.67039 10.7977 3.54257C10.6577 3.38431 10.5055 3.23822 10.3473 3.10431C10.2195 2.99474 10.0308 3.00691 9.9212 3.13474C9.81163 3.26257 9.82381 3.45126 9.95164 3.56083C10.0916 3.68257 10.2255 3.81039 10.3534 3.95039C10.4082 4.01735 10.4873 4.05387 10.5725 4.05387Z" fill="#FAF28A"/>
<path d="M12.095 6.37311C12.0767 6.20876 11.9306 6.08093 11.7541 6.10528C11.5898 6.12354 11.468 6.27571 11.4924 6.44615C11.5167 6.62876 11.5289 6.81137 11.5289 7.00006V7.03658C11.5289 7.20702 11.6628 7.32267 11.8332 7.32267C12.0037 7.32267 12.1376 7.1705 12.1376 7.00006C12.1315 6.78702 12.1193 6.57397 12.095 6.37311Z" fill="#FAF28A"/>
<path d="M6.28232 11.4678C6.09971 11.4374 5.9171 11.4009 5.74058 11.3461C5.58232 11.2974 5.41188 11.3948 5.36319 11.5531C5.31449 11.7174 5.41188 11.8817 5.57014 11.9304C5.77101 11.9913 5.97797 12.0339 6.18493 12.0704C6.20319 12.0704 6.21536 12.0765 6.23362 12.0765C6.37971 12.0765 6.50753 11.9731 6.53188 11.8209C6.56232 11.6504 6.44667 11.4922 6.28232 11.4678Z" fill="#FAF28A"/>
<path d="M5.77088 2.64774C5.93523 2.59904 6.02653 2.42861 5.98392 2.27035C5.93523 2.106 5.76479 2.01469 5.60653 2.0573C5.39958 2.11817 5.20479 2.18513 5.01001 2.27035C4.85784 2.3373 4.78479 2.51382 4.84566 2.666C4.89436 2.78165 5.01001 2.85469 5.12566 2.85469C5.16218 2.85469 5.20479 2.84861 5.24131 2.83035C5.41784 2.7573 5.59436 2.69643 5.77088 2.64774Z" fill="#FAF28A"/>
<path d="M7.94382 11.4253C7.76122 11.4618 7.57861 11.4922 7.38991 11.5044C7.22556 11.5166 7.09774 11.6687 7.116 11.8331C7.12817 11.9913 7.26208 12.1131 7.42035 12.1131C7.42643 12.1131 7.43861 12.1131 7.44469 12.1131C7.65774 12.0948 7.86469 12.0644 8.06556 12.0218C8.22991 11.9853 8.33339 11.827 8.30296 11.6626C8.26643 11.4983 8.10817 11.3887 7.94382 11.4253Z" fill="#FAF28A"/>
<path d="M9.4771 10.786C9.32493 10.8895 9.16058 10.9808 8.99014 11.06C8.83797 11.133 8.7771 11.3156 8.85014 11.4678C8.90493 11.5773 9.0084 11.6382 9.12406 11.6382C9.16666 11.6382 9.21536 11.626 9.25797 11.6078C9.44666 11.5165 9.62927 11.4069 9.80579 11.2973C9.94579 11.206 9.9884 11.0173 9.8971 10.8773C9.80579 10.7373 9.6171 10.6947 9.4771 10.786Z" fill="#FAF28A"/>
<path d="M7 0C3.14087 0 0 3.14087 0 7C0 10.8591 3.14087 14 7 14C10.8591 14 14 10.8591 14 7C14 3.14087 10.8591 0 7 0ZM7 13.3913C3.47565 13.3913 0.608696 10.5243 0.608696 7C0.608696 3.47565 3.47565 0.608696 7 0.608696C10.5243 0.608696 13.3913 3.47565 13.3913 7C13.3913 10.5243 10.5243 13.3913 7 13.3913Z" fill="#FAF28A"/>
</svg>
