<svg width="57" height="107" viewBox="0 0 57 107" fill="none" xmlns="http://www.w3.org/2000/svg">
<path d="M2 2C11.82 10.23 24.38 23.83 27.28 43.35C27.6714 46.2914 27.8918 49.2531 27.94 52.22C28.43 64.46 28.88 82.11 28.61 104.78" stroke="#1E6F5D" stroke-width="4" stroke-miterlimit="10" stroke-linecap="round"/>
<path d="M56.2192 23.15C53.5292 32.73 49.3092 36.3 46.3492 37.83C45.5592 38.24 44.9092 38.48 38.3492 40.83L28.6592 44.24C29.4111 41.9963 30.3965 39.8378 31.5992 37.8C33.4892 34.56 35.2392 31.53 38.5292 29.55C41.3192 27.88 42.6092 28.55 47.4392 27.06C50.5154 26.1224 53.4643 24.8092 56.2192 23.15Z" fill="#3E9581"/>
<path d="M56.2493 23.11C55.6445 26.1796 54.547 29.131 52.9993 31.85C51.4578 34.6359 49.1172 36.8964 46.2793 38.34C43.2793 39.48 40.3893 40.24 37.4693 41.29C34.5493 42.34 31.6693 43.35 28.7893 44.45L28.2793 44.64L28.4393 44.1C29.3614 41.1336 30.6657 38.2998 32.3193 35.67C33.0962 34.3094 33.9931 33.0209 34.9993 31.82C36.0464 30.61 37.299 29.5944 38.6993 28.82C40.1257 28.0973 41.6766 27.6527 43.2693 27.51C44.7703 27.2778 46.2537 26.9437 47.7093 26.51C50.6606 25.6596 53.5211 24.5208 56.2493 23.11ZM56.1893 23.19C53.6411 24.9274 50.8648 26.3037 47.9393 27.28C46.4637 27.7726 44.9571 28.1668 43.4293 28.46C41.9564 28.6323 40.5268 29.0693 39.2093 29.75C36.6512 31.3174 34.5481 33.5274 33.1093 36.16C32.3193 37.47 31.4993 38.76 30.8093 40.16C30.123 41.492 29.5186 42.8645 28.9993 44.27L28.6493 43.93C31.5793 42.93 34.5093 42.03 37.3993 40.93C38.8493 40.41 40.2893 39.86 41.7193 39.29C43.1493 38.72 44.6193 38.19 45.9593 37.56C48.6119 36.1235 50.832 34.0036 52.3893 31.42C53.938 28.8159 55.2115 26.0577 56.1893 23.19Z" fill="#231F20"/>
<path d="M56.2195 23.15C51.8195 27 47.0495 30.88 41.8995 34.78C37.3695 38.22 32.9495 41.34 28.6895 44.19C31.2595 43.33 34.9095 42.08 39.2595 40.47C46.2595 37.88 47.4195 37.2 48.1595 36.7C50.4095 35.18 54.3195 31.65 56.2195 23.15Z" fill="#1E6F5D"/>
<path d="M56.1892 23.2C54.2492 25.2 51.9992 27.15 49.8292 29.03C47.6592 30.91 45.3792 32.73 43.0392 34.44C40.6992 36.15 38.2292 37.66 35.8592 39.31C33.4892 40.96 31.1292 42.64 28.8592 44.39L28.6092 44C31.4892 42.89 34.3692 41.78 37.2692 40.72C40.1692 39.66 42.9992 38.5 45.8492 37.31C46.5421 37.032 47.211 36.6976 47.8492 36.31C48.4698 35.9025 49.0583 35.4478 49.6092 34.95C50.7346 33.9464 51.7201 32.7961 52.5392 31.53C54.1495 28.943 55.3788 26.1375 56.1892 23.2ZM56.2392 23.11C55.8128 26.218 54.7944 29.2155 53.2392 31.94C51.6678 34.7398 49.2434 36.9645 46.3192 38.29C43.4492 39.53 40.5492 40.56 37.6192 41.55C34.6892 42.54 31.7492 43.48 28.7992 44.42L27.1592 44.94L28.5892 43.94C30.9892 42.34 33.3525 40.6733 35.6792 38.94C38.0058 37.2067 40.3025 35.46 42.5692 33.7L49.3892 28.37C51.6592 26.67 53.8292 24.88 56.2392 23.11Z" fill="#231F20"/>
<path d="M1.12988 46.13C3.80988 55.71 7.99988 59.28 10.9999 60.81C11.7799 61.22 12.4299 61.46 18.9999 63.76L28.6999 67.16C27.9354 64.9213 26.9506 62.7641 25.7599 60.72C23.8599 57.49 22.1199 54.46 18.8199 52.48C16.0399 50.81 14.7399 51.48 9.91988 49.99C6.84181 49.071 3.88936 47.7745 1.12988 46.13Z" fill="#3E9581"/>
<path d="M1.15961 46.17C2.13979 49.053 3.42719 51.8223 4.99961 54.43C6.55691 57.0136 8.77698 59.1335 11.4296 60.57C12.7596 61.2 14.2396 61.73 15.6596 62.3C17.0796 62.87 18.5396 63.42 19.9896 63.94C22.8796 65.01 25.7996 65.94 28.7396 66.94L28.3896 67.29C27.8499 65.8656 27.2288 64.4733 26.5296 63.12C25.8396 61.78 25.0196 60.49 24.2196 59.18C22.7847 56.5478 20.685 54.3377 18.1296 52.77C16.8115 52.0907 15.3822 51.6538 13.9096 51.48C12.3803 51.1894 10.8732 50.7917 9.39961 50.29C6.47325 49.31 3.69938 47.9231 1.15961 46.17ZM1.09961 46.09C3.82681 47.5082 6.68734 48.6538 9.63961 49.51C11.0955 49.9426 12.5788 50.2767 14.0796 50.51C15.6713 50.6513 17.2219 51.0924 18.6496 51.81C20.0491 52.5856 21.3015 53.601 22.3496 54.81C23.3415 56.0116 24.2281 57.2964 24.9996 58.65C26.647 61.2831 27.9509 64.1161 28.8796 67.08L29.0396 67.62L28.5296 67.42C25.6496 66.33 22.7596 65.24 19.8396 64.26C16.9196 63.28 13.9796 62.46 11.0396 61.26C8.19509 59.8268 5.84945 57.5682 4.30961 54.78C2.77592 52.0763 1.69179 49.1414 1.09961 46.09Z" fill="#231F20"/>
<path d="M1.12988 46.13C5.52988 50 10.2999 53.86 15.4399 57.76C19.9699 61.19 24.4399 64.32 28.6599 67.16C26.0799 66.31 22.4399 65.06 18.0799 63.45C11.0799 60.85 9.91988 60.18 9.18988 59.68C6.92988 58.16 2.99988 54.63 1.12988 46.13Z" fill="#1E6F5D"/>
<path d="M1.09961 46.09C3.50961 47.86 5.68961 49.65 7.99961 51.42L14.8196 56.75C17.0929 58.5233 19.3863 60.2733 21.6996 62C24.0129 63.7267 26.3763 65.3933 28.7896 67L30.2296 68L28.5796 67.47C25.6396 66.54 22.6896 65.6 19.7596 64.61C16.8296 63.62 13.9296 62.61 11.0596 61.35C8.13638 60.0269 5.71448 57.8013 4.14961 55C2.56908 52.2539 1.53347 49.2286 1.09961 46.09ZM1.09961 46.17C1.93541 49.1101 3.18814 51.9152 4.81961 54.5C5.64488 55.7585 6.62975 56.9047 7.74961 57.91C8.30386 58.4111 8.89558 58.8691 9.51961 59.28C10.1555 59.6716 10.8248 60.0063 11.5196 60.28C14.3296 61.47 17.1996 62.61 20.0996 63.65C22.9996 64.69 25.8696 65.81 28.7496 66.92L28.5396 67.36C26.2329 65.6133 23.8996 63.92 21.5396 62.28C19.1696 60.62 16.6896 59.11 14.3496 57.41C12.0096 55.71 9.73961 53.86 7.50961 52C5.27961 50.14 3.09961 48.19 1.14961 46.17H1.09961Z" fill="#231F20"/>
</svg>
