<svg width="70" height="89" viewBox="0 0 70 89" fill="none" xmlns="http://www.w3.org/2000/svg">
<path d="M11.9909 84.2417L37.1582 37.8341L30.1679 34.0432L5.00069 80.4508L11.9909 84.2417Z" fill="white" stroke="#6D6E71" stroke-width="2.00808" stroke-miterlimit="10"/>
<path d="M39.338 56.9104C53.239 56.9104 64.508 45.6414 64.508 31.7404C64.508 17.8394 53.239 6.57043 39.338 6.57043C25.437 6.57043 14.168 17.8394 14.168 31.7404C14.168 45.6414 25.437 56.9104 39.338 56.9104Z" fill="#97999C"/>
<path d="M64.6574 31.7405C64.698 38.5244 62.2584 45.0894 57.7974 50.2005C55.5047 52.7942 52.6624 54.8439 49.4774 56.2005C46.2828 57.5956 42.8226 58.2781 39.3374 58.2005C35.8782 58.0774 32.4785 57.2648 29.3374 55.8105C26.2784 54.355 23.5046 52.3636 21.1474 49.9305C16.3904 45.0366 13.6059 38.5597 13.3274 31.7405C13.1945 28.2856 13.766 24.8399 15.0073 21.613C16.2485 18.3861 18.1335 15.4456 20.5474 12.9705C22.9916 10.4678 25.8988 8.46403 29.1074 7.07045C32.3364 5.6861 35.8158 4.98145 39.3289 5.00037C42.842 5.0193 46.3136 5.7614 49.5274 7.18045C52.701 8.59289 55.5348 10.6696 57.8374 13.2705C62.2854 18.3904 64.7106 24.9584 64.6574 31.7405ZM64.3574 31.7405C64.3419 28.4624 63.6116 25.2272 62.2174 22.2605C60.8272 19.3549 58.8607 16.7624 56.4374 14.6405C51.7138 10.4697 45.6289 8.16872 39.3274 8.17045C33.0682 8.19713 27.0594 10.6322 22.5474 14.9705C17.9844 19.4055 15.2843 25.4137 14.9974 31.7705C14.8673 34.9785 15.4018 38.1788 16.5674 41.1705C17.7546 44.1836 19.5679 46.9103 21.8874 49.1705C24.2139 51.3612 26.9558 53.0633 29.9513 54.1763C32.9468 55.2893 36.135 55.7906 39.3274 55.6505C45.6552 55.4517 51.716 53.0542 56.4674 48.8705C58.881 46.7302 60.8428 44.1293 62.2374 41.2205C63.6187 38.2512 64.3321 35.0152 64.3274 31.7405H64.3574Z" fill="#6D6E71"/>
<path d="M39.3377 51.6004C50.0576 51.6004 58.7477 42.9102 58.7477 32.1904C58.7477 21.4705 50.0576 12.7804 39.3377 12.7804C28.6179 12.7804 19.9277 21.4705 19.9277 32.1904C19.9277 42.9102 28.6179 51.6004 39.3377 51.6004Z" fill="white"/>
<path d="M53.1681 46.0204C49.4761 49.7708 44.5703 52.0854 39.3281 52.5504C36.6286 52.7417 33.9202 52.3319 31.3981 51.3504C28.868 50.3413 26.5909 48.7879 24.7281 46.8004C22.9118 44.8293 21.5228 42.504 20.6481 39.9704C19.8001 37.4801 19.394 34.8606 19.4481 32.2304C19.5337 26.9471 21.518 21.8711 25.0381 17.9304C26.8358 15.9068 29.0343 14.2788 31.4942 13.1496C33.9541 12.0203 36.6218 11.4145 39.3281 11.3704C42.0649 11.3142 44.7852 11.8073 47.3281 12.8204C49.8913 13.8416 52.2164 15.3803 54.1581 17.3404C56.0778 19.3085 57.578 21.6456 58.5681 24.2104C59.5293 26.7613 59.9152 29.4931 59.6981 32.2104C59.2288 37.4427 56.9143 42.3376 53.1681 46.0204V46.0204ZM52.9581 45.8104C54.7329 44.0193 56.0768 41.8478 56.8881 39.4604C57.676 37.1229 57.9722 34.6478 57.7581 32.1904C57.3682 27.4355 55.302 22.9736 51.9281 19.6004C48.5654 16.267 44.0611 14.3366 39.3281 14.2004C34.4962 14.1195 29.8088 15.8496 26.1881 19.0504C24.3503 20.6956 22.8843 22.7138 21.8881 24.9704C20.8696 27.2325 20.3672 29.6928 20.4174 32.1731C20.4676 34.6533 21.069 37.0914 22.1781 39.3104C23.2562 41.4682 24.7203 43.4102 26.4981 45.0404C30.0379 48.2744 34.5499 50.2438 39.3281 50.6404C41.7895 50.8514 44.2679 50.5518 46.6081 49.7604C49.0003 48.9494 51.1732 47.5977 52.9581 45.8104V45.8104Z" fill="#6D6E71"/>
<path d="M32.1283 36.3104C34.2767 36.3104 36.0183 34.5688 36.0183 32.4204C36.0183 30.272 34.2767 28.5304 32.1283 28.5304C29.9799 28.5304 28.2383 30.272 28.2383 32.4204C28.2383 34.5688 29.9799 36.3104 32.1283 36.3104Z" fill="white"/>
<path d="M36.0377 32.5205C36.0191 33.5701 35.6172 34.5767 34.9077 35.3505C34.5409 35.7445 34.0917 36.0527 33.5922 36.2532C33.0926 36.4537 32.555 36.5416 32.0177 36.5105C30.9622 36.4193 29.9778 35.9409 29.2541 35.1673C28.5303 34.3937 28.1184 33.3797 28.0977 32.3205C28.0971 31.7807 28.2057 31.2464 28.4171 30.7497C28.6285 30.2531 28.9382 29.8043 29.3277 29.4305C29.7085 29.0525 30.1615 28.755 30.6598 28.5557C31.158 28.3565 31.6912 28.2595 32.2277 28.2705C32.7692 28.2818 33.3019 28.4091 33.7901 28.6437C34.2783 28.8783 34.7105 29.2148 35.0577 29.6305C35.7242 30.443 36.0725 31.4702 36.0377 32.5205ZM35.9877 32.5205C35.9907 32.0198 35.888 31.524 35.6864 31.0657C35.4848 30.6073 35.1888 30.1967 34.8177 29.8605C34.1075 29.2046 33.1839 28.8281 32.2177 28.8005C31.2451 28.7831 30.3032 29.1413 29.588 29.8007C28.8728 30.46 28.4393 31.3697 28.3777 32.3405C28.3432 32.8372 28.4145 33.3357 28.5869 33.8028C28.7592 34.27 29.0288 34.6952 29.3777 35.0505C29.728 35.3955 30.1438 35.667 30.6006 35.849C31.0574 36.0311 31.546 36.12 32.0377 36.1105C33.0164 36.0954 33.9598 35.742 34.7077 35.1105C35.0919 34.7915 35.4045 34.3951 35.625 33.9471C35.8456 33.499 35.9692 33.0095 35.9877 32.5105V32.5205Z" fill="#231F20"/>
<path d="M32.167 33.9305C33.5257 33.9305 34.627 32.8291 34.627 31.4705C34.627 30.1119 33.5257 29.0105 32.167 29.0105C30.8084 29.0105 29.707 30.1119 29.707 31.4705C29.707 32.8291 30.8084 33.9305 32.167 33.9305Z" fill="#231F20" stroke="#231F20" stroke-width="0.75" stroke-miterlimit="10"/>
<path d="M26.0273 27.5704C27.5719 25.7247 29.7738 24.552 32.1673 24.3004" stroke="#231F20" stroke-miterlimit="10" stroke-linecap="round"/>
<path d="M46.7676 23.8305C47.9374 23.8034 49.1017 24.0003 50.1976 24.4105C51.3348 24.8427 52.3773 25.4913 53.2676 26.3205" stroke="#231F20" stroke-miterlimit="10" stroke-linecap="round"/>
<path d="M47.8373 36.3604C49.9857 36.3604 51.7273 34.6188 51.7273 32.4704C51.7273 30.3221 49.9857 28.5804 47.8373 28.5804C45.6889 28.5804 43.9473 30.3221 43.9473 32.4704C43.9473 34.6188 45.6889 36.3604 47.8373 36.3604Z" fill="white"/>
<path d="M51.7474 32.5604C51.7304 33.6115 51.3324 34.6207 50.6274 35.4004C50.2594 35.7928 49.81 36.0999 49.3108 36.3002C48.8116 36.5006 48.2746 36.5894 47.7374 36.5604C46.6812 36.4714 45.6955 35.9937 44.9713 35.2196C44.2472 34.4455 43.836 33.4303 43.8174 32.3704C43.8051 31.8335 43.9035 31.2998 44.1065 30.8026C44.3095 30.3054 44.6128 29.8553 44.9974 29.4804C45.383 29.0975 45.8425 28.7972 46.348 28.5978C46.8535 28.3983 47.3943 28.304 47.9374 28.3204C48.478 28.3312 49.0101 28.4571 49.4982 28.6899C49.9862 28.9228 50.4189 29.257 50.7674 29.6704C51.4364 30.4816 51.7851 31.5097 51.7474 32.5604V32.5604ZM51.6974 32.5604C51.7043 32.0601 51.6043 31.564 51.4043 31.1053C51.2043 30.6467 50.9088 30.2359 50.5374 29.9004C49.8248 29.2423 48.8972 28.8656 47.9274 28.8404C46.9624 28.8321 46.0299 29.1894 45.3174 29.8404C44.6017 30.5058 44.1626 31.4161 44.0874 32.3904C44.0509 32.8889 44.1212 33.3894 44.2936 33.8585C44.4661 34.3275 44.7367 34.7544 45.0874 35.1104C45.4368 35.4568 45.8524 35.7292 46.3095 35.9114C46.7665 36.0935 47.2556 36.1816 47.7474 36.1704C48.723 36.1547 49.663 35.8013 50.4074 35.1704C50.7962 34.8526 51.1124 34.4552 51.3349 34.0051C51.5574 33.5549 51.681 33.0623 51.6974 32.5604V32.5604Z" fill="#231F20"/>
<path d="M47.837 33.9305C49.1956 33.9305 50.297 32.8291 50.297 31.4705C50.297 30.1119 49.1956 29.0105 47.837 29.0105C46.4783 29.0105 45.377 30.1119 45.377 31.4705C45.377 32.8291 46.4783 33.9305 47.837 33.9305Z" fill="#231F20" stroke="#231F20" stroke-width="0.75" stroke-miterlimit="10"/>
<path d="M42.5948 36.7738C41.7079 37.5315 40.6835 38.1115 39.5774 38.482C38.4325 38.8901 37.2181 39.0674 36.0044 39.0035" stroke="#231F20" stroke-miterlimit="10" stroke-linecap="round"/>
</svg>
