<svg width="314" height="510" viewBox="0 0 314 510" fill="none" xmlns="http://www.w3.org/2000/svg">
<path d="M108.501 258.9L108.101 259.2C105.401 261 102.501 262.4 99.4005 263.5C89.9005 267 79.1005 267.3 69.5005 264C56.8005 259.7 46.2006 249.5 41.6006 236.9C23.5006 234.7 6.80055 220.5 3.70055 202.5C0.600549 184.7 12.8006 165 30.5006 161.6C28.8006 155.6 27.7006 149.3 27.0006 142.9C19.6006 73.7996 73.0005 11.2996 146.301 3.49962C219.601 -4.40038 285.101 45.1996 292.501 114.4C294.501 133.5 292.001 152 285.601 169.1C295.901 173.1 309.101 183.4 310.401 194.4C311.701 205.4 307.401 216.6 299.901 224.8C294.901 230.3 288.301 234.7 281.001 236C273.701 237.3 265.601 235.4 260.301 230.1C261.901 245.6 252.701 261.6 238.501 268C224.301 274.4 206.201 270.7 195.701 259.3L195.201 258.7C187.901 265.6 178.801 270.6 169.101 273.3C168.601 273.4 168.201 273.6 167.701 273.7C151.901 277.6 134.901 275.3 120.301 268.3C117.501 267 114.701 265.4 112.401 263.4C110.901 262 109.601 260.5 108.501 258.9Z" fill="#E191F2"/>
<path d="M238.6 267.999L234 280.399C223.3 289.099 212 297.199 200.2 304.599C180.1 302.199 159.3 296.999 140.9 289.099C150.3 283.699 159.5 278.099 169.2 273.299C178.9 270.699 188 265.599 195.3 258.699L195.8 259.299C206.3 270.699 224.4 274.399 238.6 267.999Z" fill="#F7B57B"/>
<path d="M233.9 280.3L224.2 306.1C216.4 306 208.3 305.5 200.1 304.5C211.9 297.1 223.2 289 233.9 280.3Z" fill="#F7B57B"/>
<path d="M224.301 306.1L211.901 339.1C204.301 343.8 196.401 348.2 188.101 352.4C170.801 350.9 153.901 345.7 138.001 338.5C136.901 338 135.801 337.5 134.701 337C157.501 328.6 179.501 317.6 200.101 304.6C208.301 305.6 216.401 306.1 224.301 306.1Z" fill="#F7B57B"/>
<path d="M211.9 339.1L206.4 353.6L204 352.7C198.7 353 193.3 352.8 188 352.4C196.4 348.3 204.3 343.8 211.9 339.1Z" fill="#F7B57B"/>
<path d="M206.4 353.7L197.3 378.1C186.7 384.1 175.7 390.4 164.4 396.4C147.7 394.1 132.7 388 118.9 378.1C142.2 372.5 166.1 363.5 188 352.5C193.3 353 198.7 353.1 204 352.8L206.4 353.7Z" fill="#F7B57B"/>
<path d="M197.3 378.1L189.9 397.9L188.3 397.3C180 397.8 172.1 397.5 164.5 396.5C175.7 390.5 186.7 384.1 197.3 378.1Z" fill="#F7B57B"/>
<path d="M189.901 397.9L163.601 468.2L163.001 468C162.901 468.1 162.901 468.1 162.801 468.2L162.001 467.5C151.701 466.9 141.601 463.6 133.001 458L131.401 453.2L133.001 452.7C151.501 449.3 162.401 440.4 175.001 426.4C158.901 425.1 143.101 420.6 128.701 413.3C140.701 408.6 152.601 402.8 164.401 396.5C172.001 397.6 179.901 397.8 188.201 397.3L189.901 397.9Z" fill="#F7B57B"/>
<path d="M140.8 289.1C159.3 296.9 180 302.2 200.1 304.6C179.5 317.6 157.5 328.6 134.7 337C117.6 328.9 104 320 88.9004 308.9C103.2 308 115.1 302.7 128.1 296C132.5 293.8 136.7 291.5 140.8 289.1Z" fill="#F7B57B"/>
<path d="M169.1 273.3C159.5 278.2 150.2 283.8 140.8 289.2C134.7 286.6 128.8 283.7 123.2 280.6C114.5 275.7 108.3 272 101.1 265L99.4004 263.6C102.4 262.5 105.3 261 108.1 259.3L108.5 259C109.6 260.6 110.9 262.1 112.4 263.4C114.7 265.5 117.5 267 120.3 268.3C134.9 275.3 152 277.6 167.7 273.7C168.1 273.5 168.6 273.4 169.1 273.3Z" fill="#F7B57B"/>
<path d="M188.101 352.5C166.201 363.5 142.301 372.5 119.001 378.1C113.301 374 107.801 369.3 102.501 363.9L102.301 364L97.3008 348.6L98.7008 348.1C110.901 345.1 122.901 341.4 134.801 337C135.901 337.5 137.001 338 138.101 338.5C153.801 345.8 170.801 350.9 188.101 352.5Z" fill="#F7B57B"/>
<path d="M164.4 396.499C152.7 402.699 140.7 408.599 128.7 413.299C125 411.399 121.4 409.299 117.9 407.099L116.4 407.599L107.6 380.699L108 380.599C111.6 379.899 115.2 379.099 118.9 378.199C132.8 387.999 147.7 394.099 164.4 396.499Z" fill="#F7B57B"/>
<path d="M163.5 468.2L149 507L141 482.5L142.7 482C151.7 479.1 156.5 475.2 162.8 468.2C162.9 468.1 162.9 468.1 163 468L163.5 468.2Z" fill="#F7B57B"/>
<path d="M162 467.399L162.8 468.099C156.5 475.099 151.7 478.999 142.7 481.899L141 482.399L133 457.899C141.7 463.499 151.8 466.899 162 467.399Z" fill="#F7B57B"/>
<path d="M175 426.399C162.3 440.399 151.5 449.299 133 452.699L131.4 453.199L119.4 416.599C122.5 415.599 125.6 414.399 128.7 413.199C143.1 420.499 159 425.099 175 426.399Z" fill="#F7B57B"/>
<path d="M140.8 289.1C136.6 291.5 132.4 293.8 128.2 296C115.2 302.6 103.2 307.9 88.9996 308.9C87.2996 307.6 85.4996 306.3 83.7996 305L83.0996 305.2L69.5996 264C79.1996 267.2 89.9996 267 99.4996 263.5L101.2 264.9C108.4 271.8 114.6 275.5 123.3 280.5C128.8 283.6 134.7 286.5 140.8 289.1Z" fill="#F7B57B"/>
<path d="M128.8 413.2C125.7 414.4 122.6 415.6 119.5 416.6L116.5 407.5L118 407C121.4 409.3 125.1 411.3 128.8 413.2Z" fill="#F7B57B"/>
<path d="M89 308.9C104.1 320 117.7 328.9 134.8 337C122.9 341.4 110.9 345.1 98.7 348.1L97.3 348.6L83 305.2L83.7 305C85.5 306.3 87.3 307.6 89 308.9Z" fill="#F7B57B"/>
<path d="M119.001 378.099C115.401 378.999 111.701 379.799 108.101 380.499L107.701 380.599L102.301 363.999L102.501 363.899C107.801 369.299 113.301 373.999 119.001 378.099Z" fill="#F7B57B"/>
<path d="M31.2005 161.6C31.0005 161.6 30.8006 161.7 30.6006 161.7C12.9006 165.2 0.800548 184.8 3.80055 202.6C6.90055 220.6 23.6005 234.7 41.7005 237C46.3005 249.6 56.9005 259.8 69.6005 264.1C79.2005 267.3 90.0005 267.1 99.5005 263.6C102.501 262.5 105.401 261 108.201 259.3" stroke="#231F20" stroke-width="5" stroke-miterlimit="10" stroke-linecap="round" stroke-linejoin="round"/>
<path d="M102.4 246.899C104.1 250.999 105.9 255.299 108.5 258.899C109.6 260.499 110.9 261.999 112.4 263.299C114.7 265.399 117.5 266.899 120.3 268.199C134.9 275.199 152 277.499 167.7 273.599C168.2 273.499 168.6 273.399 169.1 273.199C178.8 270.599 187.9 265.499 195.2 258.599C199.3 254.699 202.9 250.199 205.7 245.299" stroke="#231F20" stroke-width="5" stroke-miterlimit="10" stroke-linecap="round" stroke-linejoin="round"/>
<path d="M195.701 259.3C206.301 270.7 224.301 274.4 238.501 268C252.701 261.6 261.901 245.6 260.301 230.1C265.601 235.4 273.701 237.4 281.001 236C288.301 234.7 294.901 230.3 299.901 224.8C307.301 216.6 311.601 205.4 310.401 194.4C309.101 183.4 296.001 173.1 285.601 169.1" stroke="#231F20" stroke-width="5" stroke-miterlimit="10" stroke-linecap="round" stroke-linejoin="round"/>
<path d="M41.501 188.399C36.801 180.099 33.201 171.099 30.601 161.699C28.901 155.699 27.801 149.399 27.101 142.999C19.701 73.8992 73.101 11.3992 146.401 3.59923C219.701 -4.30077 285.201 45.2992 292.601 114.499C294.601 133.599 292.101 152.099 285.701 169.199C283.801 174.399 281.501 179.399 278.901 184.299" stroke="#231F20" stroke-width="5" stroke-miterlimit="10" stroke-linecap="round" stroke-linejoin="round"/>
<path d="M69.5996 263.999L82.9996 305.199L97.1996 348.599L102.2 363.999L107.7 380.599L116.5 407.499L119.5 416.599L131.4 453.199L133 457.999L141 482.499L149 506.999L163.5 468.199L189.9 397.899L197.3 378.099L206.4 353.699L211.9 339.099L224.3 306.099L233.9 280.299L238.6 267.999" stroke="#231F20" stroke-width="5" stroke-miterlimit="10" stroke-linecap="round" stroke-linejoin="round"/>
<path d="M101.1 264.899C108.3 271.799 114.5 275.499 123.2 280.499C128.7 283.699 134.6 286.599 140.8 289.099C159.3 296.899 180 302.199 200.1 304.599C208.3 305.599 216.4 306.099 224.2 306.199" stroke="#231F20" stroke-width="5" stroke-miterlimit="10" stroke-linecap="round" stroke-linejoin="round"/>
<path d="M83.7012 304.999C85.5012 306.299 87.2012 307.599 88.9012 308.899C104.001 319.999 117.601 328.899 134.701 336.999C135.801 337.499 136.901 337.999 138.001 338.499C153.801 345.799 170.801 350.899 188.101 352.399C193.401 352.899 198.801 352.999 204.101 352.699" stroke="#231F20" stroke-width="5" stroke-miterlimit="10" stroke-linecap="round" stroke-linejoin="round"/>
<path d="M102.4 363.899C107.7 369.299 113.2 373.999 118.9 378.099C132.7 387.999 147.7 394.099 164.4 396.399C172 397.499 179.9 397.699 188.2 397.199" stroke="#231F20" stroke-width="5" stroke-miterlimit="10" stroke-linecap="round" stroke-linejoin="round"/>
<path d="M117.9 406.999C121.4 409.299 125 411.299 128.7 413.199C143.1 420.499 158.9 425.099 175 426.299" stroke="#231F20" stroke-width="5" stroke-miterlimit="10" stroke-linecap="round" stroke-linejoin="round"/>
<path d="M133 457.999C141.6 463.599 151.7 466.899 162 467.499" stroke="#231F20" stroke-width="5" stroke-miterlimit="10" stroke-linecap="round" stroke-linejoin="round"/>
<path d="M86 308.999C87 308.999 88 308.899 89 308.899C103.3 307.999 115.2 302.699 128.2 295.999C132.5 293.799 136.7 291.499 140.8 289.099C150.2 283.699 159.4 278.099 169.1 273.299" stroke="#231F20" stroke-width="5" stroke-miterlimit="10" stroke-linecap="round" stroke-linejoin="round"/>
<path d="M98.7012 348.099C110.901 345.099 122.901 341.399 134.801 336.999C157.601 328.599 179.601 317.599 200.201 304.599C212.001 297.199 223.301 289.099 234.001 280.399" stroke="#231F20" stroke-width="5" stroke-miterlimit="10" stroke-linecap="round" stroke-linejoin="round"/>
<path d="M108.1 380.499C111.7 379.799 115.3 378.999 119 378.099C142.3 372.499 166.2 363.499 188.1 352.499C196.4 348.299 204.4 343.899 211.9 339.199" stroke="#231F20" stroke-width="5" stroke-miterlimit="10" stroke-linecap="round" stroke-linejoin="round"/>
<path d="M119.301 416.7C119.401 416.7 119.401 416.7 119.501 416.6C122.601 415.6 125.701 414.4 128.801 413.2C140.801 408.5 152.701 402.7 164.501 396.4C175.801 390.4 186.801 384 197.401 378.1" stroke="#231F20" stroke-width="5" stroke-miterlimit="10" stroke-linecap="round" stroke-linejoin="round"/>
<path d="M133 452.699C151.5 449.299 162.4 440.399 175 426.399" stroke="#231F20" stroke-width="5" stroke-miterlimit="10" stroke-linecap="round" stroke-linejoin="round"/>
<path d="M142.701 481.899C151.701 478.999 156.501 475.099 162.801 468.099C162.901 467.999 162.901 467.999 163.001 467.899" stroke="#231F20" stroke-width="5" stroke-miterlimit="10" stroke-linecap="round" stroke-linejoin="round"/>
<path d="M89.6992 106.5C103.099 113.8 117.699 118.8 132.699 121.2C121.199 126 110.299 132 100.099 139.2" stroke="#231F20" stroke-width="5" stroke-miterlimit="10" stroke-linecap="round" stroke-linejoin="round"/>
<path d="M211.1 109.1C203.2 115.9 193.6 120.6 183.4 122.9C195.3 125.6 206.6 131.2 215.9 139.2" stroke="#231F20" stroke-width="5" stroke-miterlimit="10" stroke-linecap="round" stroke-linejoin="round"/>
<path d="M136 145.1C139.9 152.8 145 161.3 153.5 162.9C159.3 164 165.3 161.3 169.2 156.9C173.1 152.5 175.1 146.7 176 140.9" stroke="#231F20" stroke-width="5" stroke-miterlimit="10" stroke-linecap="round" stroke-linejoin="round"/>
</svg>
