<svg width="496" height="496" viewBox="0 0 496 496" fill="none" xmlns="http://www.w3.org/2000/svg">
<path d="M493.2 250.8C493.2 322.8 456 387.1 407.1 432.6C388.4 450 374.1 458.4 350.7 469.4C318.6 484.5 282.1 494 244.2 494C171.7 494 106.4 468.7 60.9002 419.2C30.4002 386 13.9001 343.7 4.90015 297.7C1.90015 282.3 2.50015 264.3 2.50015 248C2.50015 110.5 106.7 2 244.2 2C381.7 2 493.2 113.4 493.2 250.8Z" fill="#CAD4ED" stroke="#231F20" stroke-width="4" stroke-miterlimit="10"/>
<g opacity="0.26">
<path opacity="0.26" d="M229.101 8.9997C175.601 26.5997 124.501 54.9997 87.5009 97.3997C50.5009 139.8 28.5009 197.3 36.2009 253.1C41.7009 292.8 61.5009 329.6 87.3009 360.3C113.101 391 144.801 416.1 177.301 439.7C193.101 451.1 209.401 462.4 227.901 468.4C256.001 477.5 286.901 473.5 314.501 463.2C342.101 452.9 367.001 436.6 391.701 420.4C403.101 412.9 414.501 405.4 424.601 396.2C434.001 387.6 442.201 377.5 451.901 369.3C453.501 376.9 448.501 384.3 443.601 390.3C395.801 449.2 324.001 489.3 248.301 493.5C172.601 497.7 94.6009 464.1 49.9009 402.9C37.2009 385.6 27.3009 366.4 19.5009 346.4C-7.1991 278 -7.3991 198.4 24.6009 132.3C56.6009 66.1997 121.601 15.5997 194.501 6.8997C204.301 5.6997 220.001 5.0997 229.101 8.9997Z" fill="#4768BA"/>
</g>
<path d="M112.602 94.4997C102.202 93.9997 91.7018 96.3998 82.3018 100.9C66.7018 108.5 53.9018 123.3 52.0018 140.5C50.1018 157.7 61.1018 176.5 78.0018 180.3C82.4018 181.3 87.0018 181.3 91.6018 180.8C107.302 179.3 122.702 172.1 132.602 159.8C142.502 147.5 146.102 129.9 140.102 115.3C136.802 107.4 121.002 96.4997 112.602 94.4997Z" fill="#E6ECFA"/>
<path d="M161.702 33.4998C176.202 24.6998 193.102 19.6998 210.102 19.1998C219.202 18.8998 228.202 19.8998 237.202 20.7998C248.602 21.9998 260.402 23.2998 270.402 28.8998C280.502 34.4998 288.502 45.3998 287.002 56.7998C285.502 67.9998 275.902 76.0998 266.302 81.9998C257.002 87.6998 246.902 92.4998 236.002 93.1998C224.802 93.9998 213.702 90.2998 203.302 85.8998C188.202 79.4998 173.802 71.2998 160.402 61.5998C156.302 58.5998 152.002 55.1998 150.402 50.2998C148.802 45.3998 156.702 34.3998 161.702 33.4998Z" fill="#E6ECFA"/>
<path d="M438.6 321.6C427.9 341.7 401.6 351.5 395.1 373.4C393.3 379.6 393.9 387.5 399.4 390.9C401.5 392.2 404 392.7 406.5 392.8C420.9 393.7 434.9 385.4 443.3 373.7C451.7 361.9 455.1 347.2 455.6 332.8C455.8 328.3 455.5 323.3 452.6 319.9C449.8 316.3 440.5 317.4 438.6 321.6Z" fill="#E6ECFA"/>
<path d="M218.702 130.5C214.002 139.6 203.502 143.9 196.002 150.9C187.402 158.9 183.002 172.4 188.302 182.8C193.102 192.2 204.802 196.8 215.102 195.1C225.502 193.4 234.402 186.2 240.102 177.4C247.002 166.9 249.802 153.9 248.002 141.5C247.002 134.4 243.502 126.6 236.502 124.7C229.802 122.9 224.202 126 218.702 130.5Z" fill="#E6ECFA"/>
<path d="M119 382.1C115.2 377.5 110.8 372.6 104.9 371.8C96.3003 370.6 88.8002 379.2 88.3002 387.9C87.8002 396.6 92.5003 404.6 97.9003 411.5C105.1 420.6 113.8 428.5 123.7 434.8C128 437.5 133 440 138 439.1C144.2 437.9 148.2 431.7 149.6 425.6C152.8 412 145.4 396.7 132.8 390.7C127.8 388.3 119.2 387.6 119 382.1Z" fill="#E6ECFA"/>
<path d="M65.5002 117.4C63.5002 126 61.4002 134.8 62.6002 143.6C63.8002 152.4 68.9002 161.1 77.2002 164.1C82.1002 165.8 87.4002 165.4 92.5002 164.5C107.2 162 121.2 156 133.2 147.2C134.3 154.2 130.9 161.4 125.8 166.4C120.7 171.4 114.1 174.4 107.4 176.9C100.2 179.5 92.7002 181.5 85.1002 181.2C77.5002 180.9 69.7002 178.2 64.6002 172.5C61.0002 168.5 54.9002 160 53.1002 154.9C51.2002 149.6 53.5002 147.6 53.1002 142C52.6002 133 56.1002 123.8 62.5002 117.5" fill="#CADCF2"/>
<path d="M196.401 151.1C194.101 156.9 192.201 163.1 192.801 169.3C193.401 175.5 197.401 181.7 203.501 183.2C209.001 184.6 214.701 181.9 219.601 178.8C226.801 174.3 233.701 168.6 236.801 160.7C239.101 155 239.201 148.4 242.501 143.2C243.001 142.5 243.501 141.7 244.401 141.5C246.401 141 247.601 143.7 247.801 145.7C249.401 159.5 246.201 174.1 237.201 184.6C228.201 195.1 212.801 200.5 199.801 195.8C197.501 195 195.201 193.8 193.301 192.2C191.301 190.5 189.901 188.3 188.701 186C182.601 174 185.701 158.1 195.901 149.3" fill="#CADCF2"/>
<path d="M193.5 78.8C200.3 78.8 207.2 78.9 214 78.9C226.3 78.9 239.3 78.8 249.7 72.3C256.4 68.2 261.6 61.3 262.8 53.5C264 45.7 260.9 37.2 254.3 32.8C252.1 31.3 249.2 29.6 249.5 27C249.9 24.1 253.7 23.5 256.6 23.8C266.7 24.8 276.9 28.5 283.6 36C290.4 43.5 292.9 55.2 288 64.1C286.2 67.3 283.5 70 280.6 72.3C273 78.4 265.5 88 256.3 91C236.5 97.4 211.6 95 194.1 83.9C193 83.2 191.9 82.4 191.5 81.1C191.1 79.9 192 78.2 193.3 78.3" fill="#CADCF2"/>
<path d="M395.601 373C403.101 382.7 418.601 383.1 428.801 376.3C439.001 369.5 444.601 357.6 447.301 345.6C448.701 339.7 449.501 333.4 452.601 328.2C454.701 327.7 455.901 330.6 456.001 332.8C456.601 345.3 451.701 356.6 445.001 368.1C442.101 373.1 436.701 381.9 430.301 386C423.901 390.2 415.001 390.9 407.401 392C403.901 392.5 400.101 392.6 396.901 390.9C391.101 387.8 390.101 378.5 395.001 374.3" fill="#CADCF2"/>
<path d="M90.9015 381.3C90.1015 387.3 93.0015 393.2 96.0015 398.4C100.002 405.4 104.502 412.3 110.402 417.8C116.302 423.3 123.902 427.3 132.002 427.6C133.702 427.7 135.402 427.6 136.902 426.8C139.902 425.2 140.902 421.4 140.902 418C140.802 414.3 139.802 410.6 140.702 407C140.902 406.2 141.302 405.4 141.902 404.9C144.502 402.8 147.602 406.3 148.502 409.3C151.202 418.2 149.802 428.2 144.902 436.1C144.002 437.5 142.902 438.9 141.502 439.7C139.002 441 135.902 440.3 133.202 439.3C114.602 432.6 97.0015 418.7 88.5015 400.8C85.9015 395.4 87.0015 387.1 90.0015 381.9" fill="#CADCF2"/>
<path d="M293.001 413C295.501 424 293.901 435.2 288.501 445C287.601 446.7 290.201 448.2 291.101 446.5C296.901 435.9 298.601 424 296.001 412.2C295.401 410.3 292.501 411.1 293.001 413Z" fill="#231F20"/>
<path d="M318.901 409.7C319.401 421.8 324.301 432.9 333.001 441.3C334.401 442.6 336.501 440.5 335.101 439.2C327.001 431.3 322.401 421 321.901 409.7C321.801 407.7 318.801 407.7 318.901 409.7Z" fill="#231F20"/>
<path d="M410.101 165.9C417.101 157.3 426.901 151.7 438.001 150.4C439.901 150.2 439.901 147.2 438.001 147.4C426.101 148.8 415.501 154.5 408.001 163.8C406.801 165.3 408.901 167.4 410.101 165.9Z" fill="#231F20"/>
<path d="M388.401 134.5C402.601 136.3 416.701 131.2 426.601 120.8C427.901 119.4 425.801 117.3 424.501 118.7C415.101 128.6 401.901 133.2 388.501 131.5C386.501 131.2 386.501 134.2 388.401 134.5Z" fill="#231F20"/>
<path d="M191.5 257.9C204.755 257.9 215.5 247.155 215.5 233.9C215.5 220.646 204.755 209.9 191.5 209.9C178.245 209.9 167.5 220.646 167.5 233.9C167.5 247.155 178.245 257.9 191.5 257.9Z" fill="#231F20"/>
<path d="M200.5 238.9C207.127 238.9 212.5 233.528 212.5 226.9C212.5 220.273 207.127 214.9 200.5 214.9C193.873 214.9 188.5 220.273 188.5 226.9C188.5 233.528 193.873 238.9 200.5 238.9Z" fill="white"/>
<path d="M311.201 257.9C324.456 257.9 335.201 247.155 335.201 233.9C335.201 220.646 324.456 209.9 311.201 209.9C297.946 209.9 287.201 220.646 287.201 233.9C287.201 247.155 297.946 257.9 311.201 257.9Z" fill="#231F20"/>
<path d="M315.244 240.023C321.566 242.655 328.911 239.457 331.649 232.879C334.387 226.302 331.481 218.837 325.159 216.205C318.836 213.573 311.491 216.771 308.753 223.349C306.016 229.926 308.921 237.392 315.244 240.023Z" fill="white"/>
<path d="M182.301 240.9C180.101 242.7 181.701 246.6 184.501 246.5C186.101 246.5 187.401 244.7 187.801 243.3C188.101 242.4 188.101 241.5 187.401 240.8C186.901 240.3 186.201 239.9 185.501 239.8C184.101 239.5 182.501 239.8 181.501 240.9C180.501 242 181.201 243.9 182.101 244.8C183.001 245.7 184.401 246.3 185.601 246C186.901 245.7 187.901 244.6 187.901 243.3C187.801 240.6 183.601 238.5 182.101 241.3C181.201 243 183.801 244.5 184.701 242.8C184.901 242.5 184.701 242.8 184.601 242.8C184.501 242.8 184.501 242.9 184.401 242.9C184.301 242.9 184.301 242.9 184.401 242.9C184.401 243 184.201 242.8 184.501 243C184.301 242.9 184.601 243.1 184.601 243.1C184.401 242.9 184.701 243.2 184.701 243.2C184.601 243 184.701 243.2 184.801 243.3C184.801 243.2 184.801 242.9 184.801 243C184.801 243.1 184.701 243 184.801 243C184.501 243.1 184.801 243 184.801 243C184.601 243 184.501 243 184.301 242.9C184.101 242.8 183.901 242.6 183.901 242.5C183.801 242.3 183.801 242.4 183.801 242.3C183.801 242.3 183.801 242.1 183.801 242.2C183.701 242.4 183.501 242.6 183.401 242.9C183.901 242.4 184.701 242.4 185.201 242.9C185.101 242.5 184.901 242.2 184.801 241.8C184.801 242.6 184.201 243.1 183.501 243.5C183.801 243.4 184.001 243.4 184.301 243.3C184.101 243.3 184.101 243.4 184.201 243.3C184.201 243.3 184.301 243.3 184.301 243.4C184.301 243.5 184.101 243.1 184.201 243.2C184.201 243.1 184.201 243 184.201 243.1C184.201 243 184.201 242.9 184.201 242.8C184.201 243 184.201 242.9 184.301 242.8C184.901 242.3 184.801 241.2 184.301 240.7C183.801 240.2 182.901 240.3 182.301 240.9Z" fill="white"/>
<path d="M302.1 244.7C301.8 245.6 301.8 246.5 302.2 247.4C302.6 248.2 303.4 249.3 304.4 249.3C306.4 249.3 307.8 247 307.9 245.3C307.9 244.7 307.4 244 306.8 243.9C304.3 243.5 302.2 245.5 302.6 248C302.7 248.6 303.4 249.1 304 249.1C306.6 248.9 308.1 245.6 306.1 243.7C304.2 241.9 300.3 243.7 300.9 246.4C301.4 248.6 304.2 249.2 306 248.3C308.2 247.1 308 244.2 306 242.9C305 242.3 303.7 242.1 302.6 242.6C302 242.9 301.3 243.4 301.1 244.1C300.9 244.9 300.8 245.9 300.7 246.8C300.6 247.6 300.9 248.4 301.7 248.6C302.4 248.8 303.4 248.4 303.5 247.6C303.6 247.2 303.6 246.7 303.7 246.3C303.7 246.1 303.8 245.8 303.8 245.6C303.8 245.5 303.8 245.4 303.8 245.3L303.7 245.4C303.6 245.3 303.7 245.6 303.6 245.4C303.6 245.4 303.6 245.4 303.7 245.4C303.8 245.4 303.9 245.4 304.1 245.5C304.2 245.5 304.3 245.7 304.4 245.7C304.4 245.9 304.4 245.6 304.4 245.6C304.4 245.6 304.2 245.7 304.4 245.6C304.5 245.6 304.2 245.7 304.2 245.7C304 245.8 303.8 245.7 303.6 245.6C303.8 245.6 303.5 245.7 303.6 245.6C303.6 245.5 303.7 246 303.7 245.9C303.8 246.2 303.6 246 303.8 246C303.9 246 304.1 245.9 304 245.9L303.9 245.8C303.9 245.8 303.8 246.1 303.8 246C303.8 246.2 303.6 246.1 303.8 246.1C304.3 246.5 304.8 246.8 305.2 247.2C305.2 247.1 305.5 246.7 305.7 246.7C305.3 246.2 305 245.7 304.6 245.3C304.6 245.8 304.1 246.2 303.7 246.4C304.1 246.5 304.5 246.5 304.9 246.6C304.5 246.4 304.6 246 304.8 245.6C305.1 244.8 304.5 244 303.8 243.8C303.1 243.5 302.4 244 302.1 244.7Z" fill="white"/>
<path d="M215.901 300C236.901 321.1 271.401 318.6 289.201 294.9C290.401 293.4 287.801 291.9 286.601 293.4C269.901 315.6 237.501 317.6 218.001 297.9C216.601 296.5 214.501 298.7 215.901 300Z" fill="#231F20"/>
<path d="M420.601 168.201C424.301 163.501 429.501 160.8 435.501 160.5C437.401 160.4 437.401 157.4 435.501 157.5C428.801 157.8 422.701 160.8 418.501 166C417.201 167.6 419.401 169.701 420.601 168.201Z" fill="#231F20"/>
<path d="M285.001 442.5C286.801 436.1 287.501 429.7 286.901 423.1C286.701 421.2 283.701 421.2 283.901 423.1C284.501 429.4 283.901 435.6 282.101 441.7C281.601 443.6 284.501 444.4 285.001 442.5Z" fill="#231F20"/>
<path opacity="0.71" d="M170.901 308.1C182.278 308.1 191.501 301.832 191.501 294.1C191.501 286.368 182.278 280.1 170.901 280.1C159.524 280.1 150.301 286.368 150.301 294.1C150.301 301.832 159.524 308.1 170.901 308.1Z" fill="#F488B9"/>
<path opacity="0.71" d="M327.202 308.1C338.579 308.1 347.802 301.832 347.802 294.1C347.802 286.368 338.579 280.1 327.202 280.1C315.825 280.1 306.602 286.368 306.602 294.1C306.602 301.832 315.825 308.1 327.202 308.1Z" fill="#F488B9"/>
</svg>
