<svg width="67" height="60" viewBox="0 0 67 60" fill="none" xmlns="http://www.w3.org/2000/svg">
<path d="M59.3913 7.67771C58.1366 5.83763 56.4302 4.35076 54.4357 3.35966C52.4413 2.36856 50.2256 1.90647 48.0013 2.01771C40.8413 2.01771 36.4213 7.44771 34.0613 12.3177C31.7513 7.36771 27.2813 2.01771 20.1513 2.01771C17.9219 1.90123 15.7002 2.36079 13.7 3.35212C11.6998 4.34345 9.98865 5.83315 8.73126 7.67771C4.87126 13.5377 5.51126 22.7777 8.12126 28.8877C13.1513 40.6277 32.8713 54.0177 33.5813 54.2577C33.9039 54.3772 34.2586 54.3772 34.5813 54.2577C35.2613 54.0177 55.0013 40.6277 60.0013 28.8877C62.6013 22.7777 63.2513 13.5377 59.3913 7.67771ZM57.0013 27.5777C52.8413 37.2777 37.7613 48.1677 34.1013 50.6777C30.4013 48.1377 15.3113 37.2477 11.1613 27.5777C9.00126 22.4177 8.30126 14.3777 11.4913 9.42771C12.4485 8.04129 13.7507 6.92841 15.2694 6.19889C16.7881 5.46937 18.4707 5.14842 20.1513 5.26771C29.4913 5.26771 32.4313 17.3977 32.4613 17.5177C32.551 17.874 32.7572 18.1902 33.047 18.4161C33.3369 18.6419 33.6938 18.7646 34.0613 18.7646C34.4287 18.7646 34.7857 18.6419 35.0755 18.4161C35.3653 18.1902 35.5715 17.874 35.6613 17.5177C35.6613 17.3977 38.6613 5.26771 47.9713 5.26771C49.6517 5.14943 51.334 5.47082 52.8525 6.20026C54.3709 6.92969 55.6733 8.04201 56.6313 9.42771C59.8213 14.3277 59.1713 22.4177 57.0013 27.5777Z" fill="#F26B6C"/>
<path d="M33.6309 15.1678C30.6609 6.89777 23.3709 2.29777 17.2709 3.50777C10.7009 4.80777 8.00088 12.3578 7.76088 12.9178C5.48088 19.5078 8.51088 25.6878 11.0009 30.5478C17.0009 42.2778 26.9109 48.8678 33.2409 52.1978C46.0909 44.4078 54.6109 36.1178 57.0009 30.8378C57.6334 29.4317 58.1909 27.993 58.6709 26.5278C59.7509 23.1478 60.8809 19.5278 60.3309 15.5278C60.1109 13.8978 59.3309 7.92777 54.4609 5.23777C50.4609 3.01777 46.0709 4.44777 44.4109 5.01777C37.3609 7.23777 34.2809 13.7178 33.6309 15.1678Z" fill="#F26B6C"/>
<path d="M25.5508 48.4477C30.3708 41.6277 33.7808 40.4477 36.0008 40.7377C37.7108 40.9177 38.1608 41.8477 39.7308 41.6677C44.2508 41.1777 46.8808 32.8477 47.3108 31.4177C48.8508 26.2677 47.6408 24.4777 49.7508 21.9777C51.8608 19.4777 53.7508 20.4777 55.9308 18.1277C59.7808 14.0177 57.7508 7.01768 58.8008 6.88768C59.5608 6.75768 61.2608 10.3677 61.8708 14.6677C63.0008 22.6677 59.7908 29.4777 57.9708 32.6677C57.5008 33.4677 55.8308 36.2677 50.7208 41.2877C45.6424 46.2372 40.0354 50.6134 34.0008 54.3377L25.5508 48.4477Z" fill="#F04D4E"/>
<path d="M55.3419 32.7578C55.3038 32.8416 55.2532 32.9191 55.1919 32.9878C50.8319 37.9878 51.2619 36.2478 51.7719 34.9878C52.7719 32.5678 56.5819 25.6378 57.9219 24.5078C59.0719 23.5578 58.0019 27.2378 55.3419 32.7578Z" fill="white"/>
<path d="M26.431 32.0177C28.5794 32.0177 30.321 30.2761 30.321 28.1277C30.321 25.9793 28.5794 24.2377 26.431 24.2377C24.2826 24.2377 22.541 25.9793 22.541 28.1277C22.541 30.2761 24.2826 32.0177 26.431 32.0177Z" fill="white"/>
<path d="M30.3412 28.2277C30.3157 29.2622 29.9181 30.2528 29.2212 31.0177C28.8545 31.4124 28.4056 31.7218 27.9062 31.9239C27.4069 32.1261 26.8692 32.2161 26.3312 32.1877C25.2791 32.097 24.2975 31.6214 23.5742 30.852C22.8509 30.0826 22.4368 29.0734 22.4112 28.0177C22.3988 27.4808 22.4973 26.9471 22.7003 26.4499C22.9033 25.9526 23.2066 25.5026 23.5912 25.1277C23.9821 24.7526 24.4451 24.4607 24.9522 24.2699C25.4593 24.0791 25.9999 23.9933 26.5412 24.0177C27.0814 24.0304 27.6129 24.1572 28.1007 24.3899C28.5884 24.6225 29.0214 24.9558 29.3712 25.3677C30.0305 26.172 30.3752 27.1883 30.3412 28.2277V28.2277ZM30.2912 28.2277C30.298 27.7274 30.1981 27.2313 29.9981 26.7726C29.798 26.314 29.5025 25.9032 29.1312 25.5677C28.4185 24.9096 27.4909 24.5329 26.5212 24.5077C25.5561 24.4994 24.6236 24.8567 23.9112 25.5077C23.2044 26.1631 22.7661 27.0576 22.6812 28.0177C22.6472 28.5159 22.7187 29.0157 22.891 29.4844C23.0633 29.9531 23.3326 30.3802 23.6812 30.7377C24.0297 31.0847 24.4454 31.3568 24.9028 31.5374C25.3602 31.7179 25.8497 31.8031 26.3412 31.7877C27.3173 31.7744 28.2581 31.4208 29.0012 30.7877C29.3857 30.4771 29.6996 30.0881 29.922 29.6467C30.1445 29.2053 30.2703 28.7216 30.2912 28.2277Z" fill="#231F20"/>
<path d="M25.6319 29.8778C26.9905 29.8778 28.0919 28.7764 28.0919 27.4178C28.0919 26.0591 26.9905 24.9578 25.6319 24.9578C24.2733 24.9578 23.1719 26.0591 23.1719 27.4178C23.1719 28.7764 24.2733 29.8778 25.6319 29.8778Z" fill="#231F20" stroke="#231F20" stroke-width="0.75" stroke-miterlimit="10"/>
<path d="M21.6621 21.7477C22.7007 21.1936 23.8333 20.8375 25.0021 20.6977C26.2094 20.5501 27.434 20.6488 28.6021 20.9877" stroke="#231F20" stroke-miterlimit="10" stroke-linecap="round"/>
<path d="M41.002 20.0177C42.1568 19.8273 43.3371 19.8544 44.482 20.0977C45.673 20.3478 46.8019 20.8341 47.802 21.5277" stroke="#231F20" stroke-miterlimit="10" stroke-linecap="round"/>
<path d="M32.2021 31.2078C32.1547 31.4686 32.1597 31.7363 32.2168 31.9952C32.2738 32.2542 32.3818 32.4992 32.5344 32.716C32.687 32.9328 32.8812 33.1171 33.1057 33.2582C33.3302 33.3993 33.5805 33.4943 33.8421 33.5378C34.1309 33.5431 34.4177 33.4876 34.6837 33.3748C34.9497 33.2621 35.1891 33.0947 35.3862 32.8834C35.5833 32.6722 35.7337 32.4219 35.8278 32.1487C35.9218 31.8755 35.9573 31.5856 35.9321 31.2978" stroke="#231F20" stroke-miterlimit="10" stroke-linecap="round"/>
<path d="M42.1517 32.0677C44.3001 32.0677 46.0417 30.3261 46.0417 28.1777C46.0417 26.0293 44.3001 24.2877 42.1517 24.2877C40.0033 24.2877 38.2617 26.0293 38.2617 28.1777C38.2617 30.3261 40.0033 32.0677 42.1517 32.0677Z" fill="white"/>
<path d="M46.062 28.2777C46.0453 29.3277 45.6431 30.3349 44.932 31.1077C44.5601 31.5066 44.1045 31.8184 43.598 32.0206C43.0914 32.2229 42.5465 32.3107 42.002 32.2777C40.9457 32.1842 39.9612 31.7036 39.2377 30.9284C38.5141 30.1532 38.1026 29.1379 38.082 28.0777C38.0817 27.5413 38.1894 27.0103 38.3985 26.5163C38.6076 26.0223 38.9139 25.5755 39.2992 25.2023C39.6845 24.8291 40.1409 24.5372 40.6413 24.344C41.1418 24.1508 41.6759 24.0602 42.212 24.0777C42.7523 24.0903 43.2838 24.2171 43.7715 24.4498C44.2593 24.6825 44.6923 25.0157 45.042 25.4277C45.7123 26.2249 46.0742 27.2362 46.062 28.2777V28.2777ZM46.012 28.2777C46.017 27.7767 45.9152 27.2803 45.7134 26.8217C45.5117 26.3631 45.2147 25.9526 44.842 25.6177C44.1305 24.9627 43.2085 24.5833 42.242 24.5477C41.2708 24.5352 40.3316 24.8951 39.6175 25.5534C38.9033 26.2118 38.4684 27.1186 38.402 28.0877C38.3663 28.5845 38.437 29.0833 38.6094 29.5507C38.7819 30.018 39.0521 30.4431 39.402 30.7977C39.7497 31.1464 40.165 31.4204 40.6224 31.6027C41.0799 31.785 41.5698 31.8718 42.062 31.8577C43.0408 31.8425 43.9841 31.4892 44.732 30.8577C45.1129 30.5408 45.4228 30.1474 45.6417 29.7029C45.8605 29.2584 45.9832 28.7728 46.002 28.2777H46.012Z" fill="#231F20"/>
<path d="M41.3409 29.9277C42.6995 29.9277 43.8009 28.8263 43.8009 27.4677C43.8009 26.1091 42.6995 25.0077 41.3409 25.0077C39.9822 25.0077 38.8809 26.1091 38.8809 27.4677C38.8809 28.8263 39.9822 29.9277 41.3409 29.9277Z" fill="#231F20" stroke="#231F20" stroke-width="0.75" stroke-miterlimit="10"/>
</svg>
