<svg width="592" height="600" viewBox="0 0 592 600" fill="none" xmlns="http://www.w3.org/2000/svg">
<path d="M291.858 291.854L293.145 291.13C296.541 297.542 299.853 303.901 303.111 310.344L301.878 310.984C278.572 340.493 250.47 368.977 214.097 378.374C195.402 383.223 175.774 382.628 156.557 380.637L155.813 380.877C152.941 371.955 149.793 363.096 147.197 354.113L149.233 352.206C176.148 357.18 204.374 354.105 229.592 343.444C254.81 332.782 276.744 314.596 291.858 291.854Z" fill="#C8AAFF"/>
<path d="M196.436 286.461C218.28 276.267 238.229 272.804 241.003 278.703C243.692 284.55 228.212 297.591 206.284 307.731C184.439 317.925 164.49 321.388 161.716 315.489C159.027 309.642 174.507 296.601 196.436 286.461Z" fill="#D8B850"/>
<path d="M360.573 253.819C360.489 253.765 360.489 253.765 360.543 253.681C357.369 254.393 354.423 250.634 355.237 247.48C355.967 244.272 359.275 242.225 362.511 241.789C365.747 241.352 368.985 242.22 372.193 242.949C383.127 245.495 394.206 247.066 405.343 247.61C409.455 247.847 413.98 247.99 417.123 250.691C420.319 253.307 420.685 259.457 416.892 260.961C415.244 261.693 413.211 261.353 411.679 262.276C411.105 262.623 410.646 263.16 410.187 263.698L411.846 261.079C404.498 257.728 396.388 256.143 388.32 256.359C384.854 256.413 381.342 256.911 377.836 256.466C372.029 256.103 366.417 253.377 360.573 253.819Z" fill="#C8AAFF"/>
<path d="M411.739 261.248L410.08 263.867C409.086 265.25 408.492 267.122 407.129 268.153C405.766 269.184 403.687 269.288 402.778 270.724C402.296 271.484 402.206 272.374 402.169 273.18C402.012 274.737 401.885 276.432 401.727 277.99L400.392 277.854C390.179 282.394 377.698 281.354 368.289 275.277C368.312 275.055 368.472 274.801 368.495 274.579C368.799 273.351 369.188 272.177 368.962 270.85C368.644 269.11 367.253 267.756 366.031 266.508C362.925 263.002 360.906 258.527 360.436 253.85L360.52 253.903C366.363 253.461 371.976 256.187 377.76 256.773C381.235 257.08 384.778 256.72 388.244 256.666C396.281 256.311 404.392 257.897 411.739 261.248Z" fill="#FFC900"/>
<path d="M390.957 455.351L391.54 455.365C391.371 465.911 391.593 476.587 392.091 487.201L378.377 504.556C358.357 525.138 333.449 540.731 306.966 551.893C291.005 558.592 274.235 563.951 256.942 564.717C238.567 565.508 220.296 561.275 202.44 556.95L201.465 556.806C199.66 548.442 197.909 539.994 196.104 531.63C231.524 539.623 273.087 536.235 306.519 522.136C339.952 508.036 369.053 484.328 390.957 455.351Z" fill="#C8AAFF"/>
<path d="M239.719 259.424C236.149 253.848 231.713 249.263 225.329 247.942C221.285 247.038 217.084 247.692 212.967 248.399C192.626 251.733 172.103 255.542 153.531 264.494C134.959 273.447 118.44 288.315 111.878 307.833C107.183 321.787 107.898 336.917 108.743 351.657C109.56 367.562 111.108 385.114 122.575 396.165C133.589 406.81 150.488 408.162 164.239 414.858C162.856 403.211 159.511 391.859 155.867 380.792L156.61 380.553C175.827 382.544 195.455 383.139 214.151 378.289C250.523 368.893 278.679 340.324 301.931 310.899L303.165 310.26C314.426 332.662 324.921 355.526 334.428 378.829L335.211 379.088C345.295 350.082 354.766 320.925 363.507 291.424L364.513 291.706C375.155 297.144 387.835 298.428 399.271 295.136L400.161 295.226C398.795 312.708 397.736 330.266 398.257 347.76C398.491 356.549 399.085 365.329 398.567 373.997C398.158 380.249 397.167 386.486 396.313 392.693C393.497 413.399 391.878 434.272 391.562 455.142L390.979 455.128C369.075 484.105 339.974 507.813 306.542 521.913C273.025 535.959 231.547 539.399 196.126 531.407C195.282 527.321 194.352 523.181 193.094 519.188C191.187 513.601 188.399 508.284 186.355 502.728C185.614 500.72 185.012 498.681 184.409 496.643L171.895 451.549C167.933 445.843 162.492 440.977 156.663 437.285C144.16 429.366 129.578 425.103 117.396 416.677C100.874 405.384 89.7681 387.223 84.7107 367.922C79.5688 348.567 80.0618 328.165 83.2329 308.393C85.4437 294.997 89.4398 280.838 99.6904 271.942C104.368 267.921 109.992 265.209 115.415 262.252C124.072 257.555 132.182 252.039 140.755 247.288C171.343 230.203 206.913 222.074 241.891 224.223C245.78 224.437 249.784 224.843 253.186 226.76C257.179 229.053 259.826 233.097 262.304 237.033C273.233 254.727 283.588 272.767 293.421 291.068L292.134 291.792C277.02 314.535 255.086 332.72 229.952 343.435C204.819 354.15 176.509 357.171 149.593 352.198L147.557 354.104C144.535 343.55 142.426 332.863 142.471 321.765C140.734 316.285 142.424 310.253 145.643 305.544C148.861 300.836 153.494 297.259 158.135 294.043C181.691 277.595 208.779 266.224 237.092 260.956L239.719 259.424ZM241.003 278.703C238.314 272.856 218.365 276.32 196.436 286.46C174.507 296.601 159.027 309.642 161.717 315.488C164.406 321.334 184.355 317.871 206.284 307.73C228.212 297.59 243.692 284.549 241.003 278.703Z" fill="#FFC900"/>
<path d="M400.392 277.855L401.727 277.99C401.226 283.828 400.64 289.612 400.277 295.418L399.387 295.328C387.951 298.62 375.27 297.336 364.628 291.898L363.623 291.616C365.245 286.252 366.836 280.749 368.374 275.331C377.698 281.355 390.179 282.394 400.392 277.855Z" fill="#C8AAFF"/>
<path d="M253.982 293.907C231.882 313.29 204.707 326.855 175.881 332.746C169.503 334.033 162.978 334.99 156.648 333.585C150.317 332.179 144.31 328.02 142.334 321.796C140.596 316.316 142.286 310.284 145.505 305.576C148.723 300.868 153.356 297.291 157.997 294.075C181.553 277.627 208.641 266.256 236.954 260.987" stroke="black" stroke-width="4" stroke-miterlimit="10" stroke-linecap="round" stroke-linejoin="round"/>
<path d="M245.543 271.161C243.87 267.261 241.997 263.116 239.719 259.424C236.149 253.848 231.713 249.264 225.329 247.943C221.285 247.039 217.084 247.692 212.967 248.399C192.626 251.733 172.103 255.543 153.531 264.495C134.959 273.447 118.44 288.315 111.878 307.833C107.183 321.787 107.898 336.918 108.743 351.657C109.56 367.562 111.108 385.115 122.575 396.165C133.589 406.81 150.488 408.162 164.239 414.859C162.856 403.211 159.511 391.86 155.867 380.793C152.994 371.871 149.846 363.012 147.25 354.029C144.228 343.474 142.119 332.787 142.164 321.689" stroke="black" stroke-width="4" stroke-miterlimit="10" stroke-linecap="round" stroke-linejoin="round"/>
<path d="M202.409 556.811C220.319 561.052 238.536 565.37 256.911 564.579C274.204 563.813 291.005 558.592 306.936 551.755C333.418 540.592 358.326 525 378.346 504.417L392.06 487.062C391.562 476.448 391.371 465.911 391.509 455.227C391.824 434.357 393.359 413.431 396.26 392.778C397.113 386.571 398.105 380.334 398.513 374.082C399.085 365.33 398.491 356.549 398.204 347.845C397.736 330.267 398.742 312.793 400.108 295.311C400.609 289.473 401.057 283.72 401.558 277.882C401.716 276.325 401.843 274.63 402.001 273.073C402.091 272.183 402.181 271.293 402.609 270.617C403.603 269.234 405.597 269.077 406.96 268.046C408.407 267.069 409.001 265.196 409.911 263.76C410.285 263.169 410.745 262.631 411.403 262.338C412.935 261.414 414.884 261.701 416.616 261.023C420.463 259.435 420.043 253.369 416.847 250.753C413.651 248.136 409.179 247.908 405.068 247.672C393.93 247.128 382.767 245.503 371.917 243.011C368.709 242.281 365.471 241.414 362.235 241.85C359 242.287 355.775 244.388 354.961 247.542C354.232 250.749 357.177 254.509 360.267 253.743L360.298 253.881C360.768 258.558 362.787 263.033 365.893 266.539C367.062 267.871 368.506 269.141 368.825 270.881C369.019 272.07 368.661 273.382 368.357 274.61C368.334 274.832 368.174 275.086 368.151 275.308C366.614 280.726 364.992 286.091 363.401 291.593C354.628 320.956 345.188 350.252 335.104 379.257C335.028 379.564 334.952 379.871 334.738 380.209" stroke="black" stroke-width="4" stroke-miterlimit="10" stroke-linecap="round" stroke-linejoin="round"/>
<path d="M201.381 556.752C199.576 548.388 197.824 539.94 196.019 531.576C195.175 527.49 194.245 523.351 192.987 519.357C191.08 513.77 188.292 508.454 186.248 502.898C185.507 500.89 184.905 498.851 184.302 496.812L171.788 451.718C167.826 446.013 162.385 441.147 156.556 437.455C144.053 429.536 129.471 425.272 117.289 416.846C100.767 405.554 89.6611 387.393 84.6037 368.091C79.4618 348.737 79.9548 328.334 83.1259 308.563C85.3367 295.167 89.3328 281.007 99.5834 272.112C104.261 268.09 109.885 265.379 115.308 262.422C123.965 257.725 132.075 252.208 140.648 247.457C171.236 230.373 206.806 222.243 241.784 224.392C245.673 224.606 249.677 225.012 253.079 226.93C257.072 229.222 259.719 233.266 262.197 237.203C273.126 254.896 283.481 272.936 293.314 291.238C296.71 297.65 300.022 304.009 303.28 310.452C314.541 332.854 325.036 355.718 334.543 379.021" stroke="black" stroke-width="4" stroke-miterlimit="10" stroke-linecap="round" stroke-linejoin="round"/>
<path d="M156.641 380.691C175.858 382.683 195.486 383.277 214.182 378.428C250.554 369.031 278.71 340.463 301.962 311.038" stroke="black" stroke-width="4" stroke-miterlimit="10" stroke-linecap="round" stroke-linejoin="round"/>
<path d="M149.371 352.176C176.286 357.149 204.512 354.074 229.73 343.413C254.948 332.752 276.744 314.597 291.912 291.77" stroke="black" stroke-width="4" stroke-miterlimit="10" stroke-linecap="round" stroke-linejoin="round"/>
<path d="M196.019 531.576C231.44 539.569 273.002 536.181 306.434 522.082C339.951 508.036 369.053 484.327 390.872 455.297" stroke="black" stroke-width="4" stroke-miterlimit="10" stroke-linecap="round" stroke-linejoin="round"/>
<path d="M364.544 291.844C375.186 297.282 387.866 298.566 399.303 295.274" stroke="black" stroke-width="4" stroke-miterlimit="10" stroke-linecap="round" stroke-linejoin="round"/>
<path d="M368.12 275.17C368.205 275.223 368.289 275.277 368.289 275.277C377.698 281.354 390.094 282.34 400.392 277.854" stroke="black" stroke-width="4" stroke-miterlimit="10" stroke-linecap="round" stroke-linejoin="round"/>
<path d="M241.003 278.703C243.692 284.55 228.212 297.591 206.284 307.731C184.439 317.925 164.49 321.388 161.716 315.489C159.027 309.642 174.507 296.601 196.436 286.461C218.365 276.321 238.314 272.857 241.003 278.703Z" stroke="black" stroke-width="4" stroke-miterlimit="10" stroke-linecap="round" stroke-linejoin="round"/>
<path d="M360.574 253.818C366.417 253.376 372.029 256.102 377.814 256.688C381.289 256.995 384.831 256.635 388.298 256.581C396.366 256.364 404.423 258.035 411.823 261.301" stroke="black" stroke-width="3" stroke-miterlimit="10" stroke-linecap="round" stroke-linejoin="round"/>
<path d="M385.457 219.39C386.898 212.254 388.532 205.003 392.353 198.782C393.905 196.332 395.764 193.958 398.399 192.787C401.035 191.615 404.395 191.731 406.386 193.82C408.377 195.91 408.484 199.292 407.27 201.956C406.056 204.62 403.829 206.642 401.624 208.441C396.67 212.524 391.263 216.202 385.564 219.221" fill="#2AD6FF"/>
<path d="M385.457 219.39C386.898 212.254 388.532 205.003 392.353 198.782C393.905 196.332 395.764 193.958 398.399 192.787C401.035 191.615 404.395 191.731 406.386 193.82C408.377 195.91 408.484 199.292 407.27 201.956C406.056 204.62 403.829 206.642 401.624 208.441C396.67 212.524 391.263 216.202 385.564 219.221" stroke="#231F20" stroke-width="4" stroke-miterlimit="10" stroke-linecap="round" stroke-linejoin="round"/>
<path d="M447.183 180.241C452.088 175.299 457.647 171.008 463.583 167.429C466.977 165.435 470.677 163.517 474.597 163.869C478.517 164.221 482.344 167.71 481.685 171.554C481.102 175.091 477.486 177.062 474.13 178.251C465.408 181.368 455.938 182.117 446.831 180.61" fill="#2AD6FF"/>
<path d="M447.183 180.241C452.088 175.299 457.647 171.008 463.583 167.429C466.977 165.435 470.677 163.517 474.597 163.869C478.517 164.221 482.344 167.71 481.685 171.554C481.102 175.091 477.486 177.062 474.13 178.251C465.408 181.368 455.938 182.117 446.831 180.61" stroke="#231F20" stroke-width="4" stroke-miterlimit="10" stroke-linecap="round" stroke-linejoin="round"/>
<path d="M459.299 222.598C467.666 229.199 476.491 235.262 485.638 240.818C487.665 242.102 489.746 243.302 492.086 243.719C494.427 244.135 497.026 243.769 498.732 242.009C501.602 238.974 499.927 233.77 496.998 230.731C493.131 226.743 487.651 224.93 482.211 223.615C474.568 221.852 466.621 221.316 458.922 221.885" fill="#2AD6FF"/>
<path d="M459.299 222.598C467.666 229.199 476.491 235.262 485.638 240.818C487.665 242.102 489.746 243.302 492.086 243.719C494.427 244.135 497.026 243.769 498.732 242.009C501.602 238.974 499.927 233.77 496.998 230.731C493.131 226.743 487.651 224.93 482.211 223.615C474.568 221.852 466.621 221.316 458.922 221.885" stroke="#231F20" stroke-width="4" stroke-miterlimit="10" stroke-linecap="round" stroke-linejoin="round"/>
<path d="M524.334 192.056C532.813 197.544 541.292 203.033 549.772 208.521C552.39 210.18 555.539 211.937 558.428 210.926C559.692 210.425 560.779 209.456 561.644 208.465C564.835 204.923 566.955 199.519 564.638 195.328C563.275 192.808 560.687 191.287 558.054 190.211C546.899 185.396 533.517 186.153 522.839 192.174" fill="#2AD6FF"/>
<path d="M524.334 192.056C532.813 197.544 541.292 203.033 549.772 208.521C552.39 210.18 555.539 211.937 558.428 210.926C559.692 210.425 560.779 209.456 561.644 208.465C564.835 204.923 566.955 199.519 564.638 195.328C563.275 192.808 560.687 191.287 558.054 190.211C546.899 185.396 533.517 186.153 522.839 192.174" stroke="#231F20" stroke-width="4" stroke-miterlimit="10" stroke-linecap="round" stroke-linejoin="round"/>
<path d="M450.306 131.203C456.045 125.132 462.367 119.074 470.385 116.695C471.734 116.247 473.251 115.906 474.702 116.233C477.994 117.016 479.621 121.361 478.309 124.555C476.997 127.748 473.657 129.657 470.345 130.401C467.033 131.144 463.527 130.699 460.083 130.53C456.639 130.361 453.119 130.499 450.047 131.986" fill="#2AD6FF"/>
<path d="M450.306 131.203C456.045 125.132 462.367 119.074 470.385 116.695C471.734 116.247 473.251 115.906 474.702 116.233C477.994 117.016 479.621 121.361 478.309 124.555C476.997 127.748 473.657 129.657 470.345 130.401C467.033 131.144 463.527 130.699 460.083 130.53C456.639 130.361 453.119 130.499 450.047 131.986" stroke="#231F20" stroke-width="4" stroke-miterlimit="10" stroke-linecap="round" stroke-linejoin="round"/>
<path d="M511.282 139.4C516.621 136.39 522.853 134.774 528.959 134.853C531.873 134.923 535.019 135.377 537.362 137.097C539.705 138.818 541.169 142.113 540.04 144.83C538.986 147.241 536.244 148.581 533.582 148.671C530.921 148.761 528.373 147.739 525.962 146.686C520.834 144.503 515.867 142.067 511.06 139.378" fill="#2AD6FF"/>
<path d="M511.282 139.4C516.621 136.39 522.853 134.774 528.959 134.853C531.873 134.923 535.019 135.377 537.362 137.097C539.705 138.818 541.169 142.113 540.04 144.83C538.986 147.241 536.244 148.581 533.582 148.671C530.921 148.761 528.373 147.739 525.962 146.686C520.834 144.503 515.867 142.067 511.06 139.378" stroke="#231F20" stroke-width="4" stroke-miterlimit="10" stroke-linecap="round" stroke-linejoin="round"/>
<g opacity="0.31">
<path opacity="0.31" d="M148.858 335.043C169.465 405.859 181.534 479.316 208.142 548.132C208.79 549.726 209.438 551.32 210.522 552.599C211.775 553.984 213.487 554.832 215.222 555.457C222.645 558.501 230.8 559.642 238.882 558.842C217.487 485.16 196.038 411.562 174.642 337.879C166.684 339.231 158.407 338.842 150.534 336.696" fill="white"/>
</g>
<g opacity="0.31">
<path opacity="0.31" d="M338.463 390.026C348.573 358.551 358.737 326.991 368.847 295.516C372.206 284.979 375.594 273.275 370.948 263.23C368.875 258.84 365.338 254.706 365.643 249.927C365.71 249.26 365.831 248.508 366.237 248.054C366.941 247.316 368.022 247.291 368.997 247.435C374.941 247.767 382.1 248.987 384.091 254.627C384.716 256.444 384.735 258.468 384.586 260.386C381.922 312.438 350.477 359.283 345.396 411.225C341.944 403.594 338.46 395.824 335.008 388.192" fill="white"/>
</g>
</svg>
