<svg width="35" height="57" viewBox="0 0 35 57" fill="none" xmlns="http://www.w3.org/2000/svg">
<path d="M14.2397 54.07C10.9997 50 -0.510278 34.5 3.32972 17.07C4.22972 13 5.92972 5.25998 12.6797 1.87998C18.6797 -1.12002 27.1497 0.109984 31.3797 4.98998C34.1797 8.22998 34.4597 12.29 34.4897 15.51C34.5797 22.44 33.6997 35.23 26.6997 52.9C25.8578 53.8309 24.8386 54.5845 23.702 55.1168C22.5653 55.6491 21.3338 55.9493 20.0797 56C17.9693 56.0457 15.9073 55.3643 14.2397 54.07Z" fill="#3A7867"/>
<path d="M14.2004 54.11C12.5259 52.0212 10.9829 49.8303 9.58038 47.55C8.16106 45.2717 6.89171 42.9034 5.78038 40.46C3.50444 35.5498 2.2718 30.2209 2.16038 24.81C2.14224 23.4743 2.20234 22.1387 2.34038 20.81C2.50038 19.47 2.80038 18.14 3.04038 16.81C3.59751 14.1593 4.45993 11.5821 5.61038 9.12999C6.77324 6.67751 8.51702 4.54585 10.6904 2.91999C12.9022 1.34399 15.495 0.387671 18.2004 0.149993C20.9085 -0.140903 23.6472 0.201432 26.2004 1.14999C27.4774 1.60353 28.6882 2.2257 29.8004 2.99999C30.9115 3.83359 31.8748 4.84766 32.6504 5.99999C34.0887 8.35798 34.8691 11.0582 34.9104 13.82C35.029 16.5099 34.9922 19.2043 34.8004 21.89C34.3899 27.2515 33.5031 32.5658 32.1504 37.77C30.7775 42.9652 29.033 48.0549 26.9304 53C25.3078 54.7182 23.1138 55.785 20.7604 56C18.4129 56.2274 16.067 55.5516 14.2004 54.11ZM14.2704 54.04C15.1732 54.7215 16.1886 55.2394 17.2704 55.57C18.3669 55.8886 19.5149 55.9905 20.6504 55.87C22.9144 55.5922 24.9933 54.4796 26.4804 52.75V52.82C30.1004 42.82 32.9504 32.44 33.7804 21.82C33.9968 19.1759 34.0635 16.5216 33.9804 13.87C33.9701 11.2585 33.2808 8.69464 31.9804 6.42999C31.2655 5.35187 30.3885 4.39055 29.3804 3.57999C28.3443 2.7922 27.2076 2.14647 26.0004 1.65999C23.5374 0.682473 20.8805 0.292159 18.2404 0.519993C16.9196 0.625776 15.6184 0.904837 14.3704 1.34999C13.1179 1.77508 11.9377 2.38881 10.8704 3.16999C8.76008 4.78229 7.08605 6.89631 6.00038 9.31999C4.94936 11.7567 4.18426 14.3071 3.72038 16.92C3.52038 18.23 3.27038 19.53 3.16038 20.84C3.03029 22.1691 2.98687 23.5053 3.03038 24.84C3.03038 25.49 3.03038 26.16 3.10038 26.84L3.31038 28.84C3.36721 29.5113 3.46069 30.1789 3.59038 30.84C3.71038 31.49 3.81038 32.15 3.95038 32.79C4.55095 35.3751 5.33288 37.9147 6.29038 40.39C7.29142 42.8589 8.45738 45.2576 9.78038 47.57C11.1397 49.806 12.6394 51.9537 14.2704 54V54.04Z" fill="#231F20"/>
<path d="M26.2 16.5C23.1 7.65002 15.07 4.20002 16.6 1.60002C18.13 -0.999982 26.94 -0.179983 31.38 4.83002C34.28 8.11002 34.49 12.32 34.49 15.35C34.49 29.24 30.11 43.64 26.7 52.9C25.9286 53.8101 24.9702 54.5434 23.89 55.05C22.41 55.73 19.89 56.33 18.94 55.68C15.23 53.24 32 33 26.2 16.5Z" fill="#1E6F5D"/>
<path d="M26.1704 16.51C24.9351 13.209 23.0009 10.214 20.5004 7.73C19.3104 6.44 18.0004 5.28 16.8904 3.86C16.6127 3.49128 16.4059 3.07421 16.2804 2.63C16.2251 2.39038 16.2299 2.14079 16.2944 1.90349C16.359 1.66618 16.4813 1.44855 16.6504 1.27C17.3087 0.613634 18.1749 0.207011 19.1004 0.120001C20.8785 -0.111743 22.6852 0.0209514 24.4104 0.510001C26.1375 0.966488 27.7743 1.71384 29.2504 2.72C30.7342 3.72913 31.9687 5.06283 32.8604 6.62C33.7024 8.1908 34.2354 9.90848 34.4304 11.68C34.6218 13.4465 34.672 15.2255 34.5804 17C34.5804 18.76 34.4104 20.52 34.2404 22.27C33.9062 25.7641 33.3922 29.2387 32.7004 32.68C31.2903 39.5887 29.3615 46.3812 26.9304 53C26.2419 53.8178 25.4035 54.4966 24.4604 55C23.5181 55.4864 22.5061 55.8237 21.4604 56C20.9316 56.1122 20.3896 56.1492 19.8504 56.11C19.5626 56.1316 19.2733 56.0942 19.0004 56C18.856 55.9335 18.7267 55.8382 18.6204 55.72C18.5004 55.6135 18.4078 55.4798 18.3504 55.33C18.1575 54.791 18.1228 54.2081 18.2504 53.65C18.3364 53.1255 18.4703 52.61 18.6504 52.11C19.3104 50.11 20.1804 48.23 21.0004 46.33C21.8204 44.43 22.6604 42.53 23.4404 40.62C25.0563 36.8135 26.2436 32.8391 26.9804 28.77C27.7315 24.6794 27.4532 20.4662 26.1704 16.51ZM26.1704 16.51C27.4602 20.4798 27.7825 24.7004 27.1104 28.82C26.4601 32.9336 25.3429 36.9596 23.7804 40.82C22.3304 44.71 20.4004 48.42 19.0604 52.3C18.8953 52.7758 18.7682 53.264 18.6804 53.76C18.5723 54.2133 18.5931 54.6879 18.7404 55.13C18.8441 55.3185 18.9981 55.4744 19.1853 55.5803C19.3725 55.6863 19.5855 55.7381 19.8004 55.73C20.2927 55.7609 20.7869 55.7272 21.2704 55.63C22.2672 55.437 23.2306 55.1001 24.1304 54.63C25.021 54.1507 25.8173 53.5137 26.4804 52.75L26.4304 52.82C28.9297 46.2485 30.9352 39.4998 32.4304 32.63C34.0143 25.7803 34.5837 18.7351 34.1204 11.72C33.9097 9.9903 33.37 8.31688 32.5304 6.79C31.6537 5.29095 30.4464 4.01179 29.0004 3.05C27.5584 2.0902 25.9666 1.37713 24.2904 0.940001C22.6275 0.449072 20.8819 0.302752 19.1604 0.510001C18.3237 0.586537 17.536 0.938202 16.9204 1.51C16.7805 1.64855 16.6778 1.82017 16.6219 2.00896C16.566 2.19775 16.5586 2.3976 16.6004 2.59C16.6972 2.99615 16.8777 3.37762 17.1304 3.71C18.1304 5.11 19.4704 6.31 20.6304 7.63C23.0832 10.1675 24.9862 13.1837 26.2204 16.49L26.1704 16.51Z" fill="#231F20"/>
<path d="M6.37978 12.87C4.37978 13.17 3.69978 23.46 5.96978 32.77C8.50978 43.2 14.7098 52.28 16.0598 51.85C16.9598 51.57 15.8898 47.03 15.4498 45.16C13.3198 36.1 9.75978 35.3 9.44978 29.42C9.18978 24.56 11.5098 23.12 10.0698 18.42C9.28978 15.91 7.55978 12.69 6.37978 12.87Z" fill="#1E6F5D"/>
<path d="M6.37986 12.89C6.17873 12.9678 5.9978 13.0901 5.85061 13.2476C5.70341 13.4052 5.59376 13.5941 5.52986 13.8C5.35294 14.2024 5.21562 14.621 5.11986 15.05C4.92274 15.9049 4.79565 16.7745 4.73986 17.65C4.62485 19.4048 4.62485 21.1652 4.73986 22.92C4.95503 26.4203 5.48382 29.8942 6.31986 33.3C7.15886 36.7135 8.34851 40.0312 9.86986 43.2C10.6298 44.7886 11.4882 46.3283 12.4399 47.81C12.9199 48.54 13.4399 49.26 13.9599 49.95C14.4527 50.6518 15.0819 51.2469 15.8099 51.7C16.1699 51.86 16.2399 51.34 16.2499 50.94C16.2544 50.505 16.2243 50.0703 16.1599 49.64C16.0499 48.78 15.8699 47.92 15.6799 47.06C15.3069 45.3508 14.8463 43.6619 14.2999 42C13.7192 40.3505 12.9895 38.7572 12.1199 37.24C11.1595 35.7445 10.3585 34.1525 9.72986 32.49C9.45554 31.63 9.28434 30.7404 9.21986 29.84C9.11979 28.9495 9.11979 28.0506 9.21986 27.16C9.41986 25.37 10.1299 23.71 10.2999 21.99C10.4019 20.2421 10.0901 18.4948 9.38986 16.89C9.07481 16.0716 8.68307 15.2847 8.21986 14.54C7.98924 14.1848 7.72826 13.8502 7.43986 13.54C7.31675 13.3652 7.15922 13.2174 6.97695 13.1056C6.79468 12.9938 6.59149 12.9205 6.37986 12.89ZM6.37986 12.84C6.60453 12.8528 6.82398 12.9129 7.02386 13.0163C7.22375 13.1197 7.39957 13.2641 7.53986 13.44C7.83777 13.7651 8.10554 14.1165 8.33986 14.49C8.81252 15.2389 9.22386 16.0248 9.56986 16.84C10.339 18.4483 10.7095 20.2183 10.6499 22C10.5199 23.8 9.86986 25.47 9.72986 27.19C9.55057 28.9123 9.71717 30.653 10.2199 32.31C10.85 33.9456 11.637 35.5162 12.5699 37C13.4427 38.549 14.1692 40.1761 14.7399 41.86C15.2832 43.5452 15.724 45.2616 16.0599 47C16.2299 47.87 16.3899 48.74 16.4899 49.63C16.5398 50.0849 16.5632 50.5424 16.5599 51C16.5497 51.2383 16.506 51.474 16.4299 51.7C16.3758 51.8363 16.2722 51.9471 16.1399 52.01C16.0054 52.0656 15.8543 52.0656 15.7199 52.01C15.3057 51.8032 14.9382 51.5139 14.6399 51.16C14.3347 50.843 14.0476 50.5092 13.7799 50.16C13.2399 49.45 12.7799 48.72 12.2699 47.97C11.3399 46.47 10.5099 44.97 9.71986 43.34C8.13987 40.1794 6.86735 36.8742 5.91986 33.47C5.01566 30.0265 4.51562 26.4893 4.42986 22.93C4.36959 21.1647 4.42973 19.3972 4.60986 17.64C4.67844 16.752 4.80875 15.8699 4.99986 15C5.10242 14.5672 5.24642 14.1453 5.42986 13.74C5.5076 13.5283 5.63271 13.3371 5.79563 13.1812C5.95854 13.0252 6.15495 12.9085 6.36986 12.84H6.37986Z" fill="#231F20"/>
<path d="M7.99 1.46997L8.97 7.60997L13.63 3.52997L9.76 8.13997L15.97 8.49997L9.66 8.79997L13.63 13.47L8.87 9.84997L7.99 15.52L7.52 9.84997L2.34 13.47L6.78 8.87997L0 8.49997L6.53 8.22997L2.34 3.52997L7.34 7.63997L7.99 1.46997Z" fill="#F7A49D"/>
<path d="M30.5704 11.82L31.0904 13.98L33.2504 14.49L31.0904 15.01L30.5704 17.17L30.0604 15.01L27.9004 14.49L30.0604 13.98L30.5704 11.82Z" fill="#FAF28A" stroke="#231F20" stroke-width="0.5" stroke-miterlimit="10"/>
<path d="M10.4698 31.06L10.9898 33.22L13.1498 33.73L10.9898 34.24L10.4698 36.41L9.9598 34.24L7.7998 33.73L9.9598 33.22L10.4698 31.06Z" fill="#FAF28A" stroke="#231F20" stroke-width="0.5" stroke-miterlimit="10"/>
<path d="M28.3597 40.69L28.8697 42.85L31.0397 43.37L28.8697 43.88L28.3597 46.04L27.8497 43.88L25.6797 43.37L27.8497 42.85L28.3597 40.69Z" fill="#FAF28A" stroke="#231F20" stroke-width="0.5" stroke-miterlimit="10"/>
<path d="M25.6798 2.5L25.9898 3.79L27.2798 4.09L25.9898 4.4L25.6798 5.69L25.3798 4.4L24.0898 4.09L25.3798 3.79L25.6798 2.5Z" fill="#FAF28A" stroke="#231F20" stroke-width="0.5" stroke-miterlimit="10"/>
</svg>
