<svg width="41" height="72" viewBox="0 0 41 72" fill="none" xmlns="http://www.w3.org/2000/svg">
<g clip-path="url(#clip0)">
<path d="M4.81238 9.79232C4.65937 9.56218 2.45597 10.205 2.11934 11.6652C1.93572 12.4588 2.37946 13.1493 3.17513 14.3873C4.19267 15.9745 4.62876 15.8872 5.49329 17.284C6.38842 18.7521 6.22776 19.3632 6.99282 19.8394C7.87265 20.387 9.28803 20.3394 9.65526 19.6965C10.2367 18.6807 8.30109 15.911 6.28131 14.2127C4.89654 13.054 3.68773 12.5779 3.68773 11.5938C3.68773 10.6018 4.92714 9.97485 4.81238 9.79232Z" fill="#D22333"/>
<path d="M4.78156 9.80897C4.55204 9.72961 4.22306 9.84865 3.96294 9.94389C3.69516 10.055 3.43504 10.1978 3.19787 10.3724C2.73118 10.7137 2.34864 11.2057 2.27214 11.7454C2.19563 12.285 2.4787 12.785 2.77708 13.2929C3.09076 13.7929 3.39679 14.3246 3.73342 14.8008C4.05475 15.2928 4.46023 15.7055 4.85807 16.1816C5.24825 16.6657 5.56193 17.1974 5.845 17.7371C6.12808 18.2768 6.30405 18.8958 6.61772 19.364C6.9467 19.8243 7.55876 19.9909 8.10196 20.0386C8.62985 20.0782 9.29546 19.9195 9.45613 19.5386C9.53263 19.3481 9.50968 19.0783 9.41787 18.8164C9.34137 18.5545 9.21896 18.2926 9.08889 18.0307C8.53039 17.0149 7.75768 16.0943 6.93905 15.261C6.13573 14.396 5.1794 13.7532 4.25366 12.9278C4.04709 12.7215 3.82522 12.4755 3.68751 12.166C3.55745 11.8485 3.55745 11.4835 3.67221 11.1898C3.79462 10.8883 3.98589 10.6423 4.20011 10.428C4.30722 10.3169 4.41433 10.2137 4.52909 10.1185C4.6209 10.0232 4.78156 9.89627 4.78156 9.80897ZM4.83511 9.77723C4.86572 9.90421 4.77391 9.95182 4.73566 10.0074L4.57499 10.1661C4.46788 10.2693 4.36077 10.3724 4.26131 10.4835C4.0624 10.7137 3.89408 10.9597 3.82522 11.2454C3.74872 11.5232 3.79462 11.8168 3.92468 12.0469C4.0624 12.2771 4.28427 12.4676 4.51379 12.6342L5.99037 13.6262C6.48766 13.9754 6.9467 14.3881 7.38279 14.8087C8.24732 15.6737 9.01239 16.6499 9.58619 17.7688C9.7239 18.0545 9.85396 18.3482 9.93047 18.6736C10.007 18.9831 10.0605 19.3719 9.88456 19.737C9.70095 20.1179 9.33372 20.2687 9.02769 20.3322C8.70636 20.4036 8.39268 20.4036 8.08665 20.356C7.48225 20.2608 6.86255 20.0227 6.47236 19.483C6.28874 19.2132 6.19694 18.9196 6.08218 18.6418C5.97507 18.364 5.83735 18.0942 5.69199 17.8323C5.40127 17.3086 5.06464 16.8165 4.64385 16.4038C4.23071 15.9991 3.74872 15.5944 3.37383 15.1023C3.0066 14.5944 2.66997 14.1103 2.36394 13.5707C2.06557 13.0548 1.75189 12.3723 1.93551 11.6819C2.11912 11.0153 2.60877 10.547 3.12901 10.2534C3.38914 10.1026 3.66456 9.9677 3.94764 9.8804C4.22306 9.80104 4.50614 9.64232 4.83511 9.77723Z" fill="black"/>
<path d="M2.84641 12.1422C1.88243 11.9041 0.451747 12.8802 0.222227 14.2293C0.00800782 15.4674 1.46929 16.4435 2.74695 17.3403C3.94046 18.1815 5.19517 18.61 6.12855 18.9354C6.5876 19.0941 7.00073 19.237 7.58984 19.356C8.37786 19.5148 10.5813 19.9751 10.9638 19.2132C11.3234 18.491 10.3288 16.9911 9.11997 16.2054C7.45212 15.1182 6.38103 16.0626 4.99625 14.9991C3.59618 13.9436 3.90221 12.404 2.84641 12.1422Z" fill="#D22333"/>
<path d="M2.83851 12.166C2.27236 12.047 1.68325 12.3089 1.25481 12.6898C0.818726 13.0707 0.505048 13.6024 0.42089 14.15C0.321431 14.6897 0.596856 15.1658 0.971739 15.5785C1.35427 15.9833 1.80566 16.3562 2.28001 16.7054C4.05496 18.253 6.35782 19.0863 8.65303 19.3799C9.22683 19.4354 9.81593 19.4672 10.3285 19.3481C10.5963 19.2767 10.7493 19.1656 10.7723 18.9831C10.8029 18.7847 10.734 18.5149 10.6193 18.2768C10.1143 17.3006 9.19622 16.4594 8.20164 16.1023C7.69669 15.9118 7.14584 15.9198 6.53379 15.8483C5.92938 15.7928 5.27142 15.5547 4.82003 15.1103C4.34569 14.6897 4.02436 14.1183 3.82544 13.5469C3.61888 12.9993 3.43526 12.3247 2.83851 12.166ZM2.85381 12.1105C3.15218 12.1739 3.39701 12.4041 3.55767 12.666C3.72599 12.9279 3.82544 13.2136 3.97081 13.4755C4.23093 14.0151 4.59051 14.4833 5.0572 14.8008C5.5239 15.1262 6.02884 15.2769 6.58734 15.2928C7.13819 15.3087 7.78085 15.3087 8.3929 15.5071C9.60936 15.9436 10.5427 16.88 11.1089 18.0546C11.2313 18.3561 11.3461 18.7053 11.2696 19.1101C11.2237 19.3005 11.0936 19.5307 10.9253 19.6259C10.757 19.737 10.5886 19.7846 10.428 19.8243C9.78533 19.9354 9.19622 19.8164 8.60712 19.7211C8.01802 19.6021 7.45187 19.4434 6.88572 19.2608C6.31192 19.0942 5.76107 18.9117 5.20257 18.7133C4.65172 18.5069 4.09322 18.2926 3.55002 18.0308C3.00682 17.7689 2.50188 17.4435 2.00458 17.1102C1.52259 16.761 1.01764 16.4197 0.596856 15.9277C0.390288 15.6896 0.19902 15.4119 0.0919109 15.0785C-0.0305 14.7532 -0.0228493 14.3722 0.0689589 14.0548C0.252575 13.4199 0.665712 12.9041 1.16301 12.5549C1.65265 12.2295 2.25705 11.9755 2.85381 12.1105Z" fill="black"/>
<path d="M3.9018 12.5469C3.72583 12.4913 3.29739 12.3723 3.15203 12.0152C2.90721 11.412 3.64167 10.547 4.17722 9.92799C5.02645 8.93598 5.88332 8.48362 6.18935 8.33284C6.81671 8.02333 7.26045 7.80906 7.8266 7.87255C8.65287 7.95984 9.20372 8.57886 9.60156 9.03915C9.97644 9.4677 11.935 11.7453 11.1011 14.3087C10.9634 14.7293 10.4355 16.3483 9.36438 16.5387C7.66593 16.8482 6.40357 13.3326 3.9018 12.5469Z" fill="#D22333"/>
<path d="M3.89383 12.5787C3.64136 12.5072 3.38124 12.412 3.19762 12.1819C3.00635 11.9517 3.02166 11.6263 3.09816 11.3565C3.26648 10.8169 3.61076 10.3724 3.92444 9.93596C4.54414 9.04712 5.45457 8.317 6.45681 7.92813C6.9388 7.71386 7.55851 7.57101 8.10171 7.76148C8.65256 7.92813 9.07335 8.317 9.42528 8.72174C10.1368 9.52328 10.7794 10.4121 11.1773 11.4438C11.5904 12.4596 11.6363 13.7135 11.2155 14.769C11.0243 15.2928 10.7871 15.8166 10.3893 16.2689C10.1903 16.4911 9.93022 16.6895 9.62419 16.7927C9.31817 16.9038 8.97389 16.88 8.66786 16.8007C8.07111 16.5864 7.66562 16.1737 7.29839 15.7769C6.93115 15.3722 6.60983 14.9436 6.28085 14.5309C5.64584 13.7135 4.89607 12.912 3.89383 12.5787ZM3.90914 12.5231C4.91137 12.8564 5.7912 13.531 6.56392 14.2611C6.95411 14.6262 7.32899 15.0071 7.69622 15.3722C8.06346 15.7213 8.45364 16.0785 8.85913 16.1975C9.25696 16.3166 9.64715 16.1896 9.96847 15.8404C10.2898 15.5071 10.5346 15.0468 10.7259 14.5706C11.1314 13.6183 11.1773 12.5707 10.8942 11.5549C10.6111 10.547 10.0297 9.61851 9.30287 8.85665C8.94328 8.47572 8.51485 8.16621 8.03285 8.08685C7.55086 7.98369 7.10712 8.14241 6.65573 8.38842C5.72235 8.82491 4.92668 9.42805 4.19986 10.1899C3.83263 10.5708 3.4654 10.9518 3.24353 11.42C3.13642 11.6501 3.11346 11.9279 3.25883 12.1422C3.41184 12.3485 3.66431 12.4438 3.90914 12.5231Z" fill="black"/>
<path d="M5.47071 13.7849C5.49366 13.6738 5.72318 12.5866 6.18987 12.5469C7.26097 12.4596 9.00532 18.0545 8.30146 18.4513C7.75061 18.7688 4.95811 16.2133 5.47071 13.7849Z" fill="#D22333"/>
<path d="M5.44759 13.7849C5.5088 13.4913 5.57766 13.2056 5.68477 12.9199C5.74597 12.7771 5.80718 12.6263 5.95254 12.5072C6.09025 12.3723 6.35803 12.3723 6.51104 12.4596C7.1384 12.8088 7.38322 13.3961 7.62039 13.9437C7.83461 14.5151 7.95702 15.1023 8.11003 15.6737C8.26305 16.2451 8.44666 16.8086 8.57672 17.4038C8.62263 17.7133 8.72209 17.9911 8.62263 18.3879C8.61498 18.4355 8.57672 18.499 8.54612 18.5545C8.50022 18.6101 8.43136 18.6815 8.37015 18.6974C8.3013 18.7212 8.23244 18.7371 8.16359 18.745L8.01822 18.7212C7.82696 18.6815 7.68159 18.6021 7.54388 18.5228C7.00068 18.1974 6.56459 17.7689 6.19736 17.2768C5.83778 16.7848 5.5394 16.2213 5.43229 15.6023C5.30223 14.9833 5.32518 14.3643 5.44759 13.7849ZM5.50115 13.7929C5.37874 14.3722 5.5394 14.9674 5.78422 15.4674C6.04435 15.9674 6.33507 16.4435 6.67935 16.88C7.01598 17.3086 7.39087 17.745 7.81931 18.0387C7.91877 18.118 8.04118 18.1736 8.12533 18.2053L8.18654 18.2291C8.18654 18.2212 8.18654 18.2212 8.18654 18.2371C8.17889 18.253 8.17889 18.2688 8.20184 18.2212C8.2707 18.0466 8.286 17.7212 8.2707 17.4435C8.24009 16.8641 8.13298 16.2769 7.94172 15.7293C7.75045 15.1738 7.46737 14.6579 7.19195 14.15C6.91653 13.6659 6.66405 13.1104 6.33507 12.7771C6.25092 12.7136 6.18971 12.6739 6.09025 12.7215C5.99079 12.7691 5.89899 12.8723 5.81483 12.9913C5.66181 13.2215 5.57001 13.5151 5.50115 13.7929Z" fill="black"/>
<path d="M7.00792 15.3325C6.41116 14.9674 5.47013 14.4913 5.30182 13.6024C5.20236 13.0866 5.43953 12.8406 5.30182 11.9755C5.18706 11.2692 4.95753 10.9915 5.1335 10.7058C5.34772 10.3407 5.95977 10.3486 6.15869 10.3486C6.7784 10.3566 7.25274 10.6582 7.55877 10.8804C8.85173 11.8248 9.54794 13.1421 9.6015 13.2532C10.7338 15.4436 11.6901 18.8244 11.0322 19.1577C10.4737 19.4354 9.81572 17.0387 7.00792 15.3325Z" fill="#D22333"/>
<path d="M6.99245 15.3642C6.58696 15.1262 6.15853 14.9039 5.78364 14.5786C5.40876 14.2691 5.08743 13.777 5.10273 13.2136C5.14099 12.6818 5.13333 12.293 5.01857 11.8247C4.96502 11.5946 4.88851 11.3962 4.83496 11.1026C4.80436 10.9597 4.81201 10.7296 4.91912 10.5709C5.01857 10.4121 5.16394 10.309 5.294 10.2455C5.56942 10.1264 5.8372 10.1264 6.08967 10.1423C6.34214 10.1502 6.60227 10.2137 6.83179 10.309C7.30613 10.5074 7.68101 10.8327 8.04059 11.1581C8.75211 11.8168 9.38711 12.5707 9.86911 13.4437C10.3511 14.3008 10.7489 15.2055 11.055 16.1499C11.208 16.6181 11.3457 17.1022 11.4451 17.5943C11.4987 17.8403 11.5293 18.1022 11.5446 18.3641C11.5293 18.6418 11.5982 18.9117 11.338 19.2926C11.2462 19.3878 11.1621 19.4672 10.9938 19.4831C10.8484 19.5148 10.726 19.4434 10.6418 19.4037C10.4812 19.3005 10.397 19.1894 10.3128 19.0862C10.1445 18.8799 10.0145 18.6815 9.87676 18.4831C9.60133 18.0863 9.34886 17.6895 9.05813 17.3086C8.49198 16.5467 7.80342 15.8563 6.99245 15.3642ZM7.02305 15.3087C7.83403 15.8087 8.63735 16.3562 9.34121 17.0387C9.69314 17.3721 10.0298 17.7451 10.3205 18.1339C10.4735 18.3165 10.6189 18.5228 10.7566 18.6815C10.8254 18.7609 10.9019 18.8323 10.9479 18.8561C10.9861 18.8482 10.8713 18.864 10.879 18.872C10.9096 18.8561 10.9479 18.5863 10.9326 18.3879C10.9173 18.1657 10.8866 17.9355 10.856 17.7054C10.7795 17.2371 10.6648 16.7769 10.5347 16.3166C10.2669 15.396 9.96091 14.4754 9.58603 13.5866C9.22645 12.7057 8.63735 11.912 7.91818 11.301C7.55095 10.9994 7.16077 10.7296 6.73233 10.6185C6.32684 10.5074 5.8219 10.5312 5.49292 10.6978C5.41641 10.7375 5.36285 10.7851 5.3399 10.8407C5.31695 10.8883 5.31695 10.92 5.33225 11.0153C5.37051 11.2057 5.46231 11.4676 5.50822 11.7136C5.63063 12.2057 5.56942 12.8088 5.46231 13.2374C5.38581 13.6659 5.56942 14.1183 5.8831 14.4595C6.19678 14.8246 6.61757 15.0627 7.02305 15.3087Z" fill="black"/>
<path d="M5.1564 11.8716C5.27881 11.6653 6.3499 11.8716 6.67123 12.5383C6.8319 12.8716 6.64063 12.9589 6.80129 13.3557C6.96961 13.7763 7.26798 13.8557 7.92594 14.6572C8.09426 14.8635 8.19372 14.9985 8.14781 15.0937C8.08661 15.2445 7.72702 15.2286 7.4975 15.1651C7.21443 15.0858 7.03846 14.9032 6.96961 14.8239C6.67888 14.4985 6.63298 14.1017 6.59472 13.9192C6.3652 12.6891 5.01103 12.1097 5.1564 11.8716Z" fill="#D22333"/>
<path d="M5.13415 11.8564C5.22596 11.7533 5.34072 11.7691 5.44018 11.7533C5.54729 11.7453 5.64675 11.7612 5.75386 11.7691C5.96042 11.7929 6.17464 11.8406 6.38121 11.9358C6.58778 12.031 6.7867 12.1897 6.90911 12.4278C6.97031 12.5389 7.01622 12.7135 7.00092 12.8484C6.99327 12.9834 6.97797 13.0389 6.97797 13.1103C6.96266 13.4198 7.23044 13.7452 7.51351 14.0547L7.9343 14.5071L8.14852 14.7372C8.20207 14.8245 8.34744 14.888 8.28623 15.1658C8.15617 15.388 8.00316 15.38 7.8884 15.4118C7.76599 15.4356 7.65123 15.4356 7.53647 15.4197C7.29929 15.3959 7.06212 15.2848 6.87086 15.1182C6.67959 14.9594 6.53423 14.7452 6.43477 14.515C6.32766 14.3007 6.3047 14.023 6.26645 13.8801C6.1976 13.5389 6.01398 13.2294 5.81506 12.8802C5.70795 12.7135 5.59319 12.5389 5.46313 12.3881C5.40192 12.3088 5.32542 12.2374 5.25656 12.158C5.21066 12.0786 5.08825 12.0072 5.13415 11.8564ZM5.18005 11.8802C5.1877 12.0231 5.41723 12.158 5.57024 12.2612C5.73855 12.3723 5.92217 12.4754 6.09814 12.6104C6.45007 12.8564 6.74079 13.2452 6.86321 13.7214C6.93206 13.9754 6.93971 14.1182 6.99327 14.2849C7.04682 14.4436 7.12333 14.5864 7.23044 14.6975C7.3452 14.8086 7.47526 14.8959 7.62827 14.9436C7.70478 14.9674 7.78894 14.9912 7.8731 14.9991C7.9496 15.015 8.02611 14.9832 8.01081 15.015C8.02611 15.0864 8.01081 14.9594 7.95725 14.8801C7.91135 14.7928 7.85014 14.7134 7.78894 14.6341C7.66653 14.4753 7.53647 14.3245 7.38345 14.1896C7.23809 14.0547 7.06977 13.9436 6.90146 13.8008C6.72549 13.65 6.58013 13.4436 6.51127 13.1818C6.48067 13.0468 6.48832 12.8961 6.48832 12.8246C6.48832 12.7532 6.47302 12.7215 6.45007 12.65C6.38886 12.5151 6.3047 12.3723 6.17464 12.2374C6.04458 12.1104 5.89157 11.9834 5.7156 11.904C5.54729 11.8406 5.31012 11.785 5.18005 11.8802Z" fill="black"/>
<path d="M14.6583 50.1877C15.2321 47.3863 15.4769 44.5213 15.3927 41.6882C15.3392 38.8471 14.9567 36.0297 14.2528 33.2997C13.5642 30.5618 12.4472 27.9905 11.3379 25.4351C10.2132 22.8718 8.87436 20.4116 7.45898 17.9197L7.57374 17.8165C9.65473 19.7688 11.3455 22.1575 12.6997 24.7209C14.0692 27.2921 14.8572 30.1571 15.4386 33.0061C16.0124 35.8631 16.2496 38.7915 16.1502 41.6882C16.0277 44.5848 15.5687 47.4577 14.796 50.2194L14.6583 50.1877Z" fill="#1E6F5D"/>
<path d="M6.02186 11.8803C5.86884 11.4835 3.94852 11.5946 3.7343 12.2691C3.46653 13.1342 6.04481 14.6817 6.39674 14.888C8.97502 16.4038 11.538 16.5467 11.5763 16.3721C11.6451 16.0864 5.06552 14.6579 5.16498 13.0866C5.20323 12.4993 6.13662 12.1739 6.02186 11.8803Z" fill="#D22333"/>
<path d="M5.99086 11.8882C5.88375 11.7295 5.63128 11.7057 5.43236 11.6977C5.21814 11.6977 5.00392 11.7136 4.80501 11.7692C4.59844 11.8168 4.39952 11.8882 4.22355 11.9834C4.04759 12.0787 3.90223 12.2295 3.90988 12.3564C3.90223 12.6183 4.25416 12.9596 4.54488 13.2294C4.85856 13.5072 5.19519 13.7691 5.53182 14.0309C6.21273 14.5547 6.91659 15.0706 7.69696 15.4356C8.47733 15.8007 9.31891 16.0308 10.1605 16.134C10.5736 16.1816 11.0174 16.2134 11.3922 16.1816C11.4152 16.1816 11.4381 16.1737 11.4458 16.1737C11.4535 16.1896 11.4994 16.1181 11.3769 16.2451C11.3616 16.2769 11.3616 16.2927 11.354 16.3324C11.3463 16.3721 11.3463 16.4356 11.3769 16.4753C11.4152 16.5229 11.4152 16.5229 11.4075 16.5229C11.4152 16.5308 11.3922 16.5149 11.3769 16.507C11.3004 16.4753 11.201 16.4356 11.1015 16.4038L10.4895 16.2134C9.66319 15.9673 8.82927 15.7293 8.01064 15.4118C7.19967 15.0864 6.3734 14.7452 5.66953 14.1341C5.50122 13.9754 5.3329 13.8087 5.20284 13.5945C5.07278 13.3881 5.03453 13.0707 5.15694 12.8485C5.27935 12.6342 5.45531 12.4834 5.62363 12.3485C5.76134 12.2136 6.01381 12.0787 5.99086 11.8882ZM6.04442 11.8723C6.08267 12.0152 5.97556 12.1184 5.9067 12.1977L5.66188 12.4199C5.50887 12.5707 5.3482 12.7294 5.287 12.9199C5.15694 13.3088 5.53947 13.6183 5.8761 13.8246C6.59527 14.2293 7.39859 14.5309 8.20191 14.8246L10.6348 15.6896C10.8414 15.761 11.048 15.8324 11.2545 15.9197C11.3616 15.9673 11.4611 16.007 11.5759 16.0705C11.6065 16.0864 11.6294 16.0943 11.683 16.1419L11.7136 16.1657C11.7212 16.1737 11.7365 16.1737 11.7748 16.2372C11.8054 16.2927 11.813 16.3641 11.813 16.4118C11.8054 16.4594 11.7901 16.4832 11.7595 16.5229C11.5912 16.6895 11.5912 16.6181 11.5453 16.6498C11.4994 16.6578 11.4611 16.6657 11.4381 16.6657C10.9485 16.6816 10.5354 16.5705 10.1069 16.4673C9.2577 16.253 8.43143 15.9594 7.62811 15.6261C6.80948 15.2848 6.00616 14.9198 5.2564 14.4436C4.88151 14.2055 4.52193 13.9357 4.19295 13.6183C4.03229 13.4516 3.87162 13.285 3.74156 13.0707C3.6115 12.8723 3.47379 12.6025 3.55029 12.2771C3.63445 11.9438 3.90988 11.8247 4.11644 11.7454C4.33831 11.666 4.56018 11.6343 4.78205 11.6104C5.00392 11.5946 5.21814 11.5866 5.44001 11.6184C5.64658 11.6501 5.89905 11.6422 6.04442 11.8723Z" fill="black"/>
<path d="M3.68056 12.1334C2.81603 11.9191 1.53071 12.8001 1.32415 14.0143C1.06402 15.4983 2.5406 16.784 3.58875 16.8078C4.50683 16.8316 5.2566 15.9031 5.60853 16.2046C5.76919 16.3475 5.65443 16.5776 5.73094 16.9347C5.95281 17.9982 7.5212 18.4902 7.93434 18.6172C8.75296 18.8711 10.5968 19.2203 10.964 18.4902C11.2853 17.8474 10.3979 16.4983 9.31146 15.7919C7.81192 14.8158 6.85559 15.665 5.60853 14.7126C4.35382 13.7524 4.62924 12.3715 3.68056 12.1334Z" fill="#D22333"/>
<path d="M3.67291 12.166C3.13736 12.0549 2.58652 12.3168 2.19633 12.6898C1.7985 13.0628 1.53072 13.5786 1.49247 14.1024C1.43126 15.142 2.21928 16.0864 3.13736 16.4673C3.59641 16.6816 4.08605 16.5943 4.57569 16.3483C4.82817 16.2451 5.05769 16.0705 5.39432 16.0309C5.57793 15.9991 5.7998 16.1737 5.7998 16.3721C5.8151 16.5388 5.7845 16.6658 5.80745 16.8007C5.86101 17.3403 6.30475 17.753 6.77144 18.0069C7.23813 18.2847 7.77368 18.4276 8.30158 18.5466C8.82947 18.6577 9.38032 18.7053 9.90057 18.6894C10.153 18.6736 10.4132 18.626 10.5891 18.5228C10.7574 18.4196 10.7957 18.3006 10.7651 18.0625C10.6809 17.6101 10.352 17.1419 9.99238 16.7689C9.63279 16.388 9.21201 16.0547 8.75296 15.8404C8.30157 15.6103 7.80428 15.5626 7.24578 15.523C6.69493 15.4912 6.03697 15.3325 5.58558 14.9278C5.11124 14.5548 4.78991 14.023 4.59099 13.4834C4.38443 12.9675 4.23906 12.3089 3.67291 12.166ZM3.68821 12.1104C3.97129 12.1739 4.20081 12.3961 4.33852 12.6422C4.49154 12.8882 4.59099 13.158 4.72871 13.412C4.98118 13.9119 5.34076 14.3405 5.79215 14.6024C6.24354 14.8881 6.72553 14.9436 7.26873 14.9516C7.81193 14.9516 8.43929 14.9992 8.99779 15.2611C9.54864 15.523 10.0306 15.896 10.4208 16.3483C10.8033 16.8086 11.1706 17.3006 11.293 17.9911C11.3083 18.1657 11.3159 18.3641 11.2318 18.5625C11.1553 18.7609 10.9946 18.9117 10.834 18.991C10.5126 19.1577 10.2066 19.1735 9.91587 19.1735C9.32677 19.1656 8.77592 19.0386 8.23272 18.8799C7.68952 18.7212 7.16927 18.491 6.67198 18.2053C6.19764 17.9117 5.71564 17.4673 5.62384 16.8403C5.60088 16.6896 5.61619 16.5308 5.60088 16.4118C5.58558 16.3086 5.51673 16.2689 5.41727 16.2848C5.2107 16.3324 4.96588 16.515 4.72871 16.6499C4.48388 16.7927 4.21611 16.9356 3.91008 16.9991C3.60406 17.0705 3.27508 17.0387 2.98435 16.9435C2.4029 16.7451 1.90561 16.3642 1.54602 15.8483C1.18644 15.3484 1.00282 14.6738 1.14054 14.0548C1.26295 13.4358 1.64548 12.9199 2.10452 12.5787C2.55591 12.2374 3.12206 11.9835 3.68821 12.1104Z" fill="black"/>
<path d="M8.36998 8.95977C8.5536 8.45186 11.1319 8.57884 11.8816 9.49149C11.9582 9.57878 12.1265 9.8248 12.3942 9.84861C12.7385 9.87242 12.9298 9.49942 13.144 9.56291C13.4194 9.64227 13.45 10.3486 13.45 10.4121C13.4806 11.3644 12.6008 11.5707 11.9811 13.031C11.7363 13.6182 11.6827 14.015 11.6751 14.2293C11.6368 14.8007 11.7745 15.1896 11.8434 15.507C12.05 16.3959 12.027 17.5704 11.6062 18.2688C10.8259 19.5624 9.02029 20.229 8.19402 19.61C7.26063 18.9116 7.75793 16.7054 7.95685 15.8245C8.39294 13.8722 9.18096 13.4357 9.15035 11.8644C9.13505 11.039 9.11975 10.2454 8.63776 9.49149C8.46179 9.21372 8.31643 9.09468 8.36998 8.95977Z" fill="#D22333"/>
<path d="M8.33915 8.95188C8.42331 8.77728 8.59928 8.74554 8.73699 8.69792C8.89 8.65824 9.04302 8.64237 9.19603 8.63443C9.50206 8.61063 9.80808 8.61856 10.1141 8.65031C10.7262 8.71379 11.3535 8.8249 11.8967 9.26138C12.1568 9.53121 12.3099 9.66612 12.4705 9.61057C12.5547 9.58676 12.6388 9.51534 12.7918 9.40423C12.8607 9.35662 13.0137 9.27725 13.1973 9.32487C13.3733 9.38042 13.4575 9.5074 13.511 9.60263C13.687 9.99944 13.7099 10.2931 13.6717 10.6899C13.6181 11.0787 13.381 11.3962 13.182 11.6343C12.7536 12.0946 12.3787 12.539 12.1186 13.0945C11.8432 13.6342 11.6902 14.2373 11.782 14.8484C12.0497 16.0229 12.3252 17.4435 11.5677 18.6021C11.1929 19.1418 10.6879 19.5783 10.0912 19.8481C9.50971 20.1021 8.79819 20.3005 8.10963 19.9116C7.773 19.7052 7.56643 19.3402 7.46698 19.0069C7.36752 18.6656 7.33691 18.3164 7.33691 17.9831C7.33691 17.3165 7.45167 16.6737 7.58174 16.0467C7.71945 15.4277 7.91072 14.7849 8.19379 14.2056C8.46921 13.6262 8.77524 13.1104 8.9053 12.531C9.02771 11.9596 9.02771 11.301 8.98181 10.6978C8.95121 10.3883 8.86705 10.0867 8.74464 9.80897C8.68343 9.66612 8.59928 9.53914 8.51512 9.41217C8.46156 9.26138 8.3009 9.15028 8.33915 8.95188ZM8.39271 8.96775C8.36211 9.09473 8.50747 9.2217 8.58398 9.34868C8.67578 9.47566 8.75994 9.61057 8.83645 9.75342C8.98946 10.0312 9.08127 10.3407 9.15013 10.6581C9.21898 10.9756 9.24958 11.293 9.27254 11.6105C9.30314 11.92 9.31844 12.2533 9.28784 12.5866C9.23428 13.2612 8.92061 13.8643 8.70639 14.4278C8.48452 14.9992 8.30855 15.5626 8.19379 16.1737C8.06373 16.7768 7.96427 17.38 7.94897 17.9752C7.93367 18.5545 8.02548 19.1735 8.40801 19.4195C8.79819 19.6735 9.4179 19.6021 9.93815 19.3957C10.466 19.1894 10.9633 18.8482 11.3382 18.3879C11.7131 17.9434 11.8585 17.3244 11.8738 16.7054C11.8814 16.3959 11.8661 16.0864 11.8126 15.7848C11.7743 15.4833 11.6519 15.1896 11.606 14.8642C11.3994 13.5548 12.0421 12.2453 12.8378 11.301C13.029 11.0629 13.1667 10.8407 13.1897 10.6026C13.2203 10.3804 13.1591 10.0232 13.0902 9.84072C13.0673 9.80103 13.052 9.7931 13.0826 9.80897C13.1132 9.81691 13.1132 9.80104 13.0596 9.83278C12.9602 9.88833 12.8072 10.0232 12.5853 10.0629C12.3634 10.1105 12.1262 10.0232 11.9885 9.89627C11.8355 9.76929 11.7514 9.61057 11.6672 9.53121C11.2923 9.13441 10.6803 8.92807 10.1065 8.80109C9.81573 8.7376 9.50971 8.71379 9.21133 8.71379C9.05832 8.71379 8.91295 8.72967 8.76759 8.76935C8.61458 8.80109 8.45391 8.84077 8.39271 8.96775Z" fill="black"/>
<path d="M6.74838 15.5149C6.51886 15.5546 5.96036 14.5785 6.23579 13.888C6.3735 13.5468 6.56477 13.6341 6.74838 13.2532C6.9473 12.8405 6.80194 12.5627 6.95495 11.5231C6.99321 11.2533 7.03146 11.0945 7.12327 11.0628C7.27628 11.0152 7.49815 11.3009 7.59761 11.5231C7.72767 11.8009 7.71237 12.0548 7.69707 12.158C7.65116 12.6024 7.39104 12.896 7.29158 13.0389C6.54947 14.0309 7.02381 15.4673 6.74838 15.5149Z" fill="#D22333"/>
<path d="M6.75545 15.5467C6.61774 15.5467 6.55653 15.4436 6.48003 15.3721C6.40352 15.2928 6.34996 15.2055 6.28876 15.1182C6.174 14.9356 6.05924 14.7452 5.99803 14.515C5.93683 14.2928 5.91388 14.0309 6.00568 13.777C6.04394 13.65 6.1434 13.5072 6.25051 13.4278C6.35762 13.3405 6.40352 13.3246 6.45707 13.2691C6.69424 13.0707 6.75545 12.658 6.7937 12.2294L6.84726 11.6025L6.87021 11.2851C6.90081 11.1898 6.84726 11.0311 7.09208 10.8962C7.3369 10.8486 7.42871 10.9835 7.52817 11.047C7.61998 11.1263 7.69648 11.2136 7.76534 11.3168C7.90305 11.5231 7.97956 11.7771 7.98721 12.031C7.99486 12.285 7.94131 12.539 7.8342 12.7691C7.74239 12.9913 7.55877 13.1897 7.48227 13.3167C7.28335 13.5945 7.17624 13.9436 7.05383 14.3246C7.00027 14.515 6.95437 14.7214 6.92377 14.9277C6.90846 15.0309 6.90081 15.134 6.88551 15.2452C6.86256 15.3404 6.89316 15.4753 6.75545 15.5467ZM6.7478 15.4832C6.84726 15.388 6.7937 15.1182 6.77075 14.9277C6.74015 14.7214 6.69424 14.5071 6.67894 14.2928C6.62539 13.8563 6.72485 13.3722 6.97732 12.9675C7.12268 12.7453 7.22214 12.6421 7.29865 12.4913C7.38281 12.3485 7.42871 12.1898 7.44401 12.031C7.45166 11.8723 7.42871 11.7136 7.36751 11.5628C7.3369 11.4835 7.291 11.4041 7.24509 11.3327C7.20684 11.2612 7.13033 11.2216 7.16859 11.2136C7.20684 11.1581 7.12268 11.2533 7.10738 11.3406C7.07678 11.4358 7.05383 11.5311 7.03853 11.6342C7.00027 11.8326 6.97732 12.039 6.97732 12.2453C6.97732 12.4517 7.00792 12.6501 7.01557 12.8802C7.02322 13.1183 6.96967 13.3643 6.82431 13.5865C6.7478 13.6976 6.63304 13.7929 6.57949 13.8405C6.53358 13.8881 6.51063 13.9198 6.47238 13.9833C6.41117 14.1182 6.37292 14.2849 6.35762 14.4674C6.34996 14.6499 6.35762 14.8563 6.41882 15.0467C6.47238 15.2293 6.58714 15.4515 6.7478 15.4832Z" fill="black"/>
<path d="M4.85033 15.6023C5.15635 14.4516 7.35975 13.3723 8.94344 13.0231C9.35658 12.9278 10.0375 12.8167 10.1369 12.4199C10.29 11.8327 9.0276 11.1343 9.18061 10.8248C9.28007 10.6343 9.89978 10.6502 10.3435 10.9676C10.9326 11.3962 10.9785 12.2295 11.0627 12.9517C11.4299 16.2213 12.5087 16.6102 11.9808 17.8006C11.4835 18.9354 10.091 19.5068 9.0123 19.5307C6.59468 19.5941 4.48309 16.9832 4.85033 15.6023Z" fill="#D22333"/>
<path d="M4.82005 15.5944C4.99601 15.0309 5.43975 14.6341 5.86054 14.277C6.29663 13.9278 6.77862 13.6262 7.27591 13.3723C7.77321 13.1183 8.30111 12.904 8.85195 12.7691C9.12738 12.6977 9.37985 12.6501 9.60172 12.5628C9.70883 12.5231 9.80829 12.4596 9.85419 12.412C9.9001 12.3564 9.90775 12.3326 9.9001 12.2533C9.86185 12.0787 9.68588 11.8565 9.50991 11.6581L9.22684 11.3406C9.18093 11.2851 9.13503 11.2216 9.08913 11.1502C9.05087 11.0708 8.98202 10.9835 9.02027 10.8089C9.07382 10.6423 9.21154 10.6026 9.28804 10.5867C9.3722 10.5629 9.45636 10.5629 9.53287 10.5629C9.68588 10.5708 9.83124 10.6026 9.96895 10.6581C10.2444 10.7534 10.5045 10.9359 10.6805 11.1819C11.0324 11.6819 11.0707 12.293 11.1472 12.8405C11.216 13.3961 11.3308 13.9516 11.4838 14.4833C11.6368 15.023 11.8434 15.5309 12.0576 16.0467C12.1647 16.3086 12.2795 16.5784 12.3483 16.8959C12.4172 17.2213 12.3636 17.5943 12.2412 17.8799C11.9964 18.4752 11.5373 18.9354 11.0324 19.245C10.5198 19.5624 9.95365 19.737 9.3722 19.8163C8.1787 19.9513 7.00049 19.4434 6.18187 18.6339C5.76873 18.2291 5.40915 17.7688 5.15668 17.253C4.8889 16.753 4.69764 16.1737 4.82005 15.5944ZM4.88125 15.6102C4.77414 16.1578 4.98071 16.7213 5.28674 17.1736C5.59276 17.626 5.98295 18.0228 6.41904 18.3323C7.28357 18.9513 8.30111 19.3243 9.30335 19.1894C10.2903 19.0624 11.3308 18.5624 11.7516 17.6577C11.9811 17.2213 11.8357 16.7689 11.6445 16.2213C11.4532 15.6896 11.2925 15.1261 11.1854 14.5627C11.0707 13.9992 11.0247 13.4278 10.9559 12.8644C10.9023 12.3088 10.8641 11.7216 10.5428 11.293C10.3821 11.0867 10.1602 10.9518 9.9154 10.8883C9.79299 10.8565 9.66293 10.8407 9.54817 10.8486C9.44106 10.8407 9.28804 10.928 9.3416 10.9041C9.3263 10.8565 9.41811 11.0153 9.50226 11.0867L9.80064 11.3644C9.99956 11.5708 10.2367 11.7533 10.3668 12.1263C10.428 12.3168 10.3821 12.6025 10.2367 12.7612C10.099 12.9278 9.946 12.9993 9.80064 13.0628C9.50991 13.1818 9.22684 13.2374 8.96672 13.285C8.45412 13.404 7.93387 13.5469 7.42128 13.7215C6.91633 13.904 6.41904 14.1262 5.95235 14.4119C5.50096 14.6976 5.04957 15.0785 4.88125 15.6102Z" fill="black"/>
<path d="M2.81542 11.8634C2.53234 11.673 1.62956 12.3793 1.72137 12.7443C1.79022 13.0141 2.34107 12.903 2.88427 13.4189C3.15205 13.6728 3.12909 13.8157 3.35861 14.1252C3.67994 14.5617 4.03187 14.7045 4.95761 15.149C6.74787 16.006 6.5566 15.9902 6.87028 16.0695C7.81131 16.3156 7.94137 16.0219 9.05072 16.2124C9.8923 16.3552 10.7492 16.506 11.2312 17.2044C11.7667 17.9742 11.5601 18.9821 11.4683 19.3233C11.0246 19.6408 10.2748 20.109 9.24964 20.3471C8.53813 20.5137 6.75552 20.9343 5.69972 19.99C4.77399 19.1567 5.50846 18.2361 4.47561 16.5616C3.64934 15.2283 2.80777 15.2045 2.6012 14.0855C2.39463 12.9507 3.09849 12.0618 2.81542 11.8634Z" fill="#D22333"/>
<path d="M2.79984 11.8882C2.68508 11.8248 2.52442 11.8962 2.402 11.9597C2.27194 12.0311 2.14953 12.1184 2.04242 12.2295C1.83585 12.412 1.60633 12.8088 1.95061 12.8564C2.22604 12.9279 2.55502 13.0072 2.82279 13.2056C2.95285 13.3009 3.08292 13.412 3.19002 13.5548C3.29713 13.7056 3.35834 13.8326 3.4425 13.9437C3.77148 14.404 4.33763 14.5706 4.88848 14.8405C5.44698 15.0865 5.99017 15.3722 6.53337 15.6658C6.67874 15.7372 6.78585 15.8087 6.90061 15.8483C7.03832 15.888 7.17603 15.9277 7.31374 15.9515C7.58917 16.0071 7.87224 15.9833 8.18592 15.9833C8.82858 15.9991 9.41003 16.1658 10.0068 16.3166C10.5959 16.4832 11.2003 16.8403 11.4834 17.4514C11.7588 18.0546 11.7511 18.745 11.6211 19.3799L11.6134 19.4275L11.5675 19.4672C11.0549 19.864 10.4888 20.2052 9.87672 20.4274C9.25702 20.6417 8.64496 20.8004 7.987 20.8639C7.34435 20.9195 6.64813 20.8957 5.99783 20.5782C5.6765 20.4116 5.38577 20.1814 5.17155 19.8481C4.95733 19.5069 4.88848 19.1101 4.85022 18.7926C4.79667 17.5149 4.23817 16.4277 3.33539 15.5547C3.11352 15.3246 2.8687 15.0865 2.70803 14.769C2.53972 14.4595 2.49381 14.1024 2.49381 13.7691C2.49381 13.4358 2.55502 13.1025 2.65448 12.793L2.79984 12.3247C2.83044 12.1739 2.8993 11.9755 2.79984 11.8882ZM2.83044 11.8406C2.98346 11.9914 2.884 12.1898 2.86105 12.3327C2.82279 12.4914 2.76924 12.6422 2.73098 12.8009C2.66213 13.1104 2.61622 13.4358 2.65448 13.7453C2.69273 14.0548 2.76924 14.3643 2.93755 14.6024C3.09822 14.8484 3.34304 15.0309 3.58786 15.2293C4.10811 15.6103 4.5595 16.142 4.89613 16.7292C5.24041 17.3165 5.39342 18.0546 5.45463 18.6895C5.48523 19.0069 5.54644 19.2688 5.6765 19.4831C5.80656 19.6894 6.02078 19.8799 6.25795 20.0068C6.73994 20.2687 7.34435 20.3322 7.9411 20.2925C9.14226 20.1973 10.3587 19.8957 11.3916 19.1974L11.3304 19.2847C11.4987 18.7133 11.5522 18.0704 11.3074 17.5228C11.185 17.253 11.0014 17.0149 10.7642 16.8483C10.5194 16.6816 10.244 16.5785 9.96088 16.507C9.38708 16.3721 8.77502 16.2769 8.20122 16.3166C7.62742 16.388 6.91591 16.4435 6.32681 16.0944L4.68956 15.3008C4.41413 15.1658 4.14636 15.0309 3.87094 14.8563C3.59551 14.6897 3.32774 14.4278 3.16707 14.1421C2.99111 13.8246 2.9299 13.5945 2.68508 13.404C2.47086 13.2056 2.20309 13.1025 1.91236 12.9914C1.8435 12.9596 1.7517 12.9199 1.69814 12.8247C1.64459 12.7295 1.66754 12.6263 1.69814 12.5469C1.767 12.3882 1.87411 12.2692 1.98887 12.166C2.10363 12.0628 2.23369 11.9676 2.3714 11.8962C2.50146 11.8406 2.66213 11.7533 2.83044 11.8406Z" fill="black"/>
<path d="M31.1461 1.78563C31.2455 1.34121 28.0399 -0.714234 25.9589 0.499984C24.8342 1.15868 24.5206 2.49194 23.9697 4.86482C23.2582 7.90433 23.8473 8.35669 23.1817 11.0073C22.4855 13.7612 21.598 14.2453 21.8887 15.7293C22.2254 17.4435 23.8703 19.1577 25.0179 18.9037C26.854 18.499 27.9251 12.9914 27.6344 8.55509C27.4431 5.52351 26.6398 3.48395 27.7951 2.38877C28.958 1.27772 31.0695 2.14275 31.1461 1.78563Z" fill="#D22333"/>
<path d="M31.1234 1.77832C31.0775 1.57198 30.8403 1.41326 30.6644 1.26247C30.4655 1.11962 30.2589 1.00058 30.0447 0.881543C29.6162 0.659333 29.1648 0.476804 28.6982 0.373635C27.7724 0.151425 26.7625 0.183169 25.9975 0.699013C25.24 1.21486 24.9111 2.16719 24.6662 3.11158C24.4367 4.07184 24.1613 5.04798 23.9853 6.00824C23.7864 6.97644 23.7711 7.96051 23.687 8.97633C23.5875 9.99215 23.3274 10.9762 23.0213 11.9365C22.8607 12.4126 22.6694 12.8809 22.4781 13.3412C22.2869 13.8015 22.0727 14.2538 21.9809 14.73C21.889 15.2061 21.9732 15.6902 22.1415 16.1505C22.3022 16.6029 22.547 17.0314 22.8377 17.4124C23.1285 17.7933 23.4727 18.1266 23.8629 18.3726C24.2455 18.6107 24.6968 18.7774 25.0564 18.6345C25.4237 18.4996 25.7373 18.1425 25.9516 17.7298C26.1887 17.3251 26.3647 16.8727 26.5177 16.4124C27.0992 14.5474 27.321 12.5476 27.3899 10.5715C27.4205 9.57947 27.3746 8.5954 27.2904 7.60339C27.2139 6.61138 27.0533 5.62731 27.0227 4.59562C27.015 4.08771 27.038 3.54806 27.2216 3.04809C27.4205 2.54812 27.8183 2.15131 28.285 1.96085C28.7517 1.77832 29.249 1.72277 29.7386 1.74657C29.9835 1.75451 30.2206 1.77832 30.4655 1.81006C30.5879 1.82593 30.7026 1.83387 30.825 1.84181C30.9322 1.84974 31.0775 1.84974 31.1234 1.77832ZM31.177 1.79419C31.0852 1.94498 30.9321 1.9053 30.8174 1.91323C30.695 1.91323 30.5726 1.89736 30.4502 1.88942C30.2053 1.87355 29.9682 1.84974 29.731 1.84974C29.2567 1.84181 28.767 1.89736 28.3462 2.11163C27.9254 2.31797 27.6041 2.6989 27.4664 3.14332C27.3363 3.59568 27.3516 4.08771 27.3975 4.57181C27.5123 5.54795 27.7036 6.53996 27.8336 7.5399C27.9713 8.54778 27.9943 9.57153 27.979 10.5873C27.9407 12.619 27.6806 14.6506 27.0303 16.595C26.862 17.0791 26.6631 17.5552 26.3876 18.0076C26.1275 18.452 25.7526 18.9043 25.1941 19.0869C24.6203 19.2694 24.0618 19.0075 23.6564 18.7139C23.2356 18.4123 22.8836 18.0314 22.5929 17.6108C22.0344 16.7775 21.606 15.7458 21.7972 14.6903C21.9043 14.1745 22.1339 13.7221 22.3328 13.2697C22.5317 12.8174 22.7 12.3492 22.853 11.873C23.1438 10.9207 23.358 9.94453 23.3886 8.95252C23.4192 7.96845 23.3733 6.93676 23.5416 5.92094C23.7176 4.91306 23.9318 3.93693 24.2072 2.96079C24.3526 2.47669 24.5132 1.98466 24.7657 1.51643C25.0029 1.0482 25.3778 0.627589 25.8368 0.365699C26.7625 -0.150146 27.8413 -0.086657 28.767 0.214913C29.2337 0.365699 29.6927 0.540292 30.1212 0.78631C30.3354 0.905351 30.542 1.04026 30.7409 1.19105C30.8862 1.36564 31.1234 1.50056 31.177 1.79419Z" fill="black"/>
<path d="M26.226 1.94431C25.438 0.468203 22.699 -0.230171 20.8705 0.984047C19.1873 2.0951 19.677 5.01557 20.0595 7.6186C20.4191 10.055 21.3066 12.1104 21.9722 13.6341C22.2935 14.3801 22.5995 15.0706 23.1121 15.9356C23.8007 17.0943 25.721 20.3798 27.0446 20.0068C28.284 19.6576 28.9267 16.7371 28.4906 14.3484C27.8938 11.047 25.6063 10.7613 25.2926 7.83287C24.9713 4.89653 27.0982 3.56327 26.226 1.94431Z" fill="#D22333"/>
<path d="M26.2033 1.95228C25.6984 1.10312 24.742 0.65076 23.8163 0.507911C22.8829 0.372998 21.896 0.539655 21.1156 1.03963C20.32 1.51579 20.0063 2.46018 19.9527 3.41251C19.9068 4.38071 19.991 5.36478 20.121 6.34886C20.3047 8.33287 20.6872 10.2772 21.4446 12.1184C21.8042 13.039 22.202 13.9595 22.6381 14.8404C23.0819 15.7213 23.6327 16.5388 24.1835 17.3562C24.7497 18.1418 25.3541 18.9434 26.0962 19.491C26.4711 19.7608 26.8689 19.8798 27.175 19.6656C27.4963 19.4434 27.7411 19.0386 27.9094 18.6101C28.2384 17.7292 28.3455 16.7451 28.3302 15.7848C28.2996 14.8246 28.1543 13.8564 27.7717 12.9993C27.4045 12.1263 26.7618 11.4279 26.1574 10.6105C25.5454 9.80898 25.1093 8.76935 25.094 7.72973C25.0328 6.69011 25.3082 5.66635 25.729 4.76958C25.9356 4.31722 26.1498 3.86487 26.2951 3.39664C26.4328 2.91254 26.4328 2.39669 26.2033 1.95228ZM26.2569 1.92847C26.5094 2.37289 26.5247 2.92841 26.3946 3.41251C26.2645 3.90455 26.0427 4.34897 25.882 4.81719C25.5224 5.73778 25.3465 6.72185 25.4765 7.68211C25.5836 8.65031 25.9815 9.50741 26.5935 10.2455C27.1979 10.9835 27.8865 11.7613 28.3149 12.7295C28.7357 13.6897 28.927 14.7373 28.9346 15.769C28.927 16.8007 28.7969 17.8403 28.4144 18.8164C28.2078 19.2926 27.94 19.7925 27.4427 20.1179C27.1979 20.2608 26.846 20.3401 26.5706 20.2449C26.2875 20.1735 26.058 20.0306 25.8437 19.8719C25.0251 19.2212 24.4819 18.372 23.9387 17.5387C23.4108 16.6895 22.9212 15.8325 22.4774 14.9357C22.049 14.031 21.6741 13.1104 21.2839 12.1977C20.9091 11.2772 20.5571 10.3407 20.2741 9.3725C19.991 8.4043 19.8303 7.40435 19.6696 6.42028C19.5396 5.42827 19.3866 4.41246 19.486 3.38077C19.5396 2.86492 19.6467 2.34114 19.8762 1.85704C20.0981 1.36501 20.5112 0.960267 20.9626 0.730121C21.8654 0.246021 22.9059 0.158724 23.8622 0.365062C24.788 0.5714 25.7519 1.03169 26.2569 1.92847Z" fill="black"/>
<path d="M26.9302 3.72996C26.8002 3.4522 26.4559 2.77763 26.7083 2.1983C27.1368 1.21423 28.9653 1.17455 30.2812 1.15074C32.3851 1.11106 33.8694 1.68246 34.382 1.89673C35.4378 2.34115 36.1799 2.65066 36.746 3.43633C37.5647 4.57912 37.4576 5.95206 37.3657 6.95994C37.2816 7.91227 36.8149 12.9041 32.8977 14.7214C32.2551 15.023 29.7916 16.1658 28.3609 15.0309C26.1269 13.2374 28.8123 7.7218 26.9302 3.72996Z" fill="#D22333"/>
<path d="M26.9073 3.7379C26.716 3.34904 26.54 2.90462 26.6012 2.44432C26.6318 2.21418 26.7466 1.9999 26.892 1.83325C27.0526 1.66659 27.2439 1.54755 27.4428 1.44438C28.2614 1.07932 29.1489 1.0317 29.9981 0.968216C31.7195 0.817431 33.5328 1.14281 35.0935 1.93642C35.8815 2.2856 36.7078 2.86494 37.098 3.71409C37.5188 4.55532 37.557 5.49971 37.4958 6.38855C37.3581 8.16623 37.0291 9.95184 36.2411 11.5787C35.4913 13.2056 34.1066 14.5865 32.4387 15.2135C31.6277 15.5468 30.7632 15.8245 29.8375 15.8166C29.3784 15.8166 28.8964 15.7134 28.4604 15.4674C28.0243 15.2214 27.7029 14.8008 27.4811 14.3643C27.0832 13.4516 27.0985 12.4993 27.1444 11.6025C27.198 10.6978 27.3051 9.82487 27.3969 8.94396C27.4811 8.06306 27.5499 7.18216 27.4964 6.30125C27.4505 5.42035 27.2515 4.54738 26.9073 3.7379ZM26.9608 3.71409C27.7106 5.33305 27.8177 7.19009 27.7871 8.96777C27.7871 9.86455 27.7106 10.7534 27.7029 11.6264C27.7106 12.4914 27.6953 13.3882 28.0319 14.1024C28.2155 14.4357 28.4451 14.7452 28.774 14.9278C29.0954 15.1103 29.4779 15.1896 29.8681 15.2055C30.6638 15.2293 31.4824 15.0071 32.2551 14.6976C33.8388 14.1262 35.1394 12.9517 35.9733 11.428C36.8149 9.91216 37.228 8.14242 37.3045 6.38061C37.3581 5.50765 37.2586 4.60293 36.8226 3.88075C36.4094 3.12683 35.6902 2.69828 34.9022 2.38877C33.3568 1.67453 31.7042 1.35708 29.9981 1.34121C29.1642 1.33328 28.2997 1.30947 27.504 1.58723C27.1138 1.72214 26.7543 2.02371 26.6777 2.45226C26.6012 2.88874 26.7696 3.32523 26.9608 3.71409Z" fill="black"/>
<path d="M28.2996 10.2376C28.0548 9.07889 27.5652 7.38057 28.4144 6.16635C28.9117 5.46798 29.4549 5.49179 30.3118 4.34899C31.008 3.42048 31.0768 2.82527 31.6047 2.71417C32.2703 2.57132 32.9436 3.35699 33.1578 3.603C33.8387 4.39661 34.0147 5.32513 34.0989 5.94414C34.4431 8.61066 33.6857 10.9677 33.6245 11.1502C32.3315 15.0151 29.4702 19.983 28.3455 19.5307C27.3892 19.1577 29.4549 15.65 28.2996 10.2376Z" fill="#ED1E25"/>
<path d="M28.2688 10.2375C28.0928 9.45187 27.8863 8.67413 27.8557 7.84878C27.8174 7.0393 28.0546 6.13459 28.7126 5.57113C29.0339 5.29337 29.3323 5.07909 29.5924 4.80927C29.8525 4.54738 30.0897 4.23787 30.2962 3.91249C30.5105 3.58711 30.6711 3.2538 30.9236 2.88874C31.046 2.70621 31.2832 2.50781 31.5433 2.46019C31.7958 2.41258 32.0483 2.46019 32.2548 2.55543C32.668 2.74589 32.9663 3.06333 33.2265 3.37284C33.4942 3.69028 33.7161 4.05534 33.8691 4.44421C34.1751 5.22988 34.2287 6.05523 34.2746 6.86471C34.2976 8.48367 34.1216 10.1185 33.609 11.666C33.1117 13.2056 32.4767 14.6897 31.7193 16.1102C31.3367 16.8165 30.9313 17.5228 30.4646 18.1895C30.235 18.5228 29.9826 18.8482 29.6918 19.1497C29.5465 19.3005 29.3935 19.4513 29.2098 19.5783C29.0262 19.7053 28.8273 19.8402 28.5213 19.864C28.3759 19.8799 28.1923 19.8243 28.0546 19.7053C27.9016 19.5783 27.848 19.4116 27.8174 19.2767C27.7639 19.0069 27.7945 18.7926 27.8098 18.5783C27.8557 18.1577 27.9322 17.7609 28.0163 17.3721C28.177 16.5864 28.3071 15.8087 28.4142 15.015C28.6284 13.4437 28.5901 11.8168 28.2688 10.2375ZM28.33 10.2296C28.6743 11.8009 28.8426 13.4199 28.7967 15.0547C28.7814 15.8721 28.6743 16.6816 28.5595 17.4832C28.506 17.88 28.4295 18.2768 28.3912 18.6577C28.3759 18.8402 28.3683 19.0307 28.3912 19.1577C28.4295 19.2847 28.4142 19.245 28.4983 19.2608C28.6896 19.2529 29.0186 18.9831 29.2634 18.7212C29.5159 18.4514 29.753 18.1419 29.9826 17.8324C30.4416 17.2054 30.8547 16.5308 31.2449 15.8483C32.0176 14.4675 32.7139 13.039 33.3106 11.5629C33.8997 10.1026 34.1598 8.47573 34.0757 6.88852C34.0298 6.09491 33.9227 5.28543 33.5784 4.595C33.4101 4.24581 33.1959 3.9363 32.9357 3.66648C32.6756 3.38871 32.3849 3.14269 32.0789 3.02365C31.7652 2.90461 31.5051 2.93636 31.3291 3.21412C31.1378 3.49982 30.9542 3.89662 30.7094 4.222C30.4722 4.55531 30.2121 4.88069 29.9061 5.15846C29.6077 5.45209 29.2405 5.65049 28.9421 5.86477C28.3377 6.28538 28.0393 7.07105 28.0087 7.85672C27.9704 8.65032 28.1617 9.44393 28.33 10.2296Z" fill="black"/>
<path d="M27.2438 7.07104C27.4044 6.9758 28.9269 6.04728 29.4854 6.58694C30.7707 7.8329 26.2033 16.261 24.9639 15.8245C23.9769 15.4833 23.8392 9.13441 27.2438 7.07104Z" fill="#D22333"/>
<path d="M27.2285 7.04724C27.6339 6.80122 28.0547 6.57901 28.5138 6.42029C28.7433 6.34093 28.9881 6.28538 29.2559 6.32506C29.539 6.36474 29.7761 6.65044 29.845 6.92026C29.9904 7.46785 29.8986 7.98369 29.7914 8.46779C29.6767 8.95983 29.5084 9.42806 29.3171 9.88041C28.9193 10.7772 28.4296 11.6184 27.94 12.4596C27.458 13.3009 26.976 14.1421 26.4175 14.9357C26.1115 15.3246 25.859 15.7452 25.3387 16.015C25.2775 16.0547 25.1857 16.0626 25.1016 16.0864C25.0098 16.0864 24.895 16.0864 24.8032 16.0309C24.6119 15.9356 24.5278 15.7928 24.4513 15.6737C24.3059 15.4198 24.2447 15.1658 24.1835 14.9119C23.9846 13.904 24.0075 12.8882 24.1605 11.9041C24.4589 9.92009 25.5836 8.02337 27.2285 7.04724ZM27.2514 7.09485C26.4404 7.58689 25.8743 8.41224 25.5147 9.27727C25.1628 10.1502 24.9103 11.0629 24.7802 11.9993C24.6502 12.9279 24.5813 13.8881 24.7267 14.8008C24.7649 15.023 24.8261 15.2452 24.9027 15.4198C24.9409 15.5071 24.9945 15.5785 25.0174 15.5864C25.0251 15.6023 25.048 15.5864 25.0633 15.6023C25.0939 15.5864 25.1245 15.6023 25.1628 15.5785C25.4994 15.4357 25.859 15.0627 26.165 14.7294C26.7847 14.023 27.3203 13.2136 27.7717 12.3644C28.2154 11.5073 28.552 10.6026 28.8657 9.69788C29.0187 9.24553 29.1641 8.79317 29.2941 8.34082C29.4089 7.88846 29.5313 7.42023 29.4854 7.00756C29.4548 6.80916 29.3707 6.65044 29.187 6.57901C28.9958 6.51552 28.7663 6.53139 28.5444 6.57107C28.093 6.65043 27.6569 6.86471 27.2514 7.09485Z" fill="black"/>
<path d="M27.1522 10.7216C26.9073 9.56298 26.4177 7.86466 27.2669 6.65044C27.7642 5.95207 28.3074 5.97587 29.1643 4.83308C29.8605 3.90456 29.9294 3.30936 30.4573 3.19825C31.1229 3.0554 31.7961 3.84107 32.0104 4.08709C32.6913 4.8807 32.8672 5.80922 32.9514 6.42823C33.2957 9.09475 32.5383 11.4518 32.477 11.6343C31.1841 15.4992 28.3227 20.4671 27.1981 20.0148C26.2417 19.6418 28.2998 16.134 27.1522 10.7216Z" fill="#D22333"/>
<path d="M27.1214 10.7296C26.9454 9.94389 26.7388 9.16615 26.7082 8.3408C26.67 7.53132 26.9071 6.62661 27.5651 6.06315C27.8864 5.78539 28.1848 5.57111 28.4449 5.30129C28.705 5.0394 28.9422 4.72989 29.1488 4.40451C29.363 4.07913 29.5237 3.74582 29.7761 3.38076C29.8985 3.19823 30.1357 2.99983 30.3958 2.95221C30.6483 2.9046 30.9008 2.95221 31.1074 3.04745C31.5205 3.23791 31.8189 3.55535 32.079 3.86486C32.3468 4.1823 32.5686 4.54736 32.7217 4.93623C33.0277 5.7219 33.0812 6.54725 33.1271 7.35673C33.1501 8.97569 32.9741 10.6105 32.4615 12.1581C31.9642 13.6976 31.3292 15.1817 30.5718 16.6022C30.1893 17.3086 29.7838 18.0149 29.3171 18.6815C29.0876 19.0148 28.8351 19.3402 28.5444 19.6418C28.399 19.7925 28.246 19.9433 28.0624 20.0703C27.8788 20.1973 27.6799 20.3322 27.3738 20.356C27.2285 20.3719 27.0448 20.3163 26.9071 20.1973C26.7541 20.0703 26.7006 19.9037 26.67 19.7687C26.6164 19.4989 26.647 19.2846 26.6623 19.0704C26.7082 18.6498 26.7847 18.2529 26.8689 17.8641C27.0295 17.0784 27.1596 16.3007 27.2667 15.5071C27.4809 13.9278 27.4427 12.3009 27.1214 10.7296ZM27.1749 10.7137C27.5192 12.285 27.6875 13.904 27.6416 15.5388C27.6263 16.3562 27.5192 17.1657 27.4044 17.9673C27.3509 18.3641 27.2744 18.7609 27.2361 19.1418C27.2208 19.3243 27.2132 19.5148 27.2361 19.6418C27.2744 19.7687 27.2591 19.7291 27.3432 19.7449C27.5345 19.737 27.8635 19.4672 28.1083 19.2053C28.3608 18.9355 28.5979 18.6259 28.8275 18.3164C29.2865 17.6895 29.6996 17.0149 30.0898 16.3324C30.8625 14.9515 31.5587 13.5231 32.1555 12.0469C32.7446 10.5867 33.0047 8.95982 32.9206 7.3726C32.8747 6.579 32.7676 5.76952 32.4233 5.07908C32.255 4.72989 32.0407 4.42039 31.7806 4.15056C31.5205 3.8728 31.2298 3.62678 30.9237 3.50774C30.6101 3.3887 30.3499 3.42044 30.174 3.6982C29.9827 3.9839 29.7991 4.3807 29.5543 4.70608C29.3171 5.0394 29.057 5.36478 28.7509 5.64254C28.4602 5.93617 28.093 6.13458 27.7946 6.34885C27.1902 6.76946 26.8918 7.55513 26.8612 8.3408C26.8153 9.13441 27.0142 9.92802 27.1749 10.7137Z" fill="black"/>
<path d="M29.126 4.53079C29.5009 4.45142 30.4572 6.0307 30.0441 7.18143C29.8375 7.74489 29.5162 7.61791 29.2331 8.2528C28.9271 8.9353 29.1719 9.38766 28.973 11.1098C28.9194 11.5542 28.8735 11.8161 28.7128 11.8716C28.468 11.9589 28.0855 11.4986 27.9095 11.1415C27.6876 10.6971 27.7029 10.2686 27.7106 10.1019C27.7642 9.37178 28.1773 8.87181 28.3456 8.62579C29.5162 6.95922 28.6746 4.62602 29.126 4.53079Z" fill="#ED1E25"/>
<path d="M29.1183 4.50769C29.3173 4.50769 29.4397 4.65848 29.5544 4.77752C29.6768 4.90449 29.761 5.04734 29.8605 5.19019C30.0441 5.48383 30.1971 5.80921 30.2889 6.15839C30.3807 6.50758 30.4037 6.91232 30.2659 7.28531C30.2047 7.47578 30.0747 7.67418 29.9217 7.80909C29.7686 7.94401 29.6692 7.99956 29.585 8.11066C29.1872 8.53128 29.1795 9.24552 29.1413 9.92802L29.0801 10.9518L29.0418 11.4676C29.0342 11.5549 29.0189 11.6501 28.9883 11.7454C28.9577 11.8327 28.9041 11.9755 28.7435 12.0311C28.4298 12.0946 28.2768 11.92 28.1314 11.8168C27.986 11.6898 27.8713 11.5549 27.7718 11.3962C27.5576 11.0867 27.4352 10.6978 27.4199 10.309C27.4046 9.92009 27.4811 9.53122 27.6341 9.18203C27.7718 8.83285 28.0396 8.53127 28.1773 8.28526C28.5139 7.77735 28.667 7.15834 28.797 6.50758C28.8582 6.1822 28.8812 5.84095 28.9041 5.4997C28.9194 5.33304 28.9194 5.15845 28.9271 4.98385C28.9653 4.83307 28.9194 4.60292 29.1183 4.50769ZM29.126 4.56324C29.0112 4.62673 29.0189 4.83307 29.0189 4.99179C29.0342 5.15845 29.0418 5.32511 29.0724 5.4997C29.1183 5.84095 29.1642 6.1822 29.1795 6.53139C29.2254 7.22976 29.0877 7.99162 28.7052 8.62651C28.4986 8.95982 28.315 9.16616 28.185 9.44392C28.0549 9.70581 27.9784 9.99945 27.9707 10.2931C27.9707 10.5867 28.0243 10.8804 28.1697 11.1422C28.2385 11.2772 28.3227 11.4041 28.4145 11.5232C28.4986 11.6343 28.6363 11.7216 28.6593 11.7216C28.6823 11.7533 28.7741 11.5708 28.8047 11.42C28.8429 11.2613 28.8735 11.0946 28.8965 10.928C28.9424 10.5947 28.9653 10.2534 28.9653 9.92009C28.9653 9.57884 28.9194 9.24552 28.9194 8.8884C28.9194 8.52334 29.0036 8.14241 29.2178 7.80116C29.3326 7.6345 29.5009 7.49165 29.6003 7.40435C29.6998 7.31706 29.7533 7.22182 29.8069 7.09485C29.9064 6.83296 29.9523 6.53139 29.9446 6.21394C29.9293 5.8965 29.8605 5.57112 29.738 5.26162C29.608 4.97592 29.4167 4.61086 29.126 4.56324Z" fill="black"/>
<path d="M30.0746 5.62671C30.3654 4.99182 28.1008 2.70623 27.0756 3.19827C25.7673 3.82522 26.8461 8.78526 26.9914 9.45189C28.0931 14.3723 30.7938 17.7451 31.0386 17.6022C31.4441 17.3721 25.775 7.53136 27.7182 5.89653C28.4374 5.30133 29.8604 6.09493 30.0746 5.62671Z" fill="#D22333"/>
<path d="M30.0441 5.61876C30.113 5.27751 29.8528 4.94419 29.6463 4.67437C29.4167 4.3966 29.1566 4.15059 28.8735 3.93631C28.5905 3.72204 28.2921 3.53157 27.9708 3.41253C27.6647 3.29349 27.2975 3.23 27.0986 3.41253C26.8844 3.57125 26.7849 3.90457 26.739 4.23788C26.6854 4.5712 26.6854 4.92832 26.6778 5.28544C26.7007 5.99969 26.7543 6.72187 26.8538 7.44405C27.0297 8.88842 27.2593 10.3407 27.7336 11.7216C28.185 13.1104 28.8429 14.4199 29.631 15.6261C30.0288 16.2213 30.4649 16.8165 30.9392 17.2848C30.9775 17.3324 31.1075 17.3959 31.031 17.3721C30.9775 17.3641 30.9392 17.38 30.8857 17.4117C30.8551 17.4356 30.8398 17.4594 30.8245 17.4911C30.8168 17.499 30.8168 17.507 30.8168 17.5229C30.8092 17.5705 30.8092 17.5387 30.8092 17.5387L30.7862 17.4435C30.7327 17.2927 30.6638 17.1261 30.595 16.9594L30.1436 15.9753C29.5239 14.6579 28.8812 13.3405 28.338 11.9676C27.8101 10.5947 27.2899 9.18999 27.1598 7.6742C27.1368 7.29327 27.1368 6.9044 27.2363 6.52347C27.3205 6.14254 27.6035 5.76954 27.9861 5.66637C28.3533 5.57114 28.7205 5.61876 29.0725 5.67431C29.2484 5.70605 29.4244 5.72986 29.6004 5.74573C29.761 5.76161 29.9676 5.76161 30.0441 5.61876ZM30.0977 5.64257C29.9829 5.84097 29.7534 5.8251 29.5927 5.81716C29.4167 5.80922 29.2408 5.77748 29.0648 5.76161C28.7205 5.72986 28.3533 5.69812 28.0396 5.8251C27.7259 5.94414 27.5423 6.23777 27.4964 6.57902C27.4429 6.92027 27.4735 7.26946 27.5347 7.61865C27.8101 9.01539 28.3609 10.3725 28.9041 11.7137C29.455 13.0549 30.0441 14.3881 30.6332 15.7293C30.7786 16.0626 30.9316 16.4039 31.0616 16.7451C31.1305 16.9197 31.1917 17.0943 31.2529 17.2927C31.2682 17.3403 31.2759 17.3959 31.2912 17.4673C31.2912 17.5149 31.3065 17.5308 31.2912 17.626C31.2835 17.6498 31.2835 17.6657 31.2759 17.6895C31.2606 17.7292 31.23 17.7689 31.1917 17.7927C31.1305 17.8482 31.054 17.8562 30.9851 17.8482C30.7403 17.7689 30.7327 17.6974 30.6409 17.626C30.1053 17.0626 29.7457 16.4277 29.3708 15.7928C27.9631 13.2215 26.9226 10.4359 26.3871 7.50754C26.28 6.77742 26.1729 6.03143 26.1729 5.27751C26.1805 4.89658 26.1958 4.51565 26.2876 4.13471C26.3641 3.76172 26.5095 3.32524 26.9073 3.07922C27.3205 2.84114 27.7489 3.00779 28.0702 3.15858C28.4069 3.32524 28.6976 3.55538 28.9654 3.8014C29.2331 4.05535 29.4856 4.30931 29.7075 4.61088C29.9064 4.91245 30.1895 5.22989 30.0977 5.64257Z" fill="black"/>
<path d="M27.1599 2.98399C26.4484 1.65867 23.9925 1.03172 22.3476 2.11896C20.3355 3.45222 20.4808 6.72981 21.6208 8.07894C22.6154 9.25348 24.5357 9.15825 24.5816 9.93598C24.5969 10.2931 24.1991 10.4121 23.8701 10.9042C22.8755 12.3724 24.0537 14.8801 24.3674 15.5468C24.9794 16.8562 26.632 19.5624 27.8943 19.2053C29.0113 18.8958 29.5851 16.269 29.195 14.1183C28.6594 11.1502 26.6014 10.8962 26.3183 8.26941C26.0352 5.63463 27.9403 4.43629 27.1599 2.98399Z" fill="#ED1E25"/>
<path d="M27.1372 2.99985C26.6552 2.19831 25.7448 1.79357 24.8726 1.6904C23.9851 1.59517 23.067 1.8015 22.3785 2.33322C21.6976 2.87287 21.2538 3.69029 21.1238 4.57119C20.9861 5.44416 21.0396 6.38061 21.3762 7.19803C21.5369 7.60277 21.7664 7.97576 22.0954 8.25353C22.4167 8.53922 22.8222 8.72969 23.2354 8.90428C23.6485 9.09475 24.0999 9.18998 24.5054 9.53917C24.7196 9.71376 24.7731 10.1185 24.5589 10.3248C24.3906 10.5232 24.207 10.6502 24.0693 10.8169C23.4802 11.5073 23.5031 12.539 23.7097 13.4199C23.9163 14.3246 24.3218 15.1738 24.7655 15.9833C25.2245 16.7848 25.7524 17.5467 26.3645 18.1974C26.6705 18.5149 27.0225 18.8006 27.382 18.9196C27.7416 19.0545 28.0476 18.9117 28.2925 18.5783C28.7668 17.9038 28.9428 16.9594 29.004 16.0706C29.0499 15.1658 28.981 14.2453 28.7056 13.404C28.4531 12.5469 27.9099 11.8486 27.3361 11.1105C26.7547 10.3883 26.2191 9.45981 26.1579 8.4678C26.0432 7.49166 26.265 6.49966 26.6552 5.64256C26.8465 5.21401 27.0531 4.78547 27.1984 4.34898C27.3438 3.89663 27.3514 3.41253 27.1372 2.99985ZM27.1908 2.96811C27.4279 3.38872 27.4356 3.9125 27.2979 4.36485C27.1678 4.82515 26.9536 5.24576 26.8082 5.69018C26.4869 6.56314 26.3492 7.4996 26.5328 8.39638C26.6782 9.30109 27.1525 10.0471 27.7569 10.7375C28.3613 11.428 28.9657 12.2454 29.2641 13.1977C29.5701 14.1421 29.6772 15.1341 29.5931 16.1102C29.5013 17.0784 29.333 18.0704 28.7056 18.9275C28.5373 19.1259 28.3384 19.3323 28.0476 19.4275C27.7722 19.5307 27.4585 19.5148 27.2137 19.4116C26.7088 19.2212 26.3492 18.872 26.0279 18.5149C25.3852 17.7927 24.9032 16.9753 24.4748 16.134C24.054 15.2849 23.7097 14.396 23.5031 13.4596C23.3119 12.5469 23.2889 11.4676 23.9086 10.674C24.0616 10.4836 24.2529 10.3328 24.383 10.1741C24.513 10.0233 24.4748 9.8328 24.3294 9.70583C24.0157 9.45981 23.5414 9.36458 23.113 9.20585C22.6769 9.05507 22.2331 8.87254 21.8353 8.57097C21.4375 8.2694 21.1314 7.84085 20.9325 7.38849C20.55 6.46791 20.4276 5.44416 20.6265 4.46802C20.8024 3.49982 21.3303 2.54749 22.1643 2.01578C22.9829 1.48406 23.9775 1.35708 24.8803 1.52374C25.783 1.69834 26.7164 2.11895 27.1908 2.96811Z" fill="black"/>
<path d="M36.0962 5.30847C36.8919 4.96722 39.6232 8.34798 39.3937 10.3003C39.3707 10.4987 39.2866 10.9828 39.5544 11.3319C39.9063 11.7922 40.5566 11.6097 40.7173 11.9589C40.9315 12.3954 40.1435 13.2128 40.0746 13.2922C38.9959 14.3953 37.7794 13.5144 35.3924 14.3715C34.4284 14.7127 33.9158 15.0936 33.648 15.3238C32.9442 15.919 32.6458 16.5142 32.3551 16.9586C31.5517 18.2046 30.1593 19.4823 28.874 19.7362C26.4946 20.2045 23.7098 18.6887 23.5032 16.9586C23.2737 15.0143 26.3952 13.1731 27.6422 12.4351C30.4041 10.8082 31.7813 11.3081 33.5868 9.51459C34.5355 8.57019 35.4383 7.67342 35.7749 6.22906C35.905 5.70527 35.882 5.4037 36.0962 5.30847Z" fill="#D22333"/>
<path d="M36.0809 5.28543C36.3563 5.19813 36.5935 5.37272 36.8077 5.4997C37.0219 5.64255 37.2132 5.81714 37.3892 5.99174C37.7564 6.34886 38.0701 6.7536 38.3761 7.17421C38.9575 8.01543 39.5084 8.94395 39.5772 10.0629C39.5926 10.3566 39.539 10.6026 39.5696 10.8169C39.6002 11.0311 39.692 11.2057 39.8374 11.3089C39.9904 11.42 40.2046 11.4438 40.48 11.5152C40.6101 11.547 40.8167 11.6343 40.9314 11.8486C41.0309 12.0628 40.9926 12.2692 40.9467 12.4199C40.8396 12.7215 40.6866 12.9517 40.5183 13.1659C40.35 13.3723 40.1587 13.5786 39.9215 13.7453C39.4472 14.0945 38.8581 14.15 38.3684 14.1659C37.3586 14.1579 36.4022 14.2056 35.4612 14.523C34.9945 14.6738 34.5354 14.8643 34.1223 15.1182C33.7092 15.3801 33.3419 15.7213 33.0283 16.1102C32.7222 16.4991 32.4774 16.9594 32.1714 17.38C31.873 17.8006 31.5287 18.1895 31.1538 18.5387C30.4117 19.2212 29.5166 19.864 28.4608 19.9592C27.4356 20.0703 26.3875 19.9116 25.4388 19.4672C24.9644 19.245 24.513 18.9672 24.1152 18.5942C23.725 18.2212 23.3807 17.745 23.2583 17.1578C23.1359 16.5626 23.3119 15.9515 23.5873 15.4753C23.8627 14.9912 24.2223 14.5865 24.6049 14.2214C25.3623 13.4913 26.2421 12.9437 27.1066 12.412C27.9712 11.8882 28.9045 11.4121 29.8838 11.1105C30.8555 10.801 31.8118 10.5867 32.6381 10.0629C33.0512 9.80898 33.4261 9.4836 33.7933 9.13442C34.1606 8.78523 34.5201 8.43604 34.8338 8.03924C35.1552 7.65037 35.4076 7.20595 35.5836 6.72979C35.6677 6.49171 35.7443 6.24569 35.7902 5.99174L35.8667 5.6108C35.8973 5.4997 35.9432 5.34098 36.0809 5.28543ZM36.1038 5.34098C35.9049 5.46002 35.9279 5.77746 35.8667 6.01554C35.8208 6.2695 35.7596 6.52345 35.6754 6.76947C35.5071 7.26151 35.247 7.7218 34.9562 8.15034C34.6579 8.57889 34.3212 8.95982 33.9693 9.34075C33.6327 9.71375 33.2578 10.0947 32.837 10.4042C31.9954 11.0549 30.9626 11.3168 30.0521 11.6581C29.1264 11.9993 28.2542 12.4199 27.405 12.9517C26.5558 13.4675 25.7295 14.031 25.0103 14.6897C24.3141 15.3325 23.6332 16.1816 23.8015 17.0546C23.9775 17.9276 24.8038 18.6259 25.6377 19.0466C26.4946 19.483 27.4739 19.7053 28.4378 19.6418C29.4018 19.5941 30.2893 19.0624 31.0238 18.3879C31.391 18.0466 31.7353 17.6736 32.0337 17.2689C32.3397 16.8721 32.5616 16.4039 32.8752 15.9832C33.495 15.142 34.413 14.5627 35.3617 14.2056C36.3104 13.8246 37.3662 13.7056 38.3531 13.6738C38.8428 13.65 39.3018 13.5865 39.6461 13.3167C39.9827 13.0707 40.327 12.6183 40.48 12.2612C40.5106 12.166 40.5106 12.1025 40.503 12.0787C40.4953 12.0628 40.4571 12.0231 40.35 11.9914C40.1511 11.9279 39.8527 11.8882 39.5849 11.6898C39.3171 11.4994 39.1718 11.1581 39.1565 10.8645C39.1335 10.5629 39.2177 10.2851 39.21 10.0709C39.2253 9.10267 38.7586 8.12654 38.246 7.26944C37.9859 6.83296 37.6646 6.43615 37.3203 6.0711C37.1443 5.88857 36.9607 5.71397 36.7618 5.57112C36.5705 5.43621 36.3334 5.26955 36.1038 5.34098Z" fill="black"/>
<path d="M16.556 71.4643C15.1942 66.0916 14.4521 60.5443 14.2455 54.9652C14.1614 52.1717 14.2226 49.3782 14.4291 46.5847C14.6434 43.7992 15.0029 41.0136 15.4926 38.2598C16.5101 32.7601 17.8873 27.2604 20.2743 22.1892C22.6307 17.126 25.5915 12.3565 29.2791 8.27733L29.4627 8.42018C26.8079 13.2612 24.3827 18.118 22.3706 23.1654C20.3661 28.1969 18.484 33.3077 17.2905 38.6486C16.7014 41.3152 16.2424 44.0134 15.9134 46.7355C15.5997 49.4576 15.4314 52.2034 15.3931 54.9493C15.286 60.449 15.7757 65.9646 16.7779 71.4008L16.556 71.4643Z" fill="#1E6F5D"/>
<path d="M23.3646 19.6815C23.3799 19.4672 23.4946 16.9198 21.253 14.9278C19.3326 13.2216 16.5019 12.6502 14.375 13.6342C14.5204 14.1183 15.2089 16.2452 17.4812 17.9356C20.2048 19.9672 22.982 19.7212 23.3646 19.6815Z" fill="#3E9581"/>
<path d="M23.342 19.6577C23.2501 18.618 22.9212 17.5625 22.3856 16.6816C21.8577 15.7849 21.1003 15.0786 20.274 14.4754C19.4401 13.8723 18.4761 13.4358 17.4433 13.2929C16.4181 13.166 15.3546 13.3247 14.4519 13.8088L14.5513 13.5786C15.2093 15.396 16.4946 16.9118 18.0477 17.9593C18.8204 18.4911 19.6696 18.9117 20.5648 19.1894C21.4522 19.4751 22.4239 19.6339 23.342 19.6577ZM23.3879 19.6973C22.4009 19.8957 21.4293 19.8243 20.4576 19.6259C19.5013 19.3958 18.5603 19.0387 17.7264 18.4752C16.8848 17.9355 16.1427 17.2292 15.5383 16.4118C14.9339 15.6023 14.4595 14.6818 14.207 13.6818L14.1611 13.5072L14.3065 13.4517C15.324 13.0549 16.4181 12.9834 17.4662 13.1025C18.5144 13.2374 19.5702 13.5152 20.5112 14.0707C21.4675 14.6103 22.2403 15.4595 22.7682 16.4436C23.2884 17.4514 23.5409 18.5704 23.3879 19.6973Z" fill="black"/>
<path d="M23.4192 19.6815C23.1668 19.4117 22.8607 19.1101 22.5165 18.7847C22.1875 18.4673 20.9634 17.3165 19.6016 16.3483C17.6047 14.9278 15.5543 14.0707 14.3838 13.6342C14.5521 14.2056 15.1948 16.0785 17.1304 17.6657C19.9382 19.9672 23.052 19.7212 23.4192 19.6815Z" fill="#1E6F5D"/>
<path d="M23.3882 19.6736L21.2766 17.9594C20.5727 17.3721 19.8383 16.8483 19.1114 16.3166C18.3846 15.7849 17.6349 15.2611 16.8392 14.8167C16.0435 14.3882 15.2019 14.039 14.3374 13.7771L14.521 13.5946C14.8577 14.5151 15.3703 15.3484 15.967 16.0865C16.5638 16.8325 17.2982 17.4515 18.0786 17.9673C18.859 18.4911 19.7082 18.9038 20.6186 19.1815C21.4985 19.4672 22.4777 19.6101 23.3882 19.6736ZM23.4417 19.6894C22.4318 19.9037 21.4679 19.8244 20.4962 19.6339C19.5322 19.4276 18.5912 19.0466 17.742 18.499C16.0588 17.4039 14.7353 15.6659 14.2456 13.6739L14.1768 13.3803L14.4292 13.4914C15.2708 13.8564 16.0971 14.2294 16.9234 14.6183C17.7573 14.9992 18.5912 15.3881 19.3716 15.8801C20.1596 16.3722 20.8558 16.9912 21.5444 17.6023C21.881 17.9197 22.2023 18.253 22.5237 18.5863C22.8756 18.9514 23.1816 19.3879 23.4417 19.6894Z" fill="black"/>
<path d="M26.6549 10.5947C26.3489 10.3566 26.8692 8.57099 27.9785 8.14244C28.5294 7.92817 28.6441 8.26942 29.2868 8.07102C29.983 7.85674 30.1513 7.37264 31.5361 6.39651C31.888 6.14255 32.1175 6.00764 32.2629 6.09494C32.4848 6.22985 32.4006 6.82506 32.2629 7.20599C32.0869 7.67421 31.7656 7.94404 31.6355 8.04721C31.0694 8.48369 30.4344 8.49957 30.1513 8.52337C28.1621 8.69003 27.0145 10.8804 26.6549 10.5947Z" fill="#D22333"/>
<path d="M26.6318 10.6185C26.4941 10.4597 26.5323 10.2693 26.54 10.1026C26.5553 9.92803 26.6012 9.76138 26.6394 9.58678C26.7312 9.24553 26.8689 8.92015 27.0602 8.61858C27.2591 8.31701 27.5269 8.03131 27.8941 7.88846C28.0701 7.8091 28.2996 7.77736 28.4985 7.81704C28.6898 7.84878 28.8046 7.88846 28.9423 7.88846C29.5084 7.92021 30.0287 7.45992 30.5566 7.0393L31.3446 6.41236L31.7501 6.10285C31.8189 6.05523 31.8954 5.99968 31.9872 5.96C32.0714 5.92032 32.2091 5.8727 32.3545 5.96C32.6069 6.1584 32.5763 6.39648 32.5993 6.57901C32.5993 6.76948 32.5763 6.95201 32.5304 7.13454C32.4386 7.50753 32.2397 7.85672 31.9719 8.11861C31.7042 8.38844 31.3675 8.5789 31.0156 8.69001C30.6713 8.81698 30.2735 8.80111 30.0057 8.85666C29.4166 8.92809 28.8658 9.21379 28.3073 9.53917C28.0318 9.70582 27.7641 9.90422 27.5039 10.1106C27.3739 10.2137 27.2515 10.3248 27.1138 10.428C26.976 10.5232 26.8383 10.7058 26.6318 10.6185ZM26.67 10.5709C26.7924 10.6185 26.9378 10.4756 27.0526 10.3725C27.1673 10.2534 27.2821 10.1344 27.3892 9.99946C27.6034 9.73757 27.8253 9.47568 28.0701 9.2376C28.5521 8.73762 29.1871 8.34876 29.9063 8.23765C30.2888 8.17416 30.5566 8.1821 30.8396 8.10274C31.1227 8.03131 31.3828 7.90434 31.5971 7.71387C31.8113 7.52341 31.9872 7.28532 32.0867 6.99962C32.1403 6.85678 32.1785 6.70599 32.2015 6.55521C32.2244 6.41236 32.2015 6.25363 32.1862 6.23776C32.1938 6.19808 32.0025 6.2457 31.8725 6.32506C31.7348 6.39648 31.5894 6.49172 31.4593 6.57901C31.1839 6.76154 30.9238 6.96788 30.679 7.19009C30.4342 7.4123 30.2199 7.66625 29.9598 7.90434C29.692 8.15035 29.3631 8.33288 28.9729 8.3805C28.774 8.40431 28.5674 8.36463 28.4373 8.34082C28.3073 8.32495 28.2078 8.34082 28.0777 8.3805C27.8253 8.47573 27.5728 8.63445 27.3509 8.85666C27.1291 9.07887 26.9378 9.3487 26.7924 9.64233C26.6547 9.92803 26.517 10.3169 26.67 10.5709Z" fill="black"/>
<path d="M23.8625 8.92742C25.538 8.03064 29.2562 9.59405 31.4367 11.1733C32.0105 11.586 32.898 12.3082 33.4718 11.9987C34.3287 11.5304 33.7319 9.17344 34.2598 9.03059C34.5964 8.93535 35.2697 9.7369 35.3844 10.6416C35.5451 11.8638 34.6194 12.8478 33.8773 13.7446C30.4804 17.8555 31.2225 19.6332 29.2639 20.2998C27.3818 20.9426 25.1708 19.8316 23.939 18.5142C21.1542 15.562 21.8427 10.0067 23.8625 8.92742Z" fill="#ED1E25"/>
<path d="M23.8627 8.92012C24.6966 8.51538 25.6529 8.63442 26.5175 8.81695C27.3973 9.02329 28.2465 9.34073 29.0728 9.72166C29.8914 10.1105 30.6871 10.5549 31.4369 11.0787C31.8117 11.3406 32.1637 11.6263 32.5615 11.8247C32.9364 12.039 33.4413 12.1025 33.6708 11.7057C33.8774 11.3247 33.9004 10.8406 33.9233 10.3883L33.9539 9.68992C33.9922 9.46771 33.9539 9.18995 34.1987 9.00742C34.3365 8.93599 34.4665 9.00742 34.566 9.06297C34.6654 9.12646 34.7572 9.21375 34.8338 9.30105C34.9868 9.47565 35.1092 9.68198 35.2086 9.89626C35.4076 10.3248 35.4917 10.8089 35.4076 11.2851C35.2316 12.2374 34.5813 12.9516 34.0075 13.658C33.4337 14.3722 32.8752 15.1023 32.3855 15.88C31.8959 16.6578 31.4828 17.4831 31.1079 18.3323C30.9166 18.7529 30.7253 19.1815 30.4499 19.5703C30.1745 19.9592 29.7614 20.2449 29.3253 20.3877C28.4454 20.6972 27.4891 20.6338 26.6169 20.356C25.7447 20.0782 24.9414 19.5941 24.2452 18.9831C23.5643 18.3561 22.9905 17.5863 22.6462 16.7133C22.2943 15.8404 22.103 14.9118 22.0495 13.9754C22.0036 13.0389 22.0954 12.0945 22.3478 11.1978C22.608 10.2851 23.067 9.38835 23.8627 8.92012ZM23.8703 8.93599C23.09 9.42009 22.6539 10.3089 22.4243 11.1898C22.1872 12.0866 22.1107 13.0231 22.1795 13.9436C22.3096 15.7769 23.0287 17.6101 24.3829 18.8164C25.0562 19.4116 25.8365 19.8878 26.6858 20.1576C27.5274 20.4274 28.4454 20.4909 29.2794 20.1973C29.7001 20.0624 30.0674 19.8005 30.3275 19.4433C30.5953 19.0862 30.7865 18.6656 30.9855 18.245C31.3756 17.4038 31.8041 16.5784 32.309 15.8007C32.8063 15.023 33.3725 14.2928 33.9616 13.5865C34.543 12.8961 35.1933 12.1818 35.3464 11.2533C35.4229 10.801 35.331 10.3327 35.1321 9.92006C35.0327 9.71373 34.9103 9.52326 34.7649 9.3566C34.6272 9.20582 34.413 9.01535 34.2523 9.09471C34.1069 9.18995 34.0916 9.46771 34.0763 9.68198L34.0534 10.3804C34.0304 10.8406 34.0304 11.3327 33.7933 11.7771C33.6708 11.9914 33.426 12.158 33.1736 12.1501C32.9287 12.158 32.6992 12.0707 32.4926 11.9676C32.0719 11.7612 31.7123 11.4755 31.345 11.2057C30.6106 10.674 29.8302 10.2137 29.0269 9.8169C28.2159 9.42803 27.3743 9.09471 26.5022 8.8725C25.6453 8.68204 24.6966 8.54713 23.8703 8.93599Z" fill="black"/>
<path d="M24.2453 9.33283C25.9208 8.43605 29.6391 9.99946 31.8195 11.5787C32.3933 11.9914 33.2808 12.7136 33.8546 12.4041C34.7115 11.9359 34.1147 9.57885 34.6426 9.436C34.9792 9.34076 35.6525 10.1423 35.7673 11.047C35.9279 12.2692 35.0022 13.2532 34.2601 14.15C30.8632 18.2609 31.6053 20.0386 29.6467 20.7052C27.7646 21.348 25.5536 20.237 24.3218 18.9196C21.537 15.9753 22.2256 10.4201 24.2453 9.33283Z" fill="#D22333"/>
<path d="M24.2294 9.30899C25.071 8.88838 26.0274 9.02329 26.9072 9.18202C27.7947 9.35661 28.6668 9.65024 29.5084 10.0074C30.35 10.3645 31.1533 10.8168 31.9184 11.3406C32.3009 11.6025 32.6452 11.8803 33.0201 12.0707C33.4026 12.2691 33.7469 12.3088 33.9152 12.0152C34.0912 11.7057 34.1447 11.2295 34.1753 10.7772L34.2212 10.0709C34.2365 9.95181 34.2518 9.82484 34.2824 9.69786C34.3207 9.57882 34.3513 9.40423 34.5426 9.30106C34.7415 9.20582 34.9021 9.30899 35.0093 9.37248C35.1164 9.45184 35.2082 9.53914 35.2923 9.63437C35.453 9.82484 35.5754 10.0391 35.6672 10.2613C35.8661 10.6978 35.9503 11.2057 35.8661 11.6898C35.6749 12.6659 35.0169 13.3881 34.4508 14.0944C33.8693 14.8007 33.3414 15.5547 32.8671 16.3324C32.3927 17.1181 32.0102 17.9434 31.643 18.7926C31.4517 19.2132 31.2681 19.6576 30.9773 20.0703C30.6943 20.4909 30.2352 20.8084 29.7762 20.9591C28.8505 21.3004 27.8482 21.229 26.9531 20.9512C26.0427 20.6734 25.224 20.1576 24.5125 19.5306C23.8087 18.8799 23.2196 18.0783 22.8753 17.1816C22.5233 16.2848 22.3321 15.3245 22.3168 14.3722C22.3015 13.4199 22.4162 12.4675 22.6993 11.5708C22.9671 10.6819 23.4185 9.77722 24.2294 9.30899ZM24.26 9.36455C23.495 9.84865 23.0589 10.7295 22.8447 11.6184C22.6305 12.5152 22.5922 13.4437 22.684 14.3484C22.8676 16.1499 23.5791 17.9196 24.8874 19.0704C25.5377 19.6497 26.3104 20.0941 27.1137 20.3639C27.9247 20.6338 28.7969 20.7052 29.5849 20.4354C30.4035 20.2131 30.8167 19.4354 31.2145 18.5942C31.6124 17.753 32.0714 16.9276 32.5916 16.1578C33.1042 15.3801 33.701 14.6738 34.2824 13.9595C34.8639 13.2691 35.5142 12.5548 35.6519 11.6581C35.7208 11.2216 35.6366 10.7692 35.4377 10.3724C35.3382 10.174 35.2158 9.99149 35.0705 9.84071C34.9481 9.68992 34.7032 9.55501 34.6726 9.61056C34.6191 9.6185 34.5732 9.9042 34.5655 10.1105L34.5579 10.801C34.5426 11.2692 34.5655 11.7692 34.3054 12.285C34.1677 12.539 33.8464 12.7532 33.5556 12.7453C33.2573 12.7532 33.0201 12.6501 32.7982 12.5469C32.3545 12.3326 31.9872 12.039 31.6277 11.7692C30.9085 11.2375 30.1358 10.7851 29.3478 10.3486C28.5521 9.93594 27.7258 9.57882 26.8689 9.3328C26.0197 9.11059 25.0787 8.98361 24.26 9.36455Z" fill="black"/>
<path d="M26.5172 1.59513C26.4254 1.03167 24.5969 0.690421 24.2679 1.2142C24.0308 1.60307 24.7805 2.16653 24.7805 3.42043C24.7805 4.03944 24.5969 4.17435 24.4898 4.80924C24.3444 5.69808 24.5587 6.30122 25.0789 7.95986C26.0812 11.1581 25.8899 10.9041 26.1347 11.3803C26.8998 12.8326 27.3818 12.658 28.407 14.269C29.1797 15.4912 29.9601 16.7213 29.6846 18.1101C29.3862 19.6417 27.9862 20.4988 27.4812 20.7766C26.6167 20.5782 25.2396 20.1576 23.8166 19.1418C22.8296 18.4434 20.3431 16.6737 20.2743 14.3008C20.2054 12.2057 22.1028 12.1025 22.8985 8.93599C23.5335 6.42026 22.623 5.34096 23.6865 3.82517C24.7805 2.27763 26.6014 2.16653 26.5172 1.59513Z" fill="#D22333"/>
<path d="M26.4864 1.6031C26.4175 1.37295 26.165 1.25391 25.9432 1.16661C25.7136 1.07931 25.4688 1.0317 25.224 1.01583C24.9792 0.999954 24.7267 1.00789 24.5125 1.09519C24.4054 1.1428 24.3136 1.21423 24.2906 1.30946C24.2677 1.41263 24.3136 1.52373 24.3595 1.63484C24.5813 2.07926 24.8338 2.5713 24.8874 3.11095C24.918 3.38077 24.9333 3.6506 24.8721 3.92836C24.8185 4.20612 24.7267 4.43627 24.6885 4.67435C24.4895 5.63462 24.9103 6.58694 25.2163 7.56308C25.553 8.53922 25.8284 9.53123 26.0962 10.5312C26.1727 10.7931 26.2109 11.0153 26.3104 11.2137C26.4175 11.4359 26.5323 11.6581 26.67 11.8565C26.9301 12.2692 27.2897 12.5945 27.6416 12.9834C27.9859 13.3723 28.2843 13.8008 28.5444 14.2452C28.8045 14.6897 29.0799 15.1182 29.3018 15.5864C29.7685 16.4991 30.021 17.6339 29.6231 18.6418C29.233 19.6418 28.422 20.3798 27.5422 20.8957L27.4962 20.9195L27.4427 20.9115C26.4175 20.7052 25.4153 20.3481 24.4895 19.8322C23.5714 19.2926 22.7146 18.6894 21.9266 17.9514C21.1538 17.2133 20.4423 16.3245 20.1133 15.2134C19.9603 14.6579 19.9068 14.0627 20.0521 13.4675C20.1975 12.8723 20.5571 12.3803 20.8937 11.9755C21.5976 11.1819 22.1408 10.3566 22.4774 9.38044C22.8217 8.4043 22.9517 7.38055 22.9441 6.32505C22.9517 5.79334 22.9441 5.22988 23.1124 4.69022C23.2731 4.15057 23.6097 3.69822 23.9846 3.31729C24.3671 2.94429 24.8109 2.64272 25.2699 2.40464L25.9661 2.06339C26.0809 2.00783 26.1956 1.94435 26.2951 1.87292C26.4022 1.81737 26.5093 1.72214 26.4864 1.6031ZM26.5399 1.58722C26.5705 1.74594 26.4481 1.87292 26.3486 1.94435C26.2415 2.03164 26.1268 2.09513 26.012 2.15862L25.3235 2.52368C24.8721 2.77763 24.4436 3.06333 24.107 3.46013C23.7704 3.849 23.4873 4.29342 23.3802 4.78546C23.2578 5.27749 23.3037 5.80127 23.3343 6.33299C23.4337 7.40436 23.319 8.53128 23.0053 9.58678C22.6916 10.6502 22.0337 11.6105 21.3528 12.3961C21.0238 12.8009 20.7484 13.1898 20.6412 13.6421C20.5418 14.0865 20.5724 14.5944 20.6871 15.0627C20.9473 16.015 21.5746 16.8483 22.2938 17.5625C23.0206 18.2609 23.8545 18.9117 24.7114 19.4513C25.5836 19.9751 26.5246 20.3798 27.5115 20.6258L27.4121 20.6338C28.269 20.1894 29.0799 19.5148 29.4472 18.5783C29.6308 18.118 29.692 17.6101 29.6231 17.1102C29.5466 16.6102 29.3554 16.142 29.1258 15.6975C28.6362 14.8166 28.093 13.9357 27.4044 13.2374C26.6853 12.5787 25.8743 11.7692 25.6371 10.674C25.3694 9.68995 25.0327 8.72175 24.7497 7.72974C24.6043 7.2377 24.4513 6.74567 24.3365 6.22189C24.2065 5.70604 24.2141 5.11877 24.3518 4.59499C24.413 4.32517 24.5278 4.07915 24.589 3.85694C24.6502 3.63473 24.6578 3.38077 24.6425 3.13476C24.6196 2.63478 24.4283 2.17449 24.2294 1.69039C24.1912 1.56342 24.1376 1.42057 24.1835 1.26978C24.2294 1.11106 24.3671 1.0317 24.4819 0.976146C24.7344 0.880913 24.9945 0.880913 25.2393 0.904722C25.4918 0.92853 25.7366 0.984082 25.9738 1.07931C26.1956 1.19042 26.4634 1.30152 26.5399 1.58722Z" fill="black"/>
<path d="M15.8525 40.2914C15.8372 40.0057 15.6842 36.5932 18.6756 33.9346C21.2462 31.649 25.0333 30.8951 27.8717 32.2045C27.6804 32.8473 26.7547 35.6964 23.7174 37.9661C20.0756 40.6723 16.3727 40.3469 15.8525 40.2914Z" fill="#3E9581"/>
<path d="M15.8142 40.3311C15.6383 39.5216 15.6842 38.8153 15.7989 38.0534C15.9213 37.3074 16.1585 36.5694 16.5104 35.8948C17.199 34.5377 18.2778 33.3632 19.586 32.6648C20.8866 31.9427 22.325 31.6252 23.7327 31.4427C25.1481 31.3078 26.6093 31.3395 28.0171 31.8554L28.3002 31.9585L28.2236 32.3156C27.9176 33.6807 27.2903 34.9425 26.4716 36.0456C26.0662 36.6011 25.6071 37.117 25.1175 37.6011C24.6125 38.0614 24.0846 38.4978 23.5032 38.8629C22.3632 39.6089 21.0779 40.1009 19.7773 40.3708C18.4537 40.6009 17.1608 40.6803 15.8142 40.3311ZM15.8907 40.2517C17.0996 40.1406 18.3925 39.9105 19.5554 39.4898C20.726 39.0772 21.843 38.5296 22.8529 37.8153C23.8628 37.109 24.8038 36.2916 25.6071 35.3314C26.3951 34.3632 27.0454 33.268 27.5198 32.0934L27.7187 32.5537C26.5558 31.895 25.1404 31.6173 23.7786 31.8077C22.4091 31.9982 21.1391 32.649 20.068 33.4584C18.9969 34.2838 18.01 35.2044 17.2985 36.363C16.5717 37.4979 16.1126 38.8867 15.8907 40.2517Z" fill="black"/>
<path d="M15.7842 40.2993C16.1285 39.9422 16.5263 39.5374 16.993 39.093C17.4367 38.6724 19.0663 37.1328 20.8948 35.8313C23.5649 33.9267 26.3115 32.7839 27.8723 32.2045C27.6427 32.9664 26.7935 35.4742 24.1923 37.601C20.4434 40.6802 16.2662 40.3469 15.7842 40.2993Z" fill="#1E6F5D"/>
<path d="M15.7305 40.3152C15.8911 40.1088 16.0594 39.8628 16.2507 39.585C16.442 39.3152 16.6792 38.9978 16.8934 38.7676C17.2989 38.2915 17.7349 37.847 18.1787 37.4106C19.0738 36.5535 20.0302 35.7361 21.0936 35.0853C22.1647 34.4425 23.3123 33.9663 24.4293 33.4743C25.5463 32.9743 26.6556 32.4664 27.765 31.9347L28.2623 31.6966L28.1246 32.2918C27.8185 33.6409 27.26 34.9424 26.4338 36.0535C25.6228 37.1725 24.6206 38.1566 23.473 38.8946C22.3177 39.6327 21.04 40.1485 19.7165 40.3866C19.0585 40.5215 18.3929 40.5691 17.7273 40.5771C17.3983 40.585 17.0617 40.5612 16.7404 40.5215L16.2507 40.458C16.0901 40.4183 15.9753 40.4342 15.7305 40.3152ZM15.8376 40.2755C15.9141 40.1882 16.1207 40.2199 16.2737 40.1882L16.748 40.1326L17.689 39.966C18.3088 39.8549 18.9132 39.6565 19.5099 39.466C20.6958 39.0613 21.8128 38.5137 22.8303 37.8153C23.8555 37.1328 24.8271 36.3392 25.6228 35.3631C26.4108 34.3949 27.1376 33.3235 27.6043 32.1172L27.9639 32.4743C26.801 32.7918 25.6687 33.2441 24.6129 33.8393C23.5571 34.4425 22.5855 35.1885 21.6291 35.9186C20.6652 36.6328 19.7012 37.355 18.7372 38.101L17.2912 39.22C17.054 39.4104 16.8704 39.5374 16.6256 39.6961C16.3808 39.8628 16.113 40.0453 15.8376 40.2755Z" fill="black"/>
<path d="M14.8581 34.625C14.8734 34.3393 15.0264 30.9268 12.035 28.2683C9.46436 25.9827 5.67727 25.2287 2.83887 26.5382C3.03013 27.181 3.95587 30.0301 6.99319 32.2998C10.6273 35.006 14.3378 34.6806 14.8581 34.625Z" fill="#3E9581"/>
<path d="M14.8119 34.5854C14.59 33.2283 14.1387 31.8316 13.4118 30.7047C12.7003 29.546 11.7134 28.6254 10.6423 27.8001C9.5712 26.9826 8.30118 26.3319 6.93171 26.1494C5.56989 25.9589 4.15451 26.2366 2.99161 26.8953L3.19053 26.4351C3.66487 27.6096 4.31518 28.7048 5.1032 29.673C5.89887 30.6332 6.84755 31.4427 7.85744 32.157C8.86733 32.8712 9.97668 33.4188 11.1549 33.8315C12.3101 34.2441 13.6031 34.4743 14.8119 34.5854ZM14.8961 34.6647C13.5495 35.0139 12.2566 34.9346 10.933 34.7044C9.6324 34.4346 8.34709 33.9426 7.20713 33.1966C6.62568 32.8395 6.09778 32.403 5.59284 31.9347C5.1032 31.4506 4.65181 30.9348 4.23867 30.3793C3.42005 29.2682 2.78504 28.0143 2.48666 26.6493L2.41016 26.2922L2.68558 26.189C4.09331 25.6732 5.55459 25.6414 6.96996 25.7764C8.37769 25.951 9.81602 26.2763 11.1166 26.9985C12.4249 27.7048 13.496 28.8714 14.1922 30.2285C14.5441 30.9031 14.7813 31.6411 14.9037 32.3871C15.0261 33.149 15.072 33.8553 14.8961 34.6647Z" fill="black"/>
<path d="M14.926 34.633C14.5817 34.2759 14.1839 33.8711 13.7172 33.4267C13.2734 33.0061 11.6438 31.4665 9.81531 30.165C7.14522 28.2603 4.39863 27.1175 2.83789 26.5382C3.06741 27.3001 3.91664 29.8079 6.51787 31.9347C10.2667 35.0139 14.4363 34.6727 14.926 34.633Z" fill="#1E6F5D"/>
<path d="M14.8726 34.6092C14.5972 34.379 14.3294 34.1965 14.0846 34.0378C13.8398 33.8711 13.6485 33.7521 13.419 33.5616L11.973 32.4426C11.009 31.6966 10.045 30.9824 9.08106 30.2602C8.12472 29.5301 7.15309 28.7841 6.09729 28.1809C5.0415 27.5857 3.9092 27.1255 2.7463 26.8159L3.10588 26.4588C3.57257 27.6651 4.29938 28.7365 5.0874 29.7047C5.88307 30.6808 6.85471 31.4744 7.8799 32.1569C8.89744 32.8553 10.0221 33.4029 11.2003 33.8076C11.7894 33.9981 12.3938 34.1965 13.0212 34.3076L13.9622 34.4742L14.4365 34.5298C14.5819 34.5536 14.7885 34.5219 14.8726 34.6092ZM14.9797 34.6488C14.7349 34.7599 14.6202 34.752 14.4442 34.7917L13.9545 34.8552C13.6256 34.8949 13.2966 34.9107 12.9676 34.9107C12.3096 34.9028 11.6364 34.8552 10.9784 34.7203C9.66251 34.4822 8.3772 33.9584 7.22194 33.2283C6.06669 32.4823 5.0721 31.5062 4.26113 30.3872C3.43486 29.2761 2.87636 27.9746 2.57033 26.6255L2.43262 26.0303L2.92991 26.2684C4.03926 26.8001 5.14861 27.308 6.26561 27.808C7.39026 28.2921 8.53021 28.7762 9.60131 29.419C10.6648 30.0777 11.6211 30.8871 12.5162 31.7442C12.96 32.1807 13.396 32.6251 13.8015 33.1013C14.0157 33.3315 14.2529 33.6568 14.4442 33.9187C14.6508 34.1965 14.8114 34.4425 14.9797 34.6488Z" fill="black"/>
<path d="M15.3708 55.4889C15.3861 55.2033 15.5391 51.7907 12.5477 49.1322C9.97705 46.8466 6.18997 46.0926 3.35156 47.4021C3.54283 48.0449 4.46856 50.894 7.50588 53.1637C11.14 55.8699 14.8505 55.5445 15.3708 55.4889Z" fill="#3E9581"/>
<path d="M15.3246 55.4493C15.1027 54.0922 14.6513 52.6955 13.9245 51.5686C13.213 50.4099 12.2261 49.4893 11.155 48.664C10.0839 47.8465 8.81388 47.1958 7.44441 47.0133C6.08258 46.8228 4.66721 47.1006 3.5043 47.7592L3.70322 47.299C4.17756 48.4735 4.82787 49.5687 5.61589 50.5369C6.41156 51.4971 7.36025 52.3066 8.37014 53.0209C9.38003 53.7351 10.4894 54.2827 11.6676 54.6954C12.8228 55.108 14.1158 55.3382 15.3246 55.4493ZM15.4088 55.5287C14.0622 55.8778 12.7693 55.7985 11.4457 55.5683C10.1451 55.2985 8.85978 54.8065 7.71983 54.0605C7.13838 53.7034 6.61048 53.2669 6.10554 52.7986C5.61589 52.3145 5.1645 51.7987 4.75136 51.2432C3.93274 50.1321 3.29774 48.8782 2.99936 47.5132L2.92285 47.1561L3.20593 47.0529C4.61365 46.5371 6.07493 46.5054 7.49031 46.6403C8.89804 46.8149 10.3364 47.1402 11.637 47.8624C12.9452 48.5687 14.0163 49.7353 14.7126 51.0924C15.0645 51.767 15.3017 52.505 15.4241 53.251C15.5388 54.0129 15.5847 54.7192 15.4088 55.5287Z" fill="black"/>
<path d="M15.4387 55.4969C15.0944 55.1398 14.6965 54.735 14.2299 54.2906C13.7861 53.87 12.1565 52.3304 10.328 51.0289C7.65792 49.1242 4.91132 47.9814 3.35059 47.4021C3.58011 48.164 4.42933 50.6718 7.03056 52.7986C10.7794 55.8778 14.949 55.5445 15.4387 55.4969Z" fill="#1E6F5D"/>
<path d="M15.3853 55.4731C15.1099 55.2429 14.8421 55.0604 14.5973 54.9017C14.3525 54.735 14.1612 54.616 13.9317 54.4255L12.4857 53.3065C11.5217 52.5605 10.5577 51.8463 9.59376 51.1241C8.63742 50.394 7.66578 49.648 6.60999 49.0449C5.5542 48.4496 4.42189 47.9894 3.25899 47.6799L3.61857 47.3227C4.08526 48.529 4.81208 49.6004 5.6001 50.5686C6.39577 51.5447 7.36741 52.3383 8.3926 53.0208C9.41014 53.7192 10.5348 54.2668 11.713 54.6715C12.3021 54.862 12.9065 55.0604 13.5339 55.1715L14.4749 55.3382L14.9492 55.3937C15.0946 55.4255 15.3012 55.3858 15.3853 55.4731ZM15.4924 55.5127C15.2476 55.6238 15.1328 55.6159 14.9569 55.6556L14.4672 55.7191C14.1383 55.7588 13.8093 55.7746 13.4803 55.7746C12.8223 55.7667 12.1491 55.7191 11.4911 55.5842C10.1752 55.3461 8.88989 54.8223 7.73464 54.0922C6.57939 53.3462 5.5848 52.3701 4.77383 51.2511C3.94755 50.14 3.38905 48.8385 3.08303 47.4894L2.94531 46.8942L3.44261 47.1323C4.55196 47.664 5.6613 48.1719 6.7783 48.6719C7.90295 49.156 9.04291 49.6401 10.114 50.2829C11.1774 50.9416 12.1338 51.7511 13.0289 52.6081C13.4727 53.0446 13.9087 53.489 14.3142 53.9652C14.5284 54.1954 14.7656 54.5207 14.9569 54.7826C15.1635 55.0604 15.3241 55.3064 15.4924 55.5127Z" fill="black"/>
</g>
<defs>
<clipPath id="clip0">
<rect width="41" height="71.4643" fill="white"/>
</clipPath>
</defs>
</svg>
