<svg width="29" height="30" viewBox="0 0 29 30" fill="none" xmlns="http://www.w3.org/2000/svg">
<g clip-path="url(#clip0)">
<path d="M13.4701 8.30053C13.0766 7.78758 12.3514 6.69172 12.2974 5.19172C12.2126 2.93007 13.6938 0.707268 14.6042 0.808305C15.0902 0.862709 15.2368 1.55442 15.8154 1.54665C16.3863 1.54665 16.5946 0.870481 17.0189 0.7539C17.5821 0.606232 18.8396 1.36789 20.3749 4.92748C22.913 10.8264 25.5669 22.9197 23.3605 23.627C22.3344 23.9612 19.9197 21.9327 13.4701 8.30053Z" fill="#F26B6C" stroke="black" stroke-width="1.5" stroke-miterlimit="10"/>
<path d="M18.2998 8.71233C18.7087 5.9144 19.4339 0.986941 21.5169 0.606112C23.8082 0.194195 27.2413 5.36259 28.1517 10.3289C29.7178 18.8704 24.086 28.3911 21.1158 27.9481C18.0684 27.4973 17.1581 16.4688 18.2998 8.71233Z" fill="#F26B6C" stroke="black" stroke-width="1.5" stroke-miterlimit="10"/>
<path d="M1.00293 6.68384C4.44374 19.9196 9.75153 28.9118 14.8742 28.7641C15.013 28.7564 17.3121 28.6631 18.0913 27.1398C20.0431 23.347 10.5693 14.4559 1.00293 6.68384Z" fill="#F26B6C" stroke="black" stroke-width="1.5" stroke-miterlimit="10"/>
<path d="M6.63496 3.64515C5.60117 7.42235 4.38994 14.2306 7.03613 21.2643C7.9079 23.5726 9.05741 26.4871 12.0662 28.1503C14.0875 29.2695 17.4974 30.1167 19.9044 28.5545C23.785 26.0363 22.6895 18.8317 21.7174 15.5907C19.9507 9.7151 14.7818 4.24359 8.84911 3.63738C7.95419 3.55188 7.19814 3.59075 6.63496 3.64515Z" fill="#F26B6C" stroke="black" stroke-width="1.5" stroke-miterlimit="10"/>
</g>
<defs>
<clipPath id="clip0">
<rect width="29" height="30" fill="white"/>
</clipPath>
</defs>
</svg>
