<svg width="88" height="133" viewBox="0 0 88 133" fill="none" xmlns="http://www.w3.org/2000/svg">
<path d="M80.9904 67.19C83.3554 82.3897 84.9507 97.6993 85.7704 113.06L20.7704 124.13C15.7936 109.531 11.8308 94.6053 8.91043 79.46C8.38376 76.7934 7.89043 74.0533 7.43043 71.24C6.87043 67.8467 6.37376 64.5133 5.94043 61.24C4.08001 47.5159 3.07807 33.689 2.94043 19.84L68.0104 8.76001C71.5704 20.99 74.9404 34.43 77.8004 49C78.2404 51.26 78.6704 53.54 79.0904 55.86C79.7904 59.6933 80.4238 63.47 80.9904 67.19Z" fill="white" stroke="#010101" stroke-miterlimit="10" stroke-linecap="round"/>
<path d="M2.57008 19.46C2.16341 17.1933 1.75008 14.9133 1.33008 12.62C2.64008 13.28 3.95008 13.96 5.24008 14.62L9.04008 11.16C10.5701 11.69 12.0401 12.22 13.6301 12.74L17.6301 9.91L23.6001 11.06L28.0901 8L33.8101 9.55L37.1501 6.29L42.6601 8.37L47.5101 4.28C49.3401 5.07 51.1601 5.87 52.9901 6.65L57.8501 2.85L61.8501 5.27C63.1001 4.06 65.4701 2.26 66.7101 1C67.4101 3.22 67.2601 6.1 67.9601 8.32C46.2401 12.06 24.2601 15.7 2.57008 19.46Z" fill="#1F705E" stroke="#010101" stroke-miterlimit="10" stroke-linecap="round"/>
<path d="M7.14035 23.06C8.04035 26.6 8.81035 30.16 9.50035 33.73C10.1904 37.3 10.8404 40.88 11.3404 44.49C11.8404 48.1 12.1804 51.72 12.7104 55.32C13.2404 58.92 13.9504 62.47 14.6604 66.06C15.3704 69.65 16.1304 73.19 16.7804 76.77C17.4304 80.35 18.1004 83.93 18.6804 87.52C19.8104 94.71 20.7904 101.92 21.4504 109.18C21.4535 109.192 21.4537 109.205 21.4511 109.217C21.4485 109.229 21.4431 109.24 21.4354 109.25C21.4276 109.26 21.4177 109.267 21.4064 109.273C21.3951 109.278 21.3828 109.28 21.3704 109.28C21.3496 109.28 21.3293 109.274 21.3129 109.261C21.2965 109.248 21.285 109.23 21.2804 109.21C19.5604 102.13 18.1504 94.99 16.8804 87.82C16.2604 84.23 15.7404 80.63 15.1904 77.03C14.6404 73.43 14.1904 69.83 13.7304 66.21C13.2704 62.59 12.7904 58.99 12.1304 55.42C11.4704 51.85 10.6604 48.26 9.95035 44.69C9.24035 41.12 8.71035 37.53 8.20035 33.92C7.69035 30.31 7.27035 26.7 6.97035 23.06C6.96893 23.0487 6.96994 23.0372 6.97331 23.0263C6.97669 23.0154 6.98236 23.0053 6.98993 22.9968C6.99751 22.9883 7.00682 22.9815 7.01724 22.9769C7.02766 22.9722 7.03895 22.9699 7.05035 22.97C7.10035 22.98 7.14035 23.06 7.14035 23.06Z" fill="#010101"/>
<path d="M33.2998 117.06C35.2 116.441 37.133 115.927 39.0898 115.52C41.0316 115.087 42.9942 114.754 44.9698 114.52C46.9698 114.3 48.9698 114.24 50.9698 113.98C52.9425 113.698 54.8987 113.311 56.8298 112.82C58.7698 112.34 60.7098 111.89 62.6698 111.53C64.6298 111.17 66.5698 110.75 68.5398 110.45C72.4874 109.84 76.4678 109.466 80.4598 109.33C80.4821 109.33 80.5036 109.338 80.5202 109.353C80.5368 109.368 80.5474 109.388 80.5498 109.41C80.5495 109.429 80.5437 109.448 80.5331 109.464C80.5224 109.48 80.5074 109.492 80.4898 109.5C76.6628 110.641 72.7729 111.559 68.8398 112.25C66.8398 112.59 64.9098 112.85 62.9298 113.11C60.9498 113.37 58.9298 113.58 56.9298 113.75C54.9435 113.9 52.9671 114.16 51.0098 114.53C49.0098 114.91 47.1398 115.53 45.1898 115.93C43.2398 116.33 41.2698 116.62 39.2898 116.85C37.2983 117.089 35.2955 117.223 33.2898 117.25C33.2776 117.252 33.2652 117.25 33.2535 117.247C33.2419 117.243 33.2313 117.236 33.2225 117.227C33.2138 117.219 33.2073 117.208 33.2033 117.196C33.1994 117.185 33.1982 117.172 33.1998 117.16C33.1956 117.146 33.1951 117.131 33.1986 117.117C33.2022 117.103 33.2094 117.09 33.2197 117.08C33.23 117.07 33.2429 117.062 33.257 117.059C33.2711 117.055 33.2859 117.056 33.2998 117.06Z" fill="#010101"/>
<path d="M80.9904 67.19L8.91043 79.46C8.38376 76.7933 7.89043 74.0533 7.43043 71.24C6.87043 67.8467 6.37376 64.5133 5.94043 61.24L77.8004 49C78.2404 51.26 78.6804 53.54 79.0904 55.86C79.7904 59.6933 80.4238 63.47 80.9904 67.19Z" fill="#1F705E" stroke="#010101" stroke-miterlimit="10" stroke-linecap="round"/>
<path d="M53.1798 86.23C67.5398 81 75.5597 66.78 71.0798 54.47C66.5998 42.16 51.3198 36.47 36.9498 41.65C22.5798 46.83 14.5698 61.06 19.0498 73.41C23.5298 85.76 38.8098 91.46 53.1798 86.23Z" fill="#FAF28C" stroke="#010101" stroke-miterlimit="10"/>
<path d="M20.5801 124.35C20.9401 126.64 21.3101 128.93 21.6701 131.23C22.6901 130.17 23.6901 129.103 24.6701 128.03L29.3901 130.03L33.2001 127.03L37.9401 128.37L43.1801 125.37L48.4201 126.77L53.3101 123.41L57.5401 125.41L62.0101 121.63L67.9501 123.89C69.4101 122.53 70.8601 121.18 72.3301 119.83C74.2701 120.5 76.2201 121.15 78.1701 121.83C79.1701 120.62 80.1701 119.42 81.1701 118.22C82.7601 118.99 85.5801 119.86 87.1701 120.63C87.1001 118.3 86.0001 115.63 85.9301 113.31C64.2301 116.85 42.3001 120.72 20.5801 124.35Z" fill="#1F705E" stroke="#010101" stroke-miterlimit="10" stroke-linecap="round"/>
<path d="M80.3502 61.84L80.6102 63.34L78.1702 64.16L77.4702 64.39L77.5502 66.12L77.8302 72.79L77.6602 72.42L76.3602 68.78L75.0602 65.06L67.2002 64.89H66.6602L67.3202 64.71L75.0502 62.55L74.5902 53.71L76.7202 62.02L78.7202 61.94L80.3502 61.84Z" fill="white" stroke="#010101" stroke-width="0.5" stroke-miterlimit="10" stroke-linecap="round"/>
<path d="M67.2302 68.26L68.4602 73.06L73.6602 72.86L68.8602 74.47L69.0702 79.33L67.4602 74.84L62.6602 74.74L67.5202 73.38L67.2302 68.26Z" fill="white" stroke="#010101" stroke-width="0.5" stroke-miterlimit="10" stroke-linecap="round"/>
<path d="M39.4403 106.06C39.1273 105.892 38.7899 105.774 38.4403 105.71C38.1112 105.635 37.7694 105.635 37.4403 105.71C37.2416 105.741 37.047 105.795 36.8603 105.87C36.6876 105.932 36.5305 106.031 36.4003 106.16C36.342 106.22 36.2995 106.293 36.2768 106.373C36.2541 106.454 36.2519 106.539 36.2703 106.62C36.2841 106.703 36.3175 106.782 36.368 106.85C36.4184 106.918 36.4844 106.973 36.5603 107.01C36.745 107.089 36.9406 107.139 37.1403 107.16H37.9303C38.217 107.16 38.497 107.18 38.7703 107.22C39.0341 107.238 39.2937 107.295 39.5403 107.39C39.769 107.471 39.9772 107.6 40.1503 107.77C40.3232 107.959 40.4347 108.196 40.4703 108.45C40.5417 108.792 40.4848 109.148 40.3103 109.45C40.1297 109.761 39.8712 110.019 39.5603 110.2C39.2146 110.405 38.8354 110.547 38.4403 110.62C37.9398 110.695 37.4309 110.695 36.9303 110.62C36.4649 110.549 36.0266 110.356 35.6603 110.06L36.2903 109.25C36.5732 109.462 36.8979 109.61 37.2428 109.686C37.5877 109.762 37.9449 109.763 38.2903 109.69C38.4785 109.65 38.6626 109.593 38.8403 109.52C39.0143 109.451 39.1713 109.345 39.3003 109.21C39.3571 109.145 39.3977 109.068 39.4185 108.985C39.4394 108.901 39.44 108.814 39.4203 108.73C39.41 108.651 39.3785 108.575 39.3293 108.512C39.2801 108.449 39.2148 108.4 39.1403 108.37C38.9564 108.28 38.7549 108.233 38.5503 108.23C38.3003 108.23 38.0403 108.23 37.7703 108.23C37.3976 108.193 37.027 108.137 36.6603 108.06C36.322 108.013 35.9997 107.887 35.7203 107.69C35.4465 107.451 35.2688 107.12 35.2203 106.76C35.1607 106.444 35.2176 106.117 35.3803 105.84C35.5689 105.537 35.8301 105.286 36.1403 105.11C36.496 104.904 36.8853 104.761 37.2903 104.69C37.5841 104.639 37.8824 104.619 38.1803 104.63C38.4913 104.633 38.8006 104.677 39.1003 104.76C39.393 104.836 39.6681 104.969 39.9103 105.15L39.4403 106.06ZM48.2103 107.99C48.0276 108.195 47.8231 108.379 47.6003 108.54C47.3475 108.73 47.0721 108.888 46.7803 109.01C46.4592 109.149 46.1239 109.253 45.7803 109.32C45.1849 109.458 44.5657 109.458 43.9703 109.32C43.4468 109.178 42.9726 108.894 42.6003 108.5C42.2368 108.108 41.9968 107.618 41.9103 107.09C41.7847 106.518 41.8371 105.921 42.0603 105.38C42.2743 104.88 42.6199 104.448 43.0603 104.13C43.5225 103.791 44.0561 103.561 44.6203 103.46C45.1333 103.364 45.6621 103.394 46.1603 103.55C46.6285 103.693 47.0498 103.959 47.3803 104.32C47.7351 104.7 47.9684 105.177 48.0503 105.69L48.1303 106.21L43.1303 107.13C43.2204 107.356 43.3555 107.561 43.5274 107.733C43.6993 107.905 43.9045 108.04 44.1303 108.13C44.663 108.347 45.2492 108.396 45.8103 108.27C46.2076 108.211 46.5868 108.064 46.9203 107.84C47.1614 107.672 47.3858 107.481 47.5903 107.27L48.2103 107.99ZM44.8003 104.44C44.3311 104.519 43.8883 104.711 43.5103 105C43.3357 105.145 43.1956 105.327 43.1004 105.533C43.0053 105.739 42.9574 105.963 42.9603 106.19L46.8303 105.48V105.36C46.7624 105.121 46.6141 104.912 46.4103 104.77C46.1914 104.608 45.9382 104.499 45.6703 104.45C45.3859 104.379 45.0901 104.366 44.8003 104.41V104.44ZM56.0403 106.56C55.8572 106.762 55.6527 106.943 55.4303 107.1C55.1719 107.29 54.8936 107.451 54.6003 107.58C54.2815 107.723 53.9453 107.824 53.6003 107.88C53.0014 108.005 52.3814 107.988 51.7903 107.83C51.2691 107.688 50.7957 107.408 50.4203 107.02C50.0587 106.627 49.819 106.137 49.7303 105.61C49.6029 105.054 49.6421 104.473 49.8431 103.94C50.0441 103.406 50.3979 102.944 50.8603 102.61C51.3225 102.271 51.856 102.041 52.4203 101.94C52.933 101.838 53.463 101.869 53.9603 102.03C54.4285 102.173 54.8498 102.439 55.1803 102.8C55.5371 103.178 55.7708 103.656 55.8503 104.17L55.9303 104.69L50.9303 105.61C51.0204 105.836 51.1555 106.041 51.3274 106.213C51.4993 106.385 51.7045 106.52 51.9303 106.61C52.4641 106.822 53.0488 106.871 53.6103 106.75C54.0076 106.691 54.3868 106.544 54.7203 106.32C54.9567 106.146 55.1806 105.955 55.3903 105.75L56.0403 106.56ZM52.6603 102.98C52.1898 103.054 51.7459 103.247 51.3703 103.54C51.1964 103.683 51.0568 103.864 50.9616 104.068C50.8665 104.272 50.8182 104.495 50.8203 104.72L54.6603 104.06V103.94C54.5901 103.699 54.4425 103.488 54.2403 103.34C54.0208 103.181 53.7676 103.075 53.5003 103.03C53.2261 102.96 52.941 102.943 52.6603 102.98ZM62.9303 97.77L64.3903 105.77L63.2803 105.98L63.1203 105.09C63.0022 105.303 62.8502 105.496 62.6703 105.66C62.4708 105.862 62.2456 106.037 62.0003 106.18C61.7211 106.328 61.421 106.432 61.1103 106.49C60.5739 106.594 60.0198 106.559 59.5003 106.39C59.0122 106.224 58.5796 105.927 58.2503 105.53C57.9098 105.112 57.6855 104.612 57.6003 104.08C57.4911 103.547 57.5291 102.993 57.7103 102.48C57.8766 101.992 58.1784 101.562 58.5803 101.24C58.9982 100.892 59.5028 100.664 60.0403 100.58C60.4819 100.485 60.9388 100.485 61.3803 100.58C61.7422 100.656 62.0833 100.81 62.3803 101.03L61.8103 97.95L62.9303 97.77ZM61.1303 105.47C61.4974 105.404 61.8416 105.246 62.1303 105.01C62.3978 104.791 62.6015 104.505 62.7203 104.18C62.8346 103.839 62.8587 103.473 62.7903 103.12C62.7393 102.752 62.587 102.406 62.3503 102.12C62.1324 101.852 61.8402 101.653 61.5103 101.55C61.1518 101.434 60.7693 101.413 60.4003 101.49C60.0327 101.548 59.6874 101.703 59.4003 101.94C59.131 102.153 58.9266 102.437 58.8103 102.76C58.6885 103.1 58.6609 103.466 58.7303 103.82C58.7842 104.189 58.9401 104.535 59.1803 104.82C59.4067 105.079 59.696 105.275 60.0203 105.39C60.3678 105.508 60.7394 105.535 61.1003 105.47H61.1303ZM69.9803 100.47C69.6693 100.297 69.3311 100.179 68.9803 100.12C68.6504 100.052 68.3102 100.052 67.9803 100.12C67.7855 100.154 67.5946 100.208 67.4103 100.28C67.235 100.341 67.0772 100.444 66.9503 100.58C66.8895 100.638 66.8454 100.711 66.8225 100.792C66.7996 100.873 66.7989 100.959 66.8203 101.04C66.8321 101.122 66.8638 101.199 66.9127 101.265C66.9615 101.331 67.026 101.385 67.1003 101.42C67.2855 101.508 67.4858 101.558 67.6903 101.57H68.4803C68.7614 101.57 69.0421 101.59 69.3203 101.63C69.5839 101.649 69.8433 101.706 70.0903 101.8C70.3189 101.875 70.5252 102.005 70.6903 102.18C70.8719 102.364 70.9879 102.603 71.0203 102.86C71.0889 103.202 71.0321 103.557 70.8603 103.86C70.6761 104.174 70.4145 104.436 70.1003 104.62C69.7567 104.827 69.3765 104.966 68.9803 105.03C68.4839 105.115 67.9767 105.115 67.4803 105.03C66.996 104.959 66.5399 104.759 66.1603 104.45L66.8003 103.64C67.0735 103.831 67.3781 103.974 67.7003 104.06C68.0693 104.14 68.4513 104.14 68.8203 104.06C69.01 104.026 69.1948 103.969 69.3703 103.89C69.5418 103.821 69.6981 103.719 69.8303 103.59C69.8883 103.524 69.9303 103.445 69.9528 103.36C69.9754 103.275 69.9779 103.186 69.9603 103.1C69.9448 103.022 69.9114 102.949 69.8628 102.887C69.8142 102.824 69.7517 102.774 69.6803 102.74C69.4893 102.661 69.2866 102.614 69.0803 102.6C68.8403 102.6 68.5803 102.6 68.3003 102.6C67.9003 102.6 67.5103 102.6 67.1503 102.5C66.7907 102.458 66.4471 102.327 66.1503 102.12C65.8794 101.88 65.7053 101.549 65.6603 101.19C65.5959 100.874 65.6531 100.546 65.8203 100.27C66.0095 99.9703 66.2708 99.7227 66.5803 99.55C66.9353 99.342 67.3249 99.1997 67.7303 99.13C68.0367 99.0718 68.3487 99.0483 68.6603 99.06C68.9717 99.0576 69.2818 99.1014 69.5803 99.19C69.8745 99.2623 70.1504 99.3952 70.3903 99.58L69.9803 100.47Z" fill="#010101"/>
<path d="M46.0203 71.56C45.5969 70.4886 45.4193 69.3358 45.5007 68.1866C45.582 67.0374 45.9202 65.9211 46.4903 64.92C47.2497 63.4839 48.3869 62.2825 49.7791 61.4454C51.1714 60.6083 52.7658 60.1673 54.3903 60.17C54.4839 62.5109 53.8174 64.8193 52.4903 66.75C50.9709 69.0686 48.6783 70.773 46.0203 71.56Z" fill="#3E9581"/>
<path d="M46.0101 71.59C45.337 70.3178 45.0916 68.8626 45.3101 67.44C45.5042 66.0117 46.0968 64.6669 47.0201 63.56C47.9507 62.4932 49.0822 61.6199 50.3501 60.99C51.5993 60.3267 52.986 59.9638 54.4001 59.93H54.6601V60.16C54.7827 61.4771 54.6294 62.8054 54.2101 64.06C53.8404 65.3195 53.2403 66.4995 52.4401 67.54C51.6461 68.5747 50.6824 69.4674 49.5901 70.18C48.5013 70.8812 47.2846 71.3604 46.0101 71.59ZM46.0101 71.53C47.1633 71.06 48.2467 70.4342 49.2301 69.67C50.2137 68.9316 51.083 68.0521 51.8101 67.06C53.2956 65.0858 54.1151 62.6904 54.1501 60.22L54.3801 60.44C53.0209 60.311 51.6538 60.5858 50.4501 61.23C49.2474 61.8843 48.2187 62.8169 47.4501 63.95C46.6691 65.0325 46.1209 66.2651 45.8401 67.57C45.601 68.8878 45.6695 70.243 46.0401 71.53H46.0101Z" fill="#231F20"/>
<path d="M45.96 71.59C46.16 71.15 46.39 70.65 46.67 70.1C47.413 68.6257 48.248 67.1995 49.17 65.83C50.6657 63.7319 52.4195 61.8303 54.39 60.17C54.4874 62.3126 53.9368 64.4349 52.81 66.26C51.2607 68.8194 48.8216 70.7173 45.96 71.59Z" fill="#1E6F5D"/>
<path d="M45.9199 71.62C46.0899 71.16 46.2499 70.46 46.4999 69.86C46.7499 69.26 46.9699 68.75 47.2399 68.21C47.7737 67.123 48.4135 66.0913 49.1499 65.13C49.9324 64.2063 50.7706 63.3314 51.6599 62.51L54.2299 59.99L54.5699 59.65L54.6299 60.16C54.7974 61.4681 54.6884 62.7968 54.3099 64.06C53.9388 65.3373 53.3391 66.5367 52.5399 67.6C51.7293 68.6521 50.7328 69.5468 49.5999 70.24C48.487 70.9597 47.2317 71.4305 45.9199 71.62ZM45.9999 71.56C47.1137 70.9996 48.1689 70.3296 49.1499 69.56C50.0972 68.8112 50.9411 67.9403 51.6599 66.97C52.3981 66.0013 52.9911 64.93 53.4199 63.79C53.8466 62.6354 54.0863 61.4202 54.1299 60.19L54.5299 60.36C53.568 61.0575 52.6859 61.859 51.8999 62.75C51.1511 63.6687 50.4566 64.6304 49.8199 65.63C49.1699 66.63 48.5199 67.63 47.8899 68.63L46.9599 70.06C46.6599 70.56 46.3499 70.95 45.9999 71.56Z" fill="#231F20"/>
<path d="M45.1004 66.99C43.4966 68.0506 41.6697 68.7268 39.7618 68.9662C37.854 69.2055 35.9166 69.0015 34.1004 68.37C31.6275 67.4162 29.5033 65.7325 28.0101 63.5427C26.5168 61.3528 25.7252 58.7604 25.7404 56.11C29.4268 55.1673 33.3288 55.5753 36.7405 57.26C38.7075 58.2494 40.459 59.6186 41.8939 61.2886C43.3288 62.9587 44.4186 64.8964 45.1004 66.99Z" fill="#3E9581"/>
<path d="M45.1504 67.06C43.2951 68.4935 41.0588 69.3491 38.7204 69.52C36.3524 69.6945 33.9915 69.0982 31.9904 67.82C30.0711 66.5156 28.4806 64.7836 27.344 62.7604C26.2075 60.7371 25.5559 58.4777 25.4404 56.16V55.92L25.7004 55.84C27.7134 55.2446 29.8282 55.0743 31.9104 55.34C32.9523 55.4681 33.98 55.6923 34.9804 56.01C37.9884 57.0197 40.6158 58.9248 42.5104 61.47C43.7628 63.1335 44.6613 65.036 45.1504 67.06ZM45.0604 67.06C44.2847 65.209 43.2179 63.494 41.9004 61.98C40.6134 60.471 39.0612 59.2103 37.3204 58.26C35.5999 57.2917 33.7205 56.6382 31.7704 56.33C29.8053 56.0397 27.8042 56.1006 25.8604 56.51L26.1004 56.2C25.9795 58.4423 26.4998 60.6726 27.6004 62.63C28.7578 64.5167 30.4113 66.0491 32.3804 67.06C34.3015 68.1264 36.4632 68.684 38.6604 68.68C40.8957 68.6099 43.0851 68.0283 45.0604 66.98V67.06Z" fill="#231F20"/>
<path d="M45.1605 67.06C44.4205 66.86 43.5805 66.62 42.6505 66.31C40.1761 65.499 37.7687 64.496 35.4505 63.31C31.8839 61.38 28.622 58.9335 25.7705 56.05C29.1419 55.1791 32.7066 55.4462 35.9105 56.81C38.0767 57.7869 40.0171 59.202 41.6091 60.9661C43.2012 62.7303 44.4104 64.8052 45.1605 67.06Z" fill="#1E6F5D"/>
<path d="M45.1905 67.13C44.3705 66.94 43.3305 66.78 42.3705 66.52C41.4105 66.26 40.5605 65.99 39.6605 65.68C37.8645 65.0597 36.1303 64.2729 34.4805 63.33C32.8651 62.3353 31.3304 61.2152 29.8905 59.98C28.4205 58.79 27.0005 57.56 25.6105 56.28L25.3105 56.01L25.7105 55.88C27.7189 55.2629 29.8327 55.0654 31.9205 55.3C34.0369 55.5466 36.0795 56.2275 37.9205 57.3C38.8332 57.833 39.6879 58.4597 40.4705 59.17C41.2406 59.8878 41.9435 60.6744 42.5705 61.52C43.8245 63.1874 44.7169 65.0981 45.1905 67.13ZM45.1205 67.06C44.2942 65.2244 43.2136 63.5143 41.9105 61.98C40.6251 60.4612 39.0813 59.1815 37.3505 58.2C35.6419 57.1921 33.7593 56.5137 31.8005 56.2C29.8095 55.8746 27.7756 55.9186 25.8005 56.33L25.9105 55.93C27.1764 57.3145 28.5728 58.5737 30.0805 59.69C31.6072 60.7619 33.2078 61.7243 34.8705 62.57C36.5105 63.44 38.1905 64.23 39.8705 64.96C40.7305 65.33 41.5905 65.69 42.4705 66.03C43.3505 66.37 44.1405 66.7 45.1205 67.06Z" fill="#231F20"/>
<path d="M52.0301 94.81C47.7029 85.0968 44.9452 74.7581 43.8601 64.18C43.1812 58.873 43.0873 53.5075 43.5801 48.18C44.1385 42.8619 45.4273 37.6462 47.4101 32.68C47.4164 32.6605 47.427 32.6425 47.441 32.6275C47.4551 32.6125 47.4722 32.6007 47.4913 32.5931C47.5104 32.5854 47.531 32.5821 47.5515 32.5833C47.572 32.5845 47.592 32.5902 47.6101 32.6C47.638 32.6136 47.6614 32.635 47.6774 32.6616C47.6934 32.6883 47.7013 32.719 47.7001 32.75L47.0501 40.63C46.8601 43.23 46.6701 45.83 46.5701 48.42C46.3901 53.6 45.9901 58.78 46.2501 63.99C46.501 69.2057 47.1529 74.3944 48.2001 79.51C49.2127 84.6601 50.5861 89.7326 52.3101 94.69C52.32 94.7285 52.3152 94.7692 52.2967 94.8043C52.2782 94.8394 52.2474 94.8664 52.2101 94.88C52.1768 94.8937 52.1396 94.8941 52.1061 94.881C52.0726 94.868 52.0454 94.8426 52.0301 94.81Z" fill="#754C29"/>
<path d="M45.9704 63.43C45.4572 62.1276 45.2421 60.7268 45.3407 59.3304C45.4393 57.934 45.8493 56.5774 46.5404 55.36C48.4804 51.8 52.4204 49.36 56.1404 49.6C56.2574 52.445 55.4505 55.2515 53.8404 57.6C51.9858 60.4097 49.1986 62.4744 45.9704 63.43Z" fill="#3E9581"/>
<path d="M45.9498 63.48C45.1247 61.9302 44.8131 60.1584 45.0598 58.42C45.2933 56.675 46.0221 55.0336 47.1598 53.69C48.2998 52.4012 49.6785 51.3451 51.2198 50.58C52.7432 49.7678 54.434 49.3194 56.1598 49.27H56.4298V49.58C56.5828 51.167 56.4162 52.7685 55.9398 54.29C55.4785 55.8209 54.7469 57.2569 53.7798 58.53C52.8095 59.7926 51.6288 60.8784 50.2898 61.74C48.9724 62.6013 47.4973 63.1927 45.9498 63.48ZM45.9998 63.39C47.3884 62.8053 48.6932 62.0386 49.8798 61.11C51.0569 60.1953 52.0944 59.1139 52.9598 57.9C53.8364 56.7012 54.54 55.3849 55.0498 53.99C55.5452 52.5822 55.8053 51.1024 55.8198 49.61L56.1198 49.92C54.4758 49.7473 52.8178 50.0713 51.3598 50.85C49.9242 51.6591 48.7008 52.7969 47.7898 54.17C46.834 55.4799 46.1537 56.9699 45.7898 58.55C45.4888 60.1582 45.5606 61.814 45.9998 63.39Z" fill="#231F20"/>
<path d="M45.9004 63.47C46.1404 62.93 46.4204 62.33 46.7604 61.65C47.6426 59.8577 48.6449 58.1271 49.7604 56.47C51.5742 53.9207 53.7046 51.6122 56.1004 49.6C56.2145 52.2 55.5457 54.7744 54.1804 56.99C52.3051 60.0893 49.3596 62.3945 45.9004 63.47Z" fill="#1E6F5D"/>
<path d="M45.8604 63.5C46.0804 62.92 46.2903 62.1 46.6003 61.39C46.9103 60.68 47.2003 60.05 47.5303 59.39C48.1877 58.0782 48.9643 56.8296 49.8503 55.66C50.7825 54.5285 51.7844 53.4564 52.8503 52.45C53.8503 51.45 54.9204 50.45 55.9704 49.45L56.3204 49.12V49.62C56.498 51.2062 56.3517 52.812 55.8904 54.34C54.9819 57.4447 52.9592 60.1047 50.2104 61.81C49.5446 62.233 48.8417 62.5944 48.1104 62.89C47.7437 63.0433 47.3737 63.1733 47.0004 63.28C46.6298 63.3958 46.2474 63.4696 45.8604 63.5ZM45.9403 63.43C47.3153 62.8061 48.6166 62.0313 49.8204 61.12C51.0049 60.2045 52.0552 59.1274 52.9403 57.92C53.8459 56.7497 54.5676 55.4481 55.0803 54.06C55.5929 52.6447 55.8699 51.1549 55.9004 49.65L56.3004 49.82C55.1416 50.6874 54.0729 51.669 53.1104 52.75C52.1799 53.8467 51.3214 55.0024 50.5404 56.21C49.727 57.39 48.947 58.59 48.2004 59.81L45.9403 63.43Z" fill="#231F20"/>
<path d="M51.0615 68.2108C53.2723 67.3745 54.3708 64.8624 53.515 62.5998C52.6591 60.3373 50.173 59.1811 47.9622 60.0174C45.7513 60.8537 44.6528 63.3658 45.5086 65.6284C46.3645 67.8909 48.8506 69.0471 51.0615 68.2108Z" fill="#2B3990"/>
<path d="M51.3969 66.3854C53.0137 65.7738 53.7922 63.8709 53.1357 62.1353C52.4791 60.3996 50.6362 59.4884 49.0194 60.1C47.4025 60.7116 46.624 62.6144 47.2806 64.3501C47.9371 66.0857 49.7801 66.997 51.3969 66.3854Z" fill="#1C4696"/>
<path d="M52.5205 61.3343C52.69 60.9746 52.1834 60.3795 51.389 60.0052C50.5947 59.6309 49.8133 59.6191 49.6438 59.9788C49.4743 60.3385 49.9809 60.9336 50.7752 61.3079C51.5696 61.6822 52.351 61.694 52.5205 61.3343Z" fill="#0067AC"/>
<path d="M52.2491 61.2064C52.3856 60.9166 51.9738 60.4356 51.3294 60.1319C50.6849 59.8282 50.0517 59.8169 49.9152 60.1067C49.7787 60.3964 50.1904 60.8775 50.8349 61.1812C51.4794 61.4849 52.1125 61.4962 52.2491 61.2064Z" fill="#124B9A"/>
<path d="M51.0699 65.16C51.1699 65.35 52.0699 65.27 52.5099 64.7C52.7091 64.3805 52.802 64.0061 52.775 63.6306C52.7481 63.255 52.6027 62.8977 52.3599 62.61C52.2399 62.61 52.3599 63.15 51.9599 63.9C51.5599 64.65 50.9799 65 51.0699 65.16Z" fill="white"/>
<path d="M50.4098 59.23C50.1898 59.23 49.9998 59.75 50.2198 60.23C50.3988 60.5457 50.6735 60.7962 51.0043 60.9454C51.335 61.0946 51.7047 61.1348 52.0598 61.06C52.5298 60.86 52.6198 60.22 52.4798 60.12C52.3398 60.02 52.0398 60.36 51.8498 60.25C51.6598 60.14 51.8498 59.76 51.6598 59.69C51.4698 59.62 51.4198 59.91 51.1798 59.89C50.9398 59.87 50.6598 59.22 50.4098 59.23Z" fill="#2B3990"/>
<path d="M45.5991 64.1729C46.243 62.6403 45.4978 60.8655 43.9347 60.2087C42.3715 59.552 40.5823 60.262 39.9384 61.7946C39.2945 63.3272 40.0396 65.102 41.6028 65.7588C43.1659 66.4155 44.9551 65.7055 45.5991 64.1729Z" fill="#2B3990"/>
<path d="M44.8239 63.1233C45.2946 62.0031 44.7061 60.6875 43.5096 60.1848C42.313 59.682 40.9615 60.1826 40.4909 61.3027C40.0202 62.4229 40.6087 63.7385 41.8052 64.2413C43.0018 64.744 44.3533 64.2435 44.8239 63.1233Z" fill="#1C4696"/>
<path d="M41.9566 60.9848C42.5279 60.7626 42.9099 60.3737 42.8098 60.1164C42.7097 59.859 42.1653 59.8306 41.594 60.0529C41.0227 60.2752 40.6407 60.664 40.7409 60.9214C40.841 61.1787 41.3853 61.2071 41.9566 60.9848Z" fill="#0067AC"/>
<path d="M41.5599 60.06C41.7699 59.99 41.9599 59.85 42.1999 59.78C42.34 59.7154 42.4995 59.7063 42.6461 59.7545C42.7927 59.8028 42.9155 59.9048 42.9899 60.04C43.0143 60.1235 43.016 60.2119 42.9949 60.2963C42.9738 60.3806 42.9307 60.4578 42.8699 60.52C42.7802 60.6051 42.6832 60.6821 42.5799 60.75L42.0099 61.14C41.8084 61.2749 41.5796 61.3636 41.3399 61.4C41.2073 61.4197 41.0725 61.4197 40.9399 61.4C40.8451 61.3894 40.7547 61.3543 40.6776 61.2982C40.6004 61.2421 40.5392 61.1669 40.4999 61.08C40.4607 60.9917 40.4474 60.894 40.4616 60.7984C40.4757 60.7028 40.5168 60.6132 40.5799 60.54C40.6668 60.4341 40.7761 60.3488 40.8999 60.29C41.1299 60.15 41.3599 60.12 41.5599 60.06ZM41.5599 60.11C41.3605 60.1983 41.1955 60.3493 41.0899 60.54C40.9799 60.7 40.9299 60.92 40.9599 60.85C41.0619 60.9026 41.1751 60.93 41.2899 60.93C41.4908 60.9275 41.6913 60.9107 41.8899 60.88C42.1028 60.8566 42.3026 60.7655 42.4599 60.62C42.6099 60.49 42.6699 60.2 42.5899 60.22C42.2826 60.0492 41.9249 59.9925 41.5799 60.06L41.5599 60.11Z" fill="#231F20"/>
<path d="M41.9237 60.901C42.3921 60.7187 42.7052 60.3999 42.6231 60.1889C42.541 59.9779 42.0948 59.9545 41.6264 60.1368C41.158 60.319 40.8449 60.6378 40.927 60.8488C41.0091 61.0599 41.4553 61.0832 41.9237 60.901Z" fill="#124B9A"/>
<path d="M44.0599 62.7C44.1999 62.7 44.5999 62.25 44.5199 61.7C44.4503 61.4447 44.3034 61.2172 44.0992 61.0489C43.8951 60.8806 43.6438 60.7796 43.3799 60.76C43.3799 60.83 43.6399 61.04 43.8399 61.59C44.0399 62.14 43.9299 62.67 44.0599 62.7Z" fill="white"/>
<path d="M40.7197 60.17C40.6097 60.28 40.7897 60.63 41.1297 60.74C41.3757 60.7984 41.6338 60.7776 41.8672 60.6806C42.1007 60.5837 42.2975 60.4155 42.4297 60.2C42.5597 59.86 42.2697 59.51 42.1497 59.53C42.0297 59.55 42.0597 59.87 41.9097 59.91C41.7597 59.95 41.6397 59.7 41.5397 59.74C41.4397 59.78 41.5397 59.97 41.4097 60.08C41.2797 60.19 40.8197 60.06 40.7197 60.17Z" fill="#2B3990"/>
<path d="M46.6215 69.4436C47.3372 67.9066 46.6958 66.0917 45.1888 65.3899C43.6818 64.6882 41.8799 65.3653 41.1641 66.9023C40.4484 68.4394 41.0898 70.2543 42.5968 70.956C44.1038 71.6578 45.9057 70.9807 46.6215 69.4436Z" fill="#2B3990"/>
<path d="M45.1019 69.1683C45.6497 67.9918 45.201 66.6222 44.0995 66.1093C42.9981 65.5963 41.661 66.1343 41.1131 67.3109C40.5652 68.4874 41.014 69.857 42.1155 70.3699C43.2169 70.8829 44.554 70.3449 45.1019 69.1683Z" fill="#1C4696"/>
<path d="M41.7441 70.117C42.0051 70.0267 42.0542 69.4839 41.8538 68.9045C41.6534 68.3251 41.2794 67.9287 41.0184 68.0189C40.7575 68.1092 40.7084 68.652 40.9087 69.2314C41.1091 69.8108 41.4831 70.2072 41.7441 70.117Z" fill="#0067AC"/>
<path d="M41.6787 69.9279C41.8927 69.8539 41.933 69.4089 41.7687 68.9339C41.6044 68.4589 41.2978 68.1339 41.0838 68.2079C40.8698 68.2819 40.8295 68.727 40.9938 69.2019C41.158 69.6769 41.4647 70.0019 41.6787 69.9279Z" fill="#124B9A"/>
<path d="M43.6605 66.87C43.6605 66.73 43.2305 66.31 42.7305 66.37C42.4694 66.425 42.2322 66.5609 42.0527 66.7584C41.8732 66.9558 41.7605 67.2048 41.7305 67.47C41.7905 67.53 42.0205 67.23 42.5705 67.04C43.1205 66.85 43.6605 67 43.6605 66.87Z" fill="white"/>
<path d="M41 70.11C41.11 70.22 41.46 70.11 41.58 69.72C41.6486 69.4779 41.6381 69.2203 41.55 68.9846C41.4618 68.7489 41.3006 68.5476 41.09 68.41C40.76 68.26 40.39 68.53 40.41 68.65C40.43 68.77 40.75 68.76 40.78 68.91C40.81 69.06 40.56 69.17 40.6 69.27C40.64 69.37 40.82 69.27 40.93 69.42C41.04 69.57 40.89 70 41 70.11Z" fill="#2B3990"/>
<path d="M49.7602 86.46C49.2412 85.1592 49.0221 83.7582 49.119 82.361C49.216 80.9639 49.6266 79.6066 50.3202 78.39C52.2602 74.83 56.2002 72.39 59.9202 72.62C60.0364 75.4649 59.2297 78.2712 57.6202 80.62C55.7685 83.4304 52.9855 85.4982 49.7602 86.46Z" fill="#3E9581"/>
<path d="M49.7303 86.5C48.9159 84.9681 48.6045 83.2188 48.8403 81.5C49.0739 79.755 49.8026 78.1135 50.9403 76.77C52.0797 75.4804 53.4585 74.4242 55.0003 73.66C56.5238 72.8477 58.2146 72.3994 59.9403 72.35H60.2103V72.65C60.3688 74.2403 60.2021 75.8462 59.7203 77.37C59.2612 78.8986 58.5294 80.3317 57.5603 81.6C56.5966 82.8649 55.4188 83.9513 54.0803 84.81C52.7588 85.6602 51.2792 86.235 49.7303 86.5ZM49.7303 86.41C51.139 85.8386 52.4616 85.0747 53.6603 84.14C54.838 83.2227 55.8786 82.1418 56.7503 80.93C57.6168 79.7408 58.3166 78.4388 58.8303 77.06C59.3257 75.6522 59.5859 74.1724 59.6003 72.68L59.9003 72.98C58.2556 72.8159 56.5992 73.143 55.1403 73.92C53.7027 74.7263 52.4787 75.8646 51.5703 77.24C50.6513 78.5452 50.002 80.0207 49.6603 81.58C49.3301 83.1779 49.3712 84.8304 49.7803 86.41H49.7303Z" fill="#231F20"/>
<path d="M49.6602 86.49C49.9002 85.96 50.1802 85.35 50.5202 84.68C51.4065 82.8899 52.4086 81.1596 53.5202 79.5C55.3344 76.948 57.4647 74.6363 59.8602 72.62C60.0024 75.2306 59.3542 77.8235 58.0002 80.06C56.1039 83.1546 53.1353 85.4433 49.6602 86.49Z" fill="#1E6F5D"/>
<path d="M49.6602 86.53C49.8802 85.95 50.0902 85.13 50.4102 84.41C50.7302 83.69 51.0002 83.08 51.3302 82.41C51.9918 81.1047 52.7717 79.8628 53.6602 78.7C54.5897 77.5662 55.5918 76.494 56.6602 75.49C57.6602 74.49 58.7302 73.49 59.7802 72.44L60.1302 72.11V72.61C60.3176 74.1961 60.1711 75.8039 59.7002 77.33C59.2447 78.8674 58.5165 80.3104 57.5502 81.59C56.5785 82.863 55.3821 83.9475 54.0202 84.79C53.3568 85.2199 52.6535 85.5849 51.9202 85.88C51.5572 86.0293 51.1867 86.1594 50.8102 86.27C50.438 86.4001 50.0521 86.4874 49.6602 86.53ZM49.7402 86.46C51.1173 85.8364 52.419 85.058 53.6202 84.14C54.8066 83.2305 55.8572 82.1563 56.7402 80.95C57.6427 79.7701 58.3578 78.458 58.8602 77.06C59.3735 75.6484 59.6506 74.1618 59.6802 72.66L60.0802 72.83C58.9261 73.6993 57.8579 74.6771 56.8902 75.75C55.962 76.8519 55.1036 78.0109 54.3202 79.22C53.5135 80.4 52.7335 81.6 51.9802 82.82L49.7402 86.46Z" fill="#231F20"/>
<path d="M49.5999 86.52C48.679 86.0138 47.8825 85.3086 47.2684 84.4558C46.6543 83.603 46.2381 82.624 46.0499 81.59C45.7463 80.1398 45.8437 78.6342 46.3318 77.2352C46.8199 75.8362 47.6801 74.5967 48.8199 73.65C50.2459 75.2398 51.1255 77.2443 51.3299 79.37C51.6112 81.8826 50.9987 84.414 49.5999 86.52Z" fill="#3E9581"/>
<path d="M49.6598 86.57C48.4122 86.1149 47.355 85.2515 46.6598 84.12C45.926 82.9981 45.5494 81.6802 45.5798 80.34C45.646 79.0376 45.9546 77.7591 46.4898 76.57C46.9706 75.3662 47.7116 74.2837 48.6598 73.4L48.8598 73.22L49.0798 73.43C49.9462 74.2814 50.6271 75.3028 51.0798 76.43C51.5674 77.5424 51.8421 78.7363 51.8898 79.95C51.9268 81.1572 51.7543 82.3617 51.3798 83.51C51.0235 84.6376 50.4379 85.6794 49.6598 86.57ZM49.6598 86.47C50.1232 85.4518 50.4591 84.3804 50.6598 83.28C50.8806 82.1948 50.948 81.0839 50.8598 79.98C50.7821 78.8823 50.5602 77.7997 50.1998 76.76C49.8207 75.719 49.2808 74.7439 48.5998 73.87H49.0198C47.9574 74.5398 47.132 75.5261 46.6598 76.69C46.2299 77.8417 46.0925 79.0821 46.2598 80.3C46.3723 81.4932 46.7117 82.6541 47.2598 83.72C47.8343 84.7904 48.6283 85.7275 49.5898 86.47H49.6598Z" fill="#231F20"/>
<path d="M49.5798 86.58C49.4598 86.15 49.3298 85.67 49.1998 85.12C48.8597 83.6541 48.6159 82.1676 48.4698 80.67C48.2861 78.3313 48.4037 75.9787 48.8198 73.67C50.1371 75.116 50.9906 76.9239 51.2698 78.86C51.667 81.5533 51.0659 84.2989 49.5798 86.58Z" fill="#1E6F5D"/>
<path d="M49.57 86.63C49.41 86.21 49.1 85.63 48.92 85.05C48.74 84.47 48.6 84.05 48.47 83.46C48.2025 82.3855 48.045 81.2865 48 80.18C48.0162 79.0756 48.1031 77.9733 48.26 76.88L48.58 73.61V73.14L48.95 73.49C49.8417 74.3095 50.5504 75.3079 51.03 76.42C52.0325 78.6617 52.1398 81.2018 51.33 83.52C50.9717 84.6703 50.3717 85.7307 49.57 86.63ZM49.57 86.53C50.0092 85.4925 50.3442 84.4138 50.57 83.31C50.8006 82.2228 50.878 81.1087 50.8 80C50.7592 78.8948 50.5501 77.8022 50.18 76.76C49.8368 75.7038 49.3233 74.7107 48.66 73.82L49.08 73.7C48.8146 74.7498 48.6737 75.8272 48.66 76.91C48.6745 77.9872 48.7547 79.0625 48.9 80.13C49.02 81.19 49.13 82.26 49.27 83.33L49.48 84.94C49.51 85.42 49.48 85.88 49.58 86.53H49.57Z" fill="#231F20"/>
<path d="M45.2204 43.2C44.7072 41.8976 44.4921 40.4968 44.5907 39.1004C44.6893 37.704 45.0993 36.3474 45.7904 35.13C47.7304 31.57 51.6704 29.13 55.3904 29.36C55.5067 32.205 54.6999 35.0112 53.0904 37.36C51.2375 40.1735 48.4501 42.2419 45.2204 43.2Z" fill="#3E9581"/>
<path d="M45.2005 43.24C44.3816 41.7097 44.0699 39.9589 44.3105 38.24C44.5441 36.495 45.2729 34.8535 46.4105 33.51C47.5478 32.2182 48.9271 31.1616 50.4705 30.4C51.9914 29.5773 53.6824 29.1186 55.4105 29.06H55.6605V29.36C55.8265 30.9403 55.677 32.5379 55.2205 34.06C54.7614 35.5887 54.0296 37.0217 53.0605 38.29C52.0932 39.5553 50.9121 40.6416 49.5705 41.5C48.2484 42.3731 46.761 42.9653 45.2005 43.24ZM45.2505 43.15C46.6406 42.5723 47.9458 41.8087 49.1305 40.88C50.3076 39.9652 51.3452 38.8839 52.2105 37.67C53.0872 36.4712 53.7907 35.1549 54.3005 33.76C54.796 32.3522 55.0561 30.8724 55.0705 29.38L55.3705 29.68C53.7258 29.5159 52.0694 29.843 50.6105 30.62C49.1729 31.4263 47.9489 32.5646 47.0405 33.94C46.0848 35.2499 45.4044 36.7399 45.0405 38.32C44.7346 39.9245 44.8065 41.5781 45.2505 43.15Z" fill="#231F20"/>
<path d="M45.1504 43.23C45.3904 42.7 45.6704 42.09 46.0104 41.42C46.8926 39.6278 47.8949 37.8972 49.0104 36.24C50.8246 33.688 52.9549 31.3763 55.3504 29.36C55.4616 31.9628 54.7931 34.5396 53.4304 36.76C51.5597 39.8613 48.612 42.1646 45.1504 43.23Z" fill="#1E6F5D"/>
<path d="M45.1104 43.27C45.3304 42.69 45.5403 41.87 45.8503 41.15C46.1603 40.43 46.4503 39.82 46.7803 39.15C47.4377 37.8382 48.2143 36.5896 49.1003 35.42C50.0299 34.2863 51.032 33.214 52.1003 32.21C53.1003 31.21 54.1704 30.21 55.2204 29.16L55.5704 28.83V29.33C55.7685 30.9155 55.6426 32.5247 55.2004 34.06C54.2948 37.1636 52.2712 39.8214 49.5204 41.52C48.857 41.9499 48.1537 42.315 47.4203 42.61C47.0537 42.7567 46.6837 42.8867 46.3104 43C45.9225 43.1374 45.5197 43.228 45.1104 43.27ZM45.1903 43.2C46.5675 42.5764 47.8692 41.7981 49.0704 40.88C50.2568 39.9705 51.3074 38.8964 52.1903 37.69C53.0958 36.5051 53.8173 35.1903 54.3303 33.79C54.8429 32.3747 55.1199 30.885 55.1504 29.38L55.5504 29.55C54.3942 30.4168 53.3258 31.3948 52.3604 32.47C51.4322 33.572 50.5738 34.7309 49.7904 35.94C48.9804 37.12 48.2003 38.32 47.4403 39.54L45.1903 43.2Z" fill="#231F20"/>
<path d="M50.4004 90.45C49.1943 91.1608 47.8444 91.5925 46.4497 91.7137C45.0551 91.8348 43.6509 91.6422 42.3404 91.15C38.5204 89.79 35.5104 86.28 35.1504 82.56C37.9335 82.0072 40.8203 82.3575 43.3904 83.56C46.4638 84.962 48.9455 87.4013 50.4004 90.45Z" fill="#3E9581"/>
<path d="M50.4401 90.46C49.0453 91.5242 47.3444 92.1099 45.5901 92.13C43.8306 92.173 42.0956 91.7115 40.5901 90.8C39.1406 89.8695 37.8815 88.6715 36.8801 87.27C35.8601 85.8896 35.1754 84.2908 34.8801 82.6L34.8301 82.33L35.1301 82.25C36.6735 81.847 38.2828 81.762 39.8601 82C41.4426 82.2155 42.9736 82.7134 44.3801 83.47C45.7845 84.2469 47.0433 85.262 48.1001 86.47C49.1359 87.6325 49.9312 88.9886 50.4401 90.46ZM50.3501 90.46C49.5585 89.1759 48.6001 88.0023 47.5001 86.97C46.4125 85.9469 45.179 85.0909 43.8401 84.43C42.5244 83.7421 41.1167 83.247 39.6601 82.96C38.1946 82.6885 36.6944 82.6614 35.2201 82.88L35.4701 82.53C35.5644 84.1707 36.142 85.7468 37.1301 87.06C38.1523 88.3522 39.469 89.3809 40.9701 90.06C42.4143 90.7805 43.9891 91.2023 45.6001 91.3C47.2282 91.3789 48.8529 91.0848 50.3501 90.44V90.46Z" fill="#231F20"/>
<path d="M50.4404 90.52C49.8804 90.37 49.2304 90.18 48.5204 89.95C46.6115 89.3422 44.7442 88.6107 42.9304 87.76C40.1274 86.3629 37.5132 84.6156 35.1504 82.56C37.7018 82.0466 40.3485 82.3078 42.7504 83.31C46.1138 84.6849 48.8519 87.252 50.4404 90.52Z" fill="#1E6F5D"/>
<path d="M50.4802 90.55C49.8702 90.42 49.0302 90.34 48.2802 90.15C47.5302 89.96 46.8702 89.77 46.1702 89.54C44.7884 89.0906 43.4498 88.5183 42.1702 87.83C40.9113 87.0808 39.6991 86.256 38.5402 85.36C37.3602 84.5 36.2002 83.63 35.0402 82.75L34.6602 82.46L35.1402 82.33C36.6689 81.9225 38.2647 81.8306 39.8302 82.06C41.4192 82.2687 42.9573 82.7634 44.3702 83.52C45.7761 84.2904 47.0326 85.3064 48.0802 86.52C48.604 87.1127 49.0726 87.7521 49.4802 88.43C49.6831 88.7539 49.87 89.0877 50.0402 89.43C50.2321 89.7839 50.3799 90.1601 50.4802 90.55ZM50.4102 90.49C49.5724 89.2437 48.5998 88.0934 47.5102 87.06C46.4246 86.0326 45.1991 85.164 43.8702 84.48C42.5552 83.7492 41.1351 83.2264 39.6602 82.93C38.1846 82.6368 36.6703 82.5928 35.1802 82.8L35.2902 82.38C36.3229 83.3817 37.4517 84.2793 38.6602 85.06C39.8897 85.8071 41.1657 86.4751 42.4802 87.06C43.7702 87.67 45.0802 88.26 46.4102 88.82L50.4102 90.49Z" fill="#231F20"/>
<path d="M44.6605 44.68C44.8058 45.8149 44.6952 46.9679 44.337 48.0545C43.9789 49.1411 43.3821 50.1339 42.5905 50.96C41.5057 52.1571 40.1147 53.0355 38.5676 53.5007C37.0205 53.9659 35.3757 54.0003 33.8105 53.6C34.2962 51.3243 35.5025 49.2659 37.2505 47.73C39.2803 45.8661 41.9069 44.785 44.6605 44.68Z" fill="#3E9581"/>
<path d="M44.6597 44.64C45.0489 46.0352 44.9609 47.5205 44.4097 48.86C43.8817 50.214 42.9627 51.3801 41.7697 52.21C40.5898 52.9915 39.2737 53.5444 37.8897 53.84C36.5113 54.1701 35.0769 54.1906 33.6897 53.9L33.4297 53.84V53.54C33.6057 52.2341 34.0556 50.9801 34.7497 49.86C35.4207 48.7262 36.2954 47.7261 37.3297 46.91C38.3771 46.0902 39.5623 45.4637 40.8297 45.06C42.0639 44.6582 43.3677 44.5152 44.6597 44.64ZM44.5897 44.72C43.3824 44.9269 42.2063 45.2864 41.0897 45.79C39.9829 46.2883 38.9525 46.9415 38.0297 47.73C37.1242 48.5028 36.3271 49.3942 35.6597 50.38C34.983 51.3849 34.4731 52.4925 34.1497 53.66L33.9297 53.29C35.1869 53.7727 36.5616 53.86 37.8697 53.54C39.1644 53.1811 40.3521 52.5117 41.3297 51.59C42.3188 50.735 43.1366 49.7 43.7397 48.54C44.3203 47.3486 44.6342 46.045 44.6597 44.72H44.5897Z" fill="#231F20"/>
<path d="M44.7098 44.66C44.4198 45.04 44.0698 45.46 43.7098 45.93C42.6322 47.166 41.4765 48.3317 40.2498 49.42C38.298 51.0781 36.1443 52.4826 33.8398 53.6C34.2736 51.516 35.3179 49.6083 36.8398 48.12C38.9549 46.0476 41.7529 44.8175 44.7098 44.66Z" fill="#1E6F5D"/>
<path d="M44.76 44.64C44.49 45.05 44.16 45.69 43.76 46.2C43.36 46.71 43.03 47.2 42.64 47.61C41.8624 48.5278 40.9947 49.3653 40.05 50.11C39.0768 50.8256 38.058 51.477 37 52.06L33.91 53.87L33.5 54.1L33.56 53.6C33.7217 52.295 34.1543 51.0381 34.83 49.91C36.1563 47.6133 38.2982 45.8998 40.83 45.11C42.0903 44.6697 43.4314 44.5094 44.76 44.64ZM44.67 44.69C43.4642 44.9401 42.2878 45.3155 41.16 45.81C40.0513 46.3037 39.0151 46.9463 38.08 47.72C37.1451 48.4694 36.3292 49.3561 35.66 50.35C34.9607 51.3537 34.4303 52.465 34.09 53.64L33.66 53.38C34.7567 52.9433 35.8001 52.383 36.77 51.71C37.722 51.017 38.6273 50.262 39.48 49.45C40.34 48.68 41.21 47.89 42.06 47.08L43.34 45.86C43.76 45.47 44.18 45.19 44.66 44.69H44.67Z" fill="#231F20"/>
<path d="M46.0301 45.6C44.8982 46.4219 43.5966 46.9797 42.2208 47.2324C40.845 47.4851 39.4301 47.4262 38.0801 47.06C34.1401 46.06 30.8101 42.86 30.0801 39.2C32.8032 38.3847 35.7162 38.4653 38.3901 39.43C41.5831 40.5242 44.2883 42.7088 46.0301 45.6Z" fill="#3E9581"/>
<path d="M46.08 45.61C44.7921 46.8027 43.1548 47.5494 41.41 47.74C39.6603 47.9531 37.8864 47.658 36.3 46.89C34.777 46.1061 33.419 45.0367 32.3 43.74C31.1342 42.4673 30.2816 40.9402 29.81 39.28L29.71 39.06L29.99 38.95C31.4891 38.3987 33.0852 38.1605 34.68 38.25C36.2742 38.3011 37.8462 38.6399 39.32 39.25C40.7924 39.8724 42.1458 40.7453 43.32 41.83C44.4843 42.892 45.423 44.1775 46.08 45.61ZM45.98 45.61C45.0683 44.4118 44.0025 43.3391 42.81 42.42C41.6274 41.5063 40.3166 40.7718 38.92 40.24C37.5401 39.7083 36.0928 39.3718 34.62 39.24C33.1341 39.1159 31.6379 39.2341 30.19 39.59L30.41 39.22C30.6548 40.8526 31.3827 42.3746 32.5 43.59C33.6597 44.7688 35.0868 45.6504 36.66 46.16C38.1662 46.7432 39.7759 47.0121 41.39 46.95C43.0044 46.8569 44.5754 46.3914 45.98 45.59V45.61Z" fill="#231F20"/>
<path d="M46.0805 45.67C45.5105 45.57 44.8505 45.45 44.0805 45.29C42.1227 44.8686 40.1951 44.3174 38.3105 43.64C35.3849 42.521 32.6128 41.0359 30.0605 39.22C32.5506 38.4603 35.2105 38.4603 37.7005 39.22C41.1946 40.2612 44.1797 42.5588 46.0805 45.67Z" fill="#1E6F5D"/>
<path d="M46.1198 45.7C45.5098 45.63 44.6598 45.63 43.8898 45.51C43.1198 45.39 42.4498 45.27 41.7398 45.11C40.3024 44.7992 38.8965 44.3574 37.5398 43.79C36.2022 43.1712 34.9062 42.4663 33.6598 41.68C32.3998 40.94 31.1598 40.19 29.9198 39.42L29.5098 39.17L29.9898 38.99C31.4779 38.4194 33.0675 38.1607 34.6598 38.23C36.2604 38.2822 37.8387 38.6209 39.3198 39.23C40.8001 39.8507 42.1554 40.7351 43.3198 41.84C43.901 42.3789 44.43 42.9715 44.8998 43.61C45.1389 43.9303 45.3592 44.2642 45.5598 44.61C45.7874 44.9508 45.9753 45.3165 46.1198 45.7ZM46.0398 45.64C45.0952 44.4605 44.0181 43.3935 42.8298 42.46C41.6483 41.5396 40.3419 40.7921 38.9498 40.24C37.5854 39.6551 36.1379 39.2874 34.6598 39.15C33.1635 38.9998 31.6526 39.1012 30.1898 39.45L30.2498 39.02C31.3798 39.9234 32.5956 40.7138 33.8798 41.38C35.1761 42.0072 36.5123 42.5483 37.8798 43C39.2198 43.49 40.5798 43.94 41.9498 44.37L46.0398 45.64Z" fill="#231F20"/>
<path d="M45.0801 52.9C46.3694 52.1229 47.6147 51.275 48.8101 50.36C50.0514 49.4268 51.2399 48.4252 52.3701 47.36" stroke="#754C29" stroke-miterlimit="10" stroke-linecap="round"/>
<path d="M46.1 72.86C43.6519 73.7269 41.6226 75.4882 40.42 77.79C40.2355 78.2014 40.0818 78.6259 39.96 79.06" stroke="#754C29" stroke-miterlimit="10" stroke-linecap="round"/>
<path d="M42.2151 83.8562C43.8352 82.6291 44.1323 80.2924 42.8785 78.637C41.6247 76.9816 39.2949 76.6344 37.6748 77.8615C36.0546 79.0886 35.7576 81.4253 37.0114 83.0807C38.2651 84.7361 40.5949 85.0833 42.2151 83.8562Z" fill="#2B3990"/>
<path d="M41.3164 84.0375C42.5007 83.1406 42.6823 81.3855 41.7219 80.1176C40.7616 78.8496 39.023 78.5489 37.8387 79.4459C36.6544 80.3429 36.4728 82.0979 37.4332 83.3658C38.3935 84.6338 40.1321 84.9345 41.3164 84.0375Z" fill="#1C4696"/>
<path d="M40.8292 84.2979C40.8808 83.9649 40.3209 83.6018 39.5787 83.4868C38.8364 83.3717 38.1929 83.5483 38.1413 83.8813C38.0897 84.2142 38.6496 84.5773 39.3918 84.6924C40.1341 84.8074 40.7776 84.6308 40.8292 84.2979Z" fill="#0067AC"/>
<path d="M39.3999 84.73C39.1399 84.73 38.8599 84.73 38.5699 84.62C38.4172 84.5872 38.2758 84.5147 38.1599 84.41C38.0809 84.3497 38.0184 84.2704 37.9782 84.1795C37.9379 84.0886 37.9214 83.989 37.9299 83.89C37.9507 83.7923 37.9981 83.7022 38.0669 83.6298C38.1358 83.5574 38.2234 83.5056 38.3199 83.48C38.4596 83.4381 38.6042 83.4146 38.7499 83.41C39.0248 83.3701 39.3022 83.35 39.5799 83.35C39.8714 83.3429 40.161 83.3974 40.4299 83.51C40.578 83.5687 40.7162 83.6496 40.8399 83.75C40.9256 83.8151 40.9941 83.9001 41.0395 83.9977C41.0848 84.0953 41.1055 84.2025 41.0999 84.31C41.0844 84.4204 41.0389 84.5245 40.9684 84.6109C40.8979 84.6973 40.805 84.7627 40.6999 84.8C40.5549 84.8615 40.3967 84.8856 40.2399 84.87C39.9399 84.85 39.6599 84.77 39.3999 84.73ZM39.3999 84.73C39.6637 84.7589 39.9303 84.7139 40.1699 84.6C40.3899 84.5 40.6099 84.32 40.5599 84.31C40.4847 84.1666 40.3655 84.0509 40.2199 83.98C39.9993 83.8569 39.7685 83.7531 39.5299 83.67C39.2859 83.5853 39.0242 83.5647 38.7699 83.61C38.5199 83.61 38.2699 83.9 38.3399 83.97C38.4626 84.1531 38.6203 84.3101 38.804 84.4319C38.9876 84.5538 39.1936 84.6381 39.4099 84.68L39.3999 84.73Z" fill="#231F20"/>
<path d="M40.5829 84.2595C40.6252 83.9867 40.1684 83.6893 39.5626 83.5954C38.9568 83.5015 38.4314 83.6467 38.3891 83.9195C38.3468 84.1924 38.8036 84.4897 39.4094 84.5836C40.0152 84.6775 40.5406 84.5324 40.5829 84.2595Z" fill="#124B9A"/>
<path d="M38.3999 80.38C38.2799 80.25 37.5499 80.53 37.3299 81.11C37.2447 81.4207 37.2597 81.7504 37.3728 82.052C37.4859 82.3537 37.6914 82.612 37.9599 82.79C38.0599 82.79 37.8599 82.34 37.9599 81.64C38.0599 80.94 38.5199 80.49 38.3999 80.38Z" fill="white"/>
<path d="M40.3898 85.11C40.5698 85.05 40.5898 84.57 40.2998 84.25C40.0766 84.0374 39.7915 83.9015 39.4858 83.8619C39.1801 83.8223 38.8698 83.8812 38.5998 84.03C38.2498 84.31 38.3298 84.86 38.4698 84.9C38.6098 84.94 38.7798 84.6 38.9598 84.65C39.1398 84.7 39.1198 85.04 39.2498 85.06C39.3798 85.08 39.3998 84.82 39.5998 84.78C39.7998 84.74 40.2098 85.16 40.3898 85.11Z" fill="#2B3990"/>
<path d="M47.2884 44.1442C47.7545 42.8975 47.1007 41.5011 45.8282 41.0253C44.5556 40.5495 43.1461 41.1744 42.6799 42.4211C42.2138 43.6679 42.8676 45.0642 44.1402 45.54C45.4127 46.0158 46.8222 45.3909 47.2884 44.1442Z" fill="#2B3990"/>
<path d="M46.6355 43.317C46.9759 42.4065 46.4593 41.3721 45.4816 41.0065C44.5038 40.641 43.4353 41.0827 43.0949 41.9932C42.7545 42.9036 43.2711 43.9381 44.2488 44.3036C45.2265 44.6692 46.2951 44.2274 46.6355 43.317Z" fill="#1C4696"/>
<path d="M44.2606 41.684C44.7111 41.4875 45.0048 41.1641 44.9165 40.9616C44.8282 40.7591 44.3914 40.7542 43.9408 40.9507C43.4903 41.1471 43.1966 41.4706 43.2849 41.6731C43.3732 41.8756 43.81 41.8804 44.2606 41.684Z" fill="#0067AC"/>
<path d="M43.9198 40.94C44.0798 40.87 44.2298 40.74 44.4198 40.66C44.4772 40.6269 44.5408 40.6058 44.6066 40.598C44.6724 40.5902 44.7391 40.5958 44.8026 40.6145C44.8662 40.6332 44.9253 40.6646 44.9764 40.7068C45.0275 40.749 45.0695 40.8011 45.0998 40.86C45.1798 41.28 44.8898 41.35 44.7698 41.47L44.3298 41.81C44.1744 41.9385 43.9884 42.0246 43.7898 42.06C43.6565 42.1095 43.5102 42.1117 43.3755 42.0662C43.2408 42.0206 43.1258 41.9302 43.0498 41.81C43.0134 41.7308 42.9997 41.643 43.0103 41.5565C43.0209 41.4699 43.0554 41.388 43.1098 41.32C43.1781 41.2281 43.2721 41.1585 43.3798 41.12C43.5698 41.06 43.7598 41.06 43.9198 40.94ZM43.9198 40.94C43.7628 41.0194 43.6414 41.1551 43.5798 41.32C43.4998 41.46 43.4898 41.64 43.4998 41.53C43.5098 41.42 43.5798 41.53 43.7198 41.53C43.8795 41.544 44.0401 41.544 44.1998 41.53C44.3662 41.5125 44.5216 41.4383 44.6398 41.32C44.7598 41.21 44.7698 40.96 44.7098 41.02C44.6498 41.08 44.2398 40.82 43.9398 40.98L43.9198 40.94Z" fill="#231F20"/>
<path d="M44.2328 41.6198C44.6023 41.4586 44.8429 41.1926 44.77 41.0255C44.6972 40.8584 44.3385 40.8536 43.969 41.0148C43.5994 41.1759 43.3589 41.442 43.4317 41.6091C43.5046 41.7761 43.8632 41.7809 44.2328 41.6198Z" fill="#124B9A"/>
<path d="M46.0004 43C46.1204 43 46.4204 42.62 46.3404 42.22C46.279 42.0174 46.155 41.8395 45.986 41.7119C45.8171 41.5843 45.6121 41.5136 45.4004 41.51C45.4004 41.51 45.6204 41.73 45.8004 42.16C45.9804 42.59 45.9004 42.98 46.0004 43Z" fill="white"/>
<path d="M43.25 41.06C43.17 41.15 43.32 41.43 43.59 41.5C43.792 41.5466 44.0034 41.5293 44.1951 41.4504C44.3868 41.3716 44.5492 41.2352 44.66 41.06C44.75 40.79 44.51 40.51 44.42 40.53C44.33 40.55 44.36 40.81 44.24 40.84C44.12 40.87 44.01 40.68 43.93 40.72C43.85 40.76 43.93 40.9 43.84 41C43.75 41.1 43.33 40.99 43.25 41.06Z" fill="#2B3990"/>
<path d="M46.1612 46.8017C46.4873 45.4828 45.7043 44.1546 44.4122 43.8351C43.1201 43.5156 41.8083 44.3258 41.4821 45.6447C41.156 46.9635 41.939 48.2917 43.2311 48.6113C44.5232 48.9308 45.8351 48.1206 46.1612 46.8017Z" fill="#2B3990"/>
<path d="M44.9284 46.8311C45.179 45.8178 44.6172 44.8072 43.6736 44.5738C42.73 44.3405 41.7619 44.9728 41.5113 45.9861C41.2608 46.9994 41.8226 48.01 42.7662 48.2433C43.7097 48.4766 44.6778 47.8444 44.9284 46.8311Z" fill="#1C4696"/>
<path d="M42.4277 48.0919C42.6187 47.9809 42.5733 47.5464 42.3264 47.1214C42.0794 46.6964 41.7244 46.4419 41.5334 46.5529C41.3423 46.6639 41.3877 47.0984 41.6347 47.5234C41.8816 47.9484 42.2366 48.2029 42.4277 48.0919Z" fill="#0067AC"/>
<path d="M41.6604 47.54C41.5804 47.39 41.4304 47.26 41.3304 47.08C41.292 47.0262 41.2647 46.9654 41.2499 46.9011C41.2352 46.8367 41.2333 46.7701 41.2445 46.705C41.2557 46.6399 41.2796 46.5777 41.3149 46.5219C41.3503 46.4661 41.3963 46.4179 41.4504 46.38C41.8504 46.25 41.9604 46.53 42.0904 46.64L42.4804 47.04C42.6264 47.1761 42.7334 47.3487 42.7904 47.54C42.8524 47.6663 42.8704 47.8098 42.8414 47.9476C42.8124 48.0853 42.7381 48.2094 42.6304 48.3C42.5555 48.347 42.4688 48.372 42.3804 48.372C42.2919 48.372 42.2053 48.347 42.1304 48.3C42.0175 48.2502 41.9231 48.1662 41.8604 48.06C41.7504 47.88 41.7104 47.69 41.6604 47.54ZM41.6604 47.54C41.7609 47.684 41.91 47.787 42.0804 47.83C42.2304 47.89 42.4004 47.83 42.2904 47.83C42.1804 47.83 42.2904 47.75 42.2904 47.61C42.2767 47.4547 42.2499 47.3008 42.2104 47.15C42.171 46.9833 42.0757 46.835 41.9404 46.73C41.8204 46.62 41.5704 46.64 41.6404 46.73C41.7104 46.82 41.4704 47.23 41.6604 47.52V47.54Z" fill="#231F20"/>
<path d="M42.347 47.9536C42.5046 47.862 42.4681 47.5052 42.2655 47.1566C42.063 46.808 41.771 46.5996 41.6134 46.6912C41.4559 46.7828 41.4923 47.1396 41.6949 47.4882C41.8974 47.8368 42.1894 48.0451 42.347 47.9536Z" fill="#124B9A"/>
<path d="M43.43 45.23C43.43 45.12 43 44.86 42.62 44.98C42.4279 45.063 42.2667 45.2041 42.1591 45.3835C42.0515 45.5629 42.0028 45.7715 42.02 45.98C42.02 45.98 42.21 45.74 42.61 45.51C43.01 45.28 43.42 45.34 43.43 45.23Z" fill="white"/>
<path d="M41.8399 48.19C41.9399 48.26 42.1999 48.08 42.2399 47.8C42.2579 47.5927 42.2107 47.3849 42.1049 47.2056C41.9991 47.0264 41.8401 46.8846 41.6499 46.8C41.3699 46.74 41.1199 47 41.1499 47.09C41.1799 47.18 41.4399 47.09 41.4799 47.24C41.5199 47.39 41.3499 47.48 41.3999 47.55C41.4499 47.62 41.5799 47.55 41.6799 47.62C41.7799 47.69 41.7399 48.12 41.8399 48.19Z" fill="#2B3990"/>
<path d="M48.2948 46.9369C49.4138 46.1664 49.709 44.6531 48.9542 43.5568C48.1993 42.4606 46.6803 42.1965 45.5613 42.967C44.4423 43.7375 44.1471 45.2508 44.9019 46.3471C45.6568 47.4433 47.1758 47.7074 48.2948 46.9369Z" fill="#2B3990"/>
<path d="M48.4983 46.6706C49.358 46.0787 49.608 44.9498 49.0568 44.1492C48.5055 43.3486 47.3617 43.1795 46.502 43.7715C45.6423 44.3634 45.3922 45.4923 45.9435 46.2929C46.4947 47.0935 47.6385 47.2626 48.4983 46.6706Z" fill="#1C4696"/>
<path d="M49.4289 45.4253C49.526 44.9434 49.4292 44.5174 49.2127 44.4738C48.9961 44.4301 48.7418 44.7853 48.6447 45.2671C48.5475 45.749 48.6443 46.175 48.8609 46.2187C49.0774 46.2623 49.3317 45.9071 49.4289 45.4253Z" fill="#0067AC"/>
<path d="M49.4501 45.42C49.4501 45.59 49.4501 45.78 49.3901 45.99C49.3853 46.056 49.367 46.1202 49.3362 46.1788C49.3054 46.2373 49.2628 46.2888 49.2112 46.3302C49.1596 46.3715 49.0999 46.4017 49.0361 46.4188C48.9722 46.436 48.9055 46.4398 48.8401 46.43C48.4501 46.26 48.5601 45.98 48.5301 45.81V45.25C48.5143 45.0514 48.5487 44.8519 48.6301 44.67C48.7301 44.51 48.8001 44.21 49.2601 44.21C49.3473 44.2227 49.4289 44.2608 49.4946 44.3195C49.5604 44.3781 49.6075 44.4548 49.6301 44.54C49.6645 44.6473 49.6645 44.7627 49.6301 44.87C49.5701 45.06 49.4801 45.25 49.4501 45.42ZM49.4501 45.42C49.4741 45.2456 49.4351 45.0683 49.3401 44.92C49.2701 44.78 49.1201 44.67 49.2101 44.75C49.3001 44.83 49.1301 44.75 49.0601 44.91C48.9714 45.0414 48.8913 45.1784 48.8201 45.32C48.7401 45.4664 48.7119 45.6356 48.7401 45.8C48.7401 45.96 48.9601 46.11 48.9401 46.03C48.9201 45.95 49.3601 45.76 49.4001 45.41L49.4501 45.42Z" fill="#231F20"/>
<path d="M49.3606 45.4114C49.4403 45.0162 49.3601 44.6666 49.1814 44.6306C49.0027 44.5946 48.7933 44.8858 48.7136 45.281C48.6339 45.6762 48.7142 46.0258 48.8928 46.0618C49.0715 46.0978 49.2809 45.8067 49.3606 45.4114Z" fill="#124B9A"/>
<path d="M46.5704 45.95C46.4804 46.03 46.6404 46.51 47.0104 46.67C47.2112 46.7361 47.4278 46.7368 47.629 46.6721C47.8302 46.6075 48.0058 46.4807 48.1304 46.31C48.1304 46.24 47.8304 46.31 47.3804 46.31C46.9304 46.31 46.6604 45.88 46.5704 45.95Z" fill="white"/>
<path d="M49.7203 44.79C49.7203 44.67 49.3803 44.64 49.1603 44.79C49.0192 44.9334 48.9246 45.1161 48.8889 45.3141C48.8532 45.5121 48.8781 45.7163 48.9603 45.9C49.1303 46.13 49.5003 46.1 49.5303 46.01C49.5603 45.92 49.3403 45.8 49.3803 45.68C49.4203 45.56 49.6403 45.59 49.6503 45.5C49.6603 45.41 49.5003 45.4 49.4803 45.26C49.4603 45.12 49.7503 44.91 49.7203 44.79Z" fill="#2B3990"/>
</svg>
