<svg width="207" height="97" viewBox="0 0 207 97" fill="none" xmlns="http://www.w3.org/2000/svg">
<g clip-path="url(#clip0)">
<path d="M79.3301 47.76C81.2001 42.57 91.4001 34.44 103.42 34.49C113.1 34.53 122.02 39.86 126.6 48.26L79.3301 47.76Z" fill="#603913"/>
<path d="M71.1707 44.5C76.4507 33.63 96.0908 33.74 101.911 33.77C109.551 33.81 125.201 33.89 130.591 43.47C132.941 47.64 131.651 54.39 129.071 67.88C127.061 78.4 125.981 83.74 122.521 87.3C116.521 93.47 107.851 93.75 102.031 93.94C96.0607 94.14 86.0108 94.46 79.6608 87.86C78.0708 86.21 76.7707 84.18 73.4307 66.45C69.8807 47.69 70.5507 45.76 71.1707 44.5Z" fill="#3E9581"/>
<path d="M71.0804 44.4501C72.0104 42.5401 73.4304 40.8801 75.1004 39.5801C76.7504 38.2401 78.6704 37.2701 80.6204 36.4301C84.5604 34.8101 88.7704 33.9601 92.9804 33.4501C97.2104 32.9301 101.46 32.8701 105.69 32.9401C107.81 32.9701 109.94 33.0901 112.07 33.3401C114.2 33.5701 116.31 33.9401 118.4 34.5101C120.48 35.0601 122.53 35.8201 124.43 36.8801C126.33 37.9301 128.14 39.2401 129.5 40.9701C129.88 41.3601 130.16 41.8401 130.46 42.3001C130.75 42.7701 131.07 43.2001 131.28 43.7301C131.73 44.7501 132 45.8301 132.11 46.9101C132.34 49.0701 132.15 51.2001 131.91 53.3001C131.38 57.5001 130.59 61.6401 129.85 65.7901C129.05 69.9301 128.45 74.1001 127.48 78.2301C126.99 80.3001 126.41 82.3701 125.45 84.3501C124.96 85.3301 124.38 86.2801 123.68 87.1501C123.32 87.5801 122.94 87.9901 122.54 88.3601C122.15 88.7501 121.75 89.1201 121.31 89.4601C117.9 92.2701 113.59 93.7501 109.34 94.3501C107.21 94.6701 105.06 94.8101 102.95 94.9001C100.84 94.9901 98.7204 95.0801 96.5704 95.0301C92.2904 94.9301 87.8604 94.2601 83.8804 92.2301C81.9004 91.2101 80.1204 89.8401 78.5804 88.1601C77.7704 87.2401 77.2604 86.1501 76.8604 85.1301C76.4504 84.1001 76.1604 83.0601 75.8804 82.0201C74.7804 77.8801 74.0704 73.7201 73.3804 69.5601C72.7104 65.3901 72.0604 61.2301 71.5204 57.0401C71.2604 54.9501 70.9704 52.8601 70.7904 50.7501C70.7004 49.7001 70.6104 48.6501 70.6004 47.5901C70.5604 46.5401 70.5704 45.4301 71.0804 44.4501ZM71.2604 44.5401C70.8004 45.4701 70.8004 46.5501 70.8104 47.5801C70.8404 48.6301 70.9204 49.6701 71.0504 50.7201C71.3204 52.8001 71.6304 54.8901 72.0304 56.9501C72.8104 61.0801 73.7004 65.2001 74.6404 69.3101C75.5904 73.4001 76.5404 77.5101 77.7004 81.5001C78.0004 82.4901 78.3204 83.4701 78.7004 84.3901C79.0804 85.3201 79.5004 86.1601 80.1004 86.8201C81.4304 88.2301 83.0504 89.4501 84.8204 90.3301C88.3804 92.1501 92.5004 92.7801 96.6004 92.9401C98.6604 93.0301 100.75 92.9701 102.85 92.9101C104.94 92.8601 107.01 92.7501 109.05 92.4801C113.11 91.9501 117.1 90.7001 120.3 88.2101C120.71 87.9101 121.09 87.5801 121.45 87.2301C121.84 86.9001 122.18 86.5401 122.51 86.1701C123.16 85.4301 123.73 84.6001 124.21 83.7101C125.17 81.9301 125.83 79.9501 126.39 77.9401C127.47 73.9101 128.32 69.7701 129.13 65.6401C129.94 61.5101 130.79 57.3801 131.24 53.2101C131.44 51.1301 131.56 49.0301 131.27 47.0001C131.12 45.9901 130.83 45.0101 130.38 44.1301C130.18 43.6801 129.85 43.2801 129.57 42.8601C129.28 42.4501 129.01 42.0201 128.63 41.6701C127.31 40.1301 125.58 38.9901 123.76 38.0901C122.86 37.6101 121.89 37.2801 120.94 36.9101C119.95 36.6201 118.98 36.3001 117.97 36.0901C113.96 35.1301 109.8 34.8201 105.63 34.6701C101.44 34.5701 97.2504 34.4201 93.0804 34.6701C88.9204 34.9201 84.7404 35.5201 80.7904 36.8901C78.8204 37.5801 76.9304 38.5201 75.2504 39.7701C73.5904 41.0501 72.2004 42.6701 71.2604 44.5401Z" fill="black"/>
<path d="M71.1598 43.6102C71.2798 37.7402 89.0598 32.3802 103.84 32.7902C115.58 33.1102 131.15 37.2202 131.44 42.7302C131.73 48.2302 116.71 54.6702 103.4 55.3202C88.1398 56.0602 71.0398 49.4102 71.1598 43.6102Z" fill="#3E9581"/>
<path d="M71.06 43.6101C71.07 42.8701 71.36 42.1701 71.76 41.5801C72.16 40.9801 72.66 40.4601 73.21 40.0001C74.28 39.0501 75.52 38.3301 76.76 37.6301C79.27 36.2701 81.95 35.2701 84.67 34.4101C90.12 32.7101 95.84 31.8901 101.56 31.9301C107.3 32.0201 112.92 33.0501 118.41 34.4601C121.15 35.1801 123.87 36.0301 126.46 37.2301C127.75 37.8401 129.01 38.5501 130.14 39.5201C130.7 40.0101 131.2 40.5901 131.56 41.3001C131.92 42.0001 132.06 42.8801 131.89 43.6801C131.54 45.3001 130.48 46.4801 129.42 47.4901C128.33 48.4901 127.12 49.3201 125.87 50.0501C123.37 51.5101 120.71 52.6301 117.99 53.5401C112.55 55.3401 106.84 56.4401 101.06 56.4201C95.3 56.3701 89.57 55.4301 84.19 53.4901C81.5 52.5301 78.87 51.3901 76.43 49.8901C75.23 49.1301 74.03 48.3301 73.02 47.3201C72.51 46.8301 72.04 46.2701 71.67 45.6601C71.29 45.0601 71.03 44.3501 71.06 43.6101ZM71.26 43.6201C71.27 45.0101 72.21 46.2101 73.22 47.1301C74.26 48.0601 75.45 48.8101 76.7 49.4301C79.2 50.6801 81.86 51.5701 84.57 52.2501C89.99 53.5601 95.53 54.3401 101.06 54.3001C106.57 54.2701 112.11 53.3701 117.41 51.7601C120.05 50.9301 122.66 49.9601 125.1 48.6801C126.31 48.0301 127.48 47.3101 128.53 46.4801C129.56 45.6401 130.51 44.6301 130.83 43.4701C131.17 42.3201 130.52 41.1001 129.56 40.1701C128.6 39.2301 127.41 38.4801 126.17 37.8601C123.68 36.6101 120.98 35.7601 118.26 35.1101C115.53 34.4601 112.74 34.0601 109.95 33.8201C107.16 33.5801 104.36 33.4901 101.58 33.6101C96.02 33.8101 90.47 34.5001 85 35.6301C82.27 36.2201 79.56 36.9801 77 38.1001C75.72 38.6501 74.49 39.3401 73.39 40.2101C72.32 41.0701 71.32 42.2201 71.26 43.6201Z" fill="black"/>
<path d="M77.7397 43.3801C77.8297 39.2001 91.3897 35.3901 102.67 35.6801C111.63 35.9101 123.5 38.8301 123.72 42.7501C123.94 46.6701 112.49 51.2401 102.33 51.7101C90.6997 52.2401 77.6497 47.5101 77.7397 43.3801Z" fill="black" stroke="black" stroke-width="3" stroke-miterlimit="10"/>
<path d="M126.08 9.90015C126.65 22.6901 122.92 28.7501 119.91 31.8201C119.12 32.6301 118.42 33.1801 111.35 38.6201C107.06 41.9201 103.47 44.6801 100.87 46.6801C100.89 44.7701 101.03 41.5201 101.87 37.6301C102.89 32.9101 103.81 28.5001 107.04 24.7701C109.78 21.6001 111.62 21.8601 116.93 18.1501C121.22 15.1401 124.23 12.0301 126.08 9.90015Z" fill="#3E9581"/>
<path d="M126.11 9.81006C126.15 10.2701 126.25 10.7501 126.33 11.2901L126.42 12.1201L126.46 12.8801L126.54 14.3801C126.55 14.8801 126.54 15.3801 126.54 15.8801C126.5 17.8901 126.31 19.9101 125.9 21.9001C125.49 23.8901 124.84 25.8601 123.91 27.7001C123 29.5601 121.75 31.2601 120.21 32.6801C119.4 33.3901 118.59 33.9401 117.78 34.5301L115.34 36.2401C113.71 37.3701 112.08 38.5001 110.49 39.6901C107.3 42.0501 104.24 44.5601 101.2 47.1201L100.35 47.8301L100.31 46.6701C100.25 44.6701 100.28 42.6501 100.52 40.6501C100.74 38.6401 101.13 36.6701 101.54 34.7301C101.96 32.7801 102.47 30.7901 103.26 28.8701C104.06 26.9501 105.19 25.1401 106.64 23.6001C107.37 22.8301 108.22 22.1201 109.13 21.5601C110.03 20.9901 110.94 20.5501 111.81 20.1201C113.55 19.2501 115.22 18.2801 116.85 17.2101C118.48 16.1401 120.07 15.0001 121.58 13.7501C122.33 13.1201 123.09 12.5001 123.82 11.8401L124.91 10.8401L125.45 10.3301C125.61 10.2001 125.92 9.93006 126.11 9.81006ZM126.04 10.0001C125.9 10.2501 125.89 10.3501 125.7 10.5701L125.24 11.1601L124.29 12.3101C123.64 13.0701 122.98 13.8101 122.26 14.5201C120.84 15.9301 119.36 17.2901 117.76 18.5101C116.18 19.7401 114.47 20.8701 112.72 21.8401C111.85 22.3401 110.99 22.7901 110.23 23.3001C109.47 23.8001 108.8 24.3801 108.19 25.0701C105.65 27.7801 104.29 31.3801 103.37 35.1701C102.91 37.0801 102.41 38.9801 102.09 40.8801C101.77 42.8001 101.51 44.7301 101.41 46.6801L100.53 46.2401C103.78 43.9601 107 41.6501 110.09 39.1701C111.64 37.9401 113.15 36.6501 114.66 35.3601C116.14 34.0701 117.74 32.7801 119.06 31.4801C121.68 28.7701 123.39 25.2701 124.39 21.5401C124.89 19.6701 125.22 17.7501 125.47 15.8101C125.59 14.8401 125.7 13.8601 125.77 12.8701L125.89 11.4801C125.95 11.0401 126.03 10.5301 126.04 10.0001Z" fill="black"/>
<path d="M126.08 9.90015C122.24 16.3501 117.97 23.0401 113.25 29.8701C109.09 35.8901 104.94 41.4801 100.87 46.6801C103.67 44.6001 107.62 41.6101 112.3 37.8901C119.84 31.9001 120.96 30.6101 121.67 29.7101C123.81 26.9401 127.17 21.0601 126.08 9.90015Z" fill="#1E6F5D"/>
<path d="M126.05 10C125.82 10.46 125.72 10.88 125.55 11.22L124.92 12.46C124.49 13.29 124.08 14.13 123.62 14.94C122.73 16.58 121.8 18.2 120.85 19.8C118.93 23 116.93 26.14 114.75 29.17C112.55 32.18 110.18 35.07 107.88 38C105.6 40.9501 103.39 43.93 101.24 46.98L100.57 46.2901L105.13 42.4501C106.67 41.2001 108.19 39.92 109.74 38.69C112.85 36.24 115.88 33.65 118.82 31.09C119.54 30.43 120.25 29.81 120.8 29.12C121.39 28.39 121.91 27.61 122.39 26.8C123.36 25.18 124.07 23.39 124.62 21.55C125.14 19.7 125.53 17.78 125.71 15.83C125.78 14.85 125.88 13.87 125.91 12.89L125.96 11.47C126 11.04 126.07 10.53 126.05 10ZM126.1 9.80005C126.16 10.25 126.3 10.74 126.4 11.3C126.51 11.88 126.54 12.36 126.59 12.86C126.71 13.86 126.75 14.86 126.76 15.87C126.77 17.88 126.63 19.93 126.19 21.93C125.34 25.9 123.5 29.91 120.26 32.68C117.24 35.3601 114.08 37.76 110.88 40.14C109.28 41.33 107.66 42.4801 106.05 43.6501L101.16 47.07L97.9297 49.3301L100.49 46.3801C102.93 43.57 105.21 40.6401 107.33 37.5801C109.43 34.5101 111.36 31.33 113.36 28.21C115.38 25.1 117.49 22.05 119.58 18.98L122.75 14.4C123.27 13.63 123.83 12.88 124.37 12.12L125.18 10.98C125.47 10.52 125.85 10.14 126.1 9.80005Z" fill="black"/>
<path d="M81.0007 6.76001C78.6707 19.35 81.5207 25.87 84.0807 29.32C84.7507 30.23 85.3707 30.88 91.6107 37.24C95.4007 41.1 98.5707 44.33 100.871 46.67C101.121 44.77 101.421 41.53 101.131 37.56C100.771 32.75 100.481 28.25 97.7907 24.11C95.5207 20.6 93.6607 20.6 88.9107 16.18C85.0807 12.62 82.5407 9.13001 81.0007 6.76001Z" fill="#3E9581"/>
<path d="M81.0205 6.85992C80.9605 7.38992 80.9705 7.90992 80.9605 8.34992L80.8805 9.73992C80.8205 10.7299 80.7905 11.7099 80.7705 12.6899C80.7505 14.6499 80.8105 16.5999 81.0505 18.5199C81.5205 22.3499 82.7305 26.0599 84.9505 29.0999C86.0805 30.5799 87.4805 32.0699 88.7705 33.5499C90.0805 35.0399 91.4005 36.5199 92.7705 37.9599C95.4905 40.8399 98.3605 43.5799 101.261 46.2899L100.32 46.5999C100.49 44.6499 100.5 42.6999 100.45 40.7599C100.39 38.8299 100.161 36.8799 99.9705 34.9199C99.5805 31.0399 98.7305 27.2899 96.5905 24.2499C96.0805 23.4899 95.5005 22.8199 94.8105 22.2199C94.1305 21.6099 93.3405 21.0499 92.5505 20.4299C90.9505 19.2199 89.4205 17.8699 88.0205 16.4299C86.6105 14.9999 85.3305 13.4499 84.1205 11.8599C83.5105 11.0699 82.9605 10.2299 82.4205 9.38992L81.6405 8.11992L81.2705 7.46992C81.1205 7.22992 81.1205 7.12992 81.0205 6.85992ZM80.9805 6.66992C81.1505 6.81992 81.4205 7.12992 81.5405 7.29992L82.0005 7.87992L82.9405 9.01992C83.5805 9.76992 84.2405 10.4999 84.9005 11.2199C86.2305 12.6599 87.6405 14.0099 89.1105 15.2999C90.5805 16.5899 92.0905 17.7699 93.7005 18.8799C94.5005 19.4299 95.3405 19.9899 96.1605 20.6799C96.9805 21.3599 97.7305 22.1799 98.3405 23.0399C99.5605 24.7599 100.43 26.7199 100.95 28.7299C101.47 30.7399 101.7 32.7699 101.84 34.7699C101.98 36.7499 102.1 38.7499 102.03 40.7699C101.99 42.7799 101.741 44.7899 101.401 46.7599L101.2 47.8999L100.46 47.0699C97.8105 44.1199 95.1205 41.1999 92.2905 38.4299C90.8805 37.0399 89.4205 35.6899 87.9605 34.3399L85.8005 32.2999C85.0805 31.6099 84.3505 30.9499 83.6505 30.1399C82.3205 28.5199 81.3205 26.6599 80.6805 24.6999C80.0105 22.7399 79.6405 20.7099 79.5205 18.6799C79.3905 16.6499 79.4805 14.6199 79.7205 12.6299C79.7905 12.1299 79.8405 11.6299 79.9305 11.1399L80.2205 9.66992L80.3705 8.92992L80.5805 8.11992C80.7105 7.56992 80.8805 7.10992 80.9805 6.66992Z" fill="black"/>
<path d="M81.0002 6.76001C83.9102 13.68 87.2102 20.89 90.9402 28.32C94.2202 34.85 97.5602 40.97 100.87 46.68C98.3902 44.23 94.8802 40.72 90.7702 36.39C84.1402 29.41 83.2002 27.98 82.6302 26.99C80.8802 23.95 78.3702 17.66 81.0002 6.76001Z" fill="#1E6F5D"/>
<path d="M80.99 6.65991C81.19 7.02991 81.5101 7.45991 81.7501 7.94991L82.4001 9.19991C82.8301 10.0299 83.2701 10.8499 83.6801 11.6799L86.1801 16.6599C87.8301 19.9899 89.48 23.2999 91.06 26.6599C92.61 30.0299 94.08 33.4499 95.74 36.7799C97.42 40.0999 99.2701 43.3199 101.29 46.4399L103.42 49.7199L100.53 47.0299L96.1601 42.9599C94.7301 41.5799 93.2701 40.2199 91.8601 38.8199C89.0201 36.0299 86.22 33.2099 83.6 30.1399C80.78 26.9499 79.5101 22.7299 79.2201 18.6699C79.0701 16.6299 79.2101 14.5899 79.5001 12.5899C79.6501 11.5899 79.83 10.5999 80.09 9.62991C80.21 9.13991 80.31 8.66991 80.49 8.10991C80.66 7.56991 80.87 7.10991 80.99 6.65991ZM81.0101 6.85991C80.9201 7.38991 80.92 7.89991 80.88 8.31991L80.7301 9.72991C80.6201 10.7099 80.58 11.6999 80.52 12.6699C80.42 14.6299 80.55 16.5799 80.81 18.4899C81.1 20.3899 81.5601 22.2599 82.3001 23.9999C82.6601 24.8699 83.07 25.7199 83.56 26.5199C84.01 27.2799 84.6301 27.9999 85.2501 28.7499C87.8101 31.6899 90.4601 34.6699 93.1901 37.5299C94.5601 38.9599 95.89 40.4399 97.24 41.8899L101.22 46.3199L100.46 46.9099C98.75 43.5999 96.97 40.3299 95.13 37.0999C93.26 33.8799 91.3101 30.6899 89.5501 27.4099C87.8101 24.1099 86.26 20.7199 84.81 17.2899C84.09 15.5699 83.39 13.8399 82.74 12.0899C82.4 11.2199 82.1101 10.3299 81.8001 9.44991L81.35 8.12991C81.21 7.77991 81.1701 7.34991 81.0101 6.85991Z" fill="black"/>
<path d="M94.0502 74.26C96.1985 74.26 97.9402 72.5184 97.9402 70.37C97.9402 68.2216 96.1985 66.48 94.0502 66.48C91.9018 66.48 90.1602 68.2216 90.1602 70.37C90.1602 72.5184 91.9018 74.26 94.0502 74.26Z" fill="white"/>
<path d="M97.9598 70.47C97.9298 71.49 97.5698 72.52 96.8398 73.3C96.1298 74.09 95.0198 74.52 93.9498 74.46C91.7598 74.33 90.0398 72.38 90.0298 70.27C89.9998 69.22 90.4298 68.14 91.2098 67.38C91.9698 66.62 93.0698 66.18 94.1498 66.22C95.2398 66.24 96.2998 66.75 96.9798 67.57C97.6698 68.39 97.9898 69.45 97.9598 70.47ZM97.9098 70.47C97.9398 69.45 97.4698 68.46 96.7498 67.81C96.0298 67.15 95.0998 66.77 94.1398 66.75C93.1898 66.74 92.2398 67.08 91.5298 67.73C90.8198 68.38 90.3698 69.3 90.2998 70.28C90.2298 71.26 90.5798 72.29 91.2998 72.99C91.9998 73.71 92.9998 74.06 93.9598 74.05C94.9298 74.05 95.8698 73.69 96.6198 73.07C97.3698 72.45 97.8998 71.49 97.9098 70.47Z" fill="black"/>
<path d="M94.2403 74.12C95.5989 74.12 96.7003 73.0186 96.7003 71.66C96.7003 70.3013 95.5989 69.2 94.2403 69.2C92.8817 69.2 91.7803 70.3013 91.7803 71.66C91.7803 73.0186 92.8817 74.12 94.2403 74.12Z" fill="black" stroke="black" stroke-width="0.75" stroke-miterlimit="10"/>
<path d="M89.2803 63.9901C89.9503 63.6301 91.0903 63.1101 92.6003 62.9401C94.1803 62.7501 95.4503 63.0101 96.2003 63.2301" stroke="black" stroke-miterlimit="10" stroke-linecap="round"/>
<path d="M108.58 62.29C109.33 62.16 110.58 62.05 112.06 62.36C113.61 62.69 114.74 63.35 115.38 63.79" stroke="black" stroke-miterlimit="10" stroke-linecap="round"/>
<path d="M99.8102 75.7799C99.6602 74.5699 100.51 73.5499 101.45 73.4499C102.49 73.3399 103.62 74.3399 103.54 75.6899" stroke="black" stroke-miterlimit="10" stroke-linecap="round"/>
<path d="M109.76 74.31C111.909 74.31 113.65 72.5684 113.65 70.42C113.65 68.2716 111.909 66.53 109.76 66.53C107.612 66.53 105.87 68.2716 105.87 70.42C105.87 72.5684 107.612 74.31 109.76 74.31Z" fill="white"/>
<path d="M113.67 70.5101C113.64 71.5301 113.28 72.5601 112.55 73.3401C111.84 74.1301 110.73 74.5601 109.66 74.5001C107.47 74.3701 105.75 72.4201 105.74 70.3101C105.71 69.2601 106.14 68.1801 106.92 67.4201C107.68 66.6601 108.78 66.2201 109.86 66.2601C110.95 66.2801 112.01 66.7901 112.69 67.6101C113.39 68.4401 113.7 69.4901 113.67 70.5101ZM113.62 70.5101C113.65 69.4901 113.18 68.5001 112.46 67.8501C111.74 67.1901 110.81 66.8101 109.85 66.7901C108.9 66.7801 107.95 67.1201 107.24 67.7701C106.53 68.4201 106.08 69.3401 106.01 70.3201C105.94 71.3001 106.29 72.3301 107.01 73.0301C107.71 73.7501 108.71 74.1001 109.67 74.0901C110.64 74.0901 111.58 73.7301 112.33 73.1101C113.08 72.5001 113.61 71.5301 113.62 70.5101Z" fill="black"/>
<path d="M109.96 74.16C111.319 74.16 112.42 73.0586 112.42 71.7C112.42 70.3414 111.319 69.24 109.96 69.24C108.601 69.24 107.5 70.3414 107.5 71.7C107.5 73.0586 108.601 74.16 109.96 74.16Z" fill="black" stroke="black" stroke-width="0.75" stroke-miterlimit="10"/>
<path d="M148.53 49.6001C150.4 44.4101 160.6 36.2801 172.62 36.3301C182.3 36.3701 191.22 41.7001 195.8 50.1001L148.53 49.6001Z" fill="#603913"/>
<path d="M140.37 46.3301C145.65 35.4601 165.29 35.5701 171.11 35.6001C178.75 35.6401 194.4 35.7201 199.79 45.3001C202.14 49.4701 200.85 56.2201 198.27 69.7101C196.26 80.2301 195.18 85.5701 191.72 89.1301C185.72 95.3001 177.05 95.5801 171.23 95.7701C165.26 95.9701 155.21 96.2901 148.86 89.6901C147.27 88.0401 145.97 86.0101 142.63 68.2801C139.08 49.5201 139.75 47.6001 140.37 46.3301Z" fill="#FAF28A"/>
<path d="M140.28 46.29C141.21 44.38 142.63 42.7199 144.3 41.42C145.95 40.0799 147.87 39.11 149.82 38.27C153.76 36.65 157.97 35.8 162.18 35.29C166.41 34.77 170.66 34.71 174.89 34.78C177.01 34.81 179.14 34.93 181.27 35.18C183.4 35.41 185.51 35.78 187.6 36.35C189.68 36.9 191.73 37.66 193.63 38.72C195.53 39.77 197.34 41.08 198.7 42.81C199.08 43.2 199.36 43.68 199.66 44.14C199.95 44.61 200.27 45.04 200.48 45.57C200.93 46.59 201.2 47.67 201.31 48.75C201.54 50.91 201.35 53.04 201.11 55.14C200.58 59.34 199.79 63.4799 199.05 67.6299C198.25 71.7699 197.65 75.9399 196.68 80.07C196.19 82.1399 195.61 84.21 194.65 86.19C194.16 87.17 193.58 88.1199 192.88 88.9899C192.52 89.4199 192.14 89.8299 191.74 90.1999C191.35 90.5899 190.95 90.96 190.51 91.3C187.1 94.11 182.79 95.59 178.54 96.19C176.41 96.51 174.26 96.6499 172.15 96.7399C170.04 96.8299 167.92 96.92 165.77 96.87C161.49 96.77 157.06 96.0999 153.08 94.07C151.1 93.0499 149.32 91.68 147.78 90C146.97 89.08 146.46 87.99 146.06 86.97C145.65 85.94 145.36 84.9 145.08 83.86C143.98 79.72 143.27 75.56 142.58 71.4C141.91 67.2299 141.26 63.07 140.72 58.88C140.46 56.79 140.17 54.7 139.99 52.59C139.9 51.54 139.81 50.49 139.8 49.43C139.76 48.38 139.78 47.26 140.28 46.29ZM140.46 46.38C140 47.31 140 48.39 140.01 49.42C140.04 50.47 140.12 51.51 140.25 52.56C140.52 54.64 140.83 56.73 141.23 58.79C142.01 62.92 142.9 67.04 143.84 71.15C144.79 75.24 145.74 79.3499 146.9 83.3399C147.2 84.3299 147.52 85.31 147.9 86.23C148.28 87.16 148.7 88 149.3 88.66C150.63 90.07 152.25 91.2899 154.02 92.1699C157.58 93.9899 161.7 94.6199 165.8 94.7799C167.86 94.8699 169.95 94.81 172.05 94.75C174.14 94.7 176.21 94.59 178.25 94.32C182.31 93.79 186.3 92.54 189.5 90.05C189.91 89.75 190.29 89.4199 190.65 89.07C191.04 88.7399 191.38 88.38 191.71 88.01C192.36 87.27 192.93 86.44 193.41 85.55C194.37 83.77 195.03 81.7899 195.59 79.7799C196.67 75.75 197.52 71.61 198.33 67.48C199.14 63.35 199.99 59.22 200.44 55.05C200.64 52.97 200.76 50.87 200.47 48.84C200.32 47.83 200.03 46.85 199.58 45.97C199.38 45.52 199.05 45.12 198.77 44.7C198.48 44.29 198.21 43.86 197.83 43.51C196.51 41.97 194.78 40.83 192.96 39.93C192.06 39.45 191.09 39.12 190.14 38.75C189.15 38.46 188.18 38.14 187.17 37.93C183.16 36.97 179 36.66 174.83 36.51C170.64 36.41 166.45 36.26 162.28 36.51C158.12 36.76 153.94 37.36 149.99 38.73C148.02 39.42 146.13 40.36 144.45 41.61C142.79 42.88 141.4 44.51 140.46 46.38Z" fill="black"/>
<path d="M140.36 45.45C140.48 39.58 158.26 34.22 173.04 34.63C184.78 34.95 200.35 39.06 200.64 44.57C200.93 50.07 185.91 56.51 172.6 57.16C157.34 57.9 140.24 51.25 140.36 45.45Z" fill="#FAF28A"/>
<path d="M140.26 45.45C140.27 44.71 140.56 44.0099 140.96 43.4199C141.36 42.8199 141.86 42.2999 142.41 41.8399C143.48 40.8899 144.72 40.17 145.96 39.47C148.47 38.11 151.15 37.1099 153.87 36.2499C159.32 34.5499 165.04 33.7299 170.76 33.7699C176.5 33.8599 182.12 34.8899 187.61 36.2999C190.35 37.0199 193.07 37.8699 195.66 39.0699C196.95 39.6799 198.21 40.3899 199.34 41.36C199.9 41.8499 200.4 42.4299 200.76 43.1399C201.12 43.8399 201.26 44.7199 201.09 45.5199C200.74 47.1399 199.68 48.32 198.62 49.33C197.53 50.33 196.32 51.1599 195.07 51.8899C192.57 53.3499 189.91 54.4699 187.19 55.3799C181.75 57.1799 176.04 58.2799 170.26 58.2599C164.5 58.2099 158.77 57.27 153.39 55.33C150.7 54.37 148.07 53.2299 145.63 51.7299C144.43 50.9699 143.23 50.1699 142.22 49.1599C141.71 48.6699 141.24 48.1099 140.87 47.4999C140.5 46.8999 140.24 46.1899 140.26 45.45ZM140.46 45.45C140.47 46.84 141.41 48.0399 142.42 48.9599C143.46 49.8899 144.65 50.6399 145.9 51.2599C148.4 52.5099 151.06 53.4 153.77 54.08C159.19 55.3899 164.73 56.17 170.26 56.1299C175.77 56.0999 181.31 55.1999 186.61 53.5899C189.25 52.7599 191.86 51.7899 194.3 50.5099C195.51 49.8599 196.68 49.14 197.73 48.31C198.76 47.47 199.71 46.4599 200.03 45.2999C200.37 44.1499 199.72 42.9299 198.76 41.9999C197.8 41.0599 196.61 40.3099 195.37 39.6899C192.88 38.4399 190.18 37.5899 187.46 36.9399C184.73 36.2899 181.94 35.89 179.15 35.65C176.36 35.41 173.56 35.3199 170.78 35.4399C165.22 35.6399 159.67 36.3299 154.2 37.4599C151.47 38.0499 148.76 38.8099 146.2 39.9299C144.92 40.4799 143.69 41.17 142.59 42.04C141.52 42.91 140.53 44.0599 140.46 45.45Z" fill="black"/>
<path d="M146.95 45.2199C147.04 41.0399 160.6 37.2299 171.88 37.5199C180.84 37.7499 192.71 40.6699 192.93 44.5899C193.15 48.5099 181.7 53.0799 171.54 53.5499C159.9 54.0799 146.86 49.3399 146.95 45.2199Z" fill="black" stroke="black" stroke-width="3" stroke-miterlimit="10"/>
<path d="M163.25 76.1001C165.399 76.1001 167.14 74.3585 167.14 72.2101C167.14 70.0617 165.399 68.3201 163.25 68.3201C161.102 68.3201 159.36 70.0617 159.36 72.2101C159.36 74.3585 161.102 76.1001 163.25 76.1001Z" fill="white"/>
<path d="M167.16 72.3001C167.13 73.3201 166.77 74.3501 166.04 75.1301C165.33 75.9201 164.22 76.3501 163.15 76.2901C160.96 76.1601 159.24 74.2101 159.23 72.1001C159.2 71.0501 159.63 69.9701 160.41 69.2101C161.17 68.4501 162.27 68.0101 163.35 68.0501C164.44 68.0701 165.5 68.5801 166.18 69.4001C166.88 70.2301 167.19 71.2801 167.16 72.3001ZM167.11 72.3001C167.14 71.2801 166.67 70.2901 165.95 69.6401C165.23 68.9801 164.3 68.6001 163.34 68.5801C162.39 68.5701 161.44 68.9101 160.73 69.5601C160.02 70.2101 159.57 71.1301 159.5 72.1101C159.43 73.0901 159.78 74.1201 160.5 74.8201C161.2 75.5401 162.2 75.8901 163.16 75.8801C164.13 75.8801 165.07 75.5201 165.82 74.9001C166.57 74.2901 167.1 73.3201 167.11 72.3001Z" fill="black"/>
<path d="M163.3 73.71C164.658 73.71 165.76 72.6087 165.76 71.25C165.76 69.8914 164.658 68.79 163.3 68.79C161.941 68.79 160.84 69.8914 160.84 71.25C160.84 72.6087 161.941 73.71 163.3 73.71Z" fill="black" stroke="black" stroke-width="0.75" stroke-miterlimit="10"/>
<path d="M157.15 67.3601C157.64 66.7701 158.51 65.8801 159.84 65.1601C161.23 64.4001 162.52 64.1701 163.29 64.0901" stroke="black" stroke-miterlimit="10" stroke-linecap="round"/>
<path d="M177.89 63.6099C178.66 63.5899 179.9 63.6699 181.32 64.1999C182.8 64.7599 183.82 65.5799 184.39 66.1099" stroke="black" stroke-miterlimit="10" stroke-linecap="round"/>
<path d="M178.959 76.1399C181.108 76.1399 182.849 74.3983 182.849 72.2499C182.849 70.1015 181.108 68.3599 178.959 68.3599C176.811 68.3599 175.069 70.1015 175.069 72.2499C175.069 74.3983 176.811 76.1399 178.959 76.1399Z" fill="white"/>
<path d="M182.88 72.3499C182.85 73.3699 182.49 74.3999 181.76 75.1799C181.05 75.9699 179.94 76.3999 178.87 76.3399C176.68 76.2099 174.96 74.2599 174.95 72.1499C174.92 71.0999 175.35 70.0199 176.13 69.2599C176.89 68.4999 177.99 68.0599 179.07 68.0999C180.16 68.1199 181.22 68.6299 181.9 69.4499C182.59 70.2799 182.9 71.3299 182.88 72.3499ZM182.83 72.3499C182.86 71.3299 182.39 70.3399 181.67 69.6899C180.95 69.0299 180.02 68.6499 179.06 68.6299C178.11 68.6199 177.16 68.9599 176.45 69.6099C175.74 70.2599 175.29 71.1799 175.22 72.1599C175.15 73.1399 175.5 74.1699 176.22 74.8699C176.92 75.5899 177.92 75.9399 178.88 75.9299C179.85 75.9299 180.79 75.5699 181.54 74.9499C182.29 74.3299 182.81 73.3699 182.83 72.3499Z" fill="black"/>
<path d="M178.96 73.71C180.319 73.71 181.42 72.6087 181.42 71.25C181.42 69.8914 180.319 68.79 178.96 68.79C177.601 68.79 176.5 69.8914 176.5 71.25C176.5 72.6087 177.601 73.71 178.96 73.71Z" fill="black" stroke="black" stroke-width="0.75" stroke-miterlimit="10"/>
<path d="M162.49 47.7701C163.07 44.9501 163.24 42.1401 162.92 39.4501C162.78 38.1001 162.51 36.7901 162.12 35.5101C161.76 34.2401 161.32 32.9901 160.75 31.8101C160.19 30.6201 159.45 29.5201 158.67 28.4801C157.89 27.4301 157.19 26.3601 156.57 25.1901C155.95 24.0201 155.33 22.8201 154.72 21.5301C154.12 20.2301 153.5 18.9001 153.02 17.3001L153.42 16.8501C156.68 17.5401 159.31 19.3701 161.44 21.6701C162.5 22.8301 163.34 24.1901 163.91 25.6701C164.47 27.1601 164.88 28.7001 165.28 30.2201C165.68 31.7401 165.92 33.3001 166.05 34.8501C166.14 36.4101 166.1 37.9601 165.91 39.4901C165.49 42.5301 164.53 45.4401 163.04 47.9801L162.49 47.7701Z" fill="#1E6F5D"/>
<path d="M150 28.35C149.68 34.42 149.72 38.91 150 40.28C150.05 40.53 150.18 41.15 150.65 41.78C151.23 42.56 152 42.9 152.28 43.02C152.75 43.22 153.49 43.54 154.34 43.38C155.83 43.09 156.75 41.49 156.89 40.23C156.96 39.6 156.83 39.1 156.78 38.94C155.98 36.08 153.2 28.7 152.93 27.99C152.46 28.05 151.98 28.11 151.51 28.17C151 28.22 150.5 28.28 150 28.35Z" fill="white"/>
<path d="M150.07 28.41C150.4 29.77 150.46 31.3 150.57 32.73C150.63 34.18 150.69 35.63 150.66 37.07L150.54 39.2201C150.5 39.9401 150.48 40.58 150.74 41.18C150.99 41.7801 151.49 42.28 152.1 42.59C152.73 42.89 153.41 43.12 154.02 43C155.27 42.78 155.91 41.4 156.01 40.28C156.07 39.7 155.92 39.2901 155.66 38.5601L154.91 36.5401C153.89 33.8301 153.07 31.03 152.37 28.18L153 28.56C152.51 28.55 152 28.5501 151.52 28.5201C151.09 28.5001 150.63 28.45 150.07 28.41ZM149.92 28.2801C150.34 28.1301 150.85 27.95 151.4 27.8C151.89 27.65 152.36 27.53 152.84 27.4L153.22 27.3L153.47 27.7801C154.82 30.3901 156.03 33.0701 156.89 35.8801C157.1 36.5901 157.31 37.2901 157.49 38.0201C157.57 38.39 157.69 38.7301 157.75 39.2201C157.8 39.6801 157.77 40.1501 157.67 40.59C157.46 41.46 157.01 42.2101 156.4 42.8101C155.79 43.4101 154.93 43.8101 154.08 43.8101C153.22 43.8101 152.49 43.47 151.82 43.14C151.13 42.78 150.5 42.2701 150.04 41.59C149.56 40.92 149.35 40.07 149.2 39.34C149.04 38.59 148.95 37.85 148.9 37.1101C148.82 35.6301 148.93 34.1601 149.07 32.7001C149.25 31.2101 149.44 29.8301 149.92 28.2801Z" fill="black"/>
<path d="M153.39 28.1001C155.63 33.7901 157.6 37.8701 158.5 38.9901C158.67 39.2001 159.08 39.7001 159.87 40.0501C160.85 40.4801 161.87 40.4301 162.22 40.4101C162.83 40.3701 163.8 40.3101 164.68 39.7601C166.23 38.7901 166.57 36.8901 166.18 35.6701C165.99 35.0601 165.63 34.6701 165.51 34.5401C163.39 32.3101 157.11 26.9001 156.51 26.3801C156 26.6601 155.5 26.9401 154.99 27.2201C154.46 27.5101 153.93 27.8101 153.39 28.1001Z" fill="white"/>
<path d="M153.48 28.1401C153.72 28.5101 153.94 28.7901 154.12 29.0501C154.32 29.3801 154.53 29.7101 154.71 30.0501C155.1 30.7201 155.46 31.4001 155.82 32.0701C156.51 33.4401 157.22 34.7901 157.86 36.1601C158.17 36.8401 158.46 37.5501 158.77 38.1901C159.06 38.8301 159.45 39.3401 160.07 39.6801C160.68 40.0201 161.42 40.1401 162.15 40.1101C162.91 40.0701 163.63 39.9401 164.23 39.5701C165.44 38.8401 165.79 37.3001 165.46 36.1701C165.38 35.8901 165.27 35.6601 165.1 35.4501C165.01 35.3401 164.94 35.2501 164.82 35.1501L164.41 34.7701L162.71 33.2701C160.4 31.2801 158.21 29.1201 156.1 26.8701L156.82 26.9401C156.27 27.1701 155.7 27.4001 155.15 27.6001C154.66 27.7501 154.12 27.9101 153.48 28.1401ZM153.3 28.0701C153.71 27.7201 154.21 27.3001 154.75 26.8901C155.24 26.5101 155.72 26.1701 156.21 25.8201L156.52 25.6001L156.94 25.8901C159.49 27.6601 161.93 29.5501 164.13 31.7401C164.68 32.2901 165.23 32.8401 165.76 33.4301L166.16 33.8801C166.31 34.0501 166.48 34.2601 166.6 34.4701C166.86 34.9001 167.03 35.3901 167.09 35.8801C167.32 37.7801 166.18 39.6001 164.58 40.2501C163.8 40.5901 162.96 40.6801 162.19 40.7101C161.39 40.7701 160.56 40.7101 159.75 40.4501C158.94 40.2101 158.14 39.6201 157.63 38.9501C157.09 38.3101 156.68 37.6401 156.29 36.9601C155.55 35.5801 154.99 34.1301 154.46 32.6701C154.22 31.9301 153.98 31.1901 153.79 30.4401C153.69 30.0701 153.61 29.6801 153.51 29.3001C153.4 28.8501 153.34 28.4101 153.3 28.0701Z" fill="black"/>
<path d="M147.61 28.0601C147.13 28.6801 144.44 32.1601 142.53 34.9801C142.31 35.3001 141.88 35.9501 141.7 36.8901C141.62 37.3001 141.37 38.7401 142.29 40.1501C142.63 40.6801 143.17 41.5401 144.18 41.7801C145.97 42.2101 147.57 40.3101 147.69 40.1601C148.51 39.1601 148.67 38.0801 148.74 37.5501C149.25 33.7001 149.58 30.2701 149.74 28.4401C149.03 28.3201 148.32 28.1901 147.61 28.0601Z" fill="white"/>
<path d="M147.64 28.15C146.29 30.98 145.06 33.13 143.47 35.16C143.03 35.67 142.7 36.09 142.43 36.63C142.17 37.16 142.01 37.79 142.04 38.41C142.07 39.04 142.28 39.65 142.67 40.18C143.03 40.73 143.5 41.18 144.05 41.3C145.17 41.56 146.14 40.66 146.88 39.77C147.21 39.34 147.45 38.85 147.58 38.31C147.64 38.04 147.68 37.77 147.71 37.46L147.78 36.45C148.03 33.75 148.53 31.08 149.22 28.41L149.63 28.95C149.04 28.73 148.4 28.45 147.64 28.15ZM147.57 27.96C148.23 27.92 149.01 27.91 149.82 27.95L150.22 27.97L150.24 28.49C150.34 31.24 150.25 34 149.9 36.72L149.75 37.74C149.69 38.1 149.6 38.51 149.46 38.89C149.19 39.66 148.76 40.39 148.16 40.96C147.6 41.5 146.94 41.93 146.17 42.19C145.41 42.46 144.49 42.46 143.76 42.1C143.01 41.74 142.54 41.11 142.17 40.52C141.78 39.93 141.45 39.25 141.29 38.53C141.12 37.8 141.07 37.04 141.2 36.27C141.31 35.5 141.68 34.72 142.07 34.15C143.7 31.78 145.7 29.54 147.57 27.96Z" fill="black"/>
<path d="M156.92 25.6998C159.45 27.3498 161.8 28.8698 164.39 30.5498C165.29 31.1298 166.8 32.1098 168.94 32.2998C169.7 32.3698 171.55 32.5298 172.29 31.5098C172.8 30.8198 172.55 29.9098 172.29 28.9498C172.14 28.3998 171.7 26.8398 170.21 25.7798C169.39 25.1898 168.59 24.9898 168.14 24.8798C164.6 24.0398 160.3 23.2798 159.16 23.0898C158.41 23.9598 157.67 24.8298 156.92 25.6998Z" fill="white"/>
<path d="M157.02 25.6899C160.17 27.1699 162.57 28.2399 164.83 29.7799C165.98 30.6099 167.06 31.4499 168.45 31.8199C169.12 31.9999 169.87 32.0899 170.55 32.0199C171.23 31.9499 171.9 31.6499 172.09 31.1199C172.27 30.5999 172.03 29.9499 171.76 29.2799C171.51 28.6099 171.19 28.0499 170.79 27.5599C170.4 27.0699 169.93 26.6799 169.41 26.3899C168.86 26.1099 168.34 25.9599 167.6 25.8399C164.7 25.3699 161.88 24.6299 159.05 23.7299L159.64 23.5199C158.92 24.1699 158.01 24.7999 157.02 25.6899ZM156.82 25.7199C157.32 24.8699 157.91 23.7599 158.68 22.6799L158.86 22.4299L159.28 22.4699C162.24 22.7299 165.2 23.1299 168.09 23.8199C168.79 23.9699 169.7 24.2799 170.41 24.7699C171.14 25.2599 171.76 25.9099 172.18 26.6499C172.6 27.3799 172.83 28.2199 172.93 28.9799C173.02 29.6999 173.23 30.5999 172.78 31.4599C172.56 31.8799 172.18 32.1599 171.79 32.3299C171.41 32.5099 171.01 32.5899 170.62 32.6299C169.83 32.7199 169.1 32.6899 168.32 32.6499C166.77 32.5799 165.15 32.0799 163.86 31.2599C161.16 29.5799 158.61 27.4499 156.82 25.7199Z" fill="black"/>
<path d="M159.92 19.9701C159.74 20.8201 159.55 21.6701 159.37 22.5201C163.74 23.6401 167.27 23.5201 169.57 23.2501C171.84 22.9801 175.06 22.5901 175.7 20.7601C175.99 19.9301 175.69 18.9601 175.15 18.3301C174.7 17.8001 173.59 16.9701 168.99 17.5401C166.8 17.8101 163.63 18.4301 159.92 19.9701Z" fill="white"/>
<path d="M160 20.0301C159.99 21.0101 159.99 21.8501 159.92 22.6401L159.51 21.9801C162.43 22.3701 165.25 22.4901 168.16 22.7701C169.61 22.8701 171.14 22.8201 172.53 22.4601C173.23 22.2801 173.91 22.0001 174.43 21.5801C174.96 21.1601 175.19 20.6401 175.12 20.1301C175.06 19.6201 174.74 19.0701 174.39 18.8101C174.08 18.5701 173.46 18.4301 172.82 18.4001C171.5 18.3201 170.06 18.5201 168.64 18.6501C165.78 18.9301 162.89 19.5201 160 20.0301ZM159.84 19.9101C162.44 18.1501 165.3 17.1201 168.33 16.5801C169.84 16.3201 171.38 16.2001 173.02 16.4301C173.82 16.5801 174.75 16.7401 175.57 17.5101C176.29 18.2701 176.59 19.2101 176.5 20.1801C176.41 21.1901 175.64 22.0001 174.91 22.3401C174.17 22.7301 173.42 22.9001 172.68 23.0701C171.18 23.3601 169.75 23.6501 168.24 23.9901C165.22 24.6701 162.06 24.1401 159.23 23.0701L158.67 22.8601L158.82 22.4101C159.13 21.4901 159.49 20.6301 159.84 19.9101Z" fill="black"/>
<path d="M146.31 26.6399C145.53 26.8399 141.07 27.9799 138.83 28.8899C138.63 28.9699 138.21 29.1399 137.82 29.5299C137.04 30.2899 136.81 31.4499 137.01 32.4199C137.09 32.8399 137.26 33.6499 137.95 34.0899C138.83 34.6399 140.01 34.2399 140.65 34.0299C143.84 32.9399 146.37 29.2099 147.19 27.9299C146.89 27.4999 146.6 27.0699 146.31 26.6399Z" fill="white"/>
<path d="M146.28 26.7299C145.92 27.0499 145.34 27.2999 144.88 27.5499C144.39 27.7899 143.89 27.9999 143.39 28.2099C142.38 28.5999 141.38 28.9899 140.36 29.2499C139.86 29.3799 139.29 29.4899 138.85 29.5799C138.42 29.6799 138.01 29.9099 137.72 30.2899C137.1 31.0599 137.17 32.2399 137.67 33.0599C138.21 33.8699 138.95 33.6699 139.82 33.3699C140.76 33.0299 141.52 32.5499 142.3 31.9299C143.84 30.7099 145.31 29.2299 146.81 27.6699L146.82 28.1999C146.64 27.7799 146.49 27.3099 146.28 26.7299ZM146.35 26.5499C146.72 26.8299 147.16 27.2099 147.59 27.6599L147.74 27.8199L147.6 28.1899C147.19 29.2399 146.65 30.2299 145.98 31.1599C145.32 32.0899 144.53 32.9499 143.57 33.6499C142.61 34.3299 141.42 34.8599 140.26 35.0799C139.66 35.1999 138.95 35.2399 138.25 34.9599C137.54 34.6899 137.03 34.0399 136.87 33.4299C136.54 32.2599 136.56 31.0499 137.06 29.9299C137.31 29.3699 137.73 28.8299 138.27 28.4599C138.82 28.0999 139.27 27.8599 139.8 27.6299C140.31 27.3999 140.84 27.2499 141.37 27.1199C141.9 26.9699 142.44 26.8699 142.98 26.7699C143.52 26.6799 144.07 26.6099 144.62 26.5699C145.18 26.5199 145.65 26.4899 146.35 26.5499Z" fill="black"/>
<path d="M146.5 23.3201C144.08 22.7101 142.05 22.2201 140.38 21.8001C140.01 21.7101 139.28 21.5201 138.44 21.7501C138.35 21.7701 136.64 22.2601 136.24 23.7601C136.22 23.8401 135.9 25.1501 136.67 25.8201C137.3 26.3701 138.33 26.2001 138.82 26.1201C140.37 25.8801 142.6 25.6901 145.97 25.7501C146.15 24.9401 146.33 24.1301 146.5 23.3201Z" fill="white"/>
<path d="M146.42 23.3801C144 23.3001 142.32 23.2301 140.66 22.7901C140.25 22.6601 139.84 22.4701 139.48 22.3601C139.11 22.2501 138.68 22.1801 138.28 22.2701C137.42 22.4301 136.64 23.1301 136.59 23.9501C136.62 26.1601 137.96 25.2001 140.14 24.9201C142.1 24.6001 144.07 24.7301 146 25.0801L145.32 25.6201C145.59 24.9901 146 24.3201 146.42 23.3801ZM146.59 23.2701C146.66 23.9501 146.73 24.9001 146.65 25.8901L146.62 26.3301L145.98 26.4301C144.07 26.7201 142.21 26.9001 140.35 26.9701L138.96 27.0501C138.47 27.0901 137.85 27.1401 137.22 26.9501C136.57 26.7901 135.92 26.1701 135.78 25.5201C135.62 24.8801 135.72 24.3301 135.87 23.8101C136.2 22.7101 137.06 22.0101 137.95 21.4701C138.43 21.1801 138.99 21.0001 139.57 20.9501C139.86 20.9201 140.15 20.9401 140.42 20.9601L141.2 21.0901C143.25 21.5701 145.28 22.4301 146.59 23.2701Z" fill="black"/>
<path d="M147.961 21.43C147.401 20.31 146.171 18.32 143.801 17.24C142.931 16.85 141.211 16.06 140.031 16.84C139.491 17.2 139.031 17.92 139.121 18.62C139.201 19.28 139.741 19.84 142.841 21.39C143.821 21.88 145.161 22.52 146.781 23.2C147.171 22.61 147.561 22.02 147.961 21.43Z" fill="white"/>
<path d="M147.86 21.4201C147.18 20.9001 146.57 20.2301 145.93 19.7301C145.31 19.2001 144.66 18.7601 144 18.3401L142.98 17.6401C142.63 17.4001 142.28 17.1601 141.9 17.0101C141.15 16.6601 140.24 16.8201 139.86 17.5001C139.67 17.8201 139.61 18.2001 139.7 18.4601C139.74 18.6101 139.81 18.6601 139.89 18.7201C139.98 18.7801 140.1 18.8701 140.26 18.9601C140.88 19.3301 141.69 19.7001 142.46 20.0501C144.05 20.7401 145.57 21.5701 147.03 22.6201L146.23 22.8601C146.68 22.4101 147.21 21.9801 147.86 21.4201ZM148.05 21.4301C147.91 22.0501 147.65 22.8001 147.31 23.5601L147.13 23.9601L146.51 23.8001C144.77 23.3401 143.04 22.8001 141.49 21.8701C140.71 21.3901 139.94 20.9401 139.19 20.2001C139.01 20.0001 138.81 19.7801 138.67 19.4701C138.52 19.1501 138.46 18.7601 138.51 18.4701C138.59 17.8401 138.92 17.3701 139.28 17.0101C139.64 16.6401 140.12 16.3801 140.61 16.2701C141.1 16.1501 141.59 16.1601 142.08 16.1701C142.57 16.2001 143.05 16.2501 143.52 16.3501C143.97 16.4501 144.44 16.5601 144.88 16.8001C145.76 17.2501 146.48 17.9601 147.04 18.7401C147.58 19.5601 147.95 20.3801 148.05 21.4301Z" fill="black"/>
<path d="M150.899 19.3C149.269 16.74 148.109 14.86 147.509 13.71C147.369 13.44 147.049 12.8 146.389 12.6C145.829 12.43 145.289 12.64 144.969 12.76C144.799 12.83 143.679 13.27 143.389 14.14C143.139 14.89 143.599 15.66 144.419 16.73C145.269 17.85 146.549 19.35 148.379 20.98C149.209 20.42 150.049 19.86 150.899 19.3Z" fill="white"/>
<path d="M150.8 19.2801C149.28 17.7101 148.22 16.5301 147.39 15.2201C147.19 14.8901 147.04 14.5401 146.9 14.1701C146.77 13.7701 146.72 13.4601 146.52 13.2101C146.34 12.9701 146.01 12.8301 145.65 12.8801C145.29 12.9301 144.89 13.1101 144.58 13.3301C144.26 13.5501 144.01 13.8601 143.94 14.1601C143.87 14.4601 143.96 14.6501 144.13 14.9101C144.49 15.4201 145.06 16.0701 145.62 16.6701C146.77 17.8501 147.83 19.1001 148.91 20.4001L147.93 20.3301C148.69 19.9801 149.61 19.7501 150.8 19.2801ZM150.99 19.3201C150.5 19.9701 149.73 20.8601 148.81 21.6501L148.43 21.9801L147.83 21.5901C146.36 20.6201 145.04 19.3901 144.05 17.9101C143.58 17.1601 143.01 16.5001 142.73 15.4101C142.59 14.8701 142.67 14.1301 143.04 13.6801C143.39 13.2201 143.81 12.9701 144.23 12.7601C144.66 12.5501 145.06 12.4001 145.53 12.2701C146 12.1501 146.59 12.1601 147.09 12.4401C147.59 12.6901 147.96 13.1601 148.24 13.5001C148.55 13.8601 148.84 14.2401 149.08 14.6401C150.03 16.2301 150.74 17.9701 150.99 19.3201Z" fill="black"/>
<path d="M158.67 10.56C159.05 10.24 160.57 8.97001 162.04 9.41001C162.89 9.67001 163.41 10.41 163.59 10.8C164.45 12.66 162.1 15.87 158.11 18.95C157.73 18.83 157.36 18.72 156.98 18.6C156.84 17.97 155.79 12.97 158.67 10.56Z" fill="white"/>
<path d="M158.61 10.48C159.14 10.05 159.64 9.58997 160.28 9.18997C160.89 8.78997 161.8 8.49998 162.71 8.80998C163.14 8.96998 163.53 9.22997 163.83 9.54997C164.12 9.87997 164.38 10.23 164.5 10.74C164.77 11.73 164.37 12.57 163.99 13.19C163.59 13.83 163.12 14.36 162.7 14.9L161.45 16.55C161.04 17.11 160.62 17.67 160.17 18.22C159.72 18.75 159.21 19.23 158.69 19.7L158.37 19.98L157.83 19.85L156.68 19.57L156.16 19.44L155.99 18.82C155.78 18.06 155.66 17.3 155.63 16.52C155.62 15.75 155.67 14.95 155.9 14.19C156.13 13.43 156.53 12.7 157.02 12.09C157.52 11.48 158.06 10.96 158.61 10.48ZM158.74 10.64C158.21 11.11 157.87 11.76 157.74 12.43C157.6 13.11 157.66 13.8 157.67 14.45C157.7 15.11 157.71 15.76 157.77 16.41C157.83 17.06 157.89 17.74 157.98 18.37L157.29 17.62L158.39 18.04L157.53 18.19C158.07 17.82 158.62 17.45 159.18 17.09C159.74 16.74 160.31 16.38 160.83 15.96C161.87 15.15 162.74 14.01 162.95 12.76C163.07 12.15 163 11.57 162.83 11.27C162.77 11.12 162.62 10.91 162.48 10.73C162.33 10.55 162.18 10.38 162.01 10.24C161.69 9.95997 161.15 9.74997 160.5 9.81997C159.87 9.88997 159.24 10.2 158.74 10.64Z" fill="black"/>
<path d="M153.53 18.2602C153.49 17.8002 153.04 12.2002 152.38 11.0402C152.32 10.9302 152.17 10.6802 151.87 10.5402C151.38 10.3102 150.81 10.5402 150.35 10.7202C149.96 10.8702 149.5 11.0502 149.15 11.4402C149 11.6002 148.59 12.1002 148.63 13.6202C148.64 14.3402 148.7 17.1702 150.89 18.9902C151.03 19.1002 151.14 19.1902 151.22 19.2402C151.99 18.9102 152.76 18.5802 153.53 18.2602Z" fill="white"/>
<path d="M153.44 18.2101C153.2 17.9301 153.07 17.4501 152.92 17.0801C152.78 16.6801 152.67 16.2801 152.55 15.8901C152.34 15.0901 152.18 14.3001 152.07 13.5001C151.96 12.7301 152.07 11.8401 151.94 11.2201C151.87 10.9301 151.65 10.7401 151.31 10.7601C150.98 10.7801 150.6 10.9501 150.25 11.1401C149.9 11.3201 149.63 11.5801 149.52 11.8401C149.43 12.0701 149.43 12.4001 149.44 12.7501C149.48 13.4301 149.57 14.2301 149.76 14.9201C150.16 16.3201 150.64 17.5601 151.65 18.6301L150.93 18.5501C151.62 18.4201 152.41 18.3501 153.44 18.2101ZM153.62 18.3101C153.11 18.8201 152.36 19.4001 151.51 19.9201L151.25 20.0801L150.79 19.8401C149.96 19.4001 149.21 18.7401 148.68 17.9301C148.15 17.1201 147.86 16.1901 147.77 15.2701C147.68 14.3401 147.67 13.4801 147.92 12.5201C148.06 12.0501 148.26 11.5601 148.7 11.1401C149.12 10.7701 149.59 10.6201 150 10.4801C150.41 10.3701 150.79 10.1901 151.29 10.1401C151.78 10.0501 152.41 10.2901 152.74 10.7301C153.36 11.5901 153.67 12.3701 153.86 13.2001C154.02 14.0301 154.06 14.8701 154.04 15.7101C154.02 16.1301 153.99 16.5501 153.93 16.9701C153.84 17.4301 153.79 17.7601 153.62 18.3101Z" fill="black"/>
<path d="M153.999 10.0899C154.259 9.79991 155.089 8.88991 156.289 8.91991C156.379 8.91991 157.539 8.95991 158.149 9.75991C158.939 10.7899 158.069 12.1399 157.659 14.7699C157.429 16.2599 157.439 17.4999 157.489 18.2899C156.339 18.2699 155.189 18.2399 154.039 18.2199C153.929 17.9099 152.429 13.4499 153.289 11.2599C153.549 10.5899 153.999 10.0899 153.999 10.0899Z" fill="white"/>
<path d="M153.93 10.02C154.31 9.60003 154.71 9.18003 155.24 8.84003C155.75 8.50003 156.5 8.29002 157.17 8.37002C157.85 8.41002 158.68 8.78003 159.1 9.59003C159.31 9.99003 159.38 10.46 159.34 10.82C159.3 11.19 159.22 11.51 159.11 11.8C158.66 12.91 158.07 13.85 157.92 14.96C157.74 16.05 157.89 17.17 158.15 18.23L158.29 18.81L157.46 18.95C156.31 19.14 155.16 19.16 154.01 19.22L153.36 19.25L153.07 18.53C152.79 17.82 152.56 17.13 152.41 16.41C152.27 15.68 152.16 14.94 152.19 14.18C152.22 13.42 152.41 12.63 152.7 11.91C153.01 11.17 153.45 10.56 153.93 10.02ZM154.08 10.16C153.63 10.68 153.41 11.39 153.49 12.04C153.56 12.71 153.81 13.35 153.98 13.99C154.17 14.63 154.32 15.28 154.5 15.93L155 17.88L154.06 17.2C155.21 17.3 156.36 17.37 157.5 17.61L156.81 18.33C156.93 17.15 157.19 16.02 157.33 14.89C157.49 13.78 157.54 12.56 157.59 11.49C157.62 10.96 157.58 10.56 157.49 10.41C157.41 10.2 157.2 9.94002 156.8 9.69002C156.4 9.45002 155.96 9.27002 155.44 9.36002C154.92 9.42002 154.44 9.75002 154.08 10.16Z" fill="black"/>
<path d="M158.76 18.5201C159.34 17.3001 160.62 15.1201 163.19 13.6701C164.06 13.1801 166.14 12.0101 168.34 12.5901C168.67 12.6801 170.09 13.0501 170.31 13.9601C170.5 14.7301 169.73 15.4801 169.38 15.8401C167.07 18.1401 161.5 19.2701 159.54 19.6301C159.27 19.2601 159.01 18.8901 158.76 18.5201Z" fill="white"/>
<path d="M158.66 18.5301C158.84 17.2301 159.37 16.1801 160.1 15.1701C160.84 14.2001 161.82 13.3401 162.93 12.8301C164.02 12.3101 165.32 12.1001 166.53 12.1001C167.14 12.1101 167.75 12.1501 168.34 12.2801C168.92 12.4201 169.52 12.5501 170.11 12.9201C170.4 13.1101 170.71 13.4001 170.86 13.8301C171.01 14.2601 170.95 14.7301 170.82 15.1001C170.54 15.8501 170.13 16.3101 169.67 16.7701C168.72 17.6901 167.64 18.3001 166.54 18.8001C164.31 19.7301 161.95 20.0701 159.61 20.0601H159.26L159.18 19.8901C158.96 19.3901 158.78 18.9301 158.66 18.5301ZM158.85 18.5101L159.87 19.3801L159.44 19.2101L165.71 16.8101C166.71 16.4201 167.71 16.0101 168.49 15.4201C168.89 15.1401 169.31 14.7701 169.54 14.4901C169.76 14.2001 169.84 14.0001 169.53 13.6101C169.22 13.2701 168.71 13.0101 168.18 12.8801C167.67 12.7301 167.11 12.7101 166.59 12.8301C165.52 13.0501 164.65 13.7401 163.76 14.3301L162.45 15.2101C162.03 15.5201 161.61 15.8401 161.21 16.2001C160.41 16.8801 159.65 17.7501 158.85 18.5101Z" fill="black"/>
<path d="M150.67 19.5001C147.75 21.1801 145.48 24.8701 146.64 26.7401C147.88 28.7301 152.89 28.4601 156.04 26.4101C158.5 24.8101 160.76 21.5401 159.7 19.6801C158.56 17.6701 153.78 17.7201 150.67 19.5001Z" fill="#FAF28A"/>
<path d="M150.72 19.59C149.38 20.34 148.45 21.68 147.89 23.02C147.6 23.69 147.39 24.36 147.29 24.97C147.22 25.28 147.23 25.55 147.24 25.81C147.3 26.04 147.3 26.26 147.46 26.44C147.69 26.85 148.3 27.22 148.96 27.44C149.63 27.67 150.39 27.77 151.14 27.73C152.64 27.65 154.12 27.1 155.3 26.23C156.46 25.36 157.41 24.23 158.15 23.06C158.5 22.47 158.77 21.84 158.87 21.27C158.97 20.68 158.89 20.32 158.65 20.04C158.39 19.72 157.82 19.46 157.2 19.27C156.57 19.1 155.87 18.95 155.14 18.87C153.67 18.69 152.06 18.84 150.72 19.59ZM150.62 19.42C151.98 18.68 153.41 17.95 155.03 17.55C155.84 17.36 156.69 17.25 157.57 17.38C158.44 17.5 159.39 17.8 160.21 18.6C160.59 19.03 160.9 19.59 160.97 20.16C161.06 20.72 161.02 21.26 160.89 21.72C160.64 22.66 160.2 23.43 159.69 24.11C158.68 25.48 157.35 26.54 155.81 27.18C154.29 27.81 152.75 28.15 151.18 28.37C150.39 28.49 149.59 28.56 148.74 28.52C147.91 28.46 146.95 28.31 146.17 27.51C145.77 27.13 145.55 26.57 145.46 26.06C145.4 25.55 145.41 25.04 145.54 24.6C145.77 23.7 146.26 22.97 146.8 22.34C147.96 21.09 149.3 20.22 150.62 19.42Z" fill="black"/>
<path d="M179.5 49.8499C178.12 47.1199 177.28 44.0699 176.98 40.9099C176.85 39.3299 176.86 37.7199 177 36.1199C177.18 34.5199 177.47 32.9199 177.92 31.3599C178.37 29.7999 178.82 28.2199 179.44 26.6899C180.07 25.1699 180.95 23.7799 182.06 22.5799C184.29 20.2199 187.03 18.3299 190.39 17.6299L190.78 18.0899C190.22 19.7099 189.55 21.0799 188.89 22.4099C188.22 23.7199 187.55 24.9699 186.88 26.1699C186.21 27.3799 185.47 28.4899 184.64 29.5699C183.81 30.6499 183.03 31.7899 182.42 33.0299C181.8 34.2599 181.31 35.5499 180.91 36.8799C180.48 38.1999 180.16 39.5699 179.97 40.9699C179.54 43.7799 179.6 46.7099 180.06 49.6599L179.5 49.8499Z" fill="#1E6F5D"/>
<path d="M192.08 23.6697C192.27 30.0397 192.14 34.7497 191.83 36.1797C191.77 36.4397 191.63 37.0897 191.15 37.7397C190.55 38.5397 189.77 38.8897 189.5 39.0097C189.03 39.2097 188.28 39.5397 187.43 39.3497C185.94 39.0197 185.06 37.3197 184.95 35.9897C184.89 35.3197 185.04 34.8097 185.09 34.6397C185.95 31.6497 188.89 23.9697 189.17 23.2297C189.64 23.2997 190.11 23.3697 190.59 23.4397C191.07 23.5197 191.58 23.5897 192.08 23.6697Z" fill="white"/>
<path d="M192.151 23.5998C192.601 25.2198 192.761 26.6698 192.911 28.2098C193.021 29.7298 193.091 31.2598 192.981 32.7998C192.911 33.5698 192.811 34.3298 192.641 35.0998C192.471 35.8598 192.271 36.7098 191.801 37.4198C191.361 38.1398 190.721 38.6998 190.011 39.0898C189.311 39.4398 188.561 39.8098 187.651 39.7898C186.751 39.7698 185.881 39.2798 185.301 38.6298C184.701 37.9698 184.291 37.1698 184.121 36.2698C184.041 35.8098 184.021 35.3298 184.091 34.8698C184.171 34.3698 184.281 34.0298 184.371 33.6498C184.571 32.8998 184.791 32.1698 185.011 31.4398C185.941 28.5298 187.191 25.7498 188.611 23.0398L188.861 22.5698L189.241 22.6798C189.721 22.8198 190.191 22.9498 190.681 23.1098C191.231 23.2598 191.731 23.4398 192.151 23.5998ZM192.001 23.7298C191.441 23.7498 190.981 23.7798 190.551 23.7998C190.061 23.8198 189.561 23.7998 189.061 23.7898L189.681 23.4298C188.931 26.3898 188.061 29.2898 186.991 32.1098L186.201 34.2098C185.921 34.9598 185.751 35.4298 185.791 36.0398C185.861 37.2198 186.451 38.7098 187.731 38.9798C188.351 39.1198 189.081 38.8598 189.721 38.5498C190.341 38.2198 190.841 37.6798 191.091 37.0498C191.341 36.4098 191.331 35.7198 191.301 34.9698C191.261 34.2298 191.231 33.4798 191.221 32.7298C191.221 31.2298 191.311 29.7298 191.401 28.2198C191.551 26.7298 191.641 25.1498 192.001 23.7298Z" fill="black"/>
<path d="M188.69 23.34C186.33 29.27 184.28 33.51 183.35 34.66C183.18 34.87 182.76 35.39 181.96 35.74C180.97 36.17 179.96 36.1 179.6 36.07C178.99 36.02 178.02 35.94 177.15 35.34C175.62 34.29 175.32 32.29 175.73 31.02C175.94 30.38 176.31 29.98 176.43 29.85C178.6 27.55 184.98 22 185.6 21.47C186.1 21.77 186.6 22.08 187.1 22.38C187.63 22.7 188.16 23.02 188.69 23.34Z" fill="white"/>
<path d="M188.78 23.31C188.73 23.67 188.66 24.11 188.55 24.57C188.45 24.96 188.37 25.35 188.26 25.74C188.05 26.51 187.81 27.27 187.55 28.03C187 29.53 186.43 31.02 185.66 32.44C185.26 33.14 184.83 33.83 184.31 34.49C183.79 35.17 183.04 35.82 182.2 36.1C181.37 36.4 180.51 36.46 179.69 36.39C178.9 36.34 178.03 36.24 177.24 35.86C175.62 35.11 174.58 33.21 174.81 31.31C174.87 30.83 175.03 30.32 175.28 29.88C175.41 29.66 175.56 29.45 175.72 29.26L176.13 28.8C176.68 28.2 177.24 27.62 177.8 27.06C180.06 24.8 182.56 22.85 185.17 21.01L185.6 20.71L185.91 20.95C186.39 21.32 186.86 21.69 187.34 22.09C187.9 22.51 188.38 22.94 188.78 23.31ZM188.59 23.38C187.96 23.13 187.42 22.94 186.93 22.75C186.38 22.52 185.82 22.27 185.27 22.01L186.01 21.95C183.85 24.27 181.6 26.5 179.24 28.56L177.5 30.12L177.09 30.51C176.99 30.61 176.9 30.71 176.81 30.83C176.64 31.06 176.53 31.31 176.45 31.6C176.11 32.79 176.41 34.39 177.62 35.19C178.21 35.59 178.96 35.74 179.74 35.79C180.49 35.84 181.25 35.71 181.86 35.34C182.48 34.98 182.85 34.41 183.15 33.75L184.08 31.64C184.73 30.23 185.46 28.84 186.18 27.43C186.56 26.74 186.93 26.04 187.33 25.35C187.52 25 187.74 24.66 187.94 24.32C188.12 24.05 188.35 23.75 188.59 23.38Z" fill="black"/>
<path d="M194.47 23.4099C194.93 24.0699 197.55 27.7799 199.4 30.7799C199.61 31.1199 200.03 31.8199 200.19 32.7999C200.26 33.2299 200.48 34.7499 199.53 36.2099C199.18 36.7499 198.62 37.6499 197.61 37.8799C195.81 38.2999 194.25 36.2699 194.13 36.1099C193.33 35.0499 193.2 33.9099 193.14 33.3499C192.71 29.2999 192.46 25.6999 192.34 23.7699C193.05 23.6599 193.76 23.5399 194.47 23.4099Z" fill="white"/>
<path d="M194.51 23.3199C196.37 25.0499 198.33 27.4599 199.92 29.9799C200.31 30.5899 200.64 31.4099 200.73 32.1999C200.83 32.9999 200.76 33.7799 200.58 34.5199C200.4 35.2599 200.08 35.9699 199.67 36.5799C199.28 37.1799 198.81 37.8499 198.02 38.2099C197.25 38.5799 196.27 38.5199 195.51 38.1799C194.73 37.8599 194.09 37.3699 193.54 36.7699C192.97 36.1299 192.58 35.3599 192.35 34.5599C192.23 34.1699 192.16 33.7499 192.11 33.3899C192.07 33.0399 192.02 32.6899 191.99 32.3299C191.72 29.4999 191.67 26.6499 191.84 23.7999L191.87 23.2899L192.25 23.2799C193.07 23.2699 193.84 23.2899 194.51 23.3199ZM194.43 23.5099C193.67 23.7899 193.02 24.0599 192.42 24.2799L192.83 23.7599C193.48 26.5399 193.9 29.3299 194.1 32.1299C194.15 32.8399 194.14 33.5599 194.25 34.0999C194.35 34.6799 194.58 35.2199 194.89 35.6799C195.59 36.6399 196.56 37.6599 197.72 37.4099C198.29 37.2899 198.78 36.8099 199.15 36.2399C199.55 35.6899 199.78 35.0599 199.82 34.3999C199.86 33.7499 199.72 33.0899 199.47 32.5199C199.21 31.9399 198.89 31.4799 198.46 30.9299C196.9 28.7699 195.72 26.4799 194.43 23.5099Z" fill="black"/>
<path d="M185.22 21.05C182.62 22.68 180.21 24.17 177.55 25.83C176.63 26.4 175.08 27.37 172.93 27.48C172.17 27.52 170.32 27.62 169.61 26.52C169.13 25.77 169.41 24.83 169.71 23.83C169.88 23.26 170.39 21.64 171.92 20.59C172.76 20.01 173.58 19.83 174.03 19.74C177.6 19 181.93 18.39 183.08 18.23C183.79 19.16 184.51 20.11 185.22 21.05Z" fill="white"/>
<path d="M185.32 21.07C183.45 22.8 180.84 24.9001 178.09 26.5401C176.78 27.3401 175.11 27.83 173.54 27.85C172.75 27.8601 172 27.86 171.2 27.72C170.81 27.65 170.41 27.55 170.03 27.33C169.65 27.13 169.3 26.7901 169.12 26.3601C168.75 25.4701 168.97 24.6 169.08 23.8601C169.2 23.1101 169.44 22.2701 169.87 21.5301C170.3 20.7901 170.91 20.12 171.65 19.63C172.37 19.13 173.29 18.81 174.03 18.67C176.98 18.06 179.99 17.74 182.99 17.57L183.42 17.55L183.59 17.83C184.31 18.99 184.85 20.16 185.32 21.07ZM185.12 21.0301C184.16 20.0601 183.28 19.34 182.57 18.6L183.17 18.85C180.28 19.67 177.4 20.3201 174.45 20.7001C173.72 20.8001 173.19 20.94 172.64 21.24C172.11 21.53 171.64 21.9401 171.24 22.4501C170.83 22.9601 170.51 23.52 170.23 24.21C169.95 24.88 169.68 25.5401 169.83 26.1C169.97 26.67 170.62 27.02 171.3 27.13C171.98 27.23 172.74 27.17 173.43 27.0201C174.84 26.7001 175.96 25.87 177.14 25.05C179.46 23.53 181.91 22.4601 185.12 21.0301Z" fill="black"/>
<path d="M182.45 14.9198C182.6 15.8198 182.75 16.7198 182.89 17.6198C178.47 18.6098 174.95 18.3498 172.67 17.9598C170.41 17.5798 167.21 17.0398 166.65 15.0998C166.4 14.2198 166.73 13.2098 167.3 12.5698C167.78 12.0398 168.92 11.2098 173.49 11.9998C175.67 12.3798 178.81 13.1498 182.45 14.9198Z" fill="white"/>
<path d="M182.53 14.8598C182.86 15.6398 183.19 16.5598 183.46 17.5298L183.59 17.9898L183.02 18.1798C180.14 19.1698 176.92 19.5698 173.92 18.7398C172.42 18.3298 170.99 17.9798 169.5 17.5998C168.76 17.3898 168.01 17.1598 167.3 16.7098C166.59 16.2998 165.92 15.4198 165.88 14.4298C165.83 13.4698 166.14 12.5498 166.84 11.7898C167.65 10.9998 168.62 10.8298 169.44 10.7198C171.12 10.5398 172.66 10.7398 174.17 11.0698C177.19 11.7498 180.02 12.9398 182.53 14.8598ZM182.37 14.9798C179.5 14.2898 176.62 13.5298 173.78 13.1098C172.35 12.9198 170.91 12.6498 169.6 12.6898C168.95 12.6998 168.35 12.8298 168.05 13.0698C167.69 13.3598 167.36 13.9098 167.28 14.4398C167.18 14.9698 167.37 15.5098 167.85 15.9798C168.34 16.4298 168.99 16.7698 169.68 16.9898C171.06 17.4398 172.59 17.5698 174.05 17.5398C176.99 17.3898 179.82 17.3698 182.77 17.0498L182.33 17.6998C182.3 16.8798 182.33 15.9998 182.37 14.9798Z" fill="black"/>
<path d="M195.8 21.95C196.58 22.17 201.01 23.4599 203.23 24.4599C203.42 24.5499 203.84 24.7399 204.23 25.15C204.99 25.97 205.19 27.19 204.98 28.2C204.89 28.63 204.7 29.49 204 29.93C203.11 30.49 201.93 30.0499 201.31 29.8099C198.14 28.5999 195.69 24.64 194.9 23.28C195.2 22.84 195.5 22.4 195.8 21.95Z" fill="white"/>
<path d="M195.761 21.8601C196.471 21.8301 196.941 21.8701 197.531 21.9301C198.091 21.9901 198.641 22.0901 199.191 22.1901C200.281 22.4401 201.371 22.7101 202.401 23.1801C202.661 23.3001 202.911 23.4301 203.161 23.5801C203.401 23.7301 203.661 23.8701 203.941 24.1001C204.471 24.5301 204.841 25.1101 205.051 25.6901C205.461 26.8601 205.451 28.0601 205.101 29.2501C204.931 29.8601 204.431 30.5301 203.691 30.7901C202.971 31.0701 202.241 30.9901 201.631 30.8501C200.461 30.5801 199.261 29.9801 198.331 29.2401C197.391 28.4801 196.621 27.5801 196.001 26.6001C195.361 25.6301 194.861 24.6001 194.481 23.5201L194.351 23.1601L194.501 23.0101C194.941 22.5501 195.391 22.1501 195.761 21.8601ZM195.831 22.0501C195.601 22.6401 195.451 23.1401 195.291 23.5601L195.311 23.0501C196.761 24.7101 198.191 26.2901 199.691 27.6101C200.451 28.2901 201.211 28.8101 202.141 29.1901C203.011 29.5401 203.751 29.7401 204.311 28.9001C204.821 28.0701 204.931 26.8601 204.361 26.0301C204.091 25.6101 203.691 25.3401 203.271 25.2101C202.871 25.1001 202.261 24.9601 201.771 24.8101C200.741 24.5001 199.731 24.0701 198.721 23.6401C198.221 23.4101 197.721 23.1801 197.221 22.9201C196.771 22.6501 196.181 22.3801 195.831 22.0501Z" fill="black"/>
<path d="M195.721 18.99C198.161 18.45 200.211 18.02 201.901 17.65C202.281 17.57 203.011 17.41 203.841 17.67C203.931 17.7 205.621 18.28 205.951 19.87C205.971 19.95 206.241 21.34 205.441 22.02C204.781 22.57 203.771 22.35 203.281 22.25C201.741 21.93 199.521 21.64 196.151 21.57C196.001 20.7 195.861 19.84 195.721 18.99Z" fill="white"/>
<path d="M195.641 18.93C196.991 18.12 199.071 17.33 201.151 16.9C201.411 16.85 201.681 16.83 201.941 16.79C202.221 16.77 202.521 16.77 202.811 16.81C203.391 16.89 203.971 17.12 204.421 17.44C205.291 18.05 206.081 18.84 206.341 19.95C206.451 20.47 206.541 21.02 206.381 21.64C206.261 22.27 205.651 22.93 204.961 23.11C204.301 23.32 203.671 23.24 203.161 23.18C202.691 23.12 202.231 23.07 201.771 23.03C199.911 22.89 198.041 22.62 196.131 22.27L195.481 22.15L195.461 21.69C195.421 20.63 195.531 19.64 195.641 18.93ZM195.801 19.04C196.191 20.04 196.581 20.77 196.821 21.44L196.151 20.86C198.111 20.6 200.101 20.55 202.071 20.98C202.561 21.08 203.051 21.2 203.531 21.34C203.961 21.47 204.321 21.54 204.611 21.54C204.881 21.53 205.101 21.5 205.311 21.21C205.511 20.93 205.621 20.48 205.611 20.05C205.601 19.2 204.881 18.44 204.031 18.22C203.611 18.09 203.221 18.14 202.831 18.23C202.471 18.32 202.061 18.5 201.631 18.61C199.931 19 198.231 19.03 195.801 19.04Z" fill="black"/>
<path d="M194.35 16.9399C194.95 15.7899 196.27 13.7499 198.68 12.7099C199.56 12.3299 201.32 11.5799 202.46 12.4499C202.99 12.8499 203.41 13.6199 203.3 14.3499C203.19 15.0299 202.63 15.6099 199.47 17.0999C198.47 17.5699 197.11 18.1899 195.46 18.8399C195.09 18.2099 194.72 17.5699 194.35 16.9399Z" fill="white"/>
<path d="M194.25 16.9399C194.38 15.8799 194.77 15.0599 195.33 14.2299C195.9 13.4399 196.64 12.7299 197.54 12.2899C197.99 12.0599 198.48 11.9399 198.94 11.8499C199.42 11.7599 199.91 11.7099 200.41 11.6899C200.91 11.6899 201.41 11.6999 201.9 11.8399C202.4 11.9799 202.86 12.2799 203.2 12.6699C203.55 13.0599 203.84 13.5399 203.91 14.1599C203.95 14.4499 203.91 14.8199 203.76 15.1499C203.62 15.4699 203.41 15.6999 203.23 15.9099C202.45 16.6599 201.65 17.1099 200.85 17.5799C200.06 18.0599 199.21 18.3899 198.35 18.6899C197.48 18.9799 196.61 19.2499 195.71 19.4499L195.06 19.5899L194.9 19.1599C194.58 18.3799 194.36 17.5999 194.25 16.9399ZM194.45 16.9299C195.08 17.5399 195.59 18.0299 196.03 18.5099L195.22 18.2299C196.72 17.2099 198.29 16.3999 199.92 15.7399C200.72 15.3999 201.54 15.0399 202.17 14.6699C202.32 14.5899 202.44 14.4899 202.53 14.4299C202.61 14.3699 202.68 14.2899 202.73 14.1399C202.83 13.8599 202.78 13.4599 202.6 13.1199C202.42 12.7799 202.11 12.5299 201.74 12.4299C201.37 12.3199 200.95 12.3899 200.56 12.5299C200.17 12.6799 199.81 12.9099 199.45 13.1499L198.4 13.8399C197.73 14.2599 197.06 14.6999 196.42 15.2399C195.78 15.7399 195.15 16.4099 194.45 16.9299Z" fill="black"/>
<path d="M191.5 14.5899C193.23 11.9799 194.47 10.0499 195.12 8.8699C195.27 8.58991 195.62 7.93991 196.29 7.74991C196.85 7.58991 197.39 7.83991 197.7 7.97991C197.87 8.05991 198.97 8.5699 199.22 9.4899C199.44 10.2899 198.95 11.0699 198.09 12.1599C197.2 13.2999 195.86 14.8199 193.96 16.4599C193.13 15.8299 192.32 15.2099 191.5 14.5899Z" fill="white"/>
<path d="M191.4 14.5999C191.71 13.1999 192.48 11.4399 193.48 9.8099C193.74 9.4099 194.04 9.01989 194.36 8.65989C194.66 8.31989 195.02 7.8499 195.53 7.5799C196.04 7.2899 196.66 7.2699 197.14 7.4199C197.62 7.5699 198.02 7.7599 198.45 7.9999C198.86 8.2399 199.28 8.53989 199.6 9.02989C199.93 9.50989 199.98 10.2499 199.83 10.7899C199.52 11.8899 198.93 12.5699 198.42 13.3199C197.38 14.8199 196.01 16.0599 194.48 17.0399L193.86 17.4399L193.48 17.0699C192.59 16.2399 191.87 15.3099 191.4 14.5999ZM191.6 14.5699C192.77 15.1099 193.68 15.4299 194.44 15.8199L193.44 15.8499C194.57 14.5299 195.68 13.2699 196.88 12.0599C197.47 11.4499 198.06 10.7899 198.44 10.2599C198.62 9.9899 198.72 9.7699 198.67 9.4599C198.62 9.1499 198.38 8.8099 198.07 8.5599C197.77 8.3199 197.36 8.1099 197 8.0399C196.63 7.9699 196.3 8.10989 196.11 8.35989C195.9 8.61989 195.84 8.94989 195.69 9.35989C195.54 9.73989 195.37 10.0999 195.16 10.4399C194.27 11.7899 193.17 12.9999 191.6 14.5699Z" fill="black"/>
<path d="M184.091 5.09992C183.731 4.74992 182.251 3.34992 180.771 3.74992C179.911 3.97992 179.361 4.73992 179.171 5.14992C178.241 7.05992 180.451 10.5299 184.311 13.9199C184.691 13.8099 185.071 13.7099 185.451 13.5999C185.611 12.9499 186.871 7.74992 184.091 5.09992Z" fill="white"/>
<path d="M184.021 5.17C183.531 4.69 182.911 4.33 182.261 4.23C181.601 4.12 181.051 4.32 180.731 4.61C180.001 5.3 179.551 5.91 179.731 7.28C179.881 8.58 180.691 9.8 181.691 10.71C182.711 11.63 183.871 12.37 184.911 13.22L184.041 13.02L185.161 12.63L184.451 13.35C184.571 12.68 184.651 11.98 184.741 11.29C184.831 10.6 184.861 9.92 184.921 9.23C184.961 8.55 185.061 7.83 184.941 7.11C184.851 6.4 184.541 5.7 184.021 5.17ZM184.151 5.03C184.691 5.56 185.211 6.14 185.671 6.82C186.141 7.49 186.511 8.26 186.701 9.06C186.901 9.86 186.911 10.68 186.871 11.49C186.821 12.3 186.651 13.07 186.421 13.86L186.231 14.47L185.711 14.58L184.551 14.83L184.011 14.95L183.681 14.64C182.641 13.66 181.831 12.45 181.061 11.25L179.881 9.49C179.481 8.91 179.041 8.34 178.671 7.66C178.321 7 177.961 6.16 178.221 5.18C178.341 4.68 178.601 4.29 178.901 3.96C179.201 3.63 179.591 3.36 180.031 3.2C180.471 3.03 180.981 3.02 181.401 3.12C181.831 3.22 182.201 3.41 182.521 3.63C183.151 4.05 183.641 4.55 184.151 5.03Z" fill="black"/>
<path d="M188.91 13.39C188.96 12.91 189.65 7.05002 190.36 5.87002C190.42 5.76002 190.58 5.50002 190.89 5.36002C191.39 5.14002 191.95 5.40002 192.4 5.61002C192.78 5.79002 193.23 6.00002 193.57 6.41002C193.71 6.59002 194.1 7.13002 194 8.71002C193.96 9.46002 193.78 12.43 191.52 14.25C191.38 14.36 191.26 14.45 191.18 14.5C190.42 14.13 189.66 13.76 188.91 13.39Z" fill="white"/>
<path d="M188.82 13.4301C188.67 12.8701 188.63 12.5101 188.57 12.0501C188.53 11.6101 188.51 11.1801 188.51 10.7401C188.52 9.87006 188.59 9.00006 188.79 8.15006C189.01 7.29006 189.36 6.50006 189.97 5.63006C190.13 5.43006 190.36 5.22006 190.62 5.10006C190.89 4.98006 191.19 4.95006 191.44 4.98006C191.96 5.05006 192.35 5.26006 192.77 5.40006C193.19 5.56006 193.67 5.76006 194.07 6.18006C194.47 6.64006 194.65 7.15006 194.77 7.64006C194.97 8.62006 194.92 9.51006 194.8 10.4701C194.61 12.3501 193.37 14.2601 191.6 15.1201L191.12 15.3501L190.86 15.1701C190.04 14.6001 189.32 13.9701 188.82 13.4301ZM189 13.3401C190.02 13.5501 190.81 13.6701 191.51 13.8501L190.77 13.9001C191.83 12.8101 192.35 11.5001 192.81 10.0401C193.02 9.32006 193.14 8.49006 193.21 7.77006C193.24 7.41006 193.25 7.05006 193.17 6.80006C193.07 6.52006 192.81 6.24006 192.46 6.03006C192.1 5.81006 191.72 5.61006 191.39 5.58006C191.05 5.56006 190.84 5.75006 190.75 6.08006C190.6 6.75006 190.68 7.68006 190.54 8.48006C190.41 9.30006 190.21 10.1201 189.97 10.9401C189.84 11.3501 189.71 11.7601 189.56 12.1701C189.39 12.5601 189.25 13.0501 189 13.3401Z" fill="black"/>
<path d="M188.77 4.79998C188.52 4.48998 187.73 3.49998 186.53 3.46998C186.44 3.46998 185.28 3.45998 184.64 4.26998C183.81 5.31998 184.62 6.76998 184.93 9.54998C185.1 11.12 185.03 12.42 184.95 13.25C186.1 13.27 187.25 13.3 188.4 13.32C188.52 13 190.21 8.37998 189.43 6.04998C189.2 5.33998 188.77 4.79998 188.77 4.79998Z" fill="white"/>
<path d="M188.69 4.85995C188.35 4.40995 187.86 4.03995 187.33 3.93995C186.8 3.81995 186.34 3.98995 185.93 4.22995C185.53 4.47995 185.33 4.74995 185.25 4.97995C185.16 5.18995 185.12 5.63995 185.13 6.19995C185.15 7.31995 185.13 8.56995 185.24 9.72995C185.34 10.8999 185.54 12.0799 185.62 13.2999L184.96 12.5499C186.11 12.3699 187.26 12.3499 188.41 12.2899L187.44 12.9499L188.01 10.9099C188.22 10.2299 188.39 9.55995 188.6 8.88995C188.8 8.21995 189.08 7.55995 189.18 6.85995C189.23 6.50995 189.23 6.15995 189.14 5.80995C189.07 5.47995 188.9 5.14995 188.69 4.85995ZM188.85 4.73995C189.31 5.33995 189.73 5.98995 189.99 6.77995C190.26 7.54995 190.41 8.36995 190.41 9.15995C190.41 9.94995 190.27 10.7199 190.1 11.4699C189.92 12.2199 189.66 12.9299 189.35 13.6599L189.04 14.3699L188.38 14.3099C187.23 14.2099 186.08 14.1399 184.94 13.9099L184.12 13.7499L184.28 13.1699C184.58 12.0799 184.78 10.9299 184.66 9.78995C184.56 8.62995 184.03 7.61995 183.62 6.45995C183.45 5.88995 183.25 5.12995 183.62 4.24995C184 3.39995 184.87 2.95995 185.58 2.90995C186.29 2.82995 187.06 3.03995 187.57 3.41995C188.1 3.82995 188.48 4.27995 188.85 4.73995Z" fill="black"/>
<path d="M183.68 13.45C183.15 12.15 181.96 9.80997 179.45 8.17997C178.6 7.62997 176.57 6.31997 174.35 6.82997C174.02 6.90997 172.59 7.23997 172.33 8.17997C172.11 8.97997 172.84 9.79997 173.19 10.19C175.4 12.69 180.92 14.11 182.87 14.57C183.13 14.2 183.4 13.83 183.68 13.45Z" fill="white"/>
<path d="M183.58 13.4399C182.82 12.6099 182.12 11.6699 181.34 10.9299C180.96 10.5399 180.56 10.1799 180.16 9.83987L178.9 8.85987C178.03 8.19987 177.2 7.43987 176.13 7.15987C175.61 7.00987 175.04 6.99987 174.52 7.13987C173.99 7.24987 173.46 7.50987 173.13 7.83987C172.81 8.21987 172.86 8.46987 173.06 8.78987C173.27 9.10987 173.65 9.47987 174.04 9.80987C174.79 10.4599 175.76 10.9599 176.75 11.4099C178.73 12.3499 180.83 13.2199 182.96 14.1799L182.51 14.3499L183.58 13.4399ZM183.77 13.4599C183.63 13.8699 183.44 14.3399 183.2 14.8299L183.11 15.0099L182.76 14.9999C180.38 14.8799 178.01 14.4099 175.8 13.3199C174.71 12.7499 173.65 12.0499 172.76 11.0399C172.34 10.5499 171.94 10.0299 171.73 9.25987C171.63 8.88987 171.61 8.40987 171.79 7.99987C171.96 7.58987 172.27 7.29987 172.57 7.11987C173.18 6.75987 173.78 6.62987 174.38 6.51987C174.99 6.40987 175.61 6.39987 176.23 6.42987C177.46 6.49987 178.76 6.80987 179.83 7.40987C180.93 8.00987 181.85 8.94987 182.53 9.97987C183.2 11.0399 183.66 12.1399 183.77 13.4599Z" fill="black"/>
<path d="M191.711 14.8099C194.561 16.6899 196.681 20.6499 195.441 22.5599C194.121 24.5999 189.131 24.0999 186.061 21.8299C183.661 20.0499 181.551 16.5299 182.681 14.6299C183.911 12.5699 188.681 12.8099 191.711 14.8099Z" fill="#FAF28A"/>
<path d="M191.77 14.72C193.07 15.63 194.36 16.61 195.44 17.93C195.95 18.6 196.4 19.37 196.6 20.28C196.7 20.73 196.74 21.22 196.66 21.73C196.6 22.24 196.37 22.78 196 23.2C195.24 24.04 194.24 24.26 193.39 24.3C192.52 24.34 191.7 24.22 190.9 24.08C189.3 23.79 187.75 23.35 186.25 22.62C184.73 21.87 183.45 20.7 182.51 19.25C182.04 18.53 181.63 17.73 181.42 16.78C181.3 16.32 181.29 15.78 181.35 15.24C181.46 14.69 181.67 14.11 182.07 13.67C182.46 13.23 182.93 12.93 183.39 12.73C183.85 12.53 184.32 12.4 184.77 12.36C185.68 12.24 186.55 12.37 187.37 12.6C189.01 13.07 190.43 13.88 191.77 14.72ZM191.66 14.89C190.34 14.04 188.71 13.8 187.23 13.91C186.48 13.97 185.77 14.09 185.13 14.26C184.51 14.44 183.92 14.69 183.71 15.04C183.18 15.54 183.48 17.06 184.14 18.28C184.83 19.52 185.72 20.74 186.85 21.69C187.99 22.65 189.48 23.29 191 23.43C191.76 23.49 192.53 23.43 193.22 23.2C193.91 22.99 194.48 22.58 194.7 22.17C195.16 21.41 194.84 19.92 194.35 18.55C193.83 17.16 192.97 15.74 191.66 14.89Z" fill="black"/>
<path d="M10.25 48.8901C12.12 43.7001 22.32 35.5701 34.34 35.6201C44.02 35.6601 52.94 40.9901 57.52 49.3901L10.25 48.8901Z" fill="#603913"/>
<path d="M2.09023 45.6199C7.37023 34.7499 27.0102 34.8599 32.8302 34.8899C40.4702 34.9299 56.1202 35.0099 61.5102 44.5899C63.8602 48.7599 62.5702 55.5099 59.9902 68.9999C57.9802 79.5199 56.9002 84.8599 53.4402 88.4199C47.4402 94.5899 38.7702 94.8699 32.9502 95.0599C26.9802 95.2599 16.9302 95.5799 10.5802 88.9799C8.99023 87.3299 7.69023 85.2999 4.35023 67.5699C0.800231 48.8099 1.48023 46.8799 2.09023 45.6199Z" fill="#F26B6C"/>
<path d="M2.00047 45.57C2.93047 43.66 4.35047 42 6.02047 40.7C7.67047 39.36 9.59047 38.39 11.5405 37.55C15.4805 35.93 19.6905 35.08 23.9005 34.57C28.1305 34.05 32.3805 33.99 36.6105 34.06C38.7305 34.09 40.8605 34.21 42.9905 34.46C45.1205 34.69 47.2305 35.06 49.3205 35.63C51.4005 36.18 53.4505 36.94 55.3505 38C57.2505 39.05 59.0605 40.36 60.4205 42.09C60.8005 42.48 61.0805 42.96 61.3805 43.42C61.6705 43.89 61.9905 44.32 62.2005 44.85C62.6505 45.87 62.9205 46.95 63.0305 48.03C63.2605 50.19 63.0705 52.32 62.8305 54.42C62.3005 58.62 61.5105 62.76 60.7705 66.91C59.9705 71.05 59.3705 75.22 58.4005 79.35C57.9105 81.42 57.3305 83.49 56.3705 85.47C55.8805 86.45 55.3005 87.4 54.6005 88.27C54.2405 88.7 53.8605 89.11 53.4605 89.48C53.0705 89.87 52.6705 90.24 52.2305 90.58C48.8205 93.39 44.5105 94.87 40.2605 95.47C38.1305 95.79 35.9805 95.93 33.8705 96.02C31.7605 96.11 29.6405 96.2 27.4905 96.15C23.2105 96.05 18.7805 95.38 14.8005 93.35C12.8205 92.33 11.0405 90.96 9.50047 89.28C8.69047 88.36 8.18047 87.27 7.78047 86.25C7.37047 85.22 7.08047 84.18 6.80047 83.14C5.70047 79 4.99047 74.84 4.30047 70.68C3.60047 66.51 2.95047 62.35 2.40047 58.16C2.14047 56.07 1.85047 53.98 1.67047 51.87C1.58047 50.82 1.49047 49.77 1.48047 48.71C1.49047 47.66 1.50047 46.55 2.00047 45.57ZM2.18047 45.66C1.72047 46.59 1.72047 47.67 1.73047 48.7C1.76047 49.75 1.84047 50.79 1.97047 51.84C2.24047 53.92 2.55047 56.01 2.95047 58.07C3.73047 62.2 4.62047 66.32 5.56047 70.43C6.51047 74.52 7.46047 78.63 8.62047 82.62C8.92047 83.61 9.24047 84.59 9.62047 85.51C10.0005 86.44 10.4205 87.28 11.0205 87.94C12.3505 89.35 13.9705 90.57 15.7405 91.45C19.3005 93.27 23.4205 93.9 27.5205 94.06C29.5805 94.15 31.6705 94.09 33.7705 94.03C35.8605 93.98 37.9305 93.87 39.9705 93.6C44.0305 93.07 48.0205 91.82 51.2205 89.33C51.6305 89.03 52.0105 88.7 52.3705 88.35C52.7605 88.02 53.1005 87.66 53.4305 87.29C54.0805 86.55 54.6505 85.72 55.1305 84.83C56.0905 83.05 56.7505 81.07 57.3105 79.06C58.3905 75.03 59.2405 70.89 60.0505 66.76C60.8605 62.63 61.7105 58.5 62.1605 54.33C62.3605 52.25 62.4805 50.15 62.1905 48.12C62.0405 47.11 61.7505 46.13 61.3005 45.25C61.1005 44.8 60.7705 44.4 60.4905 43.98C60.2005 43.57 59.9305 43.14 59.5505 42.79C58.2305 41.25 56.5005 40.11 54.6805 39.21C53.7805 38.73 52.8105 38.4 51.8605 38.03C50.8705 37.74 49.9005 37.42 48.8905 37.21C44.8805 36.25 40.7205 35.94 36.5505 35.79C32.3605 35.69 28.1705 35.54 24.0005 35.79C19.8405 36.04 15.6605 36.64 11.7105 38.01C9.74047 38.7 7.85047 39.64 6.17047 40.89C4.51047 42.17 3.12047 43.79 2.18047 45.66Z" fill="black"/>
<path d="M2.07973 44.74C2.19973 38.87 19.9797 33.51 34.7597 33.92C46.4997 34.24 62.0697 38.35 62.3597 43.86C62.6497 49.36 47.6297 55.8 34.3197 56.45C19.0597 57.18 1.95973 50.54 2.07973 44.74Z" fill="#F26B6C"/>
<path d="M1.97959 44.73C1.98959 43.99 2.27959 43.29 2.67959 42.7C3.07959 42.1 3.5796 41.58 4.1296 41.12C5.19959 40.17 6.43959 39.45 7.67959 38.75C10.1896 37.39 12.8696 36.39 15.5896 35.53C21.0396 33.83 26.7596 33.01 32.4796 33.05C38.2196 33.14 43.8396 34.17 49.3296 35.58C52.0696 36.3 54.7896 37.15 57.3796 38.35C58.6696 38.96 59.9296 39.67 61.0596 40.64C61.6196 41.13 62.1196 41.71 62.4796 42.42C62.8396 43.12 62.9796 44 62.8096 44.8C62.4596 46.42 61.3996 47.6 60.3396 48.61C59.2496 49.61 58.0396 50.44 56.7896 51.17C54.2896 52.63 51.6296 53.75 48.9096 54.66C43.4696 56.46 37.7596 57.56 31.9796 57.54C26.2196 57.49 20.4896 56.55 15.1096 54.61C12.4196 53.65 9.78959 52.51 7.34959 51.01C6.14959 50.25 4.94959 49.45 3.93959 48.44C3.42959 47.95 2.95959 47.39 2.58959 46.78C2.21959 46.18 1.95959 45.47 1.97959 44.73ZM2.17959 44.74C2.18959 46.13 3.12959 47.33 4.13959 48.25C5.17959 49.18 6.36959 49.93 7.61959 50.55C10.1196 51.8 12.7796 52.69 15.4896 53.37C20.9096 54.68 26.4496 55.46 31.9796 55.42C37.4896 55.39 43.0296 54.49 48.3296 52.88C50.9696 52.05 53.5796 51.08 56.0196 49.8C57.2296 49.15 58.3996 48.43 59.4496 47.6C60.4796 46.76 61.4296 45.75 61.7496 44.59C62.0896 43.44 61.4396 42.22 60.4796 41.29C59.5196 40.35 58.3296 39.6 57.0896 38.98C54.5996 37.73 51.8996 36.88 49.1796 36.23C46.4496 35.58 43.6596 35.18 40.8696 34.94C38.0796 34.7 35.2796 34.61 32.4996 34.73C26.9396 34.93 21.3896 35.62 15.9196 36.75C13.1896 37.34 10.4796 38.1 7.91959 39.22C6.6396 39.77 5.4096 40.46 4.30959 41.33C3.23959 42.19 2.24959 43.34 2.17959 44.74Z" fill="black"/>
<path d="M8.67039 44.5C8.76039 40.32 22.3204 36.51 33.6004 36.8C42.5604 37.03 54.4304 39.95 54.6504 43.87C54.8704 47.79 43.4204 52.36 33.2604 52.83C21.6204 53.36 8.58039 48.63 8.67039 44.5Z" fill="black" stroke="black" stroke-width="3" stroke-miterlimit="10"/>
<path d="M24.9701 75.3799C27.1185 75.3799 28.8601 73.6382 28.8601 71.4899C28.8601 69.3415 27.1185 67.5999 24.9701 67.5999C22.8217 67.5999 21.0801 69.3415 21.0801 71.4899C21.0801 73.6382 22.8217 75.3799 24.9701 75.3799Z" fill="white"/>
<path d="M28.8797 71.5899C28.8497 72.6099 28.4897 73.6399 27.7597 74.4199C27.0497 75.2099 25.9397 75.6399 24.8697 75.5799C22.6797 75.4499 20.9597 73.4999 20.9497 71.3899C20.9197 70.3399 21.3497 69.2599 22.1297 68.4999C22.8897 67.7399 23.9897 67.2999 25.0697 67.3399C26.1597 67.3599 27.2197 67.8699 27.8997 68.6899C28.5997 69.5099 28.9097 70.5699 28.8797 71.5899ZM28.8297 71.5899C28.8597 70.5699 28.3897 69.5799 27.6697 68.9299C26.9497 68.2699 26.0197 67.8899 25.0597 67.8699C24.1097 67.8599 23.1597 68.1999 22.4497 68.8499C21.7397 69.4999 21.2897 70.4199 21.2197 71.3999C21.1497 72.3799 21.4997 73.4099 22.2197 74.1099C22.9197 74.8299 23.9197 75.1799 24.8797 75.1699C25.8497 75.1699 26.7897 74.8099 27.5397 74.1899C28.2897 73.5699 28.8197 72.6099 28.8297 71.5899Z" fill="black"/>
<path d="M24.17 73.2401C25.5286 73.2401 26.63 72.1387 26.63 70.7801C26.63 69.4214 25.5286 68.3201 24.17 68.3201C22.8113 68.3201 21.71 69.4214 21.71 70.7801C21.71 72.1387 22.8113 73.2401 24.17 73.2401Z" fill="black" stroke="black" stroke-width="0.75" stroke-miterlimit="10"/>
<path d="M20.2002 65.11C20.8702 64.75 22.0102 64.23 23.5202 64.06C25.1002 63.87 26.3702 64.13 27.1202 64.35" stroke="black" stroke-miterlimit="10" stroke-linecap="round"/>
<path d="M39.5098 63.4101C40.2598 63.2801 41.5098 63.1701 42.9898 63.4801C44.5398 63.8101 45.6698 64.4701 46.3098 64.9101" stroke="black" stroke-miterlimit="10" stroke-linecap="round"/>
<path d="M30.7399 74.5601C30.5899 75.7701 31.4399 76.7901 32.3799 76.8901C33.4199 77.0001 34.5499 76.0001 34.4699 74.6501" stroke="black" stroke-miterlimit="10" stroke-linecap="round"/>
<path d="M40.68 75.4299C42.8284 75.4299 44.57 73.6883 44.57 71.5399C44.57 69.3915 42.8284 67.6499 40.68 67.6499C38.5317 67.6499 36.79 69.3915 36.79 71.5399C36.79 73.6883 38.5317 75.4299 40.68 75.4299Z" fill="white"/>
<path d="M44.6004 71.63C44.5704 72.65 44.2104 73.68 43.4804 74.46C42.7704 75.25 41.6604 75.68 40.5904 75.62C38.4004 75.49 36.6804 73.54 36.6704 71.43C36.6404 70.38 37.0704 69.3 37.8504 68.54C38.6104 67.78 39.7104 67.34 40.7904 67.38C41.8804 67.4 42.9404 67.91 43.6204 68.73C44.3104 69.56 44.6204 70.62 44.6004 71.63ZM44.5504 71.63C44.5804 70.61 44.1104 69.62 43.3904 68.97C42.6704 68.31 41.7404 67.93 40.7804 67.91C39.8304 67.9 38.8804 68.24 38.1704 68.89C37.4604 69.54 37.0104 70.46 36.9404 71.44C36.8704 72.42 37.2204 73.45 37.9404 74.15C38.6404 74.87 39.6404 75.22 40.6004 75.21C41.5704 75.21 42.5104 74.85 43.2604 74.23C44.0104 73.62 44.5304 72.65 44.5504 71.63Z" fill="black"/>
<path d="M39.8799 73.2901C41.2385 73.2901 42.3399 72.1887 42.3399 70.8301C42.3399 69.4715 41.2385 68.3701 39.8799 68.3701C38.5213 68.3701 37.4199 69.4715 37.4199 70.8301C37.4199 72.1887 38.5213 73.2901 39.8799 73.2901Z" fill="black" stroke="black" stroke-width="0.75" stroke-miterlimit="10"/>
<path d="M42.8305 29.2C40.4205 32.19 38.4105 35.56 37.0505 39.21C35.6705 42.85 34.9605 46.8 35.0705 50.79C34.4605 46.85 34.6605 42.74 35.6105 38.77C36.5505 34.8 38.2105 30.98 40.3805 27.47L42.8305 29.2Z" fill="#1E6F5D"/>
<path d="M15.7898 31.8201C16.8198 32.1501 17.7398 32.6501 18.5998 33.2201C19.4698 33.7801 20.2698 34.4401 21.0098 35.1601C22.5298 36.5701 23.4498 38.4901 24.3998 40.3101C25.3598 42.1301 26.1198 44.0601 26.6198 46.0301C27.0998 48.0101 27.3898 50.0401 27.3298 52.0501L27.0298 52.0801C26.6098 50.1501 26.0298 48.2801 25.1998 46.5301C24.3998 44.7701 23.4398 43.1201 22.3398 41.5501C21.2398 39.9801 19.8098 38.7001 18.7298 37.1201C18.1798 36.3401 17.6298 35.5501 17.0998 34.7101C16.5698 33.8801 16.0398 33.0201 15.5898 32.0501L15.7898 31.8201Z" fill="#1E6F5D"/>
<path d="M12.9503 14.87C12.5503 14.35 11.8003 13.21 11.7403 11.68C11.6603 9.36003 13.1903 7.07003 14.1303 7.18003C14.6303 7.24003 14.7803 7.94003 15.3803 7.94003C15.9703 7.94003 16.1903 7.24003 16.6303 7.13003C17.2103 6.98003 18.5103 7.76003 20.1003 11.41C22.7303 17.47 25.4703 29.88 23.1903 30.61C22.1203 30.95 19.6203 28.86 12.9503 14.87Z" fill="#F26B6C"/>
<path d="M12.8601 14.92C12.1301 13.99 11.6101 12.83 11.4801 11.59C11.3701 10.34 11.5801 9.05003 12.2001 7.87003C12.3701 7.58003 12.5501 7.28003 12.8201 7.01003C13.0901 6.75003 13.4201 6.41003 14.1301 6.39003C14.4901 6.38003 14.8501 6.58003 15.0301 6.73003L15.4001 7.05003C15.5501 7.15003 15.3601 7.02003 15.3201 7.06003C15.2601 7.10003 15.3701 6.99003 15.6701 6.68003C15.8201 6.54003 16.0901 6.30003 16.5101 6.23003C16.9001 6.17003 17.2001 6.25003 17.4301 6.34003C18.3201 6.74003 18.6801 7.32003 19.0801 7.84003C20.4901 10.04 20.9601 12.41 21.6801 14.68C22.3501 16.97 23.0901 19.23 23.7601 21.54C24.4101 23.86 25.0301 26.17 24.9601 28.78C24.9401 29.11 24.9101 29.45 24.8301 29.82C24.7501 30.18 24.6301 30.6 24.2501 31.06C24.0601 31.29 23.7301 31.5 23.3801 31.59C23.0101 31.68 22.7001 31.63 22.4201 31.56C21.9201 31.4 21.5801 31.16 21.3001 30.94C20.1801 30.02 19.5201 29 18.8201 27.99C17.5001 25.93 16.4101 23.8 15.5601 21.54C14.6701 19.31 13.9001 17.05 12.8601 14.92ZM13.0301 14.82C14.0601 16.97 15.3601 18.98 16.7001 20.94C18.0701 22.88 19.2501 24.92 20.5601 26.81C21.1901 27.75 21.9001 28.71 22.5801 29.34C22.7501 29.5 22.9101 29.59 22.9701 29.63C23.0301 29.61 22.7501 29.68 22.7601 29.72C22.7601 29.72 22.8701 29.59 22.9201 29.37C22.9801 29.17 23.0201 28.91 23.0501 28.65C23.1501 27.59 23.0801 26.43 23.0101 25.28C22.9201 24.12 22.8201 22.95 22.6601 21.78C22.3501 19.45 21.8501 17.12 21.0401 14.9C20.2301 12.7 19.0901 10.53 17.7301 8.86003C17.4101 8.46003 16.9701 8.09003 16.7601 8.02003C16.7101 8.00003 16.7101 8.02003 16.8101 8.01003C16.9301 7.98003 16.9601 7.94003 16.8901 8.00003C16.7601 8.10003 16.5201 8.50003 15.8801 8.74003C15.5601 8.85003 15.2301 8.85003 14.9001 8.75003C14.5701 8.64003 14.3301 8.44003 14.1901 8.30003C14.0501 8.15003 13.9601 8.03003 13.9301 7.99003C13.8801 7.95003 13.9701 7.99003 14.0301 7.98003C14.1401 7.94003 13.9401 7.97003 13.7701 8.10003C13.5901 8.21003 13.4101 8.40003 13.2401 8.59003C12.5701 9.39003 12.0601 10.47 11.9801 11.59C11.9001 12.73 12.3201 13.88 13.0301 14.82Z" fill="black"/>
<path d="M17.9399 15.29C18.3599 12.42 19.1099 7.36 21.2699 6.97C23.6399 6.54 27.1899 11.86 28.1299 16.95C29.7499 25.72 23.9199 35.5 20.8499 35.04C17.6999 34.58 16.7599 23.26 17.9399 15.29Z" fill="#F26B6C"/>
<path d="M17.8401 15.2699L18.3901 11.2899C18.6401 9.95992 18.7901 8.59992 19.6601 7.26992C19.7701 7.10992 19.9301 6.94992 20.0701 6.79992C20.2401 6.65992 20.4201 6.50992 20.6401 6.40992C21.0701 6.18992 21.6201 6.12992 22.0601 6.21992C22.9701 6.37992 23.6501 6.83992 24.2001 7.32992C25.3301 8.31992 26.0901 9.51992 26.7301 10.7599C27.9701 13.2599 28.5301 16.0099 28.6701 18.7199C28.7901 21.4299 28.5201 24.1399 27.8701 26.7899C27.2001 29.4399 26.1601 32.0499 24.2301 34.2399C23.7301 34.7799 23.1901 35.3099 22.4101 35.7099C22.0301 35.9099 21.5501 36.0699 21.0001 36.0699C20.4401 36.0799 19.8501 35.8399 19.4701 35.5299C18.6701 34.9199 18.3301 34.1899 18.0101 33.5099C17.7101 32.8199 17.4901 32.1399 17.3201 31.4499C15.9601 25.9599 17.1201 20.5299 17.8401 15.2699ZM18.0401 15.2999C17.6501 17.9299 17.8101 20.6199 18.1201 23.2499C18.4801 25.8599 18.7401 28.4899 19.3901 30.9199C19.5601 31.5199 19.7301 32.1199 19.9701 32.6499C20.2001 33.1699 20.5001 33.6699 20.7601 33.8799C20.9001 33.9999 20.9601 34.0199 21.0601 34.0299C21.1701 34.0399 21.3501 34.0199 21.5701 33.9099C22.0001 33.7299 22.4701 33.3499 22.8901 32.9299C23.7401 32.0799 24.4701 31.0199 25.1301 29.9199C25.7801 28.8199 26.3701 27.6599 26.8501 26.4399C27.8001 24.0199 28.3201 21.3599 28.0501 18.7499C27.8001 16.1399 26.6401 13.7099 25.3001 11.5499C24.6301 10.4799 23.8801 9.43992 23.0401 8.61992C22.6201 8.20992 22.1601 7.88992 21.7701 7.75992C21.4001 7.64992 21.0701 7.67992 20.6601 8.07992C19.8601 8.85992 19.3201 10.1599 18.9101 11.3899C18.4801 12.6699 18.2401 13.9899 18.0401 15.2999Z" fill="black"/>
<path d="M0.0498047 13.2102C3.6098 26.8002 9.1098 36.0302 14.3998 35.8802C14.5398 35.8802 16.9198 35.7802 17.7298 34.2202C19.7498 30.3102 9.9498 21.1902 0.0498047 13.2102Z" fill="#F26B6C"/>
<path d="M0.11 13.2901C0.34 13.9801 0.67 14.5501 0.91 15.0401C1.12 15.4901 1.37 16.1001 1.6 16.6901L3 20.1701C3.95 22.4801 4.97 24.7401 6 26.9801C7.04 29.2001 8.08 31.5201 9.8 33.3101C10.66 34.1901 11.68 34.9201 12.81 35.2701C13.1 35.3201 13.38 35.4601 13.67 35.4501C13.96 35.4401 14.26 35.4801 14.53 35.4401C15.1 35.3501 15.68 35.1801 16.16 34.9201C18.27 33.8201 16.85 31.3201 15.54 29.4501C14.13 27.5001 12.38 25.7301 10.65 23.9501C8.93 22.1601 7.13 20.4201 5.34 18.6501L2.65 16.0001L1.32 14.6501C1.11 14.4401 0.83 14.1801 0.69 14.0001C0.53 13.8101 0.36 13.5401 0.11 13.2901ZM0 13.1201C0.23 13.2701 0.55 13.3901 0.89 13.6001L1.73 14.1501C2.26 14.5001 2.79 14.8401 3.31 15.2101C4.35 15.9301 5.37 16.6901 6.38 17.4601C8.4 19.0001 10.32 20.6701 12.16 22.4401C13.98 24.2301 15.68 26.1801 17.1 28.3901C17.8 29.5101 18.47 30.6901 18.71 32.1601C18.82 32.8801 18.78 33.7301 18.37 34.4601C17.97 35.1901 17.28 35.6601 16.62 35.9101C15.95 36.1701 15.28 36.2801 14.6 36.3001C13.9 36.2601 13.23 36.1601 12.6 35.9101C11.36 35.4301 10.29 34.6501 9.35 33.7701C7.48 32.0001 5.84 29.9701 4.53 27.7501C3.24 25.5201 2.31 23.1201 1.54 20.6901C1.18 19.4701 0.83 18.2401 0.58 16.9901C0.44 16.3701 0.31 15.7801 0.2 15.0101C0.11 14.2901 0.1 13.6501 0 13.1201Z" fill="black"/>
<path d="M43.2603 5.36999C43.4204 4.96999 44.1604 3.13999 45.1904 3.11999C45.8004 3.10999 45.9704 3.73999 46.9004 3.97999C48.0904 4.27999 48.7504 3.48999 49.3604 3.76999C50.6004 4.31999 49.9004 8.26999 49.9004 8.26999C49.7004 9.39999 45.6404 32.11 41.8704 31.51C38.1804 30.92 41.6903 9.23999 43.2603 5.36999Z" fill="#27AAE1"/>
<path d="M43.17 5.33009C43.42 4.70009 43.71 4.08009 44.16 3.54009C44.38 3.27009 44.68 3.01009 45.09 2.94009C45.52 2.85009 45.92 3.15009 46.16 3.31009C46.67 3.67009 47.28 3.74009 47.81 3.57009C48.09 3.49009 48.33 3.33009 48.76 3.20009C48.97 3.14009 49.29 3.10009 49.59 3.22009C49.73 3.28009 49.86 3.36009 49.98 3.45009C50.08 3.54009 50.17 3.64009 50.26 3.75009C50.79 4.58009 50.84 5.33009 50.89 6.06009C50.94 6.79009 50.89 7.49009 50.8 8.20009C50.6 9.58009 50.32 10.8701 49.99 12.1901C49.33 14.8101 48.43 17.3701 47.7 19.9701C46.95 22.5601 46.35 25.1801 45.49 27.7901C45.27 28.4401 45.04 29.0901 44.74 29.7401C44.44 30.3901 44.12 31.0301 43.53 31.6501C43.39 31.8001 43.18 31.9501 43 32.0901C42.75 32.2001 42.52 32.3501 42.2 32.3701C42.04 32.3801 41.88 32.3901 41.72 32.3801C41.57 32.3401 41.41 32.3001 41.26 32.2401C40.97 32.1301 40.75 31.9201 40.56 31.7301C39.91 30.9401 39.75 30.1801 39.58 29.4701C39.05 26.6101 39.16 23.8901 39.39 21.1601C39.8 15.6901 41.54 10.4701 43.17 5.33009ZM43.35 5.41009C42.47 7.93009 42.31 10.6701 42.12 13.3301C41.98 16.0101 41.7 18.6601 41.52 21.3101C41.41 22.6301 41.35 23.9501 41.29 25.2601C41.25 26.5601 41.25 27.8801 41.43 29.0901C41.52 29.6801 41.71 30.2701 41.9 30.5401C42 30.6201 41.99 30.6801 42.03 30.6601C42.05 30.6901 42.12 30.6301 42.18 30.6301C42.26 30.5601 42.35 30.5401 42.44 30.4501C42.83 30.1401 43.2 29.6001 43.54 29.0701C43.89 28.5301 44.18 27.9501 44.48 27.3601C45.63 24.9701 46.48 22.4001 47.08 19.8001C47.69 17.1901 47.95 14.5001 48.37 11.8501C48.58 10.5401 48.81 9.19009 49.07 7.92009C49.17 7.30009 49.26 6.66009 49.31 6.04009C49.35 5.44009 49.35 4.78009 49.2 4.44009C49.1 4.29009 49.2 4.27009 48.97 4.26009C48.74 4.27009 48.36 4.40009 47.98 4.43009C47.19 4.53009 46.37 4.22009 45.85 3.72009C45.59 3.48009 45.41 3.28009 45.13 3.32009C44.86 3.33009 44.59 3.50009 44.36 3.73009C43.91 4.19009 43.61 4.80009 43.35 5.41009Z" fill="black"/>
<path d="M51.6395 7.81018C51.8895 7.45018 53.0295 5.85018 54.0295 6.06018C54.6295 6.19018 54.6495 6.84018 55.4995 7.28018C56.5895 7.84018 57.4095 7.23018 57.9495 7.63018C59.0295 8.45018 57.4495 12.1302 57.4495 12.1302C56.9895 13.1902 47.8695 34.3802 44.3295 32.9302C40.8695 31.5302 49.2395 11.2202 51.6395 7.81018Z" fill="#F26B6C"/>
<path d="M51.5598 7.76008C51.9398 7.20008 52.3698 6.66008 52.9398 6.24008C53.2198 6.03008 53.5598 5.84008 53.9798 5.87008C54.4198 5.88008 54.7398 6.26008 54.9398 6.48008C55.3598 6.95008 55.9298 7.16008 56.4898 7.11008C56.7798 7.09008 57.0498 7.00008 57.4998 6.97008C57.7198 6.96008 58.0398 6.99008 58.3098 7.18008C58.4298 7.27008 58.5398 7.38008 58.6398 7.49008C58.7198 7.60008 58.7798 7.72008 58.8398 7.84008C59.1698 8.77008 59.0398 9.51008 58.9298 10.2301C58.8098 10.9501 58.6098 11.6201 58.3598 12.2901C57.8498 13.5901 57.2798 14.7801 56.6598 15.9901C55.4198 18.3901 53.9598 20.6801 52.6598 23.0401C51.3398 25.3901 50.1598 27.8101 48.7298 30.1501C48.3598 30.7301 47.9898 31.3101 47.5498 31.8701C47.1098 32.4301 46.6598 32.9901 45.9398 33.4501C45.7698 33.5701 45.5298 33.6601 45.3198 33.7601C45.0498 33.8101 44.7898 33.9001 44.4798 33.8501C44.3198 33.8301 44.1698 33.7901 44.0198 33.7501C43.8798 33.6801 43.7398 33.6001 43.5998 33.5101C43.3398 33.3301 43.1798 33.0801 43.0298 32.8601C42.5698 31.9401 42.5998 31.1701 42.5898 30.4301C42.7298 27.5201 43.4598 24.9001 44.2998 22.3001C45.9198 17.0701 48.7998 12.3901 51.5598 7.76008ZM51.7198 7.87008C50.2898 10.1301 49.5098 12.7501 48.7098 15.3001C47.9598 17.8801 47.0798 20.3901 46.2998 22.9301C45.8898 24.1901 45.5298 25.4601 45.1798 26.7201C44.8398 27.9801 44.5398 29.2601 44.4498 30.4801C44.3998 31.0701 44.4498 31.6901 44.5798 32.0001C44.6598 32.1001 44.6298 32.1501 44.6798 32.1401C44.6898 32.1801 44.7698 32.1301 44.8298 32.1501C44.9198 32.1001 45.0098 32.1001 45.1298 32.0401C45.5798 31.8201 46.0698 31.3901 46.5198 30.9501C46.9798 30.5101 47.3998 30.0001 47.8298 29.5001C49.4898 27.4401 50.8998 25.1301 52.0798 22.7301C53.2698 20.3201 54.1398 17.7701 55.1398 15.2901C55.6398 14.0601 56.1798 12.8001 56.7198 11.6301C56.9598 11.0501 57.1898 10.4501 57.3798 9.86008C57.5598 9.28008 57.6998 8.64008 57.6398 8.27008C57.5798 8.10008 57.6798 8.10008 57.4598 8.04008C57.2298 8.00008 56.8398 8.03008 56.4498 7.98008C55.6598 7.89008 54.9298 7.41008 54.5398 6.80008C54.3398 6.50008 54.2098 6.28008 53.9298 6.24008C53.6698 6.19008 53.3598 6.30008 53.0898 6.46008C52.5498 6.81008 52.1198 7.34008 51.7198 7.87008Z" fill="black"/>
<path d="M5.8798 10.0898C4.8098 13.9598 3.5498 20.9598 6.2998 28.1798C7.1998 30.5498 8.3898 33.5398 11.4998 35.2498C13.5898 36.3998 17.1198 37.2698 19.6098 35.6698C23.6298 33.0898 22.4898 25.6898 21.4798 22.3598C19.6498 16.3298 14.3098 10.7098 8.1698 10.0898C7.2398 9.99976 6.4598 10.0298 5.8798 10.0898Z" fill="#F26B6C"/>
<path d="M5.93985 10.1699C5.79985 11.5599 5.57985 13.0999 5.48985 14.5399C5.38985 16.0099 5.35985 17.4699 5.41985 18.9199C5.54985 21.8199 6.03985 24.6699 6.90985 27.4199C7.31985 28.8199 7.76985 30.2199 8.41985 31.4899C9.06985 32.7599 9.97985 33.8999 11.1799 34.6999C12.3799 35.4899 13.7999 35.9799 15.2299 36.1399C16.6499 36.3099 18.1299 36.0299 19.2199 35.2699C20.3199 34.4999 20.9099 33.2499 21.2299 31.9399C21.5199 30.6099 21.5599 29.1899 21.4599 27.7699C21.3498 26.3499 21.0899 24.9299 20.7199 23.5599C20.3399 22.1999 19.8599 20.8799 19.1899 19.6399C17.9099 17.1299 16.0899 14.8699 13.8499 13.1199C12.7299 12.2599 11.4999 11.4999 10.1499 11.0099L9.12985 10.6699L8.06985 10.4099C7.38985 10.2599 6.57985 10.2299 5.93985 10.1699ZM5.80985 10.0099C8.89985 9.28988 12.0899 10.1699 14.7499 11.8099C17.4199 13.4699 19.5599 15.8799 21.0799 18.6299C21.8199 20.0099 22.3999 21.5099 22.7399 23.0399C23.0799 24.5599 23.2899 26.0999 23.3399 27.6599C23.3799 29.2199 23.2799 30.8099 22.7799 32.3599C22.2799 33.8899 21.2699 35.3999 19.7899 36.1899C18.3199 37.0099 16.6499 37.0299 15.1399 36.7999C13.6199 36.5399 12.1599 36.0299 10.8299 35.2399C9.50985 34.4499 8.34985 33.3399 7.45985 32.0599C6.56985 30.7699 5.90985 29.3699 5.32985 27.9699C4.74985 26.5399 4.34985 25.0399 4.12985 23.5099C3.89985 21.9899 3.79985 20.4499 3.85985 18.9199C3.90985 17.3899 4.09985 15.8699 4.42985 14.3899C4.76985 12.8799 5.16985 11.4999 5.80985 10.0099Z" fill="black"/>
<path d="M35.1194 22.51C33.8794 16.18 35.1094 12.57 36.6194 10.41C38.1894 8.14996 41.5094 5.37996 40.6894 3.12996C40.4994 2.61996 40.1194 2.18996 40.1494 2.16996C40.2194 2.11996 42.3794 4.51996 43.8994 7.41996C44.5194 8.60996 46.6994 12.78 46.2594 17.81C45.7094 23.97 41.3094 30.32 38.5494 29.81C37.6894 29.63 36.1294 28.66 35.1194 22.51Z" fill="#F26B6C"/>
<path d="M35.0198 22.53C34.5598 19.94 34.0098 17.32 34.2598 14.54C34.3998 13.17 34.7698 11.76 35.4998 10.53C36.2198 9.26003 37.1798 8.30003 38.0398 7.34003C38.8998 6.39003 39.8098 5.45003 40.1898 4.40003C40.3798 3.87003 40.3798 3.38003 40.0998 2.85003C40.0298 2.71003 39.9598 2.60003 39.8598 2.43003L39.8298 2.38003L39.7998 2.31003C39.8398 2.31003 39.6798 2.30003 39.8598 1.91003C40.1298 1.61003 40.5298 1.94003 40.4398 1.89003C40.4798 1.93003 40.5298 1.97003 40.5498 2.00003L40.7198 2.20003C40.9398 2.46003 41.1398 2.73003 41.3498 2.99003C42.9598 5.11003 44.4498 7.32003 45.5798 9.79003C46.7198 12.24 47.3798 15 47.1898 17.81C46.9898 20.6 46.1998 23.31 44.8098 25.73C44.0898 26.92 43.2898 28.08 42.2098 29.06C41.9398 29.31 41.6398 29.53 41.3498 29.75C41.0098 29.94 40.7098 30.16 40.3098 30.29C39.9498 30.45 39.5098 30.54 39.0698 30.56C38.8398 30.54 38.6098 30.52 38.3798 30.48C38.1498 30.42 37.9398 30.32 37.7498 30.2C36.9998 29.71 36.6398 29.03 36.3598 28.39C36.0898 27.74 35.8998 27.09 35.7398 26.43C35.4398 25.13 35.2198 23.83 35.0198 22.53ZM35.2198 22.49C35.4598 23.78 35.7598 25.07 36.2698 26.27C36.5198 26.87 36.8198 27.45 37.1698 27.95C37.5198 28.45 37.9598 28.9 38.3698 29.04C39.1198 29.28 40.0798 28.53 40.8698 27.69C41.6598 26.81 42.3698 25.79 42.9498 24.69C44.1398 22.52 44.9998 20.11 45.3198 17.66C45.5698 15.21 45.2898 12.66 44.5598 10.19C43.8098 7.73003 42.5498 5.38003 40.8498 3.41003C40.6398 3.16003 40.4198 2.93003 40.1898 2.70003L40.0198 2.54003C39.9998 2.51003 39.9898 2.50003 39.9598 2.49003C39.8398 2.41003 40.1898 2.72003 40.4398 2.41003C40.6198 2.03003 40.4698 2.03003 40.5098 2.04003C40.5098 2.03003 40.4898 2.00003 40.4998 2.01003C40.4998 2.01003 40.4998 2.01003 40.4998 2.02003L40.7998 2.43003C41.0198 2.72003 41.1698 3.10003 41.2698 3.49003C41.3298 3.89003 41.3298 4.29003 41.2598 4.67003C40.9398 6.18003 40.0898 7.33003 39.3098 8.41003C38.4998 9.48003 37.6398 10.45 36.9998 11.44C36.3698 12.46 35.8598 13.58 35.4998 14.79C34.7698 17.2 34.6998 19.92 35.2198 22.49Z" fill="black"/>
<path d="M40.0091 9.9299C42.9991 4.4299 48.1891 0.379898 48.8991 0.929898C49.1791 1.1499 48.6991 1.9999 48.1491 3.4999C46.3491 8.4399 47.2491 10.9599 46.5391 14.2099C45.2791 19.9899 39.6491 24.8699 37.8591 24.0599C36.0291 23.2299 36.8991 15.6599 40.0091 9.9299Z" fill="#F26B6C"/>
<path d="M39.9295 9.88C41.0595 7.86 42.2195 5.82 43.6495 3.91C44.3795 2.97 45.1695 2.07 46.1295 1.31C46.5995 0.92 47.0995 0.56 47.7295 0.26C47.8995 0.18 48.0595 0.11 48.2995 0.05C48.4095 0.02 48.5695 0 48.7495 0C48.8795 0.01 48.9695 0.02 49.1195 0.07C49.2895 0.14 49.4395 0.21 49.5795 0.38C49.8495 0.71 49.8495 1.03 49.8395 1.18C49.8295 1.36 49.7995 1.47 49.7695 1.57C49.7095 1.77 49.6495 1.92 49.5895 2.07C49.0895 3.18 48.5795 4.13 48.1795 5.2C47.7695 6.25 47.4595 7.35 47.3295 8.48C47.0295 10.73 47.3795 13.11 46.7595 15.49C46.1895 17.84 45.0395 20.05 43.4195 21.88C42.6195 22.8 41.7295 23.66 40.6395 24.38C40.0895 24.74 39.4895 25.07 38.6095 25.19C38.3795 25.21 38.1695 25.24 37.8495 25.16C37.7095 25.13 37.5595 25.09 37.4295 25.04C37.2895 24.97 37.1495 24.89 37.0295 24.8C36.5595 24.42 36.3495 23.99 36.2095 23.62C35.9595 22.88 35.9095 22.22 35.8895 21.58C35.8795 20.94 35.9095 20.32 35.9995 19.72C36.1595 18.51 36.4895 17.35 36.8995 16.23C37.7495 14 38.8295 11.92 39.9295 9.88ZM40.0995 9.98C38.9995 12 38.4695 14.3 38.1895 16.55C38.0495 17.68 37.9795 18.8 37.9295 19.89C37.9095 20.95 37.9095 22.12 38.2095 22.86C38.2795 23.03 38.3595 23.13 38.3395 23.11C38.3395 23.11 38.3195 23.09 38.3095 23.09C38.3095 23.08 38.3095 23.07 38.3095 23.07C38.2795 23.09 38.3495 23.07 38.4095 23.07C38.6695 23.04 39.1395 22.86 39.5695 22.6C40.4395 22.1 41.2895 21.39 42.0395 20.61C43.5495 19.03 44.8395 17.2 45.7195 15.16C46.1095 14.13 46.4095 13.04 46.4895 11.9C46.5995 10.76 46.5995 9.6 46.6795 8.43C46.7495 7.26 46.8795 6.08 47.0995 4.91C47.3195 3.75 47.6695 2.55 48.0195 1.51C48.0595 1.39 48.0895 1.26 48.0995 1.19C48.1095 1.15 48.1095 1.11 48.0995 1.15C48.0995 1.15 48.0695 1.32 48.2495 1.54C48.3495 1.64 48.4195 1.7 48.5295 1.73C48.6195 1.76 48.6295 1.76 48.6895 1.76C48.7295 1.77 48.7395 1.76 48.7095 1.77C48.6695 1.78 48.5695 1.82 48.4695 1.87C48.0695 2.07 47.6195 2.4 47.1695 2.71C46.2995 3.37 45.3995 4.06 44.5395 4.79C42.8295 6.24 41.1895 7.94 40.0995 9.98Z" fill="black"/>
<path d="M41.0095 35.15C37.2595 33.74 35.9495 29.47 35.6495 28.51C33.4295 21.26 38.7695 14.8 45.3995 6.76997C45.4795 6.66997 47.3895 4.39997 48.3995 4.83997C48.9195 5.06997 48.9595 5.89997 49.5795 6.01997C50.1595 6.12997 50.4495 5.46997 50.9695 5.58997C51.6695 5.75997 51.7295 7.08997 52.1495 7.08997C52.5395 7.08997 52.6395 5.92997 52.8995 5.90997C53.5695 5.84997 56.0795 13.45 54.8295 22.19C54.2495 26.19 53.7495 29.73 50.7595 32.47C50.4995 32.7 45.7495 36.93 41.0095 35.15Z" fill="#F26B6C"/>
<path d="M40.9699 35.24C39.3199 34.6199 37.9699 33.3999 36.9299 31.9799C35.8899 30.5399 35.1399 28.9199 34.6799 27.1499C34.2299 25.3799 34.2499 23.4599 34.7199 21.6999C35.1599 19.9199 35.9599 18.29 36.8899 16.78C38.7899 13.78 41.1999 11.2699 43.4299 8.62995L45.0899 6.63995C45.6599 5.94995 46.2699 5.32995 47.0399 4.79995C47.2399 4.66995 47.4499 4.54995 47.7099 4.47995C47.9599 4.38995 48.2899 4.37995 48.6099 4.51995C49.2099 4.86995 49.3199 5.40995 49.5299 5.51995C49.7099 5.60995 49.7299 5.60995 50.1599 5.29995C50.3399 5.15995 50.7999 4.95995 51.1899 5.10995C51.5899 5.23995 51.8099 5.52995 51.9499 5.74995C52.0999 5.97995 52.1899 6.19995 52.2899 6.37995C52.3299 6.46995 52.3799 6.54995 52.4099 6.56995C52.4299 6.58995 52.4199 6.56995 52.3999 6.54995C52.3599 6.50995 52.2599 6.44995 52.1299 6.45995C51.8499 6.49995 51.8499 6.60995 51.8699 6.54995C51.8799 6.51995 51.9099 6.42995 51.9399 6.34995C52.0099 6.15995 52.0099 5.99995 52.2299 5.60995C52.2699 5.54995 52.4499 5.23995 52.9099 5.20995C53.0599 5.19995 53.3399 5.29995 53.3599 5.33995C53.4299 5.37995 53.4999 5.43995 53.5599 5.48995C53.7099 5.63995 53.7899 5.76995 53.8699 5.87995C54.0099 6.10995 54.1199 6.31995 54.2199 6.53995C54.4199 6.96995 54.5799 7.38995 54.7199 7.81995C55.2999 9.51995 55.6499 11.2599 55.8799 13.0099C56.1099 14.7599 56.2199 16.5299 56.2099 18.2999C56.2099 20.0599 55.9799 21.8799 55.7099 23.5699C55.4099 25.2799 55.1099 27.07 54.3799 28.7799C53.6799 30.4999 52.4799 32.0399 50.9999 33.1399C49.5199 34.1999 47.8899 34.9499 46.1799 35.4099C44.4499 35.8499 42.6199 35.8699 40.9699 35.24ZM41.0399 35.0499C41.8499 35.2999 42.6899 35.4699 43.5399 35.4299C44.3799 35.3699 45.2199 35.1999 45.9999 34.8899C47.5599 34.2699 48.9599 33.2699 50.1399 32.1299C51.2599 30.9699 52.0599 29.5799 52.5799 28.0799C53.0899 26.5699 53.3799 24.9299 53.5999 23.2499C54.1399 19.8999 54.3199 16.5799 54.0099 13.2199C53.8499 11.5499 53.5799 9.87995 53.1799 8.27995C53.0799 7.87995 52.9599 7.48995 52.8299 7.11995C52.7599 6.93995 52.6899 6.75995 52.6199 6.60995C52.5899 6.53995 52.5499 6.48995 52.5499 6.47995C52.5599 6.49995 52.5899 6.51995 52.6199 6.52995L52.6399 6.53995C52.6699 6.55995 52.6899 6.56995 52.7199 6.57995C52.7799 6.59995 52.8499 6.60995 52.9099 6.59995C53.2699 6.57995 53.3599 6.34995 53.3399 6.37995C53.3299 6.35995 53.2199 6.61995 53.1299 6.82995C53.0799 6.94995 53.0299 7.05995 52.9299 7.21995C52.8299 7.33995 52.6799 7.63995 52.1799 7.69995C51.9399 7.70995 51.7399 7.60995 51.6099 7.49995C51.5099 7.40995 51.4299 7.30995 51.3899 7.23995C51.2999 7.08995 51.2599 6.96995 51.2099 6.85995C51.1299 6.63995 51.0599 6.45995 50.9899 6.31995C50.9199 6.16995 50.8499 6.10995 50.8299 6.09995C50.8099 6.07995 50.8199 6.04995 50.6399 6.13995C50.4899 6.21995 50.2599 6.39995 49.9099 6.45995C49.5599 6.52995 49.1699 6.39995 48.9299 6.16995C48.4999 5.70995 48.4199 5.26995 48.2399 5.18995C48.0899 5.08995 47.7099 5.17995 47.3699 5.38995C45.9899 6.22995 45.0099 7.72995 43.9099 9.04995C42.8399 10.3999 41.8499 11.8099 40.9099 13.2399C39.9599 14.6599 39.0899 16.13 38.3199 17.62C36.7599 20.57 35.5799 23.6799 35.8999 26.9499C36.0899 28.5599 36.5099 30.2499 37.3399 31.7099C38.1699 33.1799 39.4499 34.4399 41.0399 35.0499Z" fill="black"/>
<path d="M171.45 78.3399C172.605 78.3399 173.54 77.4042 173.54 76.2499C173.54 75.0956 172.605 74.1599 171.45 74.1599C170.296 74.1599 169.36 75.0956 169.36 76.2499C169.36 77.4042 170.296 78.3399 171.45 78.3399Z" fill="black" stroke="black" stroke-width="0.75" stroke-miterlimit="10"/>
</g>
<defs>
<clipPath id="clip0">
<rect width="206.46" height="96.88" fill="white"/>
</clipPath>
</defs>
</svg>
