<svg width="600" height="514" viewBox="0 0 600 514" fill="none" xmlns="http://www.w3.org/2000/svg">
<path d="M463.253 6.41287C472.093 7.26583 477.43 16.1922 481.32 24.2278C487.909 37.8675 494.238 51.6586 500.259 65.5149C512.617 93.9685 524.156 123.596 525.698 154.554C526.983 180.912 520.961 207.257 512.109 232.131C481.27 318.64 411.704 392.816 323.869 419.52C304.492 425.411 284.384 429.063 264.29 431.55C209.967 438.303 152.358 436.668 103.919 410.9C69.2729 392.472 41.7324 362.82 18.5371 331.09C9.27914 318.433 0.820597 300.21 11.1571 288.371C15.3262 283.615 20.8832 283.608 26.6585 285.559C27.2562 285.789 27.8034 285.932 28.4012 286.162C60.9588 333.5 111.806 367.939 167.902 380.654C223.998 393.369 284.661 384.182 334.444 355.408C353.743 344.234 371.39 330.435 387.834 315.371C402.042 302.426 415.471 288.546 426.775 273.013C472.665 210.253 479.548 123.392 452.006 50.7601C449.608 44.2847 446.749 37.6155 445.899 30.8143C445.615 28.5472 445.555 26.2655 445.718 23.9691C446.47 14.956 453.966 5.58925 463.253 6.41287Z" fill="#83DB49"/>
<path d="M444.199 30.8807L445.776 31.0012C446.627 37.8024 449.348 44.4358 451.883 50.947C479.426 123.579 472.542 210.44 426.652 273.2C415.348 288.733 401.868 302.526 387.711 315.558C371.217 330.536 353.62 344.421 334.321 355.595C284.487 384.283 223.825 393.47 167.779 380.841C111.683 368.126 60.8865 333.773 28.2783 286.349C27.6806 286.119 27.0829 285.89 26.5356 285.746L26.7653 285.148C47.7254 272.656 68.7361 260.249 89.6962 247.756C105.528 238.379 121.309 228.916 136.484 218.417C157.262 203.829 176.518 187.236 197.044 172.217C230.312 147.89 266.567 128.072 302.649 108.355C349.844 82.4847 397.04 56.6143 444.199 30.8807Z" fill="#D23056"/>
<path d="M28.3658 286.299C60.9234 333.637 111.77 368.076 167.867 380.791C223.963 393.507 284.625 384.319 334.408 355.545C353.707 344.371 371.355 330.573 387.799 315.508C402.006 302.563 415.436 288.683 426.739 273.15C472.63 210.39 479.513 123.529 451.97 50.8973C449.573 44.4219 446.714 37.7527 445.863 30.9514C445.58 28.6844 445.52 26.4026 445.682 24.1062C446.556 14.9059 454.053 5.53909 463.253 6.4132C472.093 7.26616 477.431 16.1926 481.321 24.2281C487.909 37.8678 494.239 51.6589 500.259 65.5152C512.617 93.9688 524.156 123.597 525.698 154.554C526.983 180.912 520.962 207.258 512.11 232.131C481.271 318.64 411.705 392.816 323.869 419.521C304.492 425.411 284.385 429.064 264.291 431.55C209.967 438.303 152.358 436.668 103.919 410.9C69.2733 392.472 41.7328 362.821 18.5375 331.091C9.27958 318.433 0.82103 300.211 11.1575 288.372C15.3266 283.616 20.8836 283.609 26.6589 285.56C27.1703 285.84 27.768 286.069 28.3658 286.299Z" stroke="#231F20" stroke-width="5" stroke-miterlimit="10" stroke-linecap="round" stroke-linejoin="round"/>
<path d="M26.8024 285.012C47.7626 272.519 68.7732 260.113 89.7334 247.62C105.565 238.243 121.346 228.78 136.522 218.281C157.299 203.693 176.556 187.1 197.081 172.081C230.35 147.753 266.604 127.936 302.686 108.219C349.846 82.4853 397.041 56.6149 444.201 30.8813" stroke="#231F20" stroke-width="5" stroke-miterlimit="10" stroke-linecap="round" stroke-linejoin="round"/>
<path d="M228.606 245.975C229.137 238.366 230.055 229.835 236.059 225.048C239.849 222.02 245.124 221.135 249.934 222.029C254.743 222.923 259.194 225.185 263.229 227.923" stroke="#231F20" stroke-width="5" stroke-miterlimit="10" stroke-linecap="round" stroke-linejoin="round"/>
<path d="M285.347 214.636C284.433 208.915 284.98 202.918 286.945 197.366C287.777 195.026 288.883 192.757 290.601 190.941C294.088 187.395 299.637 186.582 304.497 187.562C309.357 188.542 313.787 191.164 318.029 193.664" stroke="#231F20" stroke-width="5" stroke-miterlimit="10" stroke-linecap="round" stroke-linejoin="round"/>
<g opacity="0.17">
<path opacity="0.17" d="M12.5197 295.452C58.2784 360.209 132.171 404.337 210.837 414.044C260.181 420.167 311.423 412.899 356.321 391.617C401.219 370.334 439.57 334.692 462.392 290.525C475.591 264.963 483.568 237.01 489.421 208.793C498.352 166.032 502.428 120.319 485.881 79.9503C476.127 56.3451 459.32 33.1588 463.356 7.97465C468.227 12.5395 472.25 17.8325 475.979 23.4137C518.027 85.5903 529.673 167.29 506.77 238.846C506.77 238.846 480.202 333.052 365.476 402.712C365.476 402.712 242.774 460.124 140.151 425.504C37.5277 390.884 6.41745 302.845 6.41745 302.845L12.5197 295.452Z" fill="#346816"/>
</g>
<path d="M124.492 295.754C122.066 294.972 120.147 297.832 119.452 300.209C117.581 306.516 117.762 313.362 119.785 319.593C128.21 316.171 130.923 303.578 124.702 296.905" fill="#231F20"/>
<path d="M124.851 294.386C113.858 292.823 116.533 314.429 118.34 320.091C118.672 321.056 119.68 321.393 120.508 321.025C129.903 316.687 132.414 303.749 125.674 295.99C124.456 294.502 122.357 296.656 123.575 298.145C129.06 304.552 126.475 314.985 118.993 318.435C119.727 318.7 120.512 319.052 121.161 319.368C119.983 315.77 119.475 312.129 119.585 308.357C119.611 306.025 120.212 296.753 124.013 297.309C126 297.537 126.752 294.664 124.851 294.386Z" fill="#231F20"/>
<path d="M203.904 324.954C202.237 332.996 205.876 341.99 212.634 346.61C216.987 339.197 213.216 328.196 205.172 325.14" fill="#231F20"/>
<path d="M202.4 324.56C200.806 333.718 204.38 342.401 211.916 347.956C212.528 348.409 213.578 348.026 213.981 347.328C218.534 338.871 214.885 327.683 206.027 323.828C204.32 323.089 202.783 325.61 204.54 326.436C211.879 329.673 215.208 338.731 211.373 345.841C212.078 345.66 212.784 345.479 213.438 345.212C207.127 340.562 204.073 332.965 205.359 325.261C205.688 323.447 202.815 322.695 202.4 324.56Z" fill="#231F20"/>
<path d="M284.749 314.62C283.926 323.907 288.055 333.54 295.382 339.333C298.366 330.173 293.961 319.079 285.419 314.576" fill="#231F20"/>
<path d="M283.223 314.585C282.58 324.577 286.644 333.901 294.239 340.349C295.14 341.096 296.377 340.835 296.75 339.691C299.711 329.501 295.27 318.544 286.05 313.279C284.329 312.317 282.928 314.874 284.564 315.887C292.624 320.556 296.379 329.945 293.791 338.989C294.583 338.757 295.46 338.476 296.302 338.331C289.234 332.386 285.588 323.976 286.189 314.704C286.366 312.631 283.365 312.649 283.223 314.585Z" fill="#231F20"/>
<path d="M375.414 260.076C379.323 266.363 388.769 268.251 394.803 263.911C391.269 257.869 382.341 255.677 376.414 259.607" fill="#231F20"/>
<path d="M374.12 260.833C378.743 267.745 388.563 269.878 395.562 265.205C396.252 264.801 396.503 263.843 396.099 263.153C391.887 256.349 382.548 254.049 375.657 258.312C374.017 259.271 375.532 261.861 377.172 260.902C382.646 257.584 390.105 259.244 393.509 264.668C393.689 263.984 393.868 263.3 394.047 262.616C388.466 266.344 380.524 264.849 376.71 259.318C375.664 257.729 373.074 259.244 374.12 260.833Z" fill="#231F20"/>
<path d="M365.398 179.972C369.524 186.827 379.41 189.269 386.315 185.23C385.266 180.862 381.878 177.051 377.572 175.631C373.266 174.211 368.264 175.167 364.784 178.13" fill="#231F20"/>
<path d="M364.103 180.729C369.079 188.245 379.152 190.81 387.072 186.525C387.676 186.171 387.942 185.437 387.725 184.868C384.775 174.082 372.382 170.325 363.731 177.124C362.243 178.342 364.398 180.441 365.886 179.223C372.79 173.794 382.526 177.367 384.818 185.642C385.048 185.044 385.328 184.533 385.471 183.986C379.069 187.499 370.688 185.451 366.606 179.265C365.647 177.625 363.057 179.14 364.103 180.729Z" fill="#231F20"/>
<path d="M422.158 129.854C423.987 136.546 428.709 142.241 434.918 145.328C435.566 145.644 436.3 145.91 436.869 145.693C437.869 145.224 437.867 143.835 437.621 142.82C436 135.89 430.199 130.132 423.272 128.391" fill="#231F20"/>
<path d="M420.661 130.266C422.25 135.36 425.063 139.971 429.278 143.414C431.318 145.117 436.484 149.394 438.805 145.835C440.795 142.701 437.153 137.07 435.429 134.718C432.437 130.792 428.367 128.191 423.752 126.836C421.923 126.284 421.084 129.207 422.999 129.709C426.06 130.583 428.753 132.02 431.045 134.155C432.385 135.456 436.386 139.72 435.899 141.858C435.119 145.674 429.612 139.627 428.408 138.362C426.174 135.73 424.63 132.694 423.568 129.492C423.004 127.737 420.183 128.46 420.661 130.266Z" fill="#231F20"/>
<path d="M183.579 232.576C183.961 232.237 183.333 231.562 182.851 231.728C182.369 231.894 182.14 232.492 182.083 232.988C180.572 239.317 183.1 246.412 188.201 250.379C192.282 244.284 190.601 235.073 184.664 230.667" fill="#231F20"/>
<path d="M185.034 232.884C185.255 231.48 184.397 230.012 182.885 230.201C180.791 230.384 180.557 232.954 180.35 234.581C179.609 241.039 182.266 247.363 187.194 251.431C187.908 252.056 189.023 251.983 189.548 251.097C193.793 244.095 192.234 234.696 185.757 229.564C184.244 228.364 182.144 230.519 183.657 231.719C189.097 236.068 190.539 243.681 186.94 249.61C187.696 249.515 188.538 249.37 189.294 249.276C186.829 247.242 185.005 244.718 183.993 241.602C183.495 240.156 183.22 238.695 183.168 237.219C183.123 236.55 183.166 235.83 183.208 235.11C184.013 233.713 183.882 233.094 182.594 233.268C182.428 232.786 182.348 232.254 182.182 231.771C182.146 231.908 182.11 232.045 182.074 232.182C181.796 234.083 184.669 234.835 185.034 232.884Z" fill="#231F20"/>
<path d="M326.567 124.487C326.71 123.94 325.789 123.552 325.407 123.891C324.94 124.28 324.847 124.914 324.841 125.497C324.883 130.917 326.711 136.22 330.042 140.527C333.771 135.218 332.235 126.848 326.753 123.22" fill="#231F20"/>
<path d="M327.978 124.125C327.631 122.938 326.817 122.14 325.529 122.314C323.931 122.553 323.451 124.109 323.366 125.549C322.962 130.998 325.64 136.962 328.748 141.284C329.44 142.27 330.693 142.232 331.39 141.245C335.492 134.791 333.682 126.349 327.609 121.908C326.009 120.759 324.573 123.452 326.122 124.516C330.97 128.051 331.958 134.888 328.782 139.758C329.675 139.7 330.531 139.778 331.424 139.719C329.751 137.454 328.474 135.073 327.629 132.439C327.231 131.166 326.971 129.928 326.71 128.69C326.529 127.985 326.485 127.316 326.441 126.646C326.728 125.552 326.288 124.998 325.158 124.848C325.549 126.705 328.456 125.931 327.978 124.125Z" fill="#231F20"/>
<path d="M271.534 256.777C275.281 260.609 280.539 262.863 285.923 262.957C291.307 263.051 296.617 260.64 300.024 256.562C304.509 251.158 305.269 242.951 301.821 236.858" stroke="#231F20" stroke-width="5" stroke-miterlimit="10" stroke-linecap="round" stroke-linejoin="round"/>
</svg>
