<svg width="457" height="502" viewBox="0 0 457 502" fill="none" xmlns="http://www.w3.org/2000/svg">
<g clip-path="url(#clip0_1522:1107)">
<path d="M67.4871 354.68C104.087 394.98 166.487 397.98 206.887 361.38C247.187 324.78 250.187 262.38 213.587 221.98C176.987 181.68 114.587 178.68 74.1871 215.28C33.8871 251.98 30.8871 314.38 67.4871 354.68ZM6.98714 193.68C12.3871 169.88 20.7871 146.48 34.2871 126.18C47.7871 105.88 67.3871 90.2804 89.2871 79.4804C102.887 72.7804 117.887 75.5804 117.887 75.5804C142.187 80.3804 165.187 92.1804 184.587 107.78C209.087 127.48 228.287 152.88 244.587 179.68C251.787 191.58 258.587 203.88 262.787 217.08C267.387 231.58 273.887 245.88 275.187 261.08C276.287 274.08 277.087 286.68 276.687 299.78C276.087 318.98 273.387 339.88 268.387 358.58C264.287 373.98 253.587 388.78 244.687 402.08C237.787 412.48 228.687 421.18 218.287 428.08C204.287 437.28 187.987 443.08 171.287 444.98C142.187 448.28 112.487 440.08 87.4871 424.98C50.2871 402.28 23.2871 364.58 10.1871 322.98C-2.91286 281.38 -2.71286 236.18 6.98714 193.68Z" fill="#FAFAF3"/>
<path d="M218.387 427.98C228.787 421.08 237.887 412.38 244.787 401.98C253.587 388.78 264.387 373.88 268.487 358.48C273.387 339.88 276.087 318.98 276.787 299.68C277.187 286.68 276.387 273.98 275.287 260.98C273.987 245.78 267.587 231.48 262.887 216.98C258.687 203.78 251.887 191.48 244.687 179.58C228.387 152.78 209.087 127.28 184.687 107.68C165.287 92.0805 142.287 80.2805 117.987 75.4805C138.887 77.8805 173.787 87.0805 192.687 96.3805C204.787 102.28 217.687 108.48 228.287 116.78C238.387 124.78 248.587 132.88 257.487 142.28C271.787 157.48 282.387 175.68 291.887 194.28C296.587 203.48 300.987 212.88 304.187 222.78C311.187 244.78 314.587 267.48 314.687 290.58C314.687 300.88 311.587 311.98 309.387 321.98C306.987 332.78 302.087 342.98 296.587 352.58C279.287 382.48 248.587 411.78 218.387 427.98Z" fill="#FAFAF3"/>
<path d="M67.4868 354.681C30.8868 314.381 33.7868 251.981 74.1868 215.281C114.487 178.681 176.887 181.581 213.587 221.981C250.187 262.281 247.187 324.681 206.887 361.381C166.487 398.081 104.187 395.081 67.4868 354.681Z" fill="#FFBD00"/>
<path d="M117.887 75.5804C117.887 75.5804 102.887 72.7804 89.2871 79.4804C67.3871 90.2804 47.7871 105.78 34.2871 126.18C20.7871 146.58 12.3871 169.88 6.98714 193.68C-2.71286 236.18 -2.91286 281.38 10.1871 322.98C23.2871 364.58 50.2872 402.28 87.5872 424.88C112.587 440.08 142.387 448.18 171.387 444.88C188.087 442.98 204.387 437.18 218.387 427.98C228.787 421.08 237.887 412.38 244.787 401.98C253.587 388.78 264.387 373.88 268.487 358.48C273.387 339.88 276.087 318.98 276.787 299.68C277.187 286.68 276.387 273.98 275.287 260.98C273.987 245.78 267.587 231.48 262.887 216.98C258.687 203.78 251.887 191.48 244.687 179.58C228.387 152.78 209.087 127.28 184.687 107.68C165.187 92.1804 142.187 80.3804 117.887 75.5804Z" stroke="black" stroke-width="5" stroke-miterlimit="10" stroke-linecap="round" stroke-linejoin="round"/>
<path d="M218.287 428.08C218.287 427.98 218.387 427.98 218.287 428.08C248.587 411.78 279.287 382.48 296.387 352.68C301.887 343.08 306.787 332.88 309.187 322.08C311.387 312.08 314.487 300.98 314.487 290.68C314.387 267.58 310.987 244.88 303.987 222.88C300.887 212.98 296.387 203.58 291.687 194.38C282.187 175.78 271.587 157.48 257.287 142.38C248.387 132.98 238.187 124.88 228.087 116.88C217.587 108.58 204.587 102.38 192.487 96.4801C173.587 87.1801 138.687 78.0801 117.787 75.5801" stroke="black" stroke-width="5" stroke-miterlimit="10" stroke-linecap="round" stroke-linejoin="round"/>
<path d="M213.487 222.08C250.087 262.38 247.087 324.78 206.787 361.48C166.487 398.08 104.087 395.08 67.3871 354.78C30.7871 314.48 33.6871 252.08 74.0871 215.38C114.487 178.68 176.887 181.68 213.487 222.08Z" stroke="black" stroke-width="5" stroke-miterlimit="10" stroke-linecap="round" stroke-linejoin="round"/>
<path d="M456.087 275.58C456.487 299.08 451.587 322.28 445.387 344.88C442.287 356.08 438.887 367.28 434.087 377.88C423.287 401.48 408.887 422.98 391.487 442.28C383.787 450.88 372.787 457.68 363.387 464.38C353.187 471.58 341.487 476.38 329.587 480.18C292.787 491.98 245.087 493.18 207.587 483.88C221.487 486.08 235.587 485.68 249.287 482.28C266.687 477.98 286.887 473.68 301.887 463.98C320.087 452.18 338.187 436.88 353.187 421.28C363.387 410.78 372.287 399.58 381.187 387.98C391.587 374.38 397.087 357.58 404.187 341.98C410.687 327.78 414.387 312.38 417.287 297.08C423.987 262.38 427.187 226.58 421.687 191.68C417.287 163.98 407.187 136.78 390.487 114.38C406.087 132.28 428.187 166.28 436.887 188.28C442.487 202.28 448.587 217.28 451.087 232.18C453.487 246.58 455.787 260.98 456.087 275.58Z" fill="#FAFAF3"/>
<path d="M207.487 483.88C188.887 480.98 170.887 473.48 155.587 462.38C128.887 443.08 110.287 413.88 100.987 382.28C86.9871 335.28 93.0871 283.38 113.587 238.78C134.187 194.18 168.487 156.78 208.787 128.68C231.287 112.98 255.987 99.8801 282.587 93.1801C309.187 86.4801 337.287 88.2801 363.687 95.8801C380.087 100.58 390.487 114.28 390.487 114.28C407.087 136.68 417.287 163.88 421.687 191.58C427.187 226.48 423.987 262.28 417.287 296.98C414.287 312.28 410.587 327.68 404.187 341.88C397.087 357.48 391.587 374.28 381.187 387.88C372.287 399.58 363.387 410.68 353.187 421.18C338.087 436.78 320.087 452.08 301.887 463.88C286.887 473.58 266.687 477.88 249.287 482.18C235.487 485.68 221.387 486.08 207.487 483.88ZM359.287 308.68C359.287 247.38 309.587 197.68 248.287 197.68C186.987 197.68 137.287 247.38 137.287 308.68C137.287 369.98 186.987 419.68 248.287 419.68C309.587 419.68 359.287 369.98 359.287 308.68Z" fill="#FAFAF3"/>
<path d="M248.287 197.68C309.587 197.68 359.287 247.38 359.287 308.68C359.287 369.98 309.587 419.68 248.287 419.68C186.987 419.68 137.287 369.98 137.287 308.68C137.287 247.38 186.987 197.68 248.287 197.68Z" fill="#FFBD00"/>
<path d="M390.487 114.38C390.487 114.38 380.087 100.78 363.687 95.98C337.287 88.38 309.187 86.48 282.587 93.28C255.987 99.98 231.287 113.08 208.787 128.78C168.587 156.88 134.187 194.28 113.587 238.88C92.9874 283.38 86.9874 335.28 100.987 382.38C110.387 413.98 128.987 443.18 155.587 462.48C170.887 473.58 188.887 481.08 207.487 483.98C221.387 486.18 235.487 485.78 249.187 482.38C266.587 478.08 286.787 473.78 301.787 464.08C319.987 452.28 338.087 436.98 353.087 421.38C363.287 410.88 372.187 399.68 381.087 388.08C391.487 374.48 396.987 357.68 404.087 342.08C410.587 327.88 414.287 312.48 417.187 297.18C423.887 262.48 427.087 226.68 421.587 191.78C417.287 163.98 407.087 136.78 390.487 114.38Z" stroke="black" stroke-width="5" stroke-miterlimit="10" stroke-linecap="round" stroke-linejoin="round"/>
<path d="M207.388 483.88C207.488 483.88 207.488 483.88 207.388 483.88C244.988 493.28 292.688 492.08 329.388 480.18C341.288 476.38 352.988 471.58 363.188 464.38C372.588 457.68 383.588 450.88 391.288 442.28C408.688 422.98 423.088 401.48 433.888 377.88C438.688 367.28 442.188 356.08 445.188 344.88C451.388 322.28 456.388 298.98 455.888 275.58C455.588 260.98 453.188 246.58 450.888 232.18C448.488 217.28 442.288 202.28 436.688 188.28C427.888 166.18 405.888 132.28 390.288 114.38" stroke="black" stroke-width="5" stroke-miterlimit="10" stroke-linecap="round" stroke-linejoin="round"/>
<path d="M359.287 308.68C359.287 369.98 309.587 419.68 248.287 419.68C186.987 419.68 137.287 369.98 137.287 308.68C137.287 247.38 186.987 197.68 248.287 197.68C309.587 197.68 359.287 247.38 359.287 308.68Z" stroke="black" stroke-width="5" stroke-miterlimit="10" stroke-linecap="round" stroke-linejoin="round"/>
<path d="M199.887 274.78C205.087 266.58 215.487 261.98 225.087 264.68C234.687 267.38 241.187 276.58 241.387 286.38C241.487 289.58 246.487 289.58 246.387 286.38C246.087 274.38 238.087 263.18 226.387 259.88C214.587 256.58 201.987 262.18 195.587 272.28C193.887 274.98 198.187 277.48 199.887 274.78Z" fill="black"/>
<path d="M273.688 295.681C280.888 285.381 295.188 285.381 304.288 293.181C311.588 299.381 312.788 309.281 311.988 318.381C311.688 321.581 316.688 321.581 316.988 318.381C318.088 306.381 315.088 293.781 304.288 287.081C292.488 279.681 277.488 281.481 269.388 293.181C267.588 295.781 271.888 298.281 273.688 295.681Z" fill="black"/>
<path d="M208.187 318.281C207.487 333.181 216.387 347.781 229.987 353.881C244.787 360.481 262.187 355.781 272.387 343.381C274.387 340.881 270.887 337.381 268.887 339.881C259.787 350.781 244.387 355.381 231.287 348.981C219.787 343.381 212.587 330.981 213.187 318.281C213.387 315.081 208.387 315.081 208.187 318.281Z" fill="black"/>
<path opacity="0.39" d="M183.504 310.864C191.663 314.258 199.893 313.124 201.887 308.331C203.881 303.537 198.884 296.9 190.725 293.506C182.566 290.112 174.336 291.246 172.342 296.039C170.348 300.833 175.345 307.47 183.504 310.864Z" fill="#FF38F8"/>
<path opacity="0.39" d="M298.39 355.678C306.548 359.073 314.779 357.938 316.773 353.145C318.767 348.352 313.769 341.715 305.611 338.32C297.452 334.926 289.221 336.061 287.227 340.854C285.233 345.647 290.231 352.284 298.39 355.678Z" fill="#FF38F8"/>
</g>
<defs>
<clipPath id="clip0_1522:1107">
<rect width="456.11" height="502" fill="white"/>
</clipPath>
</defs>
</svg>
