<svg width="66" height="116" viewBox="0 0 66 116" fill="none" xmlns="http://www.w3.org/2000/svg">
<g clip-path="url(#clip0)">
<path d="M31.0501 85.17C33.2778 85.6708 35.5907 85.6526 37.8102 85.1168C40.0297 84.581 42.0963 83.542 43.8501 82.08C46.2012 79.9786 47.8573 77.2116 48.5986 74.1466C49.3398 71.0816 49.1311 67.8636 48.0001 64.92C43.5181 65.4298 39.3637 67.5177 36.2801 70.81C34.5055 72.7411 33.1299 75.0039 32.2324 77.4682C31.3349 79.9325 30.9331 82.5499 31.0501 85.17Z" fill="#3E9581"/>
<path d="M31.1097 85.12C33.731 85.3917 36.3801 85.0845 38.8697 84.22C41.2982 83.316 43.461 81.8169 45.1597 79.86C46.9499 77.9008 48.1464 75.4732 48.6097 72.86C49.0183 70.2257 48.6391 67.5294 47.5197 65.11L48.0397 65.42C45.7243 65.8023 43.4939 66.5875 41.4497 67.74C39.4347 68.908 37.6353 70.4132 36.1297 72.19C34.5989 73.9629 33.3967 75.9948 32.5797 78.19C31.7423 80.4125 31.2467 82.749 31.1097 85.12ZM30.9897 85.22C30.6336 82.749 30.804 80.2306 31.4897 77.83C32.1723 75.4045 33.3391 73.1423 34.9197 71.18C35.7084 70.1946 36.6002 69.2962 37.5797 68.5C38.5704 67.7342 39.6319 67.0645 40.7497 66.5C42.978 65.3325 45.4285 64.6508 47.9397 64.5H48.3397L48.4497 64.83C49.2619 67.4836 49.4697 70.2854 49.0579 73.0299C48.6461 75.7743 47.625 78.3917 46.0697 80.69C44.3854 82.9917 41.9821 84.6666 39.2397 85.45C36.5342 86.2185 33.658 86.1382 30.9997 85.22H30.9897Z" fill="#231F20"/>
<path d="M30.9999 85.3C31.7399 84.77 32.5699 84.14 33.4799 83.41C35.8975 81.479 38.158 79.359 40.2399 77.07C43.4145 73.4271 46.0298 69.3323 47.9999 64.92C43.8725 65.3508 40.0042 67.1372 36.9999 70C34.998 71.998 33.4314 74.3889 32.3987 77.0221C31.3661 79.6553 30.8898 82.4737 30.9999 85.3Z" fill="#1E6F5D"/>
<path d="M31.0697 85.23L35.8697 80.66C37.463 79.1133 38.9897 77.52 40.4497 75.88C41.9643 74.2575 43.3581 72.5262 44.6197 70.7C45.8501 68.8408 46.8729 66.8522 47.6697 64.77L48.0197 65.26C46.8446 65.4532 45.692 65.7648 44.5797 66.19C41.2648 67.3909 38.3352 69.4637 36.0997 72.19C34.6001 74.0005 33.4199 76.0532 32.6097 78.26C32.195 79.3746 31.8608 80.5176 31.6097 81.68C31.4997 82.27 31.3797 82.86 31.2897 83.46C31.2897 83.76 31.2097 84.06 31.1897 84.36C31.183 84.6536 31.1427 84.9455 31.0697 85.23ZM30.9997 85.37C30.9058 85.0447 30.8554 84.7085 30.8497 84.37C30.8497 84.06 30.8497 83.75 30.7997 83.44C30.7647 82.8205 30.7647 82.1995 30.7997 81.58C30.8909 80.3359 31.1019 79.1036 31.4297 77.9C31.7827 76.6954 32.2411 75.5242 32.7997 74.4C33.0972 73.8291 33.4313 73.278 33.7997 72.75C34.131 72.2099 34.502 71.6951 34.9097 71.21C36.5162 69.2424 38.5155 67.6315 40.7797 66.48C43.0263 65.3456 45.4859 64.6949 47.9997 64.57H48.6297L48.3597 65.1C47.3097 67.1 46.2497 69.1 45.1397 71.03C44.0676 73.0252 42.8475 74.9372 41.4897 76.75C40.0474 78.5006 38.4363 80.1051 36.6797 81.54C35.8097 82.26 34.9197 82.96 33.9997 83.6C33.0797 84.24 31.8297 84.84 30.9997 85.37Z" fill="#231F20"/>
<path d="M30.9996 115.11C30.1836 111.562 29.5792 107.969 29.1896 104.35C28.7496 100.74 28.5096 97.12 28.3496 93.49C28.0196 86.23 28.7396 78.97 29.3496 71.75C29.9596 64.53 30.8996 57.33 32.0896 50.18C33.2911 43.0447 34.8565 35.9755 36.7796 29L37.1696 29.1C35.8363 36.18 34.7896 43.3 34.0296 50.46C33.2696 57.62 32.7629 64.8 32.5096 72C32.3796 75.59 32.3596 79.18 32.3996 82.76C32.4396 86.34 32.3996 89.93 32.2996 93.52C32.1996 97.11 32.0996 100.69 31.9496 104.29C31.7996 107.89 31.6596 111.5 31.3496 115.13L30.9996 115.11Z" fill="#1E6F5D"/>
<path d="M30.0002 18.45C28.729 15.7411 28.4942 12.6603 29.3402 9.79001C30.3399 6.14003 32.4339 2.88393 35.3402 0.460007C37.0967 2.84571 38.3396 5.56971 38.9902 8.46001C39.6702 11.53 40.5102 15.33 37.8002 18.85C36.5167 20.4321 34.884 21.6952 33.0302 22.54C31.7787 21.3733 30.7517 19.987 30.0002 18.45Z" fill="#F8C803"/>
<path d="M29.94 18.49C29.1816 16.9449 28.6655 15.2922 28.41 13.59C28.2867 12.7121 28.2632 11.8231 28.34 10.94C28.4224 10.065 28.5933 9.20055 28.85 8.36C29.4004 6.67598 30.2924 5.12363 31.47 3.8C32.6215 2.52448 33.8612 1.33153 35.18 0.23L35.43 0L35.63 0.28C36.9301 2.04858 38.0586 3.93713 39 5.92C39.4549 6.93161 39.8164 7.98264 40.08 9.06C40.3747 10.1407 40.5755 11.2448 40.68 12.36C40.8008 13.5374 40.7265 14.7268 40.46 15.88C40.1649 17.0515 39.6341 18.1505 38.9 19.11C37.4874 20.9489 35.526 22.2903 33.3 22.94L32.92 23.06L32.75 22.85C32.1982 22.1756 31.6841 21.4712 31.21 20.74C30.7381 20.0185 30.3139 19.2669 29.94 18.49ZM30.12 18.4C30.4962 19.1525 30.9703 19.8519 31.53 20.48C32.094 21.0976 32.7245 21.6509 33.41 22.13L32.85 22C34.5461 20.9082 36.0217 19.5072 37.2 17.87C38.2578 16.262 38.7858 14.3632 38.71 12.44C38.6638 11.4137 38.5502 10.3915 38.37 9.38C38.19 8.31 38.04 7.32 37.78 6.3C37.2679 4.25774 36.3683 2.33287 35.13 0.63L35.58 0.69C34.3433 1.78631 33.3018 3.08479 32.5 4.53C31.7205 5.93092 31.0711 7.40041 30.56 8.92C30.32 9.65 30.05 10.44 29.85 11.21C29.6137 11.9837 29.4463 12.7768 29.35 13.58C29.1233 15.2275 29.3913 16.9052 30.12 18.4Z" fill="#231F20"/>
<path d="M30.3401 44.89C29.0704 47.5997 28.8391 50.6811 29.6901 53.55C30.6916 57.1992 32.7853 60.4548 35.6901 62.88C37.4497 60.4949 38.6959 57.7709 39.3501 54.88C40.0301 51.81 40.8601 48.02 38.1501 44.49C36.8631 42.9115 35.2313 41.6492 33.3801 40.8C32.1294 41.9697 31.0996 43.3552 30.3401 44.89Z" fill="#F8C803"/>
<path d="M30.4303 44.93C29.7074 46.4267 29.4397 48.1026 29.6603 49.75C29.7653 50.5518 29.9324 51.3442 30.1603 52.12C30.3703 52.9 30.6303 53.68 30.8703 54.42C31.385 55.9366 32.0377 57.4027 32.8203 58.8C33.6183 60.2479 34.6564 61.5497 35.8903 62.65L35.4503 62.7C36.6907 60.9886 37.5873 59.0529 38.0903 57C38.3388 55.9873 38.5357 54.9627 38.6803 53.93C38.8636 52.9161 38.9706 51.8899 39.0003 50.86C39.0872 48.9324 38.5583 47.0271 37.4903 45.42C36.3166 43.7824 34.8441 42.3811 33.1503 41.29L33.7003 41.21C33.0177 41.6889 32.3905 42.2423 31.8303 42.86C31.2779 43.4879 30.8074 44.1835 30.4303 44.93ZM30.2503 44.84C30.6273 44.0699 31.048 43.322 31.5103 42.6C31.9622 41.8629 32.4598 41.1548 33.0003 40.48L33.1803 40.27L33.5603 40.4C35.785 41.047 37.7462 42.3849 39.1603 44.22C39.8883 45.1819 40.4154 46.2803 40.7103 47.45C41.0134 48.6073 41.1116 49.8088 41.0003 51C40.8967 52.1154 40.6959 53.2195 40.4003 54.3C40.1448 55.3817 39.7865 56.4365 39.3303 57.45C38.3895 59.4311 37.2646 61.3194 35.9703 63.09L35.7803 63.36L35.5203 63.14C34.2047 62.0348 32.9683 60.8385 31.8203 59.56C30.6255 58.2438 29.7224 56.6898 29.1703 55C28.9084 54.1573 28.7375 53.2891 28.6603 52.41C28.5802 51.5272 28.6004 50.6382 28.7203 49.76C28.9754 48.0513 29.4914 46.392 30.2503 44.84Z" fill="#231F20"/>
<path d="M39.2195 44.36C40.3813 47.1234 42.5161 49.3649 45.2195 50.66C48.6008 52.3617 52.4224 52.9864 56.1695 52.45C55.5797 49.5751 54.4054 46.8522 52.7195 44.45C50.8895 41.88 48.6295 38.72 44.1995 38.37C42.167 38.2672 40.138 38.6333 38.2695 39.44C38.2877 41.1238 38.6096 42.7905 39.2195 44.36Z" fill="#F8C803"/>
<path d="M39.3098 44.33C39.9392 45.8698 41.0066 47.191 42.3798 48.13C43.0415 48.5938 43.7406 49.0018 44.4698 49.35C45.1798 49.72 45.9398 50.04 46.6498 50.35C48.1215 50.9838 49.6478 51.4825 51.2098 51.84C52.8206 52.2201 54.4847 52.3215 56.1298 52.14L55.8698 52.5C55.4261 50.4323 54.5874 48.4698 53.3998 46.72C52.8141 45.8541 52.1832 45.0196 51.5098 44.22C50.9004 43.4054 50.2319 42.6366 49.5098 41.92C48.1507 40.5717 46.4011 39.6864 44.5098 39.39C42.4986 39.1668 40.4634 39.3228 38.5098 39.85L38.8098 39.38C38.7247 40.2112 38.7247 41.0488 38.8098 41.88C38.8768 42.7139 39.0447 43.5365 39.3098 44.33ZM39.1298 44.4C38.8036 43.618 38.5264 42.8164 38.2998 42C38.068 41.1584 37.8877 40.3035 37.7598 39.44V39.17L38.1098 38.97C40.0844 37.7509 42.3966 37.1939 44.7098 37.38C45.9099 37.4727 47.0778 37.8132 48.1398 38.38C49.1791 38.9456 50.1128 39.6865 50.8998 40.57C51.6417 41.3975 52.3109 42.2874 52.8998 43.23C53.5257 44.1444 54.0647 45.1153 54.5098 46.13C55.3565 48.1562 56.0062 50.2593 56.4498 52.41L56.5298 52.73H56.1898C54.4871 52.9714 52.7695 53.0917 51.0498 53.09C49.2828 53.0852 47.536 52.7141 45.9198 52C45.1208 51.6273 44.3632 51.1715 43.6598 50.64C42.9514 50.1098 42.307 49.4991 41.7398 48.82C40.6473 47.4899 39.7669 45.999 39.1298 44.4Z" fill="#231F20"/>
<path d="M44.8595 23.6C47.7198 22.7252 50.1604 20.8325 51.7195 18.28C53.7589 15.0874 54.7678 11.3451 54.6095 7.56C51.6754 7.85501 48.8332 8.75021 46.2595 10.19C43.5295 11.75 40.1595 13.67 39.3595 18.04C39.0542 20.0489 39.2116 22.1011 39.8195 24.04C41.5123 24.1984 43.2198 24.0493 44.8595 23.6Z" fill="#F8C803"/>
<path d="M44.8298 23.5C46.4284 23.036 47.8546 22.1107 48.9298 20.84C49.4559 20.2124 49.9308 19.5436 50.3498 18.84C50.7798 18.17 51.1898 17.45 51.5698 16.77C52.3715 15.3755 53.0411 13.9091 53.5698 12.39C54.1079 10.8268 54.3751 9.18316 54.3598 7.52999L54.6998 7.82999C52.5992 8.06054 50.5624 8.69195 48.6998 9.68999C47.7598 10.18 46.9298 10.69 46.0198 11.32C45.1495 11.8621 44.3175 12.4636 43.5298 13.12C42.0515 14.3495 41.0012 16.016 40.5298 17.88C40.1018 19.8526 40.0509 21.8884 40.3798 23.88L39.9398 23.52C40.7534 23.7069 41.585 23.8041 42.4198 23.81C43.2331 23.8099 44.043 23.7057 44.8298 23.5ZM44.8898 23.7C44.0667 23.9453 43.2282 24.1357 42.3798 24.27C41.5194 24.4143 40.6512 24.5078 39.7798 24.55H39.5098L39.3498 24.19C38.3314 22.1027 38.009 19.744 38.4298 17.46C38.648 16.2758 39.1076 15.1491 39.7798 14.15C40.4522 13.1748 41.2838 12.3195 42.2398 11.62C43.1424 10.9546 44.099 10.3659 45.0998 9.85999C46.0581 9.33351 47.0622 8.89505 48.0998 8.54999C50.1981 7.91998 52.3509 7.48809 54.5298 7.25999H54.8698V7.59999C54.9373 9.31851 54.8804 11.0397 54.6998 12.75C54.5149 14.5115 53.9631 16.2148 53.0798 17.75C52.6282 18.5066 52.0987 19.2137 51.4998 19.86C50.9002 20.5099 50.2293 21.0902 49.4998 21.59C48.0767 22.5187 46.5229 23.2299 44.8898 23.7Z" fill="#231F20"/>
<path d="M41.4103 19.6C42.2957 18.9359 43.0338 18.0954 43.5777 17.1315C44.1216 16.1675 44.4596 15.1012 44.5703 14C44.8787 11.0626 44.2448 8.10332 42.7603 5.55C40.7155 6.4995 38.9134 7.90151 37.4903 9.65C36.0203 11.49 34.2103 13.76 35.2403 17.11C35.7767 18.6795 36.6545 20.1105 37.8103 21.3C39.1081 20.969 40.3302 20.3919 41.4103 19.6Z" fill="#A86F09"/>
<path d="M41.3497 19.52C42.3537 18.761 43.0612 17.6752 43.3497 16.45C43.4972 15.8597 43.591 15.2572 43.6297 14.65C43.6297 14.04 43.7097 13.43 43.7297 12.85C43.7682 11.6471 43.708 10.4431 43.5497 9.25001C43.4005 7.99591 43.0244 6.77943 42.4397 5.66001L42.8497 5.79001C41.3764 6.49171 40.0809 7.51725 39.0597 8.79001C38.5497 9.41001 38.1397 10.04 37.6697 10.73C37.2241 11.3626 36.8327 12.0316 36.4997 12.73C35.9121 14.0054 35.7986 15.4485 36.1797 16.8C36.6556 18.2706 37.3284 19.6699 38.1797 20.96L37.6797 20.81C38.9997 20.7322 40.2713 20.2852 41.3497 19.52ZM41.4697 19.68C40.3699 20.4935 39.1866 21.1875 37.9397 21.75L37.7497 21.84L37.4397 21.61C35.961 20.5565 34.8435 19.0723 34.2397 17.36C33.9147 16.4474 33.7985 15.4735 33.8997 14.51C34.0165 13.5558 34.3225 12.6345 34.7997 11.8C35.2426 11.0305 35.7655 10.3098 36.3597 9.65001C36.9212 8.98551 37.5514 8.38217 38.2397 7.85001C39.6232 6.84944 41.0922 5.97272 42.6297 5.23001L42.8897 5.10001L43.0297 5.36001C43.6497 6.51001 44.3097 7.66001 44.8397 8.91001C45.3894 10.1688 45.6393 11.5381 45.5697 12.91C45.519 13.5914 45.3812 14.2636 45.1597 14.91C44.9402 15.5708 44.6342 16.1996 44.2497 16.78C43.4965 17.8992 42.5561 18.8802 41.4697 19.68Z" fill="#231F20"/>
<path d="M43.3803 43.69C44.2704 44.3585 45.0112 45.2054 45.5554 46.1766C46.0995 47.1477 46.4349 48.2218 46.5403 49.33C46.8487 52.2674 46.2148 55.2267 44.7303 57.78C42.6868 56.8238 40.8828 55.423 39.4503 53.68C37.9903 51.84 36.1803 49.57 37.2003 46.22C37.7399 44.6409 38.6207 43.2001 39.7803 42C41.0766 42.3298 42.2984 42.9033 43.3803 43.69Z" fill="#A86F09"/>
<path d="M43.4401 43.61C44.5214 44.3918 45.4616 45.3522 46.2201 46.45C46.6007 47.0327 46.9065 47.6609 47.1301 48.32C47.3466 48.9678 47.4843 49.6393 47.5401 50.32C47.6051 51.6916 47.3554 53.0598 46.8101 54.32C46.2801 55.57 45.6201 56.72 45.0001 57.86L44.8601 58.13L44.5901 57.99C43.0561 57.2507 41.5904 56.3773 40.2101 55.38C39.5218 54.8478 38.8917 54.2445 38.3301 53.58C37.7321 52.9233 37.2089 52.2022 36.7701 51.43C36.2871 50.5981 35.9807 49.6756 35.8701 48.72C35.7695 47.7532 35.8856 46.7762 36.2101 45.86C36.8134 44.1502 37.9312 42.669 39.4101 41.62L39.7101 41.39L39.9101 41.48C41.1584 42.0638 42.3417 42.7778 43.4401 43.61ZM43.3201 43.77C42.2374 43.019 40.9661 42.586 39.6501 42.52L40.1501 42.37C39.2992 43.6603 38.6265 45.0596 38.1501 46.53C37.773 47.8828 37.89 49.3256 38.4801 50.6C38.8093 51.3004 39.2009 51.9698 39.6501 52.6C40.08 53.27 40.544 53.9175 41.0401 54.54C42.0574 55.8126 43.3498 56.8382 44.8201 57.54L44.4201 57.67C45.028 56.5287 45.418 55.2841 45.5701 54C45.7233 52.8065 45.7835 51.6029 45.7501 50.4C45.7501 49.82 45.7501 49.21 45.6401 48.6C45.6097 47.9926 45.5193 47.3896 45.3701 46.8C45.057 45.5836 44.3327 44.5131 43.3201 43.77Z" fill="#231F20"/>
<path d="M19.2202 40.64C16.9236 42.569 13.9982 43.5868 11.0002 43.5C7.21848 43.4729 3.53613 42.2861 0.450195 40.1C2.29434 37.7974 4.59182 35.8981 7.2002 34.52C10.0002 33.08 13.4402 31.29 17.5502 33C19.4067 33.8361 21.0457 35.0884 22.3402 36.66C21.5504 38.1651 20.4932 39.5137 19.2202 40.64Z" fill="#F8C803"/>
<path d="M19.28 40.71C17.981 41.8412 16.5176 42.7685 14.94 43.46C14.1239 43.8015 13.2718 44.0497 12.4 44.2C11.5321 44.3521 10.6502 44.4091 9.77 44.37C7.9996 44.2729 6.26913 43.8063 4.69 43C3.16223 42.2166 1.68891 41.3312 0.28 40.35L0 40.17L0.22 39.91C1.5961 38.2033 3.1295 36.6298 4.8 35.21C5.66191 34.5137 6.58576 33.8978 7.56 33.37C8.51773 32.8065 9.52129 32.3248 10.56 31.93C11.6662 31.5065 12.836 31.2732 14.02 31.24C15.2268 31.2201 16.4249 31.4482 17.54 31.91C19.6774 32.8081 21.4763 34.3586 22.68 36.34L22.89 36.67L22.74 36.89C22.2326 37.5907 21.6816 38.2587 21.09 38.89C20.5273 39.5357 19.9226 40.1437 19.28 40.71ZM19.15 40.56C19.7804 40.004 20.3321 39.3648 20.79 38.66C21.241 37.9598 21.6132 37.2119 21.9 36.43L22 37C20.509 35.6442 18.7753 34.5822 16.89 33.87C15.0636 33.2545 13.0891 33.2335 11.25 33.81C10.2681 34.1151 9.30903 34.4894 8.38 34.93C7.38 35.37 6.48 35.77 5.56 36.29C3.70895 37.3021 2.0693 38.66 0.73 40.29L0.66 39.85C2.04186 40.769 3.57049 41.4454 5.18 41.85C6.73024 42.245 8.31362 42.496 9.91 42.6C10.69 42.6 11.51 42.7 12.32 42.7C13.1254 42.7163 13.931 42.6728 14.73 42.57C16.3679 42.3457 17.9044 41.647 19.15 40.56Z" fill="#231F20"/>
<path d="M19.1699 29.58C16.3705 30.642 13.2792 30.642 10.4799 29.58C6.91434 28.309 3.8251 25.9738 1.62988 22.89C4.13037 21.3345 6.92561 20.3131 9.83988 19.89C12.9599 19.45 16.8399 18.89 20.1099 21.89C21.5842 23.281 22.7199 24.9915 23.4299 26.89C22.1842 28.0369 20.7409 28.9483 19.1699 29.58Z" fill="#F8C803"/>
<path d="M19.2097 29.67C17.6113 30.3075 15.9255 30.6986 14.2097 30.83C13.3272 30.8785 12.4421 30.8315 11.5697 30.69C10.6914 30.5498 9.83008 30.3186 8.99969 30C7.36397 29.311 5.88941 28.2894 4.66969 27C3.48711 25.7424 2.39126 24.406 1.38969 23L1.17969 22.73L1.46969 22.56C3.33295 21.4194 5.30211 20.4616 7.34969 19.7C8.39358 19.3196 9.47199 19.0416 10.5697 18.87C11.6706 18.6554 12.7882 18.5383 13.9097 18.52C15.092 18.4778 16.2727 18.6402 17.3997 19C18.5444 19.3788 19.5994 19.9879 20.4997 20.79C22.2259 22.3357 23.4136 24.3923 23.8897 26.66L23.9897 27.05L23.7597 27.21C23.0482 27.7114 22.3069 28.1689 21.5397 28.58C20.7887 28.9959 20.0102 29.3601 19.2097 29.67ZM19.1297 29.48C19.9078 29.1603 20.6407 28.7401 21.3097 28.23C21.9654 27.7175 22.5624 27.1339 23.0897 26.49L22.9997 27C22.0337 25.2326 20.7487 23.6594 19.2097 22.36C17.6867 21.1756 15.828 20.5035 13.8997 20.44C12.875 20.4028 11.849 20.4395 10.8297 20.55C9.74969 20.64 8.74969 20.71 7.70969 20.9C5.62253 21.2511 3.62268 22.0015 1.81969 23.11L1.90969 22.67C2.90769 23.9858 4.12562 25.1191 5.50969 26.02C6.83407 26.9144 8.23642 27.6875 9.69969 28.33C10.4197 28.62 11.1797 28.95 11.9397 29.21C12.6941 29.497 13.4698 29.7243 14.2597 29.89C15.888 30.2348 17.5819 30.0922 19.1297 29.48Z" fill="#231F20"/>
<path d="M22.3999 22.68C19.8369 21.1547 17.9173 18.748 16.9999 15.91C15.7639 12.3322 15.6557 8.46126 16.6899 4.82001C19.4747 5.78582 22.031 7.31416 24.1999 9.31001C26.4899 11.47 29.3199 14.12 29.0799 18.56C28.9137 20.5903 28.2806 22.5548 27.2299 24.3C25.5344 24.0599 23.8973 23.5109 22.3999 22.68Z" fill="#F8C803"/>
<path d="M22.3501 22.77C20.86 21.9237 19.5106 20.8509 18.3501 19.59C17.7487 18.9384 17.2282 18.2165 16.8001 17.44C16.3826 16.6708 16.0474 15.8596 15.8001 15.02C15.2977 13.3215 15.1546 11.5369 15.3801 9.78C15.6016 8.09289 15.9356 6.4225 16.3801 4.78L16.4601 4.45L16.7801 4.57C18.861 5.29883 20.8696 6.21946 22.7801 7.32C23.7241 7.90676 24.6143 8.57605 25.4401 9.32C26.2932 10.0483 27.0827 10.8478 27.8001 11.71C28.5668 12.6 29.1756 13.6147 29.6001 14.71C30.0245 15.8397 30.2117 17.0448 30.1501 18.25C30.0231 20.5677 29.1615 22.7847 27.6901 24.58L27.4501 24.89L27.1901 24.82C26.349 24.5792 25.524 24.2853 24.7201 23.94C23.9067 23.5992 23.1152 23.2085 22.3501 22.77ZM22.4501 22.6C23.1898 22.9983 23.9757 23.3039 24.7901 23.51C25.6035 23.6996 26.435 23.8002 27.2701 23.81L26.7601 24.05C27.5386 22.1921 27.9594 20.204 28.0001 18.19C27.9709 16.2611 27.3301 14.3913 26.1701 12.85C25.56 12.0265 24.8916 11.2479 24.1701 10.52C23.4842 9.75069 22.7599 9.01643 22.0001 8.32C20.4056 6.90346 18.5513 5.8099 16.5401 5.1L16.9401 4.89C16.5421 6.49433 16.4203 8.15476 16.5801 9.8C16.7243 11.3967 17.0155 12.9768 17.4501 14.52C17.6701 15.26 17.8901 16.06 18.1601 16.82C18.4071 17.5881 18.7182 18.334 19.0901 19.05C19.8359 20.5385 21.0048 21.7735 22.4501 22.6Z" fill="#231F20"/>
<path d="M21.2596 41.58C18.9133 43.426 17.3205 46.064 16.7796 49C16.0379 52.7001 16.4462 56.5386 17.9496 60C20.582 58.6672 22.9106 56.805 24.7896 54.53C26.7896 52.09 29.2296 49.08 28.3996 44.72C27.9633 42.7288 27.0698 40.8663 25.7896 39.28C24.1519 39.764 22.6167 40.5435 21.2596 41.58Z" fill="#F8C803"/>
<path d="M21.3204 41.66C19.9955 42.6841 19.0009 44.0751 18.4604 45.66C18.194 46.4222 17.99 47.2048 17.8504 48C17.6804 48.79 17.5704 49.6 17.4504 50.37C17.2225 51.9558 17.1455 53.5597 17.2204 55.16C17.273 56.8123 17.6113 58.4431 18.2204 59.98L17.8004 59.83C19.6793 58.855 21.353 57.5275 22.7304 55.92C23.4304 55.13 24.0004 54.31 24.6404 53.44C25.2604 52.6206 25.8218 51.7585 26.3204 50.86C27.2604 49.1787 27.6421 47.2423 27.4104 45.33C27.1055 43.3375 26.427 41.4205 25.4104 39.68L25.9404 39.85C25.1174 39.9762 24.3098 40.1873 23.5304 40.48C22.7466 40.7779 22.0039 41.1744 21.3204 41.66ZM21.2004 41.5C21.8777 40.9734 22.5893 40.4923 23.3304 40.06C24.0804 39.6165 24.855 39.2159 25.6504 38.86L25.9004 38.75L26.1904 39.03C27.8878 40.6228 29.0362 42.7131 29.4704 45C29.692 46.1856 29.6682 47.404 29.4004 48.58C29.1222 49.7227 28.6486 50.8087 28.0004 51.79C27.4114 52.7419 26.7423 53.6418 26.0004 54.48C25.2811 55.3224 24.4879 56.0989 23.6304 56.8C21.8976 58.1465 20.0428 59.3283 18.0904 60.33L17.7904 60.49L17.6704 60.17C16.9964 58.5927 16.4382 56.9684 16.0004 55.31C15.5404 53.5993 15.4382 51.812 15.7004 50.06C15.8545 49.1924 16.0923 48.3418 16.4104 47.52C16.7389 46.6992 17.1581 45.9176 17.6604 45.19C18.6439 43.7856 19.8379 42.541 21.2004 41.5Z" fill="#231F20"/>
<path d="M23.6204 42.52C23.3882 43.6091 22.9311 44.6377 22.2785 45.54C21.6258 46.4423 20.792 47.1985 19.8304 47.76C17.2942 49.2742 14.341 49.9398 11.4004 49.66C11.4001 47.4032 11.9166 45.1763 12.9104 43.15C13.9604 41.05 15.2704 38.45 18.7404 37.98C20.3899 37.8097 22.0567 38.0078 23.6204 38.56C23.873 39.8679 23.873 41.2121 23.6204 42.52Z" fill="#A86F09"/>
<path d="M23.7203 42.54C23.4653 43.8512 22.9885 45.1092 22.3103 46.26C21.944 46.8503 21.5038 47.3913 21.0003 47.87C20.4951 48.3429 19.9344 48.7526 19.3303 49.09C18.0939 49.7325 16.7236 50.0751 15.3303 50.09C13.9803 50.09 12.6603 50.02 11.3303 49.93H11.0303V49.64C11.0532 47.9336 11.234 46.2331 11.5703 44.56C11.9874 42.8499 12.7125 41.2301 13.7103 39.78C14.2654 38.9932 14.9769 38.3293 15.8003 37.83C16.657 37.3494 17.6102 37.0659 18.5903 37C20.3953 36.8338 22.2077 37.2284 23.7803 38.13L24.1203 38.31V38.52C24.1268 39.8702 23.9928 41.2175 23.7203 42.54ZM23.5303 42.54C23.7583 41.2436 23.6162 39.9093 23.1203 38.69L23.4703 39.08C21.9438 38.8755 20.3968 38.8755 18.8703 39.08C17.4837 39.3025 16.2216 40.0115 15.3103 41.08C14.8214 41.6474 14.3831 42.2563 14.0003 42.9C13.5704 43.5788 13.1765 44.2798 12.8203 45C12.0981 46.4553 11.7152 48.0554 11.7003 49.68L11.4203 49.37C12.6804 49.431 13.941 49.2615 15.1403 48.87C16.2925 48.5139 17.4131 48.0623 18.4903 47.52C19.0103 47.26 19.5503 46.98 20.0803 46.68C20.6141 46.3898 21.1225 46.0553 21.6003 45.68C22.5993 44.8814 23.283 43.7548 23.5303 42.5V42.54Z" fill="#231F20"/>
<path d="M47.4302 34.2C50.2288 35.2657 53.3215 35.2657 56.1202 34.2C59.6978 32.9311 62.7981 30.5919 65.0002 27.5C62.4976 25.9489 59.7033 24.9278 56.7902 24.5C53.6702 24.06 49.7902 23.5 46.5202 26.5C45.0465 27.8915 43.9108 29.6018 43.2002 31.5C44.4375 32.6455 45.8702 33.56 47.4302 34.2Z" fill="#F8C803"/>
<path d="M47.4701 34.11C49.0189 34.7189 50.7127 34.858 52.3401 34.51C53.1301 34.3491 53.906 34.125 54.6601 33.84C55.4201 33.57 56.1801 33.25 56.9001 32.95C58.3724 32.3222 59.7848 31.5625 61.1201 30.68C62.5023 29.7727 63.7197 28.6364 64.7201 27.32L64.8101 27.76C63.0066 26.6546 61.0067 25.9076 58.9201 25.56C57.9201 25.37 56.9201 25.3 55.8101 25.2C54.7872 25.0927 53.7579 25.0593 52.7301 25.1C50.807 25.1571 48.9515 25.8223 47.4301 27C45.8829 28.2978 44.5937 29.8753 43.6301 31.65L43.5101 31.1C44.0399 31.7447 44.6365 32.3313 45.2901 32.85C45.9623 33.3579 46.6945 33.7811 47.4701 34.11ZM47.4001 34.29C46.5966 33.9834 45.8148 33.6225 45.0601 33.21C44.2908 32.8026 43.5492 32.3449 42.8401 31.84L42.6201 31.69L42.7101 31.3C43.1875 29.0299 44.3748 26.9706 46.1001 25.42C47.0032 24.6218 48.0574 24.0131 49.2001 23.63C50.3267 23.2676 51.5073 23.1018 52.6901 23.14C53.8116 23.1578 54.9293 23.275 56.0301 23.49C57.1263 23.6687 58.2041 23.9465 59.2501 24.32C61.2982 25.1049 63.267 26.0827 65.1301 27.24L65.4201 27.41L65.2101 27.68C64.2167 29.0923 63.1204 30.4292 61.9301 31.68C60.7067 32.9742 59.2246 33.9963 57.5801 34.68C56.7617 35.0059 55.9099 35.2406 55.0401 35.38C54.1688 35.5315 53.2826 35.5785 52.4001 35.52C50.679 35.3763 48.9915 34.9612 47.4001 34.29Z" fill="#231F20"/>
<path d="M19.3104 24.92C18.1974 24.8477 17.1118 24.5435 16.1233 24.0269C15.1348 23.5102 14.2652 22.7926 13.5704 21.92C11.7028 19.6309 10.6072 16.8096 10.4404 13.86C12.6718 13.5274 14.9497 13.7087 17.1004 14.39C19.3404 15.12 22.1004 16.03 23.1004 19.39C23.5084 20.9995 23.5596 22.6787 23.2504 24.31C21.9876 24.761 20.6505 24.968 19.3104 24.92Z" fill="#A86F09"/>
<path d="M19.2996 25C17.9666 24.9453 16.6535 24.6576 15.4196 24.15C14.7788 23.8772 14.1769 23.5208 13.6296 23.09C13.0831 22.6667 12.5954 22.1723 12.1796 21.62C11.3601 20.5039 10.8092 19.2138 10.5696 17.85C10.3296 16.51 10.2496 15.19 10.1396 13.85V13.55H10.4296C12.1235 13.3304 13.8332 13.2567 15.5396 13.33C16.4037 13.3978 17.2583 13.5553 18.0896 13.8C18.9504 14.0249 19.785 14.34 20.5796 14.74C21.4379 15.1775 22.1996 15.7828 22.8196 16.52C23.4311 17.2715 23.8683 18.1492 24.0996 19.09C24.5388 20.8492 24.42 22.7014 23.7596 24.39L23.6296 24.75H23.4196C22.059 24.9788 20.678 25.0626 19.2996 25ZM19.2996 24.8C20.6219 24.8254 21.9247 24.4789 23.0596 23.8L22.7196 24.19C22.7086 22.651 22.49 21.1205 22.0696 19.64C21.6438 18.3045 20.7579 17.1635 19.5696 16.42C18.9098 16.0275 18.2172 15.6929 17.4996 15.42C16.7196 15.1 16.0396 14.8 15.2696 14.56C13.72 14.0684 12.0802 13.9283 10.4696 14.15L10.7396 13.82C10.8511 15.0741 11.1899 16.2973 11.7396 17.43C12.267 18.5131 12.8789 19.553 13.5696 20.54C13.9096 21.02 14.2696 21.54 14.6496 21.99C15.0126 22.4746 15.4175 22.9263 15.8596 23.34C16.7946 24.2316 18.0192 24.7569 19.3096 24.82L19.2996 24.8Z" fill="#231F20"/>
<path d="M44.6895 22.07C45.1805 21.0716 45.8729 20.1857 46.7231 19.468C47.5733 18.7504 48.5629 18.2165 49.6295 17.9C52.4598 17.0422 55.4897 17.1088 58.2795 18.09C57.7357 20.2722 56.7107 22.3052 55.2795 24.04C53.7495 25.83 51.8495 28.04 48.3695 27.66C46.7291 27.417 45.1602 26.8235 43.7695 25.92C43.8352 24.5908 44.1472 23.2853 44.6895 22.07Z" fill="#A86F09"/>
<path d="M44.5997 22C45.169 20.7912 45.9362 19.686 46.8697 18.73C47.8733 17.7695 49.1056 17.0811 50.4497 16.73C51.7976 16.4102 53.2017 16.4102 54.5497 16.73C55.8797 17.01 57.1197 17.44 58.3697 17.83L58.6597 17.92L58.5697 18.21C58.1337 19.8554 57.5514 21.4584 56.8297 23C56.4341 23.7722 55.9617 24.5025 55.4197 25.18C54.8854 25.8909 54.2751 26.5414 53.5997 27.12C52.8754 27.7514 52.0273 28.2248 51.1097 28.51C50.1805 28.7925 49.2001 28.8643 48.2397 28.72C46.4472 28.4482 44.7818 27.6312 43.4697 26.38L43.1797 26.12V25.91C43.5125 24.5598 43.9885 23.2491 44.5997 22ZM44.7797 22.08C44.2379 23.3108 44.0542 24.6695 44.2497 26L43.9997 25.49C45.4253 26.0676 46.922 26.451 48.4497 26.63C49.8508 26.746 51.2474 26.3596 52.3897 25.54C53.0133 25.0782 53.5955 24.5629 54.1297 24C54.7197 23.4 55.2597 22.89 55.7697 22.26C56.8248 21.0264 57.5872 19.57 57.9997 18L58.1997 18.37C56.9822 18.0218 55.7118 17.8964 54.4497 18C53.2453 18.0801 52.0486 18.2506 50.8697 18.51C50.3097 18.64 49.7197 18.78 49.1297 18.95C48.5386 19.0993 47.9628 19.3036 47.4097 19.56C46.266 20.0825 45.3372 20.983 44.7797 22.11V22.08Z" fill="#231F20"/>
<path d="M44.6895 39C45.1805 39.9984 45.8729 40.8843 46.7231 41.602C47.5733 42.3196 48.5629 42.8535 49.6295 43.17C52.4576 44.0342 55.4876 43.9747 58.2795 43C57.7427 40.8001 56.7173 38.7494 55.2795 37C53.7495 35.21 51.8495 33 48.3695 33.38C46.7291 33.623 45.1602 34.2165 43.7695 35.12C43.8315 36.4594 44.1436 37.7754 44.6895 39Z" fill="#A86F09"/>
<path d="M44.7805 39C45.3306 40.142 46.2602 41.0575 47.4105 41.59C47.9636 41.8465 48.5394 42.0507 49.1305 42.2C49.7205 42.37 50.3105 42.51 50.8705 42.64C52.0494 42.8994 53.2461 43.0699 54.4505 43.15C55.7089 43.235 56.9724 43.0927 58.1805 42.73L57.9805 43.1C57.5753 41.5282 56.8198 40.0684 55.7705 38.83C55.2553 38.2243 54.7078 37.6468 54.1305 37.1C53.6013 36.5387 53.0223 36.0266 52.4005 35.57C51.2552 34.7567 49.8609 34.3709 48.4605 34.48C46.9308 34.6485 45.4307 35.0218 44.0005 35.59L44.2405 35.13C44.0576 36.4451 44.2446 37.7852 44.7805 39ZM44.6005 39.08C44.0104 37.8481 43.5512 36.5577 43.2305 35.23V35.02L43.5205 34.76C44.8351 33.5125 46.4993 32.6962 48.2905 32.42C49.2509 32.2757 50.2313 32.3475 51.1605 32.63C52.0587 32.9155 52.8891 33.3817 53.6005 34C54.2759 34.5786 54.8861 35.2291 55.4205 35.94C55.9625 36.6175 56.4349 37.3478 56.8305 38.12C57.5527 39.6648 58.135 41.2712 58.5705 42.92L58.6605 43.21L58.3705 43.3C57.1205 43.69 55.8805 44.12 54.5505 44.4C53.2025 44.7198 51.7984 44.7198 50.4505 44.4C49.1063 44.049 47.8741 43.3605 46.8705 42.4C45.9265 41.4224 45.1586 40.2891 44.6005 39.05V39.08Z" fill="#231F20"/>
<path d="M19.49 34.23C18.6347 34.9404 17.6407 35.4646 16.5715 35.7694C15.5023 36.0741 14.3812 36.1527 13.28 36C10.3463 35.6361 7.60603 34.343 5.45996 32.31C6.85246 30.5379 8.6264 29.1023 10.65 28.11C12.78 27.11 15.41 25.86 18.43 27.62C19.8348 28.5045 21.0294 29.6854 21.93 31.08C21.3198 32.2727 20.4923 33.3411 19.49 34.23Z" fill="#A86F09"/>
<path d="M19.55 34.31C18.5459 35.1903 17.3951 35.8876 16.15 36.37C14.8423 36.8466 13.4352 36.9842 12.06 36.77C10.698 36.523 9.41131 35.9653 8.3 35.14C7.25665 34.3353 6.25533 33.4775 5.3 32.57L5 32.37L5.19 32.15C6.25871 30.8208 7.44702 29.5923 8.74 28.48C9.43615 27.9184 10.1944 27.4386 11 27.05C11.7793 26.6317 12.6005 26.2965 13.45 26.05C14.369 25.7702 15.3362 25.685 16.29 25.8C17.2534 25.9276 18.1759 26.2693 18.99 26.8C20.5211 27.7748 21.7124 29.2002 22.4 30.88L22.56 31.23L22.42 31.4C21.5715 32.471 20.6091 33.4467 19.55 34.31ZM19.43 34.16C20.4053 33.2747 21.1151 32.1356 21.48 30.87V31.39C20.4089 30.2836 19.1948 29.3251 17.87 28.54C16.6514 27.8682 15.2335 27.652 13.87 27.93C13.1147 28.0955 12.3753 28.3263 11.66 28.62C10.89 28.92 10.18 29.17 9.46 29.53C7.99597 30.2329 6.7104 31.2586 5.7 32.53V32.1C6.64558 32.9232 7.73338 33.5671 8.91 34C10.0391 34.4225 11.1992 34.7569 12.38 35C12.95 35.11 13.55 35.22 14.16 35.31C14.7583 35.4074 15.3638 35.4543 15.97 35.45C17.2386 35.4374 18.4628 34.981 19.43 34.16Z" fill="#231F20"/>
<path d="M32.8501 47C33.2867 48.0232 33.505 49.1261 33.4913 50.2384C33.4775 51.3507 33.2319 52.448 32.7701 53.46C31.5834 56.1725 29.562 58.4356 27.0001 59.92C25.701 58.0774 24.8361 55.9646 24.4701 53.74C24.1201 51.41 23.6801 48.54 26.2401 46.15C27.4921 45.0564 28.9709 44.2538 30.5701 43.8C31.5179 44.7196 32.2905 45.8039 32.8501 47Z" fill="#A86F09"/>
<path d="M32.9397 47C33.4872 48.2179 33.8253 49.5195 33.9397 50.85C33.9828 51.5465 33.9358 52.2456 33.7997 52.93C33.6654 53.622 33.4437 54.294 33.1397 54.93C32.5004 56.1439 31.5902 57.1943 30.4797 58C29.4093 58.7823 28.2977 59.5067 27.1497 60.17L26.8897 60.33L26.7297 60.08C25.7711 58.6724 24.9379 57.1833 24.2397 55.63C23.9083 54.8284 23.6636 53.9937 23.5097 53.14C23.3195 52.2694 23.2223 51.3811 23.2197 50.49C23.222 49.5271 23.4193 48.5746 23.7997 47.69C24.1961 46.8057 24.7835 46.0202 25.5197 45.39C26.8936 44.2048 28.603 43.4777 30.4097 43.31H30.7897L30.9097 43.48C31.7071 44.5794 32.3875 45.7592 32.9397 47ZM32.7497 47.08C32.1884 45.8881 31.3052 44.8767 30.1997 44.16L30.7097 44.28C29.3385 44.9798 28.07 45.8647 26.9397 46.91C25.935 47.8919 25.3143 49.2007 25.1897 50.6C25.1201 51.3684 25.1201 52.1416 25.1897 52.91C25.2281 53.7037 25.3082 54.4948 25.4297 55.28C25.6844 56.8852 26.2961 58.4127 27.2197 59.75L26.8097 59.66C27.875 58.9818 28.8071 58.1141 29.5597 57.1C30.3044 56.1543 30.9732 55.1512 31.5597 54.1C31.8297 53.59 32.1097 53.04 32.3697 52.49C32.6395 51.9439 32.8604 51.375 33.0297 50.79C33.3806 49.5594 33.2813 48.244 32.7497 47.08Z" fill="#231F20"/>
<path d="M26.3604 18.44C25.4224 17.8415 24.6194 17.0539 24.003 16.1276C23.3866 15.2012 22.9702 14.1564 22.7804 13.06C22.2659 10.1463 22.6933 7.14441 24.0004 4.49001C26.1073 5.28693 28.0077 6.54813 29.5604 8.18001C31.1604 9.91001 33.1404 12.04 32.3604 15.46C31.942 17.0648 31.1736 18.5572 30.1104 19.83C28.7835 19.6088 27.5109 19.1371 26.3604 18.44Z" fill="#A86F09"/>
<path d="M26.3003 18.53C25.1597 17.8281 24.1455 16.939 23.3003 15.9C22.8726 15.3489 22.5195 14.7436 22.2503 14.1C21.979 13.46 21.7908 12.7878 21.6903 12.1C21.5183 10.7169 21.6724 9.31282 22.1403 8C22.5905 6.75437 23.1045 5.53275 23.6803 4.34L23.8003 4.06L24.0703 4.18C25.6604 4.79827 27.1901 5.56148 28.6403 6.46C29.3649 6.93577 30.0355 7.48903 30.6403 8.11C31.2811 8.71555 31.8575 9.38579 32.3603 10.11C32.9 10.9027 33.271 11.7979 33.4503 12.74C33.6267 13.6969 33.5857 14.6811 33.3303 15.62C32.8528 17.3682 31.8512 18.9282 30.4603 20.09L30.1703 20.34L29.9703 20.27C28.6918 19.8143 27.4623 19.2314 26.3003 18.53ZM26.4103 18.36C27.5446 19.0317 28.8422 19.3777 30.1603 19.36L29.6703 19.54C30.4114 18.1921 30.9632 16.7485 31.3103 15.25C31.5853 13.8853 31.3656 12.4674 30.6903 11.25C30.3065 10.5794 29.8648 9.9437 29.3703 9.35C28.8503 8.7 28.3703 8.1 27.8403 7.52C26.7245 6.33836 25.3576 5.42248 23.8403 4.84L24.2403 4.68C23.7402 5.83878 23.4555 7.07907 23.4003 8.34C23.3345 9.54381 23.3646 10.751 23.4903 11.95C23.5503 12.52 23.6303 13.13 23.7303 13.74C23.8098 14.3409 23.9436 14.9333 24.1303 15.51C24.5402 16.6938 25.3454 17.7003 26.4103 18.36Z" fill="#231F20"/>
<path d="M46.7728 38.207C50.0382 30.3238 46.2946 21.286 38.4114 18.0206C30.5281 14.7553 21.4903 18.4988 18.225 26.3821C14.9596 34.2654 18.7032 43.3032 26.5864 46.5685C34.4697 49.8339 43.5075 46.0903 46.7728 38.207Z" fill="#8B5E3C"/>
<path d="M48.0503 32.3C48.0855 36.4721 46.5995 40.5142 43.8703 43.67C42.4504 45.272 40.6963 46.5428 38.7318 47.3929C36.7672 48.243 34.64 48.6517 32.5003 48.59C30.3774 48.5038 28.2931 47.9938 26.3703 47.09C23.5466 45.7409 21.1392 43.6549 19.4021 41.0518C17.665 38.4488 16.6625 35.4252 16.5003 32.3C16.404 30.1693 16.7457 28.0414 17.5042 26.048C18.2627 24.0545 19.4219 22.2378 20.9103 20.71C22.4134 19.1582 24.2076 17.9179 26.1903 17.06C28.1803 16.202 30.3266 15.7662 32.4937 15.7799C34.6607 15.7937 36.8013 16.2568 38.7803 17.14C40.7396 18.0065 42.4842 19.2936 43.8903 20.91C46.6193 24.0725 48.0987 28.1231 48.0503 32.3ZM47.8503 32.3C47.8309 30.3121 47.3883 28.3511 46.5521 26.5475C45.7158 24.744 44.505 23.1392 43.0003 21.84C40.0921 19.301 36.3609 17.9044 32.5003 17.91C28.683 17.9106 25.0111 19.3744 22.2403 22C19.4402 24.7194 17.778 28.4012 17.5903 32.3C17.5076 34.2738 17.8274 36.2438 18.5303 38.09C19.2592 39.9403 20.3739 41.6142 21.8003 43C23.2289 44.3388 24.9127 45.3759 26.7512 46.0495C28.5896 46.723 30.5449 47.019 32.5003 46.92C36.3712 46.7925 40.0798 45.3338 43.0003 42.79C44.4794 41.4821 45.6858 39.8951 46.5503 38.12C47.4143 36.3019 47.8586 34.3129 47.8503 32.3Z" fill="#231F20"/>
<path d="M43.7978 36.9748C46.3827 30.7345 43.4193 23.5804 37.179 20.9955C30.9387 18.4107 23.7846 21.3741 21.1997 27.6144C18.6149 33.8547 21.5783 41.0088 27.8186 43.5936C34.0589 46.1785 41.213 43.2151 43.7978 36.9748Z" fill="#3C2415"/>
<path d="M44.7803 32.3C44.809 35.5831 43.5943 38.7556 41.3803 41.18C40.2503 42.4067 38.8771 43.3845 37.3481 44.0508C35.8192 44.7172 34.1681 45.0574 32.5003 45.05C30.8237 45.0595 29.1624 44.7304 27.6159 44.0826C26.0694 43.4349 24.6696 42.4816 23.5003 41.28C22.335 40.0957 21.4215 38.6878 20.8148 37.141C20.2082 35.5943 19.9209 33.9407 19.9703 32.28C20.0731 28.9911 21.408 25.8609 23.7103 23.51C24.8639 22.3457 26.2192 21.4004 27.7103 20.72C29.2194 20.0298 30.8553 19.6601 32.5146 19.6343C34.1738 19.6085 35.8204 19.9271 37.3503 20.57C38.8698 21.2226 40.2332 22.1906 41.3503 23.41C43.5699 25.8372 44.7944 29.011 44.7803 32.3ZM44.6803 32.3C44.6711 30.7121 44.3332 29.1433 43.6878 27.6924C43.0424 26.2416 42.1035 24.9401 40.9303 23.87C38.6224 21.7582 35.6277 20.5539 32.5003 20.48C30.9358 20.4352 29.3782 20.7031 27.9186 21.268C26.459 21.833 25.1269 22.6836 24.0003 23.77C22.8712 24.8783 21.9835 26.2083 21.3933 27.6763C20.803 29.1443 20.5228 30.7185 20.5703 32.3C20.6482 35.4182 21.9373 38.3836 24.1643 40.5676C26.3912 42.7517 29.3811 43.9828 32.5003 44C35.6194 43.9837 38.6207 42.8073 40.9203 40.7C42.0911 39.6338 43.0294 38.3375 43.6764 36.8921C44.3233 35.4468 44.6651 33.8835 44.6803 32.3Z" fill="#231F20"/>
<path d="M32.02 28.89C32.6054 28.89 33.08 28.4154 33.08 27.83C33.08 27.2446 32.6054 26.77 32.02 26.77C31.4345 26.77 30.96 27.2446 30.96 27.83C30.96 28.4154 31.4345 28.89 32.02 28.89Z" fill="#3A331A"/>
<path d="M33.7103 31.23C34.2018 31.23 34.6003 30.8315 34.6003 30.34C34.6003 29.8485 34.2018 29.45 33.7103 29.45C33.2188 29.45 32.8203 29.8485 32.8203 30.34C32.8203 30.8315 33.2188 31.23 33.7103 31.23Z" fill="#3A331A"/>
<path d="M34.6 29.25C35.1855 29.25 35.66 28.7754 35.66 28.19C35.66 27.6046 35.1855 27.13 34.6 27.13C34.0146 27.13 33.54 27.6046 33.54 28.19C33.54 28.7754 34.0146 29.25 34.6 29.25Z" fill="#3A331A"/>
<path d="M30.6703 33.01C31.1618 33.01 31.5603 32.6115 31.5603 32.12C31.5603 31.6285 31.1618 31.23 30.6703 31.23C30.1787 31.23 29.7803 31.6285 29.7803 32.12C29.7803 32.6115 30.1787 33.01 30.6703 33.01Z" fill="#3A331A"/>
<path d="M34.8198 36.07C35.4052 36.07 35.8798 35.5954 35.8798 35.01C35.8798 34.4246 35.4052 33.95 34.8198 33.95C34.2343 33.95 33.7598 34.4246 33.7598 35.01C33.7598 35.5954 34.2343 36.07 34.8198 36.07Z" fill="#3A331A"/>
<path d="M36.5004 33.69C37.0859 33.69 37.5604 33.2154 37.5604 32.63C37.5604 32.0446 37.0859 31.57 36.5004 31.57C35.915 31.57 35.4404 32.0446 35.4404 32.63C35.4404 33.2154 35.915 33.69 36.5004 33.69Z" fill="#3A331A"/>
<path d="M29.3403 29.95C29.9257 29.95 30.4003 29.4754 30.4003 28.89C30.4003 28.3046 29.9257 27.83 29.3403 27.83C28.7549 27.83 28.2803 28.3046 28.2803 28.89C28.2803 29.4754 28.7549 29.95 29.3403 29.95Z" fill="#3A331A"/>
<path d="M28.2797 32.54C28.8651 32.54 29.3397 32.0654 29.3397 31.48C29.3397 30.8946 28.8651 30.42 28.2797 30.42C27.6943 30.42 27.2197 30.8946 27.2197 31.48C27.2197 32.0654 27.6943 32.54 28.2797 32.54Z" fill="#3A331A"/>
<path d="M31.3998 31.01C31.8913 31.01 32.2898 30.6115 32.2898 30.12C32.2898 29.6285 31.8913 29.23 31.3998 29.23C30.9082 29.23 30.5098 29.6285 30.5098 30.12C30.5098 30.6115 30.9082 31.01 31.3998 31.01Z" fill="#3A331A"/>
<path d="M32.2602 36.97C32.8456 36.97 33.3202 36.4954 33.3202 35.91C33.3202 35.3246 32.8456 34.85 32.2602 34.85C31.6748 34.85 31.2002 35.3246 31.2002 35.91C31.2002 36.4954 31.6748 36.97 32.2602 36.97Z" fill="#3A331A"/>
<path d="M29.1899 35.7C29.7753 35.7 30.2499 35.2254 30.2499 34.64C30.2499 34.0546 29.7753 33.58 29.1899 33.58C28.6045 33.58 28.1299 34.0546 28.1299 34.64C28.1299 35.2254 28.6045 35.7 29.1899 35.7Z" fill="#3A331A"/>
<path d="M36.5004 31.06C37.0859 31.06 37.5604 30.5854 37.5604 30C37.5604 29.4146 37.0859 28.94 36.5004 28.94C35.915 28.94 35.4404 29.4146 35.4404 30C35.4404 30.5854 35.915 31.06 36.5004 31.06Z" fill="#3A331A"/>
<path d="M32.2904 34.41C32.7819 34.41 33.1804 34.0115 33.1804 33.52C33.1804 33.0285 32.7819 32.63 32.2904 32.63C31.7989 32.63 31.4004 33.0285 31.4004 33.52C31.4004 34.0115 31.7989 34.41 32.2904 34.41Z" fill="#3A331A"/>
<path d="M34.3099 33.27C34.8015 33.27 35.1999 32.8715 35.1999 32.38C35.1999 31.8885 34.8015 31.49 34.3099 31.49C33.8184 31.49 33.4199 31.8885 33.4199 32.38C33.4199 32.8715 33.8184 33.27 34.3099 33.27Z" fill="#3A331A"/>
<path d="M32.4995 31.96C32.7646 31.96 32.9795 31.7451 32.9795 31.48C32.9795 31.2149 32.7646 31 32.4995 31C32.2344 31 32.0195 31.2149 32.0195 31.48C32.0195 31.7451 32.2344 31.96 32.4995 31.96Z" fill="#3A331A"/>
<path d="M29.9302 31.12C30.1953 31.12 30.4102 30.9051 30.4102 30.64C30.4102 30.3749 30.1953 30.16 29.9302 30.16C29.6651 30.16 29.4502 30.3749 29.4502 30.64C29.4502 30.9051 29.6651 31.12 29.9302 31.12Z" fill="#3A331A"/>
<path d="M30.6704 34.18C30.9355 34.18 31.1504 33.9651 31.1504 33.7C31.1504 33.4349 30.9355 33.22 30.6704 33.22C30.4053 33.22 30.1904 33.4349 30.1904 33.7C30.1904 33.9651 30.4053 34.18 30.6704 34.18Z" fill="#3A331A"/>
<path d="M35.0796 31.49C35.3447 31.49 35.5596 31.2751 35.5596 31.01C35.5596 30.7449 35.3447 30.53 35.0796 30.53C34.8145 30.53 34.5996 30.7449 34.5996 31.01C34.5996 31.2751 34.8145 31.49 35.0796 31.49Z" fill="#3A331A"/>
<path d="M30.0699 90.71C27.8438 91.2107 25.5324 91.1925 23.3145 90.6566C21.0966 90.1208 19.0318 89.0818 17.2799 87.62C14.9293 85.5182 13.2742 82.7507 12.5347 79.6854C11.7952 76.6201 12.0063 73.4024 13.1399 70.46C17.6183 70.9721 21.7688 73.0598 24.8499 76.35C26.6273 78.2788 28.004 80.5414 28.9 83.0065C29.7961 85.4716 30.1938 88.09 30.0699 90.71Z" fill="#3E9581"/>
<path d="M30.13 90.76C27.4616 91.6474 24.585 91.6927 21.89 90.89C19.1458 90.1101 16.7415 88.4345 15.06 86.13C13.4667 83.8469 12.4385 81.2181 12.06 78.46C11.6261 75.719 11.8384 72.9145 12.68 70.27L12.79 69.94H13.19C15.7006 70.0935 18.1507 70.775 20.38 71.94C21.5002 72.5236 22.5617 73.2134 23.55 74C24.5271 74.7988 25.4185 75.697 26.21 76.68C27.7875 78.6429 28.9509 80.9051 29.63 83.33C30.321 85.7433 30.4915 88.2759 30.13 90.76ZM30.02 90.66C29.883 88.289 29.3873 85.9525 28.55 83.73C27.7329 81.5348 26.5308 79.5029 25 77.73C23.4943 75.9532 21.6949 74.448 19.68 73.28C17.6324 72.143 15.4024 71.3714 13.09 71L13.6 70.69C12.4793 73.109 12.1033 75.8067 12.52 78.44C12.9832 81.0532 14.1797 83.4808 15.97 85.44C17.6667 87.3946 19.8256 88.8934 22.25 89.8C24.7398 90.6479 27.3848 90.9414 30 90.66H30.02Z" fill="#231F20"/>
<path d="M30.0896 90.84C29.3596 90.31 28.5196 89.68 27.6196 88.96C25.2023 87.0287 22.9419 84.9087 20.8596 82.62C17.7007 78.9696 15.0992 74.8719 13.1396 70.46C17.2699 70.8948 21.139 72.6887 24.1396 75.56C26.132 77.5585 27.6892 79.9478 28.7132 82.5775C29.7372 85.2072 30.2058 88.0204 30.0896 90.84Z" fill="#1E6F5D"/>
<path d="M30.12 90.91C29.3 90.39 28.17 89.79 27.18 89.1C26.19 88.41 25.37 87.76 24.49 87.1C22.7388 85.6588 21.1313 84.0512 19.69 82.3C18.3105 80.4765 17.0767 78.5472 16 76.53C14.89 74.53 13.82 72.6 12.78 70.6L12.5 70.07H13.14C15.6657 70.1952 18.1364 70.8529 20.39 72C22.6567 73.152 24.6591 74.7628 26.27 76.73C26.6744 77.2176 27.0453 77.7321 27.38 78.27C27.74 78.79 28.02 79.36 28.33 79.92C28.8759 81.052 29.321 82.2299 29.66 83.44C29.9838 84.6479 30.1947 85.8832 30.29 87.13C30.3251 87.7462 30.3251 88.3638 30.29 88.98C30.29 89.29 30.29 89.6 30.29 89.91C30.272 90.2488 30.2149 90.5843 30.12 90.91ZM30.06 90.77C29.9892 90.4953 29.9489 90.2136 29.94 89.93C29.94 89.63 29.87 89.33 29.83 89.03C29.75 88.43 29.63 87.84 29.52 87.25C29.2596 86.0899 28.9256 84.9476 28.52 83.83C27.7063 81.6215 26.5153 79.571 25 77.77C23.5371 75.9421 21.7465 74.4025 19.72 73.23C18.7011 72.6339 17.63 72.1319 16.52 71.73C15.4092 71.3023 14.256 70.9939 13.08 70.81L13.44 70.31C14.2207 72.3902 15.2266 74.3787 16.44 76.24C17.7078 78.0616 19.1012 79.7924 20.61 81.42C22.0767 83.06 23.6067 84.6533 25.2 86.2L30.06 90.77Z" fill="#231F20"/>
</g>
<defs>
<clipPath id="clip0">
<rect width="65.42" height="115.11" fill="white"/>
</clipPath>
</defs>
</svg>
