<svg width="489" height="409" viewBox="0 0 489 409" fill="none" xmlns="http://www.w3.org/2000/svg">
<path d="M480.279 383.6C485.916 389.1 488.344 398.5 486.262 406.6L404.05 406.4C406.652 399.8 406.479 384.6 401.189 381.2C396.072 378 390.002 377.8 384.104 377.8V375C384.451 357.8 384.625 340.5 384.798 323.3H387.053C400.235 318.4 416.885 322.4 423.736 336.3C427.899 344.8 427.812 355.1 427.552 364.9C434.143 357.5 442.902 349.6 451.487 353.2C460.246 356.8 462.501 370.5 459.552 380.5C466.23 376.9 474.729 378.1 480.279 383.6Z" fill="#1B911B"/>
<path d="M385.146 208.7C380.029 204.6 375.433 199.4 370.923 194.3C335.02 153.6 299.118 113 263.215 72.2999C260.267 68.9999 257.231 65.5999 253.329 64.0999C243.529 60.3999 234.077 70.1999 227.052 78.7999C191.236 122.9 150.911 161.7 110.759 200.5C109.111 202.1 107.376 203.7 105.469 205.2C96.9698 212 86.5633 216.9 78.845 209.9C72.7745 204.4 72.0808 193.5 75.2895 185.4C78.4982 177.2 84.5687 171.2 90.4657 165.3L101.132 158.8C140.331 119.2 177.014 76.3999 211.009 30.7999C217.079 22.6999 223.15 14.2999 231.041 8.5999C238.933 2.8999 249.079 0.299898 257.578 4.4999C263.562 7.3999 268.071 13.2999 272.321 18.8999C291.139 43.2999 310.738 66.6999 331.205 89.1999C342.479 101.6 354.013 113.7 365.72 125.5C379.248 139.1 393.124 152.3 407.346 165.1C417.579 174.3 429.113 187.2 425.558 201.5C422.523 213.8 408.907 219.2 398.154 215.9C393.471 214.5 389.135 211.9 385.146 208.7Z" fill="#C12506"/>
<path d="M401.189 381.2C406.566 384.6 406.653 399.8 404.051 406.4L229.047 406V403.4C233.383 397.6 229.394 385.5 224.017 379.3L227.573 379.1C279.432 378.7 331.292 378.3 383.151 377.9C383.498 377.9 383.845 377.9 384.192 377.9C390.002 377.8 396.073 378 401.189 381.2Z" fill="#A33C1D"/>
<path d="M385.145 208.7C385.319 246.9 385.232 285.1 384.885 323.3C384.712 340.6 384.452 357.8 384.191 375V377.8C383.845 377.8 383.498 377.8 383.151 377.8C331.291 378.2 279.432 378.6 227.572 379L224.017 379.2C223.149 378.2 222.195 377.3 221.328 376.7C219.16 375.1 216.732 374.1 214.217 373.4L214.477 372.3C213.957 351.6 213.523 330.9 213.003 310.1C212.569 290 212.049 269.8 215.518 250.1V249.3H217.773C220.461 249.3 222.889 248 224.71 246C226.445 244 227.572 241.1 227.572 238C227.572 231.8 223.149 226.7 217.773 226.7H143.192C140.504 226.7 138.076 228 136.254 230C134.52 232 133.393 234.9 133.393 238C133.393 244.2 137.815 249.3 143.192 249.3H143.799V249.9C145.967 290.6 146.574 331.4 145.534 372.2V373.7C143.973 373.8 142.325 373.8 140.764 373.8C138.249 373.9 135.387 374.2 134.086 376.6C133.219 378.1 133.306 380.1 133.393 381.9C125.327 383.6 118.13 381.2 109.978 380.6C109.891 380.6 109.804 380.6 109.804 380.6V380.4C110.411 363.2 110.845 346 110.932 328.8C111.192 287.7 110.065 246.6 107.55 205.6L105.468 205.2C107.376 203.7 109.111 202.1 110.758 200.5C150.91 161.7 191.236 122.9 227.052 78.8001C234.076 70.1001 243.529 60.4001 253.329 64.1001C257.231 65.6001 260.353 69.0001 263.215 72.3001C299.118 113 335.02 153.6 370.923 194.3C375.432 199.4 380.029 204.5 385.145 208.7ZM363.205 341.6C363.205 336.7 359.736 332.7 355.487 332.7H349.85V255.2C349.85 246.2 343.432 238.8 335.627 238.8H302.326H269.025C261.22 238.8 254.803 246.2 254.803 255.2L255.15 332.7H249.166C247.085 332.7 245.09 333.7 243.702 335.3C242.315 336.9 241.448 339.1 241.448 341.6C241.448 346.5 244.917 350.5 249.166 350.5H355.573C357.655 350.5 359.649 349.5 361.037 347.9C362.338 346.2 363.205 344 363.205 341.6ZM281.513 151.4C281.513 127 265.123 107.2 245.003 107.2C224.884 107.2 208.493 127 208.493 151.4C208.493 175.8 224.884 195.6 245.003 195.6C265.123 195.6 281.513 175.8 281.513 151.4Z" fill="#F2D688"/>
<path d="M377.341 25.4C379.856 27.6 380.463 31.7 380.463 35.4C380.463 39.3 379.943 43.1 378.902 46.8C378.468 48.3 378.035 49.7 377.167 50.8C375.433 53 372.484 53.3 369.883 53.5C368.842 53.6 367.802 53.6 366.761 53.7C357.048 54.2 347.248 54.3 337.536 54C335.368 53.9 333.113 53.8 330.945 53.2C328.17 52.5 325.655 51.2 324.007 48.7C321.666 45.3 321.579 40.6 321.492 36.3C321.492 33.3 321.579 29.9 323.313 27.7C324.527 26.1 326.435 25.4 328.17 24.8C334.154 22.9 340.484 22.2 346.641 22.8L348.376 22.9C356.268 21.7 364.333 21.8 372.224 23.4C374.045 23.7 375.867 24.2 377.341 25.4Z" fill="#C12506"/>
<path d="M366.76 54.0002C366.847 77.2002 367.021 100.4 367.107 123.7L365.72 125.6C353.926 113.8 342.478 101.7 331.205 89.3002L332.159 88.2002C331.725 77.3002 331.205 66.4002 330.771 55.4002L330.944 53.2002C333.112 53.7002 335.367 53.9002 337.535 54.0002C347.248 54.3002 357.048 54.2002 366.76 53.7002V54.0002Z" fill="#AF7689"/>
<path d="M355.487 332.7C359.736 332.7 363.205 336.7 363.205 341.6C363.205 344 362.338 346.3 360.95 347.9C359.563 349.5 357.655 350.5 355.487 350.5H249.08C244.83 350.5 241.361 346.5 241.361 341.6C241.361 339.2 242.229 336.9 243.616 335.3C245.004 333.7 246.912 332.7 249.08 332.7H255.063H349.85H355.487Z" fill="#CCBC93"/>
<path d="M349.85 255.2V332.7H255.063L254.716 255.2C254.716 246.2 261.134 238.8 268.939 238.8H302.24H335.541C343.432 238.8 349.85 246.2 349.85 255.2Z" fill="#9AE8E4"/>
<path d="M244.917 107.2C265.123 107.2 281.427 127 281.427 151.4C281.427 175.8 265.036 195.6 244.917 195.6C224.798 195.6 208.407 175.8 208.407 151.4C208.407 127 224.798 107.2 244.917 107.2ZM271.974 151.4C271.974 134.2 259.833 120.2 244.917 120.2C230.001 120.2 217.86 134.1 217.86 151.4C217.86 168.7 230.001 182.6 244.917 182.6C259.833 182.6 271.974 168.6 271.974 151.4Z" fill="#AF7689"/>
<path d="M244.917 120.3C259.833 120.3 271.974 134.2 271.974 151.5C271.974 168.8 259.833 182.7 244.917 182.7C230.001 182.7 217.86 168.8 217.86 151.5C217.86 134.2 230.001 120.3 244.917 120.3Z" fill="#9AE8E4"/>
<path d="M224.017 379.2C229.393 385.4 233.383 397.6 229.047 403.3V405.9L134.347 405.6V403.3C134.086 397.5 133.653 387.8 133.393 382C133.306 380.2 133.219 378.2 134.086 376.7C135.387 374.3 138.336 374 140.764 373.9C142.325 373.9 143.973 373.8 145.534 373.8C152.298 373.6 159.062 373.4 165.826 373.2C176.84 372.9 187.854 372.6 198.781 372.3C203.897 372.1 209.187 372.1 214.13 373.4C216.645 374.1 218.987 375.1 221.242 376.7C222.196 377.3 223.149 378.2 224.017 379.2Z" fill="#CCBC93"/>
<path d="M217.773 226.8C223.15 226.8 227.573 231.9 227.573 238.1C227.573 241.2 226.445 244 224.711 246.1C222.976 248.1 220.462 249.4 217.773 249.4H215.518H143.8H143.193C137.816 249.4 133.393 244.3 133.393 238.1C133.393 235 134.52 232.2 136.255 230.1C137.989 228.1 140.504 226.8 143.193 226.8H217.773Z" fill="#CCBC93"/>
<path d="M215.518 249.4V250.2C212.136 269.9 212.569 290.1 213.003 310.2C213.523 330.9 213.957 351.6 214.477 372.4L214.217 373.5C209.274 372.2 203.984 372.2 198.867 372.4C187.854 372.7 176.84 373 165.913 373.3C159.149 373.5 152.384 373.7 145.62 373.9V372.4C146.661 331.6 146.054 290.8 143.886 250.1V249.5H215.518V249.4ZM163.051 307.5C165.393 306.4 165.479 302.8 165.133 300C164.872 297.9 162.357 295.6 160.536 295.3C158.975 295.3 157.674 296.7 157.154 298.4C156.721 300.1 156.981 302 157.588 303.6C158.542 306.1 160.883 308.5 163.051 307.5Z" fill="#A33C1D"/>
<path d="M165.133 299.9C165.48 302.7 165.393 306.4 163.052 307.4C160.884 308.4 158.542 306 157.675 303.5C157.068 301.9 156.808 300 157.241 298.3C157.675 296.6 159.062 295.2 160.623 295.2C162.358 295.5 164.873 297.8 165.133 299.9Z" fill="black"/>
<path d="M134.347 403.4V405.7L86.1296 405.6V403.4C84.3084 393.8 90.2055 383.1 98.444 380.9C102.086 379.9 105.989 380.4 109.718 380.7C109.805 380.7 109.891 380.7 109.891 380.7C118.043 381.3 125.241 383.7 133.306 382C133.653 387.9 134.087 397.5 134.347 403.4Z" fill="#A33C1D"/>
<path d="M107.637 328.9H110.845C110.759 346.1 110.325 363.3 109.718 380.5V380.7C105.902 380.4 102.087 379.9 98.4443 380.9C90.119 383.1 84.3087 393.8 86.1298 403.4V405.6L11.9829 405.4C5.99908 405.3 1.83645 397.3 3.13727 390.6C4.43809 383.9 9.81483 379.1 15.5385 377.1C21.2621 375.2 27.3326 375.7 33.3164 376.2C27.2459 372.4 25.8583 362 29.8475 355.5C33.75 349 41.6416 346.6 48.3192 348.7C54.9968 350.8 60.3735 356.7 63.8424 363.6C60.2001 350.6 64.7963 335 74.5958 327.3C84.3087 319.5 98.4443 320.2 107.637 328.9Z" fill="#1B911B"/>
<path d="M105.469 205.299C96.9698 212.099 86.5633 217 78.845 210C72.7745 204.5 72.0808 193.6 75.2895 185.5C78.4982 177.3 84.5687 171.3 90.4657 165.4L101.132 158.9C140.331 119.3 177.014 76.4995 211.009 30.8995C217.079 22.7995 223.15 14.3995 231.041 8.69951C238.933 2.99951 249.079 0.399508 257.578 4.59951C263.562 7.49951 268.071 13.3995 272.321 18.9995C291.139 43.3995 310.738 66.7995 331.205 89.2995C342.479 101.7 354.013 113.8 365.72 125.6C379.248 139.2 393.124 152.4 407.346 165.2C417.579 174.4 429.113 187.3 425.558 201.6C422.523 213.9 408.907 219.3 398.154 216C393.471 214.6 389.135 212 385.146 208.7C380.029 204.6 375.433 199.399 370.923 194.299C335.02 153.599 299.118 113 263.215 72.2995C260.267 68.9995 257.231 65.5995 253.329 64.0995C243.529 60.3995 234.077 70.1995 227.052 78.7995C191.236 122.9 150.911 161.7 110.759 200.5C109.111 202.2 107.29 203.799 105.469 205.299Z" stroke="black" stroke-width="4" stroke-miterlimit="10" stroke-linecap="round" stroke-linejoin="round"/>
<path d="M134.347 403.4C134.086 397.6 133.653 387.9 133.393 382.1C133.306 380.3 133.219 378.3 134.086 376.8C135.387 374.4 138.336 374.1 140.764 374C142.325 374 143.973 373.9 145.534 373.9C152.298 373.7 159.062 373.5 165.826 373.3C176.84 373 187.854 372.7 198.781 372.4C203.897 372.2 209.187 372.2 214.13 373.5C216.645 374.2 218.987 375.2 221.242 376.8C222.196 377.5 223.063 378.3 223.93 379.3C229.307 385.5 233.296 397.7 228.96 403.4" stroke="black" stroke-width="4" stroke-miterlimit="10" stroke-linecap="round" stroke-linejoin="round"/>
<path d="M227.485 379.099C279.345 378.699 331.204 378.299 383.064 377.899C383.411 377.899 383.758 377.899 384.105 377.899C390.002 377.899 395.985 378.099 401.189 381.299C406.565 384.699 406.652 399.899 404.05 406.499C404.05 406.599 403.964 406.699 403.964 406.699" stroke="black" stroke-width="4" stroke-miterlimit="10" stroke-linecap="round" stroke-linejoin="round"/>
<path d="M133.393 381.999C125.327 383.699 118.13 381.299 109.978 380.699C109.891 380.699 109.804 380.699 109.804 380.699C105.989 380.399 102.173 379.899 98.5305 380.899C90.2053 383.099 84.3949 393.799 86.2161 403.399" stroke="black" stroke-width="4" stroke-miterlimit="10" stroke-linecap="round" stroke-linejoin="round"/>
<path d="M107.463 205.699C110.065 246.699 111.192 287.799 110.845 328.899C110.758 346.099 110.325 363.299 109.718 380.499" stroke="black" stroke-width="4" stroke-miterlimit="10" stroke-linecap="round" stroke-linejoin="round"/>
<path d="M385.145 208.399C385.145 208.499 385.145 208.599 385.145 208.699C385.319 246.899 385.232 285.099 384.885 323.299C384.712 340.599 384.452 357.799 384.191 374.999" stroke="black" stroke-width="4" stroke-miterlimit="10" stroke-linecap="round" stroke-linejoin="round"/>
<path d="M330.771 55.3994C331.205 66.2994 331.725 77.2994 332.159 88.1994" stroke="black" stroke-width="4" stroke-miterlimit="10" stroke-linecap="round" stroke-linejoin="round"/>
<path d="M366.76 54C366.847 77.2 367.02 100.4 367.107 123.7" stroke="black" stroke-width="4" stroke-miterlimit="10" stroke-linecap="round" stroke-linejoin="round"/>
<path d="M107.636 328.899C98.4439 320.199 84.2215 319.499 74.422 327.199C64.6225 334.899 60.0262 350.399 63.6685 363.499C60.1997 356.599 54.8229 350.699 48.1454 348.599C41.4678 346.499 33.5762 348.899 29.6737 355.399C25.7712 361.899 27.1588 372.299 33.1425 376.099C27.2455 375.599 21.0882 375.099 15.3646 376.999C9.641 378.899 4.26427 383.799 2.96344 390.499C1.66262 397.199 5.82525 405.199 11.809 405.299L85.956 405.499L134.173 405.599L228.873 405.899L403.964 406.399L486.176 406.599C488.257 398.499 485.742 388.999 480.192 383.599C474.555 378.099 466.143 376.899 459.466 380.599C462.501 370.499 460.159 356.899 451.401 353.299C442.728 349.699 434.056 357.699 427.465 364.999C427.726 355.199 427.899 344.899 423.65 336.399C416.799 322.499 400.148 318.499 386.966 323.399" stroke="black" stroke-width="4" stroke-miterlimit="10" stroke-linecap="round" stroke-linejoin="round"/>
<path d="M349.85 332.699H355.486C359.736 332.699 363.205 336.699 363.205 341.599C363.205 343.999 362.337 346.299 360.95 347.899C359.562 349.499 357.654 350.499 355.486 350.499H249.079C244.83 350.499 241.361 346.499 241.361 341.599C241.361 339.199 242.228 336.899 243.616 335.299C245.003 333.699 246.911 332.699 249.079 332.699H255.063H349.85Z" stroke="black" stroke-width="4" stroke-miterlimit="10" stroke-linecap="round" stroke-linejoin="round"/>
<path d="M255.063 332.7L254.716 255.2C254.716 246.2 261.133 238.8 268.938 238.8H302.239H335.54C343.345 238.8 349.763 246.2 349.763 255.2V332.7" stroke="black" stroke-width="4" stroke-miterlimit="10" stroke-linecap="round" stroke-linejoin="round"/>
<path d="M143.799 249.4H143.192C137.815 249.4 133.393 244.3 133.393 238.1C133.393 235 134.52 232.2 136.254 230.1C137.989 228.1 140.504 226.8 143.192 226.8H217.773C223.149 226.8 227.572 231.9 227.572 238.1C227.572 241.2 226.445 244 224.71 246.1C222.976 248.1 220.461 249.4 217.773 249.4H215.518H143.799Z" stroke="black" stroke-width="4" stroke-miterlimit="10" stroke-linecap="round" stroke-linejoin="round"/>
<path d="M143.799 250C145.967 290.7 146.574 331.5 145.534 372.3" stroke="black" stroke-width="4" stroke-miterlimit="10" stroke-linecap="round" stroke-linejoin="round"/>
<path d="M215.518 250.199C212.136 269.899 212.569 290.099 213.003 310.199C213.523 330.899 213.957 351.599 214.477 372.399" stroke="black" stroke-width="4" stroke-miterlimit="10" stroke-linecap="round" stroke-linejoin="round"/>
<path d="M160.536 295.199C158.975 295.199 157.675 296.599 157.154 298.299C156.721 299.999 156.981 301.899 157.588 303.499C158.542 305.999 160.797 308.399 162.965 307.399C165.306 306.299 165.393 302.699 165.046 299.899C164.872 297.799 162.358 295.499 160.536 295.199Z" stroke="black" stroke-width="4" stroke-miterlimit="10" stroke-linecap="round" stroke-linejoin="round"/>
<path d="M281.513 151.399C281.513 175.799 265.123 195.599 245.003 195.599C224.884 195.599 208.494 175.799 208.494 151.399C208.494 126.999 224.884 107.199 245.003 107.199C265.123 107.199 281.513 126.999 281.513 151.399Z" stroke="black" stroke-width="4" stroke-miterlimit="10" stroke-linecap="round" stroke-linejoin="round"/>
<path d="M271.974 151.399C271.974 168.599 259.833 182.599 244.917 182.599C230 182.599 217.859 168.699 217.859 151.399C217.859 134.099 230 120.199 244.917 120.199C259.833 120.299 271.974 134.199 271.974 151.399Z" stroke="black" stroke-width="4" stroke-miterlimit="10" stroke-linecap="round" stroke-linejoin="round"/>
<path d="M346.641 22.7994C340.397 22.1994 334.153 22.8994 328.169 24.7994C326.348 25.3994 324.527 26.0994 323.313 27.6994C321.578 29.9994 321.492 33.2994 321.492 36.2994C321.578 40.5994 321.665 45.2994 324.007 48.6994C325.741 51.1994 328.256 52.4994 330.944 53.1994C333.112 53.6994 335.367 53.8994 337.535 53.9994C347.248 54.2994 357.048 54.1994 366.76 53.6994C367.801 53.6994 368.842 53.5994 369.882 53.4994C372.484 53.2994 375.346 52.9994 377.167 50.7994C378.034 49.6994 378.554 48.1994 378.901 46.7994C379.855 43.0994 380.376 39.2994 380.462 35.3994C380.462 31.6994 379.855 27.6994 377.34 25.3994C375.866 24.0994 374.045 23.6994 372.311 23.2994C364.419 21.6994 356.354 21.5994 348.462 22.7994" stroke="black" stroke-width="4" stroke-miterlimit="10" stroke-linecap="round" stroke-linejoin="round"/>
<path d="M302.413 239.1C302.066 270.5 301.633 301.8 301.286 333.2C301.286 335.1 303.887 335.1 303.887 333.2C304.234 301.8 304.668 270.5 305.015 239.1C305.015 237.1 302.413 237.1 302.413 239.1Z" fill="black"/>
<path d="M243.876 119.8C242.315 139.5 241.708 159.3 241.968 179.2C241.968 181.1 244.57 181.1 244.57 179.2C244.309 159.4 244.916 139.6 246.477 119.8C246.651 117.9 244.049 117.9 243.876 119.8Z" fill="black"/>
<path d="M219.42 152.5C228.179 153.4 236.938 153.7 245.697 153.1C250.12 152.8 254.456 152.4 258.792 151.8C262.954 151.2 267.29 150.1 271.193 152.4C272.667 153.3 273.968 150.7 272.494 149.8C265.469 145.8 256.364 149.3 248.906 149.9C239.019 150.7 229.133 150.5 219.333 149.5C217.772 149.3 217.772 152.3 219.42 152.5Z" fill="black"/>
<g opacity="0.44">
<path opacity="0.44" d="M283.074 241.6C278.391 241.4 273.622 242 269.199 243.6C266.857 244.4 264.429 245.6 262.868 247.9C261.134 250.5 260.874 253.9 260.7 257.1C260.093 269.6 260.613 282.2 261.134 294.7C261.307 298.1 261.394 301.4 261.567 304.8C261.828 310.6 262.001 316.4 262.261 322.2C262.261 323 262.348 323.9 262.781 324.5C263.215 325.2 264.082 325.4 264.776 325.6C267.985 326.4 271.28 326.7 274.489 326.7C275.876 326.7 277.351 326.5 278.478 325.6C280.473 323.9 280.473 320.5 280.299 317.6C278.565 292.1 279.519 266.3 283.161 241" fill="white"/>
</g>
<g opacity="0.44">
<path opacity="0.44" d="M327.822 243.4C324.44 243.1 321.145 243.1 317.763 243.1C316.549 243.1 315.248 243.2 314.207 244.1C313.08 245 312.733 246.7 312.386 248.2C310.391 258.3 310.391 268.8 310.478 279.1C310.478 295.1 310.565 311.2 310.565 327.2C314.207 328.1 318.023 328.4 321.752 328C322.532 327.9 323.313 327.8 323.746 327.1C324.093 326.6 324.18 326 324.267 325.4C327.475 297.9 324.787 269.8 327.996 242.3" fill="white"/>
</g>
<g opacity="0.13">
<path opacity="0.13" d="M103.474 155.499C97.0563 159.599 91.5928 165.299 87.4302 172.299C84.9153 176.499 83.7879 183.699 87.9505 185.299C89.7717 185.999 91.6796 185.099 93.414 184.199C113.1 173.399 128.363 154.599 143.626 136.699C173.631 101.499 205.458 68.3995 238.933 37.6995C243.009 33.9995 247.518 30.0995 252.635 30.3995C256.624 30.5995 260.18 33.1995 263.475 35.8995C284.028 52.4995 302.586 72.3995 318.456 94.7995C326.868 106.699 334.587 119.399 344.473 129.699C352.972 138.499 362.858 145.499 370.489 155.299C379.682 167.299 386.273 184.199 399.715 188.199C403.53 189.299 408.387 188.599 410.034 184.599C411.075 181.999 410.468 178.899 409.514 176.299C405.525 164.599 397.286 155.599 389.221 146.999C364.679 120.799 340.05 94.6995 315.508 68.4995C298.944 50.7995 282.207 33.0995 263.388 18.6995C260.093 16.1995 253.675 3.49949 249.773 2.79949C241.534 1.39949 233.816 16.0995 227.486 22.2995C183.691 65.1995 144.146 111.399 102.26 156.799" fill="white"/>
</g>
<g opacity="0.27">
<path opacity="0.27" d="M163.745 401.7C178.921 401.3 192.016 390.3 205.285 381.8C208.754 379.5 212.916 377.4 216.645 379C218.12 379.6 219.42 380.8 220.634 381.9C224.71 385.9 228.786 391.5 227.832 397.6C227.572 399.4 226.792 401.2 225.317 401.9C224.45 402.3 223.41 402.2 222.456 402.2C212.83 401.3 203.117 400.5 193.491 399.6C190.195 399.3 186.986 399 183.691 398.9C177.967 398.7 172.157 399.2 166.52 400.3" fill="#5D5D5D"/>
</g>
<g opacity="0.22">
<path opacity="0.22" d="M31.4946 400.5C28.1991 400.9 25.5108 396.8 25.8577 393.1C26.2913 389.4 29.0664 386.4 32.1016 385.1C35.2236 383.8 38.519 383.9 41.8144 384C38.519 377.3 41.3808 367.3 47.7115 364.9C54.0422 362.5 61.7604 369.5 60.633 377.1C65.4027 377.5 70.1724 374 71.9935 368.9C73.1209 365.6 73.1209 361.9 73.728 358.4C75.1155 350.4 80.4055 343.4 87.1698 340.7C93.8474 338 101.826 339.7 107.202 345C109.11 340.9 108.07 335.6 105.381 332.2C102.78 328.7 98.7905 326.9 94.888 326.2C85.869 324.6 76.2429 328.7 70.3458 336.7C64.4488 344.7 62.4542 356.3 65.2293 366.3C57.6845 358.8 47.6248 354.7 37.6518 355C36.0041 355 34.3564 355.2 32.9688 356.1C29.9336 358 28.8929 362.7 29.7601 366.5C30.6274 370.4 32.8821 373.5 35.1369 376.6C26.985 376.9 19.0067 380 12.2424 385.2C8.77352 387.9 5.4781 393.1 7.9063 396.9C8.77352 398.3 10.2478 399 11.6353 399.6C18.2262 402.4 25.5108 403.4 32.5352 402.5" fill="white"/>
</g>
<g opacity="0.22">
<path opacity="0.22" d="M388.007 345.1C395.118 343.8 403.097 342.6 408.82 347.6C415.498 353.3 416.105 364.4 416.105 374C420.875 378.1 427.552 375.2 433.189 373C438.826 370.8 446.718 370.6 449.059 376.9C450.88 381.8 448.712 389.4 453.048 391.6C454.869 392.5 457.038 391.7 459.032 391.1C464.496 389.7 470.913 391.5 474.208 396.7C475.076 398 475.683 399.5 476.81 400.5C478.891 402.3 481.753 401.7 484.181 401C485.222 394.5 480.626 388.2 475.249 385.9C469.872 383.6 463.889 384.3 458.165 385C458.599 378.9 458.425 372.8 457.558 366.8C457.038 363 455.997 359 453.395 356.7C449.666 353.6 444.463 355.2 440.127 356.9C434.663 359.1 428.766 361.7 425.904 367.5C426.685 359 425.471 350.2 422.436 342.3C420.268 336.8 417.146 331.6 412.549 328.8C405.178 324.2 396.246 326.4 388.094 328.8C388.007 334.7 388.007 340.6 387.92 346.5" fill="white"/>
</g>
</svg>
