<svg width="385" height="435" viewBox="0 0 385 435" fill="none" xmlns="http://www.w3.org/2000/svg">
<path d="M49.7993 411.6C42.4993 411.2 34.2993 413.9 28.5993 409.3C22.4993 404.4 24.0993 395 23.6993 387.1C22.9993 374.5 15.7993 363.4 10.8993 351.8C1.29929 329.3 0.299293 303.6 5.49929 279.7C10.6993 255.8 21.8993 233.4 35.7993 213.3C36.8993 211.7 38.4993 209.6 40.2993 207.5C40.2993 207.5 54.8993 194.3 58.6993 191.2C23.4993 222.8 35.2993 293.2 84.9993 348.4C130.699 399.2 192.499 419.4 229.499 397.7L229.599 397.8C201.299 419.1 164.599 430.2 122.599 432.2C117.299 432.5 111.699 431.8 104.999 431.2C98.2993 430.6 92.2993 429.1 87.4993 426.8C74.6993 421 63.6993 412.4 49.7993 411.6Z" fill="#7C4718"/>
<path d="M382.599 201.5C383.299 223.4 380.099 245.2 375.699 266.5C371.599 286.2 366.299 305.9 357.299 323.7C332.099 373.4 282.699 404.7 229.599 398L229.499 397.9C232.699 396 235.799 393.8 238.599 391.2C273.799 359.6 261.999 289.2 212.299 234C168.199 185 109.099 164.4 71.7992 182.6L71.1992 180.5C74.7992 155.3 79.5992 130 89.1992 106.6C98.7992 83.1997 113.599 61.5997 133.999 47.8997C145.999 39.7997 159.899 34.4997 170.099 23.9997C174.999 18.9997 178.899 12.8997 184.399 8.79971C189.899 4.69971 203.199 0.299714 208.399 4.79971C210.599 6.69971 221.399 16.9997 221.399 16.9997C227.799 18.9997 225.399 18.5997 227.799 18.9997C270.999 26.5997 300.499 44.7997 331.099 77.7997C361.599 110.7 381.099 155.4 382.599 201.5Z" fill="#663C16"/>
<path d="M212.299 233.999C261.999 289.199 273.699 359.599 238.599 391.199C235.799 393.699 232.699 395.999 229.499 397.899C192.499 419.499 130.699 399.299 84.9991 348.599C35.2991 293.399 23.5991 222.999 58.6991 191.399C62.5991 187.799 66.9991 184.899 71.7991 182.599C109.099 164.399 168.199 184.999 212.299 233.999ZM232.199 386.699C263.999 358.099 251.799 292.699 204.999 240.699C158.199 188.699 94.3991 169.699 62.5991 198.299C30.7991 226.899 42.9991 292.299 89.7991 344.299C136.599 396.299 200.399 415.399 232.199 386.699Z" fill="#78C427"/>
<path d="M205.098 240.699C251.898 292.699 264.098 358.099 232.298 386.699C200.498 415.299 136.798 396.299 89.9983 344.299C43.1983 292.299 30.9983 226.899 62.7983 198.299C94.4983 169.699 158.298 188.699 205.098 240.699ZM174.998 323.399C185.698 314.299 182.498 293.099 167.898 275.999C153.298 258.899 132.898 252.499 122.198 261.599C111.498 270.699 114.698 291.899 129.298 308.999C143.898 326.099 164.398 332.499 174.998 323.399Z" fill="#C6C126"/>
<path d="M167.899 275.999C182.499 293.099 185.699 314.299 174.999 323.399C164.299 332.499 143.899 325.999 129.299 308.999C114.699 291.899 111.499 270.699 122.199 261.599C132.899 252.499 153.299 258.999 167.899 275.999Z" fill="#C1ED8E"/>
<path d="M71.7991 182.499C109.099 164.399 168.299 184.999 212.299 233.899C261.999 289.099 273.699 359.499 238.599 391.099C235.799 393.599 232.699 395.899 229.499 397.799C192.499 419.399 130.699 399.199 84.9991 348.499C35.2991 293.299 23.5991 222.899 58.6991 191.299C62.5991 187.699 66.9991 184.799 71.7991 182.499Z" stroke="black" stroke-width="4" stroke-miterlimit="10" stroke-linecap="round" stroke-linejoin="round"/>
<path d="M205.098 240.699C251.898 292.699 264.098 358.099 232.298 386.699C200.498 415.299 136.798 396.299 89.9983 344.299C43.1983 292.299 30.9983 226.899 62.7983 198.299C94.4983 169.699 158.298 188.699 205.098 240.699Z" stroke="black" stroke-width="4" stroke-miterlimit="10" stroke-linecap="round" stroke-linejoin="round"/>
<path d="M167.899 275.999C182.499 293.099 185.699 314.299 174.999 323.399C164.299 332.499 143.899 325.999 129.299 308.999C114.699 291.899 111.499 270.699 122.199 261.599C132.899 252.499 153.299 258.999 167.899 275.999Z" stroke="black" stroke-width="4" stroke-miterlimit="10" stroke-linecap="round" stroke-linejoin="round"/>
<path d="M229.499 398C201.199 419.3 164.499 430.4 122.499 432.4C117.199 432.7 111.599 432 104.899 431.4C98.1993 430.8 92.1993 429.3 87.3993 427C74.7993 421 63.6993 412.4 49.7993 411.6C42.4993 411.2 34.2993 413.9 28.5993 409.3C22.4993 404.4 24.0993 395 23.6993 387.1C22.9993 374.5 15.7993 363.4 10.8993 351.8C1.29929 329.3 0.299293 303.6 5.49929 279.7C10.6993 255.8 21.8993 233.4 35.7993 213.3C36.8993 211.7 38.4993 209.6 40.2993 207.5C40.2993 207.5 54.8993 194.3 58.6993 191.2" stroke="black" stroke-width="4" stroke-miterlimit="10" stroke-linecap="round" stroke-linejoin="round"/>
<path d="M71.1992 180.5C74.7992 155.3 79.5992 130 89.1992 106.6C98.7992 83.1997 113.599 61.5997 133.999 47.8997C145.999 39.7997 159.899 34.4997 170.099 23.9997C174.999 18.9997 178.899 12.8997 184.399 8.79971C189.899 4.69971 203.199 0.299714 208.399 4.79971C210.599 6.69971 221.399 16.9997 221.399 16.9997C227.799 18.9997 225.399 18.5997 227.799 18.9997C270.999 26.5997 300.499 44.7997 331.099 77.7997C361.699 110.8 381.199 155.5 382.699 201.6C383.399 223.5 380.199 245.3 375.799 266.6C371.699 286.3 366.399 306 357.399 323.8C332.199 373.5 282.799 404.8 229.699 398.1" stroke="black" stroke-width="4" stroke-miterlimit="10" stroke-linecap="round" stroke-linejoin="round"/>
<path d="M153.899 356.399C151.799 360.299 151.299 364.499 152.199 368.799C152.399 369.899 153.999 370.299 154.699 369.499C157.799 365.899 158.399 360.899 156.099 356.599C155.399 355.399 153.099 355.799 153.299 357.399C153.699 360.699 153.499 363.999 152.799 367.199C152.399 369.099 154.999 369.799 155.699 367.999C156.599 365.599 156.699 363.199 156.399 360.699C156.099 358.799 153.199 359.599 153.499 361.499C153.799 363.499 153.499 365.399 152.799 367.199C153.799 367.499 154.699 367.699 155.699 367.999C156.499 364.499 156.799 360.999 156.299 357.399C155.399 357.699 154.399 357.899 153.499 358.199C155.099 361.199 154.799 364.799 152.499 367.399C153.299 367.599 154.199 367.799 154.999 368.099C154.199 364.599 154.699 361.099 156.399 357.999C157.399 356.199 154.799 354.599 153.899 356.399Z" fill="black"/>
<path d="M175.7 359.8C177.7 363.1 179.7 366.3 181.8 369.6C182.5 370.8 184.1 370.4 184.5 369.2C186.3 364.6 183.4 359.2 178.7 358C177.3 357.6 176.5 359.1 177 360.2C177.7 361.8 178.3 363.4 179 365C179.9 364.5 180.7 364 181.6 363.5C181 362.4 180.5 361.3 179.9 360.1C179 360.6 178.2 361.1 177.3 361.6C178.1 362.7 178.8 363.7 179.6 364.8C180.7 366.4 183.3 364.9 182.2 363.3C181.4 362.2 180.7 361.2 179.9 360.1C178.8 358.5 176.4 359.9 177.3 361.6C177.9 362.7 178.4 363.8 179 365C179.9 366.8 182.3 365.2 181.6 363.5C180.9 361.9 180.3 360.3 179.6 358.7C179 359.4 178.5 360.2 177.9 360.9C181.2 361.8 182.8 365.4 181.6 368.4C182.5 368.3 183.4 368.2 184.3 368C182.3 364.7 180.3 361.5 178.2 358.2C177.3 356.6 174.7 358.1 175.7 359.8Z" fill="black"/>
<path d="M194.499 343.7C191.499 343.2 191.499 346.8 193.299 348.4C196.599 351.3 201.199 353.3 205.399 354.9C206.699 355.4 207.699 353.8 207.099 352.7C204.699 348.4 200.599 345.4 195.699 344.6C193.999 344.3 193.199 346.3 194.499 347.3C196.199 348.6 197.799 349.8 199.499 351.1C200.899 352.2 202.499 349.9 201.299 348.7C199.799 347.2 198.199 345.9 196.299 344.9C194.899 344.1 193.199 346.1 194.499 347.3C195.699 348.4 196.999 349.2 198.599 349.6C200.499 350.1 201.299 347.2 199.399 346.7C198.299 346.4 197.399 345.9 196.599 345.2C195.999 346 195.399 346.8 194.799 347.6C196.399 348.5 197.899 349.6 199.199 351C199.799 350.2 200.399 349.4 200.999 348.6C199.299 347.3 197.699 346.1 195.999 344.8C195.599 345.7 195.199 346.6 194.799 347.5C198.899 348.2 202.299 350.6 204.399 354.3C204.999 353.6 205.499 352.8 206.099 352.1C203.999 351.3 201.999 350.4 200.099 349.3C199.499 349 195.299 345.9 194.799 346.2C194.299 346.3 193.799 346.5 193.299 346.6C193.399 346.6 193.499 346.6 193.599 346.7C195.599 346.9 196.399 344 194.499 343.7Z" fill="black"/>
<path d="M210.999 326.5C207.899 326.7 205.099 327.4 202.299 328.7C201.199 329.2 201.399 330.8 202.299 331.3C207.099 334.3 213.299 334 217.799 330.6C218.599 330 218.899 328.6 217.799 328C214.099 326.2 210.299 326.2 206.599 328.1C204.999 328.9 206.199 331.1 207.799 330.8C208.399 330.7 208.899 330.6 209.499 330.5C211.399 330.2 210.599 327.3 208.699 327.6C208.099 327.7 207.599 327.8 206.999 327.9C207.399 328.8 207.799 329.7 208.199 330.6C210.799 329.3 213.699 329.2 216.299 330.5C216.299 329.6 216.299 328.8 216.299 327.9C212.599 330.7 207.899 331.1 203.899 328.6C203.899 329.5 203.899 330.3 203.899 331.2C206.199 330.2 208.599 329.6 211.099 329.5C212.899 329.4 212.899 326.4 210.999 326.5Z" fill="black"/>
<path d="M134.3 343.799C130.6 345.599 127.9 348.599 126.4 352.299C126 353.199 127 354.2 127.8 354.2C132.4 354 136.2 351.199 138 346.899C138.4 345.999 137.4 344.899 136.6 344.999C133.3 345.299 130.5 346.999 128.9 349.999C128.4 350.899 128.9 351.9 129.8 352.2C133.1 353.4 136.8 350.499 136.5 346.999C136.4 346.199 135.9 345.399 135 345.499C131.9 345.699 129.4 347.599 128.4 350.499C127.8 352.299 130.7 353.099 131.3 351.299C131.9 349.699 133.3 348.599 135 348.499C134.5 347.999 134 347.499 133.5 346.999C133.7 348.599 132.1 349.799 130.6 349.299C130.9 349.999 131.2 350.799 131.5 351.499C132.6 349.599 134.4 348.299 136.6 347.999C136.1 347.399 135.6 346.7 135.2 346.1C134 349 131 351 127.9 351.2C128.4 351.8 128.9 352.5 129.3 353.1C130.6 350.1 132.9 347.799 135.9 346.399C137.5 345.599 136 342.999 134.3 343.799Z" fill="black"/>
<path d="M212.099 332.1C212.399 331.8 212.799 331.5 213.099 331.1C213.699 330.6 213.699 329.5 213.099 329C212.499 328.4 211.599 328.4 210.999 329C210.699 329.3 210.299 329.6 209.999 330C209.399 330.5 209.399 331.6 209.999 332.1C210.599 332.7 211.499 332.6 212.099 332.1Z" fill="black"/>
<path d="M110.4 334.3C112.8 331.2 116.5 329.6 120.3 330.4C120 329.7 119.7 328.9 119.4 328.2C117.8 330.7 114.9 331.8 112.1 330.9C112 331.9 111.8 332.9 111.7 333.8C113.9 333.7 115.9 333.1 117.8 331.8C119.2 330.9 118.3 328.6 116.6 329.1C114.4 329.7 112.3 330.6 110.4 331.9C109 332.8 109.9 335 111.6 334.6C113.2 334.2 114.8 333.9 116.3 333.5C118.2 333.1 117.4 330.2 115.5 330.6C113.9 331 112.3 331.3 110.8 331.7C111.2 332.6 111.6 333.5 112 334.4C113.7 333.2 115.5 332.4 117.5 331.9C117.1 331 116.7 330.1 116.3 329.2C114.9 330.2 113.4 330.7 111.7 330.8C110 330.9 109.6 333.3 111.3 333.7C115.4 334.9 119.7 333.2 122 329.6C122.5 328.8 122.1 327.6 121.1 327.4C116.3 326.5 111.3 328.2 108.2 332.1C107.1 333.7 109.2 335.8 110.4 334.3Z" fill="black"/>
<path d="M142.399 347.1C141.199 350.6 140.399 354.1 139.899 357.8C139.699 359.1 141.699 359.8 142.499 358.9C145.199 355.7 146.299 351.8 145.599 347.7C145.299 346.1 143.199 346.5 142.699 347.7C141.599 350.5 141.099 353.3 140.999 356.3C140.999 357.7 143.199 358.5 143.799 357.1C144.799 354.8 145.699 352.6 146.699 350.3C147.499 348.5 145.299 347.2 144.099 348.8C142.999 350.3 142.499 351.9 142.599 353.8C142.699 355.4 144.499 355.7 145.399 354.6C146.799 352.7 147.599 350.6 147.799 348.2C147.899 346.5 145.099 346.1 144.899 347.8C144.599 349.7 144.399 351.5 144.099 353.4C143.799 355.3 146.699 356.1 146.999 354.2C147.299 352.3 147.499 350.5 147.799 348.6C146.799 348.5 145.799 348.3 144.899 348.2C144.699 350.1 144.099 351.6 142.899 353.1C143.799 353.4 144.799 353.6 145.699 353.9C145.599 352.5 145.999 351.5 146.799 350.5C145.899 350 145.099 349.5 144.199 349C143.199 351.3 142.299 353.5 141.299 355.8C142.199 356.1 143.199 356.3 144.099 356.6C144.099 353.9 144.699 351.3 145.699 348.8C144.699 348.8 143.799 348.8 142.799 348.8C143.299 351.8 142.499 354.8 140.499 357.1C141.399 357.5 142.199 357.8 143.099 358.2C143.499 354.8 144.299 351.5 145.499 348.3C145.899 346.1 142.999 345.3 142.399 347.1Z" fill="black"/>
<path d="M167.8 350.9C166.5 353.4 166.6 356.4 168.2 358.7C169 359.9 171 359.499 171 357.899C171 355.899 170.4 353.299 168.1 352.799C166.2 352.399 165 354.3 165.3 356C165.6 357.7 167.7 358.6 168.8 357C169.5 356.1 169.4 354.4 169.2 353.4C169 352 168.3 350.9 167.5 349.9C166.5 348.7 164.6 350 165 351.4C165.7 353.9 166.4 356.299 167.1 358.799C167.6 360.699 170.3 359.9 170 358C169.7 356.3 169.5 354.6 169.2 352.9C168.9 351.2 166.1 351.599 166.3 353.299C166.4 354.899 166.5 356.5 166.7 358.1C166.8 360 169.8 360 169.7 358.1C169.6 356.5 169.5 354.899 169.3 353.299C168.3 353.399 167.3 353.6 166.4 353.7C166.7 355.4 166.9 357.099 167.2 358.799C168.2 358.499 169.1 358.3 170.1 358C169.4 355.5 168.7 353.1 168 350.6C167.2 351.1 166.3 351.6 165.5 352.1C166 352.7 166.3 353.4 166.4 354.1C166.4 354.3 166.4 355.299 166.4 355.399C166.4 355.399 168.3 355.4 168.3 355.5C168.1 355.3 168.6 355.2 168.3 355.5C168.1 355.6 167.8 355.699 167.6 355.899C167.7 355.999 167.8 356.1 167.8 356.2C167.9 356.8 168.1 357.4 168.1 358.1C169 357.8 170 357.599 170.9 357.299C169.9 355.799 169.7 354.1 170.5 352.5C171.2 350.7 168.6 349.199 167.8 350.9Z" fill="black"/>
<path d="M180.6 342.6C183 345.4 184.9 348.5 186.3 351.8C187 353.6 189.5 352.9 189.2 351C188.7 347.2 185.8 344.1 182.1 343.2C180.7 342.8 179.9 344.3 180.4 345.4C181 346.8 181.7 348.3 182.3 349.7C182.8 350.8 184.8 350.6 185 349.3C185.6 345.8 184.2 342.6 181.2 340.7C179.8 339.8 178.6 341.5 179.1 342.8C180.5 345.7 181.8 348.5 183.2 351.4C184 353.1 186.6 351.6 185.8 349.9C184.4 347 183.1 344.2 181.7 341.3C181 342 180.3 342.7 179.6 343.4C181.4 344.5 182.4 346.5 182 348.6C182.9 348.5 183.8 348.4 184.7 348.2C184.1 346.8 183.4 345.3 182.8 343.9C182.2 344.6 181.7 345.4 181.1 346.1C183.9 346.8 185.7 349 186.1 351.8C187.1 351.5 188 351.3 189 351C187.4 347.1 185.3 343.6 182.5 340.4C181.5 339 179.4 341.1 180.6 342.6Z" fill="black"/>
<path d="M194 335.099C195.5 336.499 197 337.799 198.5 339.199C199.8 340.399 201.6 338.899 200.9 337.399C199.6 334.699 197.2 332.699 194.4 331.599C193 331.099 191.8 333.199 192.9 334.099C194.3 335.299 195.7 336.399 197 337.599C197.6 336.799 198.2 335.999 198.8 335.199C197.8 334.599 196.8 334.099 195.8 333.499C194.1 332.499 192.6 335.099 194.3 336.099C195.3 336.699 196.3 337.199 197.3 337.799C198.7 338.599 200.5 336.599 199.1 335.399C197.7 334.199 196.3 333.099 195 331.899C194.5 332.699 194 333.599 193.5 334.399C195.6 335.199 197.2 336.799 198.2 338.799C199 338.199 199.8 337.599 200.6 336.999C199.1 335.599 197.6 334.299 196.1 332.899C194.7 331.699 192.6 333.799 194 335.099Z" fill="black"/>
<path d="M130.899 234.499C131.299 236.399 131.599 238.299 131.999 240.199C132.299 241.999 134.799 241.399 134.899 239.799C134.999 238.299 135.199 236.899 135.299 235.399C134.399 235.699 133.399 235.899 132.499 236.199C133.599 237.799 133.899 239.599 133.499 241.499C134.499 241.599 135.499 241.799 136.399 241.899C136.399 240.599 136.399 239.199 136.399 237.899C135.399 237.899 134.399 237.899 133.399 237.899C133.399 238.799 133.399 239.799 133.399 240.699C133.399 242.599 136.399 242.599 136.399 240.699C136.399 238.999 136.399 237.199 136.399 235.499C135.399 235.499 134.399 235.499 133.399 235.499C133.399 237.799 133.499 239.999 133.499 242.299C134.499 242.199 135.499 241.999 136.399 241.899C135.499 239.099 134.599 236.399 133.699 233.599C133.199 231.899 130.899 232.299 130.799 233.999C130.599 235.899 130.399 237.799 130.199 239.699C129.999 241.599 132.999 241.599 133.199 239.699C133.399 237.799 133.599 235.899 133.799 233.999C132.799 234.099 131.799 234.299 130.899 234.399C131.799 237.199 132.699 239.899 133.599 242.699C134.099 244.299 136.599 244.099 136.499 242.299C136.499 239.999 136.399 237.799 136.399 235.499C136.399 233.599 133.399 233.599 133.399 235.499C133.399 237.199 133.399 238.999 133.399 240.699C134.399 240.699 135.399 240.699 136.399 240.699C136.399 239.799 136.399 238.799 136.399 237.899C136.399 235.999 133.399 235.999 133.399 237.899C133.399 239.199 133.399 240.599 133.399 241.899C133.399 243.599 135.999 243.999 136.299 242.299C136.899 239.599 136.499 236.999 134.999 234.699C134.099 233.399 132.399 233.999 132.199 235.499C132.099 236.999 131.899 238.399 131.799 239.899C132.799 239.799 133.799 239.599 134.699 239.499C134.299 237.599 133.999 235.699 133.599 233.799C133.499 231.799 130.599 232.599 130.899 234.499Z" fill="black"/>
<path d="M160.798 240.3C159.498 242.3 158.098 244.3 156.798 246.2C155.998 247.3 157.298 248.7 158.498 248.4C161.898 247.6 164.698 245.3 166.198 242.2C166.898 240.7 165.098 239.2 163.798 240.4C161.898 242.2 160.398 244.3 159.198 246.6C158.298 248.3 160.698 249.7 161.798 248.1C163.198 245.9 164.598 243.7 165.998 241.6C166.698 240.6 165.498 238.9 164.298 239.4C160.498 240.9 158.098 244.1 157.598 248.1C157.498 249.3 158.998 249.9 159.898 249.4C163.098 247.6 165.298 244.9 166.598 241.5C166.998 240.5 165.798 239.2 164.798 239.7C161.498 241.1 158.798 243.2 156.798 246.1C155.798 247.5 157.998 249 159.198 247.9C160.998 246.3 162.398 244.4 163.398 242.3C164.298 240.6 161.898 239.2 160.798 240.8C159.798 242.2 158.898 243.6 157.898 244.9C156.798 246.5 159.398 248 160.498 246.4C161.498 245 162.398 243.6 163.398 242.3C162.498 241.8 161.698 241.3 160.798 240.8C159.898 242.7 158.598 244.4 156.998 245.8C157.798 246.4 158.598 247 159.398 247.6C160.998 245.4 163.098 243.6 165.598 242.6C164.998 242 164.398 241.4 163.798 240.8C162.798 243.4 160.898 245.5 158.498 246.9C159.298 247.3 159.998 247.8 160.798 248.2C161.098 245.7 162.898 243.3 165.298 242.4C164.698 241.7 164.198 240.9 163.598 240.2C162.198 242.4 160.798 244.6 159.398 246.7C160.298 247.2 161.098 247.7 161.998 248.2C163.098 246.1 164.498 244.3 166.198 242.6C165.398 242 164.598 241.4 163.798 240.8C162.598 243.3 160.498 245 157.898 245.7C158.498 246.4 158.998 247.2 159.598 247.9C160.898 245.9 162.298 243.9 163.598 242C164.498 240.2 161.898 238.7 160.798 240.3Z" fill="black"/>
<path d="M131.398 219.4C131.498 219 131.498 218.5 131.598 218.1C130.598 218.1 129.698 218.1 128.698 218.1C129.298 220.8 130.298 223.3 131.498 225.8C131.898 226.6 133.298 226.8 133.898 226.1C136.498 222.8 135.198 217.8 131.198 216.4C130.398 216.1 129.598 216.7 129.398 217.4C128.898 219.3 129.198 221.2 130.398 222.8C131.398 224.1 133.598 223.4 133.098 221.6C132.898 221.1 132.798 220.5 132.598 220C132.098 218.1 129.198 218.9 129.698 220.8C129.898 221.3 129.998 221.9 130.198 222.4C131.098 222 131.998 221.6 132.898 221.2C132.198 220.2 131.898 219.3 132.198 218.1C131.598 218.4 130.998 218.8 130.398 219.1C132.098 219.7 132.898 222.3 131.798 223.8C132.598 223.9 133.398 224 134.198 224.1C133.098 221.9 132.298 219.5 131.698 217.1C131.398 215.7 129.098 215.6 128.798 217.1C128.698 217.5 128.698 218 128.598 218.4C128.198 220.5 131.098 221.3 131.398 219.4Z" fill="black"/>
<path d="M98.2985 228.7C95.6985 227.1 92.5985 227.1 89.8985 228.5C88.9985 229 88.8985 230.6 89.8985 231.1C93.1985 232.7 96.6985 233.6 100.399 233.8C101.999 233.9 102.199 231.8 101.199 231C98.9985 229.4 96.2986 228.6 93.5986 228.6C91.6986 228.6 91.6986 231.6 93.5986 231.6C95.8986 231.6 97.8985 232.2 99.6985 233.6C99.9985 232.7 100.199 231.7 100.499 230.8C97.3985 230.6 94.2985 229.9 91.4985 228.5C91.4985 229.4 91.4985 230.2 91.4985 231.1C93.2985 230.2 95.1985 230.3 96.8985 231.3C98.3985 232.3 99.8985 229.7 98.2985 228.7Z" fill="black"/>
<path d="M108.4 241.5C110 243.2 111.4 245.1 112.6 247C113 246.2 113.5 245.5 113.9 244.7C111.7 244.8 109.9 243.2 109.6 241.1C108.7 241.5 107.8 241.9 106.9 242.3C107.6 243.2 108.3 244.1 108.9 245C109.9 246.4 111.9 245.6 111.6 243.8C111.4 242.5 110.8 241.3 109.9 240.3C108.6 238.8 106.5 241 107.8 242.4C108.3 243 108.6 243.7 108.7 244.6C109.6 244.2 110.5 243.8 111.4 243.4C110.7 242.5 110 241.6 109.4 240.7C108.4 239.3 106.4 240.1 106.7 241.9C107.2 245.3 110.5 247.8 113.9 247.7C115 247.7 115.8 246.4 115.2 245.4C113.8 243.2 112.3 241.2 110.5 239.3C109.3 238 107.1 240.1 108.4 241.5Z" fill="black"/>
<path d="M95.5 271.899C91.9 271.999 88.6 273.399 86.1 275.899C85.2 276.799 85.8 278.499 87.2 278.499C89.3 278.399 91.4 278.299 93.5 277.899C95.1 277.699 96.9 277.499 97.9 276.099C98.6 275.199 98.7 273.899 97.7 273.099C96.4 271.999 94.7 272.999 93.3 273.199C93.7 273.299 94.1 273.299 94.5 273.399C94.4 273.299 94.2 273.299 94.1 273.199C94.3 273.599 94.6 274.099 94.8 274.499C94.8 274.399 94.8 274.299 94.8 274.199C94.7 274.599 94.5 274.899 94.4 275.299C94.5 275.199 94.5 275.199 94.6 275.099C94 275.199 93.4 275.299 92.8 275.299C92.9 275.299 92.9 275.399 93 275.399C93 274.499 93 273.699 93 272.799C92.6 273.099 92.2 273.299 91.8 273.599C90.2 274.599 91.7 277.199 93.3 276.199C93.7 275.899 94.1 275.699 94.5 275.399C95.4 274.799 95.5 273.399 94.5 272.799C94.4 272.799 94.4 272.699 94.3 272.699C93.7 272.399 93 272.499 92.5 272.899C92 273.299 91.8 273.799 91.8 274.399C91.8 274.899 92.1 275.499 92.5 275.699C93.2 275.999 93.8 276.099 94.6 275.999C94.8 275.999 96.1 275.699 96.1 275.599C95.9 275.099 95.7 274.699 95.5 274.199C95.3 274.399 95 274.499 94.7 274.499C92.3 275.199 89.6 275.299 87.1 275.299C87.5 276.199 87.8 276.999 88.2 277.899C90.2 275.899 92.6 274.799 95.4 274.799C97.4 274.899 97.4 271.899 95.5 271.899Z" fill="black"/>
<path d="M102.099 280.199C99.399 281.099 96.999 282.399 94.799 284.099C93.899 284.799 94.399 286.399 95.499 286.599C98.899 287.199 102.099 286.799 105.299 285.499C106.799 284.899 105.799 282.799 104.499 282.699C102.999 282.599 101.599 282.499 100.099 282.399C100.199 283.399 100.399 284.399 100.499 285.299C102.099 284.899 103.199 283.999 104.099 282.699C105.199 281.099 102.599 279.599 101.499 281.199C100.999 281.899 100.499 282.299 99.699 282.499C97.999 282.899 98.499 285.299 100.099 285.399C101.599 285.499 102.999 285.599 104.499 285.699C104.199 284.799 103.999 283.799 103.699 282.899C101.299 283.899 98.699 284.199 96.199 283.699C96.399 284.499 96.599 285.399 96.899 286.199C98.699 284.799 100.699 283.699 102.899 282.999C104.799 282.499 103.999 279.599 102.099 280.199Z" fill="black"/>
<path d="M82.5983 284.5C80.7983 285.2 79.2983 286.2 77.9983 287.6C77.2983 288.4 77.4983 289.8 78.6983 290.1C81.6983 290.8 84.7983 290.8 87.7983 289.9C88.3983 289.7 88.9983 289.1 88.8983 288.5C88.7983 287.2 88.1983 286 86.9983 285.4C86.4983 285.1 85.8983 285 85.2983 285C84.9983 285 84.5983 285 84.2983 285.1C83.9983 285.2 83.2983 285.3 83.7983 285.4C84.0983 285.7 84.4983 286.1 84.7983 286.4C84.7983 286.3 84.7983 286.3 84.7983 286.2C84.6983 286.7 84.4983 287.2 84.3983 287.7C84.2983 287.8 84.1983 287.9 83.9983 287.9C83.3983 287.4 82.6983 286.9 82.0983 286.5V286.6C82.0983 288.5 85.0983 288.5 85.0983 286.6V286.5C85.0983 285.5 84.1983 284.9 83.1983 285.1C82.7983 285.2 82.4983 285.4 82.1983 285.6C81.7983 285.9 81.6983 286.6 81.7983 287.1C81.9983 287.9 82.6983 288.4 83.5983 288.4C84.1983 288.4 85.6983 287.4 85.7983 288.5C86.1983 288 86.4983 287.5 86.8983 287.1C84.3983 287.8 81.9983 287.9 79.3983 287.3C79.5983 288.1 79.7983 289 80.0983 289.8C80.9983 288.8 81.9983 288 83.2983 287.5C85.0983 286.7 84.3983 283.8 82.5983 284.5Z" fill="black"/>
<path d="M98.6993 297.8C101.199 296.7 103.899 296.8 106.299 297.9C106.099 297.1 105.899 296.2 105.599 295.4C103.899 297.2 100.999 297.1 99.3993 295.2C98.9993 296.1 98.6993 296.9 98.2993 297.8C99.3993 297.7 100.399 297.9 101.399 298.4C102.699 299.1 104.199 297.7 103.499 296.3C102.999 295.4 102.299 294.9 101.299 294.6C99.3993 294.2 98.5993 297.1 100.499 297.5C100.599 297.6 100.799 297.7 100.899 297.8C101.599 297.1 102.299 296.4 102.999 295.7C101.499 294.9 99.9993 294.6 98.3993 294.7C97.0993 294.8 96.4993 296.3 97.2993 297.3C99.8993 300.4 104.899 300.4 107.699 297.5C108.499 296.6 108.099 295.4 106.999 295C103.699 293.7 100.299 293.8 97.0993 295.2C95.4993 296 96.9993 298.5 98.6993 297.8Z" fill="black"/>
<path d="M79.9988 263.299C76.6988 262.899 73.6988 264.399 71.6988 266.999C70.9988 267.999 71.9988 269.199 72.9988 269.299C76.4988 269.399 79.8988 268.999 83.2988 268.199C84.4988 267.899 84.8988 265.999 83.6988 265.499C82.1988 264.799 80.5988 264.299 78.9988 263.999C77.0988 263.699 76.2988 266.599 78.1988 266.899C79.5988 267.099 80.8988 267.499 82.1988 268.099C82.2988 267.199 82.3988 266.299 82.5988 265.399C79.4988 266.199 76.2988 266.499 73.0988 266.399C73.4988 267.199 73.9988 267.899 74.3988 268.699C75.7988 266.899 77.8988 266.199 80.0988 266.399C81.8988 266.499 81.8988 263.499 79.9988 263.299Z" fill="black"/>
<path d="M202.3 269.8C199.7 271.1 197.6 273.2 196.3 275.8C195.7 276.9 196.7 278.4 198 278C201.6 276.9 204.8 274.9 207.4 272.2C208.4 271.2 207.4 269.1 205.9 269.7C204 270.4 202.2 271.2 200.3 271.9C200.7 272.8 201.1 273.7 201.5 274.6C202.3 274.2 203 273.7 203.6 273C204.7 271.7 203.3 269.9 201.8 270.6C201.7 270.6 201.6 270.7 201.5 270.7C202 270.7 202.5 270.7 203 270.7C203 270.7 203.1 270.7 203.1 270.8C203.2 271.2 203.2 271.6 203.3 272C203.2 272.2 203.3 272.1 203.5 271.8C202.7 271.3 201.8 270.8 201 270.3C200.9 270.7 200.7 271.1 200.4 271.4C199.1 272.8 201.2 275 202.5 273.5C203.2 272.8 203.6 272 203.9 271.1C204.4 269.5 202.5 268.8 201.4 269.6C199.4 271.2 200.8 274.3 203.3 273.1C202.7 272.3 202.1 271.5 201.5 270.7C201.1 271.2 200.6 271.6 200 271.9C198.5 272.6 199.6 275.3 201.2 274.6C203.1 273.9 204.9 273.1 206.8 272.4C206.3 271.6 205.8 270.7 205.3 269.9C203 272.2 200.3 273.9 197.2 274.9C197.8 275.6 198.3 276.4 198.9 277.1C200 274.9 201.6 273.3 203.8 272.2C205.5 271.5 204 268.9 202.3 269.8Z" fill="black"/>
<path d="M208.9 283.599C212.3 282.999 215.9 284.999 217.2 288.199C217.8 287.599 218.4 286.999 219 286.399C215.3 285.899 212.3 283.799 210.7 280.499C209.9 281.099 209.1 281.699 208.3 282.299C210 283.699 211.9 284.699 213.9 285.499C215.5 286.099 216.6 283.499 215.1 282.799C214.4 282.499 213.7 282.099 213 281.799C211.2 280.999 210 283.199 211.5 284.399C211.9 284.699 212.3 284.999 212.7 285.399C214.2 286.599 215.7 283.999 214.2 282.799C213.8 282.499 213.4 282.199 213 281.799C212.5 282.699 212 283.499 211.5 284.399C212.2 284.699 212.9 285.099 213.6 285.399C214 284.499 214.4 283.599 214.8 282.699C213.2 282.099 211.8 281.299 210.5 280.299C209.2 279.299 207.3 280.499 208.1 282.099C210.1 285.999 213.8 288.799 218.2 289.399C219.2 289.499 220.5 288.799 220 287.599C218.2 282.699 213.2 279.899 208.1 280.899C206.2 280.999 207 283.899 208.9 283.599Z" fill="black"/>
<path d="M204 289.1C200.9 289.3 198.4 290.8 196.6 293.3C195.8 294.5 197.1 295.7 198.3 295.5C201.5 294.9 204.7 294.5 207.9 294.3C209.4 294.2 209.9 292.4 208.7 291.5C207.1 290.3 205.4 289.5 203.5 288.9C201.7 288.3 200.9 291.2 202.7 291.8C204.3 292.4 205.8 293.1 207.1 294.1C207.4 293.2 207.6 292.2 207.9 291.3C204.4 291.6 200.9 292 197.5 292.7C198.1 293.4 198.6 294.2 199.2 294.9C200.4 293.3 202.1 292.3 204.1 292.2C205.9 292 205.9 289 204 289.1Z" fill="black"/>
<path d="M218.5 299.6C221.5 298.7 224.4 299.8 226.3 302.2C226.7 301.3 227 300.5 227.4 299.6C224.5 299.9 221.7 299.3 219.2 297.8C218.7 298.7 218.2 299.5 217.7 300.4C219.5 301.5 221.4 302.2 223.5 302.5C225.4 302.8 226.2 300.1 224.3 299.6C223.1 299.2 221.8 298.9 220.6 298.5C218.7 298 217.9 300.9 219.8 301.4C221 301.8 222.3 302.1 223.5 302.5C223.8 301.5 224 300.6 224.3 299.6C222.5 299.3 220.8 298.7 219.2 297.8C217.5 296.8 216 299.4 217.7 300.4C220.7 302.2 224 302.9 227.4 302.7C228.8 302.6 229.3 301.2 228.5 300.1C226 296.9 221.7 295.6 217.8 296.8C215.8 297.3 216.6 300.2 218.5 299.6Z" fill="black"/>
<g opacity="0.42">
<path opacity="0.42" d="M26.7988 400.5C29.3988 390.7 39.5988 383.6 49.6988 384.6C60.3988 385.6 68.5988 394.2 77.2988 400.6C87.8988 408.4 101.099 413.6 114.099 411.9C128.099 410.1 140.699 400.7 154.699 401.3C163.399 401.7 171.499 405.9 180.099 407.5C188.899 409.2 197.999 408 206.799 406.8C193.099 419.2 174.099 423.4 155.999 427.1C144.899 429.4 135.199 429.3 123.899 430C114.499 430.5 107.199 429.5 97.8988 427.8C94.8988 427.2 90.7988 426.6 88.0988 425.3C82.1988 422.5 75.2988 419.7 69.9988 415.8C63.8988 411.4 56.2988 409.1 48.7988 409.5C44.4988 409.7 40.0988 410.8 35.7988 410C31.4988 409.2 27.2988 405.5 27.9988 401.2" fill="#845935"/>
</g>
<g opacity="0.42">
<path opacity="0.42" d="M260.499 341.4C272.499 338.5 282.399 330.3 290.899 321.4C306.099 305.2 317.599 285.7 324.399 264.6C335.399 230.4 333.799 193.1 325.199 158.2C318.199 129.7 306.699 102.4 291.199 77.4997C284.599 66.8997 277.199 56.6997 267.299 49.0997C265.199 47.3997 262.699 45.4997 262.699 42.7997C262.799 38.0997 269.599 37.2997 274.199 38.5997C285.599 41.7997 296.199 47.9997 304.699 56.3997C308.599 60.1997 311.999 64.4997 315.699 68.4997C323.299 76.4997 328.399 84.2997 336.299 92.0997C357.799 113 370.699 142.5 375.599 172.1C380.499 201.7 379.199 228.3 372.899 257.6C368.599 277.6 365.299 299.2 355.399 317.1C339.099 346.8 312.799 370.2 283.299 386.8C269.299 394.6 252.599 401.1 237.699 395.4C252.899 381.6 261.999 361.4 262.099 340.9" fill="#845935"/>
</g>
<path d="M117.3 229.7C118.3 232 119.3 234.4 120.3 236.7C120.8 237.9 122.7 237.5 123 236.3C123.9 233 123 229.7 120.7 227.2C119.4 225.8 117.3 227.9 118.6 229.3C120.2 231 120.7 233.3 120.1 235.5C121 235.4 121.9 235.3 122.8 235.1C121.8 232.8 120.8 230.4 119.8 228.1C119.1 226.5 116.5 228 117.3 229.7Z" fill="black"/>
<path d="M150.299 229.299C147.899 232.199 146.999 235.799 147.799 239.499C148.099 240.699 149.499 240.799 150.299 240.199C152.999 237.899 154.499 234.599 154.499 231.099C154.499 229.199 151.499 229.199 151.499 231.099C151.499 233.899 150.299 236.299 148.199 238.099C148.999 238.299 149.899 238.499 150.699 238.799C150.099 236.199 150.699 233.599 152.399 231.599C153.599 229.899 151.499 227.799 150.299 229.299Z" fill="black"/>
<path d="M170.398 126.6C179.511 126.6 186.898 119.212 186.898 110.1C186.898 100.987 179.511 93.5996 170.398 93.5996C161.286 93.5996 153.898 100.987 153.898 110.1C153.898 119.212 161.286 126.6 170.398 126.6Z" fill="black"/>
<path d="M164.198 108.499C167.07 108.499 169.398 106.35 169.398 103.699C169.398 101.048 167.07 98.8994 164.198 98.8994C161.326 98.8994 158.998 101.048 158.998 103.699C158.998 106.35 161.326 108.499 164.198 108.499Z" fill="white"/>
<path d="M170.899 113.699C169.799 114.799 169.599 116.599 170.399 117.999C171.299 119.499 173.299 119.899 174.799 119.099C176.299 118.299 176.999 116.399 176.299 114.799C175.599 113.299 173.699 112.399 172.099 112.999C171.299 113.299 170.799 113.999 171.099 114.799C171.299 115.499 172.199 116.099 172.899 115.799C172.899 115.799 173.299 115.699 173.199 115.699C173.399 115.699 173.299 115.699 173.499 115.799C173.499 115.799 173.699 115.899 173.699 115.999L173.799 116.099C173.799 115.899 173.799 116.099 173.799 116.199C173.899 116.099 173.599 116.399 173.799 116.199C173.499 116.499 173.899 116.099 173.599 116.399H173.399C173.199 116.399 173.399 116.399 173.399 116.499C173.199 116.399 173.299 116.499 173.299 116.299C173.399 116.499 173.199 116.099 173.199 116.099C173.199 116.299 173.199 115.899 173.199 115.899C173.199 116.099 173.299 115.699 173.199 115.899C173.299 115.699 173.099 115.899 173.299 115.699C174.399 114.499 172.299 112.399 170.899 113.699Z" fill="white"/>
<path d="M173.598 115.199C173.598 115.199 173.498 115.199 173.598 115.199C172.698 115.199 171.998 115.899 171.998 116.699C171.998 117.499 172.698 118.199 173.498 118.199H173.598C174.398 118.199 175.098 117.499 175.098 116.699C175.098 115.899 174.398 115.199 173.598 115.199Z" fill="white"/>
<path d="M253.699 130.6C262.812 130.6 270.199 123.212 270.199 114.1C270.199 104.987 262.812 97.5996 253.699 97.5996C244.587 97.5996 237.199 104.987 237.199 114.1C237.199 123.212 244.587 130.6 253.699 130.6Z" fill="black"/>
<path d="M247.499 112.499C250.371 112.499 252.699 110.35 252.699 107.699C252.699 105.048 250.371 102.899 247.499 102.899C244.627 102.899 242.299 105.048 242.299 107.699C242.299 110.35 244.627 112.499 247.499 112.499Z" fill="white"/>
<path d="M254.299 117.699C253.199 118.799 252.999 120.599 253.799 121.999C254.699 123.499 256.699 123.899 258.199 123.099C259.699 122.299 260.399 120.399 259.699 118.799C258.999 117.299 257.099 116.399 255.499 116.999C254.699 117.299 254.199 117.999 254.499 118.799C254.699 119.499 255.599 120.099 256.299 119.799C256.299 119.799 256.699 119.699 256.599 119.699C256.799 119.699 256.699 119.699 256.899 119.799C256.899 119.799 257.099 119.899 257.099 119.999L257.199 120.099C257.199 119.899 257.199 120.099 257.199 120.199C257.299 120.099 256.999 120.399 257.199 120.199C256.899 120.499 257.299 120.099 256.999 120.399H256.799C256.599 120.399 256.799 120.399 256.799 120.499C256.599 120.399 256.699 120.499 256.699 120.299C256.799 120.499 256.599 120.099 256.599 120.099C256.599 120.299 256.599 119.899 256.599 119.899C256.599 120.099 256.699 119.699 256.599 119.899C256.699 119.699 256.499 119.899 256.699 119.699C257.799 118.499 255.699 116.399 254.299 117.699Z" fill="white"/>
<path d="M256.799 122.199C256.899 122.199 256.899 122.199 256.999 122.199C257.799 122.199 258.499 121.499 258.499 120.699C258.499 119.899 257.799 119.199 256.999 119.199C256.899 119.199 256.899 119.199 256.799 119.199C255.999 119.199 255.299 119.899 255.299 120.699C255.299 121.499 255.899 122.199 256.799 122.199Z" fill="white"/>
<path d="M188.999 138.9C198.799 154.4 220.599 154.8 230.999 139.7C232.099 138.1 229.499 136.6 228.399 138.2C219.199 151.4 200.099 150.9 191.499 137.4C190.499 135.8 187.899 137.3 188.999 138.9Z" fill="black"/>
</svg>
