<svg width="406" height="553" viewBox="0 0 406 553" fill="none" xmlns="http://www.w3.org/2000/svg">
<path d="M266.5 320.5C253.5 319.4 240.6 319 227.7 320.9C211.5 323.3 196.2 329.3 180.5 333.8C174.7 335.5 168.9 336.9 163.1 338.2C136.5 344 109 345.9 81.8996 343.5C69.2996 342.4 56.3996 340.3 45.3996 333.9C20.8996 319.6 12.5996 287.2 16.1996 259C16.9996 252.7 18.2996 246.4 17.7996 240.1C16.8996 227.5 9.49964 216.5 5.89964 204.4C-0.700362 182.8 4.99964 159.6 10.7996 137.7C13.6996 126.5 16.9996 114.8 25.0996 106.6C37.2996 94.1997 57.7996 92.3997 68.5996 78.8997C72.5996 73.8997 74.8996 67.7997 78.6996 62.6997C87.7996 50.4997 103.8 45.8997 118.5 42.1997C135.1 37.9997 154.2 34.1997 168.3 43.9997C185.8 25.0997 209.5 5.39967 235.2 3.19967C265 0.599673 290.8 23.0997 309.9 46.1997C314 51.0997 318.3 56.3997 324.4 58.3997C328.5 59.6997 332.9 59.2997 337.1 60.1997C342.8 61.3997 347.7 64.6997 352.2 68.4997C370.5 83.7997 382.6 106.4 385.1 130.1C387.4 151.8 382.2 174.5 389.1 195.3C392.6 205.9 399.1 215.3 401.9 226.1C406.7 244.4 400.1 263.7 391.7 280.6C388.1 287.8 384.2 294.8 378.9 300.8C361.5 320.5 332.6 325.1 306.3 324C293 323.4 279.7 321.6 266.5 320.5Z" fill="#88AF3C"/>
<path d="M184.899 541.4C179.099 545.3 170.499 548.2 165.799 543C170.299 538.7 168.499 530.4 163.399 526.7C158.299 523 151.5 523 145.3 524.4C139.2 525.8 133.399 528.4 127.199 529.5C125.799 529.8 124.299 529.9 122.999 529.3C120.299 528 120.199 523.9 121.899 521.5C123.699 519.1 126.6 517.9 129.3 516.5C145.5 508.5 157.3 493.3 164.2 476.6C171.1 459.9 173.7 441.8 175.2 423.8C176.3 411.1 176.799 398.4 176.899 385.7C176.999 369.1 175.5 350.6 163.2 339.4L162.899 338.2C168.799 336.9 174.599 335.4 180.299 333.8C195.999 329.2 211.299 323.2 227.499 320.9C240.399 319 253.299 319.5 266.299 320.5C248.599 331.2 230.7 346.9 225.2 366.8C222.1 378.2 221.4 390.1 221.7 401.8C222.9 449.4 241 498 277.6 528.4C269.2 532.4 259.699 534.1 250.499 533.1C244.399 532.5 237.799 530.7 232.299 533.4C226.799 536.1 224.999 545.9 230.899 547.7C227.599 552.3 220.1 549.9 216.2 545.8C212.3 541.7 209.299 536.1 203.799 534.5C197.199 532.5 190.599 537.5 184.899 541.4Z" fill="#7E6C39"/>
<path d="M168.2 43.9995C154.2 34.0995 135.1 37.8995 118.4 42.1995C103.6 45.8995 87.5999 50.4995 78.5999 62.6995C74.7999 67.7995 72.4999 73.8995 68.4999 78.8995C57.5999 92.3995 37.0999 94.2995 24.9999 106.6C16.8999 114.8 13.6999 126.6 10.6999 137.7C4.99988 159.6 -0.800118 182.8 5.79988 204.4C9.49988 216.4 16.8999 227.5 17.6999 240.1C18.0999 246.4 16.8999 252.7 16.0999 259C12.4999 287.2 20.7999 319.6 45.2999 333.9C56.1999 340.3 69.0999 342.4 81.7999 343.5C108.9 345.8 136.4 344 163 338.2C168.9 336.9 174.7 335.399 180.4 333.799C196.1 329.199 211.4 323.2 227.6 320.9C240.5 319 253.4 319.5 266.4 320.5C279.6 321.6 292.9 323.4 306.2 324C332.4 325.2 361.3 320.5 378.8 300.799C384.1 294.799 388.1 287.7 391.6 280.6C400 263.7 406.6 244.4 401.8 226.1C399 215.3 392.5 205.9 389 195.3C382.1 174.6 387.4 151.9 385 130.1C382.5 106.4 370.4 83.7995 352.1 68.4995C347.6 64.7995 342.7 61.3995 337 60.1995C332.8 59.2995 328.4 59.6995 324.3 58.3995C318.2 56.4995 313.9 51.1995 309.8 46.1995C290.8 23.0995 264.9 0.499523 235.1 3.19952C209.4 5.49952 185.7 25.0995 168.2 43.9995Z" stroke="black" stroke-width="4" stroke-miterlimit="10" stroke-linecap="round" stroke-linejoin="round"/>
<path d="M266.5 320.5C248.8 331.2 230.9 346.9 225.4 366.8C222.3 378.2 221.6 390.1 221.9 401.8C223.1 449.4 241.2 498 277.8 528.4C269.4 532.4 259.9 534.1 250.7 533.1C244.6 532.5 238 530.7 232.5 533.4C227 536.1 225.2 545.9 231.1 547.7C227.8 552.3 220.3 549.9 216.4 545.8C212.5 541.7 209.5 536.1 204 534.5C197.3 532.5 190.8 537.5 185 541.4C179.2 545.3 170.6 548.2 165.9 543C170.4 538.7 168.6 530.4 163.5 526.7C158.4 523 151.6 523 145.4 524.4C139.3 525.8 133.5 528.4 127.3 529.5C125.9 529.8 124.4 529.9 123.1 529.3C120.4 528 120.3 523.9 122 521.5C123.8 519.1 126.7 517.9 129.4 516.5C145.6 508.5 157.4 493.3 164.3 476.6C171.2 459.9 173.8 441.8 175.3 423.8C176.4 411.1 176.9 398.4 177 385.7C177.1 369.1 175.6 350.6 163.3 339.4" stroke="black" stroke-width="4" stroke-miterlimit="10" stroke-linecap="round" stroke-linejoin="round"/>
<path d="M170.1 255.299C170.9 250.499 172.7 245.299 176.8 242.599C180.9 239.899 187.7 241.099 189.1 245.799C192.1 242.299 195.8 238.799 200.4 238.099C205 237.299 210.4 240.499 210.4 245.199C214.6 240.099 222.4 238.199 228.5 240.899C234.6 243.599 238.5 250.599 237.6 257.199" stroke="black" stroke-width="2" stroke-miterlimit="10" stroke-linecap="round" stroke-linejoin="round"/>
<path d="M299.2 217.4C295.2 216.4 292.9 211.7 293.9 207.7C294.9 203.7 298.7 200.8 302.7 200C306.7 199.2 311 200.3 314.6 202.3C313.1 196 311.9 188.4 316.8 184.1C320.7 180.6 327 181.3 331.5 184C330.1 178.7 334.6 173 340.1 172.1C345.5 171.2 351.1 174.1 354.6 178.3" stroke="black" stroke-width="2" stroke-miterlimit="10" stroke-linecap="round" stroke-linejoin="round"/>
<path d="M80.0998 198C75.6998 194.3 74.3998 187.3 77.1998 182.2C79.9998 177.1 86.5998 174.5 92.0998 176.3C91.8998 171.5 94.5998 166.6 98.8998 164.3C103.2 162 108.7 162.4 112.6 165.2C112.5 160.7 117.4 157.3 121.9 157.9C126.3 158.5 129.9 162 131.8 166" stroke="black" stroke-width="2" stroke-miterlimit="10" stroke-linecap="round" stroke-linejoin="round"/>
<path d="M151.6 79.3994C153.5 74.8994 158.3 71.7994 163.2 71.9994C168.1 72.1994 172.7 75.5994 174.2 80.1994C177.6 77.5994 181.2 74.8994 185.4 74.5994C189.6 74.2994 194.4 77.3994 194.1 81.6994C197.6 77.7994 202.8 75.0994 207.9 76.0994C213 77.0994 217 83.0994 214.9 87.7994" stroke="black" stroke-width="2" stroke-miterlimit="10" stroke-linecap="round" stroke-linejoin="round"/>
<path d="M177 513.9C182.3 507 184.3 498.2 185.8 489.7C189.7 467.9 191.4 445.7 190.9 423.6" stroke="black" stroke-width="4" stroke-miterlimit="10" stroke-linecap="round" stroke-linejoin="round"/>
<path d="M297.6 86.6997C293.3 87.6997 287.4 84.4997 285.7 80.3997C290.2 79.1997 295.1 82.7997 297.6 86.6997Z" fill="#02E200"/>
<path d="M285.8 89.1999C289.9 88.7999 293.1 93.5999 292.6 97.6999C292.1 101.8 289.3 105.3 286.6 108.4C284.1 111.4 281.5 114.3 279 117.3C277.2 119.4 275.4 121.5 272.9 122.6C270.4 123.7 267 123.3 265.5 121C264.5 119.5 264.5 117.5 263.4 116C261.5 113.4 257.5 113.9 254.4 114.5C253.4 114.7 252.2 114.9 251.4 114.2C251 113.8 250.7 113.3 250.6 112.7C248.8 107.2 251.5 101.4 254.1 96.2999C257 92.9999 257.5 88.0999 259.6 84.1999C261.7 80.2999 266.4 76.9999 270.3 78.9999C275 81.3999 275.4 89.9999 280.7 90.1999C282.4 90.2999 284 89.2999 285.8 89.1999Z" fill="#B3120B"/>
<path d="M254.1 96.3995C257 93.0995 257.5 88.1995 259.6 84.2995C261.7 80.3995 266.4 77.0995 270.3 79.0995C275 81.4995 275.4 90.0995 280.7 90.2995C282.4 90.3995 284 89.2995 285.8 89.1995C289.9 88.7995 293.1 93.5995 292.6 97.6995C292.1 101.799 289.3 105.299 286.6 108.399C284.1 111.399 281.5 114.299 279 117.299C277.2 119.399 275.4 121.499 272.9 122.599C270.4 123.699 267 123.299 265.5 120.999C264.5 119.499 264.5 117.499 263.4 115.999C261.5 113.399 257.5 113.899 254.4 114.499C253.4 114.699 252.2 114.899 251.4 114.199C251 113.799 250.7 113.299 250.6 112.699C248.8 107.299 251.5 101.499 254.1 96.3995Z" stroke="black" stroke-width="2" stroke-miterlimit="10" stroke-linecap="round" stroke-linejoin="round"/>
<path d="M277.4 88.3998C282 84.2998 285.6 79.0998 287.8 73.2998" stroke="black" stroke-width="2" stroke-miterlimit="10" stroke-linecap="round" stroke-linejoin="round"/>
<path d="M285.8 80.2996C290.2 79.1996 295.2 82.7996 297.7 86.5996" stroke="black" stroke-width="2" stroke-miterlimit="10" stroke-linecap="round" stroke-linejoin="round"/>
<path d="M285.8 80.2998C287.4 84.3998 293.4 87.6998 297.7 86.5998" stroke="black" stroke-width="2" stroke-miterlimit="10" stroke-linecap="round" stroke-linejoin="round"/>
<path d="M120 244.6C118 248.6 110.6 251.9 106.4 250.5L107.5 249.5C109.5 245.4 115.5 244 120 244.6Z" fill="#02E200"/>
<path d="M114.2 255.199C116.6 251.799 122.2 252.499 125.1 255.599C127.9 258.599 128.7 262.999 129.4 267.099C130 270.999 130.6 274.799 131.2 278.599C131.6 281.299 132.1 284.099 131.2 286.699C130.3 289.299 127.9 291.599 125.2 291.299C123.4 291.099 121.9 289.799 120.1 289.599C116.9 289.299 114.7 292.699 113.1 295.499C112.6 296.399 112 297.399 110.9 297.599C110.3 297.699 109.8 297.499 109.2 297.299C103.9 295.099 101.2 289.299 98.9999 283.999C98.3999 279.599 94.8999 276.099 93.3999 271.999C91.7999 267.899 92.2999 262.099 96.3999 260.499C101.3 258.499 108.1 263.799 111.7 259.899C112.9 258.499 113.2 256.699 114.2 255.199Z" fill="#B3120B"/>
<path d="M99.1 284C98.5 279.6 95 276.1 93.5 272C91.9 267.9 92.4 262.1 96.5 260.5C101.4 258.5 108.2 263.8 111.8 259.9C113 258.6 113.2 256.7 114.2 255.3C116.6 251.9 122.2 252.6 125.1 255.7C127.9 258.7 128.7 263.1 129.4 267.2C130 271.1 130.6 274.9 131.2 278.7C131.6 281.4 132.1 284.2 131.2 286.8C130.3 289.4 127.9 291.7 125.2 291.4C123.4 291.2 121.9 289.9 120.1 289.7C116.9 289.4 114.7 292.8 113.1 295.6C112.6 296.5 112 297.5 110.9 297.7C110.3 297.8 109.8 297.6 109.2 297.4C104 295.2 101.3 289.3 99.1 284Z" stroke="black" stroke-width="2" stroke-miterlimit="10" stroke-linecap="round" stroke-linejoin="round"/>
<path d="M108.2 261.2C108.1 257.6 107.5 254 106.4 250.5C105.7 248.1 104.7 245.7 103.5 243.5" stroke="black" stroke-width="2" stroke-miterlimit="10" stroke-linecap="round" stroke-linejoin="round"/>
<path d="M107.5 249.5C109.6 245.4 115.5 244 120 244.6" stroke="black" stroke-width="2" stroke-miterlimit="10" stroke-linecap="round" stroke-linejoin="round"/>
<path d="M106.4 250.5C110.6 251.9 118 248.6 120 244.6" stroke="black" stroke-width="2" stroke-miterlimit="10" stroke-linecap="round" stroke-linejoin="round"/>
<path d="M251.5 171.2C247.2 172.2 241.3 169 239.6 164.9C244 163.7 249 167.3 251.5 171.2Z" fill="#02E200"/>
<path d="M239.6 173.7C243.7 173.3 246.9 178.1 246.4 182.2C245.9 186.3 243.1 189.8 240.4 192.9C237.9 195.9 235.3 198.8 232.8 201.8C231 203.9 229.2 206 226.7 207.1C224.2 208.2 220.8 207.8 219.3 205.5C218.3 204 218.3 202 217.2 200.5C215.3 197.9 211.3 198.4 208.2 199C207.2 199.2 206 199.4 205.2 198.7C204.8 198.3 204.5 197.8 204.4 197.2C202.6 191.7 205.3 185.9 207.9 180.8C210.8 177.5 211.3 172.6 213.4 168.7C215.5 164.8 220.2 161.5 224.1 163.5C228.8 165.9 229.2 174.5 234.5 174.7C236.3 174.8 237.9 173.8 239.6 173.7Z" fill="#B3120B"/>
<path d="M207.9 180.899C210.8 177.599 211.3 172.699 213.4 168.799C215.5 164.899 220.2 161.599 224.1 163.599C228.8 165.999 229.2 174.599 234.5 174.799C236.2 174.899 237.8 173.799 239.6 173.699C243.7 173.299 246.9 178.099 246.4 182.199C245.9 186.299 243.1 189.799 240.4 192.899C237.9 195.899 235.3 198.799 232.8 201.799C231 203.899 229.2 205.999 226.7 207.099C224.2 208.199 220.8 207.799 219.3 205.499C218.3 203.999 218.3 201.999 217.2 200.499C215.3 197.899 211.3 198.399 208.2 198.999C207.2 199.199 206 199.399 205.2 198.699C204.8 198.299 204.5 197.799 204.4 197.199C202.6 191.799 205.3 185.999 207.9 180.899Z" stroke="black" stroke-width="2" stroke-miterlimit="10" stroke-linecap="round" stroke-linejoin="round"/>
<path d="M231.2 172.9C235.8 168.8 239.4 163.6 241.6 157.8" stroke="black" stroke-width="2" stroke-miterlimit="10" stroke-linecap="round" stroke-linejoin="round"/>
<path d="M239.6 164.8C244 163.7 249 167.3 251.5 171.1" stroke="black" stroke-width="2" stroke-miterlimit="10" stroke-linecap="round" stroke-linejoin="round"/>
<path d="M239.6 164.8C241.2 168.9 247.2 172.2 251.5 171.1" stroke="black" stroke-width="2" stroke-miterlimit="10" stroke-linecap="round" stroke-linejoin="round"/>
<path d="M350.9 265.899C346.8 264.299 342.7 257.299 343.7 252.999C348 254.599 351.1 261.299 350.9 265.899Z" fill="#02E200"/>
<path d="M339.8 261.099C343.4 263.099 343.3 268.799 340.5 271.999C337.8 275.099 333.5 276.299 329.5 277.399C325.7 278.399 322 279.399 318.2 280.399C315.6 281.099 312.8 281.799 310.1 281.199C307.4 280.599 304.9 278.399 305 275.699C305 273.899 306.2 272.199 306.1 270.399C306 267.199 302.5 265.299 299.5 264.099C298.5 263.699 297.5 263.199 297.2 262.199C297 261.599 297.2 261.099 297.3 260.499C299 254.999 304.5 251.699 309.6 248.999C313.9 247.999 317.1 244.199 321 242.199C324.9 240.199 330.7 240.099 332.8 244.099C335.3 248.799 330.7 256.099 334.9 259.199C336.4 260.199 338.3 260.299 339.8 261.099Z" fill="#B3120B"/>
<path d="M309.6 248.999C313.9 247.999 317.1 244.199 321 242.199C324.9 240.199 330.7 240.099 332.8 244.099C335.3 248.799 330.7 256.099 334.9 259.199C336.3 260.199 338.2 260.299 339.7 261.199C343.3 263.199 343.2 268.899 340.4 272.099C337.7 275.199 333.4 276.399 329.4 277.499C325.6 278.499 321.9 279.499 318.1 280.499C315.5 281.199 312.7 281.899 310 281.299C307.3 280.699 304.8 278.499 304.9 275.799C304.9 273.999 306.1 272.299 306 270.499C305.9 267.299 302.4 265.399 299.4 264.199C298.4 263.799 297.4 263.299 297.1 262.299C296.9 261.699 297.1 261.199 297.2 260.599C299 254.999 304.5 251.699 309.6 248.999Z" stroke="black" stroke-width="2" stroke-miterlimit="10" stroke-linecap="round" stroke-linejoin="round"/>
<path d="M333.3 255.699C336.9 255.199 340.4 254.299 343.8 252.899C346.1 251.899 348.4 250.699 350.5 249.299" stroke="black" stroke-width="2" stroke-miterlimit="10" stroke-linecap="round" stroke-linejoin="round"/>
<path d="M343.7 252.899C348 254.499 351 261.299 350.9 265.799" stroke="black" stroke-width="2" stroke-miterlimit="10" stroke-linecap="round" stroke-linejoin="round"/>
<path d="M343.7 252.899C342.7 257.199 346.8 264.199 350.9 265.799" stroke="black" stroke-width="2" stroke-miterlimit="10" stroke-linecap="round" stroke-linejoin="round"/>
<g opacity="0.67">
<path opacity="0.67" d="M136.6 48.6998C142.2 45.7998 149.2 52.3998 148.4 58.6998C147.6 64.9998 141.7 69.4998 135.6 71.3998C129.5 73.2998 123.1 73.2998 116.9 74.5998C91.4 80.1998 76.8 106.2 65.3 129.6C60.9 138.6 56.4 148 56.3 158.1C56.2 171.4 63.8 183.5 66.7 196.6C70.6 213.8 66.1 231.5 64.5 249.1C62.9 266.6 65.3 286.5 79 297.6C95.1 310.7 118.6 305.8 139.2 303.3C158.9 300.9 178.8 301.3 198.4 304.6C200.9 305 203.6 305.5 205.6 307.1C210.2 310.7 209.2 318.4 205.1 322.6C201 326.8 195 328.3 189.3 329.6C167.4 334.5 145.2 337.9 122.8 340C104.1 341.7 85 342.5 67 337.4C49 332.3 32 320.4 24.9 303.1C17.9 286.3 21 267.2 20.4 249C19.5 223.6 11 199 8.70003 173.6C6.40003 148.2 12.1 119.7 32.8 104.8C39.3 100.1 46.9 97.0998 53.5 92.4998C60.7 87.3998 69.4 84.4998 75.9 78.4998C93.5 62.2998 113.9 48.6998 137.8 47.7998" fill="#6D9D36"/>
</g>
<path d="M104.5 91.9996C102 95.6996 94.1997 97.9996 90.1997 95.9996L91.3997 95.1996C94.0997 91.3996 100.1 90.7996 104.5 91.9996Z" fill="#02E200"/>
<path d="M97.3999 101.699C100.2 98.5992 105.7 100.099 108.1 103.499C110.5 106.899 110.7 111.299 110.8 115.499C110.9 119.399 111 123.299 111.1 127.199C111.2 129.899 111.2 132.799 110 135.199C108.8 137.699 106.1 139.599 103.4 138.899C101.7 138.399 100.3 136.899 98.4999 136.599C95.2999 135.899 92.6999 138.899 90.7999 141.499C90.1999 142.299 89.3999 143.299 88.3999 143.299C87.7999 143.299 87.2999 143.099 86.7999 142.799C81.7999 139.899 79.9999 133.799 78.4999 128.199C78.4999 123.799 75.5999 119.799 74.4999 115.499C73.4999 111.199 74.7999 105.599 78.9999 104.499C84.0999 103.199 90.0999 109.299 94.1999 105.899C95.6999 104.799 96.1999 102.999 97.3999 101.699Z" fill="#B3120B"/>
<path d="M78.4999 128.199C78.4999 123.799 75.5999 119.799 74.4999 115.499C73.4999 111.199 74.7999 105.599 78.9999 104.499C84.0999 103.199 90.0999 109.299 94.1999 105.899C95.4999 104.799 96.0999 102.999 97.1999 101.699C99.9999 98.5992 105.5 100.099 107.9 103.499C110.3 106.899 110.5 111.299 110.6 115.499C110.7 119.399 110.8 123.299 110.9 127.199C111 129.899 111 132.799 109.8 135.199C108.6 137.699 105.9 139.599 103.2 138.899C101.5 138.399 100.1 136.899 98.2999 136.599C95.0999 135.899 92.4999 138.899 90.5999 141.499C89.9999 142.299 89.1999 143.299 88.1999 143.299C87.5999 143.299 87.0999 143.099 86.5999 142.799C81.8999 139.899 79.9999 133.799 78.4999 128.199Z" stroke="black" stroke-width="2" stroke-miterlimit="10" stroke-linecap="round" stroke-linejoin="round"/>
<path d="M90.5999 106.8C90.9999 103.2 90.8999 99.4996 90.2999 95.9996C89.8999 93.4996 89.1999 90.9996 88.3999 88.5996" stroke="black" stroke-width="2" stroke-miterlimit="10" stroke-linecap="round" stroke-linejoin="round"/>
<path d="M91.5 95.1996C94.1 91.3996 100.2 90.7996 104.6 91.9996" stroke="black" stroke-width="2" stroke-miterlimit="10" stroke-linecap="round" stroke-linejoin="round"/>
<path d="M90.2998 96C94.2998 98 102 95.7 104.6 92" stroke="black" stroke-width="2" stroke-miterlimit="10" stroke-linecap="round" stroke-linejoin="round"/>
<g opacity="0.52">
<path opacity="0.52" d="M175.5 343.099C184.8 340.599 194.2 337.999 203.5 335.499C204.6 335.199 205.8 334.899 206.8 335.299C209.6 336.299 209 340.499 207.9 343.199C188.9 391.399 197.8 446.299 184.1 496.199C182.2 503.199 179.5 510.599 173.7 514.899C161 524.399 140.5 514.799 128 524.599C128.8 518.899 134.4 515.399 139.2 512.099C164.7 494.799 178.3 463.899 181.9 433.299C185.5 402.699 180.3 371.799 175.1 341.499" fill="#56452B"/>
</g>
</svg>
