<svg width="23" height="32" viewBox="0 0 23 32" fill="none" xmlns="http://www.w3.org/2000/svg">
<path d="M8.96442 30.4256C6.92449 28.1349 -0.322307 19.4115 2.09539 9.60183C2.66204 7.31122 3.73237 2.95513 7.98223 1.05285C11.7599 -0.635557 17.0927 0.0566908 19.7559 2.80317C21.5188 4.62665 21.6951 6.91163 21.714 8.72386C21.7707 12.6241 21.2166 19.8223 16.8093 29.7671C16.2793 30.291 15.6376 30.7151 14.9219 31.0147C14.2063 31.3143 13.4309 31.4832 12.6413 31.5118C11.3126 31.5375 10.0144 31.154 8.96442 30.4256V30.4256Z" fill="#3A7867"/>
<path d="M8.93795 30.4481C7.88369 29.2725 6.91222 28.0395 6.02915 26.7561C5.13554 25.4739 4.33634 24.141 3.63664 22.7658C2.20368 20.0024 1.42761 17.0032 1.35746 13.958C1.34603 13.2062 1.38387 12.4545 1.47079 11.7068C1.57152 10.9526 1.76041 10.2041 1.91151 9.45554C2.26228 7.96373 2.80527 6.51328 3.52961 5.13321C4.26175 3.75294 5.35965 2.55324 6.72802 1.6382C8.12059 0.751223 9.75302 0.213002 11.4564 0.0792362C13.1614 -0.0844807 14.8857 0.108186 16.4933 0.642039C17.2973 0.89729 18.0596 1.24745 18.7598 1.68323C19.4594 2.15238 20.0659 2.7231 20.5542 3.37164C21.4598 4.69872 21.9512 6.21843 21.9771 7.77276C22.0518 9.28663 22.0287 10.8031 21.9079 12.3146C21.6494 15.332 21.0911 18.3229 20.2394 21.2519C19.375 24.1758 18.2767 27.0403 16.9529 29.8234V29.8234C15.9313 30.7904 14.5499 31.3908 13.0682 31.5118C11.5902 31.6398 10.1132 31.2594 8.93795 30.4481V30.4481ZM8.98202 30.4087C9.55044 30.7923 10.1897 31.0837 10.8708 31.2698C11.5612 31.4491 12.284 31.5064 12.9989 31.4386C14.4244 31.2823 15.7333 30.6561 16.6695 29.6827V29.7221C18.9487 24.0941 20.7431 18.2522 21.2657 12.2752C21.4019 10.7871 21.444 9.29326 21.3916 7.8009C21.3851 6.33116 20.9512 4.88819 20.1324 3.61364C19.6823 3.00687 19.1301 2.46584 18.4954 2.00965C17.8431 1.56628 17.1274 1.20286 16.3673 0.929069C14.8166 0.378918 13.1438 0.159248 11.4816 0.287473C10.65 0.347009 9.83075 0.504065 9.04498 0.7546C8.25642 0.993841 7.51332 1.33925 6.84135 1.7789C5.51268 2.68631 4.4587 3.87609 3.77515 5.24014C3.11342 6.61156 2.63171 8.0469 2.33965 9.51745C2.21372 10.2547 2.05632 10.9864 1.98707 11.7236C1.90516 12.4717 1.87782 13.2237 1.90522 13.9748C1.90522 14.3407 1.90522 14.7177 1.94929 15.1005L2.08151 16.2261C2.11729 16.6039 2.17614 16.9796 2.2578 17.3517C2.33335 17.7175 2.39631 18.0889 2.48446 18.4491C2.86258 19.9041 3.35489 21.3334 3.95774 22.7264C4.588 24.1159 5.3221 25.466 6.15508 26.7674C7.01093 28.0258 7.95513 29.2345 8.98202 30.3862V30.4087Z" fill="#231F20"/>
<path d="M16.4951 9.28108C14.5433 4.30027 9.48756 2.3586 10.4509 0.895313C11.4142 -0.567976 16.961 -0.106477 19.7565 2.71317C21.5823 4.55916 21.7146 6.92856 21.7146 8.63386C21.7146 16.4512 18.9569 24.5556 16.8099 29.7671C16.3242 30.2793 15.7208 30.692 15.0407 30.9771C14.1089 31.3599 12.5223 31.6975 11.9241 31.3317C9.5883 29.9585 20.1468 18.5673 16.4951 9.28108Z" fill="#1E6F5D"/>
<path d="M16.4775 9.2867C15.6997 7.42889 14.4819 5.74327 12.9076 4.34528C12.1583 3.61927 11.3336 2.96642 10.6347 2.16723C10.4599 1.95972 10.3296 1.72499 10.2506 1.47499C10.2158 1.34013 10.2188 1.19966 10.2595 1.0661C10.3001 0.932546 10.3771 0.810062 10.4836 0.709574C10.898 0.340168 11.4434 0.111319 12.0261 0.0623501C13.1457 -0.0680765 14.2832 0.00660454 15.3694 0.281843C16.4568 0.538756 17.4873 0.95937 18.4167 1.52564C19.3509 2.09358 20.1281 2.84419 20.6895 3.72057C21.2197 4.60462 21.5552 5.57134 21.678 6.56836C21.7985 7.56256 21.8301 8.56378 21.7725 9.56247C21.7725 10.553 21.6654 11.5435 21.5584 12.5284C21.348 14.495 21.0243 16.4505 20.5888 18.3872C19.701 22.2755 18.4866 26.0983 16.956 29.8234V29.8234C16.5224 30.2836 15.9946 30.6657 15.4008 30.949C14.8075 31.2227 14.1704 31.4126 13.512 31.5118C13.1791 31.5749 12.8378 31.5958 12.4983 31.5737C12.3171 31.5859 12.135 31.5648 11.9632 31.5118C11.8723 31.4743 11.7909 31.4207 11.7239 31.3542C11.6484 31.2943 11.5901 31.219 11.5539 31.1347C11.4324 30.8314 11.4106 30.5033 11.491 30.1892C11.5451 29.894 11.6294 29.6039 11.7428 29.3225C12.1583 28.1969 12.7061 27.1388 13.2224 26.0695C13.7387 25.0002 14.2675 23.9308 14.7586 22.8559C15.776 20.7136 16.5236 18.4768 16.9874 16.1867C17.4604 13.8845 17.2851 11.5133 16.4775 9.2867V9.2867ZM16.4775 9.2867C17.2895 11.5209 17.4925 13.8963 17.0693 16.2148C16.6598 18.5299 15.9564 20.7958 14.9727 22.9684C14.0598 25.1577 12.8446 27.2457 12.0009 29.4294C11.897 29.6972 11.817 29.972 11.7617 30.2511C11.6936 30.5063 11.7067 30.7733 11.7995 31.0222C11.8648 31.1282 11.9617 31.216 12.0796 31.2756C12.1974 31.3352 12.3315 31.3644 12.4669 31.3598C12.7768 31.3772 13.0879 31.3583 13.3924 31.3036C14.0199 31.1949 14.6265 31.0053 15.1931 30.7408C15.7538 30.471 16.2551 30.1125 16.6726 29.6827L16.6412 29.7221C18.2147 26.0236 19.4774 22.2254 20.4188 18.3591C21.416 14.5041 21.7745 10.539 21.4829 6.59087C21.3502 5.61739 21.0104 4.67558 20.4818 3.81625C19.9298 2.97257 19.1696 2.25266 18.2593 1.71136C17.3513 1.17119 16.3492 0.769864 15.2938 0.523849C14.2468 0.247553 13.1477 0.165203 12.0639 0.281843C11.5371 0.324918 11.0412 0.522836 10.6536 0.844647C10.5655 0.922623 10.5008 1.01921 10.4656 1.12546C10.4304 1.23171 10.4258 1.34419 10.4521 1.45247C10.5131 1.68106 10.6267 1.89575 10.7858 2.08281C11.4154 2.87074 12.2591 3.5461 12.9894 4.289C14.5337 5.71711 15.7319 7.41463 16.5089 9.27544L16.4775 9.2867Z" fill="#231F20"/>
<path d="M4.01668 7.23814C2.75746 7.40698 2.32933 13.1982 3.75854 18.4379C5.35774 24.308 9.26132 29.4182 10.1113 29.1762C10.6779 29.0186 10.0043 26.4635 9.72723 25.4111C8.38616 20.3121 6.14476 19.8618 5.94958 16.5525C5.78588 13.8173 7.24657 13.0069 6.33993 10.3617C5.84884 8.94906 4.75962 7.13683 4.01668 7.23814Z" fill="#1E6F5D"/>
<path d="M4.01738 7.24939C3.89075 7.29317 3.77683 7.36197 3.68416 7.45066C3.59148 7.53935 3.52244 7.64563 3.48221 7.76154C3.37082 7.988 3.28436 8.22361 3.22407 8.46505C3.09996 8.94619 3.01995 9.43557 2.98482 9.92834C2.91241 10.9159 2.91241 11.9067 2.98482 12.8943C3.12029 14.8643 3.45322 16.8194 3.9796 18.7362C4.50784 20.6573 5.25686 22.5245 6.21471 24.308C6.69319 25.202 7.2336 26.0686 7.83281 26.9025C8.13502 27.3133 8.46242 27.7185 8.78981 28.1069C9.10008 28.5018 9.49623 28.8368 9.95459 29.0918C10.1812 29.1818 10.2253 28.8892 10.2316 28.6641C10.2345 28.4192 10.2155 28.1746 10.175 27.9324C10.1057 27.4484 9.99237 26.9644 9.87274 26.4804C9.63795 25.5184 9.34795 24.5679 9.00388 23.6326C8.63827 22.7042 8.17886 21.8075 7.63133 20.9537C7.02669 20.112 6.52235 19.216 6.12657 18.2803C5.95385 17.7963 5.84606 17.2957 5.80547 16.7889C5.74246 16.2877 5.74246 15.7818 5.80547 15.2806C5.93139 14.2732 6.37841 13.3389 6.48544 12.3709C6.54969 11.3872 6.35339 10.4038 5.9125 9.50061C5.71414 9.03997 5.4675 8.59714 5.17586 8.17802C5.03066 7.97809 4.86634 7.78978 4.68476 7.61521C4.60725 7.51683 4.50807 7.43363 4.39331 7.37073C4.27855 7.30782 4.15062 7.26653 4.01738 7.24939V7.24939ZM4.01738 7.22125C4.15883 7.22846 4.297 7.26226 4.42285 7.32045C4.5487 7.37864 4.6594 7.4599 4.74772 7.55893C4.93529 7.74187 5.10388 7.93967 5.25141 8.14988C5.549 8.57136 5.80799 9.01367 6.02583 9.47247C6.51009 10.3776 6.74333 11.3737 6.70581 12.3765C6.62396 13.3896 6.21471 14.3295 6.12657 15.2975C6.01369 16.2668 6.11858 17.2465 6.43508 18.179C6.8318 19.0995 7.3273 19.9835 7.91466 20.8186C8.46423 21.6904 8.92163 22.6061 9.28091 23.5538C9.62297 24.5022 9.90051 25.4682 10.112 26.4466C10.219 26.9363 10.3198 27.4259 10.3827 27.9268C10.4142 28.1828 10.4289 28.4403 10.4268 28.6978C10.4204 28.8319 10.3929 28.9646 10.3449 29.0918C10.3109 29.1685 10.2457 29.2308 10.1624 29.2663C10.0777 29.2975 9.9826 29.2975 9.89792 29.2663C9.6372 29.1498 9.40581 28.9871 9.21795 28.7879C9.02582 28.6095 8.84505 28.4216 8.67648 28.2251C8.33649 27.8255 8.04687 27.4146 7.72577 26.9925C7.14024 26.1483 6.61766 25.3041 6.12027 24.3868C5.12549 22.6079 4.3243 20.7478 3.72776 18.8319C3.15846 16.8938 2.84364 14.9031 2.78964 12.8999C2.75169 11.9064 2.78956 10.9117 2.90297 9.92271C2.94615 9.42295 3.0282 8.92648 3.14852 8.43691C3.21309 8.19331 3.30375 7.95584 3.41925 7.72778C3.4682 7.60862 3.54697 7.50103 3.64954 7.41325C3.75211 7.32546 3.87578 7.25979 4.01108 7.22125H4.01738Z" fill="#231F20"/>
<path d="M5.03057 0.822144L5.64759 4.27776L8.58157 1.98152L6.14498 4.57604L10.0549 4.77865L6.08202 4.94749L8.58157 7.57578L5.58463 5.53844L5.03057 8.72953L4.73466 5.53844L1.47328 7.57578L4.26875 4.99252L0 4.77865L4.11135 4.62669L1.47328 1.98152L4.62133 4.29464L5.03057 0.822144Z" fill="#F7A49D"/>
<path d="M19.2475 6.64722L19.5749 7.86287L20.9348 8.1499L19.5749 8.44256L19.2475 9.65821L18.9264 8.44256L17.5664 8.1499L18.9264 7.86287L19.2475 6.64722Z" fill="#FAF28A" stroke="#231F20" stroke-width="0.5" stroke-miterlimit="10"/>
<path d="M6.59121 17.4755L6.91861 18.6911L8.27856 18.9781L6.91861 19.2652L6.59121 20.4865L6.27011 19.2652L4.91016 18.9781L6.27011 18.6911L6.59121 17.4755Z" fill="#FAF28A" stroke="#231F20" stroke-width="0.5" stroke-miterlimit="10"/>
<path d="M17.8553 22.8953L18.1764 24.111L19.5427 24.4036L18.1764 24.6907L17.8553 25.9063L17.5342 24.6907L16.168 24.4036L17.5342 24.111L17.8553 22.8953Z" fill="#FAF28A" stroke="#231F20" stroke-width="0.5" stroke-miterlimit="10"/>
<path d="M16.1671 1.40186L16.3623 2.12787L17.1745 2.29671L16.3623 2.47118L16.1671 3.1972L15.9782 2.47118L15.166 2.29671L15.9782 2.12787L16.1671 1.40186Z" fill="#FAF28A" stroke="#231F20" stroke-width="0.5" stroke-miterlimit="10"/>
</svg>
