<?xml version="1.0" encoding="utf-8"?>
<!-- Generator: Adobe Illustrator 19.0.0, SVG Export Plug-In . SVG Version: 6.00 Build 0)  -->
<svg version="1.1" id="Layer_1" xmlns="http://www.w3.org/2000/svg" xmlns:xlink="http://www.w3.org/1999/xlink" x="0px" y="0px"
	 viewBox="0 0 600 600" style="enable-background:new 0 0 600 600;" xml:space="preserve">
<style type="text/css">
	.st0{fill:#E8E325;}
	.st1{fill:#23FFCE;}
	.st2{fill:#D8D6C3;}
	.st3{fill:#D8D8CE;}
	.st4{fill:#8B57AD;}
	.st5{fill:#E2E1CF;}
	.st6{fill:none;stroke:#000000;stroke-width:5;stroke-linecap:round;stroke-linejoin:round;stroke-miterlimit:10;}
	.st7{opacity:0.57;}
	.st8{fill:#FFFFFF;}
	.st9{opacity:0.81;}
	.st10{fill:#C1C1B9;}
	.st11{opacity:0.66;}
	.st12{opacity:0.77;}
	.st13{fill:#734A93;}
	.st14{opacity:0.43;}
	.st15{opacity:0.75;}
	.st16{fill:#CCC42E;}
</style>
<g id="XMLID_68_">
	<g id="XMLID_41_">
		<g id="XMLID_10_">
			<path id="XMLID_38_" class="st0" d="M572.4,385.3c1,7.8-6.2,14-12.6,18.6c-50.9,36.8-101.8,73.6-152.8,110.3
				c-7.6,5.5-15.5,11.2-24.7,13.2c-8.1,1.8-16.6,0.7-24.8-0.6c-33.4-5.3-66.2-14-98.9-22.2c-57.4-14.5-115-27.9-172.8-40.2
				c-4.4-0.9-9-2-12.6-4.8c-2.6-2-4.4-4.7-6.1-7.5c-9.3-14.9-16.8-31.9-16-49.5c0.8-17.6,11.7-35.6,28.7-40.1l0-0.1
				c3.8,2,7.6,4,11.5,6c-17.1,14.2-24.5,39-18,60.3c1,3.2,2.3,6.5,5,8.5c1.9,1.4,4.2,2.1,6.5,2.8c8.1,2.3,16.2,4.6,24.3,6.9
				c8.9,2.6,17.9,5.1,27,7c8.8,1.8,17.8,3,26.7,4.7c30.2,5.5,59.3,15.9,89.2,23c18.9,4.5,38.1,7.8,57.2,11
				c12.7,2.1,25.4,4.3,38.1,6.4c14,2.4,28.1,4.8,42.4,5.1l0.9-0.5c0.3,0.2,0.6,0.5,1,0.7C440,461,494,424.2,547.8,387.6
				c-1.9-4.7-3.4-9.6-4.4-14.6l1.4-0.3c5.6-0.4,11.4-0.8,16.7,0.9C566.8,375.4,571.7,379.7,572.4,385.3z"/>
			<path id="XMLID_37_" class="st0" d="M560.6,299.4c0,1.8-1.4,3.3-2.7,4.5c-1.5,1.4-3,2.8-4.6,4.2c-14.4,13-29.9,24.9-46.2,35.4
				l-2.8,0.6c-1.2-1.7-3-3.2-4.7-4.5c-6.3-4.7-12.6-9.3-19-13.8l-1,0.2c-2-12.6,3.7-26.5,14.8-33l-0.5-2.5c1.4-0.3,2.9-0.5,4.3-0.8
				c3.2-0.6,6.9-1.6,8.5-4.2l0.2,0.1c12.4,2.6,25,4.6,37.6,6c4.9,0.5,10.2,1.1,14,4.2C559.6,296.7,560.5,298,560.6,299.4z"/>
			<path id="XMLID_36_" class="st1" d="M537.6,168.9c-46.3,14.6-93.6,25.8-141.4,33.5c-20.5,3.3-41.1,6-60.8,12.6
				c-10.3,3.4-21.8,6.1-32.9,6.1c-2.3,0-4.5-0.1-6.7-0.3c-54.7-24.1-109.3-48.3-164-72.4c-7.1-3.1-15.6-6.1-22-1.8
				c-3.3,2.2-5.2,6-6.5,9.8c-3.6,10.4-3.6,21.7-2.7,32.7c0.9,11.2,3,22.9,9.9,31.8c8.3,10.9,22.1,15.8,35.1,20
				c39.1,12.6,78.6,23.7,118.5,33.2c12.3,2.9,24.7,5.7,37.3,5.7c0.1,0,0.1,0,0.2,0c11.3-0.1,22.5-2.4,33.5-4.7
				c61.5-13.1,122.8-27.1,184-42.1c2.2-0.5,4.6-1.3,5.7-3.2c0.9-1.6,0.6-3.5,0.4-5.3c-0.7-5.9-0.8-11.9-0.3-17.8l1.7,0.2
				c6.8,5.4,13.7,10.8,20.5,16.1c3.8,3,8,7.4,6.2,11.8c-1.4,3.4-5.5,4.6-9.1,5.4c-24.5,5.1-48.9,10.3-73.4,15.4
				c-53.2,11.2-106.3,22.4-159.5,33.6c-9.7,2-19.6,4.1-29.5,4.1c-7.8,0-15.5-1.4-23.1-2.9c-49.7-9.7-98-26.8-142.8-50.5
				c-7.4-3.9-15.2-8.5-18.9-16c-0.5-1-0.9-2-1.2-3c-1.7-5.2-1.7-11-2.1-16.6c-1.3-20.9-7.4-44.3,5.3-60.9
				c10.3-13.6,29.1-16.9,46-19.2c72.9-10,145.5-21.2,218-33.7c8.3-1.4,16.6-2.8,25-2.3c7.3,0.5,14.5,2.4,21.6,4.4
				c10.5,2.9,21,5.8,31.4,9c38,11.8,74.5,28.5,108.4,49.3c4,2.5,8.6,7.3,5.9,11.2c-1.1,1.6-3,2.2-4.8,2.8
				C546,166.2,541.8,167.6,537.6,168.9z"/>
			<path id="XMLID_33_" class="st2" d="M553.3,308l0.4,0.5c-11.4,19.2-15,42.7-10.4,64.5c1,5,2.5,9.9,4.4,14.6
				C494,424.2,440,461,391.6,504.6c-0.3-0.2-0.6-0.5-1-0.7c-9.8-7.4-14.9-19.9-15.9-32.2c-1-12.5,1.6-24.9,4.6-37
				c1.1-0.6,2.1-1.2,3.2-1.8c35.2-20.2,68.4-43.7,99.1-70.1l-0.1-0.4c2.8-0.6,5.6-1.1,8.4-1.7c7.7-1.6,17.6-6.4,15.6-14
				c-0.3-1-0.7-1.8-1.2-2.6l2.8-0.6C523.5,332.9,538.9,321.1,553.3,308z"/>
			<path id="XMLID_30_" class="st3" d="M525.1,224.4c0.2,1.8,0.5,3.7-0.4,5.3c-1.1,2-3.5,2.7-5.7,3.2c-61.1,15-122.4,29-184,42.1
				c-11.1,2.4-22.2,4.7-33.5,4.7c-0.1,0-0.1,0-0.2,0v-1.9c-6-17.9-5.6-37.8,1.1-55.4l0-1.3c11.1,0,22.6-2.7,32.9-6.1
				c19.7-6.6,40.4-9.3,60.8-12.6c47.9-7.8,95.2-19,141.4-33.5c-7.1,11.3-11.5,24.4-12.7,37.7C524.3,212.5,524.4,218.5,525.1,224.4z"
				/>
			<path id="XMLID_29_" class="st4" d="M91.3,368.6c-3.8-2-7.6-4-11.5-6c-8.7-4.5-17.3-9-26-13.5c-8.1-4.2-16.4-8.5-22.6-15.2
				c-5.9-6.3-9.7-14.2-12.4-22.4c-6.1-19-6.5-39.8-0.9-59c1.4-5,3.4-10.1,7.3-13.5c4.2-3.8,10-5.1,15.5-6.3
				c18.3-3.9,36.5-7.9,54.7-11.8l0.2,0c0.3,1,0.7,2,1.2,3c3.7,7.5,11.5,12.1,18.9,16c44.8,23.7,93.1,40.7,142.8,50.5
				c7.6,1.5,15.4,2.8,23.1,2.9c9.9,0,19.8-2,29.5-4.1c53.2-11.2,106.3-22.4,159.5-33.6l0.2,1c11.2,4.4,21.7,10.4,31.2,17.8
				c3.1,2.4,6.4,5.9,5.3,9.7c-0.1,0.5-0.4,1-0.7,1.4c-1.7,2.6-5.3,3.6-8.5,4.2c-1.4,0.3-2.9,0.5-4.3,0.8
				c-33.8,6.3-67.6,12.6-101.4,18.9c-63.1,11.7-126.3,23.5-189.4,35.2c-0.2,0-0.4,0.1-0.6,0.1l-0.3-0.1c-7.4-3.3-14.8-6.7-22.2-10
				c-31.8-14.3-63.9-28.9-91.2-50.5c-13.3-10.6-26.5-23.3-43.3-25.6c-1.9-0.3-4-0.4-5.8,0.5c-2.6,1.3-3.6,4.4-4.5,7.2
				c-4.9,16.7-9.2,36.5,1.7,50.1c3.9,4.8,9.2,8.1,14.5,11.2c39.2,23.8,79.2,46.3,119.8,67.5c4.7,2.5,9.5,4.9,14.7,6
				c3.2,0.6,6.3,0.7,9.5,0.4c5.4-0.4,10.8-1.9,16-3.3c87-23.1,175.4-40.8,264.6-52.7c3.8-0.5,8.6-2.3,8.3-6
				c-0.1-1.2-0.8-2.3-1.4-3.4c-1.8-3.1-2.9-6.4-3.4-9.9l1-0.2c6.4,4.5,12.8,9.1,19,13.8c1.7,1.3,3.5,2.7,4.7,4.5
				c0.5,0.8,1,1.7,1.2,2.6c2,7.6-7.9,12.4-15.6,14c-2.8,0.6-5.6,1.1-8.4,1.7c-78.9,16.2-157.8,32.4-236.7,48.5
				c-8.7,1.8-17.4,3.6-26,5.3c-8.8,1.8-17.8,3.6-26.6,2.1c-7.6-1.3-14.7-4.9-21.5-8.5C144.3,396.2,117.8,382.4,91.3,368.6z"/>
			<path id="XMLID_28_" class="st5" d="M493.9,290.5l0.5,2.5c-11.1,6.5-16.8,20.4-14.8,33c0.5,3.5,1.7,6.8,3.4,9.9
				c0.6,1.1,1.3,2.2,1.4,3.4c0.3,3.8-4.5,5.5-8.3,6c-89.2,12-177.6,29.6-264.6,52.7c-5.3,1.4-10.6,2.8-16,3.3l-0.2-2.4
				c-7.9-17.6-4.7-39.6,7.8-54.4c63.1-11.7,126.3-23.4,189.4-35.2C426.3,303,460.1,296.7,493.9,290.5z"/>
			<path id="XMLID_25_" class="st0" d="M379.4,434.6c-2.5,1.3-5.1,2.4-7.9,2.9c-4.2,0.7-8.5-0.3-12.6-1.2
				c-37.9-8.3-75.9-16.7-113.8-25l-0.1-0.4c78.9-16.2,157.8-32.4,236.7-48.5l0.1,0.4c-30.8,26.4-64,49.9-99.1,70.1
				C381.5,433.5,380.5,434.1,379.4,434.6z"/>
			<path id="XMLID_22_" class="st2" d="M390.7,503.9l-0.9,0.5c-14.2-0.4-28.3-2.8-42.4-5.1c-12.7-2.1-25.4-4.3-38.1-6.4
				c-19.2-3.2-38.4-6.5-57.2-11c-29.9-7.1-59-17.5-89.2-23c-8.9-1.6-17.8-2.8-26.7-4.7c-9.1-1.9-18.1-4.4-27-7
				c-8.1-2.3-16.2-4.6-24.3-6.9c-2.3-0.6-4.6-1.3-6.5-2.8c-2.7-2-4-5.3-5-8.5c-6.5-21.3,0.9-46.1,18-60.3
				c26.5,13.8,53,27.6,79.5,41.4c6.9,3.6,13.9,7.2,21.5,8.5c8.8,1.5,17.8-0.3,26.6-2.1c8.7-1.8,17.4-3.6,26-5.3l0.1,0.4
				c37.9,8.3,75.9,16.7,113.8,25c4.2,0.9,8.4,1.8,12.6,1.2c2.8-0.4,5.4-1.6,7.9-2.9c-3,12.1-5.7,24.6-4.6,37
				C375.8,483.9,380.9,496.4,390.7,503.9z"/>
			<path id="XMLID_21_" class="st3" d="M302.4,221.1l0,1.3c-6.8,17.6-7.2,37.6-1.1,55.4v1.9c-12.6,0-25.1-2.8-37.3-5.7
				c-39.9-9.5-79.5-20.6-118.5-33.2c-13-4.2-26.8-9.1-35.1-20c-6.9-8.9-8.9-20.6-9.9-31.8c-0.9-11-0.9-22.3,2.7-32.7
				c1.3-3.8,3.2-7.6,6.5-9.8c6.4-4.3,15-1.3,22,1.8c54.7,24.1,109.3,48.3,164,72.4C297.9,221,300.2,221.1,302.4,221.1z"/>
			<path id="XMLID_14_" class="st5" d="M202.5,344.6c0.2,0,0.4-0.1,0.6-0.1c-12.5,14.7-15.7,36.7-7.8,54.4l0.2,2.4
				c-3.2,0.3-6.3,0.2-9.5-0.4c-5.2-1-10-3.5-14.7-6c-40.6-21.2-80.6-43.7-119.8-67.5c-5.3-3.2-10.6-6.5-14.5-11.2
				c-11-13.5-6.6-33.4-1.7-50.1c0.8-2.8,1.9-5.9,4.5-7.2c1.7-0.9,3.8-0.8,5.8-0.5c16.8,2.4,30,15.1,43.3,25.6
				c27.3,21.7,59.4,36.2,91.2,50.5c7.4,3.3,14.8,6.7,22.2,10L202.5,344.6z"/>
		</g>
		<g id="XMLID_12_">
			<path id="XMLID_39_" class="st6" d="M295.7,220.8c-54.7-24.1-109.3-48.3-164-72.4c-7.1-3.1-15.6-6.1-22-1.8
				c-3.3,2.2-5.2,6-6.5,9.8c-3.6,10.4-3.6,21.7-2.7,32.7c0.9,11.2,3,22.9,9.9,31.8c8.3,10.9,22.1,15.8,35.1,20
				c39.1,12.6,78.6,23.7,118.5,33.2c12.3,2.9,24.7,5.7,37.3,5.7c0.1,0,0.1,0,0.2,0c11.3-0.1,22.5-2.4,33.5-4.7
				c61.5-13.1,122.8-27.1,184-42.1c2.2-0.5,4.6-1.3,5.7-3.2c0.9-1.6,0.6-3.5,0.4-5.3c-0.7-5.9-0.8-11.9-0.3-17.8
				c1.2-13.3,5.6-26.4,12.7-37.7c0,0,0-0.1,0.1-0.1"/>
			<path id="XMLID_35_" class="st6" d="M295.7,220.8c2.2,0.2,4.5,0.3,6.7,0.3c11.1,0,22.6-2.7,32.9-6.1c19.7-6.6,40.4-9.3,60.8-12.6
				c47.9-7.8,95.2-19,141.4-33.5c4.2-1.3,8.4-2.7,12.6-4c1.8-0.6,3.7-1.3,4.8-2.8c2.7-3.9-1.9-8.7-5.9-11.2
				c-33.9-20.8-70.4-37.4-108.4-49.3c-10.4-3.3-20.9-6.1-31.4-9c-7.1-2-14.2-3.9-21.6-4.4c-8.4-0.5-16.7,0.9-25,2.3
				c-72.5,12.4-145.2,23.7-218,33.7c-16.9,2.3-35.7,5.6-46,19.2c-12.6,16.7-6.6,40.1-5.3,60.9c0.4,5.6,0.4,11.3,2.1,16.6
				c0.3,1,0.7,2,1.2,3c3.7,7.5,11.5,12.1,18.9,16c44.8,23.7,93.1,40.7,142.8,50.5c7.6,1.5,15.4,2.8,23.1,2.9c9.9,0,19.8-2,29.5-4.1
				c53.2-11.2,106.3-22.4,159.5-33.6c24.5-5.1,48.9-10.3,73.4-15.4c3.6-0.8,7.7-1.9,9.1-5.4c1.8-4.4-2.4-8.9-6.2-11.8
				c-6.8-5.4-13.7-10.8-20.5-16.1"/>
			<path id="XMLID_32_" class="st6" d="M302.5,222.4c-6.8,17.6-7.2,37.6-1.1,55.4"/>
			<path id="XMLID_31_" class="st6" d="M202.5,344.6c0.2,0,0.4-0.1,0.6-0.1c63.1-11.7,126.3-23.4,189.4-35.2
				c33.8-6.3,67.6-12.6,101.4-18.9c1.4-0.3,2.9-0.5,4.3-0.8c3.2-0.6,6.9-1.6,8.5-4.2c0.3-0.4,0.5-0.9,0.7-1.4
				c1.1-3.8-2.2-7.3-5.3-9.7c-9.5-7.4-20-13.4-31.2-17.8"/>
			<path id="XMLID_26_" class="st6" d="M95.5,220.9c-18.3,3.9-36.5,7.9-54.7,11.8c-5.5,1.2-11.3,2.5-15.5,6.3
				c-3.9,3.5-5.8,8.5-7.3,13.5c-5.6,19.2-5.3,40,0.9,59c2.7,8.2,6.5,16.2,12.4,22.4c6.3,6.6,14.5,11,22.6,15.2
				c8.7,4.5,17.3,9,26,13.5c3.8,2,7.6,4,11.5,6c26.5,13.8,53,27.6,79.5,41.4c6.9,3.6,13.9,7.2,21.5,8.5c8.8,1.5,17.8-0.3,26.6-2.1
				c8.7-1.8,17.4-3.6,26-5.3c78.9-16.2,157.8-32.4,236.7-48.5c2.8-0.6,5.6-1.1,8.4-1.7c7.7-1.6,17.6-6.4,15.6-14
				c-0.3-1-0.7-1.8-1.2-2.6c-1.2-1.7-3-3.2-4.7-4.5c-6.3-4.7-12.6-9.3-19-13.8"/>
			<path id="XMLID_24_" class="st6" d="M494.4,293c-11.1,6.5-16.8,20.4-14.8,33c0.5,3.5,1.7,6.8,3.4,9.9c0.6,1.1,1.3,2.2,1.4,3.4
				c0.3,3.8-4.5,5.5-8.3,6c-89.2,12-177.6,29.6-264.6,52.7c-5.3,1.4-10.6,2.8-16,3.3c-3.2,0.3-6.3,0.2-9.5-0.4c-5.2-1-10-3.5-14.7-6
				c-40.6-21.2-80.6-43.7-119.8-67.5c-5.3-3.2-10.6-6.5-14.5-11.2c-11-13.5-6.6-33.4-1.7-50.1c0.8-2.8,1.9-5.9,4.5-7.2
				c1.7-0.9,3.8-0.8,5.8-0.5c16.8,2.4,30,15.1,43.3,25.6c27.3,21.7,59.4,36.2,91.2,50.5c7.4,3.3,14.8,6.7,22.2,10"/>
			<path id="XMLID_23_" class="st6" d="M203.8,343.7c-0.2,0.3-0.4,0.5-0.7,0.8c-12.5,14.7-15.7,36.7-7.8,54.4"/>
			<path id="XMLID_19_" class="st6" d="M245.1,411.4c37.9,8.3,75.9,16.7,113.8,25c4.2,0.9,8.4,1.8,12.6,1.2c2.8-0.4,5.4-1.6,7.9-2.9
				c1.1-0.6,2.1-1.2,3.2-1.8c35.2-20.2,68.4-43.7,99.1-70.1"/>
			<path id="XMLID_18_" class="st6" d="M507.1,343.5c16.3-10.5,31.8-22.4,46.2-35.4c1.5-1.4,3.1-2.8,4.6-4.2
				c1.3-1.2,2.7-2.7,2.7-4.5c0-1.4-1-2.6-2.1-3.5c-3.8-3.2-9-3.7-14-4.2c-12.6-1.3-25.2-3.3-37.6-6"/>
			<path id="XMLID_17_" class="st6" d="M553.7,308.5c-11.4,19.2-15,42.7-10.4,64.5c1,5,2.5,9.9,4.4,14.6
				C494,424.2,440,461,391.6,504.6c-0.3-0.2-0.6-0.5-1-0.7c-9.8-7.4-14.9-19.9-15.9-32.2c-1-12.5,1.6-24.9,4.6-37
				c0.1-0.2,0.1-0.4,0.2-0.7"/>
			<path id="XMLID_16_" class="st6" d="M544.8,372.7c5.6-0.4,11.4-0.8,16.7,0.9c5.4,1.7,10.3,6,10.9,11.6c1,7.8-6.2,14-12.6,18.6
				c-50.9,36.8-101.8,73.6-152.8,110.3c-7.6,5.5-15.5,11.2-24.7,13.2c-8.1,1.8-16.6,0.7-24.8-0.6c-33.4-5.3-66.2-14-98.9-22.2
				c-57.4-14.5-115-27.9-172.8-40.2c-4.4-0.9-9-2-12.6-4.8c-2.6-2-4.4-4.7-6.1-7.5c-9.3-14.9-16.8-31.9-16-49.5
				c0.8-17.6,11.7-35.6,28.7-40.1"/>
			<path id="XMLID_15_" class="st6" d="M91.5,368.5c-0.1,0-0.1,0.1-0.1,0.1c-17.1,14.2-24.5,39-18,60.3c1,3.2,2.3,6.5,5,8.5
				c1.9,1.4,4.2,2.1,6.5,2.8c8.1,2.3,16.2,4.6,24.3,6.9c8.9,2.6,17.9,5.1,27,7c8.8,1.8,17.8,3,26.7,4.7c30.2,5.5,59.3,15.9,89.2,23
				c18.9,4.5,38.1,7.8,57.2,11c12.7,2.1,25.4,4.3,38.1,6.4c14,2.4,28.1,4.8,42.4,5.1"/>
		</g>
	</g>
	<g id="XMLID_40_" class="st7">
		<path id="XMLID_57_" class="st8" d="M292.2,215.3c1.6,3.3,7.3,0.2,6.9-3.4s-4-6-7.2-7.8c-49.8-27.9-102.9-50.2-157.7-66.3
			c-7.4-2.2-15.7-4.1-22.4-0.5c-1.7,0.9-3.5,2.9-2.6,4.6c7.8-0.9,15.7-0.3,23.2,1.7c7.9,2.1,15.4,5.8,22.7,9.4
			c45,21.9,90.7,42.6,137,61.8"/>
	</g>
	<g id="XMLID_42_" class="st7">
		<path id="XMLID_54_" class="st8" d="M96.7,151c0.4-1.5,2.2-2.5,3.8-2.1c-1.2,9.6-1.9,19.2-2.2,28.8c-0.3,9.9-0.1,19.9,2.5,29.4
			c2.6,9.5,7.8,18.7,15.8,24.4c4.3,3.1,9.4,5.1,14.4,6.9c29,10.4,59.6,19.3,89.3,26.9c16.9,4.3,33.9,5.1,49.3,13.4
			c2.8,1.5,5.9,5.3,3.5,7.4c-8.1-0.1-16.1-2.3-23.9-4.6c-34.9-10.1-69.8-20.2-104-32.4c-12.1-4.3-24.3-9-34.9-16.3
			c-3.7-2.5-7.3-5.5-9.6-9.4c-2.4-4.1-3.2-8.8-3.9-13.5c-2.7-19.5-2.9-39.4-0.6-59"/>
	</g>
	<g id="XMLID_43_" class="st9">
		<path id="XMLID_60_" class="st10" d="M304.9,224.4c-1.4,3.2-2.8,6.4-4.2,9.7c5.9,0.4,11.6-1.4,17.2-3.1c30.7-9,62.3-15,93.7-21
			c34-6.5,68.1-13,102.1-19.4c2.8-0.5,5.6-1.1,8-2.5c4.6-2.8,6.7-8.2,8.5-13.2c-73.4,22-150.5,29.3-224.3,49.8"/>
	</g>
	<g id="XMLID_44_" class="st11">
		<path id="XMLID_61_" class="st10" d="M119.4,148.2c-2.5-3.4-8.4-2.2-10.4,1.5c-2,3.7-0.6,8.5,2.2,11.6s6.7,5,10.5,6.8
			c35.1,16.5,70.6,32.1,106.4,47.1c21.2,8.9,43.4,17.6,66.3,16.8c0.9-2.6,1.7-5.2,2.6-7.9c-59.2-25.6-118.3-51.2-177.5-76.8"/>
	</g>
	<g id="XMLID_45_" class="st12">
		<path id="XMLID_66_" class="st13" d="M111,243.5c-3.4-1.1-6.4,3.6-5.2,7c1.2,3.4,4.6,5.4,7.8,7.1c24.2,13,48.6,26.1,75.2,33.2
			c20.8,5.5,42.8,7.4,62.2,16.6c7.3,3.5,14.4,8,22.4,8.8c6.8,0.7,13.5-1.4,20-3.3c61.7-18.7,124.9-32.7,188.8-41.7
			c0.6-10-14-11.8-23.8-9.7c-46.9,9.6-93.7,19.3-140.6,28.9c-13.6,2.8-27.3,5.6-41.1,4.8c-9.2-0.5-18.2-2.7-27.1-5
			c-47.4-12.1-93.8-28.1-138.6-47.9"/>
	</g>
	<g id="XMLID_46_" class="st14">
		<path id="XMLID_74_" class="st8" d="M33.7,261.8c3-5.5,10.1-7.5,16.2-6.5c6.1,1,11.6,4.4,16.8,7.8c27.6,17.7,55.2,35.5,82.9,53.2
			c17.6,11.3,36.9,23,57.7,21.2c-25.7-36.8-75.6-45.9-112.3-71.6c-10.5-7.4-20.3-16.4-32.4-20.7c-12.1-4.4-27.8-2.5-34.7,8.4
			c-2.9,4.6-3.9,10.2-4.4,15.6c-2.3,21,0.7,44.3,15.5,59.4c6.2,6.3,14.1,10.8,21.9,15.1c34,19,68,37.9,102,56.9
			c6.8,3.8,15.9,7.3,21.5,1.9c-12.4-8.6-26.1-10.7-39.1-18.1c-15.5-8.8-28.9-19.4-45.2-26.5C80,349.1,53.1,340,38.3,324.1
			c-4.3-4.6-5.6-9.6-8.1-15.6c-6.1-14.6-8.4-32.8,2-44.2"/>
	</g>
	<g id="XMLID_47_" class="st9">
		<path id="XMLID_80_" class="st10" d="M207.8,348.9c-4.5,3.6-7.2,9.3-7.4,15c89.1-22.2,179.7-38.1,271-47.4
			c1.7-6.6,5.3-12.7,10.3-17.4C389.8,315,298,331.7,206.3,349.1"/>
	</g>
	<g id="XMLID_49_" class="st9">
		<path id="XMLID_78_" class="st10" d="M42.8,260.2c-6.3,4.2-5.6,14.2-0.7,19.9s12.3,8.4,19.3,11.2c39.9,16.4,73,46.4,112.6,63.5
			c4.7,2,10,3.9,14.9,2.5c4.9-1.4,8.7-7.6,5.8-11.9c-37.3-13.3-72.3-32.7-103.3-57.3c-7.8-6.2-15.3-12.7-23.9-17.7
			c-8.1-4.7-17-8-26.2-9.6"/>
	</g>
	<g id="XMLID_50_" class="st9">
		<path id="XMLID_93_" class="st10" d="M207.7,423.9c6.1,12.1,13.5,23.4,22.2,33.8c1.3,1.6,2.8,3.2,4.7,3.8c2.9,0.9,6-0.7,8.7-2.3
			c15.6-9.4,30.7-19.6,45.2-30.5c-3.9-3.3-9-4.8-13.9-6.2c-11.8-3.4-23.9-6.8-36.1-5.7c-11,0.9-21.4,5.3-31.5,9.7"/>
	</g>
	<g id="XMLID_53_" class="st9">
		<path id="XMLID_84_" class="st10" d="M381.8,438.9c-2.9,5.8-3.7,12.7-2.1,19c47.5-36.1,96.3-70.4,146.4-102.9
			c3.2-2.1,6.5-4.2,8.8-7.4c5.6-7.6,3.5-18.7,8.3-26.8c-13.3,10.3-22.6,24.2-35.6,34.9c-5.9,4.8-15.5,6.4-21.4,11.1
			c-33.9,27.2-69.7,52-107.2,73.9"/>
	</g>
	<g id="XMLID_59_" class="st9">
		<path id="XMLID_91_" class="st10" d="M276.6,426.9c-1.8,1-1.8,3.8-0.4,5.4c1.4,1.6,3.5,2.1,5.6,2.6c23.4,5.8,46.8,11.5,70.3,17.3
			c4.2,1,8.6,2,12.7,0.6c4.1-1.4,7.2-6.4,5.1-10.1c-27.3,0.3-52.7-13-79.5-18.5c-4.9-1-10.7-1.5-14.1,2.1"/>
	</g>
	<g id="XMLID_62_" class="st14">
		<path id="XMLID_79_" class="st8" d="M76.2,445.6c-6.1-13.5-15.3-28.7-21.5-42.2c-2.6,19,6.6,39.1,22.7,49.5
			c9.5,6.2,20.8,9,31.9,11.7c26,6.3,52.1,12.6,78.1,19c62.7,15.2,125.6,30.5,189.8,36.8c-12-7.6-26.2-10.6-40.1-13.6
			c-88.9-19.1-177.7-39-266.3-59.7"/>
	</g>
	<g id="XMLID_63_" class="st15">
		<path id="XMLID_92_" class="st16" d="M493.1,330.7c3.1,2.7,6.1,5.4,9.2,8.1c0.7,0.6,1.4,1.2,2.3,1.4c1.4,0.2,2.6-0.7,3.7-1.5
			c14.1-11.2,28.2-22.4,42.3-33.7c1.3-1,2.7-2.2,3-3.9c0.3-1.8-0.9-3.7-2.5-4.6c-1.6-1-3.5-1.3-5.3-1.6c-4.3-0.7-8.8-1.3-12.9-0.1
			c-4.1,1.2-7.5,4-10.7,6.9c-10.3,9.1-20,18.7-29.2,28.8"/>
	</g>
	<g id="XMLID_67_" class="st15">
		<path id="XMLID_94_" class="st16" d="M290.5,415.2c22.6,1.3,44.4-7.1,66-13.7c18.4-5.6,37.2-9.9,56.2-12.9
			c18-2.9,37.4-5.1,51-17.3c-64.3,11.9-128.4,25-192.3,39.3c5.5,4.3,12.8,5.3,19.7,6.1"/>
	</g>
</g>
</svg>
