<svg width="84" height="97" viewBox="0 0 84 97" fill="none" xmlns="http://www.w3.org/2000/svg">
<g clip-path="url(#clip0)">
<path d="M45.1299 12.5085C24.2699 16.5085 10.1299 34.1185 11.1299 52.1485C11.8499 65.3385 20.6499 79.0285 35.1299 83.8485C49.6099 88.6685 66.2599 83.2985 75.6799 70.2985C58.2499 73.2385 41.6199 63.6385 36.2099 48.5685C31.8399 36.3985 35.3599 22.2485 45.1299 12.5085Z" fill="#FFF9B6"/>
<path d="M45.0795 12.5285L42.8995 13.1085C42.1895 13.3185 41.4895 13.4285 40.7695 13.7085L38.6395 14.4485C38.2895 14.5785 37.9295 14.6785 37.5795 14.8285L36.5795 15.2885L34.5295 16.1985C33.8495 16.5285 33.2095 16.9085 32.5295 17.2585C31.2012 17.9637 29.9187 18.7519 28.6895 19.6185C28.0605 20.0211 27.4591 20.4654 26.8895 20.9485L25.1295 22.3385L23.4895 23.8785L22.6795 24.6385C22.4095 24.9085 22.1695 25.1985 21.9195 25.4685L20.4095 27.1285C19.9295 27.6885 19.4995 28.3085 19.0395 28.8985C18.1321 30.0836 17.2973 31.3225 16.5395 32.6085C15.0304 35.1806 13.8416 37.9277 12.9995 40.7885C12.5816 42.2143 12.2477 43.6635 11.9995 45.1285C11.8495 45.8585 11.8295 46.6085 11.7395 47.3485C11.6398 48.0843 11.5897 48.8259 11.5895 49.5685C11.4651 55.5771 12.8622 61.5197 15.6508 66.8435C18.4395 72.1673 22.5292 76.6994 27.5395 80.0185C32.6244 83.2889 38.4974 85.1269 44.5395 85.3385C45.2895 85.3385 46.0395 85.4185 46.7895 85.3385L48.9995 85.2385C50.4885 85.0864 51.9676 84.8494 53.4295 84.5285C56.3531 83.8932 59.1829 82.8849 61.8495 81.5285C64.5143 80.1786 67.0114 78.5206 69.2895 76.5885C71.5149 74.6191 73.526 72.4202 75.2895 70.0285L75.7395 70.7585C68.3808 71.9901 60.8225 71.0375 53.9995 68.0185C47.1347 64.962 41.4491 59.7572 37.7995 53.1885C34.2801 46.5705 33.1634 38.9372 34.6395 31.5885C36.073 24.3114 39.7192 17.6546 45.0795 12.5285V12.5285ZM45.1695 12.5285C42.6326 15.1918 40.4817 18.1978 38.7795 21.4585C37.0918 24.6922 35.8986 28.1608 35.2395 31.7485C33.9139 38.9322 35.119 46.3533 38.6495 52.7485C42.2272 59.0867 47.7443 64.1096 54.3895 67.0785C61.051 70.0301 68.4248 70.9887 75.6195 69.8385L76.7595 69.6585L76.0695 70.5785C74.2403 73.024 72.144 75.2578 69.8195 77.2385C67.4633 79.1717 64.8892 80.8229 62.1495 82.1585C59.4162 83.4961 56.5226 84.4774 53.5395 85.0785C52.0504 85.3845 50.5444 85.6016 49.0295 85.7285L46.7595 85.8185C45.9995 85.8185 45.2395 85.8185 44.4795 85.8185C41.4493 85.6608 38.4517 85.1164 35.5595 84.1985C32.6792 83.2505 29.9255 81.9543 27.3595 80.3385C24.8146 78.6892 22.4893 76.7235 20.4395 74.4885C18.369 72.2606 16.5821 69.7851 15.1195 67.1185C12.1366 61.7493 10.6191 55.6897 10.7195 49.5485C10.7113 48.7861 10.7581 48.0241 10.8595 47.2685C10.9995 46.5085 10.9995 45.7385 11.1095 45.0185C11.354 43.5122 11.7049 42.0251 12.1595 40.5685C13.0362 37.6453 14.2688 34.8409 15.8295 32.2185C18.9757 26.9738 23.2573 22.5008 28.3595 19.1285C33.4373 15.7628 39.1635 13.4975 45.1695 12.4785V12.5285Z" fill="#231F20"/>
<path d="M53.3599 10.1485C53.5259 13.9355 52.2011 17.6367 49.6699 20.4585C47.7881 22.4705 45.3522 23.8798 42.6699 24.5085C45.1687 24.0538 47.7478 24.4443 49.9999 25.6185C54.9999 28.2985 55.8199 33.8585 55.8999 34.4585C56.0299 35.4585 55.6599 29.1385 58.4799 25.6185C60.1934 23.7169 62.5609 22.5313 65.1099 22.2985C62.4648 22.4953 59.8402 21.7083 57.7399 20.0885C53.8299 16.6685 53.3099 9.19845 53.3599 10.1485Z" fill="#FFF56D"/>
<path d="M53.4096 10.1385C53.4679 11.781 53.2962 13.4235 52.8996 15.0185C52.503 16.6214 51.8259 18.1415 50.8996 19.5085C49.969 20.9057 48.7647 22.0998 47.3596 23.0185C45.9539 23.9225 44.4003 24.5724 42.7696 24.9385L42.5996 24.1585C45.6537 23.6875 48.7707 24.4344 51.2796 26.2385C53.7107 28.093 55.4102 30.745 56.0796 33.7285C56.1302 33.9127 56.1702 34.0997 56.1996 34.2885V34.4285V34.5185C56.205 34.5022 56.205 34.4847 56.1996 34.4685C56.3896 34.3785 55.4696 34.2885 55.6996 34.4685C55.6196 34.5985 55.6996 34.5685 55.6996 34.5785V34.3585V33.2285C55.7513 32.4397 55.8515 31.6549 55.9996 30.8785C56.2202 29.3541 56.6934 27.8772 57.3996 26.5085C58.1527 25.104 59.2997 23.9501 60.6996 23.1885C62.0727 22.4549 63.5664 21.9739 65.1096 21.7685L65.1996 22.8385C63.536 22.9006 61.8759 22.6426 60.3096 22.0785C58.7326 21.4926 57.3672 20.4476 56.3896 19.0785C55.46 17.7342 54.7542 16.2483 54.2996 14.6785C54.0696 13.9085 53.8696 13.1285 53.6996 12.3485L53.4796 11.1685L53.3796 10.5785V10.2785V10.1385C53.3796 10.1385 53.3796 10.0585 53.3796 10.1385C53.3796 10.2185 53.3796 10.1385 53.4396 10.1385H53.4096ZM53.3096 10.1385V10.0885C53.3096 10.0885 53.2596 10.0885 53.3096 10.0185C53.3596 9.94848 53.3096 10.0985 53.3696 10.1185V10.2685L53.4196 10.5585L53.5296 11.1485C53.5996 11.5385 53.6796 11.9285 53.7796 12.3185C53.9742 13.0855 54.2146 13.8402 54.4996 14.5785C55.0389 16.0558 55.8232 17.4318 56.8196 18.6485C57.7977 19.8173 59.0826 20.69 60.5296 21.1685C61.9923 21.6344 63.526 21.8375 65.0596 21.7685L65.1596 22.8285C63.742 23.018 62.3663 23.4439 61.0896 24.0885C59.8298 24.7349 58.7869 25.7361 58.0896 26.9685C57.4312 28.2398 56.9757 29.6063 56.7396 31.0185C56.5896 31.7285 56.4796 32.4585 56.3996 33.1885L56.2896 34.2885V34.5885C56.2896 34.5885 56.2896 34.5885 56.2296 34.7285C56.4696 34.8785 55.5296 34.7885 55.7196 34.7285V34.6585V34.4885V34.3585C55.7196 34.1785 55.7196 33.9985 55.6396 33.8185C55.1704 30.8853 53.5689 28.2534 51.1796 26.4885C49.9721 25.6675 48.6082 25.1043 47.1732 24.8342C45.7383 24.5641 44.263 24.5928 42.8396 24.9185L42.6796 24.1485C45.743 23.355 48.4725 21.6031 50.4696 19.1485C51.467 17.9016 52.2325 16.4858 52.7296 14.9685C53.2126 13.4101 53.4091 11.777 53.3096 10.1485V10.1385Z" fill="#231F20"/>
<path d="M20.7698 66.8985C20.9417 70.6846 19.6203 74.3869 17.0898 77.2085C15.2014 79.2022 12.7662 80.5937 10.0898 81.2085C12.6015 80.7454 15.196 81.1361 17.4598 82.3185C22.4598 84.9985 23.2798 90.5585 23.3498 91.1585C23.4798 92.1585 23.1198 85.8385 25.9298 82.3185C27.6496 80.4283 30.015 79.2509 32.5598 79.0185C30.5598 79.0185 27.5598 78.8285 25.1998 76.8085C21.2498 73.4185 20.7298 65.9485 20.7698 66.8985Z" fill="#FFF56D"/>
<path d="M20.82 66.8885C20.8838 68.5207 20.7155 70.1536 20.32 71.7385C19.9233 73.3414 19.2462 74.8615 18.32 76.2285C17.3855 77.6198 16.1819 78.8099 14.78 79.7285C13.3708 80.6326 11.8138 81.2825 10.18 81.6485L10 80.8785C13.0595 80.3948 16.1862 81.1387 18.7 82.9485C21.131 84.803 22.8306 87.455 23.5 90.4385C23.5495 90.623 23.5896 90.8099 23.62 90.9985V91.1485V91.2285C23.8 91.1385 22.88 91.0485 23.11 91.2285L23.06 91.3285V91.0185V89.8885C23.0988 89.1309 23.1823 88.3762 23.31 87.6285C23.5306 86.1041 24.0038 84.6272 24.71 83.2585C25.4623 81.8568 26.6052 80.7035 28 79.9385C29.3731 79.2049 30.8668 78.7239 32.41 78.5185L32.51 79.5885C30.8473 79.6489 29.1882 79.3944 27.62 78.8385C26.0442 78.2504 24.6794 77.2059 23.7 75.8385C22.7824 74.4951 22.0868 73.0128 21.64 71.4485C21.42 70.6785 21.21 69.8985 21.05 69.1185L20.82 67.9385L20.73 67.3485V67.0485V66.9085C20.73 66.9085 20.73 66.8285 20.73 66.9085C20.73 66.9885 20.73 66.9085 20.78 66.9085L20.82 66.8885ZM20.72 66.8885V66.8285C20.72 66.8285 20.72 66.8285 20.78 66.7585C20.84 66.6885 20.78 66.8385 20.84 66.8585V67.0085L20.89 67.2985L20.99 67.8885C21.07 68.2785 21.15 68.6685 21.25 69.0585C21.4479 69.8314 21.6985 70.5898 22 71.3285C22.5348 72.8079 23.3195 74.1845 24.32 75.3985C25.2881 76.5647 26.5626 77.4375 28 77.9185C29.4617 78.3888 30.9962 78.592 32.53 78.5185L32.62 79.5785C31.2012 79.7681 29.8249 80.1976 28.55 80.8485C27.2909 81.4913 26.2479 82.4891 25.55 83.7185C24.8669 84.99 24.3845 86.3595 24.12 87.7785C23.97 88.4885 23.86 89.2185 23.78 89.9485L23.71 91.0185V91.3185C23.71 91.3185 23.71 91.3185 23.65 91.4585C23.88 91.6185 22.95 91.5185 23.14 91.4585V91.3885V91.0885C23.14 90.9085 23.14 90.7285 23.06 90.5485C22.5596 87.6018 20.9221 84.9696 18.5 83.2185C17.2925 82.3975 15.9286 81.8343 14.4936 81.5642C13.0587 81.2941 11.5834 81.3228 10.16 81.6485L10 80.8785C13.0614 80.087 15.7883 78.3345 17.78 75.8785C18.7806 74.6321 19.5495 73.2164 20.05 71.6985C20.5619 70.1522 20.7889 68.5258 20.72 66.8985V66.8885Z" fill="#231F20"/>
<path d="M21.1699 51.8985C21.5772 52.6008 22.2041 53.1496 22.954 53.4604C23.704 53.7712 24.5353 53.8268 25.3199 53.6185C25.8981 53.402 26.4184 53.0547 26.84 52.6036C27.2616 52.1526 27.573 51.61 27.7499 51.0185" stroke="#231F20" stroke-miterlimit="10" stroke-linecap="round"/>
<path d="M27.2793 47.3585C27.8593 48.9385 28.9993 49.7885 30.0593 49.4785C31.3093 49.1185 31.7893 47.3085 31.8293 47.1685" stroke="#231F20" stroke-miterlimit="10" stroke-linecap="round"/>
<path d="M16.6699 48.3185C17.2499 49.8985 18.3999 50.7485 19.4499 50.4385C20.6999 50.0785 21.1899 48.2685 21.2199 48.1285" stroke="#231F20" stroke-miterlimit="10" stroke-linecap="round"/>
</g>
<defs>
<clipPath id="clip0">
<rect width="84" height="97" fill="white"/>
</clipPath>
</defs>
</svg>
