<svg width="420" height="406" viewBox="0 0 420 406" fill="none" xmlns="http://www.w3.org/2000/svg">
<path d="M113.4 71.8994L113.8 71.9994C112.8 75.2994 111.2 78.3994 109 81.0994C107.2 83.3994 104.8 85.3994 102 86.1994C98.5998 87.0994 94.9998 86.0994 91.8998 84.4994C90.5998 83.7994 89.3998 82.9994 88.2998 82.0994L89.3998 81.5994C97.3998 78.4994 105.4 75.1994 113.4 71.8994Z" fill="#FAF4DD"/>
<path d="M414.4 109.899C421.8 136.899 417.7 167.099 402.3 190.399C386.9 213.799 360.1 229.599 332.1 230.299L330.8 230.199C334.9 218.399 337.7 206.099 339.7 193.699L341.8 193.999C343.8 194.399 345.9 194.599 347.9 194.399C355 193.799 361.4 189.399 365.8 183.799C370.2 178.199 373 171.499 375.2 164.699C380.1 150.199 383.1 134.399 378.7 119.799C376.5 112.499 371.9 105.199 364.7 102.799C357.7 100.399 349.3 103.499 345.6 109.899H343.8C343.7 97.9993 343.1 85.1993 338.7 74.4993H341.9C352.9 62.2993 373.1 61.6993 387.2 70.0993C401.4 78.5993 410.1 94.0993 414.4 109.899Z" fill="#EAE2CA"/>
<path d="M76.0998 313.9C81.0998 310.4 86.4998 307 92.1998 303.7C96.7998 307 101.6 310.1 106.5 313C93.1998 323.7 85.0998 336.4 87.1998 346.6C92.4998 372.6 153.6 382.1 223.6 367.8C293.8 353.6 346.3 321 341 295C338.9 284.7 325.9 277 309.2 272.3C312.7 267.5 315.9 262.5 318.8 257.3C356.5 261.6 385.9 273.9 391.3 292.3C391.5 292.9 391.6 293.5 391.7 294.1C399 329.9 326.5 374.9 229.8 394.6C133.1 414.2 48.7998 401.1 41.4998 365.3C41.3998 364.8 41.2998 364.4 41.2998 363.9C39.0998 348.3 52.7998 330.3 75.8998 313.9C75.9998 313.9 76.0998 313.9 76.0998 313.9Z" fill="#EAE2CA"/>
<path d="M106.5 313C101.6 310.1 96.7998 307 92.1998 303.7C88.1998 300.8 84.3998 297.8 80.5998 294.6C47.3998 266.4 24.1998 228 8.59977 187.4C4.99977 178 1.69977 168.2 2.49977 158.2C3.49977 145.6 15.1998 125.1 26.3998 119.4C36.1998 112.8 49.8998 104.6 60.2998 98.8998C64.8998 101.3 69.3998 104 73.5998 107.2C75.1998 108.4 76.6998 109.6 78.1998 111C75.0998 112.2 69.5998 115.3 66.5998 116.6C52.7998 122 38.1998 128.9 31.4998 142.1C29.4998 146 28.2998 150.6 29.5998 154.9C30.9998 159.5 35.0998 162.9 39.5998 164.5C44.0998 166.2 48.9998 166.4 53.7998 166.5C62.5998 166.7 71.2998 166.7 80.0998 166.5C146.6 164.5 212.7 148 272.4 118.4C279.1 115.1 285.8 111.5 291.7 107C293.7 105.5 295.6 103.9 297.4 102.2C303.5 96.3998 308.4 87.7998 305.7 79.7998C303.7 73.9998 298 69.9998 292.1 68.4998C286.1 66.9998 279.9 67.4998 273.8 68.0998C271.3 68.2998 264.1 68.6998 261.3 68.9998C264 65.2998 267.4 61.9998 270.7 58.6998C273.8 55.4998 276.8 52.1998 279.6 48.7998C281.5 48.8998 289.2 48.9998 291.1 49.1998C305 50.1998 319.9 52.2998 330 61.8998C333.9 65.5998 336.7 70.0998 338.7 74.8998C343.1 85.5998 343.7 98.3998 343.8 110.3V110.4C344 138.2 343.9 166.7 339.6 194.1C337.6 206.6 334.8 218.8 330.7 230.6C328.1 238.3 324.9 245.8 321.2 253.1C320.4 254.6 319.6 256.2 318.7 257.7C315.8 262.9 312.6 267.9 309.1 272.7C291.2 297.3 266.1 316.7 237.6 327.3C225.8 331.7 213.4 334.7 200.8 335.9C168.1 338.8 135.1 329.8 106.5 313Z" fill="#FAF4DD"/>
<path d="M341 294.999C346.3 320.999 293.7 353.599 223.7 367.799C153.6 381.999 92.4996 372.499 87.2996 346.599C85.1996 336.399 93.3996 323.699 106.6 312.999C135.1 329.799 168.2 338.799 201 335.599C213.6 334.399 226 331.399 237.8 326.999C266.3 316.299 291.4 296.999 309.3 272.399C326 276.999 338.9 284.699 341 294.999Z" fill="#E0D7BA"/>
<path d="M305.9 79.4999C308.6 87.4999 303.7 96.0999 297.6 101.9C295.8 103.6 293.9 105.2 291.9 106.7L289.7 105.2C290.4 99.4999 285.7 93.7999 280.1 93.2999C275.5 92.8999 270.9 95.3999 266.3 94.6999C258.7 93.4999 255.2 83.8999 257.4 76.5999C258.3 73.6999 259.7 71.0999 261.5 68.6999C264.3 68.3999 271.5 67.9999 274 67.7999C280.1 67.1999 286.4 66.6999 292.3 68.1999C298.2 69.7999 303.9 73.6999 305.9 79.4999Z" fill="#C9BAB5"/>
<path d="M289.7 105.3L291.9 106.8C285.9 111.3 279.3 114.8 272.6 118.2C213 147.8 146.9 164.4 80.2996 166.3V165.2C83.8996 158.9 86.3996 152 87.8996 144.9C89.5996 137.1 89.7996 128.7 86.4996 121.5C84.5996 117.4 81.6996 113.9 78.2996 110.9C76.7996 109.6 75.2996 108.3 73.6996 107.1C69.4996 104 65.0996 101.2 60.3996 98.7995C54.0996 95.5995 47.3996 93.0995 40.5996 91.3995C32.9996 89.4995 24.4996 88.2995 19.5996 82.2995C13.5996 75.0995 15.4996 64.0995 19.2996 55.4995C24.2996 44.1995 34.3996 33.0995 46.6996 34.0995C58.3996 34.9995 66.3996 46.0995 71.5996 56.5995C76.1996 65.7995 80.3996 75.9995 88.2996 82.1995C89.3996 83.0995 90.5996 83.8995 91.8996 84.5995C94.9996 86.2995 98.5996 87.1995 102 86.2995C104.8 85.4995 107.1 83.4995 109 81.1995C111.2 78.4995 112.8 75.3995 113.8 72.0995C115.4 66.7995 115.5 60.9995 113.7 55.6995C111.1 47.6995 104.8 40.9995 104.1 32.5995C103.3 23.9995 109.4 15.3995 117.7 13.2995C126 11.1995 135.5 15.7995 139 23.6995C142.5 31.7995 139.9 41.0995 138.5 49.7995C137.7 54.6995 137.7 60.0995 139.1 64.7995C140.2 68.4995 142.3 71.6995 145.7 73.6995C152.4 77.5995 161.6 74.3995 166.3 68.1995C168.3 65.5995 169.7 62.6995 170.5 59.4995C171.7 55.1995 172.1 50.5995 172 46.0995C171.9 42.2995 171.7 38.2995 173.7 35.0995C175 33.0995 177 31.7995 179.2 30.6995C183.2 28.7995 188.3 27.9995 192 30.3995C196.7 33.3995 197.6 39.9995 196.4 45.3995C195.6 48.8995 194.2 52.0995 193.1 55.4995C192.4 57.3995 191.9 59.2995 191.5 61.2995C190.6 66.7995 192.3 73.3995 197.4 75.5995C199.2 76.3995 201.2 76.4995 203.2 76.4995C212.6 76.6995 223 75.1995 229 67.9995C232.8 63.4995 234 57.8995 234.4 51.9995C234.9 45.7995 234.5 39.1995 235.4 33.0995C237.4 18.7995 248.2 5.39954 262.4 3.19954C276.6 1.09954 292.1 13.3995 290.7 27.7995C290 34.9995 285.6 41.1995 281.1 46.7995C280.6 47.3995 280.2 47.8995 279.7 48.4995C276.9 51.8995 273.9 55.1995 270.8 58.3995C267.6 61.6995 264.1 64.9995 261.4 68.6995C259.6 71.0995 258.2 73.6995 257.3 76.5995C255.1 83.8995 258.6 93.5995 266.2 94.6995C270.8 95.3995 275.4 92.7995 280 93.2995C285.7 93.8995 290.4 99.5995 289.7 105.3Z" fill="#511111"/>
<path d="M229.7 50.5992C230.9 50.3992 233.4 51.4992 234.5 51.9992C234.1 57.8992 232.8 63.4992 229.1 67.9992C223.1 75.1992 212.7 76.6992 203.3 76.4992C201.3 76.4992 199.3 76.2992 197.5 75.5992C192.4 73.3992 190.7 66.7992 191.6 61.2992C191.9 59.2992 192.5 57.3992 193.2 55.4992L193.9 55.6992C196.3 54.6992 198.8 54.2992 201.3 53.7992C211 51.9992 219.9 52.3992 229.7 50.5992Z" fill="#FAF4DD"/>
<path d="M170.3 59.2998H170.5C169.6 62.3998 168.2 65.3998 166.3 67.9998C161.6 74.0998 152.4 77.3998 145.7 73.4998C142.3 71.4998 140.3 68.2998 139.1 64.5998C148.9 61.2998 160.3 61.5998 170.3 59.2998Z" fill="#FAF4DD"/>
<path d="M86.3999 121.399C89.6999 128.599 89.4999 136.999 87.7999 144.799C86.2999 151.899 83.6999 158.799 80.1999 165.099V166.199C71.3999 166.499 62.6999 166.499 53.8999 166.199C49.0999 166.099 44.1999 165.799 39.6999 164.199C35.1999 162.499 31.0999 159.099 29.6999 154.599C28.3999 150.399 29.5999 145.799 31.5999 141.799C38.2999 128.599 52.8999 121.799 66.6999 116.299C69.7999 115.099 75.1999 111.899 78.2999 110.699C81.5999 113.899 84.4999 117.399 86.3999 121.399Z" fill="#C9BAB5"/>
<path d="M78.1998 110.799C75.0998 111.999 69.5998 115.099 66.5998 116.399C52.7998 121.799 38.1998 128.699 31.4998 141.899C29.4998 145.799 28.2998 150.399 29.5998 154.699C30.9998 159.299 35.0998 162.699 39.5998 164.299C44.0998 165.999 48.9998 166.199 53.7998 166.299C62.5998 166.499 71.2998 166.499 80.0998 166.299C146.6 164.299 212.7 147.799 272.4 118.199C279.1 114.899 285.8 111.299 291.7 106.799C293.7 105.299 295.6 103.699 297.4 101.999C303.5 96.1995 308.4 87.5995 305.7 79.5995C303.7 73.7995 298 69.7995 292.1 68.2995C286.1 66.7995 279.9 67.2995 273.8 67.8995C271.3 68.0995 264.1 68.4995 261.3 68.7995" stroke="#231F20" stroke-width="4" stroke-miterlimit="10" stroke-linecap="round" stroke-linejoin="round"/>
<path d="M60.4 98.7998C50.1 104.5 36.4 112.7 26.5 119.3" stroke="#231F20" stroke-width="4" stroke-miterlimit="10" stroke-linecap="round" stroke-linejoin="round"/>
<path d="M26.4999 119.3C15.1999 125 3.59987 145.5 2.59987 158.1C1.79987 168.1 5.09987 178 8.69987 187.3C24.2999 227.9 47.4999 266.4 80.6999 294.5C84.3999 297.7 88.2999 300.7 92.2999 303.6C96.8999 306.9 101.7 310 106.6 312.9C135.1 329.7 168.2 338.7 201 335.5C213.6 334.3 226 331.3 237.8 326.9C266.3 316.2 291.4 296.9 309.3 272.3C312.8 267.5 316 262.5 318.9 257.3C319.8 255.8 320.6 254.3 321.4 252.7C325.2 245.4 328.3 237.9 330.9 230.2C335 218.4 337.8 206.1 339.8 193.7C344.1 166.3 344.3 137.8 344 110V109.9C343.9 98.0004 343.3 85.2004 338.9 74.5004C336.9 69.6004 334.1 65.2004 330.2 61.5004C320.1 51.9004 305.2 49.8004 291.3 48.8004C289.4 48.7004 281.7 48.6004 279.8 48.4004" stroke="#231F20" stroke-width="4" stroke-miterlimit="10" stroke-linecap="round" stroke-linejoin="round"/>
<path d="M342 74.5999C353 62.3999 373.2 61.7999 387.3 70.1999C401.4 78.5999 410.1 94.0999 414.4 109.9C421.8 136.9 417.7 167.1 402.3 190.4C386.9 213.8 360.1 229.6 332.1 230.3" stroke="#231F20" stroke-width="4" stroke-miterlimit="10" stroke-linecap="round" stroke-linejoin="round"/>
<path d="M345.7 110C349.4 103.7 357.8 100.6 364.8 102.9C372 105.4 376.6 112.6 378.8 119.9C383.2 134.5 380.1 150.4 375.3 164.8C373 171.6 370.3 178.3 365.9 183.9C361.5 189.5 355.1 193.8 348 194.5C346 194.7 343.9 194.6 341.9 194.1" stroke="#231F20" stroke-width="4" stroke-miterlimit="10" stroke-linecap="round" stroke-linejoin="round"/>
<path d="M80.2 165.1C83.8 158.8 86.3 151.9 87.8 144.8C89.5 137 89.7 128.6 86.4 121.4C84.5 117.3 81.6 113.8 78.2 110.8C76.7 109.5 75.2 108.2 73.6 107C69.4 103.9 65 101.1 60.3 98.6999C54 95.4999 47.3 92.9999 40.5 91.2999C32.9 89.3999 24.4 88.1999 19.5 82.1999C13.5 74.9999 15.4 63.9999 19.2 55.3999C24.2 44.0999 34.3 32.9999 46.6 33.9999C58.3 34.8999 66.3 45.9999 71.5 56.4999C76.1 65.6999 80.3 75.8999 88.2 82.0999C89.3 82.9999 90.5 83.7999 91.8 84.4999C94.9 86.1999 98.5 87.0999 101.9 86.1999C104.7 85.3999 107 83.3999 108.9 81.0999C111.1 78.3999 112.7 75.2999 113.7 71.9999C115.3 66.6999 115.4 60.8999 113.6 55.5999C111 47.5999 104.7 40.8999 104 32.4999C103.2 23.8999 109.3 15.2999 117.6 13.1999C125.9 11.0999 135.4 15.6999 138.9 23.5999C142.4 31.6999 139.8 40.9999 138.4 49.6999C137.6 54.5999 137.6 59.9999 139 64.6999C140.1 68.3999 142.2 71.5999 145.6 73.5999C152.3 77.4999 161.5 74.2999 166.2 68.0999C168.2 65.4999 169.6 62.5999 170.4 59.3999C171.6 55.0999 172 50.4999 171.9 45.9999C171.8 42.1999 171.6 38.1999 173.6 34.9999C174.9 32.9999 176.9 31.6999 179.1 30.5999C183.1 28.6999 188.2 27.8999 191.9 30.2999C196.6 33.2999 197.5 39.8999 196.3 45.2999C195.5 48.7999 194.1 51.9999 193 55.3999C192.3 57.2999 191.8 59.1999 191.4 61.1999C190.5 66.6999 192.2 73.2999 197.3 75.4999C199.1 76.2999 201.1 76.3999 203.1 76.3999C212.5 76.5999 222.9 75.0999 228.9 67.8999C232.7 63.3999 233.9 57.7999 234.3 51.8999C234.8 45.6999 234.4 39.0999 235.3 32.9999C237.3 18.6999 248.1 5.29993 262.3 3.09993C276.5 0.999928 292 13.2999 290.6 27.6999C289.9 34.8999 285.5 41.0999 281 46.6999C280.5 47.2999 280.1 47.7999 279.6 48.3999C276.8 51.7999 273.8 55.0999 270.7 58.2999C267.5 61.5999 264 64.8999 261.3 68.5999C259.5 70.9999 258.1 73.5999 257.2 76.4999C255 83.7999 258.5 93.4999 266.1 94.5999C270.7 95.2999 275.3 92.6999 279.9 93.1999C285.6 93.6999 290.2 99.3999 289.5 105.1" stroke="#231F20" stroke-width="4" stroke-miterlimit="10" stroke-linecap="round" stroke-linejoin="round"/>
<path d="M193.8 55.6002C196.2 54.6002 198.7 54.2002 201.2 53.7002C211 52.0002 219.9 52.3002 229.7 50.6002C230.9 50.4002 233.4 51.5002 234.5 52.0002" stroke="#231F20" stroke-width="4" stroke-miterlimit="10" stroke-linecap="round" stroke-linejoin="round"/>
<path d="M139.1 64.5998C148.9 61.2998 160.3 61.5998 170.3 59.2998" stroke="#231F20" stroke-width="4" stroke-miterlimit="10" stroke-linecap="round" stroke-linejoin="round"/>
<path d="M89.3999 81.6004C97.3999 78.5004 105.4 75.2004 113.3 71.9004" stroke="#231F20" stroke-width="4" stroke-miterlimit="10" stroke-linecap="round" stroke-linejoin="round"/>
<path d="M76.1001 313.9C80.5001 310.9 85.2001 308 90.2001 305.1" stroke="#231F20" stroke-width="4" stroke-miterlimit="10" stroke-linecap="round" stroke-linejoin="round"/>
<path d="M41.3998 363.9C39.0998 348 52.1998 330.3 75.9998 313.9" stroke="#231F20" stroke-width="4" stroke-miterlimit="10" stroke-linecap="round" stroke-linejoin="round"/>
<path d="M321 257.3C359.4 261.5 386.1 273.7 391.4 292.3" stroke="#231F20" stroke-width="4" stroke-miterlimit="10" stroke-linecap="round" stroke-linejoin="round"/>
<path d="M318.8 257.3C356.5 261.6 385.9 273.9 391.3 292.3C391.5 292.9 391.6 293.5 391.7 294.1C399 329.9 326.5 374.9 229.8 394.6C133.1 414.2 48.7998 401.1 41.4998 365.3C41.3998 364.8 41.2998 364.4 41.2998 363.9C39.0998 348.3 52.7998 330.3 75.8998 313.9L75.9998 313.8C80.9998 310.3 86.3998 306.9 92.0998 303.6" stroke="#231F20" stroke-width="4" stroke-miterlimit="10" stroke-linecap="round" stroke-linejoin="round"/>
<path d="M309.2 272.4C326 277 338.9 284.7 341 295C346.3 321 293.7 353.6 223.7 367.8C153.6 382 92.5001 372.5 87.3001 346.6C85.2001 336.4 93.4001 323.7 106.6 313" stroke="#231F20" stroke-width="4" stroke-miterlimit="10" stroke-linecap="round" stroke-linejoin="round"/>
<g opacity="0.48">
<path opacity="0.48" d="M262.8 145.4C293 141 320.6 121.7 335.1 94.7998C342.1 109.5 341.4 126.7 340.3 143C339.5 155.6 338.6 168.1 337.6 180.6C335.4 207.7 325.9 234.2 311.6 257.3C299 277.6 285.4 293.5 265.9 307.2C255.2 314.7 243.4 322.6 230.3 322.3C228.5 322.3 226.5 322 225 321C219.8 317.4 224 309.4 228.1 304.6C264.2 262 269.7 200.9 262.6 145.5" fill="#C9BAB5"/>
</g>
<g opacity="0.54">
<path opacity="0.54" d="M83.4999 125.8C84.6999 135.3 83.8999 145.1 81.2999 154.4C80.4999 157.1 79.4999 160 77.0999 161.5C75.2999 162.7 73.0999 162.9 70.8999 163C61.0999 163.5 51.1999 163 41.5999 161.4C36.7999 160.6 30.9999 158.5 30.6999 153.7C30.3999 149.5 34.6999 146.6 38.4999 144.7C52.4999 137.6 67.0999 131.8 82.1999 127.5" fill="#A09A98"/>
</g>
<g opacity="0.48">
<path opacity="0.48" d="M373.3 106.4C374 94.2995 380.2 82.4995 389.8 75.0995C384.1 69.3995 375.4 67.4995 367.4 68.3995C359.4 69.2995 351.8 72.4995 344.4 75.6995C343.8 75.8995 343.2 76.1995 342.9 76.7995C342.6 77.3995 342.7 78.0995 342.8 78.6995C344.3 87.8995 345.8 96.9995 347.3 106.2C351.7 102.9 356.7 99.6995 362.2 99.5995C367.7 99.4995 373.6 104.1 372.8 109.5" fill="#C9BAB5"/>
</g>
<g opacity="0.48">
<path opacity="0.48" d="M123.7 326.099C117.6 332.299 118.1 343.699 124.8 349.299C131.6 354.999 141.8 354.199 149.3 358.899C152.3 360.799 155 364.5 153.5 367.7C152.9 369 151.6 370 150.2 370.7C144.3 373.7 137.1 372 130.7 370.2C123.7 368.2 116.6 366.299 109.6 364.299C106.2 363.399 102.8 362.399 99.8996 360.499C93.3996 356.299 90.2996 347.999 91.1996 340.299C92.0996 332.599 96.4996 325.699 102.2 320.399C103.1 319.599 104 318.799 105.2 318.499C106.8 318.099 108.4 318.699 109.9 319.399C114.9 321.499 119.9 323.499 124.8 325.599" fill="#C9BAB5"/>
</g>
<g opacity="0.48">
<path opacity="0.48" d="M260.3 323C277.2 315.5 292 303.3 302.6 288.1C304.5 285.3 306.5 282.3 309.5 280.7C315 277.8 322 280.8 326.3 285.3C335.1 294.3 333.7 303.2 325.7 312.8C320.3 319.2 314.6 329.2 306.2 329.5C297.8 329.8 289.5 327.7 281.5 325.3C278.4 324.4 275.3 323.4 272.1 323C267.4 322.4 262.5 323.2 258.2 325.2" fill="#C9BAB5"/>
</g>
<path d="M121 205C130 209.9 140.3 212.5 150.5 212.5C138.1 215.3 127.5 224.8 123.3 236.7" stroke="#231F20" stroke-width="4" stroke-miterlimit="10" stroke-linecap="round" stroke-linejoin="round"/>
<path d="M206.8 184.2C203.7 191.9 199.1 199 193.2 204.9C204.5 202.8 216.6 205.8 225.6 212.8" stroke="#231F20" stroke-width="4" stroke-miterlimit="10" stroke-linecap="round" stroke-linejoin="round"/>
<path d="M152.5 236.3C158.2 245.3 169.9 250.1 180.3 247.5C190.7 245 198.9 235.4 199.8 224.8" stroke="#231F20" stroke-width="4" stroke-miterlimit="10" stroke-linecap="round" stroke-linejoin="round"/>
<g opacity="0.62">
<path opacity="0.62" d="M67.5997 62.5997C64.1997 56.7997 60.1996 51.4997 55.4996 46.6997C52.8996 43.9997 49.5996 41.3997 45.8996 41.7997C43.9996 41.9997 42.1997 42.9997 40.5997 43.9997C35.4997 46.8997 30.3997 49.9997 26.5997 54.3997C22.7997 58.7997 20.2996 64.8997 21.6996 70.4997C21.8996 71.3997 22.2996 72.3997 22.9996 72.9997C24.7996 74.5997 27.6997 73.2997 29.5997 71.7997C35.2997 67.3997 40.6996 61.4997 47.8996 61.3997C54.4996 61.2997 61.3997 66.0997 67.0997 62.8997" fill="white"/>
</g>
<g opacity="0.62">
<path opacity="0.62" d="M244.8 54.4001C245.3 48.0001 246.4 41.7001 248.2 35.6001C249.5 31.2001 251.2 26.8001 254.2 23.5001C257.3 20.1001 262 17.9001 266.4 18.9001C271.7 20.1001 275.3 26.0001 274.1 31.2001C273.6 33.3001 272.4 35.3001 272.3 37.5001C272.3 39.7001 274.3 42.1001 276.3 41.4001C277.2 41.1001 277.8 40.2001 278.3 39.4001C282.4 32.7001 285.2 24.2001 281.9 17.0001C278.3 9.10007 267.9 5.80007 259.8 8.60007C251.6 11.4001 245.8 19.2001 243.5 27.5001C241.2 35.8001 242 44.7001 243.7 53.2001" fill="white"/>
</g>
<g opacity="0.62">
<path opacity="0.62" d="M123.4 24.1C129.4 30.1 131.5 39.7 128.5 47.6C130.6 48.2 132.9 47 134.1 45.2C135.3 43.4 135.8 41.2 136.2 39.1C137 35.3 137.7 31.4 136.9 27.6C136.1 23.8 133.3 20.2 129.5 19.6C125.7 19 121.5 22.8 122.7 26.5" fill="white"/>
</g>
<path d="M266.4 149.699C290 139.099 314.7 127.399 329.3 104.999C330.4 103.399 327.8 101.899 326.7 103.499C312.5 125.399 287.9 136.699 264.9 147.099C263.2 147.899 264.7 150.499 266.4 149.699Z" fill="#231F20"/>
<path d="M11.3999 170.6C31.7999 189.5 60.5999 188.3 86.2999 184.2C88.1999 183.9 87.3999 181 85.4999 181.3C60.9999 185.2 33.0999 186.5 13.5999 168.5C12.0999 167.2 9.9999 169.3 11.3999 170.6Z" fill="#231F20"/>
</svg>
