<svg width="45" height="57" viewBox="0 0 45 57" fill="none" xmlns="http://www.w3.org/2000/svg">
<path d="M30.474 39.1122C30.8226 38.0799 32.9954 31.8497 39.1208 27.2563C40.7448 26.0398 43.496 24.2924 43.9336 24.7716C44.4823 25.3762 40.6558 28.8194 37.2149 34.0395C31.2156 43.1305 30.7262 50.9827 29.7251 50.7984C28.8648 50.6436 28.6127 44.6788 30.474 39.1122Z" fill="#1E6F5D"/>
<path d="M30.3995 39.0899C31.2746 36.6347 32.335 34.2238 33.7737 31.9824C35.1901 29.7336 37.133 27.7871 39.3651 26.3199C40.4997 25.6121 41.6195 24.9337 42.9469 24.4545C43.1175 24.4029 43.288 24.3513 43.5105 24.3292C43.6069 24.3144 43.7552 24.3218 43.8961 24.3513C44.0667 24.3955 44.2891 24.5651 44.3188 24.7863C44.3633 25.177 44.2224 25.3098 44.1408 25.4793C44.0444 25.6415 43.948 25.7743 43.8442 25.9144C43.4363 26.4526 42.9988 26.9392 42.5761 27.4332C40.8631 29.4018 39.2835 31.4662 37.9339 33.6781C36.5991 35.8901 35.4348 38.1904 34.404 40.5351C33.3732 42.8871 32.5797 45.3202 31.8233 47.7901L31.2227 49.6629C31.1114 49.9873 31.0076 50.2969 30.837 50.6582C30.7851 50.7541 30.7555 50.8352 30.6739 50.9531C30.6146 51.049 30.5108 51.1891 30.3402 51.3292C30.1993 51.4103 30.1177 51.484 29.8953 51.5135C29.6802 51.543 29.5022 51.5061 29.3465 51.425C29.1833 51.3439 29.1314 51.2776 29.035 51.1891C28.9757 51.1227 28.9312 51.049 28.8867 50.9826C28.6346 50.5034 28.6049 50.1569 28.5382 49.7956C28.4937 49.4417 28.4789 49.0951 28.4789 48.756C28.464 48.0777 28.5233 47.4067 28.5975 46.7505C28.909 44.1036 29.5912 41.5673 30.3995 39.0899ZM30.5404 39.1342C29.7247 41.5968 29.4726 44.2289 29.569 46.78C29.5912 47.4141 29.6505 48.0555 29.7247 48.6675C29.7618 48.9772 29.8137 49.2795 29.8804 49.567C29.9323 49.8398 30.0361 50.1495 30.1029 50.238C30.1029 50.2306 30.1029 50.2306 30.0955 50.2232C30.0658 50.179 30.0584 50.1863 29.9768 50.1274C29.9027 50.0905 29.7988 50.061 29.6654 50.0758C29.5319 50.1126 29.5096 50.1126 29.4429 50.1642C29.3465 50.2453 29.4503 50.1274 29.48 50.0241C29.5838 49.7956 29.6802 49.4859 29.7692 49.191L30.3031 47.333C31.0299 44.8188 31.9791 42.3341 33.1285 39.96C34.2557 37.5711 35.6573 35.315 37.2591 33.2284C38.8386 31.1271 40.5739 29.1659 42.1979 27.1309C42.5984 26.6222 42.9988 26.106 43.3325 25.5752C43.4067 25.4425 43.4883 25.3098 43.5476 25.177C43.6069 25.0665 43.6292 24.8895 43.6143 24.9485C43.6217 24.9927 43.6811 25.0738 43.7033 25.0665C43.6885 25.0812 43.6736 25.0665 43.6069 25.0886C43.5031 25.1107 43.3622 25.1623 43.2287 25.2213C42.1386 25.7448 41.0781 26.5484 40.0696 27.3152C38.0451 28.8636 36.206 30.6036 34.5078 32.5353C32.8467 34.4671 31.371 36.6716 30.5404 39.1342Z" fill="black"/>
<path d="M34 11.2283C32.5799 15.1952 30.8866 21.2086 30.2517 29.0535C30.0195 31.9231 29.9649 34.6665 30.0195 37.2321C30.1151 41.4289 30.5179 45.1585 30.9822 48.2283" stroke="#1E6F5D" stroke-width="3" stroke-miterlimit="10"/>
<path d="M6 15.2283C8.97458 19.0976 12.8158 24.9944 15.5627 32.8371C16.5689 35.7038 17.296 38.4665 17.8102 41.0585C18.6621 45.2917 18.9559 49.0942 19 52.2283" stroke="#1E6F5D" stroke-width="3" stroke-miterlimit="10"/>
<path d="M27.7658 24.8156C27.0613 24.7493 24.6957 31.8643 25.2445 39.9967C25.4521 43.0344 25.9341 44.3615 25.86 48.1218C25.7487 53.7326 24.5622 56.1879 25.1555 56.4312C26.2456 56.8883 32.5712 49.5964 31.533 42.2012C31.1844 39.7386 30.3539 39.6281 29.2341 35.4992C27.484 29.0478 28.2997 24.8599 27.7658 24.8156Z" fill="#3E9581"/>
<path d="M27.7583 24.8894C27.6767 24.9042 27.5506 25.0737 27.4691 25.2064C27.3801 25.3539 27.3059 25.5087 27.2392 25.6636C27.1057 25.9806 26.9796 26.2977 26.8758 26.6294C26.6756 27.293 26.505 27.964 26.3864 28.6423C26.1342 29.9989 26.0082 31.3777 25.9192 32.749C25.7857 35.4992 25.7634 38.2198 25.934 40.9405C26.0007 42.2971 26.1565 43.6906 26.1936 45.1062C26.2232 46.5145 26.1416 47.9154 26.0527 49.3089C25.9637 50.7024 25.8228 52.0959 25.63 53.4746C25.5336 54.1677 25.4223 54.8608 25.3482 55.5317C25.3333 55.6939 25.3185 55.8635 25.3259 56.0036C25.3259 56.0699 25.3408 56.1363 25.3482 56.1437C25.3482 56.1289 25.3482 56.1658 25.3408 56.1215C25.3259 56.092 25.2814 56.092 25.2814 56.0773C25.2369 56.0699 25.3927 56.0478 25.5039 55.9593C25.6225 55.8856 25.7486 55.7898 25.8673 55.6865C26.8313 54.8091 27.5951 53.6516 28.2922 52.5088C28.9745 51.3438 29.5455 50.1199 29.983 48.8591C30.858 46.3523 31.1473 43.5874 30.4947 41.1543C30.3315 40.5645 30.0423 39.9746 29.7605 39.311C29.4787 38.6548 29.2192 37.9765 29.0264 37.2835C28.6111 35.9121 28.3515 34.5259 28.181 33.1251C28.003 31.7242 27.9363 30.316 27.9066 28.9225C27.9066 28.222 27.8843 27.5289 27.8992 26.8285C27.9066 26.482 27.8992 26.1354 27.8918 25.7889C27.8843 25.6193 27.8843 25.4424 27.8695 25.2728C27.8621 25.1253 27.8102 24.8968 27.7583 24.8894ZM27.7731 24.7419C27.9363 24.7862 27.9511 24.9189 27.9882 25C28.0104 25.0885 28.0252 25.177 28.0401 25.2654C28.0623 25.4424 28.0697 25.6193 28.0846 25.7889L28.1365 26.8285C28.1884 27.5216 28.2329 28.2146 28.3293 28.893C28.5073 30.2643 28.8039 31.6136 29.1524 32.9407C29.5158 34.2605 29.9385 35.5729 30.3909 36.8411C30.6282 37.4752 30.8803 38.0871 31.1621 38.6991C31.4365 39.3037 31.785 39.9525 32.0223 40.7045C32.8529 43.6538 32.3412 46.6693 31.3104 49.3384C30.7987 50.6876 30.1016 51.9484 29.3007 53.1355C28.4924 54.3225 27.5729 55.4211 26.3864 56.328C26.2381 56.4386 26.0749 56.5492 25.8895 56.6376C25.7041 56.7188 25.5113 56.8515 25.1257 56.7851C25.0367 56.7777 24.9255 56.6966 24.8439 56.6155C24.7475 56.5344 24.7475 56.4607 24.7104 56.3722C24.6659 56.2174 24.6659 56.1142 24.6659 56.0036C24.6733 55.7971 24.7104 55.6202 24.7401 55.4432C24.881 54.7428 25.0367 54.0792 25.1554 53.3935C25.4075 52.0369 25.5484 50.6581 25.5929 49.2794C25.63 47.9006 25.5706 46.5145 25.3927 45.1579C25.2221 43.8012 24.9181 42.4519 24.7252 41.0511C24.3693 38.2493 24.4657 35.3886 25.0219 32.6237C25.2814 31.2376 25.6374 29.8809 26.0378 28.5391C26.2529 27.8755 26.4457 27.2045 26.7052 26.5483C26.8313 26.2239 26.95 25.8921 27.1057 25.5751C27.1798 25.4129 27.2614 25.2581 27.3578 25.1032C27.4468 24.9853 27.4987 24.7936 27.7731 24.7419Z" fill="black"/>
<path d="M24.9856 55.3474C22.7609 48.0408 19.6241 44.1036 17.0731 41.8327C15.9385 40.8226 14.4331 39.7093 12.631 37.4679C9.2569 33.2726 8.61915 29.8442 8.04072 29.9769C7.23241 30.1612 6.77264 37.2762 9.97622 43.5211C13.9955 51.3365 21.9748 54.3742 24.9856 55.3474Z" fill="#3E9581"/>
<path d="M24.934 55.2959C24.8005 54.9567 24.63 54.6618 24.5039 54.3964L24.1109 53.519C23.8439 52.8997 23.5399 52.3024 23.2655 51.6979C22.6797 50.5034 22.0567 49.3311 21.3671 48.1957C20.6774 47.0676 19.9358 45.9838 19.1127 44.9589C18.2821 43.9488 17.3997 42.9829 16.443 42.0908C15.4716 41.1839 14.4556 40.2254 13.5732 39.1711C12.6907 38.1167 11.8972 37.0108 11.1556 35.868C10.4066 34.7325 9.73923 33.5455 9.12373 32.3437C8.81227 31.7465 8.53047 31.1197 8.19677 30.5668C8.12261 30.4414 8.01137 30.2866 7.98171 30.2866C7.95205 30.3013 8.15969 30.3308 8.17452 30.2866C8.18193 30.2866 8.15227 30.3235 8.13744 30.3751C8.04845 30.611 7.99654 30.9354 7.95946 31.2525C7.80373 33.833 8.27092 36.4947 8.97541 38.9941C9.70215 41.5083 10.8738 43.853 12.4163 45.9395C13.9439 48.0335 15.8572 49.8546 18.0003 51.3956C19.0756 52.155 20.1954 52.8849 21.3671 53.519C21.9603 53.8287 22.5462 54.1457 23.1543 54.4406C23.7772 54.7503 24.4075 54.9789 24.934 55.2959ZM25.0378 55.3991C24.719 55.3549 24.2592 55.2664 23.97 55.1706C23.6437 55.0821 23.3174 54.9788 22.9911 54.883C22.3385 54.6766 21.6934 54.4554 21.063 54.1973C19.7949 53.6738 18.5565 53.084 17.37 52.3688C14.997 50.9532 12.8687 49.0952 11.1631 46.8759C10.3325 45.7552 9.59833 44.5534 9.01249 43.2852C8.44148 42.0097 7.98913 40.6973 7.648 39.3554C7.29946 38.0283 7.09182 36.6569 6.988 35.2855C6.88418 33.9141 6.92126 32.528 7.16598 31.1419C7.23272 30.7953 7.30688 30.4488 7.49227 30.0728C7.54418 29.9769 7.60351 29.8663 7.73699 29.7557C7.82598 29.6968 7.92238 29.6304 8.07811 29.6378C8.21901 29.6378 8.33025 29.7041 8.38957 29.7557C8.62688 29.9622 8.67137 30.117 8.76777 30.2792C9.0644 30.9207 9.30171 31.5326 9.5835 32.1446C10.1323 33.3611 10.7923 34.5261 11.5561 35.6247C12.3273 36.7159 13.2172 37.7186 14.1738 38.6329C15.1305 39.5619 16.1761 40.3434 17.2513 41.1913C19.4093 42.9461 21.1001 45.2317 22.3682 47.6574C23.0059 48.874 23.5473 50.1348 23.9922 51.4177C24.2147 52.0591 24.4149 52.708 24.5855 53.3715C24.6745 53.6959 24.7709 54.013 24.845 54.4038C24.934 54.7577 24.9711 55.0968 25.0378 55.3991Z" fill="black"/>
<path d="M21.3121 22.2311C22.148 22.3907 19.612 28.6591 22.4738 35.6312C23.6356 38.4535 25.187 40.1947 24.9815 43.3797C24.854 45.3893 24.004 48.139 22.8564 48.2261C20.8658 48.3784 17.6852 40.5792 18.0252 32.8961C18.2873 27.0412 20.5612 22.0932 21.3121 22.2311Z" fill="#1E6F5D" stroke="black" stroke-width="2" stroke-miterlimit="10"/>
<path d="M24.7554 54.507C26.4536 46.4262 25.0669 41.2651 23.4206 38.0062C21.6038 34.4008 18.771 31.7392 19.253 27.5808C19.6386 24.2629 21.9078 21.8667 21.9449 21.8814C21.9894 21.9035 18.237 26.2389 16.9245 31.4369C14.277 41.9065 22.5233 51.9412 24.7554 54.507Z" fill="#3E9581"/>
<path d="M24.7335 54.4332C24.7855 54.0425 24.778 53.6664 24.8003 53.342L24.8893 52.2877C24.956 51.5578 24.9708 50.8204 25.0153 50.0905C25.0673 48.6307 25.0302 47.1782 24.8819 45.7404C24.6001 42.865 23.814 40.0927 22.4792 37.5564C21.834 36.2661 21.0554 35.0053 20.3657 33.6634C20.0246 32.9925 19.7131 32.292 19.4832 31.5695C19.2385 30.8543 19.0605 30.1023 19.0086 29.3428C18.8603 27.824 19.1569 26.2978 19.7131 24.8969C19.9949 24.1965 20.336 23.5181 20.7365 22.8693C20.9367 22.5449 21.1518 22.2352 21.3891 21.9256C21.4484 21.8518 21.5077 21.7781 21.5819 21.697L21.6412 21.638C21.656 21.6233 21.6189 21.6528 21.6857 21.6012C21.7376 21.5569 21.8192 21.52 21.9082 21.5127C21.9971 21.5053 22.0787 21.5274 22.1306 21.5495C22.1677 21.5717 22.19 21.6012 22.227 21.6454C22.3086 21.7339 22.3309 21.9551 22.2715 22.0583C22.2048 22.1836 22.2048 22.1615 22.2048 22.1762L22.1603 22.2352L21.8414 22.6924C20.1951 25.1107 18.8158 27.6986 17.9556 30.4193C17.1399 33.1473 17.0212 36.0154 17.481 38.8172C17.9185 41.6337 18.9493 44.3543 20.2025 46.9717C20.8625 48.2694 21.5374 49.567 22.3309 50.7983C22.7239 51.4177 23.1169 52.0444 23.5322 52.649C23.7398 52.9586 23.9475 53.2609 24.1625 53.5558C24.4073 53.8729 24.5185 54.0941 24.7335 54.4332ZM24.7706 54.5733C24.5037 54.3521 24.1329 54.013 23.9104 53.7549C23.6508 53.4821 23.3987 53.2093 23.154 52.9291C22.6497 52.3762 22.1677 51.8084 21.7153 51.2112C20.7884 50.0389 19.943 48.7929 19.1718 47.5026C17.659 44.9073 16.465 42.076 15.9163 39.0605C15.6938 37.549 15.5381 36.008 15.6938 34.4671L15.7976 33.3169L16.0275 32.1814C16.1684 31.422 16.3686 30.6773 16.6282 29.9622C17.6441 27.0719 19.283 24.484 21.1962 22.1836L21.5522 21.756L21.5967 21.7044C21.6041 21.697 21.6189 21.6601 21.567 21.7634C21.5225 21.8445 21.5596 22.0435 21.6486 22.1173C21.6931 22.1541 21.7302 22.1689 21.7598 22.191C21.8043 22.2205 21.8711 22.25 21.9527 22.25C22.0342 22.25 22.1084 22.2131 22.1455 22.1836C22.1974 22.1394 22.1529 22.1762 22.1603 22.1689L22.1306 22.2131C22.0713 22.2647 22.012 22.3311 21.9527 22.3974C21.7153 22.6555 21.4855 22.9357 21.2778 23.2306C20.8477 23.8057 20.4843 24.4398 20.1951 25.096C19.6093 26.4084 19.3201 27.8756 19.5055 29.2986C19.6686 30.729 20.3286 32.0414 21.1073 33.2653C21.8859 34.4892 22.7906 35.6689 23.5767 36.9665C25.1562 39.584 25.9275 42.6585 26.0461 45.6667C26.1054 47.1782 26.0313 48.6823 25.8162 50.1643C25.705 50.9016 25.5789 51.6389 25.401 52.3688C25.3194 52.7301 25.2526 53.084 25.1266 53.4969C25.0005 53.895 24.867 54.2415 24.7706 54.5733Z" fill="black"/>
<path d="M31.2216 17.9854C29.1629 17.2067 28.4456 14.8491 28.2806 14.3227C27.0612 10.3284 29.995 6.75226 33.6317 2.32534C33.6748 2.27487 34.722 1.02033 35.2815 1.25826C35.5685 1.38083 35.59 1.84227 35.9271 1.90716C36.2427 1.96484 36.4077 1.60434 36.6946 1.66923C37.0748 1.76296 37.1107 2.49117 37.3402 2.49838C37.5554 2.49838 37.6128 1.8639 37.7491 1.84948C38.1149 1.82064 39.4993 6.00964 38.8107 10.8331C38.4951 13.0394 38.2153 14.9933 36.5727 16.5074C36.4364 16.6372 33.8254 18.9732 31.2216 17.9854Z" fill="#F26B6C" stroke="black" stroke-miterlimit="10"/>
<path d="M1.76457 3.26507C1.10364 5.74642 0.327774 10.2322 2.02319 14.8671C2.58354 16.3872 3.31631 18.3096 5.23443 19.3976C6.52755 20.1353 8.70429 20.6941 10.2489 19.6658C12.7345 18.0116 12.0305 13.265 11.4055 11.1339C10.2704 7.26652 6.96577 3.66 3.17263 3.26507C2.6051 3.20546 2.11658 3.22781 1.76457 3.26507Z" fill="#F26B6C" stroke="black" stroke-miterlimit="10"/>
</svg>
