<svg width="84" height="133" viewBox="0 0 84 133" fill="none" xmlns="http://www.w3.org/2000/svg">
<path d="M31.45 80.28C31.405 77.7835 31.9207 75.3088 32.9591 73.0382C33.9975 70.7675 35.5322 68.7588 37.45 67.16C42.95 62.44 51.06 60.88 57.14 63.6C55.5297 68.4121 52.4125 72.5777 48.25 75.48C43.3923 79.0131 37.441 80.7135 31.45 80.28Z" fill="#3E9581"/>
<path d="M31.4201 80.3099C31.2863 78.7932 31.4114 77.2647 31.7901 75.79C32.1321 74.3042 32.6879 72.876 33.4401 71.55C34.2083 70.2313 35.1315 69.0093 36.1901 67.91C37.2763 66.8418 38.4847 65.9053 39.7901 65.12C42.4175 63.5958 45.332 62.6322 48.3501 62.2899C51.3645 61.8985 54.429 62.2734 57.2601 63.38L57.4501 63.4599L57.3901 63.6699C56.5817 66.3387 55.2679 68.8272 53.5201 70.9999C52.6546 72.0955 51.7015 73.1189 50.6701 74.0599C49.6221 74.9802 48.5055 75.8193 47.3301 76.5699C44.9778 78.0674 42.3924 79.1624 39.6801 79.8099C36.9796 80.4746 34.181 80.644 31.4201 80.3099ZM31.4201 80.3099C36.8891 80.4593 42.2753 78.9497 46.8701 75.98C49.1284 74.5014 51.1511 72.6911 52.8701 70.61C54.6052 68.5303 55.9593 66.1606 56.8701 63.6099L57.0001 63.8899C54.2781 62.6657 51.2703 62.2192 48.3101 62.5999C45.3555 62.9988 42.5288 64.0584 40.0401 65.6999C37.5891 67.2644 35.5241 69.3636 34.0001 71.8399C32.4544 74.3858 31.5836 77.2838 31.4701 80.26L31.4201 80.3099Z" fill="#231F20"/>
<path d="M31.2998 80.3C32.0298 79.56 32.8898 78.72 33.8798 77.81C36.513 75.3865 39.3023 73.1383 42.2298 71.08C46.8738 67.9655 51.8938 65.4521 57.1698 63.6C55.7186 68.0163 52.9774 71.8965 49.2998 74.74C44.1829 78.7346 37.7782 80.713 31.2998 80.3Z" fill="#1E6F5D"/>
<path d="M31.25 80.3099C32.08 79.4499 32.97 78.3699 33.93 77.4199C34.89 76.4699 35.8 75.6199 36.79 74.7599C38.7395 73.0371 40.8153 71.4627 43 70.0499C45.2279 68.7012 47.5392 67.4954 49.92 66.4399C52.27 65.3399 54.66 64.3299 57.08 63.3699L57.53 63.1899L57.39 63.6699C56.6215 66.3774 55.3306 68.9083 53.59 71.1199C51.8527 73.3419 49.741 75.2438 47.35 76.7399C44.9635 78.2345 42.339 79.31 39.59 79.9199C38.2285 80.2278 36.8437 80.4218 35.45 80.4999C34.75 80.4999 34.05 80.4999 33.36 80.4999C32.6523 80.5028 31.9458 80.4392 31.25 80.3099ZM31.35 80.3099C34.0752 80.2971 36.7863 79.917 39.41 79.1799C42.0217 78.452 44.5094 77.3362 46.79 75.8699C49.0888 74.4382 51.1446 72.649 52.88 70.5699C54.6294 68.49 56.0033 66.1213 56.94 63.5699L57.25 63.8699C54.7883 64.6569 52.3911 65.6332 50.08 66.7899C47.7983 67.9835 45.5939 69.3195 43.48 70.7899C41.36 72.2399 39.27 73.7899 37.27 75.3799C36.27 76.1799 35.27 76.9899 34.27 77.8299C33.27 78.6699 32.39 79.3499 31.35 80.2799V80.3099Z" fill="#231F20"/>
<path d="M33.0902 70.3099C32.0902 70.5699 19.7902 73.4199 9.76022 64.6799C5.47456 60.845 2.45706 55.7969 1.10852 50.2063C-0.240022 44.6156 0.144224 38.747 2.21022 33.3799C10.3808 34.3134 17.9525 38.1241 23.5702 44.1299C26.8074 47.6488 29.3153 51.774 30.9493 56.2675C32.5833 60.761 33.311 65.5337 33.0902 70.3099Z" fill="#3E9581"/>
<path d="M33.1396 70.36C31.9404 70.7316 30.7079 70.9861 29.4596 71.12C28.2198 71.2816 26.9695 71.3484 25.7196 71.32C23.2079 71.2955 20.7126 70.9116 18.3096 70.18C15.8894 69.4341 13.5965 68.3247 11.5096 66.89C9.44971 65.4262 7.61958 63.6635 6.0796 61.66C3.09589 57.6223 1.15824 52.9088 0.439603 47.94C-0.347846 42.9939 0.102225 37.9297 1.7496 33.2L1.8696 32.85H2.2596C6.76164 33.2414 11.137 34.5445 15.1196 36.68C17.1145 37.7377 19.0061 38.9798 20.7696 40.39C22.5088 41.8308 24.1061 43.4348 25.5396 45.18C26.2896 46.03 26.8896 46.99 27.5396 47.89L28.4196 49.34C28.722 49.8166 28.9958 50.3108 29.2396 50.82C30.2944 52.8046 31.1518 54.8879 31.7996 57.04C32.4425 59.1877 32.8844 61.3905 33.1196 63.62C33.3835 65.8585 33.3902 68.1199 33.1396 70.36ZM33.0296 70.26C33.0296 69.26 32.9596 68.08 32.8696 67.01C32.7796 65.94 32.5996 64.83 32.4196 63.75C32.0518 61.5979 31.4929 59.4829 30.7496 57.43C30.0345 55.3806 29.1306 53.4022 28.0496 51.52C27.5496 50.52 26.8796 49.7 26.3196 48.77C25.7596 47.84 25.0596 47.02 24.3196 46.22C22.929 44.5694 21.4001 43.0406 19.7496 41.65C18.0859 40.276 16.3021 39.0545 14.4196 38C10.6205 35.8856 6.46455 34.489 2.1596 33.88L2.6796 33.57C0.752153 38.074 0.131817 43.0298 0.889603 47.87C1.6989 52.6985 3.81158 57.2143 6.9996 60.93C8.56624 62.7525 10.3456 64.3808 12.2996 65.78C14.2628 67.1691 16.4146 68.2702 18.6896 69.05C23.294 70.5931 28.2015 71.008 32.9996 70.26H33.0296Z" fill="#231F20"/>
<path d="M33.12 70.5499C31.78 69.5499 30.26 68.4399 28.6 67.1099C24.2035 63.5775 20.0848 59.7128 16.28 55.5499C10.5196 48.8962 5.77803 41.425 2.20996 33.3799C9.72037 34.2019 16.7501 37.4777 22.21 42.6999C33.83 53.8399 33.22 68.7999 33.12 70.5499Z" fill="#1E6F5D"/>
<path d="M33.1499 70.61C31.5999 69.53 29.7199 68.39 28.0199 67.13C26.3199 65.87 24.7799 64.61 23.2299 63.28C20.0989 60.616 17.1986 57.6923 14.5599 54.54C12.0133 51.32 9.71665 47.9101 7.68988 44.34C5.60988 40.78 3.67655 37.1767 1.88988 33.53L1.62988 33L2.24988 33.05C6.75934 33.3965 11.1514 34.6553 15.1599 36.75C19.1954 38.8534 22.7583 41.7596 25.6299 45.29C25.9899 45.74 26.3499 46.18 26.6899 46.63L27.6399 48C28.2999 49 28.7999 50 29.3599 51C30.3808 53.0194 31.2143 55.1283 31.8499 57.3C32.4838 59.4562 32.9222 61.6651 33.1599 63.9L33.2999 65.58L33.3499 67.26C33.3499 67.82 33.3499 68.37 33.3499 68.93C33.3499 69.21 33.3499 69.49 33.3499 69.77V70.2C33.2907 70.3402 33.224 70.4771 33.1499 70.61ZM33.0899 70.48C32.9999 70 32.9999 69.42 32.9999 68.88C32.9999 68.34 32.9199 67.78 32.8699 67.23C32.7599 66.14 32.5899 65.05 32.4099 63.96C32.0065 61.806 31.4484 59.6838 30.7399 57.61C29.3255 53.4877 27.1814 49.6534 24.4099 46.29C21.6775 42.9037 18.3243 40.0697 14.5299 37.94C12.618 36.8639 10.6091 35.97 8.52988 35.27C6.46279 34.547 4.32898 34.0311 2.15988 33.73L2.50988 33.24C4.07454 36.9993 5.96158 40.6161 8.14988 44.05C10.3764 47.4445 12.8462 50.673 15.5399 53.71C18.1899 56.71 21.0399 59.65 23.9899 62.43C25.4699 63.82 26.9899 65.2 28.4999 66.53C30.0099 67.86 31.3999 69.08 33.0899 70.48Z" fill="#231F20"/>
<path d="M26.0005 132.07C25.6469 120.624 26.1249 109.167 27.4305 97.79C28.1405 92.1 28.9805 86.42 30.1305 80.79C30.6405 77.96 31.3305 75.18 31.9405 72.37C32.5505 69.56 33.3205 66.8 34.1105 64.04C37.0786 52.9294 41.0586 42.1142 46.0005 31.73C51.046 21.3946 57.1629 11.6177 64.2505 2.55997C64.2785 2.53248 64.3162 2.51709 64.3555 2.51709C64.3948 2.51709 64.4324 2.53248 64.4605 2.55997C64.4844 2.58583 64.4976 2.61975 64.4976 2.65497C64.4976 2.69018 64.4844 2.7241 64.4605 2.74997C61.5938 7.69664 58.8338 12.6966 56.1805 17.75C53.5805 22.75 51.0505 27.84 48.7305 33C43.9677 43.3115 39.84 53.9046 36.3705 64.72C35.5205 67.43 34.7805 70.18 34.0105 72.91C33.2405 75.64 32.5705 78.42 32.0105 81.2C30.7105 86.74 29.7305 92.35 28.8805 98C27.1824 109.285 26.3068 120.678 26.2605 132.09C26.2605 132.13 26.2447 132.168 26.2165 132.196C26.1884 132.224 26.1503 132.24 26.1105 132.24C26.0707 132.24 26.0325 132.224 26.0044 132.196C25.9763 132.168 25.9605 132.13 25.9605 132.09L26.0005 132.07Z" fill="#754C29"/>
<path d="M37.5905 63.75C37.5417 60.7139 38.1749 57.7056 39.4436 54.9468C40.7122 52.188 42.5838 49.7491 44.9205 47.81C51.6005 42.07 61.4505 40.18 68.8405 43.48C66.8742 49.3312 63.0726 54.3919 58.0005 57.91C52.0965 62.1981 44.8691 64.2661 37.5905 63.75Z" fill="#3E9581"/>
<path d="M37.5303 63.8C37.4054 62.872 37.3786 61.9335 37.4503 61C37.5092 60.074 37.643 59.1543 37.8503 58.25C38.2613 56.4225 38.935 54.6642 39.8503 53.03C41.6767 49.7312 44.375 46.9982 47.6503 45.13C50.8976 43.3327 54.4705 42.2006 58.1603 41.8C61.8176 41.331 65.5341 41.7424 69.0003 43L69.3803 43.15L69.2603 43.58C68.3123 46.8566 66.7289 49.9147 64.6003 52.58C63.5381 53.9235 62.3747 55.1839 61.1203 56.35C59.8434 57.4867 58.4755 58.5169 57.0303 59.43C54.1321 61.2485 50.9472 62.5637 47.6103 63.32C44.3114 64.1195 40.8902 64.2824 37.5303 63.8ZM37.6403 63.7C40.9342 63.6956 44.2106 63.2209 47.3703 62.29C50.5046 61.3709 53.4841 59.989 56.2103 58.19C58.9432 56.4167 61.3996 54.2501 63.5003 51.76C65.5959 49.2489 67.2464 46.3977 68.3803 43.33L68.6403 43.91C65.3824 42.3616 61.7473 41.7852 58.1703 42.25C54.6017 42.7581 51.1994 44.0861 48.2303 46.13C46.7649 47.1205 45.3896 48.2382 44.1203 49.47C42.8712 50.7217 41.7675 52.1105 40.8303 53.61C38.9596 56.6626 37.8644 60.1267 37.6403 63.7Z" fill="#231F20"/>
<path d="M37.4102 63.76C38.3002 62.87 39.3502 61.85 40.5502 60.76C43.7443 57.8137 47.1318 55.0843 50.6902 52.59C56.3313 48.8044 62.43 45.75 68.8402 43.5C67.0708 48.8552 63.7375 53.5574 59.2702 57C53.0621 61.8637 45.28 64.2703 37.4102 63.76Z" fill="#1E6F5D"/>
<path d="M37.3398 63.79C38.3398 62.79 39.3398 61.38 40.5498 60.21C41.7598 59.04 42.8198 58 43.9998 57C46.3616 54.8794 48.8934 52.9563 51.5698 51.25C54.2866 49.6201 57.102 48.1606 59.9998 46.88C62.8698 45.57 65.7698 44.33 68.6998 43.13L69.3698 42.86L69.1698 43.58C68.7121 45.2275 68.0993 46.828 67.3398 48.36C66.5563 49.8859 65.6324 51.3355 64.5798 52.69C62.4769 55.4135 59.9111 57.7457 56.9998 59.58L55.8998 60.25L54.7498 60.84C53.9998 61.26 53.1998 61.58 52.4198 61.92C50.8227 62.5388 49.1815 63.0368 47.5098 63.41C45.8496 63.7823 44.1597 64.0065 42.4598 64.08C41.6104 64.125 40.7592 64.125 39.9098 64.08C39.4898 64.08 39.0698 64.08 38.6498 63.99C38.4398 63.99 38.2298 63.99 38.0198 63.92H37.6998C37.5766 63.8862 37.4562 63.8427 37.3398 63.79ZM37.4798 63.79C37.8739 63.7341 38.2719 63.7107 38.6698 63.72C39.0898 63.72 39.4998 63.67 39.9198 63.65C40.7498 63.58 41.5698 63.47 42.3898 63.37C44.0247 63.1235 45.6416 62.7694 47.2298 62.31C50.3839 61.423 53.3896 60.0751 56.1498 58.31C58.9288 56.5789 61.4191 54.4227 63.5298 51.92C65.669 49.4074 67.3603 46.5457 68.5298 43.46L68.9998 43.91C65.9974 44.8296 63.0826 46.0143 60.2898 47.45C57.5217 48.9189 54.8496 50.5622 52.2898 52.37C49.6998 54 47.1998 55.9 44.7398 57.84C43.5098 58.84 42.2698 59.77 41.0798 60.78C39.8898 61.79 38.7798 62.6 37.4798 63.74V63.79Z" fill="#231F20"/>
<path d="M44.2304 77.34C49.3612 77.34 53.5204 73.0867 53.5204 67.84C53.5204 62.5933 49.3612 58.34 44.2304 58.34C39.0997 58.34 34.9404 62.5933 34.9404 67.84C34.9404 73.0867 39.0997 77.34 44.2304 77.34Z" fill="#923290"/>
<path d="M53.5502 67.84C53.5799 70.3426 52.67 72.7655 51.0002 74.63C50.1475 75.5607 49.1086 76.3017 47.9508 76.8048C46.7931 77.3078 45.5425 77.5617 44.2802 77.55C43.0252 77.5165 41.7893 77.2341 40.6443 76.7191C39.4993 76.2041 38.468 75.4668 37.6102 74.55C35.8757 72.7301 34.8903 70.3237 34.8502 67.81C34.8044 65.2874 35.7402 62.8457 37.4602 61C38.3294 60.0774 39.3788 59.3431 40.5433 58.8425C41.7078 58.342 42.9627 58.0858 44.2302 58.09C45.4992 58.0761 46.7571 58.3279 47.923 58.829C49.0889 59.3302 50.1371 60.0697 51.0002 61C52.6818 62.8772 53.5925 65.3201 53.5502 67.84ZM53.5502 67.84C53.5471 66.615 53.2996 65.403 52.8222 64.2749C52.3449 63.1467 51.6473 62.1252 50.7702 61.27C49.039 59.5647 46.7102 58.6031 44.2802 58.59C43.0812 58.5974 41.8956 58.8425 40.7919 59.3111C39.6882 59.7797 38.6884 60.4625 37.8502 61.32C36.1365 63.0611 35.162 65.3971 35.1302 67.84C35.0882 70.3054 36.027 72.6865 37.7402 74.46C38.5911 75.3268 39.6101 76.0108 40.7347 76.4699C41.8593 76.9291 43.0658 77.1537 44.2802 77.13C46.7165 77.0952 49.0453 76.1207 50.7802 74.41C51.6442 73.5481 52.3292 72.524 52.796 71.3964C53.2628 70.2689 53.5021 69.0603 53.5002 67.84H53.5502Z" fill="#231F20"/>
<path d="M46.3398 73.89C50.0898 73.89 53.1298 70.6306 53.1298 66.61C53.1298 62.5893 50.0898 59.33 46.3398 59.33C42.5898 59.33 39.5498 62.5893 39.5498 66.61C39.5498 70.6306 42.5898 73.89 46.3398 73.89Z" fill="#8F4D9E"/>
<path d="M52.4816 64.5086C53.0969 63.9134 52.5248 62.3239 51.2038 60.9584C49.8829 59.5929 48.3133 58.9685 47.698 59.5637C47.0828 60.1589 47.6548 61.7483 48.9758 63.1138C50.2967 64.4793 51.8663 65.1037 52.4816 64.5086Z" fill="#0067AC"/>
<path d="M51.1998 60.9C51.6867 61.3864 52.1255 61.9189 52.5098 62.49C52.7158 62.7905 52.8555 63.1313 52.9198 63.49C52.969 63.6848 52.972 63.8884 52.9286 64.0846C52.8852 64.2807 52.7966 64.4641 52.6698 64.62C52.5179 64.7501 52.3354 64.8394 52.1395 64.8797C51.9436 64.9199 51.7406 64.9097 51.5498 64.8499C51.1983 64.7674 50.8612 64.6325 50.5498 64.4499C49.9526 64.1096 49.3929 63.7074 48.8798 63.25C48.3531 62.7855 47.91 62.2342 47.5698 61.6199C47.398 61.3066 47.2733 60.9696 47.1998 60.6199C47.1495 60.4188 47.1459 60.2088 47.1892 60.006C47.2325 59.8032 47.3217 59.613 47.4498 59.45C47.603 59.3044 47.791 59.2004 47.9958 59.1479C48.2005 59.0954 48.4153 59.0961 48.6198 59.15C48.9773 59.2286 49.3167 59.3746 49.6198 59.58C50.1924 59.9619 50.7221 60.4044 51.1998 60.9ZM51.1998 60.9C50.7229 60.4246 50.1548 60.0504 49.5298 59.7999C48.9598 59.5699 48.1998 59.39 47.8998 59.72C47.5998 60.05 47.7998 60.81 48.0598 61.36C48.3535 61.9529 48.7196 62.5071 49.1498 63.0099C49.5744 63.5268 50.1023 63.9491 50.6998 64.25C50.9892 64.4015 51.3048 64.4966 51.6298 64.5299C51.7679 64.5578 51.9109 64.5504 52.0455 64.5084C52.18 64.4665 52.3019 64.3913 52.3998 64.29C52.7098 63.89 52.4898 63.18 52.2698 62.59C52.0175 61.9693 51.6395 61.4076 51.1598 60.9399L51.1998 60.9Z" fill="#231F20"/>
<path d="M52.0439 64.0557C52.548 63.5681 52.082 62.2685 51.003 61.1531C49.9239 60.0377 48.6405 59.5288 48.1364 60.0165C47.6323 60.5041 48.0984 61.8037 49.1774 62.9191C50.2564 64.0345 51.5398 64.5434 52.0439 64.0557Z" fill="#124B9A"/>
<path d="M46.6 71.17C46.67 71.63 48.55 72.17 49.88 71.35C51.7 70.23 51.57 67.12 51.18 66.99C50.79 66.86 50.7 68.06 49.38 69.29C47.91 70.67 46.55 70.78 46.6 71.17Z" fill="white"/>
<path d="M49.8103 58.62C49.3803 58.46 48.5903 59.38 48.6903 60.47C48.8203 61.91 50.4703 63.56 51.7903 63.52C52.9003 63.52 53.5803 62.26 53.3703 61.95C53.1603 61.64 52.2803 62.1 51.9903 61.72C51.7003 61.34 52.2703 60.72 51.9903 60.45C51.7103 60.18 51.3303 60.7 50.8503 60.45C50.2203 60.15 50.2703 58.79 49.8103 58.62Z" fill="#2B3990"/>
<path d="M36.247 64.9915C38.7266 62.3804 38.5713 58.2073 35.9001 55.6706C33.2289 53.134 29.0533 53.1944 26.5737 55.8055C24.0941 58.4166 24.2494 62.5897 26.9206 65.1264C29.5918 67.663 33.7674 67.6027 36.247 64.9915Z" fill="#923290"/>
<path d="M35.507 62.2541C37.3173 60.3479 37.1258 57.2271 35.0793 55.2837C33.0329 53.3404 29.9064 53.3103 28.0961 55.2166C26.2859 57.1229 26.4773 60.2436 28.5238 62.187C30.5703 64.1304 33.6967 64.1604 35.507 62.2541Z" fill="#8F4D9E"/>
<path d="M31.2943 55.6981C32.6253 55.6858 33.6997 55.1879 33.6941 54.5859C33.6886 53.9839 32.6051 53.5059 31.2742 53.5182C29.9432 53.5305 28.8688 54.0285 28.8743 54.6305C28.8799 55.2324 29.9634 55.7105 31.2943 55.6981Z" fill="#0067AC"/>
<path d="M31.2504 53.49C31.7378 53.4704 32.2261 53.4905 32.7104 53.55C32.9659 53.5855 33.2111 53.6741 33.4304 53.81C33.5604 53.8874 33.6711 53.9934 33.7543 54.1198C33.8374 54.2463 33.8908 54.3899 33.9104 54.54C33.9031 54.6897 33.8568 54.8349 33.7761 54.9612C33.6954 55.0875 33.5831 55.1905 33.4504 55.26C33.2306 55.3794 32.9994 55.4766 32.7603 55.55C32.2936 55.6883 31.8148 55.7821 31.3304 55.83C30.839 55.8896 30.3408 55.8591 29.8604 55.74C29.6049 55.6726 29.3594 55.5717 29.1304 55.44C28.9921 55.3606 28.8735 55.251 28.7835 55.1194C28.6935 54.9878 28.6343 54.8376 28.6104 54.68C28.6108 54.5182 28.6534 54.3592 28.7341 54.2189C28.8148 54.0786 28.9307 53.9618 29.0704 53.88C29.2908 53.7335 29.5395 53.6348 29.8004 53.59C30.2802 53.5176 30.7651 53.4842 31.2504 53.49ZM31.2504 53.49C30.7791 53.5078 30.3179 53.6308 29.9004 53.85C29.5204 54.05 29.1004 54.36 29.1504 54.59C29.2004 54.82 29.5904 55.11 29.9904 55.24C30.4263 55.3768 30.8754 55.4673 31.3304 55.51C31.7972 55.5539 32.2681 55.4959 32.7104 55.34C33.1203 55.2 33.5704 54.81 33.5004 54.52C33.4304 54.23 33.0104 53.99 32.6104 53.8C32.1822 53.6126 31.7174 53.5237 31.2504 53.54V53.49Z" fill="#231F20"/>
<path d="M31.292 55.4982C32.38 55.4881 33.2583 55.0815 33.2537 54.59C33.2492 54.0985 32.3635 53.7082 31.2756 53.7182C30.1876 53.7283 29.3093 54.1349 29.3139 54.6264C29.3184 55.1179 30.2041 55.5082 31.292 55.4982Z" fill="#124B9A"/>
<path d="M34.25 60.7999C34.52 60.9899 35.71 60.29 35.93 59.22C35.9879 58.65 35.8656 58.0762 35.5804 57.5793C35.2952 57.0825 34.8614 56.6875 34.34 56.45C34.18 56.53 34.65 57.21 34.64 58.45C34.63 59.69 34 60.6399 34.25 60.7999Z" fill="white"/>
<path d="M29.4197 53.1C29.1297 53.24 29.2097 54.1 29.8197 54.57C30.2682 54.8669 30.7981 55.0168 31.3357 54.9989C31.8733 54.981 32.392 54.7961 32.8197 54.47C33.3397 53.88 33.0397 52.94 32.8197 52.9C32.5997 52.86 32.3797 53.53 32.0397 53.49C31.6997 53.45 31.6597 52.85 31.4197 52.85C31.1797 52.85 31.2297 53.31 30.8797 53.44C30.3897 53.64 29.7297 53 29.4197 53.1Z" fill="#2B3990"/>
<path d="M34.2832 76.4244C36.9192 73.8512 37.0169 69.6763 34.5016 67.0996C31.9862 64.5229 27.8102 64.5201 25.1742 67.0934C22.5382 69.6666 22.4405 73.8414 24.9558 76.4181C27.4712 78.9948 31.6472 78.9976 34.2832 76.4244Z" fill="#923290"/>
<path d="M25.1398 67.08C26.4077 65.8474 28.075 65.1095 29.8398 65C30.7508 64.9492 31.6616 65.1024 32.5059 65.4484C33.3501 65.7944 34.1065 66.3245 34.7198 67C35.9208 68.3488 36.5423 70.1164 36.4498 71.92C36.3751 73.698 35.6655 75.3904 34.4498 76.69C33.8294 77.3462 33.0846 77.8725 32.2588 78.2382C31.433 78.6039 30.5427 78.8016 29.6398 78.82C28.7231 78.8447 27.8111 78.6798 26.961 78.3357C26.111 77.9915 25.3412 77.4755 24.6998 76.82C24.0644 76.1613 23.5768 75.3745 23.2699 74.5122C22.9629 73.65 22.8436 72.7321 22.9198 71.82C23.0639 70.024 23.8524 68.3406 25.1398 67.08ZM25.1998 67.08C24.5947 67.6812 24.1207 68.4012 23.8074 69.1946C23.4942 69.9879 23.3486 70.8376 23.3798 71.69C23.4193 73.3424 24.084 74.9184 25.2398 76.1C25.8073 76.6888 26.4854 77.1598 27.2353 77.4858C27.9852 77.8119 28.7922 77.9866 29.6098 78C31.2817 78.0129 32.8978 77.3992 34.1398 76.28C34.7618 75.7097 35.2602 75.0179 35.6043 74.2473C35.9483 73.4768 36.1305 72.6438 36.1398 71.8C36.1473 70.961 35.9806 70.1296 35.6501 69.3585C35.3196 68.5873 34.8325 67.8931 34.2198 67.32C33.0231 66.168 31.449 65.4893 29.7898 65.41C28.9478 65.3673 28.1059 65.4979 27.3164 65.7938C26.5268 66.0896 25.8065 66.5444 25.1998 67.13V67.08Z" fill="#231F20"/>
<path d="M31.4082 74.7256C33.4277 72.7542 33.5761 69.6311 31.7397 67.7499C29.9034 65.8688 26.7776 65.942 24.7581 67.9134C22.7387 69.8848 22.5902 73.0079 24.4266 74.889C26.263 76.7702 29.3888 76.697 31.4082 74.7256Z" fill="#8F4D9E"/>
<path d="M25.0254 71.7024C25.0635 70.3719 24.6066 69.2794 24.0048 69.2622C23.4031 69.245 22.8844 70.3095 22.8463 71.64C22.8082 72.9705 23.2652 74.063 23.8669 74.0802C24.4686 74.0974 24.9873 73.0329 25.0254 71.7024Z" fill="#0067AC"/>
<path d="M22.8203 71.6799C22.8213 71.1909 22.8614 70.7026 22.9403 70.2199C22.9872 69.9675 23.0822 69.7264 23.2203 69.5099C23.303 69.383 23.4136 69.2765 23.5435 69.1986C23.6734 69.1206 23.8194 69.0732 23.9703 69.0599C24.1188 69.0716 24.2616 69.1221 24.3845 69.2063C24.5073 69.2906 24.6059 69.4056 24.6703 69.5399C24.789 69.7636 24.8765 70.0025 24.9303 70.2499C25.0571 70.7172 25.1342 71.1965 25.1603 71.6799C25.2067 72.179 25.1523 72.6823 25.0003 73.1599C24.9301 73.4131 24.8186 73.653 24.6703 73.8699C24.59 74.0069 24.4783 74.1227 24.3445 74.2079C24.2106 74.2931 24.0583 74.3452 23.9003 74.3599C23.7388 74.3483 23.5825 74.2977 23.4449 74.2123C23.3073 74.127 23.1925 74.0095 23.1103 73.8699C22.9739 73.6437 22.8854 73.3918 22.8503 73.1299C22.8007 72.6482 22.7907 72.1633 22.8203 71.6799ZM22.8703 71.6799C22.8778 72.1371 22.9836 72.5872 23.1803 72.9999C23.3603 73.3899 23.6603 73.8199 23.8903 73.7799C24.1203 73.7399 24.4303 73.3599 24.5703 72.9599C24.7306 72.5313 24.8381 72.0846 24.8903 71.6299C24.9492 71.1673 24.9118 70.6974 24.7803 70.2499C24.6503 69.8399 24.2803 69.3699 23.9803 69.4299C23.6803 69.4899 23.4403 69.8999 23.2303 70.2899C23.0085 70.7208 22.8855 71.1956 22.8703 71.6799Z" fill="#231F20"/>
<path d="M24.8259 71.6967C24.857 70.6091 24.484 69.7161 23.9926 69.702C23.5013 69.6879 23.0778 70.5582 23.0466 71.6457C23.0155 72.7333 23.3885 73.6263 23.8799 73.6404C24.3712 73.6545 24.7947 72.7842 24.8259 71.6967Z" fill="#124B9A"/>
<path d="M30.2396 69C30.4396 68.75 29.7796 67.53 28.7196 67.27C28.1524 67.1899 27.5744 67.2896 27.0667 67.555C26.5591 67.8205 26.1474 68.2384 25.8896 68.75C25.9696 68.92 26.6696 68.47 27.8896 68.53C29.3496 68.54 30.0696 69.17 30.2396 69Z" fill="white"/>
<path d="M22.3601 73.49C22.4901 73.79 23.3601 73.73 23.8401 73.15C24.1613 72.7064 24.3343 72.1727 24.3343 71.625C24.3343 71.0773 24.1613 70.5436 23.8401 70.1C23.2701 69.55 22.3201 69.82 22.2701 70.1C22.2201 70.38 22.8801 70.57 22.8301 70.9C22.7801 71.23 22.1801 71.27 22.1701 71.51C22.1601 71.75 22.6201 71.71 22.7401 72.06C22.9301 72.54 22.2201 73.18 22.3601 73.49Z" fill="#2B3990"/>
<path d="M27.5803 113.38C27.5356 110.344 28.1717 107.336 29.4419 104.577C30.712 101.819 32.584 99.38 34.9203 97.44C41.6003 91.71 51.4503 89.81 58.8303 93.11C56.8724 98.9655 53.0734 104.031 48.0003 107.55C42.0923 111.837 34.8611 113.901 27.5803 113.38Z" fill="#3E9581"/>
<path d="M27.5298 113.44C27.396 112.509 27.3659 111.567 27.4398 110.63C27.4978 109.704 27.6316 108.784 27.8398 107.88C28.2536 106.053 28.9271 104.295 29.8398 102.66C31.6586 99.3556 34.3588 96.6207 37.6398 94.76C40.8851 92.9582 44.459 91.8258 48.1498 91.4299C51.8136 90.9721 55.5338 91.3973 58.9998 92.6699L59.3798 92.8199L59.2598 93.2499C58.314 96.5275 56.7304 99.586 54.5998 102.25C53.5401 103.593 52.3765 104.85 51.1198 106.01C49.8476 107.155 48.4792 108.189 47.0298 109.1C44.142 110.913 40.9717 112.231 37.6498 113C34.3347 113.786 30.9006 113.935 27.5298 113.44ZM27.6398 113.33C30.9311 113.335 34.2057 112.86 37.3598 111.92C40.4989 111.005 43.4823 109.623 46.2098 107.82C48.9387 106.041 51.3944 103.875 53.4998 101.39C55.5857 98.8887 57.2324 96.0518 58.3698 92.9999L58.6398 93.5799C55.3797 92.0275 51.7401 91.451 48.1598 91.9199C44.5943 92.4281 41.1953 93.7562 38.2298 95.8C36.7631 96.7929 35.3847 97.9104 34.1098 99.1399C32.8611 100.389 31.7605 101.779 30.8298 103.28C28.9642 106.32 27.8692 109.77 27.6398 113.33Z" fill="#231F20"/>
<path d="M27.4004 113.4C28.2904 112.5 29.3404 111.48 30.5404 110.4C33.7381 107.451 37.129 104.718 40.6904 102.22C46.3271 98.433 52.4227 95.3785 58.8304 93.1299C57.0741 98.4973 53.743 103.212 49.2704 106.66C43.0547 111.515 35.2705 113.914 27.4004 113.4Z" fill="#1E6F5D"/>
<path d="M27.3301 113.42C28.3301 112.42 29.3801 111.02 30.5501 109.85C31.7201 108.68 32.8101 107.64 34.0001 106.59C36.3627 104.473 38.8944 102.554 41.5701 100.85C44.2846 99.2279 47.1004 97.7816 50.0001 96.52C52.8701 95.2 55.7601 93.96 58.6901 92.77L59.3701 92.49L59.1601 93.22C58.7098 94.8671 58.1037 96.4677 57.3501 98C56.5678 99.5244 55.6473 100.974 54.6001 102.33C52.4875 105.049 49.9154 107.378 47.0001 109.21C46.6401 109.44 46.2701 109.67 45.9001 109.88L44.7601 110.48C44.0101 110.89 43.2101 111.21 42.4201 111.55C40.8287 112.178 39.1903 112.679 37.5201 113.05C35.8555 113.417 34.1627 113.641 32.4601 113.72C31.6101 113.72 30.7601 113.72 29.9201 113.72C29.5001 113.72 29.0701 113.72 28.6501 113.63L28.0201 113.56H27.7001C27.5715 113.528 27.4473 113.481 27.3301 113.42ZM27.4701 113.42C27.8646 113.369 28.2623 113.346 28.6601 113.35C29.0801 113.35 29.5001 113.35 29.9101 113.28C30.7401 113.21 31.5601 113.11 32.3901 113C34.0226 112.758 35.6364 112.404 37.2201 111.94C40.3755 111.057 43.3818 109.709 46.1401 107.94C48.9235 106.215 51.4147 104.058 53.5201 101.55C55.6669 99.0428 57.359 96.1797 58.5201 93.09L59.0001 93.55C55.9877 94.4408 53.0598 95.5952 50.2501 97C47.4819 98.4726 44.8099 100.119 42.2501 101.93C39.6901 103.68 37.1801 105.54 34.7201 107.48C33.4901 108.48 32.2601 109.42 31.0601 110.48C29.8601 111.54 28.7801 112.23 27.4701 113.37V113.42Z" fill="#231F20"/>
<path d="M27.2204 113.39C25.7365 111.66 24.6591 109.619 24.0673 107.418C23.4755 105.217 23.3843 102.911 23.8004 100.67C24.9004 94.15 29.6704 88.32 35.5104 86.67C37.1975 90.9824 37.4466 95.7245 36.2204 100.19C34.869 105.513 31.6816 110.188 27.2204 113.39Z" fill="#3E9581"/>
<path d="M27.2104 113.46C26.6681 112.998 26.1815 112.475 25.7604 111.9C25.3366 111.341 24.9587 110.749 24.6304 110.13C23.9512 108.878 23.4688 107.529 23.2004 106.13C22.6397 103.325 22.8894 100.418 23.9204 97.7499C24.9667 95.1402 26.5161 92.7617 28.4804 90.7499C30.3899 88.6968 32.7527 87.1182 35.3804 86.1399L35.7704 86.0099L35.9604 86.4199C37.0477 88.8018 37.6332 91.382 37.6804 93.9999C37.7255 95.2927 37.6653 96.587 37.5004 97.8699C36.9456 101.725 35.3945 105.368 33.0004 108.44C31.422 110.48 29.4539 112.187 27.2104 113.46ZM27.2104 113.31C29.0605 111.69 30.682 109.826 32.0304 107.77C33.364 105.729 34.3947 103.506 35.0904 101.17C35.8108 98.8466 36.1947 96.4321 36.2304 93.9999C36.2457 91.5653 35.8536 89.1452 35.0704 86.8399L35.6504 87.1199C33.0239 87.7448 30.6428 89.1373 28.8104 91.1199C27.0181 93.1225 25.7261 95.5214 25.0404 98.1199C24.6895 99.3912 24.442 100.689 24.3004 102C24.1787 103.309 24.2022 104.627 24.3704 105.93C24.7406 108.578 25.7196 111.104 27.2304 113.31H27.2104Z" fill="#231F20"/>
<path d="M27.1299 113.48C27.2099 112.54 27.3199 111.48 27.4899 110.24C27.9139 107.001 28.5553 103.793 29.4099 100.64C30.8426 95.734 32.8923 91.0297 35.5099 86.64C37.0818 90.5789 37.4303 94.9001 36.5099 99.04C35.2672 104.844 31.9274 109.985 27.1299 113.48Z" fill="#1E6F5D"/>
<path d="M27.0896 113.55C27.0896 112.55 27.0396 111.17 27.0896 109.91C27.1396 108.65 27.3096 107.54 27.4796 106.36C27.802 103.983 28.3375 101.641 29.0796 99.36C29.9181 97.132 30.8933 94.9579 31.9996 92.85C32.9996 90.72 34.1096 88.61 35.1996 86.49L35.5296 85.84L35.8496 86.54C36.3934 87.7099 36.8253 88.9287 37.1396 90.18C37.4393 91.4332 37.6168 92.7125 37.6696 94C37.8352 97.9192 36.9367 101.81 35.0696 105.26C34.4312 106.386 33.7092 107.462 32.9096 108.48C32.1136 109.489 31.2302 110.426 30.2696 111.28C29.7938 111.705 29.2965 112.106 28.7796 112.48C28.5096 112.66 28.2596 112.85 27.9896 113.02L27.5796 113.28L27.3696 113.4C27.2804 113.457 27.1868 113.507 27.0896 113.55ZM27.1596 113.42C27.2596 113.21 27.5796 113.01 27.7796 112.79C27.9796 112.57 28.2296 112.35 28.4496 112.14C28.8896 111.69 29.2996 111.22 29.7196 110.76C30.5269 109.809 31.2718 108.807 31.9496 107.76C33.305 105.726 34.3592 103.506 35.0796 101.17C35.8557 98.858 36.264 96.4386 36.2896 94C36.3257 91.5449 35.9505 89.1011 35.1796 86.77H35.8296C34.5161 88.7259 33.3975 90.8059 32.4896 92.98C31.6276 95.1606 30.9094 97.3954 30.3396 99.67C29.7196 101.92 29.1496 104.19 28.6496 106.48L27.1596 113.42Z" fill="#231F20"/>
<path d="M51.6002 22.12C51.5518 19.0815 52.1862 16.0709 53.4566 13.3104C54.727 10.5498 56.601 8.10966 58.9402 6.16997C65.6202 0.439975 75.4602 -1.46003 82.8502 1.83997C80.8957 7.68894 77.1086 12.7525 72.0502 16.28C66.1332 20.5725 58.8917 22.6404 51.6002 22.12Z" fill="#3E9581"/>
<path d="M51.5503 22.17C51.4166 21.2395 51.3864 20.2971 51.4603 19.36C51.5184 18.4339 51.6521 17.5142 51.8603 16.61C52.2697 14.782 52.9435 13.0235 53.8603 11.39C54.7775 9.74869 55.9072 8.23563 57.2203 6.88997C58.5463 5.56852 60.0388 4.42555 61.6603 3.48997C64.8935 1.69328 68.4532 0.561092 72.1303 0.159971C75.8171 -0.309236 79.5626 0.116081 83.0503 1.39997L83.4303 1.54997L83.3103 1.99997C82.3604 5.27583 80.7772 8.33356 78.6503 11C77.5881 12.3435 76.4247 13.6039 75.1703 14.77C73.8935 15.9067 72.5256 16.9369 71.0803 17.85C68.1821 19.6685 64.9972 20.9837 61.6603 21.74C58.348 22.5228 54.9171 22.6687 51.5503 22.17ZM51.6503 22.06C54.9442 22.0647 58.2214 21.5932 61.3803 20.66C64.5151 19.7375 67.4946 18.3523 70.2203 16.55C72.9554 14.7797 75.4123 12.6126 77.5103 10.12C79.6059 7.61259 81.2564 4.76473 82.3903 1.69997L82.6503 2.27997C79.3938 0.727194 75.7574 0.150641 72.1803 0.619971C68.6144 1.12636 65.2149 2.45464 62.2503 4.49997C60.7817 5.49041 59.4031 6.60804 58.1303 7.83997C56.88 9.09793 55.7763 10.4935 54.8403 12C52.9743 15.0438 51.8793 18.497 51.6503 22.06Z" fill="#231F20"/>
<path d="M51.4199 22.13C52.3133 21.23 53.3599 20.23 54.5599 19.13C57.7551 16.1757 61.1425 13.4363 64.6999 10.93C70.3434 7.14839 76.4416 4.09425 82.8499 1.83997C81.0926 7.2096 77.7619 11.927 73.2899 15.38C67.0739 20.2349 59.2909 22.637 51.4199 22.13Z" fill="#1E6F5D"/>
<path d="M51.3496 22.16C52.3496 21.16 53.3496 19.75 54.5596 18.58C55.7696 17.41 56.8296 16.37 58.0096 15.32C60.3741 13.2058 62.9057 11.2862 65.5796 9.57997C68.2922 7.96056 71.1045 6.51433 73.9996 5.24997C76.8996 3.92997 79.7996 2.68997 82.7296 1.49997L83.3996 1.21997L83.1996 1.99997C82.7384 3.64637 82.1258 5.24653 81.3696 6.77997C80.5838 8.30457 79.6599 9.75396 78.6096 11.11C76.493 13.8152 73.9171 16.1271 70.9996 17.94C70.6396 18.17 70.2696 18.4 69.8996 18.61L68.7496 19.21C67.9996 19.62 67.1996 19.94 66.4196 20.28C64.8243 20.9065 63.1827 21.408 61.5096 21.78C59.8494 22.1522 58.1594 22.3765 56.4596 22.45C55.6096 22.5 54.7596 22.45 53.9196 22.45C53.4896 22.45 53.0696 22.4 52.6496 22.36L51.9996 22.3L51.6796 22.25C51.5677 22.2275 51.4574 22.1974 51.3496 22.16ZM51.4896 22.1C51.8835 22.039 52.2811 22.0056 52.6796 22C53.0996 22 53.5096 22 53.9296 21.93C54.7596 21.86 55.5796 21.76 56.3996 21.65C58.0365 21.4142 59.654 21.0599 61.2396 20.59C64.3936 19.703 67.3994 18.3551 70.1596 16.59C72.9431 14.865 75.4342 12.708 77.5396 10.2C79.6829 7.69028 81.3746 4.82786 82.5396 1.73997L83.0096 2.19997C80.0122 3.12057 77.1011 4.30174 74.3096 5.72997C71.5401 7.20034 68.868 8.84706 66.3096 10.66C63.7396 12.41 61.2396 14.27 58.7796 16.21C57.5496 17.21 56.3096 18.15 55.1196 19.16C53.9296 20.17 52.7896 21 51.4896 22.1Z" fill="#231F20"/>
<path d="M25.82 122C22.8272 122.518 19.7562 122.359 16.8332 121.534C13.9101 120.708 11.2095 119.237 8.93002 117.23C2.22002 111.53 -1.17998 102.1 0.930022 94.28C7.03224 95.293 12.6441 98.2497 16.93 102.71C22.0724 107.893 25.2207 114.724 25.82 122Z" fill="#3E9581"/>
<path d="M25.8801 122C24.9835 122.28 24.0572 122.455 23.1201 122.52C22.1949 122.595 21.2652 122.595 20.3401 122.52C18.4719 122.408 16.6296 122.028 14.8701 121.39C13.0955 120.745 11.4142 119.867 9.87007 118.78C8.37749 117.669 7.03323 116.372 5.87007 114.92C3.58959 111.992 1.91378 108.641 0.940071 105.06C-0.0989287 101.484 -0.260155 97.7111 0.470071 94.06L0.560071 93.66L1.00007 93.71C4.40579 94.1577 7.68902 95.2759 10.6601 97C12.1527 97.8367 13.5771 98.7896 14.9201 99.85C16.243 100.933 17.4739 102.124 18.6001 103.41C20.8469 105.987 22.6422 108.925 23.9101 112.1C25.186 115.246 25.8545 118.605 25.8801 122ZM25.7601 121.91C25.2484 118.659 24.2683 115.5 22.8501 112.53C21.4606 109.571 19.6297 106.84 17.4201 104.43C15.2418 102.007 12.7219 99.9155 9.94007 98.22C7.13215 96.5502 4.06227 95.3669 0.860071 94.72L1.39007 94.37C0.364825 97.8289 0.364825 101.511 1.39007 104.97C2.44173 108.417 4.284 111.571 6.77007 114.18C7.97636 115.477 9.29481 116.665 10.7101 117.73C12.1392 118.769 13.6826 119.642 15.3101 120.33C18.6116 121.705 22.1985 122.254 25.7601 121.93V121.91Z" fill="#231F20"/>
<path d="M25.8599 122.15C24.8599 121.41 23.6699 120.54 22.3899 119.52C18.9789 116.821 15.7517 113.898 12.7299 110.77C8.11196 105.787 4.14371 100.24 0.919922 94.2599C6.49552 95.1665 11.6715 97.7231 15.7799 101.6C21.5502 106.979 25.1383 114.294 25.8599 122.15Z" fill="#1E6F5D"/>
<path d="M25.9005 122.22C24.7205 121.42 23.2005 120.57 21.9005 119.6C20.6005 118.63 19.3705 117.7 18.1505 116.7C15.6934 114.691 13.3995 112.491 11.2905 110.12C9.26882 107.679 7.40184 105.114 5.70047 102.44C3.9338 99.8133 2.2338 97.1466 0.600469 94.4399L0.230469 93.8099L1.00047 93.8999C2.69838 94.1065 4.37266 94.4748 6.00047 94.9999C7.62822 95.5214 9.20481 96.1909 10.7105 96.9999C13.732 98.6599 16.4396 100.836 18.7105 103.43C18.9905 103.76 19.2705 104.08 19.5405 104.43L20.3105 105.43C20.8405 106.11 21.3105 106.85 21.7405 107.58C22.6066 109.056 23.3556 110.597 23.9805 112.19C24.6025 113.772 25.0876 115.405 25.4305 117.07C25.6084 117.899 25.7419 118.737 25.8305 119.58C25.8305 120.01 25.9205 120.43 25.9405 120.85C25.9405 121.063 25.9405 121.273 25.9405 121.48V121.81C25.9405 122 25.9105 122.11 25.9005 122.22ZM25.8205 122.08C25.7125 121.699 25.629 121.312 25.5705 120.92C25.5005 120.51 25.3905 120.11 25.3105 119.7C25.1105 118.89 24.8805 118.09 24.6405 117.3C24.1476 115.72 23.5461 114.177 22.8405 112.68C21.4625 109.702 19.6494 106.945 17.4605 104.5C15.3207 102.023 12.803 99.9005 10.0005 98.2099C7.18712 96.4975 4.09797 95.2862 0.870469 94.6299L1.25047 94.0899C2.62885 96.8919 4.24828 99.5686 6.09047 102.09C7.97529 104.589 10.016 106.968 12.2005 109.21C14.3405 111.47 16.5638 113.66 18.8705 115.78C20.0005 116.9 21.1605 118 22.3505 119C23.5405 120 24.4905 121 25.8205 122.08Z" fill="#231F20"/>
<path d="M49.29 24.67C48.7225 27.0859 47.619 29.3433 46.0611 31.2751C44.5032 33.2069 42.5309 34.7636 40.29 35.83C33.84 39.03 25.65 38.55 20.46 34.45C23.1847 30.2049 27.2078 26.9535 31.93 25.18C37.4766 22.9737 43.6234 22.7932 49.29 24.67Z" fill="#3E9581"/>
<path d="M49.3598 24.64C49.2952 25.4095 49.1374 26.1684 48.8898 26.9C48.6654 27.6209 48.3845 28.3231 48.0498 29C47.3778 30.3833 46.5013 31.6576 45.4498 32.78C43.3386 35.057 40.6283 36.6928 37.6298 37.5C34.6889 38.2414 31.631 38.3977 28.6298 37.96C25.6015 37.5894 22.7031 36.5103 20.1698 34.81L19.8398 34.57L19.9998 34.2C21.3963 31.7551 23.2701 29.6161 25.5098 27.91C26.6231 27.0472 27.8035 26.2747 29.0398 25.6C32.7896 23.6316 36.9873 22.6735 41.2198 22.82C44.0264 22.8861 46.7924 23.5045 49.3598 24.64ZM49.2298 24.71C46.6107 24.0916 43.918 23.8426 41.2298 23.97C38.573 24.0793 35.9473 24.5848 33.4398 25.47C30.9475 26.3273 28.5904 27.5361 26.4398 29.06C24.284 30.6189 22.4018 32.5248 20.8698 34.7L20.7598 34.07C23.0044 35.9717 25.7586 37.1715 28.6798 37.52C31.5988 37.8272 34.549 37.44 37.2898 36.39C38.64 35.8894 39.9476 35.2808 41.1998 34.57C42.4255 33.8427 43.5659 32.9807 44.5998 32C46.6908 29.9645 48.2764 27.4679 49.2298 24.71Z" fill="#231F20"/>
<path d="M49.4404 24.7C48.5504 25.23 47.5204 25.83 46.3404 26.46C43.2129 28.1542 39.9757 29.6375 36.6504 30.9C31.4192 32.7647 25.9723 33.9576 20.4404 34.45C22.9151 30.5476 26.5078 27.481 30.7504 25.65C36.6515 23.0451 43.3057 22.7069 49.4404 24.7Z" fill="#1E6F5D"/>
<path d="M49.51 24.69C48.57 25.31 47.43 26.23 46.27 26.95C45.11 27.67 44 28.26 42.89 28.86C40.5913 30.0656 38.1923 31.0694 35.72 31.86C33.2253 32.5798 30.6867 33.1376 28.12 33.53C25.58 33.98 23.04 34.39 20.47 34.77L19.75 34.88L20.13 34.22C21.4848 31.7442 23.341 29.5781 25.58 27.86C27.7996 26.0906 30.3199 24.7356 33.02 23.86C33.6752 23.6373 34.3431 23.4536 35.02 23.31C35.7202 23.1667 36.428 23.0632 37.14 23C38.5361 22.8253 39.9441 22.7651 41.35 22.82C42.7491 22.873 44.1409 23.047 45.51 23.34C46.1767 23.4867 46.8433 23.6667 47.51 23.88C47.84 23.99 48.17 24.09 48.51 24.22C48.6772 24.2729 48.8409 24.3364 49 24.41L49.24 24.51C49.3355 24.5614 49.4259 24.6216 49.51 24.69ZM49.36 24.69C49.0221 24.6776 48.6867 24.6272 48.36 24.54C48.03 24.47 47.69 24.42 47.36 24.36C46.68 24.26 46.01 24.18 45.36 24.11C44.0303 23.9887 42.6941 23.9553 41.36 24.01C38.691 24.1105 36.0505 24.5955 33.52 25.45C30.9783 26.2526 28.5789 27.4507 26.41 29C24.2175 30.5458 22.3036 32.453 20.75 34.64L20.41 34.08C22.9729 33.9919 25.5213 33.657 28.02 33.08C30.4966 32.4494 32.9314 31.6645 35.31 30.73C37.69 29.8367 40.05 28.8767 42.39 27.85L49.36 24.69Z" fill="#231F20"/>
<path d="M51.3902 27.61C48.4625 28.4186 45.3905 28.559 42.4012 28.0207C39.412 27.4824 36.5819 26.2792 34.1202 24.5C26.8902 19.5 22.6002 10.4 23.9402 2.42999C30.0937 2.85358 35.9451 5.25656 40.6202 9.27999C46.2586 13.9295 50.0731 20.4215 51.3902 27.61Z" fill="#3E9581"/>
<path d="M51.4499 27.6499C50.5824 28.0138 49.6767 28.2788 48.7499 28.4399C47.8389 28.6101 46.9162 28.7104 45.9899 28.7399C44.1212 28.8085 42.2524 28.6098 40.4399 28.1499C38.6233 27.6633 36.8784 26.9405 35.2499 25.9999C33.6383 25.0478 32.159 23.8878 30.8499 22.5499C28.2923 19.8688 26.3026 16.6988 24.9999 13.2299C23.6184 9.78013 23.0934 6.04696 23.4699 2.34994L23.5199 1.93994H23.9999C27.4136 2.03184 30.7751 2.8 33.8899 4.19994C35.4597 4.88661 36.9713 5.69927 38.4099 6.62994C39.832 7.57688 41.1703 8.64413 42.4099 9.81994C44.899 12.1798 46.9685 14.9459 48.5299 17.9999C50.1086 21.0014 51.0997 24.2767 51.4499 27.6499ZM51.3199 27.5699C50.5025 24.3822 49.2258 21.3302 47.5299 18.5099C45.8511 15.713 43.7649 13.1818 41.3399 10.9999C38.9368 8.80029 36.2247 6.96417 33.2899 5.54994C30.339 4.14983 27.1696 3.26699 23.9199 2.93994L24.4199 2.53994C23.7249 6.07926 24.0723 9.74423 25.4199 13.0899C26.7979 16.4198 28.9347 19.3818 31.6599 21.7399C32.9805 22.918 34.4065 23.9725 35.9199 24.8899C37.4476 25.7752 39.0715 26.4832 40.7599 26.9999C44.1812 28.0457 47.8059 28.2414 51.3199 27.5699Z" fill="#231F20"/>
<path d="M51.4504 27.78C50.3504 27.15 49.1104 26.39 47.7404 25.5C44.084 23.1431 40.5895 20.544 37.2804 17.72C32.2069 13.2062 27.7246 8.06873 23.9404 2.42999C29.5791 2.78683 34.9799 4.83217 39.4404 8.29999C45.6968 13.1011 49.9709 20.0338 51.4504 27.78Z" fill="#1E6F5D"/>
<path d="M51.49 27.85C50.24 27.17 48.64 26.47 47.22 25.63C45.8 24.79 44.52 23.99 43.22 23.1C40.5763 21.3441 38.0813 19.3741 35.76 17.21C33.51 14.9778 31.4026 12.6064 29.45 10.11C27.45 7.65999 25.54 5.16999 23.65 2.62999L23.21 2.04999H24C25.6816 2.08674 27.3559 2.2843 29 2.63999C30.6719 3.01508 32.3055 3.544 33.88 4.21999C37.046 5.58152 39.9471 7.49076 42.45 9.85999L43.37 10.75L44.24 11.75C44.813 12.3892 45.3537 13.0567 45.86 13.75C46.8645 15.1355 47.7605 16.5965 48.54 18.12C49.3089 19.6399 49.9479 21.2223 50.45 22.85C50.7077 23.6578 50.9214 24.479 51.09 25.31C51.17 25.72 51.26 26.14 51.33 26.55C51.33 26.76 51.39 26.97 51.41 27.18V27.51C51.4448 27.6212 51.4716 27.7349 51.49 27.85ZM51.4 27.72C51.2383 27.3539 51.1046 26.9762 51 26.59C50.88 26.19 50.75 25.79 50.62 25.4C50.34 24.61 50.04 23.84 49.73 23.07C49.0819 21.5487 48.3336 20.0722 47.49 18.65C45.8502 15.8096 43.794 13.231 41.39 11C39.029 8.74413 36.3297 6.8715 33.39 5.44999C30.4214 4.01713 27.2279 3.10712 23.95 2.75999L24.28 2.18999C25.9188 4.86788 27.7929 7.39452 29.88 9.73999C31.9937 12.0473 34.2516 14.2183 36.64 16.24C38.98 18.28 41.4033 20.2467 43.91 22.14C45.15 23.09 46.4 24.04 47.67 24.95C48.94 25.86 50 26.75 51.4 27.72Z" fill="#231F20"/>
<path d="M43.8604 41.68C47.0764 41.095 50.2578 40.3338 53.3904 39.4C56.6546 38.4467 59.8629 37.3116 63.0004 36" stroke="#754C29" stroke-miterlimit="10" stroke-linecap="round"/>
<path d="M30.6097 83C27.2897 83 20.4097 83.66 15.2897 88.65C14.6126 89.308 13.9905 90.0204 13.4297 90.78" stroke="#754C29" stroke-miterlimit="10" stroke-linecap="round"/>
<path d="M14.2752 102.326C18.5029 101.081 20.8981 96.5675 19.6249 92.2444C18.3517 87.9214 13.8924 85.4262 9.6647 86.6712C5.437 87.9163 3.04187 92.4302 4.31504 96.7533C5.58821 101.076 10.0475 103.572 14.2752 102.326Z" fill="#923290"/>
<path d="M12.3026 102.016C15.3912 101.107 17.1046 97.6851 16.1294 94.3739C15.1543 91.0627 11.8599 89.1159 8.77122 90.0255C5.68256 90.9351 3.96923 94.3568 4.94439 97.668C5.91955 100.979 9.21393 102.926 12.3026 102.016Z" fill="#8F4D9E"/>
<path d="M11.1294 102.174C11.4916 101.535 10.6322 100.363 9.20994 99.5574C7.78768 98.7514 6.34112 98.6161 5.97897 99.2552C5.61682 99.8942 6.47621 101.066 7.89848 101.872C9.32074 102.678 10.7673 102.813 11.1294 102.174Z" fill="#0067AC"/>
<path d="M7.91987 101.9C7.392 101.616 6.89299 101.281 6.42987 100.9C6.19006 100.705 5.99267 100.464 5.84987 100.19C5.75904 100.041 5.70527 99.8725 5.69309 99.6985C5.68091 99.5245 5.71067 99.3501 5.77987 99.19C5.87343 99.04 6.00508 98.9174 6.16143 98.8348C6.31777 98.7523 6.49321 98.7126 6.66987 98.72C6.9735 98.7152 7.27634 98.7522 7.56987 98.83C8.14891 98.963 8.7121 99.1574 9.24987 99.41C9.79799 99.654 10.2989 99.9925 10.7299 100.41C10.9602 100.63 11.1528 100.887 11.2999 101.17C11.3932 101.331 11.4488 101.51 11.4627 101.696C11.4766 101.881 11.4482 102.067 11.3799 102.24C11.2826 102.401 11.1464 102.535 10.9839 102.629C10.8214 102.723 10.6377 102.775 10.4499 102.78C10.1343 102.799 9.81822 102.754 9.51987 102.65C8.96249 102.455 8.4264 102.204 7.91987 101.9ZM7.91987 101.9C8.42558 102.176 8.98501 102.34 9.55987 102.38C10.0899 102.38 10.7499 102.38 10.8799 102.05C11.0099 101.72 10.7199 101.17 10.3699 100.78C9.98794 100.367 9.55826 100.001 9.08987 99.69C8.62682 99.3547 8.0989 99.1197 7.53987 99C7.00987 98.9 6.29987 99 6.14987 99.38C5.99987 99.76 6.34987 100.29 6.65987 100.73C7.00317 101.192 7.43915 101.577 7.93987 101.86L7.91987 101.9Z" fill="#231F20"/>
<path d="M10.6508 101.903C10.9476 101.379 10.2494 100.422 9.09145 99.7662C7.93346 99.11 6.75413 99.0026 6.45733 99.5263C6.16053 100.05 6.85866 101.007 8.01665 101.663C9.17464 102.319 10.354 102.426 10.6508 101.903Z" fill="#124B9A"/>
<path d="M9.20976 92.33C9.04976 92 7.35976 92 6.46976 93C5.23976 94.36 6.10976 96.89 6.46976 96.91C6.82976 96.93 6.60976 95.91 7.38976 94.57C8.16976 93.23 9.35976 92.64 9.20976 92.33Z" fill="white"/>
<path d="M9.61999 103.45C10.01 103.45 10.44 102.53 10.09 101.65C9.79816 101.046 9.3225 100.551 8.73135 100.235C8.14021 99.9184 7.46403 99.7977 6.79999 99.8899C5.88999 100.18 5.62999 101.37 5.87999 101.57C6.12999 101.77 6.72999 101.18 7.05999 101.42C7.38999 101.66 7.05999 102.33 7.33999 102.48C7.61999 102.63 7.81999 102.12 8.26999 102.18C8.90999 102.28 9.19999 103.42 9.61999 103.45Z" fill="#2B3990"/>
<path d="M55.065 25.6135C56.9684 23.4409 56.7096 20.1012 54.4871 18.1542C52.2646 16.2072 48.92 16.3901 47.0166 18.5627C45.1133 20.7354 45.372 24.075 47.5945 26.022C49.817 27.9691 53.1617 27.7862 55.065 25.6135Z" fill="#923290"/>
<path d="M54.3882 23.4413C55.7784 21.8543 55.5247 19.3583 53.8215 17.8662C52.1183 16.3741 49.6105 16.4509 48.2203 18.0378C46.8301 19.6248 47.0839 22.1208 48.7871 23.6129C50.4903 25.105 52.998 25.0282 54.3882 23.4413Z" fill="#8F4D9E"/>
<path d="M50.8028 18.3215C51.873 18.2686 52.7212 17.8367 52.6975 17.3568C52.6738 16.8769 51.7871 16.5307 50.7169 16.5836C49.6468 16.6365 48.7985 17.0684 48.8223 17.5483C48.846 18.0282 49.7327 18.3744 50.8028 18.3215Z" fill="#0067AC"/>
<path d="M50.69 16.55C51.0794 16.5198 51.4706 16.5198 51.86 16.55C52.0748 16.5605 52.2839 16.6222 52.47 16.73C52.5867 16.7852 52.6875 16.8693 52.7627 16.9742C52.838 17.0792 52.8852 17.2016 52.9 17.33C52.8947 17.4546 52.858 17.5758 52.7934 17.6825C52.7287 17.7891 52.6381 17.8777 52.53 17.94C52.3532 18.0439 52.1654 18.1278 51.97 18.19C51.5984 18.317 51.2172 18.414 50.83 18.48C50.4335 18.5549 50.0265 18.5549 49.63 18.48C49.4212 18.4334 49.2194 18.3594 49.03 18.26C48.9082 18.1986 48.8023 18.1097 48.7207 18.0003C48.6392 17.891 48.5841 17.7642 48.56 17.63C48.5555 17.4923 48.5863 17.3558 48.6492 17.2333C48.7122 17.1108 48.8054 17.0064 48.92 16.93C49.099 16.8032 49.3039 16.7178 49.52 16.68C49.907 16.6126 50.2977 16.5692 50.69 16.55ZM50.69 16.6C50.3325 16.6376 49.9894 16.7611 49.69 16.96C49.39 17.14 49.09 17.42 49.14 17.54C49.19 17.66 49.48 17.9 49.8 17.99C50.149 18.0905 50.5077 18.1542 50.87 18.18C51.2258 18.1985 51.5812 18.137 51.91 18C52.24 17.87 52.56 17.52 52.48 17.33C52.4 17.14 52.1 16.96 51.79 16.81C51.4446 16.6556 51.068 16.5837 50.69 16.6Z" fill="#231F20"/>
<path d="M50.7947 18.1617C51.6662 18.1186 52.357 17.7662 52.3377 17.3745C52.3183 16.9829 51.5961 16.7003 50.7246 16.7434C49.853 16.7865 49.1622 17.1389 49.1815 17.5305C49.2009 17.9222 49.9231 18.2048 50.7947 18.1617Z" fill="#124B9A"/>
<path d="M53.3303 22.32C53.5503 22.46 54.4803 21.86 54.6203 20.99C54.6493 20.5327 54.5336 20.0779 54.2894 19.6901C54.0453 19.3024 53.6852 19.0014 53.2603 18.83C53.1303 18.9 53.5303 19.43 53.5703 20.44C53.6103 21.45 53.1403 22.19 53.3303 22.32Z" fill="white"/>
<path d="M49.2102 16.3C48.9802 16.43 49.0802 17.1 49.5802 17.47C49.9526 17.6941 50.3854 17.7972 50.8188 17.7649C51.2523 17.7327 51.665 17.5668 52.0002 17.29C52.4002 16.8 52.1302 16.06 51.9202 16.03C51.7102 16 51.5802 16.55 51.3102 16.53C51.0402 16.51 51.0002 16 50.8102 16C50.6202 16 50.6702 16.37 50.4002 16.49C50.1302 16.61 49.4502 16.17 49.2102 16.3Z" fill="#2B3990"/>
<path d="M50.7385 30.1392C52.4168 27.7073 51.8501 24.4059 49.4728 22.7653C47.0955 21.1247 43.8078 21.7662 42.1296 24.198C40.4513 26.6299 41.018 29.9312 43.3953 31.5718C45.7726 33.2124 49.0603 32.571 50.7385 30.1392Z" fill="#9951A0"/>
<path d="M48.1988 29.2333C49.4849 27.3697 49.1199 24.8875 47.3835 23.6892C45.6471 22.4909 43.1969 23.0303 41.9108 24.8939C40.6246 26.7576 40.9896 29.2398 42.726 30.4381C44.4624 31.6364 46.9127 31.097 48.1988 29.2333Z" fill="#923290"/>
<path d="M42.2087 30.1632C42.6843 30.0863 42.931 29.1641 42.7596 28.1034C42.5881 27.0427 42.0635 26.2451 41.5879 26.322C41.1122 26.3989 40.8655 27.3211 41.037 28.3818C41.2084 29.4425 41.733 30.2401 42.2087 30.1632Z" fill="#0067AC"/>
<path d="M40.9999 28.16C40.909 27.7787 40.8488 27.3908 40.8199 27C40.8048 26.7884 40.839 26.5761 40.9199 26.38C40.9641 26.2593 41.0375 26.1514 41.1334 26.066C41.2294 25.9805 41.3449 25.92 41.4699 25.89C41.5955 25.878 41.7221 25.8984 41.8376 25.9492C41.9531 25.9999 42.0537 26.0794 42.1299 26.18C42.2501 26.3462 42.3539 26.5237 42.4399 26.71C42.6032 27.0627 42.7403 27.427 42.8499 27.8C42.9752 28.1869 43.0261 28.5941 42.9999 29C42.9811 29.2162 42.9306 29.4285 42.8499 29.63C42.8026 29.7565 42.7264 29.8703 42.6275 29.9623C42.5285 30.0543 42.4095 30.122 42.2799 30.16C42.1429 30.1795 42.0033 30.1641 41.8739 30.1151C41.7445 30.0662 41.6296 29.9853 41.5399 29.88C41.399 29.7167 41.2934 29.5261 41.2299 29.32C41.1259 28.9392 41.0491 28.5516 40.9999 28.16ZM41.0499 28.16C41.1249 28.5259 41.286 28.8687 41.5199 29.16C41.7299 29.43 42.0499 29.7 42.1599 29.63C42.2699 29.56 42.4899 29.25 42.5299 28.92C42.5989 28.5644 42.6225 28.2015 42.5999 27.84C42.5899 27.4653 42.4905 27.0984 42.3099 26.77C42.1499 26.46 41.7599 26.18 41.5899 26.28C41.4199 26.38 41.2599 26.7 41.1499 27.04C41.0092 27.392 40.9577 27.7733 40.9999 28.15L41.0499 28.16Z" fill="#231F20"/>
<path d="M42.121 29.534C42.5078 29.4697 42.7054 28.7198 42.5623 27.859C42.4191 26.9982 41.9895 26.3525 41.6027 26.4168C41.2159 26.4811 41.0184 27.2311 41.1615 28.0919C41.3046 28.9527 41.7342 29.5983 42.121 29.534Z" fill="#124B9A"/>
<path d="M46.4004 24.87C46.5104 24.64 45.8104 23.78 44.9404 23.74C44.4822 23.766 44.0434 23.934 43.685 24.2207C43.3266 24.5074 43.0664 24.8986 42.9404 25.34C43.0304 25.46 43.5104 25 44.5104 24.85C45.5104 24.7 46.3004 25.07 46.4004 24.87Z" fill="white"/>
<path d="M40.9003 29.6599C41.0503 29.8699 41.7103 29.6599 42.0103 29.1599C42.199 28.7614 42.2562 28.3131 42.1735 27.8799C42.0908 27.4467 41.8726 27.051 41.5503 26.7499C41.0303 26.4099 40.3203 26.7499 40.3203 26.9799C40.3203 27.2099 40.8703 27.2499 40.8803 27.5199C40.8903 27.7899 40.4203 27.8999 40.4603 28.0999C40.5003 28.2999 40.8403 28.1899 40.9903 28.4499C41.1403 28.7099 40.7403 29.4299 40.9003 29.6599Z" fill="#2B3990"/>
<path d="M54.9726 32.0548C57.8417 31.3485 59.6078 28.5023 58.9173 25.6976C58.2269 22.8929 55.3413 21.1918 52.4722 21.8981C49.6032 22.6044 47.8371 25.4506 48.5275 28.2553C49.218 31.06 52.1036 32.7611 54.9726 32.0548Z" fill="#923290"/>
<path d="M55.5818 31.6602C57.7806 31.119 59.1541 29.0195 58.6498 26.9709C58.1455 24.9223 55.9543 23.7005 53.7556 24.2417C51.5568 24.783 50.1832 26.8825 50.6876 28.9311C51.1919 30.9796 53.3831 32.2015 55.5818 31.6602Z" fill="#8F4D9E"/>
<path d="M52.2098 28.72C51.9698 28.82 51.9298 29.92 52.5598 30.54C52.919 30.8241 53.3581 30.9884 53.8155 31.01C54.2729 31.0315 54.7256 30.9091 55.1098 30.66C55.1098 30.51 54.4598 30.54 53.6098 29.99C52.7598 29.44 52.4198 28.64 52.2098 28.72Z" fill="white"/>
</svg>
