<svg width="31" height="39" viewBox="0 0 31 39" fill="none" xmlns="http://www.w3.org/2000/svg">
<g clip-path="url(#clip0_1477:97)">
<path d="M21.2592 7.26002C21.4292 4.08002 20.1192 1.42001 17.8292 0.420015C14.9192 -0.839985 10.8992 0.770015 8.29923 4.42001C10.2236 4.34951 12.1378 4.72961 13.8892 5.53001C15.2192 6.16002 16.5592 7.10001 16.4092 7.41001C16.2592 7.72001 13.5792 6.11001 10.2392 7.00001C6.23923 8.09001 3.10923 12.45 3.35923 13C3.60923 13.55 5.62923 11.4 9.14923 10.64C11.9092 10.05 14.4492 10.44 14.3992 10.93C14.3492 11.42 12.7992 11.6 8.90923 13C3.18923 15.11 2.38923 16 1.99923 16.43C1.60923 16.86 -0.14077 19.36 0.75923 24.58C1.75923 22.58 4.31923 17.73 8.42923 16.12C10.4292 15.33 13.1992 15.2 13.2792 15.96C13.3392 16.49 12.1292 17.36 11.5992 17.74C8.99923 19.61 7.64923 19 5.46923 20.11C4.17527 20.7949 3.03609 21.7387 2.12258 22.8827C1.20906 24.0268 0.540749 25.3466 0.15923 26.76C-0.35077 29.14 0.45923 31.5 1.24923 31.4C2.24923 31.28 2.40923 27.58 5.02923 25.14C6.83923 23.45 9.24923 22.5 9.62923 23.14C10.0092 23.78 8.83923 25.86 2.62923 32.63C2.5294 33.8754 2.80453 35.1223 3.41923 36.21C3.7347 36.7246 4.15357 37.168 4.64932 37.5123C5.14507 37.8566 5.70689 38.0941 6.29923 38.21C8.99923 36 10.4892 35.72 11.3892 36C12.2892 36.28 12.4992 36.87 13.1992 36.64C14.2592 36.29 14.9392 34.4 15.3892 33.18C16.3092 31.0534 16.6174 28.7123 16.2792 26.42C15.8692 24.55 15.0492 24.2 15.2792 22.72C15.5092 21.24 16.5192 19.79 17.1492 19.8C18.7492 19.8 18.6492 29.86 16.1492 33.8C15.9792 34.06 15.5992 34.61 15.6992 34.8C15.9392 35.12 19.4092 33.32 20.5692 30.59C21.9292 27.4 19.0992 25.44 20.0392 19.59C20.0392 19.42 20.4992 16.81 20.9392 16.72C21.6492 16.58 21.9392 22.98 22.1092 28.54C25.0392 26.54 25.7392 24.72 25.9492 23.85C26.5692 21.36 25.1092 18.85 22.9992 15.12C21.9992 13.45 21.4792 12.77 21.7192 12.44C22.1392 11.85 24.9592 12.55 26.3892 14.78C28.1692 17.54 26.9692 21.31 27.6792 21.34C28.3892 21.37 30.0692 18.12 30.2992 14.85C30.5092 11.85 29.4492 8.41002 26.9092 7.20001C25.8429 6.75052 24.68 6.5785 23.5292 6.70001C22.7504 6.78123 21.9865 6.96968 21.2592 7.26002Z" fill="#3A7867"/>
<path d="M10.9985 25.56C10.7085 25.35 8.10854 28.09 6.82854 31.64C6.71854 31.94 6.05854 33.78 6.28854 33.87C6.82854 34.07 11.4785 25.9 10.9985 25.56Z" fill="white"/>
<path d="M16.1901 2.08002C16.3301 1.88002 17.3401 2.23002 18.1201 2.87002C19.6601 4.15002 20.1201 6.43002 19.8701 6.63002C19.6201 6.83002 19.5101 6.24002 17.6101 4.00002C16.5101 2.68002 16.0901 2.24002 16.1901 2.08002Z" fill="white"/>
<path d="M10.6998 21.28C9.97984 21.13 5.69984 20.28 2.83984 23.36C1.74984 24.51 0.999842 26.07 1.13984 26.22C1.27984 26.37 2.90984 24.1 5.32984 22.64C6.94522 21.6638 8.81454 21.1904 10.6998 21.28Z" fill="white"/>
<path d="M14.5494 12.4C14.0346 12.7935 13.4779 13.1289 12.8894 13.4C12.3507 13.6674 11.7791 13.8624 11.1894 13.98C10.559 13.9897 9.93174 14.0702 9.31937 14.22C8.73606 14.4473 8.21996 14.8189 7.81938 15.3C7.42968 15.7805 7.0052 16.2317 6.54938 16.65C6.11938 17.06 5.70937 17.5 5.23937 17.87C4.25493 18.6702 3.17296 19.3422 2.01937 19.87L1.85938 19.74C2.18608 18.4268 2.87976 17.2337 3.85937 16.3C4.34282 15.8517 4.88031 15.4654 5.45937 15.15C6.02737 14.8055 6.64441 14.5492 7.28937 14.39C7.89093 14.2239 8.46644 13.9748 8.99937 13.65C9.53937 13.32 9.99938 12.77 10.5794 12.42C11.1607 12.1028 11.8076 11.9248 12.4694 11.9C13.1502 11.8466 13.8342 11.9492 14.4694 12.2L14.5494 12.4Z" fill="#1E6F5D"/>
<path d="M17.9996 16.53C18.5455 16.956 18.9839 17.504 19.2796 18.13C19.5852 18.7179 19.7528 19.3677 19.7696 20.03C19.7696 20.7 19.5096 21.37 19.4896 22.03C19.4817 22.6767 19.5727 23.3209 19.7596 23.94C19.939 24.5911 20.0232 25.2648 20.0096 25.94C20.0306 26.612 19.9668 27.284 19.8196 27.94C19.4945 29.2452 18.8001 30.4291 17.8196 31.35L17.6396 31.28C17.507 30.0214 17.5373 28.7509 17.7296 27.5C17.8196 26.91 17.9996 26.34 18.1396 25.76C18.2821 25.1571 18.4591 24.5627 18.6696 23.98C18.8908 23.3934 18.9563 22.7595 18.8596 22.14C18.6812 21.5349 18.4364 20.9513 18.1296 20.4C17.9408 19.8339 17.8265 19.2457 17.7896 18.65C17.7106 18.0024 17.7106 17.3476 17.7896 16.7L17.9996 16.53Z" fill="#1E6F5D"/>
<path d="M20.9086 8.20002C20.4677 9.38911 19.9292 10.5397 19.2986 11.64C18.7069 12.7374 18.021 13.7814 17.2486 14.76C16.4586 15.76 15.4986 16.6 14.7686 17.61C14.0466 18.637 13.4333 19.7362 12.9386 20.89C12.4286 22.04 11.9386 23.19 11.3086 24.28C10.6786 25.37 10.1386 26.49 9.45859 27.54C8.1009 29.6696 6.51485 31.6446 4.72859 33.43L4.55859 33.33C5.33606 30.9235 6.36859 28.607 7.63859 26.42C8.26859 25.34 8.98859 24.31 9.70859 23.29C10.4118 22.2403 11.1835 21.2381 12.0186 20.29C12.8532 19.366 13.5935 18.361 14.2286 17.29C14.8586 16.21 15.2286 14.99 15.8686 13.87C16.4684 12.762 17.1823 11.7197 17.9986 10.76C18.8068 9.76862 19.7224 8.8698 20.7286 8.08002L20.9086 8.20002Z" fill="#1E6F5D"/>
<path d="M21.7188 16.71C21.8988 16.54 25.0688 19.1 24.7688 22.93C24.6888 23.93 24.3788 24.99 24.1888 25.02C23.9988 25.05 24.1088 22.97 23.4988 20.58C23.1111 19.205 22.5105 17.8992 21.7188 16.71Z" fill="white"/>
</g>
<defs>
<clipPath id="clip0_1477:97">
<rect width="30.36" height="38.24" fill="white"/>
</clipPath>
</defs>
</svg>
