<svg width="87" height="222" viewBox="0 0 87 222" fill="none" xmlns="http://www.w3.org/2000/svg">
<path d="M39.9915 130.869C40.4506 125.463 43.2597 93.0286 51.1466 69.3243C53.2534 63.0266 56.7917 53.9719 57.3589 56.4315C58.0882 59.5669 53.1453 77.46 48.6887 104.543C40.9368 151.735 40.3156 192.495 39.0191 191.549C37.7226 190.603 37.5876 159.79 39.9915 130.869Z" fill="#1F705E"/>
<path d="M39.8301 130.842C40.8565 119.409 41.8289 107.949 43.4765 96.5695C44.9562 85.0959 47.8129 73.8428 51.9847 63.0536C52.4979 61.7022 53.0921 60.3507 53.7133 59.0533C54.0374 58.4046 54.3616 57.7289 54.7397 57.0532C54.9233 56.7058 55.1309 56.3716 55.3609 56.0531C55.4942 55.856 55.6385 55.6665 55.7931 55.4855C55.9017 55.3586 56.0292 55.2491 56.1712 55.1612C56.2715 55.0648 56.3912 54.9911 56.5224 54.9449C56.7357 54.8963 56.9573 54.8963 57.1706 54.9449C57.3921 54.9721 57.6037 55.0527 57.7872 55.1798C57.9707 55.307 58.1206 55.4768 58.224 55.6747C58.3138 55.8567 58.3861 56.0467 58.4401 56.2423V56.9721C58.4824 57.3764 58.4824 57.7841 58.4401 58.1884C58.4401 58.9723 58.251 59.702 58.116 60.4048C57.8729 61.8643 57.5487 63.2698 57.2516 64.6753C56.0092 70.2974 54.5506 75.8653 53.4702 81.4603C51.0933 92.6773 49.2837 104.002 47.9061 115.382C46.5286 126.761 45.4482 138.194 44.4219 149.573C43.3955 160.952 42.6932 172.413 41.7209 183.873L41.3157 188.197C41.3157 188.927 41.3157 189.657 41.0456 190.441C40.9937 190.86 40.9124 191.276 40.8025 191.684C40.736 191.787 40.6638 191.886 40.5864 191.981C40.4968 192.167 40.3977 192.347 40.2893 192.522C40.0651 192.782 39.7762 192.978 39.452 193.09C39.0664 193.198 38.6552 193.172 38.2867 193.015C37.9183 192.857 37.6146 192.579 37.4263 192.225L37.3722 191.981L37.2372 191.522C36.9911 190.011 36.8557 188.485 36.832 186.954C36.832 185.495 36.832 184.062 36.832 182.602C36.832 176.818 37.0211 171.088 37.3452 165.331C37.8854 153.736 38.9118 142.275 39.8301 130.842ZM40.1543 130.842C39.2089 142.275 39.1549 153.79 39.344 165.223C39.452 170.953 39.6051 176.674 39.8031 182.386L40.0192 186.576C40.0722 187.916 40.2075 189.252 40.4244 190.576C40.434 190.504 40.434 190.432 40.4244 190.36C40.3362 190.217 40.216 190.097 40.0732 190.008C39.875 189.86 39.6444 189.76 39.4002 189.718C39.1561 189.675 38.9054 189.692 38.6687 189.765C38.3815 189.849 38.1269 190.018 37.9394 190.252C37.8655 190.343 37.802 190.443 37.7504 190.549C37.7504 190.549 37.7504 190.008 37.8854 189.684C38.0205 189.36 38.0475 188.333 38.1285 187.63L38.4526 183.386C39.8927 160.438 42.498 137.578 46.2585 114.895C48.1492 103.57 50.3371 92.2989 52.5249 81.0278C53.5783 75.3788 54.6587 69.7298 55.577 64.1077C55.8201 62.6752 56.0362 61.4049 56.1982 59.8912C56.1982 59.1885 56.3603 58.4857 56.4143 57.837C56.4683 57.1883 56.4143 57.1343 56.4143 56.9181V56.5396C56.4882 56.6487 56.584 56.741 56.6957 56.8109C56.8073 56.8807 56.9323 56.9264 57.0626 56.9451C57.1872 56.9721 57.3161 56.9721 57.4407 56.9451H57.5758L57.3597 57.2424C57.2246 57.4857 57.0626 57.783 56.9275 58.0803C56.616 58.6961 56.3365 59.3276 56.0902 59.9723C55.55 61.2427 55.0638 62.6752 54.5776 63.9185C50.8731 74.6775 47.8687 85.6652 45.5833 96.8127C43.0139 108.03 41.2002 119.408 40.1543 130.869V130.842Z" fill="#010101"/>
<path d="M36.5086 56.6207C35.5903 56.2964 32.5381 93.2179 33.2404 135.437C33.5105 151.222 34.1317 158.087 34.0507 177.602C33.8886 206.739 32.3761 219.47 33.1324 220.848C34.5369 223.227 42.6939 185.359 41.2354 146.978C40.8032 134.194 39.7228 133.464 38.2913 112.138C36.1575 78.6223 37.1839 56.837 36.5086 56.6207Z" fill="#3E9582"/>
<path d="M36.4541 56.837C36.6702 56.837 36.4541 56.837 36.4541 56.837C36.4397 56.8809 36.4397 56.9282 36.4541 56.9721V57.2694V57.8911L36.265 59.1615L35.9679 61.7022C35.8058 63.432 35.6168 65.1348 35.5357 66.8377C35.3197 70.2703 35.1036 73.703 35.0226 77.1357C34.8065 84.001 34.6984 90.8664 34.6984 97.7317V138.924V159.547C34.6984 166.439 34.6984 173.304 34.4553 180.17C34.2123 187.035 34.2663 193.928 34.0502 200.793L33.7801 211.118V216.253C33.7801 217.118 33.7801 217.983 33.7801 218.956C33.7801 219.335 33.7801 219.794 33.7801 220.119V220.389C33.7801 220.389 33.7801 220.389 33.7801 220.227C33.6578 220.183 33.5243 220.183 33.402 220.227H33.0778C32.7807 220.389 32.8888 220.362 32.8888 220.227C33.2115 219.542 33.4649 218.827 33.645 218.091C33.8611 217.281 34.0502 216.47 34.2393 215.632C34.6174 213.983 34.9415 212.307 35.2386 210.631C35.8329 207.28 36.346 203.901 36.8322 200.496C37.7776 193.738 38.4528 186.981 38.966 180.089C39.4792 173.196 39.8033 166.439 39.8303 159.601C39.8574 152.763 39.8303 145.924 39.2091 139.194C38.5879 132.464 37.7236 125.517 37.3454 118.652C36.9673 111.787 36.6702 104.867 36.5621 97.975C36.4541 91.0826 36.5621 84.2172 36.5621 77.3249V67.0269V57.8911V57.2694V56.837C36.5621 56.837 36.3731 56.837 36.4541 56.837ZM36.4541 56.5397C36.7782 56.9181 36.6161 57.0532 36.6972 57.2965V57.9452V59.2425V61.9454V67.0809C36.6972 70.5406 36.8322 73.9733 37.0213 77.3789C37.3094 84.2443 37.7326 91.1006 38.2908 97.9479C38.804 104.786 39.4252 111.652 40.0194 118.463C40.3435 121.869 40.6947 125.274 41.0728 128.68C41.4239 132.058 41.9101 135.491 42.2342 138.951C43.167 152.775 42.9502 166.652 41.586 180.44C40.9648 187.305 40.0734 194.171 38.885 200.982C38.3178 204.388 37.6966 207.766 36.9133 211.145C36.5621 212.848 36.157 214.524 35.6708 216.199C35.4547 217.028 35.2116 217.866 34.9415 218.713C34.682 219.655 34.3102 220.563 33.8341 221.416C33.6944 221.662 33.4753 221.852 33.2129 221.957C33.056 222.014 32.8836 222.014 32.7267 221.957C32.537 221.941 32.3571 221.865 32.2135 221.74L32.4836 221.308V221.146L32.3215 220.578V220.2C32.2824 219.741 32.2824 219.28 32.3215 218.821C32.3215 217.956 32.3215 217.064 32.3215 216.118L32.6457 210.983C32.8618 207.523 33.0508 204.117 33.1589 200.685C33.456 193.819 33.645 186.954 33.645 180.062C33.645 166.331 32.6997 152.654 32.1055 138.87C31.5112 125.085 31.7813 111.327 32.6457 97.5695C33.0778 90.7042 33.564 83.8388 34.1582 77.0005L35.0766 66.7025L35.5898 61.5941L35.9139 59.0263L36.103 57.7289L36.238 57.1073V56.7559C36.238 56.7559 36.238 56.7559 36.238 56.5937C36.238 56.4315 36.238 56.5937 36.238 56.5937C36.2766 56.5473 36.3274 56.5126 36.3847 56.4935C36.4419 56.4743 36.5034 56.4716 36.5621 56.4856L36.4541 56.5397Z" fill="#010101"/>
<path d="M32.9154 215.145C30.0523 177.224 26.0008 156.844 22.7056 145.005C21.247 139.762 19.3023 133.977 16.9795 122.355C12.6038 100.57 11.7935 82.7577 11.0372 83.4605C10.281 84.1632 9.41664 121.301 13.5492 153.736C18.7351 194.333 29.0259 210.091 32.9154 215.145Z" fill="#3E9582"/>
<path d="M32.8608 215.01C32.6988 213.605 32.4827 212.118 32.2396 210.902C31.9965 209.685 31.8885 208.361 31.6994 206.928L30.619 198.577C29.9437 192.982 29.1334 187.441 28.3501 181.9C26.7025 170.818 24.8659 159.79 22.3269 148.979C21.1115 143.573 19.6259 138.167 18.3024 132.761C16.9789 127.355 16.2767 121.463 15.2233 115.895C14.1699 110.327 13.4406 104.813 12.5223 99.2183L11.3878 90.8664L10.8746 86.7039C10.8746 86.0282 10.6586 85.3254 10.5235 84.6768C10.5144 84.405 10.4873 84.1341 10.4425 83.8659C10.4349 83.9106 10.4349 83.9563 10.4425 84.001C10.5921 84.1538 10.796 84.2412 11.0097 84.2443C11.2528 84.2443 11.6309 83.974 11.5769 84.0281C11.5769 84.1632 11.5769 84.2713 11.5769 84.4605C11.1447 89.8663 11.4148 95.5694 11.5769 101.137C11.739 106.705 11.928 112.327 12.1981 117.922C12.7563 129.112 13.6567 140.257 14.8991 151.357C16.1213 162.434 18.052 173.421 20.6793 184.251C22.0055 189.623 23.647 194.912 25.5951 200.09C26.5945 202.793 27.6479 205.253 28.8903 207.739C29.4778 209.001 30.1361 210.228 30.8621 211.415C31.4833 212.74 32.4827 213.875 32.8608 215.01ZM32.8608 215.307C32.6447 215.064 32.3206 214.794 32.0505 214.497C31.7804 214.199 31.5914 213.902 31.3753 213.632L30.1328 211.929C29.3495 210.767 28.5662 209.577 27.864 208.361C26.413 205.939 25.114 203.43 23.9745 200.847C21.6879 195.693 19.7742 190.382 18.2484 184.954C16.6818 179.548 15.3853 174.007 14.2509 168.466C13.1165 162.925 12.3332 157.33 11.5499 151.762C10.1994 140.627 9.52414 129.301 9.17301 118.03C8.97494 112.408 8.92092 106.768 9.01095 101.11C9.01095 98.4074 9.01095 95.4883 9.25404 92.6773C9.49713 89.8663 9.49713 87.0553 9.9293 84.1362C9.9293 83.974 9.9293 83.7578 10.0643 83.5415V83.3794C10.0643 83.3794 10.0643 83.1361 10.2534 83.001V82.8388C10.4379 82.6654 10.6762 82.5604 10.9287 82.5415C11.058 82.5433 11.1854 82.5732 11.302 82.6292C11.4186 82.6852 11.5216 82.766 11.6039 82.8658C11.6103 82.9378 11.6103 83.0101 11.6039 83.082C11.7732 83.4969 11.8823 83.9337 11.928 84.3794C11.928 85.1092 12.1171 85.812 12.1981 86.5147L12.6033 90.7042C12.8464 93.4071 13.1165 96.2992 13.4676 99.0832C14.1429 104.651 14.8991 110.219 15.9525 115.733C17.0059 121.247 18.2214 126.68 19.7339 131.95C21.2465 137.221 23.1102 142.573 24.6228 148.168C27.3936 159.108 29.3526 170.238 30.4839 181.467C31.1322 187.062 31.5643 192.684 31.9695 198.279C32.2126 200.982 32.3206 203.901 32.4557 206.712C32.4557 208.064 32.5907 209.631 32.5907 211.091C32.5907 212.55 32.9148 213.956 32.9689 215.307H32.8608Z" fill="#010101"/>
<path d="M28.5945 43.3225C29.7019 44.1604 26.2717 77.2168 30.1611 114.03C31.7277 128.923 33.8345 138.14 33.5644 154.898C33.3753 165.52 32.2409 180.008 30.7013 180.494C28.0003 181.305 23.7057 140.14 24.1649 99.5967C24.381 68.7838 27.5681 42.6738 28.5945 43.3225Z" fill="#1F705E" stroke="#010101" stroke-width="0.75" stroke-miterlimit="10"/>
<path d="M32.6191 210.902C34.8069 168.98 33.0242 142.167 30.8904 125.247C28.5405 106.543 24.8942 92.8125 25.4884 71.1893C25.678 61.1887 26.845 51.2307 28.9727 41.4576C25.7863 57.8397 23.6213 74.4044 22.4903 91.0556C18.979 145.384 29.783 197.387 32.6191 210.902Z" fill="#3E9582"/>
<path d="M32.6198 210.604C32.6198 208.739 32.6198 206.956 32.6198 205.199V200.09V189.441C32.6198 182.359 32.6198 175.278 32.3497 168.196C31.9986 154.033 31.2153 139.897 29.6487 125.842C28.9194 118.814 27.9201 111.787 26.9477 104.732C25.9753 97.6777 25.3541 90.5691 25.084 83.4604C24.922 79.9197 24.8949 76.3518 25.084 72.784C25.2731 69.2162 25.2731 65.6484 25.5162 62.1076C25.7593 58.5668 26.1374 54.999 26.5426 51.4582C26.7586 49.6743 27.0287 47.9174 27.2988 46.0524L27.758 43.3496L28.0011 42.0522V41.3764V40.998C26.6776 40.998 29.8918 40.4034 29.6757 40.8629C29.6888 40.9435 29.6888 41.0256 29.6757 41.1062C29.703 41.2581 29.703 41.4137 29.6757 41.5657C27.4609 55.8099 25.7052 69.8109 24.5978 83.8659C23.6148 97.9795 23.3624 112.135 23.8416 126.274C24.2737 140.41 25.2191 154.546 26.8127 168.601C27.5689 175.647 28.4693 182.675 29.5137 189.684L31.0262 200.09L31.8905 205.496L32.3227 208.199C32.4848 208.848 32.4848 209.685 32.6198 210.604ZM32.6198 210.929C32.4037 210.145 32.0526 209.226 31.8095 208.226L31.1613 205.523L29.9728 200.333C29.1895 196.874 28.4603 193.387 27.785 189.9C26.4885 182.9 25.084 175.899 24.2467 168.872C22.2254 154.803 20.9273 140.639 20.3573 126.436C19.8388 112.173 20.2267 97.8909 21.5187 83.6767C22.836 69.5014 25.0189 55.42 28.0551 41.5116C28.0425 41.5649 28.0425 41.6204 28.0551 41.6738C27.839 42.0522 31.0532 41.4846 29.7027 41.6738V41.9441V42.5387L29.4056 43.8361L28.8654 46.4038C28.5413 48.1337 28.2172 49.8906 27.9471 51.6204C27.3799 55.1071 26.9747 58.6479 26.6776 62.1617C26.043 69.2158 25.9076 76.3061 26.2725 83.3794C26.9747 97.5155 30.459 111.327 32.4037 125.463C34.2078 139.607 35.056 153.857 34.9427 168.115C34.9427 175.224 34.6726 182.332 34.4025 189.441C34.2404 192.982 34.0243 196.549 33.7542 200.09L33.5652 202.793L33.3221 205.496C32.998 207.496 32.7279 209.226 32.6198 210.902V210.929Z" fill="#010101"/>
<path d="M32.619 46.0254C29.0266 42.4847 34.3206 36.4842 31.2955 27.9161C27.8112 17.9154 16.4399 13.8881 17.0342 12.888C17.6284 11.8879 22.4362 15.1584 30.8633 17.9694C39.2904 20.7804 41.4242 19.9155 44.3683 22.3752C49.3382 26.3484 53.7138 35.8896 49.3382 42.2684C45.5568 48.1878 36.1033 49.5662 32.619 46.0254Z" fill="#F8ED33" stroke="#010101" stroke-miterlimit="10"/>
<path d="M52.9559 1.45475C52.1456 1.99533 57.2505 9.56343 54.2523 13.4015C53.334 14.6449 52.4427 14.4016 51.0111 15.4017C45.6091 19.0776 45.7712 30.8892 49.4986 39.2682C50.8761 42.3225 51.8755 44.674 54.0363 45.2416C58.8711 46.593 66.704 38.6465 68.5407 30.4297C71.9439 15.1584 54.2253 0.643887 52.9559 1.45475Z" fill="#F8ED33" stroke="#010101" stroke-miterlimit="10"/>
<path d="M41.9089 48.3229C32.1583 50.7825 27.9177 67.0269 31.2939 78.5953C32.8808 83.8306 35.9711 88.4834 40.1803 91.9746C44.9378 89.8532 49.1022 86.5955 52.3078 82.4874C56.7644 76.6492 63.3009 63.7564 57.0615 54.8639C55.4305 52.4323 53.1341 50.5223 50.447 49.3623C47.7598 48.2023 44.7956 47.8415 41.9089 48.3229Z" fill="#F8ED33" stroke="#010101" stroke-miterlimit="10"/>
<path d="M52.0929 53.1881C47.9064 57.5938 53.5515 71.1082 61.6005 78.6223C62.5999 79.5412 71.7563 87.9202 76.7531 85.0281C81.75 82.136 81.3178 69.5676 75.6727 61.5941C69.4064 52.7286 56.0904 48.9986 52.0929 53.1881Z" fill="#F8ED33" stroke="#010101" stroke-miterlimit="10"/>
<path d="M42.3419 45.2416C39.0193 42.4906 34.7564 41.143 30.4575 41.4846C24.2452 41.9441 23.1918 45.5119 5.9864 59.1615C4.09569 60.6751 1.04356 63.0266 1.44871 63.7834C1.85386 64.5402 8.93049 60.3237 18.7621 60.7021C22.8137 60.8373 22.7326 61.6752 28.7018 62.486C37.4261 63.6212 44.2866 64.5402 46.8796 60.9183C49.4726 57.2965 47.0147 49.377 42.3419 45.2416Z" fill="#F8ED33" stroke="#010101" stroke-miterlimit="10"/>
<path d="M43.6387 39.1601C42.2635 40.3761 41.2324 41.9331 40.6492 43.6744C40.0661 45.4157 39.9513 47.2799 40.3164 49.0797C40.6671 50.9263 41.5174 52.6412 42.7747 54.0376C44.032 55.434 45.6482 56.4584 47.4471 56.9991L70.6757 55.2963C70.3246 49.8905 69.9465 44.4848 69.5953 39.079L43.6387 39.1601Z" fill="#F8ED33" stroke="#010101" stroke-miterlimit="10"/>
<path d="M58.6832 29.5918C58.089 30.2135 59.1423 31.3487 58.3861 32.7272C57.6298 34.1057 56.4413 33.7813 55.9011 35.1328C55.55 36.0247 55.9011 36.241 55.7661 37.1329C55.1719 39.106 52.4979 39.079 52.2818 40.5385C52.2818 41.5927 53.4972 41.917 53.5243 43.2414C53.5243 44.9983 51.1204 45.7551 51.3094 46.9444C51.4985 48.1337 54.8477 47.6742 56.0362 49.6473C57.2246 51.6204 54.7397 54.1341 56.0362 56.3234C56.8735 57.7019 58.0619 57.0532 59.9526 58.8912C61.4382 60.3507 60.979 61.0805 62.6536 62.8644C63.7611 64.1077 64.0582 63.8645 66.6781 65.8376C69.2981 67.8107 70.4866 69.2973 71.2699 68.973C72.0531 68.6486 71.4319 66.1079 72.8094 64.9727C74.1869 63.8375 76.8069 65.9727 78.6436 64.7024C80.0481 63.7293 79.1838 61.9995 80.7504 60.4318C82.317 58.8641 85.4771 59.2696 85.6122 58.4587C85.7472 57.6478 80.4803 56.4856 80.2102 54.4855C79.9401 52.4853 86.9357 50.2149 86.6116 48.8094C86.2874 47.4039 80.3722 48.2418 80.0751 46.9714C79.778 45.7011 85.7743 43.4847 85.4771 42.4306C85.18 41.3764 79.0217 42.4306 78.6706 41.2954C78.3195 40.1601 83.5594 37.9167 83.1543 36.295C82.8842 35.2139 80.4533 35.4571 79.9401 34.0246C79.4269 32.592 81.3446 31.0514 81.0745 30.7541C80.8044 30.4568 75.1323 36.1599 72.9715 34.8625C70.8107 33.5651 72.9715 26.1321 71.8641 25.7537C70.7567 25.3753 69.9734 30.3757 66.7052 31.3217C63.4369 32.2677 59.7366 28.4566 58.6832 29.5918Z" fill="url(#paint0_linear)" stroke="#010101" stroke-width="0.5" stroke-miterlimit="10"/>
<path d="M66.1645 41.6467C65.8404 47.0525 69.0816 48.7824 68.0822 53.5395C67.542 55.9991 66.4616 56.4586 66.8938 57.9452C67.7311 60.8373 73.2411 63.0536 76.6984 60.9994C77.3658 60.6178 77.9491 60.1049 78.4133 59.4918C78.8775 58.8786 79.2129 58.1779 79.3994 57.4316C79.7235 55.3234 78.0489 54.3774 78.5621 52.6745C79.0753 50.9717 82.1004 50.4311 82.0464 49.377C81.9924 48.3229 76.6444 47.6742 76.6444 46.2957C76.6444 44.9172 80.1827 44.4578 80.1287 43.3766C80.0747 42.2954 75.1048 42.1062 74.8617 40.6737C74.6186 39.2412 78.319 37.6465 78.0759 37.1329C77.8328 36.6194 75.3749 38.2952 73.1871 37.3762C70.9993 36.4572 71.0803 34.4571 69.9459 34.43C68.8115 34.403 66.3806 37.9168 66.1645 41.6467Z" fill="#FCEE23" stroke="#010101" stroke-width="0.5" stroke-miterlimit="10"/>
<defs>
<linearGradient id="paint0_linear" x1="51.3094" y1="47.3769" x2="86.6386" y2="47.3769" gradientUnits="userSpaceOnUse">
<stop offset="0.13" stop-color="#F8ED33"/>
<stop offset="1" stop-color="white"/>
</linearGradient>
</defs>
</svg>
