<svg width="20" height="22" viewBox="0 0 20 22" fill="none" xmlns="http://www.w3.org/2000/svg">
<path d="M0.140531 4.28998C0.0705309 9.63998 1.31053 12.29 2.31053 13.63C3.19128 14.6969 4.12582 15.7182 5.11053 16.69C6.52053 18.18 7.69053 19.43 8.55053 20.33C8.50956 19.0487 8.37588 17.772 8.15053 16.51C7.93624 14.5731 7.33429 12.6993 6.38053 11C5.47053 9.59998 4.88053 9.65998 3.15053 7.99998C2.00934 6.88184 0.99947 5.63712 0.140531 4.28998Z" fill="#3E9581"/>
<path d="M0.150901 4.32002C0.22137 5.89022 0.398444 7.45382 0.680901 9.00002C0.947872 10.5265 1.50091 11.9889 2.3109 13.31C2.7609 13.94 3.3109 14.51 3.8109 15.11C4.3109 15.71 4.8109 16.3 5.3709 16.88C6.4309 18.04 7.5309 19.16 8.6509 20.28L8.4109 20.38C8.31923 18.8151 8.10186 17.2601 7.7609 15.73C7.51991 14.2029 7.01935 12.7283 6.2809 11.37C5.90622 10.701 5.39108 10.121 4.7709 9.67002C4.15108 9.17774 3.5601 8.65021 3.0009 8.09002C1.89134 6.96234 0.933294 5.69503 0.150901 4.32002ZM0.150901 4.27002C1.07828 5.54172 2.11922 6.72658 3.2609 7.81002C3.82447 8.343 4.42606 8.8343 5.0609 9.28002C5.73934 9.74296 6.30636 10.351 6.7209 11.06C7.50616 12.4673 8.01529 14.0117 8.2209 15.61C8.52441 17.1651 8.67845 18.7456 8.6809 20.33V20.69L8.4509 20.43C7.3909 19.25 6.3409 18.08 5.2409 17C4.1409 15.92 3.0009 14.71 2.0009 13.51C1.11046 12.1495 0.530087 10.6098 0.300901 9.00002C0.0513943 7.4362 -0.00569718 5.84772 0.130901 4.27002H0.150901Z" fill="#231F20"/>
<path d="M0.140921 4.28998C1.43092 7.08998 2.85092 9.99998 4.43092 13C5.82092 15.63 7.19092 18.07 8.55092 20.35C7.63092 19.41 6.33092 18.06 4.80092 16.35C3.65904 15.2354 2.62758 14.013 1.72092 12.7C1.00092 11.49 -0.119079 8.93998 0.140921 4.28998Z" fill="#1E6F5D"/>
<path d="M0.140486 4.27002C0.790486 5.54002 1.50049 6.84002 2.22049 8.18002C2.94049 9.52002 3.67049 10.91 4.33049 12.31C4.99049 13.71 5.70049 15 6.41049 16.31C7.12049 17.62 7.88049 19 8.65049 20.27L9.19049 21.16L8.45049 20.42L5.13049 17.05C4.00049 15.91 3.00049 14.77 2.00049 13.51C1.05077 12.172 0.436833 10.6251 0.210486 9.00002C-0.0390825 7.43483 -0.0626563 5.84191 0.140486 4.27002ZM0.140486 4.32002C0.136889 5.89148 0.290994 7.45933 0.600486 9.00002C0.879262 10.5179 1.48307 11.9575 2.37049 13.22C3.37049 14.42 4.37049 15.61 5.47049 16.76L8.64049 20.27L8.44049 20.43C7.73048 19.09 7.02049 17.76 6.25049 16.43C5.48049 15.1 4.66049 13.84 4.00049 12.52C3.34049 11.2 2.72049 9.89002 2.10049 8.52002C1.48049 7.15002 0.830486 5.76002 0.150486 4.32002H0.140486Z" fill="#231F20"/>
<path d="M18.2401 0C19.6001 6.31 18.2401 9.62 16.9201 11.39C15.7217 12.812 14.45 14.1705 13.1101 15.46C11.2001 17.46 9.59006 19.11 8.43006 20.31C8.18884 18.7994 8.10839 17.2675 8.19006 15.74C8.31006 13.31 8.41006 11.05 9.75006 8.93C10.8801 7.14 11.8501 7.11 14.2501 4.84C15.773 3.39591 17.113 1.77043 18.2401 0V0Z" fill="#3E9581"/>
<path d="M18.2409 0C18.7927 1.94987 19.029 3.97547 18.9409 6C18.8856 8.05913 18.1861 10.0491 16.9409 11.69L12.7109 16.02C11.2909 17.45 9.92087 18.92 8.56087 20.4L8.37087 20.6L8.32087 20.32C7.98706 18.3384 7.89973 16.3231 8.06087 14.32C8.10573 13.3083 8.24976 12.3035 8.49087 11.32C8.73355 10.3121 9.15707 9.35666 9.74087 8.5C10.3607 7.6771 11.1268 6.97539 12.0009 6.43C12.8106 5.85021 13.5822 5.21891 14.3109 4.54C15.7744 3.16673 17.0915 1.64525 18.2409 0V0ZM18.2409 0.05C17.2437 1.79585 16.0085 3.3945 14.5709 4.8C13.8593 5.51619 13.101 6.18433 12.3009 6.8C11.4812 7.34288 10.7579 8.01884 10.1609 8.8C9.11889 10.4672 8.54545 12.3844 8.50087 14.35C8.28762 16.3455 8.30776 18.3591 8.56087 20.35L8.33087 20.28C9.76087 18.86 11.1809 17.44 12.5509 15.97C13.9209 14.5 15.2309 12.97 16.5509 11.51C17.7391 9.92204 18.4346 8.01992 18.5509 6.04C18.6829 4.03771 18.5755 2.02683 18.2309 0.05H18.2409Z" fill="#231F20"/>
<path d="M18.2407 0C16.8107 3.52 15.2407 7.19 13.3507 11C11.7307 14.33 10.0807 17.44 8.43066 20.35C9.69066 19.09 11.4307 17.28 13.5407 15.06C16.8907 11.47 17.3607 10.74 17.6407 10.24C18.5107 8.67 19.7307 5.47 18.2407 0Z" fill="#1E6F5D"/>
<path d="M18.2404 0.0499878L16.0004 5.33999C15.2804 7.05999 14.5704 8.75999 13.8004 10.43C13.0304 12.1 11.9804 13.72 11.1104 15.43C10.2404 17.14 9.34039 18.76 8.50039 20.43L8.31039 20.29L12.4304 15.87C13.8204 14.41 15.1604 12.87 16.4304 11.4C16.7506 11.0299 17.0415 10.6353 17.3004 10.22C17.5681 9.78173 17.8021 9.32374 18.0004 8.84999C18.3628 7.93642 18.5983 6.9775 18.7004 5.99999C18.8552 4.0048 18.7 1.99768 18.2404 0.0499878ZM18.2404 0.0499878C18.9062 1.97661 19.1881 4.01498 19.0704 6.04999C18.9949 8.12813 18.2316 10.1224 16.9004 11.72C15.6004 13.28 14.2104 14.72 12.7904 16.17L8.51039 20.42L7.90039 21L8.32039 20.24C9.24039 18.6 10.1204 16.94 10.9804 15.24C11.8404 13.54 12.6804 11.9 13.4604 10.17C14.2404 8.43999 15.0504 6.72999 15.8504 4.99999L18.2404 0.0499878Z" fill="#231F20"/>
</svg>
