<svg width="168" height="241" viewBox="0 0 168 241" fill="none" xmlns="http://www.w3.org/2000/svg">
<g clip-path="url(#clip0)">
<path d="M23.8789 111.984C28.9764 97.8192 56.7811 75.6298 89.5469 75.7663C115.934 75.8754 140.249 90.4228 152.734 113.349L23.8789 111.984Z" fill="#603913"/>
<path d="M1.6359 103.059C16.0289 73.3916 69.5937 73.6919 85.4587 73.7738C106.285 73.8829 148.946 74.1013 163.639 100.248C170.045 111.63 166.528 130.053 159.495 166.871C154.016 195.584 151.072 210.158 141.64 219.875C125.285 236.715 101.651 237.479 85.7858 237.998C69.5119 238.544 42.1162 239.417 24.8064 221.403C20.4449 216.9 16.9012 211.359 7.79653 162.968C-1.85331 111.766 -0.0269283 106.498 1.6359 103.059Z" fill="#3E9581"/>
<path d="M1.39023 102.923C3.92536 97.7103 7.7962 93.1796 12.3485 89.6315C16.8463 85.9741 22.0802 83.3267 27.3957 81.0341C38.136 76.6125 49.6122 74.2926 61.0884 72.9006C72.6192 71.4814 84.2044 71.3176 95.7352 71.5087C101.514 71.5906 107.32 71.9181 113.127 72.6004C118.933 73.2282 124.685 74.238 130.382 75.7937C136.052 77.2949 141.64 79.3692 146.819 82.2623C151.999 85.1281 156.933 88.7035 160.64 93.4252C161.676 94.4897 162.439 95.7997 163.257 97.0552C164.047 98.338 164.92 99.5116 165.492 100.958C166.719 103.742 167.455 106.69 167.755 109.637C168.382 115.533 167.864 121.346 167.209 127.078C165.765 138.541 163.611 149.841 161.594 161.167C159.413 172.467 157.778 183.848 155.134 195.12C153.798 200.77 152.217 206.42 149.6 211.824C148.264 214.498 146.683 217.091 144.775 219.466C143.794 220.639 142.758 221.758 141.667 222.768C140.604 223.833 139.514 224.843 138.314 225.771C129.019 233.44 117.27 237.479 105.685 239.117C99.8786 239.99 94.0178 240.372 88.2661 240.618C82.5144 240.864 76.7354 241.109 70.8746 240.973C59.2075 240.7 47.1316 238.871 36.2823 233.331C30.885 230.547 26.0328 226.808 21.8348 222.222C19.6268 219.711 18.2366 216.736 17.1462 213.953C16.0286 211.141 15.238 208.303 14.4748 205.464C11.4762 194.165 9.54081 182.811 7.65991 171.457C5.83352 160.076 4.06166 148.721 2.58965 137.286C1.8809 131.581 1.09038 125.877 0.599708 120.118C0.272595 117.252 0.0272594 114.386 0 111.493C0 108.628 0.0272594 105.598 1.39023 102.923ZM1.8809 103.169C0.626967 105.707 0.626967 108.655 0.654227 111.466C0.736005 114.332 0.954081 117.17 1.30845 120.036C2.04446 125.713 2.8895 131.418 3.97988 137.04C6.10612 148.312 8.53221 159.557 11.0946 170.774C13.6842 181.937 16.2739 193.155 19.436 204.045C20.2538 206.747 21.1261 209.422 22.1619 211.933C23.1978 214.471 24.3427 216.764 25.9783 218.565C29.6038 222.413 34.0198 225.743 38.8447 228.145C48.5491 233.112 59.78 234.832 70.9564 235.269C76.5718 235.514 82.269 235.35 87.9935 235.187C93.6907 235.05 99.3334 234.75 104.894 234.013C115.962 232.567 126.838 229.155 135.561 222.359C136.679 221.54 137.715 220.639 138.696 219.684C139.759 218.783 140.686 217.801 141.586 216.791C143.357 214.771 144.911 212.506 146.22 210.077C148.837 205.219 150.636 199.815 152.162 194.329C155.106 183.329 157.423 172.03 159.631 160.758C161.839 149.486 164.156 138.214 165.383 126.832C165.928 121.155 166.255 115.424 165.465 109.883C165.056 107.126 164.265 104.452 163.039 102.05C162.494 100.822 161.594 99.73 160.831 98.5837C160.04 97.4646 159.304 96.291 158.268 95.3358C154.67 91.1326 149.954 88.0211 144.993 85.5647C142.54 84.2547 139.895 83.354 137.306 82.3441C134.607 81.5526 131.963 80.6792 129.21 80.1061C118.279 77.4859 106.939 76.6398 95.5716 76.2304C84.1499 75.9575 72.7282 75.5481 61.361 76.2304C50.0211 76.9128 38.6266 78.5504 27.8592 82.2895C22.489 84.1728 17.337 86.7384 12.7574 90.15C8.25961 93.6436 4.47055 98.0651 1.8809 103.169Z" fill="black"/>
<path d="M1.63599 100.658C1.9631 84.6097 50.4031 70.0078 90.7199 71.1268C122.722 72.0002 165.165 83.2177 165.956 98.2564C166.746 113.268 125.803 130.845 89.5205 132.619C47.8953 134.611 1.30888 116.488 1.63599 100.658Z" fill="#3E9581"/>
<path d="M1.36383 100.631C1.39109 98.611 2.18162 96.7005 3.27199 95.0902C4.36237 93.4526 5.72535 92.0333 7.22462 90.7778C10.1414 88.1849 13.5215 86.2198 16.9017 84.3093C23.7438 80.5974 31.0494 77.8681 38.4639 75.5208C53.3203 70.881 68.9128 68.6429 84.5052 68.7521C100.152 68.9977 115.472 71.8089 130.437 75.6573C137.906 77.6224 145.321 79.9424 152.381 83.2176C155.898 84.8825 159.332 86.8203 162.413 89.4677C163.939 90.8051 165.302 92.3881 166.284 94.3259C167.265 96.2365 167.646 98.6383 167.183 100.822C166.229 105.243 163.339 108.464 160.45 111.221C157.479 113.95 154.18 116.215 150.773 118.208C143.958 122.192 136.707 125.249 129.292 127.733C114.463 132.646 98.8982 135.648 83.1422 135.593C67.4407 135.457 51.8211 132.891 37.1555 127.596C29.8227 124.976 22.6535 121.865 16.0022 117.771C12.731 115.697 9.45989 113.513 6.70669 110.757C5.31645 109.419 4.03526 107.891 3.02666 106.226C1.9908 104.588 1.28205 102.65 1.36383 100.631ZM1.90902 100.658C1.93628 104.452 4.49867 107.727 7.25187 110.238C10.0869 112.776 13.3307 114.823 16.7382 116.515C23.553 119.927 30.804 122.356 38.1914 124.212C52.966 127.788 68.0677 129.916 83.1422 129.807C98.1621 129.725 113.264 127.269 127.711 122.875C134.908 120.609 142.023 117.962 148.674 114.468C151.972 112.694 155.162 110.729 158.024 108.464C160.832 106.171 163.421 103.415 164.294 100.249C165.22 97.1099 163.449 93.7801 160.832 91.2418C158.215 88.6762 154.971 86.6292 151.591 84.937C144.803 81.5254 137.443 79.2054 130.028 77.4314C122.587 75.6573 114.981 74.5656 107.376 73.9105C99.7704 73.2555 92.1378 73.0099 84.5597 73.3374C69.4034 73.8832 54.2744 75.7665 39.3635 78.8506C31.9217 80.4609 24.5344 82.5352 17.5559 85.5921C14.0667 87.0932 10.7138 88.9765 7.71528 91.351C4.79852 93.6982 2.07258 96.8369 1.90902 100.658Z" fill="black"/>
<path d="M19.5726 100.003C19.8179 88.5943 56.7817 78.1955 87.5304 78.987C111.955 79.6148 144.312 87.5844 144.912 98.2834C145.511 108.982 114.299 121.455 86.6035 122.738C54.8735 124.185 19.3272 111.275 19.5726 100.003Z" fill="black" stroke="black" stroke-width="3" stroke-miterlimit="10"/>
<path d="M151.344 8.62451C152.898 43.5327 142.73 60.0724 134.525 68.4515C132.372 70.6622 130.463 72.1634 111.191 87.0109C99.4967 96.0177 89.7105 103.551 82.623 109.009C82.6776 103.796 83.0592 94.926 85.349 84.3089C88.1295 71.4264 90.6373 59.3901 99.4421 49.2097C106.911 40.5577 111.927 41.2673 126.402 31.1415C138.096 22.9262 146.301 14.438 151.344 8.62451Z" fill="#3E9581"/>
<path d="M151.345 8.56982C152.108 19.4872 151.645 30.3499 149.246 40.9943C146.847 51.5568 142.158 61.9555 134.144 69.5431C130.055 73.2004 125.666 76.3118 121.387 79.6416L108.466 89.4399C99.8245 95.9357 91.3741 102.704 82.8419 109.309L82.2421 109.773V109.009C82.1604 98.1738 83.8232 87.3383 86.3311 76.8577C87.5305 71.5901 88.948 66.3225 91.1015 61.2732C93.255 56.2512 96.199 51.5295 99.9608 47.5447C103.641 43.3688 108.657 40.7213 113.4 38.2922C118.17 35.8085 122.75 33.0246 127.166 29.9405C135.998 23.7722 143.958 16.5941 151.345 8.56982ZM151.318 8.70629C144.557 16.9762 136.461 24.3999 127.738 30.7593C123.377 33.9526 118.77 36.873 114.027 39.4386C109.256 42.0041 104.513 44.4605 100.997 48.4999C97.3711 52.3756 94.5634 56.9882 92.4099 61.8464C90.2837 66.7319 88.8389 71.9176 87.585 77.1579C86.3856 82.4255 85.1316 87.6386 84.3411 92.9608C83.5233 98.283 83.0872 103.632 82.9782 109.037L82.3784 108.736C90.9652 102.159 99.6609 95.7447 108.139 89.0578L120.896 79.0412C125.094 75.6568 129.483 72.4362 133.408 68.8335C140.986 61.2459 145.757 51.2293 148.319 40.8305C150.881 30.3226 151.372 19.378 151.318 8.70629Z" fill="black"/>
<path d="M151.344 8.62451C140.876 26.2287 129.237 44.4879 116.37 63.1293C105.03 79.5598 93.7176 94.8168 82.623 109.009C90.2557 103.332 101.023 95.1716 113.781 85.0185C134.334 68.6698 137.387 65.149 139.323 62.6926C145.156 55.1323 154.315 39.0839 151.344 8.62451Z" fill="#1E6F5D"/>
<path d="M151.317 8.70629C146.492 17.4947 141.122 26.2286 135.752 34.7987C130.355 43.3961 124.848 51.9389 119.042 60.2634C113.236 68.5878 107.266 76.8031 101.214 84.9365C95.0809 93.0154 89.1111 101.231 82.8959 109.228L82.4052 108.736L107.975 88.703C116.534 82.098 124.93 75.2201 133.053 68.1238C135.043 66.3225 137.033 64.4938 138.642 62.4195C140.304 60.318 141.749 58.0799 143.085 55.76C145.729 51.1201 147.664 46.0435 149.055 40.8578C151.781 30.4045 151.944 19.3507 151.317 8.70629ZM151.344 8.56982C152.653 19.4599 152.544 30.4045 150.009 41.0762C147.446 51.5841 142.512 62.0374 133.98 69.1883C125.857 76.421 117.352 83.1352 108.738 89.6856L82.8141 109.282L80.6606 110.892L82.3235 108.791C88.5931 100.821 94.8628 92.8516 100.751 84.5817C106.693 76.3664 112.445 68.0147 118.088 59.581C123.731 51.1747 129.428 42.7684 134.961 34.2801L151.344 8.56982Z" fill="black"/>
<path d="M28.4591 0.0546875C22.1076 34.417 29.8766 52.2122 36.855 61.6284C38.6814 64.1121 40.3714 65.8862 57.3813 83.2447C67.7127 93.7799 76.3539 102.596 82.6236 108.982C83.3051 103.797 84.1229 94.9536 83.3323 84.1181C82.351 70.99 81.5605 58.708 74.2277 47.4086C68.0398 37.8286 62.9695 37.8286 50.0213 25.765C39.5809 16.0486 32.657 6.5232 28.4591 0.0546875Z" fill="#3E9581"/>
<path d="M28.4591 0.136467C26.9326 10.699 25.8968 21.6163 26.9599 32.3153C28.0503 42.987 31.3759 53.5768 37.8637 62.1196C41.2438 66.2409 45.1419 70.0619 48.8492 73.9649L60.1074 85.6464C67.6037 93.4523 75.3181 101.013 82.8963 108.709L82.2693 108.928C82.9235 103.578 83.2234 98.2014 83.1416 92.8246C83.1143 87.4478 82.5692 82.0983 82.1057 76.7215C81.5878 71.372 80.8791 66.0498 79.4343 60.8914C77.9623 55.7875 75.8361 50.8202 72.783 46.4805C69.8662 42.0044 65.5047 38.893 61.1432 35.6997C56.7817 32.479 52.6383 28.9582 48.7674 25.1917C40.9985 17.7407 34.0201 9.25243 28.4591 0.136467ZM28.4319 0C34.647 8.9795 41.5437 17.1948 49.4217 24.5367C53.347 28.2213 57.5177 31.6057 61.8792 34.7171C66.2407 37.774 70.8476 41.1037 73.9006 45.7436C77.0627 50.2197 79.3253 55.3236 80.77 60.5639C82.1875 65.8315 82.869 71.2628 83.3597 76.6396C84.3955 87.3659 84.5591 98.3378 82.978 109.037L82.869 109.801L82.3511 109.255C74.8002 101.504 67.3856 93.6434 59.7257 86.0285L48.2768 74.538C44.4877 70.6624 40.5896 66.9505 37.0459 62.7746C30.1492 54.1499 26.9326 43.2053 26.0331 32.4245C25.1335 21.5344 26.1694 10.699 28.4319 0Z" fill="black"/>
<path d="M28.4596 0.0546875C36.3922 18.9417 45.3878 38.6201 55.5555 58.8991C64.4966 76.7216 73.6013 93.4251 82.6242 109.01C75.8638 102.323 66.2958 92.7428 55.0921 80.9248C36.9919 61.8741 34.4567 57.9711 32.9029 55.2691C28.1325 46.9719 21.2904 29.8044 28.4596 0.0546875Z" fill="#1E6F5D"/>
<path d="M28.4591 0L41.1347 27.73C45.4144 36.9279 49.9122 46.0165 54.3283 55.1325C58.7716 64.2485 63.2966 73.3099 68.0398 82.2894C72.7011 91.2961 77.7987 100.057 82.9234 108.818L84.2864 111.138L82.3782 109.228L59.4258 86.2196C51.7931 78.5229 44.2968 70.6897 37.2639 62.3925C29.822 54.1499 26.3873 43.1234 25.297 32.3426C24.2338 21.4525 25.6241 10.5898 28.4591 0ZM28.4591 0.136467C26.3601 10.6171 24.9971 21.5617 26.2783 32.2607C26.9325 37.6102 28.1319 42.8778 30.1219 47.8452C31.1032 50.3289 32.2481 52.758 33.5838 55.0779C34.8923 57.3706 36.6096 59.4448 38.327 61.5191C45.3872 69.6798 52.7472 77.6495 60.3253 85.3735L82.8689 108.764L82.3237 109.173C77.2807 100.385 72.4831 91.4326 67.5218 82.5623C62.6697 73.6647 57.872 64.7125 53.2924 55.6511C48.6856 46.5897 44.4331 37.3646 40.2897 28.1121C36.1462 18.887 32.03 9.49807 28.4591 0.136467Z" fill="black"/>
<path d="M64.0331 184.284C69.8895 184.284 74.637 179.531 74.637 173.667C74.637 167.804 69.8895 163.05 64.0331 163.05C58.1767 163.05 53.4292 167.804 53.4292 173.667C53.4292 179.531 58.1767 184.284 64.0331 184.284Z" fill="white"/>
<path d="M74.6911 173.94C74.6093 176.724 73.628 179.536 71.638 181.665C69.7026 183.821 66.6768 184.994 63.76 184.831C57.7902 184.476 53.1016 179.154 53.0743 173.395C52.9925 170.529 54.1647 167.581 56.2909 165.507C58.3627 163.433 61.3612 162.232 64.3052 162.341C67.2765 162.395 70.166 163.787 72.0196 166.025C73.9005 168.263 74.7728 171.157 74.6911 173.94ZM74.5548 173.94C74.6366 171.157 73.3554 168.455 71.3927 166.68C69.43 164.879 66.8949 163.842 64.278 163.787C61.6883 163.76 59.0987 164.688 57.1632 166.462C55.2278 168.236 54.0011 170.747 53.8103 173.422C53.6195 176.097 54.5736 178.908 56.5363 180.818C58.4444 182.784 61.1704 183.739 63.7873 183.712C66.4315 183.712 68.9938 182.729 71.0383 181.037C73.0828 179.345 74.5275 176.724 74.5548 173.94Z" fill="black"/>
<path d="M61.824 178.444C65.5275 178.444 68.5298 175.438 68.5298 171.73C68.5298 168.021 65.5275 165.015 61.824 165.015C58.1205 165.015 55.1182 168.021 55.1182 171.73C55.1182 175.438 58.1205 178.444 61.824 178.444Z" fill="black" stroke="black" stroke-width="0.75" stroke-miterlimit="10"/>
<path d="M51.0293 156.254C52.8557 155.272 55.9633 153.853 60.0794 153.389C64.3864 152.87 67.8484 153.58 69.8928 154.18" stroke="black" stroke-width="3" stroke-miterlimit="10" stroke-linecap="round"/>
<path d="M103.64 151.615C105.684 151.26 109.092 150.959 113.126 151.806C117.351 152.706 120.431 154.508 122.176 155.709" stroke="black" stroke-width="3" stroke-miterlimit="10" stroke-linecap="round"/>
<path d="M79.7336 182.046C79.3247 185.349 81.6418 188.133 84.2042 188.406C87.0392 188.706 90.1195 185.977 89.9014 182.292" stroke="black" stroke-width="3" stroke-miterlimit="10" stroke-linecap="round"/>
<path d="M106.858 184.421C112.714 184.421 117.462 179.668 117.462 173.804C117.462 167.94 112.714 163.187 106.858 163.187C101.001 163.187 96.2539 167.94 96.2539 173.804C96.2539 179.668 101.001 184.421 106.858 184.421Z" fill="white"/>
<path d="M117.516 174.05C117.434 176.834 116.453 179.645 114.463 181.774C112.527 183.93 109.501 185.103 106.585 184.94C100.615 184.585 95.9263 179.263 95.899 173.504C95.8173 170.638 96.9894 167.69 99.1156 165.616C101.187 163.542 104.186 162.341 107.13 162.45C110.101 162.505 112.991 163.897 114.844 166.135C116.753 168.4 117.598 171.293 117.516 174.05ZM117.379 174.05C117.461 171.266 116.18 168.564 114.217 166.79C112.255 164.988 109.72 163.951 107.103 163.897C104.513 163.869 101.923 164.797 99.9879 166.571C98.0525 168.345 96.8259 170.856 96.635 173.531C96.4442 176.206 97.3983 179.017 99.361 180.928C101.269 182.893 103.995 183.848 106.612 183.821C109.256 183.821 111.819 182.838 113.863 181.146C115.907 179.481 117.352 176.834 117.379 174.05Z" fill="black"/>
<path d="M104.677 178.58C108.381 178.58 111.383 175.574 111.383 171.866C111.383 168.158 108.381 165.152 104.677 165.152C100.974 165.152 97.9712 168.158 97.9712 171.866C97.9712 175.574 100.974 178.58 104.677 178.58Z" fill="black" stroke="black" stroke-width="0.75" stroke-miterlimit="10"/>
</g>
<defs>
<clipPath id="clip0">
<rect width="168" height="241" fill="white"/>
</clipPath>
</defs>
</svg>
