<svg width="130" height="137" viewBox="0 0 130 137" fill="none" xmlns="http://www.w3.org/2000/svg">
<g clip-path="url(#clip0)">
<path d="M34 91C38.75 81.23 56.42 81.32 61.65 81.35C68.52 81.35 82.65 81.46 87.45 90.07C89.56 93.82 88.45 99.89 86.08 112.07C84.27 121.53 83.3 126.33 80.19 129.53C74.79 135.08 67 135.34 61.76 135.53C56.52 135.72 47.35 136 41.63 130.06C40.21 128.57 39.03 126.75 36.03 110.8C32.81 93.83 33.41 92.09 34 91Z" fill="#8B5E3C"/>
<path d="M33.8702 90.92C34.7239 89.1983 35.9626 87.6961 37.4902 86.53C39.0188 85.356 40.7011 84.3971 42.4902 83.68C46.0466 82.294 49.7734 81.3926 53.5702 81C57.3633 80.5597 61.1825 80.3826 65.0002 80.47C66.9184 80.4903 68.8344 80.6105 70.7402 80.83C72.665 81.0333 74.5709 81.3878 76.4402 81.89C78.338 82.3624 80.169 83.0712 81.8902 84C83.6453 84.9201 85.1991 86.1814 86.4602 87.71C86.7835 88.0824 87.0714 88.4842 87.3202 88.91C87.6056 89.3201 87.8533 89.7552 88.0602 90.21C88.4521 91.1233 88.7017 92.0912 88.8002 93.08C88.9478 95.0012 88.8841 96.9328 88.6102 98.84C88.1302 102.62 87.4202 106.35 86.7602 110.08C86.1002 113.81 85.5102 117.55 84.6402 121.28C84.2351 123.181 83.6249 125.031 82.8202 126.8C82.3826 127.703 81.846 128.555 81.2202 129.34C80.9097 129.724 80.5758 130.088 80.2202 130.43C79.8745 130.789 79.5035 131.124 79.1102 131.43C75.9863 133.872 72.2492 135.405 68.3102 135.86C66.4005 136.129 64.4777 136.296 62.5502 136.36C60.6502 136.44 58.7402 136.53 56.8002 136.48C52.8327 136.525 48.9059 135.677 45.3102 134C43.5088 133.061 41.8873 131.812 40.5202 130.31C39.8541 129.484 39.3395 128.546 39.0002 127.54C38.6538 126.623 38.3567 125.689 38.1102 124.74C37.1834 121.037 36.4458 117.288 35.9002 113.51C35.3102 109.76 34.7302 106.01 34.2602 102.25C34.0302 100.36 33.7702 98.48 33.6102 96.59C33.5302 95.59 33.4602 94.69 33.4402 93.74C33.3624 92.7794 33.5096 91.8138 33.8702 90.92ZM34.0502 91C33.6964 91.8674 33.5591 92.8078 33.6502 93.74C33.6502 94.68 33.7502 95.62 33.8702 96.56C34.1102 98.43 34.3902 100.3 34.7702 102.16C35.4802 105.87 36.2902 109.58 37.1502 113.26C38.0102 116.94 38.8802 120.64 39.9202 124.21C40.3185 125.93 41.0451 127.556 42.0602 129C43.2742 130.283 44.7021 131.346 46.2802 132.14C49.5894 133.664 53.1867 134.462 56.8302 134.48C58.6802 134.56 60.5602 134.48 62.4502 134.48C64.3072 134.417 66.1597 134.256 68.0002 134C71.6418 133.647 75.1242 132.332 78.0902 130.19C78.4414 129.921 78.7754 129.631 79.0902 129.32C79.446 129.032 79.7802 128.717 80.0902 128.38C80.6795 127.709 81.1926 126.974 81.6202 126.19C82.467 124.542 83.1374 122.809 83.6202 121.02C84.6202 117.39 85.3802 113.67 86.1002 109.96C86.8202 106.25 87.6102 102.53 88.0002 98.78C88.225 96.9268 88.225 95.0532 88.0002 93.2C87.8754 92.3055 87.6052 91.4373 87.2002 90.63C86.9961 90.2294 86.7515 89.8508 86.4702 89.5C86.2302 89.1168 85.9485 88.7613 85.6302 88.44C84.4022 87.0944 82.916 86.0095 81.2602 85.25C80.4397 84.8615 79.5945 84.5275 78.7302 84.25C77.8402 83.99 76.9702 83.71 76.0702 83.51C72.4294 82.7316 68.7225 82.303 65.0002 82.23C61.2402 82.14 57.4702 82 53.7202 82.23C49.9794 82.3913 46.2783 83.0642 42.7202 84.23C40.9286 84.8226 39.2413 85.6933 37.7202 86.81C36.1851 87.8995 34.9279 89.3349 34.0502 91Z" fill="#231F20"/>
<path d="M34.0001 90.17C34.1101 84.88 50.1001 80.07 63.4001 80.43C73.9601 80.72 87.9601 84.43 88.2201 89.37C88.4801 94.31 74.9301 100.11 63.0001 100.69C49.2201 101.36 33.8501 95.38 34.0001 90.17Z" fill="#A97C50"/>
<path d="M33.8506 90.1601C33.9339 89.5143 34.1492 88.8926 34.4829 88.3335C34.8166 87.7744 35.2617 87.2899 35.7906 86.9101C36.779 86.0813 37.8554 85.3637 39.0006 84.7701C41.271 83.5673 43.652 82.5861 46.1106 81.8401C51.023 80.291 56.1501 79.5315 61.3006 79.5901C66.4277 79.7712 71.5158 80.5532 76.4606 81.9201C78.9455 82.5362 81.3715 83.3694 83.7106 84.4101C84.8927 84.9497 85.9988 85.6423 87.0006 86.4701C87.5274 86.9214 87.965 87.4675 88.2906 88.0801C88.6332 88.7522 88.7389 89.5203 88.5906 90.2601C88.2226 91.6161 87.4435 92.8248 86.3606 93.7201C85.3929 94.5922 84.3333 95.3566 83.2006 96.0001C80.9488 97.2945 78.5695 98.3535 76.1006 99.1601C71.188 100.848 66.0348 101.729 60.8406 101.77C55.6622 101.742 50.5261 100.835 45.6506 99.0901C43.2091 98.2441 40.863 97.1448 38.6506 95.8101C37.5465 95.1499 36.5171 94.372 35.5806 93.4901C34.5884 92.6508 33.9668 91.4544 33.8506 90.1601ZM34.0506 90.1601C34.1178 90.7749 34.3083 91.3698 34.6107 91.9094C34.9131 92.4489 35.3212 92.9219 35.8106 93.3001C36.7748 94.1319 37.8481 94.8284 39.0006 95.3701C41.2381 96.4506 43.5848 97.2887 46.0006 97.8701C50.8485 99.0545 55.8201 99.6588 60.8106 99.6701C65.7869 99.6231 70.7306 98.862 75.4906 97.4101C77.8711 96.7005 80.1835 95.7802 82.4006 94.6601C83.4821 94.0872 84.5096 93.4178 85.4706 92.6601C86.4248 92.01 87.1548 91.081 87.5606 90.0001C87.6549 89.4585 87.6016 88.9016 87.4063 88.3877C87.2109 87.8739 86.8808 87.4222 86.4506 87.0801C85.5625 86.2378 84.5508 85.5363 83.4506 85.0001C81.1823 83.9088 78.7969 83.0801 76.3406 82.5301C73.883 81.9638 71.3857 81.586 68.8706 81.4001C66.3704 81.1787 63.8583 81.1219 61.3506 81.2301C56.3438 81.4313 51.3612 82.0332 46.4506 83.0301C43.9838 83.5191 41.5719 84.2527 39.2506 85.2201C38.0849 85.7007 36.9913 86.3401 36.0006 87.1201C35.4808 87.4644 35.0388 87.9136 34.703 88.4388C34.3672 88.9641 34.145 89.5538 34.0506 90.1701V90.1601Z" fill="#231F20"/>
<path d="M39.8803 90C40.0003 86.2 52.1603 82.77 62.3003 83C70.3603 83.21 81.0403 85.84 81.2403 89.36C81.4403 92.88 71.1303 97 62.0003 97.45C51.5303 97.92 39.8003 93.67 39.8803 90Z" fill="#231F20" stroke="#231F20" stroke-width="3" stroke-miterlimit="10"/>
<path d="M31.2705 32.38C33.9205 28.27 41.5205 17.51 50.2705 18.23C63.0705 19.3 69.2705 44.48 71.1205 52.23C71.3005 52.98 71.4705 53.72 71.6305 54.46C72.9655 60.6267 73.6824 66.9111 73.7705 73.22C73.7705 76.05 73.7705 78.85 73.5605 81.63C73.5605 81.8 73.5605 81.96 73.5605 82.13C73.5005 82.95 73.4305 83.77 73.3405 84.58C73.2505 85.73 73.1205 86.85 72.9805 87.98C72.9805 88.15 72.9805 88.31 72.9105 88.47C72.8105 89.29 72.7005 90.11 72.5705 90.93C72.3205 92.57 72.0405 94.21 71.7205 95.83" stroke="#1E6F5D" stroke-width="2" stroke-miterlimit="10"/>
<path d="M51.2305 96.4601C51.6005 94.1701 52.0505 91.95 52.5805 89.85C52.7505 89.15 52.9305 88.47 53.1205 87.85C53.1805 87.64 53.2405 87.42 53.3105 87.2C53.7005 85.92 54.1105 84.69 54.5705 83.52C54.8405 82.81 55.1205 82.15 55.4205 81.52C55.5305 81.28 55.6305 81.0401 55.7605 80.8101C57.0373 77.8669 59.0863 75.3238 61.6905 73.45C62.515 72.9059 63.4145 72.4848 64.3605 72.2C66.3605 71.59 69.3605 71.3801 73.7205 73.2601C77.0005 74.6301 81.0605 77.3001 86.0005 81.9401" stroke="#1E6F5D" stroke-width="2" stroke-miterlimit="10"/>
<path d="M53.9004 97.0001C54.4904 94.5301 55.1504 92.0001 55.9004 89.4901C56.0804 88.8701 56.2604 88.2501 56.4504 87.6401C56.5304 87.3801 56.6104 87.1101 56.7004 86.8501C57.0804 85.6301 57.4904 84.4001 57.9204 83.1601C58.1304 82.5601 58.3404 81.9601 58.5604 81.3601L58.8604 80.5301C59.7304 78.1701 60.6604 75.8001 61.6904 73.4101C63.8652 68.3214 66.3395 63.366 69.1004 58.5701C69.9204 57.1601 70.7404 55.7701 71.5804 54.4301C75.76 47.7139 80.4931 41.3585 85.7304 35.4301" stroke="#1E6F5D" stroke-width="2" stroke-miterlimit="10"/>
<path d="M81.6605 40.26C80.6426 42.6639 80.2911 45.2977 80.6431 47.8845C80.995 50.4712 82.0374 52.9154 83.6605 54.96C87.8705 59.96 95.5305 61.36 101.901 57.96C98.527 56.0407 95.5396 53.5111 93.0905 50.5C91.1805 48.13 89.4405 45.24 89.8705 44.88C90.4605 44.37 93.8705 49.88 100.051 51.73C107.331 53.92 115.051 49.92 114.891 48.86C114.771 48.05 110.191 49.21 103.891 46.86C98.8905 45.07 94.8905 41.86 95.2005 41.12C95.4705 40.53 98.2705 41.59 105.591 43.12C116.381 45.43 118.201 44.82 119.071 44.44C120.131 43.96 124.311 41.79 125.631 32.31C122.921 34.63 115.901 39.99 108.091 38.5C104.231 37.76 99.5605 35.22 99.8405 33.88C100.031 32.95 102.551 32.74 103.641 32.65C109.071 32.2 111.001 34.53 115.261 34.91C119.861 35.32 125.321 33.3 127.841 29.32C129.991 25.92 129.921 21.21 128.541 20.59C126.851 19.82 124.491 25.7 118.751 27.09C114.751 28.04 110.201 27.18 109.921 25.74C109.671 24.46 112.731 22.05 126.831 17.12C127.743 14.9147 127.931 12.4764 127.366 10.1574C126.802 7.83848 125.515 5.75913 123.691 4.22001C117.991 5.32001 115.321 4.22001 113.951 2.84001C112.771 1.66001 112.561 0.310007 111.251 -0.0199926C109.251 -0.519993 107.091 1.90001 105.681 3.47001C104.001 5.41001 101.001 8.78001 100.511 13.78C100.171 17.27 101.361 18.67 100.111 20.84C98.9805 22.79 96.4305 24.41 95.3605 23.76C92.6905 22.12 98.3605 5.70001 104.671 1.76001C105.091 1.50001 106.051 0.970007 105.951 0.650007C105.721 -0.129993 98.8905 -0.639992 95.4405 2.65001C91.4405 6.53001 95.1205 12.65 90.3505 21.23C90.2105 21.49 88.0605 25.35 87.2605 25.04C86.0005 24.62 89.0005 13.79 91.7405 4.49001C85.7405 4.87001 83.5505 7.13001 82.7405 8.35001C80.3405 11.83 81.4105 17.49 82.9605 25.68C83.6605 29.39 84.2305 31.06 83.6505 31.36C82.6505 31.91 78.2505 27.93 77.0505 22.82C75.5605 16.5 79.6405 11.5 78.4505 10.74C77.2605 9.98001 72.6805 13.63 70.5105 18.74C68.5105 23.54 68.4205 30.2 72.0505 34.74C73.5269 36.524 75.3638 37.9757 77.4405 39C78.7804 39.6178 80.2013 40.0421 81.6605 40.26Z" fill="#3A7867"/>
<path d="M108.891 20.4501C109.261 21.0901 115.131 19.21 119.221 14.65C119.571 14.26 121.681 11.9001 121.341 11.5201C120.601 10.6801 108.301 19.4401 108.891 20.4501Z" fill="white"/>
<path d="M87.3699 53.8699C87.0199 54.0699 85.5099 52.4799 84.5599 50.6399C82.6599 46.9999 83.1199 42.77 83.6499 42.7C83.9099 42.7 84.0398 43.7 86.0198 49.34C87.1498 52.57 87.6299 53.7199 87.3699 53.8699Z" fill="white"/>
<path d="M85.3107 26.56C84.9107 26.67 80.9807 19.27 83.5707 13.27C84.2407 11.7 85.3407 10.27 85.6807 10.42C86.0207 10.57 84.6807 13.87 84.4307 18.42C84.1307 23.52 85.5607 26.5 85.3107 26.56Z" fill="white"/>
<path d="M107.09 27.8201C108.23 28.8201 114.97 34.4201 121.48 32.3101C123.94 31.5201 126.09 29.7201 125.9 29.3101C125.71 28.9001 121.77 31.0101 116.9 30.9701C113.397 30.8724 109.995 29.7798 107.09 27.8201Z" fill="white"/>
<path d="M95.7702 38.64C96.8609 38.7484 97.9433 38.9288 99.0102 39.18C100.049 39.3887 101.074 39.6592 102.08 39.99C103.074 40.4091 104.101 40.7437 105.15 40.99C106.213 41.17 107.298 41.17 108.36 40.99C109.43 40.81 110.48 40.62 111.53 40.47L114.63 39.9C116.71 39.58 118.77 39.19 121.01 38.9L121.09 39.09C119.334 40.491 117.282 41.4757 115.09 41.97C113.992 42.2 112.873 42.3206 111.75 42.33C111.19 42.33 110.62 42.33 110.07 42.33C109.52 42.33 108.95 42.19 108.4 42.09C107.317 41.8728 106.222 41.7225 105.12 41.64C104.03 41.56 102.88 41.7 101.76 41.58C100.651 41.4141 99.5753 41.0768 98.5702 40.58C97.5337 40.1279 96.5778 39.5098 95.7402 38.75L95.7702 38.64Z" fill="#1E6F5D"/>
<path d="M92.2202 28.2901C91.7822 27.2444 91.5252 26.1319 91.4602 25.0001C91.3506 23.8874 91.4113 22.7645 91.6402 21.6701C91.9102 20.5801 92.4302 19.5501 92.7202 18.4901C93.0253 17.4302 93.2591 16.3511 93.4202 15.2601C93.5202 14.7101 93.6202 14.1501 93.7702 13.6101C93.9202 13.0701 94.1002 12.5401 94.3102 12.0201C94.7037 10.9738 95.1994 9.96898 95.7902 9.02007C97.0057 7.11397 98.6363 5.50727 100.56 4.32007L100.71 4.46007C99.7102 6.46007 98.6202 8.28007 97.6102 10.1301L96.0002 12.8201C95.5102 13.7501 95.0002 14.6701 94.4402 15.6201C93.9057 16.5513 93.5305 17.5652 93.3302 18.6201C93.2254 19.6968 93.2053 20.7802 93.2702 21.8601C93.2438 22.9112 93.1536 23.9598 93.0002 25.0001C92.8754 26.0879 92.6817 27.1668 92.4202 28.2301L92.2202 28.2901Z" fill="#1E6F5D"/>
<path d="M82.8203 39.16C84.4303 37.91 86.1103 36.81 87.8203 35.73C89.5303 34.65 91.2203 33.61 93.0103 32.73C94.8003 31.85 96.6903 31.07 98.4303 30.08C100.176 29.0854 101.847 27.9658 103.43 26.73C105.04 25.52 106.62 24.27 108.28 23.14C109.94 22.01 111.56 20.82 113.28 19.74C116.681 17.5731 120.226 15.6419 123.89 13.96L124 14.12C120.989 16.8081 117.795 19.2841 114.44 21.53C112.77 22.65 111.04 23.68 109.32 24.73C107.6 25.78 105.86 26.73 104.04 27.66C102.237 28.5636 100.484 29.5651 98.7903 30.66C97.1103 31.75 95.5403 33.06 93.8703 34.19C92.1777 35.2864 90.4138 36.2686 88.5903 37.13C86.773 38.0312 84.8871 38.7869 82.9503 39.39L82.8203 39.16Z" fill="#1E6F5D"/>
<path d="M77.8702 69.45C73.1402 68.15 68.7202 69.24 66.4802 72.36C63.6302 76.3 64.7202 82.87 69.3602 88C69.8985 85.0986 71.0997 82.3608 72.8702 80C74.2402 78.2 76.1002 76.5 76.5202 76.83C77.1102 77.28 73.6102 80.64 73.9002 85.96C74.2402 92.28 79.7502 98.47 80.5802 98.25C81.2002 98.09 78.9202 94.32 78.9402 88.78C78.9402 84.44 80.3702 80.78 81.0902 80.99C81.6502 81.17 81.6002 83.62 82.4602 89.92C83.7302 99.2 84.7502 100.69 85.3202 101.39C86.0202 102.25 89.0202 105.6 97.1402 105.95C94.4502 103.81 88.0002 98.32 87.0002 91.61C86.4802 88.29 87.1802 84.15 88.3602 84.28C89.1702 84.36 90.0802 86.47 90.4702 87.39C92.4702 91.93 91.0902 93.74 92.0302 97.39C92.6291 99.5586 93.6692 101.58 95.0853 103.328C96.5015 105.077 98.2631 106.514 100.26 107.55C103.66 109.09 107.48 108.65 107.59 107.43C107.72 105.95 102.23 104.43 99.4302 99.7C97.4902 96.43 96.8602 92.5 97.9402 92.14C99.0202 91.78 101.78 94.22 109.94 105.71C111.774 106.276 113.736 106.276 115.57 105.71C116.455 105.412 117.268 104.932 117.956 104.302C118.645 103.672 119.195 102.905 119.57 102.05C117.01 97.33 117.14 94.99 117.85 93.73C118.47 92.64 119.51 92.35 119.4 91.23C119.23 89.52 116.61 87.87 114.92 86.81C112.92 85.55 109.28 83.26 105.07 83.25C102.12 83.25 101.33 84.37 99.1902 83.49C97.2602 82.69 95.1902 80.67 95.4202 79.72C95.9802 77.33 111.02 80.72 116.05 85.8C116.39 86.14 117.05 86.9 117.33 86.8C117.9 86.54 116.33 80.74 112.61 78.09C108.27 75 104.39 78.62 95.9602 75.29C95.7102 75.2 91.9602 73.69 91.9602 73C91.9602 71.88 101.69 73.52 110.09 75.12C108.02 70.06 105.54 68.42 104.31 67.82C100.77 66.07 96.4602 67.43 90.2302 69.39C87.4102 70.27 86.2302 70.89 85.7902 70.39C85.0502 69.56 87.0202 65.56 90.7902 64.14C95.5202 62.38 100.79 65.41 101.07 64.35C101.35 63.29 97.0702 59.71 92.1902 58.29C87.6802 56.97 82.1902 57.45 79.5902 60.87C78.5576 62.3229 77.917 64.0174 77.7302 65.79C77.5957 67.0102 77.6429 68.2436 77.8702 69.45Z" fill="#3A7867"/>
<path d="M102.001 90.82C101.591 91.18 104.841 95.98 109.751 99.06C110.171 99.33 112.751 100.92 112.931 100.6C113.381 99.91 102.641 90.24 102.001 90.82Z" fill="white"/>
<path d="M68.4303 75.35C68.1703 75.08 69.0303 73.68 70.2503 72.72C72.6603 70.83 76.2503 70.88 76.4603 71.32C76.5703 71.54 75.7603 71.73 71.7403 73.85C69.4303 75.07 68.6303 75.56 68.4303 75.35Z" fill="white"/>
<path d="M95.45 89.89C94.98 90.89 92.37 97.06 95.99 102.39C97.36 104.39 99.46 106.06 99.73 105.87C100 105.68 97.13 102.52 95.73 98.42C94.7952 95.6669 94.6977 92.6985 95.45 89.89Z" fill="white"/>
<path d="M83.3304 81.2C83.5922 82.136 83.7926 83.088 83.9304 84.05C84.0917 84.9688 84.1886 85.8977 84.2204 86.83C84.1354 87.7848 84.1354 88.7452 84.2204 89.7C84.3891 90.6401 84.728 91.5416 85.2204 92.36L86.0004 93.59L86.6804 94.82C87.1304 95.64 87.6204 96.43 88.0504 97.26C88.941 98.9594 89.7323 100.709 90.4204 102.5L90.2604 102.63C88.6054 101.503 87.2163 100.029 86.1904 98.31C85.7138 97.4474 85.3155 96.5438 85.0004 95.61C84.6504 94.6775 84.4088 93.7078 84.2804 92.72C84.1471 91.749 83.9398 90.7895 83.6604 89.85C83.3704 88.92 82.8704 88.02 82.6104 87.06C82.3759 86.0783 82.3083 85.0642 82.4104 84.06C82.4906 83.0529 82.7479 82.0678 83.1704 81.15L83.3304 81.2Z" fill="#1E6F5D"/>
<path d="M90.7402 77.3701C91.6165 76.8709 92.5749 76.5323 93.5702 76.3701C94.5587 76.1757 95.5728 76.1486 96.5702 76.2901C97.5702 76.4601 98.5002 76.8701 99.4502 77.0801C100.41 77.2728 101.383 77.3899 102.36 77.4301C103.375 77.4602 104.382 77.6113 105.36 77.88C106.323 78.1258 107.26 78.4605 108.16 78.88C109.968 79.741 111.565 80.9867 112.84 82.53L112.73 82.7C110.88 82.1886 109.064 81.5641 107.29 80.8301C106.43 80.4801 105.6 80.0701 104.74 79.6901L103.45 79.13L102.15 78.5101C101.292 78.0875 100.363 77.8265 99.4102 77.74C98.4515 77.7297 97.4939 77.81 96.5502 77.9801C95.6179 78.0401 94.6826 78.0401 93.7502 77.9801C92.7806 77.9354 91.815 77.8251 90.8602 77.6501L90.7402 77.3701Z" fill="#1E6F5D"/>
<path d="M79.12 70.3101C80.642 71.4996 82.1006 72.768 83.49 74.1101C84.88 75.4401 86.25 76.7801 87.49 78.2401C88.73 79.7001 89.84 81.3001 91.15 82.7001C92.467 84.1006 93.8804 85.4071 95.38 86.6101C96.88 87.8301 98.38 89.0401 99.8 90.3301C101.22 91.6201 102.68 92.8801 104.04 94.2301C106.793 96.9311 109.349 99.8251 111.69 102.89L111.56 103.04C108.389 100.833 105.381 98.4004 102.56 95.7601C101.16 94.4501 99.82 93.0601 98.48 91.6801C97.14 90.3001 95.84 88.8901 94.61 87.3901C93.3902 85.902 92.0811 84.4894 90.69 83.1601C89.29 81.8401 87.69 80.6901 86.29 79.3901C84.8825 78.0743 83.5662 76.6644 82.35 75.1701C81.1123 73.6862 79.9922 72.1081 79 70.4501L79.12 70.3101Z" fill="#1E6F5D"/>
<path d="M92.2106 71.85C92.0006 71.52 96.9006 67.62 102.551 69.32C104.031 69.76 105.551 70.5701 105.491 70.8701C105.431 71.1701 102.391 70.32 98.6006 70.46C94.3506 70.61 92.3406 72.05 92.2106 71.85Z" fill="white"/>
<path d="M28.3803 31.85C26.8906 29.4747 24.786 27.5467 22.2896 26.2704C19.7933 24.994 16.9981 24.4168 14.2003 24.6C7.20029 25.22 1.27029 31.09 0.320294 38.79C4.08705 36.9943 8.15767 35.9224 12.3203 35.63C15.5903 35.41 19.2003 35.63 19.2603 36.26C19.3503 37.1 12.3603 36.74 6.96029 40.99C0.530294 46.05 -0.709706 55.29 0.320294 55.81C1.11029 56.21 2.91029 51.47 8.84029 47.3C13.4803 44.03 18.8403 42.43 19.2403 43.2C19.5903 43.8 16.9303 45.61 11.0403 51.08C2.37029 59.14 1.78029 61.08 1.58029 62.08C1.35029 63.3 0.690294 68.32 8.21029 75.32C7.83029 71.51 7.44029 62.03 13.5703 56.09C16.5703 53.09 21.7003 50.6 22.7103 51.67C23.4103 52.41 22.0403 54.76 21.4503 55.77C18.5003 60.83 15.2703 61.08 12.3003 64.6C9.11029 68.39 7.52029 74.44 9.47029 79.1C11.1303 83.1 15.3103 85.93 16.7203 85.1C18.4303 84.1 14.7203 78.4 17.0303 72.49C18.6403 68.41 22.2203 64.92 23.6603 65.56C24.9403 66.13 25.1703 70.31 20.8203 85.73C22.1817 87.908 24.2035 89.594 26.5907 90.542C28.9779 91.4901 31.6055 91.6505 34.0903 91C36.6403 85.31 39.2703 83.66 41.3103 83.29C43.0703 82.98 44.3903 83.63 45.4903 82.68C47.1403 81.25 46.3603 77.84 45.8503 75.68C45.2503 73.08 44.1503 68.33 40.0603 64.83C37.2003 62.39 35.2303 62.57 34.0603 60.13C33.0603 57.94 33.1903 54.7 34.4203 54.13C37.5403 52.72 48.5103 67.78 48.0003 75.76C48.0003 76.3 47.8403 77.46 48.1803 77.57C49.0103 77.85 53.6703 72.16 52.8803 67.08C51.9603 61.15 44.3303 60.67 39.6803 51.17C39.5403 50.89 37.4703 46.62 38.2303 46.11C39.4503 45.29 47.1403 54.57 53.6003 62.74C56.9803 57.21 56.3203 53.91 55.7703 52.43C54.1903 48.18 48.5603 45.63 40.4003 41.95C36.7103 40.28 34.8903 39.75 34.9803 39.05C35.1403 37.81 41.3203 36.42 46.5503 38.51C53.0303 41.1 54.9203 47.76 56.3203 47.19C57.7203 46.62 57.3203 40.33 54.1503 35.25C51.1503 30.52 45.3503 26.36 39.1503 26.76C36.669 26.9707 34.2616 27.7106 32.0903 28.93C30.7226 29.7242 29.4737 30.7072 28.3803 31.85Z" fill="#3A7867"/>
<path d="M29.0005 68C28.2105 67.93 26.2405 74.25 27.7305 80.66C27.8605 81.2 28.6405 84.52 29.1805 84.45C30.4005 84.3 30.2705 68.09 29.0005 68Z" fill="white"/>
<path d="M12.8999 28.48C12.8999 28.06 15.2699 27.71 17.4699 28C21.8399 28.58 25.2699 31.59 25.0199 32.09C24.8899 32.35 23.8899 31.82 17.7199 30.09C14.1799 29.09 12.8699 28.81 12.8999 28.48Z" fill="white"/>
<path d="M38.1798 43.49C38.3298 43.07 47.2598 44.18 50.9398 50.15C51.9398 51.71 52.4698 53.55 52.1398 53.76C51.8098 53.97 49.7198 50.76 45.8798 47.76C41.5798 44.34 38.0798 43.75 38.1798 43.49Z" fill="white"/>
<path d="M23.6498 61.87C22.0898 62.27 12.9998 64.73 10.8398 71.76C10.0198 74.41 10.2898 77.4 10.7498 77.49C11.2098 77.58 11.7998 72.8 14.8298 68.54C17.0845 65.5319 20.1414 63.2202 23.6498 61.87Z" fill="white"/>
<path d="M21.12 45.25C20.3263 46.1158 19.4885 46.9402 18.61 47.72C17.7798 48.4992 16.9085 49.2336 16 49.92C15.0176 50.5401 14.0848 51.2355 13.21 52C12.3989 52.8287 11.7239 53.7804 11.21 54.82C10.7 55.82 10.21 56.9 9.69003 57.91C9.17003 58.92 8.76003 60 8.27003 61C7.27003 63 6.37003 65.1 5.27003 67.24H5.07003C4.96929 64.8228 5.39938 62.413 6.33003 60.18C6.80221 59.0664 7.3816 58.0013 8.06003 57C8.36759 56.4961 8.70138 56.0088 9.06003 55.54C9.45003 55.08 9.86003 54.64 10.28 54.21C11.1293 53.3866 11.9306 52.5152 12.68 51.6C13.43 50.69 14.03 49.6 14.83 48.72C15.6511 47.8443 16.5982 47.0961 17.64 46.5C18.677 45.8503 19.8114 45.3709 21 45.08L21.12 45.25Z" fill="#1E6F5D"/>
<path d="M32.41 48.51C33.5815 48.7999 34.7014 49.2688 35.73 49.9C36.7657 50.5052 37.7115 51.2525 38.54 52.12C39.34 53.02 39.94 54.12 40.69 55C41.4394 55.9152 42.2407 56.7867 43.09 57.61C43.51 58.04 43.92 58.48 44.31 58.94C44.6686 59.4088 45.0024 59.8962 45.31 60.4C45.9889 61.3958 46.5715 62.4539 47.05 63.56C47.9806 65.7931 48.4107 68.2029 48.31 70.62H48.11C47 68.48 46.11 66.41 45.11 64.38C44.62 63.38 44.18 62.32 43.68 61.3C43.18 60.28 42.68 59.3 42.16 58.22C41.647 57.1769 40.972 56.2217 40.16 55.39C39.2852 54.6256 38.3524 53.9301 37.37 53.31C36.4615 52.6236 35.5902 51.8893 34.76 51.11C33.8791 50.3329 33.0412 49.5083 32.25 48.64L32.41 48.51Z" fill="#1E6F5D"/>
<path d="M28.6305 33.54C28.7105 35.73 28.6305 37.88 28.5305 40.03C28.4305 42.18 28.2805 44.33 27.9905 46.46C27.7005 48.59 27.2105 50.72 26.9905 52.86C26.8055 55.0114 26.7554 57.1723 26.8405 59.33C26.9005 61.49 27.0105 63.65 26.9805 65.81C26.9505 67.97 26.9805 70.12 26.9005 72.27C26.7129 76.5915 26.252 80.8968 25.5205 85.16H25.3205C24.8566 80.8431 24.6729 76.5007 24.7705 72.16C24.7705 70 24.9605 67.85 25.1005 65.69C25.2405 63.53 25.4205 61.39 25.7405 59.24C26.0537 57.1018 26.2573 54.949 26.3505 52.79C26.4205 50.64 26.2605 48.46 26.3505 46.29C26.4287 44.1382 26.6459 41.9938 27.0005 39.87C27.3223 37.7173 27.8036 35.5914 28.4405 33.51L28.6305 33.54Z" fill="#1E6F5D"/>
<path d="M57.4905 87.5101C58.4405 84.4601 57.8205 81.5101 55.8405 80.0401C53.3305 78.1101 49.0405 78.6801 45.6205 81.5901C47.4995 81.9871 49.2618 82.8118 50.7705 84.0001C51.9105 84.9301 52.9805 86.1701 52.7705 86.4401C52.5605 86.7101 50.3505 84.4401 46.8905 84.5401C42.7705 84.6401 38.6305 88.0901 38.7605 88.6301C38.8905 89.1701 41.3505 87.6301 44.9505 87.7601C47.7705 87.8601 50.1305 88.8601 49.9505 89.3201C49.7705 89.7801 48.2305 89.6001 44.1105 90.0301C38.0505 90.6601 37.1105 91.2901 36.6005 91.6501C36.0905 92.0101 33.7805 94.0001 33.3805 99.2801C34.8005 97.5801 38.5105 93.5101 42.8905 92.9601C45.0605 92.6901 47.7405 93.2301 47.6305 93.9601C47.5605 94.4901 46.1705 95.0401 45.5705 95.2701C42.5705 96.4501 41.4205 95.5401 39.0405 96.0801C37.6178 96.4248 36.2815 97.0592 35.115 97.9436C33.9484 98.828 32.9767 99.9433 32.2605 101.22C31.1905 103.4 31.3905 105.9 32.1905 105.99C33.1905 106.11 34.2505 102.57 37.3805 100.84C39.5505 99.6501 42.1205 99.3201 42.3305 100.03C42.5405 100.74 40.9005 102.49 33.2605 107.54C32.8599 108.722 32.8216 109.996 33.1505 111.2C33.3298 111.779 33.6265 112.315 34.0222 112.775C34.418 113.234 34.9042 113.607 35.4505 113.87C38.5705 112.3 40.0905 112.43 40.9005 112.87C41.7105 113.31 41.7605 113.98 42.4905 113.93C43.6105 113.86 44.7305 112.19 45.4905 111.11C46.8896 109.299 47.7586 107.136 48.0005 104.86C48.0605 102.94 47.3505 102.4 48.0005 101.03C48.6505 99.6601 49.9105 98.4901 50.5305 98.6601C52.0705 99.0701 49.5305 108.78 46.1405 111.95C45.9105 112.16 45.4005 112.6 45.4705 112.76C45.6205 113.13 49.4705 112.23 51.2305 109.87C53.3205 107.11 51.0505 104.51 53.3905 99.1001C53.4605 98.9401 54.5205 96.5101 54.9705 96.5401C55.6905 96.5401 54.4305 102.86 53.2105 108.29C56.5405 107.05 57.6605 105.47 58.0805 104.68C59.2905 102.41 58.5005 99.5801 57.3505 95.4901C56.8305 93.6401 56.4605 92.8501 56.7705 92.5801C57.3205 92.1201 59.8805 93.4801 60.7705 95.9901C61.7705 99.1001 59.7705 102.47 60.4205 102.67C61.0705 102.87 63.5205 100.13 64.5405 97.0201C65.5405 94.1201 65.2905 90.5601 63.1205 88.7701C62.1991 88.0724 61.1149 87.6215 59.9705 87.4601C59.1463 87.3477 58.3096 87.3646 57.4905 87.5101Z" fill="#3A7867"/>
<path d="M43.09 102.75C42.87 102.47 39.67 104.49 37.57 107.62C37.39 107.89 36.3 109.51 36.5 109.62C36.94 110 43.45 103.18 43.09 102.75Z" fill="white"/>
<path d="M53.8504 81.25C54.0304 81.08 54.9304 81.67 55.5204 82.48C56.7004 84.09 56.5904 86.42 56.3104 86.56C56.0304 86.7 56.0504 86.09 54.7604 83.43C54.0004 81.9 53.7104 81.37 53.8504 81.25Z" fill="white"/>
<path d="M43.8306 98.52C43.1606 98.19 39.2306 96.36 35.6906 98.61C34.3606 99.46 33.2306 100.78 33.3506 100.97C33.4706 101.16 35.5806 99.34 38.2806 98.53C40.0879 97.9712 42.0213 97.9677 43.8306 98.52Z" fill="white"/>
<path d="M49.7306 90.85C49.1355 91.1133 48.5111 91.3046 47.8706 91.42C47.2866 91.5492 46.688 91.5996 46.0906 91.57C45.4749 91.4225 44.8438 91.3486 44.2106 91.35C43.595 91.4192 43.0068 91.6428 42.5006 92C42.0014 92.3697 41.4768 92.7039 40.9306 93C40.4106 93.3 39.9306 93.62 39.3706 93.87C38.2198 94.3975 37.0068 94.7771 35.7606 95L35.6406 94.84C36.2654 93.6521 37.2159 92.6669 38.3806 92C38.9607 91.69 39.5748 91.4484 40.2106 91.28C40.8589 91.0833 41.5332 90.9856 42.2106 90.99C42.857 90.9928 43.5004 90.9019 44.1206 90.72C44.7306 90.53 45.3106 90.11 45.9506 89.92C46.6082 89.7635 47.2914 89.7486 47.9552 89.8761C48.6189 90.0037 49.248 90.2709 49.8006 90.66L49.7306 90.85Z" fill="#1E6F5D"/>
<path d="M52.1104 95.71C52.5522 96.2495 52.8575 96.8875 53.0004 97.57C53.1618 98.2269 53.1618 98.9131 53.0004 99.57C52.8204 100.22 52.4204 100.81 52.2504 101.43C52.0789 102.038 51.9947 102.668 52.0004 103.3C52.0255 103.975 51.9445 104.65 51.7604 105.3C51.6189 105.942 51.3972 106.563 51.1004 107.15C50.4631 108.345 49.4989 109.333 48.3204 110L48.1504 109.88C48.3362 108.631 48.672 107.409 49.1504 106.24C49.3904 105.69 49.7004 105.18 49.9804 104.65C50.2578 104.1 50.5719 103.568 50.9204 103.06C51.2756 102.542 51.4956 101.944 51.5604 101.32C51.5372 100.691 51.4433 100.067 51.2804 99.46C51.2285 98.8616 51.2622 98.2588 51.3804 97.67C51.4746 97.0252 51.6458 96.394 51.8904 95.79L52.1104 95.71Z" fill="#1E6F5D"/>
<path d="M56.93 88.3301C56.2142 89.3787 55.4078 90.3624 54.52 91.2701C53.6769 92.1901 52.7569 93.0365 51.77 93.8001C50.77 94.5501 49.63 95.1501 48.67 95.9601C47.7156 96.7729 46.8537 97.6884 46.1 98.6901C45.32 99.6901 44.54 100.69 43.68 101.58C42.82 102.47 42.01 103.44 41.1 104.29C39.2668 106.015 37.2555 107.54 35.1 108.84L34.96 108.7C36.3002 106.556 37.8694 104.565 39.64 102.76C40.52 101.86 41.47 101.04 42.41 100.22C43.3585 99.3793 44.3606 98.601 45.41 97.8901C46.4476 97.184 47.4153 96.3803 48.3 95.4901C49.18 94.5901 49.88 93.4901 50.72 92.5701C51.5865 91.6581 52.5411 90.834 53.57 90.1101C54.591 89.3403 55.6985 88.6925 56.87 88.1801L56.93 88.3301Z" fill="#1E6F5D"/>
<path d="M55.6299 96.7801C55.8499 96.6601 58.2899 99.9201 57.0599 103.56C56.7399 104.56 56.1799 105.46 55.9899 105.44C55.7999 105.42 56.4099 103.44 56.3999 100.97C56.3646 99.5417 56.1047 98.1277 55.6299 96.7801Z" fill="white"/>
</g>
<defs>
<clipPath id="clip0">
<rect width="129.54" height="136.53" fill="white"/>
</clipPath>
</defs>
</svg>
