<svg width="87" height="102" viewBox="0 0 87 102" fill="none" xmlns="http://www.w3.org/2000/svg">
<path d="M16.0002 56.0499C20.7502 46.2699 38.4202 46.3699 43.6602 46.3899C50.5302 46.3899 64.6002 46.4999 69.4602 55.1199C71.5702 58.8699 70.4602 64.9399 68.0902 77.0699C66.2702 86.5399 65.3102 91.3399 62.1902 94.5399C56.8002 100.09 49.0002 100.34 43.7602 100.54C38.5202 100.74 29.3302 101 23.6202 94.9999C22.1902 93.5599 21.0002 91.7299 18.0002 75.7899C14.8302 58.9099 15.4302 57.1799 16.0002 56.0499Z" fill="#8B5E3C"/>
<path d="M15.8905 55.9999C16.7506 54.2851 17.9883 52.7875 19.5105 51.6199C21.0392 50.4459 22.7215 49.487 24.5105 48.7699C28.0659 47.3522 31.7962 46.4205 35.6005 45.9999C39.3859 45.5908 43.195 45.4438 47.0005 45.5599C48.9188 45.5802 50.8348 45.7004 52.7406 45.9199C54.6799 46.1246 56.5995 46.4858 58.4805 46.9999C60.3746 47.483 62.1993 48.2055 63.9105 49.1499C65.6671 50.0636 67.2214 51.322 68.4806 52.8499C68.8069 53.2019 69.0952 53.5874 69.3405 53.9999C69.626 54.4065 69.8737 54.8383 70.0806 55.2899C70.4806 56.2039 70.7305 57.1764 70.8205 58.1699C70.9785 60.1142 70.9148 62.0701 70.6305 63.9999C70.1505 67.7799 69.4505 71.4999 68.7805 75.2399C68.1105 78.9799 67.5406 82.7099 66.6606 86.4399C66.2601 88.3416 65.6497 90.193 64.8405 91.9599C64.4088 92.8612 63.8753 93.71 63.2505 94.4899C62.9377 94.8747 62.6038 95.2419 62.2505 95.5899C61.9025 95.9469 61.5318 96.2809 61.1405 96.5899C58.0024 99.0303 54.2511 100.556 50.3005 101C48.391 101.27 46.4682 101.437 44.5406 101.5C42.6506 101.58 40.7306 101.67 38.7906 101.62C34.8291 101.647 30.9123 100.782 27.3305 99.0899C25.5296 98.1549 23.9081 96.9091 22.5405 95.4099C21.872 94.5782 21.3511 93.6379 21.0005 92.6299C20.6528 91.7112 20.359 90.7729 20.1205 89.8199C19.1205 86.0999 18.5105 82.3499 17.9005 78.5999C17.2905 74.8499 16.7405 71.0999 16.2605 67.3299C16.0305 65.4499 15.7805 63.5699 15.6205 61.6699C15.5405 60.7299 15.4605 59.7799 15.4505 58.8299C15.3705 57.8651 15.5214 56.895 15.8905 55.9999ZM16.0705 56.0899C15.7269 56.9565 15.59 57.8912 15.6705 58.8199C15.6705 59.7599 15.7705 60.7099 15.8905 61.6399C16.1405 63.5199 16.4205 65.3899 16.7905 67.2399C17.5005 70.9599 18.3205 74.6599 19.1705 78.3499C20.0205 82.0399 20.9105 85.7199 21.9505 89.3499C22.3615 91.022 23.0878 92.6002 24.0905 93.9999C25.3029 95.2825 26.7313 96.3419 28.3105 97.1299C31.6179 98.66 35.2165 99.4582 38.8605 99.4699C40.7106 99.5499 42.5806 99.4699 44.4706 99.4699C46.3187 99.4485 48.1645 99.3317 50.0005 99.1199C53.6388 98.7654 57.1174 97.4506 60.0806 95.3099C60.4357 95.0461 60.7701 94.7552 61.0806 94.4399C61.4339 94.1486 61.768 93.8346 62.0806 93.4999C62.6678 92.8235 63.1807 92.0859 63.6105 91.2999C64.4676 89.6565 65.1385 87.9224 65.6105 86.1299C66.6105 82.5099 67.3705 78.7899 68.1005 75.0699C68.8305 71.3499 69.6005 67.6399 70.0005 63.8999C70.2205 62.0464 70.2205 60.1734 70.0005 58.3199C69.8711 57.4264 69.6011 56.5591 69.2005 55.7499C68.9894 55.3534 68.7452 54.9754 68.4706 54.6199C68.227 54.2364 67.942 53.881 67.6206 53.5599C66.3989 52.2116 64.9154 51.1262 63.2605 50.3699C62.4348 49.9857 61.5866 49.6518 60.7206 49.3699C59.8405 49.1099 58.9706 48.8299 58.0606 48.6399C54.426 47.8388 50.7215 47.3967 47.0005 47.3199C43.2305 47.2299 39.4606 47.0799 35.7206 47.3199C31.9799 47.4825 28.279 48.1553 24.7205 49.3199C22.9334 49.923 21.2476 50.7928 19.7205 51.8999C18.197 52.9964 16.9478 54.4305 16.0705 56.0899Z" fill="#231F20"/>
<path d="M15.9998 55.25C16.1098 49.97 32.0898 45.16 45.3898 45.52C55.9498 45.81 69.9498 49.52 70.2198 54.46C70.4898 59.4 56.9998 65.19 44.9998 65.78C31.2498 66.45 15.8698 60.47 15.9998 55.25Z" fill="#A97C50"/>
<path d="M15.8799 55.25C15.9637 54.6055 16.1781 53.9849 16.51 53.4261C16.8418 52.8673 17.2841 52.3821 17.8099 52C18.7919 51.1695 19.8616 50.4486 20.9999 49.85C23.2706 48.6481 25.6516 47.6669 28.1099 46.92C33.0257 45.3721 38.1565 44.616 43.3099 44.68C48.441 44.8456 53.5338 45.6245 58.4799 47C60.9681 47.6161 63.3974 48.4493 65.7399 49.49C66.9328 50.0267 68.0493 50.7195 69.0599 51.55C69.5918 51.9965 70.0302 52.5436 70.3499 53.16C70.6922 53.8322 70.8012 54.5991 70.6599 55.34C70.2844 56.6952 69.5026 57.9027 68.4199 58.8C67.4416 59.6885 66.3685 60.4665 65.2199 61.12C62.9708 62.4172 60.5909 63.4731 58.1199 64.27C53.2118 65.9615 48.0611 66.843 42.8699 66.88C37.6884 66.8597 32.5482 65.9568 27.6699 64.21C25.2309 63.3581 22.8853 62.2591 20.6699 60.93C19.5665 60.2695 18.5401 59.488 17.6099 58.6C17.1112 58.1865 16.701 57.6768 16.4037 57.1012C16.1065 56.5256 15.9283 55.896 15.8799 55.25ZM16.0799 55.25C16.1441 55.867 16.3332 56.4645 16.6358 57.0061C16.9384 57.5476 17.3481 58.0219 17.8399 58.4C18.7975 59.2206 19.8602 59.91 20.9999 60.45C23.2496 61.5551 25.6137 62.4102 28.0499 63C32.9022 64.1792 37.8764 64.7833 42.8699 64.8C47.8465 64.7487 52.7901 63.9842 57.5499 62.53C59.9286 61.8248 62.2382 60.9044 64.4499 59.78C65.5325 59.2038 66.5631 58.5346 67.5299 57.78C68.4646 57.1124 69.1812 56.1835 69.5899 55.11C69.6898 54.5674 69.6381 54.0077 69.4405 53.4925C69.2429 52.9774 68.907 52.5267 68.4699 52.19C67.5828 51.3465 66.5709 50.6449 65.4699 50.11C63.2031 49.0127 60.8174 48.1806 58.3599 47.63C55.8978 47.0693 53.3977 46.6916 50.8799 46.5C48.3828 46.282 45.874 46.2286 43.3699 46.34C38.363 46.54 33.3803 47.142 28.4699 48.14C26.0042 48.6288 23.5926 49.359 21.2699 50.32C20.1011 50.7984 19.0014 51.4306 17.9999 52.2C17.4848 52.5464 17.048 52.9967 16.7173 53.5219C16.3866 54.0472 16.1695 54.6358 16.0799 55.25Z" fill="#231F20"/>
<path d="M21.8998 55C21.9898 51.24 34.1798 47.82 44.3198 48.08C52.3798 48.28 63.0598 50.91 63.2598 54.44C63.4598 57.97 53.1598 62.12 43.9998 62.53C33.5498 63 21.8198 58.75 21.8998 55Z" fill="#231F20" stroke="#231F20" stroke-width="3" stroke-miterlimit="10"/>
<path d="M6.71973 18.05C9.36973 15.21 16.9997 7.78995 25.6697 8.28995C38.4697 9.02995 44.6697 26.39 46.5197 31.72C46.6997 32.24 46.8697 32.72 47.0297 33.26C48.3537 37.4498 49.0743 41.8069 49.1697 46.2C49.2285 48.1349 49.1717 50.0717 48.9997 52C48.9997 52.12 48.9997 52.2299 48.9997 52.3499C48.9397 52.9099 48.8697 53.48 48.7797 54.04C48.6897 54.83 48.5597 55.6 48.4197 56.38C48.4022 56.4944 48.3788 56.6079 48.3497 56.72C48.2497 57.29 48.1397 57.85 48.0097 58.41C47.7597 59.55 47.4797 60.6799 47.1597 61.7999" stroke="#1E6F5D" stroke-width="2" stroke-miterlimit="10"/>
<path d="M42.5801 60.31C42.9901 58.64 43.4301 56.94 43.9401 55.22C44.0601 54.8 44.1901 54.38 44.3201 53.97C44.3201 53.79 44.4301 53.61 44.4801 53.43C44.7401 52.6 45.0201 51.76 45.3101 50.93L45.7401 49.7L45.9501 49.14C46.5401 47.54 47.1701 45.93 47.8701 44.32C49.3351 40.8896 51.0048 37.5502 52.8701 34.32C53.4301 33.32 53.9901 32.42 54.5601 31.51C57.3981 26.9464 60.6126 22.628 64.1701 18.6" stroke="#1E6F5D" stroke-width="2" stroke-miterlimit="10"/>
<path d="M33.25 61.5499C33.62 59.2599 34.07 57.0299 34.6 54.9399C34.77 54.2399 34.95 53.5499 35.14 52.9399C35.2 52.7199 35.27 52.5099 35.34 52.2899C35.72 51.0033 36.14 49.7733 36.6 48.5999C36.8667 47.9333 37.1467 47.2666 37.44 46.5999C37.55 46.3499 37.66 46.1199 37.78 45.8899C39.0603 42.9488 41.1086 40.4066 43.71 38.5299C44.5367 37.9895 45.4355 37.5687 46.38 37.2799C48.38 36.6699 51.38 36.4499 55.75 38.3399C59 39.7199 63.09 42.3799 68 46.9999" stroke="#1E6F5D" stroke-width="2" stroke-miterlimit="10"/>
<path d="M39.5202 52.6C40.4602 49.55 39.8402 46.6 37.8602 45.13C35.3602 43.19 31.0602 43.77 27.6402 46.67C29.5218 47.0816 31.2837 47.9198 32.7902 49.12C33.9302 50.06 35.0002 51.3 34.7902 51.56C34.5802 51.82 32.3702 49.56 28.9002 49.67C24.7902 49.76 20.6502 53.22 20.7702 53.76C20.8902 54.3 23.3702 52.76 26.9602 52.89C29.7802 52.99 32.1502 53.99 31.9602 54.45C31.7702 54.91 30.2402 54.73 26.1302 55.16C20.0702 55.79 19.1302 56.42 18.6102 56.78C18.0902 57.14 15.8002 59.09 15.4002 64.37C16.8202 62.66 20.5202 58.6 24.9102 58.05C27.0702 57.77 29.7502 58.32 29.6402 59.05C29.5702 59.58 28.1802 60.12 27.5802 60.36C24.5802 61.54 23.4402 60.63 21.0602 61.16C19.6359 61.5042 18.2983 62.1395 17.1315 63.0258C15.9647 63.9121 14.9939 65.0303 14.2802 66.31C13.2002 68.49 13.4102 70.98 14.2002 71.08C15.2002 71.19 16.2602 67.66 19.4002 65.93C21.5702 64.73 24.1402 64.41 24.3402 65.12C24.5402 65.83 22.9102 67.57 15.2702 72.63C14.8685 73.812 14.8337 75.0878 15.1702 76.29C15.3406 76.8784 15.6336 77.4241 16.03 77.8912C16.4264 78.3583 16.9173 78.7362 17.4702 79C20.6002 77.43 22.1202 77.57 22.9202 78.06C23.7202 78.55 23.7802 79.17 24.5202 79.12C25.6302 79.04 26.7602 77.37 27.5202 76.3C28.9256 74.4538 29.7848 72.2502 30.0002 69.94C30.0602 68.03 29.3502 67.49 30.0002 66.11C30.6502 64.73 31.9102 63.58 32.5302 63.75C34.0702 64.16 31.5302 73.87 28.1402 77.03C27.9202 77.24 27.4102 77.69 27.4702 77.84C27.6302 78.22 31.4702 77.31 33.2302 74.95C35.3302 72.2 33.0602 69.6 35.4002 64.19C35.4602 64.03 36.5202 61.6 36.9702 61.63C37.7002 61.63 36.4302 67.95 35.2202 73.37C38.5502 72.13 39.6602 70.56 40.0902 69.77C41.2902 67.5 40.5002 64.67 39.3602 60.58C38.8402 58.72 38.4602 57.93 38.7702 57.67C39.3302 57.2 41.8902 58.56 42.7702 61.08C43.7702 64.19 41.7702 67.55 42.4202 67.75C43.0702 67.95 45.5202 65.22 46.5402 62.11C47.5402 59.2 47.3002 55.65 45.1302 53.86C44.2052 53.1619 43.1177 52.7111 41.9702 52.55C41.1559 52.4391 40.3293 52.456 39.5202 52.6Z" fill="#3A7867"/>
<path d="M25.1207 67.8399C24.8907 67.5599 21.7007 69.5699 19.5907 72.7099C19.4107 72.9699 18.3207 74.5999 18.5307 74.7099C19.0007 75.0599 25.4807 68.2699 25.1207 67.8399Z" fill="white"/>
<path d="M35.8703 46.34C36.0603 46.17 36.9503 46.76 37.5503 47.57C38.7303 49.18 38.6203 51.51 38.3303 51.64C38.0403 51.77 38.0803 51.18 36.7803 48.51C36.0003 47 35.7303 46.46 35.8703 46.34Z" fill="white"/>
<path d="M25.8598 63.5999C25.1898 63.2799 21.2598 61.4499 17.7198 63.6899C16.3798 64.5399 15.2598 65.8699 15.3698 66.0499C15.4798 66.2299 17.6098 64.4299 20.3098 63.6099C22.1185 63.0608 24.0491 63.0573 25.8598 63.5999Z" fill="white"/>
<path d="M31.7602 55.94C31.1643 56.199 30.54 56.3869 29.9002 56.5C29.3136 56.6345 28.7109 56.685 28.1102 56.65C27.4971 56.5067 26.8698 56.4329 26.2402 56.43C25.6186 56.5078 25.0269 56.7417 24.5202 57.11C24.0252 57.4809 23.5038 57.8151 22.9602 58.11C22.4302 58.41 21.9602 58.74 21.3902 58.98C20.24 59.5091 19.0268 59.8888 17.7802 60.11L17.6602 59.95C18.2851 58.757 19.235 57.7654 20.4002 57.09C20.9782 56.7756 21.5929 56.5338 22.2302 56.37C22.8775 56.169 23.5524 56.0711 24.2302 56.08C24.8798 56.0828 25.5265 55.9919 26.1502 55.81C26.7502 55.62 27.3402 55.2 27.9802 55C28.6371 54.8496 29.3183 54.8386 29.9797 54.9678C30.6411 55.097 31.2681 55.3634 31.8202 55.75L31.7602 55.94Z" fill="#1E6F5D"/>
<path d="M34.1307 60.7999C34.5606 61.3405 34.8585 61.974 35.0007 62.6499C35.15 63.3082 35.15 63.9916 35.0007 64.6499C34.8207 65.2899 34.4207 65.8899 34.2407 66.4999C34.0721 67.1155 33.9913 67.7518 34.0007 68.3899C34.0285 69.0645 33.9509 69.7393 33.7707 70.3899C33.6243 71.0318 33.3993 71.6532 33.1007 72.2399C32.461 73.403 31.5037 74.3602 30.3407 74.9999L30.1807 74.8899C30.357 73.6388 30.6931 72.4155 31.1807 71.2499C31.4107 70.6999 31.7207 70.1899 32.0007 69.6599C32.2837 69.1074 32.601 68.573 32.9507 68.0599C33.3043 67.5462 33.5211 66.9508 33.5807 66.3299C33.5576 65.6981 33.4637 65.0708 33.3007 64.4599C33.2544 63.8615 33.288 63.2595 33.4007 62.6699C33.495 62.0284 33.6662 61.4005 33.9107 60.7999H34.1307Z" fill="#1E6F5D"/>
<path d="M39 53.42C38.2845 54.4661 37.4817 55.4496 36.6 56.36C35.7545 57.2776 34.8348 58.1238 33.85 58.89C32.85 59.63 31.7 60.24 30.75 61.04C29.7997 61.8603 28.9353 62.775 28.17 63.77C27.39 64.77 26.61 65.77 25.76 66.67C24.91 67.57 24.08 68.52 23.17 69.37C21.3375 71.0987 19.3262 72.6273 17.17 73.93L17 73.78C18.3428 71.6381 19.9118 69.6467 21.68 67.84C22.55 66.95 23.5 66.13 24.45 65.3C25.3967 64.4601 26.399 63.685 27.45 62.98C28.4839 62.2653 29.4512 61.4587 30.34 60.57C31.21 59.68 31.91 58.57 32.76 57.66C33.6206 56.7426 34.5721 55.915 35.6 55.19C36.6258 54.4274 37.7325 53.7802 38.9 53.26L39 53.42Z" fill="#1E6F5D"/>
<path d="M37.6602 61.87C37.8702 61.74 40.3102 65.01 39.0902 68.65C38.7702 69.6 38.2102 70.54 38.0202 70.53C37.8302 70.52 38.4402 68.53 38.4302 66.06C38.3825 64.6329 38.123 63.2208 37.6602 61.87Z" fill="white"/>
<path d="M21.2602 7.25995C21.4302 4.07995 20.1202 1.41995 17.8302 0.419953C14.9202 -0.840047 10.9002 0.769954 8.30021 4.41995C10.2246 4.34945 12.1388 4.72955 13.8902 5.52995C15.2202 6.15995 16.5602 7.09995 16.4102 7.40995C16.2602 7.71995 13.5802 6.10995 10.2402 6.99995C6.24021 8.08995 3.11021 12.45 3.36021 13C3.61021 13.55 5.63021 11.4 9.15021 10.64C11.9102 10.05 14.4502 10.44 14.4002 10.93C14.3502 11.42 12.8002 11.6 8.91021 13C3.19021 15.11 2.39021 16 2.00021 16.43C1.61021 16.86 -0.139793 19.36 0.760207 24.58C1.76021 22.58 4.32021 17.73 8.43021 16.12C10.4302 15.33 13.2002 15.2 13.2802 15.96C13.3402 16.49 12.1302 17.36 11.6002 17.74C9.00021 19.61 7.65021 19 5.47021 20.11C4.17625 20.7948 3.03707 21.7386 2.12355 22.8827C1.21003 24.0267 0.541725 25.3465 0.160207 26.76C-0.349793 29.14 0.460207 31.5 1.25021 31.4C2.25021 31.28 2.41021 27.58 5.03021 25.14C6.84021 23.45 9.25021 22.5 9.63021 23.14C10.0102 23.78 8.84021 25.86 2.63021 32.63C2.53038 33.8754 2.80551 35.1222 3.42021 36.21C3.73568 36.7245 4.15455 37.168 4.6503 37.5122C5.14604 37.8565 5.70787 38.0941 6.30021 38.21C9.00021 36 10.4902 35.72 11.3902 36C12.2902 36.28 12.5002 36.87 13.2002 36.64C14.2602 36.29 14.9402 34.4 15.3902 33.18C16.3101 31.0533 16.6184 28.7122 16.2802 26.42C15.8702 24.55 15.0502 24.2 15.2802 22.72C15.5102 21.24 16.5202 19.79 17.1502 19.8C18.7502 19.8 18.6502 29.86 16.1502 33.8C15.9802 34.06 15.6002 34.61 15.7002 34.8C15.9402 35.12 19.4102 33.32 20.5702 30.59C21.9302 27.4 19.1002 25.44 20.0402 19.59C20.0402 19.42 20.5002 16.81 20.9402 16.72C21.6502 16.58 21.9402 22.98 22.1102 28.54C25.0402 26.54 25.7402 24.72 25.9502 23.85C26.5702 21.36 25.1102 18.85 23.0002 15.12C22.0002 13.45 21.4802 12.77 21.7202 12.44C22.1402 11.85 24.9602 12.55 26.3902 14.78C28.1702 17.54 26.9702 21.31 27.6802 21.34C28.3902 21.37 30.0702 18.12 30.3002 14.85C30.5102 11.85 29.4502 8.40995 26.9102 7.19995C25.8439 6.75046 24.681 6.57844 23.5302 6.69995C22.7514 6.78117 21.9875 6.96962 21.2602 7.25995Z" fill="#3A7867"/>
<path d="M11.0005 25.5599C10.7105 25.3499 8.1105 28.0899 6.8305 31.6399C6.7205 31.9399 6.0605 33.7799 6.2905 33.8699C6.8305 34.0699 11.4805 25.8999 11.0005 25.5599Z" fill="white"/>
<path d="M16.1901 2.0799C16.3301 1.8799 17.3401 2.2299 18.1201 2.8699C19.6601 4.1499 20.1201 6.4299 19.8701 6.6299C19.6201 6.8299 19.5101 6.2399 17.6101 3.9999C16.5101 2.6799 16.0901 2.2399 16.1901 2.0799Z" fill="white"/>
<path d="M10.6998 21.28C9.97984 21.13 5.69984 20.28 2.83984 23.36C1.74984 24.51 0.999842 26.07 1.13984 26.22C1.27984 26.37 2.90984 24.1 5.32984 22.64C6.94522 21.6638 8.81454 21.1904 10.6998 21.28Z" fill="white"/>
<path d="M14.5504 12.4C14.0356 12.7935 13.4789 13.1288 12.8904 13.4C12.3517 13.6673 11.7801 13.8623 11.1904 13.98C10.56 13.9896 9.93272 14.0701 9.32035 14.22C8.73704 14.4473 8.22093 14.8189 7.82035 15.3C7.43065 15.7805 7.00618 16.2317 6.55035 16.65C6.12035 17.06 5.71035 17.5 5.24035 17.87C4.25591 18.6701 3.17394 19.3422 2.02035 19.87L1.86035 19.74C2.18706 18.4267 2.88074 17.2336 3.86035 16.3C4.3438 15.8516 4.88128 15.4653 5.46035 15.15C6.02835 14.8054 6.64539 14.5492 7.29035 14.39C7.89191 14.2238 8.46742 13.9747 9.00035 13.65C9.54035 13.32 10.0004 12.77 10.5804 12.42C11.1598 12.0982 11.8079 11.9199 12.4704 11.9C13.1512 11.8466 13.8352 11.9492 14.4704 12.2L14.5504 12.4Z" fill="#1E6F5D"/>
<path d="M18.0006 16.5299C18.5465 16.9559 18.9848 17.5039 19.2806 18.1299C19.5862 18.7178 19.7538 19.3676 19.7706 20.0299C19.7706 20.6999 19.5106 21.3699 19.4906 22.0299C19.4827 22.6766 19.5737 23.3207 19.7606 23.9399C19.94 24.591 20.0242 25.2647 20.0106 25.9399C20.0316 26.6119 19.9677 27.2839 19.8206 27.9399C19.4954 29.2451 18.8011 30.429 17.8206 31.3499L17.6406 31.2799C17.508 30.0213 17.5382 28.7508 17.7306 27.4999C17.8206 26.9099 18.0006 26.3399 18.1406 25.7599C18.2831 25.1569 18.4601 24.5626 18.6706 23.9799C18.8918 23.3933 18.9572 22.7594 18.8606 22.1399C18.6822 21.5347 18.4374 20.9512 18.1306 20.3999C17.9418 19.8338 17.8275 19.2455 17.7906 18.6499C17.7116 18.0023 17.7116 17.3475 17.7906 16.6999L18.0006 16.5299Z" fill="#1E6F5D"/>
<path d="M20.9105 8.19996C20.4696 9.38905 19.9311 10.5396 19.3005 11.64C18.7089 12.7374 18.023 13.7813 17.2505 14.76C16.4605 15.76 15.5005 16.6 14.7705 17.61C14.0485 18.6369 13.4352 19.7361 12.9405 20.89C12.4305 22.04 11.9405 23.19 11.3105 24.28C10.6805 25.37 10.1405 26.49 9.46055 27.54C8.10286 29.6695 6.5168 31.6446 4.73055 33.43L4.56055 33.33C5.33801 30.9234 6.37054 28.6069 7.64055 26.42C8.27055 25.34 8.99055 24.31 9.71055 23.29C10.4137 22.2403 11.1854 21.2381 12.0205 20.29C12.8552 19.3659 13.5955 18.361 14.2305 17.29C14.8605 16.21 15.2305 14.99 15.8705 13.87C16.4704 12.762 17.1842 11.7197 18.0005 10.76C18.8088 9.76856 19.7244 8.86974 20.7305 8.07996L20.9105 8.19996Z" fill="#1E6F5D"/>
<path d="M21.7197 16.71C21.8997 16.54 25.0697 19.1 24.7697 22.93C24.6897 23.93 24.3797 24.99 24.1897 25.02C23.9997 25.05 24.1097 22.97 23.4997 20.58C23.1121 19.205 22.5115 17.8992 21.7197 16.71Z" fill="white"/>
<path d="M60.0007 40.7799C59.8307 37.5899 61.1407 34.9299 63.4307 33.9399C66.3307 32.6799 70.3607 34.2799 72.9607 37.9399C71.0371 37.8796 69.1252 38.2592 67.3707 39.05C66.0307 39.68 64.7007 40.62 64.8507 40.93C65.0007 41.24 67.6807 39.62 71.0207 40.54C75.0207 41.63 78.1507 46 77.9007 46.54C77.6507 47.08 75.6307 44.94 72.1107 44.18C69.3507 43.59 66.8107 43.98 66.8607 44.47C66.9107 44.96 68.4607 45.16 72.3407 46.58C78.0707 48.67 78.8707 49.53 79.2407 49.99C79.6107 50.45 81.4007 52.92 80.4907 58.1399C79.4907 56.1399 76.9407 51.29 72.8207 49.68C70.8207 48.89 68.0607 48.7599 67.9807 49.5299C67.9207 50.0499 69.1307 50.92 69.6607 51.2999C72.2707 53.1799 73.6107 52.58 75.7907 53.68C77.0851 54.3618 78.2247 55.3034 79.1384 56.446C80.0521 57.5885 80.7201 58.9073 81.1007 60.32C81.6107 62.7 80.8007 65.07 80.0107 64.97C79.0107 64.84 78.8507 61.14 76.2307 58.7C74.4407 57 72.0007 56 71.6507 56.66C71.3007 57.32 72.4407 59.39 78.6507 66.16C78.7498 67.4034 78.471 68.6477 77.8507 69.73C77.5382 70.245 77.1214 70.689 76.6272 71.0334C76.1329 71.3779 75.5721 71.6151 74.9807 71.73C72.3307 69.45 70.8307 69.2099 69.9207 69.4899C69.0107 69.7699 68.8207 70.35 68.1207 70.12C67.0607 69.78 66.3707 67.88 65.9307 66.66C65.0012 64.5467 64.6792 62.2161 65.0007 59.93C65.4107 58.05 66.2307 57.7 66.0007 56.22C65.7607 54.89 64.7607 53.2899 64.1307 53.2999C62.5307 53.2999 62.6207 63.36 65.1307 67.3C65.3007 67.56 65.6807 68.1199 65.5807 68.25C65.3407 68.57 61.8707 66.77 60.7107 64.04C59.3407 60.85 62.1807 58.89 61.2407 53.04C61.2407 52.87 60.7807 50.2599 60.3407 50.1699C59.6207 50.0299 59.3407 56.43 59.1607 61.99C56.2407 59.99 55.5407 58.17 55.3307 57.2999C54.7107 54.8099 56.1707 52.2999 58.3307 48.57C59.3307 46.9 59.8507 46.2199 59.6107 45.8899C59.1907 45.3099 56.3707 46 54.9407 48.2299C53.1607 50.99 54.3607 54.76 53.6407 54.79C52.9207 54.82 51.1807 51.5599 51.0007 48.2999C50.7807 45.2999 51.8507 41.85 54.3907 40.64C55.4557 40.186 56.6206 40.0172 57.7707 40.15C58.5412 40.2482 59.2927 40.4605 60.0007 40.7799Z" fill="#3A7867"/>
<path d="M70.2504 59.0699C70.5404 58.8599 73.1404 61.5999 74.4204 65.1499C74.5304 65.4499 75.1903 67.2899 74.9503 67.3799C74.4503 67.5799 69.8004 59.4099 70.2504 59.0699Z" fill="white"/>
<path d="M65.0798 35.5999C64.9498 35.3899 63.9398 35.7399 63.1598 36.3799C61.6198 37.6599 61.1598 39.9399 61.3998 40.1399C61.6398 40.3399 61.7598 39.7499 63.6698 37.4899C64.7598 36.1899 65.1898 35.7499 65.0798 35.5999Z" fill="white"/>
<path d="M70.5703 54.79C71.3003 54.64 75.5703 53.79 78.4403 56.87C79.5303 58.02 80.3003 59.58 80.1403 59.73C79.9803 59.88 78.3703 57.61 76.0003 56.16C74.3696 55.167 72.477 54.6894 70.5703 54.79Z" fill="white"/>
<path d="M66.75 45.72C67.383 45.4609 68.0682 45.3547 68.75 45.41C69.411 45.4394 70.057 45.6171 70.64 45.93C71.21 46.28 71.64 46.83 72.22 47.16C72.7756 47.494 73.3793 47.7402 74.01 47.89C74.6535 48.0536 75.2699 48.3096 75.84 48.65C76.4191 48.9653 76.9566 49.3517 77.44 49.8C78.4196 50.7336 79.1133 51.9268 79.44 53.24L79.28 53.37C78.1253 52.8442 77.0431 52.172 76.06 51.37C75.59 51 75.18 50.56 74.75 50.15C74.2935 49.7293 73.8658 49.2783 73.47 48.8C73.0738 48.3321 72.5691 47.9682 72 47.74C71.3876 47.5902 70.7604 47.5097 70.13 47.5C69.5403 47.3824 68.9687 47.1873 68.43 46.92C67.8363 46.6588 67.2785 46.3227 66.77 45.92L66.75 45.72Z" fill="#1E6F5D"/>
<path d="M63.4202 50.12C63.5033 50.7841 63.5033 51.4559 63.4202 52.12C63.3848 52.7167 63.267 53.3056 63.0702 53.87C62.7665 54.4251 62.5251 55.012 62.3502 55.62C62.2535 56.2361 62.319 56.8669 62.5402 57.45C62.7507 58.0327 62.9277 58.627 63.0702 59.23C63.233 59.8062 63.3665 60.3903 63.4702 60.98C63.6664 62.2304 63.7001 63.501 63.5702 64.76L63.3902 64.83C62.4134 63.9022 61.7199 62.7163 61.3902 61.41C61.2431 60.754 61.1792 60.082 61.2002 59.41C61.1816 58.7345 61.2659 58.0601 61.4502 57.41C61.6279 56.7888 61.7188 56.1461 61.7202 55.5C61.7202 54.87 61.4602 54.19 61.4402 53.5C61.457 52.8377 61.6246 52.1879 61.9302 51.6C62.2345 50.9708 62.6834 50.4225 63.2402 50L63.4202 50.12Z" fill="#1E6F5D"/>
<path d="M60.5306 41.59C61.5368 42.3798 62.4524 43.2786 63.2606 44.27C64.0757 45.2243 64.7958 46.2559 65.4106 47.35C66.0006 48.47 66.4106 49.69 67.0506 50.77C67.6857 51.841 68.426 52.846 69.2606 53.77C70.0958 54.7181 70.8674 55.7203 71.5706 56.77C72.2906 57.77 73.0106 58.82 73.6306 59.91C74.9096 62.0902 75.9458 64.404 76.7206 66.81L76.5506 66.91C74.7642 65.1221 73.175 63.1475 71.8106 61.02C71.1406 60.02 70.5506 58.87 69.9706 57.77C69.3906 56.67 68.8406 55.53 68.3406 54.37C67.846 53.2162 67.2327 52.1169 66.5106 51.09C65.7806 50.09 64.8206 49.21 64.0306 48.25C63.2686 47.2751 62.5896 46.2381 62.0006 45.15C61.3683 44.0506 60.8297 42.8998 60.3906 41.71L60.5306 41.59Z" fill="#1E6F5D"/>
<path d="M59.5499 50.22C59.3799 50.05 56.2099 52.62 56.5499 56.44C56.6299 57.44 56.9399 58.5 57.1299 58.53C57.3199 58.56 57.2099 56.48 57.8199 54.09C58.2001 52.7209 58.7833 51.4164 59.5499 50.22Z" fill="white"/>
<path d="M53.6006 27.37C51.2206 29.5 50.2606 32.3 51.1706 34.63C52.3206 37.57 56.3007 39.29 60.7306 38.56C59.328 37.241 58.2499 35.6153 57.5807 33.81C57.0807 32.42 56.8007 30.81 57.1307 30.7C57.4607 30.59 58.1907 33.63 61.2007 35.35C64.7807 37.35 70.1006 36.55 70.2706 36.03C70.4406 35.51 67.5406 35.55 64.5206 33.58C62.1506 32.05 60.6407 29.98 61.0207 29.66C61.4007 29.34 62.6406 30.31 66.3806 32.06C71.9106 34.64 73.0807 34.6 73.6607 34.54C74.2407 34.48 77.2707 34 80.3207 29.68C78.2306 30.42 72.9606 31.99 68.9206 30.21C66.9206 29.33 64.9206 27.49 65.3906 26.89C65.7206 26.47 67.2007 26.72 67.8307 26.83C71.0107 27.36 71.5307 28.73 73.8307 29.49C75.2278 29.9294 76.7009 30.0746 78.157 29.9162C79.6131 29.7579 81.0206 29.2995 82.2906 28.57C84.2906 27.26 85.4406 25.01 84.8106 24.52C84.1806 24.03 81.2806 26.39 77.7006 26.26C75.2306 26.17 72.8607 25.13 73.0507 24.41C73.2407 23.69 75.5407 23.05 84.6907 22.64C85.6535 21.8393 86.3509 20.7653 86.6907 19.56C86.8358 18.9721 86.8583 18.3606 86.7568 17.7636C86.6553 17.1666 86.432 16.5969 86.1006 16.09C82.6106 15.83 81.3807 14.93 80.9407 14.09C80.5007 13.25 80.7707 12.69 80.1207 12.36C79.1207 11.85 77.3007 12.7 76.1207 13.25C73.9645 14.0949 72.0873 15.5253 70.7006 17.38C69.7006 18.99 70.0007 19.82 68.7607 20.68C67.5207 21.54 65.8107 21.87 65.3707 21.41C64.2607 20.27 71.4407 13.25 75.9707 12.28C76.2707 12.21 76.9707 12.09 76.9707 11.93C77.0307 11.53 73.3107 10.34 70.5507 11.44C67.3307 12.73 67.9407 16.12 63.1507 19.56C63.0107 19.66 60.8506 21.2 60.4806 20.94C59.8806 20.54 64.2006 15.8 68.0306 11.77C64.5406 11.13 62.7706 11.9 62.0306 12.36C59.8306 13.68 59.0307 16.52 57.9307 20.62C57.4207 22.47 57.3307 23.34 56.9307 23.41C56.2207 23.52 54.7207 21.04 55.2907 18.41C55.9907 15.21 59.5106 13.41 59.0306 12.87C58.5506 12.33 55.0307 13.44 52.5907 15.59C50.2807 17.59 48.5907 20.74 49.5907 23.39C50.0129 24.4616 50.7012 25.4081 51.5907 26.14C52.1971 26.6458 52.8743 27.0601 53.6006 27.37Z" fill="#3A7867"/>
<path d="M73.7798 21.7099C73.8398 22.0699 77.6098 21.9799 81.0298 20.3799C81.3198 20.2499 83.0898 19.3799 83.0298 19.1899C82.7698 18.6899 73.6998 21.1599 73.7798 21.7099Z" fill="white"/>
<path d="M53.4998 34.6099C53.2498 34.6099 52.7898 33.6999 52.6998 32.6899C52.5198 30.6899 53.8098 28.7599 54.1198 28.7999C54.4298 28.8399 54.1198 29.3299 53.8398 32.2799C53.6898 33.9999 53.6798 34.5799 53.4998 34.6099Z" fill="white"/>
<path d="M71 25C71.41 25.63 73.84 29.22 78 29.11C79.58 29.11 81.23 28.51 81.22 28.3C81.21 28.09 78.47 28.54 75.74 27.85C73.913 27.3895 72.2635 26.3977 71 25Z" fill="white"/>
<path d="M62.0001 28.5C62.6464 28.5819 63.2807 28.7396 63.8901 28.97C64.4566 29.1599 64.9948 29.4257 65.4901 29.76C65.9502 30.1999 66.4564 30.5888 67.0001 30.92C67.5718 31.1716 68.1978 31.2748 68.8201 31.22C69.4361 31.1806 70.054 31.1806 70.6701 31.22C71.2674 31.2098 71.8648 31.2299 72.4601 31.28C73.719 31.4226 74.9552 31.7215 76.1401 32.17V32.37C74.9862 33.0649 73.6564 33.4121 72.3101 33.37C71.644 33.3278 70.9857 33.2035 70.3501 33C69.7061 32.8379 69.0894 32.5818 68.5201 32.24C67.967 31.9035 67.3672 31.6508 66.7401 31.49C66.1301 31.34 65.4101 31.4 64.7401 31.23C64.1 31.0343 63.5145 30.6919 63.0301 30.23C62.5059 29.786 62.0947 29.2239 61.8301 28.59L62.0001 28.5Z" fill="#1E6F5D"/>
<path d="M62.4398 23.11C62.3524 22.4345 62.4314 21.748 62.6698 21.11C62.8657 20.4759 63.2083 19.8969 63.6698 19.42C64.1498 18.96 64.7998 18.66 65.2698 18.22C65.7273 17.7653 66.1208 17.2506 66.4399 16.69C66.7572 16.1057 67.1657 15.5757 67.6498 15.12C68.1049 14.6471 68.6152 14.2308 69.1698 13.88C70.329 13.189 71.6609 12.8422 73.0099 12.88L73.0898 13.07C72.286 14.0458 71.362 14.916 70.3398 15.66C69.8598 16.02 69.3398 16.29 68.8198 16.61C68.294 16.9317 67.7498 17.2222 67.1899 17.48C66.6194 17.7432 66.1243 18.1455 65.7498 18.65C65.4362 19.1899 65.1847 19.7636 64.9998 20.36C64.7371 20.8975 64.4005 21.3957 63.9998 21.84C63.582 22.3415 63.109 22.7943 62.5898 23.19L62.4398 23.11Z" fill="#1E6F5D"/>
<path d="M54.5102 26.9999C55.6611 26.4686 56.8555 26.037 58.0802 25.7099C59.2777 25.3604 60.5018 25.1096 61.7402 24.9599C62.9902 24.8399 64.2702 24.9099 65.5102 24.7099C66.7453 24.5043 67.9554 24.1691 69.1202 23.7099C70.3002 23.2599 71.4802 22.8099 72.6802 22.4699C73.8802 22.1299 75.0702 21.7399 76.2902 21.4699C78.7581 20.9384 81.2758 20.6736 83.8002 20.6799V20.8699C81.5478 22.0172 79.1772 22.9158 76.7302 23.5499C75.5202 23.8699 74.2802 24.0899 73.0502 24.3099C71.8148 24.5437 70.5655 24.6974 69.3102 24.7699C68.0548 24.8459 66.8092 25.04 65.5902 25.3499C64.3802 25.6699 63.2202 26.2299 62.0102 26.5999C60.8021 26.9416 59.5624 27.1594 58.3102 27.2499C57.0407 27.3897 55.7597 27.3897 54.4902 27.2499L54.5102 26.9999Z" fill="#1E6F5D"/>
<path d="M60 20.38C59.75 20.38 59.34 16.32 62.26 13.83C63.03 13.18 63.99 12.66 64.15 12.77C64.31 12.88 62.76 14.27 61.5 16.39C60.7978 17.635 60.2919 18.9808 60 20.38Z" fill="white"/>
</svg>
