<svg width="38" height="38" viewBox="0 0 38 38" fill="none" xmlns="http://www.w3.org/2000/svg">
<path d="M15.3811 29.1013C15.3811 29.246 15.3811 29.3951 15.3811 29.5398C15.3811 29.8322 15.3811 30.1392 15.3811 30.4609C15.3811 33.1406 15.2189 35.6668 14.9787 38C14.3295 37.9781 13.7323 37.9474 13.1091 37.8991C12.059 37.8334 11.0146 37.7309 9.98015 37.5921C9.5517 36.1404 9.15572 34.5923 8.79868 32.9608C8.66885 32.3555 8.53902 31.7415 8.42217 31.1143L8.20795 29.9521C8.20795 29.8775 8.20795 29.8074 8.169 29.7328C7.20779 24.0553 6.99056 18.3316 7.51984 12.6283C7.61721 11.6283 7.72757 10.6634 7.87038 9.70732C8.31181 6.5057 8.96746 3.53653 9.72697 0.826111C11.6419 5.64856 13.0733 10.5528 14.0114 15.5053C14.1802 16.3562 14.3165 17.1895 14.4399 18.0184C15.0501 21.9349 15.3422 25.6409 15.3811 29.1013Z" fill="#3A7867"/>
<path d="M15.3808 29.0304C15.3808 30.5072 15.3808 31.9796 15.3488 33.452C15.3168 34.9245 15.2401 36.4056 15.1314 37.878V38H14.9523L13.7053 37.9477L13.1041 37.8998L12.4646 37.8432L9.9897 37.6036H9.82982L9.78506 37.4642C9.18392 35.1771 8.50604 32.8944 8.14791 30.5856C7.78979 28.2767 7.5084 25.9592 7.3805 23.6416C7.2526 21.3241 7.20783 18.9978 7.25899 16.6716C7.25899 15.5128 7.34213 14.3497 7.41887 13.1865C7.49561 12.0234 7.6491 10.869 7.76421 9.70148C8.12111 6.74037 8.69525 3.79328 9.48449 0.87126L9.7275 0L10.0792 0.87126C11.1856 3.67236 12.164 6.50395 12.925 9.36169C13.313 10.7906 13.6562 12.2238 13.9547 13.6614C14.2488 15.0989 14.4599 16.5452 14.6773 17.9915C14.9139 19.8255 15.0802 21.6639 15.1953 23.5022C15.3104 25.3406 15.3872 27.192 15.3808 29.0304ZM15.3168 29.0304C15.2657 27.192 15.1953 25.3537 14.9843 23.5197C14.7732 21.6857 14.5174 19.856 14.1849 18.0351C13.9099 16.6019 13.6669 15.1643 13.3279 13.7354C12.989 12.3065 12.6884 10.8777 12.2791 9.45753C11.4862 6.61722 10.5653 3.79434 9.49088 0.993236H10.0856C9.26706 3.87711 8.62755 6.8089 8.14791 9.76247C8.00722 10.9169 7.82176 12.0669 7.70665 13.2475C7.59154 14.4281 7.5084 15.5607 7.47003 16.7325C7.37411 19.0457 7.47003 21.3676 7.66189 23.6765C7.85374 25.9853 8.22465 28.2942 8.67871 30.5856C8.90253 31.7356 9.13276 32.8813 9.44612 34.0183L10.2775 37.4424L10.0792 37.3117L12.5094 37.5862L13.1169 37.6559L13.7564 37.6951L14.9843 37.7778L14.7924 37.8911C14.9843 36.423 15.125 34.9549 15.2273 33.4825C15.3296 32.0101 15.304 30.4941 15.3168 29.0304Z" fill="#231F20"/>
<path d="M10.5412 6.6087C9.46007 16.5262 9.87102 26.5316 11.7626 36.3478Z" fill="#3A7867"/>
<path d="M10.3815 8.26086C9.50788 17.0846 9.97161 25.96 11.7626 34.6956" stroke="white" stroke-miterlimit="10" stroke-linecap="round" stroke-dasharray="0.96 4.79"/>
<path d="M26.8107 29.9165V30.1729C26.8107 30.6379 26.8107 31.1246 26.8467 31.62C26.9006 32.9716 27.0444 34.4361 27.3201 35.9875C26.5049 36.2794 25.6641 36.532 24.8031 36.7437C24.3296 36.861 23.8382 36.974 23.3408 37.0739C23.2749 37.0739 23.203 37.1 23.1371 37.1131L22.8314 37.1739C22.7176 36.9305 22.5977 36.6698 22.4778 36.396C21.9687 35.1848 21.5683 33.9509 21.2793 32.7021V32.7021C21.1534 32.1241 21.0336 31.5157 20.9497 30.8899C20.9497 30.8074 20.9497 30.7292 20.9197 30.6466C20.8777 30.2946 20.8418 29.9426 20.8238 29.5819C20.8238 29.521 20.8238 29.4602 20.8238 29.395C20.8238 29.3342 20.8238 29.2733 20.8238 29.2168C20.7768 28.1025 20.8388 26.9872 21.0096 25.8793C21.2738 24.1805 21.8274 22.5121 22.6576 20.9121V20.9121C22.9273 20.3906 23.2569 19.8648 23.5865 19.3433C23.8922 18.887 24.2218 18.4307 24.5933 17.97L24.6293 17.9266C24.6433 17.9146 24.6554 17.9015 24.6652 17.8875C27.4284 14.5149 31.4145 11.7567 36.1895 9.91302C33.9647 11.5104 32.0929 13.3471 30.6401 15.3582C27.9613 19.0739 27.5119 22.3506 27.0444 25.9184C26.9246 27.0657 26.8167 28.4085 26.8107 29.9165Z" fill="#3A7867"/>
<path d="M26.4684 29.7695C26.4684 30.7714 26.5185 31.7776 26.625 32.7794C26.7315 33.7813 26.9006 34.7789 27.1073 35.7894V35.8539L27.0134 35.8883C26.2672 36.153 25.4997 36.3885 24.7147 36.5934C24.3201 36.6966 23.9192 36.7826 23.5246 36.8772L22.9296 37.0148L22.3032 37.1309L22.084 37.1739L22.0088 37.0277L21.633 36.2538V36.2237V36.271C21.3574 35.6733 21.1069 35.067 20.8877 34.4521C20.6684 33.8372 20.4931 33.2223 20.349 32.5988L20.017 30.7972L19.9544 30.049L19.9043 29.3094C19.9043 28.6042 19.9043 27.8775 19.9732 27.1595C20.0421 26.4414 20.1674 25.7276 20.3427 25.0095C20.6725 23.5933 21.2076 22.2033 21.9399 20.8601V20.8601V20.9074V20.873L22.9045 19.3164V19.3465L23.9818 17.8674L24.0382 17.7986V17.8502V17.8201V17.7943C25.4502 16.1036 27.2095 14.5613 29.262 13.2149C31.3219 11.86 33.6396 10.7029 36.1518 9.77496L37.9995 9.08698L36.4587 10.1276C34.6354 11.3917 33.0298 12.7955 31.6734 14.3114C30.3355 15.8309 29.2832 17.4606 28.5417 19.1616C27.8224 20.8772 27.3216 22.6324 27.0447 24.4075C26.6932 26.1851 26.5008 27.9758 26.4684 29.7695V29.7695ZM26.4058 29.7695C26.4058 27.9764 26.5687 26.1791 26.7691 24.3903C26.9351 22.5886 27.3504 20.8019 28.0093 19.0541C28.7108 17.3038 29.7649 15.6294 31.141 14.0792C32.501 12.5232 34.1473 11.0939 36.0391 9.82656L36.4023 10.1663C33.9353 11.0617 31.6452 12.17 29.5877 13.4643C28.5559 14.1095 27.591 14.8035 26.7002 15.5411C25.8087 16.2855 24.9906 17.0698 24.2512 17.8889V17.8373V17.8674V17.9018L23.1801 19.2476V19.2132L22.2093 20.7526V20.7268C21.475 22.0595 20.9583 23.4439 20.6684 24.8547C20.5277 25.5592 20.4399 26.2682 20.4054 26.9789C20.3678 27.6883 20.4054 28.3935 20.4054 29.1288L20.4931 29.9544L20.587 30.6854L20.919 32.487C21.0693 33.1019 21.2635 33.7082 21.4639 34.3145C21.6643 34.9208 21.8961 35.5228 22.1529 36.1205V36.1721V36.1162L22.5099 36.8901L22.2093 36.7869L22.8356 36.6794L23.4306 36.5633C23.8315 36.4773 24.2324 36.4085 24.627 36.314C25.4102 36.1353 26.1777 35.9257 26.9257 35.6862L26.8505 35.7851C26.6939 34.7875 26.5937 33.7813 26.5248 32.7751C26.4559 31.769 26.4121 30.7671 26.4058 29.7695Z" fill="#231F20"/>
<path d="M26.224 17.6248C26.224 17.687 26.224 17.7448 26.224 17.8025C26.2631 19.6863 26.224 21.5079 26.1003 23.2762V23.3028C25.957 25.4532 25.716 27.5236 25.4034 29.4829C25.4034 29.5851 25.4034 29.6829 25.3513 29.7806C25.2861 30.1938 25.221 30.6026 25.1494 31.0069C25.0842 31.3312 25.0321 31.6555 24.9605 31.971C24.6478 33.5704 24.3092 35.081 23.9119 36.5427C23.8337 36.8537 23.749 37.1559 23.6579 37.4313C23.1954 37.5069 22.707 37.5824 22.2185 37.6446C21.1959 37.7823 20.1538 37.889 19.1183 37.96L18.4669 38C18.239 35.6364 18.0957 33.0817 18.0957 30.3715C18.0957 30.0694 18.0957 29.7628 18.0957 29.4518C18.0957 29.2919 18.0957 29.1408 18.0957 28.9809C18.0957 26.9416 18.239 24.8268 18.4604 22.632C18.6363 20.7659 18.8903 18.8688 19.242 16.8962V16.9184C19.3006 16.5141 19.3723 16.1053 19.4504 15.6966C19.6067 14.888 19.7696 14.0971 19.9389 13.3152C20.8584 9.10664 22.1262 4.93697 23.736 0.826111C24.8407 4.77731 25.5803 8.77196 25.9505 12.7865C26.1003 14.4348 26.1914 16.052 26.224 17.6248Z" fill="#3A7867"/>
<path d="M26.2386 18.0907V18.2673L26.1932 21.7133V23.4363C26.1932 24.0135 26.096 24.5864 26.0506 25.1593L25.7461 28.6053L25.6618 29.4668C25.6618 29.7554 25.5711 30.044 25.5322 30.3283C25.448 30.8969 25.3443 31.4698 25.2342 32.0513C24.9102 33.5331 24.5279 35.0106 24.1779 36.4924V36.4579V36.4924L23.9187 37.3539V37.4659L23.7567 37.4917L22.4608 37.664C22.0266 37.72 21.586 37.7502 21.1648 37.789L19.8688 37.9096C19.4346 37.9526 18.994 37.9828 18.5728 38H18.3719V37.8708C18.2423 36.1478 18.171 34.4506 18.1257 32.7448C18.0803 31.0391 18.0738 29.3204 18.1969 27.6146C18.3201 25.9088 18.3136 24.1987 18.4626 22.4929L19.1106 17.3713C19.305 16.0446 19.5901 14.7351 19.8753 13.4213C20.1604 12.1075 20.5232 10.798 20.8602 9.49284C21.4564 6.89972 22.383 4.3152 23.4392 1.76946L23.7891 0.826111L24.0872 1.76946C24.8425 4.46104 25.3854 7.17706 25.7137 9.90637C25.8757 11.2675 26.0312 12.633 26.0766 13.9985L26.2386 18.0907ZM26.1738 18.0907L25.8951 13.9985C25.7785 12.6373 25.5646 11.2805 25.3249 9.9236C25.0851 8.56673 24.7871 7.21847 24.476 5.87453C24.165 4.53058 23.7891 3.18663 23.4392 1.84699H24.0872C23.018 4.41428 22.1432 6.99879 21.3851 9.59192C21.0028 10.8842 20.6593 12.1764 20.3483 13.4988C20.0373 14.8212 19.7392 16.1135 19.5059 17.423V17.4488L18.7153 22.536C18.5793 23.3975 18.5663 24.259 18.4885 25.0947L18.3071 27.6534C18.1581 29.3764 18.171 31.0649 18.2423 32.775C18.3136 34.4851 18.4497 36.1866 18.6505 37.888L18.4367 37.7674C18.8709 37.7416 19.305 37.7071 19.7327 37.6554L21.0287 37.5133C21.4564 37.4659 21.8905 37.4271 22.3247 37.3711L23.6207 37.173L23.4198 37.3108L23.6595 36.4493V36.4795V36.4493C24.0095 34.9718 24.3075 33.4944 24.7028 32.0255C24.8259 31.4612 24.9426 30.8969 25.0398 30.3025C25.0851 30.0139 25.1499 29.7339 25.1888 29.441L25.3054 28.5795L25.785 25.1335C25.8627 24.5606 25.9664 23.992 26.0118 23.4104L26.0895 21.6874L26.1997 18.2414L26.1738 18.0907Z" fill="#231F20"/>
<path d="M22.9292 6.6087C23.4611 11.5753 23.6368 16.5694 23.4551 21.5577C23.2692 26.7946 22.6877 32.0129 21.7148 37.1739" fill="#3A7867"/>
<path d="M23.5234 6.6087C23.5234 6.88957 23.5234 7.15392 23.5234 7.43479" stroke="white" stroke-miterlimit="10" stroke-linecap="round"/>
<path d="M23.0993 9.08698C23.5047 13.2002 23.6203 17.3282 23.4454 21.4517C23.2497 26.1664 22.6717 30.8661 21.7148 35.5218" stroke="white" stroke-miterlimit="10" stroke-linecap="round" stroke-dasharray="0.96 4.79"/>
<path d="M21.7148 36.3478V37.1739" stroke="white" stroke-miterlimit="10" stroke-linecap="round"/>
<path d="M9.95238 37.1739C8.22128 36.9377 6.52963 36.5824 4.90329 36.1135C3.92486 34.9692 3.05627 33.7828 2.30301 32.5616C2.01269 32.0745 1.75392 31.6046 1.52672 31.1477L1.41942 30.9365C-0.21522 27.5354 -0.21522 24.837 0.314934 22.7722C0.889268 20.5221 2.05056 19.1298 3.47061 14.9614C4.60099 11.6742 5.31888 8.3271 5.61648 4.95654C6.68978 6.52412 7.57419 8.14885 8.26094 9.81458V9.81458C8.99025 11.6088 9.46994 13.4461 9.69362 15.302V15.302C9.76935 15.9744 9.81353 16.6684 9.82615 17.3797C9.82615 18.2418 9.78829 18.9315 9.71255 19.6039C9.58001 20.6773 9.37805 21.6385 9.20764 22.811C8.88777 25.0065 8.77814 27.2139 8.87945 29.4192C8.87945 29.4968 8.87945 29.5744 8.87945 29.6519C8.87945 30.027 8.92994 30.4106 8.95519 30.7986C9.01199 31.3934 9.06879 32.0055 9.15084 32.6392C9.30862 34.0746 9.5737 35.5833 9.95238 37.1739Z" fill="#3A7867"/>
<path d="M9.80692 37.1739C9.34628 37.1305 8.95838 37.0609 8.54018 36.9958C8.12197 36.9306 7.71589 36.8524 7.32798 36.7698C6.50504 36.6073 5.69562 36.4115 4.9036 36.1833H4.86117V36.1528C3.8821 34.9881 3.01343 33.7775 2.26101 32.5291C1.52411 31.2651 0.946023 29.9564 0.533639 28.6187C-0.330901 25.9347 -0.142099 23.1315 1.07913 20.5197C1.68522 19.2162 2.29132 17.9561 2.81256 16.657C3.33381 15.3578 3.75807 14.05 4.12173 12.7117C4.84149 10.0577 5.29319 7.36987 5.47333 4.66921L5.50969 4.13043L5.80668 4.63445C6.85272 6.21533 7.71823 7.85441 8.39471 9.53557V9.56164V9.58771V9.53992C9.11649 11.3571 9.59545 13.2193 9.8251 15.1015V15.1015C9.86753 15.8314 9.92814 16.557 9.95238 17.274L9.83722 19.4464C9.62509 20.9672 9.37659 22.4488 9.1887 23.9087C9.00081 25.3686 8.92808 26.8503 8.92202 28.3232C8.91596 29.7962 9.01899 31.2691 9.17052 32.7464C9.32204 34.2237 9.58266 35.727 9.80692 37.1739ZM9.76449 37.1435L8.86747 32.7638C8.66746 31.2952 8.50987 29.8048 8.47351 28.3276C8.43714 26.8503 8.47351 25.3599 8.60079 23.874C8.72807 22.388 9.01293 20.9324 9.20688 19.4595L9.30386 17.287C9.30386 16.9307 9.26143 16.5701 9.24931 16.2138L9.19476 15.1362C8.99287 13.277 8.54848 11.4353 7.86741 9.63551V9.60944V9.58337V9.63551C7.24407 7.96062 6.43331 6.32451 5.44302 4.74307L5.80668 4.69528C5.51995 7.39902 5.00381 10.0877 4.26113 12.7465C3.52137 15.4039 2.57437 18.0295 1.4246 20.6109C0.881926 21.8952 0.570296 23.2239 0.497274 24.5648C0.446801 25.9033 0.609478 27.2415 0.98215 28.5535C1.80865 31.1825 3.18598 33.7066 5.06724 36.0399L5.00057 35.9964C5.76192 36.2476 6.54309 36.4667 7.3401 36.6525C7.74013 36.7481 8.14621 36.835 8.5523 36.9176C8.95838 37.0001 9.40689 37.0609 9.76449 37.1435V37.1435Z" fill="#231F20"/>
<path d="M5.88099 9.91302C7.54038 15.725 6.55429 19.5677 5.29781 22.0388C4.70934 23.1845 4.08906 23.9873 3.78157 25.4173C2.99693 29.076 5.20239 32.4252 7.23819 34.6956" fill="#3A7867"/>
<path d="M6.86768 11.5652C7.80564 16.279 6.8125 19.5713 5.56188 21.7821C4.8814 22.9769 4.16413 23.8141 3.80856 25.3054C3.02999 28.5628 4.77718 31.5803 6.75733 33.8696" stroke="white" stroke-miterlimit="10" stroke-linecap="round" stroke-dasharray="1.03 5.15"/>
<path d="M21.3873 29.1684L21.3338 29.5595C21.2743 29.9111 21.2208 30.2495 21.1614 30.5879C20.6959 33.0695 19.9543 35.5185 18.9439 37.9099L18.3495 37.9495L17.642 37.9802C16.8097 38.0066 15.9715 38.0066 15.1274 37.9802C14.5329 37.9582 13.9859 37.9275 13.4152 37.8791C12.9088 35.4743 12.6583 33.0437 12.6662 30.6099C12.6662 30.2539 12.6662 29.9155 12.6662 29.5903C12.6662 29.4672 12.6662 29.353 12.6662 29.2343C12.6662 28.6366 12.7375 28.0828 12.7851 27.5686C13.1477 23.7626 14.0216 21.6267 14.6042 17.9525C14.7172 17.2713 14.8182 16.5285 14.9015 15.7155C15.3023 11.855 15.1908 7.97482 14.5685 4.13043C16.7642 7.08692 18.4802 10.2246 19.6811 13.4785C20.0774 14.542 20.4262 15.6554 20.7274 16.8186C21.7616 20.8893 21.9839 25.05 21.3873 29.1684V29.1684Z" fill="#3A7867"/>
<path d="M21.34 29.1501C21.242 29.8814 21.1326 30.617 20.9829 31.3265C20.8331 32.0359 20.6603 32.7802 20.4876 33.5028C20.1036 34.9536 19.6448 36.3914 19.111 37.8162V37.8989H18.9901C18.5351 37.9381 18.0859 37.9729 17.6366 37.9903H16.2774C15.8281 37.9903 15.3731 38.0121 14.9181 37.9903L13.5531 37.9511H13.3688V37.8075C13.0188 36.1663 12.7977 34.5108 12.7065 32.8499C12.6219 31.1894 12.67 29.5266 12.8505 27.8705C13.0175 26.2121 13.317 24.5668 13.6971 22.9346C14.0773 21.3024 14.4401 19.6745 14.6878 18.0336C14.8087 16.8975 14.97 15.7659 15.0218 14.6255C15.0736 13.4851 15.114 12.3447 15.0967 11.2043C15.0359 8.92339 14.8129 6.64659 14.4286 4.38377L14.25 3.30432L14.9527 4.25754C16.3385 6.13943 17.5248 8.10135 18.5005 10.1249C18.9901 11.1347 19.4221 12.1619 19.8079 13.1978C20.1938 14.2337 20.4645 15.2653 20.764 16.3273C21.32 18.437 21.6303 20.5794 21.6913 22.73C21.7672 24.8736 21.6498 27.0186 21.34 29.1501ZM21.2824 29.1501C21.5692 27.0229 21.6231 24.8814 21.4436 22.7474C21.2642 20.616 20.8637 18.4985 20.2457 16.4144L19.7446 14.8649C19.5776 14.3469 19.4508 13.8246 19.2435 13.311C18.8576 12.2881 18.4257 11.274 17.9361 10.2642C16.9675 8.26511 15.8127 6.32043 14.4804 4.44471L15.0045 4.31848C15.3585 6.59496 15.5201 8.88618 15.4883 11.1782C15.4883 12.3215 15.4327 13.4662 15.3213 14.6124C15.2292 15.7528 15.0391 16.8888 14.8778 18.0292C14.6244 19.6789 14.2097 21.3067 13.8584 22.939C13.4745 24.5753 13.2264 26.2282 13.1154 27.8879C12.9945 29.5363 12.9945 31.1884 13.1154 32.8368C13.2249 34.4821 13.4783 36.123 13.7778 37.7553L13.5647 37.5986L14.8951 37.69C15.3386 37.7291 15.7878 37.69 16.2313 37.7161H17.5675C18.0167 37.7161 18.4602 37.69 18.9037 37.6639L18.754 37.7553C19.3645 36.3624 19.9058 34.9391 20.3205 33.5028C20.7473 32.0635 21.0684 30.6075 21.2824 29.1414V29.1501Z" fill="#231F20"/>
<path d="M16.4084 10.7391C17.6187 12.4137 18.4244 14.2178 18.7928 16.0778C19.467 19.558 18.3309 22.1879 17.6817 24.1253C16.3019 28.4036 15.9413 32.8128 16.6144 37.1739" fill="#3A7867"/>
<path d="M16.2852 10.7391C16.573 11.0145 16.902 11.2715 17.1899 11.5652" stroke="white" stroke-miterlimit="10" stroke-linecap="round"/>
<path d="M17.7689 13.2174C18.2486 14.1919 18.5918 15.1957 18.7938 16.2153C19.4647 19.6158 18.3342 22.1854 17.6882 24.0784C16.4398 27.8278 16.021 31.6859 16.4459 35.5218" stroke="white" stroke-miterlimit="10" stroke-linecap="round" stroke-dasharray="1.02 5.11"/>
</svg>
