<svg width="387" height="509" viewBox="0 0 387 509" fill="none" xmlns="http://www.w3.org/2000/svg">
<path d="M383.6 143.099C383.9 146.299 383.9 149.499 382.8 152.499C381.7 155.499 379.2 158.099 376.1 158.599C372.5 159.199 369.1 157.099 366.3 154.799C354.9 144.899 349.9 129.799 345.4 115.399C343.2 108.499 341.1 101.599 338.9 94.699L337.5 94.299C340.7 91.499 343 87.599 343.8 83.499C344 82.499 344.1 81.499 344.2 80.499H344.7C353.6 89.399 362.5 98.299 369.8 108.599C376.9 118.799 382.5 130.599 383.6 143.099Z" fill="#DBA2A2"/>
<path d="M80.1009 426.399C79.6009 422.899 79.8009 419.299 80.6009 415.899C76.0009 426.899 58.5009 427.499 50.7009 418.399C42.9009 409.299 44.0009 395.099 50.1009 384.799C40.4009 394.299 22.1009 389.699 15.8009 377.699C9.50094 365.699 14.1009 349.899 24.3009 340.899C14.3009 343.499 4.20094 333.699 3.40094 323.399C2.60094 313.099 8.50094 303.299 15.8009 295.899C6.30094 292.799 2.00094 280.899 4.40094 271.299C6.80094 261.599 14.1009 253.999 21.6009 247.499C12.0009 246.999 6.00093 235.399 8.20093 225.999C10.4009 216.599 18.2009 209.599 26.4009 204.599C21.3009 193.799 22.6009 180.299 29.8009 170.799C36.9009 161.299 49.6009 156.199 61.3009 158.099C62.0009 142.099 81.1009 129.899 95.9009 136.099H97.2009C97.2009 137.099 97.4009 137.999 97.7009 138.899C99.0009 142.299 102.901 144.199 106.501 144.199C110.201 144.199 113.601 142.599 116.801 140.799C128.301 134.399 137.601 125.199 145.601 114.699L145.701 114.799C153.401 106.099 167.101 103.699 175.901 111.199L176.701 111.299C175.001 127.599 176.201 143.899 179.801 160.299C181.501 168.099 184.001 175.999 188.401 182.599C198.901 198.099 218.601 204.499 237.201 207.099C259.101 210.299 283.901 208.999 300.101 193.899C315.801 179.199 319.101 155.899 321.401 134.599C321.801 130.699 322.301 126.799 322.701 122.899L323.801 122.999C333.001 124.899 339.101 136.099 335.601 144.899C345.501 148.599 350.601 161.799 345.701 171.199C354.201 175.899 361.601 183.399 363.901 192.899C366.201 202.299 362.301 213.499 353.501 217.699C362.901 226.299 372.501 235.999 375.401 248.399C378.201 260.899 371.101 276.399 358.401 277.699C368.801 281.799 377.401 290.799 380.001 301.699C384.401 319.899 369.201 340.199 350.501 340.999C363.001 344.099 367.501 361.799 360.301 372.399C353.101 383.099 338.301 386.499 325.801 383.499C331.001 387.999 329.001 397.499 323.101 401.099C317.201 404.699 309.301 403.299 303.501 399.699C305.501 404.499 304.201 409.999 301.101 414.299C299.501 416.499 297.301 418.399 294.901 419.599C287.801 423.099 279.101 422.099 271.801 418.899C272.401 421.999 271.901 425.099 270.601 427.899C268.301 432.899 263.501 436.999 258.101 438.299C256.301 438.699 254.601 438.899 252.801 438.899C245.901 438.799 239.101 435.499 234.201 430.599C234.201 439.499 228.401 448.199 220.101 451.599C219.001 451.999 217.901 452.399 216.701 452.699C212.301 453.799 207.601 453.699 203.101 452.999C192.201 451.199 182.001 445.599 174.501 437.399C174.201 442.299 171.601 446.299 167.901 449.299C161.901 453.899 153.001 455.699 145.501 453.499C144.301 453.099 143.101 452.699 141.901 452.199C131.501 447.799 123.701 438.599 116.501 429.799C117.201 435.899 113.201 441.299 107.701 444.099C103.101 446.499 97.4009 447.099 92.7009 444.999C85.5009 441.799 81.2009 434.299 80.1009 426.399Z" fill="#F7F0F0"/>
<path d="M191.501 44.5994L191.401 44.3994C190.401 33.0994 196.901 21.3994 207.201 16.3994C217.501 11.3994 230.701 13.2994 239.001 20.9994C241.701 11.8994 249.601 3.99944 259.101 3.19944C268.601 2.39944 278.501 10.2994 278.101 19.7994C282.801 14.8994 288.801 10.9994 295.501 10.0994C302.201 9.19943 309.601 11.7994 313.401 17.3994C317.201 22.9994 316.201 31.6994 310.701 35.4994C317.801 33.4994 326.001 33.2994 332.101 37.5994C338.101 41.8994 340.201 51.7994 334.801 56.7994C340.601 63.2994 344.801 71.7994 344.301 80.3994C344.201 81.3994 344.101 82.3994 343.901 83.3994C343.101 87.4994 340.701 91.3994 337.601 94.1994C334.201 97.1994 329.901 99.0994 325.501 98.7994C324.601 98.6994 323.601 98.5994 322.701 98.2994C312.601 95.3994 309.001 83.1994 306.901 72.9994C304.201 79.9994 295.701 84.2994 288.501 82.1994C281.201 80.0994 276.301 72.0994 277.701 64.6994C273.901 68.1994 271.401 72.8994 268.001 76.7994C264.701 80.6994 259.901 84.1994 254.701 83.5994C247.201 82.6994 243.301 74.3994 240.801 67.1994C239.901 75.2994 234.501 83.2994 226.601 85.1994C218.701 87.0994 209.201 80.8994 209.701 72.6994C204.401 82.9994 194.101 90.5994 182.701 92.7994C181.701 92.9994 180.601 93.0994 179.601 93.1994C175.401 93.3994 171.001 92.4994 168.601 89.1994C167.101 87.2994 166.601 84.7994 166.401 82.3994C166.401 82.0994 166.401 81.7994 166.401 81.4994C166.201 76.6994 167.001 71.8994 168.701 67.4994C172.501 56.8994 181.001 48.1994 191.501 44.5994Z" fill="#F7F0F0"/>
<path d="M325.302 98.7992V98.9992C324.402 106.999 323.502 115.099 322.702 123.099C322.302 126.999 321.802 130.899 321.402 134.799C319.102 156.199 315.802 179.499 300.102 194.099C283.902 209.199 259.202 210.499 237.202 207.299C218.602 204.599 198.902 198.299 188.402 182.799C183.902 176.199 181.502 168.299 179.802 160.499C176.102 143.999 175.002 127.799 176.702 111.499C177.302 105.699 178.202 99.8992 179.502 93.9992L179.402 93.1992C180.502 93.0992 181.502 92.9992 182.502 92.7992C193.902 90.5992 204.202 82.9992 209.502 72.6992C209.102 80.7992 218.502 87.0992 226.402 85.1992C234.302 83.2992 239.702 75.2992 240.602 67.1992C243.102 74.3992 246.902 82.7992 254.502 83.5992C259.602 84.1992 264.402 80.7992 267.802 76.7992C271.102 72.7992 273.702 68.1992 277.502 64.6992C276.102 72.0992 281.002 80.1992 288.302 82.1992C295.602 84.2992 304.002 79.9992 306.702 72.9992C308.702 83.2992 312.402 95.3992 322.502 98.2992C323.502 98.4992 324.402 98.6992 325.302 98.7992Z" fill="#B78484"/>
<path d="M323.302 468C323.902 473.9 319.302 479.1 314.202 482C309.102 484.9 303.202 486.3 297.302 486.1C296.502 486.1 295.602 486 294.902 485.5C294.302 485 294.002 484.3 293.702 483.6C286.202 465.1 278.702 446.7 271.202 428.2L270.602 427.9C271.902 425.1 272.402 422 271.802 418.9C279.102 422.1 287.702 423.2 294.902 419.6C297.302 418.4 299.502 416.5 301.102 414.3L301.802 414.5C308.902 430.4 315.502 446.6 321.802 462.8C322.502 464.6 323.102 466.3 323.302 468Z" fill="#B78484"/>
<path d="M252.7 439.2C253.2 455.5 251 471.9 246.2 487.5C245.7 489.1 245.2 490.8 244 492.1C242.2 494.2 239.5 495 236.8 495.5C231.3 496.5 225.7 496.8 220.1 496.1C218.8 496 217.5 495.8 216.4 495C214.2 493.4 214.2 490.2 214.4 487.4C215.3 476.4 216.1 465.3 217 454.3L216.6 452.7C217.7 452.4 218.9 452.1 220 451.6C228.3 448.2 234.1 439.5 234.1 430.6C239.1 435.5 245.9 438.8 252.7 438.9V439.2Z" fill="#B78484"/>
<path d="M169.6 449.299C172.4 464.899 175.3 480.899 172.4 496.499C171.8 499.599 170.8 502.999 168.1 504.699C166.7 505.599 165 505.799 163.3 505.999C155.3 506.699 147.2 504.699 140.5 500.399C139.2 499.599 138 498.699 137.3 497.399C136.2 495.499 136.5 493.199 136.7 491.099C138.3 478.299 139.9 465.599 141.6 452.799L141.9 452.099C143.1 452.599 144.3 452.999 145.5 453.399C153 455.599 161.9 453.799 167.9 449.199L169.6 449.299Z" fill="#B78484"/>
<path d="M167.202 66.8994L168.502 67.3994C166.802 71.8994 166.002 76.5994 166.202 81.3994C166.202 81.6994 166.202 81.9994 166.202 82.2994H166.102C159.802 93.3994 153.302 104.699 145.502 114.899C137.502 125.399 128.202 134.599 116.702 140.999C113.502 142.799 110.102 144.299 106.402 144.399C102.802 144.399 98.9016 142.499 97.6016 139.099C97.2016 138.199 97.1016 137.199 97.1016 136.299C97.1016 134.999 97.3016 133.699 97.5016 132.399C99.0016 124.499 102.402 116.999 107.302 110.599C111.602 105.099 116.902 100.499 122.402 96.1994C136.402 84.8994 151.402 75.0994 167.202 66.8994Z" fill="#DBA2A2"/>
<path d="M107.801 444.1L108.101 444.7C103.601 460.5 97.1014 475.8 88.7014 489.9C88.1014 490.9 87.4014 492 86.4014 492.6C85.2014 493.3 83.7014 493.3 82.3014 493.2C74.9014 492.8 67.0014 492.1 61.5014 487.1C60.2014 485.9 59.1014 484.4 58.9014 482.7C58.7014 481 59.6014 479.3 60.3014 477.8C68.7014 461.4 75.3014 444.1 80.1014 426.3C81.2014 434.2 85.5014 441.7 92.7014 444.9C97.5014 447.1 103.201 446.5 107.801 444.1Z" fill="#B78484"/>
<path d="M194.1 43.7998C193.2 43.9998 192.4 44.2998 191.5 44.5998C181 48.1998 172.5 56.9998 168.5 67.3998C166.8 71.8998 166 76.5998 166.2 81.3998C166.2 81.6998 166.2 81.9998 166.2 82.2998C166.4 84.6998 166.9 87.1998 168.4 89.0998C170.8 92.3998 175.2 93.2998 179.4 93.0998C180.5 92.9998 181.5 92.8998 182.5 92.6998C193.9 90.4998 204.2 82.8998 209.5 72.5998C209.1 80.6998 218.5 86.9998 226.4 85.0998C234.3 83.1998 239.7 75.1998 240.6 67.0998C243.1 74.2998 246.9 82.6998 254.5 83.4998C259.6 84.0998 264.4 80.6998 267.8 76.6998C271.1 72.6998 273.7 68.0998 277.5 64.5998C276.1 71.9998 281 80.0998 288.3 82.0998C295.6 84.1998 304 79.8998 306.7 72.8998C308.7 83.1998 312.4 95.2998 322.5 98.1998C323.4 98.4998 324.4 98.5998 325.3 98.6998C329.7 98.9998 334 97.1998 337.4 94.0998C340.6 91.2998 342.9 87.3998 343.7 83.2998C343.9 82.2998 344 81.2998 344.1 80.2998C344.6 71.6998 340.4 63.1998 334.6 56.6998C340.1 51.6998 338 41.7998 331.9 37.4998C325.9 33.1998 317.7 33.3998 310.5 35.3998C316.1 31.4998 317 22.8998 313.2 17.2998C309.4 11.6998 302.1 9.09983 295.3 9.99983C288.6 10.8998 282.5 14.7998 277.9 19.6998C278.3 10.1998 268.4 2.29983 258.9 3.09983C249.4 3.89983 241.5 11.7998 238.8 20.8998C230.4 13.1998 217.2 11.1998 207 16.2998C196.8 21.3998 190.2 32.9998 191.2 44.2998" stroke="black" stroke-width="5" stroke-miterlimit="10" stroke-linecap="round" stroke-linejoin="round"/>
<path d="M179.502 93.8994C178.202 99.7994 177.202 105.599 176.702 111.399C175.002 127.699 176.202 143.999 179.802 160.399C181.502 168.199 184.002 176.099 188.402 182.699C198.902 198.199 218.602 204.599 237.202 207.199C259.102 210.399 283.902 209.099 300.102 193.999C315.802 179.299 319.102 155.999 321.402 134.699C321.802 130.799 322.302 126.899 322.702 122.999C323.602 114.999 324.502 106.899 325.302 98.8994" stroke="black" stroke-width="5" stroke-miterlimit="10" stroke-linecap="round" stroke-linejoin="round"/>
<path d="M167.201 66.8994C151.401 75.1994 136.401 84.8994 122.501 95.9994C117.001 100.299 111.701 104.899 107.401 110.399C102.501 116.799 99.1012 124.299 97.6012 132.199C97.4012 133.499 97.2012 134.799 97.2012 136.099C97.2012 137.099 97.4012 137.999 97.7012 138.899C99.0012 142.299 102.901 144.199 106.501 144.199C110.201 144.199 113.601 142.599 116.801 140.799C128.301 134.399 137.601 125.199 145.601 114.699C153.401 104.599 160.001 93.2994 166.201 82.0994" stroke="black" stroke-width="5" stroke-miterlimit="10" stroke-linecap="round" stroke-linejoin="round"/>
<path d="M338.9 94.5998C341.1 101.5 343.2 108.4 345.4 115.3C349.9 129.7 354.9 144.9 366.3 154.7C369 157.1 372.5 159.2 376.1 158.5C379.2 157.9 381.7 155.4 382.8 152.4C383.9 149.4 383.9 146.2 383.6 143C382.4 130.5 376.9 118.7 369.7 108.4C362.5 98.0998 353.5 89.1998 344.6 80.2998" stroke="black" stroke-width="5" stroke-miterlimit="10" stroke-linecap="round" stroke-linejoin="round"/>
<path d="M95.9009 136.1C81.1009 129.9 62.0009 142.1 61.3009 158.1C49.5009 156.2 36.9009 161.3 29.8009 170.8C22.7009 180.3 21.3009 193.9 26.4009 204.6C18.2009 209.6 10.3009 216.6 8.20093 226C6.00093 235.4 12.0009 246.9 21.6009 247.5C14.0009 254 6.80094 261.6 4.40094 271.3C2.00094 281 6.30094 292.9 15.8009 295.9C8.50094 303.3 2.60094 313 3.40094 323.4C4.20094 333.7 14.3009 343.5 24.3009 340.9C14.1009 349.9 9.50094 365.7 15.8009 377.7C22.1009 389.7 40.4009 394.2 50.1009 384.8C44.0009 395.1 42.9009 409.3 50.7009 418.4C58.5009 427.5 76.0009 426.9 80.6009 415.9C79.8009 419.3 79.6009 422.9 80.1009 426.4C81.2009 434.3 85.5009 441.8 92.7009 445C97.5009 447.1 103.101 446.5 107.701 444.1C113.201 441.3 117.201 435.9 116.501 429.8C123.701 438.6 131.601 447.9 141.901 452.2C143.101 452.7 144.301 453.1 145.501 453.5C153.001 455.7 161.901 453.9 167.901 449.3C171.701 446.4 174.201 442.3 174.501 437.4C181.901 445.6 192.201 451.2 203.101 453C207.601 453.7 212.301 453.8 216.701 452.7C217.801 452.4 219.001 452.1 220.101 451.6C228.401 448.2 234.201 439.5 234.201 430.6C239.201 435.5 246.001 438.8 252.801 438.9C254.601 438.9 256.301 438.8 258.101 438.3C263.601 437 268.301 432.9 270.601 427.9C271.901 425.1 272.401 422 271.801 418.9C279.101 422.1 287.701 423.2 294.901 419.6C297.301 418.4 299.501 416.5 301.101 414.3C304.201 410.1 305.501 404.5 303.501 399.7C309.401 403.4 317.201 404.7 323.101 401.1C329.001 397.5 331.001 388 325.801 383.5C338.301 386.5 353.101 383.1 360.301 372.4C367.501 361.8 363.001 344.1 350.501 341C369.201 340.1 384.401 319.9 380.001 301.7C377.301 290.8 368.801 281.8 358.401 277.7C371.101 276.4 378.301 260.8 375.401 248.4C372.601 235.9 363.001 226.3 353.501 217.7C362.301 213.6 366.201 202.3 363.901 192.9C361.601 183.5 354.201 176 345.701 171.2C350.601 161.8 345.501 148.7 335.601 144.9C339.101 136.1 333.001 124.9 323.801 123" stroke="black" stroke-width="5" stroke-miterlimit="10" stroke-linecap="round" stroke-linejoin="round"/>
<path d="M145.801 114.9C153.501 106.2 167.201 103.8 176.001 111.3" stroke="black" stroke-width="5" stroke-miterlimit="10" stroke-linecap="round" stroke-linejoin="round"/>
<path d="M80.2018 426.2C80.2018 426.3 80.2018 426.3 80.2018 426.3C75.4018 444.1 68.8018 461.3 60.4018 477.8C59.6018 479.3 58.8018 481 59.0018 482.7C59.2018 484.4 60.3018 485.9 61.6018 487.1C67.0018 492.1 75.0018 492.9 82.4018 493.2C83.8018 493.3 85.3018 493.3 86.5018 492.6C87.5018 492 88.2018 490.9 88.8018 489.9C97.2018 475.8 103.802 460.5 108.202 444.7" stroke="black" stroke-width="5" stroke-miterlimit="10" stroke-linecap="round" stroke-linejoin="round"/>
<path d="M141.601 452.899C139.901 465.699 138.301 478.399 136.701 491.199C136.401 493.299 136.201 495.599 137.301 497.499C138.001 498.799 139.301 499.699 140.501 500.499C147.201 504.799 155.401 506.799 163.301 506.099C165.001 505.999 166.701 505.699 168.101 504.799C170.801 503.099 171.801 499.699 172.401 496.599C175.201 480.999 172.401 464.999 169.601 449.399" stroke="black" stroke-width="5" stroke-miterlimit="10" stroke-linecap="round" stroke-linejoin="round"/>
<path d="M217.102 454.3C216.202 465.3 215.302 476.4 214.502 487.4C214.302 490.1 214.302 493.4 216.502 495C217.502 495.8 218.902 496 220.202 496.1C225.802 496.7 231.402 496.5 236.902 495.5C239.602 495 242.402 494.2 244.102 492.1C245.202 490.8 245.802 489.1 246.302 487.5C251.102 471.9 253.302 455.5 252.802 439.2" stroke="black" stroke-width="5" stroke-miterlimit="10" stroke-linecap="round" stroke-linejoin="round"/>
<path d="M271.201 428.2C278.701 446.7 286.201 465.1 293.701 483.6C294.001 484.3 294.301 485 294.901 485.5C295.601 486 296.501 486.1 297.301 486.1C303.201 486.3 309.101 484.9 314.201 482C319.301 479.1 323.901 473.9 323.301 468C323.101 466.2 322.501 464.6 321.801 462.9C315.501 446.6 308.801 430.5 301.801 414.6" stroke="black" stroke-width="5" stroke-miterlimit="10" stroke-linecap="round" stroke-linejoin="round"/>
<path d="M68.1016 490.5C71.4016 486.6 73.9016 482 75.4016 477.2" stroke="black" stroke-width="5" stroke-miterlimit="10" stroke-linecap="round" stroke-linejoin="round"/>
<path d="M150.301 504C152.001 497.9 152.601 491.5 152.201 485.2" stroke="black" stroke-width="5" stroke-miterlimit="10" stroke-linecap="round" stroke-linejoin="round"/>
<path d="M227.801 495.299C228.801 490.599 229.301 485.699 229.301 480.899" stroke="black" stroke-width="5" stroke-miterlimit="10" stroke-linecap="round" stroke-linejoin="round"/>
<path d="M307.401 482.999C307.401 478.199 306.101 473.499 303.701 469.399" stroke="black" stroke-width="5" stroke-miterlimit="10" stroke-linecap="round" stroke-linejoin="round"/>
<path d="M232.7 155.8C239.3 161.3 246.8 166.7 255.9 166C263.3 165.4 269.8 161.3 273.7 155.1C275.4 152.4 271.1 149.9 269.4 152.6C266.1 157.7 260.6 161 254.5 161.1C247.4 161.3 241.4 156.6 236.2 152.3C233.8 150.2 230.3 153.7 232.7 155.8Z" fill="black"/>
<path d="M283.3 134.1C288.16 134.1 292.1 127.564 292.1 119.5C292.1 111.437 288.16 104.9 283.3 104.9C278.44 104.9 274.5 111.437 274.5 119.5C274.5 127.564 278.44 134.1 283.3 134.1Z" fill="black"/>
<path d="M286.401 123.5C288.113 123.5 289.501 120.232 289.501 116.2C289.501 112.169 288.113 108.9 286.401 108.9C284.689 108.9 283.301 112.169 283.301 116.2C283.301 120.232 284.689 123.5 286.401 123.5Z" fill="white"/>
<path d="M223.601 134.8C228.461 134.8 232.401 128.263 232.401 120.2C232.401 112.136 228.461 105.6 223.601 105.6C218.741 105.6 214.801 112.136 214.801 120.2C214.801 128.263 218.741 134.8 223.601 134.8Z" fill="black"/>
<path d="M226.702 124.1C228.414 124.1 229.802 120.832 229.802 116.8C229.802 112.768 228.414 109.5 226.702 109.5C224.989 109.5 223.602 112.768 223.602 116.8C223.602 120.832 224.989 124.1 226.702 124.1Z" fill="white"/>
</svg>
