<svg width="43" height="102" viewBox="0 0 43 102" fill="none" xmlns="http://www.w3.org/2000/svg">
<path d="M19.2096 72C21.4333 72.5063 23.7438 72.4937 25.9618 71.963C28.1799 71.4323 30.2459 70.3979 31.9996 68.94C34.3498 66.8358 36.0045 64.0665 36.7439 60.9998C37.4834 57.9331 37.2726 54.7141 36.1396 51.77C31.6598 52.2848 27.5092 54.3761 24.4296 57.67C22.655 59.5946 21.2798 61.8522 20.3838 64.312C19.4877 66.7718 19.0886 69.3849 19.2096 72Z" fill="#3E9581"/>
<path d="M19.2597 72C21.8843 72.2664 24.5354 71.9593 27.0297 71.1C29.4545 70.1895 31.6132 68.6873 33.3097 66.73C35.1035 64.772 36.3035 62.3443 36.7697 59.73C37.1755 57.1022 36.7963 54.4131 35.6797 52L36.1897 52.31C33.8735 52.6893 31.6426 53.4747 29.5997 54.63C27.5889 55.7709 25.7893 57.2491 24.2797 59C22.748 60.7723 21.5457 62.8043 20.7297 65C19.8864 67.245 19.3907 69.6055 19.2597 72ZM19.1497 72.09C18.7938 69.6223 18.9642 67.1072 19.6497 64.71C20.3223 62.2643 21.4859 59.9813 23.0697 58C23.8664 57.0217 24.7573 56.124 25.7297 55.32C26.7246 54.555 27.7893 53.8854 28.9097 53.32C31.1349 52.1538 33.582 51.4722 36.0897 51.32H36.4897L36.5997 51.66C37.4177 54.3129 37.6285 57.1158 37.2165 59.8612C36.8046 62.6065 35.7803 65.2241 34.2197 67.52C32.5354 69.8217 30.1321 71.4966 27.3897 72.28C24.6865 73.0569 21.8098 72.9836 19.1497 72.07V72.09Z" fill="#231F20"/>
<path d="M19.1902 72.16C19.9202 71.63 20.7602 71 21.6602 70.27C24.0776 68.3387 26.338 66.2187 28.4202 63.93C31.5835 60.2828 34.1854 56.1844 36.1402 51.77C32.0109 52.2157 28.1442 54.0119 25.1402 56.88C23.1478 58.8786 21.5906 61.2678 20.5666 63.8975C19.5426 66.5272 19.074 69.3404 19.1902 72.16Z" fill="#1E6F5D"/>
<path d="M19.2201 72.09L24.0001 67.51C25.5901 65.97 27.1201 64.37 28.5901 62.73C30.0988 61.1059 31.4922 59.3784 32.7601 57.56C33.9714 55.6976 34.9773 53.7093 35.7601 51.63L36.1201 52.12C34.944 52.3086 33.791 52.6203 32.6801 53.05C31.5703 53.4484 30.4993 53.9472 29.4801 54.54C27.4554 55.7151 25.6653 57.2543 24.2001 59.08C22.6976 60.8865 21.514 62.9358 20.7001 65.14C20.2945 66.261 19.9605 67.4067 19.7001 68.57C19.5901 69.16 19.4701 69.75 19.3901 70.35C19.3901 70.64 19.3101 70.94 19.2801 71.25C19.2901 71.5313 19.27 71.8129 19.2201 72.09ZM19.1601 72.22C19.0677 71.8941 19.014 71.5585 19.0001 71.22C19.0001 70.92 19.0001 70.61 18.9501 70.3C18.9151 69.6805 18.9151 69.0595 18.9501 68.44C19.0454 67.1964 19.2563 65.9645 19.5801 64.76C19.9508 63.5511 20.426 62.3767 21.0001 61.25C21.3101 60.7 21.5901 60.13 21.9501 59.61C22.263 59.0724 22.6139 58.5577 23.0001 58.07C24.6053 56.0971 26.609 54.4853 28.8801 53.34C31.1208 52.1978 33.5781 51.5434 36.0901 51.42H36.7301L36.4501 51.95C35.4501 53.95 34.3401 55.95 33.2301 57.87C32.1662 59.87 30.9458 61.7826 29.5801 63.59C28.1442 65.3461 26.5362 66.9541 24.7801 68.39C23.9101 69.11 23.0101 69.8 22.0901 70.45C21.1701 71.1 20.0001 71.7 19.1601 72.22Z" fill="#231F20"/>
<path d="M19.0994 102C18.2939 98.4503 17.6896 94.8579 17.2894 91.24C16.8594 87.63 16.6194 84 16.4594 80.38C16.1194 73.11 16.8394 65.86 17.4594 58.64C18.0794 51.42 18.9994 44.19 20.1994 37C21.4115 29.8627 22.9937 22.7931 24.9394 15.82L25.3194 15.91C23.9994 23 22.8994 30.16 22.1794 37.31C21.4594 44.46 20.8994 51.63 20.6594 58.81C20.5394 62.39 20.5061 65.9767 20.5594 69.57C20.6128 73.1633 20.5794 76.7467 20.4594 80.32C20.3394 83.91 20.2494 87.5 20.0994 91.1C19.9494 94.7 19.8094 98.3 19.4994 101.94L19.0994 102Z" fill="#1E6F5D"/>
<path d="M18.2299 77.57C16.0037 78.0684 13.6928 78.049 11.4753 77.5133C9.25781 76.9776 7.19294 75.9398 5.43987 74.48C3.08793 72.377 1.43135 69.6082 0.690117 66.5415C-0.0511186 63.4747 0.158057 60.2551 1.28987 57.31C5.76966 57.8248 9.92033 59.9161 12.9999 63.21C14.7772 65.1393 16.1546 67.4017 17.0522 69.8665C17.9499 72.3313 18.3502 74.9496 18.2299 77.57Z" fill="#3E9581"/>
<path d="M18.2899 77.61C15.6201 78.506 12.7386 78.5549 10.0399 77.75C7.29882 76.9692 4.89576 75.298 3.20988 73C1.65302 70.7005 0.631118 68.0813 0.219262 65.335C-0.192595 62.5888 0.0160523 59.7851 0.829875 57.13L0.939875 56.79H1.33987C3.85099 56.9408 6.30157 57.6225 8.52987 58.79C9.64579 59.3578 10.707 60.0273 11.6999 60.79C12.6746 61.5914 13.5659 62.4893 14.3599 63.47C15.9445 65.4335 17.1116 67.6997 17.7899 70.13C18.4896 72.5589 18.6601 75.1096 18.2899 77.61ZM18.1699 77.52C18.0328 75.1458 17.5372 72.8059 16.6999 70.58C15.8838 68.3843 14.6815 66.3523 13.1499 64.58C11.6469 62.8005 9.84697 61.2949 7.82987 60.13C5.78565 58.9775 3.55523 58.1923 1.23987 57.81L1.75987 57.5C0.641252 59.9161 0.26202 62.609 0.669875 65.24C1.12836 67.8547 2.32548 70.2837 4.11987 72.24C5.81797 74.1999 7.98066 75.7024 10.4099 76.61C12.8999 77.4728 15.5478 77.7833 18.1699 77.52Z" fill="#231F20"/>
<path d="M18.25 77.7C17.51 77.17 16.68 76.54 15.77 75.81C13.3539 73.8737 11.0905 71.7541 9.00004 69.47C5.8403 65.8221 3.24177 61.7238 1.29004 57.31C5.41893 57.7571 9.28519 59.5532 12.29 62.42C14.2823 64.4191 15.84 66.8083 16.8656 69.4376C17.8912 72.067 18.3625 74.8799 18.25 77.7Z" fill="#1E6F5D"/>
<path d="M18.2802 77.76C17.4502 77.24 16.2802 76.65 15.3402 75.96C14.4002 75.27 13.5202 74.62 12.6502 73.9C10.891 72.4642 9.27966 70.8562 7.8402 69.1C6.47811 67.2901 5.25781 65.3778 4.1902 63.38C3.0802 61.43 2.0002 59.46 1.0002 57.46L0.700195 56.93H1.3302C3.8454 57.0533 6.30601 57.7076 8.5502 58.85C10.8165 59.9982 12.8163 61.6097 14.4202 63.58C14.8303 64.0632 15.2014 64.5782 15.5302 65.12C15.8964 65.646 16.2303 66.1936 16.5302 66.76C17.0746 67.8961 17.5195 69.0772 17.8602 70.29C18.1787 71.5038 18.3731 72.7469 18.4402 74C18.4752 74.6195 18.4752 75.2405 18.4402 75.86C18.4402 76.17 18.4402 76.48 18.3902 76.78C18.3966 77.1101 18.3596 77.4396 18.2802 77.76ZM18.2102 77.63C18.1401 77.3551 18.0998 77.0735 18.0902 76.79C18.0902 76.48 18.0302 76.18 17.9902 75.89C17.9002 75.29 17.7802 74.7 17.6702 74.11C17.4191 72.9443 17.0849 71.798 16.6702 70.68C15.8598 68.4763 14.6796 66.4269 13.1802 64.62C11.711 62.7943 9.91763 61.2553 7.8902 60.08C6.87445 59.4872 5.80668 58.9885 4.7002 58.59C3.58928 58.1604 2.43628 57.8486 1.2602 57.66L1.6102 57.17C2.40911 59.2513 3.43178 61.2396 4.6602 63.1C5.92187 64.923 7.31561 66.651 8.8302 68.27C10.2902 69.9233 11.8169 71.5167 13.4102 73.05L18.2102 77.63Z" fill="#231F20"/>
<path d="M24.8296 18.72C23.5296 16.18 35.6196 5.23 40.3596 7.72C41.9196 8.55 42.6096 10.8 42.2896 12.49C41.1396 18.62 26.0796 21.17 24.8296 18.72Z" fill="#F8C803"/>
<path d="M24.7797 18.75C24.6367 18.2644 24.6832 17.7427 24.9097 17.29C25.1029 16.8418 25.3268 16.4075 25.5797 15.99C26.1052 15.1589 26.69 14.3668 27.3297 13.62C28.6072 12.1212 30.1002 10.8204 31.7597 9.76C33.4181 8.68914 35.238 7.89228 37.1497 7.4C38.129 7.11221 39.1704 7.11221 40.1497 7.4C40.6263 7.5946 41.0593 7.88234 41.4233 8.24636C41.7874 8.61039 42.0751 9.04339 42.2697 9.52C42.7033 10.4565 42.8594 11.4975 42.7197 12.52C42.5194 13.5587 42.0228 14.5173 41.2897 15.28C39.8686 16.7179 38.1379 17.8124 36.2297 18.48C34.3773 19.1766 32.4338 19.601 30.4597 19.74C29.4813 19.8202 28.4981 19.8202 27.5197 19.74C27.0076 19.7112 26.499 19.6375 25.9997 19.52C25.5114 19.4241 25.0764 19.1495 24.7797 18.75ZM24.8697 18.7C25.163 19.071 25.5904 19.3117 26.0597 19.37C26.5302 19.4649 27.01 19.5051 27.4897 19.49C28.4486 19.4635 29.4029 19.3463 30.3397 19.14C32.2042 18.7592 34.0339 18.2241 35.8097 17.54C37.5698 16.92 39.1882 15.9544 40.5697 14.7C41.2017 14.071 41.66 13.2889 41.8997 12.43C42.0834 11.5402 42.0212 10.6171 41.7197 9.76C41.5923 9.32175 41.3718 8.91617 41.0732 8.57099C40.7746 8.22582 40.405 7.94918 39.9897 7.76C39.0934 7.4647 38.126 7.4647 37.2297 7.76C35.4126 8.36238 33.7189 9.28715 32.2297 10.49C30.6897 11.62 29.2297 12.82 27.7797 14.1C27.0576 14.7378 26.3887 15.4334 25.7797 16.18C25.4747 16.5381 25.2129 16.9308 24.9997 17.35C24.781 17.7655 24.7343 18.2504 24.8697 18.7Z" fill="#231F20"/>
<path d="M25.2796 19.64C22.4296 19.76 17.5096 4.2 21.7596 0.940002C23.1596 -0.139998 25.4996 0.180002 26.8996 1.17C31.9996 4.77 27.9996 19.53 25.2796 19.64Z" fill="#F8C803"/>
<path d="M25.2796 19.69C25.0312 19.6652 24.7902 19.5915 24.5706 19.473C24.3509 19.3546 24.1568 19.1938 23.9996 19C23.663 18.6406 23.3585 18.2524 23.0896 17.84C22.5465 17.0238 22.0715 16.1642 21.6696 15.27C20.8277 13.476 20.2646 11.5639 19.9996 9.6C19.7109 7.6474 19.7481 5.66044 20.1096 3.72C20.2586 2.70692 20.7039 1.76055 21.3896 1C21.7706 0.655892 22.2159 0.390418 22.6999 0.218812C23.1838 0.0472065 23.6968 -0.027152 24.2096 3.35462e-06C25.249 -0.00406062 26.2672 0.294781 27.1396 0.860003C28.0002 1.47248 28.6667 2.31944 29.0596 3.3C29.77 5.19447 30.0401 7.22571 29.8496 9.24C29.7185 11.212 29.2938 13.1534 28.5896 15C28.2402 15.92 27.8224 16.8125 27.3396 17.67C27.0954 18.0971 26.8144 18.502 26.4996 18.88C26.3595 19.0886 26.1796 19.2676 25.9703 19.4066C25.7609 19.5456 25.5262 19.6419 25.2796 19.69ZM25.2796 19.59C25.7386 19.4759 26.1362 19.1894 26.3896 18.79C26.6691 18.4045 26.9039 17.9885 27.0896 17.55C27.4756 16.6663 27.7802 15.7491 27.9996 14.81C28.4291 12.9557 28.7067 11.0694 28.8296 9.17C29.0009 7.31169 28.7969 5.43788 28.2296 3.66C27.9125 2.81586 27.3778 2.07063 26.6796 1.5C25.948 0.962209 25.0837 0.633793 24.1796 0.550003C23.7278 0.481105 23.2665 0.511627 22.8278 0.639439C22.3891 0.76725 21.9836 0.989272 21.6396 1.29C20.9873 1.97172 20.5703 2.84427 20.4496 3.78C20.2422 5.68202 20.3777 7.60582 20.8496 9.46C21.2296 11.33 21.7096 13.18 22.2696 15.01C22.5533 15.9261 22.9077 16.8188 23.3296 17.68C23.5505 18.1064 23.8153 18.5085 24.1196 18.88C24.2562 19.0694 24.4291 19.2297 24.6282 19.3516C24.8274 19.4735 25.0488 19.5545 25.2796 19.59Z" fill="#231F20"/>
<path d="M24.0702 19.9C22.4902 22.27 7.00016 17 6.91016 11.68C6.91016 9.91001 8.50016 8.21001 10.1302 7.68001C16.0002 5.69001 25.6002 17.62 24.0702 19.9Z" fill="#F8C803"/>
<path d="M24.1095 19.92C23.939 20.1036 23.7335 20.2513 23.5051 20.3543C23.2767 20.4573 23.03 20.5137 22.7795 20.52C22.2917 20.5767 21.8 20.5935 21.3095 20.57C20.3279 20.5179 19.3517 20.3909 18.3895 20.19C16.46 19.8025 14.5994 19.1284 12.8695 18.19C11.1256 17.2668 9.54466 16.0642 8.1895 14.63C7.4732 13.9081 6.98018 12.9949 6.7695 12C6.70608 11.4879 6.74598 10.9683 6.88682 10.472C7.02766 9.97557 7.2666 9.51246 7.5895 9.11C8.20179 8.28488 9.03833 7.65314 9.9995 7.29C11.0049 6.95801 12.0848 6.92328 13.1095 7.19C15.0552 7.73452 16.8508 8.71614 18.3595 10.06C19.8763 11.3335 21.1942 12.8267 22.2695 14.49C22.8074 15.3111 23.2789 16.1739 23.6795 17.07C23.878 17.5191 24.0386 17.9841 24.1595 18.46C24.3337 18.9346 24.3158 19.4584 24.1095 19.92ZM23.9995 19.87C24.1801 19.4312 24.1801 18.9388 23.9995 18.5C23.8525 18.0458 23.6546 17.6097 23.4095 17.2C22.9159 16.3782 22.3504 15.6018 21.7195 14.88C20.4725 13.4429 19.115 12.1054 17.6595 10.88C16.2727 9.64704 14.6547 8.70206 12.8995 8.1C12.0466 7.83761 11.1399 7.80313 10.2695 8C9.38872 8.28056 8.60296 8.79978 7.9995 9.5C7.67999 9.82775 7.43575 10.2212 7.28377 10.6529C7.1318 11.0847 7.07574 11.5444 7.1195 12C7.28413 12.9245 7.73957 13.7723 8.4195 14.42C9.83265 15.7018 11.4655 16.718 13.2395 17.42C14.9695 18.22 16.7495 18.92 18.5595 19.55C19.4646 19.8692 20.3944 20.1134 21.3395 20.28C21.8119 20.3584 22.2917 20.3819 22.7695 20.35C23.2259 20.3536 23.6662 20.1818 23.9995 19.87Z" fill="#231F20"/>
<path d="M24.4897 18.16C22.1297 19.76 9.75971 9.16 11.6497 4.16C12.2797 2.5 14.4297 1.54 16.1497 1.65C22.3697 2 26.7597 16.62 24.4897 18.16Z" fill="#F8C803"/>
<path d="M24.5197 18.2C24.0581 18.4063 23.5343 18.4242 23.0597 18.25C22.5857 18.1204 22.124 17.9498 21.6797 17.74C20.7851 17.331 19.9255 16.8494 19.1097 16.3C17.4618 15.2197 15.9854 13.8984 14.7297 12.38C13.4641 10.8693 12.4511 9.16397 11.7297 7.33C11.3429 6.39777 11.2251 5.37579 11.3897 4.38C11.523 3.88101 11.7544 3.41356 12.0703 3.00493C12.3862 2.59631 12.7803 2.25469 13.2297 2C14.1158 1.45346 15.1386 1.16915 16.1797 1.18C17.2383 1.25933 18.2518 1.64114 19.0997 2.28C20.7031 3.51305 22.003 5.09685 22.8997 6.91C23.8362 8.65487 24.5101 10.5284 24.8997 12.47C25.0874 13.4366 25.2011 14.4161 25.2397 15.4C25.2565 15.8911 25.2331 16.3827 25.1697 16.87C25.1311 17.3802 24.8985 17.8561 24.5197 18.2ZM24.4597 18.12C24.7967 17.7822 24.9902 17.3271 24.9997 16.85C25.0344 16.3726 25.0143 15.8928 24.9397 15.42C24.7903 14.4742 24.556 13.5438 24.2397 12.64C23.6332 10.8399 22.8842 9.091 21.9997 7.41C21.1605 5.72135 19.9867 4.22096 18.5497 3C17.844 2.46133 17.0097 2.11659 16.1297 2C15.2231 1.93112 14.3147 2.10727 13.4997 2.51C13.0776 2.69565 12.7008 2.97058 12.3953 3.31585C12.0897 3.66112 11.8626 4.06853 11.7297 4.51C11.5337 5.41601 11.6281 6.36075 11.9997 7.21C12.8245 8.93675 13.9523 10.5015 15.3297 11.83C16.663 13.2233 18.0397 14.5567 19.4597 15.83C20.1838 16.4594 20.9562 17.0312 21.7697 17.54C22.1778 17.7932 22.6141 17.998 23.0697 18.15C23.2915 18.2385 23.5289 18.2815 23.7677 18.2763C24.0065 18.2712 24.2418 18.218 24.4597 18.12Z" fill="#231F20"/>
<path d="M24.4499 19.35C21.9999 17.91 26.3099 2.17 31.6399 1.73C33.4099 1.59 35.1999 3.12 35.8399 4.73C38.1599 10.5 26.8199 20.74 24.4499 19.35Z" fill="#F8C803"/>
<path d="M24.4298 19.4C24.0466 19.0685 23.8036 18.6038 23.7498 18.1C23.6714 17.6171 23.6279 17.1292 23.6198 16.64C23.6117 15.6563 23.6786 14.6735 23.8198 13.7C24.0928 11.7506 24.6557 9.85296 25.4898 8.07C26.3083 6.27455 27.4164 4.62589 28.7698 3.19C29.4385 2.43672 30.3098 1.89171 31.2798 1.62C31.7869 1.52779 32.3072 1.53779 32.8104 1.64941C33.3135 1.76103 33.7893 1.97202 34.2098 2.27C35.0868 2.82921 35.7819 3.63195 36.2098 4.58C36.5947 5.56599 36.6918 6.641 36.4898 7.68C36.0653 9.6548 35.1928 11.5057 33.9398 13.09C32.7576 14.6772 31.3455 16.0793 29.7498 17.25C28.959 17.8353 28.1231 18.3569 27.2498 18.81C26.813 19.0373 26.3581 19.2279 25.8898 19.38C25.423 19.5704 24.9016 19.5776 24.4298 19.4ZM24.4798 19.31C24.9254 19.4615 25.4121 19.4364 25.8398 19.24C26.2878 19.0669 26.714 18.842 27.1098 18.57C27.9014 18.0334 28.6413 17.4241 29.3198 16.75C30.6864 15.4234 31.9438 13.9887 33.0798 12.46C34.2398 10.9791 35.0869 9.27808 35.5698 7.46C35.7701 6.59332 35.7356 5.68889 35.4698 4.84C35.1519 3.98834 34.6052 3.24091 33.8898 2.68C33.5387 2.39322 33.1308 2.18429 32.6929 2.06706C32.255 1.94983 31.7972 1.92698 31.3498 2C30.4371 2.2098 29.6144 2.70343 28.9998 3.41C27.7909 4.89842 26.8594 6.59202 26.2498 8.41C25.5831 10.19 24.9798 12.0033 24.4398 13.85C24.1774 14.7734 23.9902 15.7164 23.8798 16.67C23.8248 17.1451 23.8248 17.6249 23.8798 18.1C23.9131 18.5665 24.1286 19.0012 24.4798 19.31Z" fill="#231F20"/>
</svg>
