<svg width="88" height="133" viewBox="0 0 88 133" fill="none" xmlns="http://www.w3.org/2000/svg">
<g clip-path="url(#clip0)">
<path d="M80.3303 67.13C82.6952 82.3297 84.2906 97.6393 85.1103 113L20.1103 124.07C15.1334 109.471 11.1707 94.5453 8.25027 79.4C7.72361 76.7334 7.23027 73.9933 6.77027 71.18C6.21027 67.7867 5.71361 64.4533 5.28027 61.18C3.41986 47.4559 2.41791 33.629 2.28027 19.78L67.3503 8.70001C70.9103 20.93 74.2803 34.37 77.1403 48.94C77.5803 51.2 78.0103 53.48 78.4303 55.8C79.1303 59.6333 79.7636 63.41 80.3303 67.13Z" fill="white" stroke="#010101" stroke-miterlimit="10" stroke-linecap="round"/>
<path d="M1.90992 19.4C1.50326 17.1333 1.08992 14.8533 0.669922 12.56C1.97992 13.22 3.28992 13.9 4.57992 14.56L8.37992 11.1C9.90992 11.63 11.3799 12.16 12.9699 12.68L16.9699 9.85L22.9399 11L27.4299 7.94L33.1499 9.49L36.4899 6.23L41.9999 8.31L46.8499 4.22C48.6799 5.01 50.4999 5.81 52.3299 6.59L57.1899 2.79L61.1899 5.21C62.4399 4 64.8099 2.2 66.0499 0.940002C66.7499 3.16 66.5999 6.04 67.2999 8.26C45.5799 12 23.5999 15.64 1.90992 19.4Z" fill="#1F705E" stroke="#010101" stroke-miterlimit="10" stroke-linecap="round"/>
<path d="M6.4802 23C7.3802 26.54 8.1502 30.1 8.8402 33.67C9.5302 37.24 10.1802 40.82 10.6802 44.43C11.1802 48.04 11.5202 51.66 12.0502 55.26C12.5802 58.86 13.2902 62.41 14.0002 66C14.7102 69.59 15.4702 73.13 16.1202 76.71C16.7702 80.29 17.4402 83.87 18.0202 87.46C19.1502 94.65 20.1302 101.86 20.7902 109.12C20.7933 109.132 20.7936 109.145 20.791 109.157C20.7884 109.169 20.783 109.18 20.7752 109.19C20.7675 109.2 20.7575 109.207 20.7463 109.213C20.735 109.218 20.7226 109.22 20.7102 109.22C20.6894 109.22 20.6691 109.214 20.6527 109.201C20.6363 109.188 20.6248 109.17 20.6202 109.15C18.9002 102.07 17.4902 94.93 16.2202 87.76C15.6002 84.17 15.0802 80.57 14.5302 76.97C13.9802 73.37 13.5302 69.77 13.0702 66.15C12.6102 62.53 12.1302 58.93 11.4702 55.36C10.8102 51.79 10.0002 48.2 9.2902 44.63C8.5802 41.06 8.0502 37.47 7.5402 33.86C7.0302 30.25 6.6102 26.64 6.3102 23C6.30877 22.9887 6.30978 22.9772 6.31316 22.9663C6.31654 22.9554 6.3222 22.9453 6.32978 22.9368C6.33735 22.9283 6.34666 22.9215 6.35708 22.9169C6.36751 22.9122 6.3788 22.9099 6.3902 22.91C6.4402 22.92 6.4802 23 6.4802 23Z" fill="#010101"/>
<path d="M32.6397 117C34.5399 116.381 36.4728 115.867 38.4297 115.46C40.3715 115.027 42.334 114.694 44.3097 114.46C46.3097 114.24 48.3097 114.18 50.3097 113.92C52.2824 113.638 54.2385 113.251 56.1697 112.76C58.1097 112.28 60.0497 111.83 62.0097 111.47C63.9697 111.11 65.9097 110.69 67.8797 110.39C71.8272 109.78 75.8076 109.406 79.7997 109.27C79.8219 109.27 79.8434 109.278 79.86 109.293C79.8766 109.308 79.8872 109.328 79.8897 109.35C79.8894 109.369 79.8835 109.388 79.8729 109.404C79.8623 109.42 79.8473 109.432 79.8297 109.44C76.0026 110.581 72.1128 111.499 68.1797 112.19C66.1797 112.53 64.2497 112.79 62.2697 113.05C60.2897 113.31 58.2697 113.52 56.2697 113.69C54.2834 113.84 52.307 114.1 50.3497 114.47C48.3497 114.85 46.4797 115.47 44.5297 115.87C42.5797 116.27 40.6097 116.56 38.6297 116.79C36.6381 117.029 34.6353 117.163 32.6297 117.19C32.6175 117.192 32.605 117.19 32.5934 117.187C32.5817 117.183 32.5711 117.176 32.5624 117.167C32.5537 117.159 32.5471 117.148 32.5432 117.136C32.5392 117.125 32.538 117.112 32.5397 117.1C32.5354 117.086 32.535 117.071 32.5385 117.057C32.542 117.043 32.5493 117.03 32.5596 117.02C32.5698 117.01 32.5827 117.002 32.5969 116.999C32.611 116.995 32.6258 116.996 32.6397 117Z" fill="#010101"/>
<path d="M80.3303 67.13L8.25027 79.4C7.72361 76.7333 7.23027 73.9933 6.77027 71.18C6.21027 67.7867 5.71361 64.4533 5.28027 61.18L77.1403 48.94C77.5803 51.2 78.0203 53.48 78.4303 55.8C79.1303 59.6333 79.7636 63.41 80.3303 67.13Z" fill="#1F705E" stroke="#010101" stroke-miterlimit="10" stroke-linecap="round"/>
<path d="M52.5196 86.17C66.8796 80.94 74.8996 66.72 70.4196 54.41C65.9396 42.1 50.6596 36.41 36.2896 41.59C21.9196 46.77 13.9096 61 18.3896 73.35C22.8696 85.7 38.1496 91.4 52.5196 86.17Z" fill="#FAF28C" stroke="#010101" stroke-miterlimit="10"/>
<path d="M19.9199 124.29C20.2799 126.58 20.6499 128.87 21.0099 131.17C22.0299 130.11 23.0299 129.043 24.0099 127.97L28.7299 129.97L32.5399 126.97L37.2799 128.31L42.5199 125.31L47.7599 126.71L52.6499 123.35L56.8799 125.35L61.3499 121.57L67.2899 123.83C68.7499 122.47 70.1999 121.12 71.6699 119.77C73.6099 120.44 75.5599 121.09 77.5099 121.77C78.5099 120.56 79.5099 119.36 80.5099 118.16C82.0999 118.93 84.9199 119.8 86.5099 120.57C86.4399 118.24 85.3399 115.57 85.2699 113.25C63.5699 116.79 41.6399 120.66 19.9199 124.29Z" fill="#1F705E" stroke="#010101" stroke-miterlimit="10" stroke-linecap="round"/>
<path d="M79.69 61.78L79.95 63.28L77.51 64.1L76.81 64.33L76.89 66.06L77.17 72.73L77 72.36L75.7 68.72L74.4 65L66.54 64.83H66L66.66 64.65L74.39 62.49L73.93 53.65L76.06 61.96L78.06 61.88L79.69 61.78Z" fill="white" stroke="#010101" stroke-width="0.5" stroke-miterlimit="10" stroke-linecap="round"/>
<path d="M66.57 68.2L67.8 73L73 72.8L68.2 74.41L68.41 79.27L66.8 74.78L62 74.68L66.86 73.32L66.57 68.2Z" fill="white" stroke="#010101" stroke-width="0.5" stroke-miterlimit="10" stroke-linecap="round"/>
<path d="M38.7802 106C38.4671 105.832 38.1297 105.714 37.7802 105.65C37.4511 105.575 37.1093 105.575 36.7802 105.65C36.5814 105.681 36.3868 105.735 36.2002 105.81C36.0274 105.872 35.8704 105.971 35.7402 106.1C35.6818 106.16 35.6394 106.233 35.6166 106.313C35.5939 106.394 35.5917 106.479 35.6102 106.56C35.6239 106.643 35.6574 106.722 35.7078 106.79C35.7583 106.858 35.8242 106.913 35.9002 106.95C36.0849 107.029 36.2804 107.079 36.4802 107.1H37.2702C37.5568 107.1 37.8368 107.12 38.1102 107.16C38.3739 107.178 38.6335 107.235 38.8802 107.33C39.1088 107.411 39.317 107.54 39.4902 107.71C39.663 107.899 39.7746 108.136 39.8102 108.39C39.8816 108.732 39.8246 109.088 39.6502 109.39C39.4696 109.701 39.2111 109.959 38.9002 110.14C38.5544 110.345 38.1753 110.487 37.7802 110.56C37.2796 110.635 36.7708 110.635 36.2702 110.56C35.8047 110.489 35.3665 110.296 35.0002 110L35.6302 109.19C35.913 109.402 36.2377 109.55 36.5826 109.626C36.9276 109.702 37.2847 109.703 37.6302 109.63C37.8183 109.59 38.0024 109.533 38.1802 109.46C38.3542 109.391 38.5111 109.285 38.6402 109.15C38.697 109.085 38.7375 109.008 38.7584 108.925C38.7793 108.841 38.7799 108.754 38.7602 108.67C38.7498 108.591 38.7184 108.515 38.6692 108.452C38.6199 108.389 38.5547 108.34 38.4802 108.31C38.2962 108.221 38.0947 108.173 37.8902 108.17C37.6402 108.17 37.3802 108.17 37.1102 108.17C36.7374 108.133 36.3669 108.077 36.0002 108C35.6618 107.953 35.3395 107.827 35.0602 107.63C34.7863 107.391 34.6086 107.06 34.5602 106.7C34.5006 106.384 34.5574 106.057 34.7202 105.78C34.9087 105.477 35.17 105.226 35.4802 105.05C35.8359 104.844 36.2251 104.701 36.6302 104.63C36.9239 104.579 37.2222 104.559 37.5202 104.57C37.8312 104.573 38.1405 104.617 38.4402 104.7C38.7328 104.776 39.0079 104.909 39.2502 105.09L38.7802 106ZM47.5502 107.93C47.3675 108.135 47.1629 108.319 46.9402 108.48C46.6874 108.67 46.4119 108.828 46.1202 108.95C45.799 109.089 45.4637 109.193 45.1202 109.26C44.5248 109.398 43.9056 109.398 43.3102 109.26C42.7866 109.118 42.3125 108.835 41.9402 108.44C41.5766 108.048 41.3366 107.558 41.2502 107.03C41.1246 106.458 41.1769 105.861 41.4002 105.32C41.6141 104.82 41.9598 104.388 42.4002 104.07C42.8623 103.731 43.3959 103.502 43.9602 103.4C44.4731 103.304 45.0019 103.334 45.5002 103.49C45.9683 103.633 46.3896 103.899 46.7202 104.26C47.0749 104.64 47.3082 105.117 47.3902 105.63L47.4702 106.15L42.4702 107.07C42.5602 107.296 42.6953 107.501 42.8672 107.673C43.0392 107.845 43.2443 107.98 43.4702 108.07C44.0028 108.287 44.589 108.336 45.1502 108.21C45.5475 108.151 45.9266 108.004 46.2602 107.78C46.5013 107.612 46.7256 107.421 46.9302 107.21L47.5502 107.93ZM44.1402 104.38C43.671 104.459 43.2281 104.651 42.8502 104.94C42.6755 105.085 42.5355 105.267 42.4403 105.473C42.3451 105.679 42.2972 105.903 42.3002 106.13L46.1702 105.42V105.3C46.1023 105.061 45.9539 104.852 45.7502 104.71C45.5312 104.548 45.2781 104.439 45.0102 104.39C44.7257 104.319 44.43 104.306 44.1402 104.35V104.38ZM55.3802 106.5C55.1971 106.702 54.9925 106.883 54.7702 107.04C54.5118 107.23 54.2335 107.391 53.9402 107.52C53.6214 107.663 53.2852 107.764 52.9402 107.82C52.3412 107.945 51.7213 107.928 51.1302 107.77C50.6089 107.628 50.1356 107.348 49.7602 106.96C49.3985 106.567 49.1589 106.077 49.0702 105.55C48.9427 104.994 48.982 104.413 49.183 103.88C49.3839 103.346 49.7378 102.884 50.2002 102.55C50.6623 102.211 51.1959 101.981 51.7602 101.88C52.2728 101.778 52.8029 101.809 53.3002 101.97C53.7683 102.113 54.1896 102.379 54.5202 102.74C54.877 103.118 55.1106 103.596 55.1902 104.11L55.2702 104.63L50.2702 105.55C50.3602 105.776 50.4953 105.981 50.6672 106.153C50.8392 106.325 51.0443 106.46 51.2702 106.55C51.804 106.762 52.3887 106.811 52.9502 106.69C53.3475 106.631 53.7266 106.484 54.0602 106.26C54.2966 106.086 54.5205 105.895 54.7302 105.69L55.3802 106.5ZM52.0002 102.92C51.5297 102.994 51.0858 103.187 50.7102 103.48C50.5363 103.623 50.3966 103.804 50.3015 104.008C50.2063 104.212 50.158 104.435 50.1602 104.66L54.0002 104V103.88C53.93 103.639 53.7824 103.428 53.5802 103.28C53.3607 103.121 53.1074 103.015 52.8402 102.97C52.566 102.9 52.2808 102.883 52.0002 102.92ZM62.2702 97.71L63.7302 105.71L62.6202 105.92L62.4602 105.03C62.342 105.243 62.1901 105.436 62.0102 105.6C61.8107 105.802 61.5854 105.977 61.3402 106.12C61.0609 106.268 60.7608 106.372 60.4502 106.43C59.9137 106.534 59.3597 106.499 58.8402 106.33C58.3521 106.164 57.9194 105.867 57.5902 105.47C57.2496 105.052 57.0254 104.552 56.9402 104.02C56.831 103.487 56.869 102.933 57.0502 102.42C57.2164 101.932 57.5182 101.502 57.9202 101.18C58.338 100.832 58.8427 100.604 59.3802 100.52C59.8217 100.425 60.2786 100.425 60.7202 100.52C61.082 100.596 61.4231 100.75 61.7202 100.97L61.1502 97.89L62.2702 97.71ZM60.4702 105.41C60.8372 105.344 61.1814 105.186 61.4702 104.95C61.7376 104.731 61.9414 104.445 62.0602 104.12C62.1744 103.779 62.1985 103.413 62.1302 103.06C62.0792 102.692 61.9268 102.346 61.6902 102.06C61.4722 101.792 61.1801 101.593 60.8502 101.49C60.4917 101.374 60.1091 101.353 59.7402 101.43C59.3726 101.488 59.0273 101.643 58.7402 101.88C58.4709 102.093 58.2665 102.377 58.1502 102.7C58.0284 103.04 58.0007 103.406 58.0702 103.76C58.1241 104.129 58.2799 104.475 58.5202 104.76C58.7465 105.019 59.0358 105.215 59.3602 105.33C59.7076 105.448 60.0792 105.475 60.4402 105.41H60.4702ZM69.3202 100.41C69.0092 100.237 68.671 100.119 68.3202 100.06C67.9903 99.9924 67.6501 99.9924 67.3202 100.06C67.1254 100.094 66.9344 100.148 66.7502 100.22C66.5749 100.281 66.417 100.384 66.2902 100.52C66.2293 100.578 66.1852 100.651 66.1623 100.732C66.1395 100.813 66.1387 100.899 66.1602 100.98C66.172 101.062 66.2037 101.139 66.2525 101.205C66.3014 101.271 66.3658 101.325 66.4402 101.36C66.6253 101.448 66.8257 101.498 67.0302 101.51H67.8202C68.1012 101.51 68.382 101.53 68.6602 101.57C68.9238 101.589 69.1832 101.646 69.4302 101.74C69.6588 101.815 69.865 101.945 70.0302 102.12C70.2118 102.304 70.3277 102.543 70.3602 102.8C70.4288 103.142 70.372 103.497 70.2002 103.8C70.016 104.114 69.7543 104.376 69.4402 104.56C69.0966 104.767 68.7163 104.906 68.3202 104.97C67.8238 105.055 67.3166 105.055 66.8202 104.97C66.3359 104.899 65.8797 104.699 65.5002 104.39L66.1402 103.58C66.4134 103.771 66.718 103.914 67.0402 104C67.4092 104.08 67.7912 104.08 68.1602 104C68.3499 103.966 68.5346 103.909 68.7102 103.83C68.8817 103.761 69.038 103.659 69.1702 103.53C69.2282 103.464 69.2701 103.385 69.2926 103.3C69.3152 103.215 69.3178 103.126 69.3002 103.04C69.2846 102.962 69.2513 102.889 69.2027 102.827C69.1541 102.764 69.0916 102.714 69.0202 102.68C68.8292 102.601 68.6265 102.554 68.4202 102.54C68.1802 102.54 67.9202 102.54 67.6402 102.54C67.2402 102.54 66.8502 102.54 66.4902 102.44C66.1306 102.398 65.787 102.267 65.4902 102.06C65.2193 101.82 65.0451 101.489 65.0002 101.13C64.9358 100.814 64.9929 100.486 65.1602 100.21C65.3493 99.9103 65.6106 99.6627 65.9202 99.49C66.2751 99.282 66.6647 99.1397 67.0702 99.07C67.3766 99.0118 67.6885 98.9883 68.0002 99C68.3116 98.9976 68.6216 99.0414 68.9202 99.13C69.2143 99.2023 69.4902 99.3352 69.7302 99.52L69.3202 100.41Z" fill="#010101"/>
<path d="M45 95.54C45.5882 91.4142 45.749 87.2388 45.48 83.08C45.2248 78.9927 44.5546 74.9418 43.48 70.99C42.951 69.0347 42.2826 67.1198 41.48 65.26C40.7 63.4 39.95 61.55 39.24 59.66L37 53.94C36.25 52 35.47 50.06 34.79 47.94L35.19 47.64C36.9902 48.9108 38.6085 50.4214 40 52.13C41.4115 53.8156 42.651 55.638 43.7 57.57C44.7445 59.5079 45.5472 61.5666 46.09 63.7C46.61 65.84 47.01 67.99 47.35 70.15C47.6946 72.2963 47.925 74.4593 48.04 76.63C48.1467 78.7891 48.1334 80.9524 48 83.11C47.6644 87.3764 46.8287 91.5886 45.51 95.66L45 95.54Z" fill="#1E6F5D"/>
<path d="M33.3903 53.47C33.0703 59.73 33.1103 64.36 33.3903 65.77C33.488 66.3258 33.7102 66.8523 34.0403 67.31C34.4641 67.8701 35.0256 68.3111 35.6703 68.59C36.3039 68.9289 37.0285 69.0585 37.7403 68.96C38.4442 68.7415 39.0656 68.3151 39.5225 67.7368C39.9795 67.1585 40.2506 66.4554 40.3003 65.72C40.3458 65.2709 40.3119 64.8173 40.2003 64.38C39.3903 61.43 36.6003 53.82 36.3303 53.1L34.9003 53.28L33.3903 53.47Z" fill="white"/>
<path d="M33.4296 53.5C33.6296 56.5 33.5996 59.5 33.6196 62.44C33.6196 63.18 33.6196 63.93 33.6196 64.66C33.596 65.3823 33.7255 66.1014 33.9996 66.77C34.3071 67.4226 34.8199 67.9565 35.4596 68.29C36.0812 68.6498 36.7919 68.8266 37.5096 68.8C38.9296 68.62 39.7496 67.13 39.9296 65.8C39.9779 65.1167 39.8649 64.4316 39.5996 63.8C39.3696 63.1 39.1296 62.39 38.8796 61.69C37.8796 58.88 36.9896 56.02 36.1196 53.15L36.4196 53.34C35.9296 53.34 35.4196 53.41 34.9396 53.42L33.4296 53.5ZM33.3596 53.44L34.8396 53.1C35.3296 52.99 35.8396 52.91 36.2996 52.81H36.5096L36.6096 53.04C37.8244 55.7837 38.8991 58.5873 39.8296 61.44C40.0496 62.16 40.2696 62.88 40.4696 63.61C40.5816 63.9878 40.6717 64.3718 40.7396 64.76C40.8097 65.1737 40.8097 65.5963 40.7396 66.01C40.5866 66.8161 40.2127 67.5639 39.6596 68.17C39.3965 68.4844 39.0718 68.7416 38.7055 68.9256C38.3391 69.1097 37.9389 69.2166 37.5296 69.24C36.7415 69.227 35.9713 69.0025 35.2996 68.59C34.593 68.2292 34.0008 67.6786 33.5896 67C33.2184 66.3071 32.997 65.544 32.9396 64.76C32.8329 64.0108 32.7661 63.2563 32.7396 62.5C32.6644 59.4673 32.872 56.4342 33.3596 53.44Z" fill="#231F20"/>
<path d="M36.8096 53.22C39.0596 59.09 40.9996 63.3 41.9396 64.45C42.3024 64.9218 42.7765 65.2963 43.3196 65.54C44.1035 65.828 44.9389 65.9492 45.7723 65.8958C46.6057 65.8424 47.4188 65.6157 48.1596 65.23C48.8246 64.7737 49.3286 64.1191 49.5997 63.3596C49.8708 62.6 49.8953 61.7743 49.6696 61C49.5352 60.5713 49.3062 60.1783 48.9996 59.85C46.8696 57.55 40.5596 51.97 39.9996 51.44L38.4696 52.3L36.8096 53.22Z" fill="white"/>
<path d="M36.8498 53.23C38.2898 55.97 39.5398 58.89 40.8498 61.69C41.5598 63.05 41.9898 64.69 43.3598 65.34C44.0437 65.6701 44.8023 65.8149 45.5598 65.76C46.3243 65.7472 47.0762 65.5627 47.7598 65.22C48.3774 64.8368 48.8604 64.2708 49.1418 63.6006C49.4231 62.9304 49.4888 62.1893 49.3298 61.48C49.2627 61.1472 49.1301 60.8311 48.9398 60.55C48.8483 60.411 48.7445 60.2805 48.6298 60.16L48.2198 59.75C47.6698 59.21 47.0998 58.68 46.5198 58.15C44.2098 56.05 41.9498 53.87 39.7098 51.67H40.0698L38.4498 52.46L36.8498 53.23ZM36.7598 53.23L38.2698 52.18L39.7898 51.18L39.9698 51.07L40.1598 51.22C42.6333 53.1648 45.0064 55.2341 47.2698 57.42C47.8298 57.97 48.3798 58.54 48.9298 59.12L49.3298 59.56C49.4829 59.7245 49.6171 59.9056 49.7298 60.1C49.9555 60.4872 50.1016 60.9156 50.1598 61.36C50.2812 62.1978 50.1384 63.0526 49.7513 63.8054C49.3641 64.5582 48.7519 65.1715 47.9998 65.56C47.2623 65.8963 46.4602 66.0669 45.6498 66.06C44.8346 66.1216 44.0157 66.0056 43.2498 65.72C42.4641 65.4044 41.7989 64.8477 41.3498 64.13C40.8997 63.4908 40.4922 62.8227 40.1298 62.13C38.7131 59.2725 37.5842 56.2811 36.7598 53.2V53.23Z" fill="#231F20"/>
<path d="M31.0002 53.17C30.5202 53.81 27.8102 57.4 25.8902 60.31C25.4773 60.9116 25.1946 61.5928 25.0602 62.31C24.8241 63.4643 25.0349 64.6652 25.6502 65.67C25.8403 66.0627 26.1059 66.4141 26.4319 66.7041C26.758 66.9941 27.1379 67.217 27.5502 67.36C29.3502 67.8 30.9602 65.84 31.0802 65.69C31.6747 64.9091 32.0385 63.9772 32.1302 63C32.6502 59 32.9702 55.49 33.1302 53.6L31.0002 53.17Z" fill="white"/>
<path d="M31 53.22C29.6241 55.6375 28.1117 57.9746 26.47 60.22C26.0443 60.7233 25.7062 61.2946 25.47 61.91C25.242 62.5506 25.1534 63.2324 25.21 63.91C25.272 64.5847 25.5137 65.2304 25.91 65.78C26.2288 66.3653 26.7415 66.8214 27.36 67.07C27.6629 67.157 27.9809 67.1789 28.2928 67.1341C28.6048 67.0892 28.9038 66.9788 29.17 66.81C29.7295 66.4826 30.2243 66.0556 30.63 65.55C31.0248 65.0552 31.311 64.4827 31.47 63.87C31.6037 63.2106 31.6873 62.542 31.72 61.87C32 59.09 32.39 56.34 32.88 53.58L33.09 53.84C32.43 53.64 31.75 53.43 31 53.22ZM31 53.13C31.69 53.13 32.43 53.24 33.2 53.33H33.41V53.57C33.32 56.37 33.11 59.17 32.8 61.95C32.7399 62.6728 32.6161 63.3889 32.43 64.09C32.2166 64.8344 31.8331 65.5191 31.31 66.09C30.8013 66.6463 30.1812 67.0892 29.49 67.39C29.1347 67.5433 28.7519 67.6223 28.365 67.6223C27.9781 67.6223 27.5952 67.5433 27.24 67.39C26.5722 67.0577 26.0237 66.5267 25.67 65.87C25.0596 64.9479 24.7442 63.8619 24.7657 62.7563C24.7871 61.6507 25.1444 60.5778 25.79 59.68C27.3928 57.3935 29.1327 55.2062 31 53.13Z" fill="#231F20"/>
<path d="M40.3398 51C42.9198 52.66 45.3398 54.17 47.9498 55.85C49.3127 56.8093 50.9011 57.3985 52.5598 57.56C53.3198 57.62 55.1798 57.75 55.9098 56.68C56.4098 55.96 56.1398 55.03 55.9098 54.04C55.5852 52.7484 54.8261 51.6079 53.7598 50.81C53.1274 50.3762 52.4126 50.0767 51.6598 49.93C48.0798 49.13 43.7498 48.44 42.5998 48.26L40.3398 51Z" fill="white"/>
<path d="M40.39 51C43.24 52.53 45.73 53.87 48.14 55.44C49.2787 56.3334 50.5946 56.9743 52 57.32C52.717 57.4671 53.4526 57.5008 54.18 57.42C54.5205 57.4093 54.8526 57.3119 55.1449 57.1369C55.4372 56.9618 55.6799 56.7151 55.85 56.42C55.9787 55.7436 55.8912 55.0439 55.6 54.42C55.386 53.744 55.0725 53.1037 54.67 52.52C54.2653 51.9631 53.7483 51.4974 53.1523 51.1528C52.5563 50.8083 51.8946 50.5927 51.21 50.52C48.3 50 45.4 49.3 42.5 48.61L42.79 48.49C42.06 49.3 41.25 50.1 40.39 51ZM40.29 51C40.9 50.1 41.56 49.07 42.29 48.05L42.39 47.92H42.58C45.58 48.31 48.52 48.74 51.45 49.35C52.2417 49.4852 52.9992 49.774 53.68 50.2C54.3763 50.6597 54.9551 51.2762 55.37 52C55.7799 52.6733 56.0645 53.4153 56.21 54.19C56.4604 54.9533 56.4604 55.7767 56.21 56.54C56.0064 56.893 55.7156 57.1878 55.3654 57.3961C55.0152 57.6045 54.6174 57.7194 54.21 57.73C53.4524 57.815 52.6877 57.815 51.93 57.73C50.3918 57.5784 48.913 57.0569 47.62 56.21C45 54.58 42.48 52.71 40.29 51Z" fill="#231F20"/>
<path d="M43.25 45.06L42.75 47.71C46.1008 48.5441 49.581 48.7241 53 48.24C55.27 47.91 58.51 47.45 59.11 45.55C59.2213 45.1175 59.2247 44.6644 59.1201 44.2303C59.0155 43.7961 58.806 43.3943 58.51 43.06C58.04 42.52 56.91 41.68 52.3 42.37C49.1744 42.8482 46.1293 43.7533 43.25 45.06Z" fill="white"/>
<path d="M43.2897 45.09C43.1997 46.03 43.1397 46.91 43.0197 47.76L42.8097 47.44C45.7267 47.9295 48.6824 48.1504 51.6397 48.1C53.1279 48.0793 54.6083 47.8812 56.0497 47.51C56.7692 47.3397 57.4486 47.0306 58.0497 46.6C58.3217 46.4115 58.5426 46.1584 58.6927 45.8634C58.8428 45.5685 58.9174 45.2409 58.9097 44.91C58.865 44.264 58.5752 43.6595 58.0997 43.22C57.5642 42.8511 56.9299 42.6525 56.2797 42.65C54.8117 42.6207 53.3444 42.738 51.8997 43C48.976 43.4531 46.0958 44.1523 43.2897 45.09ZM43.2097 45C45.852 43.4882 48.7336 42.4397 51.7297 41.9C53.2424 41.5919 54.7918 41.5043 56.3297 41.64C57.1852 41.6793 58.004 41.9991 58.6597 42.55C58.9624 42.8573 59.1985 43.2237 59.3534 43.6263C59.5082 44.0289 59.5784 44.4591 59.5597 44.89C59.5229 45.3017 59.3874 45.6985 59.1645 46.0467C58.9417 46.3949 58.6382 46.6842 58.2797 46.89C57.608 47.2759 56.8837 47.5623 56.1297 47.74C54.6497 48.09 53.1897 48.37 51.6897 48.62C48.6741 49.072 45.595 48.8257 42.6897 47.9L42.4297 47.82V47.57C42.6897 46.74 42.9997 45.86 43.2097 45Z" fill="#231F20"/>
<path d="M29.6898 51.71C27.1459 52.3451 24.6359 53.1094 22.1698 54C21.7955 54.1505 21.4554 54.375 21.1698 54.66C20.8043 55.0588 20.5393 55.539 20.3967 56.0608C20.2541 56.5825 20.238 57.1308 20.3498 57.66C20.3871 57.9952 20.4902 58.3196 20.6532 58.6148C20.8162 58.91 21.036 59.17 21.2998 59.38C21.7267 59.5688 22.1899 59.6613 22.6565 59.6509C23.1231 59.6405 23.5817 59.5276 23.9998 59.32C27.2098 58.2 29.7498 54.32 30.5698 53.03L29.6898 51.71Z" fill="white"/>
<path d="M29.6697 51.76C27.6561 52.6119 25.6001 53.3596 23.5097 54C22.9997 54.16 22.4397 54.3 21.9897 54.48C21.5116 54.6814 21.1116 55.0323 20.8497 55.48C20.5901 55.9353 20.4486 56.4484 20.4381 56.9724C20.4276 57.4964 20.5485 58.0147 20.7897 58.48C20.8898 58.6931 21.0389 58.8793 21.2249 59.0236C21.4109 59.1679 21.6284 59.266 21.8597 59.31C22.3365 59.3755 22.8221 59.3169 23.2697 59.14C24.2694 58.8052 25.196 58.2825 25.9997 57.6C27.6452 56.2177 29.119 54.6432 30.3897 52.91V53.17C30.1497 52.73 29.9297 52.27 29.6697 51.76ZM29.6697 51.66C29.9997 52.03 30.3697 52.45 30.7297 52.9L30.8097 53L30.7397 53.16C30.2473 54.1577 29.6649 55.1083 28.9997 56C28.3186 56.9129 27.5181 57.7301 26.6197 58.43C25.6911 59.1347 24.6299 59.6449 23.4997 59.93C22.8981 60.1002 22.2612 60.1002 21.6597 59.93C21.3609 59.8202 21.0907 59.6445 20.8691 59.416C20.6475 59.1875 20.4802 58.912 20.3797 58.61C19.9813 57.5128 20.028 56.3033 20.5097 55.24C20.7542 54.6904 21.1584 54.227 21.6697 53.91C22.1637 53.625 22.6785 53.3777 23.2097 53.17C25.3066 52.4035 27.4895 51.8964 29.7097 51.66H29.6697Z" fill="#231F20"/>
<path d="M29.8303 48.8C27.3903 48.22 25.3303 47.8 23.6503 47.36C23.0125 47.1822 22.3382 47.1822 21.7003 47.36C21.1947 47.5126 20.7333 47.785 20.3555 48.1541C19.9777 48.5232 19.6946 48.978 19.5303 49.48C19.4349 49.8421 19.4278 50.2218 19.5096 50.5872C19.5914 50.9527 19.7597 51.2931 20.0003 51.58C20.3207 51.7755 20.6794 51.9 21.0521 51.9448C21.4247 51.9897 21.8027 51.9539 22.1603 51.84C24.5337 51.4544 26.9361 51.2771 29.3403 51.31L29.8303 48.8Z" fill="white"/>
<path d="M29.7799 48.82C27.8523 48.6354 25.9384 48.3282 24.0499 47.9C23.6168 47.7642 23.176 47.654 22.7299 47.57C22.2907 47.5018 21.8416 47.5395 21.4199 47.68C20.9803 47.8116 20.5858 48.0627 20.2804 48.4052C19.975 48.7477 19.7706 49.1682 19.6899 49.62C19.633 50.0593 19.6987 50.5058 19.8799 50.91C19.9669 51.076 20.0938 51.2177 20.2491 51.3224C20.4045 51.4272 20.5835 51.4916 20.7699 51.51C21.1838 51.5418 21.6 51.5012 21.9999 51.39C22.4799 51.29 22.9999 51.2 23.4499 51.12C25.4057 50.8574 27.385 50.8172 29.3499 51L29.0199 51.28C29.2299 50.5 29.4999 49.73 29.7799 48.82ZM29.8699 48.82C29.8699 49.59 29.7899 50.49 29.6899 51.43V51.68H29.3799L23.6499 52.17C23.1799 52.17 22.7099 52.27 22.2399 52.34C21.7088 52.4491 21.161 52.4491 20.6299 52.34C20.3375 52.2711 20.0683 52.1269 19.849 51.9216C19.6297 51.7163 19.468 51.4572 19.3799 51.17C19.2405 50.6559 19.2405 50.1141 19.3799 49.6C19.518 49.1059 19.761 48.6473 20.0924 48.2556C20.4237 47.8639 20.8356 47.5482 21.2999 47.33C22.2489 46.8628 23.3416 46.7804 24.3499 47.1C26.2275 47.5241 28.0722 48.0822 29.8699 48.77V48.82Z" fill="#231F20"/>
<path d="M31.2498 46.81C30.3528 44.9571 28.8548 43.4626 26.9998 42.57C26.1198 42.18 24.3798 41.41 23.2098 42.24C22.9151 42.4478 22.6792 42.7283 22.525 43.0542C22.3708 43.3802 22.3035 43.7404 22.3298 44.1C22.4198 44.77 22.9698 45.34 26.1198 46.88C27.1198 47.36 28.4698 47.99 30.1198 48.66L31.2498 46.81Z" fill="white"/>
<path d="M31.1995 46.81C30.1809 45.4115 28.9047 44.2202 27.4395 43.3C26.7156 42.833 25.9405 42.4505 25.1295 42.16C24.7392 42.0019 24.3073 41.9779 23.9018 42.092C23.4964 42.206 23.1403 42.4515 22.8895 42.79C21.7195 44.52 23.9895 45.19 25.4495 45.97C26.9095 46.75 28.6695 47.46 30.2195 48.37L29.8195 48.49C30.2295 48 30.6895 47.41 31.1995 46.81ZM31.2995 46.81C31.0395 47.44 30.7295 48.14 30.3695 48.81L30.2595 49.03L29.9995 49C28.2787 48.4488 26.6064 47.7564 24.9995 46.93C24.1695 46.5064 23.3881 45.9933 22.6695 45.4C22.4759 45.2192 22.3107 45.0102 22.1795 44.78C22.055 44.5255 21.9998 44.2426 22.0195 43.96C22.0554 43.4526 22.2635 42.9728 22.6095 42.6C22.9259 42.2292 23.3481 41.964 23.8195 41.84C24.2814 41.7304 24.76 41.7101 25.2295 41.78C25.6956 41.8254 26.1551 41.9227 26.5995 42.07C27.0482 42.1937 27.4836 42.3612 27.8995 42.57C29.5398 43.489 30.7589 45.0093 31.2995 46.81Z" fill="#231F20"/>
<path d="M34.16 44.56C32.47 42 31.27 40 30.64 38.87C30.5327 38.6149 30.3758 38.3836 30.1784 38.1896C29.981 37.9956 29.747 37.8428 29.49 37.74C29.0082 37.6288 28.5024 37.7001 28.07 37.94C27.7272 38.0668 27.4128 38.2602 27.1451 38.5091C26.8774 38.7579 26.6615 39.0573 26.51 39.39C26.27 40.17 26.75 40.96 27.59 42.04C28.804 43.605 30.1671 45.0484 31.66 46.35L34.16 44.56Z" fill="white"/>
<path d="M34.1097 44.55C32.9889 43.1829 31.9504 41.7504 30.9997 40.26C30.7797 39.91 30.5897 39.55 30.3997 39.17C30.2735 38.7976 30.0689 38.4566 29.7997 38.17C29.6628 38.0346 29.4934 37.9368 29.3077 37.886C29.122 37.8352 28.9264 37.8331 28.7397 37.88C28.3315 37.973 27.9446 38.1427 27.5997 38.38C27.2633 38.5942 26.9986 38.9042 26.8397 39.27C26.7822 39.4334 26.7605 39.6072 26.7761 39.7798C26.7916 39.9523 26.844 40.1194 26.9297 40.27C27.3576 40.9852 27.8569 41.6553 28.4197 42.27C29.5597 43.55 30.7197 44.81 31.9297 46.04H31.4297C32.2297 45.55 33.1097 45.1 34.1097 44.55ZM34.2097 44.55C33.5397 45.19 32.7497 45.94 31.8897 46.65L31.6697 46.84L31.3897 46.63C29.9685 45.5638 28.7059 44.3012 27.6397 42.88C27.0484 42.1798 26.5725 41.3899 26.2297 40.54C26.1456 40.2926 26.1147 40.0302 26.1388 39.7701C26.1629 39.5099 26.2416 39.2577 26.3697 39.03C26.6186 38.6217 26.9614 38.2789 27.3697 38.03C27.7633 37.8058 28.1832 37.6312 28.6197 37.51C28.8576 37.446 29.1061 37.4307 29.3501 37.4651C29.5941 37.4995 29.8286 37.5828 30.0397 37.71C30.4468 37.9856 30.7882 38.3475 31.0397 38.77C31.3197 39.14 31.5797 39.51 31.8197 39.9C32.7319 41.3948 33.5308 42.9558 34.2097 44.57V44.55Z" fill="#231F20"/>
<path d="M41.7998 35.39C42.1698 35.05 43.6798 33.7 45.1698 34.13C45.5139 34.2448 45.8313 34.428 46.1028 34.6686C46.3744 34.9091 46.5944 35.2022 46.7498 35.53C47.6498 37.43 45.3598 40.79 41.3998 44.05L40.2698 43.71C40.1098 43.06 38.9998 37.93 41.7998 35.39Z" fill="white"/>
<path d="M41.7699 35.35C42.2778 34.8675 42.8418 34.4479 43.4499 34.1C43.7872 33.908 44.1623 33.7916 44.549 33.7588C44.9358 33.726 45.325 33.7776 45.6899 33.91C46.0629 34.0677 46.3967 34.3052 46.668 34.6058C46.9392 34.9064 47.1413 35.2629 47.2599 35.65C47.4266 36.412 47.3092 37.2085 46.9299 37.89C46.2472 39.1156 45.4503 40.2741 44.5499 41.35C43.7059 42.4639 42.751 43.4891 41.6999 44.41L41.5199 44.56L41.2699 44.5L40.1199 44.19L39.8499 44.12L39.7799 43.83C39.3609 42.3435 39.2789 40.7822 39.5399 39.26C39.8422 37.7503 40.6244 36.3788 41.7699 35.35ZM41.8299 35.42C41.3055 35.9258 40.9228 36.5602 40.7199 37.26C40.5262 37.9468 40.4253 38.6565 40.4199 39.37C40.3735 40.785 40.4875 42.2007 40.7599 43.59L40.4099 43.23L41.5399 43.6L41.1099 43.69C42.1699 42.85 43.2499 42.02 44.2399 41.07C45.25 40.1574 45.996 38.99 46.3999 37.69C46.5899 37.1119 46.5899 36.4881 46.3999 35.91C46.1897 35.377 45.8148 34.9251 45.3299 34.62C45.0646 34.4662 44.77 34.3698 44.4651 34.3371C44.1602 34.3043 43.8518 34.336 43.5599 34.43C42.9129 34.6182 42.3199 34.9575 41.8299 35.42Z" fill="#231F20"/>
<path d="M36.7899 43.43C36.7899 42.96 36.1699 37.19 35.4899 36.01C35.3699 35.7955 35.1889 35.6215 34.9699 35.51C34.7137 35.4419 34.4465 35.4253 34.1838 35.4614C33.9211 35.4974 33.6683 35.5854 33.4399 35.72C32.9899 35.883 32.5829 36.1463 32.2499 36.49C32.0999 36.66 31.7099 37.18 31.7699 38.74C31.7625 39.7704 31.9704 40.7909 32.3802 41.7363C32.7901 42.6817 33.3928 43.5311 34.1499 44.23L34.4799 44.48L36.7899 43.43Z" fill="white"/>
<path d="M36.74 43.4C36.2801 41.7888 35.9293 40.1484 35.69 38.49C35.6179 37.6829 35.4774 36.8834 35.27 36.1C35.2084 35.9318 35.0922 35.7891 34.9399 35.6949C34.7876 35.6006 34.6081 35.5601 34.43 35.58C34.0276 35.6378 33.6403 35.7737 33.29 35.98C32.9399 36.1458 32.6398 36.4011 32.42 36.72C32.2588 37.0496 32.1799 37.4133 32.19 37.78C32.1752 38.5801 32.2558 39.379 32.43 40.16C32.7339 41.7016 33.5264 43.1042 34.69 44.16H34.33C35.07 43.9 35.85 43.67 36.74 43.4ZM36.83 43.45C36.19 43.89 35.44 44.36 34.64 44.82L34.48 44.91L34.27 44.78C33.4979 44.2993 32.843 43.652 32.3534 42.8855C31.8637 42.119 31.5516 41.2527 31.44 40.35C31.2999 39.4689 31.2999 38.5711 31.44 37.69C31.5125 37.2141 31.7091 36.7658 32.01 36.39C32.3313 36.0556 32.7296 35.805 33.17 35.66C33.5727 35.4795 33.9958 35.3485 34.43 35.27C34.6724 35.2376 34.9189 35.2758 35.14 35.38C35.3599 35.4926 35.5487 35.6574 35.69 35.86C36.128 36.6263 36.4323 37.4616 36.59 38.33C36.9009 40.018 36.9817 41.7403 36.83 43.45Z" fill="#231F20"/>
<path d="M37.0998 35C37.3655 34.6393 37.7058 34.3401 38.0975 34.1227C38.4892 33.9053 38.9232 33.7748 39.3698 33.74C39.7245 33.7383 40.0756 33.8103 40.401 33.9515C40.7263 34.0927 41.0188 34.2999 41.2598 34.56C42.0698 35.56 41.2598 37.02 40.8598 39.74C40.7042 40.9436 40.6707 42.1597 40.7598 43.37H37.2998C37.1798 43.05 35.5798 38.48 36.3998 36.21C36.5659 35.7714 36.8023 35.3627 37.0998 35Z" fill="white"/>
<path d="M37.0596 35C37.4264 34.5373 37.8735 34.1444 38.3796 33.84C38.9369 33.5323 39.5857 33.433 40.2096 33.56C40.5545 33.6041 40.8834 33.732 41.1675 33.9324C41.4516 34.1329 41.6824 34.3999 41.8396 34.71C42.0867 35.3538 42.0867 36.0663 41.8396 36.71C41.4628 37.7797 41.1817 38.8807 40.9996 40C40.8709 41.1294 40.908 42.2714 41.1096 43.39V43.73H40.7196C39.5696 43.82 38.4096 43.86 37.2596 43.89H36.9996L36.8596 43.55C36.3073 42.1627 35.9701 40.6992 35.8596 39.21C35.7958 38.4506 35.843 37.6859 35.9996 36.94C36.2037 36.2224 36.5659 35.5595 37.0596 35ZM37.1396 35.06C36.6772 35.6237 36.4261 36.331 36.4296 37.06C36.4434 37.7651 36.5373 38.4662 36.7096 39.15C36.9896 40.52 37.3696 41.91 37.7696 43.26L37.2996 42.93C38.4496 42.93 39.6096 43 40.7596 43.09L40.4196 43.46C40.4487 42.2961 40.5388 41.1345 40.6896 39.98L41.1096 36.55C41.206 36.0524 41.1681 35.5381 40.9996 35.06C40.7922 34.6465 40.4344 34.328 39.9996 34.17C39.5139 33.957 38.9687 33.9216 38.4596 34.07C37.9394 34.2468 37.4811 34.5697 37.1396 35V35.06Z" fill="#231F20"/>
<path d="M42 43.59C42.9009 41.4914 44.4223 39.7188 46.36 38.51C47.23 37.98 49.29 36.73 51.52 37.28C51.85 37.36 53.28 37.72 53.52 38.65C53.76 39.58 52.97 40.23 52.62 40.65C50.34 43.06 44.77 44.35 42.81 44.76L42 43.59Z" fill="white"/>
<path d="M42 43.6C42.3194 42.4388 42.8644 41.3518 43.604 40.4013C44.3435 39.4507 45.263 38.6552 46.31 38.06C47.336 37.4177 48.5111 37.0524 49.7204 36.9998C50.9298 36.9472 52.1321 37.2091 53.21 37.76C53.4996 37.9531 53.7202 38.2332 53.84 38.56C53.9604 38.9031 53.9604 39.2769 53.84 39.62C53.5976 40.2094 53.229 40.7385 52.76 41.17C51.8814 42.0029 50.8668 42.6794 49.76 43.17C47.5923 44.0983 45.2961 44.6918 42.95 44.93H42.79L42.73 44.82C42.43 44.41 42.19 44 42 43.6ZM42.1 43.6L43.03 44.6L42.81 44.51C45.005 43.8619 47.1618 43.0907 49.27 42.2C50.2986 41.7855 51.2593 41.2192 52.12 40.52C52.92 39.84 53.81 38.87 52.93 38.12C52.5026 37.7671 51.9939 37.5265 51.45 37.42C50.9034 37.2835 50.3338 37.2665 49.78 37.37C48.6925 37.6358 47.6713 38.1226 46.78 38.8C44.8713 40.0175 43.267 41.6561 42.09 43.59L42.1 43.6Z" fill="#231F20"/>
<path d="M33.9402 44.77C31.0402 46.56 28.8302 50.41 30.0402 52.32C31.2502 54.23 36.3502 53.96 39.4802 51.78C41.9202 50.09 44.1202 46.67 43.0202 44.78C41.8302 42.72 37.0002 42.87 33.9402 44.77Z" fill="#FAF28A"/>
<path d="M33.9999 44.81C32.704 45.6648 31.6665 46.8579 30.9999 48.26C30.6609 48.9195 30.4152 49.6229 30.2699 50.35C30.1855 50.6658 30.1668 50.9957 30.215 51.319C30.2632 51.6424 30.3772 51.9524 30.5499 52.23C31.0081 52.7612 31.6379 53.115 32.3299 53.23C33.0722 53.4108 33.8403 53.4616 34.5999 53.38C36.1391 53.2258 37.6163 52.6933 38.8999 51.83C40.1353 50.9513 41.1769 49.8281 41.9599 48.53C42.344 47.9154 42.6181 47.2386 42.7699 46.53C42.8541 46.2304 42.8672 45.9153 42.8082 45.6098C42.7491 45.3042 42.6196 45.0167 42.4299 44.77C41.9494 44.2967 41.335 43.9825 40.6699 43.87C39.9441 43.7115 39.2029 43.6343 38.4599 43.64C36.8951 43.6218 35.3543 44.026 33.9999 44.81ZM33.9399 44.73C35.2904 43.893 36.781 43.3069 38.3399 43C39.1577 42.8646 39.9922 42.8646 40.8099 43C41.7071 43.1047 42.5424 43.5101 43.1799 44.15C43.5004 44.5231 43.7146 44.9756 43.7999 45.46C43.8661 45.913 43.8458 46.3745 43.7399 46.82C43.5439 47.6393 43.2054 48.4178 42.7399 49.12C41.8383 50.4855 40.6115 51.6057 39.1699 52.38C37.7491 53.108 36.2132 53.585 34.6299 53.79C33.8322 53.9086 33.0232 53.9321 32.2199 53.86C31.3412 53.8058 30.5126 53.4324 29.8899 52.81C29.6109 52.4469 29.4212 52.0233 29.3361 51.5734C29.2509 51.1235 29.2728 50.6599 29.3999 50.22C29.5918 49.412 29.9494 48.6527 30.4499 47.99C31.3907 46.6977 32.564 45.5922 33.9099 44.73H33.9399Z" fill="#231F20"/>
<path d="M35.2201 74.12C35.1201 81.33 36.7901 84.88 38.1201 86.72C38.4801 87.2 38.7801 87.54 41.8801 90.85L46.4901 95.76C46.4595 94.0333 46.2957 92.3115 46.0001 90.61C45.5101 87.91 45.0601 85.38 43.6301 83.16C42.4201 81.28 41.6301 81.37 39.3001 79.09C37.7601 77.5897 36.3917 75.9228 35.2201 74.12Z" fill="#3E9581"/>
<path d="M35.23 74.17C35.4018 76.2565 35.6822 78.3327 36.07 80.39C36.4475 82.4231 37.1822 84.3732 38.24 86.15C38.81 86.99 39.55 87.77 40.24 88.59C40.93 89.41 41.58 90.22 42.24 91C43.67 92.57 45.16 94.08 46.68 95.57L46.2 95.76C46.0393 93.6671 45.7285 91.5884 45.27 89.54C44.932 87.5022 44.2561 85.5351 43.27 83.72C42.7709 82.8447 42.0887 82.0874 41.27 81.5C40.4209 80.8329 39.6189 80.1079 38.87 79.33C37.4222 77.788 36.197 76.0512 35.23 74.17ZM35.23 74.07C36.5282 75.749 37.9595 77.3207 39.51 78.77C40.2732 79.4916 41.0851 80.1599 41.94 80.77C42.8743 81.4041 43.6564 82.2374 44.23 83.21C45.2857 85.1268 45.9646 87.2279 46.23 89.4C46.6367 91.505 46.8244 93.6464 46.79 95.79V96.51L46.34 95.98C44.95 94.38 43.54 92.79 42.07 91.27C40.6 89.75 39.02 88.27 37.59 86.65C36.3937 84.8194 35.631 82.74 35.36 80.57C35.1636 79.4965 35.0433 78.4105 35 77.32C35 76.79 35 76.25 35 75.72C35 75.19 35.17 74.53 35.21 74.07H35.23Z" fill="#231F20"/>
<path d="M35.2198 74.12C36.9998 77.9 38.8598 81.82 40.9998 85.84C42.8598 89.38 44.6998 92.6867 46.5198 95.76C45.2898 94.49 43.5198 92.66 41.5198 90.4C38.1998 86.76 37.6998 86 37.3898 85.46C36.3898 83.83 34.8798 80.39 35.2198 74.12Z" fill="#1E6F5D"/>
<path d="M35.2099 74.07C36.0799 75.72 37.0499 77.45 38.0599 79.25C39.0699 81.05 40.0599 82.94 40.9499 84.86C41.3799 85.86 41.8499 86.7 42.2999 87.62C42.7499 88.54 43.1899 89.45 43.6699 90.34C44.6199 92.14 45.6699 93.9 46.6699 95.63L47.7299 97.36L46.2999 95.93C44.7799 94.45 43.2999 92.93 41.7899 91.42C40.2799 89.91 38.8499 88.36 37.4999 86.65C36.251 84.8272 35.4555 82.7324 35.1799 80.54C34.86 78.3944 34.8701 76.2125 35.2099 74.07ZM35.2099 74.17C35.2099 74.46 35.2099 74.73 35.2699 74.96L35.3199 75.71C35.3199 76.24 35.3999 76.77 35.4399 77.29C35.5448 78.3324 35.7118 79.3675 35.9399 80.39C36.3389 82.409 37.1602 84.3208 38.3499 86C39.6499 87.61 41.0599 89.23 42.4699 90.8C43.8799 92.37 45.2799 93.97 46.6699 95.58L46.2699 95.88C45.3499 94.06 44.3999 92.27 43.3699 90.51C42.3399 88.75 41.1699 87 40.2299 85.3C39.2899 83.6 38.5499 81.8 37.7599 80C36.9699 78.2 36.1499 76.18 35.2299 74.17H35.2099Z" fill="#231F20"/>
<path d="M59.4502 68.36C61.2702 76.86 59.3902 81.36 57.6702 83.72C57.2202 84.35 56.8002 84.8 52.5702 89.21C50.0102 91.89 47.8502 94.13 46.3002 95.76C45.9823 93.7164 45.8818 91.6448 46.0002 89.58C46.1702 86.31 46.3002 83.26 48.1002 80.4C49.6202 77.98 50.9102 77.95 54.1002 74.88C56.1434 72.9335 57.9401 70.7438 59.4502 68.36Z" fill="#3E9581"/>
<path d="M59.4495 68.31C60.2688 70.9455 60.6274 73.7026 60.5095 76.46C60.4402 79.2726 59.4926 81.993 57.7995 84.24C55.9295 86.24 53.9295 88.05 52.0295 90.01C50.1295 91.97 48.3095 93.93 46.4995 96L46.1395 96.4L45.9995 95.8C45.4955 93.1144 45.3543 90.3732 45.5795 87.65C45.6397 86.2696 45.8238 84.8974 46.1295 83.55C46.4705 82.1733 47.0565 80.8691 47.8595 79.7C48.7227 78.5739 49.7874 77.6177 50.9995 76.88C52.0846 76.1099 53.1169 75.268 54.0895 74.36C56.063 72.5169 57.8576 70.4912 59.4495 68.31ZM59.4495 68.41C58.1618 70.7963 56.5423 72.9881 54.6395 74.92C53.6771 75.8926 52.6551 76.8043 51.5795 77.65C50.4966 78.3646 49.5487 79.2651 48.7795 80.31C47.388 82.5324 46.6211 85.0887 46.5595 87.71C46.4595 89.05 46.3395 90.39 46.3495 91.71C46.3407 93.0469 46.4175 94.3829 46.5795 95.71L46.1095 95.57C48.0395 93.67 49.9595 91.76 51.8095 89.78C52.7395 88.78 53.6395 87.78 54.5295 86.78C55.4195 85.78 56.3595 84.78 57.1595 83.78C58.6726 81.6202 59.5712 79.0903 59.7595 76.46C59.9376 73.7729 59.8303 71.0745 59.4395 68.41H59.4495Z" fill="#231F20"/>
<path d="M59.4498 68.36C57.5298 73.1 55.3598 78.05 52.8898 83.14C50.7198 87.63 48.5098 91.83 46.2998 95.76C47.9798 94.06 50.3598 91.62 53.1398 88.62C57.6398 83.78 58.2598 82.79 58.6398 82.11C59.7998 80 61.4398 75.71 59.4498 68.36Z" fill="#1E6F5D"/>
<path d="M59.44 68.41C58.76 70.77 57.78 73.18 56.84 75.52C55.9 77.86 54.84 80.19 53.7 82.46C52.56 84.73 51.19 86.88 50 89.1C48.81 91.32 47.63 93.59 46.53 95.87L46.15 95.59C47.96 93.59 49.76 91.59 51.61 89.59C53.46 87.59 55.27 85.59 57 83.59C57.4151 83.086 57.7959 82.5549 58.14 82C59.108 80.281 59.7138 78.382 59.92 76.42C60.1499 73.7409 59.9882 71.0425 59.44 68.41ZM59.44 68.31C59.6841 68.9645 59.8911 69.6322 60.06 70.31C60.24 70.97 60.36 71.64 60.48 72.31C60.7034 73.6746 60.7772 75.0594 60.7 76.44C60.6033 79.2702 59.585 81.9915 57.8 84.19C56.04 86.29 54.16 88.25 52.25 90.19C50.34 92.13 48.41 94 46.47 95.93L45.25 97.12L46.09 95.64C47.33 93.44 48.53 91.2 49.66 88.94C50.79 86.68 51.87 84.38 52.93 82.09L56.14 75.21C57.25 72.91 58.24 70.66 59.45 68.31H59.44Z" fill="#231F20"/>
</g>
<defs>
<clipPath id="clip0">
<rect width="87.08" height="132.25" fill="white"/>
</clipPath>
</defs>
</svg>
