<svg width="28" height="64" viewBox="0 0 28 64" fill="none" xmlns="http://www.w3.org/2000/svg">
<g clip-path="url(#clip0)">
<path d="M12.2498 41.91C12.8212 39.1145 13.0662 36.262 12.9798 33.41C12.934 30.5714 12.5514 27.7483 11.8398 25C11.0871 22.3046 10.1138 19.6757 8.9298 17.14C7.76356 14.5763 6.46858 12.0731 5.0498 9.63999L5.1598 9.53999C7.23922 11.5408 8.9727 13.8724 10.2898 16.44C11.5859 19.0591 12.4985 21.851 12.9998 24.73C13.5701 27.5863 13.8083 30.499 13.7098 33.41C13.5892 36.2958 13.1362 39.158 12.3598 41.94L12.2498 41.91Z" fill="#1F705E"/>
<path d="M14.1501 63.19C12.1034 55.0657 11.3775 46.665 12.0001 38.31C12.2209 35.5237 12.5813 32.7502 13.0801 30C13.9838 24.4619 15.5901 19.0617 17.8601 13.93C20.153 8.86387 23.1898 4.16871 26.8701 0L27.0501 0.14C24.4017 4.90838 22.0473 9.83424 20.0001 14.89C17.8979 19.9067 16.1992 25.0832 14.9201 30.37C14.3268 33.0367 13.8668 35.7333 13.5401 38.46C13.2301 41.18 13.0601 43.93 13.0201 46.67C12.9332 52.186 13.3989 57.6968 14.4101 63.12L14.1501 63.19Z" fill="#1F705E"/>
<path d="M21 11.4C21.0178 10.502 20.838 9.61111 20.4733 8.7903C20.1087 7.96949 19.5682 7.23882 18.89 6.65C17.9805 5.80646 16.8507 5.23764 15.6314 5.00935C14.4121 4.78107 13.1531 4.90264 12 5.36C12.5587 7.08472 13.6469 8.58938 15.11 9.66C16.7948 10.9401 18.89 11.5591 21 11.4Z" fill="#3E9582"/>
<path d="M20.93 11.38C20.8417 10.3215 20.5171 9.29636 19.98 8.38C19.4309 7.50968 18.7094 6.76098 17.86 6.18C17.0219 5.55092 16.0378 5.14491 15 5C13.9713 4.8575 12.9238 5.03559 12 5.51L12.1 5.28C12.7748 7.073 14 8.60628 15.6 9.66C16.371 10.1923 17.2169 10.6068 18.11 10.89C19.021 11.1902 19.9711 11.3553 20.93 11.38ZM20.98 11.38C20.0088 11.5569 19.0116 11.5331 18.05 11.31C17.0785 11.0931 16.1539 10.7036 15.32 10.16C14.4675 9.61232 13.7248 8.91029 13.13 8.09C12.5111 7.29136 12.0589 6.37663 11.8 5.4L11.75 5.23L11.9 5.17C12.9106 4.80409 13.9947 4.68746 15.06 4.83C16.1166 4.9604 17.1365 5.30038 18.06 5.83C19.0236 6.39318 19.8074 7.21856 20.32 8.21C20.8698 9.18521 21.1072 10.3056 21 11.42L20.98 11.38Z" fill="#010101"/>
<path d="M21 11.4C20.75 11.13 20.44 10.83 20.1 10.51C19.1827 9.63185 18.2072 8.81666 17.18 8.07C15.5768 6.94813 13.8358 6.03731 12 5.36C12.5041 6.93438 13.4605 8.32553 14.75 9.36C16.5015 10.8038 18.734 11.5325 21 11.4Z" fill="#1F705E"/>
<path d="M20.9995 11.4L18.8695 9.68001C18.1595 9.09001 17.4295 8.57001 16.6995 8.00001C15.9734 7.45532 15.2153 6.95443 14.4295 6.50001C13.6313 6.08486 12.7939 5.74988 11.9295 5.50001L12.1095 5.32001C12.4534 6.22372 12.9433 7.06489 13.5595 7.81001C14.1595 8.54388 14.8716 9.17836 15.6695 9.69001C16.4509 10.2182 17.3071 10.6261 18.2095 10.9C19.1165 11.1763 20.053 11.3441 20.9995 11.4ZM21.0495 11.4C20.0768 11.5887 19.0753 11.5716 18.1095 11.35C17.1283 11.1396 16.1933 10.7533 15.3495 10.21C13.6175 9.10385 12.3646 7.38694 11.8395 5.40001L11.7695 5.10001L12.0195 5.21001C12.8595 5.58001 13.6895 5.95001 14.5095 6.34001C15.3676 6.70216 16.1995 7.12316 16.9995 7.60001C17.7744 8.10888 18.5008 8.68799 19.1695 9.33001C19.5095 9.64001 19.8295 9.98001 20.1695 10.33C20.5095 10.68 20.7695 11.11 20.9995 11.41L21.0495 11.4Z" fill="#010101"/>
<path d="M13.4404 32C13.4223 30.7995 13.6661 29.6094 14.1548 28.5128C14.6436 27.4161 15.3655 26.4391 16.2704 25.65C17.4842 24.5261 18.9906 23.7675 20.6162 23.4615C22.2419 23.1554 23.921 23.3144 25.4604 23.92C24.7185 26.2293 23.2661 28.2452 21.3104 29.68C19.0564 31.3846 16.2586 32.2094 13.4404 32Z" fill="#3E9582"/>
<path d="M13.4003 32.05C13.2559 31.3002 13.2559 30.5298 13.4003 29.78C13.5198 29.0266 13.7595 28.2973 14.1103 27.62C14.786 26.2561 15.8601 25.1297 17.1903 24.39C18.4801 23.7237 19.8853 23.3096 21.3303 23.17C22.7729 22.9773 24.2404 23.1176 25.6203 23.58L25.9003 23.68L25.8203 24.04C25.5045 25.3921 24.9083 26.6628 24.0703 27.77C23.664 28.3232 23.2125 28.8416 22.7203 29.32C22.2164 29.7875 21.6746 30.2123 21.1003 30.59C19.9637 31.3156 18.7024 31.8242 17.3803 32.09C16.0667 32.3682 14.7081 32.3546 13.4003 32.05ZM13.4803 31.97C14.7305 31.8703 15.9634 31.615 17.1503 31.21C18.3187 30.8076 19.4258 30.2456 20.4403 29.54C21.4636 28.8321 22.3912 27.9952 23.2003 27.05C23.9943 26.0744 24.638 24.9858 25.1103 23.82L25.3103 24.28C24.1135 23.6082 22.7303 23.3448 21.3703 23.53C20.0138 23.7565 18.7371 24.3243 17.6603 25.18C16.5678 25.9736 15.6291 26.9597 14.8903 28.09C14.1592 29.2838 13.6795 30.6143 13.4803 32V31.97Z" fill="#010101"/>
<path d="M13.3701 32C13.7201 31.64 14.1201 31.24 14.5801 30.8C15.8087 29.6275 17.1113 28.5353 18.4801 27.53C20.6477 26.0267 23.0005 24.8099 25.4801 23.91C24.8141 26.0314 23.5333 27.9073 21.8001 29.3C19.4369 31.2414 16.4215 32.2072 13.3701 32Z" fill="#1F705E"/>
<path d="M13.3203 32C13.4803 31.79 13.6503 31.55 13.8403 31.27C14.0376 30.9845 14.2512 30.7107 14.4803 30.45C14.8903 29.97 15.3203 29.53 15.7703 29.09C16.6558 28.2163 17.6313 27.4386 18.6803 26.77C19.751 26.1737 20.8601 25.6492 22.0003 25.2C23.1203 24.7 24.2303 24.2 25.3303 23.66L25.8303 23.42L25.6903 24.01C25.3955 25.3706 24.8199 26.6547 24.0003 27.78C23.184 28.9036 22.1669 29.8664 21.0003 30.62C19.8597 31.357 18.5857 31.8632 17.2503 32.11C16.5907 32.2333 15.9213 32.2969 15.2503 32.3C14.9159 32.3058 14.5816 32.2857 14.2503 32.24L13.7603 32.18C13.6062 32.1401 13.4582 32.0795 13.3203 32ZM13.4303 32C13.5003 31.91 13.7103 31.94 13.8603 31.91L14.3403 31.85L15.2803 31.69C15.8972 31.5633 16.5052 31.3962 17.1003 31.19C18.2765 30.7927 19.3934 30.2377 20.4203 29.54C21.4691 28.8695 22.4099 28.0434 23.2103 27.09C24.0461 26.1203 24.7213 25.0231 25.2103 23.84L25.5703 24.2C24.402 24.514 23.2769 24.9707 22.2203 25.56C21.1759 26.187 20.1738 26.8818 19.2203 27.64C18.2203 28.36 17.2903 29.08 16.3303 29.82L14.8803 30.94C14.6403 31.13 14.4603 31.26 14.2203 31.42C13.9464 31.5984 13.6826 31.7921 13.4303 32Z" fill="#010101"/>
<path d="M12.4497 26.35C12.4672 25.1496 12.2231 23.9598 11.7343 22.8632C11.2456 21.7666 10.524 20.7896 9.61969 20C8.40568 18.8765 6.8999 18.1174 5.27466 17.8097C3.64942 17.502 1.97039 17.658 0.429688 18.26C1.17528 20.562 2.62739 22.5705 4.57969 24C6.83075 25.7128 9.62806 26.548 12.4497 26.35Z" fill="#3E9582"/>
<path d="M12.4 26.31C12.2022 24.9349 11.7258 23.6146 11 22.43C10.2612 21.2997 9.3225 20.3136 8.23 19.52C7.15581 18.6601 5.87799 18.0918 4.52 17.87C3.16005 17.6848 1.77682 17.9482 0.58 18.62L0.78 18.16C1.25444 19.3278 1.89799 20.4194 2.69 21.4C3.49699 22.3444 4.42499 23.1782 5.45 23.88C6.46448 24.5856 7.57163 25.1476 8.74 25.55C9.92329 25.9559 11.1529 26.2112 12.4 26.31ZM12.49 26.39C11.1729 26.6843 9.80709 26.6843 8.49 26.39C6.48826 25.9778 4.63988 25.019 3.15 23.62C2.67243 23.1472 2.23118 22.6391 1.83 22.1C0.986295 20.9963 0.3895 19.7243 0.08 18.37L0 18L0.28 17.9C1.65746 17.4422 3.12067 17.302 4.56 17.49C6.00913 17.6249 7.41842 18.0392 8.71 18.71C10.042 19.4716 11.1122 20.6186 11.78 22C12.1294 22.6779 12.3691 23.407 12.49 24.16C12.6335 24.8964 12.6335 25.6536 12.49 26.39Z" fill="#010101"/>
<path d="M12.5202 26.36C12.1702 26 11.7702 25.59 11.3102 25.15C10.0806 23.9817 8.77796 22.8929 7.41016 21.89C5.24484 20.3803 2.8916 19.16 0.410156 18.26C1.07769 20.3834 2.358 22.2621 4.09016 23.66C6.45732 25.5942 9.46975 26.559 12.5202 26.36Z" fill="#1F705E"/>
<path d="M12.46 26.33C12.2102 26.1219 11.9463 25.9314 11.67 25.76C11.43 25.59 11.24 25.47 11.01 25.28L9.56 24.17C8.56 23.42 7.63 22.71 6.67 21.98C5.71407 21.2252 4.71214 20.5305 3.67 19.9C2.61977 19.3122 1.50142 18.8555 0.34 18.54L0.7 18.18C1.18904 19.3631 1.86424 20.4603 2.7 21.43C3.50045 22.3834 4.4412 23.2095 5.49 23.88C6.51578 24.5796 7.63291 25.1348 8.81 25.53C9.40431 25.7388 10.0124 25.9058 10.63 26.03L11.57 26.2L12.05 26.25C12.17 26.28 12.38 26.24 12.46 26.33ZM12.57 26.33C12.3974 26.4017 12.2157 26.4488 12.03 26.47L11.54 26.54C11.2081 26.5777 10.8741 26.5944 10.54 26.59C9.86852 26.5969 9.19816 26.5333 8.54 26.4C7.21992 26.1712 5.95462 25.6963 4.81 25C3.64342 24.2464 2.6263 23.2836 1.81 22.16C0.999505 21.0194 0.437391 19.7214 0.16 18.35L0 17.75L0.5 17.99C1.61 18.52 2.72 18.99 3.84 19.53C4.98484 19.9914 6.09735 20.5293 7.17 21.14C8.22063 21.8145 9.19912 22.5953 10.09 23.47C10.53 23.9 10.97 24.35 11.37 24.82C11.5997 25.0801 11.8135 25.354 12.01 25.64C12.24 25.92 12.4 26.17 12.57 26.37V26.33Z" fill="#010101"/>
<path d="M13.0005 47.21C13.022 46.0085 12.7808 44.8168 12.2937 43.7182C11.8066 42.6196 11.0854 41.6408 10.1805 40.85C8.96205 39.7304 7.45414 38.9748 5.82793 38.669C4.20172 38.3632 2.52235 38.5195 0.980469 39.12C1.70874 41.4308 3.15125 43.451 5.10047 44.89C7.3611 46.6042 10.1719 47.4296 13.0005 47.21Z" fill="#3E9582"/>
<path d="M12.9098 47.17C12.7103 45.7953 12.234 44.4753 11.5098 43.29C10.7763 42.1583 9.83667 41.1745 8.73977 40.39C7.6592 39.5218 6.36947 38.9528 4.99977 38.74C3.64093 38.5526 2.25799 38.8123 1.05977 39.48L1.25977 39.02C1.73545 40.1893 2.38254 41.2813 3.17977 42.26C4.00228 43.2114 4.95108 44.0458 5.99977 44.74C7.01396 45.4546 8.12524 46.0203 9.29977 46.42C10.4684 46.8147 11.6806 47.0665 12.9098 47.17ZM12.9998 47.25C11.6828 47.5457 10.3167 47.5457 8.99977 47.25C7.67219 46.9869 6.40652 46.4745 5.26977 45.74C4.70611 45.3881 4.18002 44.9793 3.69977 44.52C3.20833 44.0488 2.75367 43.5406 2.33977 43C1.50009 41.8827 0.903936 40.6019 0.589766 39.24L0.509766 38.88L0.799766 38.78C2.17646 38.3188 3.63968 38.1752 5.07977 38.36C6.52953 38.4983 7.9388 38.9159 9.22976 39.59C10.5571 40.3303 11.6278 41.4568 12.2998 42.82C12.6487 43.5044 12.8851 44.2405 12.9998 45C13.1416 45.7433 13.1416 46.5067 12.9998 47.25Z" fill="#010101"/>
<path d="M12.9996 47.22C12.6496 46.86 12.2596 46.46 11.7896 46.01C10.5648 44.8365 9.26177 43.7473 7.88965 42.75C5.72194 41.2443 3.36923 40.0243 0.889648 39.12C1.555 41.2445 2.83571 43.1238 4.56965 44.52C6.9329 46.4614 9.94825 47.4272 12.9996 47.22Z" fill="#1F705E"/>
<path d="M13 47.2C12.7466 46.9935 12.4829 46.8 12.21 46.62C11.9766 46.4783 11.7528 46.3212 11.54 46.15L10.08 45C9.08004 44.25 8.15004 43.54 7.18004 42.82C6.23001 42.0572 5.22754 41.3622 4.18004 40.74C3.13068 40.1553 2.01188 39.7051 0.850039 39.4L1.21004 39.05C1.70449 40.2273 2.37924 41.3204 3.21004 42.29C4.01256 43.2413 4.95298 44.0671 6.00004 44.74C7.0196 45.438 8.12991 45.9931 9.30004 46.39C9.89477 46.5974 10.5028 46.7645 11.12 46.89L12.06 47.06L12.54 47.12C12.68 47.15 12.89 47.11 13 47.2ZM13.1 47.2C12.9306 47.2708 12.7523 47.3179 12.57 47.34L12.08 47.4C11.7482 47.4403 11.4143 47.4603 11.08 47.46C10.409 47.4569 9.73965 47.3933 9.08004 47.27C7.7433 47.0117 6.46751 46.5027 5.32004 45.77C4.15114 45.0194 3.13352 44.056 2.32004 42.93C1.52479 41.814 0.963533 40.5486 0.670039 39.21L0.540039 38.62L1.03004 38.85C2.14004 39.39 3.25004 39.85 4.37004 40.39C5.51478 40.8516 6.62727 41.3895 7.70004 42C8.75454 42.6653 9.73362 43.4432 10.62 44.32C11.06 44.76 11.5 45.2 11.9 45.68C12.1354 45.938 12.3526 46.212 12.55 46.5C12.75 46.78 12.91 47 13.08 47.24L13.1 47.2Z" fill="#010101"/>
</g>
<defs>
<clipPath id="clip0">
<rect width="27.05" height="63.19" fill="white"/>
</clipPath>
</defs>
</svg>
