<svg width="88" height="133" viewBox="0 0 88 133" fill="none" xmlns="http://www.w3.org/2000/svg">
<path d="M80.3303 67.13C82.6952 82.3297 84.2906 97.6393 85.1103 113L20.1103 124.07C15.1334 109.471 11.1707 94.5453 8.25027 79.4C7.72361 76.7334 7.23027 73.9933 6.77027 71.18C6.21027 67.7867 5.71361 64.4533 5.28027 61.18C3.41986 47.4559 2.41791 33.629 2.28027 19.78L67.3503 8.70001C70.9103 20.93 74.2803 34.37 77.1403 48.94C77.5803 51.2 78.0103 53.48 78.4303 55.8C79.1303 59.6333 79.7636 63.41 80.3303 67.13Z" fill="white" stroke="#010101" stroke-miterlimit="10" stroke-linecap="round"/>
<path d="M1.90992 19.4C1.50326 17.1333 1.08992 14.8533 0.669922 12.56C1.97992 13.22 3.28992 13.9 4.57992 14.56L8.37992 11.1C9.90992 11.63 11.3799 12.16 12.9699 12.68L16.9699 9.85L22.9399 11L27.4299 7.94L33.1499 9.49L36.4899 6.23L41.9999 8.31L46.8499 4.22C48.6799 5.01 50.4999 5.81 52.3299 6.59L57.1899 2.79L61.1899 5.21C62.4399 4 64.8099 2.2 66.0499 0.940002C66.7499 3.16 66.5999 6.04 67.2999 8.26C45.5799 12 23.5999 15.64 1.90992 19.4Z" fill="#1F705E" stroke="#010101" stroke-miterlimit="10" stroke-linecap="round"/>
<path d="M6.4802 23C7.3802 26.54 8.1502 30.1 8.8402 33.67C9.5302 37.24 10.1802 40.82 10.6802 44.43C11.1802 48.04 11.5202 51.66 12.0502 55.26C12.5802 58.86 13.2902 62.41 14.0002 66C14.7102 69.59 15.4702 73.13 16.1202 76.71C16.7702 80.29 17.4402 83.87 18.0202 87.46C19.1502 94.65 20.1302 101.86 20.7902 109.12C20.7933 109.132 20.7936 109.145 20.791 109.157C20.7884 109.169 20.783 109.18 20.7752 109.19C20.7675 109.2 20.7575 109.207 20.7463 109.213C20.735 109.218 20.7226 109.22 20.7102 109.22C20.6894 109.22 20.6691 109.214 20.6527 109.201C20.6363 109.188 20.6248 109.17 20.6202 109.15C18.9002 102.07 17.4902 94.93 16.2202 87.76C15.6002 84.17 15.0802 80.57 14.5302 76.97C13.9802 73.37 13.5302 69.77 13.0702 66.15C12.6102 62.53 12.1302 58.93 11.4702 55.36C10.8102 51.79 10.0002 48.2 9.2902 44.63C8.5802 41.06 8.0502 37.47 7.5402 33.86C7.0302 30.25 6.6102 26.64 6.3102 23C6.30877 22.9887 6.30978 22.9772 6.31316 22.9663C6.31654 22.9554 6.3222 22.9453 6.32978 22.9368C6.33735 22.9283 6.34666 22.9215 6.35708 22.9169C6.36751 22.9122 6.3788 22.9099 6.3902 22.91C6.4402 22.92 6.4802 23 6.4802 23Z" fill="#010101"/>
<path d="M32.6397 117C34.5399 116.381 36.4728 115.867 38.4297 115.46C40.3715 115.027 42.334 114.694 44.3097 114.46C46.3097 114.24 48.3097 114.18 50.3097 113.92C52.2824 113.638 54.2385 113.251 56.1697 112.76C58.1097 112.28 60.0497 111.83 62.0097 111.47C63.9697 111.11 65.9097 110.69 67.8797 110.39C71.8272 109.78 75.8076 109.406 79.7997 109.27C79.8219 109.27 79.8434 109.278 79.86 109.293C79.8766 109.308 79.8872 109.328 79.8897 109.35C79.8894 109.369 79.8835 109.388 79.8729 109.404C79.8623 109.42 79.8473 109.432 79.8297 109.44C76.0026 110.581 72.1128 111.499 68.1797 112.19C66.1797 112.53 64.2497 112.79 62.2697 113.05C60.2897 113.31 58.2697 113.52 56.2697 113.69C54.2834 113.84 52.307 114.1 50.3497 114.47C48.3497 114.85 46.4797 115.47 44.5297 115.87C42.5797 116.27 40.6097 116.56 38.6297 116.79C36.6381 117.029 34.6353 117.163 32.6297 117.19C32.6175 117.192 32.605 117.19 32.5934 117.187C32.5817 117.183 32.5711 117.176 32.5624 117.167C32.5537 117.159 32.5471 117.148 32.5432 117.136C32.5392 117.125 32.538 117.112 32.5397 117.1C32.5354 117.086 32.535 117.071 32.5385 117.057C32.542 117.043 32.5493 117.03 32.5596 117.02C32.5698 117.01 32.5827 117.002 32.5969 116.999C32.611 116.995 32.6258 116.996 32.6397 117Z" fill="#010101"/>
<path d="M80.3303 67.13L8.25027 79.4C7.72361 76.7333 7.23027 73.9933 6.77027 71.18C6.21027 67.7867 5.71361 64.4533 5.28027 61.18L77.1403 48.94C77.5803 51.2 78.0203 53.48 78.4303 55.8C79.1303 59.6333 79.7636 63.41 80.3303 67.13Z" fill="#1F705E" stroke="#010101" stroke-miterlimit="10" stroke-linecap="round"/>
<path d="M52.5196 86.17C66.8796 80.94 74.8996 66.72 70.4196 54.41C65.9396 42.1 50.6596 36.41 36.2896 41.59C21.9196 46.77 13.9096 61 18.3896 73.35C22.8696 85.7 38.1496 91.4 52.5196 86.17Z" fill="#FAF28C" stroke="#010101" stroke-miterlimit="10"/>
<path d="M19.9199 124.29C20.2799 126.58 20.6499 128.87 21.0099 131.17C22.0299 130.11 23.0299 129.043 24.0099 127.97L28.7299 129.97L32.5399 126.97L37.2799 128.31L42.5199 125.31L47.7599 126.71L52.6499 123.35L56.8799 125.35L61.3499 121.57L67.2899 123.83C68.7499 122.47 70.1999 121.12 71.6699 119.77C73.6099 120.44 75.5599 121.09 77.5099 121.77C78.5099 120.56 79.5099 119.36 80.5099 118.16C82.0999 118.93 84.9199 119.8 86.5099 120.57C86.4399 118.24 85.3399 115.57 85.2699 113.25C63.5699 116.79 41.6399 120.66 19.9199 124.29Z" fill="#1F705E" stroke="#010101" stroke-miterlimit="10" stroke-linecap="round"/>
<path d="M79.69 61.78L79.95 63.28L77.51 64.1L76.81 64.33L76.89 66.06L77.17 72.73L77 72.36L75.7 68.72L74.4 65L66.54 64.83H66L66.66 64.65L74.39 62.49L73.93 53.65L76.06 61.96L78.06 61.88L79.69 61.78Z" fill="white" stroke="#010101" stroke-width="0.5" stroke-miterlimit="10" stroke-linecap="round"/>
<path d="M66.57 68.2L67.8 73L73 72.8L68.2 74.41L68.41 79.27L66.8 74.78L62 74.68L66.86 73.32L66.57 68.2Z" fill="white" stroke="#010101" stroke-width="0.5" stroke-miterlimit="10" stroke-linecap="round"/>
<path d="M38.7802 106C38.4671 105.832 38.1297 105.714 37.7802 105.65C37.4511 105.575 37.1093 105.575 36.7802 105.65C36.5814 105.681 36.3868 105.735 36.2002 105.81C36.0274 105.872 35.8704 105.971 35.7402 106.1C35.6818 106.16 35.6394 106.233 35.6166 106.313C35.5939 106.394 35.5917 106.479 35.6102 106.56C35.6239 106.643 35.6574 106.722 35.7078 106.79C35.7583 106.858 35.8242 106.913 35.9002 106.95C36.0849 107.029 36.2804 107.079 36.4802 107.1H37.2702C37.5568 107.1 37.8368 107.12 38.1102 107.16C38.3739 107.178 38.6335 107.235 38.8802 107.33C39.1088 107.411 39.317 107.54 39.4902 107.71C39.663 107.899 39.7746 108.136 39.8102 108.39C39.8816 108.732 39.8246 109.088 39.6502 109.39C39.4696 109.701 39.2111 109.959 38.9002 110.14C38.5544 110.345 38.1753 110.487 37.7802 110.56C37.2796 110.635 36.7708 110.635 36.2702 110.56C35.8047 110.489 35.3665 110.296 35.0002 110L35.6302 109.19C35.913 109.402 36.2377 109.55 36.5826 109.626C36.9276 109.702 37.2847 109.703 37.6302 109.63C37.8183 109.59 38.0024 109.533 38.1802 109.46C38.3542 109.391 38.5111 109.285 38.6402 109.15C38.697 109.085 38.7375 109.008 38.7584 108.925C38.7793 108.841 38.7799 108.754 38.7602 108.67C38.7498 108.591 38.7184 108.515 38.6692 108.452C38.6199 108.389 38.5547 108.34 38.4802 108.31C38.2962 108.221 38.0947 108.173 37.8902 108.17C37.6402 108.17 37.3802 108.17 37.1102 108.17C36.7374 108.133 36.3669 108.077 36.0002 108C35.6618 107.953 35.3395 107.827 35.0602 107.63C34.7863 107.391 34.6086 107.06 34.5602 106.7C34.5006 106.384 34.5574 106.057 34.7202 105.78C34.9087 105.477 35.17 105.226 35.4802 105.05C35.8359 104.844 36.2251 104.701 36.6302 104.63C36.9239 104.579 37.2222 104.559 37.5202 104.57C37.8312 104.573 38.1405 104.617 38.4402 104.7C38.7328 104.776 39.0079 104.909 39.2502 105.09L38.7802 106ZM47.5502 107.93C47.3675 108.135 47.1629 108.319 46.9402 108.48C46.6874 108.67 46.4119 108.828 46.1202 108.95C45.799 109.089 45.4637 109.193 45.1202 109.26C44.5248 109.398 43.9056 109.398 43.3102 109.26C42.7866 109.118 42.3125 108.835 41.9402 108.44C41.5766 108.048 41.3366 107.558 41.2502 107.03C41.1246 106.458 41.1769 105.861 41.4002 105.32C41.6141 104.82 41.9598 104.388 42.4002 104.07C42.8623 103.731 43.3959 103.502 43.9602 103.4C44.4731 103.304 45.0019 103.334 45.5002 103.49C45.9683 103.633 46.3896 103.899 46.7202 104.26C47.0749 104.64 47.3082 105.117 47.3902 105.63L47.4702 106.15L42.4702 107.07C42.5602 107.296 42.6953 107.501 42.8672 107.673C43.0392 107.845 43.2443 107.98 43.4702 108.07C44.0028 108.287 44.589 108.336 45.1502 108.21C45.5475 108.151 45.9266 108.004 46.2602 107.78C46.5013 107.612 46.7256 107.421 46.9302 107.21L47.5502 107.93ZM44.1402 104.38C43.671 104.459 43.2281 104.651 42.8502 104.94C42.6755 105.085 42.5355 105.267 42.4403 105.473C42.3451 105.679 42.2972 105.903 42.3002 106.13L46.1702 105.42V105.3C46.1023 105.061 45.9539 104.852 45.7502 104.71C45.5312 104.548 45.2781 104.439 45.0102 104.39C44.7257 104.319 44.43 104.306 44.1402 104.35V104.38ZM55.3802 106.5C55.1971 106.702 54.9925 106.883 54.7702 107.04C54.5118 107.23 54.2335 107.391 53.9402 107.52C53.6214 107.663 53.2852 107.764 52.9402 107.82C52.3412 107.945 51.7213 107.928 51.1302 107.77C50.6089 107.628 50.1356 107.348 49.7602 106.96C49.3985 106.567 49.1589 106.077 49.0702 105.55C48.9427 104.994 48.982 104.413 49.183 103.88C49.3839 103.346 49.7378 102.884 50.2002 102.55C50.6623 102.211 51.1959 101.981 51.7602 101.88C52.2728 101.778 52.8029 101.809 53.3002 101.97C53.7683 102.113 54.1896 102.379 54.5202 102.74C54.877 103.118 55.1106 103.596 55.1902 104.11L55.2702 104.63L50.2702 105.55C50.3602 105.776 50.4953 105.981 50.6672 106.153C50.8392 106.325 51.0443 106.46 51.2702 106.55C51.804 106.762 52.3887 106.811 52.9502 106.69C53.3475 106.631 53.7266 106.484 54.0602 106.26C54.2966 106.086 54.5205 105.895 54.7302 105.69L55.3802 106.5ZM52.0002 102.92C51.5297 102.994 51.0858 103.187 50.7102 103.48C50.5363 103.623 50.3966 103.804 50.3015 104.008C50.2063 104.212 50.158 104.435 50.1602 104.66L54.0002 104V103.88C53.93 103.639 53.7824 103.428 53.5802 103.28C53.3607 103.121 53.1074 103.015 52.8402 102.97C52.566 102.9 52.2808 102.883 52.0002 102.92ZM62.2702 97.71L63.7302 105.71L62.6202 105.92L62.4602 105.03C62.342 105.243 62.1901 105.436 62.0102 105.6C61.8107 105.802 61.5854 105.977 61.3402 106.12C61.0609 106.268 60.7608 106.372 60.4502 106.43C59.9137 106.534 59.3597 106.499 58.8402 106.33C58.3521 106.164 57.9194 105.867 57.5902 105.47C57.2496 105.052 57.0254 104.552 56.9402 104.02C56.831 103.487 56.869 102.933 57.0502 102.42C57.2164 101.932 57.5182 101.502 57.9202 101.18C58.338 100.832 58.8427 100.604 59.3802 100.52C59.8217 100.425 60.2786 100.425 60.7202 100.52C61.082 100.596 61.4231 100.75 61.7202 100.97L61.1502 97.89L62.2702 97.71ZM60.4702 105.41C60.8372 105.344 61.1814 105.186 61.4702 104.95C61.7376 104.731 61.9414 104.445 62.0602 104.12C62.1744 103.779 62.1985 103.413 62.1302 103.06C62.0792 102.692 61.9268 102.346 61.6902 102.06C61.4722 101.792 61.1801 101.593 60.8502 101.49C60.4917 101.374 60.1091 101.353 59.7402 101.43C59.3726 101.488 59.0273 101.643 58.7402 101.88C58.4709 102.093 58.2665 102.377 58.1502 102.7C58.0284 103.04 58.0007 103.406 58.0702 103.76C58.1241 104.129 58.2799 104.475 58.5202 104.76C58.7465 105.019 59.0358 105.215 59.3602 105.33C59.7076 105.448 60.0792 105.475 60.4402 105.41H60.4702ZM69.3202 100.41C69.0092 100.237 68.671 100.119 68.3202 100.06C67.9903 99.9924 67.6501 99.9924 67.3202 100.06C67.1254 100.094 66.9344 100.148 66.7502 100.22C66.5749 100.281 66.417 100.384 66.2902 100.52C66.2293 100.578 66.1852 100.651 66.1623 100.732C66.1395 100.813 66.1387 100.899 66.1602 100.98C66.172 101.062 66.2037 101.139 66.2525 101.205C66.3014 101.271 66.3658 101.325 66.4402 101.36C66.6253 101.448 66.8257 101.498 67.0302 101.51H67.8202C68.1012 101.51 68.382 101.53 68.6602 101.57C68.9238 101.589 69.1832 101.646 69.4302 101.74C69.6588 101.815 69.865 101.945 70.0302 102.12C70.2118 102.304 70.3277 102.543 70.3602 102.8C70.4288 103.142 70.372 103.497 70.2002 103.8C70.016 104.114 69.7543 104.376 69.4402 104.56C69.0966 104.767 68.7163 104.906 68.3202 104.97C67.8238 105.055 67.3166 105.055 66.8202 104.97C66.3359 104.899 65.8797 104.699 65.5002 104.39L66.1402 103.58C66.4134 103.771 66.718 103.914 67.0402 104C67.4092 104.08 67.7912 104.08 68.1602 104C68.3499 103.966 68.5346 103.909 68.7102 103.83C68.8817 103.761 69.038 103.659 69.1702 103.53C69.2282 103.464 69.2701 103.385 69.2926 103.3C69.3152 103.215 69.3178 103.126 69.3002 103.04C69.2846 102.962 69.2513 102.889 69.2027 102.827C69.1541 102.764 69.0916 102.714 69.0202 102.68C68.8292 102.601 68.6265 102.554 68.4202 102.54C68.1802 102.54 67.9202 102.54 67.6402 102.54C67.2402 102.54 66.8502 102.54 66.4902 102.44C66.1306 102.398 65.787 102.267 65.4902 102.06C65.2193 101.82 65.0451 101.489 65.0002 101.13C64.9358 100.814 64.9929 100.486 65.1602 100.21C65.3493 99.9103 65.6106 99.6627 65.9202 99.49C66.2751 99.282 66.6647 99.1397 67.0702 99.07C67.3766 99.0118 67.6885 98.9883 68.0002 99C68.3116 98.9976 68.6216 99.0414 68.9202 99.13C69.2143 99.2023 69.4902 99.3352 69.7302 99.52L69.3202 100.41Z" fill="#010101"/>
<path d="M38.0999 43.83C36.3477 43.3716 34.55 43.11 32.7399 43.05C31.4039 43.0052 30.0664 43.0654 28.7399 43.23C30.6399 43.84 31.0399 44.08 31.0099 44.23C30.9799 44.38 29.8799 44.16 28.5099 44.33C27.4389 44.4666 26.4038 44.806 25.4599 45.33L27.8499 45.64C26.1313 45.9261 24.5272 46.6883 23.2199 47.84C22.577 48.419 22.0272 49.0935 21.5899 49.84L23.4699 49.44C22.7474 49.791 22.1326 50.3298 21.6899 51C21.2772 51.6188 21.0389 52.3373 20.9999 53.08L22.4399 52.73C21.7634 53.5796 21.1895 54.506 20.7299 55.49C20.2013 56.6204 19.8311 57.8184 19.6299 59.05L25.7299 57.74C25.4299 58.04 25.3099 58.23 25.3599 58.31C25.5199 58.56 27.2499 57.84 30.5599 56.17L30.2499 57.23C31.4994 57.0666 32.6669 56.5179 33.5899 55.66C34.4599 54.78 34.8599 53.66 35.0599 53.72C35.2599 53.78 35.1799 54.03 34.9299 55.13C35.76 54.7459 36.4565 54.1226 36.9299 53.34C37.3999 52.52 37.4799 51.64 37.6299 51.65C37.7799 51.66 37.7099 52.9 37.8499 52.91C37.9899 52.92 38.5999 50.49 38.7599 48C38.8938 46.7682 38.7397 45.5221 38.3099 44.36C38.2499 44.14 38.1599 44 38.0999 43.83Z" fill="#3E9581"/>
<path d="M38.0702 43.87C37.3302 43.74 36.5402 43.6 35.7702 43.51C35.0002 43.42 34.2202 43.37 33.4402 43.34C31.8922 43.2864 30.3425 43.3734 28.8102 43.6L28.8802 42.87C29.5598 43.0646 30.2276 43.2983 30.8802 43.57C30.9741 43.6127 31.0644 43.6629 31.1502 43.72C31.2335 43.7669 31.3053 43.8318 31.3602 43.91C31.3964 43.9653 31.4235 44.0261 31.4402 44.09C31.4596 44.196 31.4419 44.3055 31.3902 44.4C31.2402 44.61 31.1802 44.57 31.1002 44.62C30.8843 44.6461 30.6661 44.6461 30.4502 44.62C30.1102 44.62 29.7702 44.62 29.4502 44.62C28.1438 44.6651 26.8648 45.0071 25.7102 45.62L25.5602 44.81L27.9402 45.14L30.8902 45.54L28.0002 46C26.7496 46.1604 25.5495 46.5937 24.485 47.2694C23.4205 47.9451 22.5176 48.8466 21.8402 49.91L21.6302 49.62L23.5102 49.25L24.8002 49L23.5702 49.59C22.8951 49.907 22.313 50.3926 21.8802 51C21.4592 51.6198 21.2139 52.342 21.1702 53.09L21.0002 52.91L22.4302 52.55L22.9502 52.42L22.6202 52.84C21.2187 54.6679 20.3159 56.8284 20.0002 59.11L19.5702 58.7L25.6402 57.29L27.1902 56.93L26.0602 58.07L25.8402 58.32C25.8402 58.32 25.8402 58.4 25.8402 58.32C25.8402 58.24 25.9002 58.23 25.8402 58.04C25.8167 57.9945 25.7841 57.9542 25.7446 57.9215C25.7051 57.8889 25.6594 57.8645 25.6102 57.85C25.5202 57.85 25.6902 57.85 25.7802 57.85L26.1202 57.74C26.6002 57.56 27.1202 57.34 27.5502 57.12C28.5002 56.68 29.4502 56.2 30.3902 55.71L31.4902 55.14L31.1402 56.33L30.8302 57.39L30.2402 56.72C31.4036 56.5793 32.4907 56.0673 33.3402 55.26C33.7455 54.8097 34.1009 54.3168 34.4002 53.79C34.4481 53.7097 34.5016 53.6329 34.5602 53.56C34.6001 53.5012 34.6472 53.4474 34.7002 53.4C34.7528 53.3428 34.8178 53.2983 34.8902 53.27C34.9759 53.2346 35.069 53.2206 35.1614 53.2294C35.2537 53.2381 35.3426 53.2692 35.4202 53.32C35.4944 53.3717 35.5569 53.4385 35.6034 53.5161C35.65 53.5936 35.6795 53.6802 35.6902 53.77C35.6947 53.8366 35.6947 53.9034 35.6902 53.97C35.6959 54.0666 35.6959 54.1634 35.6902 54.26C35.6902 54.61 35.5602 54.93 35.4902 55.26L34.8002 54.71C35.3251 54.4841 35.7941 54.1459 36.1742 53.7191C36.5543 53.2924 36.8363 52.7875 37.0002 52.24L37.1502 51.78C37.186 51.6672 37.2364 51.5597 37.3002 51.46C37.3702 51.4 37.3002 51.33 37.6002 51.26C37.6944 51.2295 37.7959 51.2295 37.8902 51.26L38.0102 51.35C38.0706 51.4246 38.1087 51.5147 38.1202 51.61C38.1902 52.02 38.1202 52.33 38.2002 52.61V52.67C38.2027 52.6534 38.2027 52.6366 38.2002 52.62C38.1712 52.5826 38.1376 52.549 38.1002 52.52C38.0274 52.478 37.9442 52.4572 37.8602 52.46C37.7911 52.4667 37.727 52.4988 37.6802 52.55C37.6202 52.61 37.6802 52.55 37.6802 52.48C37.6802 52.41 37.7702 52.21 37.8202 52.06C37.8702 51.91 37.9802 51.47 38.0502 51.16C38.3138 49.9332 38.4975 48.6906 38.6002 47.44C38.726 46.2244 38.5437 44.9967 38.0702 43.87ZM38.1302 43.79C38.7538 44.9359 39.0642 46.2259 39.0302 47.53C39.0151 48.8131 38.9048 50.0933 38.7002 51.36C38.6402 51.68 38.5902 52 38.5102 52.36C38.5102 52.52 38.4302 52.68 38.3802 52.85C38.3392 52.9826 38.2711 53.1052 38.1802 53.21C38.1157 53.2681 38.0359 53.3063 37.9502 53.32C37.9005 53.3325 37.8485 53.3336 37.7983 53.3233C37.7481 53.3129 37.7009 53.2912 37.6602 53.26C37.6028 53.2212 37.555 53.1699 37.5202 53.11C37.5162 53.0768 37.5162 53.0432 37.5202 53.01C37.5129 52.9502 37.5129 52.8898 37.5202 52.83C37.5202 52.47 37.5202 52.14 37.4202 51.92C37.4202 51.92 37.4202 51.87 37.4202 51.92L37.5102 51.99C37.5882 52.0153 37.6722 52.0153 37.7502 51.99C37.9602 51.92 37.9202 51.9 37.9602 51.86C38.0002 51.82 37.9602 51.92 37.9602 51.98L37.8302 52.43C37.6381 53.1072 37.2964 53.7326 36.8302 54.26C36.3616 54.7744 35.8022 55.1981 35.1802 55.51L34.2802 55.98L34.4902 54.98C34.5502 54.68 34.6002 54.37 34.6402 54.09V53.87C34.6402 53.87 34.5802 53.87 34.8202 54.11C34.8834 54.1433 34.9538 54.1607 35.0252 54.1607C35.0966 54.1607 35.167 54.1433 35.2302 54.11C35.2302 54.11 35.3302 54.04 35.3202 54.05C35.3102 54.06 35.3202 54.05 35.3202 54.05L35.2102 54.22C34.8795 54.8596 34.4733 55.4572 34.0002 56C33.0034 56.979 31.7153 57.6072 30.3302 57.79L29.5002 57.93L29.7402 57.12L30.0402 56.06L30.7902 56.69C29.7902 57.16 28.8702 57.62 27.8802 58.06C27.3902 58.27 26.8802 58.49 26.3702 58.67L25.9502 58.8C25.7527 58.8599 25.5448 58.877 25.3402 58.85C25.2565 58.8371 25.1765 58.8063 25.1058 58.7597C25.035 58.7131 24.9751 58.6518 24.9302 58.58C24.8959 58.5047 24.8782 58.4228 24.8782 58.34C24.8782 58.2572 24.8959 58.1754 24.9302 58.1C24.9732 57.9907 25.034 57.8894 25.1102 57.8C25.206 57.6769 25.3095 57.56 25.4202 57.45L25.8402 58.24L19.7302 59.44L19.2002 59.55L19.3002 59.03C19.7488 56.6852 20.7805 54.4912 22.3002 52.65L22.4902 52.95L21.0002 53.25H20.7802V53.02C20.8457 52.2152 21.1187 51.4412 21.5727 50.7734C22.0266 50.1057 22.6459 49.567 23.3702 49.21L23.4802 49.54L21.6602 50L21.2402 50.09L21.4502 49.71C22.0971 48.5207 23.0069 47.4947 24.1102 46.71C25.2236 45.942 26.483 45.411 27.8102 45.15V45.96L25.4202 45.68L24.1202 45.53L25.2602 44.87C26.5266 44.1543 27.9555 43.7755 29.4102 43.77C29.7602 43.77 30.1202 43.77 30.4602 43.77H30.8402C30.7902 43.77 30.7902 43.77 30.6602 43.93C30.6294 44.0105 30.6294 44.0995 30.6602 44.18C30.6668 44.2235 30.684 44.2647 30.7102 44.3C30.7102 44.36 30.7102 44.3 30.7102 44.3L30.5402 44.2C29.9264 43.9335 29.2989 43.6998 28.6602 43.5L27.0002 43L28.7102 42.82C30.2933 42.67 31.8871 42.67 33.4702 42.82C34.2557 42.896 35.0368 43.0128 35.8102 43.17C36.5954 43.3293 37.3702 43.5364 38.1302 43.79Z" fill="#231F20"/>
<path d="M38.0797 44C36.589 43.7297 35.0741 43.6157 33.5597 43.66C32.4427 43.6956 31.3297 43.8126 30.2297 44.01C31.8497 44.4 32.2297 44.57 32.1697 44.66C32.1097 44.75 31.1697 44.66 30.0797 44.87C29.1859 45.0472 28.3319 45.3861 27.5597 45.87L29.5597 45.98C28.1382 46.2982 26.8268 46.9884 25.7597 47.98C25.2462 48.4744 24.8112 49.0443 24.4697 49.67L26.0297 49.25C25.4334 49.5691 24.9302 50.0377 24.5697 50.61C24.2541 51.1175 24.0846 51.7023 24.0797 52.3L25.2697 51.94C24.7603 52.6523 24.3342 53.4206 23.9997 54.23C23.6052 55.1519 23.3426 56.1248 23.2197 57.12L28.2797 55.76C28.0497 56.01 27.9497 56.17 27.9997 56.23C28.0497 56.29 29.5697 55.76 32.2797 54.23L32.0597 55.08C33.0943 54.8907 34.0486 54.3961 34.7997 53.66C35.4997 52.91 35.7997 52 35.9597 52.04C36.1197 52.08 36.0697 52.28 35.9097 53.17C36.5921 52.8273 37.1589 52.2918 37.5397 51.63C37.8997 50.96 37.9297 50.26 38.0597 50.26C38.1897 50.26 38.1797 51.26 38.2997 51.26C38.7279 49.9718 38.9177 48.6163 38.8597 47.26C38.9285 46.2749 38.7497 45.2883 38.3397 44.39C38.2618 44.2544 38.175 44.1241 38.0797 44Z" fill="#1E6F5D"/>
<path d="M38.14 43.86C36.3427 46.1621 34.3666 48.3187 32.23 50.31C31.1876 51.3432 30.0713 52.2991 28.89 53.17C27.6786 54.0057 26.3933 54.7287 25.05 55.33L25 55.25C26 54.18 27.18 53.31 28.28 52.37C29.38 51.43 30.58 50.62 31.7 49.71C33.9389 47.8683 36.0628 45.8913 38.06 43.79L38.14 43.86Z" fill="#231F20"/>
<path d="M36.6504 45.49C36.1628 45.6797 35.6513 45.8009 35.1304 45.85C34.6375 45.88 34.1433 45.88 33.6504 45.85C32.6396 45.8764 31.6343 46.0071 30.6504 46.24V46.15C31.0859 45.8957 31.5368 45.6686 32.0004 45.47C32.5081 45.275 33.0295 45.1179 33.5604 45C34.07 44.8521 34.6002 44.7879 35.1304 44.81C35.6765 44.8639 36.2014 45.0492 36.6604 45.35L36.6504 45.49Z" fill="#231F20"/>
<path d="M36.6302 45.5C36.9957 45.8469 37.2616 46.2855 37.4002 46.77C37.4901 47.2492 37.4901 47.7409 37.4002 48.22C37.3551 49.1725 37.1558 50.1113 36.8102 51H36.7102C36.7824 50.0967 36.7589 49.1883 36.6402 48.29C36.5345 47.8623 36.4577 47.428 36.4102 46.99C36.3873 46.5162 36.4311 46.0416 36.5402 45.58L36.6302 45.5Z" fill="#231F20"/>
<path d="M34.62 47.68C34.1613 47.8686 33.681 47.9996 33.19 48.07C32.7303 48.0951 32.2697 48.0951 31.81 48.07C30.863 48.1647 29.9282 48.3557 29.02 48.64L29 48.58L30.29 47.84C30.7419 47.621 31.2141 47.4468 31.7 47.32C32.1794 47.1415 32.6886 47.0567 33.2 47.07C33.724 47.1042 34.2287 47.2806 34.66 47.58L34.62 47.68Z" fill="#231F20"/>
<path d="M34.6796 47.62C34.9568 47.9645 35.1302 48.3807 35.1796 48.82C35.1946 49.2212 35.1336 49.6216 34.9996 50C34.8328 50.801 34.5639 51.5774 34.1996 52.31H34.0996C34.1824 51.5296 34.2158 50.7447 34.1996 49.96C34.1599 49.5777 34.1599 49.1923 34.1996 48.81C34.2614 48.3928 34.3968 47.9898 34.5996 47.62H34.6796Z" fill="#231F20"/>
<path d="M31.9198 50.3C31.5913 50.4917 31.233 50.6269 30.8598 50.7C30.5273 50.733 30.1923 50.733 29.8598 50.7C29.1507 50.7472 28.4476 50.8611 27.7598 51.04V50.95L28.6998 50.34C29.0433 50.1659 29.4013 50.022 29.7698 49.91C30.1274 49.7609 30.5125 49.6893 30.8998 49.7C31.3127 49.7473 31.7007 49.9221 32.0098 50.2L31.9198 50.3Z" fill="#231F20"/>
<path d="M31.9997 50.24C32.2604 50.4798 32.433 50.8003 32.4897 51.15C32.5176 51.4667 32.4696 51.7855 32.3497 52.08C32.2071 52.6926 31.9782 53.2819 31.6697 53.83H31.5697C31.5998 53.2337 31.5998 52.6363 31.5697 52.04C31.5022 51.7586 31.4786 51.4685 31.4997 51.18C31.5672 50.8531 31.7073 50.5455 31.9097 50.28L31.9997 50.24Z" fill="#231F20"/>
<path d="M28.6096 52.79C28.3827 52.9844 28.1167 53.1276 27.8296 53.21C27.5996 53.29 27.3496 53.21 27.0996 53.21C26.583 53.2177 26.0679 53.2679 25.5596 53.36V53.27L26.2296 52.78C26.4767 52.6339 26.7381 52.5133 27.0096 52.42C27.2672 52.2825 27.5582 52.2202 27.8496 52.24C28.1697 52.2941 28.4584 52.4651 28.6596 52.72L28.6096 52.79Z" fill="#231F20"/>
<path d="M28.6597 52.74C28.7816 52.8101 28.8874 52.9051 28.9701 53.0188C29.0528 53.1325 29.1106 53.2624 29.1397 53.4C29.2197 53.63 29.0797 53.86 29.0097 54.09C28.8811 54.5386 28.682 54.9639 28.4197 55.35H28.3197C28.3197 54.9 28.2697 54.46 28.2197 54.05C28.2197 53.83 28.0697 53.63 28.1397 53.43C28.2196 53.1799 28.3645 52.9556 28.5597 52.78L28.6597 52.74Z" fill="#231F20"/>
<path d="M48.7696 92.06C47.673 89.9717 46.9232 87.719 46.5496 85.39C46.1443 83.0277 46.2054 80.6088 46.7296 78.27C47.0319 77.1175 47.4334 75.9933 47.9296 74.91C48.4096 73.84 48.9296 72.82 49.2896 71.74C49.9646 69.5781 49.9646 67.2619 49.2896 65.1C48.792 63.0225 47.6384 61.1605 45.9996 59.79C45.6321 59.4914 45.216 59.258 44.7696 59.1C44.3996 58.97 43.7096 58.87 43.0696 58.62C41.9018 58.1307 40.8211 57.4553 39.8696 56.62C37.8892 55.0036 36.5984 52.6938 36.2596 50.16C36.0159 47.7083 36.753 45.2598 38.3096 43.35C38.318 43.3396 38.3287 43.3312 38.3408 43.3254C38.3529 43.3196 38.3662 43.3166 38.3796 43.3166C38.393 43.3166 38.4063 43.3196 38.4184 43.3254C38.4305 43.3312 38.4412 43.3396 38.4496 43.35C38.4626 43.3673 38.4696 43.3884 38.4696 43.41C38.4696 43.4317 38.4626 43.4527 38.4496 43.47C37.5481 45.4911 37.3134 47.7467 37.7796 49.91C38.3442 51.9451 39.5682 53.7353 41.2596 55C42.0672 55.6614 42.9499 56.2253 43.8896 56.68C44.3196 56.89 44.7796 56.96 45.4896 57.23C46.1188 57.4922 46.7001 57.8572 47.2096 58.31C49.0809 60.0094 50.2207 62.3679 50.3896 64.89C50.6778 67.2326 50.5149 69.6087 49.9096 71.89C49.2045 74.0579 48.6892 76.2829 48.3696 78.54C48.061 80.739 47.9673 82.9628 48.0896 85.18C48.272 87.4679 48.5758 89.7444 48.9996 92C49.0025 92.0126 49.0027 92.0256 49.0001 92.0383C48.9975 92.0509 48.9923 92.0629 48.9847 92.0733C48.9771 92.0837 48.9674 92.0924 48.9561 92.0987C48.9449 92.1051 48.9324 92.1089 48.9196 92.11C48.9069 92.1185 48.8924 92.124 48.8773 92.126C48.8622 92.1281 48.8468 92.1266 48.8323 92.1218C48.8178 92.117 48.8047 92.1089 48.7938 92.0982C48.7829 92.0875 48.7746 92.0744 48.7696 92.06Z" fill="#1E6F5D"/>
<path d="M56.3599 56.27C57.9247 55.3681 59.3867 54.2984 60.7199 53.08C61.6885 52.1995 62.5816 51.2395 63.3899 50.21C61.5799 51.12 61.1099 51.21 61.0499 51.15C60.9899 51.09 61.8899 50.41 62.7299 49.35C63.3724 48.5294 63.8419 47.5871 64.1099 46.58L62.1899 48C63.1756 46.639 63.7232 45.01 63.7599 43.33C63.7602 42.4905 63.6251 41.6565 63.3599 40.86L62.3599 42.43C62.5871 41.6767 62.5871 40.8732 62.3599 40.12C62.1697 39.4118 61.7852 38.771 61.2499 38.27L60.5099 39.49C60.3307 38.4553 60.0216 37.4473 59.5899 36.49C59.0745 35.3574 58.4011 34.3036 57.5899 33.36L54.2999 38.44C54.2999 38.04 54.2399 37.83 54.1199 37.81C53.8199 37.7633 53.1532 39.43 52.1199 42.81L51.5299 41.89C50.7752 42.8425 50.3694 44.0247 50.3799 45.24C50.4499 46.43 51.0199 47.45 50.8399 47.55C50.6599 47.65 50.5199 47.43 49.8399 46.55C49.5564 47.3935 49.5564 48.3065 49.8399 49.15C50.1399 50.01 50.7499 50.65 50.6399 50.75C50.5299 50.85 49.6399 49.98 49.5099 50.07C49.3799 50.16 50.8599 52.2 52.6599 54C53.5279 54.9245 54.5901 55.6451 55.7699 56.11L56.3599 56.27Z" fill="#3E9581"/>
<path d="M56.3497 56.22C56.9597 55.8 57.6197 55.35 58.2297 54.88C58.8397 54.41 59.4197 53.88 59.9997 53.38C61.1339 52.3532 62.1685 51.2215 63.0897 50L63.5597 50.57C62.9486 50.8985 62.3211 51.1955 61.6797 51.46C61.5884 51.496 61.4949 51.526 61.3997 51.55H61.2197H61.0697H60.9397C60.8568 51.521 60.7839 51.469 60.7297 51.4C60.6647 51.314 60.6328 51.2075 60.6397 51.1C60.6322 51.0469 60.6322 50.9931 60.6397 50.94C60.6632 50.8864 60.6934 50.836 60.7297 50.79C60.7646 50.7392 60.8048 50.6923 60.8497 50.65L61.0397 50.46C61.2997 50.22 61.5297 50 61.7597 49.76C62.6642 48.8401 63.3183 47.7041 63.6597 46.46L64.3397 46.92L62.4097 48.35L60.1697 50L61.8597 47.76C62.588 46.8024 63.0967 45.6962 63.3497 44.52C63.5835 43.35 63.5216 42.1401 63.1697 41H63.5197L62.5197 42.55L61.8197 43.61L62.2097 42.4C62.4394 41.7091 62.4705 40.9677 62.2997 40.26C62.1044 39.5569 61.7206 38.9206 61.1897 38.42H61.4597L60.7297 39.66L60.4797 40.08L60.3897 39.59C59.9424 37.3761 58.906 35.324 57.3897 33.65H57.9697L54.7697 38.79L53.9997 40L53.9197 38.53C53.9265 38.4268 53.9265 38.3232 53.9197 38.22C53.9197 38.22 53.9197 38.14 53.9197 38.22C53.9656 38.2929 54.0368 38.3463 54.1197 38.37C54.1822 38.3842 54.2471 38.3842 54.3097 38.37H54.4097C54.4997 38.3 54.4097 38.42 54.3397 38.5C54.2697 38.58 54.2397 38.7 54.1897 38.81C53.989 39.2638 53.8121 39.7278 53.6597 40.2C53.3297 41.2 53.0297 42.13 52.7397 43.11L52.4097 44.2L51.7897 43.2L51.1897 42.28H52.0697C51.3753 43.1676 51.0207 44.2741 51.0697 45.4C51.1317 45.9834 51.2626 46.5574 51.4597 47.11C51.4888 47.2052 51.5122 47.302 51.5297 47.4C51.5585 47.5149 51.5585 47.6351 51.5297 47.75C51.4991 47.828 51.4533 47.8991 51.3949 47.9592C51.3366 48.0193 51.2668 48.0672 51.1897 48.1C51.0637 48.1458 50.9256 48.1458 50.7997 48.1C50.6571 48.0495 50.5298 47.9634 50.4297 47.85C50.3584 47.7917 50.2915 47.7282 50.2297 47.66C50.0143 47.4157 49.8139 47.1585 49.6297 46.89L50.4897 46.74C50.2972 47.2779 50.2222 47.8507 50.2697 48.42C50.3008 48.9748 50.4581 49.5152 50.7297 50C50.8097 50.14 50.8897 50.26 50.9897 50.45C51.0369 50.5362 51.0642 50.6319 51.0697 50.73C51.0933 50.798 51.0933 50.872 51.0697 50.94C51.0517 50.9891 51.0238 51.0341 50.9877 51.0719C50.9515 51.1098 50.908 51.1398 50.8597 51.16C50.7494 51.1973 50.6299 51.1973 50.5197 51.16C50.4004 51.1188 50.2889 51.058 50.1897 50.98C49.9097 50.79 49.6297 50.53 49.4797 50.44C49.4797 50.44 49.4797 50.44 49.5797 50.44C49.6645 50.4409 49.7467 50.4109 49.8111 50.3557C49.8754 50.3006 49.9176 50.2239 49.9297 50.14C49.9297 50.04 49.9297 50.05 49.9297 50.05L50.0197 50.22C50.0897 50.34 50.1697 50.47 50.2597 50.6C50.3497 50.73 50.6097 51.11 50.7997 51.36C51.5613 52.3616 52.3898 53.3104 53.2797 54.2C54.129 55.1065 55.1811 55.7987 56.3497 56.22ZM56.3497 56.32C55.0816 56.0143 53.9075 55.4033 52.9297 54.54C51.9654 53.6924 51.063 52.7767 50.2297 51.8C50.0197 51.55 49.8097 51.3 49.6097 51.04C49.4097 50.78 49.4197 50.78 49.3197 50.63L49.1797 50.38V50.27V50.21C49.1797 50.21 49.1797 50.21 49.1797 50.06C49.1898 49.9566 49.2388 49.8609 49.3167 49.7922C49.3947 49.7235 49.4958 49.687 49.5997 49.69C49.6728 49.6881 49.7452 49.7053 49.8097 49.74C50.1009 49.9129 50.3814 50.1033 50.6497 50.31C50.6497 50.31 50.7797 50.38 50.7297 50.37C50.6797 50.36 50.7297 50.37 50.5097 50.37C50.434 50.4087 50.374 50.4722 50.3397 50.55C50.3343 50.6032 50.3343 50.6568 50.3397 50.71C50.3397 50.84 50.3397 50.78 50.3397 50.77C50.3397 50.76 50.1897 50.54 50.1097 50.4C49.6987 49.8312 49.428 49.1733 49.3197 48.48C49.2345 47.7777 49.2992 47.0654 49.5097 46.39L49.7797 45.49L50.3797 46.25C50.5697 46.48 50.7497 46.73 50.9397 46.93L51.0697 47.07C51.0697 47.07 51.1797 47.13 51.0697 47.07C50.9824 47.0387 50.887 47.0387 50.7997 47.07C50.7252 47.0943 50.6593 47.1394 50.6097 47.2C50.5764 47.2426 50.5495 47.2897 50.5297 47.34C50.5297 47.49 50.5297 47.44 50.5297 47.46V47.3C50.3063 46.6829 50.1553 46.0419 50.0797 45.39C50.0219 44.0125 50.4541 42.659 51.2997 41.57L51.5997 41L52.0197 41.64L52.6097 42.56L51.6697 42.69C51.9797 41.69 52.2997 40.69 52.6697 39.76C52.8497 39.27 53.0397 38.76 53.2697 38.29L53.4697 37.91C53.5662 37.7251 53.7071 37.567 53.8797 37.45C53.9368 37.4104 54.0015 37.3832 54.0697 37.37C54.1654 37.3503 54.264 37.3503 54.3597 37.37C54.4969 37.4255 54.6126 37.5237 54.6897 37.65C54.7453 37.7527 54.7826 37.8644 54.7997 37.98C54.8132 38.1297 54.8132 38.2803 54.7997 38.43L53.9997 38.21L57.3697 33.21L57.6497 32.8L57.9497 33.18C59.4184 35.0139 60.3835 37.1991 60.7497 39.52L60.3997 39.46L61.1597 38.24L61.2697 38.05L61.4197 38.2C61.9847 38.7522 62.3871 39.449 62.5828 40.2144C62.7786 40.9798 62.7602 41.7843 62.5297 42.54L62.2197 42.39L63.2197 40.82L63.4297 40.48L63.5697 40.86C64.0169 42.0807 64.1543 43.3932 63.9697 44.68C63.7709 45.9724 63.2895 47.205 62.5597 48.29L61.9997 47.7L63.8997 46.23L64.8997 45.48L64.5997 46.69C64.2469 48.0885 63.509 49.36 62.4697 50.36C62.2197 50.61 61.9497 50.85 61.6997 51.07L61.5397 51.22V51.28C61.5397 51.28 61.5397 51.28 61.5397 51.18C61.5434 51.1366 61.5382 51.093 61.5244 51.0517C61.5107 51.0105 61.4886 50.9725 61.4597 50.94C61.4227 50.886 61.3705 50.8442 61.3097 50.82L61.5097 50.76C62.1097 50.54 62.7297 50.24 63.3297 49.95L64.8697 49.2L63.7997 50.52C62.7944 51.737 61.6687 52.8493 60.4397 53.84C59.8287 54.3345 59.1911 54.7952 58.5297 55.22C57.8298 55.6312 57.1051 55.9986 56.3597 56.32H56.3497Z" fill="#231F20"/>
<path d="M56.2095 56.11C57.4555 55.2678 58.6086 54.2956 59.6495 53.21C60.4081 52.4225 61.1036 51.5766 61.7295 50.68C60.2895 51.54 59.9095 51.68 59.8595 51.59C59.8095 51.5 60.5195 50.93 61.1695 50C61.6562 49.2839 61.9961 48.4784 62.1695 47.63L60.6995 48.94C61.4535 47.765 61.8495 46.3961 61.8395 45C61.8211 44.3164 61.6893 43.6405 61.4495 43L60.6695 44.36C60.8548 43.7368 60.8548 43.0732 60.6695 42.45C60.4932 41.8831 60.1562 41.3794 59.6995 41L59.1395 42C58.7599 40.1693 57.8967 38.4739 56.6395 37.09L54.1195 41.5C54.1195 41.17 54.0395 41 53.9595 40.99C53.7095 40.99 53.2095 42.39 52.4595 45.26L51.9595 44.54C51.3788 45.3705 51.0839 46.3673 51.1195 47.38C51.2095 48.38 51.6995 49.17 51.5495 49.26C51.3995 49.35 51.2895 49.18 50.7195 48.47C50.4946 49.1691 50.4946 49.921 50.7195 50.62C50.9895 51.32 51.5095 51.81 51.4195 51.89C51.3295 51.97 50.5695 51.32 50.4795 51.4C51.1764 52.5504 52.0739 53.5665 53.1295 54.4C53.8554 55.134 54.7471 55.6828 55.7295 56C55.8872 56.0462 56.0475 56.0829 56.2095 56.11Z" fill="#1E6F5D"/>
<path d="M56.3098 56.27C55.8062 53.5113 55.5419 50.7142 55.5198 47.91C55.4634 46.5046 55.5169 45.097 55.6798 43.7C55.883 42.3048 56.2179 40.932 56.6798 39.6H56.7798C56.8498 41.02 56.7098 42.4 56.6598 43.78C56.6098 45.16 56.3898 46.53 56.2998 47.91C56.1498 50.6857 56.1799 53.4682 56.3898 56.24L56.3098 56.27Z" fill="#231F20"/>
<path d="M56.0996 54.15C56.3117 53.6863 56.5841 53.2526 56.9096 52.86C57.2374 52.5041 57.5881 52.17 57.9596 51.86C58.6459 51.154 59.2498 50.3724 59.7596 49.53H59.8496C59.7108 50.0303 59.5404 50.5213 59.3396 51C59.1179 51.4671 58.864 51.9182 58.5796 52.35C58.3184 52.8079 57.9801 53.2173 57.5796 53.56C57.1603 53.8999 56.6612 54.1271 56.1296 54.22L56.0996 54.15Z" fill="#231F20"/>
<path d="M56.0995 54.14C55.59 54.1821 55.0785 54.0853 54.6195 53.86C54.1897 53.6251 53.8067 53.3133 53.4895 52.94C52.7979 52.2656 52.2173 51.486 51.7695 50.63L51.8495 50.57C52.5065 51.223 53.2267 51.8092 53.9995 52.32C54.3998 52.5262 54.7872 52.7567 55.1595 53.01C55.5346 53.2988 55.8707 53.635 56.1595 54.01L56.0995 54.14Z" fill="#231F20"/>
<path d="M55.8496 51.3C56.0357 50.8546 56.2776 50.4345 56.5696 50.05C56.864 49.6994 57.1779 49.3656 57.5096 49.05C57.8117 48.7234 58.0859 48.3722 58.3296 48L59.0296 46.78H59.1196L58.7796 48.19C58.6119 48.6505 58.4045 49.0955 58.1596 49.52C57.9526 49.9741 57.6568 50.3821 57.2896 50.72C56.895 51.0528 56.4185 51.2738 55.9096 51.36L55.8496 51.3Z" fill="#231F20"/>
<path d="M55.8503 51.38C55.408 51.3636 54.9788 51.2251 54.6103 50.98C54.2751 50.7247 53.9902 50.4094 53.7703 50.05C53.2639 49.3984 52.8469 48.6821 52.5303 47.92L52.6203 47.87C53.1622 48.4491 53.74 48.9935 54.3503 49.5C54.6789 49.7062 54.984 49.9477 55.2603 50.22C55.5435 50.5355 55.7641 50.902 55.9103 51.3L55.8503 51.38Z" fill="#231F20"/>
<path d="M55.7295 47.69C55.8252 47.3331 55.9808 46.9949 56.1895 46.69C56.4033 46.4345 56.641 46.2001 56.8995 45.99C57.3676 45.4796 57.7737 44.9157 58.1095 44.31H58.2095L57.9995 45.41C57.8876 45.756 57.7436 46.0908 57.5695 46.41C57.4236 46.7639 57.2017 47.0814 56.9195 47.34C56.5977 47.5868 56.205 47.7235 55.7995 47.73L55.7295 47.69Z" fill="#231F20"/>
<path d="M55.7297 47.77C55.3813 47.8082 55.03 47.7309 54.7297 47.55C54.47 47.3614 54.2578 47.1149 54.1097 46.83C53.7319 46.3205 53.432 45.7577 53.2197 45.16H53.3097C53.7467 45.5693 54.204 45.9565 54.6797 46.32C54.9384 46.4563 55.1746 46.6317 55.3797 46.84C55.59 47.1019 55.7341 47.4106 55.7997 47.74L55.7297 47.77Z" fill="#231F20"/>
<path d="M56.1504 43.74C56.1684 43.4509 56.254 43.17 56.4004 42.92C56.5104 42.7 56.7504 42.61 56.9304 42.44C57.3026 42.0887 57.6377 41.7 57.9304 41.28H58.0304L57.9204 42.09C57.8476 42.3615 57.7505 42.6259 57.6304 42.88C57.5426 43.1533 57.3839 43.3983 57.1704 43.59C56.903 43.7686 56.5781 43.8401 56.2604 43.79L56.1504 43.74Z" fill="#231F20"/>
<path d="M56.1503 43.82C55.881 43.898 55.5923 43.873 55.3403 43.75C55.1103 43.65 55.0203 43.4 54.8903 43.2C54.6338 42.8062 54.4414 42.3741 54.3203 41.92L54.4003 41.86C54.7603 42.15 55.1203 42.41 55.4703 42.64C55.6403 42.76 55.8803 42.8 55.9903 42.99C56.1265 43.2171 56.2022 43.4753 56.2103 43.74L56.1503 43.82Z" fill="#231F20"/>
<path d="M40.0698 64.22C40.1949 63.6655 40.2553 63.0984 40.2498 62.53C40.2505 62.117 40.2103 61.705 40.1298 61.3C39.9498 61.91 39.8698 62.04 39.8298 62.04C39.7898 62.04 39.8298 61.68 39.7598 61.26C39.6931 60.9315 39.5567 60.6212 39.3598 60.35L39.2998 61.1C39.1689 60.57 38.8751 60.0943 38.4598 59.74C38.2476 59.552 38.0039 59.403 37.7398 59.3L37.9098 59.87C37.7665 59.6504 37.5659 59.474 37.3298 59.36C37.1014 59.2539 36.8514 59.2026 36.5998 59.21L36.7498 59.65C36.4348 59.4647 36.0992 59.317 35.7498 59.21C35.3475 59.0856 34.9306 59.015 34.5098 59L35.0598 60.85C34.9598 60.76 34.8898 60.73 34.8598 60.75C34.8298 60.77 35.0498 61.33 35.6798 62.3L35.3098 62.24C35.3864 62.6333 35.5988 62.9873 35.9098 63.24C36.2198 63.48 36.6198 63.57 36.5998 63.63C36.5798 63.69 36.4998 63.63 36.1098 63.63C36.2619 63.8829 36.4891 64.0822 36.7598 64.2C37.0498 64.32 37.3598 64.31 37.3598 64.36C37.3598 64.41 36.9298 64.43 36.9198 64.47C37.4828 64.6027 38.0637 64.6433 38.6398 64.59C39.0698 64.5896 39.4952 64.5011 39.8898 64.33L40.0698 64.22Z" fill="#1E6F5D"/>
<path d="M40.0002 64.19V63.48C40.0002 63.24 40.0002 62.99 40.0002 62.76C40.0002 62.28 39.8602 61.81 39.7902 61.35H40.3402C40.2855 61.5713 40.2153 61.7885 40.1302 62C40.1356 62.0331 40.1356 62.0669 40.1302 62.1C40.1345 62.1265 40.1345 62.1535 40.1302 62.18L40.0602 62.25C40.014 62.2745 39.9625 62.2873 39.9102 62.2873C39.8579 62.2873 39.8064 62.2745 39.7602 62.25C39.5102 62.09 39.5902 62.03 39.5502 62V61.82V61.52C39.506 61.1593 39.3719 60.8154 39.1602 60.52L39.7702 60.36C39.7702 60.61 39.7102 60.86 39.6802 61.11L39.4202 63.11L39.0602 61.11C38.9923 60.7381 38.8385 60.3871 38.6111 60.085C38.3836 59.783 38.0889 59.5381 37.7502 59.37L37.9602 59.18L38.1002 59.76L38.3202 60.67L37.8702 59.87C37.7495 59.6671 37.5735 59.5028 37.3627 59.3965C37.1519 59.2903 36.9151 59.2464 36.6802 59.27L36.7902 59.1L36.9402 59.53L37.0402 59.82L36.7502 59.69L36.2202 59.48C36.0402 59.42 35.8702 59.34 35.6902 59.29C35.3234 59.204 34.9467 59.167 34.5702 59.18L34.8302 58.84C35.0502 59.4533 35.2602 60.0633 35.4602 60.67L35.7702 61.59L34.9202 61.04H34.8602C34.8602 61.04 34.8602 61.04 34.9902 61.04C35.0436 61.0291 35.0935 61.0051 35.1354 60.9702C35.1772 60.9353 35.2098 60.8906 35.2302 60.84C35.2302 60.63 35.2302 60.73 35.2302 60.72V60.81C35.2902 60.93 35.3802 61.07 35.4602 61.21C35.5402 61.35 35.8102 61.76 36.0002 62.03L36.4902 62.76L35.6102 62.63L35.2402 62.58L35.6902 62.09C35.7459 62.4065 35.9214 62.6895 36.1802 62.88C36.333 62.9852 36.4974 63.0725 36.6702 63.14L36.8002 63.22L36.8702 63.29C36.9064 63.3265 36.9341 63.3705 36.9514 63.4189C36.9687 63.4672 36.9751 63.5189 36.9702 63.57C36.969 63.633 36.953 63.6948 36.9235 63.7504C36.894 63.806 36.8517 63.8538 36.8002 63.89L36.6802 63.95C36.5871 63.9602 36.4932 63.9602 36.4002 63.95H36.0602L36.4202 63.38C36.4973 63.5299 36.6093 63.659 36.7468 63.7565C36.8843 63.854 37.0432 63.9169 37.2102 63.94H37.4002C37.4002 63.94 37.4702 63.94 37.6302 64.13C37.6476 64.1694 37.6565 64.212 37.6565 64.255C37.6565 64.298 37.6476 64.3406 37.6302 64.38C37.6108 64.4298 37.58 64.4743 37.5402 64.51L37.4402 64.57H37.3002H37.1302C37.1302 64.57 36.9702 64.57 37.1302 64.57C37.2902 64.57 37.1302 64.57 37.2102 64.5C37.2362 64.429 37.2362 64.351 37.2102 64.28C37.2059 64.2464 37.1949 64.214 37.1777 64.1847C37.1605 64.1555 37.1375 64.1301 37.1102 64.11H37.2502H37.5602C37.9775 64.1702 38.3986 64.2003 38.8202 64.2C39.2099 64.2796 39.6119 64.2762 40.0002 64.19ZM40.0602 64.19C39.6865 64.4538 39.2539 64.622 38.8002 64.68C38.3625 64.7368 37.9215 64.7636 37.4802 64.76H37.1402H36.9602H36.8602H36.7602C36.7008 64.7128 36.6615 64.645 36.6502 64.57C36.6333 64.534 36.6245 64.4948 36.6245 64.455C36.6245 64.4152 36.6333 64.376 36.6502 64.34C36.6732 64.3037 36.7039 64.273 36.7402 64.25C36.824 64.2056 36.9158 64.1784 37.0102 64.17H37.1502C37.1502 64.17 37.2002 64.17 37.1502 64.17C37.1002 64.17 37.1502 64.17 37.0902 64.17C37.0521 64.2032 37.0214 64.2441 37.0002 64.29C36.975 64.3646 36.975 64.4454 37.0002 64.52C37.1602 64.74 37.1602 64.65 37.1702 64.68H37.0502C36.7845 64.6576 36.5275 64.5747 36.2987 64.4378C36.07 64.3009 35.8755 64.1135 35.7302 63.89L35.3602 63.26L36.0902 63.32H36.3702C36.3702 63.32 36.4702 63.32 36.3702 63.32H36.2802C36.2346 63.3521 36.1967 63.3938 36.169 63.4422C36.1414 63.4906 36.1247 63.5445 36.1202 63.6C36.1182 63.6916 36.1503 63.7807 36.2102 63.85L36.2602 63.9C36.0482 63.8186 35.8441 63.7182 35.6502 63.6C35.2331 63.2952 34.9443 62.846 34.8402 62.34L34.7102 61.74L35.3002 61.85L35.6602 61.92L35.2702 62.52C35.1002 62.23 34.9202 61.94 34.7602 61.64C34.6669 61.4854 34.5834 61.3251 34.5102 61.16L34.5402 61C34.4961 60.8875 34.4961 60.7625 34.5402 60.65C34.5609 60.5885 34.5978 60.5337 34.6471 60.4914C34.6964 60.4492 34.7562 60.421 34.8202 60.41C34.8857 60.3921 34.9547 60.3921 35.0202 60.41C35.0668 60.422 35.1108 60.4423 35.1502 60.47C35.2023 60.495 35.2497 60.5288 35.2902 60.57L34.7502 60.93C34.5902 60.31 34.4302 59.69 34.2902 59.06L34.2002 58.69H34.5502C34.956 58.7336 35.3553 58.8242 35.7402 58.96C36.1202 59.12 36.4702 59.33 36.8302 59.49L36.6402 59.65L36.5002 59.21V59.05H36.6602C36.9273 59.0587 37.1883 59.1313 37.4215 59.2618C37.6547 59.3924 37.8531 59.5769 38.0002 59.8L37.7602 59.9L37.5702 59.34L37.4702 59.05L37.7802 59.15C38.2099 59.2894 38.5997 59.5303 38.9166 59.8523C39.2334 60.1744 39.4679 60.568 39.6002 61H38.9802C38.9802 60.75 38.9802 60.5 39.0302 60.25L39.1102 59.38L39.6402 60.09C39.9297 60.4897 40.0933 60.9667 40.1102 61.46V61.87C40.1102 61.87 40.1702 61.87 39.9402 61.68C39.9001 61.659 39.8555 61.648 39.8102 61.648C39.7649 61.648 39.7203 61.659 39.6802 61.68C39.7502 61.52 39.8202 61.3 39.8902 61.11L40.3702 59.64L40.4302 61.13V61.9C40.4452 62.1498 40.4452 62.4002 40.4302 62.65C40.4056 62.9022 40.3656 63.1527 40.3102 63.4C40.2625 63.6851 40.1922 63.966 40.1002 64.24L40.0602 64.19Z" fill="#231F20"/>
<path d="M49.2601 64.51C46.9849 63.4442 44.3895 63.2833 42.0001 64.06C40.6281 64.5685 39.3876 65.3784 38.3701 66.43" stroke="#1E6F5D" stroke-width="2" stroke-miterlimit="10" stroke-linecap="round"/>
<path d="M39.7597 64.81C40.212 65.1759 40.7054 65.488 41.2297 65.74C41.615 65.9294 42.0166 66.0834 42.4297 66.2C41.9497 65.77 41.8697 65.65 41.8997 65.62C41.9297 65.59 42.2197 65.78 42.6497 65.91C42.9743 66.0035 43.3137 66.034 43.6497 66L42.9997 65.6C43.5553 65.734 44.1372 65.7098 44.6797 65.53C44.9573 65.4387 45.2201 65.3073 45.4597 65.14L44.8797 65C45.1393 64.9902 45.3919 64.9132 45.6128 64.7765C45.8336 64.6397 46.0152 64.448 46.1397 64.22L45.6597 64.14C45.9839 63.9657 46.2889 63.7579 46.5697 63.52C46.8841 63.2459 47.1629 62.9334 47.3997 62.59L45.3997 62.2C45.5297 62.14 45.5897 62.1 45.5897 62.07C45.5897 62.04 44.9597 61.97 43.7397 62.07L43.9897 61.8C43.5974 61.6667 43.172 61.6667 42.7797 61.8C42.3897 61.95 42.1097 62.24 42.0597 62.19C42.0097 62.14 42.0597 62.09 42.2997 61.78C41.9962 61.7943 41.7023 61.8911 41.4497 62.06C41.1897 62.25 41.0397 62.51 40.9997 62.48C40.9597 62.45 41.1497 62.1 41.1097 62.07C40.7054 62.4704 40.3678 62.9329 40.1097 63.44C39.8913 63.7911 39.7578 64.1883 39.7197 64.6C39.728 64.6709 39.7414 64.7411 39.7597 64.81Z" fill="#1E6F5D"/>
<path d="M39.7904 64.8L40.4404 65.16L41.1104 65.47C41.3366 65.5693 41.5708 65.6496 41.8104 65.71L42.5104 65.93L42.2404 66.41C42.0571 66.2576 41.8834 66.0939 41.7204 65.92L41.6404 65.81C41.616 65.7387 41.616 65.6613 41.6404 65.59C41.6505 65.5252 41.6797 65.465 41.7242 65.4169C41.7688 65.3688 41.8266 65.3351 41.8904 65.32H42.0004C42.0794 65.3393 42.1564 65.3661 42.2304 65.4L42.5204 65.53C42.892 65.6617 43.2881 65.7095 43.6804 65.67L43.5404 66.29C43.3204 66.16 43.1004 66.01 42.8904 65.87L41.0004 64.65L43.1004 65.3C43.4832 65.4153 43.8861 65.4482 44.2825 65.3965C44.679 65.3447 45.0599 65.2096 45.4004 65L45.4604 65.27L44.8504 65.13L43.8504 64.89H44.8504C45.0888 64.8832 45.3211 64.8129 45.5232 64.6863C45.7254 64.5597 45.8901 64.3815 46.0004 64.17L46.0904 64.35L45.6104 64.28H45.2904L45.6004 64C45.9104 63.77 46.2104 63.54 46.5004 63.3C46.7685 63.0412 46.9976 62.7448 47.1804 62.42L47.3504 62.83C46.6804 62.73 46.0104 62.63 45.3504 62.51L44.3004 62.33L45.3004 61.85H45.3804C45.3804 61.85 45.3204 61.85 45.2904 62.03C45.269 62.0949 45.269 62.165 45.2904 62.23C45.3107 62.268 45.3378 62.3019 45.3704 62.33C45.5004 62.4 45.4304 62.33 45.3704 62.33H45.2704C45.1072 62.3202 44.9436 62.3202 44.7804 62.33C44.4404 62.33 44.0904 62.33 43.7804 62.4L42.8304 62.48L43.4604 61.75L43.7004 61.46L43.9004 62.11C43.5758 62.0017 43.2249 62.0017 42.9004 62.11C42.7262 62.1829 42.5617 62.277 42.4104 62.39L42.3104 62.45H42.2004C42.1348 62.4669 42.066 62.4669 42.0004 62.45C41.9287 62.4383 41.8617 62.4069 41.8069 62.3592C41.7521 62.3115 41.7118 62.2494 41.6904 62.18C41.6619 62.0888 41.6619 61.9912 41.6904 61.9V61.82L41.7504 61.72C41.8131 61.6214 41.8833 61.5278 41.9604 61.44L42.2704 62.03C42.1026 62.0235 41.9354 62.0531 41.7801 62.117C41.6248 62.1808 41.4851 62.2774 41.3704 62.4L41.2504 62.51C41.2205 62.5564 41.1792 62.5943 41.1304 62.62C41.0896 62.6388 41.0453 62.6486 41.0004 62.6486C40.9555 62.6486 40.9111 62.6388 40.8704 62.62C40.7204 62.62 40.6204 62.36 40.6404 62.36C40.631 62.3071 40.631 62.2529 40.6404 62.2C40.6763 62.0937 40.7198 61.9901 40.7704 61.89C40.7704 61.89 40.7204 61.89 40.8604 62.11C40.9048 62.1397 40.957 62.1555 41.0104 62.1555C41.0638 62.1555 41.116 62.1397 41.1604 62.11L41.0704 62.2L40.8704 62.43C40.6047 62.7465 40.3609 63.0806 40.1404 63.43C39.9088 63.8494 39.7884 64.321 39.7904 64.8ZM39.7304 64.8C39.678 64.3523 39.7507 63.8989 39.9404 63.49C40.1138 63.0915 40.3177 62.7071 40.5504 62.34L40.7404 62.06L40.8504 61.92C40.8896 61.8747 40.9371 61.8374 40.9904 61.81C41.0409 61.7769 41.1 61.7592 41.1604 61.7592C41.2208 61.7592 41.2799 61.7769 41.3304 61.81C41.4804 62.02 41.4004 62.01 41.4204 62.07C41.4293 62.1027 41.4293 62.1373 41.4204 62.17C41.3851 62.2615 41.355 62.355 41.3304 62.45C41.3304 62.45 41.3304 62.45 41.3304 62.37C41.3304 62.29 41.2604 62.16 41.1304 62.14C41.0004 62.12 40.9504 62.14 40.9004 62.14C40.8504 62.14 40.9004 62.14 40.9004 62.14L41.0004 62.01C41.1639 61.8127 41.3665 61.6514 41.5954 61.5361C41.8243 61.4208 42.0745 61.354 42.3304 61.34H43.0704L42.6404 61.97L42.4904 62.2C42.4904 62.2 42.4904 62.2 42.4904 62C42.4693 61.9376 42.4325 61.8818 42.3834 61.838C42.3343 61.7942 42.2747 61.7639 42.2104 61.75C42.1577 61.738 42.103 61.738 42.0504 61.75C42.2356 61.6041 42.4369 61.48 42.6504 61.38C43.1261 61.1807 43.6562 61.1524 44.1504 61.3L44.7904 61.46L44.3604 61.95L44.1104 62.22L43.7904 61.57H44.8504H45.4104H45.5704C45.6737 61.5858 45.7726 61.6233 45.8604 61.68C45.9 61.7143 45.9338 61.7548 45.9604 61.8C46.0023 61.8689 46.0199 61.9499 46.0104 62.03C45.9912 62.1209 45.946 62.2043 45.8804 62.27L45.7504 62.36L45.5904 62.43L45.5304 61.77C46.1904 61.91 46.8504 62.07 47.5304 62.24L47.9304 62.34L47.6904 62.65C47.4427 62.9761 47.1536 63.2685 46.8304 63.52C46.4904 63.76 46.1304 63.95 45.8304 64.17V63.91L46.3004 64H46.4804L46.3904 64.15C46.2482 64.3923 46.0491 64.5962 45.8104 64.7443C45.5717 64.8924 45.3006 64.9802 45.0204 65V64.75L45.6404 64.85L45.9604 64.9L45.6904 65.12C45.3292 65.4125 44.9084 65.6222 44.4575 65.7345C44.0066 65.8468 43.5365 65.8589 43.0804 65.77L43.3104 65.19C43.5404 65.32 43.7704 65.44 43.9904 65.58L44.8004 66.08L43.8004 66.2C43.3019 66.253 42.7983 66.1737 42.3404 65.97C42.228 65.9886 42.1143 65.9986 42.0004 66C42.0004 66 41.8704 66 41.9204 66C41.9535 66.0052 41.9872 66.0052 42.0204 66C42.0769 65.9866 42.128 65.9566 42.1672 65.9138C42.2065 65.871 42.2319 65.8174 42.2404 65.76C42.2404 65.6 42.2404 65.63 42.2404 65.61C42.2404 65.59 42.2404 65.61 42.2404 65.61C42.3729 65.7699 42.5166 65.9203 42.6704 66.06L43.8304 67.18L42.4004 66.53L41.6804 66.21C41.4437 66.1108 41.2132 65.9973 40.9904 65.87C40.7686 65.7373 40.5579 65.5868 40.3604 65.42C40.1302 65.2461 39.919 65.0483 39.7304 64.83V64.8Z" fill="#231F20"/>
<path d="M46.9995 59.32C46.2195 58.43 43.3395 54.92 44.1895 50.6C44.2596 49.777 44.5384 48.9854 44.9995 48.3C45.474 47.6805 46.1011 47.1946 46.8195 46.89C48.5995 46.18 51.4995 47.49 53.6295 50.37" stroke="#1E6F5D" stroke-width="2" stroke-miterlimit="10" stroke-linecap="round"/>
<path d="M28.3297 56.47C28.9797 57.85 29.6497 59.28 31.1997 59.83C32.9597 60.46 34.7997 59.61 36.2797 58.92C38.1991 58.0237 39.8729 56.6759 41.1581 54.992C42.4433 53.308 43.3016 51.3379 43.6597 49.25C43.6965 48.9913 43.6965 48.7287 43.6597 48.47C43.5697 48.05 43.2497 47.12 41.5697 46.12C39.9826 45.2724 38.2416 44.7521 36.4497 44.59C33.7097 44.19 32.2997 44 30.7897 44.68C29.8271 45.123 28.9991 45.8131 28.3897 46.68C27.5297 47.91 27.4997 49.06 27.4597 50.89C27.2805 52.7934 27.5796 54.7114 28.3297 56.47Z" fill="#ED1B36"/>
<path d="M28.36 56.45C28.7416 57.4342 29.3357 58.322 30.1 59.05C30.4936 59.375 30.9537 59.6097 31.4479 59.7375C31.942 59.8654 32.4582 59.8833 32.96 59.79C33.9701 59.599 34.9469 59.2622 35.86 58.79C36.33 58.55 36.79 58.32 37.24 58.07C37.6889 57.8113 38.123 57.5275 38.54 57.22C40.253 56.004 41.6294 54.3731 42.54 52.48C43.0316 51.5399 43.3692 50.527 43.54 49.48C43.6231 48.9715 43.5314 48.4498 43.28 48C43.0265 47.5624 42.6862 47.1813 42.28 46.88C41.4497 46.2689 40.5091 45.8241 39.51 45.57C38.5009 45.3099 37.4752 45.1195 36.44 45C34.35 44.76 32.19 44.27 30.44 45.31C29.5763 45.8036 28.8561 46.5135 28.35 47.37C27.8971 48.2772 27.6577 49.276 27.65 50.29C27.5504 51.3402 27.5203 52.3958 27.56 53.45C27.6509 54.4888 27.9216 55.5039 28.36 56.45ZM28.29 56.45C27.4425 54.4803 27.0626 52.3411 27.18 50.2C27.0946 49.1032 27.2872 48.0026 27.74 47C28.2777 45.9976 29.0892 45.1687 30.08 44.61C31.067 44.039 32.2027 43.7777 33.34 43.86C34.4134 43.9426 35.4816 44.0828 36.54 44.28C37.6059 44.441 38.6564 44.6919 39.68 45.03C40.727 45.3539 41.6968 45.8881 42.53 46.6C42.9485 46.9567 43.2889 47.3958 43.53 47.89C43.7561 48.4053 43.8223 48.9766 43.72 49.53C43.5098 50.583 43.1741 51.607 42.72 52.58C41.8519 54.5653 40.5297 56.319 38.86 57.7C38.0112 58.377 37.0764 58.9386 36.08 59.37C35.1021 59.8557 34.0457 60.1638 32.96 60.28C32.414 60.3179 31.8661 60.2434 31.3501 60.0611C30.8341 59.8788 30.3609 59.5925 29.96 59.22C29.2437 58.4141 28.6781 57.486 28.29 56.48V56.45Z" fill="#231F20"/>
<path d="M29.6702 55.81C30.2502 57 30.8402 58.24 32.2302 58.72C33.7902 59.26 35.4302 58.52 36.7502 57.92C38.4502 57.1564 39.9392 55.991 41.0889 54.5242C42.2386 53.0575 43.0147 51.3332 43.3502 49.5C43.3778 49.2742 43.3778 49.0458 43.3502 48.82C43.2702 48.46 42.9802 47.65 41.4802 46.82C40.063 46.0918 38.5175 45.6469 36.9302 45.51C34.4902 45.17 33.2402 45.01 31.9302 45.61C31.0758 45.991 30.3374 46.5913 29.7902 47.35C29.0202 48.42 28.9802 49.42 28.9502 51C28.7769 52.6385 29.0247 54.2941 29.6702 55.81Z" fill="#ED2A43"/>
<path d="M35.4799 44.76C35.0178 44.9526 34.6094 45.2546 34.2899 45.64C33.9684 46.0282 33.7637 46.4999 33.6999 47L35.9999 45.47C36.3617 45.7942 36.7828 46.0455 37.2399 46.21C37.6737 46.3786 38.1346 46.4667 38.5999 46.47C37.0999 45.29 36.8099 44.93 36.8799 44.84C36.9499 44.75 37.6399 45.16 38.7799 45.2C39.0463 45.2178 39.3136 45.2178 39.5799 45.2C39.3215 44.9683 39.0278 44.7793 38.7099 44.64C38.1708 44.4096 37.5848 44.3102 36.9999 44.35C37.5842 44.2495 38.1441 44.0391 38.6499 43.73C38.9096 43.5739 39.151 43.3894 39.3699 43.18C38.5239 43.0968 37.6702 43.2168 36.8799 43.53C36.6031 43.6431 36.3385 43.7838 36.0899 43.95C35.7727 43.6393 35.3995 43.3916 34.9899 43.22C34.4503 43.0028 33.8713 42.9006 33.2899 42.92C33.6954 43.5508 34.2958 44.0319 34.9999 44.29C34.378 44.1815 33.7419 44.1815 33.1199 44.29C32.5201 44.4072 31.945 44.6271 31.4199 44.94C31.9803 45.0448 32.55 45.0917 33.1199 45.08C33.9173 45.0783 34.7109 44.9707 35.4799 44.76Z" fill="#009444"/>
<path d="M35.5104 44.74C35.2604 44.96 35.0904 45.03 34.8904 45.2C34.7129 45.357 34.555 45.535 34.4204 45.73C34.1441 46.1006 33.9746 46.5399 33.9304 47L33.5704 46.77C34.3304 46.23 35.1004 45.72 35.8704 45.21L36.0604 45.08L36.2504 45.24C36.9273 45.7959 37.7655 46.1185 38.6404 46.16L38.4404 46.72C38.1004 46.45 37.7804 46.16 37.4404 45.86C37.2904 45.71 37.1304 45.56 36.9804 45.39C36.8941 45.3014 36.8171 45.2042 36.7504 45.1C36.7244 45.0633 36.7041 45.0228 36.6904 44.98C36.6675 44.9243 36.664 44.8625 36.6803 44.8045C36.6966 44.7465 36.7318 44.6957 36.7804 44.66C37.0404 44.56 37.0404 44.66 37.1204 44.66C37.5106 44.8228 37.9159 44.9468 38.3304 45.03C38.7458 45.0751 39.1649 45.0751 39.5804 45.03L39.5104 45.25C39.1721 44.9494 38.7721 44.7264 38.3385 44.5968C37.9049 44.4673 37.4482 44.4342 37.0004 44.5V44.2C37.4223 44.1107 37.8296 43.9626 38.2104 43.76C38.5662 43.534 38.9009 43.2763 39.2104 42.99L39.3704 43.45C38.8292 43.4146 38.2858 43.4652 37.7604 43.6C37.502 43.6648 37.2508 43.7553 37.0104 43.87L36.3104 44.25L36.0604 44.39L35.8704 44.2C35.1718 43.5851 34.2597 43.2691 33.3304 43.32L33.6604 42.71C34.0283 43.2668 34.5591 43.6963 35.1804 43.94L38.7104 45.34L34.9804 44.67C33.8272 44.4656 32.6388 44.6595 31.6104 45.22L31.5204 44.71C32.1763 44.8604 32.8475 44.9342 33.5204 44.93C33.8504 44.93 34.1904 44.93 34.5204 44.93C34.8504 44.93 35.0904 44.77 35.5104 44.74ZM35.4404 44.74C35.1465 44.899 34.8292 45.0104 34.5004 45.07C34.171 45.1527 33.8371 45.2162 33.5004 45.26C32.8027 45.34 32.0981 45.34 31.4004 45.26L30.6504 45.16L31.3004 44.74C32.4254 44.0232 33.7697 43.7324 35.0904 43.92L34.8904 44.65C34.0972 44.375 33.4182 43.8437 32.9604 43.14L32.6004 42.55H33.2804C33.8449 42.5246 34.4087 42.6154 34.9367 42.8166C35.4648 43.0179 35.9459 43.3253 36.3504 43.72H35.9004L36.7204 43.3C37.0045 43.1846 37.2992 43.0975 37.6004 43.04C38.1962 42.9402 38.8045 42.9402 39.4004 43.04L40.1004 43.13L39.5604 43.49C39.191 43.7837 38.7922 44.0384 38.3704 44.25C37.9268 44.3936 37.4661 44.4776 37.0004 44.5V44.2C37.4889 44.1559 37.9813 44.2102 38.4485 44.3596C38.9157 44.509 39.3482 44.7506 39.7204 45.07L39.9504 45.27H39.6504C39.2113 45.31 38.7695 45.31 38.3304 45.27C37.8819 45.2319 37.4372 45.1583 37.0004 45.05C37.0004 45.05 36.8704 45.05 37.0004 45.05C37.0276 45.0267 37.049 44.9975 37.0629 44.9645C37.0768 44.9315 37.0828 44.8957 37.0804 44.86C37.1419 44.9316 37.2088 44.9985 37.2804 45.06C37.4304 45.2 37.5904 45.33 37.7604 45.46L38.7604 46.24L39.5004 46.8H38.5604C37.522 46.8081 36.52 46.418 35.7604 45.71H36.1404C35.3504 46.2 34.5604 46.71 33.7504 47.14L33.3104 47.39L33.4004 46.91C33.4943 46.3837 33.7413 45.8968 34.1104 45.51C34.2894 45.3225 34.4909 45.158 34.7104 45.02C34.9237 44.8664 35.1777 44.7794 35.4404 44.77V44.74Z" fill="#231F20"/>
<path d="M28.5104 52.41C28.3104 52.41 28.1404 54.41 28.8704 56.25C29.2329 57.3264 29.9346 58.2563 30.8704 58.9C31.4004 59.25 32.2604 59.68 32.4304 59.51C32.6004 59.34 30.8504 58.22 30.0004 56C29.6104 55 29.1504 53.95 28.7504 52.92C28.6404 52.59 28.5704 52.4 28.5104 52.41Z" fill="white"/>
<path d="M30.89 48.24C31.11 48.33 32.08 47.24 31.84 46.9C31.7901 46.8495 31.7279 46.8128 31.6595 46.7935C31.5911 46.7742 31.5189 46.773 31.45 46.79C30.9 46.92 30.68 48.15 30.89 48.24Z" fill="#FFDE17"/>
<path d="M32.2302 49.94C32.4502 50.03 33.3902 48.94 33.1602 48.62C33.1126 48.5694 33.0518 48.5331 32.9845 48.5154C32.9173 48.4977 32.8465 48.4993 32.7802 48.52C32.2302 48.64 32.0002 49.85 32.2302 49.94Z" fill="#FFDE17"/>
<path d="M38.2998 48.53C38.5198 48.62 39.4598 47.53 39.2298 47.21C39.1822 47.1593 39.1214 47.1231 39.0541 47.1054C38.9869 47.0877 38.9161 47.0893 38.8498 47.11C38.2998 47.23 38.0898 48.45 38.2998 48.53Z" fill="#FFDE17"/>
<path d="M40.7197 50.43C40.9397 50.52 41.8797 49.43 41.6497 49.11C41.6009 49.0612 41.54 49.0262 41.4732 49.0086C41.4064 48.9911 41.3362 48.9915 41.2697 49.01C40.7197 49.13 40.5097 50.35 40.7197 50.43Z" fill="#FFDE17"/>
<path d="M35.9103 50.3C36.1303 50.39 37.0803 49.3 36.8503 48.99C36.8004 48.9394 36.7382 48.9027 36.6699 48.8834C36.6015 48.8642 36.5293 48.863 36.4603 48.88C35.9203 49 35.7103 50.22 35.9103 50.3Z" fill="#FFDE17"/>
<path d="M37.7099 52.7C37.9199 52.79 38.8699 51.7 38.6399 51.38C38.5917 51.3303 38.5308 51.2947 38.4639 51.2771C38.3969 51.2595 38.3264 51.2605 38.2599 51.28C37.7099 51.4 37.4999 52.62 37.7099 52.7Z" fill="#FFDE17"/>
<path d="M33.3697 52.42C33.5897 52.51 34.5297 51.42 34.3097 51.1C34.26 51.0495 34.1974 51.0134 34.1286 50.9958C34.0599 50.9782 33.9877 50.9796 33.9197 51C33.3697 51.12 33.1697 52.33 33.3697 52.42Z" fill="#FFDE17"/>
<path d="M29.8603 53.51C30.0703 53.6 31.0203 52.51 30.7903 52.19C30.7421 52.1403 30.6812 52.1047 30.6142 52.0871C30.5473 52.0695 30.4768 52.0705 30.4103 52.09C29.8603 52.21 29.6503 53.43 29.8603 53.51Z" fill="#FFDE17"/>
<path d="M34.8395 54.71C35.0595 54.8 35.9995 53.71 35.7695 53.39C35.7191 53.3436 35.6581 53.3102 35.5919 53.2928C35.5257 53.2754 35.4562 53.2744 35.3895 53.29C34.8395 53.41 34.6395 54.63 34.8395 54.71Z" fill="#FFDE17"/>
<path d="M31.6602 55.82C31.8802 55.91 32.8302 54.82 32.6002 54.5C32.5519 54.4503 32.4911 54.4147 32.4241 54.3971C32.3571 54.3795 32.2866 54.3805 32.2202 54.4C31.6702 54.52 31.4602 55.74 31.6602 55.82Z" fill="#FFDE17"/>
<path d="M36.4601 57.31C36.6801 57.4 37.6301 56.31 37.4001 55.99C37.3487 55.942 37.286 55.9077 37.2179 55.8902C37.1497 55.8728 37.0783 55.8727 37.0101 55.89C36.4701 56 36.2601 57.23 36.4601 57.31Z" fill="#FFDE17"/>
<path d="M32.7502 59C32.9702 59.09 33.9202 58 33.6902 57.68C33.6404 57.6294 33.5778 57.5934 33.5091 57.5758C33.4403 57.5581 33.3681 57.5596 33.3002 57.58C32.7602 57.7 32.5502 58.92 32.7502 59Z" fill="#FFDE17"/>
<path d="M33.88 75.87C34.62 77.04 35.39 78.26 36.81 78.6C38.41 78.99 39.91 78.04 41.11 77.27C42.6845 76.242 43.9833 74.8442 44.8932 73.1987C45.8031 71.5532 46.2964 69.71 46.33 67.83C46.31 67.5962 46.2665 67.365 46.2 67.14C46.06 66.77 45.67 65.97 44.07 65.23C42.5964 64.637 41.0182 64.3478 39.43 64.38C36.99 64.29 35.74 64.27 34.51 65.03C33.7274 65.5183 33.0916 66.2095 32.67 67.03C32.08 68.22 32.19 69.26 32.38 70.91C32.4779 72.6592 32.9922 74.3597 33.88 75.87Z" fill="#ED1B36"/>
<path d="M33.9097 75.85C34.3586 76.6807 34.9708 77.4121 35.7097 78C36.085 78.2499 36.5106 78.4143 36.9564 78.4817C37.4022 78.5491 37.8573 78.5178 38.2897 78.39C39.1574 78.1056 39.9768 77.6909 40.7197 77.16C41.4987 76.6687 42.2228 76.0955 42.8797 75.45C44.2265 74.1599 45.2183 72.5447 45.7597 70.76C46.0526 69.8691 46.2044 68.9378 46.2097 68C46.189 67.5507 46.0469 67.1155 45.7987 66.7404C45.5504 66.3654 45.2052 66.0646 44.7997 65.87C43.1358 65.061 41.2987 64.673 39.4497 64.74C37.5797 64.74 35.6297 64.52 34.2697 65.74C33.5896 66.2879 33.0711 67.0103 32.7697 67.83C32.5246 68.701 32.4566 69.6123 32.5697 70.51C32.6092 71.4488 32.7094 72.3841 32.8697 73.31C33.078 74.2069 33.4292 75.0645 33.9097 75.85ZM33.8497 75.85C32.8789 74.2015 32.2752 72.3631 32.0797 70.46C31.8497 69.4935 31.8497 68.4865 32.0797 67.52C32.3854 66.5418 32.9776 65.6779 33.7797 65.04C34.5816 64.396 35.5716 64.0308 36.5997 64C37.5589 63.9447 38.5205 63.9447 39.4797 64C40.4421 64.0389 41.3991 64.1627 42.3397 64.37C43.2952 64.5688 44.2003 64.9601 44.9997 65.52C45.3941 65.7861 45.7336 66.1256 45.9997 66.52C46.2663 66.9452 46.4051 67.4381 46.3997 67.94C46.2487 70.8424 45.1411 73.6132 43.2497 75.82C42.5886 76.5318 41.8313 77.1478 40.9997 77.65C40.1888 78.2003 39.2786 78.5875 38.3197 78.79C37.8301 78.8818 37.3265 78.8667 36.8432 78.7459C36.36 78.6251 35.9085 78.4014 35.5197 78.09C34.8524 77.4476 34.2891 76.7054 33.8497 75.89V75.85Z" fill="#231F20"/>
<path d="M34.9995 75.14C35.249 75.6882 35.6072 76.18 36.0524 76.5857C36.4976 76.9913 37.0205 77.3024 37.5895 77.5C39.0195 77.83 40.3495 76.99 41.4295 76.32C42.8251 75.4368 43.9826 74.2245 44.8003 72.7896C45.618 71.3546 46.071 69.7409 46.1195 68.09C46.1074 67.8854 46.067 67.6835 45.9995 67.49C45.8895 67.17 45.5395 66.49 44.1295 65.84C42.8134 65.3313 41.41 65.0867 39.9995 65.12C37.8195 65.06 36.7195 65.04 35.6195 65.72C34.9175 66.1518 34.3469 66.7674 33.9695 67.5C33.5077 68.5619 33.4093 69.7465 33.6895 70.87C33.7704 72.3791 34.2202 73.8452 34.9995 75.14Z" fill="#ED2A43"/>
<path d="M38.6402 64.62C38.2648 64.8449 37.9492 65.1571 37.7202 65.53C37.4915 65.9105 37.3705 66.3461 37.3702 66.79L39.2202 65.21C39.5742 65.4595 39.9707 65.6425 40.3902 65.75C40.7887 65.8498 41.2008 65.8835 41.6102 65.85C40.1602 64.93 39.8602 64.64 39.9102 64.56C39.9602 64.48 40.6102 64.77 41.6202 64.69C41.8493 64.6654 42.0765 64.6253 42.3002 64.57C42.0495 64.3921 41.7729 64.2539 41.4802 64.16C40.9703 64.0082 40.4302 63.9875 39.9102 64.1C40.4065 63.952 40.8687 63.7073 41.2702 63.38C41.4765 63.214 41.6642 63.0263 41.8302 62.82C41.0872 62.8217 40.3571 63.0145 39.7102 63.38C39.4803 63.5049 39.2655 63.6559 39.0702 63.83C38.7702 63.5942 38.4319 63.4116 38.0702 63.29C37.5761 63.1507 37.0583 63.1167 36.5502 63.19C36.7603 63.4478 37.0101 63.6706 37.2902 63.85C37.5818 64.032 37.8985 64.1701 38.2302 64.26C37.6778 64.2285 37.1245 64.3032 36.6002 64.48C36.0926 64.6446 35.6185 64.8986 35.2002 65.23C35.6988 65.2831 36.2016 65.2831 36.7002 65.23C37.3715 65.1156 38.0242 64.9104 38.6402 64.62Z" fill="#009444"/>
<path d="M38.6802 64.61C38.4802 64.83 38.3402 64.91 38.2002 65.09C38.0597 65.2498 37.942 65.4281 37.8502 65.62C37.6646 65.9809 37.5783 66.3847 37.6002 66.79L37.2202 66.61C37.8002 66.05 38.4102 65.51 39.0202 64.97L39.2002 64.81L39.4002 64.95C40.0435 65.3772 40.8095 65.581 41.5802 65.53L41.4402 66.12C41.1202 65.91 40.8102 65.68 40.5002 65.44L40.0002 65.07C39.9186 64.9984 39.8417 64.9216 39.7702 64.84C39.7307 64.803 39.6995 64.758 39.6788 64.708C39.6581 64.6579 39.6484 64.6041 39.6502 64.55C39.6545 64.5075 39.6696 64.4667 39.6941 64.4317C39.7186 64.3967 39.7517 64.3686 39.7902 64.35H39.9102H40.0202C40.3834 64.454 40.7547 64.5276 41.1302 64.57C41.4991 64.5848 41.8685 64.5546 42.2302 64.48V64.69C41.9032 64.4553 41.5278 64.2966 41.1316 64.2257C40.7354 64.1548 40.3283 64.1733 39.9402 64.28L39.8702 64C40.2291 63.8812 40.5667 63.7056 40.8702 63.48C41.1538 63.2481 41.4119 62.9866 41.6402 62.7L41.8502 63.13C41.3845 63.1622 40.9262 63.2633 40.4902 63.43C40.0667 63.6109 39.6724 63.8535 39.3202 64.15L39.0802 64.33L38.8702 64.17C38.5422 63.9351 38.1711 63.7673 37.7781 63.6763C37.3851 63.5854 36.978 63.573 36.5802 63.64L36.8302 62.99C37.2102 63.4441 37.7194 63.772 38.2902 63.93L41.9302 64.93L38.1802 64.67C37.1674 64.5945 36.1607 64.8816 35.3402 65.48L35.1702 65C35.745 65.065 36.3253 65.065 36.9002 65C37.1902 65 37.4802 64.92 37.7702 64.86C38.0602 64.8 38.3002 64.66 38.6802 64.61ZM38.6102 64.61C38.3808 64.7904 38.1196 64.926 37.8402 65.01C37.5534 65.1228 37.2594 65.2164 36.9602 65.29C36.3604 65.4288 35.7457 65.4926 35.1302 65.48H34.4102L35.0002 65C35.8945 64.2319 37.0416 63.8222 38.2202 63.85L38.1102 64.61C37.3696 64.4303 36.7067 64.0165 36.2202 63.43L35.7902 62.89L36.4702 62.78C36.9712 62.7037 37.4826 62.7309 37.9728 62.8599C38.463 62.9889 38.9215 63.2169 39.3202 63.53H38.8602L39.5302 63.07C39.767 62.9347 40.0186 62.8273 40.2802 62.75C40.7854 62.5795 41.3172 62.5015 41.8502 62.52H42.5302L42.0002 63C41.6986 63.3041 41.363 63.5725 41.0002 63.8C40.6514 64.0097 40.2742 64.168 39.8802 64.27L39.8002 63.97C40.2298 63.89 40.6705 63.89 41.1002 63.97C41.5278 64.0615 41.9325 64.2384 42.2902 64.49L42.5302 64.65H42.2502C41.8663 64.7398 41.4743 64.7901 41.0802 64.8C40.6945 64.8037 40.3094 64.7702 39.9302 64.7H39.9902C40.0153 64.6856 40.0366 64.6654 40.0523 64.641C40.068 64.6166 40.0775 64.5888 40.0802 64.56C40.0802 64.41 40.0802 64.5 40.0802 64.56C40.1431 64.6147 40.21 64.6649 40.2802 64.71C40.4302 64.82 40.5902 64.92 40.7502 65.02L41.7502 65.6L42.5502 66.07L41.6102 66.19C40.6844 66.2968 39.7531 66.0425 39.0102 65.48H39.3902C38.7702 66 38.1402 66.48 37.4902 67L37.0802 67.31V66.83C37.0995 66.3527 37.2557 65.891 37.5302 65.5C37.6619 65.3117 37.8164 65.1404 37.9902 64.99C38.2202 64.82 38.4402 64.63 38.6102 64.64V64.61Z" fill="#231F20"/>
<path d="M33.5295 72.2C33.4115 73.3958 33.689 74.5972 34.3195 75.62C34.751 76.5318 35.4482 77.2918 36.3195 77.8C36.8195 78.06 37.6195 78.36 37.7495 78.19C37.8795 78.02 36.2495 77.19 35.2195 75.19C34.7495 74.3 34.2195 73.44 33.7495 72.55C33.6695 72.35 33.5795 72.19 33.5295 72.2Z" fill="white"/>
<path d="M35.0896 68.22C35.2896 68.22 35.9896 67.22 35.7496 66.91C35.6948 66.8784 35.6328 66.8618 35.5696 66.8618C35.5064 66.8618 35.4443 66.8784 35.3896 66.91C34.9196 67 34.8896 68.16 35.0896 68.22Z" fill="#FFDE17"/>
<path d="M36.4595 69.61C36.6595 69.61 37.3495 68.61 37.1095 68.33C37.0629 68.2914 37.007 68.2657 36.9474 68.2551C36.8878 68.2446 36.8265 68.2497 36.7695 68.27C36.2995 68.44 36.2795 69.55 36.4595 69.61Z" fill="#FFDE17"/>
<path d="M41.5699 67.73C41.7699 67.79 42.4599 66.73 42.2199 66.45C42.1689 66.4181 42.11 66.4011 42.0499 66.4011C41.9897 66.4011 41.9308 66.4181 41.8799 66.45C41.4099 66.56 41.3899 67.67 41.5699 67.73Z" fill="#FFDE17"/>
<path d="M43.9195 69.19C44.1195 69.25 44.8095 68.19 44.5695 67.91C44.5166 67.8783 44.4561 67.8615 44.3945 67.8615C44.3328 67.8615 44.2723 67.8783 44.2195 67.91C43.7595 68 43.7295 69.14 43.9195 69.19Z" fill="#FFDE17"/>
<path d="M39.7203 69.56C39.9203 69.62 40.6103 68.56 40.3703 68.28C40.3167 68.2502 40.2565 68.2346 40.1953 68.2346C40.134 68.2346 40.0738 68.2502 40.0203 68.28C39.5603 68.4 39.5303 69.51 39.7203 69.56Z" fill="#FFDE17"/>
<path d="M41.5796 71.54C41.7796 71.54 42.4696 70.54 42.2296 70.26C42.1815 70.2206 42.1239 70.1943 42.0626 70.1838C42.0012 70.1733 41.9382 70.1789 41.8796 70.2C41.4196 70.37 41.3896 71.48 41.5796 71.54Z" fill="#FFDE17"/>
<path d="M37.7701 71.72C37.9701 71.78 38.6601 70.72 38.4201 70.44C38.3672 70.4082 38.3067 70.3915 38.2451 70.3915C38.1834 70.3915 38.1229 70.4082 38.0701 70.44C37.6101 70.55 37.5801 71.67 37.7701 71.72Z" fill="#FFDE17"/>
<path d="M34.8404 73.06C35.0404 73.06 35.7304 72.06 35.4904 71.78C35.4422 71.7406 35.3846 71.7144 35.3233 71.7038C35.262 71.6933 35.1989 71.6989 35.1404 71.72C34.6804 71.89 34.6504 73 34.8404 73.06Z" fill="#FFDE17"/>
<path d="M39.3296 73.64C39.5296 73.64 40.2196 72.64 39.9796 72.36C39.933 72.3215 39.8771 72.2957 39.8175 72.2852C39.7579 72.2747 39.6966 72.2798 39.6396 72.3C39.1696 72.47 39.1496 73.58 39.3296 73.64Z" fill="#FFDE17"/>
<path d="M36.7095 75C36.9095 75.06 37.5995 74 37.3595 73.72C37.3067 73.6883 37.2462 73.6715 37.1845 73.6715C37.1229 73.6715 37.0624 73.6883 37.0095 73.72C36.5495 73.78 36.5195 74.9 36.7095 75Z" fill="#FFDE17"/>
<path d="M41.0699 75.81C41.2699 75.81 41.9599 74.81 41.7199 74.53C41.6717 74.4906 41.6141 74.4644 41.5528 74.4538C41.4914 74.4433 41.4284 74.4489 41.3699 74.47C40.9099 74.64 40.8799 75.75 41.0699 75.81Z" fill="#FFDE17"/>
<path d="M38.0503 77.7C38.2503 77.76 38.9403 76.7 38.7003 76.42C38.6475 76.3883 38.587 76.3715 38.5253 76.3715C38.4637 76.3715 38.4032 76.3883 38.3503 76.42C37.8903 76.53 37.8603 77.64 38.0503 77.7Z" fill="#FFDE17"/>
<path d="M55.9998 64.49C57.8098 64.92 59.6798 65.37 61.3498 64.49C63.2398 63.49 63.7699 61.35 64.1899 59.64C65.8499 52.94 61.4298 47.7 60.2698 46.71C60.0294 46.5146 59.7678 46.3469 59.4899 46.21C59.0099 45.99 57.8798 45.6 55.6798 46.28C53.748 46.9778 51.9738 48.0518 50.4598 49.44C48.0598 51.44 46.8499 52.44 46.3999 54.19C46.122 55.3122 46.1812 56.4913 46.5698 57.58C47.1298 59.16 48.2098 60.01 49.9498 61.32C51.7038 62.8162 53.7713 63.8995 55.9998 64.49Z" fill="#ED1B36"/>
<path d="M55.9995 64.44C57.157 64.7808 58.3653 64.9162 59.5695 64.84C60.1446 64.7801 60.6999 64.5962 61.1971 64.301C61.6943 64.0058 62.1216 63.6063 62.4495 63.13C63.0426 62.1297 63.4555 61.0331 63.6695 59.89C63.9531 58.7512 64.1041 57.5835 64.1195 56.41C64.155 54.0206 63.5397 51.6665 62.3395 49.6C61.7466 48.5592 60.9941 47.6177 60.1095 46.81C59.6442 46.4675 59.1045 46.24 58.5344 46.1462C57.9643 46.0523 57.3801 46.0947 56.8295 46.27C54.5195 46.78 52.5795 48.27 50.7495 49.79C48.9195 51.31 46.8695 52.86 46.7495 55.13C46.6473 56.2365 46.8808 57.3481 47.4195 58.32C48.0794 59.2742 48.886 60.1179 49.8095 60.82C50.7172 61.6177 51.6832 62.3464 52.6995 63C53.713 63.658 54.8279 64.1445 55.9995 64.44ZM55.9995 64.53C54.8079 64.2556 53.6555 63.8323 52.5695 63.27C51.487 62.6982 50.4446 62.0533 49.4495 61.34C48.3599 60.6919 47.4085 59.8356 46.6495 58.82C45.932 57.6819 45.6054 56.3406 45.7195 55C45.8304 53.6612 46.4155 52.4058 47.3695 51.46C48.2508 50.5989 49.1825 49.7908 50.1595 49.04C51.1185 48.2727 52.1424 47.5901 53.2195 47C54.3039 46.366 55.4981 45.9419 56.7395 45.75C57.3652 45.645 58.0039 45.645 58.6295 45.75C59.2636 45.8656 59.8565 46.1448 60.3495 46.56C61.2303 47.4216 61.9966 48.3929 62.6295 49.45C63.2832 50.4925 63.8229 51.6022 64.2395 52.76C64.6661 53.9272 64.9221 55.1498 64.9995 56.39C65.0529 57.6416 64.9077 58.8938 64.5695 60.1C64.3112 61.344 63.7745 62.5132 62.9995 63.52C62.581 64.0138 62.0602 64.4109 61.4732 64.6837C60.8861 64.9565 60.2469 65.0985 59.5995 65.1C58.3794 65.0723 57.1685 64.8806 55.9995 64.53Z" fill="#231F20"/>
<path d="M56.3395 62.91C57.9195 63.28 59.5595 63.65 61.0295 62.85C62.6995 61.94 63.1795 60.05 63.5695 58.54C64.0413 56.517 63.9867 54.4069 63.4107 52.4111C62.8347 50.4153 61.7566 48.6005 60.2795 47.14C60.0726 46.9648 59.8441 46.8169 59.5995 46.7C58.5187 46.2988 57.3242 46.3346 56.2695 46.8C54.5683 47.4477 53.0068 48.4151 51.6695 49.65C49.5495 51.43 48.4795 52.35 48.0695 53.89C47.8153 54.879 47.85 55.9201 48.1695 56.89C48.6495 58.28 49.5795 59.02 51.0895 60.16C52.6029 61.4708 54.4001 62.4122 56.3395 62.91Z" fill="#ED2A43"/>
<path d="M49.9398 50.32C49.795 50.8435 49.795 51.3965 49.9398 51.92C50.0904 52.464 50.3839 52.9578 50.7898 53.35L51.0598 50.35C51.6277 50.2834 52.1794 50.1175 52.6898 49.86C53.1578 49.6008 53.5774 49.2625 53.9298 48.86C51.6898 49.26 51.1298 49.25 51.0998 49.13C51.0698 49.01 51.9698 48.73 52.8398 47.81C53.0405 47.5979 53.2244 47.3706 53.3898 47.13C52.9865 47.18 52.5925 47.2878 52.2198 47.45C51.6039 47.7354 51.073 48.1766 50.6798 48.73C51.0068 48.1792 51.2146 47.566 51.2898 46.93C51.3324 46.598 51.3324 46.262 51.2898 45.93C50.3353 46.7566 49.74 47.9222 49.6298 49.18C49.1103 49.2248 48.6027 49.3602 48.1298 49.58C47.5327 49.8544 47.006 50.2614 46.5898 50.77C47.0276 50.8335 47.4721 50.8335 47.9098 50.77C48.3526 50.6921 48.7808 50.5471 49.1798 50.34C48.6187 50.7981 48.1532 51.3621 47.8098 52C47.4847 52.5768 47.2774 53.2124 47.1998 53.87C47.7023 53.4766 48.1645 53.0344 48.5798 52.55C49.1451 51.881 49.6038 51.1288 49.9398 50.32Z" fill="#009444" stroke="#231F20" stroke-width="0.5" stroke-miterlimit="10"/>
<path d="M52.2197 61.48C52.0997 61.66 53.8497 63.17 56.2197 63.89C57.5032 64.348 58.8906 64.4312 60.2197 64.13C60.9397 63.94 61.9897 63.53 61.9497 63.26C61.9097 62.99 59.5797 63.63 56.7597 62.74C55.4797 62.33 54.1697 62 52.8797 61.6C52.4997 61.49 52.2497 61.42 52.2197 61.48Z" fill="white"/>
<path d="M49.9398 56.57C50.1898 56.45 49.8498 54.88 49.3398 54.83C49.2608 54.837 49.1846 54.8635 49.1183 54.9071C49.052 54.9508 48.9976 55.0102 48.9598 55.08C48.6698 55.63 49.7098 56.68 49.9398 56.57Z" fill="#FFDE17"/>
<path d="M52.5602 56.65C52.8002 56.54 52.4602 55 51.9702 54.95C51.8907 54.9552 51.8138 54.9809 51.7472 55.0248C51.6806 55.0686 51.6265 55.129 51.5902 55.2C51.3102 55.74 52.3302 56.77 52.5602 56.65Z" fill="#FFDE17"/>
<path d="M55.6501 50.64C55.8901 50.52 55.5501 48.98 55.0601 48.94C54.981 48.9422 54.904 48.9656 54.8371 49.0078C54.7703 49.0501 54.716 49.1095 54.6801 49.18C54.4001 49.72 55.4201 50.75 55.6501 50.64Z" fill="#FFDE17"/>
<path d="M59.2496 50C59.4996 49.88 59.1596 48.34 58.6696 48.29C58.5892 48.292 58.511 48.3164 58.4438 48.3606C58.3766 48.4048 58.3232 48.4669 58.2896 48.54C57.9996 49.06 58.9996 50.09 59.2496 50Z" fill="#FFDE17"/>
<path d="M55.6101 53.86C55.8601 53.75 55.5201 52.21 55.0301 52.16C54.9497 52.162 54.8715 52.1865 54.8043 52.2307C54.7372 52.2749 54.6837 52.337 54.6501 52.41C54.3601 53 55.3801 54 55.6101 53.86Z" fill="#FFDE17"/>
<path d="M59.2395 54.07C59.4795 53.95 59.1395 52.41 58.6495 52.37C58.5704 52.3722 58.4934 52.3956 58.4265 52.4378C58.3597 52.4801 58.3054 52.5395 58.2695 52.61C57.9995 53.15 58.9995 54.18 59.2395 54.07Z" fill="#FFDE17"/>
<path d="M55.7897 57.46C56.0297 57.34 55.6897 55.8 55.1997 55.75C55.1204 55.7561 55.0439 55.7822 54.9775 55.826C54.911 55.8697 54.8567 55.9296 54.8197 56C54.5397 56.54 55.5597 57.57 55.7897 57.46Z" fill="#FFDE17"/>
<path d="M54.2697 61.14C54.5097 61.02 54.1697 59.48 53.6797 59.43C53.6004 59.4361 53.5239 59.4622 53.4574 59.506C53.391 59.5497 53.3367 59.6096 53.2997 59.68C52.9997 60.22 53.9997 61.25 54.2697 61.14Z" fill="#FFDE17"/>
<path d="M59.0798 57.86C59.3198 57.74 58.9798 56.2 58.4898 56.16C58.4107 56.1622 58.3337 56.1856 58.2668 56.2279C58.1999 56.2701 58.1457 56.3296 58.1098 56.4C57.8298 56.94 58.8498 58 59.0798 57.86Z" fill="#FFDE17"/>
<path d="M57.82 61.27C58.06 61.15 57.72 59.61 57.23 59.57C57.1512 59.5732 57.0746 59.597 57.0079 59.6392C56.9412 59.6813 56.8868 59.7402 56.85 59.81C56.57 60.35 57.59 61.38 57.82 61.27Z" fill="#FFDE17"/>
<path d="M62.7702 58.35C63.0202 58.23 62.6802 56.69 62.1802 56.64C62.1022 56.6459 62.0269 56.672 61.9621 56.7159C61.8972 56.7597 61.8448 56.8198 61.8103 56.89C61.5203 57.43 62.5402 58.46 62.7702 58.35Z" fill="#FFDE17"/>
<path d="M61.6804 62.61C61.9304 62.49 61.5904 60.95 61.1004 60.9C61.0206 60.9042 60.9433 60.9295 60.8765 60.9735C60.8097 61.0174 60.7558 61.0784 60.7204 61.15C60.4304 61.69 61.4504 62.72 61.6804 62.61Z" fill="#FFDE17"/>
<path d="M50.1199 71.57C49.688 73.2465 49.4597 74.9689 49.4399 76.7C49.4255 77.959 49.5192 79.217 49.7199 80.46C50.3199 78.61 50.5699 78.21 50.7199 78.23C50.8699 78.25 50.7199 79.3 50.8899 80.59C51.0649 81.5893 51.4426 82.5422 51.9999 83.39C52.0899 82.63 52.1799 81.87 52.2599 81.1C52.6228 82.7224 53.4786 84.1929 54.7099 85.31C55.3545 85.8812 56.083 86.35 56.8699 86.7C56.7099 86.12 56.5599 85.53 56.3999 84.95C56.817 85.631 57.4162 86.1818 58.1299 86.54C58.8119 86.8806 59.5681 87.0456 60.3299 87.02C60.1899 86.58 60.0499 86.14 59.9199 85.69C60.8625 86.2709 61.8692 86.7407 62.9199 87.09C64.141 87.5067 65.4122 87.7589 66.6999 87.84L65.0999 82.17C65.4199 82.43 65.6199 82.54 65.7099 82.48C65.9633 82.3067 65.1666 80.72 63.3199 77.72L64.4399 77.93C64.2219 76.7598 63.6074 75.7004 62.6999 74.93C61.6999 74.17 60.5599 73.88 60.6199 73.69C60.6799 73.5 60.9399 73.55 62.1099 73.69C61.6536 72.8958 60.9517 72.2711 60.1099 71.91C59.2399 71.53 58.3099 71.53 58.3199 71.38C58.3299 71.23 59.6299 71.2 59.6399 71.07C59.6499 70.94 57.0799 70.55 54.4399 70.6C53.1335 70.5702 51.8354 70.8155 50.6299 71.32C50.4561 71.3954 50.2859 71.4788 50.1199 71.57Z" fill="#3E9581"/>
<path d="M49.8486 78.8428C49.9096 79.3611 49.9901 79.8772 50.0901 80.39H49.3701C49.5085 79.8679 49.6681 79.3518 49.8486 78.8428C49.8975 78.7047 49.9481 78.5671 50.0001 78.43L50.1301 78.18C50.1627 78.1215 50.2031 78.0676 50.2501 78.02C50.2761 77.974 50.3141 77.9359 50.3601 77.91L50.5201 77.84C50.6084 77.8152 50.7018 77.8152 50.7901 77.84C50.8515 77.8636 50.9073 77.8998 50.9538 77.9463C51.0003 77.9928 51.0365 78.0486 51.0601 78.11C51.0657 78.1598 51.0657 78.2101 51.0601 78.26C51.0645 78.3166 51.0645 78.3734 51.0601 78.43V78.7V79.7C51.1098 80.4946 51.2927 81.2719 51.5983 82.0004L51.7101 81.09L52.0101 78.63L52.6501 81C52.8912 82.1795 53.3935 83.29 54.1201 84.25C54.7782 85.092 55.6016 85.7881 56.538 86.2965L56.2101 85L55.8901 83.76L56.5401 84.86C56.9177 85.5053 57.4685 86.0319 58.1301 86.38C58.7367 86.6895 59.4056 86.8542 60.0846 86.8626L59.7301 85.74L59.5801 85.28L59.9901 85.54C60.996 86.1485 62.079 86.6194 63.2101 86.94C64.175 87.2197 65.166 87.3979 66.1669 87.4719L64.6601 82.29L64.2601 80.93L65.0193 81.5279C64.8599 81.2112 64.685 80.8906 64.5102 80.5701L64.5101 80.57C64.0101 79.7 63.5101 78.84 62.9401 77.99L62.3201 76.99L63.4801 77.2L63.7924 77.2553C63.5071 76.442 62.9954 75.7204 62.3101 75.18C61.8111 74.8452 61.2822 74.5573 60.7301 74.32C60.6281 74.273 60.5309 74.2161 60.4401 74.15C60.3948 74.1157 60.3544 74.0753 60.3201 74.03L60.2401 73.91C60.1949 73.8203 60.1742 73.7202 60.1801 73.62C60.1912 73.5155 60.2291 73.4156 60.2901 73.33C60.332 73.2753 60.3827 73.228 60.4401 73.19C60.4989 73.1512 60.5629 73.1209 60.6301 73.1C60.7925 73.0755 60.9569 73.07 61.1202 73.0836C61.167 73.0875 61.2136 73.093 61.2601 73.1C61.6001 73.1 61.9201 73.16 62.2601 73.2L61.7701 73.95C61.5916 73.6333 61.3729 73.3422 61.1202 73.0836C60.9569 73.07 60.7925 73.0755 60.6301 73.1C60.5629 73.1209 60.4989 73.1512 60.4401 73.19C60.3827 73.228 60.332 73.2753 60.2901 73.33C60.2291 73.4156 60.1912 73.5155 60.1801 73.62C60.1742 73.7202 60.1949 73.8203 60.2401 73.91L60.3201 74.03C60.3544 74.0753 60.3948 74.1157 60.4401 74.15C60.5309 74.2161 60.6281 74.273 60.7301 74.32C61.2822 74.5573 61.8111 74.8452 62.3101 75.18C62.9954 75.7204 63.5071 76.442 63.7924 77.2553L64.6101 77.4L63.9901 78.03C63.9467 77.7648 63.8803 77.5057 63.7924 77.2553L63.4801 77.2L62.3201 76.99L62.9401 77.99C63.5101 78.84 64.0101 79.7 64.5101 80.57L64.5102 80.5701C64.685 80.8906 64.8599 81.2112 65.0193 81.5279L65.3901 81.82C65.4667 81.884 65.5487 81.9413 65.635 81.9913C65.6602 81.9894 65.6857 81.9923 65.7101 82H65.6501C65.6451 81.9971 65.64 81.9942 65.635 81.9913C65.6199 81.9925 65.6048 81.9954 65.5901 82C65.5276 82.0111 65.4691 82.0381 65.42 82.0784C65.371 82.1186 65.3331 82.1708 65.3101 82.23V82.32C65.3009 82.2907 65.3009 82.2593 65.3101 82.23V82.19C65.2772 82.084 65.2371 81.9805 65.1901 81.88C65.1358 81.7633 65.0786 81.6458 65.0193 81.5279L64.2601 80.93L64.6601 82.29L66.1669 87.4719C66.3311 87.4841 66.4955 87.4934 66.6601 87.5L66.3001 87.93L66.1669 87.4719C65.166 87.3979 64.175 87.2197 63.2101 86.94C62.079 86.6194 60.996 86.1485 59.9901 85.54L59.5801 85.28L59.7301 85.74L60.0846 86.8626C60.1564 86.8635 60.2282 86.8626 60.3001 86.86L60.1501 87.07L60.0846 86.8626C59.4056 86.8542 58.7367 86.6895 58.1301 86.38C57.4685 86.0319 56.9177 85.5053 56.5401 84.86L55.8901 83.76L56.2101 85L56.538 86.2965C56.6698 86.3681 56.8039 86.436 56.9401 86.5L56.6501 86.74L56.538 86.2965C55.6016 85.7881 54.7782 85.092 54.1201 84.25C53.3935 83.29 52.8912 82.1795 52.6501 81L52.0101 78.63L51.7101 81.09L51.5983 82.0004C51.7706 82.411 51.9818 82.8061 52.2301 83.18L51.4301 83.37L51.5983 82.0004C51.2927 81.2719 51.1098 80.4946 51.0601 79.7V78.7V78.43C51.0645 78.3734 51.0645 78.3166 51.0601 78.26C51.0657 78.2101 51.0657 78.1598 51.0601 78.11C51.0365 78.0486 51.0003 77.9928 50.9538 77.9463C50.9073 77.8998 50.8515 77.8636 50.7901 77.84C50.7018 77.8152 50.6084 77.8152 50.5201 77.84L50.3601 77.91C50.3141 77.9359 50.2761 77.974 50.2501 78.02C50.2031 78.0676 50.1627 78.1215 50.1301 78.18L50.0001 78.43C49.9481 78.5671 49.8975 78.7047 49.8486 78.8428Z" fill="#231F20"/>
<path d="M50.3397 71.57C50.0943 72.9927 50.0138 74.4389 50.0996 75.88C50.1648 76.9305 50.3153 77.974 50.5497 79C50.9197 77.43 51.0896 77.09 51.1896 77.1C51.2896 77.11 51.1897 78 51.4697 79.1C51.6675 79.9341 52.0314 80.7197 52.5397 81.41C52.5397 80.77 52.5397 80.13 52.6097 79.49C52.9866 80.8262 53.7524 82.0202 54.8097 82.92C55.3528 83.3725 55.9636 83.7369 56.6196 84L56.1397 82.56C56.5079 83.1104 57.0197 83.5496 57.6196 83.83C58.1739 84.0938 58.7877 84.2076 59.3997 84.16L58.9997 83.06C60.6761 84.0374 62.5701 84.5805 64.5097 84.64C63.9897 83.08 63.4663 81.52 62.9396 79.96C63.2196 80.16 63.3797 80.24 63.4497 80.19C63.5197 80.14 62.9096 78.74 61.2596 76.3L62.1696 76.43C61.9291 75.455 61.3781 74.5845 60.5996 73.95C59.7896 73.35 58.8197 73.15 58.8597 72.95C58.8997 72.75 59.0997 72.82 60.0497 72.95C59.6538 72.3188 59.0746 71.8233 58.3897 71.53C57.6697 71.25 56.9297 71.27 56.9297 71.15C56.9297 71.03 57.9297 70.96 57.9297 70.84C56.5573 70.5414 55.1457 70.4671 53.7497 70.62C52.708 70.639 51.6835 70.8883 50.7497 71.35C50.5897 71.42 50.4397 71.51 50.3397 71.57Z" fill="#1E6F5D"/>
<path d="M50.1398 71.53C52.5643 73.0083 54.8652 74.6805 57.0198 76.53C58.1295 77.4263 59.1661 78.4094 60.1198 79.47C61.0472 80.5659 61.8676 81.7479 62.5698 83L62.4898 83.07C61.3598 82.17 60.3998 81.14 59.3898 80.17C58.3798 79.2 57.4698 78.17 56.4798 77.17C54.4629 75.2 52.329 73.3533 50.0898 71.64L50.1398 71.53Z" fill="#231F20"/>
<path d="M51.9099 72.81C52.0985 73.2687 52.2295 73.7491 52.2999 74.24C52.325 74.703 52.325 75.167 52.2999 75.63C52.358 76.577 52.5292 77.5137 52.8099 78.42H52.7199C52.149 77.6012 51.7384 76.6817 51.5099 75.71C51.3438 75.2313 51.2659 74.7265 51.2799 74.22C51.3194 73.6971 51.4953 73.1937 51.7899 72.76L51.9099 72.81Z" fill="#231F20"/>
<path d="M51.9199 72.82C52.275 72.4319 52.7221 72.1396 53.2199 71.97C53.7078 71.8352 54.215 71.7845 54.7199 71.82C55.7343 71.8022 56.7456 71.937 57.7199 72.22V72.32C56.7625 72.3281 55.8081 72.4286 54.8699 72.62C54.4205 72.7582 53.963 72.8684 53.4999 72.95C53.0057 73.019 52.5042 73.019 52.0099 72.95L51.9199 72.82Z" fill="#231F20"/>
<path d="M54.2602 74.56C54.4549 74.9842 54.596 75.4309 54.6802 75.89C54.7321 76.3214 54.7588 76.7555 54.7602 77.19C54.8854 78.0779 55.1171 78.9475 55.4502 79.78H55.3602L54.5602 78.63C54.3361 78.2276 54.1487 77.8059 54.0002 77.37C53.8072 76.9212 53.7052 76.4385 53.7002 75.95C53.724 75.4472 53.8905 74.9616 54.1802 74.55L54.2602 74.56Z" fill="#231F20"/>
<path d="M54.2002 74.5C54.5468 74.2036 54.9632 74.0005 55.4102 73.91C55.8365 73.8301 56.2739 73.8301 56.7002 73.91C57.5505 74.0082 58.3862 74.2062 59.1902 74.5V74.6C58.3655 74.591 57.5409 74.6278 56.7202 74.71C56.3224 74.796 55.9171 74.8429 55.5102 74.85C55.0716 74.8319 54.6405 74.7301 54.2402 74.55L54.2002 74.5Z" fill="#231F20"/>
<path d="M57.0895 76.9C57.2864 77.2077 57.4317 77.5455 57.5195 77.9C57.5497 78.216 57.5497 78.5341 57.5195 78.85C57.5852 79.531 57.7295 80.2022 57.9495 80.85H57.8695L57.2395 80C57.0499 79.6832 56.8924 79.3482 56.7695 79C56.6103 78.6904 56.5247 78.3482 56.5195 78C56.5408 77.5843 56.7112 77.1902 56.9995 76.89L57.0895 76.9Z" fill="#231F20"/>
<path d="M57 76.85C57.2375 76.573 57.5557 76.3772 57.91 76.29C58.2436 76.2339 58.5855 76.2544 58.91 76.35C59.5581 76.4392 60.1907 76.6175 60.79 76.88V76.98C60.1639 77.0005 59.5395 77.0573 58.92 77.15C58.628 77.2372 58.3247 77.281 58.02 77.28C57.6652 77.251 57.3224 77.1379 57.02 76.95L57 76.85Z" fill="#231F20"/>
<path d="M59.8 79.85C59.995 80.053 60.1449 80.295 60.24 80.56C60.32 80.78 60.24 81.01 60.24 81.24C60.2623 81.7264 60.336 82.2091 60.46 82.68L60.37 82.74L59.85 82.14C59.6948 81.9145 59.564 81.6731 59.46 81.42C59.3127 81.1798 59.2397 80.9015 59.25 80.62C59.2945 80.3095 59.4599 80.0292 59.71 79.84L59.8 79.85Z" fill="#231F20"/>
<path d="M59.75 79.79C59.893 79.5385 60.1248 79.3494 60.4 79.26C60.6452 79.2186 60.8971 79.2427 61.13 79.33C61.6065 79.4264 62.0675 79.5879 62.5 79.81V79.91C62.03 79.97 61.58 80.05 61.14 80.13C60.92 80.18 60.72 80.31 60.5 80.26C60.2306 80.205 59.9816 80.077 59.78 79.89L59.75 79.79Z" fill="#231F20"/>
<path d="M51.4395 47.92C51.459 48.0853 51.5116 48.2451 51.5942 48.3896C51.6768 48.5342 51.7877 48.6606 51.9202 48.7614C52.0527 48.8622 52.2042 48.9353 52.3656 48.9763C52.5269 49.0172 52.6949 49.0253 52.8595 49C53.0682 48.9375 53.2476 48.8023 53.365 48.6188C53.4824 48.4352 53.5301 48.2157 53.4995 48C53.3695 47.47 52.4095 47.23 51.8395 47.53C51.6718 47.6194 51.533 47.7546 51.4395 47.92Z" fill="#FAE8F1"/>
<path d="M51.4802 47.92C51.754 48.216 52.0709 48.4688 52.4202 48.67C52.4876 48.7394 52.572 48.7898 52.6651 48.8161C52.7581 48.8425 52.8565 48.8438 52.9502 48.82C53.0458 48.7788 53.1271 48.7103 53.184 48.6232C53.2409 48.536 53.2709 48.4341 53.2702 48.33C53.2767 48.262 53.2631 48.1935 53.2311 48.1331C53.1991 48.0726 53.1501 48.0229 53.0902 47.99C52.945 47.9178 52.7901 47.8673 52.6302 47.84C52.2514 47.7136 51.8379 47.7423 51.4802 47.92ZM51.4002 47.92C51.421 47.7717 51.4774 47.6306 51.5644 47.5087C51.6515 47.3869 51.7667 47.2878 51.9002 47.22C52.1648 47.0727 52.4705 47.0164 52.7702 47.06C53.0843 47.1046 53.3719 47.2608 53.5802 47.5C53.7127 47.6285 53.7939 47.8009 53.8086 47.9849C53.8234 48.169 53.7706 48.352 53.6602 48.5C53.4998 48.7243 53.2999 48.9174 53.0702 49.07C52.9504 49.1615 52.8134 49.2282 52.6675 49.2659C52.5215 49.3037 52.3694 49.3119 52.2202 49.29C52.074 49.2563 51.9361 49.1934 51.815 49.1049C51.6938 49.0164 51.5918 48.9043 51.5151 48.7754C51.4385 48.6464 51.3888 48.5032 51.369 48.3545C51.3493 48.2057 51.3599 48.0545 51.4002 47.91V47.92Z" fill="#231F20"/>
<path d="M50.8999 46.22C51.7199 45.86 52.0099 45.1 51.7699 44.66C51.6479 44.4858 51.4735 44.355 51.2721 44.2867C51.0707 44.2183 50.8527 44.216 50.6499 44.28C50.5243 44.3722 50.419 44.4891 50.3404 44.6235C50.2618 44.758 50.2116 44.9071 50.1929 45.0617C50.1741 45.2163 50.1873 45.3731 50.2315 45.5225C50.2757 45.6718 50.35 45.8105 50.4499 45.93C50.5707 46.0658 50.7263 46.166 50.8999 46.22Z" fill="#FAE8F1"/>
<path d="M50.9 46.18C51.139 45.8678 51.3466 45.5329 51.52 45.18C51.5821 45.1101 51.6219 45.0233 51.6344 44.9307C51.6468 44.8381 51.6314 44.7438 51.59 44.66C51.5261 44.5791 51.4403 44.5183 51.3428 44.4846C51.2454 44.4509 51.1403 44.4459 51.04 44.47C50.9666 44.4861 50.8974 44.5175 50.8371 44.5624C50.7767 44.6072 50.7266 44.6643 50.69 44.73C50.6324 44.8701 50.5986 45.0188 50.59 45.17C50.562 45.3509 50.5753 45.5357 50.629 45.7106C50.6827 45.8856 50.7754 46.0461 50.9 46.18ZM50.9 46.26C50.7514 46.279 50.6004 46.2606 50.4607 46.2065C50.321 46.1524 50.197 46.0642 50.1 45.95C49.902 45.7108 49.7925 45.4106 49.79 45.1C49.7958 44.773 49.9285 44.461 50.16 44.23C50.2767 44.1066 50.428 44.0214 50.594 43.9857C50.76 43.95 50.933 43.9654 51.09 44.03C51.3444 44.1299 51.5783 44.2756 51.78 44.46C51.8978 44.5603 51.9907 44.6866 52.0515 44.8289C52.1122 44.9711 52.1391 45.1256 52.13 45.28C52.0878 45.569 51.9372 45.8311 51.7087 46.0131C51.4803 46.1952 51.1912 46.2834 50.9 46.26Z" fill="#231F20"/>
<path d="M51.7499 46.76C52.0153 46.9738 52.3509 47.081 52.6911 47.0607C53.0314 47.0404 53.3518 46.8939 53.5899 46.65C53.6965 46.4704 53.735 46.2584 53.6983 46.0528C53.6616 45.8471 53.5521 45.6616 53.3899 45.53C52.9199 45.22 52.0199 45.66 51.7899 46.24C51.7308 46.4067 51.717 46.5862 51.7499 46.76Z" fill="#FAE8F1"/>
<path d="M51.7796 46.74C52.187 46.7563 52.595 46.7396 52.9996 46.69C53.0962 46.7039 53.1947 46.6929 53.2857 46.6579C53.3768 46.6228 53.4573 46.565 53.5196 46.49C53.5666 46.3983 53.5842 46.2944 53.5699 46.1923C53.5556 46.0903 53.5101 45.9952 53.4396 45.92C53.3892 45.869 53.328 45.83 53.2605 45.8057C53.193 45.7815 53.121 45.7727 53.0496 45.78C52.8899 45.8176 52.7354 45.8747 52.5896 45.95C52.4055 46.0152 52.2377 46.1197 52.0979 46.256C51.958 46.3924 51.8494 46.5576 51.7796 46.74ZM51.7196 46.74C51.6292 46.6158 51.5732 46.4699 51.5574 46.3171C51.5415 46.1643 51.5665 46.01 51.6296 45.87C51.7497 45.592 51.9568 45.3604 52.2196 45.21C52.4943 45.0502 52.8158 44.9902 53.1296 45.04C53.3032 45.0649 53.4644 45.1441 53.5901 45.2663C53.7159 45.3884 53.7997 45.5473 53.8296 45.72C53.8673 45.9985 53.8434 46.2818 53.7596 46.55C53.6954 46.7546 53.5723 46.9358 53.4056 47.0708C53.239 47.2057 53.0362 47.2886 52.8227 47.3088C52.6092 47.3291 52.3944 47.286 52.2054 47.1848C52.0163 47.0836 51.8612 46.9289 51.7596 46.74H51.7196Z" fill="#231F20"/>
<path d="M49.9996 46.68C49.9022 46.3599 49.6833 46.0907 49.3899 45.9299C49.0964 45.7692 48.7517 45.7297 48.4296 45.82C48.2487 45.9089 48.1024 46.0553 48.0137 46.2363C47.925 46.4173 47.899 46.6226 47.9395 46.82C48.1495 47.33 49.1395 47.43 49.6595 47.05C49.8047 46.9602 49.9223 46.8322 49.9996 46.68Z" fill="#FAE8F1"/>
<path d="M50.0004 46.68C49.6945 46.4374 49.3583 46.2358 49.0004 46.08C48.9231 46.0208 48.8321 45.9824 48.7358 45.9684C48.6395 45.9544 48.5413 45.9653 48.4504 46C48.364 46.0562 48.2954 46.136 48.2529 46.2299C48.2104 46.3238 48.1956 46.4279 48.2104 46.53C48.2173 46.5989 48.2435 46.6646 48.2859 46.7194C48.3284 46.7742 48.3854 46.816 48.4504 46.84C48.6015 46.8938 48.76 46.9242 48.9204 46.93C49.299 46.9856 49.6847 46.8963 50.0004 46.68ZM50.0804 46.68C50.0817 46.8287 50.0469 46.9756 49.9789 47.108C49.911 47.2404 49.812 47.3543 49.6904 47.44C49.4461 47.618 49.1526 47.7158 48.8504 47.72C48.5325 47.7152 48.2256 47.6023 47.9804 47.4C47.8347 47.2795 47.7327 47.1143 47.6904 46.93C47.6568 46.7645 47.6779 46.5925 47.7504 46.44C47.8752 46.1914 48.0486 45.9704 48.2604 45.79C48.48 45.577 48.7744 45.4585 49.0804 45.46C49.3708 45.4975 49.6349 45.6473 49.8162 45.8772C49.9975 46.1071 50.0815 46.3988 50.0504 46.69L50.0804 46.68Z" fill="#231F20"/>
<path d="M50.3 47.61C49.963 47.549 49.6154 47.6183 49.3276 47.804C49.0398 47.9897 48.8333 48.2778 48.75 48.61C48.7575 48.8197 48.8389 49.02 48.9798 49.1756C49.1207 49.3311 49.312 49.4318 49.52 49.46C50.09 49.46 50.65 48.7 50.52 48.09C50.4975 47.9112 50.4207 47.7437 50.3 47.61Z" fill="#FAE8F1"/>
<path d="M50.29 47.64C49.9197 47.8238 49.5652 48.0379 49.23 48.28C49.07 48.36 48.88 48.49 48.88 48.69C48.889 48.7925 48.9293 48.8897 48.9955 48.9685C49.0617 49.0472 49.1506 49.1036 49.25 49.13C49.3223 49.1523 49.3987 49.1575 49.4733 49.1454C49.5478 49.1333 49.6186 49.104 49.68 49.06C49.8061 48.9627 49.9144 48.8442 50 48.71C50.1294 48.5672 50.2232 48.3958 50.2736 48.2098C50.324 48.0238 50.3296 47.8286 50.29 47.64ZM50.29 47.58C50.4318 47.6375 50.5556 47.7317 50.6487 47.853C50.7419 47.9743 50.801 48.1182 50.82 48.27C50.8624 48.5721 50.7988 48.8795 50.64 49.14C50.4714 49.4122 50.2133 49.6172 49.91 49.72C49.747 49.7761 49.5706 49.7813 49.4045 49.7349C49.2384 49.6884 49.0904 49.5926 48.98 49.46C48.8043 49.247 48.678 48.9977 48.61 48.73C48.5692 48.5823 48.5597 48.4278 48.5821 48.2763C48.6045 48.1247 48.6583 47.9795 48.74 47.85C48.9196 47.6123 49.183 47.4521 49.4765 47.4019C49.7701 47.3517 50.0718 47.4154 50.32 47.58H50.29Z" fill="#231F20"/>
<path d="M50.9901 47.7069C51.3715 47.6156 51.6118 47.2542 51.5269 46.8997C51.442 46.5452 51.064 46.3319 50.6827 46.4232C50.3013 46.5146 50.061 46.876 50.1459 47.2305C50.2308 47.5849 50.6088 47.7983 50.9901 47.7069Z" fill="#FEE77A"/>
<path d="M50.6895 72.53C50.7079 72.6815 50.7564 72.8279 50.832 72.9605C50.9076 73.0932 51.0088 73.2094 51.1299 73.3025C51.2509 73.3956 51.3892 73.4636 51.5368 73.5027C51.6844 73.5418 51.8382 73.551 51.9895 73.53C52.1747 73.4714 52.3343 73.3512 52.4417 73.1892C52.549 73.0273 52.5976 72.8334 52.5795 72.64C52.4595 72.15 51.5795 71.93 51.0495 72.21C50.9029 72.2824 50.7785 72.3929 50.6895 72.53Z" fill="#FAE8F1"/>
<path d="M50.7295 72.53C50.9891 72.7875 51.2817 73.0094 51.5995 73.19C51.6572 73.2553 51.7308 73.3044 51.8133 73.3325C51.8957 73.3605 51.984 73.3666 52.0695 73.35C52.1552 73.3108 52.2275 73.2472 52.2773 73.1672C52.3271 73.0872 52.3522 72.9942 52.3495 72.9C52.3509 72.8407 52.3357 72.7821 52.3057 72.7309C52.2757 72.6797 52.232 72.6378 52.1795 72.61C52.0486 72.5505 51.9109 72.5068 51.7695 72.48C51.4285 72.3683 51.0583 72.3861 50.7295 72.53ZM50.6495 72.53C50.6672 72.391 50.7171 72.2581 50.7952 72.1418C50.8733 72.0254 50.9775 71.929 51.0995 71.86C51.3454 71.7214 51.6304 71.6686 51.9095 71.71C52.2035 71.7521 52.473 71.8974 52.6695 72.12C52.7889 72.2535 52.8625 72.4217 52.8795 72.6C52.8791 72.7607 52.8303 72.9175 52.7395 73.05C52.5869 73.2532 52.4009 73.429 52.1895 73.57C51.9618 73.745 51.6747 73.8239 51.3895 73.79C51.2547 73.7602 51.1275 73.7028 51.016 73.6214C50.9044 73.54 50.811 73.4364 50.7414 73.3171C50.6719 73.1978 50.6279 73.0653 50.6121 72.9282C50.5962 72.791 50.609 72.652 50.6495 72.52V72.53Z" fill="#231F20"/>
<path d="M50.2003 71C50.9503 70.68 51.2003 70 50.9903 69.57C50.884 69.4115 50.7285 69.2923 50.5478 69.2309C50.3671 69.1694 50.1712 69.1691 49.9903 69.23C49.8694 69.3094 49.7671 69.4141 49.6905 69.5369C49.614 69.6597 49.565 69.7976 49.5469 69.9411C49.5288 70.0847 49.5421 70.2305 49.5859 70.3684C49.6296 70.5063 49.7028 70.6331 49.8003 70.74C49.9082 70.8607 50.0462 70.9504 50.2003 71Z" fill="#FAE8F1"/>
<path d="M50.1897 70.93C50.3956 70.6096 50.5793 70.2755 50.7397 69.93C50.7982 69.8706 50.8373 69.7947 50.8515 69.7125C50.8658 69.6303 50.8547 69.5457 50.8197 69.47C50.7621 69.3959 50.684 69.3403 50.5952 69.31C50.5063 69.2798 50.4105 69.2763 50.3197 69.3C50.2557 69.3139 50.196 69.343 50.1455 69.3847C50.095 69.4265 50.0553 69.4797 50.0297 69.54C49.984 69.6889 49.9737 69.8464 49.9997 70C49.9606 70.1594 49.9574 70.3255 49.9903 70.4863C50.0231 70.6471 50.0912 70.7987 50.1897 70.93ZM50.1897 71.01C50.0496 71.0341 49.9056 71.0209 49.7722 70.9718C49.6388 70.9226 49.5206 70.8392 49.4297 70.73C49.2408 70.5103 49.1378 70.2297 49.1397 69.94C49.1414 69.6356 49.2636 69.3443 49.4797 69.13C49.5891 69.0117 49.7328 68.9307 49.8907 68.8984C50.0486 68.8661 50.2126 68.8841 50.3597 68.95C50.5973 69.0445 50.8145 69.1837 50.9997 69.36C51.1076 69.4548 51.1939 69.5718 51.2525 69.7029C51.3112 69.8341 51.3409 69.9763 51.3397 70.12C51.325 70.2536 51.2835 70.3829 51.2177 70.5001C51.1519 70.6174 51.0631 70.7201 50.9567 70.8023C50.8503 70.8844 50.7284 70.9443 50.5983 70.9782C50.4683 71.0122 50.3327 71.0196 50.1997 71L50.1897 71.01Z" fill="#231F20"/>
<path d="M51.0004 71.47C51.2445 71.6671 51.5538 71.7652 51.8669 71.7448C52.1799 71.7244 52.4739 71.5871 52.6904 71.36C52.7828 71.1988 52.8154 71.0101 52.7825 70.8272C52.7496 70.6443 52.6532 70.4789 52.5104 70.36C52.0804 70.08 51.2504 70.48 51.0404 71.01C50.9877 71.1573 50.974 71.3158 51.0004 71.47Z" fill="#FAE8F1"/>
<path d="M51 71.45C51.3743 71.4472 51.7482 71.4238 52.12 71.38C52.28 71.38 52.5 71.38 52.6 71.21C52.6424 71.1268 52.6566 71.032 52.6404 70.94C52.6241 70.8479 52.5784 70.7637 52.51 70.7C52.4657 70.657 52.4116 70.6254 52.3524 70.608C52.2931 70.5905 52.2305 70.5878 52.17 70.6C52.0273 70.6365 51.8896 70.6902 51.76 70.76C51.5911 70.8135 51.4357 70.9029 51.3046 71.022C51.1734 71.141 51.0695 71.2871 51 71.45ZM50.94 71.45C50.8531 71.3359 50.7981 71.2009 50.7805 71.0585C50.7629 70.9162 50.7835 70.7718 50.84 70.64C50.9488 70.3782 51.1379 70.1576 51.38 70.01C51.6411 69.8632 51.9446 69.8102 52.24 69.86C52.403 69.882 52.5545 69.9563 52.6717 70.0717C52.7889 70.1871 52.8655 70.3374 52.89 70.5C52.9227 70.7587 52.8988 71.0215 52.82 71.27C52.7466 71.5472 52.567 71.7844 52.32 71.93C52.0771 72.0454 51.7994 72.0642 51.5431 71.9825C51.2869 71.9008 51.0713 71.7247 50.94 71.49V71.45Z" fill="#231F20"/>
<path d="M49.3799 71.4C49.3374 71.2534 49.2664 71.1167 49.1709 70.9977C49.0755 70.8787 48.9575 70.7796 48.8238 70.7062C48.69 70.6328 48.5431 70.5866 48.3914 70.5701C48.2398 70.5535 48.0863 70.5671 47.9399 70.61C47.7561 70.6934 47.6091 70.841 47.5262 71.0251C47.4434 71.2091 47.4305 71.4171 47.4899 71.61C47.6799 72.07 48.5899 72.17 49.0699 71.82C49.2086 71.7099 49.3156 71.5649 49.3799 71.4Z" fill="#FAE8F1"/>
<path d="M49.3403 71.4C49.0277 71.1866 48.6923 71.0089 48.3403 70.87C48.2747 70.8116 48.1943 70.7723 48.1079 70.7565C48.0215 70.7406 47.9324 70.7487 47.8503 70.78C47.7688 70.8277 47.7039 70.8994 47.6646 70.9853C47.6252 71.0712 47.6132 71.1671 47.6303 71.26C47.6405 71.3179 47.6664 71.3718 47.7052 71.4159C47.744 71.46 47.7942 71.4925 47.8503 71.51C47.9862 71.5548 48.1274 71.5817 48.2703 71.59C48.6382 71.6646 49.0206 71.5967 49.3403 71.4ZM49.4203 71.4C49.4256 71.5395 49.3964 71.6782 49.3354 71.8038C49.2743 71.9294 49.1833 72.038 49.0703 72.12C48.8421 72.2912 48.5655 72.3857 48.2803 72.39C47.9832 72.3801 47.6981 72.2709 47.4703 72.08C47.3323 71.9688 47.237 71.8134 47.2003 71.64C47.1697 71.4832 47.1944 71.3206 47.2703 71.18C47.3848 70.9503 47.5447 70.7462 47.7403 70.58C47.9426 70.3788 48.2151 70.2641 48.5003 70.26C48.6374 70.2696 48.7711 70.3074 48.893 70.371C49.0149 70.4345 49.1224 70.5226 49.2087 70.6295C49.295 70.7365 49.3584 70.8602 49.3948 70.9927C49.4312 71.1253 49.4399 71.2639 49.4203 71.4Z" fill="#231F20"/>
<path d="M49.6495 72.25C48.8395 72.19 48.2395 72.68 48.2295 73.14C48.2328 73.3325 48.3054 73.5173 48.434 73.6606C48.5626 73.8039 48.7385 73.896 48.9295 73.92C49.4595 73.92 49.9295 73.22 49.8695 72.67C49.836 72.5125 49.7599 72.3672 49.6495 72.25Z" fill="#FAE8F1"/>
<path d="M49.6295 72.28C49.2195 72.52 48.9295 72.69 48.6295 72.87C48.3295 73.05 48.3095 73.05 48.2995 73.23C48.3067 73.3245 48.345 73.4139 48.4083 73.4845C48.4715 73.555 48.5564 73.6026 48.6495 73.62C48.7109 73.6363 48.7752 73.6385 48.8376 73.6264C48.8999 73.6142 48.9587 73.5881 49.0095 73.55C49.1176 73.461 49.212 73.3566 49.2895 73.24C49.4167 73.1173 49.5137 72.9667 49.5727 72.8001C49.6317 72.6335 49.6512 72.4554 49.6295 72.28ZM49.6295 72.21C49.7649 72.2599 49.8839 72.346 49.9739 72.4588C50.0638 72.5716 50.1211 72.7069 50.1395 72.85C50.1857 73.1398 50.1249 73.4365 49.9685 73.6849C49.8121 73.9333 49.5708 74.1163 49.2895 74.2C49.1382 74.2547 48.9733 74.2601 48.8188 74.2151C48.6642 74.1702 48.5279 74.0774 48.4295 73.95C48.2627 73.7528 48.143 73.5203 48.0795 73.27C48.0292 73.0714 48.041 72.8622 48.1134 72.6706C48.1858 72.479 48.3153 72.3143 48.4843 72.1987C48.6534 72.083 48.8539 72.0221 49.0587 72.0242C49.2635 72.0262 49.4628 72.091 49.6295 72.21Z" fill="#231F20"/>
<path d="M50.2767 72.3424C50.6258 72.2588 50.8452 71.9254 50.7667 71.5978C50.6882 71.2702 50.3416 71.0723 49.9925 71.156C49.6434 71.2396 49.424 71.573 49.5024 71.9006C49.5809 72.2282 49.9275 72.426 50.2767 72.3424Z" fill="#FEE77A"/>
</svg>
