<svg width="67" height="107" viewBox="0 0 67 107" fill="none" xmlns="http://www.w3.org/2000/svg">
<path d="M0.669406 52C6.43941 40.4 27.5694 40.67 33.8394 40.75C42.0594 40.86 58.8994 41.08 64.6194 51.43C67.1194 55.94 65.6194 63.19 62.7794 77.68C60.5294 88.99 59.3194 94.68 55.5694 98.53C49.0594 105.11 39.7294 105.35 33.4694 105.53C27.0394 105.69 16.2194 105.96 9.46941 98.8C7.76941 97.02 6.38941 94.8 2.93941 75.71C-0.740594 55.46 -0.000594318 53.4 0.669406 52Z" fill="#8B5E3C"/>
<path d="M0.579427 52C1.63152 49.9487 3.14438 48.1688 4.99943 46.8C6.83322 45.4113 8.85294 44.287 10.9994 43.46C15.2849 41.8413 19.7683 40.8054 24.3294 40.38C28.8424 39.9479 33.3794 39.8209 37.9094 40C40.1993 40.0455 42.4855 40.2057 44.7594 40.48C47.0536 40.7379 49.324 41.1759 51.5494 41.79C53.7974 42.363 55.9644 43.2164 57.9994 44.33C60.0818 45.4286 61.9217 46.9352 63.4094 48.76C63.789 49.2026 64.1239 49.6816 64.4094 50.19C64.74 50.6793 65.0309 51.1943 65.2794 51.73C65.75 52.8157 66.0405 53.9708 66.1394 55.15C66.3223 57.4347 66.2451 59.7327 65.9094 62C65.3094 66.52 64.4194 71 63.5894 75.42C62.7594 79.84 61.9994 84.37 60.9094 88.81C60.4057 91.069 59.6545 93.2656 58.6694 95.36C58.1432 96.4307 57.4956 97.4373 56.7394 98.36C56.3578 98.813 55.9469 99.2406 55.5094 99.64C55.0924 100.059 54.6481 100.45 54.1794 100.81C50.4315 103.673 45.9691 105.451 41.2794 105.95C39.0001 106.245 36.707 106.422 34.4094 106.48C32.1394 106.56 29.8494 106.64 27.5394 106.56C22.8307 106.552 18.1836 105.489 13.9394 103.45C11.8097 102.314 9.89977 100.807 8.29943 99C7.51299 98.0293 6.90061 96.9297 6.48943 95.75C6.09712 94.6552 5.76331 93.5403 5.48943 92.41C4.89943 90.18 4.48943 87.95 4.02943 85.71C3.56943 83.47 3.20943 81.27 2.84943 79C2.15943 74.52 1.47943 70 0.919427 65.52C0.649427 63.29 0.359427 61 0.179427 58.77C0.0894272 57.64 -0.000572806 56.5 -0.000572806 55.37C-0.079884 54.2164 0.119028 53.0607 0.579427 52ZM0.759427 52.09C0.331169 53.1239 0.153005 54.2443 0.239427 55.36C0.239427 56.49 0.339427 57.62 0.479427 58.74C0.739427 60.99 1.05943 63.23 1.47943 65.46C2.27943 69.92 3.18943 74.36 4.15943 78.78C5.12943 83.2 6.09943 87.63 7.30943 91.93C7.62943 93 7.95943 94.06 8.30943 95.06C8.6507 96.0242 9.15839 96.9211 9.80943 97.71C11.2644 99.2738 12.9799 100.573 14.8794 101.55C18.8496 103.426 23.1784 104.422 27.5694 104.47C29.7894 104.58 32.0394 104.53 34.2994 104.47C36.5354 104.451 38.7687 104.311 40.9894 104.05C45.3887 103.669 49.6053 102.115 53.1994 99.55C53.6424 99.2467 54.0635 98.9126 54.4594 98.55C54.8648 98.1929 55.2488 97.8123 55.6094 97.41C56.3199 96.5996 56.9402 95.7144 57.4594 94.77C58.4811 92.7973 59.2826 90.7181 59.8494 88.57C61.0494 84.23 61.9894 79.78 62.8494 75.35C63.7094 70.92 64.6994 66.47 65.2194 61.98C65.5091 59.7611 65.5393 57.5159 65.3094 55.29C65.1661 54.2138 64.8521 53.1674 64.3794 52.19C64.1348 51.7051 63.8469 51.2433 63.5194 50.81C63.2321 50.3463 62.8969 49.9139 62.5194 49.52C61.0597 47.8793 59.2844 46.5495 57.2994 45.61C56.3265 45.1166 55.3247 44.6825 54.2994 44.31C53.2394 43.99 52.1894 43.64 51.1094 43.4C46.7487 42.411 42.2998 41.8616 37.8294 41.76C33.3194 41.62 28.8294 41.43 24.3194 41.68C19.8242 41.8456 15.3728 42.6262 11.0894 44C8.94622 44.7153 6.92339 45.7503 5.08943 47.07C3.27228 48.3805 1.78898 50.1002 0.759427 52.09Z" fill="#231F20"/>
<path d="M0.659376 51.09C0.839376 44.78 19.9994 39.16 35.9194 39.72C48.5494 40.17 65.2694 44.72 65.5394 50.65C65.8094 56.58 49.5994 63.37 35.2594 64C18.8294 64.63 0.489376 57.34 0.659376 51.09Z" fill="#A97C50"/>
<path d="M0.55861 51.09C0.599958 50.3058 0.871233 49.5511 1.33861 48.92C1.78196 48.2903 2.31031 47.7249 2.90861 47.24C4.09126 46.2631 5.37923 45.4212 6.74861 44.73C9.48524 43.338 12.3482 42.2095 15.2986 41.36C21.1959 39.6054 27.3266 38.7623 33.4786 38.86C39.602 39.083 45.6776 40.0296 51.5786 41.68C54.5418 42.4222 57.4331 43.4261 60.2186 44.68C61.6347 45.3335 62.9565 46.1744 64.1486 47.18C64.768 47.717 65.2775 48.369 65.6486 49.1C66.0605 49.8971 66.1841 50.8121 65.9986 51.69C65.5366 53.2831 64.5979 54.6964 63.3086 55.74C62.1298 56.7742 60.8462 57.6825 59.4786 58.45C56.7834 59.9571 53.9422 61.1867 50.9986 62.12C45.1224 64.0714 38.9704 65.0641 32.7786 65.06C26.5825 64.994 20.4412 63.8921 14.6086 61.8C11.7088 60.789 8.92074 59.4821 6.28861 57.9C4.97186 57.1088 3.74761 56.173 2.63861 55.11C2.08028 54.5771 1.59596 53.9717 1.19861 53.31C0.77842 52.646 0.556398 51.8758 0.55861 51.09ZM0.75861 51.09C0.772993 51.8342 0.998403 52.5589 1.40861 53.18C1.80005 53.8191 2.28168 54.3984 2.83861 54.9C3.96663 55.8964 5.2207 56.7403 6.56861 57.41C9.25653 58.759 12.0831 59.8119 14.9986 60.55C20.7966 62.0618 26.7572 62.861 32.7486 62.93C38.7238 62.9165 44.6655 62.0374 50.3886 60.32C53.2495 59.4862 56.0278 58.3916 58.6886 57.05C59.9963 56.3794 61.2413 55.5929 62.4086 54.7C63.5477 53.8905 64.4184 52.7586 64.9086 51.45C65.0262 50.784 64.963 50.0987 64.7255 49.4655C64.4881 48.8323 64.0851 48.2744 63.5586 47.85C62.4784 46.8351 61.2512 45.9889 59.9186 45.34C57.2067 44.0245 54.3554 43.0182 51.4186 42.34C48.481 41.6365 45.4967 41.1453 42.4886 40.87C39.4987 40.5691 36.4924 40.4622 33.4886 40.55C27.4838 40.722 21.505 41.4112 15.6186 42.61C12.6671 43.1876 9.77972 44.0551 6.99861 45.2C5.6046 45.7738 4.2931 46.5304 3.09861 47.45C2.50365 47.9015 1.98098 48.441 1.54861 49.05C1.09176 49.6421 0.817248 50.3544 0.75861 51.1V51.09Z" fill="#231F20"/>
<path d="M7.75885 50.9C7.88885 46.4 22.5089 42.42 34.6489 42.82C44.2789 43.14 57.0389 46.39 57.2389 50.6C57.4389 54.81 45.0889 59.6 34.1489 60.06C21.6189 60.54 7.61885 55.34 7.75885 50.9Z" fill="#231F20" stroke="#231F20" stroke-width="3" stroke-miterlimit="10"/>
<path d="M30.5085 50.08V51.69C30.5085 54.88 30.3785 57.88 30.1785 60.69C29.6885 60.69 29.1785 60.63 28.6885 60.58C27.8457 60.4929 27.008 60.3628 26.1785 60.19C25.8252 58.4633 25.5085 56.6267 25.2285 54.68C25.1185 53.97 25.0185 53.24 24.9185 52.49C24.8685 52.03 24.8085 51.57 24.7485 51.11C24.7534 51.0234 24.7534 50.9366 24.7485 50.85C23.9796 44.105 23.8089 37.3051 24.2385 30.53C24.3085 29.35 24.3985 28.2 24.5185 27.06C24.8685 23.26 25.3885 19.73 26.0085 16.5C27.543 22.2335 28.6922 28.0631 29.4485 33.95C29.5785 34.95 29.6885 35.95 29.7885 36.95C30.2585 41.56 30.4785 46 30.5085 50.08Z" fill="#3A7867"/>
<path d="M30.5602 50.08C30.5602 51.85 30.5002 53.61 30.4902 55.37V60.67V61H30.2002C29.5202 61 28.8302 61 28.2002 60.86C27.5702 60.72 26.8402 60.69 26.2002 60.59H25.9402L25.8902 60.32L25.0002 56.12C24.7602 54.75 24.5802 53.36 24.4202 51.99C24.1202 49.22 23.9602 46.44 23.8802 43.66C23.8002 40.88 23.7802 38.1 23.8002 35.33C23.8202 32.56 23.9702 29.77 24.1502 26.99C24.3938 23.4278 24.8378 19.8822 25.4802 16.37L25.8502 14.37L26.4102 16.37C27.3402 19.72 28.1402 23.11 28.7502 26.54C29.0602 28.25 29.3402 29.97 29.5802 31.69C29.8202 33.41 29.9602 35.15 30.1102 36.89C30.2702 39.09 30.3702 41.29 30.4302 43.49C30.4902 45.69 30.5802 47.88 30.5602 50.08ZM30.4602 50.08C30.4002 47.88 30.3502 45.68 30.1302 43.49C29.9102 41.3 29.6902 39.12 29.3802 36.95C29.1302 35.24 28.9202 33.53 28.6302 31.83C28.3402 30.13 28.0802 28.41 27.7602 26.72C27.1002 23.33 26.3802 19.95 25.5202 16.61H26.4402C25.7602 20.08 25.2202 23.61 24.8002 27.11C24.5002 29.85 24.2202 32.61 24.1702 35.38C24.0902 38.1513 24.1503 40.9248 24.3502 43.69C24.5602 46.45 24.8802 49.2 25.2702 51.93C25.4602 53.31 25.6502 54.67 25.9102 56.03L26.5602 60.12L26.2602 59.81C26.9102 59.92 27.5602 60.03 28.2602 60.16C28.9602 60.29 29.5802 60.33 30.2602 60.42L29.9602 60.68L30.3202 55.41L30.4702 52.77C30.4602 51.84 30.4502 51 30.4602 50.08Z" fill="#231F20"/>
<path d="M45.4492 63.72L44.4492 63.9" stroke="#231F20" stroke-miterlimit="10"/>
<path d="M48.9995 46.54V47C48.9995 47.81 48.9995 48.65 48.9995 49.51C49.0695 51.85 49.2495 54.38 49.5895 57.07C48.5666 57.5769 47.5109 58.0145 46.4295 58.38C45.8395 58.59 45.2295 58.77 44.5995 58.95L44.3495 59.02L43.9595 59.13L43.5195 57.78C42.8746 55.686 42.3701 53.5512 42.0095 51.39C41.8395 50.39 41.6995 49.39 41.5895 48.26C41.5895 48.12 41.5895 47.98 41.5895 47.84C41.5295 47.23 41.4895 46.62 41.4595 46C41.4595 45.89 41.4595 45.79 41.4595 45.68C41.4646 45.5801 41.4646 45.4799 41.4595 45.38C41.4019 43.4501 41.4821 41.5185 41.6995 39.6C42.0294 36.6585 42.7247 33.7695 43.7695 31C44.1094 30.0774 44.4966 29.1729 44.9295 28.29C45.3095 27.5 45.7295 26.7 46.1995 25.91V25.83L46.2495 25.76C49.7256 19.9 54.7495 15.1113 60.7695 11.92C57.9681 14.6835 55.6073 17.8605 53.7695 21.34C50.4095 27.78 49.8495 33.45 49.2895 39.62C49.1395 41.61 48.9995 43.93 48.9995 46.54Z" fill="#3A7867"/>
<path d="M48.9997 46.54C48.9997 48.3 49.0797 50.05 49.1997 51.8C49.3197 53.55 49.5597 55.29 49.8197 57.02V57.19L49.6697 57.26L46.9997 58.49C46.5397 58.72 46.0497 58.84 45.5797 59.02L44.8597 59.26L44.1297 59.48L43.7797 59.58L43.6597 59.23L43.2097 57.88V57.82V57.76V57.87C42.883 56.8233 42.583 55.7633 42.3097 54.69C42.0397 53.62 41.8397 52.53 41.6597 51.44L41.2597 48.28L41.1797 46.97V45.68C41.1797 44.44 41.1797 43.17 41.2797 41.92C41.3797 40.67 41.5297 39.41 41.7397 38.17C42.1492 35.6928 42.799 33.2613 43.6797 30.91V31.02V30.8L44.8297 28.07V28.15L45.9997 25.65V25.7L46.0697 25.56V25.68V25.63V25.56C47.7573 22.6119 49.8549 19.9184 52.2997 17.56C54.7685 15.1994 57.5433 13.1813 60.5497 11.56L63.4797 9.95999L61.1297 12.34C58.9575 14.5505 57.042 16.9994 55.4197 19.64C53.8093 22.2586 52.5296 25.0667 51.6097 28C50.7355 30.9956 50.1167 34.0599 49.7597 37.16L49.4797 39.49C49.3997 40.27 49.3597 41.06 49.3097 41.84L48.9997 46.54ZM48.8997 46.54L49.0697 41.83L49.1497 39.48L49.2997 37.13C49.4652 33.9717 49.9374 30.8369 50.7097 27.77C51.5509 24.6802 52.8306 21.7268 54.5097 19C56.1475 16.2673 58.1342 13.7596 60.4197 11.54L60.9997 12.33C58.0406 13.8846 55.2918 15.8101 52.8197 18.06C51.5803 19.181 50.4208 20.3873 49.3497 21.67C48.276 22.9635 47.2936 24.3301 46.4097 25.76V25.64V25.72L45.1197 28.07V27.99L43.9497 30.67V30.62V30.69H43.8997V30.63C43.0146 32.9557 42.3973 35.3746 42.0597 37.84C41.8948 39.0739 41.7946 40.3156 41.7597 41.56C41.7597 42.8 41.7597 44.02 41.8097 45.29L41.9197 46.58L41.9997 48.13L42.4297 51.23C42.6097 52.3 42.8497 53.36 43.0897 54.41C43.3297 55.46 43.5997 56.53 43.8997 57.57V57.63V57.69V57.56L44.3597 59L43.8997 58.75L44.6097 58.57L45.3297 58.37C45.7997 58.22 46.3297 58.12 46.7497 57.93L49.5297 56.87L49.4097 57.1C49.2297 55.35 49.1197 53.59 49.0397 51.83C48.9597 50.07 48.9997 48.3 48.9397 46.54H48.8997Z" fill="#231F20"/>
<path d="M46.9097 39.3C46.9147 39.3632 46.9147 39.4268 46.9097 39.49C46.9097 41.49 46.9097 43.35 46.8197 45.19C46.7197 47.44 46.5497 49.59 46.3297 51.64C46.3297 51.74 46.3297 51.85 46.3297 51.95C46.3297 52.38 46.2397 52.81 46.1897 53.23C46.1397 53.65 46.0997 53.9 46.0597 54.23C45.8264 55.9033 45.5764 57.4933 45.3097 59L45.1297 60C44.7997 60.08 44.4497 60.16 44.1297 60.22C43.403 60.3705 42.6685 60.4807 41.9297 60.55H41.4397C41.2797 58.09 41.1797 55.43 41.1797 52.55C41.1797 52.24 41.1797 51.91 41.1797 51.55V51.06C41.1797 48.94 41.2664 46.7333 41.4397 44.44C41.5697 42.5 41.7497 40.52 41.9997 38.44C41.9997 38.02 42.0897 37.59 42.1497 37.17C42.2597 36.32 42.3697 35.5 42.4997 34.68C43.1498 30.2977 44.0547 25.957 45.2097 21.68C45.9883 25.7972 46.5126 29.9584 46.7797 34.14C46.8197 36 46.8897 37.66 46.9097 39.3Z" fill="#3A7867"/>
<path d="M46.9995 39.3V39.49C46.9995 40.72 46.9995 41.96 46.9995 43.19V45.05C46.9995 45.67 46.9995 46.28 46.9395 46.9L46.7895 50.62C46.7895 51.23 46.7295 51.87 46.6695 52.49C46.6095 53.11 46.5495 53.72 46.4695 54.34V54.27V54.33C46.2495 55.93 45.9495 57.52 45.6995 59.11V59.04V59.11L45.5095 60.11L45.4595 60.38H45.1995C44.5795 60.5 43.9495 60.61 43.3095 60.68C42.6695 60.75 42.0495 60.85 41.4095 60.88H41.0895V60.58C41.0895 58.74 41.0895 56.9 41.0295 55.06C40.9695 53.22 40.9395 51.38 41.0295 49.54C41.1195 47.7 41.0795 45.87 41.1595 44.03L41.5495 38.5C41.8195 35.64 42.2395 32.82 42.7495 30C43.2595 27.18 43.9395 24.4 44.6795 21.63L45.2395 19.53L45.6595 21.67C45.9395 23.12 46.1295 24.59 46.3195 26.05C46.5095 27.51 46.6095 28.98 46.7095 30.46C46.8095 31.94 46.8695 33.4 46.8795 34.87C46.8895 36.34 46.9095 37.83 46.9995 39.3ZM46.8995 39.3C46.8395 37.83 46.7595 36.36 46.6695 34.9C46.5795 33.44 46.3795 31.98 46.1795 30.53C45.9795 29.08 45.7195 27.64 45.4895 26.19C45.2595 24.74 44.9495 23.32 44.6895 21.88H45.6895C44.9595 24.62 44.3695 27.39 43.7995 30.17C43.4595 31.6 43.1995 33 42.9995 34.4C42.7995 35.8 42.5595 37.21 42.3795 38.6L41.7395 44.05C41.5795 45.88 41.4795 47.72 41.3895 49.55C41.3895 50.47 41.2995 51.38 41.2995 52.3C41.2995 53.22 41.3695 54.14 41.3995 55.05C41.4695 56.89 41.5895 58.72 41.6995 60.54L41.3795 60.26C41.9895 60.26 42.5995 60.06 43.2095 59.96C43.8124 59.8734 44.41 59.7532 44.9995 59.6L44.6895 59.92L44.8495 58.98V59.05V59C45.0995 57.42 45.2995 55.83 45.5795 54.25V54.31V54.25C45.7495 53.04 45.9395 51.81 46.0595 50.59L46.4795 46.92C46.5395 46.31 46.6295 45.7 46.6695 45.08L46.7595 43.23C46.8095 42 46.8395 40.76 46.8595 39.53L46.8995 39.3Z" fill="#231F20"/>
<path d="M21.6993 59.58C20.6713 59.3691 19.6664 59.0576 18.6993 58.65C18.1183 57.6552 17.6038 56.6229 17.1593 55.56C16.9893 55.14 16.8293 54.73 16.6993 54.34C16.6993 54.27 16.6493 54.21 16.6393 54.15C15.8135 51.8794 15.5828 49.4351 15.9693 47.05C16.3093 45.1 16.9693 43.89 17.8493 40.27C18.5108 37.4098 18.9355 34.5 19.1193 31.57C19.7464 32.9336 20.2647 34.3447 20.6693 35.79C21.0981 37.3506 21.3826 38.9473 21.5193 40.56C21.5193 41.14 21.5893 41.75 21.5893 42.37C21.5893 42.99 21.5893 43.72 21.5293 44.3C21.4493 45.23 21.3293 46.06 21.2293 47.09C21.0397 48.9971 20.9729 50.9144 21.0293 52.83C21.0293 52.9 21.0293 52.96 21.0293 53.03C21.0293 53.36 21.0293 53.69 21.0293 54.03C21.0293 54.55 21.0993 55.03 21.1493 55.63C21.3193 56.88 21.4693 58.19 21.6993 59.58Z" fill="#3A7867"/>
<path d="M21.7288 59.61C21.4535 59.5958 21.1795 59.5623 20.9088 59.51L20.1388 59.34C19.6236 59.2123 19.1161 59.0553 18.6188 58.87H18.5388V58.79L16.8488 55.68C16.3789 54.5852 16.0074 53.4507 15.7388 52.29C15.1586 49.9366 15.2979 47.4633 16.1388 45.19C16.5288 44.07 16.9388 43 17.2888 41.88C17.6388 40.76 17.8988 39.64 18.1188 38.5C18.5561 36.2146 18.8003 33.8964 18.8488 31.57V30.3L19.4288 31.45C20.1178 32.8099 20.6834 34.229 21.1188 35.69V35.81V35.7C21.5611 37.2759 21.8557 38.8895 21.9988 40.52C21.9988 41.15 22.0788 41.79 22.0888 42.43L22.0288 44.34C21.8888 45.61 21.7188 46.9 21.5988 48.14C21.4788 49.38 21.3988 50.66 21.3788 51.92C21.3588 53.18 21.3788 54.44 21.4388 55.73C21.4988 57.02 21.6388 58.41 21.7288 59.61ZM21.6588 59.54L20.9988 55.8C20.8119 54.5403 20.6884 53.2721 20.6288 52C20.6288 50.72 20.6288 49.43 20.6288 48.14C20.6288 46.85 20.8588 45.6 20.9688 44.32L21.0388 42.49L20.9988 40.62C20.8871 39.033 20.6293 37.4597 20.2288 35.92V35.86V35.8V35.92C19.8648 34.4846 19.3969 33.0775 18.8288 31.71L19.4388 31.6C19.2088 33.94 18.8388 36.25 18.3788 38.6C17.9188 40.95 17.3788 43.19 16.7288 45.42C16.1451 47.6178 16.0733 49.9201 16.5188 52.15C16.7571 53.2733 17.0916 54.3741 17.5188 55.44L18.9488 58.59L18.8388 58.49C19.3004 58.7197 19.7744 58.9234 20.2588 59.1L20.9888 59.36C21.2165 59.4022 21.4406 59.4624 21.6588 59.54Z" fill="#231F20"/>
<path d="M49.5986 62.83L48.8086 63.02" stroke="#231F20" stroke-miterlimit="10"/>
<path d="M41.6198 45.55C41.6198 45.77 41.6198 46 41.5398 46.21C41.4698 46.82 41.3898 47.41 41.3198 47.99C40.6982 52.2513 39.7317 56.4551 38.4298 60.56L37.6298 60.63H36.7298C35.7298 60.63 34.6098 60.63 33.5298 60.63C32.8098 60.63 32.0898 60.53 31.3598 60.45C30.7458 56.3288 30.4483 52.1666 30.4698 48C30.4698 47.39 30.4698 46.8 30.4698 46.24C30.4698 46.03 30.4698 45.83 30.4698 45.64C30.4698 44.64 30.5698 43.64 30.6398 42.77C31.1298 36.22 32.2698 32.56 33.0398 26.24C33.1898 25.07 33.3298 23.79 33.4398 22.39C33.9811 15.762 33.8739 9.0971 33.1198 2.48999C35.8848 7.59169 38.0365 13.0026 39.5298 18.61C40.0298 20.44 40.4598 22.35 40.8298 24.36C42.1163 31.348 42.3824 38.4856 41.6198 45.55Z" fill="#3A7867"/>
<path d="M41.6695 45.55C41.5295 46.83 41.3795 48.1 41.1895 49.37C40.9995 50.64 40.7495 51.9 40.5195 53.16C40.0395 55.68 39.4395 58.1767 38.7195 60.65L38.6595 60.84H38.4595C37.8595 60.91 37.2695 60.96 36.6795 61H34.8895C34.2895 61 33.6895 61 33.0995 61L31.3095 60.87H30.9995V60.53C30.5417 57.6772 30.2678 54.7979 30.1795 51.91C30.0943 49.0205 30.1844 46.1286 30.4495 43.25C30.6895 40.38 31.1095 37.52 31.6295 34.69C32.1495 31.86 32.6295 29.03 32.9695 26.18C33.1295 24.18 33.3495 22.24 33.4195 20.26C33.4895 18.28 33.5295 16.26 33.5095 14.33C33.4681 10.3756 33.2111 6.4264 32.7395 2.5L32.3895 0L33.5995 2.2C35.4122 5.47668 36.9573 8.89447 38.2195 12.42C38.8495 14.19 39.4095 15.97 39.9095 17.78C40.4095 19.59 40.7395 21.43 41.1295 23.26C41.8252 26.9334 42.1933 30.6614 42.2295 34.4C42.2834 38.1249 42.0964 41.8493 41.6695 45.55ZM41.5695 45.55C41.9576 41.8563 42.0312 38.1362 41.7895 34.43C41.5527 30.7287 41.0312 27.0512 40.2295 23.43L39.5795 20.73C39.3595 19.84 39.1895 18.93 38.9295 18.04C38.4295 16.26 37.8662 14.5033 37.2395 12.77C35.9795 9.2998 34.4792 5.92161 32.7495 2.66L33.6595 2.37C34.0874 6.33497 34.2711 10.3225 34.2095 14.31C34.2095 16.31 34.1128 18.31 33.9195 20.31C33.7895 22.31 33.5195 24.31 33.2895 26.24C32.9395 29.1 32.3695 31.93 31.8995 34.76C31.3865 37.5861 31.0525 40.4418 30.8995 43.31C30.7395 46.1678 30.7395 49.0322 30.8995 51.89C31.0295 54.75 31.3595 57.59 31.7195 60.43L31.3495 60.07L33.0895 60.24C33.6695 60.31 34.2595 60.24 34.8395 60.3H36.5895C37.1695 60.3 37.7595 60.3 38.3395 60.23L38.0695 60.44C38.9083 58.0249 39.6226 55.5683 40.2095 53.08C40.8009 50.5935 41.2549 48.0764 41.5695 45.54V45.55Z" fill="#231F20"/>
</svg>
