<svg width="94" height="135" viewBox="0 0 94 135" fill="none" xmlns="http://www.w3.org/2000/svg">
<path d="M83.3205 67.13C85.6835 82.3302 87.2822 97.6395 88.1105 113L23.1105 124.07C18.1301 109.471 14.164 94.5455 11.2405 79.4C10.7205 76.71 10.2405 73.97 9.77051 71.18C9.21051 67.7867 8.71051 64.4533 8.27051 61.18C6.41508 47.4554 5.41316 33.6288 5.27051 19.78L70.3405 8.70001C73.9005 20.93 77.2705 34.37 80.1305 48.94C80.5805 51.2 81.0105 53.48 81.4305 55.8C82.1238 59.6333 82.7538 63.41 83.3205 67.13Z" fill="white" stroke="#010101" stroke-miterlimit="10" stroke-linecap="round"/>
<path d="M4.89992 19.4L3.66992 12.56L7.57992 14.56L11.3699 11.1L15.9999 12.69L19.9999 9.86L25.9999 10.99L30.4799 7.93L36.1999 9.48L39.5499 6.22L44.9999 8.31C46.6066 6.94334 48.2233 5.58 49.8499 4.22C51.6799 5.01 53.4999 5.81 55.3299 6.59L60.1799 2.79L64.1799 5.21C65.4299 4 67.7999 2.2 69.0499 0.940002C69.7499 3.16 69.5999 6.04 70.2899 8.26C48.5699 12 26.5999 15.64 4.89992 19.4Z" fill="#1F705E" stroke="#010101" stroke-miterlimit="10" stroke-linecap="round"/>
<path d="M9.47995 23C10.37 26.54 11.14 30.1 11.84 33.67C12.54 37.24 13.18 40.82 13.68 44.43C14.18 48.04 14.51 51.66 15.05 55.26C15.59 58.86 16.28 62.41 17 66C17.72 69.59 18.47 73.13 19.12 76.71C19.77 80.29 20.45 83.87 21.02 87.46C22.15 94.65 23.13 101.86 23.8 109.12C23.8031 109.132 23.8033 109.145 23.8007 109.157C23.7981 109.169 23.7927 109.18 23.785 109.19C23.7772 109.2 23.7673 109.208 23.756 109.213C23.7447 109.218 23.7324 109.22 23.72 109.22C23.6992 109.221 23.6789 109.214 23.6625 109.201C23.646 109.188 23.6346 109.17 23.63 109.15C21.9 102.07 20.5 94.93 19.23 87.76C18.61 84.17 18.08 80.57 17.54 76.97C17 73.37 16.54 69.77 16.07 66.15C15.6 62.53 15.13 58.93 14.47 55.36C13.81 51.79 13 48.2 12.28 44.63C11.56 41.06 11 37.47 10.53 33.86C10.06 30.25 9.60995 26.64 9.30995 23C9.30626 22.9885 9.30564 22.9761 9.30816 22.9642C9.31068 22.9524 9.31625 22.9413 9.32432 22.9322C9.33239 22.9232 9.34269 22.9163 9.3542 22.9124C9.3657 22.9086 9.37803 22.9077 9.38995 22.91C9.41141 22.9161 9.43096 22.9275 9.44672 22.9433C9.46248 22.959 9.47392 22.9786 9.47995 23Z" fill="#010101"/>
<path d="M35.63 117C37.5306 116.382 39.4635 115.868 41.42 115.46C43.3652 115.027 45.3311 114.694 47.31 114.46C49.31 114.24 51.31 114.18 53.31 113.92C55.2859 113.637 57.2453 113.25 59.18 112.76C61.11 112.28 63.05 111.83 65.01 111.47C66.97 111.11 68.92 110.69 70.89 110.39C74.8343 109.78 78.8113 109.406 82.8 109.27C82.8114 109.269 82.8228 109.27 82.8337 109.273C82.8446 109.276 82.8547 109.282 82.8632 109.29C82.8717 109.297 82.8785 109.306 82.8831 109.317C82.8878 109.327 82.8901 109.339 82.89 109.35C82.8897 109.369 82.8839 109.388 82.8733 109.404C82.8626 109.42 82.8476 109.432 82.83 109.44C79.0036 110.583 75.1136 111.501 71.18 112.19C69.18 112.53 67.25 112.79 65.27 113.05C63.29 113.31 61.27 113.52 59.27 113.69C57.2838 113.84 55.3074 114.101 53.35 114.47C51.35 114.85 49.48 115.47 47.53 115.87C45.58 116.27 43.61 116.56 41.63 116.79C39.6385 117.029 37.6357 117.163 35.63 117.19C35.63 117.19 35.55 117.19 35.54 117.1C35.5399 117.075 35.5491 117.051 35.5657 117.033C35.5824 117.014 35.6053 117.002 35.63 117Z" fill="#010101"/>
<path d="M83.3205 67.13L11.2505 79.4C10.7205 76.71 10.2505 73.97 9.77051 71.18C9.21051 67.7867 8.71051 64.4533 8.27051 61.18L80.1305 48.94C80.5805 51.2 81.0105 53.48 81.4305 55.8C82.1238 59.6333 82.7538 63.41 83.3205 67.13Z" fill="#1F705E" stroke="#010101" stroke-miterlimit="10" stroke-linecap="round"/>
<path d="M55.5098 86.17C69.8798 80.94 77.8898 66.72 73.4098 54.41C68.9298 42.1 53.6498 36.41 39.2798 41.59C24.9098 46.77 16.8998 61 21.3798 73.35C25.8598 85.7 41.1398 91.4 55.5098 86.17Z" fill="#FAF28C" stroke="#010101" stroke-miterlimit="10"/>
<path d="M22.9102 124.29C23.2802 126.58 23.6402 128.87 24.0102 131.17C25.0168 130.11 26.0168 129.043 27.0102 127.97L31.7302 129.97C33.0102 128.97 34.2702 127.97 35.5402 126.97L40.2802 128.31L45.5202 125.31L50.7602 126.71L55.6502 123.35L59.8802 125.35L64.3602 121.57L70.2902 123.83L74.6702 119.77L80.5102 121.77L83.5102 118.16C85.1002 118.93 87.9202 119.8 89.5102 120.57C89.4302 118.24 88.3402 115.57 88.2602 113.25C66.5602 116.79 44.6302 120.66 22.9102 124.29Z" fill="#1F705E" stroke="#010101" stroke-miterlimit="10" stroke-linecap="round"/>
<path d="M82.69 61.78L82.94 63.28L80.5 64.1L79.81 64.33L79.88 66.06L80.16 72.73L80 72.36L78.7 68.72L77.39 65L69.53 64.83H69L69.66 64.65L77.39 62.49L76.93 53.65L79 61.93L81 61.85L82.69 61.78Z" fill="white" stroke="#010101" stroke-width="0.5" stroke-miterlimit="10" stroke-linecap="round"/>
<path d="M69.56 68.2L70.79 73L76 72.8L71.19 74.41L71.4 79.27L69.79 74.78L65 74.68L69.85 73.32L69.56 68.2Z" fill="white" stroke="#010101" stroke-width="0.5" stroke-miterlimit="10" stroke-linecap="round"/>
<path d="M41.7805 106C41.466 105.835 41.1291 105.717 40.7805 105.65C40.4512 105.577 40.1098 105.577 39.7805 105.65C39.5847 105.68 39.3933 105.734 39.2105 105.81C39.0347 105.872 38.8744 105.971 38.7405 106.1C38.6831 106.16 38.642 106.234 38.621 106.314C38.6 106.395 38.5998 106.479 38.6205 106.56C38.6324 106.643 38.6641 106.721 38.7128 106.789C38.7615 106.857 38.8259 106.912 38.9005 106.95C39.0884 107.03 39.2873 107.08 39.4905 107.1H40.2805C40.5605 107.1 40.8405 107.12 41.1205 107.16C41.3841 107.179 41.6435 107.236 41.8905 107.33C42.1161 107.411 42.3211 107.541 42.4905 107.71C42.6664 107.898 42.7815 108.135 42.8205 108.39C42.8873 108.732 42.8306 109.086 42.6605 109.39C42.476 109.701 42.2142 109.96 41.9005 110.14C41.5555 110.346 41.1761 110.489 40.7805 110.56C40.2833 110.635 39.7777 110.635 39.2805 110.56C38.8125 110.488 38.3714 110.295 38.0005 110L38.6405 109.19C38.9108 109.389 39.2161 109.534 39.5405 109.62C39.91 109.695 40.291 109.695 40.6605 109.62C40.849 109.582 41.0333 109.525 41.2105 109.45C41.3845 109.381 41.5415 109.275 41.6705 109.14C41.7296 109.077 41.7716 109 41.7926 108.916C41.8136 108.832 41.8129 108.744 41.7905 108.66C41.7801 108.582 41.7498 108.508 41.7025 108.445C41.6552 108.382 41.5926 108.332 41.5205 108.3C41.3326 108.212 41.1281 108.164 40.9205 108.16C40.6805 108.16 40.4205 108.16 40.1405 108.16C39.7579 108.127 39.3773 108.074 39.0005 108C38.6621 107.953 38.3398 107.827 38.0605 107.63C37.7866 107.392 37.6118 107.06 37.5705 106.7C37.5079 106.385 37.5612 106.059 37.7205 105.78C37.9101 105.475 38.1753 105.223 38.4905 105.05C38.8454 104.842 39.235 104.7 39.6405 104.63C39.9309 104.579 40.2259 104.559 40.5205 104.57C40.8316 104.573 41.1409 104.616 41.4405 104.7C41.7347 104.772 42.0105 104.905 42.2505 105.09L41.7805 106ZM50.5405 107.93C50.3616 108.135 50.1603 108.32 49.9405 108.48C49.6841 108.67 49.4054 108.828 49.1105 108.95C48.7896 109.09 48.4542 109.194 48.1105 109.26C47.5151 109.398 46.8959 109.398 46.3005 109.26C45.7759 109.121 45.3011 108.837 44.9305 108.44C44.5638 108.049 44.3203 107.559 44.2305 107.03C44.1129 106.458 44.165 105.863 44.3805 105.32C44.5918 104.819 44.938 104.386 45.3805 104.07C45.8381 103.729 46.3688 103.5 46.9305 103.4C47.4434 103.303 47.9724 103.334 48.4705 103.49C48.9405 103.635 49.3644 103.901 49.7005 104.26C50.0486 104.643 50.2779 105.119 50.3605 105.63L50.4505 106.15L45.4505 107.07C45.54 107.296 45.6749 107.502 45.8469 107.674C46.0189 107.846 46.2243 107.981 46.4505 108.07C46.9831 108.287 47.5693 108.336 48.1305 108.21C48.5278 108.151 48.9069 108.004 49.2405 107.78C49.4767 107.61 49.6975 107.419 49.9005 107.21L50.5405 107.93ZM47.1305 104.38C46.6637 104.457 46.2237 104.649 45.8505 104.94C45.6745 105.084 45.533 105.266 45.4361 105.472C45.3392 105.678 45.2895 105.903 45.2905 106.13L49.1705 105.42V105.3C49.095 105.062 48.9441 104.855 48.7405 104.71C48.5227 104.546 48.269 104.437 48.0005 104.39C47.716 104.319 47.4203 104.306 47.1305 104.35V104.38ZM58.3705 106.5C58.1911 106.702 57.9899 106.883 57.7705 107.04C57.5121 107.23 57.2338 107.391 56.9405 107.52C56.6212 107.662 56.2852 107.763 55.9405 107.82C55.3449 107.945 54.7282 107.928 54.1405 107.77C53.6192 107.628 53.1459 107.348 52.7705 106.96C52.4057 106.568 52.1626 106.078 52.0705 105.55C51.9529 104.978 52.005 104.383 52.2205 103.84C52.4266 103.336 52.7738 102.902 53.2205 102.59C53.6781 102.249 54.2088 102.02 54.7705 101.92C55.2831 101.818 55.8133 101.849 56.3105 102.01C56.7805 102.155 57.2044 102.421 57.5405 102.78C57.8906 103.162 58.1202 103.638 58.2005 104.15L58.2805 104.67L53.2805 105.59C53.37 105.816 53.5049 106.022 53.6769 106.194C53.8489 106.366 54.0543 106.501 54.2805 106.59C54.8143 106.802 55.399 106.851 55.9605 106.73C56.3578 106.671 56.7369 106.524 57.0705 106.3C57.3018 106.124 57.5222 105.933 57.7305 105.73L58.3705 106.5ZM55.0005 102.92C54.5325 102.993 54.0914 103.185 53.7205 103.48C53.5453 103.623 53.4042 103.803 53.3073 104.007C53.2104 104.211 53.1603 104.434 53.1605 104.66L57.0005 104V103.88C56.9226 103.64 56.7723 103.431 56.5705 103.28C56.3519 103.119 56.0983 103.013 55.8305 102.97C55.5595 102.901 55.2778 102.884 55.0005 102.92ZM65.2705 97.71L66.7405 105.71L65.6205 105.92L65.4605 105.03C65.3429 105.241 65.1947 105.433 65.0205 105.6C64.8174 105.802 64.5888 105.977 64.3405 106.12C64.0647 106.268 63.768 106.372 63.4605 106.43C62.9207 106.534 62.3633 106.5 61.8405 106.33C61.3553 106.164 60.9259 105.866 60.6005 105.47C60.2712 105.053 60.0489 104.561 59.953 104.038C59.8572 103.515 59.8906 102.977 60.0505 102.47C60.2238 101.986 60.5243 101.558 60.9205 101.23C61.3119 100.925 61.7655 100.709 62.2494 100.599C62.7332 100.488 63.2354 100.485 63.7205 100.59C64.0829 100.664 64.4244 100.818 64.7205 101.04L64.1605 97.96L65.2705 97.71ZM63.4705 105.41C63.8382 105.347 64.183 105.188 64.4705 104.95C64.7409 104.734 64.9453 104.446 65.0605 104.12C65.1781 103.779 65.2056 103.414 65.1405 103.06C65.0866 102.691 64.9307 102.345 64.6905 102.06C64.4726 101.792 64.1804 101.593 63.8505 101.49C63.4915 101.383 63.1121 101.362 62.7436 101.43C62.3751 101.498 62.0279 101.652 61.7305 101.88C61.4642 102.096 61.2604 102.379 61.1405 102.7C61.022 103.041 60.9978 103.407 61.0705 103.76C61.1232 104.108 61.2705 104.434 61.4962 104.704C61.7219 104.974 62.0174 105.177 62.3505 105.29C62.6945 105.421 63.0661 105.462 63.4305 105.41H63.4705ZM72.3205 100.41C72.0095 100.237 71.6713 100.119 71.3205 100.06C70.9907 99.991 70.6503 99.991 70.3205 100.06C70.1228 100.096 69.9287 100.15 69.7405 100.22C69.5652 100.281 69.4074 100.384 69.2805 100.52C69.2221 100.58 69.1797 100.653 69.157 100.733C69.1343 100.814 69.132 100.899 69.1505 100.98C69.1641 101.062 69.1977 101.14 69.2482 101.206C69.2988 101.272 69.3648 101.325 69.4405 101.36C69.6221 101.448 69.8192 101.498 70.0205 101.51H70.8105C71.0916 101.509 71.3723 101.529 71.6505 101.57C71.9142 101.588 72.1738 101.645 72.4205 101.74C72.651 101.817 72.86 101.947 73.0305 102.12C73.2049 102.308 73.3167 102.546 73.3505 102.8C73.4238 103.142 73.3667 103.498 73.1905 103.8C73.0063 104.114 72.7446 104.376 72.4305 104.56C72.0877 104.769 71.7071 104.908 71.3105 104.97C70.8141 105.055 70.3069 105.055 69.8105 104.97C69.3287 104.901 68.8754 104.7 68.5005 104.39L69.1305 103.58C69.4081 103.77 69.7158 103.912 70.0405 104C70.4095 104.08 70.7915 104.08 71.1605 104C71.3498 103.965 71.5344 103.908 71.7105 103.83C71.8807 103.759 72.0365 103.657 72.1705 103.53C72.2249 103.462 72.2638 103.383 72.2845 103.298C72.3052 103.214 72.3073 103.126 72.2905 103.04C72.2765 102.962 72.2437 102.888 72.1949 102.825C72.1462 102.763 72.0829 102.713 72.0105 102.68C71.8234 102.6 71.6238 102.552 71.4205 102.54C71.1738 102.54 70.9138 102.54 70.6405 102.54C70.2305 102.54 69.8505 102.54 69.4805 102.44C69.1414 102.39 68.8191 102.26 68.5405 102.06C68.2666 101.821 68.0889 101.49 68.0405 101.13C67.9761 100.814 68.0332 100.486 68.2005 100.21C68.3897 99.9103 68.651 99.6627 68.9605 99.49C69.3162 99.2835 69.7055 99.1414 70.1105 99.07C70.4039 99.0155 70.7022 98.992 71.0005 99C71.3119 98.9984 71.6218 99.0422 71.9205 99.13C72.2132 99.2064 72.4882 99.3389 72.7305 99.52L72.3205 100.41Z" fill="#010101"/>
<path d="M46.3303 89.84C43.0703 86.73 31.4803 75 32.6703 59.69C32.9503 56.13 33.4803 49.35 38.8103 45.69C43.5703 42.41 50.8903 42.47 55.0703 46.12C57.8403 48.54 58.5503 51.96 58.9603 54.69C59.8603 60.57 60.6303 71.54 56.7803 87.39C56.1814 88.2858 55.4076 89.0514 54.5054 89.6409C53.6033 90.2303 52.5913 90.6313 51.5303 90.82C49.736 91.0926 47.9023 90.747 46.3303 89.84Z" fill="#3A7867"/>
<path d="M46.3 89.88C44.6263 88.3141 43.0531 86.6441 41.59 84.88C40.1034 83.1136 38.737 81.2494 37.5 79.3C34.9469 75.4056 33.2432 71.0169 32.5 66.42C32.3404 65.2862 32.2435 64.1445 32.21 63C32.21 61.84 32.28 60.67 32.34 59.52C32.5029 57.2099 32.9393 54.9273 33.64 52.72C34.3351 50.4918 35.568 48.4689 37.23 46.83C38.9242 45.226 41.0164 44.1039 43.29 43.58C45.5582 42.9988 47.9301 42.9509 50.22 43.44C51.3703 43.6851 52.4809 44.089 53.52 44.64C54.5671 45.2111 55.5104 45.9549 56.31 46.84C57.8259 48.6757 58.8175 50.887 59.18 53.24C59.6078 55.5141 59.9016 57.8114 60.06 60.12C60.347 64.7285 60.2232 69.3534 59.69 73.94C59.1241 78.4931 58.225 82.9985 57 87.42C55.8222 89.0837 54.0753 90.2578 52.09 90.72C50.1235 91.1893 48.052 90.8887 46.3 89.88ZM46.36 89.8C48.0617 90.7911 50.0836 91.0771 51.9935 90.5968C53.9033 90.1166 55.5495 88.9082 56.58 87.23V87.31C58.42 78.31 59.58 69.24 59.06 60.13C58.9374 57.8639 58.6837 55.6068 58.3 53.37C57.9803 51.1639 57.0987 49.0771 55.74 47.31C55.0107 46.4802 54.1573 45.7684 53.21 45.2C52.2244 44.6631 51.1718 44.2596 50.08 44C47.8822 43.4553 45.5872 43.4348 43.38 43.94C41.1578 44.3987 39.1036 45.457 37.44 47C35.8418 48.6148 34.6759 50.606 34.05 52.79C33.4612 54.9845 33.1257 57.2392 33.05 59.51C32.9342 61.7697 33.0549 64.0353 33.41 66.27C33.51 66.83 33.58 67.39 33.7 67.94L34.12 69.59C34.2428 70.1425 34.3998 70.6869 34.59 71.22C34.77 71.75 34.92 72.3 35.12 72.83C35.9366 74.9506 36.8989 77.0122 38 79C39.1325 80.9838 40.3988 82.8882 41.79 84.7C43.1988 86.4992 44.7255 88.2029 46.36 89.8Z" fill="#231F20"/>
<path d="M52.0005 56.5C48.3505 49.34 41.1105 47.37 42.1105 45C43.1105 42.63 50.6905 42.27 55.0505 46C57.9005 48.44 58.5805 52 58.9505 54.56C60.6005 66.37 58.5805 79.12 56.7805 87.4C56.2314 88.2627 55.5054 88.999 54.6505 89.56C53.4705 90.31 51.4305 91.12 50.5105 90.68C47.0805 89 58.9105 69.86 52.0005 56.5Z" fill="#1E6F5D"/>
<path d="M52.0001 56.51C50.5568 53.852 48.5541 51.5388 46.1301 49.73C44.9701 48.73 43.7001 47.95 42.6001 46.87C42.3115 46.5853 42.0836 46.2451 41.9301 45.87C41.8516 45.6702 41.8243 45.454 41.8505 45.241C41.8767 45.0279 41.9556 44.8248 42.0801 44.65C42.5761 44.002 43.284 43.549 44.0801 43.37C45.5674 42.9613 47.1222 42.8592 48.6501 43.07C50.1651 43.2629 51.6362 43.7127 53.0001 44.4C54.3833 45.0835 55.5936 46.0715 56.5401 47.29C57.4401 48.5327 58.0983 49.9338 58.4801 51.42C58.8408 52.8922 59.0882 54.3899 59.2201 55.9C59.3901 57.4 59.5001 58.9 59.5501 60.42C59.6884 63.4189 59.6683 66.4231 59.4901 69.42C59.1273 75.4748 58.2982 81.4926 57.0101 87.42C56.5191 88.1991 55.8845 88.8778 55.1401 89.42C54.3955 89.9505 53.5767 90.3683 52.7101 90.66C52.2672 90.813 51.807 90.9104 51.3401 90.95C51.0841 90.967 50.827 90.94 50.5801 90.87C50.4478 90.8236 50.3256 90.7523 50.2201 90.66C50.1019 90.5822 50.0055 90.4755 49.9401 90.35C49.7029 89.9413 49.5915 89.4717 49.6201 89C49.6288 88.543 49.6791 88.0878 49.7701 87.64C50.0901 85.86 50.6101 84.16 51.0901 82.44C51.5701 80.72 52.0001 79 52.4801 77.31C53.4117 73.8885 53.9552 70.373 54.1001 66.83C54.2724 63.2686 53.5505 59.7208 52.0001 56.51ZM52.0001 56.51C53.5712 59.73 54.3528 63.2779 54.2801 66.86C54.213 70.4308 53.7468 73.9828 52.8901 77.45C52.1101 80.92 50.8901 84.31 50.2401 87.76C50.1746 88.1701 50.1412 88.5847 50.1401 89C50.1037 89.3888 50.1764 89.7802 50.3501 90.13C50.4537 90.2739 50.5963 90.3852 50.7611 90.4508C50.9259 90.5163 51.106 90.5334 51.2801 90.5C51.7028 90.4662 52.1195 90.3789 52.5201 90.24C54.1829 89.746 55.6196 88.6843 56.5801 87.24V87.32C57.9235 81.4422 58.826 75.4722 59.2801 69.46C59.8428 63.4436 59.5058 57.377 58.2801 51.46C57.8918 50.0161 57.2335 48.6589 56.3401 47.46C55.4189 46.2948 54.2418 45.3573 52.9001 44.72C51.5584 44.0759 50.1186 43.6602 48.6401 43.49C47.1722 43.274 45.6758 43.3556 44.2401 43.73C43.545 43.8855 42.9219 44.2692 42.4701 44.82C42.0101 45.38 42.4001 46.12 42.9001 46.63C43.9001 47.7 45.1901 48.57 46.3401 49.55C48.6956 51.4469 50.6387 53.8051 52.0501 56.48L52.0001 56.51Z" fill="#231F20"/>
<path d="M52.5299 45.86C50.5299 39.56 56.5299 31.49 63.3899 30.4C66.1899 29.96 70.6599 30.45 72.4999 33.47C75.0599 37.69 70.5999 43.68 69.9399 44.57C65.7699 50.18 59.0699 51.17 57.1799 51.38C55.0189 50.1562 53.3689 48.1974 52.5299 45.86Z" fill="#3A7867"/>
<path d="M52.4801 45.87C52.1489 44.6971 52.0204 43.4762 52.1001 42.26C52.2004 41.0325 52.4801 39.8264 52.9301 38.68C53.828 36.3498 55.3419 34.3071 57.3101 32.77C59.2407 31.1978 61.6088 30.2584 64.0922 30.0794C66.5757 29.9005 69.0539 30.4908 71.1901 31.77C72.2175 32.506 72.9732 33.5606 73.34 34.77C73.6747 35.9917 73.6954 37.2782 73.4001 38.51C72.7864 40.9255 71.6648 43.1823 70.1101 45.13C68.5851 47.1205 66.6069 48.7181 64.34 49.79C62.1058 50.8632 59.6842 51.4916 57.2101 51.64H57.1001H57.0301C54.9092 50.2813 53.3068 48.2492 52.4801 45.87ZM52.5801 45.87C52.9545 47.041 53.5906 48.1113 54.4401 49C55.2925 49.8603 56.2662 50.5913 57.3301 51.17H57.1501C61.8301 50.37 66.3801 48.3 69.3201 44.62C70.8264 42.7996 71.9581 40.6993 72.6501 38.44C72.9857 37.3308 73.0406 36.1557 72.8101 35.02C72.5771 33.8526 71.9353 32.8065 71.0001 32.07C69.0086 30.7268 66.5852 30.1807 64.2101 30.54C63.0422 30.699 61.9056 31.0362 60.8401 31.54C59.7744 32.0632 58.7685 32.7002 57.8401 33.44C56.0182 34.9439 54.5154 36.7969 53.4201 38.89C52.8854 39.9558 52.5114 41.0948 52.3101 42.27C52.1587 43.4694 52.2505 44.6869 52.5801 45.85V45.87Z" fill="#231F20"/>
<path d="M55.6699 47.72C54.8499 47.72 53.4399 43.99 54.2099 40.33C54.6717 38.3352 55.6812 36.509 57.1246 35.0567C58.5679 33.6045 60.388 32.584 62.3799 32.11C64.3799 31.66 66.6999 31.86 66.8299 32.44C66.9999 33.22 62.8799 33.59 59.8999 36.6C55.5799 41 56.7699 47.7 55.6699 47.72Z" fill="#1E6F5D"/>
<path d="M55.6705 47.75C55.4005 47.75 55.2505 47.5 55.1005 47.32C54.9647 47.1283 54.8475 46.924 54.7505 46.71C54.5565 46.2763 54.3961 45.8283 54.2705 45.37C54.0139 44.4539 53.8662 43.5107 53.8305 42.56C53.7507 40.6303 54.2524 38.7212 55.2705 37.08C56.3091 35.4683 57.7272 34.1361 59.4005 33.2C61.0539 32.251 62.9242 31.7447 64.8305 31.73C65.3146 31.7255 65.7977 31.7758 66.2705 31.88C66.4126 31.9004 66.5487 31.9511 66.6695 32.0287C66.7903 32.1064 66.893 32.2092 66.9705 32.33C67.0084 32.4174 67.0162 32.5149 66.9926 32.6072C66.9691 32.6995 66.9156 32.7814 66.8405 32.84C66.7403 32.9299 66.6295 33.0071 66.5105 33.07C65.6405 33.52 64.7605 33.81 63.9205 34.21C62.2215 34.943 60.7079 36.0466 59.4905 37.44C58.3244 38.8871 57.476 40.5634 57.0005 42.36C56.7483 43.2639 56.5513 44.1823 56.4105 45.11L56.2005 46.5C56.2005 46.74 56.1205 46.97 56.0605 47.2C56.0005 47.43 56.0005 47.71 55.6705 47.75ZM55.6705 47.75C55.9005 47.75 55.9705 47.44 56.0305 47.23C56.0905 47.02 56.1205 46.77 56.1605 46.54C56.2205 46.08 56.2705 45.61 56.3105 45.14C56.3925 44.1962 56.5294 43.2579 56.7205 42.33C57.0752 40.4386 57.8891 38.6633 59.0905 37.16C60.3438 35.6941 61.932 34.5518 63.7205 33.83C64.5905 33.44 65.5105 33.16 66.3305 32.78C66.5305 32.69 66.7005 32.53 66.6405 32.51C66.5805 32.49 66.3805 32.3 66.1805 32.25C65.7429 32.1099 65.2893 32.0259 64.8305 32C62.9538 31.9072 61.0918 32.3736 59.4805 33.34C57.8773 34.2974 56.5506 35.6551 55.6305 37.28C54.701 38.8839 54.1919 40.6967 54.1505 42.55C54.119 43.4834 54.203 44.4172 54.4005 45.33C54.4949 45.7865 54.6356 46.2321 54.8205 46.66C54.9162 46.8759 55.0299 47.0833 55.1605 47.28C55.2905 47.46 55.4405 47.68 55.6705 47.7V47.75Z" fill="#231F20"/>
<path d="M34.7601 55.76C33.0801 56.26 33.7601 65.08 36.7601 72.76C40.1601 81.32 46.5101 88.3 47.6001 87.76C48.3301 87.41 46.8801 83.68 46.2901 82.14C43.4001 74.7 40.2901 74.44 39.2901 69.48C38.4901 65.39 40.2901 63.89 38.5001 60.03C37.6001 58 35.7401 55.47 34.7601 55.76Z" fill="#1E6F5D"/>
<path d="M34.7607 55.78C34.6006 55.8729 34.463 55.9999 34.3575 56.152C34.2521 56.3041 34.1815 56.4775 34.1507 56.66C34.047 57.0185 33.9833 57.3874 33.9607 57.76C33.9101 58.5064 33.9235 59.2558 34.0007 60C34.1095 61.5031 34.3233 62.9967 34.6407 64.47C35.2409 67.4169 36.1009 70.3048 37.2107 73.1C38.3268 75.9025 39.7275 78.5832 41.3907 81.1C42.22 82.3591 43.132 83.5617 44.1207 84.7C44.6087 85.2731 45.126 85.8205 45.6707 86.34C46.1719 86.8725 46.7734 87.3007 47.4407 87.6C47.7407 87.69 47.7307 87.27 47.7007 86.92C47.6442 86.556 47.5674 86.1954 47.4707 85.84C47.2607 85.12 47.0107 84.41 46.7507 83.7C46.2271 82.2943 45.633 80.9159 44.9707 79.57C44.2813 78.2386 43.4713 76.9733 42.5507 75.79C41.5548 74.6311 40.6834 73.3709 39.9507 72.03C39.3116 70.6182 38.9712 69.0896 38.9507 67.54C38.9507 65.99 39.3007 64.54 39.2607 63.03C39.147 61.5339 38.6847 60.0853 37.9107 58.8C37.5135 58.1596 37.0582 57.557 36.5507 57C36.3182 56.7075 36.0531 56.4425 35.7607 56.21C35.6354 56.0698 35.481 55.9586 35.3082 55.8843C35.1355 55.8101 34.9486 55.7744 34.7607 55.78ZM34.7607 55.78C34.9536 55.762 35.1481 55.7857 35.331 55.8496C35.5139 55.9134 35.6809 56.0159 35.8207 56.15C36.1126 56.3935 36.3835 56.6611 36.6307 56.95C37.1196 57.5267 37.5611 58.142 37.9507 58.79C38.7926 60.0512 39.3238 61.4939 39.5007 63C39.6307 64.55 39.2607 66 39.3507 67.52C39.3951 68.9991 39.7351 70.4543 40.3507 71.8C41.0878 73.098 41.9413 74.3264 42.9007 75.47C43.8313 76.6817 44.6418 77.9812 45.3207 79.35C45.9903 80.7133 46.5682 82.1198 47.0507 83.56C47.3007 84.28 47.5407 85 47.7307 85.74C47.8431 86.1245 47.9332 86.5151 48.0007 86.91C48.0304 87.1122 48.0304 87.3177 48.0007 87.52C47.9749 87.6499 47.8996 87.7646 47.7907 87.84C47.6685 87.8879 47.5328 87.8879 47.4107 87.84C46.6936 87.5314 46.0522 87.0708 45.5307 86.49C44.9907 85.95 44.5307 85.39 44.0007 84.81C43.0007 83.64 42.1407 82.42 41.2807 81.17C39.5562 78.6747 38.0761 76.0191 36.8607 73.24C35.6862 70.4387 34.8471 67.5083 34.3607 64.51C34.0767 63.0209 33.8963 61.514 33.8207 60C33.7707 59.2408 33.7707 58.4792 33.8207 57.72C33.8543 57.3432 33.9281 56.9711 34.0407 56.61C34.083 56.4196 34.1692 56.2418 34.2925 56.0908C34.4158 55.9397 34.5727 55.8196 34.7507 55.74L34.7607 55.78Z" fill="#231F20"/>
<path d="M34.7703 45.88L36.3403 50.99L39.8103 46.96L37.0703 51.34L42.3903 50.91L37.0703 51.91L40.9903 55.41L36.5203 52.9L36.4403 57.83L35.3803 53.06L31.4003 56.75L34.6303 52.33L28.8203 52.8L34.3403 51.8L30.2203 48.3L34.9603 51.21L34.7703 45.88Z" fill="#F7A49D"/>
<path d="M35.2704 64.74C35.0004 63.7 31.9104 51 24.2004 51C20.3104 51 15.8904 54.23 15.2004 58.43C14.2804 63.93 20.3004 67.88 22.2004 69.11C26.2604 71.76 32.8704 73.66 35.2004 71.02C36.4304 69.49 35.8304 67 35.2704 64.74Z" fill="#3A7867"/>
<path d="M35.2201 64.75C34.5537 62.1166 33.488 59.6008 32.0601 57.29C30.6301 55.04 28.9101 52.87 26.5201 51.85C21.7001 49.73 15.1201 54.24 15.3801 59.64C15.5201 62.29 17.2601 64.53 19.2101 66.27C20.2224 67.1441 21.3025 67.9366 22.4401 68.64C23.5699 69.3519 24.7614 69.961 26.0001 70.46C27.2212 70.9729 28.491 71.3616 29.7901 71.62C31.0553 71.9251 32.3749 71.9251 33.6401 71.62C33.9366 71.5208 34.2215 71.3901 34.4901 71.23C34.7404 71.0432 34.9685 70.8285 35.1701 70.59C35.533 70.049 35.7437 69.4204 35.7801 68.77C35.7933 67.4096 35.6046 66.0549 35.2201 64.75ZM35.3201 64.75C35.7101 66.0515 35.9483 67.3937 36.0301 68.75C36.0589 69.4698 35.8857 70.1834 35.5301 70.81C35.3229 71.1194 35.0776 71.4016 34.8001 71.65C34.5083 71.8733 34.189 72.0582 33.8501 72.2C32.4964 72.692 31.035 72.8095 29.6201 72.54C28.2484 72.3255 26.9061 71.953 25.6201 71.43C24.3207 70.9152 23.0775 70.2685 21.9101 69.5C20.7387 68.7517 19.6255 67.916 18.5801 67C17.5372 66.0559 16.6467 64.9563 15.9401 63.74C15.2126 62.5071 14.8293 61.1015 14.8301 59.67C14.8495 58.9653 14.9605 58.2661 15.1601 57.59C15.3823 56.9277 15.6739 56.2909 16.0301 55.69C16.7666 54.5165 17.7244 53.4976 18.8501 52.69C19.975 51.865 21.2482 51.2641 22.6001 50.92C23.2875 50.7372 24.0011 50.673 24.7101 50.73C25.0701 50.73 25.4301 50.73 25.7801 50.83C26.1301 50.93 26.4801 51.02 26.7801 51.13C28.1088 51.6665 29.2986 52.4974 30.2601 53.56C31.1965 54.5942 31.9871 55.7516 32.6101 57C33.7756 59.4771 34.6836 62.0674 35.3201 64.73V64.75Z" fill="#231F20"/>
<path d="M19.1404 55C19.2404 55.7 23.0104 54.38 26.2504 56.29C32.0004 59.72 31.0004 70.42 32.5204 70.39C33.2804 70.39 33.9604 67.6 33.9404 65.46C33.9404 62.73 32.7804 60.81 31.5904 58.86C29.9304 56.16 28.6804 54.13 26.2604 53.36C22.8504 52.28 19.0004 54.31 19.1404 55Z" fill="#1E6F5D"/>
<path d="M19.1701 55C19.1701 55.12 19.3401 55.17 19.4601 55.18C19.5933 55.1903 19.727 55.1903 19.8601 55.18H20.6601C21.1901 55.18 21.7301 55.18 22.2701 55.18C23.3551 55.1851 24.431 55.3779 25.4501 55.75C26.459 56.1844 27.3703 56.8172 28.1296 57.6109C28.8889 58.4046 29.4808 59.3429 29.8701 60.37C30.6432 62.3825 31.1704 64.4811 31.4401 66.62C31.5763 67.6777 31.7902 68.7238 32.0801 69.75C32.1601 69.98 32.2901 70.26 32.4801 70.29C32.6701 70.32 32.8501 70.08 32.9701 69.87C33.199 69.4 33.367 68.9026 33.4701 68.39C33.9659 66.3304 33.8264 64.1689 33.0701 62.19C32.666 61.2172 32.174 60.2834 31.6001 59.4C31.0301 58.49 30.4901 57.57 29.8901 56.7C29.3166 55.8297 28.6077 55.0566 27.7901 54.41C26.9513 53.7943 25.9714 53.3989 24.9401 53.26C23.889 53.1334 22.8233 53.208 21.8001 53.48C21.2847 53.6079 20.785 53.7924 20.3101 54.03C20.0709 54.1486 19.8432 54.2892 19.6301 54.45C19.4301 54.59 19.1901 54.78 19.1701 55ZM19.1201 55C19.1201 54.7 19.3901 54.52 19.5901 54.35C19.8005 54.1825 20.0285 54.0383 20.2701 53.92C20.7496 53.6743 21.2478 53.4669 21.7601 53.3C22.7957 52.9672 23.8845 52.8315 24.9701 52.9C26.0834 52.9819 27.1542 53.3618 28.0701 54C28.9506 54.6598 29.7088 55.4687 30.3101 56.39C30.9301 57.28 31.4901 58.19 32.0501 59.11C32.6251 60.0261 33.1139 60.9936 33.5101 62C34.2517 64.0646 34.3286 66.3095 33.7301 68.42C33.6163 68.9726 33.4208 69.5051 33.1501 70C33.0101 70.21 32.8301 70.54 32.4501 70.5C32.0701 70.46 32.0001 70 31.9101 69.8C31.6431 68.7583 31.4295 67.7036 31.2701 66.64C30.9478 64.534 30.3493 62.4797 29.4901 60.53C28.7004 58.5644 27.2215 56.9539 25.3301 56C24.3565 55.5817 23.3179 55.3347 22.2601 55.27C21.7301 55.27 21.1901 55.27 20.6601 55.27H19.8601C19.7236 55.2799 19.5866 55.2799 19.4501 55.27C19.3301 55.24 19.1501 55.2 19.1201 55Z" fill="#231F20"/>
<path d="M18.75 60.7L19.44 62.48L21.34 62.66L19.56 63.35L19.38 65.25L18.69 63.47L16.79 63.29L18.57 62.6L18.75 60.7Z" fill="#FAF28A" stroke="#231F20" stroke-width="0.25" stroke-miterlimit="10"/>
<path d="M55.2002 52L55.8902 53.77L57.7902 53.95L56.0102 54.64L55.8302 56.54L55.1402 54.77L53.2402 54.59L55.0202 53.9L55.2002 52Z" fill="#FAF28A" stroke="#231F20" stroke-width="0.25" stroke-miterlimit="10"/>
<path d="M40.4004 70.73L41.0904 72.51L42.9904 72.69L41.2104 73.38L41.0304 75.28L40.3404 73.5L38.4404 73.32L40.2204 72.63L40.4004 70.73Z" fill="#FAF28A" stroke="#231F20" stroke-width="0.25" stroke-miterlimit="10"/>
<path d="M56.7403 76.79L57.4303 78.57L59.3303 78.75L57.5503 79.44L57.3803 81.34L56.6803 79.56L54.7803 79.38L56.5603 78.69L56.7403 76.79Z" fill="#FAF28A" stroke="#231F20" stroke-width="0.25" stroke-miterlimit="10"/>
<path d="M55.7305 39.21L56.4205 40.99L58.3205 41.17L56.5405 41.86L56.3605 43.76L55.6705 41.98L53.7705 41.8L55.5505 41.11L55.7305 39.21Z" fill="#FAF28A" stroke="#231F20" stroke-width="0.25" stroke-miterlimit="10"/>
<path d="M31.1903 59.9L31.6103 60.96L32.7403 61.07L31.6803 61.48L31.5703 62.61L31.1603 61.55L30.0303 61.45L31.0903 61.03L31.1903 59.9Z" fill="#FAF28A" stroke="#231F20" stroke-width="0.25" stroke-miterlimit="10"/>
<path d="M49.9305 44.66L50.3405 45.72L51.4805 45.83L50.4205 46.24L50.3105 47.37L49.9005 46.31L48.7705 46.2L49.8305 45.79L49.9305 44.66Z" fill="#FAF28A" stroke="#231F20" stroke-width="0.25" stroke-miterlimit="10"/>
</svg>
