<svg width="62" height="116" viewBox="0 0 62 116" fill="none" xmlns="http://www.w3.org/2000/svg">
<g clip-path="url(#clip0)">
<path d="M23.9999 14.67C22.9999 14.63 20.5699 22.13 20.6399 25.42C20.7299 29.05 23.6699 30.07 25.4099 27.84C27.2199 25.56 25.0899 14.7 23.9999 14.67Z" fill="#0070B4"/>
<path d="M37.2898 13.2C39.0898 10.89 36.9598 0.0399998 35.8798 -1.86101e-07C34.9198 -0.0200002 32.4498 7.49 32.5498 10.77C32.6398 14.4 35.5498 15.43 37.2898 13.2Z" fill="#0070B4"/>
<path d="M42.47 23.29C41.68 23.28 39.75 29.25 39.82 31.87C39.88 34.75 42.23 35.58 43.62 33.81C45.02 31.98 43.35 23.33 42.47 23.29Z" fill="#0070B4"/>
<path d="M25.6701 19.35C25.0801 21.05 25.0201 22.39 25.0901 23.33C25.1501 24.22 25.3701 25.36 24.7201 25.93C24.4101 26.2 24.1401 26.15 23.7901 26.56C23.5201 26.88 23.4301 27.22 23.2701 27.86C23.1501 28.33 23.0101 28.76 22.6901 28.86C22.6501 28.87 22.6201 28.88 22.6001 28.88C22.8901 28.96 23.4401 29.07 24.0401 28.87C24.4501 28.73 24.7201 28.5 24.9401 28.31C25.0801 28.19 25.4901 27.84 25.7701 27.29C26.0701 26.69 26.1001 26.15 26.1201 25.63C26.1701 24.29 26.1901 23.62 26.1001 22.52C26.0101 21.72 25.8901 20.63 25.6701 19.35Z" fill="#004C7F"/>
<path d="M37.42 4.7C36.86 6.41 36.83 7.75 36.91 8.69C36.99 9.57 37.22 10.71 36.58 11.3C36.28 11.58 36 11.53 35.66 11.95C35.39 12.28 35.31 12.62 35.16 13.26C35.05 13.73 34.92 14.16 34.59 14.27C34.55 14.28 34.52 14.29 34.5 14.29C34.79 14.37 35.34 14.47 35.94 14.25C36.35 14.1 36.61 13.87 36.83 13.68C36.97 13.56 37.37 13.2 37.64 12.65C37.93 12.05 37.95 11.51 37.96 10.99C37.98 9.65 38 8.98 37.89 7.88C37.81 7.06 37.67 5.97 37.42 4.7Z" fill="#004C7F"/>
<path d="M43.77 26.88C43.29 28.26 43.24 29.36 43.3 30.13C43.35 30.85 43.53 31.78 43 32.25C42.75 32.47 42.52 32.43 42.24 32.77C42.02 33.03 41.95 33.31 41.82 33.83C41.72 34.21 41.61 34.56 41.34 34.65C41.31 34.66 41.28 34.66 41.27 34.67C41.51 34.74 41.95 34.83 42.44 34.66C42.77 34.55 42.99 34.36 43.17 34.21C43.29 34.11 43.62 33.83 43.84 33.38C44.09 32.89 44.11 32.45 44.13 32.03C44.17 30.94 44.19 30.39 44.11 29.5C44.05 28.8 43.95 27.92 43.77 26.88Z" fill="#004C7F"/>
<path d="M35.0799 1.59C34.6299 2.62 34.6199 2.87 34.6499 2.94C34.6999 3.08 34.9899 2.94 35.1399 2.51C35.2699 2.15 35.2499 1.72 35.0799 1.59Z" fill="white"/>
<path d="M41.12 27.03C40.67 28.06 40.66 28.31 40.69 28.38C40.74 28.52 41.03 28.38 41.18 27.95C41.31 27.59 41.29 27.16 41.12 27.03Z" fill="white"/>
<path d="M22.7301 17.95C22.2801 18.98 22.2701 19.23 22.3001 19.3C22.3501 19.44 22.6401 19.3 22.7901 18.87C22.9201 18.51 22.9001 18.08 22.7301 17.95Z" fill="white"/>
<path d="M23.0799 17.25C22.8099 17.52 22.8399 17.6 22.8799 17.63C22.9499 17.68 23.1999 17.68 23.2799 17.56C23.3499 17.46 23.2599 17.32 23.0799 17.25Z" fill="white"/>
<path d="M8.76001 68.59C10.63 63.4 20.83 55.27 32.85 55.32C42.53 55.36 51.45 60.69 56.03 69.09L8.76001 68.59Z" fill="#603913"/>
<path d="M0.600116 65.32C5.88012 54.45 25.5201 54.56 31.3401 54.59C38.9801 54.63 54.6301 54.71 60.0201 64.29C62.3701 68.46 61.0801 75.21 58.5001 88.7C56.4901 99.22 55.4101 104.56 51.9501 108.12C45.9501 114.29 37.2801 114.57 31.4601 114.76C25.4901 114.96 15.4401 115.28 9.09012 108.68C7.50012 107.03 6.20012 105 2.86012 87.27C-0.679884 68.51 -0.00988436 66.58 0.600116 65.32Z" fill="#3E9581"/>
<path d="M0.51 65.27C1.44 63.36 2.86 61.7 4.53 60.4C6.18 59.06 8.1 58.09 10.05 57.25C13.99 55.63 18.2 54.78 22.41 54.27C26.64 53.75 30.89 53.69 35.12 53.76C37.24 53.79 39.37 53.91 41.5 54.16C43.63 54.39 45.74 54.76 47.83 55.33C49.91 55.88 51.96 56.64 53.86 57.7C55.76 58.75 57.57 60.06 58.93 61.79C59.31 62.18 59.59 62.66 59.89 63.12C60.18 63.59 60.5 64.02 60.71 64.55C61.16 65.57 61.43 66.65 61.54 67.73C61.77 69.89 61.58 72.02 61.34 74.12C60.81 78.32 60.02 82.46 59.28 86.61C58.48 90.75 57.88 94.92 56.91 99.05C56.42 101.12 55.84 103.19 54.88 105.17C54.39 106.15 53.81 107.1 53.11 107.97C52.75 108.4 52.37 108.81 51.97 109.18C51.58 109.57 51.18 109.94 50.74 110.28C47.33 113.09 43.02 114.57 38.77 115.17C36.64 115.49 34.49 115.63 32.38 115.72C30.27 115.81 28.15 115.9 26 115.85C21.72 115.75 17.29 115.08 13.31 113.05C11.33 112.03 9.55 110.66 8.01 108.98C7.2 108.06 6.69 106.97 6.29 105.95C5.88 104.92 5.59 103.88 5.31 102.84C4.21 98.7 3.5 94.54 2.81 90.38C2.14 86.21 1.49 82.05 0.95 77.86C0.69 75.77 0.4 73.68 0.22 71.57C0.1 70.52 0.01 69.47 0 68.41C0 67.36 0.00999999 66.25 0.51 65.27ZM0.69 65.36C0.23 66.29 0.23 67.37 0.24 68.4C0.27 69.45 0.35 70.49 0.48 71.54C0.75 73.62 1.06 75.71 1.46 77.77C2.24 81.9 3.13 86.02 4.07 90.13C5.02 94.22 5.97 98.33 7.13 102.32C7.43 103.31 7.75 104.29 8.13 105.21C8.51 106.14 8.93 106.98 9.53 107.64C10.86 109.05 12.48 110.27 14.25 111.15C17.81 112.97 21.93 113.6 26.03 113.76C28.09 113.85 30.18 113.79 32.28 113.73C34.37 113.68 36.44 113.57 38.48 113.3C42.54 112.77 46.53 111.52 49.73 109.03C50.14 108.73 50.52 108.4 50.88 108.05C51.27 107.72 51.61 107.36 51.94 106.99C52.59 106.25 53.16 105.42 53.64 104.53C54.6 102.75 55.26 100.77 55.82 98.76C56.9 94.73 57.75 90.59 58.56 86.46C59.37 82.33 60.22 78.2 60.67 74.03C60.87 71.95 60.99 69.85 60.7 67.82C60.55 66.81 60.26 65.83 59.81 64.95C59.61 64.5 59.28 64.1 59 63.68C58.71 63.27 58.44 62.84 58.06 62.49C56.74 60.95 55.01 59.81 53.19 58.91C52.29 58.43 51.32 58.1 50.37 57.73C49.38 57.44 48.41 57.12 47.4 56.91C43.39 55.95 39.23 55.64 35.06 55.49C30.87 55.39 26.68 55.24 22.51 55.49C18.35 55.74 14.17 56.34 10.22 57.71C8.25 58.4 6.36 59.34 4.68 60.59C3.03 61.87 1.64 63.49 0.69 65.36Z" fill="black"/>
<path d="M0.599994 64.44C0.719994 58.57 18.5 53.21 33.28 53.62C45.02 53.94 60.59 58.05 60.88 63.56C61.17 69.06 46.15 75.5 32.84 76.15C17.57 76.88 0.479994 70.24 0.599994 64.44Z" fill="#3E9581"/>
<path d="M0.49991 64.43C0.50991 63.7 0.79991 63 1.19991 62.41C1.59991 61.81 2.09991 61.29 2.64991 60.83C3.71991 59.88 4.95991 59.16 6.19991 58.46C8.70991 57.1 11.3899 56.1 14.1099 55.24C19.5599 53.54 25.2799 52.72 30.9999 52.76C36.7399 52.85 42.3599 53.88 47.8499 55.29C50.5899 56.01 53.3099 56.86 55.8999 58.06C57.1899 58.67 58.4499 59.38 59.5799 60.35C60.1399 60.84 60.6399 61.42 60.9999 62.13C61.3599 62.83 61.4999 63.71 61.3299 64.51C60.9799 66.13 59.9199 67.31 58.8599 68.32C57.7699 69.32 56.5599 70.15 55.3099 70.88C52.8099 72.34 50.1499 73.46 47.4299 74.37C41.9899 76.17 36.2799 77.27 30.4999 77.25C24.7399 77.2 19.0099 76.26 13.6299 74.32C10.9399 73.36 8.30991 72.22 5.86991 70.72C4.66991 69.96 3.46991 69.16 2.45991 68.15C1.94991 67.66 1.47991 67.1 1.10991 66.49C0.72991 65.88 0.46991 65.17 0.49991 64.43ZM0.69991 64.44C0.70991 65.83 1.64991 67.03 2.65991 67.95C3.69991 68.88 4.88991 69.63 6.13991 70.25C8.63991 71.5 11.2999 72.39 14.0099 73.07C19.4299 74.38 24.9699 75.16 30.4999 75.12C36.0099 75.09 41.5499 74.19 46.8499 72.58C49.4899 71.75 52.0999 70.78 54.5399 69.5C55.7499 68.85 56.9199 68.13 57.9699 67.3C58.9999 66.46 59.9499 65.45 60.2699 64.29C60.6099 63.14 59.9599 61.92 58.9999 60.99C58.0399 60.05 56.8499 59.3 55.6099 58.68C53.1199 57.43 50.4199 56.58 47.6999 55.93C44.9699 55.28 42.1799 54.88 39.3899 54.64C36.5999 54.4 33.7999 54.31 31.0199 54.43C25.4599 54.63 19.9099 55.32 14.4399 56.45C11.7099 57.04 8.99991 57.8 6.43991 58.92C5.15991 59.47 3.92991 60.16 2.82991 61.03C1.75991 61.89 0.75991 63.04 0.69991 64.44Z" fill="black"/>
<path d="M7.17991 64.2C7.26991 60.02 20.8299 56.21 32.1099 56.5C41.0699 56.73 52.9399 59.65 53.1599 63.57C53.3799 67.49 41.9299 72.06 31.7699 72.53C20.1299 73.06 7.08991 68.33 7.17991 64.2Z" fill="black" stroke="black" stroke-width="3" stroke-miterlimit="10"/>
<path d="M55.5201 30.72C56.0901 43.51 52.3601 49.57 49.3501 52.64C48.5601 53.45 47.8601 54 40.7901 59.44C36.5001 62.74 32.9101 65.5 30.3101 67.5C30.3301 65.59 30.4701 62.34 31.3101 58.45C32.3301 53.73 33.2501 49.32 36.4801 45.59C39.2201 42.42 41.0601 42.68 46.3701 38.97C50.6601 35.96 53.6701 32.85 55.5201 30.72Z" fill="#3E9581"/>
<path d="M55.52 30.7C55.8 34.7 55.63 38.68 54.75 42.58C53.87 46.45 52.15 50.26 49.21 53.04C47.71 54.38 46.1 55.52 44.53 56.74L39.79 60.33C36.62 62.71 33.52 65.19 30.39 67.61L30.17 67.78V67.5C30.14 63.53 30.75 59.56 31.67 55.72C32.11 53.79 32.63 51.86 33.42 50.01C34.21 48.17 35.29 46.44 36.67 44.98C38.02 43.45 39.86 42.48 41.6 41.59C43.35 40.68 45.03 39.66 46.65 38.53C49.89 36.27 52.81 33.64 55.52 30.7ZM55.51 30.75C53.03 33.78 50.06 36.5 46.86 38.83C45.26 40 43.57 41.07 41.83 42.01C40.08 42.95 38.34 43.85 37.05 45.33C35.72 46.75 34.69 48.44 33.9 50.22C33.12 52.01 32.59 53.91 32.13 55.83C31.69 57.76 31.23 59.67 30.94 61.62C30.64 63.57 30.48 65.53 30.44 67.51L30.22 67.4C33.37 64.99 36.56 62.64 39.67 60.19L44.35 56.52C45.89 55.28 47.5 54.1 48.94 52.78C51.72 50 53.47 46.33 54.41 42.52C55.35 38.67 55.53 34.66 55.51 30.75Z" fill="black"/>
<path d="M55.5201 30.72C51.6801 37.17 47.4101 43.86 42.6901 50.69C38.5301 56.71 34.3801 62.3 30.3101 67.5C33.1101 65.42 37.0601 62.43 41.7401 58.71C49.2801 52.72 50.4001 51.43 51.1101 50.53C53.2501 47.76 56.6101 41.88 55.5201 30.72Z" fill="#1E6F5D"/>
<path d="M55.5101 30.75C53.7401 33.97 51.7701 37.17 49.8001 40.31C47.8201 43.46 45.8001 46.59 43.6701 49.64C41.5401 52.69 39.3501 55.7 37.1301 58.68C34.8801 61.64 32.6901 64.65 30.4101 67.58L30.2301 67.4L39.6101 60.06C42.7501 57.64 45.8301 55.12 48.8101 52.52C49.5401 51.86 50.2701 51.19 50.8601 50.43C51.4701 49.66 52.0001 48.84 52.4901 47.99C53.4601 46.29 54.1701 44.43 54.6801 42.53C55.6801 38.7 55.7401 34.65 55.5101 30.75ZM55.5201 30.7C56.0001 34.69 55.9601 38.7 55.0301 42.61C54.0901 46.46 52.2801 50.29 49.1501 52.91C46.1701 55.56 43.0501 58.02 39.8901 60.42L30.3801 67.6L29.6001 68.2L30.2101 67.43C32.5101 64.51 34.8101 61.59 36.9701 58.56C39.1501 55.55 41.2601 52.49 43.3301 49.4C45.4001 46.32 47.4901 43.24 49.5201 40.13L55.5201 30.7Z" fill="black"/>
<path d="M10.4399 27.58C8.10995 40.17 10.9599 46.69 13.5199 50.14C14.1899 51.05 14.8099 51.7 21.0499 58.06C24.8399 61.92 28.0099 65.15 30.3099 67.49C30.5599 65.59 30.8599 62.35 30.5699 58.38C30.2099 53.57 29.9199 49.07 27.2299 44.93C24.9599 41.42 23.0999 41.42 18.3499 37C14.5199 33.44 11.9799 29.95 10.4399 27.58Z" fill="#3E9581"/>
<path d="M10.4399 27.61C9.87992 31.48 9.49992 35.48 9.88992 39.4C10.2899 43.31 11.5099 47.19 13.8899 50.32C15.1299 51.83 16.5599 53.23 17.9199 54.66L22.0499 58.94C24.7999 61.8 27.6299 64.57 30.4099 67.39L30.1799 67.47C30.4199 65.51 30.5299 63.54 30.4999 61.57C30.4899 59.6 30.2899 57.64 30.1199 55.67C29.9299 53.71 29.6699 51.76 29.1399 49.87C28.5999 48 27.8199 46.18 26.6999 44.59C25.6299 42.95 24.0299 41.81 22.4299 40.64C20.8299 39.46 19.3099 38.17 17.8899 36.79C15.0399 34.06 12.4799 30.95 10.4399 27.61ZM10.4299 27.56C12.7099 30.85 15.2399 33.86 18.1299 36.55C19.5699 37.9 21.0999 39.14 22.6999 40.28C24.2999 41.4 25.9899 42.62 27.1099 44.32C28.2699 45.96 29.0999 47.83 29.6299 49.75C30.1499 51.68 30.3999 53.67 30.5799 55.64C30.9599 59.57 31.0199 63.59 30.4399 67.51L30.3999 67.79L30.2099 67.59C27.4399 64.75 24.7199 61.87 21.9099 59.08L17.7099 54.87C16.3199 53.45 14.8899 52.09 13.5899 50.56C11.0599 47.4 9.87992 43.39 9.54992 39.44C9.21992 35.45 9.59992 31.48 10.4299 27.56Z" fill="black"/>
<path d="M10.4399 27.58C13.3499 34.5 16.6499 41.71 20.3799 49.14C23.6599 55.67 26.9999 61.79 30.3099 67.5C27.8299 65.05 24.3199 61.54 20.2099 57.21C13.5699 50.23 12.6399 48.8 12.0699 47.81C10.3199 44.77 7.80988 38.48 10.4399 27.58Z" fill="#1E6F5D"/>
<path d="M10.44 27.56L15.09 37.72C16.66 41.09 18.31 44.42 19.93 47.76C21.56 51.1 23.22 54.42 24.96 57.71C26.67 61.01 28.54 64.22 30.42 67.43L30.92 68.28L30.22 67.58L21.8 59.15C19 56.33 16.25 53.46 13.67 50.42C10.94 47.4 9.67996 43.36 9.27996 39.41C8.88996 35.42 9.39996 31.44 10.44 27.56ZM10.44 27.61C9.66996 31.45 9.16996 35.46 9.63996 39.38C9.87996 41.34 10.32 43.27 11.05 45.09C11.41 46 11.83 46.89 12.32 47.74C12.8 48.58 13.43 49.34 14.06 50.1C16.65 53.09 19.35 56.01 22.13 58.84L30.4 67.41L30.2 67.56C28.35 64.34 26.59 61.06 24.77 57.81C22.99 54.55 21.23 51.27 19.55 47.95C17.86 44.63 16.3 41.25 14.78 37.86C13.26 34.48 11.75 31.04 10.44 27.61Z" fill="black"/>
<path d="M23.4901 95.08C25.6385 95.08 27.3801 93.3384 27.3801 91.19C27.3801 89.0416 25.6385 87.3 23.4901 87.3C21.3417 87.3 19.6001 89.0416 19.6001 91.19C19.6001 93.3384 21.3417 95.08 23.4901 95.08Z" fill="white"/>
<path d="M27.4 91.29C27.37 92.31 27.01 93.34 26.28 94.12C25.57 94.91 24.46 95.34 23.39 95.28C21.2 95.15 19.48 93.2 19.47 91.09C19.44 90.04 19.87 88.96 20.65 88.2C21.41 87.44 22.51 87 23.59 87.04C24.68 87.06 25.74 87.57 26.42 88.39C27.11 89.21 27.43 90.27 27.4 91.29ZM27.35 91.29C27.38 90.27 26.91 89.28 26.19 88.63C25.47 87.97 24.54 87.59 23.58 87.57C22.63 87.56 21.68 87.9 20.97 88.55C20.26 89.2 19.81 90.12 19.74 91.1C19.67 92.08 20.02 93.11 20.74 93.81C21.44 94.53 22.44 94.88 23.4 94.87C24.37 94.87 25.31 94.51 26.06 93.89C26.81 93.27 27.34 92.31 27.35 91.29Z" fill="black"/>
<path d="M22.68 92.94C24.0386 92.94 25.14 91.8386 25.14 90.48C25.14 89.1214 24.0386 88.02 22.68 88.02C21.3214 88.02 20.22 89.1214 20.22 90.48C20.22 91.8386 21.3214 92.94 22.68 92.94Z" fill="black" stroke="black" stroke-width="0.75" stroke-miterlimit="10"/>
<path d="M18.72 84.81C19.39 84.45 20.53 83.93 22.04 83.76C23.62 83.57 24.89 83.83 25.64 84.05" stroke="black" stroke-miterlimit="10" stroke-linecap="round"/>
<path d="M38.02 83.11C38.77 82.98 40.02 82.87 41.5 83.18C43.05 83.51 44.18 84.17 44.82 84.61" stroke="black" stroke-miterlimit="10" stroke-linecap="round"/>
<path d="M29.2499 94.26C29.0999 95.47 29.9499 96.49 30.8899 96.59C31.9299 96.7 33.0599 95.7 32.9799 94.35" stroke="black" stroke-miterlimit="10" stroke-linecap="round"/>
<path d="M39.2001 95.13C41.3484 95.13 43.0901 93.3884 43.0901 91.24C43.0901 89.0916 41.3484 87.35 39.2001 87.35C37.0517 87.35 35.3101 89.0916 35.3101 91.24C35.3101 93.3884 37.0517 95.13 39.2001 95.13Z" fill="white"/>
<path d="M43.1099 91.33C43.0799 92.35 42.7199 93.38 41.9899 94.16C41.2799 94.95 40.1699 95.38 39.0999 95.32C36.9099 95.19 35.1899 93.24 35.1799 91.13C35.1499 90.08 35.5799 89 36.3599 88.24C37.1199 87.48 38.2199 87.04 39.2999 87.08C40.3899 87.1 41.4499 87.61 42.1299 88.43C42.8299 89.26 43.1399 90.32 43.1099 91.33ZM43.0599 91.33C43.0899 90.31 42.6199 89.32 41.8999 88.67C41.1799 88.01 40.2499 87.63 39.2899 87.61C38.3399 87.6 37.3899 87.94 36.6799 88.59C35.9699 89.24 35.5199 90.16 35.4499 91.14C35.3799 92.12 35.7299 93.15 36.4499 93.85C37.1499 94.57 38.1499 94.92 39.1099 94.91C40.0799 94.91 41.0199 94.55 41.7699 93.93C42.5199 93.32 43.0499 92.35 43.0599 91.33Z" fill="black"/>
<path d="M38.3999 92.99C39.7586 92.99 40.8599 91.8886 40.8599 90.53C40.8599 89.1714 39.7586 88.07 38.3999 88.07C37.0413 88.07 35.9399 89.1714 35.9399 90.53C35.9399 91.8886 37.0413 92.99 38.3999 92.99Z" fill="black" stroke="black" stroke-width="0.75" stroke-miterlimit="10"/>
</g>
<defs>
<clipPath id="clip0">
<rect width="61.63" height="115.86" fill="white"/>
</clipPath>
</defs>
</svg>
