<svg width="88" height="133" viewBox="0 0 88 133" fill="none" xmlns="http://www.w3.org/2000/svg">
<path d="M80.3303 67.13C82.6952 82.3297 84.2906 97.6393 85.1103 113L20.1103 124.07C15.1334 109.471 11.1707 94.5453 8.25027 79.4C7.72361 76.7334 7.23027 73.9933 6.77027 71.18C6.21027 67.7867 5.71361 64.4533 5.28027 61.18C3.41986 47.4559 2.41791 33.629 2.28027 19.78L67.3503 8.70001C70.9103 20.93 74.2803 34.37 77.1403 48.94C77.5803 51.2 78.0103 53.48 78.4303 55.8C79.1303 59.6333 79.7636 63.41 80.3303 67.13Z" fill="white" stroke="#010101" stroke-miterlimit="10" stroke-linecap="round"/>
<path d="M1.90992 19.4C1.50326 17.1333 1.08992 14.8533 0.669922 12.56C1.97992 13.22 3.28992 13.9 4.57992 14.56L8.37992 11.1C9.90992 11.63 11.3799 12.16 12.9699 12.68L16.9699 9.85L22.9399 11L27.4299 7.94L33.1499 9.49L36.4899 6.23L41.9999 8.31L46.8499 4.22C48.6799 5.01 50.4999 5.81 52.3299 6.59L57.1899 2.79L61.1899 5.21C62.4399 4 64.8099 2.2 66.0499 0.940002C66.7499 3.16 66.5999 6.04 67.2999 8.26C45.5799 12 23.5999 15.64 1.90992 19.4Z" fill="#1F705E" stroke="#010101" stroke-miterlimit="10" stroke-linecap="round"/>
<path d="M6.4802 23C7.3802 26.54 8.1502 30.1 8.8402 33.67C9.5302 37.24 10.1802 40.82 10.6802 44.43C11.1802 48.04 11.5202 51.66 12.0502 55.26C12.5802 58.86 13.2902 62.41 14.0002 66C14.7102 69.59 15.4702 73.13 16.1202 76.71C16.7702 80.29 17.4402 83.87 18.0202 87.46C19.1502 94.65 20.1302 101.86 20.7902 109.12C20.7933 109.132 20.7936 109.145 20.791 109.157C20.7884 109.169 20.783 109.18 20.7752 109.19C20.7675 109.2 20.7575 109.207 20.7463 109.213C20.735 109.218 20.7226 109.22 20.7102 109.22C20.6894 109.22 20.6691 109.214 20.6527 109.201C20.6363 109.188 20.6248 109.17 20.6202 109.15C18.9002 102.07 17.4902 94.93 16.2202 87.76C15.6002 84.17 15.0802 80.57 14.5302 76.97C13.9802 73.37 13.5302 69.77 13.0702 66.15C12.6102 62.53 12.1302 58.93 11.4702 55.36C10.8102 51.79 10.0002 48.2 9.2902 44.63C8.5802 41.06 8.0502 37.47 7.5402 33.86C7.0302 30.25 6.6102 26.64 6.3102 23C6.30877 22.9887 6.30978 22.9772 6.31316 22.9663C6.31654 22.9554 6.3222 22.9453 6.32978 22.9368C6.33735 22.9283 6.34666 22.9215 6.35708 22.9169C6.36751 22.9122 6.3788 22.9099 6.3902 22.91C6.4402 22.92 6.4802 23 6.4802 23Z" fill="#010101"/>
<path d="M32.6397 117C34.5399 116.381 36.4728 115.867 38.4297 115.46C40.3715 115.027 42.334 114.694 44.3097 114.46C46.3097 114.24 48.3097 114.18 50.3097 113.92C52.2824 113.638 54.2385 113.251 56.1697 112.76C58.1097 112.28 60.0497 111.83 62.0097 111.47C63.9697 111.11 65.9097 110.69 67.8797 110.39C71.8272 109.78 75.8076 109.406 79.7997 109.27C79.8219 109.27 79.8434 109.278 79.86 109.293C79.8766 109.308 79.8872 109.328 79.8897 109.35C79.8894 109.369 79.8835 109.388 79.8729 109.404C79.8623 109.42 79.8473 109.432 79.8297 109.44C76.0026 110.581 72.1128 111.499 68.1797 112.19C66.1797 112.53 64.2497 112.79 62.2697 113.05C60.2897 113.31 58.2697 113.52 56.2697 113.69C54.2834 113.84 52.307 114.1 50.3497 114.47C48.3497 114.85 46.4797 115.47 44.5297 115.87C42.5797 116.27 40.6097 116.56 38.6297 116.79C36.6381 117.029 34.6353 117.163 32.6297 117.19C32.6175 117.192 32.605 117.19 32.5934 117.187C32.5817 117.183 32.5711 117.176 32.5624 117.167C32.5537 117.159 32.5471 117.148 32.5432 117.136C32.5392 117.125 32.538 117.112 32.5397 117.1C32.5354 117.086 32.535 117.071 32.5385 117.057C32.542 117.043 32.5493 117.03 32.5596 117.02C32.5698 117.01 32.5827 117.002 32.5969 116.999C32.611 116.995 32.6258 116.996 32.6397 117Z" fill="#010101"/>
<path d="M80.3303 67.13L8.25027 79.4C7.72361 76.7333 7.23027 73.9933 6.77027 71.18C6.21027 67.7867 5.71361 64.4533 5.28027 61.18L77.1403 48.94C77.5803 51.2 78.0203 53.48 78.4303 55.8C79.1303 59.6333 79.7636 63.41 80.3303 67.13Z" fill="#1F705E" stroke="#010101" stroke-miterlimit="10" stroke-linecap="round"/>
<path d="M52.5196 86.17C66.8796 80.94 74.8996 66.72 70.4196 54.41C65.9396 42.1 50.6596 36.41 36.2896 41.59C21.9196 46.77 13.9096 61 18.3896 73.35C22.8696 85.7 38.1496 91.4 52.5196 86.17Z" fill="#FAF28C" stroke="#010101" stroke-miterlimit="10"/>
<path d="M19.9199 124.29C20.2799 126.58 20.6499 128.87 21.0099 131.17C22.0299 130.11 23.0299 129.043 24.0099 127.97L28.7299 129.97L32.5399 126.97L37.2799 128.31L42.5199 125.31L47.7599 126.71L52.6499 123.35L56.8799 125.35L61.3499 121.57L67.2899 123.83C68.7499 122.47 70.1999 121.12 71.6699 119.77C73.6099 120.44 75.5599 121.09 77.5099 121.77C78.5099 120.56 79.5099 119.36 80.5099 118.16C82.0999 118.93 84.9199 119.8 86.5099 120.57C86.4399 118.24 85.3399 115.57 85.2699 113.25C63.5699 116.79 41.6399 120.66 19.9199 124.29Z" fill="#1F705E" stroke="#010101" stroke-miterlimit="10" stroke-linecap="round"/>
<path d="M79.69 61.78L79.95 63.28L77.51 64.1L76.81 64.33L76.89 66.06L77.17 72.73L77 72.36L75.7 68.72L74.4 65L66.54 64.83H66L66.66 64.65L74.39 62.49L73.93 53.65L76.06 61.96L78.06 61.88L79.69 61.78Z" fill="white" stroke="#010101" stroke-width="0.5" stroke-miterlimit="10" stroke-linecap="round"/>
<path d="M66.57 68.2L67.8 73L73 72.8L68.2 74.41L68.41 79.27L66.8 74.78L62 74.68L66.86 73.32L66.57 68.2Z" fill="white" stroke="#010101" stroke-width="0.5" stroke-miterlimit="10" stroke-linecap="round"/>
<path d="M38.7802 106C38.4671 105.832 38.1297 105.714 37.7802 105.65C37.4511 105.575 37.1093 105.575 36.7802 105.65C36.5814 105.681 36.3868 105.735 36.2002 105.81C36.0274 105.872 35.8704 105.971 35.7402 106.1C35.6818 106.16 35.6394 106.233 35.6166 106.313C35.5939 106.394 35.5917 106.479 35.6102 106.56C35.6239 106.643 35.6574 106.722 35.7078 106.79C35.7583 106.858 35.8242 106.913 35.9002 106.95C36.0849 107.029 36.2804 107.079 36.4802 107.1H37.2702C37.5568 107.1 37.8368 107.12 38.1102 107.16C38.3739 107.178 38.6335 107.235 38.8802 107.33C39.1088 107.411 39.317 107.54 39.4902 107.71C39.663 107.899 39.7746 108.136 39.8102 108.39C39.8816 108.732 39.8246 109.088 39.6502 109.39C39.4696 109.701 39.2111 109.959 38.9002 110.14C38.5544 110.345 38.1753 110.487 37.7802 110.56C37.2796 110.635 36.7708 110.635 36.2702 110.56C35.8047 110.489 35.3665 110.296 35.0002 110L35.6302 109.19C35.913 109.402 36.2377 109.55 36.5826 109.626C36.9276 109.702 37.2847 109.703 37.6302 109.63C37.8183 109.59 38.0024 109.533 38.1802 109.46C38.3542 109.391 38.5111 109.285 38.6402 109.15C38.697 109.085 38.7375 109.008 38.7584 108.925C38.7793 108.841 38.7799 108.754 38.7602 108.67C38.7498 108.591 38.7184 108.515 38.6692 108.452C38.6199 108.389 38.5547 108.34 38.4802 108.31C38.2962 108.221 38.0947 108.173 37.8902 108.17C37.6402 108.17 37.3802 108.17 37.1102 108.17C36.7374 108.133 36.3669 108.077 36.0002 108C35.6618 107.953 35.3395 107.827 35.0602 107.63C34.7863 107.391 34.6086 107.06 34.5602 106.7C34.5006 106.384 34.5574 106.057 34.7202 105.78C34.9087 105.477 35.17 105.226 35.4802 105.05C35.8359 104.844 36.2251 104.701 36.6302 104.63C36.9239 104.579 37.2222 104.559 37.5202 104.57C37.8312 104.573 38.1405 104.617 38.4402 104.7C38.7328 104.776 39.0079 104.909 39.2502 105.09L38.7802 106ZM47.5502 107.93C47.3675 108.135 47.1629 108.319 46.9402 108.48C46.6874 108.67 46.4119 108.828 46.1202 108.95C45.799 109.089 45.4637 109.193 45.1202 109.26C44.5248 109.398 43.9056 109.398 43.3102 109.26C42.7866 109.118 42.3125 108.835 41.9402 108.44C41.5766 108.048 41.3366 107.558 41.2502 107.03C41.1246 106.458 41.1769 105.861 41.4002 105.32C41.6141 104.82 41.9598 104.388 42.4002 104.07C42.8623 103.731 43.3959 103.502 43.9602 103.4C44.4731 103.304 45.0019 103.334 45.5002 103.49C45.9683 103.633 46.3896 103.899 46.7202 104.26C47.0749 104.64 47.3082 105.117 47.3902 105.63L47.4702 106.15L42.4702 107.07C42.5602 107.296 42.6953 107.501 42.8672 107.673C43.0392 107.845 43.2443 107.98 43.4702 108.07C44.0028 108.287 44.589 108.336 45.1502 108.21C45.5475 108.151 45.9266 108.004 46.2602 107.78C46.5013 107.612 46.7256 107.421 46.9302 107.21L47.5502 107.93ZM44.1402 104.38C43.671 104.459 43.2281 104.651 42.8502 104.94C42.6755 105.085 42.5355 105.267 42.4403 105.473C42.3451 105.679 42.2972 105.903 42.3002 106.13L46.1702 105.42V105.3C46.1023 105.061 45.9539 104.852 45.7502 104.71C45.5312 104.548 45.2781 104.439 45.0102 104.39C44.7257 104.319 44.43 104.306 44.1402 104.35V104.38ZM55.3802 106.5C55.1971 106.702 54.9925 106.883 54.7702 107.04C54.5118 107.23 54.2335 107.391 53.9402 107.52C53.6214 107.663 53.2852 107.764 52.9402 107.82C52.3412 107.945 51.7213 107.928 51.1302 107.77C50.6089 107.628 50.1356 107.348 49.7602 106.96C49.3985 106.567 49.1589 106.077 49.0702 105.55C48.9427 104.994 48.982 104.413 49.183 103.88C49.3839 103.346 49.7378 102.884 50.2002 102.55C50.6623 102.211 51.1959 101.981 51.7602 101.88C52.2728 101.778 52.8029 101.809 53.3002 101.97C53.7683 102.113 54.1896 102.379 54.5202 102.74C54.877 103.118 55.1106 103.596 55.1902 104.11L55.2702 104.63L50.2702 105.55C50.3602 105.776 50.4953 105.981 50.6672 106.153C50.8392 106.325 51.0443 106.46 51.2702 106.55C51.804 106.762 52.3887 106.811 52.9502 106.69C53.3475 106.631 53.7266 106.484 54.0602 106.26C54.2966 106.086 54.5205 105.895 54.7302 105.69L55.3802 106.5ZM52.0002 102.92C51.5297 102.994 51.0858 103.187 50.7102 103.48C50.5363 103.623 50.3966 103.804 50.3015 104.008C50.2063 104.212 50.158 104.435 50.1602 104.66L54.0002 104V103.88C53.93 103.639 53.7824 103.428 53.5802 103.28C53.3607 103.121 53.1074 103.015 52.8402 102.97C52.566 102.9 52.2808 102.883 52.0002 102.92ZM62.2702 97.71L63.7302 105.71L62.6202 105.92L62.4602 105.03C62.342 105.243 62.1901 105.436 62.0102 105.6C61.8107 105.802 61.5854 105.977 61.3402 106.12C61.0609 106.268 60.7608 106.372 60.4502 106.43C59.9137 106.534 59.3597 106.499 58.8402 106.33C58.3521 106.164 57.9194 105.867 57.5902 105.47C57.2496 105.052 57.0254 104.552 56.9402 104.02C56.831 103.487 56.869 102.933 57.0502 102.42C57.2164 101.932 57.5182 101.502 57.9202 101.18C58.338 100.832 58.8427 100.604 59.3802 100.52C59.8217 100.425 60.2786 100.425 60.7202 100.52C61.082 100.596 61.4231 100.75 61.7202 100.97L61.1502 97.89L62.2702 97.71ZM60.4702 105.41C60.8372 105.344 61.1814 105.186 61.4702 104.95C61.7376 104.731 61.9414 104.445 62.0602 104.12C62.1744 103.779 62.1985 103.413 62.1302 103.06C62.0792 102.692 61.9268 102.346 61.6902 102.06C61.4722 101.792 61.1801 101.593 60.8502 101.49C60.4917 101.374 60.1091 101.353 59.7402 101.43C59.3726 101.488 59.0273 101.643 58.7402 101.88C58.4709 102.093 58.2665 102.377 58.1502 102.7C58.0284 103.04 58.0007 103.406 58.0702 103.76C58.1241 104.129 58.2799 104.475 58.5202 104.76C58.7465 105.019 59.0358 105.215 59.3602 105.33C59.7076 105.448 60.0792 105.475 60.4402 105.41H60.4702ZM69.3202 100.41C69.0092 100.237 68.671 100.119 68.3202 100.06C67.9903 99.9924 67.6501 99.9924 67.3202 100.06C67.1254 100.094 66.9344 100.148 66.7502 100.22C66.5749 100.281 66.417 100.384 66.2902 100.52C66.2293 100.578 66.1852 100.651 66.1623 100.732C66.1395 100.813 66.1387 100.899 66.1602 100.98C66.172 101.062 66.2037 101.139 66.2525 101.205C66.3014 101.271 66.3658 101.325 66.4402 101.36C66.6253 101.448 66.8257 101.498 67.0302 101.51H67.8202C68.1012 101.51 68.382 101.53 68.6602 101.57C68.9238 101.589 69.1832 101.646 69.4302 101.74C69.6588 101.815 69.865 101.945 70.0302 102.12C70.2118 102.304 70.3277 102.543 70.3602 102.8C70.4288 103.142 70.372 103.497 70.2002 103.8C70.016 104.114 69.7543 104.376 69.4402 104.56C69.0966 104.767 68.7163 104.906 68.3202 104.97C67.8238 105.055 67.3166 105.055 66.8202 104.97C66.3359 104.899 65.8797 104.699 65.5002 104.39L66.1402 103.58C66.4134 103.771 66.718 103.914 67.0402 104C67.4092 104.08 67.7912 104.08 68.1602 104C68.3499 103.966 68.5346 103.909 68.7102 103.83C68.8817 103.761 69.038 103.659 69.1702 103.53C69.2282 103.464 69.2701 103.385 69.2926 103.3C69.3152 103.215 69.3178 103.126 69.3002 103.04C69.2846 102.962 69.2513 102.889 69.2027 102.827C69.1541 102.764 69.0916 102.714 69.0202 102.68C68.8292 102.601 68.6265 102.554 68.4202 102.54C68.1802 102.54 67.9202 102.54 67.6402 102.54C67.2402 102.54 66.8502 102.54 66.4902 102.44C66.1306 102.398 65.787 102.267 65.4902 102.06C65.2193 101.82 65.0451 101.489 65.0002 101.13C64.9358 100.814 64.9929 100.486 65.1602 100.21C65.3493 99.9103 65.6106 99.6627 65.9202 99.49C66.2751 99.282 66.6647 99.1397 67.0702 99.07C67.3766 99.0118 67.6885 98.9883 68.0002 99C68.3116 98.9976 68.6216 99.0414 68.9202 99.13C69.2143 99.2023 69.4902 99.3352 69.7302 99.52L69.3202 100.41Z" fill="#010101"/>
<path d="M56.5895 44.17C53.3695 48.11 49.4695 54.38 49.6695 62.39C49.7112 63.5986 49.8214 64.8039 49.9995 66C50.6395 70.94 51.6595 78 53.2995 87.12" stroke="#1E6F5D" stroke-width="2" stroke-miterlimit="10" stroke-linecap="round"/>
<path d="M36.5303 53.06C41.0003 55.7 47.0003 60.31 49.4703 67.94C49.829 69.0919 50.1195 70.2639 50.3403 71.45C51.3403 76.33 52.7303 83.38 54.1603 92.45" stroke="#1E6F5D" stroke-width="2" stroke-miterlimit="10" stroke-linecap="round"/>
<path d="M43.1302 31.32C42.1302 30.81 38.7002 34.07 37.0102 38.23C34.0102 45.56 36.8102 54.84 39.4902 55.13C40.6002 55.26 41.6002 53.79 41.8702 53.39C43.7602 50.61 41.9902 47.62 41.6602 42.87C41.1702 36 44.1902 31.87 43.1302 31.32Z" fill="white"/>
<path d="M43.1098 31.36C42.5898 31.21 42.1098 31.59 41.6398 31.9C41.2063 32.2468 40.8047 32.6317 40.4398 33.05C39.7184 33.8883 39.082 34.7961 38.5398 35.76C37.4507 37.6721 36.6933 39.7549 36.2998 41.92C35.8699 44.0943 35.809 46.3255 36.1198 48.52C36.2724 49.6205 36.5474 50.7005 36.9398 51.74C37.2842 52.779 37.8703 53.7215 38.6498 54.49C38.8159 54.6615 39.026 54.7839 39.257 54.8439C39.4881 54.9039 39.7312 54.8991 39.9598 54.83C40.4242 54.618 40.827 54.2911 41.1298 53.88C41.8303 53.0739 42.2544 52.0646 42.3398 51C42.3714 49.9262 42.2571 48.853 41.9998 47.81C41.7798 46.72 41.5698 45.61 41.4198 44.49C41.0924 42.2381 41.1669 39.9459 41.6398 37.72C41.882 36.6205 42.1858 35.5354 42.5498 34.47C42.7298 33.94 42.8998 33.41 43.0698 32.88C43.1473 32.6135 43.2107 32.3431 43.2598 32.07C43.3198 31.82 43.3498 31.49 43.1098 31.36ZM43.1098 31.29C43.4098 31.45 43.3698 31.83 43.3498 32.09C43.3052 32.3665 43.2451 32.6402 43.1698 32.91C43.0298 33.46 42.8598 33.99 42.7298 34.53C42.4539 35.6057 42.2468 36.6979 42.1098 37.8C41.8463 39.9865 41.8631 42.1977 42.1598 44.38C42.3098 45.48 42.5498 46.55 42.7498 47.66C42.9895 48.7865 43.0736 49.9406 42.9998 51.09C42.8722 52.2757 42.3634 53.3881 41.5498 54.26C41.1673 54.7403 40.6581 55.104 40.0798 55.31C39.7558 55.422 39.4037 55.422 39.0798 55.31C38.7888 55.1975 38.5235 55.0274 38.2998 54.81C37.526 53.9457 36.9524 52.9213 36.6198 51.81C36.2531 50.7448 35.9754 49.6511 35.7898 48.54C35.3931 46.3148 35.3358 44.0424 35.6198 41.8C35.9384 39.5388 36.7771 37.3824 38.0698 35.5C38.7007 34.56 39.4243 33.6856 40.2298 32.89C40.6306 32.4974 41.0583 32.1332 41.5098 31.8C41.9998 31.53 42.5398 31.11 43.1498 31.29H43.1098Z" fill="#231F20"/>
<path d="M39.1201 55.2C38.8301 53.14 33.1201 52.6 27.1201 52.02C22.9101 51.62 21.3101 51.92 20.3001 53.02C18.8601 54.59 19.0901 57.23 19.1201 57.53C19.1189 58.0005 19.302 58.4528 19.6301 58.79C19.8946 58.9454 20.1885 59.0443 20.4931 59.0804C20.7977 59.1166 21.1066 59.0892 21.4001 59C22.867 58.9318 24.3367 58.9586 25.8001 59.08C30.1901 58.92 30.7201 60.08 33.2501 59.61C36.1701 59.07 39.3601 56.81 39.1201 55.2Z" fill="white"/>
<path d="M39.0895 55.2C39.0259 54.9647 38.9127 54.7456 38.7574 54.5577C38.6022 54.3697 38.4086 54.217 38.1895 54.11C37.7579 53.8696 37.2976 53.6848 36.8195 53.56C35.8588 53.3245 34.8832 53.1542 33.8995 53.05L27.9995 52.42C26.9995 52.3 25.9995 52.16 24.9995 52.08C24.0203 51.9763 23.0317 52.0032 22.0595 52.16C21.5838 52.2477 21.1332 52.4388 20.7395 52.72C20.3628 53.0218 20.05 53.3958 19.8195 53.82C19.3936 54.6971 19.191 55.6658 19.2295 56.64C19.2239 57.1154 19.281 57.5895 19.3995 58.05C19.4532 58.2394 19.5615 58.4087 19.7109 58.5367C19.8603 58.6648 20.0442 58.746 20.2395 58.77C20.7105 58.7926 21.1823 58.7455 21.6395 58.63C22.155 58.5802 22.6741 58.5802 23.1895 58.63C24.1868 58.7209 25.1886 58.751 26.1895 58.72C27.1934 58.6813 28.1986 58.7449 29.1895 58.91C30.1427 59.1282 31.1077 59.2918 32.0795 59.4C33.0379 59.3954 33.9884 59.2263 34.8895 58.9C35.823 58.5958 36.7061 58.1543 37.5095 57.59C37.9099 57.3067 38.2698 56.9703 38.5795 56.59C38.9211 56.209 39.1036 55.7115 39.0895 55.2ZM39.1595 55.2C39.1952 55.715 39.0304 56.2238 38.6995 56.62C38.4103 57.0244 38.0747 57.3936 37.6995 57.72C36.9273 58.3759 36.0652 58.9181 35.1395 59.33C34.1978 59.7727 33.1788 60.0275 32.1395 60.08C31.1281 60.0263 30.1238 59.879 29.1395 59.64C28.1754 59.5081 27.2025 59.4513 26.2295 59.47C25.227 59.4739 24.2252 59.4172 23.2295 59.3C22.7504 59.26 22.2687 59.26 21.7895 59.3C21.2726 59.4015 20.7434 59.4251 20.2195 59.37C19.9188 59.3199 19.64 59.1806 19.4195 58.97C19.2073 58.7584 19.0584 58.4917 18.9895 58.2C18.8857 57.6869 18.8554 57.1616 18.8995 56.64C18.9325 55.6147 19.1956 54.6099 19.6695 53.7C19.9071 53.2522 20.2381 52.8607 20.64 52.5518C21.042 52.243 21.5056 52.0241 21.9995 51.91C23.9868 51.6196 26.0029 51.5826 27.9995 51.8C29.9977 51.9306 31.9852 52.1912 33.9495 52.58C34.9332 52.7808 35.9021 53.0481 36.8495 53.38C37.3243 53.5443 37.7803 53.7589 38.2095 54.02C38.4438 54.1337 38.6503 54.2973 38.8145 54.4995C38.9786 54.7017 39.0964 54.9374 39.1595 55.19V55.2Z" fill="#231F20"/>
<path d="M51.8198 49.08C51.6798 47.08 54.3398 43.45 54.3398 43.45C54.3398 43.45 57.6198 39 61.0998 37.11C61.1884 37.0466 61.29 37.0038 61.3973 36.9847C61.5046 36.9657 61.6148 36.9709 61.7198 37C62.2498 37.27 61.9398 38.88 61.8298 39.44C61.2398 42.44 55.4098 47.96 53.2298 49.94C53.0651 50.0219 52.8837 50.0646 52.6998 50.0646C52.5159 50.0646 52.3345 50.0219 52.1698 49.94C52.0523 49.8309 51.9601 49.6973 51.8996 49.5488C51.8391 49.4002 51.8119 49.2402 51.8198 49.08Z" fill="#8DC63F"/>
<path d="M51.78 49.08C51.7847 48.3949 51.917 47.7167 52.17 47.08C52.4005 46.4307 52.6779 45.799 53 45.19C53.5899 43.9467 54.3654 42.8002 55.3 41.79C56.2307 40.7851 57.2334 39.8493 58.3 38.99C58.83 38.56 59.37 38.14 59.92 37.74C60.2 37.54 60.48 37.35 60.77 37.17C61.06 36.99 61.06 36.99 61.23 36.91C61.3261 36.8616 61.4323 36.8364 61.54 36.8364C61.6476 36.8364 61.7538 36.8616 61.85 36.91C62.28 37.21 62.23 37.64 62.27 37.98C62.2949 38.3295 62.2949 38.6804 62.27 39.03C62.1969 39.7283 61.9934 40.4067 61.67 41.03C61.0182 42.2472 60.237 43.3904 59.34 44.44C58.4578 45.4929 57.5163 46.4945 56.52 47.44C55.52 48.37 54.45 49.21 53.4 50.07C53.2337 50.1396 53.0552 50.1754 52.875 50.1754C52.6947 50.1754 52.5162 50.1396 52.35 50.07C52.1719 49.9748 52.0241 49.8315 51.9233 49.6565C51.8226 49.4815 51.7729 49.2818 51.78 49.08ZM51.86 49.08C51.8488 49.2422 51.8809 49.4045 51.953 49.5503C52.025 49.6961 52.1344 49.8202 52.27 49.91C52.4202 49.9673 52.581 49.9917 52.7415 49.9813C52.902 49.971 53.0583 49.9262 53.2 49.85C54.15 48.85 55.04 47.85 55.95 46.85C56.86 45.85 57.79 44.85 58.66 43.85C59.5401 42.8818 60.3238 41.8302 61 40.71C61.3316 40.1551 61.5618 39.5456 61.68 38.91C61.7518 38.5807 61.7986 38.2464 61.82 37.91C61.82 37.6 61.82 37.23 61.65 37.12C61.48 37.01 61.14 37.21 60.87 37.37C60.6 37.53 60.3 37.72 60.01 37.9C59.4566 38.2844 58.935 38.7124 58.45 39.18C57.4968 40.1248 56.6018 41.1267 55.77 42.18C54.9096 43.2049 54.1019 44.273 53.35 45.38C52.505 46.4427 51.9873 47.7283 51.86 49.08Z" fill="#231F20"/>
<path d="M53.2798 48.16C53.2798 46.16 55.4198 42.93 55.4198 42.93C55.4198 42.93 58.1098 38.93 60.8698 37.36C60.9798 37.3 61.1998 37.19 61.3598 37.36C61.7598 37.67 61.4698 39.19 61.3598 39.73C60.8098 42.61 56.0998 47.43 54.3598 49.17C54.2254 49.2279 54.0776 49.2474 53.9328 49.2262C53.788 49.205 53.652 49.144 53.5398 49.05C53.3432 48.7972 53.2502 48.4789 53.2798 48.16Z" fill="#8DC63F"/>
<path d="M53.2404 48.17C53.3352 46.9728 53.6398 45.8017 54.1404 44.71C54.5936 43.5884 55.2213 42.5455 56.0004 41.62C56.764 40.6982 57.6 39.8388 58.5004 39.05C58.9404 38.64 59.4104 38.27 59.8704 37.9C60.1104 37.72 60.3504 37.54 60.6104 37.38C60.7398 37.2911 60.8771 37.2142 61.0204 37.15C61.1198 37.1056 61.2313 37.0962 61.3367 37.1234C61.4421 37.1507 61.5351 37.213 61.6004 37.3C61.7524 37.6105 61.8213 37.955 61.8004 38.3C61.7957 38.6042 61.7757 38.9079 61.7404 39.21C61.6756 39.826 61.5206 40.4291 61.2804 41C60.7676 42.0993 60.1408 43.1416 59.4104 44.11C58.6899 45.0631 57.9083 45.9684 57.0704 46.82C56.2304 47.67 55.3104 48.43 54.4204 49.21C54.2685 49.2669 54.1038 49.2802 53.9447 49.2484C53.7857 49.2166 53.6387 49.1409 53.5204 49.03C53.3221 48.7888 53.2221 48.4817 53.2404 48.17ZM53.3204 48.17C53.3029 48.4567 53.388 48.7403 53.5604 48.97C53.6667 49.054 53.7951 49.1053 53.93 49.1177C54.0649 49.1301 54.2005 49.1032 54.3204 49.04C55.1004 48.15 55.8304 47.22 56.5804 46.31C57.3304 45.4 58.0904 44.51 58.8004 43.59C59.5316 42.6926 60.1714 41.7245 60.7104 40.7C60.9539 40.1877 61.132 39.6468 61.2404 39.09C61.4036 38.5689 61.4311 38.0148 61.3204 37.48C61.3204 37.31 60.9904 37.43 60.7504 37.6C60.4942 37.7448 60.247 37.9051 60.0104 38.08C59.5371 38.4232 59.0984 38.8117 58.7004 39.24C57.9023 40.1091 57.164 41.0312 56.4904 42C55.7804 42.94 55.1604 43.89 54.4904 44.9C53.8251 45.8673 53.422 46.9905 53.3204 48.16V48.17Z" fill="#231F20"/>
<path d="M52.5603 49.6C52.8703 47.52 55.5603 45.03 57.7203 42.22C58.8464 40.5205 60.3398 39.0954 62.0903 38.05C62.2903 37.94 62.5803 37.81 62.7203 37.92C63.2103 38.33 61.3803 41.56 59.4703 44C56.8003 47.42 53.1403 50.37 52.6103 49.92C52.5782 49.874 52.557 49.8212 52.5484 49.7658C52.5397 49.7104 52.5438 49.6537 52.5603 49.6Z" fill="#8DC63F"/>
<path d="M52.5196 49.59C52.8881 48.2848 53.5099 47.065 54.3496 46C55.1296 44.88 56.0096 43.86 56.8796 42.84C57.7368 41.7932 58.6481 40.7918 59.6096 39.84C60.1026 39.362 60.6271 38.9177 61.1796 38.51C61.4596 38.32 61.7496 38.14 62.0496 37.96C62.2221 37.8544 62.4178 37.7927 62.6196 37.78C62.6982 37.7812 62.7748 37.8056 62.8396 37.85C62.8991 37.893 62.9529 37.9434 62.9996 38C63.0179 38.1093 63.0179 38.2208 62.9996 38.33C62.88 39.0312 62.6433 39.7073 62.2996 40.33C61.9976 40.9437 61.6638 41.5411 61.2996 42.12C60.5838 43.2895 59.7709 44.3967 58.8696 45.43C57.9647 46.4633 56.9598 47.4045 55.8696 48.24C55.3196 48.65 54.7696 49.05 54.1796 49.41C53.8921 49.5981 53.5913 49.7652 53.2796 49.91C53.1216 49.9834 52.9528 50.0307 52.7796 50.05C52.7289 50.0537 52.6783 50.0411 52.6352 50.0142C52.592 49.9872 52.5586 49.9472 52.5396 49.9C52.5002 49.8014 52.4932 49.6929 52.5196 49.59ZM52.5896 49.59C52.5896 49.76 52.5896 49.93 52.7696 49.91C52.9322 49.8884 53.0887 49.834 53.2296 49.75C53.5225 49.5937 53.7974 49.4059 54.0496 49.19C54.5713 48.7649 55.0656 48.3074 55.5296 47.82C56.4496 46.82 57.3796 45.88 58.2396 44.82C59.1118 43.8065 59.9264 42.7449 60.6796 41.64C61.0596 41.0934 61.4196 40.5334 61.7596 39.96C62.1106 39.4149 62.3896 38.8267 62.5896 38.21C62.5941 38.1501 62.5941 38.0899 62.5896 38.03C62.4538 38.0413 62.3213 38.0786 62.1996 38.14C61.8949 38.2781 61.6007 38.4385 61.3196 38.62C60.7642 38.9934 60.2482 39.4223 59.7796 39.9C58.902 40.9227 58.0967 42.0053 57.3696 43.14C56.5484 44.2185 55.6635 45.247 54.7196 46.22C53.7112 47.1284 52.9739 48.2983 52.5896 49.6V49.59Z" fill="#231F20"/>
<path d="M52.9995 49.13C53.5716 48.298 54.2433 47.5391 54.9995 46.87C55.3895 46.54 55.8195 46.26 56.1695 45.87C56.5283 45.5141 56.8408 45.1142 57.0995 44.68C57.6395 43.82 58.2095 43 58.7895 42.19C59.4018 41.3683 60.07 40.5898 60.7895 39.86C60.4624 40.8339 60.0049 41.759 59.4295 42.61C58.8496 43.448 58.1789 44.2194 57.4295 44.91C57.0481 45.2447 56.6906 45.6055 56.3595 45.99C56.0495 46.39 55.7695 46.83 55.4595 47.23C54.7787 48.0412 53.9422 48.7077 52.9995 49.19H52.9395C52.9395 49.1741 52.9458 49.1588 52.957 49.1476C52.9683 49.1363 52.9835 49.13 52.9995 49.13Z" fill="#231F20"/>
<path d="M54.4297 45.31L60.0797 38.41L54.4297 45.31Z" fill="#8DC63F"/>
<path d="M54.4102 45.29C54.747 44.6213 55.1743 44.0021 55.6802 43.45C55.9402 43.19 56.2302 42.95 56.4802 42.67C56.7287 42.3897 56.9529 42.0886 57.1502 41.77C57.9278 40.4911 58.911 39.3491 60.0602 38.39C59.3491 39.7077 58.423 40.8974 57.3202 41.91C57.0517 42.1694 56.8011 42.4467 56.5702 42.74C56.3502 43.04 56.1702 43.38 55.9602 43.69C55.52 44.2954 54.9984 44.8372 54.4102 45.3V45.29Z" fill="#231F20"/>
<path d="M28.9995 39.94C28.267 40.327 27.6356 40.8806 27.1562 41.5563C26.6768 42.232 26.3628 43.0108 26.2395 43.83C25.7395 47.13 29.0895 49.97 31.5695 52.08C32.9395 53.24 37.6995 57.28 39.6495 55.92C41.1795 54.85 40.1895 51.03 39.6995 49.14C39.1895 47 38.3795 43.9 35.9995 42.79C35.0096 42.5226 34.0774 42.0751 33.2495 41.47C32.3595 40.68 32.2495 40.01 31.3895 39.7C30.5923 39.4623 29.7336 39.5485 28.9995 39.94Z" fill="white"/>
<path d="M29.0601 40C28.2006 40.4517 27.4956 41.1501 27.0359 42.0054C26.5762 42.8607 26.3826 43.8339 26.4801 44.8C26.6049 45.7331 26.9475 46.6238 27.4801 47.4C28.022 48.1968 28.6345 48.9431 29.3101 49.63C29.9701 50.34 30.6901 51.01 31.4201 51.63C32.1501 52.25 32.9001 53 33.6801 53.58C34.4496 54.1852 35.2693 54.7239 36.1301 55.19C36.9517 55.6876 37.8898 55.9601 38.8501 55.98C39.0552 55.9589 39.2525 55.8899 39.4262 55.7788C39.5998 55.6677 39.745 55.5174 39.8501 55.34C40.0532 54.9403 40.1594 54.4984 40.1601 54.05C40.1719 53.0937 40.0644 52.1397 39.8401 51.21C39.6301 50.21 39.3601 49.31 39.1001 48.37C38.8484 47.4354 38.5137 46.5251 38.1001 45.65C37.7113 44.809 37.1369 44.0671 36.4201 43.48C36.0518 43.2005 35.6395 42.9842 35.2001 42.84C34.7132 42.6866 34.2465 42.4751 33.8101 42.21C33.3754 41.9409 32.987 41.6032 32.6601 41.21C32.4015 40.785 32.1107 40.3805 31.7901 40C31.3791 39.7491 30.9068 39.6164 30.4251 39.6164C29.9435 39.6164 29.4712 39.7491 29.0601 40ZM29.0601 39.93C29.4971 39.6693 29.9964 39.5317 30.5051 39.5317C31.0139 39.5317 31.5132 39.6693 31.9501 39.93C32.3251 40.2613 32.676 40.6189 33.0001 41C33.3293 41.3361 33.711 41.6164 34.1301 41.83C34.5654 42.0236 35.0172 42.1776 35.4801 42.29C35.9894 42.4312 36.4724 42.6541 36.9101 42.95C37.7696 43.5716 38.4577 44.4007 38.9101 45.36C39.7109 47.2038 40.2851 49.138 40.6201 51.12C40.8303 52.1053 40.9077 53.1142 40.8501 54.12C40.8213 54.6592 40.6562 55.1821 40.3701 55.64C40.2078 55.8728 39.9927 56.0639 39.7425 56.1977C39.4922 56.3315 39.2139 56.4043 38.9301 56.41C37.9064 56.3151 36.9212 55.9719 36.0601 55.41C35.2001 54.91 34.3901 54.34 33.5801 53.76C32.0101 52.56 30.4201 51.39 28.9501 50.03C28.2087 49.3421 27.5539 48.5664 27.0001 47.72C26.4082 46.8591 26.0624 45.853 26.0001 44.81C25.9925 43.7809 26.2882 42.7722 26.8501 41.91C27.3584 41.0496 28.1052 40.3549 29.0001 39.91L29.0601 39.93Z" fill="#231F20"/>
<path d="M41.5602 53.66C40.6302 52.6303 39.9463 51.4027 39.5602 50.07C39.4002 49.39 39.3402 48.7 39.2102 48.07C39.0802 47.44 38.8902 46.76 38.6802 46.07C38.3021 44.7485 38.1566 43.3714 38.2502 42C38.3413 40.5915 38.7554 39.2229 39.4602 38C39.4704 37.9927 39.4826 37.9888 39.4952 37.9888C39.5077 37.9888 39.52 37.9927 39.5302 38C39.5355 38.0163 39.5355 38.0338 39.5302 38.05C39.4202 39.43 39.3202 40.73 39.2902 42.05C39.2902 42.7 39.2202 43.35 39.2302 44.05V46.05C39.2318 46.7278 39.3329 47.4016 39.5302 48.05C39.7582 48.6826 40.0322 49.2976 40.3502 49.89C40.8775 51.1254 41.299 52.4033 41.6102 53.71V53.77C41.6102 53.77 41.5802 53.67 41.5602 53.66Z" fill="#231F20"/>
<path d="M39.08 55.74C37.801 55.2101 36.6614 54.3922 35.75 53.35C35.32 52.82 34.96 52.22 34.55 51.68C34.1341 51.1404 33.6902 50.623 33.22 50.13C32.2836 49.104 31.5324 47.9231 31 46.64C30.4862 45.3413 30.2742 43.9427 30.38 42.55C30.38 42.55 30.38 42.55 30.43 42.55C30.4376 42.5456 30.4462 42.5433 30.455 42.5433C30.4638 42.5433 30.4724 42.5456 30.48 42.55C30.98 43.83 31.48 45.05 31.99 46.24C32.26 46.84 32.5 47.45 32.79 48.04L33.67 49.82C33.9621 50.4265 34.3429 50.986 34.8 51.48C35.283 51.9481 35.7975 52.3824 36.34 52.78C37.3501 53.6659 38.2866 54.6324 39.14 55.67C39.1473 55.6802 39.1513 55.6925 39.1513 55.705C39.1513 55.7176 39.1473 55.7298 39.14 55.74C39.14 55.74 39.09 55.75 39.08 55.74Z" fill="#231F20"/>
<path d="M37.75 54.09C39.63 48.85 40.57 46.24 42.52 44.44C44.0318 42.9633 45.9324 41.9471 48 41.51C49.08 41.29 52.46 40.61 54.28 42.61C54.5872 42.8615 54.8358 43.1771 55.0085 43.5346C55.1812 43.8921 55.2739 44.283 55.28 44.68C54.98 46.74 50.72 46.2 46.92 49.81C46.92 49.81 46.92 49.81 44.17 52.87C42.52 54.71 42.17 55.41 41.1 56.29C40.03 57.17 37.92 58.44 37.2 57.84C36.67 57.47 36.89 56.49 37.75 54.09Z" fill="white"/>
<path d="M37.7095 54.08C38.4895 52 39.0795 49.86 39.9395 47.79C40.3554 46.729 40.9359 45.7403 41.6595 44.86C42.4161 44.0007 43.2996 43.2622 44.2795 42.67C46.2557 41.5465 48.5084 41.0023 50.7795 41.1C51.9174 41.0963 53.0285 41.4457 53.9595 42.1C54.3955 42.4741 54.776 42.9085 55.0895 43.39C55.2594 43.6477 55.3613 43.9443 55.3858 44.252C55.4103 44.5597 55.3565 44.8686 55.2295 45.15C54.9134 45.6688 54.4356 46.0694 53.8695 46.29C53.3495 46.55 52.8695 46.73 52.3095 46.94C51.2721 47.3139 50.2685 47.7756 49.3095 48.32C48.384 48.8624 47.5419 49.5361 46.8095 50.32L44.5795 52.79C43.8195 53.6 43.1595 54.45 42.4195 55.31C41.6614 56.1702 40.7447 56.8764 39.7195 57.39C39.2155 57.6629 38.682 57.8776 38.1295 58.03C37.8321 58.1147 37.5169 58.1147 37.2195 58.03C37.0646 57.9712 36.9334 57.8629 36.8466 57.7218C36.7598 57.5806 36.7221 57.4147 36.7395 57.25C36.9203 56.1548 37.2465 55.0888 37.7095 54.08ZM37.7795 54.08C37.6095 54.61 37.4295 55.08 37.2795 55.66C37.0972 56.1842 37.0026 56.7349 36.9995 57.29C36.9922 57.4045 37.0238 57.5182 37.0892 57.6125C37.1545 57.7069 37.2497 57.7765 37.3595 57.81C37.6046 57.855 37.8574 57.8307 38.0895 57.74C38.5972 57.5587 39.0782 57.3098 39.5195 57C40.4332 56.4337 41.2474 55.7208 41.9295 54.89C42.5795 54.02 43.3095 53.14 44.0595 52.31C44.8095 51.48 45.5195 50.65 46.2795 49.84C47.0784 49.016 47.995 48.3151 48.9995 47.76C49.9923 47.2204 51.0335 46.7752 52.1095 46.43C52.6295 46.24 53.1095 46.08 53.6595 45.88C54.1432 45.717 54.5654 45.41 54.8695 45C54.9789 44.7767 55.0298 44.5293 55.0176 44.281C55.0053 44.0326 54.9303 43.7914 54.7995 43.58C54.5463 43.108 54.2071 42.6874 53.7995 42.34C52.945 41.6701 51.885 41.3168 50.7995 41.34C48.6087 41.3262 46.4638 41.9669 44.6395 43.18C43.7379 43.7745 42.9119 44.4763 42.1795 45.27C41.4593 46.0989 40.8477 47.0163 40.3595 48C39.3732 49.9775 38.5115 52.0148 37.7795 54.1V54.08Z" fill="#231F20"/>
<path d="M40.4698 57.87C40.4698 58.73 36.4698 58.2 32.3998 60.72C29.9964 62.03 28.0967 64.1021 26.9998 66.61C25.8298 69.61 26.5898 72.61 25.5198 72.88C24.8798 73.06 24.0998 72.13 23.9598 71.95C21.7398 69.28 23.7498 64.37 23.9598 63.95C25.8998 59.39 30.8298 56.02 35.6598 56.17C38.0698 56.23 40.4998 57.19 40.4698 57.87Z" fill="white"/>
<path d="M40.5003 57.87C40.4303 58.21 40.0603 58.27 39.8203 58.35L38.9903 58.53C38.4403 58.65 37.8903 58.75 37.3503 58.9C36.2721 59.159 35.2234 59.5276 34.2203 60C32.2509 60.9781 30.4807 62.3142 29.0003 63.94C28.2679 64.7548 27.6734 65.6837 27.2403 66.69C26.822 67.7211 26.5657 68.8106 26.4803 69.92L26.3103 71.6C26.2875 71.8891 26.2304 72.1744 26.1403 72.45C26.0919 72.6094 25.9961 72.7503 25.8657 72.8539C25.7353 72.9575 25.5764 73.0189 25.4103 73.03C25.098 73.0101 24.8002 72.8909 24.5603 72.69C24.3238 72.52 24.1089 72.3219 23.9203 72.1C23.5198 71.6602 23.2075 71.1476 23.0003 70.59C22.6503 69.4786 22.5614 68.3014 22.7403 67.15C22.8894 66.0047 23.1817 64.8826 23.6103 63.81C24.5099 61.6657 25.9712 59.8036 27.8403 58.42C29.6817 57.0086 31.8962 56.1674 34.2103 56C35.35 55.9301 36.4937 56.038 37.6003 56.32C38.1512 56.4571 38.6924 56.6308 39.2203 56.84C39.4812 56.9479 39.7321 57.0784 39.9703 57.23C40.2003 57.36 40.4703 57.54 40.5003 57.87ZM40.4303 57.87C40.4303 57.61 40.1403 57.43 39.9203 57.29C39.6803 57.1501 39.4295 57.0297 39.1703 56.93C38.6485 56.7334 38.1095 56.586 37.5603 56.49C36.4676 56.3102 35.3529 56.3102 34.2603 56.49C32.0972 56.8489 30.0549 57.7319 28.3118 59.0619C26.5686 60.3919 25.1776 62.1285 24.2603 64.12C23.8314 65.1278 23.5194 66.1813 23.3303 67.26C23.118 68.3289 23.1419 69.4313 23.4003 70.49C23.5399 71.0109 23.7849 71.4977 24.1203 71.92C24.4016 72.3652 24.8472 72.6814 25.3603 72.8C25.8503 72.8 25.9603 72.11 26.0303 71.6C26.1003 71.09 26.1203 70.49 26.1703 69.92C26.2415 68.7849 26.4531 67.6631 26.8003 66.58C27.1798 65.4912 27.7448 64.4763 28.4703 63.58C29.9589 61.8219 31.8584 60.4582 34.0003 59.61C35.0608 59.1989 36.1595 58.894 37.2803 58.7L39.0003 58.43C39.2803 58.43 39.5503 58.33 39.8203 58.27C40.0903 58.21 40.3703 58.12 40.4303 57.87Z" fill="#231F20"/>
<path d="M32 50.2L38 56.73L32 50.2Z" fill="white"/>
<path d="M32 50.2L38 56.73" stroke="#231F20" stroke-width="0.75" stroke-miterlimit="10"/>
<path d="M29.3104 47.33C28.9504 47.62 29.7104 49.27 30.9404 50.33C31.4604 50.74 32.3304 51.27 32.5904 51.06C32.8504 50.85 32.4304 49.97 32.1504 49.51C31.3004 48.08 29.6704 47 29.3104 47.33Z" fill="#380000" stroke="#231F20" stroke-width="0.75" stroke-miterlimit="10"/>
<path d="M32 53.82L37.44 57.45L32 53.82Z" fill="white"/>
<path d="M32 53.82L37.44 57.45" stroke="#231F20" stroke-width="0.75" stroke-miterlimit="10"/>
<path d="M28.5603 51C28.2503 51.35 29.2803 52.85 30.6703 53.63C31.2503 53.95 32.2003 54.32 32.4203 54.07C32.6403 53.82 32.0703 53.02 31.7203 52.61C30.6503 51.43 28.8703 50.68 28.5603 51Z" fill="#380000" stroke="#231F20" stroke-width="0.75" stroke-miterlimit="10"/>
<path d="M35.2598 50.91L39.1798 56.14L35.2598 50.91Z" fill="white"/>
<path d="M35.2598 50.91L39.1798 56.14" stroke="#231F20" stroke-width="0.75" stroke-miterlimit="10"/>
<path d="M39.3896 55.45C38.2596 56.18 34.8496 58.39 35.2596 61.8C35.5796 64.54 38.1296 66 38.7696 66.33C40.3396 67.15 43.0396 67.77 43.9496 66.65C44.3996 66.1 44.0296 65.65 42.9496 60.49C42.5889 59.1858 42.3874 57.8427 42.3496 56.49C42.4096 55.49 42.6096 54.88 42.2496 54.58C41.6096 54 39.6696 55.27 39.3896 55.45Z" fill="white"/>
<path d="M39.4101 55.48C38.1888 56.2312 37.1612 57.2588 36.4101 58.48C35.6791 59.6548 35.4385 61.0696 35.7401 62.42C36.1064 63.7912 36.9596 64.9821 38.1401 65.77C39.3207 66.5738 40.7119 67.012 42.1401 67.03C42.4529 67.058 42.7678 67.0088 43.0573 66.8868C43.3467 66.7648 43.6017 66.5736 43.8001 66.33C43.8466 66.032 43.8226 65.7271 43.7301 65.44L43.4801 64.44C43.1301 63.03 42.7901 61.6 42.4801 60.17C42.3501 59.45 42.2101 58.73 42.1201 58C42.0624 57.6228 42.0356 57.2416 42.0401 56.86C42.0628 56.4835 42.1129 56.1092 42.1901 55.74C42.2401 55.39 42.3301 55.01 42.1901 54.8C42.0501 54.59 41.6701 54.57 41.3301 54.63C40.6461 54.8014 39.9967 55.0889 39.4101 55.48ZM39.4101 55.42C40.0305 55.0013 40.7028 54.6651 41.4101 54.42C41.6031 54.331 41.8176 54.2987 42.0283 54.3271C42.239 54.3554 42.4374 54.4431 42.6001 54.58C42.7964 54.9473 42.8667 55.3689 42.8001 55.78C42.8001 56.14 42.8001 56.51 42.8001 56.84C42.8001 57.17 42.9001 57.52 42.9601 57.84L43.3001 60L44.1701 64.28C44.2401 64.63 44.3201 64.99 44.3801 65.36C44.4867 65.7759 44.4693 66.2139 44.3301 66.62C44.2224 66.8069 44.0784 66.9704 43.9067 67.1009C43.735 67.2314 43.5389 67.3263 43.3301 67.38C42.9524 67.482 42.5596 67.5159 42.1701 67.48C40.6824 67.324 39.2532 66.8167 38.0001 66C36.676 65.2363 35.6607 64.0335 35.1301 62.6C34.9084 61.8558 34.8718 61.0687 35.0234 60.3072C35.1751 59.5456 35.5103 58.8326 36.0001 58.23C36.9561 57.1092 38.0956 56.159 39.3701 55.42H39.4101Z" fill="#231F20"/>
<path d="M32.9102 47.13C32.5102 47.35 32.9802 49.13 34.0302 50.3C34.4702 50.8 35.2402 51.47 35.5402 51.3C35.8402 51.13 35.5402 50.2 35.3602 49.7C34.7502 48.2 33.3202 46.9 32.9102 47.13Z" fill="#380000" stroke="#231F20" stroke-width="0.75" stroke-miterlimit="10"/>
<path d="M59.7098 57.88C59.2798 61.88 57.8298 63.62 56.7098 64.44C56.4298 64.65 56.1798 64.79 53.7098 66.16L50.0498 68.16C50.2055 67.2115 50.4533 66.2804 50.7898 65.38C51.1937 63.9483 51.9621 62.6459 53.0198 61.6C54.0198 60.74 54.5898 60.91 56.4198 60C57.6017 59.4353 58.7072 58.7229 59.7098 57.88Z" fill="#3E9581"/>
<path d="M59.7296 57.85C59.7683 59.1397 59.5648 60.4253 59.1296 61.64C58.7136 62.8951 57.9078 63.9846 56.8296 64.75C55.6996 65.33 54.5496 65.88 53.4396 66.47C52.3296 67.06 51.2596 67.7 50.1896 68.36L49.8496 68.57V68.15C49.9864 66.8827 50.2995 65.6407 50.7796 64.46C51.1882 63.1812 51.9595 62.0487 52.9996 61.2C53.539 60.8029 54.1503 60.5143 54.7996 60.35C55.3849 60.1718 55.9564 59.9512 56.5096 59.69C57.6323 59.1674 58.7094 58.5519 59.7296 57.85ZM59.7296 57.92C58.8563 58.8391 57.8439 59.6152 56.7296 60.22C56.1689 60.514 55.5912 60.7744 54.9996 61C54.4401 61.1691 53.9152 61.4367 53.4496 61.79C52.5466 62.5703 51.8582 63.5686 51.4496 64.69C50.9481 65.8129 50.5563 66.9817 50.2796 68.18L49.9996 68C51.1296 67.45 52.2496 66.88 53.3296 66.26C54.4096 65.64 55.4196 64.9 56.4696 64.26C57.4141 63.5161 58.1512 62.5414 58.6096 61.43C59.0646 60.2913 59.4258 59.1174 59.6896 57.92H59.7296Z" fill="#231F20"/>
<path d="M59.7098 57.88C58.2098 59.72 56.5432 61.6 54.7098 63.52C53.1565 65.1733 51.6165 66.7267 50.0898 68.18C51.0898 67.66 52.4398 66.92 54.0898 65.98C55.268 65.3921 56.3809 64.6815 57.4098 63.86C58.1998 63.1 59.5198 61.42 59.7098 57.88Z" fill="#1E6F5D"/>
<path d="M59.7 57.92C58.05 59.92 56.79 61.76 55.27 63.41C54.48 64.22 53.53 64.98 52.68 65.78C51.83 66.58 51 67.43 50.22 68.31L50 68C51.06 67.33 52.12 66.67 53.21 66C54.3 65.33 55.36 64.71 56.4 64C57.3955 63.3471 58.1805 62.4197 58.66 61.33C59.1371 60.2373 59.4861 59.093 59.7 57.92ZM59.7 57.85C59.7974 59.1449 59.6237 60.4459 59.19 61.67C58.7581 62.9362 57.9263 64.0277 56.82 64.78C55.75 65.48 54.64 66.07 53.53 66.66C52.42 67.25 51.28 67.79 50.15 68.34L49 68.91L50 68.05C50.8733 67.27 51.7133 66.45 52.52 65.59C53.32 64.72 54.08 63.87 54.87 62.94C56.43 61.06 58.27 59.35 59.73 57.85H59.7Z" fill="#231F20"/>
<path d="M39.1699 70.82C40.8899 74.48 42.8299 75.63 44.1199 76.05C44.4599 76.15 44.7399 76.21 47.5099 76.69L51.6299 77.4C51.1718 76.5453 50.6255 75.741 49.9999 75C49.149 73.7847 47.9985 72.8098 46.6599 72.17C45.4299 71.69 44.9499 72.03 42.9199 71.77C41.6355 71.6093 40.3759 71.2902 39.1699 70.82Z" fill="#3E9581"/>
<path d="M39.1896 70.85C39.8418 71.9046 40.5739 72.9075 41.3797 73.85C42.1718 74.7624 43.1888 75.4519 44.3297 75.85C45.5297 76.13 46.7196 76.47 47.9496 76.72C49.1796 76.97 50.4196 77.13 51.6696 77.28L51.4496 77.58C50.7946 76.5344 50.0376 75.5563 49.1896 74.66C48.4452 73.7365 47.4783 73.0173 46.3797 72.57C45.8237 72.3947 45.2424 72.3136 44.6596 72.33C44.0191 72.3084 43.3808 72.2416 42.7496 72.13C41.5022 71.8964 40.3003 71.4642 39.1896 70.85ZM39.1896 70.85C40.399 71.1751 41.6332 71.3992 42.8797 71.52C43.4877 71.5799 44.099 71.5999 44.7096 71.58C45.3836 71.5157 46.0637 71.5871 46.7096 71.79C47.9443 72.2746 49.0159 73.0999 49.7996 74.17C50.637 75.1285 51.3371 76.1987 51.8797 77.35L52.0597 77.74L51.6696 77.65C50.4396 77.38 49.2196 77.12 47.9796 76.93C46.7396 76.74 45.4696 76.6 44.2096 76.41C42.9234 76.0402 41.795 75.2564 40.9996 74.18C40.1725 73.1804 39.5414 72.0337 39.1396 70.8L39.1896 70.85Z" fill="#231F20"/>
<path d="M39.1699 70.82C41.1699 72.06 43.3699 73.3 45.6999 74.52C47.6999 75.59 49.6999 76.52 51.6299 77.4C50.5399 77.23 48.9999 76.97 47.1399 76.62C45.8365 76.461 44.5551 76.1558 43.3199 75.71C42.3099 75.26 40.4999 74.1 39.1699 70.82Z" fill="#1E6F5D"/>
<path d="M39.1396 70.8C41.0096 71.73 43.3096 72.8 45.4296 74.01C46.4296 74.62 47.4296 75.17 48.5196 75.74C49.6096 76.31 50.6196 76.74 51.7096 77.23L52.8896 77.73L51.5996 77.58C50.3596 77.43 49.0996 77.29 47.8596 77.1C46.6196 76.91 45.3797 76.71 44.1297 76.4C42.8369 76.0539 41.6924 75.2955 40.8696 74.24C40.0596 73.2264 39.4703 72.0547 39.1396 70.8ZM39.1396 70.8C39.7266 71.8819 40.4418 72.8891 41.2696 73.8C42.0713 74.6773 43.1154 75.2969 44.2696 75.58C45.4696 75.87 46.6996 76.15 47.9196 76.38C49.1396 76.61 50.3796 76.9 51.5996 77.18L51.4996 77.53C50.4996 76.95 49.4096 76.43 48.3396 75.94C47.2696 75.45 46.1296 75.06 45.1096 74.55C43.1996 73.53 41.4196 72.23 39.1896 70.85L39.1396 70.8Z" fill="#231F20"/>
<path d="M37.8799 55.8C38.1231 54.4588 38.6932 53.1983 39.5399 52.13C39.9799 51.61 40.5399 51.13 40.9499 50.67C41.3599 50.21 41.8099 49.67 42.2299 49.12C42.6301 48.5682 43.0895 48.0619 43.5999 47.61C44.0959 47.1458 44.6275 46.7212 45.1899 46.34C46.3488 45.5941 47.6435 45.0844 48.9999 44.84C49.0085 44.8335 49.0191 44.83 49.0299 44.83C49.0407 44.83 49.0512 44.8335 49.0599 44.84C47.9699 45.65 46.8899 46.38 45.8499 47.14C44.8099 47.9 43.7399 48.63 42.6799 49.41C42.1448 49.8018 41.6668 50.2663 41.2599 50.79C40.8858 51.3387 40.5516 51.9135 40.2599 52.51C39.5895 53.6741 38.8341 54.7872 37.9999 55.84C37.9889 55.8499 37.9746 55.8553 37.9599 55.8553C37.9451 55.8553 37.9309 55.8499 37.9199 55.84L37.8799 55.8Z" fill="#231F20"/>
<path d="M37.9203 56.53C38.3695 57.1758 38.6794 57.908 38.8303 58.68C38.8566 59.0705 38.9135 59.4584 39.0003 59.84C39.1153 60.2066 39.3023 60.5466 39.5503 60.84C40.0279 61.4383 40.4719 62.0626 40.8803 62.71C41.3028 63.3711 41.6388 64.0836 41.8803 64.83V64.89C41.1503 64.5003 40.5099 63.9621 40.0003 63.31C39.5275 62.6411 39.188 61.8874 39.0003 61.09C38.9339 60.7149 38.8231 60.349 38.6703 60C38.5003 59.65 38.2103 59.33 38.0403 59C37.7122 58.2512 37.635 57.4163 37.8203 56.62C37.8305 56.6127 37.8427 56.6088 37.8553 56.6088C37.8679 56.6088 37.8801 56.6127 37.8903 56.62L37.9203 56.53Z" fill="#231F20"/>
</svg>
