<svg width="115" height="156" viewBox="0 0 115 156" fill="none" xmlns="http://www.w3.org/2000/svg">
<path d="M96.7609 37C87.3509 45.23 75.3209 58.83 72.5509 78.35C72.1736 81.2959 71.9599 84.2605 71.9109 87.23C71.4509 99.47 71.0209 117.11 71.2709 139.79" stroke="#1E6F5D" stroke-width="4" stroke-miterlimit="10" stroke-linecap="round"/>
<path d="M44.5098 50.32C54.3298 58.55 66.8898 72.15 69.7898 91.67C70.1812 94.6114 70.4015 97.573 70.4498 100.54C70.9398 112.78 71.3798 130.43 71.1198 153.1" stroke="#1E6F5D" stroke-width="4" stroke-miterlimit="10" stroke-linecap="round"/>
<path d="M69.3805 0.309996C67.1605 -1.35 57.5105 5.17 51.7205 14.55C41.5005 31.11 44.4605 54.74 50.8205 56.55C53.4805 57.3 56.4905 54.16 57.3105 53.3C63.0205 47.3 59.9605 39.36 61.0905 27.71C62.7405 10.74 71.7305 2.07 69.3805 0.309996Z" fill="white"/>
<path d="M69.3497 0.349997C69.048 0.207345 68.7204 0.127575 68.3869 0.115541C68.0534 0.103507 67.7209 0.159461 67.4097 0.279997C66.7557 0.477531 66.1227 0.738783 65.5197 1.06C64.3098 1.6994 63.1616 2.44926 62.0897 3.3C59.9575 5.0036 57.9981 6.91279 56.2397 9C52.7121 13.1572 49.9769 17.9261 48.1697 23.07C46.3038 28.204 45.2904 33.6087 45.1697 39.07C45.1072 41.8092 45.3318 44.5475 45.8397 47.24C46.1118 48.6039 46.4999 49.9421 46.9997 51.24C47.4455 52.5084 48.0866 53.6994 48.8997 54.77C49.2962 55.2649 49.7811 55.6819 50.3297 56C50.8913 56.2729 51.524 56.3638 52.1397 56.26C53.413 55.9508 54.5844 55.3169 55.5397 54.42C57.6164 52.7293 59.1071 50.4268 59.7997 47.84C60.3595 45.2126 60.558 42.5211 60.3897 39.84C60.3097 37.11 60.2397 34.35 60.3897 31.58C60.5256 26.0306 61.5833 20.5424 63.5197 15.34C64.4932 12.7624 65.6185 10.2446 66.8897 7.8C67.5297 6.58 68.1497 5.36 68.7497 4.13C69.0596 3.51919 69.3269 2.88768 69.5497 2.24C69.6654 1.91791 69.736 1.5814 69.7597 1.24C69.7735 1.06893 69.743 0.897207 69.6712 0.741336C69.5994 0.585465 69.4887 0.450696 69.3497 0.349997ZM69.4097 0.269997C69.5591 0.386648 69.6755 0.540236 69.7474 0.715602C69.8193 0.890969 69.8442 1.08205 69.8197 1.27C69.8096 1.61128 69.7455 1.9488 69.6297 2.27C69.4173 2.92687 69.16 3.56838 68.8597 4.19C68.2897 5.44 67.6497 6.66 67.0897 7.91C65.9359 10.3936 64.9341 12.9449 64.0897 15.55C62.4384 20.7297 61.5228 26.1156 61.3697 31.55C61.2697 34.28 61.3697 37.01 61.4297 39.76C61.5729 42.5532 61.3307 45.3529 60.7097 48.08C59.9433 50.8289 58.3087 53.2563 56.0497 55C54.9834 56.0037 53.6621 56.6955 52.2297 57C51.4791 57.0986 50.7164 56.9586 50.0497 56.6C49.4245 56.2292 48.8776 55.7401 48.4397 55.16C47.6162 54.0209 46.9783 52.7586 46.5497 51.42C46.1225 50.1119 45.7883 48.7752 45.5497 47.42C45.0839 44.7017 44.8564 41.9479 44.8697 39.19C44.8604 33.6549 45.714 28.1522 47.3997 22.88C49.124 17.5706 51.9797 12.6986 55.7697 8.6C57.6398 6.56751 59.7065 4.72519 61.9397 3.1C63.0488 2.28174 64.2188 1.5496 65.4397 0.909997C66.0597 0.601017 66.7055 0.34672 67.3697 0.149997C67.7001 0.0305997 68.0513 -0.0203333 68.402 0.000296268C68.7527 0.0209259 69.0956 0.112687 69.4097 0.269997Z" fill="#231F20"/>
<path d="M49.9199 56.55C49.9999 51.45 36.3499 47.78 21.9999 43.93C11.9999 41.25 7.99992 41.3 4.99992 43.57C0.92992 46.77 0.39992 53.27 0.34992 54C0.250144 54.5624 0.262385 55.1391 0.385939 55.6968C0.509493 56.2545 0.74193 56.7823 1.06992 57.25C2.19992 58.59 4.27992 58.51 5.39992 58.51C8.99992 58.51 12.4599 60.02 16.0299 60.51C26.7299 61.92 27.5599 64.93 33.8799 64.84C41.1699 64.73 49.8199 60.56 49.9199 56.55Z" fill="white"/>
<path d="M49.8703 56.55C49.8143 55.955 49.6308 55.3791 49.3323 54.8614C49.0338 54.3437 48.6272 53.8964 48.1403 53.55C47.2011 52.7574 46.1664 52.0855 45.0603 51.55C42.8484 50.5356 40.5657 49.6834 38.2303 49C33.5603 47.56 28.8303 46.3 24.1203 45C21.7603 44.33 19.4203 43.64 17.0503 43.08C14.6948 42.4561 12.267 42.1467 9.83028 42.16C8.62398 42.1823 7.4368 42.4655 6.35028 42.99C5.29009 43.5628 4.36312 44.3534 3.63028 45.31C2.21574 47.2524 1.28654 49.5052 0.920283 51.88C0.688758 53.0516 0.61477 54.2488 0.700283 55.44C0.742954 55.9852 0.948987 56.5049 1.29149 56.9313C1.634 57.3576 2.09707 57.6708 2.62028 57.83C3.777 58.0949 4.96626 58.1893 6.15028 58.11C7.40015 58.1833 8.64139 58.3639 9.86028 58.65C12.2073 59.2911 14.5919 59.7854 17.0003 60.13C19.4623 60.4592 21.8869 61.0251 24.2403 61.82C26.6003 62.6 28.7903 63.74 31.1103 64.16C32.2835 64.3788 33.4791 64.4526 34.6703 64.38C35.8777 64.3385 37.0808 64.2115 38.2703 64C40.6635 63.5783 42.9817 62.8067 45.1503 61.71C46.2469 61.1718 47.2579 60.4742 48.1503 59.64C49.0906 58.8619 49.7044 57.7591 49.8703 56.55ZM49.9703 56.55C49.8235 57.7967 49.213 58.9426 48.2603 59.76C47.356 60.61 46.348 61.3424 45.2603 61.94C43.1037 63.163 40.7836 64.0722 38.3703 64.64C37.1624 64.936 35.9311 65.1267 34.6903 65.21C33.4602 65.3176 32.2218 65.2807 31.0003 65.1C28.4503 64.72 26.2503 63.51 24.0003 62.8C21.6992 62.0489 19.3369 61.5001 16.9403 61.16C15.7127 60.9963 14.4944 60.7693 13.2903 60.48L9.73028 59.57C8.54077 59.2836 7.33023 59.093 6.11028 59C4.84683 59.0511 3.58285 58.9129 2.36028 58.59C1.70205 58.365 1.12468 57.9511 0.700283 57.4C0.29641 56.8508 0.0539684 56.1996 0.000282642 55.52C-0.0613892 54.263 0.0564632 53.0037 0.350283 51.78C0.819805 49.3268 1.84616 47.0141 3.35028 45.02C4.13014 44.0388 5.10369 43.2286 6.21028 42.64C7.3391 42.1053 8.56263 41.7994 9.81028 41.74C11.0459 41.683 12.2842 41.7365 13.5103 41.9C14.7403 42.03 15.9503 42.24 17.1603 42.47C19.5803 42.94 21.9603 43.53 24.3403 44.13C29.0803 45.37 33.8203 46.66 38.4303 48.36C40.7487 49.1984 43.0044 50.201 45.1803 51.36C46.269 51.9205 47.2976 52.5906 48.2503 53.36C48.756 53.7329 49.1744 54.2114 49.4766 54.7623C49.7788 55.3131 49.9575 55.9231 50.0003 56.55H49.9703Z" fill="#231F20"/>
<path d="M83.1901 46.92C83.6801 41.92 91.6001 34.3 91.6001 34.3C91.6001 34.3 101.37 24.84 110.6 21.68C110.839 21.5662 111.1 21.5072 111.365 21.5072C111.63 21.5072 111.891 21.5662 112.13 21.68C113.32 22.55 111.91 26.32 111.42 27.63C108.75 34.75 92.3601 45.63 86.2801 49.63C85.843 49.7486 85.3844 49.7643 84.9402 49.6758C84.496 49.5873 84.0784 49.3971 83.7201 49.12C83.4748 48.8152 83.3001 48.4598 83.2085 48.0794C83.1168 47.699 83.1106 47.3031 83.1901 46.92Z" fill="#8DC63F"/>
<path d="M83.1504 46.91C83.4476 45.2543 84.0769 43.6759 85.0004 42.27C85.8501 40.8314 86.7955 39.4516 87.8304 38.14C88.8601 36.8203 89.9618 35.5584 91.1304 34.36C92.3063 33.1783 93.5412 32.0569 94.8304 31C97.4104 28.8904 100.141 26.9719 103 25.26C104.422 24.3892 105.887 23.5915 107.39 22.87C108.14 22.4978 108.907 22.164 109.69 21.87C110.09 21.72 110.46 21.55 110.88 21.43C111.098 21.3519 111.331 21.3239 111.561 21.3481C111.792 21.3723 112.014 21.4482 112.21 21.57C112.38 21.7301 112.514 21.9242 112.604 22.1396C112.693 22.355 112.736 22.5868 112.73 22.82C112.749 23.2483 112.722 23.6773 112.65 24.1C112.502 24.9312 112.291 25.7502 112.02 26.55C111.9 26.95 111.76 27.35 111.62 27.74L111.08 28.91C110.89 29.2865 110.677 29.6505 110.44 30C110.221 30.3638 109.981 30.7144 109.72 31.05C107.647 33.6749 105.301 36.0718 102.72 38.2C100.15 40.34 97.5004 42.38 94.7204 44.27C91.9404 46.16 89.1404 47.92 86.3104 49.66C85.8934 49.7618 85.46 49.7771 85.0369 49.7049C84.6138 49.6326 84.21 49.4744 83.8504 49.24C83.5177 48.9614 83.2916 48.5763 83.2104 48.15C83.1226 47.7428 83.1023 47.3238 83.1504 46.91ZM83.2204 46.91C83.1702 47.3204 83.1905 47.7364 83.2804 48.14C83.3678 48.534 83.5864 48.8866 83.9004 49.14C84.2479 49.3548 84.6367 49.4942 85.0415 49.5493C85.4463 49.6045 85.8581 49.574 86.2504 49.46C89.0104 47.6 91.6904 45.63 94.3704 43.67C97.0504 41.71 99.7004 39.67 102.23 37.56C104.788 35.4844 107.133 33.1597 109.23 30.62C110.266 29.351 111.063 27.9041 111.58 26.35C111.866 25.5816 112.093 24.7927 112.26 23.99C112.343 23.5953 112.387 23.1933 112.39 22.79C112.401 22.6077 112.374 22.4252 112.312 22.2534C112.25 22.0816 112.154 21.924 112.03 21.79C111.874 21.6924 111.697 21.6309 111.514 21.6102C111.331 21.5894 111.145 21.6099 110.97 21.67C110.576 21.7827 110.188 21.9197 109.81 22.08C109.02 22.35 108.27 22.7 107.51 23.08C106.015 23.7959 104.566 24.6042 103.17 25.5C100.399 27.3247 97.7499 29.329 95.2404 31.5C93.9804 32.58 92.7304 33.68 91.5304 34.8C90.3304 35.92 89.2304 37.18 88.1304 38.42C87.0412 39.6665 86.0389 40.9863 85.1304 42.37C84.1854 43.738 83.535 45.2874 83.2204 46.92V46.91Z" fill="#231F20"/>
<path d="M87.1111 45.29C87.8011 40.51 94.4211 33.47 94.4211 33.47C94.4211 33.47 102.601 24.79 109.931 22.2C110.211 22.1 110.781 21.92 111.121 22.28C111.981 23.18 110.641 26.77 110.181 28.01C107.671 34.78 94.2811 44.54 89.3211 48.01C88.9625 48.1102 88.5826 48.104 88.2275 47.9921C87.8724 47.8803 87.5575 47.6676 87.3211 47.38C87.0148 46.7277 86.9407 45.9902 87.1111 45.29Z" fill="#8DC63F"/>
<path d="M87.0706 45.28C87.3431 43.8437 87.8499 42.4619 88.5706 41.19C89.2527 39.8953 90.0176 38.6461 90.8606 37.45C92.513 35.0301 94.4502 32.8176 96.6306 30.86C98.7889 28.8919 101.096 27.0932 103.531 25.48C104.742 24.6614 105.997 23.9103 107.291 23.23C107.941 22.91 108.591 22.57 109.291 22.31C109.612 22.1555 109.946 22.0316 110.291 21.94C110.494 21.8857 110.708 21.8857 110.911 21.94C111.118 22.0272 111.283 22.1923 111.371 22.4C111.516 22.7649 111.571 23.1594 111.531 23.55C111.505 23.9223 111.458 24.2929 111.391 24.66C111.237 25.3793 111.047 26.0902 110.821 26.79C110.393 28.1993 109.777 29.5447 108.991 30.79C107.299 33.1914 105.355 35.4041 103.191 37.39C101.055 39.3833 98.819 41.2658 96.4906 43.03C94.1806 44.81 91.7506 46.42 89.3306 48.03C88.9611 48.0885 88.5835 48.0715 88.2206 47.98C87.8477 47.8884 87.5229 47.66 87.3106 47.34C86.9933 46.7022 86.9084 45.9737 87.0706 45.28ZM87.1406 45.28C86.9805 45.9844 87.0799 46.723 87.4206 47.36C87.6219 47.6439 87.9211 47.8434 88.2606 47.92C88.5899 47.994 88.9314 47.994 89.2606 47.92C91.6006 46.19 93.8606 44.36 96.1106 42.53C98.3606 40.7 100.591 38.85 102.691 36.85C104.834 34.9245 106.778 32.7869 108.491 30.47C109.298 29.2896 109.941 28.0044 110.401 26.65C110.645 25.971 110.856 25.2802 111.031 24.58C111.226 23.9309 111.254 23.2427 111.111 22.58C111.055 22.4411 110.949 22.3281 110.814 22.2633C110.678 22.1986 110.524 22.1867 110.381 22.23C110.037 22.3117 109.703 22.4255 109.381 22.57C108.701 22.82 108.051 23.14 107.381 23.45C106.096 24.1229 104.859 24.8848 103.681 25.73C101.345 27.4463 99.1298 29.3207 97.0506 31.34C96.0506 32.34 94.9406 33.34 93.9906 34.41C93.0406 35.48 92.0906 36.59 91.1906 37.72C89.4606 40 87.7006 42.43 87.1406 45.29V45.28Z" fill="#231F20"/>
<path d="M84.7702 48.46C86.3602 43.57 94.0302 38.65 100.29 32.7C102.29 30.79 106.94 26.12 112.58 24.36C113.14 24.19 113.89 23.98 114.18 24.36C115.18 25.55 109.44 32.62 103.82 37.76C95.9302 44.97 85.8202 50.62 84.8202 49.31C84.5902 49.05 84.7002 48.68 84.7702 48.46Z" fill="#8DC63F"/>
<path d="M84.7301 48.45C85.331 46.8855 86.2196 45.4473 87.3501 44.21C88.4432 42.9503 89.605 41.7518 90.8301 40.62C93.2601 38.33 95.8301 36.25 98.3401 34.06C99.6001 32.98 100.81 31.84 102.06 30.74C103.314 29.6375 104.626 28.6027 105.99 27.64C107.356 26.6729 108.801 25.8232 110.31 25.1C111.07 24.75 111.85 24.45 112.64 24.17C113.073 24.0028 113.54 23.9444 114 24C114.139 24.0305 114.265 24.1039 114.36 24.2097C114.455 24.3156 114.515 24.4486 114.53 24.59C114.547 24.8237 114.516 25.0585 114.44 25.28C113.799 26.8481 112.926 28.3111 111.85 29.62C110.85 30.95 109.76 32.23 108.64 33.47C106.403 35.9543 103.979 38.2643 101.39 40.38C98.8164 42.5149 96.0741 44.4378 93.1901 46.13C91.756 46.982 90.2772 47.7564 88.7601 48.45C88.0013 48.8026 87.2195 49.1033 86.4201 49.35C86.0136 49.4803 85.5858 49.5312 85.1601 49.5C85.0472 49.4906 84.9401 49.446 84.8539 49.3724C84.7678 49.2989 84.707 49.2001 84.6801 49.09C84.6446 48.8758 84.6618 48.6561 84.7301 48.45ZM84.8001 48.45C84.7276 48.6412 84.7036 48.8473 84.7301 49.05C84.7555 49.14 84.809 49.2195 84.8827 49.2771C84.9565 49.3346 85.0466 49.3672 85.1401 49.37C85.548 49.3896 85.9558 49.3285 86.3401 49.19C87.132 48.9264 87.8985 48.5917 88.6301 48.19C90.0962 47.416 91.5184 46.5613 92.8901 45.63C95.6434 43.7767 98.3101 41.8033 100.89 39.71C103.43 37.5896 105.841 35.3188 108.11 32.91C109.23 31.7 110.34 30.47 111.38 29.18C112.442 27.9732 113.325 26.6192 114 25.16C114.12 24.79 114.17 24.39 113.86 24.34C113.474 24.3059 113.086 24.3536 112.72 24.48L111.55 24.87C111.17 25.03 110.78 25.17 110.41 25.34C108.9 26.0257 107.466 26.8669 106.13 27.85C104.787 28.8226 103.517 29.8921 102.33 31.05C101.14 32.19 99.9801 33.4 98.7501 34.52C96.2901 36.78 93.6801 38.85 91.1301 40.97C89.853 42.0225 88.6377 43.1477 87.4901 44.34C86.3265 45.5231 85.4118 46.9275 84.8001 48.47V48.45Z" fill="#231F20"/>
<path d="M91.0508 38.84L107.591 24.41L91.0508 38.84Z" fill="#8DC63F"/>
<path d="M91.0002 38.82C92.2627 37.4965 93.5982 36.2446 95.0002 35.07C96.4615 33.969 97.8572 32.7837 99.1802 31.52C101.803 28.9657 104.589 26.584 107.52 24.39C104.951 26.9978 102.215 29.4362 99.3302 31.69C97.8926 32.8244 96.5267 34.0467 95.2402 35.35C93.8918 36.5847 92.4728 37.74 90.9902 38.81L91.0002 38.82Z" fill="#231F20"/>
<path d="M31.7103 15.45C27.5903 16.56 24.5303 20.36 23.4203 23.74C20.8603 31.55 27.8103 39.8 33.0003 45.91C35.8203 49.29 45.7203 61 51.0003 58.53C55.1303 56.53 54.3003 46.9 53.8803 42.13C53.4203 36.8 52.7303 28.85 47.3903 25.19C45.3903 23.81 43.3903 23.48 41.2603 20.86C39.4303 18.59 39.4103 16.93 37.4803 15.86C35.2303 14.51 32.5703 15.22 31.7103 15.45Z" fill="white"/>
<path d="M31.7298 15.5C29.4044 16.2049 27.363 17.63 25.8998 19.57C25.1626 20.5173 24.5509 21.5559 24.0798 22.66C23.846 23.2047 23.6651 23.7706 23.5398 24.35L23.3498 25.22C23.3498 25.51 23.2898 25.81 23.2698 26.1C23.1359 28.4756 23.5964 30.8472 24.6098 33C25.5824 35.1887 26.7752 37.2728 28.1698 39.22C29.5298 41.22 31.0298 43.1 32.5498 44.99C34.0698 46.88 35.6098 48.75 37.2698 50.51C38.8983 52.299 40.6709 53.9512 42.5698 55.45C43.5111 56.2008 44.5147 56.8699 45.5698 57.45C46.5936 58.0444 47.7257 58.4286 48.8998 58.58C49.4611 58.6354 50.0277 58.5671 50.5598 58.38C50.8181 58.2826 51.0607 58.1479 51.2798 57.98C51.5129 57.8285 51.719 57.6393 51.8898 57.42C52.6022 56.5075 53.0857 55.4377 53.2998 54.3C53.5569 53.1397 53.7042 51.9579 53.7398 50.77C53.7998 49.57 53.7398 48.37 53.7398 47.17C53.6498 44.77 53.3998 42.35 53.1598 39.95C52.9479 37.566 52.5195 35.2063 51.8798 32.9C51.2748 30.6241 50.129 28.5279 48.5398 26.79C47.7326 25.9429 46.7897 25.2365 45.7498 24.7C44.6412 24.147 43.5952 23.4765 42.6298 22.7C41.6934 21.8781 40.8935 20.9128 40.2598 19.84C39.7269 18.7578 39.1118 17.7181 38.4198 16.73C37.5993 15.856 36.492 15.3059 35.2998 15.18C34.1003 15.0559 32.8881 15.1646 31.7298 15.5ZM31.7298 15.41C32.8889 15.0434 34.1079 14.9042 35.3198 15C36.5655 15.1172 37.7335 15.6571 38.6298 16.53C39.3695 17.4969 40.0379 18.5162 40.6298 19.58C41.2843 20.5705 42.0948 21.4485 43.0298 22.18C44.0038 22.8879 45.0456 23.4976 46.1398 24C47.2766 24.5485 48.3168 25.278 49.2198 26.16C50.9612 27.9793 52.2164 30.2078 52.8698 32.64C53.5463 35.0076 53.9885 37.4359 54.1898 39.89C54.3998 42.31 54.6198 44.73 54.6798 47.18C54.8056 49.6462 54.6005 52.1182 54.0698 54.53C53.8006 55.7772 53.2269 56.9384 52.3998 57.91C52.1834 58.157 51.9305 58.3695 51.6498 58.54C51.377 58.7331 51.077 58.8847 50.7598 58.99C50.1397 59.1853 49.4846 59.2433 48.8398 59.16C47.6054 58.9548 46.4231 58.5098 45.3598 57.85C44.3143 57.221 43.3121 56.5228 42.3598 55.76C40.4852 54.201 38.7053 52.5313 37.0298 50.76C35.3498 49 33.7298 47.18 32.1298 45.36C30.5298 43.54 28.9498 41.68 27.4998 39.71C26.0266 37.739 24.7914 35.6008 23.8198 33.34C23.343 32.1928 22.9845 31 22.7498 29.78C22.5318 28.5519 22.4981 27.2981 22.6498 26.06C22.6998 25.75 22.7298 25.44 22.7898 25.13L23.0398 24.23C23.1966 23.6326 23.4144 23.0528 23.6898 22.5C24.2215 21.3917 24.8937 20.3566 25.6898 19.42C27.2372 17.5015 29.3343 16.1022 31.6998 15.41H31.7298Z" fill="#231F20"/>
<path d="M56.53 53.8C55.1811 50.7426 54.2527 47.5166 53.77 44.21C53.56 42.55 53.49 40.88 53.39 39.21C53.29 37.54 53.17 35.9 53.08 34.21C52.9281 30.8529 53.2207 27.4904 53.95 24.21C54.7234 20.9493 56.0275 17.8378 57.81 15C57.81 15 57.81 15 57.88 15V15.06C56.6543 18.1194 55.6908 21.2774 55 24.5C54.3001 27.7108 53.8455 30.9702 53.64 34.25C53.5349 35.8964 53.565 37.5486 53.73 39.19C53.929 40.8316 54.2195 42.4608 54.6 44.07C55.24 47.3 55.93 50.51 56.6 53.76V53.82C56.6 53.82 56.53 53.82 56.53 53.8Z" fill="#231F20"/>
<path d="M47.0004 53.3C53.7104 41.38 57.0604 35.42 62.5004 31.86C66.7834 28.9144 71.8074 27.2305 77.0004 27C79.7204 26.91 88.1804 26.63 91.7804 32.23C92.5104 33.36 93.9004 35.52 93.2204 37.63C91.6504 42.5 81.5604 39.46 70.8704 46.63L62.9404 52.94C58.2004 56.72 57.1804 58.31 54.1104 59.94C51.0404 61.57 45.4704 63.88 44.0004 62.13C43.0504 61.06 44.0004 58.76 47.0004 53.3Z" fill="white"/>
<path d="M46.9994 53.28L50.9994 46.13C52.3194 43.74 53.6694 41.36 55.1794 39.07C56.6554 36.7303 58.4682 34.621 60.5594 32.81C61.6265 31.9255 62.7711 31.139 63.9794 30.46C65.1763 29.7632 66.4191 29.1484 67.6994 28.62C70.2548 27.5967 72.9536 26.976 75.6994 26.78C78.4428 26.6011 81.1979 26.7691 83.8994 27.28C86.641 27.7592 89.161 29.0927 91.0994 31.09C91.9904 32.1585 92.7091 33.3597 93.2294 34.65C93.5163 35.3148 93.6327 36.0407 93.5681 36.7619C93.5035 37.4831 93.2599 38.1768 92.8594 38.78C91.8993 39.8559 90.6078 40.5808 89.1894 40.84C87.8494 41.21 86.4994 41.44 85.1894 41.71C82.5293 42.1787 79.9158 42.8815 77.3794 43.81C76.1254 44.2889 74.9029 44.8467 73.7194 45.48C73.1294 45.8 72.5494 46.15 71.9794 46.48L71.1394 47.03L70.3694 47.64L63.9994 52.75C61.8294 54.41 59.8494 56.21 57.7494 58C56.6893 58.905 55.5322 59.6898 54.2994 60.34C53.0601 60.9831 51.7769 61.5379 50.4594 62C49.1722 62.4965 47.8287 62.8324 46.4594 63C45.74 63.0864 45.0107 62.9758 44.3494 62.68C44.0092 62.4968 43.749 62.194 43.6194 61.83C43.5168 61.4795 43.4929 61.1108 43.5494 60.75C43.8509 59.3958 44.3389 58.09 44.9994 56.87C45.6394 55.65 46.3094 54.46 46.9994 53.28ZM47.0894 53.28C46.4294 54.47 45.7794 55.67 45.1794 56.89C44.5352 58.0784 44.0701 59.3556 43.7994 60.68C43.7266 60.9822 43.7558 61.3001 43.8824 61.584C44.009 61.8679 44.2259 62.1021 44.4994 62.25C45.1 62.4853 45.7538 62.5511 46.3894 62.44C47.7103 62.2249 48.9999 61.8488 50.2294 61.32C52.7367 60.3602 55.0605 58.9767 57.0994 57.23C59.0994 55.41 61.1794 53.57 63.3294 51.89L69.7294 46.79C70.0094 46.58 70.2294 46.39 70.5694 46.14L71.4394 45.59C72.0394 45.23 72.6394 44.88 73.2494 44.59C74.4637 43.9595 75.7161 43.405 76.9994 42.93C79.597 42.0125 82.2756 41.3428 84.9994 40.93C86.3494 40.69 87.6994 40.48 88.9994 40.18C90.2925 39.9943 91.488 39.386 92.3994 38.45C92.7664 37.9219 92.9953 37.3102 93.0652 36.6709C93.1351 36.0316 93.0437 35.3849 92.7994 34.79C92.3399 33.5257 91.663 32.3514 90.7994 31.32C88.946 29.3378 86.4811 28.0349 83.7994 27.62C78.4731 26.6457 72.9779 27.2613 67.9994 29.39C65.5285 30.448 63.2056 31.8229 61.0894 33.48C59.0289 35.2352 57.2068 37.2523 55.6694 39.48C52.5654 43.943 49.6981 48.566 47.0794 53.33L47.0894 53.28Z" fill="#231F20"/>
<path d="M52.08 63.58C51.64 65.64 42.36 62.75 31.35 67.18C28.29 68.42 20.35 71.61 15.85 79.26C11.79 86.18 12.43 93.56 9.72 93.86C8.08 94 6.57999 91.46 6.29999 91C1.99999 83.59 8.89999 72.51 9.53999 71.51C16.09 61.25 29.43 55.11 41.08 57.45C46.93 58.62 52.43 61.94 52.08 63.58Z" fill="white"/>
<path d="M52.1301 63.59C52.0722 63.7632 51.9679 63.9171 51.8286 64.0353C51.6894 64.1534 51.5204 64.2311 51.3401 64.26C51.0133 64.3519 50.6785 64.4122 50.3401 64.44C49.6501 64.51 48.9601 64.52 48.2601 64.54C46.8801 64.54 45.5001 64.54 44.1301 64.68C41.3827 64.8465 38.6591 65.2887 36.0001 66C33.3618 66.7676 30.798 67.7717 28.3401 69C25.8745 70.1715 23.5608 71.6389 21.4501 73.37C19.3352 75.0885 17.5204 77.1466 16.0801 79.46C14.6976 81.8128 13.6604 84.3521 13.0001 87L11.9501 91C11.7716 91.6942 11.5132 92.3653 11.1801 93C10.9933 93.3223 10.7371 93.599 10.4301 93.81C10.0886 94.0071 9.68738 94.0746 9.30012 94C8.58002 93.8339 7.93389 93.4371 7.46012 92.87C6.97814 92.3568 6.55239 91.7936 6.19012 91.19C5.46648 89.9601 4.98768 88.6018 4.78012 87.19C4.42925 84.3881 4.71991 81.5431 5.63012 78.87C6.48071 76.2029 7.64911 73.6479 9.11012 71.26C12.1671 66.533 16.4213 62.6998 21.4401 60.15C26.4105 57.4859 32.0357 56.2894 37.6601 56.7C41.8336 57.0749 45.8663 58.3986 49.4501 60.57C50.0449 60.9293 50.6041 61.3446 51.1201 61.81C51.4083 62.0149 51.6481 62.2804 51.8225 62.588C51.997 62.8955 52.102 63.2375 52.1301 63.59ZM52.0301 63.59C52.0301 62.92 51.5101 62.37 51.0301 61.93C50.5121 61.4787 49.953 61.077 49.3601 60.73C48.1786 60.0352 46.9328 59.4558 45.6401 59C44.3388 58.5182 43.0012 58.1403 41.6401 57.87C40.9792 57.7325 40.3117 57.629 39.6401 57.56C38.9774 57.467 38.3093 57.4169 37.6401 57.41C32.1724 57.2722 26.7616 58.5466 21.9301 61.11C17.0935 63.6371 12.9678 67.3366 9.93012 71.87C8.48147 74.1805 7.30371 76.6501 6.42012 79.23C5.47381 81.7841 5.1083 84.517 5.35012 87.23C5.51285 88.5516 5.92336 89.8306 6.56012 91C6.89118 91.5895 7.28334 92.1425 7.73012 92.65C8.15187 93.145 8.7186 93.4948 9.35012 93.65C9.66034 93.6842 9.97343 93.6194 10.2446 93.4649C10.5158 93.3105 10.7313 93.0742 10.8601 92.79C11.1908 92.1974 11.4461 91.5659 11.6201 90.91C12.0101 89.59 12.2801 88.24 12.6201 86.91C13.2847 84.1995 14.2928 81.5849 15.6201 79.13C17.0132 76.6956 18.8125 74.5175 20.9401 72.69C23.0573 70.8724 25.4123 69.3517 27.9401 68.17C30.4569 66.9656 33.0952 66.0336 35.8101 65.39C38.5234 64.7833 41.2904 64.4483 44.0701 64.39C45.4501 64.39 46.8301 64.39 48.2101 64.39C48.9001 64.39 49.5901 64.39 50.2801 64.33C50.6182 64.3125 50.9535 64.2589 51.2801 64.17C51.4421 64.1417 51.5939 64.0714 51.7202 63.9661C51.8466 63.8608 51.9431 63.7242 52.0001 63.57L52.0301 63.59Z" fill="#231F20"/>
<path d="M34.7803 41.54L46.6703 59.82L34.7803 41.54Z" fill="white"/>
<path d="M34.7803 41.54L46.6703 59.82" stroke="#231F20" stroke-miterlimit="10"/>
<path d="M29.3305 33.47C28.3305 34.02 29.5105 38.34 32.1005 41.28C33.1705 42.5 35.1005 44.15 35.8005 43.73C36.5005 43.31 35.8005 41.02 35.3505 39.79C33.8605 36.1 30.3405 32.91 29.3305 33.47Z" fill="#380000" stroke="#231F20" stroke-miterlimit="10"/>
<path d="M33.2803 50.32L45.0003 61.33L33.2803 50.32Z" fill="white"/>
<path d="M33.2803 50.32L45.0003 61.33" stroke="#231F20" stroke-miterlimit="10"/>
<path d="M26.0006 42.14C25.1206 42.85 27.0006 46.91 30.0506 49.36C31.3306 50.36 33.4806 51.68 34.1206 51.15C34.7606 50.62 33.7006 48.46 33.0006 47.34C30.9106 44 26.8906 41.42 26.0006 42.14Z" fill="#380000" stroke="#231F20" stroke-miterlimit="10"/>
<path d="M42.3008 44.59C44.7674 49.35 47.2241 54.11 49.6708 58.87L42.3008 44.59Z" fill="white"/>
<path d="M42.3008 44.59C44.7674 49.35 47.2241 54.11 49.6708 58.87" stroke="#231F20" stroke-miterlimit="10"/>
<path d="M50.4601 57.27C47.4601 58.58 38.2601 62.55 37.8401 70.97C37.5001 77.75 43.0901 82.33 44.5101 83.4C48.0001 86 54.2701 88.62 57.0001 86.29C58.3001 85.15 57.6101 83.83 57.1801 70.97C56.9201 63.3 57.1101 62.12 57.3601 61.05C57.9001 58.7 58.6401 57.25 57.9001 56.37C56.4301 54.68 51.2001 57 50.4601 57.27Z" fill="white"/>
<path d="M50.4804 57.31C47.1542 58.6189 44.1567 60.6434 41.7004 63.24C40.5295 64.5297 39.6133 66.0295 39.0004 67.66C38.4126 69.285 38.1874 71.0188 38.3404 72.74C38.7281 76.2613 40.3846 79.521 43.0004 81.91C44.2867 83.153 45.7532 84.1947 47.3504 85C48.9176 85.8358 50.604 86.426 52.3504 86.75C53.1981 86.9113 54.067 86.9282 54.9204 86.8C55.7273 86.7006 56.4686 86.305 57.0004 85.69C57.3062 84.9364 57.4063 84.115 57.2904 83.31C57.2504 82.43 57.2004 81.54 57.1404 80.64C56.9004 77.07 56.6904 73.48 56.6204 69.9C56.6204 68.1 56.5104 66.31 56.6204 64.5C56.6402 63.5865 56.7136 62.6749 56.8404 61.77C57.0187 60.8743 57.2593 59.9922 57.5604 59.13C57.9187 58.3734 58.0306 57.5235 57.8804 56.7C57.7877 56.5279 57.6581 56.3786 57.5007 56.2627C57.3433 56.1468 57.1622 56.0673 56.9704 56.03C56.5559 55.924 56.1274 55.8835 55.7004 55.91C53.8973 56.098 52.1355 56.5705 50.4804 57.31ZM50.4804 57.22C52.1134 56.4496 53.8473 55.9143 55.6304 55.63C56.0907 55.5553 56.56 55.5553 57.0204 55.63C57.2706 55.6713 57.509 55.7659 57.7195 55.9074C57.93 56.0488 58.1076 56.2339 58.2404 56.45C58.4594 56.9364 58.5087 57.4822 58.3804 58C58.3104 58.46 58.2104 58.91 58.1104 59.35C57.8846 60.1998 57.7043 61.061 57.5704 61.93C57.4899 62.8009 57.4599 63.6757 57.4804 64.55C57.4804 66.33 57.5404 68.12 57.6104 69.91L58.0004 80.59C58.0004 81.49 58.0904 82.38 58.0904 83.29C58.0985 83.7539 58.0818 84.2179 58.0404 84.68C58.0129 85.1992 57.8509 85.7023 57.5704 86.14C56.9186 86.8998 55.9971 87.3767 55.0004 87.47C54.0724 87.5653 53.135 87.4976 52.2304 87.27C50.4605 86.8468 48.7601 86.1733 47.1804 85.27C45.5907 84.4113 44.1129 83.36 42.7804 82.14C41.4503 80.9206 40.2899 79.5282 39.3304 78C38.3575 76.4302 37.7302 74.6712 37.4904 72.84C37.2742 70.9852 37.5074 69.1057 38.1704 67.36C38.8531 65.6423 39.9005 64.0933 41.2404 62.82C43.94 60.4081 47.0579 58.5102 50.4404 57.22H50.4804Z" fill="#231F20"/>
<path d="M38.1502 34.45C37.0802 34.83 37.5202 39.28 39.5702 42.61C40.4302 43.99 42.0302 45.93 42.8102 45.61C43.5902 45.29 43.3102 42.94 43.0302 41.61C42.1802 37.79 39.2402 34.06 38.1502 34.45Z" fill="#380000" stroke="#231F20" stroke-miterlimit="10"/>
<path d="M98.7312 71.47C96.0012 81.05 91.8212 84.62 88.8612 86.16C88.0712 86.56 87.4212 86.8 80.8612 89.1L71.2012 92.51C71.953 90.268 72.9349 88.1098 74.1312 86.07C76.0312 82.83 77.7812 79.8 81.0712 77.83C83.8612 76.15 85.1512 76.83 89.9812 75.34C93.0446 74.4113 95.9831 73.1116 98.7312 71.47Z" fill="#3E9581"/>
<path d="M98.7613 71.43C98.1533 74.5002 97.0524 77.4517 95.5013 80.17C93.9597 82.9559 91.6192 85.2164 88.7812 86.66C85.7812 87.8 82.8913 88.57 79.9713 89.66C77.0513 90.75 74.1713 91.72 71.2913 92.82L70.7812 93.01L70.9413 92.47C71.8601 89.4897 73.1645 86.6423 74.8213 84C75.5981 82.6394 76.495 81.3509 77.5013 80.15C78.5483 78.94 79.8009 77.9244 81.2012 77.15C82.6277 76.4273 84.1786 75.9827 85.7712 75.84C87.2731 75.6125 88.7569 75.2783 90.2113 74.84C93.1673 73.9897 96.0314 72.8474 98.7613 71.43ZM98.7012 71.51C96.1531 73.2474 93.3767 74.6237 90.4512 75.6C88.9757 76.0926 87.469 76.4868 85.9413 76.78C84.4681 76.9508 83.0382 77.3879 81.7213 78.07C79.1631 79.6374 77.06 81.8474 75.6213 84.48C74.8313 85.79 74.0113 87.08 73.3213 88.48C72.6142 89.8295 71.993 91.2223 71.4613 92.65L71.1113 92.3C74.0413 91.3 76.9713 90.4 79.8613 89.3C81.3113 88.78 82.7513 88.23 84.1813 87.67C85.6113 87.11 87.0812 86.56 88.4212 85.93C91.0762 84.4967 93.297 82.376 94.8512 79.79C96.4222 77.1731 97.7127 74.3977 98.7012 71.51Z" fill="#231F20"/>
<path d="M98.7312 71.47C94.3312 75.3 89.5612 79.21 84.4112 83.1C79.8812 86.54 75.4112 89.66 71.2012 92.51C73.7712 91.65 77.4112 90.4 81.7712 88.79C88.7712 86.2 89.9312 85.52 90.6712 85.02C92.9212 83.5 96.8312 80 98.7312 71.47Z" fill="#1E6F5D"/>
<path d="M98.7009 71.52C96.7609 73.52 94.5109 75.52 92.3409 77.35C90.1709 79.18 87.8909 81.05 85.5509 82.76C83.2109 84.47 80.7309 86 78.3709 87.63C76.0109 89.26 73.6409 90.96 71.3709 92.71L71.1609 92.28C74.0009 91.17 76.8809 90.06 79.7709 89C82.6609 87.94 85.5509 86.81 88.3609 85.62C89.0538 85.342 89.7227 85.0076 90.3609 84.62C90.9815 84.2125 91.5699 83.7578 92.1209 83.26C93.2233 82.248 94.1912 81.0986 95.0009 79.84C96.6278 77.259 97.8739 74.4568 98.7009 71.52ZM98.7009 71.43C98.2772 74.5418 97.2586 77.543 95.7009 80.27C94.1343 83.0675 91.7126 85.2895 88.7909 86.61C85.9209 87.85 83.0209 88.88 80.0909 89.87C77.1609 90.86 74.2209 91.8 71.2709 92.74L69.6309 93.26L71.0609 92.26C73.4609 90.65 75.8309 89 78.1509 87.26C80.4709 85.52 82.7609 83.86 85.0009 82.1L91.8209 76.76C94.1609 75 96.3409 73.2 98.7509 71.43H98.7009Z" fill="#231F20"/>
<path d="M43.6406 94.45C46.3206 104.03 50.5406 107.6 53.5106 109.13C54.2906 109.54 54.9406 109.78 61.5106 112.13L71.2106 115.54C70.45 113.3 69.465 111.142 68.2706 109.1C66.3706 105.86 64.6306 102.83 61.3306 100.85C58.5506 99.18 57.2506 99.85 52.4206 98.36C49.3439 97.4237 46.3949 96.1104 43.6406 94.45Z" fill="#3E9581"/>
<path d="M43.6694 94.49C44.6533 97.3715 45.9405 100.14 47.5094 102.75C49.0724 105.329 51.291 107.448 53.9394 108.89C55.2794 109.52 56.7594 110.06 58.1794 110.62C59.5994 111.18 61.0494 111.74 62.4994 112.26C65.3894 113.33 68.3194 114.26 71.2594 115.26L70.9094 115.6C70.3715 114.178 69.7504 112.789 69.0494 111.44C68.3594 110.09 67.5394 108.8 66.7394 107.44C65.3015 104.81 63.2024 102.601 60.6494 101.03C59.3313 100.351 57.9019 99.9138 56.4294 99.74C54.9013 99.4481 53.3946 99.0538 51.9194 98.56C48.9941 97.592 46.2176 96.2223 43.6694 94.49ZM43.6094 94.41C46.3366 95.8282 49.1971 96.9738 52.1494 97.83C53.6053 98.2626 55.0886 98.5967 56.5894 98.83C58.1811 98.9713 59.7316 99.4124 61.1594 100.13C62.5589 100.906 63.8113 101.921 64.8594 103.13C65.8666 104.337 66.7635 105.632 67.5394 107C69.1945 109.63 70.502 112.464 71.4294 115.43L71.5894 115.97L71.0694 115.77C68.1994 114.68 65.3094 113.59 62.3894 112.61C59.4694 111.63 56.5294 110.81 53.5894 109.67C50.7463 108.23 48.4016 105.969 46.8594 103.18C45.3036 100.454 44.2057 97.4914 43.6094 94.41Z" fill="#231F20"/>
<path d="M43.6406 94.45C48.0406 98.28 52.8106 102.18 57.9506 106.08C62.4806 109.51 66.9506 112.64 71.1706 115.49C68.5906 114.63 64.9506 113.38 60.5906 111.77C53.5906 109.18 52.4306 108.5 51.7006 108C49.4406 106.48 45.5406 103 43.6406 94.45Z" fill="#1E6F5D"/>
<path d="M43.6094 94.41C45.9994 96.18 48.1994 98 50.4994 99.74L57.3194 105.07C59.5994 106.843 61.896 108.59 64.2094 110.31C66.5227 112.03 68.886 113.697 71.2994 115.31L72.7294 116.31L71.0894 115.79C68.1494 114.85 65.1994 113.91 62.2694 112.92C59.3394 111.93 56.4394 110.92 53.5694 109.66C50.6461 108.337 48.2242 106.111 46.6594 103.31C45.0801 100.567 44.0445 97.5451 43.6094 94.41ZM43.6094 94.49C44.4295 97.4274 45.6654 100.232 47.2794 102.82C48.1021 104.08 49.0872 105.227 50.2094 106.23C50.7675 106.735 51.3661 107.193 51.9994 107.6C52.6353 107.992 53.3045 108.326 53.9994 108.6C56.7994 109.79 59.6794 110.93 62.5794 111.97C65.4794 113.01 68.3494 114.14 71.2294 115.24L71.0194 115.68C68.706 113.933 66.3727 112.24 64.0194 110.6C61.6494 108.94 59.1694 107.43 56.8294 105.73C54.4894 104.03 52.2694 102.17 50.0394 100.32C47.8094 98.47 45.6094 96.52 43.6594 94.49H43.6094Z" fill="#231F20"/>
<path d="M46.7 57.55C48.2615 54.652 50.2504 52.0057 52.6 49.7C53.8 48.57 55.1 47.56 56.36 46.51C57.62 45.46 58.86 44.41 60.16 43.41C62.7356 41.3543 65.5573 39.6277 68.56 38.27C71.5702 36.9393 74.7451 36.0178 78 35.53C78.0091 35.5247 78.0195 35.522 78.03 35.522C78.0405 35.522 78.0509 35.5247 78.06 35.53C78.0644 35.5376 78.0667 35.5462 78.0667 35.555C78.0667 35.5638 78.0644 35.5724 78.06 35.58C74.9988 36.6249 71.9947 37.8298 69.06 39.19C66.1198 40.5403 63.2705 42.0802 60.53 43.8C59.1533 44.6628 57.8491 45.636 56.63 46.71C55.4436 47.8213 54.3186 48.9964 53.26 50.23C51.08 52.62 48.95 55.04 46.85 57.55H46.78C46.78 57.55 46.69 57.57 46.7 57.55Z" fill="#231F20"/>
</svg>
