<svg width="67" height="112" viewBox="0 0 67 112" fill="none" xmlns="http://www.w3.org/2000/svg">
<path d="M0.669406 56.67C6.43941 45 27.5694 45.3 33.8394 45.38C42.0594 45.49 58.8994 45.71 64.6194 56.05C67.1194 60.56 65.6194 67.81 62.7794 82.31C60.5294 93.62 59.3194 99.31 55.5694 103.15C49.0594 109.74 39.7294 109.97 33.4694 110.15C27.0394 110.31 16.2194 110.58 9.46941 103.42C7.76941 101.63 6.38941 99.42 2.93941 80.33C-0.740594 60.09 -0.000594318 58 0.669406 56.67Z" fill="#8B5E3C"/>
<path d="M0.579716 56.63C1.63181 54.5786 3.14467 52.7988 4.99972 51.43C6.83351 50.0413 8.85323 48.917 10.9997 48.09C15.2532 46.4665 19.707 45.427 24.2397 45C28.7816 44.5504 33.3488 44.4101 37.9097 44.58C40.1996 44.6254 42.4858 44.7856 44.7597 45.06C47.0536 45.3146 49.324 45.7492 51.5497 46.36C53.8023 46.965 55.9694 47.852 57.9997 49C60.0821 50.0986 61.922 51.6052 63.4097 53.43C63.7938 53.8691 64.1291 54.3486 64.4097 54.86C64.7446 55.3466 65.0358 55.8619 65.2797 56.4C65.7503 57.4857 66.0408 58.6408 66.1397 59.82C66.3141 62.1124 66.2269 64.4173 65.8797 66.69C65.2797 71.2 64.3897 75.69 63.5597 80.11C62.7297 84.53 61.9997 89 60.9097 93.44C60.4052 95.702 59.654 97.9018 58.6697 100C58.1435 101.071 57.4959 102.077 56.7397 103C56.3581 103.453 55.9472 103.881 55.5097 104.28C55.0927 104.699 54.6484 105.09 54.1797 105.45C50.4318 108.313 45.9694 110.091 41.2797 110.59C39.0004 110.885 36.7073 111.062 34.4097 111.12C32.1397 111.19 29.8497 111.28 27.5397 111.2C22.831 111.192 18.1838 110.129 13.9397 108.09C11.814 106.969 9.9043 105.479 8.29972 103.69C7.51527 102.718 6.90309 101.619 6.48972 100.44C6.09742 99.3418 5.76362 98.2235 5.48972 97.09C4.89972 94.87 4.48972 92.63 4.02972 90.39C3.56972 88.15 3.23972 85.91 2.87972 83.67C2.18972 79.18 1.50972 74.67 0.949716 70.19C0.649716 67.91 0.359716 65.66 0.179716 63.4C0.0897162 62.27 -0.000283835 61.13 -0.000283835 60C-0.0803827 58.8464 0.118561 57.6904 0.579716 56.63ZM0.759716 56.72C0.328416 57.7565 0.150165 58.8809 0.239716 60C0.239716 61.13 0.339716 62.26 0.479716 63.38C0.739716 65.63 1.05972 67.87 1.47972 70.1C2.27972 74.55 3.18972 78.99 4.15972 83.42C5.12972 87.85 6.09972 92.26 7.30972 96.56C7.62972 97.63 7.95972 98.69 8.30972 99.69C8.6511 100.651 9.15883 101.545 9.80972 102.33C11.2617 103.9 12.9777 105.203 14.8797 106.18C18.8521 108.049 23.18 109.041 27.5697 109.09C29.7897 109.2 32.0397 109.16 34.2997 109.09C36.5597 109.02 38.7797 108.94 40.9897 108.67C45.3736 108.275 49.572 106.714 53.1497 104.15C53.5942 103.83 54.0152 103.48 54.4097 103.1C54.8336 102.76 55.2345 102.393 55.6097 102C56.3202 101.19 56.9405 100.304 57.4597 99.36C58.4798 97.3865 59.2812 95.3075 59.8497 93.16C61.0497 88.82 61.9897 84.37 62.8497 79.93C63.7097 75.49 64.6997 71.06 65.2197 66.57C65.5093 64.351 65.5395 62.1059 65.3097 59.88C65.1664 58.8006 64.8525 57.7508 64.3797 56.77C64.1348 56.2884 63.8469 55.8299 63.5197 55.4C63.2349 54.9345 62.8995 54.5018 62.5197 54.11C61.06 52.4693 59.2846 51.1395 57.2997 50.2C56.3287 49.7025 55.3267 49.2683 54.2997 48.9C53.2397 48.58 52.1897 48.23 51.1097 47.98C46.7486 46.9942 42.2997 46.4482 37.8297 46.35C33.3197 46.21 28.8297 46.02 24.3197 46.26C19.8183 46.4289 15.3607 47.2094 11.0697 48.58C8.92692 49.2917 6.90406 50.3234 5.06972 51.64C3.25571 52.9731 1.77955 54.713 0.759716 56.72Z" fill="#231F20"/>
<path d="M0.659376 55.72C0.839376 49.4 19.9994 43.79 35.9194 44.35C48.5494 44.8 65.2694 49.35 65.5394 55.27C65.8094 61.19 49.5994 68 35.2594 68.58C18.8294 69.26 0.489376 62 0.659376 55.72Z" fill="#A97C50"/>
<path d="M0.560547 55.72C0.601895 54.9358 0.873169 54.1811 1.34055 53.55C1.78377 52.9173 2.31207 52.3486 2.91055 51.86C4.09345 50.8863 5.38144 50.0478 6.75055 49.36C9.48755 47.9714 12.3504 46.8464 15.3005 46C21.1984 44.2471 27.3284 43.4008 33.4805 43.49C39.6044 43.7164 45.6799 44.6663 51.5805 46.32C54.5437 47.0622 57.4351 48.0662 60.2205 49.32C61.6343 49.9737 62.9557 50.8109 64.1505 51.81C64.7725 52.3485 65.2822 53.0044 65.6506 53.74C66.0601 54.5343 66.1837 55.4454 66.0005 56.32C65.5365 57.8982 64.5971 59.295 63.3105 60.32C62.1368 61.3607 60.8525 62.2695 59.4805 63.03C56.791 64.5591 53.9489 65.8025 51.0005 66.74C45.1276 68.7117 38.9755 69.7246 32.7805 69.74C26.6018 69.6634 20.4786 68.5618 14.6605 66.48C11.7604 65.4656 8.9724 64.1553 6.34055 62.57C5.02181 61.7856 3.79717 60.8529 2.69055 59.79C2.13455 59.255 1.65049 58.6499 1.25055 57.99C0.805076 57.3164 0.565323 56.5276 0.560547 55.72ZM0.760547 55.72C0.773274 56.4645 0.998824 57.1897 1.41055 57.81C1.8001 58.4476 2.282 59.0238 2.84055 59.52C3.96812 60.5088 5.22251 61.3428 6.57055 62C9.25522 63.364 12.0824 64.4271 15.0005 65.17C20.7971 66.69 26.7584 67.4926 32.7505 67.56C38.7233 67.5628 44.665 66.7005 50.3905 65C53.2514 64.1663 56.0297 63.0717 58.6905 61.73C59.9962 61.0558 61.2409 60.2695 62.4105 59.38C63.5538 58.5706 64.4253 57.4341 64.9106 56.12C65.0284 55.4556 64.9652 54.7716 64.7277 54.14C64.4902 53.5083 64.087 52.9522 63.5605 52.53C62.4817 51.508 61.2545 50.6551 59.9205 50C57.2105 48.6802 54.3587 47.6737 51.4205 47C48.484 46.2917 45.4992 45.8004 42.4905 45.53C39.5009 45.2242 36.4943 45.1173 33.4905 45.21C27.4854 45.3771 21.5062 46.0663 15.6205 47.27C12.67 47.8379 9.78274 48.6954 7.00055 49.83C5.60708 50.4007 4.2956 51.1539 3.10055 52.07C2.50525 52.525 1.98261 53.0679 1.55055 53.68C1.09397 54.2685 0.819376 54.9776 0.760547 55.72Z" fill="#231F20"/>
<path d="M7.75885 55.52C7.88885 51 22.5089 47 34.6489 47.45C44.2789 47.77 56.9989 51 57.2389 55.23C57.4789 59.46 45.0889 64.28 34.1489 64.69C21.6189 65.17 7.61885 60 7.75885 55.52Z" fill="#231F20" stroke="#231F20" stroke-width="3" stroke-miterlimit="10"/>
<path d="M31.8995 50.21C31.8995 50.46 31.8995 50.7 31.8995 50.95C31.8995 51.47 31.8995 51.99 31.8995 52.51C31.8995 57.05 31.7095 61.33 31.4395 65.28C30.7195 65.28 30.0095 65.19 29.2995 65.11C28.0973 64.9899 26.9023 64.8063 25.7195 64.56C25.2328 62.1 24.7828 59.4833 24.3695 56.71C24.2195 55.71 24.0695 54.65 23.9295 53.58L23.6895 51.58C23.6895 51.46 23.6895 51.33 23.6895 51.21C22.5886 41.584 22.341 31.8796 22.9495 22.21C23.0595 20.52 23.1895 18.88 23.3495 17.27C23.8595 11.85 24.5995 6.80999 25.4795 2.26999C27.6624 10.4422 29.2993 18.7505 30.3795 27.14C30.5695 28.58 30.7295 29.99 30.8695 31.4C31.5395 38.06 31.8495 44.35 31.8995 50.21Z" fill="#3A7867"/>
<path d="M31.9994 50.21C31.9994 51.47 31.9994 52.72 31.9994 53.98L31.8994 57.75L31.7994 65.3V65.58H31.5094L29.9994 65.48C29.5133 65.4681 29.0287 65.4213 28.5494 65.34C27.5894 65.22 26.6294 65.09 25.6694 64.95H25.4094L25.3594 64.68C24.6494 60.78 23.8894 56.88 23.4594 52.94C23.0294 49 22.7594 45.04 22.6094 41.09C22.4594 37.14 22.4294 33.17 22.4794 29.21C22.4794 27.21 22.5794 25.21 22.6594 23.28C22.7394 21.35 22.9194 19.28 23.0294 17.35C23.4138 12.265 24.0714 7.20437 24.9994 2.19L25.3694 0.190002L25.9294 2.19C27.2394 6.96 28.3694 11.79 29.2494 16.67C29.6894 19.11 30.086 21.5567 30.4394 24.01C30.7694 26.46 31.0094 28.93 31.2494 31.4C31.5094 34.54 31.6927 37.6767 31.7994 40.81C31.8494 43.93 31.9994 47.07 31.9994 50.21ZM31.8994 50.21C31.8294 47.07 31.7494 43.94 31.4794 40.81C31.2094 37.68 30.9094 34.57 30.4794 31.47C30.1494 29.02 29.8594 26.57 29.4794 24.14C29.0994 21.71 28.7194 19.27 28.2594 16.85C27.2694 12 26.2194 7.17 24.9994 2.4H25.9194C24.9194 7.4 24.1994 12.4 23.6394 17.4C23.2494 21.32 22.8694 25.26 22.8094 29.21C22.7494 33.16 22.8094 37.11 23.0394 41.05C23.2694 44.99 23.7394 48.92 24.2794 52.83C24.5394 54.83 24.8094 56.73 25.1794 58.67L26.1294 64.51L25.8194 64.21C26.7594 64.36 27.6994 64.51 28.6294 64.69C29.0982 64.7834 29.5725 64.8469 30.0494 64.88L31.4694 65.03L31.1694 65.29L31.6094 57.77L31.7694 54C31.8394 52.72 31.8394 51.46 31.8494 50.21H31.8994Z" fill="#231F20"/>
<path d="M45.4492 68.34L44.4492 68.52" stroke="#231F20" stroke-miterlimit="10"/>
<path d="M49.0005 51.17V51.61C49.0005 52.42 49.0005 53.26 49.0005 54.12C49.0705 56.46 49.2505 58.99 49.5905 61.68C48.5809 62.1886 47.5386 62.6296 46.4705 63C45.8838 63.2 45.2738 63.39 44.6405 63.57C44.5597 63.5993 44.4758 63.6195 44.3905 63.63L44.0005 63.74C43.8605 63.32 43.7105 62.87 43.5605 62.39C42.9156 60.2959 42.4111 58.1612 42.0505 56C41.8805 55 41.7405 53.95 41.6305 52.87C41.6305 52.72 41.6305 52.59 41.6305 52.44C41.5705 51.84 41.5305 51.23 41.5005 50.61C41.5005 50.5 41.5005 50.39 41.5005 50.28C41.5005 50.18 41.5005 50.07 41.5005 49.97C41.4429 48.0434 41.5231 46.1151 41.7405 44.2C42.0704 41.2584 42.7657 38.3695 43.8105 35.6C44.1505 34.6806 44.5376 33.7794 44.9705 32.9C45.3505 32.1 45.7705 31.31 46.2405 30.52V30.44L46.2905 30.37C49.7557 24.5204 54.7658 19.7388 60.7705 16.55C57.9667 19.3114 55.6056 22.4888 53.7705 25.97C50.4105 32.41 49.8505 38.08 49.2905 44.25C49.1405 46.24 49.0005 48.56 49.0005 51.17Z" fill="#3A7867"/>
<path d="M48.9997 51.17C48.9997 52.93 49.0797 54.68 49.1997 56.43C49.3197 58.18 49.5597 59.92 49.8197 61.65V61.82L49.6697 61.89L46.9997 63.12C46.5397 63.35 46.0497 63.47 45.5797 63.65L44.8597 63.89L44.1297 64.1L43.7797 64.2L43.6597 63.86L43.2097 62.51V62.45V62.38V62.5C42.883 61.4467 42.583 60.3867 42.3097 59.32C42.0397 58.24 41.8397 57.16 41.6597 56.07L41.2597 52.91L41.1797 51.59V50.3C41.1797 49.07 41.1797 47.79 41.2797 46.54C41.3797 45.29 41.5297 44.04 41.7397 42.8C42.1505 40.3198 42.8002 37.8851 43.6797 35.53V35.64V35.57L44.8297 32.84V32.92V32.87L45.9997 30.28L46.0697 30.15V30.27V30.22V30.15C47.7573 27.2019 49.8549 24.5084 52.2997 22.15C54.7714 19.7929 57.5457 17.7752 60.5497 16.15L63.4797 14.56L61.1097 16.9C58.94 19.109 57.0247 21.5543 55.3997 24.19C53.792 26.8392 52.5189 29.6775 51.6097 32.64C50.7355 35.6356 50.1167 38.6999 49.7597 41.8L49.4797 44.13C49.3997 44.91 49.3597 45.69 49.3097 46.47L48.9997 51.17ZM48.8997 51.17L49.0697 46.46L49.1497 44.1L49.2997 41.75C49.4659 38.5917 49.9381 35.4571 50.7097 32.39C51.543 29.3165 52.809 26.3771 54.4697 23.66C56.105 20.9256 58.0919 18.4175 60.3797 16.2L60.9997 17C58.0406 18.5546 55.2918 20.4802 52.8197 22.73C51.5803 23.851 50.4208 25.0573 49.3497 26.34C48.276 27.6335 47.2936 29.0001 46.4097 30.43V30.31V30.39L45.1197 32.73V32.66L43.9497 35.35H43.8997C43.0134 37.6753 42.3961 40.0944 42.0597 42.56C41.8948 43.7906 41.7946 45.0289 41.7597 46.27C41.7597 47.52 41.7597 48.74 41.8097 50L41.9197 51.29L41.9997 52.76L42.4297 55.87C42.6097 56.94 42.8497 58 43.0897 59.06C43.3297 60.12 43.5997 61.17 43.8997 62.22V62.28V62.16L44.3197 63.51L43.8597 63.26L44.5697 63.08L45.2897 62.87C45.7719 62.7537 46.2462 62.6067 46.7097 62.43L49.4897 61.38L49.3697 61.61C49.1897 59.86 49.0797 58.1 48.9997 56.34C48.9197 54.58 48.9997 52.93 48.9397 51.17H48.8997Z" fill="#231F20"/>
<path d="M48.7098 30.68C48.7098 30.78 48.7098 30.88 48.7098 30.98C48.7098 34.17 48.7098 37.25 48.5698 40.23V40.28C48.4098 43.92 48.1298 47.41 47.7698 50.73L47.7098 51.23C47.6398 51.93 47.5498 52.63 47.4698 53.31C47.3898 53.99 47.3398 54.41 47.2598 54.94C46.8998 57.6467 46.4798 60.2367 45.9998 62.71C45.9098 63.23 45.8198 63.71 45.7198 64.25C45.1798 64.38 44.6198 64.5 44.0498 64.61C42.8798 64.84 41.6698 65.02 40.4798 65.14L39.6898 65.21C39.4298 61.21 39.2598 56.9 39.2598 52.31C39.2598 51.8 39.2598 51.31 39.2598 50.76C39.2598 50.49 39.2598 50.23 39.2598 49.96C39.2598 46.52 39.4298 42.96 39.6798 39.23C39.8898 36.07 40.1798 32.87 40.5798 29.53C40.6498 28.84 40.7398 28.15 40.8298 27.46C41.0098 26.09 41.1898 24.75 41.3898 23.46C42.4548 16.3456 43.9239 9.29751 45.7898 2.35001C47.0775 9.00256 47.9492 15.7289 48.3998 22.49C48.5698 25.29 48.6798 28 48.7098 30.68Z" fill="#3A7867"/>
<path d="M48.7601 30.68V31L48.7101 37C48.7101 38 48.7101 39 48.7101 40C48.7101 41 48.6101 42 48.5601 43L48.2401 49C48.2401 50 48.1101 51 48.0001 52C47.8901 53 47.7901 54 47.6601 55C47.3001 57.59 46.8401 60.17 46.4401 62.75V62.67V62.74L46.1401 64.29L46.0801 64.56H45.8301L44.3201 64.86C43.8101 64.95 43.3201 65 42.7901 65.07C41.7901 65.18 40.7901 65.38 39.7301 65.42H39.4101V65.12C39.4101 62.12 39.3401 59.12 39.2501 56.17C39.1601 53.22 39.0801 50.17 39.2501 47.23C39.4201 44.29 39.3701 41.23 39.5301 38.29L40.2301 29.35C40.4601 27.04 40.7801 24.75 41.1101 22.46C41.4401 20.17 41.8201 17.88 42.2401 15.6C43.0701 11.04 44.1601 6.53 45.3601 2.06L45.9401 0L46.3401 2.18C47.2125 6.87951 47.8268 11.6233 48.1801 16.39C48.3501 18.77 48.5101 21.15 48.5501 23.53L48.7601 30.68ZM48.6601 30.68L48.3301 23.55C48.1801 21.17 47.9201 18.8 47.6301 16.44C47.3401 14.08 46.9701 11.73 46.6301 9.44C46.2901 7.15 45.8101 4.76 45.3701 2.44H46.3701C45.1801 6.89 44.1901 11.44 43.2901 15.91C42.8368 18.17 42.4334 20.44 42.0801 22.72C41.7401 25 41.3701 27.28 41.0801 29.56L40.1301 38.42C39.9701 39.9 39.9501 41.42 39.8501 42.88L39.6301 47.35C39.5601 48.84 39.4901 50.35 39.4901 51.81C39.4901 53.27 39.5901 54.81 39.6401 56.27C39.7501 59.27 39.9101 62.22 40.0601 65.19L39.7401 64.91C40.7401 64.83 41.7401 64.6 42.7401 64.46C43.2401 64.37 43.7401 64.3 44.2301 64.2L45.7001 63.85L45.4001 64.17L45.6701 62.64V62.71V62.64C46.0701 60.07 46.4201 57.49 46.8701 54.93V54.9C47.0201 53.9 47.1601 52.9 47.2701 51.9C47.3801 50.9 47.4901 49.9 47.5901 48.9L48.1801 42.9C48.2701 41.9 48.4001 40.9 48.4601 39.9C48.5201 38.9 48.5501 37.9 48.5601 36.9L48.7001 30.9L48.6601 30.68Z" fill="#231F20"/>
<path d="M21.9988 64.2C20.1849 63.8371 18.4125 63.291 16.7088 62.57C15.6862 60.8082 14.7809 58.9809 13.9988 57.1C13.6888 56.35 13.4188 55.63 13.1788 54.92C13.1788 54.81 13.0988 54.7 13.0688 54.59C11.6209 50.5598 11.215 46.229 11.8888 42C12.4988 38.54 13.7188 36.4 15.2188 30C16.4045 24.9361 17.1605 19.7811 17.4788 14.59C18.5917 17.0056 19.508 19.5071 20.2188 22.07C20.985 24.8333 21.4905 27.6624 21.7288 30.52C21.8088 31.52 21.8488 32.62 21.8588 33.72C21.8588 35.01 21.8588 36.11 21.7388 37.14C21.6088 38.8 21.3888 40.27 21.2088 42.08C20.8735 45.4623 20.76 48.8629 20.8688 52.26C20.8688 52.38 20.8688 52.5 20.8688 52.61C20.8688 53.19 20.8688 53.78 20.9488 54.38C20.9988 55.3 21.0688 56.24 21.1488 57.21C21.3488 59.43 21.6288 61.75 21.9988 64.2Z" fill="#3A7867"/>
<path d="M22.0592 64.24C21.5854 64.1845 21.1147 64.1044 20.6492 64C20.1992 63.9 19.7492 63.79 19.2992 63.66C18.3957 63.4243 17.5074 63.1337 16.6392 62.79H16.5692V62.72C15.4821 60.944 14.5166 59.0965 13.6792 57.19C12.8613 55.2514 12.2187 53.2433 11.7592 51.19C10.7897 47.0704 11.0082 42.7604 12.3892 38.76C13.0492 36.76 13.7492 34.86 14.3292 32.87C14.9092 30.88 15.3792 28.87 15.7792 26.87C16.5613 22.8149 17.036 18.7066 17.1992 14.58L17.2492 13.31L17.8092 14.47C18.9673 16.8951 19.9174 19.4141 20.6492 22V22.12V22C21.4488 24.7864 21.9812 27.6426 22.2392 30.53C22.2892 31.64 22.3592 32.76 22.3892 33.87L22.2592 37.23V37.28C22.0192 39.52 21.7292 41.79 21.5392 44.01C21.3492 46.23 21.2392 48.5 21.2292 50.75C21.2192 53 21.2892 55.23 21.4492 57.5L22.0592 64.24ZM21.9992 64.17L20.9392 57.49C20.6992 55.26 20.4892 52.97 20.4492 50.71C20.4092 48.45 20.4492 46.17 20.5692 43.9C20.6892 41.63 21.0192 39.4 21.2392 37.15L21.3392 33.88L21.2192 30.6C21.0062 27.772 20.5308 24.97 19.7992 22.23V22.17V22.11V22.23C19.12 19.6806 18.2475 17.1867 17.1892 14.77L17.8092 14.65C17.4409 18.7712 16.8366 22.868 15.9992 26.92C15.215 30.9709 14.2135 34.9766 12.9992 38.92C12.4201 40.8712 12.0843 42.8865 11.9992 44.92C11.9558 46.9608 12.1403 49.0001 12.5492 51C13.4509 55.018 14.9509 58.8777 16.9992 62.45L16.8892 62.35C17.7182 62.7346 18.5698 63.0685 19.4392 63.35C19.8692 63.5 20.3092 63.64 20.7492 63.77C21.1892 63.9 21.6292 64 21.9992 64.17Z" fill="#231F20"/>
<path d="M49.6005 67.46L48.8105 67.65" stroke="#231F20" stroke-miterlimit="10"/>
<path d="M41.6202 50.17C41.6202 50.4 41.6202 50.63 41.5402 50.84C41.4702 51.45 41.3902 52.04 41.3202 52.61C40.6995 56.8747 39.733 61.082 38.4302 65.19L37.6302 65.26H36.7302C35.7302 65.26 34.6102 65.26 33.5302 65.26C32.8102 65.26 32.0902 65.16 31.3602 65.08C30.7428 60.9357 30.4452 56.75 30.4702 52.56C30.4702 51.96 30.4702 51.37 30.4702 50.81C30.4702 50.6 30.4702 50.4 30.4702 50.2C30.4702 49.2 30.5702 48.2 30.6402 47.34C31.1302 40.79 32.2702 37.12 33.0402 30.81C33.1902 29.63 33.3302 28.36 33.4402 26.96C33.9814 20.3321 33.8742 13.6671 33.1202 7.06C35.8836 12.1589 38.0352 17.5664 39.5302 23.17C40.0302 24.9967 40.4635 26.9133 40.8302 28.92C42.1222 35.9276 42.3883 43.0858 41.6202 50.17Z" fill="#3A7867"/>
<path d="M41.6694 50.18C41.5294 51.45 41.3794 52.73 41.1894 54C40.9994 55.27 40.7494 56.52 40.5194 57.79C40.0394 60.31 39.4394 62.8067 38.7194 65.28L38.6594 65.47H38.4594C37.8594 65.54 37.2694 65.6 36.6794 65.63H34.8894C34.2894 65.63 33.6894 65.63 33.0994 65.63L31.3094 65.5H30.9994V65.16C30.5411 62.3039 30.2672 59.4213 30.1794 56.53C30.0944 53.6439 30.1845 50.7552 30.4494 47.88C30.6894 45 31.1094 42.14 31.6294 39.31C32.1494 36.48 32.6294 33.65 32.9694 30.8C33.1294 28.8 33.3494 26.86 33.4194 24.89C33.4894 22.92 33.5294 20.89 33.5094 18.95C33.468 14.9989 33.211 11.053 32.7394 7.12999L32.4394 4.64999L33.6494 6.84999C35.4642 10.1256 37.0093 13.5436 38.2694 17.07C38.9027 18.83 39.4661 20.6167 39.9594 22.43C40.4294 24.24 40.7894 26.08 41.1794 27.91C41.8559 31.5684 42.2072 35.2796 42.2294 39C42.2844 42.7348 42.0973 46.4693 41.6694 50.18ZM41.5694 50.18C41.9604 46.4664 42.034 42.7261 41.7894 39C41.5512 35.2989 41.0297 31.6214 40.2294 28L39.5794 25.31C39.3594 24.41 39.1894 23.5 38.9294 22.62C38.4294 20.8733 37.8661 19.1333 37.2394 17.4C35.9778 13.9304 34.4776 10.5524 32.7494 7.28999L33.6594 6.99999C34.0877 10.9649 34.2714 14.9525 34.2094 18.94C34.2094 20.94 34.1127 22.94 33.9194 24.94C33.7894 26.94 33.5194 28.94 33.2894 30.87C32.9394 33.73 32.3694 36.56 31.8994 39.39C31.3869 42.2128 31.0529 45.0651 30.8994 47.93C30.7394 50.7911 30.7394 53.6589 30.8994 56.52C31.0294 59.38 31.3594 62.22 31.7194 65.05L31.3494 64.7L33.0894 64.86C33.6694 64.94 34.2594 64.86 34.8394 64.93H36.5894C37.1694 64.93 37.7594 64.93 38.3394 64.85L38.0694 65.07C38.9069 62.6511 39.6212 60.1913 40.2094 57.7C40.8017 55.2171 41.2557 52.7032 41.5694 50.17V50.18Z" fill="#231F20"/>
<path d="M44.0004 15.56C44.7868 23.464 45.0473 31.4115 44.7804 39.35C44.4882 47.6848 43.6094 55.9887 42.1504 64.2" fill="#3A7867"/>
<path d="M44 15.56C44 15.72 44 15.89 44 16.05" stroke="white" stroke-miterlimit="10" stroke-linecap="round"/>
<path d="M44.4104 21.12C44.8274 27.1873 44.9342 33.2718 44.7304 39.35C44.4904 46.6694 43.7957 53.9668 42.6504 61.2" stroke="white" stroke-miterlimit="10" stroke-linecap="round" stroke-dasharray="1.02 5.09"/>
<path d="M42.2402 63.71C42.2402 63.88 42.1802 64.04 42.1602 64.2" stroke="white" stroke-miterlimit="10" stroke-linecap="round"/>
<path d="M25.7899 15.56C24.175 31.7797 24.7805 48.144 27.5899 64.2L25.7899 15.56Z" fill="#3A7867"/>
<path d="M25.7891 15.56C25.7891 15.72 25.7891 15.89 25.7891 16.05" stroke="white" stroke-miterlimit="10" stroke-linecap="round"/>
<path d="M25.3294 21.12C24.9091 27.1871 24.7989 33.2717 24.9994 39.35C25.2427 46.6696 25.9407 53.967 27.0894 61.2" stroke="white" stroke-miterlimit="10" stroke-linecap="round" stroke-dasharray="1.02 5.09"/>
<path d="M27.5 63.71L27.59 64.2" stroke="white" stroke-miterlimit="10" stroke-linecap="round"/>
</svg>
