<svg width="30" height="30" viewBox="0 0 30 30" fill="none" xmlns="http://www.w3.org/2000/svg">
<path d="M16.0044 2.47274C16.1416 1.8692 11.6836 -0.956512 8.94015 0.716965C7.39013 1.62229 6.9649 3.46037 6.19675 6.69759C5.22284 10.8127 6.03214 11.4848 5.1131 15.1198C4.19406 18.7549 2.94581 19.5642 3.34361 21.608C3.80999 23.9536 6.08701 26.2992 7.63704 25.9563C10.1473 25.4076 11.6287 17.8495 11.2172 11.7592C10.9566 7.64406 9.84548 4.80464 11.4504 3.30948C13.0553 1.81433 15.8947 2.96656 16.0044 2.47274Z" fill="#D22434"/>
<path d="M15.9653 2.47271C15.9653 2.18465 15.5812 1.96518 15.3343 1.75942C15.0452 1.56455 14.7427 1.39036 14.429 1.23818C13.867 0.929485 13.2677 0.694366 12.6458 0.538609C12.0304 0.355896 11.384 0.301794 10.7469 0.379669C10.1097 0.457545 9.49539 0.665731 8.94216 0.991271C7.95245 1.83484 7.3039 3.01003 7.11779 4.29707C6.8023 5.66878 6.41822 6.95818 6.18504 8.27501C5.96078 9.6366 5.82333 11.0111 5.77353 12.3901C5.60601 13.7783 5.28867 15.1442 4.82705 16.4641C4.60758 17.1225 4.34695 17.8358 4.08633 18.3982C3.79322 19.0086 3.5634 19.6475 3.40048 20.3048C3.2953 20.962 3.37118 21.6354 3.61995 22.2527C3.84964 22.8745 4.17348 23.4574 4.58014 23.981C4.95228 24.5161 5.41677 24.9806 5.95185 25.3527C6.18297 25.5298 6.45038 25.6536 6.73495 25.7153C7.01952 25.7769 7.3142 25.7749 7.59789 25.7094C8.14014 25.4582 8.5736 25.0198 8.8187 24.4748C9.13741 23.898 9.39926 23.2916 9.60057 22.6642C10.3488 20.058 10.7501 17.3645 10.794 14.6534C10.8251 13.2802 10.7794 11.9064 10.6568 10.5383C10.547 9.16662 10.3276 7.79492 10.2864 6.42321C10.248 5.70822 10.341 4.99224 10.5608 4.31079C10.6925 3.96112 10.8943 3.64206 11.1538 3.37316C11.4132 3.10426 11.7249 2.8912 12.0696 2.74705C12.7098 2.51145 13.3912 2.40877 14.0723 2.44528C14.4015 2.44528 14.7307 2.44528 15.0737 2.5413H15.5675C15.7047 2.56873 15.9104 2.56873 15.9653 2.47271ZM16.0476 2.47271C15.9241 2.67847 15.7047 2.6236 15.5538 2.63731H15.0462C14.717 2.63731 14.3878 2.63731 14.0586 2.63731C13.4077 2.59586 12.7568 2.71849 12.1657 2.99396C11.8834 3.13085 11.6312 3.32268 11.4239 3.55821C11.2167 3.79374 11.0585 4.06824 10.9586 4.36566C10.8022 5.00747 10.7696 5.67319 10.8625 6.32719C11.0134 7.6989 11.2741 9.0706 11.4524 10.4423C11.6212 11.8072 11.6899 13.1825 11.6581 14.5574C11.6436 17.351 11.2042 20.1262 10.355 22.7876C10.1286 23.4516 9.83442 24.0906 9.47712 24.6943C9.13165 25.3755 8.54483 25.9037 7.83108 26.1757C7.46612 26.2643 7.08529 26.2644 6.72026 26.1761C6.35523 26.0879 6.01655 25.9137 5.73237 25.6682C5.15981 25.2536 4.66326 24.7431 4.26465 24.1593C3.40097 23.0136 3.01279 21.5788 3.18101 20.154C3.34655 19.4786 3.59055 18.8248 3.90801 18.2061C4.18021 17.5793 4.41832 16.9383 4.6213 16.2858C5.0385 15.0113 5.28751 13.6879 5.36201 12.349C5.33762 10.9742 5.40636 9.59934 5.56777 8.23386C5.80085 6.84682 6.10763 5.47317 6.48681 4.11875C6.66576 3.42851 6.92351 2.76113 7.25496 2.12978C7.57671 1.46279 8.08701 0.904795 8.72269 0.524892C9.34318 0.218387 10.0198 0.0420219 10.711 0.00663814C11.4021 -0.0287456 12.0932 0.0775997 12.7418 0.319137C13.3828 0.519423 14.003 0.781267 14.5936 1.10101C14.8903 1.26758 15.1746 1.45554 15.444 1.66341C15.6498 1.89659 15.9653 2.08863 16.0476 2.48643V2.47271Z" fill="#010101"/>
<path d="M9.25731 2.74705C8.17366 0.675782 4.4152 -0.28441 1.90499 1.37535C-0.60523 3.03511 0.272658 6.86216 0.793905 10.4835C1.29423 13.3319 2.17545 16.1002 3.41386 18.7137C3.85606 19.8292 4.37868 20.9111 4.9776 21.9509C5.92407 23.4735 8.55774 27.9864 10.3135 27.4377C12.0693 26.889 12.906 22.9522 12.3025 19.6876C11.4795 15.1472 8.35199 14.7632 7.91304 10.7441C7.4741 6.72499 10.4507 4.91434 9.25731 2.74705Z" fill="#D22434"/>
<path d="M9.21587 2.74708C8.85264 2.19112 8.37222 1.72133 7.80827 1.37064C7.24432 1.01995 6.61049 0.796843 5.95122 0.716956C4.66793 0.517786 3.35559 0.780253 2.24762 1.45767C1.74749 1.83469 1.34638 2.32752 1.07878 2.89379C0.811175 3.46006 0.685074 4.08284 0.711316 4.70861C0.673476 6.05708 0.751492 7.4063 0.944505 8.74142C1.15396 11.4546 1.76413 14.1218 2.75515 16.6561C3.24896 17.9181 3.79765 19.1801 4.4012 20.3872C5.02836 21.5803 5.73405 22.7305 6.51362 23.8301C7.23614 24.9376 8.12437 25.9276 9.14729 26.7656C9.65482 27.1359 10.2035 27.3006 10.615 26.9988C11.0873 26.6286 11.4403 26.1278 11.6301 25.5585C12.0632 24.3119 12.2587 22.9952 12.2062 21.6766C12.1795 20.3541 11.8953 19.0495 11.3694 17.8358C10.7667 16.6588 10.0253 15.5582 9.161 14.5574C8.27415 13.4245 7.76126 12.0441 7.69328 10.6069C7.6366 9.18335 7.93847 7.76834 8.57117 6.49182C8.86913 5.87692 9.13022 5.24481 9.35304 4.59887C9.52396 3.98443 9.47545 3.32963 9.21587 2.74708V2.74708ZM9.29817 2.74708C9.61608 3.37578 9.67993 4.10269 9.47649 4.7772C9.29817 5.44933 8.9964 6.0666 8.77693 6.69758C8.2633 7.94212 8.0745 9.29681 8.22825 10.6344C8.37195 11.9311 8.90247 13.1547 9.75084 14.1459C10.6954 15.1667 11.4898 16.3167 12.1102 17.5615C12.6768 18.8591 12.9665 20.2606 12.9606 21.6766C12.9848 23.081 12.7428 24.4773 12.2473 25.7917C11.9885 26.5153 11.5086 27.1391 10.8756 27.5749C10.7007 27.6875 10.5039 27.7616 10.2981 27.7924C10.0924 27.8231 9.88245 27.8098 9.68225 27.7532C9.31842 27.6513 8.97817 27.4789 8.68091 27.2457C7.64614 26.3272 6.76612 25.248 6.07467 24.0496C5.36324 22.9263 4.70857 21.7681 4.11314 20.5792C3.52331 19.3447 3.00206 18.0827 2.4671 16.8207C1.93213 15.5588 1.47947 14.2831 1.09539 12.9525C0.740914 11.6212 0.466085 10.27 0.272371 8.90602C0.0356706 7.54796 -0.0471552 6.16753 0.0254643 4.79091C0.0814941 4.06574 0.26248 3.35571 0.560428 2.69221C0.857025 1.97714 1.39613 1.38947 2.08302 1.03245C3.30762 0.399333 4.71662 0.219564 6.06096 0.524917C6.72524 0.650323 7.35613 0.912667 7.91347 1.29525C8.47081 1.67783 8.94238 2.17226 9.29817 2.74708V2.74708Z" fill="#010101"/>
<path d="M10.2159 5.14747C10.0289 4.83516 9.90591 4.48876 9.8541 4.12845C9.80229 3.76813 9.82271 3.40111 9.91416 3.04876C10.504 1.67706 13.0142 1.67706 14.8111 1.60847C16.7357 1.55629 18.6503 1.90185 20.4351 2.62353C21.6994 3.00037 22.8281 3.73381 23.6861 4.73596C24.5515 6.202 24.8538 7.9329 24.5365 9.6055C24.4131 10.9086 23.7684 17.7534 18.405 20.2499C17.5271 20.6614 14.139 22.2252 12.1775 20.6751C9.11857 18.1786 12.7947 10.6206 10.2159 5.14747Z" fill="#D22434"/>
<path d="M10.1903 5.14757C9.87704 4.61262 9.72909 3.99695 9.76506 3.37808C9.81768 3.06773 9.95538 2.77807 10.1629 2.54134C10.3804 2.31947 10.6359 2.13829 10.9173 2.00638C12.0426 1.59503 13.2307 1.38155 14.4288 1.37539C16.8385 1.17388 19.2565 1.64894 21.4108 2.74709C22.586 3.20968 23.5584 4.07512 24.1542 5.18872C24.6607 6.34354 24.8501 7.61251 24.7029 8.86489C24.5748 11.3248 23.9886 13.7392 22.9746 15.984C21.9414 18.2519 20.0748 20.0349 17.7621 20.9633C16.6401 21.4729 15.4275 21.7528 14.1957 21.7863C13.5337 21.7933 12.8813 21.6279 12.3027 21.3062C11.7025 20.9547 11.2239 20.4283 10.931 19.7974C10.4812 18.5893 10.3215 17.2925 10.4646 16.0115C10.5469 14.7632 10.6978 13.5698 10.8213 12.3627C10.956 11.1606 11.0018 9.95026 10.9584 8.74143C10.9108 7.50825 10.6509 6.2925 10.1903 5.14757V5.14757ZM10.2589 5.14757C11.1719 7.43277 11.561 9.89361 11.3974 12.349C11.3974 13.5835 11.2876 14.8044 11.2739 15.9977C11.1845 17.1387 11.3244 18.2861 11.6854 19.3721C11.9174 19.8309 12.2678 20.2193 12.7005 20.4969C13.1635 20.749 13.6822 20.881 14.2094 20.881C15.3386 20.8752 16.4545 20.6371 17.4877 20.1814C19.7087 19.3804 21.5521 17.7815 22.6591 15.696C23.7866 13.5806 24.4109 11.2335 24.4834 8.83745C24.6204 7.65391 24.3905 6.45686 23.825 5.4082C23.2232 4.40232 22.2704 3.65475 21.1502 3.30949C19.0356 2.37068 16.7422 1.90265 14.4288 1.93779C13.2754 1.85373 12.116 1.96503 10.9996 2.267C10.7228 2.34771 10.4726 2.50089 10.2749 2.7107C10.0771 2.9205 9.93901 3.17931 9.87479 3.46038C9.84724 4.04558 10.0005 4.62507 10.3137 5.12014L10.2589 5.14757Z" fill="#010101"/>
<path d="M12.096 14.0636C11.7531 12.4861 11.0946 10.1543 12.2469 8.48078C12.9327 7.52058 13.6186 7.56174 14.8531 5.99799C15.8133 4.72231 15.9093 3.89929 16.6226 3.7484C17.3359 3.59752 18.4607 4.62629 18.7625 4.96922C19.5048 5.9065 19.9534 7.04232 20.0519 8.23387C20.3284 10.636 20.1042 13.0693 19.3934 15.3804C17.6239 20.5792 13.7009 27.4377 12.1646 26.8204C10.8477 26.2992 13.6734 21.4982 12.096 14.0636Z" fill="#EC2428"/>
<path d="M12.0548 14.0636C11.7632 12.9959 11.5749 11.9027 11.4924 10.799C11.4379 10.2235 11.5145 9.64308 11.7164 9.10142C11.9184 8.55975 12.2404 8.07087 12.6583 7.67148C13.0973 7.28741 13.5088 6.99935 13.8654 6.62899C14.2272 6.24818 14.5532 5.83493 14.8393 5.39446C15.1274 4.94179 15.3469 4.48913 15.6898 4.02275C15.8854 3.72263 16.1906 3.51094 16.5403 3.43292C16.8699 3.37316 17.2099 3.41626 17.5142 3.55637C18.0521 3.82041 18.5216 4.20539 18.8859 4.68117C19.2534 5.12152 19.5496 5.61677 19.7638 6.14889C20.1278 7.21773 20.3132 8.33927 20.3124 9.46841C20.3836 11.6985 20.0776 13.9245 19.4071 16.0526C18.7253 18.16 17.8577 20.2027 16.8146 22.1567C16.2932 23.1398 15.7162 24.0924 15.0862 25.0098C14.7769 25.4984 14.4233 25.9575 14.03 26.3815C13.8301 26.5989 13.6096 26.7964 13.3716 26.9713C13.0995 27.1875 12.771 27.3209 12.4251 27.3554C12.3085 27.3636 12.1914 27.3484 12.0806 27.3107C11.9699 27.2731 11.8679 27.2136 11.7804 27.1359C11.6089 26.9827 11.4972 26.7738 11.465 26.5461C11.4101 26.233 11.4101 25.9127 11.465 25.5996C11.5038 25.0151 11.5771 24.4334 11.6844 23.8576C11.9039 22.7739 12.0822 21.7177 12.2194 20.6204C12.5347 18.4411 12.4791 16.2243 12.0548 14.0636ZM12.1371 14.0636C12.6134 16.2341 12.8298 18.4536 12.7818 20.6752C12.7346 21.7916 12.6247 22.9044 12.4526 24.0085C12.4526 24.5571 12.2743 25.0921 12.2194 25.6134C12.1986 25.8415 12.1986 26.0711 12.2194 26.2992C12.2194 26.4775 12.2194 26.4227 12.3703 26.4501C12.7818 26.3085 13.1437 26.0514 13.4128 25.7094C13.7676 25.3238 14.0974 24.916 14.4004 24.4886C15.0266 23.6066 15.6036 22.6908 16.1287 21.7452C17.1986 19.8456 18.1469 17.8801 18.9682 15.8605C19.7767 13.826 20.1369 11.6411 20.0244 9.4547C20.0034 8.36842 19.7705 7.2967 19.3385 6.29978C19.1152 5.8308 18.8189 5.40022 18.4606 5.0241C18.1332 4.64511 17.7318 4.33704 17.281 4.11877C17.1097 4.01798 16.9056 3.98881 16.713 4.03761C16.5204 4.08641 16.3548 4.20923 16.2522 4.3794C15.9916 4.77719 15.7309 5.31215 15.4017 5.7511C15.0775 6.21463 14.7101 6.64637 14.3044 7.0405C13.8745 7.39799 13.4157 7.71916 12.9327 8.00069C12.5267 8.332 12.2011 8.75093 11.9801 9.22606C11.7592 9.70119 11.6487 10.2202 11.657 10.7441C11.6689 11.867 11.8304 12.9833 12.1371 14.0636V14.0636Z" fill="#010101"/>
<path d="M10.6421 9.72906C10.8616 9.59189 12.9603 8.35736 13.7284 9.05693C15.4842 10.7716 9.21551 22.335 7.5146 21.7315C6.19777 21.2651 5.97829 12.5548 10.6421 9.72906Z" fill="#D22434"/>
<path d="M10.628 9.6879C11.1824 9.3446 11.7708 9.0596 12.3838 8.83744C12.7103 8.70799 13.0636 8.66088 13.4126 8.70027C13.6088 8.74952 13.7873 8.85271 13.9279 8.99816C14.0685 9.14361 14.1656 9.32552 14.2082 9.52329C14.3653 10.2218 14.3417 10.9489 14.1396 11.6357C13.9849 12.3034 13.769 12.9554 13.4949 13.5835C12.9266 14.7957 12.2947 15.977 11.6019 17.1225C10.9435 18.2748 10.2302 19.427 9.51695 20.5106C9.13813 21.0964 8.63167 21.5887 8.03551 21.9509C7.93183 22.0009 7.82059 22.0333 7.7063 22.0469C7.56564 22.0569 7.42461 22.0334 7.29479 21.9784C7.09207 21.8614 6.92585 21.6905 6.8147 21.4845C6.64312 21.1561 6.51846 20.8051 6.44434 20.442C6.20605 19.0807 6.20605 17.6883 6.44434 16.3269C6.62547 14.9852 7.09276 13.6981 7.81456 12.5527C8.53637 11.4073 9.49584 10.4303 10.628 9.6879V9.6879ZM10.628 9.75648C9.53964 10.4795 8.70499 11.5252 8.24127 12.7468C7.76917 13.9425 7.4422 15.1905 7.26736 16.4641C7.05285 17.7338 7.02973 19.0284 7.19877 20.3049C7.24371 20.5963 7.32195 20.8817 7.43196 21.1553C7.43196 21.2651 7.55542 21.3748 7.59657 21.3748C7.63772 21.3748 7.59657 21.3748 7.59657 21.3748C7.59657 21.3748 7.67887 21.3748 7.73374 21.3748C8.25646 21.0705 8.72092 20.6757 9.10544 20.2089C9.95434 19.2092 10.6904 18.119 11.3002 16.9579C11.8883 15.7787 12.3925 14.5594 12.809 13.3092C13.0148 12.6782 13.2068 12.0609 13.3852 11.4437C13.6038 10.8551 13.7198 10.2334 13.7281 9.6056C13.7156 9.48205 13.671 9.36392 13.5988 9.26288C13.5267 9.16183 13.4294 9.08138 13.3166 9.02948C13.0242 8.95338 12.7173 8.95338 12.425 9.02948C11.7988 9.17175 11.2008 9.41746 10.6555 9.75648H10.628Z" fill="#010101"/>
<path d="M10.5188 14.7357C10.1896 13.1446 9.51745 10.8127 10.6834 9.1529C11.3555 8.19271 12.0551 8.22014 13.2759 6.6564C14.2361 5.38072 14.3321 4.57141 15.0591 4.42053C15.7861 4.26964 16.8972 5.29842 17.1853 5.62762C17.9469 6.54409 18.4195 7.66593 18.5432 8.85112C18.8215 11.2478 18.602 13.6761 17.8985 15.984C16.1153 21.2925 12.1923 28.0961 10.656 27.4788C9.27054 26.9713 12.0962 22.1566 10.5188 14.7357Z" fill="#D22434"/>
<path d="M10.4779 14.7495C10.1941 13.6754 10.0059 12.5784 9.91551 11.4711C9.86377 10.8946 9.943 10.3139 10.1473 9.77232C10.3516 9.23075 10.6756 8.74235 11.0952 8.34364C11.5341 7.95956 11.9319 7.6715 12.2886 7.30114C12.6567 6.92591 12.9832 6.512 13.2625 6.06661C13.5505 5.62766 13.77 5.16129 14.1266 4.69491C14.3297 4.40487 14.6324 4.19978 14.9771 4.11879C15.3068 4.0608 15.6462 4.10383 15.951 4.24225C16.4846 4.513 16.9527 4.89685 17.3227 5.36704C17.683 5.81529 17.9658 6.32065 18.1594 6.8622C18.5214 7.93198 18.7112 9.05242 18.7218 10.1817C18.7806 12.4166 18.4701 14.6459 17.8028 16.7796C17.1184 18.8816 16.2509 20.9196 15.2103 22.87C14.6917 23.8518 14.1193 24.8043 13.4957 25.7231C13.1813 26.2118 12.8231 26.6709 12.4257 27.0948C12.229 27.3154 12.0082 27.5133 11.7673 27.6846C11.4952 27.9008 11.1666 28.0342 10.8208 28.0687C10.7062 28.0774 10.591 28.0624 10.4825 28.0247C10.3739 27.9869 10.2743 27.9272 10.1899 27.8492C10.0132 27.704 9.89605 27.499 9.86064 27.2731C9.81989 26.9544 9.81989 26.6317 9.86064 26.3129C9.92648 25.7549 10.0226 25.2008 10.1487 24.6532C10.3682 23.5833 10.5465 22.5133 10.6974 21.416C11.0021 19.1974 10.9279 16.9432 10.4779 14.7495ZM10.5465 14.7495C11.037 16.9224 11.2536 19.1481 11.1912 21.3748C11.157 22.4875 11.047 23.5966 10.862 24.6943C10.862 25.243 10.6837 25.7917 10.6425 26.3129C10.6081 26.5403 10.6081 26.7715 10.6425 26.9988C10.6425 27.1771 10.6425 27.1222 10.7797 27.136C11.1937 26.992 11.5595 26.7355 11.8359 26.3952C12.1866 26.0062 12.5162 25.5986 12.8235 25.1744C13.4529 24.2946 14.03 23.3786 14.5519 22.431C15.6189 20.53 16.5671 18.5647 17.3913 16.5464C18.1898 14.5094 18.5452 12.3257 18.4338 10.1406C18.4183 9.05808 18.185 7.98979 17.7479 6.99937C17.5296 6.52754 17.2327 6.09619 16.87 5.72368C16.547 5.34358 16.1442 5.03919 15.6904 4.83208C15.516 4.73941 15.3129 4.71618 15.1221 4.76708C14.9312 4.81797 14.7667 4.9392 14.6616 5.10642C14.401 5.49049 14.1541 6.03918 13.8111 6.47812C13.4988 6.95068 13.1303 7.38364 12.7138 7.76752C12.2834 8.12834 11.8246 8.45403 11.3421 8.74143C10.9346 9.07139 10.6078 9.49006 10.3868 9.9655C10.1657 10.4409 10.0561 10.9606 10.0664 11.4848C10.0909 12.5797 10.2522 13.6672 10.5465 14.7221V14.7495Z" fill="#010101"/>
<path d="M13.2343 6.24491C13.7419 6.13518 15.0587 8.30247 14.4826 9.87992C14.2082 10.6481 13.7693 10.4698 13.3715 11.3476C12.9737 12.2255 13.2892 12.8977 13.056 15.2707C13.056 15.8743 12.9188 16.2309 12.6994 16.3132C12.4799 16.3955 11.8489 15.8057 11.602 15.3119C11.3987 14.8843 11.3044 14.413 11.3277 13.9402C11.4188 13.1931 11.7236 12.4881 12.2056 11.91C13.7693 9.60558 12.6034 6.36837 13.2343 6.24491Z" fill="#EC2428"/>
<path d="M13.2216 6.20374C13.496 6.20374 13.6606 6.42321 13.8115 6.5741C13.9727 6.75096 14.1152 6.94402 14.2367 7.15021C14.5028 7.5743 14.7018 8.037 14.8265 8.52191C14.9728 9.02356 14.9728 9.55657 14.8265 10.0582C14.7226 10.3333 14.5586 10.5816 14.3464 10.7852C14.1799 10.9093 14.0239 11.047 13.88 11.1967C13.4023 11.9477 13.1809 12.8333 13.2491 13.7207L13.1668 15.0924V15.7919C13.1573 15.922 13.1343 16.0507 13.0982 16.176C13.0756 16.2643 13.0329 16.3462 12.9734 16.4152C12.9139 16.4842 12.8393 16.5385 12.7553 16.5738C12.6017 16.5959 12.4451 16.58 12.2992 16.5273C12.1533 16.4747 12.0226 16.387 11.9185 16.272C11.7255 16.1063 11.559 15.912 11.4247 15.6959C11.1354 15.2537 10.9697 14.7423 10.9446 14.2145C10.9219 13.6826 11.0204 13.1526 11.2327 12.6645C11.4532 12.2348 11.7054 11.8222 11.9871 11.4299C12.4228 10.6773 12.7114 9.84873 12.8376 8.98829C12.9118 8.53436 12.9576 8.07623 12.9747 7.61659C12.9747 7.3834 12.9747 7.15021 12.9747 6.9033C12.9747 6.6564 12.9473 6.34091 13.2216 6.20374ZM13.2216 6.28604C13.057 6.36834 13.057 6.6564 13.057 6.86215C13.067 7.09643 13.0899 7.32998 13.1256 7.56172C13.1942 8.0281 13.2491 8.49448 13.2765 8.93342C13.3575 9.93232 13.1326 10.9322 12.6318 11.8003C12.3437 12.2667 12.0968 12.541 11.9048 12.9251C11.7275 13.289 11.6294 13.6864 11.6167 14.091C11.6045 14.497 11.6991 14.8991 11.8911 15.257C11.9876 15.4387 12.0977 15.6129 12.2203 15.7782C12.3135 15.8933 12.4305 15.9869 12.5632 16.0526C12.5632 16.0526 12.7141 15.8468 12.7553 15.641C12.7964 15.4353 12.8513 15.1884 12.8924 14.9689C12.9507 14.5139 12.9828 14.0559 12.9884 13.5972C12.9884 13.1308 12.9884 12.6645 12.9884 12.2255C12.979 11.6979 13.1218 11.1788 13.4 10.7304C13.5489 10.5254 13.7242 10.341 13.9212 10.1817C14.0476 10.0631 14.146 9.91784 14.2093 9.75645C14.3481 9.36987 14.4087 8.95955 14.3876 8.54935C14.3785 8.07943 14.2856 7.61492 14.1132 7.17764C13.8938 6.86215 13.6331 6.35462 13.2353 6.28604H13.2216Z" fill="#010101"/>
<path d="M14.5239 7.74007C14.9355 6.8759 11.7805 3.7347 10.4088 4.42055C8.61191 5.27101 10.0933 12.0747 10.2854 12.9937C11.7943 19.7425 15.4979 24.3651 15.8408 24.1731C16.3895 23.8576 8.61191 10.36 11.2867 8.11043C12.2881 7.30113 14.2359 8.38477 14.5239 7.74007Z" fill="#D22434"/>
<path d="M14.4279 7.73999C14.4311 7.49795 14.3854 7.25776 14.2934 7.03383C14.2015 6.8099 14.0653 6.60685 13.8929 6.43687C13.5907 6.08471 13.2503 5.76726 12.8779 5.4904C12.502 5.19573 12.0864 4.9556 11.6433 4.77711C11.4611 4.67499 11.2556 4.62136 11.0467 4.62136C10.8377 4.62136 10.6323 4.67499 10.45 4.77711C10.1419 5.07681 9.96445 5.48591 9.95615 5.91563C9.90272 6.37093 9.87524 6.8289 9.87385 7.28733C9.897 8.27849 9.97485 9.26762 10.107 10.2502C10.308 12.2432 10.7125 14.2104 11.3141 16.1211C11.9391 18.0131 12.8157 19.8124 13.9204 21.4707C14.4406 22.2887 15.0427 23.0517 15.7173 23.7478C15.7173 23.8163 15.9505 23.8986 15.8408 23.8712C15.7791 23.8468 15.7104 23.8468 15.6487 23.8712C15.6098 23.9011 15.5771 23.9384 15.5527 23.9809C15.5527 24.0495 15.5527 23.9809 15.5527 23.9809V23.8438L15.2784 23.1854L14.6611 21.8137C13.8106 20.0167 12.9327 18.2061 12.192 16.3268C11.3739 14.4528 10.8288 12.4711 10.5734 10.4422C10.5278 9.91392 10.5648 9.38171 10.6832 8.86479C10.7489 8.6177 10.8747 8.3907 11.0494 8.20402C11.2241 8.01734 11.4423 7.87678 11.6845 7.79486C12.1736 7.69872 12.6768 7.69872 13.1659 7.79486C13.4063 7.84032 13.649 7.87237 13.8929 7.89088C14.0987 7.93203 14.4279 7.93203 14.4279 7.73999ZM14.5102 7.73999C14.3456 8.01433 14.0301 7.9869 13.8106 7.97318C13.5912 7.95946 13.3305 7.97318 13.0836 7.97318C12.6259 7.90039 12.1577 7.92848 11.7119 8.05548C11.5041 8.14377 11.3249 8.28794 11.1941 8.47198C11.0634 8.65602 10.9862 8.87271 10.9712 9.09798C10.8945 9.55199 10.8945 10.0157 10.9712 10.4697C11.4256 12.393 12.0547 14.2709 12.8504 16.0799C13.6049 17.918 14.4142 19.7561 15.2235 21.5668C15.4292 22.0194 15.635 22.4858 15.8133 22.9385C15.9093 23.1854 15.9916 23.4186 16.0739 23.6929C16.0833 23.7703 16.0833 23.8486 16.0739 23.9261C16.088 23.9986 16.088 24.0731 16.0739 24.1456C16.0673 24.1772 16.0673 24.2099 16.0739 24.2416C16.0481 24.2991 16.005 24.347 15.9505 24.3787C15.9129 24.4107 15.8692 24.4345 15.8219 24.4486C15.7747 24.4628 15.7251 24.467 15.6761 24.461C15.488 24.4065 15.3207 24.2966 15.1961 24.1456C14.5252 23.3751 13.941 22.5333 13.454 21.6353C11.4777 18.0917 10.088 14.2516 9.33889 10.2639C9.16171 9.25331 9.06083 8.23079 9.03711 7.20503C9.03756 6.67948 9.09273 6.15541 9.20171 5.64129C9.23303 5.35458 9.32507 5.07784 9.47172 4.82949C9.61836 4.58114 9.81624 4.36689 10.0522 4.201C10.3053 4.0842 10.5837 4.03303 10.8618 4.05221C11.1399 4.07139 11.4087 4.1603 11.6433 4.31074C12.0977 4.53794 12.5141 4.83407 12.8779 5.18863C13.2477 5.52901 13.5873 5.90075 13.8929 6.2997C14.3044 6.76608 14.6885 7.20503 14.5651 7.76743L14.5102 7.73999Z" fill="#010101"/>
<path d="M10.5314 4.11875C9.55748 2.3081 6.18309 1.44393 3.9335 2.93909C1.1901 4.76345 1.36842 9.26264 2.93216 11.1693C4.30386 12.7742 6.93753 12.6507 7.04727 13.707C7.04727 14.2008 6.52602 14.3654 6.07336 15.0787C4.70165 17.0951 6.32026 20.5655 6.75921 21.4434C7.59595 23.2403 9.85926 26.9302 11.5876 26.4638C13.3159 25.9974 13.9195 22.4447 13.3708 19.4955C12.6438 15.3804 9.8181 15.0649 9.43403 11.4711C9.04995 7.87721 11.6013 6.10772 10.5314 4.11875Z" fill="#EC2428"/>
<path d="M10.5051 4.1188C10.1559 3.6032 9.69423 3.17359 9.15487 2.86232C8.61551 2.55106 8.01253 2.36627 7.39138 2.32187C6.18246 2.16639 4.95995 2.4806 3.97584 3.19976C3.0341 3.97041 2.41706 5.06738 2.2475 6.27238C2.04067 7.48512 2.16385 8.73118 2.60414 9.87995C2.82053 10.4087 3.15896 10.8787 3.59177 11.2517C4.05672 11.6382 4.58602 11.94 5.1555 12.1433C5.77704 12.3466 6.36433 12.6426 6.89757 13.0212C7.03667 13.1645 7.11447 13.3564 7.11447 13.5561C7.11447 13.7559 7.03667 13.9477 6.89757 14.0911C6.66438 14.3654 6.41747 14.5437 6.22543 14.7632C5.87611 15.283 5.65005 15.8758 5.56447 16.4962C5.4789 17.1166 5.53606 17.7484 5.73162 18.3434C6.06402 19.6125 6.57677 20.8274 7.25421 21.9509C7.85751 23.0449 8.58973 24.0627 9.43522 24.9824C9.81105 25.4154 10.28 25.7577 10.8069 25.9837C11.0365 26.0667 11.2881 26.0654 11.5168 25.98C11.7454 25.8945 11.9363 25.7306 12.0552 25.5174C12.6884 24.4788 13.0339 23.2905 13.0565 22.0744C13.1472 20.8396 13.0124 19.5985 12.6587 18.4119C12.2306 17.2583 11.5936 16.1935 10.7795 15.2707C9.87797 14.255 9.31261 12.9853 9.16088 11.6357C9.02658 10.3077 9.26404 8.96845 9.84673 7.76753C10.1074 7.1777 10.3817 6.58787 10.5874 5.99803C10.809 5.3853 10.7795 4.70982 10.5051 4.1188V4.1188ZM10.5737 4.1188C10.7267 4.40984 10.8189 4.7289 10.8448 5.05665C10.8708 5.3844 10.8299 5.714 10.7246 6.02547C10.5463 6.65645 10.2445 7.23257 10.0525 7.84983C9.58538 9.02533 9.45246 10.3071 9.66841 11.5534C9.90992 12.7635 10.4958 13.8781 11.3556 14.7632C12.268 15.7332 12.9687 16.8823 13.4132 18.1376C13.8355 19.4279 13.9895 20.791 13.8658 22.143C13.8254 23.5143 13.4078 24.848 12.6587 25.9975C12.4295 26.3087 12.115 26.5468 11.7534 26.6833C11.3828 26.8273 10.9718 26.8273 10.6012 26.6833C9.96675 26.4138 9.41019 25.9893 8.98256 25.4488C8.13372 24.4557 7.41466 23.3587 6.8427 22.1841C6.24154 21.0222 5.78106 19.7927 5.471 18.5217C5.28459 17.8808 5.23833 17.2073 5.33537 16.5469C5.43242 15.8865 5.67048 15.2548 6.03339 14.6946C6.23915 14.434 6.49977 14.2282 6.6781 14.0088C6.71666 13.9623 6.74553 13.9085 6.76299 13.8507C6.78045 13.7928 6.78615 13.732 6.77976 13.672C6.77337 13.6119 6.75501 13.5537 6.72577 13.5008C6.69653 13.4479 6.657 13.4014 6.60951 13.3641C6.08543 13.0605 5.52242 12.8298 4.93603 12.6782C4.31272 12.4856 3.7245 12.1938 3.19397 11.8141C2.64838 11.3881 2.21905 10.8314 1.94572 10.1954C1.41499 8.93052 1.27177 7.53649 1.53421 6.19007C1.63358 5.49946 1.87503 4.83694 2.24334 4.24435C2.61165 3.65175 3.09881 3.14194 3.67407 2.7471C4.78681 2.05621 6.1212 1.81582 7.4051 2.07497C8.05023 2.16434 8.66805 2.39355 9.21537 2.74658C9.76268 3.09961 10.2263 3.56793 10.5737 4.1188V4.1188Z" fill="#010101"/>
<path d="M22.7941 7.3148C23.8777 6.8347 27.6225 11.4299 27.307 14.1733C27.2129 14.6421 27.2908 15.129 27.5265 15.545C28.0203 16.176 28.8982 15.9291 29.1314 16.4092C29.3645 16.8893 28.3358 18.1238 28.2397 18.2336C26.772 19.7424 25.0986 18.5353 21.8202 19.715C20.9497 19.9954 20.14 20.4375 19.4334 21.0181C18.7116 21.6752 18.1124 22.4556 17.6639 23.3226C16.5795 25.1258 14.879 26.4755 12.8767 27.1222C9.61203 27.7669 5.7987 25.7505 5.51064 23.3226C5.19515 20.5792 9.48858 18.1238 11.1895 17.1088C14.9754 14.8729 16.8683 15.5587 19.4197 13.1034C20.8466 11.9388 21.8888 10.3707 22.41 8.6042C22.5198 7.84976 22.4923 7.43825 22.7941 7.3148Z" fill="#D22434"/>
<path d="M22.769 7.27371C22.9478 7.2504 23.1294 7.26525 23.302 7.31726C23.4746 7.36928 23.6342 7.45728 23.7703 7.57548C24.057 7.77283 24.3235 7.99797 24.5659 8.24761C25.067 8.74843 25.5258 9.28981 25.9376 9.86622C26.8422 11.01 27.412 12.3823 27.5837 13.8304C27.5837 14.2282 27.5837 14.5712 27.5837 14.8592C27.5949 14.9929 27.6335 15.1228 27.6973 15.2408C27.761 15.3588 27.8484 15.4624 27.954 15.5451C28.2284 15.687 28.5255 15.7799 28.8319 15.8194C28.9625 15.8476 29.0854 15.9039 29.192 15.9845C29.2986 16.065 29.3864 16.1679 29.4492 16.2858C29.5439 16.5378 29.5439 16.8156 29.4492 17.0677C29.3117 17.4371 29.1122 17.7803 28.8594 18.0827C28.6269 18.3881 28.3494 18.6564 28.0363 18.8783C27.4046 19.2865 26.6615 19.4878 25.9102 19.4544C24.5612 19.389 23.211 19.5561 21.9185 19.9482C21.2745 20.1463 20.6572 20.4227 20.0805 20.7713C19.509 21.1419 19.0037 21.6055 18.5853 22.143C18.1601 22.6779 17.8309 23.3089 17.4056 23.885C17.0039 24.4608 16.5443 24.994 16.0339 25.4762C15.0437 26.5202 13.7374 27.2095 12.3166 27.4377C10.908 27.5903 9.48454 27.353 8.20152 26.7519C7.53616 26.4569 6.92432 26.0536 6.39087 25.5585C5.80367 25.0372 5.3917 24.3474 5.21121 23.5832C5.0788 22.7856 5.23959 21.9671 5.66387 21.2788C6.03304 20.642 6.4954 20.0641 7.03558 19.5642C8.08888 18.613 9.24346 17.7804 10.4785 17.0814C11.6674 16.3339 12.9435 15.735 14.2782 15.2982C15.5959 14.98 16.8681 14.4961 18.0641 13.8579C18.6354 13.4922 19.1644 13.0643 19.6415 12.5822C20.1328 12.1161 20.5911 11.6166 21.0132 11.087C21.4597 10.5536 21.808 9.94518 22.042 9.29011C22.1812 8.94792 22.2914 8.5946 22.3712 8.2339L22.4809 7.71265C22.5221 7.57548 22.577 7.35601 22.769 7.27371ZM22.769 7.35601C22.4947 7.52061 22.5358 7.94584 22.4535 8.27505C22.3877 8.62748 22.3007 8.97561 22.1929 9.31754C21.9731 9.98457 21.6689 10.6207 21.2876 11.2105C20.8681 11.7853 20.4098 12.3307 19.9159 12.8428C19.4466 13.3757 18.9276 13.8625 18.3658 14.2968C17.185 15.06 15.8944 15.6382 14.5388 16.0115C13.2593 16.4938 12.0321 17.1051 10.8763 17.8358C9.69916 18.5058 8.59175 19.2916 7.57054 20.1814C7.04964 20.5435 6.62579 21.0282 6.33635 21.5927C6.04691 22.1573 5.90076 22.7843 5.91078 23.4186C6.10773 24.0314 6.43543 24.5941 6.87121 25.0678C7.30699 25.5414 7.84045 25.9148 8.43471 26.162C9.6178 26.7764 10.9445 27.0607 12.2755 26.9851C13.6172 26.8313 14.8636 26.2154 15.8008 25.243C16.3071 24.782 16.7666 24.272 17.1725 23.7204C17.5977 23.1717 17.8995 22.527 18.3384 21.9509C19.2134 20.8262 20.3947 19.9783 21.7402 19.5093C23.0596 19.0309 24.4519 18.7849 25.8553 18.7823C26.4865 18.8057 27.1094 18.6332 27.6385 18.2885C28.1285 17.9071 28.5191 17.413 28.7771 16.8482C28.8007 16.7676 28.8007 16.6819 28.7771 16.6013C28.7771 16.6013 28.7771 16.519 28.5713 16.4778C28.1979 16.4036 27.8404 16.2643 27.5151 16.0663C27.3438 15.9283 27.2038 15.7554 27.1044 15.5591C27.0051 15.3628 26.9487 15.1476 26.939 14.9278C26.939 14.5163 27.0213 14.1322 27.0076 13.8442C26.9109 12.4624 26.4364 11.1338 25.6359 10.0034C25.2728 9.40927 24.8449 8.85722 24.3602 8.35735C24.1243 8.10707 23.8673 7.87761 23.592 7.6715C23.4869 7.56893 23.3624 7.48823 23.2258 7.43408C23.0893 7.37992 22.9433 7.35339 22.7964 7.35601H22.769Z" fill="#010101"/>
<path d="M9.83172 14.5574C9.42021 14.2282 10.1335 11.814 11.6561 11.1967C12.4105 10.9087 12.5614 11.375 13.453 11.1007C14.3446 10.8264 14.6327 10.1405 16.5393 8.79625C17.0194 8.45332 17.3349 8.26128 17.527 8.38474C17.719 8.50819 17.719 9.38608 17.527 9.90733C17.3586 10.3644 17.0636 10.764 16.6765 11.0596C16.0795 11.4846 15.3656 11.7146 14.6327 11.718C11.903 11.9512 10.3118 14.9552 9.83172 14.5574Z" fill="#D22434"/>
<path d="M9.80668 14.5986C9.73737 14.4949 9.69058 14.3779 9.66931 14.255C9.64805 14.1322 9.65279 14.0062 9.68323 13.8853C9.71568 13.6452 9.76148 13.407 9.8204 13.172C9.93825 12.687 10.1327 12.224 10.3965 11.8003C10.6609 11.3548 11.0594 11.0043 11.535 10.799C11.797 10.6805 12.0881 10.6423 12.3718 10.6892C12.5687 10.7464 12.7709 10.7832 12.9753 10.799C13.7572 10.799 14.4705 10.2091 15.1975 9.63302L16.2674 8.76885L16.8298 8.34362C16.9404 8.29623 17.0552 8.25948 17.1727 8.23388C17.2473 8.18915 17.3327 8.16553 17.4196 8.16553C17.5066 8.16553 17.5919 8.18915 17.6665 8.23388C17.7891 8.33659 17.8845 8.4679 17.9444 8.61623C18.0042 8.76455 18.0265 8.92532 18.0095 9.08434C18.0126 9.33906 17.9803 9.59297 17.9134 9.83878C17.7875 10.3576 17.5219 10.832 17.1453 11.2105C16.7801 11.5721 16.3331 11.8403 15.8422 11.9923C15.3916 12.1021 14.9328 12.1755 14.4705 12.2118C13.6381 12.3697 12.8455 12.6914 12.1386 13.1583C11.7481 13.3891 11.3766 13.6506 11.0275 13.9402C10.8492 14.0773 10.6846 14.2282 10.4925 14.3654C10.3005 14.5026 10.0947 14.7083 9.80668 14.5986ZM9.80668 14.53C9.97129 14.5986 10.177 14.3928 10.3279 14.2557C10.4788 14.1185 10.6434 13.9265 10.7943 13.7481C11.0832 13.3772 11.3947 13.0244 11.7271 12.6919C12.3996 11.9759 13.2844 11.4951 14.251 11.3202C14.6791 11.2838 15.105 11.2243 15.5267 11.1419C15.9113 11.0478 16.2685 10.8646 16.5692 10.6069C16.8935 10.3411 17.1439 9.99626 17.2962 9.60559C17.3658 9.40504 17.4163 9.19836 17.4471 8.98832C17.4722 8.84308 17.4722 8.69461 17.4471 8.54938C17.4471 8.54938 17.1864 8.54938 17.0081 8.67283C16.8127 8.7787 16.6248 8.89786 16.4457 9.02947C16.0629 9.27316 15.7046 9.55338 15.3758 9.86621C15.0329 10.168 14.7448 10.5109 14.3882 10.8401C14.0127 11.2001 13.5322 11.4308 13.0165 11.4985C12.7751 11.5295 12.5308 11.5295 12.2895 11.4985C12.1274 11.4579 11.9577 11.4579 11.7957 11.4985C11.4187 11.6375 11.0769 11.8576 10.7943 12.1432C10.4882 12.4662 10.2295 12.8311 10.0262 13.2269C9.90038 13.4168 9.82009 13.6332 9.79154 13.8592C9.76299 14.0852 9.78695 14.3148 9.86155 14.53H9.80668Z" fill="#010101"/>
<path d="M6.00571 12.2667C8.31017 11.0459 13.4129 13.1858 16.4032 15.3531C17.1851 15.9155 18.4059 16.9168 19.1466 16.4916C20.3263 15.8469 19.5033 12.6097 20.2303 12.3765C20.6966 12.2393 21.602 13.3367 21.7666 14.5849C21.9998 16.2584 20.7241 17.6027 19.709 18.8372C15.0452 24.4749 16.0603 26.9165 13.3718 27.8356C10.6832 28.7546 7.76149 27.1909 6.07429 25.3802C2.2884 21.3748 3.23487 13.7207 6.00571 12.2667Z" fill="#EC2428"/>
<path d="M6.00793 12.2666C7.17374 11.8129 8.45736 11.7598 9.65666 12.1157C10.8612 12.4144 12.033 12.8325 13.1545 13.364C14.2894 13.892 15.377 14.5161 16.4054 15.2295C16.8916 15.6056 17.4051 15.9449 17.9417 16.2446C18.463 16.5463 19.1488 16.6286 19.4643 16.08C19.712 15.5143 19.8292 14.9002 19.8073 14.283V13.3228C19.8073 13.0073 19.8073 12.637 20.1502 12.3764C20.2344 12.3436 20.3259 12.334 20.4151 12.3485C20.5044 12.363 20.5881 12.401 20.6577 12.4587C20.7952 12.5463 20.916 12.6578 21.0144 12.7879C21.2286 13.0293 21.4045 13.3022 21.5356 13.5972C21.8167 14.1907 21.9123 14.8552 21.8099 15.5038C21.4581 16.7316 20.8078 17.8532 19.917 18.7685C19.1138 19.7365 18.3717 20.7535 17.6948 21.8137C17.026 22.8882 16.4391 24.0116 15.9391 25.1743C15.6951 25.7702 15.3918 26.3401 15.0337 26.8753C14.6509 27.3976 14.1134 27.7863 13.4974 27.9863C12.2914 28.391 10.9862 28.391 9.78011 27.9863C8.5765 27.5843 7.47276 26.9295 6.54289 26.066C5.5831 25.2093 4.83232 24.1441 4.34817 22.9522C3.86284 21.7551 3.58454 20.4841 3.52514 19.1937C3.45582 17.9087 3.59478 16.621 3.93666 15.3804C4.2107 14.1188 4.95031 13.007 6.00793 12.2666V12.2666ZM6.00793 12.2666C4.97915 13.0135 4.2691 14.1202 4.01896 15.3667C3.70097 16.6205 3.59435 17.9186 3.70347 19.2074C3.8152 21.7388 4.8956 24.1305 6.72121 25.8876C7.63834 26.7137 8.71747 27.3397 9.88985 27.7257C11.0413 28.1197 12.2911 28.1197 13.4426 27.7257C13.998 27.5382 14.4787 27.1776 14.8143 26.6969C15.1696 26.1794 15.4728 25.6281 15.7196 25.0509C16.2415 23.893 16.8466 22.7744 17.5302 21.7039C18.261 20.6397 19.0582 19.6227 19.917 18.6588C20.8263 17.7826 21.4846 16.6791 21.8237 15.4627C21.9101 14.838 21.8049 14.2019 21.5219 13.6383C21.3902 13.3552 21.2193 13.092 21.0144 12.8565C20.836 12.6507 20.5343 12.3901 20.3148 12.4998C20.0953 12.6096 20.0953 13.0073 20.0816 13.3091V14.2693C20.1127 14.924 19.9906 15.5768 19.725 16.176C19.6434 16.3315 19.5212 16.462 19.3715 16.5537C19.2218 16.6455 19.0501 16.6951 18.8745 16.6972C18.5461 16.6933 18.2245 16.6035 17.9417 16.4366C17.3845 16.1391 16.8564 15.7901 16.3643 15.3941C15.3181 14.6664 14.2122 14.0286 13.0585 13.4874C11.9451 12.9487 10.7831 12.517 9.58807 12.198C8.41466 11.8577 7.16211 11.9107 6.02164 12.3489L6.00793 12.2666Z" fill="#010101"/>
<path d="M6.54099 12.8291C8.83174 11.5946 13.9345 13.7481 16.9248 15.9154C17.7067 16.4778 18.9275 17.4654 19.6682 17.0402C20.8478 16.3955 20.0248 13.172 20.7518 12.9251C21.2182 12.8017 22.1235 13.899 22.3019 15.1336C22.5213 16.8207 21.2456 18.165 20.2306 19.3995C15.5668 25.0372 16.5956 27.4789 13.907 28.3842C11.2185 29.2895 8.28306 27.7395 6.59586 25.9426C2.82368 21.9509 3.77015 14.3242 6.54099 12.8291Z" fill="#D22434"/>
<path d="M6.51275 12.8016C7.68653 12.3458 8.97653 12.2832 10.1889 12.6233C11.4126 12.8771 12.6075 13.254 13.7553 13.7481C14.9154 14.2498 16.0228 14.8655 17.0611 15.5862C17.5436 15.9499 18.0475 16.2842 18.57 16.5875C19.0913 16.8619 19.5714 16.9167 19.8045 16.5052C20.0289 15.9656 20.1499 15.3886 20.1612 14.8043V13.8441C20.1612 13.6795 20.1612 13.5012 20.2435 13.3366C20.2606 13.2251 20.3013 13.1185 20.3628 13.0239C20.4243 12.9293 20.5052 12.8488 20.6001 12.7879C20.7064 12.7452 20.8222 12.7316 20.9355 12.7484C21.0488 12.7653 21.1556 12.8121 21.2448 12.8839C21.3854 12.9885 21.5142 13.1081 21.6289 13.2406C21.8459 13.5002 22.0217 13.7917 22.1502 14.1047C22.4333 14.7171 22.5288 15.3997 22.4245 16.0663C22.0542 17.3064 21.3854 18.4368 20.4767 19.3584C19.6822 20.3298 18.9579 21.3566 18.3094 22.431C17.6708 23.516 17.1071 24.6435 16.6222 25.8054C16.4016 26.4144 16.1262 27.002 15.7992 27.5611C15.3944 28.1328 14.8177 28.5605 14.1531 28.782C12.9097 29.2071 11.5618 29.2167 10.3124 28.8094C9.07291 28.401 7.93276 27.7375 6.96541 26.8616C5.98286 25.9727 5.21786 24.8698 4.72954 23.6381C4.23828 22.4115 3.97786 21.1048 3.96139 19.7836C3.92639 18.4836 4.10242 17.1865 4.48263 15.9428C4.73995 14.6776 5.46488 13.5559 6.51275 12.8016V12.8016ZM6.51275 12.8702C5.49741 13.6225 4.80212 14.7291 4.56494 15.9703C4.28648 17.198 4.21233 18.4632 4.34546 19.715C4.51978 22.174 5.59993 24.4809 7.37693 26.1894C8.26336 26.9771 9.29887 27.5788 10.4221 27.9589C11.5108 28.3593 12.7006 28.393 13.8102 28.055C14.935 27.7532 15.5111 26.6833 16.0461 25.531C16.5933 24.37 17.226 23.2513 17.939 22.1841C18.6386 21.1279 19.4616 20.1539 20.2572 19.18C21.1555 18.3162 21.8046 17.2264 22.1364 16.0251C22.2273 15.4197 22.1266 14.801 21.8484 14.2556C21.7197 13.9874 21.5483 13.7418 21.3409 13.5286C21.1763 13.3229 20.8333 13.1308 20.7922 13.2131C20.751 13.2954 20.655 13.6109 20.655 13.899V14.8455C20.6982 15.5395 20.5808 16.2342 20.3121 16.8756C20.21 17.0609 20.0615 17.2165 19.8811 17.3271C19.7008 17.4377 19.4948 17.4995 19.2833 17.5066C18.9178 17.5074 18.5585 17.4129 18.2408 17.2322C17.6698 16.9382 17.1318 16.5842 16.6359 16.176C15.6421 15.4517 14.5968 14.8007 13.5084 14.2282C12.4233 13.6583 11.2836 13.1987 10.1066 12.8565C8.95539 12.4562 7.702 12.4611 6.5539 12.8702H6.51275Z" fill="#010101"/>
<path d="M9.65513 2.2121C9.53168 1.44395 7.02146 0.977567 6.5688 1.69085C6.11614 2.40414 7.26837 3.06255 7.26837 4.72231C7.2058 5.37049 7.0724 6.00986 6.87058 6.62898C6.66482 7.8498 6.9666 8.67282 7.67988 10.9498C9.05158 15.3393 8.79096 14.9826 9.12017 15.6411C10.1764 17.63 10.8348 17.3968 12.2477 19.6053C13.3039 21.2788 14.3738 22.966 13.9897 24.8726C13.7788 25.6621 13.4001 26.3968 12.8793 27.0265C12.3585 27.6562 11.7079 28.1661 10.972 28.5214C9.16609 28.1184 7.4591 27.3582 5.95154 26.2855C4.57983 25.3253 1.17801 22.8974 1.08199 19.6464C0.999691 16.7659 3.59221 16.6287 4.68957 12.2804C5.55374 8.83742 4.30549 7.35598 5.77322 5.271C7.24094 3.18601 9.76487 2.99397 9.65513 2.2121Z" fill="#D22434"/>
<path d="M9.61334 2.22581C9.51732 1.91032 9.1744 1.74572 8.8589 1.62226C8.54172 1.49771 8.20976 1.41472 7.87128 1.37536C7.5426 1.349 7.21193 1.38626 6.89737 1.48509C6.7602 1.48509 6.62303 1.6497 6.5956 1.78687C6.58228 1.93954 6.61577 2.09265 6.69161 2.22581C7.04914 2.85556 7.2951 3.54238 7.41861 4.25593C7.48002 4.62835 7.48002 5.00831 7.41861 5.38073C7.35003 5.75109 7.22658 6.06658 7.17171 6.39579C7.07406 7.75746 7.32424 9.1216 7.89871 10.36C8.35137 11.7317 8.73545 13.1034 9.10581 14.4751C9.17113 14.7947 9.26761 15.1071 9.39387 15.4079C9.53378 15.7137 9.69896 16.0074 9.88768 16.2858C10.2977 16.8424 10.7567 17.3612 11.2594 17.8358C11.727 18.3697 12.1405 18.9486 12.4939 19.5641C12.8506 20.1814 13.2346 20.7712 13.5364 21.4022C13.9006 22.0317 14.1279 22.7308 14.2036 23.4541C14.2792 24.1774 14.2014 24.9085 13.9754 25.5996C13.4003 26.9212 12.3946 28.0091 11.1222 28.686V28.686H11.0399C9.59945 28.4094 8.21102 27.9095 6.9248 27.2045C5.64338 26.5078 4.44666 25.6655 3.35838 24.6943C2.20955 23.6834 1.3483 22.3868 0.861879 20.9358C0.635019 20.155 0.606728 19.3299 0.779575 18.5354C1.00816 17.7692 1.40141 17.0623 1.9318 16.4641C2.89246 15.435 3.63442 14.2217 4.11281 12.8977C4.56389 11.5454 4.77738 10.1253 4.7438 8.70025C4.71323 7.94761 4.79177 7.19451 4.97699 6.46437C5.22758 5.74527 5.6461 5.09633 6.1978 4.57142C6.72677 4.07514 7.32233 3.65502 7.9673 3.32317L8.92749 2.8568C9.08572 2.78335 9.23719 2.69614 9.38015 2.59617C9.48989 2.51387 9.64077 2.39042 9.61334 2.22581ZM9.68193 2.22581C9.68979 2.32437 9.66946 2.42312 9.62331 2.51056C9.57717 2.598 9.5071 2.67051 9.4213 2.71963C9.2744 2.83286 9.11841 2.9338 8.95492 3.0214L8.00845 3.51521C7.37926 3.83717 6.81623 4.27457 6.34869 4.80461C5.86999 5.31584 5.52589 5.93804 5.34734 6.61526C5.22095 7.31684 5.19785 8.03313 5.27876 8.7414C5.4056 10.2336 5.25207 11.7363 4.8261 13.172C4.34551 14.6022 3.56974 15.9154 2.54907 17.0265C2.10238 17.5195 1.76985 18.1049 1.57516 18.7411C1.44791 19.387 1.47138 20.0536 1.64375 20.6889C2.06435 22.0036 2.82087 23.1856 3.83847 24.1182C4.85518 25.0916 5.9673 25.9601 7.15799 26.7107C8.3504 27.4355 9.64518 27.9765 10.9988 28.3156H10.8616C12.0691 27.7506 13.04 26.7797 13.605 25.5722C13.854 24.9311 13.9343 24.2368 13.8382 23.5558C13.7244 22.8736 13.4972 22.2152 13.166 21.608C12.5285 20.3827 11.7305 19.2479 10.793 18.2336C9.63997 17.3452 8.79542 16.1167 8.37881 14.722C8.00845 13.3503 7.54207 12.0472 7.15799 10.6892C6.95224 10.0034 6.74648 9.31751 6.5956 8.61795C6.41037 7.88416 6.41037 7.11586 6.5956 6.38207C6.6779 6.01171 6.8425 5.6825 6.9248 5.36701C7.00368 5.0441 7.02687 4.7101 6.99339 4.37939C6.92516 3.69271 6.73469 3.02377 6.43099 2.40413C6.35256 2.22286 6.32873 2.02264 6.36241 1.82802C6.40034 1.7356 6.45624 1.65163 6.52688 1.58099C6.59752 1.51035 6.68149 1.45444 6.77392 1.41651C7.11047 1.30993 7.46605 1.27718 7.81641 1.32049C8.19922 1.32372 8.57901 1.38856 8.94121 1.51253C9.21555 1.66341 9.57219 1.8143 9.68193 2.19838V2.22581Z" fill="#010101"/>
</svg>
