<svg width="484" height="499" viewBox="0 0 484 499" fill="none" xmlns="http://www.w3.org/2000/svg">
<path d="M80.3002 281.2C48.5002 244.8 23.3002 202.7 6.10023 157.6C2.70023 148.6 -0.299772 138.1 4.60023 129.8C8.00023 124 14.5002 120.8 20.7002 118.3C58.1002 103 99.8002 98.5004 139.6 105.3C148.4 106.8 158 108.7 165.6 104C170.5 100.9 173.5 95.7004 176.3 90.7004C189.3 68.3004 204.7 47.2004 222.3 28.2004C234.8 14.6004 251 1.1004 269.4 3.2004C291.8 5.8004 304.6 29.9004 311.3 51.5004C320.3 80.5004 325.7 110.7 327.1 141C327.4 147.6 327.8 154.9 332.6 159.4C336.2 162.7 341.3 163.7 346.1 164.5C387.7 171.2 432.2 176.6 464.3 203.9C473.3 211.5 481.3 221.7 481.5 233.5C481.8 248.1 470.2 259.9 459.1 269.3C427.2 296.5 391.8 319.7 354.1 338.2C355.4 384.8 348.8 431.5 334.8 475.9C332.2 484.1 328.2 493.3 320 495.7C316.8 496.6 313.4 496.3 310.2 495.8C288.7 492.5 269.6 480.2 253.6 465.6C237.5 451 223.8 434 208.3 418.8C205.2 415.8 201.9 412.7 197.8 411.3C191 408.9 183.6 411.5 176.9 414C152.5 423.1 128.2 432.1 103.8 441.2C85.0002 448.2 62.4002 454.7 46.4002 442.6C31.1002 431 30.6002 408.4 33.7002 389.4C40.1002 350.4 56.2002 313 80.1002 281.6L80.3002 281.2Z" fill="#FFD500"/>
<path d="M80.6002 281.5C80.5002 281.4 80.4002 281.3 80.3002 281.2C48.5002 244.8 23.3002 202.7 6.10023 157.6C2.70023 148.6 -0.299772 138.1 4.60023 129.8C8.00023 124 14.5002 120.8 20.7002 118.3C58.1002 103 99.8002 98.5004 139.6 105.3C148.4 106.8 158 108.7 165.6 104C170.5 100.9 173.5 95.7004 176.3 90.7004C189.3 68.3004 204.7 47.2004 222.3 28.2004C234.8 14.6004 251 1.1004 269.4 3.2004C291.8 5.8004 304.6 29.9004 311.3 51.5004C320.3 80.5004 325.7 110.7 327.1 141C327.4 147.6 327.8 154.9 332.6 159.4C336.2 162.7 341.3 163.7 346.1 164.5C387.7 171.2 432.2 176.6 464.3 203.9C473.3 211.5 481.3 221.7 481.5 233.5C481.8 248.1 470.2 259.9 459.1 269.3C427.2 296.5 391.8 319.7 354.1 338.2C355.4 384.8 348.8 431.5 334.8 475.9C332.2 484.1 328.2 493.3 320 495.7C316.8 496.6 313.4 496.3 310.2 495.8C288.7 492.5 269.6 480.2 253.6 465.6C237.5 451 223.8 434 208.3 418.8C205.2 415.8 201.9 412.7 197.8 411.3C191 408.9 183.6 411.5 176.9 414C152.5 423.1 128.2 432.1 103.8 441.2C85.0002 448.2 62.4002 454.7 46.4002 442.6C31.1002 431 30.6002 408.4 33.7002 389.4C40.1002 350.4 56.2002 313 80.1002 281.6" stroke="black" stroke-width="4" stroke-miterlimit="10" stroke-linecap="round" stroke-linejoin="round"/>
<g opacity="0.35">
<path opacity="0.35" d="M16.4001 127.601C13.9001 128.901 12.7001 131.901 12.1001 134.701C9.70011 146.601 15.0001 158.701 20.2001 169.701C37.0001 205.401 54.1001 241.701 80.6001 271.001C81.7001 272.201 82.9001 273.501 84.5001 273.601C86.4001 273.801 88.0001 272.501 89.4001 271.201C96.2001 265.101 103.1 259.101 109.9 253.001C111.9 251.201 114.1 249.101 114.5 246.401C114.8 244.201 113.8 242.001 112.7 240.001C89.6001 196.101 43.4001 169.101 15.3001 128.201" fill="#F9F5E4"/>
</g>
<g opacity="0.35">
<path opacity="0.35" d="M181.9 97.4999C179.7 103 184.4 108.6 188.9 112.4C193.9 116.6 199.3 120.5 204.8 124.1C207.9 126.1 211.8 128 215.1 126.4C217.2 125.4 218.5 123.2 219.6 121.1C228.3 104.1 232.7 85.2999 240 67.6999C247.4 50.0999 258.6 32.8999 275.9 24.8999C280 22.9999 285.1 20.3999 284.6 15.9999C284.4 14.3999 283.4 12.8999 282.3 11.6999C275.7 4.79994 264.5 4.09993 255.6 7.59993C246.7 11.0999 239.6 17.8999 232.9 24.6999C211.5 46.2999 190.7 69.7999 180.5 98.3999" fill="#F9F5E4"/>
</g>
<g opacity="0.35">
<path opacity="0.35" d="M342.8 175.4C344.6 182.1 343.4 189.2 344 196.1C344.6 203 347.9 210.6 354.6 212.5C357.5 213.3 360.6 212.9 363.6 212.6C382.6 210.4 402 211.2 420.8 215C429.4 216.7 438.4 219.4 443.9 226.2C450.9 234.7 452.2 249 462.7 252.1C472 254.8 481.2 244.6 480.9 234.9C480.6 225.2 474 216.9 466.9 210.2C456.4 200.3 444.2 192.3 430.9 186.6C414.8 179.7 397.5 176.4 380.4 173C372.7 171.5 365.1 170 357.4 168.5C354.1 167.9 350.7 167.2 347.5 168.3C344.3 169.3 341.6 172.6 342.5 175.9" fill="#F9F5E4"/>
</g>
<g opacity="0.35">
<path opacity="0.35" d="M299.2 451.301C292.4 461.901 294.2 477.201 303.3 485.901C306.2 488.701 310.1 490.901 314 490.101C316.1 489.701 318 488.501 319.7 487.001C331.6 476.801 332.5 459.101 334.8 443.501C336.5 431.401 339.6 419.601 342 407.701C345.9 387.601 347.7 367.101 347.4 346.701C347.3 343.301 347.1 339.601 345 336.901C342.2 333.301 336.6 332.801 332.5 334.801C328.4 336.801 325.6 340.801 323.8 345.001C319 356.201 320 368.801 319.8 381.001C319.2 405.701 310.4 429.401 299.2 451.301Z" fill="#F9F5E4"/>
</g>
<g opacity="0.35">
<path opacity="0.35" d="M41.8001 401.701C36.5001 417.101 45.6001 435.901 61.0001 441.401C78.6001 447.601 97.3001 437.401 114.1 429.101C136.5 418.001 160.3 409.701 184.7 404.601C186.7 404.201 189.1 403.501 189.9 401.601C190.3 400.601 190.2 399.601 190 398.601C187.9 385.801 175 375.901 162.1 377.001C149.9 378.101 140.3 387.301 130.7 394.901C121.3 402.401 111 408.801 100.1 413.901C94.4001 416.601 88.3001 418.901 82.0001 418.701C75.6001 418.401 69.6001 415.501 63.9001 412.701C56.4001 408.901 48.9001 405.201 41.3001 401.401" fill="#F9F5E4"/>
</g>
<path d="M384.3 212.101C402.4 212.001 420.1 215.901 436.3 223.801C438 224.601 439.6 222.101 437.8 221.201C421 213.101 402.9 208.901 384.3 209.101C382.3 209.101 382.3 212.101 384.3 212.101Z" fill="black"/>
<path d="M300 448.9C308.7 435.8 313.8 420.9 315 405.2C315.1 403.3 312.1 403.3 312 405.2C310.9 420.4 305.9 434.7 297.4 447.4C296.3 449 298.9 450.5 300 448.9Z" fill="black"/>
<path d="M61.3 409.801C77.9 412.001 94.5 408.001 108.4 398.701C110 397.601 108.5 395.001 106.9 396.101C93.4 405.201 77.4 408.901 61.3 406.801C59.4 406.601 59.4 409.601 61.3 409.801Z" fill="black"/>
<path d="M26.2002 139.8C34.7002 151.1 44.5002 161.2 55.6002 170C57.1002 171.2 59.2002 169.1 57.7002 167.9C46.8002 159.3 37.1002 149.4 28.7002 138.3C27.6002 136.8 25.0002 138.3 26.2002 139.8Z" fill="black"/>
<path d="M247 65.5003C253.2 53.4003 262.7 43.7003 274.7 37.3003C276.4 36.4003 274.9 33.8003 273.2 34.7003C260.7 41.3003 250.8 51.4003 244.4 64.0003C243.5 65.7003 246.1 67.2003 247 65.5003Z" fill="black"/>
</svg>
