<svg width="93" height="120" viewBox="0 0 93 120" fill="none" xmlns="http://www.w3.org/2000/svg">
<g clip-path="url(#clip0)">
<path d="M35.1 119.72C34.0514 114.263 33.7553 108.688 34.22 103.15C34.6389 97.5461 36.0085 92.0544 38.27 86.91C39.4407 84.3673 40.8363 81.9343 42.44 79.64C44 77.35 45.63 75.15 47 72.8C48.381 70.4697 49.3929 67.9398 50 65.3C50.5853 62.6738 50.8771 59.9906 50.87 57.3C50.8631 54.6388 50.5272 51.9887 49.87 49.41C49.2801 46.8957 48.2106 44.5189 46.72 42.41C46.0114 41.4165 45.1664 40.5278 44.21 39.77C43.6958 39.4221 43.1616 39.1048 42.61 38.82C41.9466 38.4679 41.3084 38.0703 40.7 37.63C39.5221 36.7412 38.4366 35.7361 37.46 34.63C36.4798 33.5706 35.5743 32.4446 34.75 31.26C31.3512 26.4913 29.7403 20.6779 30.2 14.84C30.8247 9.13434 33.5176 3.85513 37.77 -1.27442e-05C37.7997 -0.0281452 37.8391 -0.0438232 37.88 -0.0438232C37.9209 -0.0438232 37.9603 -0.0281452 37.99 -1.27442e-05C38.0119 0.0267888 38.0239 0.0603545 38.0239 0.0949873C38.0239 0.12962 38.0119 0.163186 37.99 0.189987C34.648 4.42184 32.7455 9.6108 32.56 15C32.5693 20.213 34.2596 25.284 37.38 29.46C38.1305 30.5095 38.9454 31.5114 39.82 32.46C40.6729 33.408 41.5991 34.2874 42.59 35.09C43.0801 35.4629 43.5983 35.7972 44.14 36.09C44.7852 36.4788 45.4063 36.9062 46 37.37C47.1613 38.3501 48.1721 39.4957 49 40.77C50.6163 43.2134 51.6998 45.9699 52.18 48.86C52.6515 51.6618 52.7357 54.5152 52.43 57.34C52.1744 60.1106 51.6962 62.8561 51 65.55C50.2595 68.233 49.2161 70.8229 47.89 73.27C46.6 75.73 45.14 78.07 43.89 80.49C42.6382 82.8778 41.5393 85.3428 40.6 87.87C39.6576 90.377 38.8432 92.9303 38.16 95.52C37.4848 98.1226 36.9507 100.76 36.56 103.42C35.8199 108.812 35.4424 114.247 35.43 119.69C35.43 119.711 35.4259 119.731 35.4177 119.75C35.4095 119.769 35.3976 119.786 35.3826 119.8C35.3676 119.814 35.3498 119.825 35.3305 119.832C35.3111 119.838 35.2905 119.841 35.27 119.84C35.2509 119.844 35.231 119.845 35.2118 119.841C35.1925 119.837 35.1743 119.829 35.1583 119.818C35.1422 119.807 35.1288 119.792 35.1187 119.775C35.1087 119.758 35.1023 119.739 35.1 119.72Z" fill="#1E6F5D"/>
<path d="M57.8499 18.93C59.9406 20.5947 62.2155 22.014 64.6299 23.16C66.3923 24.0014 68.222 24.6938 70.0999 25.23C67.8799 23.23 67.4799 22.65 67.5799 22.52C67.6799 22.39 69.0699 23.27 71.0199 23.82C72.5405 24.2507 74.133 24.3664 75.6999 24.16L72.6999 22.33C75.1976 22.9233 77.8155 22.7597 80.2199 21.86C81.4346 21.3889 82.5682 20.731 83.5799 19.91L80.8199 19.39C81.9902 19.2973 83.1148 18.8946 84.0779 18.2232C85.0411 17.5518 85.808 16.636 86.2999 15.57L84.1599 15.24C85.5685 14.3943 86.874 13.3875 88.0499 12.24C89.423 10.9087 90.6103 9.39848 91.5799 7.74999L82.5799 6.07999C83.1499 5.82999 83.4299 5.62999 83.3999 5.47999C83.3199 5.02666 80.5699 5.02666 75.1499 5.47999L76.1499 4.13999C74.3653 3.64208 72.4658 3.75113 70.7499 4.44999C69.0599 5.20999 67.8699 6.58999 67.6499 6.38999C67.4299 6.18999 67.6499 5.86999 68.6499 4.38999C67.279 4.45703 65.9623 4.946 64.8799 5.78999C63.7799 6.69999 63.1699 7.90999 62.9699 7.78999C62.7699 7.66999 63.5799 5.93999 63.3899 5.83999C63.1999 5.73999 60.9999 8.99999 59.3199 12.52C58.4315 14.2169 57.9231 16.0869 57.8299 18C57.8199 18.39 57.8399 18.71 57.8499 18.93Z" fill="#3E9581"/>
<path d="M57.9203 18.89C58.8203 19.51 59.8103 20.17 60.7903 20.74C61.7703 21.31 62.7903 21.84 63.7903 22.35C65.8498 23.3328 67.9999 24.1131 70.2103 24.68L69.6803 25.68C68.8838 25.0065 68.1228 24.2922 67.4003 23.54C67.3103 23.43 67.2203 23.32 67.1203 23.18C67.0559 23.0898 67.0022 22.9925 66.9603 22.89C66.9558 22.8401 66.9558 22.7899 66.9603 22.74C66.9452 22.6506 66.9452 22.5593 66.9603 22.47C66.9848 22.3202 67.0587 22.1829 67.1703 22.08C67.2713 21.9897 67.3964 21.9306 67.5303 21.91C67.6915 21.8731 67.859 21.8731 68.0203 21.91L68.2503 22L68.6203 22.16C69.0903 22.38 69.5303 22.59 69.9803 22.77C71.7684 23.4859 73.7097 23.7337 75.6203 23.49L75.3603 24.73C74.3603 24.12 73.3603 23.48 72.3603 22.86L68.9203 20.73L72.8203 21.73C74.6138 22.1943 76.4865 22.266 78.3103 21.94C80.1516 21.5964 81.8856 20.822 83.3703 19.68L83.5103 20.21L80.7603 19.64L79.0003 19.27L80.8003 19.14C81.9195 19.0566 82.9949 18.67 83.911 18.0216C84.8271 17.3733 85.5494 16.4877 86.0003 15.46L86.1903 15.82L84.0403 15.51L83.3003 15.4L84.0003 15C86.9592 13.1422 89.3959 10.5609 91.0803 7.49998L91.4403 8.28998L86.9303 7.54998L82.4303 6.77998L80.2203 6.40998L82.2803 5.46998C82.4309 5.40787 82.575 5.33081 82.7103 5.23998H82.7903C82.7253 5.31567 82.6867 5.41044 82.6803 5.50998C82.6532 5.61493 82.6532 5.72504 82.6803 5.82998C82.6803 5.91998 82.8303 5.99998 82.8103 5.99998C82.9903 6.09998 82.7403 5.99998 82.6103 5.99998H82.0803C81.3503 5.99998 80.5703 5.99998 79.8003 5.99998C78.2603 6.07998 76.7003 6.21998 75.1503 6.36998L73.3703 6.54998L74.5003 5.06998L75.5003 3.71998L76.0003 4.99998C74.3239 4.52799 72.5357 4.65168 70.9403 5.34998C70.1354 5.76371 69.3777 6.26328 68.6803 6.83998C68.5607 6.93355 68.4336 7.01717 68.3003 7.08998C68.2513 7.12463 68.1974 7.1516 68.1403 7.16998H68.0503H67.8403C67.7486 7.19508 67.6519 7.19508 67.5603 7.16998C67.41 7.13579 67.2697 7.06735 67.1503 6.96998C67.0674 6.89107 67.0008 6.79656 66.9545 6.69189C66.9082 6.58721 66.883 6.47442 66.8803 6.35998C66.8765 6.14396 66.9174 5.92949 67.0003 5.72998C67.0703 5.57998 67.1303 5.46998 67.2003 5.34998C67.4449 4.91312 67.7119 4.48922 68.0003 4.07998L68.6703 5.23998C67.7892 5.2725 66.9244 5.487 66.1303 5.86998C65.3473 6.2792 64.6644 6.85628 64.1303 7.55998L63.6503 8.14998L63.4503 8.34998L63.3603 8.40998L63.1603 8.50998C63.0235 8.55234 62.8771 8.55234 62.7403 8.50998C62.5869 8.46429 62.4576 8.36014 62.3803 8.21998C62.3278 8.14565 62.2936 8.06001 62.2803 7.96998C62.275 7.91344 62.275 7.85652 62.2803 7.79998V7.62998C62.2803 7.53998 62.2803 7.44998 62.3403 7.38998C62.4103 7.10998 62.5003 6.87998 62.5803 6.64998C62.6591 6.45424 62.7259 6.25387 62.7803 6.04998C62.7803 6.04998 62.7803 6.04998 62.7803 6.12998C62.8015 6.20535 62.8382 6.27544 62.8882 6.33573C62.9381 6.39601 63.0002 6.44516 63.0703 6.47998C63.1586 6.50474 63.252 6.50474 63.3403 6.47998H63.4403H63.5303C63.4622 6.54201 63.3987 6.60884 63.3403 6.67998C63.2003 6.83998 63.0503 7.02998 62.9103 7.21998C62.6303 7.58998 62.3503 7.97998 62.0903 8.37998C61.0242 9.98141 60.0654 11.6517 59.2203 13.38C58.7933 14.2355 58.4581 15.1338 58.2203 16.06C58.0111 16.9885 57.9105 17.9382 57.9203 18.89ZM57.7803 18.96C57.5792 16.9717 57.889 14.965 58.6803 13.13C59.4249 11.3107 60.2971 9.54634 61.2903 7.84998C61.5403 7.41998 61.7903 6.99998 62.0703 6.57998C62.2103 6.36998 62.3503 6.15998 62.5203 5.94998C62.6152 5.83233 62.7188 5.72202 62.8303 5.61998L63.0003 5.49998C63.0541 5.46758 63.111 5.44078 63.1703 5.41998H63.3203C63.4266 5.41945 63.5319 5.43984 63.6303 5.47998C63.7135 5.51934 63.787 5.57645 63.8458 5.64728C63.9045 5.71812 63.947 5.80096 63.9703 5.88998C63.984 5.92553 63.9941 5.96239 64.0003 5.99998C64.0122 6.06947 64.0122 6.14049 64.0003 6.20998C63.9414 6.47712 63.8679 6.74084 63.7803 6.99998C63.7103 7.22998 63.6303 7.45998 63.5903 7.64998C63.5503 7.83998 63.5903 7.73998 63.5903 7.76998C63.5952 7.74354 63.5952 7.71642 63.5903 7.68998C63.5735 7.63084 63.55 7.57381 63.5203 7.51998C63.4477 7.41516 63.3421 7.3377 63.2203 7.29998C63.1125 7.26914 62.9981 7.26914 62.8903 7.29998C62.8467 7.31181 62.8059 7.33221 62.7703 7.35998L62.8203 7.29998L63.2403 6.73998C63.8616 5.87211 64.6632 5.1489 65.5903 4.61998C66.5403 4.1211 67.5809 3.81843 68.6503 3.72998L70.1503 3.57998L69.3303 4.87998C69.0803 5.27998 68.8203 5.66998 68.6203 6.04998C68.571 6.13354 68.5276 6.22042 68.4903 6.30998C68.4903 6.30998 68.4903 6.50998 68.4903 6.30998C68.4795 6.13887 68.4045 5.97814 68.2803 5.85998C68.1902 5.77094 68.0751 5.71162 67.9503 5.68998C67.8873 5.68122 67.8233 5.68122 67.7603 5.68998C67.7208 5.68098 67.6798 5.68098 67.6403 5.68998L67.8603 5.52998C68.5866 4.90868 69.3739 4.36255 70.2103 3.89998C71.1655 3.43137 72.2074 3.16579 73.2703 3.11998C74.3032 3.07626 75.337 3.18065 76.3403 3.42998L77.5403 3.71998L76.7903 4.71998L75.7503 5.99998L75.0603 4.72998C76.6303 4.60998 78.2003 4.49998 79.7903 4.44998C80.5803 4.44998 81.3803 4.44998 82.2003 4.44998L82.8503 4.50998C83.1773 4.53821 83.4912 4.65202 83.7603 4.83998C83.8599 4.91185 83.9391 5.00833 83.9903 5.11998C84.0679 5.25641 84.0994 5.41421 84.0803 5.56998C84.0518 5.76765 83.9647 5.95224 83.8303 6.09998C83.7167 6.21546 83.589 6.31624 83.4503 6.39998C83.2498 6.51518 83.0428 6.61868 82.8303 6.70998L82.6803 5.38998L87.1603 6.28998L91.6303 7.21998L92.3903 7.37998L92.0003 7.99998C91.0354 9.53696 89.887 10.9507 88.5803 12.21C87.2697 13.4496 85.82 14.5335 84.2603 15.44L84.1603 14.93L86.3003 15.28H86.6303L86.4903 15.59C85.9727 16.6947 85.1753 17.6451 84.1772 18.3467C83.1792 19.0483 82.0151 19.4769 80.8003 19.59V19.09L83.5703 19.56L84.1903 19.67L83.7003 20.09C82.188 21.3884 80.3939 22.3163 78.4603 22.8C76.4917 23.2743 74.4422 23.3051 72.4603 22.89L73.0003 21.8C74.0003 22.39 75.0003 22.98 76.0703 23.59L77.6903 24.59L75.8103 24.85C73.6721 25.1318 71.4974 24.8383 69.5103 24C69.0203 23.79 68.5103 23.56 68.1003 23.34L67.7803 23.19L67.6503 23.14C67.6503 23.14 67.5703 23.14 67.7703 23.14C67.8564 23.111 67.935 23.0632 68.0003 23C68.0891 22.9138 68.1486 22.8018 68.1703 22.68C68.1751 22.6234 68.1751 22.5665 68.1703 22.51V22.46C68.2264 22.5486 68.29 22.6322 68.3603 22.71C69.0214 23.4445 69.7189 24.1454 70.4503 24.81L72.2603 26.5L69.9203 25.77C67.6906 25.0617 65.5367 24.1338 63.4903 23C62.4524 22.4396 61.4504 21.8151 60.4903 21.13C59.5419 20.4792 58.6367 19.7677 57.7803 19V18.96Z" fill="#231F20"/>
<path d="M57.9999 18.63C59.8481 19.8861 61.8303 20.9325 63.9099 21.75C65.4364 22.3526 67.0079 22.8341 68.6099 23.19C66.6099 21.69 66.2799 21.19 66.3599 21.13C66.4399 21.07 67.6399 21.67 69.3599 22.04C70.6555 22.3211 71.9929 22.3516 73.2999 22.13L70.6499 20.79C72.7606 21.16 74.9326 20.9313 76.9199 20.13C77.9084 19.7147 78.826 19.1479 79.6399 18.45L77.2899 18.14C78.2773 18.003 79.2116 17.61 79.9999 17C80.7252 16.4432 81.2909 15.7051 81.6399 14.86L79.8299 14.68C80.957 13.9623 81.9972 13.1167 82.9299 12.16C84.0053 11.0563 84.9208 9.80751 85.6499 8.44997L77.9999 7.48997C78.4699 7.25997 78.6799 7.08997 78.6499 6.97997C78.5699 6.61997 76.2599 6.73997 71.7399 7.32997L72.5299 6.21997C71.0105 5.88399 69.4235 6.04164 67.9999 6.66997C66.6199 7.33997 65.6999 8.47997 65.4999 8.32997C65.2999 8.17997 65.4999 7.91997 66.2199 6.73997C65.1011 6.84946 64.0398 7.28791 63.1699 7.99997C62.2999 8.76997 61.8499 9.75997 61.6799 9.67997C61.5099 9.59997 62.0899 8.18997 61.9299 8.11997C61.7699 8.04997 60.0799 10.64 58.9299 13.48C58.2613 14.8604 57.9191 16.3762 57.9299 17.91C57.9999 18.21 57.9999 18.46 57.9999 18.63Z" fill="#1E6F5D"/>
<path d="M57.8096 18.86C59.6696 17.75 61.5596 16.7 63.4996 15.72C65.4396 14.74 67.4296 13.87 69.4396 13.05C71.4353 12.1726 73.4945 11.4472 75.5996 10.88C77.7233 10.3816 79.8898 10.0869 82.0696 10V10.15C80.0696 11.06 78.0096 11.65 75.9796 12.36C73.9496 13.07 71.8596 13.53 69.8196 14.2C67.7796 14.87 65.8196 15.62 63.8196 16.43C61.8196 17.24 59.8196 18.09 57.8896 19.02L57.8096 18.86Z" fill="#231F20"/>
<path d="M60.7697 17.38C61.537 17.4093 62.297 17.5405 63.0297 17.77C63.7134 18.023 64.3813 18.3169 65.0297 18.65C65.7057 18.9292 66.4008 19.1598 67.1097 19.34C67.8279 19.5364 68.5555 19.6966 69.2897 19.82V20C68.5305 20.0969 67.7648 20.1337 66.9997 20.11C66.2274 20.0716 65.4587 19.978 64.6997 19.83C63.9206 19.747 63.1623 19.5269 62.4597 19.18C61.7518 18.7829 61.1538 18.2159 60.7197 17.53L60.7697 17.38Z" fill="#231F20"/>
<path d="M60.7898 17.37C60.4796 16.6562 60.369 15.8717 60.4698 15.1C60.6001 14.3599 60.8609 13.6489 61.2398 13C61.8674 11.6762 62.6973 10.4583 63.6998 9.38998L63.8298 9.47998C63.213 10.7449 62.7239 12.0681 62.3698 13.43C62.2704 14.1062 62.1234 14.7745 61.9298 15.43C61.6874 16.1228 61.351 16.7789 60.9298 17.38L60.7898 17.37Z" fill="#231F20"/>
<path d="M64.7599 15.41C65.4859 15.425 66.2076 15.5257 66.9099 15.71C67.5522 15.9279 68.183 16.1782 68.7999 16.46C70.1233 16.8992 71.4981 17.1648 72.8899 17.25V17.4C71.4609 17.7522 69.978 17.8303 68.5199 17.63C67.769 17.5963 67.0318 17.4163 66.3499 17.1C65.6536 16.7494 65.0711 16.2084 64.6699 15.54L64.7599 15.41Z" fill="#231F20"/>
<path d="M64.6498 15.45C64.4683 14.7957 64.4683 14.1043 64.6498 13.45C64.8505 12.8412 65.1625 12.2749 65.5698 11.78C66.2528 10.7226 67.0696 9.75796 67.9998 8.90997L68.1198 9.00997C67.5588 10.0886 67.0645 11.2007 66.6398 12.34C66.4785 12.912 66.2642 13.4677 65.9998 14C65.6832 14.564 65.2664 15.0655 64.7698 15.48L64.6498 15.45Z" fill="#231F20"/>
<path d="M69.9096 13.21C70.4662 13.1394 71.0308 13.1631 71.5796 13.28C72.0574 13.4321 72.5195 13.6297 72.9596 13.87C73.4318 14.0585 73.9206 14.2024 74.4196 14.3C74.9296 14.39 75.4196 14.47 75.9896 14.58V14.73C75.4696 14.86 74.9196 14.94 74.3596 15.05C73.8009 15.1049 73.2382 15.1049 72.6796 15.05C72.0974 15.058 71.5216 14.9278 70.9996 14.67C70.4675 14.3695 70.0493 13.9021 69.8096 13.34L69.9096 13.21Z" fill="#231F20"/>
<path d="M69.8005 13.25C69.5764 12.7621 69.5168 12.2147 69.6305 11.69C69.7699 11.2149 70.0201 10.7796 70.3605 10.42C70.9263 9.62163 71.5993 8.90491 72.3605 8.28998L72.4805 8.38998C72.1013 9.22809 71.7675 10.086 71.4805 10.96C71.3904 11.4097 71.2283 11.8419 71.0005 12.24C70.7271 12.672 70.3575 13.0348 69.9205 13.3L69.8005 13.25Z" fill="#231F20"/>
<path d="M75.8203 11.56C76.2362 11.4256 76.6759 11.3813 77.1103 11.43C77.4703 11.43 77.7303 11.75 78.1103 11.89C78.8111 12.178 79.5377 12.399 80.2803 12.55V12.7C79.9003 12.83 79.5003 12.91 79.0903 13.01C78.6728 13.0668 78.2509 13.0835 77.8303 13.06C77.4003 13.1012 76.9674 13.0215 76.5803 12.83C76.1732 12.5664 75.8859 12.1534 75.7803 11.68L75.8203 11.56Z" fill="#231F20"/>
<path d="M75.7098 11.6C75.4637 11.2478 75.3601 10.8155 75.4198 10.39C75.4198 10.01 75.7798 9.76 75.9898 9.47C76.4289 8.90422 76.9516 8.40854 77.5398 8L77.6598 8.09C77.4398 8.76 77.2298 9.4 77.0698 10.03C76.9798 10.35 77.0698 10.71 76.8098 10.96C76.5503 11.2842 76.2033 11.5272 75.8098 11.66L75.7098 11.6Z" fill="#231F20"/>
<path d="M30.5299 49.72C31.5377 47.5885 32.1057 45.2758 32.1999 42.92C31.4799 44.25 31.1999 44.52 31.1999 44.48C31.1999 44.44 31.3899 43.66 31.4399 42.63C31.4505 41.822 31.301 41.0199 30.9999 40.27C30.8199 40.85 30.6299 41.42 30.4499 42C30.4451 40.6963 30.0555 39.4231 29.3299 38.34C28.9636 37.7942 28.5149 37.3085 27.9999 36.9C27.9999 37.38 28.0499 37.9 28.0699 38.33C27.8876 37.7622 27.5569 37.2534 27.1122 36.8561C26.6674 36.4588 26.1247 36.1874 25.5399 36.07L25.6299 37.17C24.3688 35.8641 22.7961 34.9005 21.0599 34.37C21.1399 35.92 21.2099 37.46 21.2899 39.01C21.0999 38.76 20.9699 38.64 20.8999 38.67C20.8299 38.7 21.0199 40.12 21.8999 42.75L21.1199 42.4C21.0813 43.3281 21.3522 44.2426 21.8899 45C22.4599 45.75 23.2799 46.17 23.2099 46.31C23.1399 46.45 22.9599 46.37 22.1299 46.05C22.3194 46.721 22.7146 47.3156 23.2599 47.75C23.8399 48.19 24.5099 48.35 24.4899 48.46C24.4699 48.57 23.4899 48.38 23.4899 48.46C24.6523 49.0776 25.9096 49.4967 27.2099 49.7C28.1562 49.9348 29.1421 49.962 30.0999 49.78L30.5299 49.72Z" fill="#1E6F5D"/>
<path d="M30.4804 49.66C30.6204 49.15 30.8304 48.56 30.9704 48.01C31.1104 47.46 31.2204 46.88 31.3304 46.31C31.5331 45.1846 31.6369 44.0435 31.6404 42.9L32.7004 43.19C32.4675 43.6796 32.2036 44.1539 31.9104 44.61C31.8635 44.6847 31.81 44.755 31.7504 44.82L31.5604 44.99L31.4504 45.05C31.3761 45.0783 31.299 45.0984 31.2204 45.11C31.0721 45.1202 30.9246 45.0816 30.8004 45C30.7001 44.9247 30.6209 44.8248 30.5704 44.71C30.5105 44.5893 30.4895 44.4531 30.5104 44.32V44.16V43.95C30.5604 43.69 30.6104 43.46 30.6404 43.22C30.7669 42.3058 30.6638 41.3744 30.3404 40.51H31.6004C31.4204 41.08 31.2104 41.65 31.0204 42.22L29.6404 46.22L29.8504 42C29.891 41.0979 29.7376 40.1977 29.4004 39.36C29.0546 38.504 28.5095 37.7429 27.8104 37.14L28.2904 36.89V38.32V40.19L27.7804 38.41C27.6228 37.8777 27.3207 37.3996 26.9075 37.0289C26.4944 36.6581 25.9865 36.4093 25.4404 36.31L25.7304 36.05L25.8504 37.15L25.9204 37.87L25.3804 37.36C24.1136 36.1509 22.5515 35.2958 20.8504 34.88L21.5404 34.35C21.6304 35.12 21.6804 35.89 21.7504 36.66C21.8204 37.43 21.9204 38.2 22.0004 39L22.1404 41.18L20.7604 39.45C20.7241 39.3912 20.6766 39.3402 20.6204 39.3C20.7316 39.3661 20.8627 39.3909 20.9904 39.37C21.1074 39.352 21.2177 39.3037 21.3104 39.23C21.3749 39.1731 21.4291 39.1054 21.4704 39.03C21.5604 38.74 21.4704 38.91 21.5304 38.94V39.18C21.6104 39.52 21.7104 39.9 21.8304 40.26C22.0604 41.01 22.3104 41.75 22.5804 42.5L23.1804 44.19L21.5104 43.47L20.7204 43.13L21.8404 42.4C21.8125 43.1921 22.052 43.9706 22.5204 44.61C22.8033 44.9437 23.1219 45.2455 23.4704 45.51L23.6704 45.7L23.7504 45.8L23.8004 45.87C23.833 45.9237 23.8598 45.9807 23.8804 46.04C23.9134 46.1227 23.9304 46.2109 23.9304 46.3C23.928 46.4456 23.8939 46.5889 23.8304 46.72C23.7761 46.8131 23.704 46.8945 23.6182 46.9597C23.5324 47.025 23.4346 47.0726 23.3304 47.1C23.1591 47.138 22.9816 47.138 22.8104 47.1L22.5704 47.04C22.3114 46.9669 22.0575 46.8767 21.8104 46.77L22.8104 45.85C22.8982 46.2426 23.077 46.6091 23.3323 46.92C23.5876 47.2309 23.9124 47.4775 24.2804 47.64L24.6304 47.82C24.6889 47.8538 24.7456 47.8905 24.8004 47.93L24.8604 47.98C24.9081 48.0233 24.9486 48.074 24.9804 48.13C25.0523 48.2469 25.0872 48.3829 25.0804 48.52C25.0694 48.6704 25.0056 48.812 24.9004 48.92C24.7604 49.05 24.7404 49.04 24.6904 49.06H24.5504H24.4304H24.2704H23.8504H23.5804H23.6404H23.7304C23.8023 49.0265 23.8651 48.9764 23.9138 48.9138C23.9625 48.8512 23.9956 48.7779 24.0104 48.7C24.0492 48.5866 24.0492 48.4634 24.0104 48.35C23.9887 48.3015 23.9582 48.2574 23.9204 48.22C23.9204 48.22 23.9204 48.22 24.0004 48.27L24.2904 48.41L24.9404 48.7C25.8398 49.0598 26.7618 49.3604 27.7004 49.6C28.6117 49.8215 29.5603 49.842 30.4804 49.66ZM30.5804 49.78C29.6296 50.1622 28.5955 50.2897 27.5804 50.15C26.5676 50.0252 25.565 49.828 24.5804 49.56C24.3304 49.49 24.0804 49.42 23.8304 49.33C23.7001 49.2897 23.5731 49.2395 23.4504 49.18C23.3614 49.1443 23.2773 49.0973 23.2004 49.04C23.1595 49.0156 23.1224 48.9853 23.0904 48.95C23.0526 48.9031 23.0191 48.8529 22.9904 48.8C22.9523 48.6728 22.9523 48.5372 22.9904 48.41C23.0127 48.3246 23.0528 48.2449 23.1079 48.176C23.163 48.1071 23.232 48.0505 23.3104 48.01H23.4404H23.5904C23.8304 48.01 23.9204 48.01 24.0604 48.01C24.1668 48.0193 24.2739 48.0193 24.3804 48.01C24.351 48.0014 24.3198 48.0014 24.2904 48.01C24.2265 48.0386 24.1687 48.0793 24.1204 48.13C24.0321 48.2217 23.9764 48.3399 23.9619 48.4664C23.9475 48.593 23.975 48.7207 24.0404 48.83C24.0629 48.8779 24.0974 48.9192 24.1404 48.95L23.8204 48.81C23.2671 48.5916 22.7711 48.2495 22.3704 47.81C21.9752 47.3678 21.6726 46.851 21.4804 46.29L20.9804 44.9L22.4504 45.37C22.6704 45.44 22.8904 45.52 23.0704 45.56H23.1904C23.1904 45.56 23.2804 45.56 23.0204 45.56C22.841 45.6135 22.6901 45.7357 22.6004 45.9C22.5347 46.0118 22.5034 46.1405 22.5104 46.27C22.5003 46.3396 22.5003 46.4103 22.5104 46.48C22.5277 46.5263 22.5512 46.5701 22.5804 46.61L22.5104 46.55C22.08 46.2365 21.6844 45.8777 21.3304 45.48C20.6259 44.5591 20.2714 43.4179 20.3304 42.26V41.16L21.4404 41.67L22.2204 42.03L21.1504 43.03C20.9104 42.26 20.6804 41.49 20.4704 40.7C20.3704 40.3 20.2704 39.91 20.1904 39.47C20.1904 39.36 20.1904 39.24 20.1904 39.11C20.1526 38.8827 20.1839 38.6493 20.2804 38.44C20.3245 38.3381 20.3932 38.2487 20.4804 38.18C20.5901 38.0832 20.7256 38.0207 20.8704 38C21.0431 37.9861 21.2163 38.0207 21.3704 38.1C21.4686 38.1626 21.5592 38.2364 21.6404 38.32C21.7306 38.4141 21.8141 38.5143 21.8904 38.62L20.5904 39C20.5904 38.23 20.5904 37.46 20.5404 36.68C20.4904 35.9 20.5404 35.14 20.5404 34.36V33.58L21.2204 33.83C22.9855 34.4976 24.561 35.5857 25.8104 37L25.3504 37.21L25.2904 36.11V35.79L25.6004 35.85C26.2224 35.9883 26.7987 36.2831 27.2747 36.7067C27.7508 37.1302 28.1107 37.6683 28.3204 38.27L27.8304 38.36L27.7104 36.94L27.6604 36.32L28.1904 36.69C29.0517 37.2844 29.7581 38.0765 30.2504 39C30.7525 39.9246 31.0428 40.9494 31.1004 42L29.8704 41.82C30.0404 41.24 30.2004 40.66 30.3804 40.08L31.0004 38.3L31.6404 40C32.0763 41.0843 32.2009 42.2687 32.0004 43.42C32.0004 43.69 31.8904 43.97 31.8404 44.21V44.37C31.8404 44.37 31.8404 44.37 31.7904 44.17C31.7122 44.0864 31.6115 44.0273 31.5004 44C31.3954 43.9264 31.2683 43.8911 31.1404 43.9C31.0777 43.8873 31.0131 43.8873 30.9504 43.9H30.8804L30.9604 43.81C31.2204 43.46 31.4904 43 31.7504 42.57L33.0004 40.5L32.7704 43C32.6677 44.2054 32.4329 45.3958 32.0704 46.55C31.8929 47.1197 31.6791 47.6775 31.4304 48.22C31.1844 48.7595 30.9003 49.2808 30.5804 49.78Z" fill="#231F20"/>
<path d="M50.6302 55.56C47.6902 53.22 42.0902 49.64 34.9602 50.46C31.6371 50.8916 28.4637 52.1047 25.7002 54" stroke="#1E6F5D" stroke-width="3" stroke-miterlimit="10" stroke-linecap="round"/>
<path d="M29.5303 51C30.3309 52.1005 31.2534 53.1069 32.2803 54C33.033 54.6455 33.8355 55.2307 34.6803 55.75C33.8603 54.48 33.7503 54.14 33.8203 54.08C33.8903 54.02 34.4403 54.65 35.3203 55.19C36.0091 55.6047 36.7742 55.8768 37.5703 55.99L36.3303 54.68C37.4709 55.3082 38.7737 55.5799 40.0703 55.46C40.7405 55.3831 41.393 55.1938 42.0003 54.9L40.7203 54.28C41.3295 54.3914 41.9575 54.3397 42.5403 54.13C43.079 53.9216 43.5545 53.577 43.9203 53.13L42.9203 52.68C43.7225 52.4527 44.4972 52.1374 45.2303 51.74C46.0782 51.2667 46.8585 50.6815 47.5503 50L43.3803 48C43.6869 47.9533 43.8469 47.8933 43.8603 47.82C43.8603 47.59 42.5303 47.22 39.8603 46.72L40.5503 46.2C39.7407 45.7193 38.7952 45.5189 37.8603 45.63C36.9303 45.77 36.1603 46.28 36.0703 46.15C35.9803 46.02 36.1503 45.9 36.8203 45.33C36.1515 45.1866 35.4552 45.2458 34.8203 45.5C34.1603 45.8 33.7003 46.31 33.6103 46.23C33.5203 46.15 34.1603 45.41 34.0803 45.34C32.95 46.0525 31.9491 46.952 31.1203 48C30.4526 48.7152 29.9507 49.5688 29.6503 50.5C29.5903 50.68 29.5603 50.84 29.5303 51Z" fill="#1E6F5D"/>
<path d="M29.61 50.93C29.98 51.3 30.41 51.77 30.82 52.15C31.23 52.53 31.69 52.92 32.13 53.29C33.0295 54.0115 33.9897 54.6539 35 55.21L34.2 56C33.91 55.56 33.62 55.14 33.34 54.62C33.3015 54.5388 33.2681 54.4553 33.24 54.37C33.2066 54.2939 33.1864 54.2128 33.18 54.13V54C33.1869 53.9173 33.2072 53.8362 33.24 53.76C33.2993 53.6262 33.4062 53.5193 33.54 53.46C33.6514 53.4038 33.7752 53.3763 33.9 53.38C34.037 53.3914 34.1683 53.4398 34.28 53.52L34.4 53.61L34.58 53.75C34.78 53.92 34.96 54.07 35.15 54.21C35.8888 54.7655 36.7553 55.1265 37.67 55.26L37.09 56.38C36.67 55.95 36.28 55.49 35.87 55.04L33.05 51.92L36.62 54.06C37.3921 54.5296 38.2539 54.8327 39.15 54.95C40.0667 55.0497 40.994 54.9368 41.86 54.62V55.16L40.6 54.49L38.95 53.61L40.76 54.02C41.3035 54.1492 41.8724 54.124 42.4024 53.9474C42.9325 53.7707 43.4026 53.4495 43.76 53.02L43.84 53.4L42.84 52.97L42.16 52.69L42.88 52.47C44.5483 51.94 46.0483 50.9814 47.23 49.69L47.37 50.55C46.65 50.25 45.95 49.93 45.24 49.62C44.53 49.31 43.82 48.99 43.12 48.62L41.12 47.69L43.31 47.32H43.5C43.3932 47.3884 43.3122 47.4904 43.27 47.61C43.2363 47.7242 43.2363 47.8457 43.27 47.96C43.2837 48.0421 43.3143 48.1204 43.36 48.19C43.57 48.42 43.45 48.28 43.41 48.29L43.19 48.21C42.85 48.11 42.47 48.03 42.09 47.95C41.33 47.79 40.55 47.66 39.77 47.53L38 47.24L39.44 46.12L40.11 45.6L40.21 46.93C39.532 46.5208 38.7348 46.355 37.95 46.46C37.5203 46.544 37.1012 46.6748 36.7 46.85L36.44 46.94H36.31H36.04C35.9535 46.9244 35.8694 46.8975 35.79 46.86C35.6292 46.7761 35.5007 46.6413 35.4248 46.4766C35.3488 46.312 35.3295 46.1268 35.37 45.95C35.4143 45.7755 35.5001 45.6143 35.62 45.48L35.79 45.3C36 45.1 36.19 44.93 36.39 44.77L36.73 46.07C36.3444 45.9543 35.9371 45.9311 35.5409 46.0023C35.1448 46.0736 34.771 46.2372 34.45 46.48L34.12 46.71L33.95 46.8H33.87C33.8068 46.8067 33.7431 46.8067 33.68 46.8C33.542 46.802 33.4065 46.7638 33.29 46.69C33.1656 46.6067 33.0737 46.4831 33.03 46.34C33.0154 46.2573 33.0154 46.1727 33.03 46.09V45.95V45.83C33.0471 45.7805 33.0706 45.7334 33.1 45.69C33.19 45.54 33.27 45.44 33.34 45.34L33.5 45.12V45.18C33.4946 45.2131 33.4946 45.2469 33.5 45.28C33.4989 45.4198 33.5493 45.5551 33.6414 45.6602C33.7336 45.7653 33.8612 45.8328 34 45.85H34.22H34.15L33.88 46.03C33.69 46.17 33.5 46.31 33.32 46.47C32.5644 47.0864 31.8527 47.7547 31.19 48.47C30.4817 49.158 29.9411 49.9997 29.61 50.93ZM29.46 50.93C29.5826 49.8993 29.976 48.9194 30.6 48.09C31.1922 47.2699 31.844 46.4945 32.55 45.77L33.1 45.23C33.2 45.14 33.3 45.05 33.42 44.96C33.54 44.87 33.55 44.87 33.67 44.81L33.8 44.76C33.8595 44.7497 33.9204 44.7497 33.98 44.76C34.1356 44.7703 34.2811 44.8408 34.3856 44.9565C34.4901 45.0722 34.5455 45.2241 34.54 45.38C34.5448 45.4265 34.5448 45.4734 34.54 45.52C34.54 45.63 34.54 45.62 34.49 45.67C34.38 45.88 34.32 45.95 34.25 46.07C34.18 46.19 34.12 46.28 34.09 46.35C34.0946 46.3168 34.0946 46.2832 34.09 46.25C34.1012 46.1804 34.1012 46.1095 34.09 46.04C34.0432 45.9147 33.9595 45.8066 33.85 45.73C33.7453 45.6647 33.6231 45.6333 33.5 45.64C33.4539 45.6297 33.4061 45.6297 33.36 45.64L33.63 45.43C34.0815 45.0525 34.6107 44.7794 35.18 44.63C35.7606 44.5106 36.3594 44.5106 36.94 44.63L38.4 44.86L37.25 45.9C37.09 46.06 36.91 46.22 36.78 46.36L36.7 46.44C36.7 46.44 36.7 46.54 36.76 46.29C36.785 46.2005 36.7899 46.1065 36.7743 46.0149C36.7588 45.9233 36.7231 45.8362 36.67 45.76C36.6028 45.6463 36.506 45.553 36.39 45.49C36.327 45.4592 36.2595 45.4389 36.19 45.43H36H36.09C36.5729 45.2024 37.0793 45.028 37.6 44.91C38.7475 44.7209 39.9249 44.9478 40.92 45.55L42 46.16L41 46.89L40.31 47.4L40 46C40.79 46.16 41.58 46.33 42.37 46.52C42.77 46.62 43.16 46.73 43.58 46.87L43.92 47C44.1385 47.0817 44.3292 47.2239 44.47 47.41C44.5316 47.4999 44.5725 47.6024 44.59 47.71C44.6343 47.8465 44.6343 47.9935 44.59 48.13C44.5288 48.2971 44.4124 48.4382 44.26 48.53C44.1616 48.5916 44.0534 48.6355 43.94 48.66C43.8156 48.6943 43.6884 48.7177 43.56 48.73L43.76 47.43C44.45 47.78 45.13 48.14 45.76 48.51C46.39 48.88 47.14 49.22 47.81 49.61L48.49 49.99L47.95 50.46C46.5293 51.694 44.8309 52.5655 43 53V52.49L44 52.97L44.29 53.11L44.09 53.34C43.6697 53.8218 43.1324 54.1872 42.5299 54.4009C41.9273 54.6146 41.2799 54.6694 40.65 54.56L40.81 54.09L42.12 54.68L42.68 54.93L42.1 55.22C41.1689 55.687 40.1416 55.9301 39.1 55.93C38.0226 55.9131 36.9629 55.6533 36 55.17L36.75 54.17C37.18 54.59 37.61 55.01 38.03 55.45L39.31 56.81L37.44 56.57C36.3004 56.4155 35.2249 55.9521 34.33 55.23C34.11 55.06 33.9 54.87 33.71 54.7L33.59 54.59C33.59 54.59 33.59 54.59 33.79 54.65C33.9 54.6575 34.0101 54.6368 34.11 54.59C34.2253 54.5281 34.3168 54.4296 34.37 54.31C34.4004 54.2511 34.4175 54.1862 34.42 54.12V54V54.12C34.6342 54.562 34.8712 54.9925 35.13 55.41L36.4 57.56L34.4 56.19C33.3903 55.5258 32.4578 54.751 31.62 53.88C31.2094 53.4434 30.8254 52.9825 30.47 52.5C30.0964 52.0259 29.7588 51.5245 29.46 51V50.93Z" fill="#231F20"/>
<path d="M48.4299 42.17C47.1899 39.64 42.6899 29.82 46.8499 20.17C47.4264 18.3037 48.4573 16.6097 49.8499 15.24C51.1963 14.0754 52.8353 13.3009 54.5899 13C58.8799 12.33 64.5899 17 67.7799 25" stroke="#1E6F5D" stroke-width="3" stroke-miterlimit="10" stroke-linecap="round"/>
<path d="M47.7802 72.43C46.2777 75.4806 45.1237 78.6909 44.3402 82C43.7715 84.4053 43.4035 86.8537 43.2402 89.32C45.1102 86.05 45.7302 85.4 45.9302 85.49C46.1302 85.58 45.3902 87.49 45.2202 90.09C45.1009 92.089 45.3832 94.0918 46.0502 95.98L47.5002 91.72C47.4398 94.9684 48.3409 98.1622 50.0902 100.9C50.9948 102.28 52.1119 103.509 53.4002 104.54L53.3102 100.99C53.7313 102.415 54.5268 103.701 55.6137 104.714C56.7006 105.727 58.0393 106.43 59.4902 106.75C59.4402 105.84 59.3802 104.93 59.3302 104.01C62.4021 107.321 66.2619 109.802 70.5502 111.22C70.4402 107.37 70.3402 103.52 70.2302 99.66C70.7002 100.31 71.0202 100.59 71.2302 100.52C71.7636 100.313 71.0102 96.9133 68.9702 90.32L70.9002 91.23C71.0441 88.8888 70.4037 86.5665 69.0802 84.63C67.6902 82.74 65.6702 81.63 65.8602 81.3C65.9402 81.14 66.4902 81.17 68.5402 82C68.0902 80.3193 67.1336 78.8179 65.8002 77.7C64.3902 76.58 62.7202 76.14 62.8002 75.87C62.8802 75.6 65.2402 76.13 65.3202 75.87C65.4002 75.61 60.9102 73.71 56.1402 72.6C53.7964 71.9515 51.3393 71.8219 48.9402 72.22C48.4402 72.26 48.0502 72.36 47.7802 72.43Z" fill="#3E9581"/>
<path d="M47.8304 72.49C47.2804 73.78 46.7204 75.18 46.2604 76.54C45.8004 77.9 45.4004 79.32 45.0004 80.73C44.313 83.5436 43.8977 86.4169 43.7604 89.31L42.7604 88.99C43.384 87.8358 44.0717 86.7174 44.8204 85.64C44.9273 85.489 45.0442 85.3454 45.1704 85.21C45.2572 85.1188 45.3546 85.0382 45.4604 84.97L45.6004 84.89C45.686 84.8537 45.7775 84.8333 45.8704 84.83C46.0245 84.8217 46.1767 84.8677 46.3004 84.96C46.4068 85.0399 46.4897 85.147 46.5404 85.27C46.608 85.438 46.6287 85.6212 46.6004 85.8C46.6004 85.91 46.6004 86.01 46.6004 86.09L46.4904 86.59C46.3504 87.22 46.2104 87.83 46.1104 88.44C45.8959 89.6544 45.8455 90.8922 45.9604 92.12C46.0689 93.3461 46.3241 94.5547 46.7204 95.72H45.4304L46.9104 91.47L48.2304 87.69L48.1304 91.69C48.0482 94.053 48.4745 96.406 49.3804 98.59C50.3201 100.787 51.762 102.732 53.5904 104.27L53.1004 104.51L53.0004 100.94V98.94L53.5504 100.85C53.9539 102.234 54.7164 103.486 55.7604 104.48C56.8156 105.477 58.1222 106.169 59.5404 106.48L59.2304 106.75L59.0604 104L59.0104 103.25L59.5304 103.8C62.6117 107.013 66.4638 109.385 70.7204 110.69L70.0204 111.21L69.5404 99.65L69.4404 97.41L70.7904 99.23C70.9304 99.41 71.0704 99.59 71.2004 99.73L71.3304 99.85C71.3304 99.85 71.3304 99.79 71.0804 99.85C70.9772 99.8663 70.8785 99.9038 70.7904 99.96C70.7204 99.96 70.6704 100.13 70.6704 100.11C70.6704 100.25 70.6704 99.93 70.6704 99.75C70.6704 99.57 70.6104 99.31 70.5804 99.08C70.4104 98.15 70.1704 97.19 69.9104 96.25C69.4004 94.35 68.8104 92.46 68.2204 90.57L67.6804 88.86L69.3104 89.63L71.2404 90.54L70.1104 91.24C70.2672 88.9846 69.6305 86.7454 68.3104 84.91C67.5647 84.0175 66.7267 83.2063 65.8104 82.49C65.6726 82.3752 65.5423 82.2516 65.4204 82.12C65.4204 82.12 65.3404 82.01 65.3004 81.96L65.2304 81.86L65.1404 81.66C65.12 81.5678 65.12 81.4722 65.1404 81.38C65.142 81.2223 65.1833 81.0676 65.2604 80.93C65.3205 80.8298 65.4002 80.7428 65.4947 80.674C65.5892 80.6053 65.6965 80.5563 65.8104 80.53C66.0694 80.4622 66.3414 80.4622 66.6004 80.53L67.1004 80.66C67.7016 80.8448 68.2925 81.0618 68.8704 81.31L67.8704 82.21C67.5761 81.1197 67.0661 80.0996 66.3704 79.21C65.635 78.335 64.7168 77.6318 63.6804 77.15C63.4104 77.02 63.1404 76.89 62.8304 76.72C62.7338 76.6652 62.6403 76.6051 62.5504 76.54L62.4604 76.46C62.4059 76.4065 62.3589 76.3459 62.3204 76.28C62.245 76.15 62.2135 75.9993 62.2304 75.85C62.2464 75.6911 62.3171 75.5426 62.4304 75.43C62.4982 75.3627 62.5802 75.3115 62.6704 75.28L62.8404 75.22H63.0404C63.137 75.215 63.2338 75.215 63.3304 75.22C63.6904 75.22 63.9904 75.29 64.3304 75.33C64.6704 75.37 64.9604 75.41 65.1504 75.41H65.0904C65.023 75.4443 64.9644 75.4938 64.9193 75.5545C64.8742 75.6152 64.8438 75.6856 64.8304 75.76C64.8054 75.8449 64.8054 75.9351 64.8304 76.02C64.8304 76.11 64.8304 76.09 64.8304 76.12V76.19C64.7339 76.1132 64.6301 76.0462 64.5204 75.99L63.7304 75.6C63.1904 75.36 62.6204 75.13 62.0604 74.9C59.7763 74.0264 57.4381 73.3016 55.0604 72.73C53.8818 72.4319 52.6752 72.2576 51.4604 72.21C50.2435 72.1548 49.0244 72.2488 47.8304 72.49ZM47.7404 72.38C50.1441 71.6407 52.6938 71.5101 55.1604 72C57.6036 72.4537 60.0126 73.0752 62.3704 73.86C62.9604 74.06 63.5504 74.27 64.1404 74.5C64.4304 74.62 64.7204 74.75 65.0204 74.9C65.1873 74.981 65.3477 75.0746 65.5004 75.18L65.6604 75.32C65.7087 75.3627 65.7493 75.4135 65.7804 75.47C65.8049 75.5181 65.825 75.5683 65.8404 75.62C65.8655 75.7252 65.8655 75.8348 65.8404 75.94C65.8178 76.0319 65.7758 76.1178 65.7171 76.192C65.6585 76.2662 65.5846 76.3269 65.5004 76.37L65.3304 76.43C65.2538 76.4356 65.177 76.4356 65.1004 76.43C64.7662 76.4273 64.4325 76.4073 64.1004 76.37C63.8004 76.37 63.4904 76.3 63.2304 76.3C63.1772 76.2949 63.1236 76.2949 63.0704 76.3L63.2104 76.2C63.2938 76.1085 63.3463 75.993 63.3604 75.87C63.3693 75.7599 63.3485 75.6494 63.3004 75.55L63.2304 75.46L63.3404 75.52L64.1504 75.9C65.3693 76.4331 66.4577 77.2247 67.3404 78.22C68.1902 79.2417 68.823 80.4258 69.2004 81.7L69.6604 83.15L68.2104 82.61C67.6604 82.4 67.1104 82.18 66.5704 82.02L66.2204 82C66.1304 82 65.9504 82 66.1104 82C66.2427 81.9571 66.3588 81.8747 66.4428 81.7639C66.5269 81.653 66.5749 81.519 66.5804 81.38C66.5843 81.3201 66.5843 81.2599 66.5804 81.2C66.5858 81.1669 66.5858 81.1331 66.5804 81.1L66.8504 81.34C67.8397 82.1126 68.7447 82.9875 69.5504 83.95C70.3607 84.9873 70.9526 86.1778 71.2904 87.45C71.6151 88.6931 71.7632 89.9756 71.7304 91.26V92.49L70.6204 91.96L68.6004 91L69.6904 90C70.2604 91.91 70.8204 93.82 71.3104 95.76C71.5604 96.76 71.7904 97.76 71.9604 98.76C72.0063 99.0246 72.0363 99.2918 72.0504 99.56C72.1086 99.9349 72.0637 100.319 71.9204 100.67C71.8653 100.785 71.7829 100.884 71.6804 100.96C71.5575 101.07 71.404 101.14 71.2404 101.16C71.0273 101.18 70.8135 101.131 70.6304 101.02C70.4667 100.918 70.3185 100.794 70.1904 100.65C70.005 100.443 69.8314 100.226 69.6704 100L70.9204 99.57L71.0804 111.14V111.91L70.3704 111.66C68.2179 110.889 66.169 109.854 64.2704 108.58C62.3796 107.311 60.6502 105.817 59.1204 104.13L59.5904 103.93L59.7304 106.67V107L59.4004 106.93C57.9201 106.574 56.5573 105.84 55.4446 104.801C54.3318 103.762 53.507 102.452 53.0504 101L53.5704 100.92L53.7004 104.48V105.11L53.1904 104.72C51.2152 103.2 49.62 101.242 48.5304 99C47.4454 96.7157 46.8818 94.2188 46.8804 91.69L48.0904 91.9L46.6704 96.18L46.0604 98L45.4304 96.19C44.9728 94.9273 44.687 93.6088 44.5804 92.27C44.4823 90.9323 44.5596 89.5876 44.8104 88.27C44.9304 87.62 45.0904 86.98 45.2404 86.36L45.3504 85.91C45.3504 85.8433 45.3504 85.7833 45.3504 85.73C45.3504 85.73 45.3504 85.62 45.3504 85.73L45.4004 85.83C45.4388 85.8751 45.4824 85.9153 45.5304 85.95C45.5984 85.9965 45.6764 86.0262 45.7582 86.0366C45.8399 86.0471 45.9229 86.0379 46.0004 86.01L45.9204 86.07L45.6604 86.39C44.9365 87.4129 44.2689 88.4745 43.6604 89.57L42.4004 91.7L42.6104 89.26C42.8555 86.3087 43.4017 83.3902 44.2404 80.55C44.6607 79.1372 45.1581 77.7484 45.7304 76.39C46.3136 75.0116 46.985 73.6721 47.7404 72.38Z" fill="#231F20"/>
<path d="M48.1903 72.54C47.1274 75.16 46.3594 77.8901 45.9004 80.68C45.5584 82.7293 45.3778 84.8024 45.3604 86.88C46.7004 84.05 47.1604 83.48 47.3604 83.54C47.5604 83.6 47.0004 85.27 47.0004 87.44C46.9932 89.1211 47.3089 90.7879 47.9304 92.35L48.9304 88.7C49.0231 91.415 49.8867 94.0476 51.4203 96.29C52.1944 97.4012 53.1355 98.3861 54.2104 99.21L53.9704 96.21C54.3616 97.4129 55.0615 98.4922 56.0004 99.34C56.8823 100.085 57.9444 100.585 59.0804 100.79L58.8304 98.5C60.0142 99.7082 61.3367 100.772 62.7704 101.67C64.4235 102.709 66.2143 103.51 68.0903 104.05C67.8237 100.817 67.557 97.5866 67.2904 94.36C67.6904 94.88 67.9604 95.11 68.1003 95.04C68.507 94.84 67.747 92.0166 65.8204 86.57L67.4004 87.25C67.4099 85.289 66.7933 83.3762 65.6404 81.79C64.4503 80.26 62.7904 79.43 62.9304 79.14C62.9904 79 63.4303 79 65.0903 79.6C64.6665 78.2263 63.8368 77.0131 62.7104 76.12C61.5403 75.24 60.1904 74.95 60.2404 74.72C60.2904 74.49 62.2404 74.82 62.2404 74.61C62.2404 74.4 58.6504 73 54.8104 72.26C52.9224 71.8194 50.9583 71.8194 49.0704 72.26C48.7711 72.3335 48.4771 72.4271 48.1903 72.54Z" fill="#1E6F5D"/>
<path d="M47.8402 72.39C49.6869 74.39 51.4669 76.4733 53.1802 78.64C54.8602 80.8 56.4802 83 58.0002 85.31C59.5792 87.5448 61.0057 89.8834 62.2702 92.31C63.4777 94.7875 64.4811 97.3593 65.2702 100L65.1302 100.06C63.5702 97.77 62.3302 95.36 60.9402 93.06C59.5502 90.76 58.3902 88.29 57.0002 86C55.6102 83.71 54.1402 81.37 52.5802 79.13C51.0202 76.89 49.4302 74.68 47.7402 72.53L47.8402 72.39Z" fill="#231F20"/>
<path d="M50.4597 75.63C50.5327 76.5866 50.5093 77.5481 50.3897 78.5C50.3197 79.42 49.9997 80.29 49.8697 81.21C49.7252 82.1335 49.6416 83.0655 49.6197 84C49.5965 84.9408 49.6232 85.8821 49.6997 86.82H49.5497C49.2548 85.9053 49.0308 84.9692 48.8797 84.02C48.7394 83.0564 48.6692 82.0838 48.6697 81.11C48.6057 80.1291 48.6934 79.1442 48.9297 78.19C49.2006 77.2274 49.6745 76.334 50.3197 75.57L50.4597 75.63Z" fill="#231F20"/>
<path d="M50.5 75.68C51.3284 75.2023 52.2557 74.9217 53.21 74.86C54.1465 74.8341 55.0812 74.9556 55.98 75.22C57.7916 75.6208 59.5315 76.2952 61.14 77.22L61.08 77.35C59.3617 76.8742 57.5992 76.576 55.82 76.46C54.94 76.46 54.06 76.53 53.2 76.46C52.2878 76.3744 51.3865 76.1968 50.51 75.93L50.5 75.68Z" fill="#231F20"/>
<path d="M54.0003 80.05C54.0797 80.9549 54.0797 81.8651 54.0003 82.77C54.0003 83.63 53.6903 84.46 53.6103 85.33C53.4547 87.0932 53.5388 88.8694 53.8603 90.61H53.7203C52.961 88.9215 52.517 87.1083 52.4103 85.26C52.2866 84.3306 52.3238 83.3868 52.5203 82.47C52.7505 81.5568 53.1924 80.7107 53.8103 80L54.0003 80.05Z" fill="#231F20"/>
<path d="M53.8899 80C54.6602 79.6895 55.4915 79.5595 56.3199 79.62C57.1143 79.7224 57.8893 79.9415 58.6199 80.27C60.1137 80.7985 61.5375 81.5071 62.8599 82.38L62.7999 82.52C61.3292 82.0567 59.8292 81.6926 58.3099 81.43C57.5566 81.3712 56.8081 81.261 56.0699 81.1C55.2936 80.879 54.5553 80.5419 53.8799 80.1L53.8899 80Z" fill="#231F20"/>
<path d="M58.0498 85.84C58.1987 86.516 58.2592 87.2084 58.2298 87.9C58.1588 88.5362 58.0486 89.1674 57.8998 89.79C57.7634 91.1055 57.797 92.4331 57.9998 93.74L57.8598 93.79C57.2314 92.5416 56.8511 91.1832 56.7398 89.79C56.5997 89.0869 56.5997 88.3631 56.7398 87.66C56.943 86.9452 57.3412 86.3011 57.8898 85.8L58.0498 85.84Z" fill="#231F20"/>
<path d="M58 85.74C58.5708 85.4227 59.2173 85.2671 59.87 85.29C60.482 85.3526 61.0761 85.5326 61.62 85.82C62.7497 86.2495 63.8187 86.8243 64.8 87.53L64.74 87.66C63.6036 87.374 62.4517 87.1537 61.29 87C60.7207 86.9911 60.1541 86.9207 59.6 86.79C59.0151 86.5926 58.4724 86.2873 58 85.89V85.74Z" fill="#231F20"/>
<path d="M61.67 92.72C61.8738 93.2052 61.9857 93.724 62 94.25C61.9583 94.705 61.8678 95.1543 61.73 95.59C61.633 96.0536 61.586 96.5263 61.59 97C61.59 97.47 61.59 98 61.59 98.46L61.45 98.51C61.22 98.06 61.03 97.59 60.82 97.11C60.6642 96.611 60.5537 96.0989 60.49 95.58C60.3549 95.062 60.3549 94.518 60.49 94C60.6587 93.454 61.0123 92.9837 61.49 92.67L61.67 92.72Z" fill="#231F20"/>
<path d="M61.5996 92.62C61.9975 92.3007 62.4896 92.1214 62.9996 92.11C63.4575 92.1494 63.8996 92.2968 64.2896 92.54C65.1134 92.8896 65.8815 93.3579 66.5696 93.93L66.5096 94.06C65.6396 93.91 64.8096 93.77 63.9796 93.7C63.5696 93.7343 63.1568 93.6971 62.7596 93.59C62.3101 93.4186 61.9112 93.1365 61.5996 92.77V92.62Z" fill="#231F20"/>
<path d="M61.6899 14.28C61.4199 12.28 59.8599 11.13 58.6899 11.37C58.2121 11.4948 57.7912 11.7789 57.4966 12.1752C57.2021 12.5716 57.0515 13.0565 57.0699 13.55C57.2599 14.86 59.3799 15.65 60.7499 15.07C61.124 14.8889 61.4471 14.6174 61.6899 14.28Z" fill="#FAE8F1"/>
<path d="M61.62 14.26C61.26 13.81 60.98 13.36 60.62 13.03C60.3125 12.7086 59.9779 12.4142 59.62 12.15C59.4718 11.9744 59.2805 11.8406 59.0647 11.7617C58.849 11.6828 58.6164 11.6615 58.39 11.7C58.1588 11.7856 57.9559 11.9338 57.804 12.1281C57.6522 12.3223 57.5573 12.5549 57.53 12.8C57.4958 13.0018 57.5165 13.209 57.59 13.4C57.6517 13.545 57.7399 13.6772 57.85 13.79C58.1464 14.0336 58.4855 14.2201 58.85 14.34C59.2852 14.5463 59.7631 14.6466 60.2446 14.6327C60.7261 14.6188 61.1974 14.4911 61.62 14.26ZM61.76 14.26C61.6837 14.5913 61.5271 14.8987 61.3038 15.1551C61.0806 15.4115 60.7976 15.6089 60.48 15.73C59.8426 15.9811 59.1411 16.0197 58.48 15.84C57.7822 15.6455 57.1784 15.205 56.78 14.6C56.5587 14.2582 56.4471 13.857 56.46 13.45C56.4912 13.0861 56.6266 12.7389 56.85 12.45C57.2336 11.9493 57.7172 11.5338 58.27 11.23C58.5611 11.0483 58.889 10.9338 59.2299 10.8948C59.5708 10.8557 59.9161 10.8931 60.2407 11.0042C60.5654 11.1153 60.8612 11.2973 61.1067 11.537C61.3522 11.7767 61.5412 12.0681 61.66 12.39C61.9322 12.9879 61.9679 13.6668 61.76 14.29V14.26Z" fill="#231F20"/>
<path d="M61.8501 16.61C59.9201 15.96 58.2101 16.86 57.9101 18.03C57.8101 18.5143 57.8785 19.0182 58.104 19.4583C58.3295 19.8984 58.6986 20.2483 59.1501 20.45C60.4001 20.86 62.0501 19.3 62.1501 17.82C62.1579 17.3973 62.0544 16.98 61.8501 16.61Z" fill="#FAE8F1"/>
<path d="M61.8 16.66C61.24 16.79 60.71 16.84 60.26 16.99C59.8427 17.1255 59.4351 17.2892 59.04 17.48C58.66 17.64 58.18 17.88 58.1 18.38C58.0733 18.6261 58.1163 18.8747 58.2242 19.0975C58.332 19.3203 58.5004 19.5083 58.71 19.64C58.8767 19.7616 59.0741 19.8343 59.28 19.85C59.4358 19.8642 59.5929 19.8437 59.74 19.79C60.099 19.6248 60.4218 19.3903 60.69 19.1C61.0515 18.8072 61.34 18.4343 61.5326 18.0108C61.7253 17.5874 61.8168 17.1249 61.8 16.66ZM61.9 16.55C62.1621 16.7658 62.3668 17.043 62.4959 17.3571C62.625 17.6711 62.6745 18.0122 62.64 18.35C62.5852 19.0392 62.3079 19.692 61.85 20.21C61.3716 20.7577 60.7107 21.1131 59.99 21.21C59.5844 21.2622 59.1726 21.189 58.81 21C58.4956 20.8125 58.2421 20.5381 58.08 20.21C57.7946 19.6481 57.6375 19.0299 57.62 18.4C57.5947 18.0572 57.6413 17.713 57.7566 17.3893C57.872 17.0656 58.0536 16.7695 58.29 16.52C58.5401 16.2918 58.8339 16.1165 59.1535 16.0048C59.4732 15.8931 59.8121 15.8473 60.15 15.87C60.7969 15.8746 61.4197 16.1165 61.9 16.55Z" fill="#231F20"/>
<path d="M49.5498 75.11C49.5498 76.97 50.7898 78.21 51.8998 78.11C52.3489 78.0586 52.7673 77.8567 53.087 77.5371C53.4066 77.2175 53.6085 76.799 53.6598 76.35C53.6598 75.15 51.8398 74.14 50.5298 74.49C50.1532 74.6044 49.8145 74.8186 49.5498 75.11Z" fill="#FAE8F1"/>
<path d="M49.6196 75.14C49.9096 75.58 50.1196 76.03 50.3696 76.36C50.6196 76.69 50.8896 76.98 51.1296 77.27C51.2155 77.4769 51.3685 77.649 51.564 77.7586C51.7594 77.8682 51.986 77.909 52.2074 77.8744C52.4289 77.8398 52.6322 77.7318 52.7849 77.5678C52.9376 77.4038 53.0308 77.1933 53.0496 76.97C53.0991 76.7934 53.0991 76.6066 53.0496 76.43C53.0078 76.3048 52.9471 76.1868 52.8696 76.08C52.6233 75.832 52.3357 75.6289 52.0196 75.48C51.6703 75.2478 51.2734 75.0967 50.8581 75.0379C50.4428 74.9791 50.0196 75.0139 49.6196 75.14ZM49.4796 75.08C49.5867 74.7815 49.7675 74.5149 50.0053 74.3051C50.2431 74.0953 50.5301 73.9491 50.8396 73.88C51.4654 73.7183 52.1273 73.7712 52.7196 74.03C53.3384 74.3096 53.8355 74.8032 54.1196 75.42C54.2776 75.7674 54.323 76.1555 54.2496 76.53C54.1704 76.8673 53.9929 77.1736 53.7396 77.41C53.3189 77.8131 52.818 78.1232 52.2696 78.32C51.9763 78.4483 51.6597 78.5145 51.3396 78.5145C51.0195 78.5145 50.7028 78.4483 50.4096 78.32C50.1361 78.1635 49.8969 77.9536 49.7063 77.7027C49.5156 77.4519 49.3773 77.1653 49.2996 76.86C49.1247 76.2659 49.1893 75.627 49.4796 75.08Z" fill="#231F20"/>
<path d="M49.2796 71.19C51.1096 70.85 52.0696 69.36 51.7896 68.29C51.6508 67.8582 51.3693 67.4864 50.9913 67.2357C50.6134 66.9849 50.1614 66.8701 49.7096 66.91C48.5296 67.15 47.9096 69.13 48.5096 70.35C48.6877 70.693 48.9533 70.9828 49.2796 71.19Z" fill="#FAE8F1"/>
<path d="M49.3004 71.12C49.6704 70.74 50.0704 70.46 50.3004 70.12C50.5633 69.8267 50.8103 69.5196 51.0404 69.2C51.1975 69.0661 51.3157 68.8924 51.3826 68.6971C51.4494 68.5018 51.4625 68.2921 51.4204 68.09C51.3325 67.8821 51.1869 67.7038 51.0008 67.5762C50.8147 67.4486 50.5959 67.377 50.3704 67.37C50.1869 67.3572 50.0036 67.3953 49.8404 67.48C49.7231 67.5401 49.6206 67.6255 49.5404 67.73C49.3392 68.0354 49.1936 68.3739 49.1104 68.73C48.9645 69.1179 48.9059 69.5331 48.9387 69.9462C48.9716 70.3593 49.095 70.76 49.3004 71.12ZM49.3004 71.27C48.9859 71.2226 48.6884 71.0971 48.4351 70.9049C48.1818 70.7127 47.9807 70.46 47.8504 70.17C47.5696 69.5925 47.4921 68.9371 47.6304 68.31C47.7695 67.6435 48.1552 67.0541 48.7104 66.66C49.0195 66.429 49.3944 66.3028 49.7804 66.3C50.1387 66.3102 50.4863 66.4249 50.7804 66.63C51.2554 66.9653 51.6569 67.394 51.9604 67.89C52.1504 68.1524 52.2774 68.4551 52.3316 68.7745C52.3858 69.0939 52.3657 69.4216 52.2728 69.732C52.18 70.0424 52.0169 70.3273 51.7963 70.5645C51.5756 70.8017 51.3033 70.985 51.0004 71.1C50.4644 71.368 49.8483 71.4286 49.2704 71.27H49.3004Z" fill="#231F20"/>
<path d="M50.7305 72.78C51.9505 74.19 53.7305 74.27 54.5005 73.48C54.7999 73.1429 54.9767 72.7145 55.0021 72.2643C55.0276 71.8142 54.9001 71.3686 54.6405 71C53.8405 70.1 51.8205 70.56 51.0705 71.69C50.8636 72.0173 50.7464 72.3931 50.7305 72.78Z" fill="#FAE8F1"/>
<path d="M50.8004 72.76C51.3204 72.89 51.8004 73.09 52.1804 73.17C52.5668 73.249 52.9574 73.3057 53.3504 73.34C53.5435 73.4075 53.7513 73.4218 53.9519 73.3813C54.1525 73.3408 54.3385 73.2471 54.4904 73.11C54.6264 72.9296 54.7073 72.7137 54.7232 72.4883C54.7392 72.263 54.6896 72.0378 54.5804 71.84C54.4992 71.6763 54.3747 71.5379 54.2204 71.44C54.1066 71.3712 53.9812 71.3237 53.8504 71.3C53.5133 71.2842 53.1759 71.3213 52.8504 71.41C52.4295 71.4674 52.0268 71.6185 51.672 71.8521C51.3172 72.0857 51.0194 72.396 50.8004 72.76ZM50.6604 72.76C50.5497 72.4717 50.511 72.1607 50.5476 71.854C50.5842 71.5473 50.695 71.2542 50.8704 71C51.2334 70.4695 51.7603 70.0726 52.3704 69.87C53.0267 69.6566 53.7386 69.6922 54.3704 69.97C54.7245 70.126 55.0215 70.3881 55.2204 70.72C55.3866 71.0255 55.4563 71.3741 55.4204 71.72C55.3718 72.3009 55.205 72.8658 54.9304 73.38C54.7929 73.6708 54.5952 73.929 54.3504 74.1376C54.1056 74.3462 53.8193 74.5004 53.5104 74.59C53.2041 74.6605 52.8865 74.6657 52.5781 74.6054C52.2697 74.5451 51.9775 74.4206 51.7204 74.24C51.1925 73.9216 50.8115 73.4077 50.6604 72.81V72.76Z" fill="#231F20"/>
<path d="M47.2599 71.73C47.0199 69.89 45.5799 68.85 44.4999 69.07C44.0617 69.1853 43.6756 69.446 43.405 69.8093C43.1343 70.1727 42.995 70.6172 43.0099 71.07C43.1799 72.26 45.1299 72.99 46.3799 72.46C46.7329 72.2993 47.0367 72.0473 47.2599 71.73Z" fill="#FAE8F1"/>
<path d="M47.1899 71.71C46.8299 71.32 46.5699 70.91 46.2599 70.61C45.9817 70.3334 45.6879 70.073 45.3799 69.83C45.2562 69.6662 45.0905 69.5389 44.9004 69.4614C44.7103 69.384 44.5029 69.3593 44.2999 69.39C44.0894 69.4656 43.905 69.6 43.7685 69.7772C43.632 69.9545 43.5492 70.1671 43.5299 70.39C43.504 70.5464 43.5189 70.7068 43.5732 70.8557C43.6275 71.0046 43.7194 71.137 43.8399 71.24C44.1182 71.4493 44.429 71.6114 44.7599 71.72C45.1403 71.8989 45.5557 71.9908 45.976 71.9891C46.3964 71.9873 46.811 71.892 47.1899 71.71ZM47.3299 71.71C47.2682 72.0216 47.1286 72.3126 46.924 72.5557C46.7194 72.7988 46.4565 72.986 46.1599 73.1C45.5665 73.3436 44.9096 73.3857 44.2899 73.22C43.6338 73.0393 43.0675 72.6227 42.6999 72.05C42.496 71.7384 42.3913 71.3723 42.3999 71C42.4157 70.6344 42.5489 70.2837 42.7799 70C43.1513 69.5846 43.5995 69.2451 44.0999 69C44.3638 68.8206 44.6649 68.7035 44.9806 68.6573C45.2962 68.6112 45.6183 68.6372 45.9225 68.7335C46.2266 68.8297 46.505 68.9937 46.7367 69.2131C46.9683 69.4324 47.1472 69.7015 47.2599 70C47.5028 70.5537 47.5278 71.1786 47.3299 71.75V71.71Z" fill="#231F20"/>
<path d="M47.4002 73.87C45.6402 73.27 44.0802 74.1 43.8002 75.17C43.7097 75.6133 43.7721 76.0742 43.9774 76.4774C44.1826 76.8806 44.5185 77.2023 44.9302 77.39C46.0802 77.76 47.5902 76.39 47.6602 74.98C47.6802 74.5929 47.5901 74.208 47.4002 73.87Z" fill="#FAE8F1"/>
<path d="M47.36 73.92C46.84 74.07 46.36 74.13 45.96 74.27C45.5885 74.3957 45.2246 74.5426 44.87 74.71C44.52 74.84 44.07 75.04 43.99 75.49C43.9671 75.7145 44.0085 75.9409 44.1095 76.1427C44.2104 76.3445 44.3666 76.5135 44.56 76.63C44.7113 76.7321 44.8876 76.7909 45.07 76.8C45.2027 76.7961 45.3341 76.7725 45.46 76.73C45.9773 76.4464 46.4195 76.0435 46.7499 75.5548C47.0804 75.0661 47.2895 74.5057 47.36 73.92ZM47.45 73.81C47.7019 74.0048 47.9007 74.2599 48.0283 74.5517C48.1558 74.8435 48.208 75.1627 48.18 75.48C48.1388 76.1206 47.8854 76.7293 47.46 77.21C47.0069 77.7162 46.3846 78.0398 45.71 78.12C45.3272 78.1654 44.9397 78.0921 44.6 77.91C44.3055 77.7266 44.0696 77.4629 43.92 77.15C43.6701 76.6238 43.5306 76.0521 43.51 75.47C43.4951 75.0071 43.621 74.5507 43.8709 74.1609C44.1208 73.7711 44.4829 73.4661 44.9097 73.2863C45.3364 73.1066 45.8076 73.0604 46.2611 73.1538C46.7146 73.2473 47.1291 73.4761 47.45 73.81Z" fill="#231F20"/>
<path d="M48.7295 74.45C49.5359 74.45 50.1895 73.7963 50.1895 72.99C50.1895 72.1836 49.5359 71.53 48.7295 71.53C47.9232 71.53 47.2695 72.1836 47.2695 72.99C47.2695 73.7963 47.9232 74.45 48.7295 74.45Z" fill="#FEE77A"/>
<path d="M30.7695 53.19C30.7695 55.05 32.0095 56.28 33.1195 56.19C33.5686 56.1387 33.9871 55.9367 34.3067 55.6171C34.6263 55.2975 34.8282 54.8791 34.8795 54.43C34.8795 53.22 33.0595 52.22 31.7495 52.57C31.3709 52.6801 31.0312 52.895 30.7695 53.19Z" fill="#FAE8F1"/>
<path d="M30.8398 53.22C31.1298 53.66 31.3398 54.1 31.5898 54.44C31.8398 54.78 32.1098 55.06 32.3498 55.34C32.5898 55.62 32.9098 56 33.3498 55.93C33.5704 55.8872 33.7738 55.7813 33.9354 55.6251C34.0969 55.4688 34.2096 55.2691 34.2598 55.05C34.3093 54.8734 34.3093 54.6866 34.2598 54.51C34.218 54.3848 34.1573 54.2668 34.0798 54.16C33.8335 53.912 33.5459 53.709 33.2298 53.56C32.8817 53.3293 32.4866 53.1791 32.0731 53.1203C31.6597 53.0615 31.2384 53.0955 30.8398 53.22ZM30.6998 53.16C30.8146 52.8704 30.9986 52.6133 31.2357 52.4111C31.4727 52.2089 31.7556 52.0678 32.0598 52C32.6873 51.8497 33.3466 51.9059 33.9398 52.16C34.5579 52.4357 35.0552 52.9259 35.3398 53.54C35.4979 53.8909 35.5433 54.2822 35.4698 54.66C35.3906 54.9974 35.2131 55.3036 34.9598 55.54C34.5391 55.9432 34.0382 56.2532 33.4898 56.45C33.1965 56.5783 32.8799 56.6446 32.5598 56.6446C32.2397 56.6446 31.923 56.5783 31.6298 56.45C31.3541 56.2963 31.1132 56.0872 30.9222 55.836C30.7312 55.5847 30.5942 55.2967 30.5198 54.99C30.428 54.6881 30.3967 54.3711 30.4275 54.0571C30.4584 53.7431 30.5509 53.4382 30.6998 53.16Z" fill="#231F20"/>
<path d="M30.5003 49.27C32.3303 48.93 33.2903 47.44 33.0103 46.37C32.8696 45.9401 32.5874 45.5705 32.2096 45.3217C31.8318 45.0729 31.3808 44.9595 30.9303 45C29.7503 45.24 29.1303 47.22 29.7303 48.44C29.9098 48.7794 30.1753 49.0656 30.5003 49.27Z" fill="#FAE8F1"/>
<path d="M30.5202 49.2C30.8902 48.82 31.2902 48.53 31.5202 48.2C31.7857 47.9054 32.0328 47.5948 32.2602 47.27C32.4174 47.1361 32.5356 46.9624 32.6024 46.7671C32.6693 46.5718 32.6823 46.3621 32.6402 46.16C32.5519 45.9533 32.4059 45.7764 32.2197 45.6505C32.0335 45.5246 31.815 45.455 31.5902 45.45C31.4068 45.4372 31.2234 45.4753 31.0602 45.56C30.943 45.6201 30.8405 45.7055 30.7602 45.81C30.5636 46.0961 30.4181 46.4141 30.3302 46.75C30.1764 47.1465 30.1136 47.5726 30.1465 47.9966C30.1794 48.4207 30.3071 48.8319 30.5202 49.2ZM30.5202 49.35C30.1933 49.3139 29.8814 49.1935 29.615 49.0007C29.3485 48.8079 29.1367 48.5492 29.0002 48.25C28.7202 47.6687 28.6428 47.0104 28.7802 46.38C28.9256 45.7161 29.31 45.1289 29.8602 44.73C30.1894 44.4872 30.5915 44.3637 31.0002 44.38C31.3585 44.3818 31.7075 44.4935 32.0002 44.7C32.4533 45.0549 32.8307 45.4969 33.1102 46C33.288 46.266 33.4098 46.5655 33.4683 46.8801C33.5267 47.1947 33.5206 47.5178 33.4502 47.83C33.3512 48.1296 33.1919 48.4057 32.9821 48.6413C32.7722 48.8769 32.5164 49.0671 32.2302 49.2C31.6902 49.4687 31.0683 49.5223 30.4902 49.35H30.5202Z" fill="#231F20"/>
<path d="M32 50.86C33.22 52.27 35 52.34 35.77 51.56C36.0719 51.2222 36.2502 50.7919 36.2756 50.3395C36.3011 49.8871 36.1722 49.4395 35.91 49.07C35.11 48.17 33.09 48.64 32.34 49.77C32.1305 50.096 32.013 50.4727 32 50.86Z" fill="#FAE8F1"/>
<path d="M32.0005 50.84C32.5205 50.97 33.0005 51.17 33.3805 51.25C33.7669 51.3289 34.1575 51.3857 34.5505 51.42C34.752 51.5151 34.9795 51.5401 35.1969 51.4912C35.4144 51.4422 35.6092 51.322 35.7505 51.1497C35.8918 50.9774 35.9715 50.7628 35.9769 50.54C35.9823 50.3172 35.9132 50.099 35.7805 49.92C35.6993 49.7562 35.5748 49.6179 35.4205 49.52C35.3087 49.447 35.1825 49.3993 35.0505 49.38C34.7133 49.3601 34.3752 49.3973 34.0505 49.49C33.6296 49.5474 33.2269 49.6984 32.8721 49.9321C32.5173 50.1657 32.2195 50.476 32.0005 50.84ZM31.8605 50.84C31.741 50.5448 31.6976 50.2244 31.7343 49.9082C31.771 49.5919 31.8866 49.2899 32.0705 49.03C32.4563 48.5309 32.9929 48.1696 33.6005 48C34.2564 47.7837 34.9694 47.8193 35.6005 48.1C35.9557 48.2493 36.2537 48.5087 36.4505 48.84C36.6138 49.1465 36.6834 49.4942 36.6505 49.84C36.6003 50.4206 36.4336 50.9852 36.1605 51.5C35.9394 51.9072 35.6001 52.2379 35.1872 52.4482C34.7743 52.6585 34.3073 52.7387 33.8479 52.678C33.3885 52.6173 32.9583 52.4187 32.6142 52.1084C32.2701 51.7981 32.0282 51.3907 31.9205 50.94L31.8605 50.84Z" fill="#231F20"/>
<path d="M28.4796 49.81C28.2396 47.97 26.7996 46.93 25.7196 47.15C25.2814 47.2653 24.8954 47.526 24.6247 47.8893C24.354 48.2527 24.2147 48.6972 24.2296 49.15C24.3996 50.34 26.3496 51.07 27.5996 50.53C27.9538 50.3759 28.2584 50.1267 28.4796 49.81Z" fill="#FAE8F1"/>
<path d="M28.4103 49.79C28.0503 49.39 27.7903 48.98 27.4803 48.69C27.2021 48.4102 26.9083 48.1465 26.6003 47.9C26.4761 47.7372 26.3101 47.6112 26.1198 47.5355C25.9296 47.4597 25.7224 47.4371 25.5203 47.47C25.3091 47.5446 25.124 47.6787 24.9874 47.8561C24.8508 48.0335 24.7684 48.2468 24.7503 48.47C24.7284 48.653 24.7525 48.8386 24.8203 49.01C24.8822 49.1291 24.9632 49.2373 25.0603 49.33C25.3368 49.5397 25.6483 49.6989 25.9803 49.8C26.3605 49.9796 26.776 50.0719 27.1964 50.0702C27.6169 50.0684 28.0316 49.9727 28.4103 49.79ZM28.5503 49.79C28.4886 50.1017 28.349 50.3926 28.1444 50.6357C27.9398 50.8788 27.6769 51.066 27.3803 51.18C26.787 51.4255 26.1283 51.4643 25.5103 51.29C24.8566 51.1101 24.2911 50.6976 23.9203 50.13C23.7114 49.8058 23.6068 49.4254 23.6203 49.04C23.6484 48.6953 23.781 48.3674 24.0003 48.1C24.363 47.6494 24.8117 47.2755 25.3203 47C25.5969 46.838 25.9036 46.7341 26.2216 46.6946C26.5397 46.655 26.8625 46.6807 27.1703 46.77C27.4641 46.8833 27.7318 47.0552 27.957 47.2752C28.1822 47.4953 28.3602 47.7589 28.4803 48.05C28.7281 48.6131 28.7531 49.2492 28.5503 49.83V49.79Z" fill="#231F20"/>
<path d="M28.6199 51.94C26.8599 51.35 25.2999 52.18 25.0199 53.25C24.9294 53.6933 24.9919 54.1542 25.1971 54.5574C25.4023 54.9606 25.7382 55.2823 26.1499 55.47C27.2999 55.84 28.8099 54.41 28.8799 53.06C28.8986 52.6698 28.8086 52.2821 28.6199 51.94Z" fill="#FAE8F1"/>
<path d="M28.5798 52C28.0598 52.14 27.5798 52.2 27.1798 52.34C26.8081 52.469 26.4442 52.6192 26.0898 52.79C25.7398 52.91 25.2898 53.12 25.2098 53.57C25.1869 53.7945 25.2284 54.0209 25.3293 54.2227C25.4302 54.4246 25.5864 54.5936 25.7798 54.71C25.9321 54.8086 26.1084 54.8639 26.2898 54.87C26.4234 54.8759 26.5566 54.852 26.6798 54.8C26.9895 54.646 27.2703 54.4397 27.5098 54.19C27.84 53.9277 28.1075 53.595 28.2926 53.2161C28.4778 52.8372 28.5759 52.4217 28.5798 52ZM28.6698 51.89C28.9216 52.0827 29.1205 52.3359 29.2481 52.6262C29.3758 52.9164 29.4279 53.2342 29.3998 53.55C29.3585 54.1936 29.1053 54.8054 28.6798 55.29C28.2267 55.7963 27.6044 56.1199 26.9298 56.2C26.5491 56.2429 26.1646 56.166 25.8298 55.98C25.533 55.8008 25.2937 55.5406 25.1398 55.23C24.8913 54.7033 24.7518 54.1319 24.7298 53.55C24.7047 53.2289 24.746 52.9061 24.8509 52.6016C24.9558 52.2971 25.1222 52.0175 25.3398 51.78C25.5713 51.5664 25.8445 51.4028 26.1422 51.2996C26.4399 51.1963 26.7556 51.1556 27.0698 51.18C27.6744 51.2028 28.2472 51.457 28.6698 51.89Z" fill="#231F20"/>
<path d="M29.9502 52.52C30.7566 52.52 31.4102 51.8663 31.4102 51.06C31.4102 50.2536 30.7566 49.6 29.9502 49.6C29.1439 49.6 28.4902 50.2536 28.4902 51.06C28.4902 51.8663 29.1439 52.52 29.9502 52.52Z" fill="#FEE77A"/>
<path d="M36.43 15.89C35.6281 13.382 34.4911 10.9937 33.05 8.78997C32.0309 7.24928 30.851 5.82126 29.53 4.52997C30.28 7.52997 30.28 8.28997 30.12 8.39997C29.96 8.50997 29.27 6.99997 27.91 5.71997C26.8327 4.69698 25.5048 3.97609 24.06 3.62997L25.62 6.73997C23.7357 5.14995 21.3109 4.34765 18.85 4.49997C17.4622 4.57872 16.0954 4.8757 14.8 5.37997L16.89 6.99997C15.6985 6.65475 14.4285 6.69323 13.26 7.10997C12.02 7.53761 10.8825 8.21872 9.92004 9.10997L11.58 10.25C9.81633 10.667 8.103 11.2739 6.47004 12.06C4.44779 13.0393 2.54242 14.2436 0.790039 15.65L7.58004 20.76C6.93004 20.83 6.58004 20.94 6.51004 21.12C6.32004 21.63 8.70004 22.62 13.67 24.12C13.12 24.49 12.56 24.85 12 25.21C12.6476 25.8092 13.4143 26.265 14.25 26.5476C15.0858 26.8302 15.9717 26.9332 16.85 26.85C18.76 26.64 20.59 25.58 20.67 25.85C20.67 25.99 20.36 26.41 18.67 27.62C20.0046 28.0516 21.4482 28.0021 22.75 27.48C24.23 26.9 25.48 25.8 25.58 25.99C25.68 26.18 23.98 27.77 24.08 27.99C24.18 28.21 27.94 25.56 31.41 22.36C33.1997 20.811 34.7203 18.9762 35.91 16.93C36.14 16.48 36.31 16.13 36.43 15.89Z" fill="#3E9581"/>
<path d="M36.35 15.88C35.96 14.88 35.5 13.83 35.01 12.88C34.5148 11.8896 33.9639 10.9281 33.36 10C32.1829 8.14024 30.7676 6.44249 29.15 4.95L30.05 4.43C30.3353 5.41646 30.5657 6.418 30.74 7.43C30.7931 7.7235 30.8132 8.02202 30.8 8.31999C30.7924 8.47634 30.7441 8.628 30.66 8.76C30.6039 8.85723 30.524 8.93856 30.4278 8.9963C30.3315 9.05404 30.2222 9.08629 30.11 9.09C30.0184 9.1151 29.9216 9.1151 29.83 9.09L29.64 9C29.4862 8.87713 29.3514 8.73223 29.24 8.56999C28.93 8.12999 28.68 7.74 28.39 7.36C27.8446 6.61295 27.1667 5.97234 26.39 5.47C25.6177 4.96907 24.7654 4.60381 23.87 4.39L24.64 3.39L26.19 6.51L27.64 9.42L25.2 7.24C23.8362 6.06096 22.1572 5.30665 20.37 5.07C18.5333 4.86014 16.673 5.08626 14.94 5.73L15 5.09L17 6.72L18.28 7.72L16.73 7.22C15.558 6.86461 14.3027 6.89617 13.15 7.31C11.9766 7.72464 10.9059 8.38619 10.01 9.25V8.88L11.72 10L12.19 10.32L11.64 10.46C7.74042 11.4612 4.12808 13.3581 1.09 16V15.23C3.41 16.87 5.69 18.54 7.98 20.23L9.33 21.23L7.65 21.44C7.4882 21.4544 7.32774 21.4812 7.17 21.52L7 21.55C7 21.55 7 21.61 7.12 21.42C7.16357 21.3005 7.16357 21.1695 7.12 21.05C7.12 21.05 7.05 20.92 7.12 20.94L7.2 21C7.32555 21.084 7.45576 21.1608 7.59 21.23C8.24016 21.5391 8.90799 21.8095 9.59 22.04C10.99 22.53 12.43 22.95 13.88 23.37L15.44 23.82L14.07 24.73L12.41 25.83L12.5 24.59C13.1675 25.1723 13.9517 25.6053 14.8 25.86C15.6408 26.1 16.529 26.1206 17.38 25.92C17.8336 25.8234 18.2811 25.6998 18.72 25.55C19.19 25.39 19.58 25.22 20.22 25.05H20.39H20.69C20.7792 25.0627 20.8665 25.0862 20.95 25.12C21.136 25.2178 21.2865 25.3718 21.38 25.56C21.4291 25.6702 21.4544 25.7894 21.4544 25.91C21.4544 26.0306 21.4291 26.1498 21.38 26.26C21.2876 26.4699 21.1512 26.6574 20.98 26.81C20.7804 27.0049 20.5701 27.1885 20.35 27.36C19.94 27.69 19.53 27.99 19.12 28.28L18.89 26.91C19.8578 27.2366 20.8992 27.2783 21.89 27.03C22.9191 26.718 23.8938 26.2491 24.78 25.64C24.9439 25.5269 25.1222 25.4361 25.31 25.37C25.3896 25.3592 25.4704 25.3592 25.55 25.37H25.63H25.76C25.9113 25.408 26.0452 25.4961 26.14 25.62C26.2516 25.7766 26.3015 25.9689 26.28 26.16C26.2688 26.229 26.2487 26.2962 26.22 26.36C26.1945 26.4353 26.1574 26.5062 26.11 26.57L26.03 26.69C25.8378 26.9358 25.6308 27.1695 25.41 27.39L24.84 28C24.77 28.07 24.65 28.27 24.71 28.14C24.7381 28.0558 24.7445 27.9659 24.7288 27.8785C24.7131 27.7911 24.6757 27.7091 24.62 27.64C24.5787 27.5762 24.5244 27.5219 24.4606 27.4805C24.3969 27.4391 24.3251 27.4117 24.25 27.4C24.2106 27.3903 24.1694 27.3903 24.13 27.4H24L24.12 27.34C25.073 26.7755 25.9913 26.1543 26.87 25.48C28.6964 24.1349 30.4521 22.6963 32.13 21.17C33.8236 19.656 35.2502 17.8677 36.35 15.88ZM36.5 15.88C35.5862 18.0198 34.2804 19.97 32.65 21.63C31.0368 23.2716 29.3413 24.8303 27.57 26.3C26.6698 27.0591 25.7174 27.7541 24.72 28.38L24.46 28.51H24.36C24.2974 28.5238 24.2326 28.5238 24.17 28.51H24C23.8304 28.4775 23.68 28.3807 23.58 28.24C23.5209 28.1531 23.4822 28.0541 23.4666 27.9503C23.451 27.8464 23.459 27.7404 23.49 27.64C23.5741 27.4326 23.6962 27.2427 23.85 27.08L24.43 26.41C24.6039 26.2189 24.7675 26.0186 24.92 25.81C24.92 25.81 24.92 25.81 24.92 25.76C24.92 25.71 24.92 25.76 24.92 25.76C24.9157 25.7932 24.9157 25.8268 24.92 25.86C24.9086 25.9376 24.9134 26.0168 24.9341 26.0925C24.9547 26.1682 24.9908 26.2389 25.04 26.3C25.1174 26.4133 25.2357 26.4921 25.37 26.52H25.48H25.53C25.5765 26.5257 25.6235 26.5257 25.67 26.52C25.593 26.5606 25.5194 26.6075 25.45 26.66C24.4722 27.3817 23.3851 27.9422 22.23 28.32C20.9872 28.6652 19.6712 28.6444 18.44 28.26L17 27.91L18.22 27C18.62 26.71 19.01 26.41 19.38 26.11C19.55 25.96 19.73 25.81 19.87 25.67C20.01 25.53 20.01 25.48 19.92 25.67C19.8848 25.7522 19.8666 25.8406 19.8666 25.93C19.8666 26.0194 19.8848 26.1078 19.92 26.19C19.9876 26.3553 20.1166 26.4879 20.28 26.56C20.3325 26.5903 20.3901 26.6107 20.45 26.62H20.57C20.24 26.71 19.71 26.93 19.23 27.09C18.7296 27.2629 18.2185 27.4031 17.7 27.51C16.5962 27.7553 15.449 27.7244 14.36 27.42C13.2951 27.0893 12.3155 26.5295 11.49 25.78L10.7 25.1L11.57 24.55L13.25 23.48L13.45 24.84C12 24.39 10.55 23.93 9.11 23.4C8.38984 23.1221 7.68545 22.805 7 22.45C6.80178 22.3435 6.61131 22.2232 6.43 22.09L6.22 22L6 21.77C5.92208 21.6598 5.86139 21.5384 5.82 21.41C5.76362 21.1953 5.78855 20.9674 5.89 20.77C6.01259 20.552 6.21238 20.3879 6.45 20.31C6.57159 20.2577 6.69925 20.2207 6.83 20.2C7.04137 20.1574 7.25507 20.1273 7.47 20.11L7.14 21.29C5 19.54 2.71 17.81 0.5 16L0 15.6L0.49 15.23C3.74834 12.7265 7.49575 10.9345 11.49 9.97L11.41 10.42L9.79 9.3L9.55 9.13L9.76 8.93C10.7153 8.04949 11.8374 7.36942 13.06 6.93C14.314 6.43287 15.6932 6.34536 17 6.68L16.73 7.2L14.58 5.68L14.05 5.3L14.67 5C16.5002 4.21153 18.4915 3.86881 20.48 4C22.5223 4.14317 24.4692 4.91913 26.05 6.22L25 7L23.46 3.93L22.79 2.62L24.22 3C26.3227 3.49832 28.1715 4.74627 29.42 6.51C29.73 6.93 30 7.39 30.25 7.76C30.25 7.84 30.41 7.96 30.34 7.9C30.3067 7.89794 30.2733 7.89794 30.24 7.9H30.04C29.959 7.9053 29.8805 7.92984 29.811 7.97158C29.7414 8.01332 29.6828 8.07106 29.64 8.14C29.57 8.28 29.64 8.23 29.59 8.22C29.6127 8.02399 29.6127 7.826 29.59 7.63C29.48 6.7 29.24 5.73 29.03 4.77L28.63 2.91L29.94 4.24C31.5135 5.84498 32.8777 7.64259 34 9.59C34.5457 10.5827 35.0299 11.608 35.45 12.66C35.8746 13.711 36.2254 14.7903 36.5 15.89V15.88Z" fill="#231F20"/>
<path d="M36.1296 16.15C35.2908 14.1578 34.1876 12.2876 32.8496 10.59C31.8942 9.38373 30.815 8.28103 29.6296 7.29999C30.4496 9.64999 30.4996 10.3 30.3696 10.37C30.2396 10.44 29.5796 9.30999 28.3696 8.28999C27.3919 7.5022 26.2339 6.96958 24.9996 6.73999C25.4996 7.55999 25.9996 8.36999 26.5096 9.17999C24.825 7.97372 22.763 7.41298 20.6996 7.59999C19.5524 7.69723 18.4282 7.97744 17.3696 8.42999L19.2096 9.61999C18.2122 9.38367 17.1668 9.45337 16.2096 9.81999C15.2048 10.1965 14.2938 10.7868 13.5396 11.55L14.9996 12.41C13.5554 12.7852 12.1569 13.3184 10.8296 14C9.21192 14.8218 7.6951 15.8285 6.30957 17L12.3096 20.87C11.7696 20.94 11.4796 21.05 11.4396 21.19C11.3129 21.5967 13.3729 22.3167 17.6196 23.35L16.2896 24.26C16.8727 24.7211 17.5415 25.062 18.2573 25.2628C18.9731 25.4637 19.7217 25.5205 20.4596 25.43C22.0396 25.2 23.4596 24.3 23.5896 24.54C23.7196 24.78 23.3696 25 21.9996 26.06C23.1304 26.3627 24.3297 26.2818 25.4096 25.83C26.6096 25.32 27.5796 24.4 27.6796 24.55C27.7796 24.7 26.4796 26 26.5796 26.16C26.6796 26.32 29.6496 24.1 32.3496 21.44C33.7359 20.1697 34.8899 18.6671 35.7596 17C35.9296 16.63 36.0496 16.35 36.1296 16.15Z" fill="#1E6F5D"/>
<path d="M36.4403 16C34.3103 16.49 32.1503 16.92 29.9803 17.26C27.8103 17.6 25.6103 17.82 23.4103 17.97C21.2064 18.18 18.9891 18.2101 16.7803 18.06C14.5753 17.847 12.3975 17.4114 10.2803 16.76V16.61C12.5103 16.43 14.6703 16.61 16.8403 16.56C19.0103 16.51 21.1703 16.78 23.3503 16.77C27.7156 16.7472 32.0749 16.4399 36.4003 15.85L36.4403 16Z" fill="#231F20"/>
<path d="M32.9996 16.48C32.3962 16.0842 31.8452 15.6138 31.3596 15.08C30.9383 14.5575 30.5444 14.0134 30.1796 13.45C29.747 12.9284 29.2721 12.4434 28.7596 12C28.2381 11.5366 27.6833 11.1121 27.0996 10.73L27.1596 10.59C27.8508 10.7906 28.5207 11.0585 29.1596 11.39C29.8096 11.7346 30.4256 12.1398 30.9996 12.6C31.6186 13.027 32.1484 13.5704 32.5596 14.2C32.9394 14.8738 33.1327 15.6366 33.1196 16.41L32.9996 16.48Z" fill="#231F20"/>
<path d="M32.9997 16.51C32.8551 17.4255 32.5139 18.2988 31.9997 19.07C31.4803 19.8 30.8571 20.4502 30.1497 21C28.8397 22.2096 27.3814 23.2479 25.8097 24.09L25.7197 24C26.9975 22.8286 28.1843 21.5616 29.2697 20.21C29.7482 19.5146 30.2657 18.8468 30.8197 18.21C31.4144 17.5579 32.0859 16.9803 32.8197 16.49L32.9997 16.51Z" fill="#231F20"/>
<path d="M28.4097 17.15C27.8235 16.7975 27.2828 16.3744 26.7997 15.89C26.3297 15.47 26.0497 14.89 25.6097 14.44C24.7098 13.5013 23.6456 12.7353 22.4697 12.18V12.03C23.8678 12.1989 25.2016 12.7145 26.3497 13.53C27.0072 13.8841 27.5724 14.3876 27.9997 15C28.3949 15.6308 28.5901 16.3663 28.5597 17.11L28.4097 17.15Z" fill="#231F20"/>
<path d="M28.5303 17.16C28.3587 17.9322 28.0171 18.6564 27.5303 19.28C27.0192 19.8512 26.4261 20.3433 25.7703 20.74C24.5512 21.6445 23.2407 22.4187 21.8603 23.05L21.7803 22.92C22.9003 21.92 23.9803 20.92 24.9803 19.84C25.4259 19.2613 25.9211 18.7226 26.4603 18.23C27.0595 17.7372 27.735 17.3454 28.4603 17.07L28.5303 17.16Z" fill="#231F20"/>
<path d="M22.6705 17.65C22.1794 17.448 21.7262 17.164 21.3305 16.81C21.0193 16.4742 20.7414 16.1092 20.5005 15.72C19.8541 14.9981 19.0857 14.3956 18.2305 13.94V13.79C19.2999 13.8593 20.3333 14.2038 21.2305 14.79C21.7298 15.0374 22.1569 15.4093 22.4705 15.87C22.7624 16.3819 22.8617 16.9813 22.7505 17.56L22.6705 17.65Z" fill="#231F20"/>
<path d="M22.7904 17.67C22.7319 18.2929 22.5036 18.8878 22.1304 19.39C21.747 19.8302 21.286 20.1963 20.7704 20.47C19.8361 21.1345 18.8297 21.6913 17.7704 22.13L17.6504 22C18.4604 21.19 19.2504 20.4 19.9704 19.57C20.2796 19.1121 20.6459 18.6954 21.0604 18.33C21.5401 17.962 22.0922 17.6996 22.6804 17.56L22.7904 17.67Z" fill="#231F20"/>
<path d="M16.5901 17.28C16.1866 17.1969 15.805 17.03 15.4701 16.79C15.2001 16.61 15.1301 16.25 14.9201 15.99C14.4868 15.4358 13.9627 14.9591 13.3701 14.58V14.44C14.1788 14.4311 14.9732 14.6531 15.6601 15.08C16.0101 15.29 16.4501 15.46 16.6601 15.86C16.7625 16.0688 16.8206 16.2964 16.8309 16.5287C16.8412 16.761 16.8035 16.9929 16.7201 17.21L16.5901 17.28Z" fill="#231F20"/>
<path d="M16.7099 17.3C16.7479 17.7859 16.6249 18.2709 16.3599 18.68C16.1399 19.06 15.6899 19.22 15.3599 19.45C14.6246 19.9179 13.8312 20.2877 12.9999 20.55L12.9199 20.43C13.4799 19.79 14.0199 19.18 14.5099 18.55C14.7699 18.24 14.9199 17.83 15.2699 17.63C15.6628 17.3773 16.1137 17.2293 16.5799 17.2L16.7099 17.3Z" fill="#231F20"/>
<path d="M30.7695 19.15C30.7695 21.01 32.0095 22.25 33.1195 22.15C33.5686 22.0987 33.9871 21.8968 34.3067 21.5771C34.6263 21.2575 34.8282 20.8391 34.8795 20.39C34.8795 19.18 33.0595 18.18 31.7495 18.53C31.3727 18.6439 31.0339 18.8583 30.7695 19.15Z" fill="#FAE8F1"/>
<path d="M30.8397 19.18C31.1297 19.63 31.3397 20.07 31.5897 20.41C31.8397 20.75 32.1097 21.02 32.3497 21.31C32.5897 21.6 32.9097 21.97 33.3497 21.9C33.5704 21.8572 33.7738 21.7513 33.9354 21.5951C34.0969 21.4388 34.2096 21.239 34.2597 21.02C34.3092 20.8434 34.3092 20.6566 34.2597 20.48C34.2221 20.3531 34.1611 20.2344 34.0797 20.13C33.8317 19.8815 33.5445 19.6755 33.2297 19.52C32.8808 19.2912 32.4857 19.1422 32.0727 19.0834C31.6596 19.0246 31.2386 19.0576 30.8397 19.18ZM30.6997 19.12C30.81 18.8234 30.9918 18.5586 31.2291 18.3493C31.4664 18.1399 31.7517 17.9924 32.0597 17.92C32.6873 17.7697 33.3466 17.8258 33.9397 18.08C34.5621 18.3494 35.0614 18.8415 35.3397 19.46C35.4979 19.8109 35.5433 20.2022 35.4697 20.58C35.3884 20.9165 35.2112 21.2221 34.9597 21.46C34.5366 21.8599 34.0364 22.1695 33.4897 22.37C33.1965 22.4983 32.8798 22.5645 32.5597 22.5645C32.2396 22.5645 31.923 22.4983 31.6297 22.37C31.3563 22.2135 31.1171 22.0035 30.9264 21.7527C30.7357 21.5019 30.5974 21.2153 30.5197 20.91C30.3485 20.3123 30.4129 19.6716 30.6997 19.12Z" fill="#231F20"/>
<path d="M30.5003 15.24C32.3303 14.9 33.2903 13.4 33.0103 12.34C32.8642 11.9156 32.5797 11.5528 32.2024 11.3097C31.8251 11.0667 31.3771 10.9576 30.9303 11C29.7503 11.24 29.1303 13.22 29.7303 14.44C29.9168 14.7663 30.1814 15.0412 30.5003 15.24Z" fill="#FAE8F1"/>
<path d="M30.5202 15.17C30.8902 14.79 31.2902 14.5 31.5202 14.17C31.7879 13.8808 32.0351 13.5734 32.2602 13.25C32.4174 13.1161 32.5356 12.9424 32.6024 12.7471C32.6693 12.5518 32.6823 12.3421 32.6402 12.14C32.5519 11.9333 32.4059 11.7564 32.2197 11.6305C32.0335 11.5046 31.815 11.435 31.5902 11.43C31.4077 11.4141 31.2244 11.4487 31.0602 11.53C30.9474 11.5965 30.846 11.6809 30.7602 11.78C30.561 12.0864 30.4156 12.4246 30.3302 12.78C30.1857 13.1681 30.1278 13.5831 30.1607 13.996C30.1935 14.4089 30.3162 14.8096 30.5202 15.17ZM30.5202 15.31C30.1941 15.2758 29.8824 15.1573 29.6159 14.9662C29.3494 14.7751 29.1372 14.5179 29.0002 14.22C28.7202 13.6387 28.6428 12.9804 28.7802 12.35C28.9331 11.6788 29.3329 11.0898 29.9002 10.7C30.2185 10.4657 30.6051 10.3427 31.0002 10.35C31.3585 10.3518 31.7075 10.4635 32.0002 10.67C32.4729 11.0079 32.874 11.4362 33.1802 11.93C33.3577 12.198 33.4794 12.4992 33.5378 12.8153C33.5962 13.1315 33.5902 13.4562 33.5202 13.77C33.3104 14.3605 32.8831 14.8487 32.3256 15.1349C31.7681 15.4211 31.1224 15.4837 30.5202 15.31Z" fill="#231F20"/>
<path d="M31.9996 16.83C33.2196 18.23 34.9996 18.31 35.7696 17.53C36.0741 17.1834 36.2495 16.7421 36.2659 16.281C36.2823 15.8199 36.1387 15.3674 35.8596 15C35.0596 14.1 33.0396 14.56 32.2896 15.7C32.0907 16.0427 31.9903 16.4338 31.9996 16.83Z" fill="#FAE8F1"/>
<path d="M31.9996 16.8C32.5196 16.94 32.9996 17.13 33.3796 17.21C33.7658 17.2921 34.1565 17.3522 34.5496 17.39C34.7456 17.4529 34.9547 17.4639 35.1562 17.4218C35.3578 17.3797 35.545 17.2861 35.6996 17.15C35.832 16.9696 35.9099 16.755 35.9241 16.5317C35.9383 16.3084 35.8881 16.0857 35.7796 15.89C35.6978 15.724 35.5736 15.5825 35.4196 15.48C35.3052 15.4144 35.1798 15.3704 35.0496 15.35C34.7123 15.3249 34.3733 15.3621 34.0496 15.46C33.6287 15.5134 33.2254 15.6618 32.8703 15.894C32.5152 16.1261 32.2174 16.4359 31.9996 16.8ZM31.8596 16.85C31.7401 16.5566 31.6967 16.2377 31.7334 15.923C31.7701 15.6083 31.8857 15.308 32.0696 15.05C32.4346 14.5172 32.9655 14.1199 33.5796 13.92C34.2341 13.6936 34.9509 13.7295 35.5796 14.02C35.9348 14.1693 36.2327 14.4287 36.4296 14.76C36.594 15.0661 36.6637 15.4142 36.6296 15.76C36.578 16.3404 36.4114 16.9047 36.1396 17.42C35.999 17.7086 35.8003 17.9651 35.556 18.1733C35.3116 18.3815 35.0269 18.537 34.7196 18.63C34.4125 18.6966 34.095 18.6989 33.787 18.637C33.4789 18.575 33.187 18.4501 32.9296 18.27C32.4075 17.952 32.0307 17.4423 31.8796 16.85H31.8596Z" fill="#231F20"/>
<path d="M28.4796 15.78C28.2396 13.93 26.7996 12.89 25.7196 13.12C25.2814 13.2353 24.8954 13.496 24.6247 13.8593C24.354 14.2227 24.2147 14.6671 24.2296 15.12C24.3996 16.32 26.3496 17.05 27.5996 16.51C27.9509 16.3465 28.254 16.095 28.4796 15.78Z" fill="#FAE8F1"/>
<path d="M28.4103 15.76C28.0503 15.36 27.7903 14.95 27.4803 14.66C27.2046 14.3776 26.9106 14.1137 26.6003 13.87C26.4752 13.7078 26.3093 13.5817 26.1196 13.5044C25.9299 13.4271 25.7231 13.4014 25.5203 13.43C25.3105 13.5067 25.1267 13.6414 24.9904 13.8184C24.8541 13.9954 24.7708 14.2075 24.7503 14.43C24.7284 14.613 24.7525 14.7986 24.8203 14.97C24.8825 15.086 24.9636 15.1908 25.0603 15.28C25.3368 15.4922 25.6481 15.6546 25.9803 15.76C26.3605 15.9384 26.7753 16.0309 27.1953 16.0309C27.6153 16.0309 28.0301 15.9384 28.4103 15.76ZM28.5503 15.76C28.4869 16.071 28.3466 16.3611 28.1422 16.6039C27.9378 16.8467 27.6759 17.0344 27.3803 17.15C26.787 17.3955 26.1283 17.4343 25.5103 17.26C24.8566 17.0801 24.2911 16.6676 23.9203 16.1C23.7114 15.7758 23.6068 15.3954 23.6203 15.01C23.6484 14.6653 23.781 14.3374 24.0003 14.07C24.3659 13.6302 24.8144 13.2666 25.3203 13C25.5969 12.838 25.9036 12.7341 26.2216 12.6946C26.5397 12.655 26.8625 12.6807 27.1703 12.77C27.4595 12.8776 27.7243 13.0418 27.9492 13.253C28.1742 13.4642 28.3547 13.7182 28.4803 14C28.7344 14.5686 28.7595 15.2133 28.5503 15.8V15.76Z" fill="#231F20"/>
<path d="M28.62 17.91C26.86 17.32 25.3 18.15 25.02 19.22C24.932 19.6618 24.9956 20.1204 25.2007 20.5215C25.4058 20.9226 25.7403 21.2427 26.15 21.43C27.3 21.8 28.81 20.38 28.88 19.02C28.899 18.6329 28.8089 18.2483 28.62 17.91Z" fill="#FAE8F1"/>
<path d="M28.5797 18C28.0597 18.14 27.5797 18.2 27.1797 18.34C26.8082 18.4658 26.4443 18.6127 26.0897 18.78C25.7397 18.91 25.2897 19.11 25.2097 19.57C25.1863 19.7932 25.2276 20.0184 25.3287 20.2187C25.4297 20.4191 25.5863 20.5861 25.7797 20.7C25.931 20.8021 26.1073 20.8609 26.2897 20.87C26.4224 20.8661 26.5539 20.8425 26.6797 20.8C26.9919 20.6458 27.2732 20.4356 27.5097 20.18C27.8402 19.9203 28.1081 19.5894 28.2933 19.212C28.4785 18.8346 28.5764 18.4204 28.5797 18ZM28.6697 17.88C28.9216 18.0749 29.1204 18.3299 29.248 18.6217C29.3755 18.9136 29.4277 19.2328 29.3997 19.55C29.3585 20.1906 29.1051 20.7993 28.6797 21.28C28.232 21.7932 27.6069 22.1182 26.9297 22.19C26.5499 22.2416 26.1637 22.1679 25.8297 21.98C25.5329 21.8008 25.2935 21.5406 25.1397 21.23C24.8899 20.7003 24.7504 20.1253 24.7297 19.54C24.7048 19.2205 24.7462 18.8992 24.8511 18.5964C24.9561 18.2936 25.1224 18.0156 25.3397 17.78C25.5712 17.5664 25.8444 17.4028 26.1421 17.2996C26.4398 17.1963 26.7555 17.1556 27.0697 17.18C27.6681 17.1951 28.2391 17.4342 28.6697 17.85V17.88Z" fill="#231F20"/>
<path d="M29.9502 18.49C30.7566 18.49 31.4102 17.8363 31.4102 17.03C31.4102 16.2236 30.7566 15.57 29.9502 15.57C29.1439 15.57 28.4902 16.2236 28.4902 17.03C28.4902 17.8363 29.1439 18.49 29.9502 18.49Z" fill="#FEE77A"/>
</g>
<defs>
<clipPath id="clip0">
<rect width="92.39" height="119.84" fill="white"/>
</clipPath>
</defs>
</svg>
