<svg width="435" height="324" viewBox="0 0 435 324" fill="none" xmlns="http://www.w3.org/2000/svg">
<path d="M268.5 25.9997L270.1 25.1997C286 19.2997 303.8 26.3997 317.7 36.0997C333.5 46.9997 347.1 61.4997 355.3 78.8997C363.5 96.2997 365.3 118.7 359.6 137.1C363.5 134.8 371.4 134.2 375.8 135.2C394.2 139.6 410.1 152.4 419.8 168.7C429.5 185 433.1 204.5 431.6 223.3C429.1 254.1 411.7 284.5 383.9 298C356.1 311.5 318.6 304.6 300.7 279.4L300 279.6C268.1 315.9 213.7 330.6 167.8 315.3C146.7 308.3 123.9 291.5 122.5 269.3C105 285.4 79.0001 291.8 56.0001 285.7C33.0001 279.6 13.6001 261.1 6.40009 238.4C-0.399913 217.1 3.30008 193.4 13.1001 173.3C18.3001 162.6 25.3001 152.6 35.0001 145.6C44.6001 138.7 57.2001 135.2 68.7001 138.1C65.1001 115.1 70.9001 87.7997 84.2001 68.6997C97.6001 49.5997 118.6 35.9997 141.4 31.5997C150 29.8997 159.3 29.5997 167.4 32.2997L167.9 30.8997C173.3 22.5997 181.7 16.8997 190 11.4997C193.8 8.99974 197.7 6.39974 202 4.89974C209.3 2.29974 217.3 2.59974 225.1 3.29974C235.2 4.19974 245.6 5.59974 254.5 10.4997C260.7 13.9997 266 19.5997 268.5 25.9997Z" fill="white"/>
<path d="M68.7001 138.2C65.1001 115.2 70.9001 87.8999 84.2001 68.7999C97.6001 49.6999 118.6 36.0999 141.4 31.6999C150 29.9999 159.3 29.6999 167.4 32.3999C170.4 33.3999 173.2 34.6999 175.8 36.4999" stroke="#231F20" stroke-width="4" stroke-miterlimit="10" stroke-linecap="round" stroke-linejoin="round"/>
<path d="M168 30.8997C173.4 22.5997 181.8 16.8997 190.1 11.4997C193.9 8.99974 197.8 6.39974 202.1 4.89974C209.4 2.29974 217.4 2.59974 225.2 3.29974C235.3 4.19974 245.7 5.59974 254.6 10.4997C260.8 13.9997 266.1 19.4997 268.6 25.9997C269.7 28.7997 270.2 31.7997 270.1 34.8997" stroke="#231F20" stroke-width="4" stroke-miterlimit="10" stroke-linecap="round" stroke-linejoin="round"/>
<path d="M270.1 25.2996C286 19.3996 303.8 26.4996 317.7 36.1996C333.5 47.0996 347.1 61.5996 355.3 78.9996C363.5 96.3996 365.3 118.8 359.6 137.2" stroke="#231F20" stroke-width="4" stroke-miterlimit="10" stroke-linecap="round" stroke-linejoin="round"/>
<path d="M68.7001 138.199C57.2001 135.299 44.7001 138.799 35.0001 145.699C25.3001 152.599 18.3001 162.699 13.1001 173.399C3.30008 193.499 -0.399913 217.199 6.40009 238.499C13.6001 261.199 33.0001 279.699 56.0001 285.799C79.0001 291.899 105 285.499 122.5 269.399" stroke="#231F20" stroke-width="4" stroke-miterlimit="10" stroke-linecap="round" stroke-linejoin="round"/>
<path d="M359.7 137.1C363.6 134.8 371.5 134.2 375.9 135.2C394.3 139.6 410.2 152.4 419.9 168.7C429.6 185 433.2 204.5 431.7 223.3C429.2 254.1 411.8 284.5 384 298C356.2 311.5 318.7 304.6 300.8 279.4" stroke="#231F20" stroke-width="4" stroke-miterlimit="10" stroke-linecap="round" stroke-linejoin="round"/>
<path d="M122.6 269.3C124 291.5 146.9 308.3 167.9 315.3C213.8 330.6 268.1 315.9 300.1 279.6" stroke="#231F20" stroke-width="4" stroke-miterlimit="10" stroke-linecap="round" stroke-linejoin="round"/>
<g opacity="0.18">
<path opacity="0.18" d="M28.6002 155.1C14.3002 169.4 8.10024 194.7 8.70024 214.9C9.00024 226.5 10.9002 238.4 16.2002 248.7C26.0002 267.8 47.3002 279.6 68.7002 280.4C90.1002 281.2 111.2 272 127.1 257.6C130.1 281.7 147.9 302.6 170.2 312.1C192.5 321.7 218.4 320.7 241.2 312.4C264 304.1 283.9 289.1 300.6 271.5C320.2 294.4 355 302.7 382.8 291.3C410.6 279.8 429.4 249.4 427.2 219.4C419.3 245.2 396.7 266.6 370 270.4C343.3 274.2 314.3 258.6 305.2 233.3C301.7 241 294.6 246.2 287.7 251C268.6 264.4 248.7 277.9 225.9 282.8C203.1 287.7 176.4 282.1 162.8 263.2C153.6 250.5 151.6 234.2 149.9 218.6C130.4 236.8 103.7 247.2 76.9002 246.9C70.8002 246.8 64.5003 246.2 59.1003 243.4C51.3003 239.4 39.6002 236.3 36.0002 228.3C32.4002 220.3 29.5002 216.3 27.5002 207.7C24.6002 194.4 30.1002 168.9 28.6002 155.1Z" fill="#68C5FF"/>
</g>
<path d="M168 152.899C178.217 152.899 186.5 144.617 186.5 134.399C186.5 124.182 178.217 115.899 168 115.899C157.783 115.899 149.5 124.182 149.5 134.399C149.5 144.617 157.783 152.899 168 152.899Z" fill="#231F20"/>
<path d="M174.9 138.2C179.981 138.2 184.1 134.081 184.1 129C184.1 123.919 179.981 119.8 174.9 119.8C169.819 119.8 165.7 123.919 165.7 129C165.7 134.081 169.819 138.2 174.9 138.2Z" fill="white"/>
<path d="M160.6 139.499C158.7 141.099 160.1 144.499 162.5 144.399C163.9 144.399 165 142.899 165.4 141.699C165.6 140.899 165.6 140.099 165 139.499C164.6 139.099 164 138.799 163.4 138.599C162.2 138.299 160.8 138.599 160 139.599C159.1 140.599 159.6 142.199 160.4 143.099C161.2 143.899 162.4 144.299 163.4 144.099C164.5 143.899 165.5 142.799 165.4 141.699C165.3 139.299 161.6 137.499 160.3 139.999C159.9 140.699 160.1 141.599 160.8 142.099C161.5 142.499 162.5 142.299 162.9 141.599C163 141.299 162.8 141.699 162.7 141.799C162.6 141.799 162.2 141.899 162.4 141.899C161.8 141.899 162.4 141.799 162.4 141.899C162.4 141.899 162.1 141.699 162.4 141.899C162.2 141.699 162.3 141.799 162.4 141.999C162.3 141.899 162.3 141.799 162.4 141.999V141.899C162.4 141.799 162.4 141.699 162.4 141.599C162.5 141.399 162.5 141.399 162.5 141.499C162.4 141.599 162.6 141.399 162.7 141.399C162.5 141.599 162.8 141.399 162.9 141.399C162.8 141.399 162.7 141.399 162.9 141.399C163 141.399 163 141.399 162.9 141.399C162.6 141.199 163.1 141.599 162.8 141.399C162.7 141.399 162.5 141.099 162.7 141.299L162.6 141.199C162.5 141.099 162.5 141.099 162.6 141.199C162.6 141.199 162.6 141.099 162.5 141.099C162.6 141.199 162.6 141.299 162.5 141.199C162.5 141.099 162.5 141.099 162.5 141.299C162.5 141.099 162.5 141.099 162.5 141.299C162.4 141.499 162.2 141.699 162.1 141.999C162.2 141.899 162.2 141.899 162.1 141.899C162.3 141.799 162.3 141.799 162.1 141.799C162.2 141.799 162.3 141.699 162.4 141.699C162.3 141.699 162.3 141.699 162.5 141.699C162.7 141.699 162.7 141.699 162.6 141.699C162.7 141.699 162.8 141.799 162.9 141.799C162.8 141.799 162.8 141.799 162.9 141.899C162.8 141.799 162.8 141.799 162.9 141.999C162.8 141.599 162.6 141.299 162.5 140.899C162.5 141.299 162.3 141.599 161.7 141.899C162 141.799 162.2 141.799 162.5 141.699C162.3 141.699 162.5 141.699 162.5 141.699C162.5 141.699 162.9 141.899 162.7 141.799C162.6 141.699 162.9 141.899 162.7 141.799C162.5 141.699 162.7 141.499 162.7 141.799C162.7 141.699 162.6 141.699 162.7 141.799V141.599C162.7 141.599 162.6 141.999 162.6 141.899C162.6 141.799 162.6 141.799 162.6 141.899C162.5 141.999 162.5 141.999 162.7 141.899C163.3 141.399 163.2 140.299 162.7 139.799C162.1 138.899 161.2 138.999 160.6 139.499Z" fill="white"/>
<path d="M270.1 152.899C280.317 152.899 288.6 144.617 288.6 134.399C288.6 124.182 280.317 115.899 270.1 115.899C259.883 115.899 251.6 124.182 251.6 134.399C251.6 144.617 259.883 152.899 270.1 152.899Z" fill="#231F20"/>
<path d="M277 138.2C282.081 138.2 286.2 134.081 286.2 129C286.2 123.919 282.081 119.8 277 119.8C271.919 119.8 267.8 123.919 267.8 129C267.8 134.081 271.919 138.2 277 138.2Z" fill="white"/>
<path d="M262.8 139.499C260.9 141.099 262.3 144.499 264.7 144.399C266.1 144.399 267.2 142.899 267.6 141.699C267.8 140.899 267.8 140.099 267.2 139.499C266.8 139.099 266.2 138.799 265.6 138.599C264.4 138.299 263 138.599 262.2 139.599C261.3 140.599 261.8 142.199 262.6 143.099C263.4 143.899 264.6 144.299 265.6 144.099C266.7 143.899 267.7 142.799 267.6 141.699C267.5 139.299 263.8 137.499 262.5 139.999C262.1 140.699 262.3 141.599 263 142.099C263.7 142.499 264.7 142.299 265.1 141.599C265.2 141.299 265 141.699 264.9 141.799C264.8 141.799 264.4 141.899 264.6 141.899C264 141.899 264.6 141.799 264.6 141.899C264.6 141.899 264.3 141.699 264.6 141.899C264.4 141.699 264.5 141.799 264.6 141.999C264.5 141.899 264.5 141.799 264.6 141.999V141.899C264.6 141.799 264.6 141.699 264.6 141.599C264.7 141.399 264.7 141.399 264.7 141.499C264.6 141.599 264.8 141.399 264.9 141.399C264.7 141.599 265 141.399 265.1 141.399C265 141.399 264.9 141.399 265.1 141.399C265.2 141.399 265.2 141.399 265.1 141.399C264.8 141.199 265.3 141.599 265 141.399C264.9 141.399 264.7 141.099 264.9 141.299L264.8 141.199C264.7 141.099 264.7 141.099 264.8 141.199C264.8 141.199 264.8 141.099 264.7 141.099C264.8 141.199 264.8 141.299 264.7 141.199C264.7 141.099 264.7 141.099 264.7 141.299C264.7 141.099 264.7 141.099 264.7 141.299C264.6 141.499 264.4 141.699 264.3 141.999C264.4 141.899 264.4 141.899 264.3 141.899C264.5 141.799 264.5 141.799 264.3 141.799C264.4 141.799 264.5 141.699 264.6 141.699C264.5 141.699 264.5 141.699 264.7 141.699C264.9 141.699 264.9 141.699 264.8 141.699C264.9 141.699 265 141.799 265.1 141.799C265 141.799 265 141.799 265.1 141.899C265 141.799 265 141.799 265.1 141.999C265 141.599 264.8 141.299 264.7 140.899C264.7 141.299 264.5 141.599 263.9 141.899C264.2 141.799 264.4 141.799 264.7 141.699C264.5 141.699 264.7 141.699 264.7 141.699C264.7 141.699 265.1 141.899 264.9 141.799C264.8 141.699 265.1 141.899 264.9 141.799C264.7 141.699 264.9 141.499 264.9 141.799C264.9 141.699 264.8 141.699 264.9 141.799V141.599C264.9 141.599 264.8 141.999 264.8 141.899C264.8 141.799 264.8 141.799 264.8 141.899C264.7 141.999 264.7 141.999 264.9 141.899C265.5 141.399 265.4 140.299 264.9 139.799C264.3 138.899 263.4 138.999 262.8 139.499Z" fill="white"/>
<path d="M191.6 167.5C193.7 180.2 204.6 190.4 217.7 190.6C231.6 190.8 242.8 180.1 243.3 166.3C243.4 164.4 240.4 164.4 240.3 166.3C239.8 179.1 228.8 188.6 216 187.5C204.8 186.6 196.2 177.4 194.4 166.7C194.2 164.8 191.3 165.6 191.6 167.5Z" fill="#231F20"/>
<path opacity="0.71" d="M151.5 185.6C160.613 185.6 168 180.586 168 174.4C168 168.215 160.613 163.2 151.5 163.2C142.387 163.2 135 168.215 135 174.4C135 180.586 142.387 185.6 151.5 185.6Z" fill="#F488B9"/>
<path opacity="0.71" d="M286.3 185.6C295.413 185.6 302.8 180.586 302.8 174.4C302.8 168.215 295.413 163.2 286.3 163.2C277.188 163.2 269.8 168.215 269.8 174.4C269.8 180.586 277.188 185.6 286.3 185.6Z" fill="#F488B9"/>
</svg>
