<svg width="31" height="41" viewBox="0 0 31 41" fill="none" xmlns="http://www.w3.org/2000/svg">
<path d="M2.45996 2C7.46732 4.96274 13.8718 9.85863 15.3506 16.8857C15.5502 17.9446 15.6625 19.0107 15.6871 20.0788C15.937 24.4851 16.1665 30.839 16.0288 39" stroke="#1E6F5D" stroke-width="4" stroke-miterlimit="10" stroke-linecap="round"/>
<path d="M30.106 9.61383C28.7343 13.0626 26.5825 14.3477 25.0731 14.8985C24.6703 15.0461 24.3388 15.1325 20.9938 15.9785L16.0527 17.2061C16.4361 16.3984 16.9386 15.6213 17.5519 14.8877C18.5156 13.7213 19.408 12.6306 21.0856 11.9178C22.5082 11.3166 23.166 11.5578 25.6289 11.0214C27.1975 10.6839 28.7012 10.2111 30.106 9.61383Z" fill="#3E9581"/>
<path d="M30.1217 9.59944C29.8133 10.7045 29.2536 11.767 28.4645 12.7458C27.6784 13.7487 26.4849 14.5624 25.0378 15.0821C23.5081 15.4925 22.0344 15.7661 20.5455 16.1441C19.0565 16.5221 17.588 16.8857 16.1194 17.2817L15.8594 17.3501L15.941 17.1557C16.4112 16.0878 17.0762 15.0676 17.9194 14.1209C18.3156 13.6311 18.7729 13.1673 19.286 12.735C19.8199 12.2994 20.4586 11.9338 21.1727 11.655C21.9 11.3948 22.6909 11.2348 23.503 11.1834C24.2684 11.0998 25.0248 10.9795 25.767 10.8234C27.2719 10.5173 28.7305 10.1073 30.1217 9.59944V9.59944ZM30.0911 9.62824C28.7917 10.2537 27.376 10.7492 25.8843 11.1006C25.1319 11.2779 24.3636 11.4199 23.5846 11.5254C22.8335 11.5874 22.1045 11.7448 21.4327 11.9898C20.1283 12.554 19.0559 13.3496 18.3223 14.2973C17.9194 14.7689 17.5013 15.2333 17.1495 15.7373C16.7995 16.2168 16.4913 16.7109 16.2265 17.2169L16.048 17.0945C17.5421 16.7345 19.0361 16.4105 20.5098 16.0145C21.2492 15.8273 21.9834 15.6293 22.7126 15.4241C23.4418 15.2189 24.1914 15.0281 24.8747 14.8013C26.2273 14.2842 27.3593 13.521 28.1534 12.591C28.9431 11.6535 29.5925 10.6606 30.0911 9.62824V9.62824Z" fill="#231F20"/>
<path d="M30.1063 9.61383C27.8627 10.9998 25.4304 12.3966 22.8043 13.8005C20.4944 15.0389 18.2406 16.1621 16.0684 17.1881C17.3788 16.8785 19.24 16.4285 21.4582 15.8489C25.0276 14.9165 25.6191 14.6717 25.9964 14.4917C27.1437 13.9445 29.1375 12.6738 30.1063 9.61383Z" fill="#1E6F5D"/>
<path d="M30.0909 9.63184C29.1017 10.3518 27.9544 11.0538 26.8478 11.7306C25.7413 12.4074 24.5787 13.0626 23.3855 13.6782C22.1923 14.2937 20.9328 14.8373 19.7243 15.4313C18.5158 16.0253 17.3124 16.6301 16.1549 17.2601L16.0275 17.1197C17.496 16.7201 18.9646 16.3205 20.4433 15.9389C21.9221 15.5573 23.3651 15.1397 24.8184 14.7113C25.1717 14.6113 25.5128 14.4909 25.8382 14.3513C26.1547 14.2046 26.4547 14.0409 26.7357 13.8617C27.3096 13.5005 27.8121 13.0864 28.2297 12.6306C29.0509 11.6993 29.6777 10.6893 30.0909 9.63184V9.63184ZM30.1164 9.59944C29.899 10.7183 29.3797 11.7974 28.5867 12.7782C27.7854 13.7861 26.5491 14.587 25.058 15.0641C23.5946 15.5105 22.1158 15.8813 20.6218 16.2377C19.1277 16.5941 17.6286 16.9325 16.1243 17.2709L15.2881 17.4581L16.0173 17.0981C17.2411 16.5221 18.4462 15.9221 19.6326 15.2981C20.819 14.6741 21.9901 14.0453 23.1459 13.4118L26.6235 11.493C27.781 10.881 28.8875 10.2366 30.1164 9.59944V9.59944Z" fill="#231F20"/>
<path d="M2.01465 17.8865C3.38122 21.3352 5.51776 22.6204 7.0475 23.1711C7.44523 23.3187 7.77668 23.4051 11.1268 24.2331L16.073 25.4571C15.6832 24.6512 15.181 23.8746 14.5738 23.1387C13.605 21.976 12.7177 20.8852 11.035 20.1724C9.61747 19.5712 8.95458 19.8124 6.49679 19.276C4.92724 18.9452 3.42174 18.4785 2.01465 17.8865V17.8865Z" fill="#3E9581"/>
<path d="M2.03059 17.9009C2.5304 18.9387 3.18687 19.9356 3.98867 20.8744C4.78276 21.8045 5.9148 22.5676 7.26741 23.0847C7.9456 23.3115 8.70027 23.5023 9.42435 23.7075C10.1484 23.9127 10.8929 24.1107 11.6323 24.2979C13.1059 24.6831 14.5949 25.0179 16.094 25.3779L15.9156 25.5039C15.6403 24.9911 15.3237 24.4899 14.9671 24.0027C14.6153 23.5203 14.1971 23.0559 13.7892 22.5844C13.0576 21.6368 11.9869 20.8411 10.6838 20.2768C10.0117 20.0323 9.28289 19.875 8.532 19.8124C7.75217 19.7078 6.98371 19.5646 6.23229 19.384C4.7401 19.0312 3.32566 18.532 2.03059 17.9009V17.9009ZM2 17.8721C3.39064 18.3826 4.84927 18.795 6.35467 19.1032C7.09704 19.259 7.85342 19.3792 8.61869 19.4632C9.43031 19.5141 10.221 19.6729 10.949 19.9312C11.6626 20.2104 12.3012 20.576 12.8357 21.0112C13.3414 21.4438 13.7935 21.9063 14.187 22.3936C15.027 23.3415 15.6919 24.3613 16.1654 25.4283L16.247 25.6227L15.9869 25.5507C14.5184 25.1583 13.0447 24.7659 11.5558 24.4131C10.0668 24.0603 8.5677 23.7651 7.06855 23.3331C5.61809 22.8172 4.42201 22.0041 3.63682 21.0004C2.85478 20.0271 2.30196 18.9705 2 17.8721V17.8721Z" fill="#231F20"/>
<path d="M2.01465 17.8865C4.25827 19.2796 6.69056 20.6692 9.31152 22.0732C11.6214 23.3079 13.9008 24.4347 16.0526 25.4571C14.737 25.1511 12.8809 24.7011 10.6577 24.1215C7.0883 23.1855 6.49679 22.9443 6.12456 22.7644C4.97215 22.2172 2.96819 20.9464 2.01465 17.8865Z" fill="#1E6F5D"/>
<path d="M2 17.8721C3.22889 18.5092 4.34051 19.1536 5.51841 19.7908L8.99602 21.7096C10.1552 22.348 11.3246 22.9779 12.5042 23.5995C13.6838 24.2211 14.8889 24.8211 16.1195 25.3995L16.8538 25.7595L16.0124 25.5687C14.5133 25.2339 13.009 24.8955 11.515 24.5391C10.021 24.1827 8.5422 23.8191 7.07875 23.3655C5.58815 22.8892 4.35319 22.088 3.55524 21.0796C2.74931 20.091 2.22123 19.0019 2 17.8721V17.8721ZM2 17.9009C2.42619 18.9593 3.06497 19.9691 3.89688 20.8996C4.3177 21.3526 4.8199 21.7653 5.39093 22.1272C5.67355 22.3075 5.97528 22.4724 6.29348 22.6204C6.61773 22.7613 6.959 22.8818 7.31331 22.9803C8.74617 23.4087 10.2096 23.8191 11.6884 24.1935C13.1671 24.5679 14.6306 24.9711 16.0991 25.3707L15.992 25.5291C14.8158 24.9003 13.626 24.2907 12.4226 23.7003C11.2142 23.1027 9.94956 22.5592 8.75636 21.9472C7.56316 21.3352 6.40566 20.6692 5.26855 19.9996C4.13144 19.33 3.01983 18.628 2.0255 17.9009H2Z" fill="#231F20"/>
</svg>
