<svg width="29" height="44" viewBox="0 0 29 44" fill="none" xmlns="http://www.w3.org/2000/svg">
<path d="M17.7999 43.82C18.1169 40.887 18.09 37.9269 17.7199 35C17.3888 32.0883 16.7176 29.2255 15.7199 26.47C14.6776 23.7577 13.4342 21.1271 11.9999 18.6C10.6199 16 9.04992 13.58 7.41992 11L7.56992 10.86C9.99581 12.7018 12.0748 14.9603 13.7099 17.53C15.3244 20.1538 16.5252 23.0107 17.2699 26C18.0998 28.9134 18.5864 31.9137 18.7199 34.94C18.8256 37.9577 18.584 40.9775 17.9999 43.94L17.7999 43.82Z" fill="#1E6F5D"/>
<path d="M9.48035 26.86C9.41035 32.2 10.6604 34.86 11.6504 36.19C11.9104 36.55 12.1404 36.8 14.4504 39.26L17.8904 42.89C17.8544 41.6117 17.7207 40.338 17.4904 39.08C17.2776 37.1397 16.6756 35.2623 15.7204 33.56C14.8204 32.16 14.2304 32.23 12.4904 30.56C11.3606 29.4352 10.3517 28.1951 9.48035 26.86Z" fill="#3E9581"/>
<path d="M9.48979 26.88C9.55542 28.4397 9.72581 29.9932 9.99979 31.53C10.2729 33.0548 10.8255 34.5161 11.6298 35.84C12.0798 36.46 12.6298 37.03 13.1298 37.63C13.6298 38.23 14.1298 38.82 14.6898 39.4C15.7498 40.56 16.8598 41.68 17.9698 42.8L17.7298 42.9C17.6386 41.3384 17.4212 39.7866 17.0798 38.26C16.8403 36.7294 16.3397 35.2512 15.5998 33.89C15.2205 33.2354 14.7056 32.6695 14.0898 32.23C13.4607 31.7412 12.8629 31.2135 12.2998 30.65C11.2073 29.5173 10.2631 28.2506 9.48979 26.88ZM9.48979 26.83C10.4228 28.1001 11.4669 29.2848 12.6098 30.37C13.1756 30.9005 13.777 31.3917 14.4098 31.84C15.0864 32.3082 15.6557 32.9149 16.0798 33.62C16.862 35.0278 17.3678 36.5722 17.5698 38.17C17.8628 39.7261 18.0067 41.3066 17.9998 42.89V43.25L17.7898 43C16.7398 41.82 15.6798 40.66 14.5798 39.53C13.4798 38.4 12.3498 37.29 11.3098 36.08C10.4314 34.7272 9.86126 33.1977 9.63979 31.6C9.39134 30.0226 9.33761 28.4206 9.47979 26.83H9.48979Z" fill="#231F20"/>
<path d="M9.48003 26.86C10.77 29.65 12.2 32.56 13.77 35.54C15.16 38.17 16.54 40.62 17.89 42.89C16.97 41.95 15.68 40.6 14.14 38.89C12.9952 37.7737 11.9666 36.5441 11.07 35.22C10.35 34.05 9.23003 31.5 9.48003 26.86Z" fill="#1E6F5D"/>
<path d="M9.47952 26.83C10.1295 28.1 10.8395 29.4 11.5595 30.74C12.2795 32.08 13.0095 33.47 13.6695 34.87C14.3295 36.27 15.0395 37.56 15.7495 38.87C16.4595 40.18 17.2295 41.5 17.9995 42.8L18.5295 43.7L17.7995 43L14.4695 39.63C13.3565 38.5047 12.3018 37.3232 11.3095 36.09C10.3696 34.757 9.7658 33.2166 9.54953 31.6C9.30104 30.0213 9.27747 28.4153 9.47952 26.83ZM9.47952 26.88C9.47959 28.4409 9.63029 29.9981 9.92953 31.53C10.2116 33.0486 10.8188 34.4882 11.7095 35.75C12.7095 36.95 13.7095 38.14 14.7995 39.3L17.9995 42.81L17.7995 42.96C17.0995 41.62 16.3795 40.29 15.6195 38.96C14.8595 37.63 14.0195 36.37 13.3295 35.06C12.6395 33.75 12.0495 32.42 11.4295 31.06C10.8095 29.7 10.1695 28.32 9.48953 26.88H9.47952Z" fill="#231F20"/>
<path d="M27.5801 22.59C28.9401 28.89 27.5801 32.2 26.2601 33.97C25.0663 35.3803 23.7979 36.7256 22.4601 38L17.7701 42.85C17.5285 41.3395 17.4481 39.8076 17.5301 38.28C17.6501 35.85 17.7501 33.59 19.0901 31.47C20.2301 29.68 21.1901 29.66 23.6001 27.38C25.115 25.9497 26.4514 24.3413 27.5801 22.59Z" fill="#3E9581"/>
<path d="M27.5897 22.56C28.1343 24.5112 28.3672 26.5361 28.2797 28.56C28.2291 30.62 27.5291 32.6114 26.2797 34.25L21.9997 38.62C20.6097 40 19.2397 41.52 17.8697 43L17.6897 43.2L17.6397 42.93C17.2988 40.9492 17.2081 38.9334 17.3697 36.93C17.4201 35.9189 17.5641 34.9146 17.7997 33.93C18.053 32.925 18.4904 31.9756 19.0897 31.13C19.7062 30.2875 20.4722 29.5655 21.3497 29C22.1594 28.4202 22.931 27.7889 23.6597 27.11C25.1207 25.7306 26.4375 24.2061 27.5897 22.56ZM27.5897 22.61C26.5891 24.3536 25.3543 25.9518 23.9197 27.36C23.2081 28.0762 22.4498 28.7443 21.6497 29.36C20.8309 29.9004 20.1106 30.5769 19.5197 31.36C18.4697 33.0279 17.8925 34.9496 17.8497 36.92C17.6346 38.9157 17.6581 40.9299 17.9197 42.92L17.6797 42.85C19.1097 41.43 20.5297 40.01 21.9097 38.55C23.2897 37.09 24.5797 35.55 25.9097 34.09C27.0931 32.4956 27.7879 30.5918 27.9097 28.61C28.0392 26.604 27.9284 24.5897 27.5797 22.61H27.5897Z" fill="#231F20"/>
<path d="M27.5795 22.59C26.1595 26.1 24.5795 29.77 22.6895 33.59C21.0695 36.92 19.4195 40.04 17.7695 42.94C19.0295 41.68 20.7695 39.88 22.8795 37.65C26.2295 34 26.6995 33.28 26.9995 32.78C27.8495 31.23 29.0695 28 27.5795 22.59Z" fill="#1E6F5D"/>
<path d="M27.58 22.61L25.37 27.91C24.65 29.62 23.94 31.32 23.17 32.99C22.4 34.66 21.35 36.29 20.48 37.99C19.61 39.69 18.72 41.31 17.88 42.99L17.69 42.85L21.8 38.43C23.19 36.98 24.54 35.43 25.8 33.96C26.1226 33.5918 26.4136 33.197 26.67 32.78C26.9133 32.3551 27.1271 31.9141 27.31 31.46C27.6684 30.5382 27.9037 29.5733 28.01 28.59C28.1715 26.5864 28.0265 24.5699 27.58 22.61ZM27.58 22.56C28.245 24.4868 28.527 26.525 28.41 28.56C28.339 30.6391 27.5752 32.6348 26.24 34.23C24.94 35.79 23.55 37.23 22.13 38.68L17.86 43L17.25 43.61L17.67 42.85C18.5767 41.21 19.46 39.5433 20.32 37.85C21.16 36.16 22.02 34.51 22.8 32.78C23.58 31.05 24.39 29.28 25.19 27.56L27.58 22.56Z" fill="#231F20"/>
<path d="M4.25966 4.90001C3.58966 3.87001 2.40966 2.00001 1.50966 2.28001C0.609662 2.56001 0.0796621 5.21001 0.619662 7.34001C1.54966 11.01 5.51966 13.76 6.61966 13.04C7.71966 12.32 6.11966 7.77001 4.25966 4.90001Z" fill="white"/>
<path d="M4.22 4.93C3.92897 4.45327 3.59419 4.00466 3.22 3.59C2.87364 3.18595 2.44375 2.86183 1.96 2.64C1.88882 2.60741 1.80931 2.59761 1.73234 2.61193C1.65537 2.62625 1.58471 2.66399 1.53 2.72C1.39016 2.87815 1.28158 3.06139 1.21 3.26C1.02758 3.74763 0.90012 4.2541 0.830002 4.77C0.638126 5.84545 0.696294 6.95063 1 8C1.37978 9.04771 2.00768 9.98785 2.83 10.74C3.60536 11.4895 4.50993 12.0926 5.5 12.52C5.7072 12.6017 5.92732 12.6457 6.15 12.65C6.36 12.65 6.33 12.65 6.39 12.53C6.48951 12.0922 6.48951 11.6377 6.39 11.2C6.1669 10.1192 5.88651 9.05102 5.55 8C5.24693 6.92144 4.79955 5.88877 4.22 4.93ZM4.3 4.87C5.51 6.77 7 8.63 7.43 11C7.49012 11.3065 7.52358 11.6177 7.53 11.93C7.54831 12.3006 7.469 12.6696 7.3 13C7.188 13.205 7.01857 13.3729 6.81251 13.4831C6.60645 13.5932 6.37272 13.6408 6.14 13.62C5.79435 13.5975 5.45559 13.5128 5.14 13.37C4.06144 12.8427 3.1252 12.0643 2.41 11.1C1.71244 10.1765 1.13451 9.16854 0.690002 8.1C0.23381 7.02456 -0.000865527 5.86819 2.39867e-06 4.7C0.0109151 4.08551 0.136396 3.47845 0.370002 2.91C0.502974 2.58252 0.720352 2.29614 1 2.08C1.17442 1.96761 1.37751 1.90784 1.585 1.90784C1.79249 1.90784 1.99559 1.96761 2.17 2.08C2.6732 2.4353 3.09294 2.89599 3.4 3.43L4.3 4.87Z" fill="#231F20"/>
<path d="M5.78953 3.75003C5.47855 3.36591 5.29659 2.89351 5.26953 2.40003C5.26953 1.40003 5.88953 0.40003 6.26953 0.49003C6.48953 0.49003 6.54953 0.81003 6.79953 0.81003C7.04953 0.81003 7.14953 0.51003 7.32953 0.46003C7.50953 0.41003 8.12953 0.73003 8.80953 2.28003C9.91953 4.85003 11.0895 10.12 10.1195 10.43C9.67953 10.57 8.61953 9.69003 5.78953 3.75003Z" fill="white"/>
<path d="M5.7401 3.78003C5.40752 3.36171 5.2016 2.85693 5.14667 2.32534C5.09174 1.79374 5.19009 1.25753 5.4301 0.780034C5.50138 0.634194 5.58857 0.496691 5.6901 0.370034C5.76554 0.284689 5.85775 0.215785 5.96097 0.167614C6.0642 0.119443 6.17623 0.0930353 6.2901 0.0900344C6.51389 0.114836 6.72054 0.221724 6.8701 0.390034C6.9301 0.390034 6.8101 0.390034 6.7701 0.390034C6.7301 0.390034 6.7701 0.390034 6.8901 0.240034C6.99282 0.130981 7.12661 0.0561713 7.2733 0.0257591C7.41999 -0.00465312 7.57249 0.0108046 7.7101 0.0700344C8.01051 0.213366 8.26124 0.443198 8.4301 0.730034C8.92227 1.6563 9.28562 2.64544 9.5101 3.67003L10.4101 6.58003C10.7732 7.56771 10.9725 8.60808 11.0001 9.66003C11.0016 10.0188 10.8896 10.3688 10.6801 10.66C10.572 10.7741 10.4344 10.856 10.2826 10.8966C10.1308 10.9372 9.9707 10.9349 9.8201 10.89C9.63907 10.8296 9.4699 10.7383 9.3201 10.62C8.88843 10.2596 8.51119 9.83854 8.2001 9.37003C7.64382 8.50444 7.18757 7.57852 6.8401 6.61003C6.52291 5.64821 6.15575 4.70359 5.7401 3.78003ZM5.8301 3.78003C6.28724 4.66386 6.81918 5.50693 7.4201 6.30003C8.0001 7.11003 8.5301 8.00003 9.0901 8.77003C9.32883 9.1542 9.61066 9.50983 9.9301 9.83003C9.97094 9.87357 10.0181 9.91066 10.0701 9.94003C10.0701 9.94003 9.9101 9.94003 9.9001 10C9.96222 9.87204 9.99631 9.73226 10.0001 9.59003C10.0362 8.62114 9.98938 7.65094 9.8601 6.69003C9.75544 5.69418 9.53391 4.7141 9.2001 3.77003C8.86462 2.85129 8.38162 1.99337 7.7701 1.23003C7.66442 1.09416 7.5316 0.981772 7.3801 0.900034C7.3801 0.900034 7.3801 0.900034 7.4401 0.900034C7.5001 0.900034 7.5401 0.850034 7.5101 0.900034C7.38472 1.04017 7.23145 1.15258 7.0601 1.23003C6.92007 1.26913 6.7719 1.26831 6.63231 1.22767C6.49272 1.18703 6.36726 1.10819 6.2701 1.00003C6.1501 0.840034 6.1301 0.860034 6.2701 0.880034C6.4101 0.900034 6.2701 0.880034 6.2001 0.880034C6.11367 0.934557 6.0361 1.00201 5.9701 1.08003C5.64811 1.43477 5.44833 1.88339 5.4001 2.36003C5.36891 2.85418 5.52213 3.34234 5.8301 3.73003V3.78003Z" fill="#231F20"/>
<path d="M7.90022 3.93004C8.08022 2.71004 8.40022 0.560035 9.32022 0.400035C10.2402 0.240035 11.8302 2.47003 12.2302 4.63003C12.9202 8.36003 10.4402 12.51 9.14022 12.32C7.84022 12.13 7.40022 7.31004 7.90022 3.93004Z" fill="white"/>
<path d="M7.85034 3.92002L8.08034 2.23002C8.12421 1.62211 8.30177 1.03138 8.60034 0.500022C8.70994 0.320869 8.86984 0.177931 9.06011 0.0890197C9.25037 0.000108711 9.4626 -0.0308428 9.67034 2.22847e-05C10.0225 0.068554 10.3483 0.234906 10.6103 0.480022C11.0699 0.90802 11.4374 1.42522 11.6903 2.00002C12.186 3.07052 12.4582 4.2308 12.4903 5.41002C12.53 6.56615 12.419 7.72251 12.1603 8.85002C11.905 10.0057 11.3808 11.0849 10.6303 12C10.4053 12.2567 10.1382 12.4732 9.84034 12.64C9.63554 12.7538 9.40252 12.8067 9.16867 12.7925C8.93483 12.7783 8.7099 12.6977 8.52034 12.56C8.22841 12.3282 8.00111 12.0252 7.86034 11.68C7.73819 11.3923 7.64116 11.0945 7.57034 10.79C7.00034 8.46002 7.55034 6.15002 7.85034 3.92002ZM7.95034 3.92002C7.81019 5.0469 7.82701 6.18777 8.00034 7.31002C8.13486 8.39575 8.32511 9.47383 8.57034 10.54C8.6549 10.9795 8.83969 11.3936 9.11034 11.75C9.20034 11.8 9.19034 11.84 9.38034 11.75C9.57919 11.6442 9.76118 11.5094 9.92034 11.35C10.6407 10.5547 11.2131 9.63688 11.6103 8.64002C12.0457 7.61166 12.2241 6.49279 12.1303 5.38002C11.9728 4.30098 11.5653 3.27368 10.9403 2.38002C10.6485 1.93793 10.3136 1.5259 9.94034 1.15002C9.82068 1.00696 9.67471 0.888153 9.51034 0.800022C9.43718 0.769836 9.35642 0.763246 9.27933 0.781173C9.20224 0.799101 9.13267 0.84065 9.08034 0.900022C8.73672 1.30638 8.48132 1.77973 8.33034 2.29002C8.17011 2.82877 8.05965 3.38109 8.00034 3.94002L7.95034 3.92002Z" fill="#231F20"/>
<path d="M2.78004 1.72002C2.04801 4.23998 2.12495 6.9261 3.00004 9.40002C3.33556 10.6412 4.12408 11.7116 5.21004 12.4C5.72203 12.7169 6.30568 12.8995 6.90697 12.931C7.50826 12.9624 8.10777 12.8417 8.65004 12.58C10.36 11.48 9.87004 8.34002 9.45004 6.93002C8.63004 4.37002 6.36004 2.00002 3.75004 1.72002C3.42742 1.68968 3.10266 1.68968 2.78004 1.72002Z" fill="white"/>
<path d="M2.8199 1.76C2.66331 2.99006 2.60646 4.23077 2.6499 5.47C2.70762 6.68517 2.91931 7.88812 3.2799 9.05C3.47069 10.2623 4.10067 11.3621 5.0499 12.14C5.53334 12.4952 6.10793 12.7055 6.70647 12.7462C7.30501 12.787 7.90278 12.6565 8.4299 12.37C9.3299 11.68 9.4299 10.37 9.3299 9.23C9.22061 8.0361 8.88101 6.8747 8.3299 5.81C7.80609 4.7437 7.05922 3.80245 6.1399 3.05C5.19696 2.28064 4.03491 1.82912 2.8199 1.76ZM2.7499 1.68C3.40464 1.53895 4.08106 1.53089 4.73898 1.65629C5.39691 1.78169 6.02293 2.038 6.5799 2.41C7.72207 3.12833 8.66178 4.12656 9.3099 5.31C9.9408 6.50423 10.2833 7.82962 10.3099 9.18C10.3407 9.85673 10.2527 10.5336 10.0499 11.18C9.84245 11.8755 9.37751 12.4656 8.7499 12.83C8.12947 13.133 7.42583 13.221 6.7499 13.08C6.10414 12.9701 5.48393 12.7431 4.9199 12.41C4.34775 12.0623 3.85127 11.6032 3.4599 11.06C3.07968 10.5189 2.75788 9.93896 2.4999 9.33C2.01323 8.10403 1.79829 6.78708 1.8699 5.47C1.92291 4.16265 2.22143 2.87695 2.7499 1.68Z" fill="#231F20"/>
<path d="M4.63954 8.89004C3.87954 8.42004 2.53954 7.59004 1.99954 8.00004C1.45954 8.41004 1.99954 10.37 2.99954 11.6C4.74954 13.73 8.19954 14.3 8.70954 13.49C9.21954 12.68 6.74954 10.2 4.63954 8.89004Z" fill="#1E6F5D"/>
<path d="M9.2203 7.00003C9.5103 6.15003 10.0103 4.66003 10.6903 4.66003C11.3703 4.66003 12.2103 6.46003 12.2203 8.06003C12.2203 10.81 9.9203 13.45 9.0103 13.15C8.1003 12.85 8.4203 9.32003 9.2203 7.00003Z" fill="#1E6F5D"/>
<path d="M4.53035 5.39C3.97471 7.22607 4.02025 9.19164 4.66035 11C4.90133 11.9016 5.47243 12.6798 6.26035 13.18C6.63344 13.4077 7.0574 13.5388 7.49389 13.5615C7.93039 13.5842 8.36566 13.4978 8.76035 13.31C10.0003 12.51 9.64035 10.23 9.33035 9.21C9.06838 8.25877 8.5456 7.39977 7.82109 6.73003C7.09657 6.0603 6.1992 5.60653 5.23035 5.42C4.99791 5.39483 4.76409 5.38481 4.53035 5.39Z" fill="#1E6F5D"/>
</svg>
