<svg width="381" height="386" viewBox="0 0 381 386" fill="none" xmlns="http://www.w3.org/2000/svg">
<path d="M239.4 148.1L240.6 150.8C219.4 159.9 200.2 173.8 185.3 191.3C160.4 220.5 147.3 259.7 149.8 298C150.8 313.4 155.3 329.9 164.3 342.1L162.8 343.1C146.9 356.2 126.5 362.2 106.8 367.8C95.5 371 84 370.6 72.7 373.8C67.4 375.3 62.1 380.5 56.6 379.4C47.4 377.5 41.4 368.5 38.7 359.6C35.9 350.7 35.4 341.1 31.9 332.4C27.4 321.2 18.5 312.3 12.7 301.7C2.90004 283.8 2.60004 262.4 3.20004 242C3.60004 227.8 4.30004 213.5 7.70004 199.7C11.1 186 17.1 173.1 23.3 160.4C28.1 150.6 33 140.7 40.2 132.5C47.8 123.9 57.5 117.6 67.5 112C91.3 98.8004 117.5 89.7004 144.3 85.1004C152.9 83.6004 161.7 82.6004 169.8 79.3004C174.5 77.3004 178.8 74.6004 183.6 73.0004C186.6 71.9004 189.9 71.4004 193.2 71.4004C199.3 71.4004 205.3 73.4004 209.3 77.9004C210.3 79.1004 211.2 80.3004 212 81.7004C213.7 84.6004 214.8 87.9004 215.9 91.1004C222.6 110.4 230.5 129.5 239.4 148.1Z" fill="#FFD101"/>
<path d="M193.1 69.3001C194.8 68.1001 193.3 65.3001 194 63.3001C194.8 61.2001 197.6 60.9 199.9 61C204.1 61.1 208.4 61.3001 212.4 62.8001C216.3 64.3001 219.9 67.5001 220.8 71.6001C221.7 75.7001 218.9 80.6001 214.7 81.1001L211.9 81.6001C211.1 80.2001 210.3 79.0001 209.2 77.8001C205.2 73.3001 199.2 71.3001 193.1 71.3001V69.3001Z" fill="#78AB2A"/>
<path d="M378.201 315.4C378.801 327.7 372.801 339.8 363.601 348C354.501 356.2 342.501 360.9 330.301 362.7C324.001 363.6 317.601 363.9 311.601 365.7C304.501 367.9 298.201 372.3 291.501 375.5C273.601 384 252.701 384.1 233.401 379.6C214.101 375.1 203.001 367 185.301 358.1C204.901 364.8 226.301 355.4 243.101 343.4C293.301 307.3 322.301 243.8 316.801 182.2C315.601 169.5 309.901 156.9 299.901 150.2C336.601 172.8 366.601 213.2 370.701 256.1C371.901 269.1 371.401 282.2 374.001 295C375.501 301.7 377.901 308.4 378.201 315.4Z" fill="#FFD101"/>
<path d="M316.8 182.1C322.4 243.7 293.4 307.2 243.1 343.3C226.3 355.4 204.9 364.7 185.3 358C176.5 355 169.5 349.3 164.2 342C155.2 329.9 150.7 313.4 149.7 297.9C147.3 259.6 160.3 220.4 185.2 191.2C200.2 173.6 219.3 159.8 240.5 150.7C245.8 148.4 251.2 146.5 256.7 144.8C256.7 144.8 275.1 142.1 290.4 145.8C293.4 146.5 296.1 147.7 298.6 149.2C299 149.4 299.4 149.7 299.8 149.9C309.9 156.9 315.7 169.5 316.8 182.1Z" fill="#FCE37A"/>
<path d="M270.4 31.6995C270.7 36.5995 267 41.0995 262.5 43.1995C258.1 45.3995 253 45.6995 248.1 46.1995C235.8 47.2995 222.3 49.7995 214.4 59.0995L210.6 57.4995C223.3 39.5995 245.7 26.0995 267.2 28.5995C268 28.6995 268.9 28.7995 269.5 29.3995C270.2 29.9995 270.4 30.8995 270.4 31.6995Z" fill="#78AB2A"/>
<path d="M196.5 52.4999L196.2 52.5999C175.5 61.9999 151.6 64.1999 129.5 58.6999C107.4 53.1999 87.3 39.9999 73.5 21.8999C73 21.2999 72.5 20.4999 72.5 19.7999C72.5 18.8999 73.2 18.1999 73.9 17.5999C89.2 3.29991 112.5 1.39991 133.1 4.79991C148 7.19991 162.8 11.9999 174.9 20.9999C185.4 28.6999 193.6 39.8999 196.5 52.4999Z" fill="#78AB2A"/>
<path d="M299.9 150.099C309.9 156.899 315.7 169.499 316.8 182.099C322.4 243.699 293.4 307.199 243.1 343.299C226.3 355.399 204.9 364.699 185.3 357.999C176.5 354.999 169.5 349.299 164.2 341.999C155.2 329.899 150.7 313.399 149.7 297.899C147.3 259.599 160.3 220.399 185.2 191.199C200.2 173.599 219.3 159.799 240.5 150.699C245.8 148.399 251.2 146.499 256.7 144.799C256.7 144.799 275.1 142.099 290.4 145.799C293.4 146.499 296.1 147.699 298.6 149.199" stroke="black" stroke-width="5" stroke-miterlimit="10" stroke-linecap="round" stroke-linejoin="round"/>
<path d="M298.701 149.399C299.101 149.599 299.501 149.899 299.901 150.099C336.601 172.699 366.601 213.099 370.701 255.999C371.901 268.999 371.401 282.099 374.001 294.899C375.401 301.699 377.801 308.399 378.201 315.399C378.801 327.699 372.801 339.799 363.601 347.999C354.501 356.199 342.501 360.899 330.301 362.699C324.001 363.599 317.601 363.899 311.601 365.699C304.501 367.899 298.201 372.299 291.501 375.499C273.601 383.999 252.701 384.099 233.401 379.599C214.101 375.099 203.001 366.999 185.301 358.099" stroke="black" stroke-width="5" stroke-miterlimit="10" stroke-linecap="round" stroke-linejoin="round"/>
<path d="M221.801 175.399C226.001 196.899 230.301 218.399 234.501 239.999" stroke="black" stroke-width="5" stroke-miterlimit="10" stroke-linecap="round" stroke-linejoin="round"/>
<path d="M246.6 237.899C256.8 213.199 267 188.599 277.2 163.899" stroke="black" stroke-width="5" stroke-miterlimit="10" stroke-linecap="round" stroke-linejoin="round"/>
<path d="M254.1 243.6C270.2 236.5 286.3 229.3 302.4 222.2" stroke="black" stroke-width="5" stroke-miterlimit="10" stroke-linecap="round" stroke-linejoin="round"/>
<path d="M251 252.6C262.1 258.8 272.8 265.8 283 273.3" stroke="black" stroke-width="5" stroke-miterlimit="10" stroke-linecap="round" stroke-linejoin="round"/>
<path d="M237.9 262.3C242 281.6 245.4 301 248.2 320.6" stroke="black" stroke-width="5" stroke-miterlimit="10" stroke-linecap="round" stroke-linejoin="round"/>
<path d="M227.401 267.399C219.301 288.399 210.201 308.899 200.201 328.999" stroke="black" stroke-width="5" stroke-miterlimit="10" stroke-linecap="round" stroke-linejoin="round"/>
<path d="M216.8 265.6C200.9 273.3 185.5 282.2 171 292.2" stroke="black" stroke-width="5" stroke-miterlimit="10" stroke-linecap="round" stroke-linejoin="round"/>
<path d="M178.6 233.1C192.5 236.7 206.1 241.3 219.4 246.7" stroke="black" stroke-width="5" stroke-miterlimit="10" stroke-linecap="round" stroke-linejoin="round"/>
<path d="M239.4 148.1C230.5 129.5 222.6 110.4 215.8 90.9998C214.7 87.7998 213.5 84.4998 211.9 81.5998C211.1 80.1998 210.3 78.9998 209.2 77.7998C205.2 73.2998 199.2 71.2998 193.1 71.2998C189.8 71.2998 186.6 71.8998 183.5 72.8998C178.7 74.5998 174.4 77.2998 169.7 79.1998C161.6 82.5998 152.8 83.5998 144.2 84.9998C117.3 89.4998 91.2004 98.6998 67.4004 111.9C57.4004 117.4 47.7004 123.8 40.1004 132.4C32.9004 140.6 28.0004 150.5 23.2004 160.3C17.0004 173 11.0004 185.9 7.60043 199.6C4.20043 213.4 3.50043 227.7 3.10043 241.9C2.50043 262.3 2.80043 283.7 12.6004 301.6C18.4004 312.2 27.3004 321.1 31.8004 332.3C35.2004 341 35.8004 350.6 38.6004 359.5C41.4004 368.4 47.4004 377.4 56.5004 379.3C61.9004 380.4 67.2004 375.2 72.6004 373.7C83.9004 370.5 95.4004 370.9 106.7 367.7C126.5 362 146.9 356 162.7 343" stroke="black" stroke-width="5" stroke-miterlimit="10" stroke-linecap="round" stroke-linejoin="round"/>
<path d="M193.1 69.3001C194.8 68.1001 193.3 65.3001 194 63.3001C194.8 61.2001 197.6 60.9 199.9 61C204.1 61.1 208.4 61.3001 212.4 62.8001C216.3 64.3001 219.9 67.5001 220.8 71.6001C221.7 75.7001 218.9 80.6001 214.7 81.1001" stroke="black" stroke-width="5" stroke-miterlimit="10" stroke-linecap="round" stroke-linejoin="round"/>
<path d="M197.5 58.5998C197.3 56.4998 197 54.4998 196.5 52.4998C193.6 39.8998 185.3 28.6998 174.9 20.8998C162.8 11.8998 148 6.99979 133.1 4.69979C112.4 1.39979 89.2 3.29979 73.9 17.4998C73.2 18.0998 72.6 18.7998 72.5 19.6998C72.5 20.4998 73 21.1998 73.5 21.7998C87.4 39.8998 107.4 52.9998 129.5 58.5998C151.6 64.0998 175.5 61.8998 196.2 52.4998" stroke="black" stroke-width="5" stroke-miterlimit="10" stroke-linecap="round" stroke-linejoin="round"/>
<path d="M208.5 60.9997C209.2 59.8997 209.9 58.7997 210.7 57.6997C223.4 39.7997 245.8 26.2997 267.3 28.7997C268.1 28.8997 269 28.9997 269.6 29.5997C270.2 30.1997 270.4 30.9997 270.4 31.8997C270.7 36.7997 267 41.2997 262.5 43.3997C258.1 45.5997 253 45.8997 248.1 46.3997C235.8 47.4997 222.3 49.9997 214.4 59.2997C214.1 59.5997 213.9 59.8997 213.6 60.1997" stroke="black" stroke-width="5" stroke-miterlimit="10" stroke-linecap="round" stroke-linejoin="round"/>
<g opacity="0.67">
<path opacity="0.67" d="M150.7 92C122.5 98.7 95.1005 108.6 69.2005 121.6C62.9005 124.8 56.6005 128.2 51.2005 132.8C39.5005 142.7 33.1005 157.3 27.1005 171.4C23.6005 179.6 20.0005 189.1 23.8005 197.2C28.1005 206.4 40.8005 209.4 50.2005 205.6C59.7005 201.8 66.3005 193.1 70.9005 184C75.5005 174.9 78.7005 165.1 84.1005 156.4C95.4005 138 115.5 126.4 136 119.7C142.3 117.6 149.1 115.7 153.3 110.6C157.5 105.5 157 96.1 150.8 93.9" fill="#F9E073"/>
</g>
<path d="M80.7991 159.3C95.0991 152 111.999 159.4 116.399 174.7C117.299 177.8 122.099 176.5 121.199 173.4C115.799 154.8 95.3991 146.2 78.2991 155C75.3991 156.4 77.8991 160.8 80.7991 159.3Z" fill="black"/>
<path d="M149.201 187.1C159.901 182.4 172.501 184.3 179.401 194.2C181.201 196.8 185.601 194.3 183.701 191.7C175.101 179.3 159.901 176.9 146.601 182.8C143.801 184.1 146.301 188.4 149.201 187.1Z" fill="black"/>
<path d="M96.3001 205.6C100.3 228.4 127.3 237.4 144.7 222.8C147.2 220.7 143.6 217.2 141.2 219.3C126.3 231.8 104.4 223.1 101.2 204.3C100.6 201.1 95.8001 202.4 96.3001 205.6Z" fill="black"/>
</svg>
