<svg width="553" height="524" viewBox="0 0 553 524" fill="none" xmlns="http://www.w3.org/2000/svg">
<path d="M87.5996 234.8C83.2996 239 81.6996 245.2 80.3996 251C79.2996 256.5 78.2996 262.2 79.1996 267.7C80.0996 272.9 82.9996 278 87.5996 280.4L86.7996 282.1C58.5996 271.7 30.2996 261.2 2.09961 250.8C30.2996 243.4 58.9996 239.1 87.5996 234.8Z" fill="#E8E210"/>
<path d="M461.699 233.8C491.099 244.7 520.599 255.6 550.099 266.5C520.599 274.1 490.299 278.7 460.199 283.3C464.699 278.9 466.399 272.4 467.699 266.2C468.899 260.4 469.899 254.4 468.899 248.6C467.999 243.5 465.299 238.5 460.999 235.8L461.699 233.8Z" fill="#E8E210"/>
<path d="M440.599 336.1C456.799 355.7 473.099 375.2 489.299 394.8C465.699 388.2 442.899 379.3 420.199 370.4C425.099 369.1 428.899 365.3 432.299 361.5C435.499 358 438.599 354.2 440.199 349.8C441.699 345.7 441.699 340.8 439.399 337.1L440.599 336.1Z" fill="#FFF200"/>
<path d="M169.999 93.2002C165.799 96.7002 162.699 102 162.999 107.5H161.099C155.799 76.7002 150.599 46.0002 145.299 15.2002C166.299 36.6002 185.099 60.1002 203.899 83.6002C197.899 81.9002 191.499 83.7002 185.599 85.6002C179.999 87.4002 174.399 89.4002 169.999 93.2002Z" fill="#E8E210"/>
<path d="M378.9 425.3C383.2 421.7 386.3 416.4 386 410.9H387.9C393.2 442.1 398.6 473.2 403.9 504.4C382.6 482.7 363.6 458.9 344.6 435.1C350.7 436.8 357.2 435 363.1 433.1C368.7 431.2 374.4 429.1 378.9 425.3Z" fill="#E8E210"/>
<path d="M348.199 89.5996C374.699 67.5996 401.199 45.5996 427.699 23.5996C418.799 55.4996 406.699 86.4996 394.599 117.3C392.899 110.6 387.699 105.5 382.599 100.9C377.799 96.5996 372.799 92.3996 366.699 90.1996C361.099 88.0996 354.499 88.0996 349.499 91.1996L348.199 89.5996Z" fill="#E8E210"/>
<path d="M283.799 451.8C275.299 474.9 266.699 498 258.199 521.2C252.299 498.2 248.699 474.7 245.199 451.3C248.599 454.8 253.699 456.2 258.499 457.2C262.999 458.1 267.599 458.9 272.199 458.2C276.399 457.5 280.599 455.1 282.599 451.3L283.799 451.8Z" fill="#FFF200"/>
<path d="M111.9 143.3C107.2 144.5 103.5 148.2 100.3 151.8C97.3 155.2 94.3 158.8 92.7 163C91.2 167 91.2 171.7 93.4 175.2L92.3 176.2C76.7 157.4 61.1 138.6 45.5 119.9C68.1 126.2 90 134.7 111.9 143.3Z" fill="#FFF200"/>
<path d="M422.4 147.5C449.7 142.8 476.9 138.2 504.1 133.5C485.1 152.1 464.3 168.8 443.5 185.4C445 180.1 443.4 174.4 441.7 169.2C440.1 164.3 438.3 159.4 435 155.4C431.9 151.7 427.2 148.9 422.4 149.2V147.5Z" fill="#FFF200"/>
<path d="M195.8 432.9L197 434.3C174 453.4 150.9 472.6 127.9 491.7C135.6 463.9 146.1 437.1 156.6 410.2C158.1 416 162.6 420.5 167 424.4C171.2 428.1 175.6 431.8 180.8 433.7C185.6 435.6 191.4 435.6 195.8 432.9Z" fill="#E8E210"/>
<path d="M271.4 65.1C267.2 65.8 263 68.2 261 72L259.6 71.4C268.2 48.3 276.7 25.1 285.3 2C291.2 25 294.8 48.5 298.3 71.9C294.9 68.4 289.8 67.1 285 66C280.6 65.1 276 64.3 271.4 65.1Z" fill="#FFF200"/>
<path d="M99.7004 359.8C102.5 363.2 106.7 365.6 111 365.4V366.9C86.5004 371.1 62.0004 375.3 37.4004 379.5C54.5004 362.7 73.2004 347.8 91.9004 332.8C90.5004 337.6 91.9004 342.7 93.5004 347.4C95.1004 351.8 96.8004 356.3 99.7004 359.8Z" fill="#FFF200"/>
<path d="M270.899 86.9004C365.999 86.9004 443.099 164 443.099 259.1C443.099 354.2 365.999 431.4 270.899 431.4C175.799 431.4 98.6992 354.3 98.6992 259.2C98.6992 164.1 175.799 86.9004 270.899 86.9004Z" fill="#EAC50F"/>
<path d="M443.099 259.1C443.099 354.2 365.999 431.3 270.899 431.3C175.799 431.3 98.6992 354.2 98.6992 259.1C98.6992 164 175.799 86.9004 270.899 86.9004C365.999 86.9004 443.099 164 443.099 259.1Z" stroke="black" stroke-width="4" stroke-miterlimit="10" stroke-linecap="round" stroke-linejoin="round"/>
<path d="M259.699 71.4C268.299 48.3 276.799 25.1 285.399 2C291.299 25 294.899 48.5 298.399 71.9C294.999 68.4 289.899 67.1 285.099 66C280.599 65.1 275.999 64.3 271.399 65C267.199 65.7 262.999 68.1 260.999 71.9C260.899 72.2 260.799 72.4 260.599 72.7" stroke="black" stroke-width="4" stroke-miterlimit="10" stroke-linecap="round" stroke-linejoin="round"/>
<path d="M161.099 107.5C155.799 76.7002 150.599 46.0002 145.299 15.2002C166.299 36.6002 185.099 60.1002 203.899 83.6002C197.899 81.9002 191.499 83.7002 185.599 85.6002C180.099 87.4002 174.499 89.5002 169.999 93.2002C165.799 96.7002 162.699 102 162.999 107.5C162.999 107.8 162.999 108.2 163.099 108.5" stroke="black" stroke-width="4" stroke-miterlimit="10" stroke-linecap="round" stroke-linejoin="round"/>
<path d="M92.3 176.2C76.7 157.4 61.1 138.6 45.5 119.9C68.1 126.2 90 134.8 111.9 143.3C107.2 144.5 103.5 148.2 100.3 151.8C97.3 155.2 94.3 158.8 92.7 163C91.2 167 91.2 171.7 93.4 175.2C93.6 175.5 93.8 175.8 94 176" stroke="black" stroke-width="4" stroke-miterlimit="10" stroke-linecap="round" stroke-linejoin="round"/>
<path d="M86.8992 282C58.6992 271.6 30.3992 261.1 2.19922 250.7C30.2992 243.5 58.8992 239.1 87.5992 234.8C83.2992 239 81.6992 245.2 80.3992 251C79.2992 256.5 78.2992 262.2 79.1992 267.7C80.0992 272.9 82.9992 278 87.5992 280.4C87.8992 280.6 88.1992 280.7 88.4992 280.8" stroke="black" stroke-width="4" stroke-miterlimit="10" stroke-linecap="round" stroke-linejoin="round"/>
<path d="M111.1 366.9C86.6 371.1 62.1 375.3 37.5 379.5C54.6 362.7 73.3 347.8 92 332.8C90.6 337.6 92 342.7 93.6 347.4C95 351.8 96.7 356.3 99.7 359.8C102.5 363.2 106.7 365.6 111 365.4C111.3 365.4 111.5 365.4 111.8 365.3" stroke="black" stroke-width="4" stroke-miterlimit="10" stroke-linecap="round" stroke-linejoin="round"/>
<path d="M196.899 434.3C173.799 453.5 150.799 472.6 127.799 491.7C135.499 463.9 145.999 437.1 156.499 410.2C157.999 416 162.499 420.5 166.899 424.4C171.099 428.1 175.499 431.8 180.699 433.7C185.599 435.5 191.299 435.5 195.699 432.8C195.999 432.6 196.399 432.4 196.699 432.1" stroke="black" stroke-width="4" stroke-miterlimit="10" stroke-linecap="round" stroke-linejoin="round"/>
<path d="M283.799 451.8C275.299 474.9 266.699 498 258.199 521.2C252.299 498.2 248.699 474.7 245.199 451.3C248.599 454.8 253.699 456.2 258.499 457.2C262.999 458.1 267.599 458.9 272.199 458.2C276.399 457.5 280.599 455.1 282.599 451.3C282.699 451.1 282.799 450.8 282.999 450.5" stroke="black" stroke-width="4" stroke-miterlimit="10" stroke-linecap="round" stroke-linejoin="round"/>
<path d="M387.9 410.8C393.2 442 398.6 473.1 403.9 504.3C382.6 482.6 363.6 458.8 344.6 435C350.7 436.7 357.2 434.9 363.1 433C368.7 431.2 374.4 429.1 378.9 425.3C383.2 421.7 386.3 416.4 386 410.9C386 410.6 386 410.2 385.9 409.9" stroke="black" stroke-width="4" stroke-miterlimit="10" stroke-linecap="round" stroke-linejoin="round"/>
<path d="M440.599 336.1C456.799 355.7 473.099 375.2 489.299 394.8C465.699 388.2 442.899 379.3 420.199 370.4C425.099 369.1 428.899 365.3 432.299 361.5C435.499 358 438.599 354.2 440.199 349.8C441.699 345.7 441.699 340.8 439.399 337.1C439.199 336.8 438.999 336.5 438.799 336.3" stroke="black" stroke-width="4" stroke-miterlimit="10" stroke-linecap="round" stroke-linejoin="round"/>
<path d="M460.8 233.5C461.1 233.6 461.4 233.7 461.7 233.8C491.1 244.7 520.6 255.6 550.1 266.5C520.6 274.1 490.3 278.7 460.2 283.3C464.7 278.9 466.4 272.4 467.7 266.2C468.9 260.4 469.9 254.4 468.9 248.6C468 243.5 465.3 238.5 461 235.8C460.4 235.4 459.7 235.1 459 234.8" stroke="black" stroke-width="4" stroke-miterlimit="10" stroke-linecap="round" stroke-linejoin="round"/>
<path d="M422.4 147.5C449.7 142.8 476.9 138.2 504.1 133.5C485.1 152.1 464.3 168.8 443.5 185.4C445 180.1 443.4 174.4 441.7 169.2C440.1 164.3 438.3 159.4 435 155.4C431.9 151.7 427.2 148.9 422.4 149.2C422.1 149.2 421.8 149.2 421.5 149.3" stroke="black" stroke-width="4" stroke-miterlimit="10" stroke-linecap="round" stroke-linejoin="round"/>
<path d="M348.199 89.5996C374.699 67.5996 401.199 45.5996 427.699 23.5996C418.799 55.4996 406.699 86.4996 394.599 117.3C392.899 110.6 387.699 105.5 382.599 100.9C377.799 96.5996 372.799 92.3996 366.699 90.1996C361.099 88.0996 354.499 88.0996 349.499 91.1996C349.099 91.3996 348.699 91.6996 348.399 91.9996" stroke="black" stroke-width="4" stroke-miterlimit="10" stroke-linecap="round" stroke-linejoin="round"/>
<path d="M204.499 202C209.499 192.9 216.799 185.8 227.799 185.6C237.699 185.4 246.699 191.8 250.499 200.8C251.699 203.7 256.599 202.4 255.299 199.5C250.899 188.8 241.099 181.1 229.399 180.6C216.099 180.1 206.399 188.4 200.299 199.5C198.599 202.3 202.899 204.8 204.499 202Z" fill="black"/>
<path d="M291.101 202C296.101 192.9 303.401 185.8 314.401 185.6C324.301 185.4 333.301 191.8 337.101 200.8C338.301 203.7 343.201 202.4 341.901 199.5C337.501 188.8 327.701 181.1 316.001 180.6C302.701 180.1 293.001 188.4 286.901 199.5C285.201 202.3 289.501 204.8 291.101 202Z" fill="black"/>
<path d="M239.601 220.599C244.301 252.199 299.801 253.099 300.401 219.099C300.501 215.899 295.501 215.899 295.401 219.099C294.901 247.599 248.301 245.199 244.501 219.299C243.901 216.099 239.101 217.399 239.601 220.599Z" fill="black"/>
<path opacity="0.71" d="M214.3 242.8C224.131 242.8 232.1 237.382 232.1 230.7C232.1 224.017 224.131 218.6 214.3 218.6C204.469 218.6 196.5 224.017 196.5 230.7C196.5 237.382 204.469 242.8 214.3 242.8Z" fill="#F488B9"/>
<path opacity="0.71" d="M327.3 243.2C337.131 243.2 345.1 237.783 345.1 231.1C345.1 224.417 337.131 219 327.3 219C317.469 219 309.5 224.417 309.5 231.1C309.5 237.783 317.469 243.2 327.3 243.2Z" fill="#F488B9"/>
<g opacity="0.66">
<path opacity="0.66" d="M139.6 360.3C162.1 373.3 185.6 384.7 209.8 394.3C223.5 399.7 237.7 404.7 252.4 406C277.1 408.3 302.1 400.4 322.8 386.6C343.5 372.8 360 353.6 373.2 332.6C397.8 293.5 411.4 246.4 405.1 200.6C404 192.4 402.2 184.4 401.2 176.2C400.8 172.7 401.1 168.1 404.5 167C406.4 166.4 408.5 167.3 410.2 168.4C417.7 173.3 422.2 181.6 425.7 189.8C444 232.3 444 282.4 425.7 324.9C407.4 367.4 371.2 402 327.8 418.1C317.1 422.1 306 425 294.7 426.3C277.9 428.2 260.9 426.6 244.2 423.9C212.4 418.7 183.2 406.2 158.2 385.8C149.2 378.4 137.7 370.2 140.5 358.9" fill="#E8B010"/>
</g>
<g opacity="0.51">
<path opacity="0.51" d="M376.4 92.9994C384.4 95.6994 391.2 101.599 395 109.099C401.6 83.3994 410.7 58.3994 422.1 34.3994C403.6 50.8994 394.8 75.8994 377.4 93.4994" fill="#E8B010"/>
</g>
<g opacity="0.51">
<path opacity="0.51" d="M444.6 161.999C462 157.399 478.5 149.299 492.9 138.399C475.6 149.799 463.6 168.799 444.8 177.499C446.4 173.799 446.5 169.399 445.2 165.599" fill="#E8B010"/>
</g>
<g opacity="0.51">
<path opacity="0.51" d="M472.1 262C493.2 265.3 514.6 266.4 535.8 265.2C512 269.6 488.3 274.1 464.5 278.5C467.8 275.1 470 270.6 470.6 265.9" fill="#E8B010"/>
</g>
<g opacity="0.51">
<path opacity="0.51" d="M438.099 359.5C452.999 366.8 466.999 376.2 479.399 387.2C461.399 382 443.899 375.1 427.199 366.7C430.099 364.7 433.099 362.7 435.999 360.7" fill="#E8B010"/>
</g>
<g opacity="0.51">
<path opacity="0.51" d="M368.101 435.1C380.501 454.9 390.901 475.9 399.001 497.8C388.101 475.1 366.401 459.3 353.801 437.5C358.601 437 363.401 436.4 368.301 435.9" fill="#E8B010"/>
</g>
<g opacity="0.51">
<path opacity="0.51" d="M261.799 460.7C258.699 477 257.299 493.6 257.799 510.1C253.199 492.8 250.199 475.1 248.699 457.3C252.899 458.5 257.099 459.8 261.199 461" fill="#E8B010"/>
</g>
<g opacity="0.51">
<path opacity="0.51" d="M164.901 430.1C155.501 448 144.501 465 132.301 481.1C141.301 461.9 148.701 442 154.501 421.6C158.401 423.3 161.801 426 164.201 429.5" fill="#E8B010"/>
</g>
<g opacity="0.51">
<path opacity="0.51" d="M92.3008 354.9C74.7008 360.7 60.4008 376.4 41.8008 377.2C55.5008 366.4 69.2008 355.6 82.9008 344.9C83.6008 344.4 84.3008 343.8 85.1008 343.9C85.9008 344 86.5008 344.7 87.0008 345.3C89.3008 348.2 91.1008 351.5 92.3008 354.9Z" fill="#E8B010"/>
</g>
<g opacity="0.51">
<path opacity="0.51" d="M73 258.3C52.4 258.7 31.8 257.2 11.5 253.9C34.7 252.1 57.6 247 79.4 239C75.9 244.9 73.2 251.2 71.4 257.7" fill="#E8B010"/>
</g>
<g opacity="0.51">
<path opacity="0.51" d="M54.0996 124.899C69.2996 132.499 83.2996 142.399 95.5996 154.099C99.0996 149.799 102.9 145.799 107 142.099C98.3996 135.799 86.1996 138.499 76.1996 134.599C69.3996 131.999 63.5996 126.299 56.1996 125.799" fill="#E8B010"/>
</g>
<g opacity="0.51">
<path opacity="0.51" d="M149.199 21.2998C157.099 42.5998 165.599 63.7998 174.699 84.5998C180.499 80.4998 187.599 77.9998 194.699 77.5998C179.799 59.9998 164.799 42.3998 149.899 24.6998" fill="#E8B010"/>
</g>
<g opacity="0.51">
<path opacity="0.51" d="M277 61.9996C279.4 44.4996 281.9 27.0996 284.3 9.59961C286.1 28.3996 289 47.1996 292.9 65.6996C288.5 62.0996 282.7 60.2996 277 60.6996" fill="#E8B010"/>
</g>
</svg>
