<svg width="93" height="149" viewBox="0 0 93 149" fill="none" xmlns="http://www.w3.org/2000/svg">
<path d="M20.1807 52.32C33.3007 61.75 39.4307 71.48 42.6007 78.61C47.1507 88.84 45.5507 93.61 50.0707 117.07C54.0707 137.78 57.8107 147.24 56.4307 147.78C54.4307 148.58 43.9607 128.68 36.2307 109.32C28.8894 90.9379 23.5095 71.8319 20.1807 52.32Z" fill="#3A7867"/>
<path d="M20.1406 52.26C21.0006 52.85 22.0106 53.46 22.9006 54.14C23.7906 54.82 24.6606 55.44 25.5006 56.14C27.2123 57.4998 28.8544 58.945 30.4206 60.47C31.9957 61.9952 33.491 63.6007 34.9006 65.28C36.3433 66.9474 37.6793 68.7043 38.9006 70.54C41.3341 74.2185 43.3151 78.1771 44.8006 82.33C46.3006 86.52 46.8006 90.94 47.3206 95.25C48.3206 103.9 49.4306 112.52 51.1606 121.05C51.9806 125.32 52.9706 129.56 54.0206 133.78C54.5406 135.887 55.0873 137.993 55.6606 140.1C56.2745 142.211 56.772 144.354 57.1506 146.52C57.1857 146.829 57.1857 147.141 57.1506 147.45C57.1506 147.54 57.0906 147.64 57.0606 147.74C57.0059 147.861 56.9278 147.97 56.8306 148.06C56.722 148.149 56.5917 148.208 56.4531 148.231C56.3144 148.254 56.1721 148.24 56.0406 148.19C55.4553 147.919 54.9441 147.511 54.5506 147C53.8281 146.153 53.1601 145.261 52.5506 144.33C51.3306 142.5 50.2206 140.61 49.1606 138.7C47.0306 134.88 45.0506 130.99 43.1606 127.05C39.4206 119.2 36.0006 111.18 33.0006 103C29.9625 94.8097 27.3588 86.4648 25.2006 78C24.1106 73.77 23.2006 69.51 22.3106 65.24C21.8706 63.1 21.4906 60.96 21.1206 58.81L20.6006 55.58C20.4106 54.51 20.2806 53.3 20.1406 52.26ZM20.2206 52.38C20.4606 53.49 20.6906 54.38 20.9006 55.51L21.5906 58.7C22.0506 60.82 22.5906 62.94 23.0506 65.06C24.0506 69.29 25.1706 73.49 26.3306 77.67C27.4906 81.85 28.7706 86.02 30.1306 90.14C31.4906 94.26 32.8906 98.37 34.4206 102.44C37.4206 110.56 40.8206 118.59 44.4206 126.44C46.2606 130.38 48.1406 134.29 50.1706 138.12C51.1706 140.03 52.2506 141.93 53.3806 143.77C53.9329 144.68 54.5407 145.555 55.2006 146.39C55.4726 146.763 55.8117 147.082 56.2006 147.33C56.2706 147.33 56.2006 147.33 56.2006 147.33V147.23C56.2317 146.998 56.2317 146.762 56.2006 146.53C55.8846 144.398 55.4506 142.284 54.9006 140.2L53.3806 133.85C52.3806 129.61 51.4406 125.35 50.5206 121.09C50.0706 118.96 49.6506 116.82 49.2306 114.69C48.8106 112.56 48.3906 110.41 48.0006 108.26C47.2206 103.97 46.5606 99.66 46.0006 95.35C45.5665 91.0576 44.7158 86.8176 43.4606 82.69C42.0647 78.616 40.1775 74.7273 37.8406 71.11C35.5189 67.4685 32.8389 64.0683 29.8406 60.96C28.3306 59.41 26.7706 57.9 25.1506 56.47C24.3506 55.73 23.4906 55.06 22.6706 54.35L20.2206 52.38Z" fill="#231F20"/>
<path d="M55.6002 147.81C60.4202 133.07 63.5402 121.73 65.6002 113.81C66.7702 109.21 68.6002 101.56 74.7302 95.27C76.6102 93.34 81.0402 88.76 86.3502 89.18C88.5602 89.36 90.6102 90.37 90.7802 90.01C90.9502 89.65 88.1002 87.5 85.5202 86.42C85.5202 86.42 78.7202 83.56 69.5202 87.25C59.4202 91.2 53.2602 115.63 55.6002 147.81Z" fill="#3A7867"/>
<path d="M55.6107 147.73C55.8607 146.88 56.0107 146.07 56.2207 145.32L56.9107 142.91L58.2907 138L61.0007 128.28C61.9074 125.04 62.784 121.783 63.6307 118.51L64.9007 113.62C65.3307 111.98 65.7707 110.33 66.3007 108.71C67.3555 105.449 68.8564 102.35 70.7607 99.5C71.716 98.0731 72.797 96.7344 73.9907 95.5C75.1439 94.2465 76.3945 93.0862 77.7307 92.03C79.0767 90.9598 80.5815 90.1062 82.1907 89.5C83.8158 88.8825 85.5755 88.7065 87.2907 88.99C88.1304 89.1475 88.9614 89.3478 89.7807 89.59C89.9742 89.6465 90.1713 89.69 90.3707 89.72C90.4407 89.72 90.5707 89.72 90.5407 89.72C90.5107 89.72 90.5407 89.72 90.4807 89.72C90.4776 89.7499 90.4776 89.7801 90.4807 89.81C90.4807 89.9 90.4807 89.81 90.4807 89.81C90.2465 89.5146 89.9702 89.2551 89.6607 89.04C88.3264 88.0604 86.8752 87.2508 85.3407 86.63C82.1712 85.6898 78.8268 85.4981 75.5707 86.07C73.9383 86.3248 72.3365 86.747 70.7907 87.33C70.4107 87.48 70.0107 87.61 69.6507 87.77C69.3059 87.928 68.9719 88.1083 68.6507 88.31C68.3011 88.5043 67.9668 88.725 67.6507 88.97C67.3314 89.2108 67.0275 89.4713 66.7407 89.75C64.4706 92.1227 62.7081 94.9333 61.5607 98.01C60.3027 101.1 59.2994 104.287 58.5607 107.54C55.5807 120.71 55.2907 134.39 55.6107 147.73ZM55.6107 147.88C55.5407 147.07 55.4007 146.21 55.3007 145.31L55.0907 142.76C54.9607 141.07 54.8307 139.38 54.7807 137.69C54.6507 134.31 54.5907 130.92 54.6907 127.53C54.8064 120.728 55.58 113.953 57.0007 107.3C57.7041 103.953 58.7082 100.676 60.0007 97.51C61.2734 94.2598 63.1998 91.3055 65.6607 88.83C65.976 88.523 66.3099 88.2357 66.6607 87.97C67.016 87.697 67.3903 87.4497 67.7807 87.23C68.1741 87.0041 68.5816 86.8037 69.0007 86.63C69.4107 86.46 69.8207 86.34 70.2207 86.19C71.8437 85.6281 73.5186 85.2294 75.2207 85C78.6646 84.4989 82.1788 84.842 85.4607 86C87.0824 86.6788 88.6086 87.5663 90.0007 88.64C90.3879 88.9147 90.726 89.2528 91.0007 89.64C91.0403 89.7567 91.0403 89.8833 91.0007 90C91.0007 90.14 90.7907 90.37 90.7007 90.36C90.553 90.3972 90.3984 90.3972 90.2507 90.36C90.0346 90.3184 89.8209 90.265 89.6107 90.2C88.812 89.9512 88.0009 89.7443 87.1807 89.58C85.552 89.288 83.8751 89.4329 82.3207 90C80.763 90.5919 79.3136 91.4366 78.0307 92.5C75.4386 94.6228 73.2124 97.1564 71.4407 100C69.7066 102.855 68.3614 105.929 67.4407 109.14C66.4407 112.32 65.7907 115.65 64.8607 118.9C63.9307 122.15 63.0307 125.41 62.0607 128.65C61.0907 131.89 60.0607 135.1 58.9807 138.32C58.4607 139.92 57.9007 141.52 57.3407 143.11L56.4807 145.52C56.2307 146.33 55.8607 147.12 55.5907 147.88H55.6107Z" fill="#231F20"/>
<path d="M55.6007 135.33C59.0007 108.67 63.5707 89.05 67.0007 82.2C68.2607 79.64 70.2407 75.63 74.4707 73.63C77.7407 72.07 80.7407 72.48 80.8307 71.69C80.9507 70.69 76.0307 68.35 71.4207 68.69C63.3207 69.22 57.8807 77.69 55.6507 81.15C43.3207 100.19 53.5307 129.63 55.6007 135.33Z" fill="#3A7867"/>
<path d="M55.5904 135.26C55.7804 133.51 55.8304 131.91 56.0004 130.34C56.1704 128.77 56.3604 127.02 56.5704 125.34C57.0104 122.03 57.4304 118.72 57.9704 115.42C59.0404 108.83 60.2404 102.25 61.9704 95.78C62.8304 92.54 63.7804 89.33 64.9704 86.18C65.5276 84.5949 66.1959 83.051 66.9704 81.56C67.7071 80.0413 68.5949 78.6007 69.6205 77.26C70.6717 75.9242 71.9556 74.7893 73.4105 73.91C74.8778 73.0487 76.4915 72.4657 78.1704 72.19L79.3404 72C79.7186 71.954 80.0888 71.8565 80.4405 71.71C80.5305 71.63 80.4405 71.71 80.4405 71.54C80.343 71.3998 80.225 71.2751 80.0904 71.17C79.7768 70.936 79.442 70.7318 79.0904 70.56C77.6168 69.8591 76.04 69.3999 74.4204 69.2C71.2025 68.7452 67.9309 69.5123 65.2504 71.35C62.568 73.204 60.2467 75.5322 58.4004 78.22C56.4522 80.8544 54.8241 83.7111 53.5504 86.73C52.3343 89.7731 51.4785 92.948 51.0004 96.19C50.5267 99.4375 50.326 102.719 50.4004 106C50.4507 109.307 50.7113 112.607 51.1804 115.88C51.6404 119.16 52.2404 122.42 53.0104 125.66C53.3904 127.27 53.7904 128.89 54.2304 130.49L54.9204 132.89L55.2904 134.09L55.4804 134.68C55.5289 134.871 55.5656 135.065 55.5904 135.26ZM55.5904 135.41C55.4752 135.206 55.3717 134.996 55.2804 134.78L55.0504 134.19L54.6304 133L53.7804 130.64C53.2404 129.06 52.7204 127.47 52.2704 125.86C51.3388 122.646 50.5811 119.385 50.0004 116.09C48.7719 109.462 48.5964 102.682 49.4804 96C49.9414 92.6292 50.825 89.3299 52.1104 86.18C53.4761 83.0705 55.2048 80.1334 57.2604 77.43C59.2488 74.6521 61.7464 72.2767 64.6205 70.43C67.5622 68.5413 71.1129 67.844 74.5505 68.48C76.2344 68.726 77.8682 69.2392 79.3904 70C79.7775 70.2058 80.1427 70.4504 80.4805 70.73C80.6753 70.8837 80.8383 71.0739 80.9604 71.29C81.0447 71.4349 81.0764 71.6044 81.0504 71.77C81.0056 71.9475 80.8947 72.1013 80.7404 72.2C80.326 72.3879 79.8834 72.5061 79.4304 72.55L78.2004 72.75C76.5787 72.9965 75.0161 73.5388 73.5904 74.35C72.1934 75.1931 70.974 76.3004 70.0004 77.61C68.0835 80.3054 66.6333 83.3038 65.7104 86.48C64.7104 89.64 63.9104 92.87 63.1604 96.1C62.4104 99.33 61.7404 102.6 61.0404 105.85C60.3404 109.1 59.7204 112.37 59.1304 115.65C58.5404 118.93 57.9304 122.2 57.3804 125.48L56.5404 130.41C56.2404 132.15 55.8504 133.85 55.6104 135.41H55.5904Z" fill="#231F20"/>
<path d="M75.7202 20.28C72.9342 19.2978 70.034 18.6761 67.0902 18.43C64.1624 18.1758 61.2165 18.6285 58.5002 19.75C55.8288 20.9539 53.5139 22.8278 51.7802 25.19C50.0606 27.555 48.7118 30.1683 47.7802 32.94C45.9255 38.5398 44.8192 44.3602 44.4902 50.25C44.0723 56.1575 44.0055 62.0846 44.2902 68C44.9187 79.8198 46.2342 91.593 48.2302 103.26C50.2302 114.93 52.5602 126.56 55.4502 138.02L53.2902 138.18C54.7102 123.49 55.8202 108.78 56.4302 94.05C57.117 79.3533 57.0636 64.6313 56.2702 49.94C56.0102 46.29 55.7002 42.63 55.2702 39C54.8402 35.37 54.2702 31.75 53.5802 28.18C52.897 24.6164 51.934 21.1122 50.7002 17.7C49.5359 14.3154 47.8671 11.1261 45.7502 8.24C45.2175 7.53647 44.6396 6.86839 44.0202 6.23999C43.7102 5.93999 43.4202 5.60999 43.0802 5.32999L42.0802 4.51999C40.6903 3.48751 39.1251 2.71506 37.4602 2.24C33.9972 1.4054 30.3677 1.57889 27.0002 2.74C20.0702 4.88 13.9002 9.18 8.10016 13.67L7.91016 13.44C10.6577 10.9488 13.571 8.64682 16.6302 6.54999C19.7007 4.39938 23.0346 2.65176 26.5502 1.35C30.1702 -0.0265613 34.1084 -0.338846 37.9002 0.449995C39.8098 0.923025 41.6186 1.73599 43.2402 2.84999L44.4202 3.72C44.8102 4.01999 45.1502 4.36999 45.5102 4.71999C46.2251 5.37949 46.8934 6.08786 47.5102 6.83999C49.858 9.86661 51.7204 13.2404 53.0302 16.84C54.3782 20.3515 55.4514 23.9623 56.2402 27.64C57.8159 34.9058 58.8421 42.28 59.3102 49.7C59.8402 57.12 60.0002 64.54 60.0002 72C60.0002 79.46 59.6802 86.82 59.2602 94.21C58.4402 108.99 57.1002 123.72 55.5302 138.42L54.8602 144.77L53.3702 138.58C50.5802 126.99 48.3702 115.32 46.5002 103.58C44.593 91.8029 43.4008 79.9212 42.9302 68C42.7152 62.0436 42.8554 56.0797 43.3502 50.14C43.7932 44.1782 45.0204 38.3009 47.0002 32.66C48.0078 29.8223 49.4481 27.1575 51.2702 24.76C53.1014 22.3371 55.5308 20.4315 58.3202 19.23C61.1167 18.1234 64.1374 17.7017 67.1302 18C70.1002 18.2934 73.0206 18.9655 75.8202 20L75.7202 20.28Z" fill="#1E6F5D"/>
<path d="M32.6299 102C35.6299 109.62 38.4799 115.53 40.5199 119.54C42.8499 124.13 43.1099 124.19 44.8999 127.99C47.9899 134.52 48.7199 137.52 51.6599 141.93C53.0598 144.037 54.657 146.006 56.4299 147.81C57.9099 136.19 55.2499 129.34 52.5599 125.25C50.7899 122.56 49.2099 121.25 45.0899 116.95C40.6216 112.238 36.4597 107.244 32.6299 102Z" fill="#1E6F5D"/>
<path d="M32.6706 102C32.9206 102.54 33.2006 102.92 33.4006 103.37L34.0806 104.84L35.4706 107.77C36.3806 109.77 37.3406 111.66 38.2906 113.59C39.2406 115.52 40.2106 117.45 41.2006 119.36C42.1906 121.27 43.2006 123.13 44.2006 125.09C45.2006 127.05 45.9906 129.09 46.8106 131.09C47.6306 133.09 48.3506 135.09 49.2406 137.09C50.1282 139.046 51.2139 140.906 52.4806 142.64C53.7338 144.384 55.143 146.011 56.6906 147.5L56.0406 147.71C56.5151 143.287 56.3297 138.818 55.4906 134.45C54.6579 130.139 52.6627 126.139 49.7206 122.88C48.2406 121.24 46.6206 119.65 45.1006 117.98C43.5806 116.31 42.1006 114.62 40.6206 112.89C39.1406 111.16 37.7806 109.36 36.4306 107.56C35.7406 106.66 35.0906 105.74 34.4306 104.81L33.4306 103.41L32.9706 102.71C32.9006 102.54 32.8306 102.3 32.6706 102ZM32.6006 101.87C32.7706 102.06 33.0306 102.28 33.2306 102.54L33.7706 103.19L34.8506 104.49L37.0006 107.1C38.4506 108.81 40.0006 110.46 41.4806 112.1C44.4806 115.45 47.7106 118.5 50.8806 121.8C54.001 125.277 56.0651 129.571 56.8306 134.18C57.576 138.694 57.5557 143.302 56.7706 147.81L56.6506 148.61L56.1206 148.03C53.157 144.833 50.6743 141.222 48.7506 137.31C46.8706 133.39 45.1106 129.45 43.0506 125.7C40.9055 121.936 38.9562 118.065 37.2106 114.1C36.3206 112.1 35.5106 110.1 34.7106 108.1C34.3106 107.1 33.9506 106.1 33.5806 105.05L33.0406 103.52C32.8606 103 32.7506 102.37 32.6006 101.91V101.87Z" fill="#231F20"/>
<path d="M58.1406 56.18C58.5232 53.5011 59.7443 51.0122 61.6289 49.0702C63.5134 47.1282 65.9645 45.8329 68.6306 45.37C70.8587 45.0685 73.1268 45.3652 75.2022 46.2299C77.2777 47.0945 79.0857 48.4958 80.4406 50.29" stroke="#1E6F5D" stroke-width="1.5" stroke-miterlimit="10"/>
<path d="M47.4703 8.63C40.3103 7.34 33.7603 9.5 31.0003 14.13C30.0391 15.771 29.5317 17.6382 29.5303 19.54" stroke="#1E6F5D" stroke-width="1.5" stroke-miterlimit="10"/>
<path d="M50.4307 14.26C53.2007 8.37999 58.1107 5.76999 61.5407 7.25999C63.2453 8.15089 64.5572 9.64459 65.2207 11.45" stroke="#1E6F5D" stroke-width="1.5" stroke-miterlimit="10"/>
<path d="M56.7005 38.47C54.7248 38.4026 52.7561 38.7404 50.9159 39.4628C49.0757 40.1851 47.4029 41.2766 46.0005 42.67C44.2555 44.5181 43.0637 46.8185 42.5605 49.31" stroke="#1E6F5D" stroke-width="1.5" stroke-miterlimit="10"/>
<path d="M43.48 60.14C42.9 60.14 34.14 60.61 31.48 66.53C31.0344 67.5402 30.7866 68.6265 30.75 69.73" stroke="#1E6F5D" stroke-width="1.5" stroke-miterlimit="10"/>
<path d="M77.38 47.23C73.76 48.3 72.58 52.62 72.14 54.23C71.4945 56.6597 71.5326 59.2205 72.25 61.63C72.2569 62.0017 72.1168 62.3611 71.86 62.63C71.6908 62.7621 71.4953 62.8563 71.2865 62.9064C71.0778 62.9564 70.8607 62.961 70.65 62.92C69.65 62.82 69.27 62.13 69.1 62.25C68.93 62.37 69.23 64.25 70.53 64.78C71.1105 64.9597 71.7338 64.9457 72.3056 64.7401C72.8775 64.5344 73.3669 64.1483 73.7 63.64C74.1325 64.2021 74.7609 64.5805 75.46 64.7C76.84 64.88 78.39 63.7 78.99 61.83C79.4405 62.3722 80.0262 62.7858 80.6879 63.0288C81.3496 63.2718 82.0638 63.3357 82.7581 63.2138C83.4524 63.092 84.1022 62.7889 84.6416 62.3352C85.1811 61.8814 85.5911 61.2932 85.83 60.63C86.0331 61.1284 86.3764 61.5572 86.8184 61.8643C87.2604 62.1714 87.7821 62.3436 88.32 62.36C89.32 62.36 90.06 61.56 91.03 60.47C91.03 60.42 92.03 59.36 91.82 59.15C91.61 58.94 90.49 60.07 89.25 59.81C88.6844 59.6542 88.1942 59.299 87.87 58.81C86.35 57 86.62 55.1 85.7 52.57C85.1893 50.679 84.0323 49.0267 82.43 47.9C80.8974 47.0297 79.0865 46.7895 77.38 47.23Z" fill="url(#paint0_linear)"/>
<path d="M77.4007 47.3C76.7464 47.5247 76.1371 47.8632 75.6007 48.3C75.0791 48.7392 74.6273 49.2551 74.2607 49.83C73.5526 50.9925 73.0486 52.2675 72.7707 53.6C72.4424 54.9072 72.291 56.2525 72.3207 57.6C72.3455 58.9221 72.537 60.2358 72.8907 61.51V61.6V61.68C72.8957 62.0082 72.8166 62.3321 72.6607 62.621C72.5049 62.9099 72.2777 63.154 72.0007 63.33C71.7098 63.49 71.3827 63.5726 71.0507 63.57C70.7663 63.5708 70.4834 63.5304 70.2107 63.45C69.9375 63.369 69.678 63.2477 69.4407 63.09L69.1407 62.86L69.0007 62.77C69.0007 62.77 68.9207 62.77 69.1207 62.77C69.2087 62.7737 69.2956 62.7496 69.3692 62.7011C69.4428 62.6527 69.4993 62.5823 69.5307 62.5C69.5215 62.5831 69.5215 62.6669 69.5307 62.75C69.5619 62.9379 69.6122 63.1222 69.6807 63.3C69.7955 63.6627 70.0194 63.9812 70.3219 64.212C70.6243 64.4429 70.9905 64.5748 71.3707 64.59C71.7822 64.5756 72.1852 64.4694 72.5503 64.2791C72.9154 64.0887 73.2333 63.8191 73.4807 63.49L73.6807 63.25L73.8607 63.48C74.1936 63.9106 74.6456 64.2339 75.1607 64.41C75.6808 64.5445 76.2321 64.484 76.7107 64.24C77.1961 63.984 77.6206 63.6263 77.9554 63.1915C78.2902 62.7566 78.5273 62.2547 78.6507 61.72L78.8107 61.13L79.2207 61.61C79.6405 62.0853 80.1804 62.4391 80.7838 62.6343C81.3872 62.8296 82.0319 62.8592 82.6507 62.72C83.2391 62.5881 83.7832 62.3059 84.2301 61.9011C84.677 61.4962 85.0114 60.9825 85.2007 60.41L85.6707 58.85L86.4007 60.37C86.6161 60.8034 86.9672 61.1546 87.4007 61.37C87.7887 61.5918 88.2482 61.6528 88.6807 61.54C89.1469 61.3078 89.5487 60.9644 89.8507 60.54C90.2617 60.1497 90.6459 59.732 91.0007 59.29C91.0707 59.2 91.1307 59.03 91.0907 59.15C91.0754 59.2339 91.0782 59.3202 91.0989 59.4029C91.1196 59.4857 91.1577 59.5631 91.2107 59.63C91.3023 59.7676 91.4409 59.8672 91.6007 59.91C91.6762 59.9286 91.7551 59.9286 91.8307 59.91C91.9707 59.91 91.9007 59.91 91.8307 59.91C91.6107 60.02 91.2807 60.21 90.9407 60.35C90.5484 60.5359 90.1198 60.6324 89.6857 60.6324C89.2516 60.6324 88.8229 60.5359 88.4307 60.35C87.7592 59.9587 87.2036 59.3963 86.8207 58.72C86.4508 58.1293 86.1742 57.485 86.0007 56.81C85.6507 55.48 85.5507 54.27 85.2207 53.11C84.9388 51.9217 84.4804 50.7824 83.8607 49.73C83.1775 48.6958 82.1849 47.9039 81.0247 47.4675C79.8645 47.0311 78.5961 46.9724 77.4007 47.3ZM77.4007 47.16C78.6471 46.7899 79.9742 46.7899 81.2207 47.16C82.5186 47.4802 83.6791 48.2095 84.5307 49.24C85.3552 50.2771 86.0039 51.4426 86.4507 52.69C86.9507 53.93 87.1507 55.26 87.4507 56.37C87.6058 56.9091 87.8419 57.4216 88.1507 57.89C88.3996 58.3117 88.7416 58.6708 89.1507 58.94C89.3377 59.0185 89.54 59.0539 89.7425 59.0435C89.9451 59.0331 90.1427 58.9772 90.3207 58.88C90.5607 58.78 90.7807 58.65 91.1307 58.48C91.2833 58.4001 91.4495 58.3492 91.6207 58.33C91.7327 58.3059 91.8486 58.3059 91.9607 58.33C92.1582 58.3836 92.3313 58.5037 92.4507 58.67C92.5215 58.7725 92.5712 58.8881 92.5969 59.0099C92.6227 59.1318 92.624 59.2576 92.6007 59.38C92.5355 59.6369 92.4199 59.8782 92.2607 60.09C91.8832 60.6555 91.4619 61.1904 91.0007 61.69C90.4969 62.2809 89.8495 62.7321 89.1207 63C88.3292 63.1803 87.4992 63.068 86.7841 62.6838C86.069 62.2996 85.5172 61.6695 85.2307 60.91H86.4307C86.1559 61.6564 85.6861 62.3154 85.0703 62.8186C84.4544 63.3219 83.7149 63.6508 82.9287 63.7713C82.1426 63.8918 81.3385 63.7994 80.6002 63.5037C79.8619 63.208 79.2163 62.7198 78.7307 62.09L79.3007 61.98C79.1095 62.576 78.8015 63.128 78.3945 63.6036C77.9876 64.0792 77.49 64.4689 76.9307 64.75C76.3423 65.0225 75.6767 65.0792 75.0507 64.91C74.444 64.7217 73.9076 64.356 73.5107 63.86H73.8907C73.6049 64.2666 73.2361 64.608 72.8086 64.8614C72.381 65.1148 71.9046 65.2745 71.4107 65.33C70.8746 65.3748 70.339 65.2374 69.8907 64.94C69.4664 64.6338 69.1232 64.2287 68.8907 63.76C68.7708 63.5277 68.6769 63.2829 68.6107 63.03C68.5753 62.8889 68.5518 62.745 68.5407 62.6C68.5281 62.497 68.5281 62.393 68.5407 62.29C68.5667 62.1479 68.6423 62.0197 68.754 61.9281C68.8657 61.8366 69.0063 61.7876 69.1507 61.79C69.3035 61.7997 69.4514 61.8479 69.5807 61.93L69.7407 62.04L70.0007 62.19C70.1497 62.2759 70.3119 62.3367 70.4807 62.37C70.6497 62.3952 70.8216 62.3952 70.9907 62.37C71.1136 62.3651 71.2337 62.3308 71.3407 62.27C71.4269 62.1979 71.4934 62.1049 71.5336 61.9999C71.5739 61.8949 71.5866 61.7813 71.5707 61.67V61.84C71.1504 60.4469 70.9612 58.9943 71.0107 57.54C71.0821 56.0986 71.393 54.6792 71.9307 53.34C72.3891 51.9958 73.0647 50.7357 73.9307 49.61C74.7847 48.4496 75.9861 47.5915 77.3607 47.16H77.4007Z" fill="#231F20"/>
<path d="M42.8507 45.35C39.0807 45.54 36.8507 49.45 36.0907 50.91C34.892 53.1173 34.3213 55.611 34.4407 58.12C34.4011 58.3031 34.3249 58.4764 34.2166 58.6293C34.1084 58.7823 33.9703 58.9118 33.8107 59.01C33.6167 59.101 33.405 59.1482 33.1907 59.1482C32.9764 59.1482 32.7647 59.101 32.5707 59.01C31.6707 58.69 31.4207 57.92 31.2207 58.01C31.0207 58.1 30.8807 60.01 32.0207 60.81C32.5399 61.1222 33.1467 61.2569 33.7493 61.1938C34.3518 61.1307 34.9175 60.8731 35.3607 60.46C35.6498 61.1083 36.1705 61.6253 36.8207 61.91C38.1207 62.41 39.9007 61.67 40.9307 59.91C41.2383 60.5445 41.7083 61.0864 42.2928 61.4808C42.8774 61.8752 43.5558 62.1081 44.2593 62.1558C44.9629 62.2035 45.6665 62.0644 46.299 61.7525C46.9315 61.4407 47.4702 60.9672 47.8607 60.38C47.9411 60.9115 48.1722 61.4089 48.5267 61.813C48.8812 62.2171 49.3442 62.5111 49.8607 62.66C50.8607 62.93 51.7407 62.3 52.9407 61.46C53.0007 61.46 54.1507 60.62 54.0207 60.37C53.8907 60.12 52.5107 60.95 51.3607 60.37C50.8575 60.0875 50.4684 59.6384 50.2607 59.1C49.2607 56.93 49.9407 55.15 49.6507 52.48C49.6074 50.5203 48.8784 48.6378 47.5907 47.16C46.3023 45.9695 44.6047 45.3213 42.8507 45.35Z" fill="url(#paint1_linear)"/>
<path d="M42.8607 45.43C42.171 45.478 41.4945 45.6438 40.8607 45.92C40.2461 46.22 39.6825 46.6148 39.1907 47.09C38.2262 48.0506 37.4346 49.1703 36.8507 50.4C36.2182 51.5806 35.7505 52.8424 35.4607 54.15C35.1745 55.443 35.0469 56.7661 35.0807 58.09V58.26C35.0353 58.5109 34.9385 58.7498 34.7963 58.9616C34.6542 59.1733 34.4698 59.3534 34.2548 59.4905C34.0397 59.6276 33.7987 59.7188 33.5467 59.7583C33.2948 59.7978 33.0374 59.7847 32.7907 59.72C32.5148 59.6473 32.2494 59.5398 32.0007 59.4C31.759 59.2565 31.5399 59.0778 31.3507 58.87L31.1007 58.57L31.0007 58.46C31.0007 58.46 30.9307 58.46 31.1207 58.46C31.2056 58.4819 31.2951 58.4774 31.3773 58.447C31.4595 58.4166 31.5305 58.3618 31.5807 58.29C31.5807 58.29 31.5807 58.44 31.5807 58.53C31.5609 58.7195 31.5609 58.9105 31.5807 59.1C31.6047 59.4799 31.7452 59.8432 31.9833 60.1402C32.2213 60.4373 32.5451 60.6537 32.9107 60.76C33.3154 60.8441 33.7339 60.8366 34.1353 60.738C34.5367 60.6393 34.911 60.4521 35.2307 60.19L35.4707 60L35.6007 60.27C35.8031 60.7657 36.152 61.1879 36.6007 61.48C37.0704 61.7375 37.6177 61.8157 38.1407 61.7C38.6736 61.5618 39.1712 61.3121 39.6004 60.9673C40.0296 60.6225 40.3808 60.1906 40.6307 59.7L40.9207 59.17L41.2107 59.73C41.5024 60.2929 41.9406 60.7666 42.4793 61.101C43.0179 61.4355 43.6368 61.6182 44.2707 61.63C44.87 61.6399 45.4615 61.4939 45.9874 61.2064C46.5133 60.9189 46.9555 60.4998 47.2707 59.99L48.1007 58.59L48.4507 60.24C48.5463 60.7195 48.7956 61.1548 49.1607 61.48C49.4859 61.7855 49.9145 61.957 50.3607 61.96C50.861 61.8509 51.3297 61.6285 51.7307 61.31C52.2231 60.9884 52.6911 60.6307 53.1307 60.24C53.2107 60.17 53.3107 60.02 53.2507 60.13C53.2127 60.2079 53.1929 60.2934 53.1929 60.38C53.1929 60.4666 53.2127 60.5521 53.2507 60.63C53.3066 60.7838 53.4169 60.9119 53.5607 60.99C53.6282 61.0286 53.7032 61.0525 53.7807 61.06C53.9307 61.06 53.8607 61.06 53.7807 61.06C53.5407 61.06 53.1707 61.22 52.7807 61.28C52.3557 61.3686 51.9163 61.3616 51.4943 61.2595C51.0723 61.1575 50.6783 60.963 50.3407 60.69C49.7786 60.1401 49.3745 59.4494 49.1707 58.69C48.9429 58.0165 48.8247 57.3109 48.8207 56.6C48.8207 55.23 48.9907 54.03 48.9407 52.82C48.9558 51.601 48.7838 50.3868 48.4307 49.22C48.0025 48.0936 47.2385 47.1261 46.2423 46.4482C45.2461 45.7703 44.0656 45.4149 42.8607 45.43ZM42.8607 45.28C44.1575 45.2306 45.4414 45.5533 46.5607 46.21C47.7369 46.8292 48.6859 47.8062 49.2707 49C49.8099 50.2068 50.1477 51.4939 50.2707 52.81C50.4507 54.13 50.3407 55.47 50.4007 56.63C50.4247 57.1887 50.5291 57.7411 50.7107 58.27C50.8659 58.7426 51.1218 59.1759 51.4607 59.54C51.6217 59.6605 51.808 59.7428 52.0054 59.781C52.2029 59.8191 52.4064 59.8119 52.6007 59.76C52.8707 59.76 53.1107 59.65 53.4907 59.56C53.6591 59.5276 53.8322 59.5276 54.0007 59.56C54.1167 59.5753 54.2287 59.6127 54.3307 59.67C54.5085 59.7708 54.6462 59.9297 54.7207 60.12C54.7715 60.2332 54.7977 60.3559 54.7977 60.48C54.7977 60.6041 54.7715 60.7268 54.7207 60.84C54.5979 61.0757 54.4316 61.286 54.2307 61.46C53.713 61.8967 53.1613 62.2913 52.5807 62.64C51.9649 63.0879 51.246 63.3734 50.4907 63.47C49.6719 63.4534 48.8871 63.14 48.2819 62.5882C47.6768 62.0365 47.2926 61.2837 47.2007 60.47L48.3807 60.73C47.9223 61.3983 47.2919 61.9303 46.5562 62.27C45.8205 62.6097 45.0066 62.7445 44.2007 62.66C43.4271 62.5785 42.6887 62.2942 42.0601 61.8359C41.4315 61.3776 40.935 60.7616 40.6207 60.05H41.1907C40.8595 60.5874 40.423 61.0523 39.9074 61.4166C39.3918 61.781 38.8079 62.0372 38.1907 62.17C37.5571 62.2991 36.8982 62.1999 36.3307 61.89C35.7884 61.5573 35.3542 61.0744 35.0807 60.5L35.4507 60.58C35.0779 60.9068 34.64 61.1506 34.1659 61.2954C33.6919 61.4402 33.1924 61.4827 32.7007 61.42C32.1683 61.3337 31.6795 61.0735 31.3107 60.68C30.9622 60.2828 30.7182 59.8051 30.6007 59.29C30.5418 59.0339 30.5083 58.7726 30.5007 58.51C30.4867 58.3637 30.4867 58.2163 30.5007 58.07C30.5235 57.97 30.5571 57.8728 30.6007 57.78C30.6632 57.6491 30.769 57.5438 30.9002 57.4818C31.0313 57.4199 31.1799 57.4051 31.3207 57.44C31.4673 57.4881 31.5984 57.5744 31.7007 57.69L31.8307 57.83L32.0407 58.04C32.1704 58.1527 32.3151 58.247 32.4707 58.32C32.6251 58.3864 32.786 58.4367 32.9507 58.47C33.0725 58.4972 33.1989 58.4972 33.3207 58.47C33.4221 58.42 33.5091 58.3452 33.5738 58.2526C33.6385 58.1599 33.6787 58.0524 33.6907 57.94V58.11C33.6197 56.6602 33.7817 55.2084 34.1707 53.81C34.6164 52.4416 35.2818 51.1548 36.1407 50C36.9118 48.7921 37.8783 47.7209 39.0007 46.83C40.0915 45.9253 41.4373 45.3835 42.8507 45.28H42.8607Z" fill="#231F20"/>
<path d="M31.36 66.2C27.58 66.38 25.41 70.3 24.6 71.76C23.393 73.9754 22.8187 76.4801 22.94 79C22.9045 79.1847 22.8311 79.3601 22.7244 79.515C22.6177 79.6699 22.48 79.801 22.32 79.9C22.1253 79.9884 21.9139 80.0341 21.7 80.0341C21.4861 80.0341 21.2747 79.9884 21.08 79.9C20.17 79.58 19.92 78.8 19.73 78.9C19.54 79 19.38 80.9 20.52 81.7C21.0413 82.0114 21.6494 82.1457 22.2533 82.0826C22.8572 82.0195 23.4244 81.7625 23.87 81.35C24.1509 82.0005 24.6696 82.5191 25.32 82.8C26.62 83.29 28.4 82.56 29.44 80.8C29.7484 81.4323 30.2181 81.972 30.8017 82.3647C31.3853 82.7575 32.0622 82.9894 32.764 83.0371C33.4659 83.0848 34.1679 82.9465 34.7992 82.6363C35.4306 82.326 35.9689 81.8547 36.36 81.27C36.4427 81.8006 36.6746 82.2968 37.0288 82.7005C37.3829 83.1043 37.8447 83.3989 38.36 83.55C39.36 83.82 40.24 83.18 41.44 82.35C41.5 82.35 42.65 81.5 42.53 81.25C42.41 81 41.02 81.84 39.87 81.25C39.3676 80.9759 38.978 80.5332 38.77 80C37.77 77.84 38.45 76.06 38.16 73.38C38.1177 71.4231 37.3885 69.5434 36.1 68.07C34.8244 66.8523 33.1234 66.1812 31.36 66.2Z" fill="url(#paint2_linear)"/>
<path d="M31.3607 66.28C30.6713 66.3305 29.9953 66.4961 29.3607 66.77C28.7514 67.0749 28.189 67.4655 27.6907 67.93C26.7344 68.9013 25.944 70.0229 25.3507 71.25C24.7359 72.4344 24.2818 73.6955 24.0007 75C23.7107 76.2926 23.5798 77.6157 23.6107 78.94V79V79.08C23.5652 79.331 23.4684 79.5698 23.3263 79.7816C23.1842 79.9933 22.9998 80.1734 22.7848 80.3105C22.5697 80.4476 22.3286 80.5388 22.0767 80.5783C21.8247 80.6178 21.5673 80.6047 21.3207 80.54C21.048 80.4672 20.7859 80.3597 20.5407 80.22C20.2955 80.0731 20.0731 79.8912 19.8807 79.68C19.7948 79.5883 19.7146 79.4915 19.6407 79.39L19.5507 79.28C19.5507 79.28 19.4707 79.28 19.6607 79.28C19.7444 79.306 19.8342 79.3045 19.917 79.2757C19.9998 79.2469 20.0712 79.1923 20.1207 79.12C20.1207 79.07 20.1207 79.12 20.1207 79.12C20.1086 79.1995 20.1086 79.2804 20.1207 79.36C20.0958 79.5492 20.0958 79.7408 20.1207 79.93C20.1417 80.3108 20.2813 80.6755 20.5197 80.9731C20.7582 81.2707 21.0836 81.4864 21.4507 81.59C21.8538 81.6747 22.2708 81.6675 22.6707 81.5688C23.0707 81.4701 23.4432 81.2825 23.7607 81.02L24.0107 80.83L24.1307 81.1C24.3388 81.5922 24.6864 82.0128 25.1307 82.31C25.6053 82.564 26.1555 82.6385 26.6807 82.52C27.2139 82.3854 27.7116 82.1369 28.1397 81.7917C28.5678 81.4464 28.9161 81.0126 29.1607 80.52L29.4507 79.99L29.7407 80.55C30.0357 81.1123 30.4761 81.5852 31.0161 81.9194C31.556 82.2536 32.1758 82.4368 32.8107 82.45C33.4092 82.456 33.9993 82.3084 34.5245 82.0212C35.0498 81.7341 35.4926 81.3171 35.8107 80.81L36.6407 79.41L37.0007 81.15C37.099 81.6285 37.3478 82.063 37.7107 82.39C38.0384 82.6979 38.471 82.8695 38.9207 82.87C39.4185 82.7626 39.8843 82.5399 40.2807 82.22C40.7762 81.8983 41.2475 81.5407 41.6907 81.15C41.7707 81.08 41.8707 80.93 41.8007 81.04C41.7655 81.1169 41.7474 81.2005 41.7474 81.285C41.7474 81.3695 41.7655 81.4531 41.8007 81.53C41.8569 81.6892 41.9712 81.8214 42.1207 81.9C42.1841 81.9397 42.2561 81.9637 42.3307 81.97C42.4807 81.97 42.4107 81.97 42.3307 81.97C42.0907 82.02 41.7307 82.13 41.3307 82.18C40.9248 82.2581 40.507 82.2485 40.1051 82.1519C39.7033 82.0553 39.3267 81.874 39.0007 81.62C38.4442 81.0657 38.0411 80.3766 37.8307 79.62C37.6077 78.9454 37.4896 78.2405 37.4807 77.53C37.4807 76.16 37.6507 74.95 37.6107 73.75C37.6225 72.5305 37.4471 71.3163 37.0907 70.15C36.6681 68.9815 35.8856 67.9772 34.8559 67.2818C33.8262 66.5863 32.6024 66.2356 31.3607 66.28ZM31.3607 66.13C32.6576 66.0795 33.9418 66.4022 35.0607 67.06C36.2459 67.6798 37.1997 68.6652 37.7807 69.87C38.3256 71.0748 38.6637 72.3628 38.7807 73.68C38.9707 75 38.8507 76.34 38.9107 77.5C38.9339 78.0597 39.0418 78.6126 39.2307 79.14C39.3872 79.6135 39.6507 80.0446 40.0007 80.4C40.1632 80.5213 40.3511 80.6041 40.5504 80.6422C40.7496 80.6804 40.9548 80.6727 41.1507 80.62C41.4107 80.62 41.6607 80.51 42.0407 80.43C42.209 80.3966 42.3823 80.3966 42.5507 80.43C42.666 80.4482 42.7775 80.4854 42.8807 80.54C43.0578 80.637 43.1957 80.7925 43.2707 80.98C43.3193 81.0955 43.3444 81.2196 43.3444 81.345C43.3444 81.4704 43.3193 81.5945 43.2707 81.71C43.1491 81.9436 42.9826 82.1509 42.7807 82.32C42.2595 82.7551 41.7081 83.1528 41.1307 83.51C40.5124 83.9587 39.7893 84.241 39.0307 84.33C38.2117 84.3174 37.4258 84.0051 36.8214 83.4524C36.217 82.8996 35.8361 82.1446 35.7507 81.33L36.9207 81.58C36.4658 82.2501 35.8379 82.7843 35.1036 83.1259C34.3693 83.4675 33.5562 83.6037 32.7507 83.52C31.9745 83.4382 31.2337 83.1528 30.6033 82.6928C29.9729 82.2327 29.4752 81.6142 29.1607 80.9H29.7407C29.4086 81.4367 28.9718 81.901 28.4564 82.2652C27.9409 82.6295 27.3574 82.8861 26.7407 83.02C26.1092 83.1498 25.4521 83.0468 24.8907 82.73C24.3392 82.4084 23.9021 81.9224 23.6407 81.34L24.0107 81.43C23.6349 81.7547 23.1948 81.9965 22.7192 82.1395C22.2436 82.2825 21.7432 82.3236 21.2507 82.26C20.7214 82.1795 20.235 81.9222 19.8707 81.53C19.5186 81.1353 19.274 80.6566 19.1607 80.14C19.0918 79.8858 19.0582 79.6233 19.0607 79.36C19.0514 79.2135 19.0514 79.0665 19.0607 78.92C19.0832 78.8185 19.1202 78.7209 19.1707 78.63C19.2298 78.4986 19.3335 78.3924 19.4635 78.3301C19.5934 78.2679 19.7412 78.2537 19.8807 78.29C20.0272 78.333 20.1588 78.4162 20.2607 78.53L20.3907 78.67C20.4707 78.76 20.5407 78.82 20.6107 78.89C20.7352 79.0047 20.8769 79.0992 21.0307 79.17C21.1873 79.2374 21.352 79.2844 21.5207 79.31C21.6386 79.3414 21.7627 79.3414 21.8807 79.31C21.982 79.26 22.0691 79.1852 22.1338 79.0926C22.1985 78.9999 22.2387 78.8924 22.2507 78.78V79C22.2071 76.8421 22.6533 74.7024 23.5557 72.7417C24.4581 70.781 25.7932 69.0504 27.4607 67.68C28.5655 66.7728 29.9247 66.2312 31.3507 66.13H31.3607Z" fill="#231F20"/>
<path d="M58.1406 77.14C58.4336 74.6702 59.4625 72.3455 61.0937 70.4681C62.725 68.5906 64.8831 67.247 67.2877 66.6119C69.6924 65.9767 72.2325 66.0794 74.578 66.9065C76.9236 67.7336 78.9663 69.247 80.4406 71.25" stroke="#1E6F5D" stroke-width="1.5" stroke-miterlimit="10"/>
<path d="M77.7301 68.36C74.1101 69.44 72.9301 73.76 72.4901 75.36C71.8474 77.7862 71.882 80.3421 72.5901 82.75C72.5975 82.9346 72.5667 83.1187 72.4996 83.2907C72.4325 83.4628 72.3305 83.6192 72.2001 83.75C72.0332 83.883 71.8398 83.9786 71.6327 84.0304C71.4257 84.0821 71.21 84.0888 71.0001 84.05C70.0001 83.95 69.6101 83.26 69.4401 83.38C69.2701 83.5 69.5801 85.38 70.8801 85.91C71.4608 86.0864 72.083 86.0707 72.6541 85.8654C73.2252 85.66 73.7148 85.2758 74.0501 84.77C74.4806 85.3343 75.11 85.7134 75.8101 85.83C77.1901 86 78.7401 84.83 79.3301 82.95C79.7794 83.495 80.365 83.9112 81.0274 84.1565C81.6897 84.4018 82.4052 84.4673 83.1011 84.3464C83.797 84.2255 84.4484 83.9226 84.9892 83.4683C85.5301 83.014 85.9409 82.4246 86.1801 81.76C86.3863 82.2563 86.7304 82.683 87.1718 82.9896C87.6131 83.2963 88.1331 83.4699 88.6701 83.49C89.6701 83.49 90.4101 82.69 91.3701 81.6C91.3701 81.6 92.3701 80.49 92.1701 80.27C91.9701 80.05 90.8401 81.2 89.5901 80.94C89.0282 80.782 88.5419 80.4271 88.2201 79.94C86.7001 78.09 86.9701 76.19 86.0501 73.66C85.5373 71.7727 84.3805 70.1241 82.7801 69C81.2425 68.1429 79.433 67.9136 77.7301 68.36Z" fill="url(#paint3_linear)"/>
<path d="M77.75 68.44C77.0957 68.6647 76.4864 69.0032 75.95 69.44C75.4284 69.8783 74.9736 70.3903 74.6 70.96C73.9008 72.1294 73.4007 73.4068 73.12 74.74C72.7859 76.0461 72.6344 77.3923 72.67 78.74C72.6963 80.0646 72.8844 81.381 73.23 82.66V82.75V82.83C73.2542 83.0885 73.2232 83.3492 73.1389 83.5947C73.0547 83.8403 72.9192 84.0651 72.7413 84.2543C72.5635 84.4435 72.3475 84.5926 72.1076 84.6919C71.8677 84.7911 71.6094 84.8382 71.35 84.83C71.0693 84.8251 70.7905 84.7848 70.52 84.71C70.2464 84.6255 69.9869 84.5008 69.75 84.34C69.6448 84.2739 69.5446 84.2004 69.45 84.12L69.33 84.03C69.33 84.03 69.25 84.03 69.45 84.03C69.5371 84.0295 69.6222 84.0038 69.695 83.9558C69.7678 83.9079 69.8251 83.8399 69.86 83.76C69.86 83.71 69.86 83.76 69.86 83.76C69.8509 83.8397 69.8509 83.9202 69.86 84C69.8864 84.1889 69.9368 84.3738 70.01 84.55C70.1244 84.9138 70.3479 85.2336 70.6502 85.4662C70.9525 85.6987 71.319 85.8327 71.7 85.85C72.1126 85.8359 72.5166 85.7287 72.882 85.5365C73.2474 85.3443 73.5646 85.072 73.81 84.74L74 84.5L74.19 84.74C74.5235 85.1677 74.9756 85.4877 75.49 85.66C76.0088 85.7975 76.5601 85.7406 77.04 85.5C77.5392 85.2367 77.9739 84.8662 78.3128 84.4149C78.6517 83.9636 78.8863 83.4428 79 82.89L79.15 82.3L79.57 82.78C79.9911 83.2536 80.5311 83.6061 81.1341 83.8013C81.737 83.9964 82.3812 84.027 83 83.89C83.5895 83.7571 84.1344 83.4735 84.5814 83.0668C85.0284 82.6602 85.3622 82.1444 85.55 81.57L86 80L86.73 81.52C86.9472 81.9521 87.2978 82.3028 87.73 82.52C88.1166 82.7451 88.5762 82.8098 89.01 82.7C89.4738 82.4642 89.8748 82.1214 90.18 81.7C90.5841 81.2685 90.9551 80.8072 91.29 80.32C91.35 80.24 91.41 80.07 91.38 80.19C91.362 80.2732 91.3625 80.3593 91.3815 80.4422C91.4005 80.5252 91.4375 80.6029 91.49 80.67C91.5872 80.8065 91.7284 80.9053 91.89 80.95C91.9626 80.964 92.0373 80.964 92.11 80.95C92.26 80.95 92.19 80.95 92.11 80.95C91.89 81.05 91.56 81.24 91.22 81.39C90.8277 81.5759 90.399 81.6724 89.965 81.6724C89.5309 81.6724 89.1022 81.5759 88.71 81.39C88.0398 80.9926 87.4849 80.4273 87.1 79.75C86.767 79.2045 86.5113 78.6156 86.34 78C86 76.67 85.89 75.46 85.57 74.29C85.288 73.1049 84.8295 71.9689 84.21 70.92C83.5347 69.8756 82.5453 69.0726 81.3842 68.6269C80.2232 68.1812 78.9506 68.1157 77.75 68.44ZM77.75 68.29C78.9978 67.9299 80.3221 67.9299 81.57 68.29C82.8653 68.6155 84.022 69.3481 84.87 70.38C85.7011 71.4143 86.3535 72.5804 86.8 73.83C87.3 75.07 87.5 76.39 87.8 77.51C87.9518 78.0393 88.1845 78.5419 88.49 79C88.742 79.422 89.0833 79.7838 89.49 80.06C89.6793 80.1432 89.8855 80.1811 90.0921 80.1707C90.2986 80.1603 90.4999 80.1018 90.68 80C90.93 79.9 91.15 79.77 91.5 79.6C91.6506 79.5153 91.8177 79.4641 91.99 79.45C92.1025 79.4306 92.2175 79.4306 92.33 79.45C92.5241 79.5108 92.695 79.6295 92.82 79.79C92.9561 80.0036 93.0062 80.2609 92.96 80.51C92.9013 80.7673 92.7888 81.0093 92.63 81.22C92.231 81.7671 91.7897 82.2821 91.31 82.76C90.8195 83.3476 90.1858 83.7988 89.47 84.07C88.6811 84.2493 87.854 84.1389 87.1398 83.7589C86.4256 83.3788 85.8719 82.7545 85.58 82H86.78C86.5063 82.747 86.0374 83.4071 85.422 83.9113C84.8067 84.4156 84.0674 84.7457 83.2811 84.8672C82.4949 84.9887 81.6904 84.8972 80.9515 84.6022C80.2126 84.3073 79.5664 83.8196 79.08 83.19L79.65 83.08C79.458 83.6758 79.1485 84.2271 78.7397 84.7012C78.3309 85.1753 77.8311 85.5625 77.27 85.84C76.6863 86.117 76.0222 86.1738 75.4 86C74.8012 85.8216 74.2665 85.4744 73.86 85H74.24C73.9524 85.4048 73.5831 85.7449 73.1559 85.9981C72.7287 86.2513 72.2532 86.4121 71.76 86.47C71.2151 86.4868 70.6802 86.3214 70.24 86C69.8092 85.7008 69.4644 85.294 69.24 84.82C69.1144 84.5868 69.0202 84.3379 68.96 84.08C68.9197 83.9399 68.8962 83.7956 68.89 83.65C68.8726 83.5474 68.8726 83.4426 68.89 83.34C68.9198 83.2006 68.9968 83.0759 69.1079 82.9866C69.219 82.8974 69.3575 82.8491 69.5 82.85C69.6538 82.8543 69.8031 82.9029 69.93 82.99L70.09 83.1L70.35 83.25C70.499 83.3359 70.6612 83.3967 70.83 83.43C70.9996 83.4453 71.1703 83.4453 71.34 83.43C71.4601 83.4268 71.5773 83.3924 71.68 83.33C71.7688 83.2596 71.8377 83.1672 71.8798 83.0619C71.9219 82.9567 71.9357 82.8422 71.92 82.73L72 83C71.5829 81.6063 71.3971 80.1537 71.45 78.7C71.5193 77.2584 71.8303 75.8386 72.37 74.5C72.8214 73.1527 73.4976 71.8916 74.37 70.77C75.1998 69.6175 76.3668 68.751 77.71 68.29H77.75Z" fill="#231F20"/>
<path d="M72.7204 18.88C69.1004 19.95 67.9204 24.28 67.4804 25.88C66.8378 28.3096 66.8724 30.8687 67.5804 33.28C67.586 33.4643 67.5544 33.6479 67.4874 33.8198C67.4203 33.9916 67.3193 34.1481 67.1904 34.28C67.023 34.4119 66.8291 34.506 66.622 34.5561C66.4149 34.6061 66.1995 34.6109 65.9904 34.57C64.9904 34.47 64.6004 33.78 64.4304 33.9C64.2604 34.02 64.5704 35.9 65.8704 36.43C66.4432 36.6038 67.0568 36.5887 67.6204 36.3871C68.184 36.1854 68.6678 35.8078 69.0004 35.31C69.4382 35.8728 70.0686 36.2539 70.7704 36.38C72.1504 36.55 73.7004 35.38 74.2904 33.5C74.7404 34.0447 75.3267 34.4606 75.9896 34.7052C76.6525 34.9497 77.3684 35.0144 78.0644 34.8924C78.7604 34.7705 79.4117 34.4664 79.952 34.011C80.4923 33.5556 80.9023 32.9653 81.1404 32.3C81.3521 32.7959 81.7025 33.2202 82.1496 33.5217C82.5966 33.8233 83.1212 33.9894 83.6604 34C84.6604 34 85.4004 33.19 86.3604 32.1C86.3604 32.1 87.3604 30.99 87.1604 30.78C86.9604 30.57 85.8304 31.7 84.5804 31.44C84.0176 31.2837 83.5308 30.9283 83.2104 30.44C81.6904 28.65 82.0004 26.75 81.0004 24.22C80.4896 22.329 79.3326 20.6766 77.7304 19.55C76.2088 18.6902 74.4144 18.4502 72.7204 18.88Z" fill="url(#paint4_linear)"/>
<path d="M72.7403 19C72.0913 19.2134 71.4828 19.5346 70.9403 19.95C70.4157 20.389 69.9606 20.9048 69.5903 21.48C68.8896 22.645 68.3893 23.9194 68.1103 25.25C67.7771 26.5563 67.6257 27.9023 67.6603 29.25C67.6867 30.5746 67.8748 31.891 68.2203 33.17V33.25V33.33C68.2279 33.6614 68.1499 33.9891 67.9941 34.2816C67.8382 34.5741 67.6096 34.8215 67.3303 35C67.0236 35.1658 66.6789 35.2485 66.3303 35.24C66.0493 35.2401 65.7698 35.1997 65.5003 35.12C65.2272 35.039 64.9676 34.9177 64.7303 34.76L64.4203 34.53L64.3103 34.44C64.3103 34.44 64.2303 34.44 64.4303 34.44C64.5181 34.4422 64.6044 34.4175 64.6777 34.3693C64.7509 34.321 64.8077 34.2515 64.8403 34.17C64.8316 34.2498 64.8316 34.3302 64.8403 34.41C64.8666 34.613 64.9204 34.8115 65.0003 35C65.1152 35.3627 65.3391 35.6812 65.6415 35.912C65.9439 36.1429 66.3102 36.2748 66.6903 36.29C67.1018 36.2756 67.5049 36.1694 67.87 35.9791C68.2351 35.7887 68.553 35.5191 68.8003 35.19L68.9903 34.95L69.1803 35.18C69.5133 35.6106 69.9653 35.9339 70.4803 36.11C71.0004 36.2445 71.5518 36.184 72.0303 35.94C72.5235 35.6852 72.9553 35.326 73.2955 34.8873C73.6357 34.4486 73.8763 33.9411 74.0003 33.4L74.1503 32.81L74.5703 33.29C74.9911 33.7645 75.5306 34.1184 76.1334 34.3152C76.7363 34.5121 77.3807 34.5448 78.0003 34.41C78.5887 34.2744 79.1322 33.9898 79.5788 33.5835C80.0254 33.1772 80.3599 32.6629 80.5503 32.09L81.0003 30.53L81.7303 32.05C81.9475 32.4821 82.2982 32.8328 82.7303 33.05C83.1222 33.2714 83.5845 33.3323 84.0203 33.22C84.481 33.002 84.8824 32.6761 85.1903 32.27C85.5919 31.8398 85.9628 31.382 86.3003 30.9C86.3603 30.81 86.4203 30.64 86.3903 30.76C86.3723 30.8432 86.3729 30.9293 86.3919 31.0122C86.4109 31.0952 86.4479 31.173 86.5003 31.24C86.5957 31.3783 86.7377 31.4777 86.9003 31.52C86.9724 31.5391 87.0482 31.5391 87.1203 31.52C87.2703 31.52 87.2003 31.52 87.1203 31.52C86.9103 31.63 86.5803 31.82 86.2403 31.96C85.8481 32.1459 85.4194 32.2424 84.9853 32.2424C84.5513 32.2424 84.1226 32.1459 83.7303 31.96C83.0589 31.5687 82.5033 31.0063 82.1203 30.33C81.7443 29.7257 81.4612 29.0684 81.2803 28.38C80.9403 27.05 80.8303 25.84 80.5103 24.68C80.2285 23.4917 79.77 22.3524 79.1503 21.3C78.4516 20.3 77.4597 19.5417 76.3114 19.1297C75.1632 18.7177 73.9154 18.6724 72.7403 19ZM72.7403 18.86C73.9875 18.495 75.3132 18.495 76.5603 18.86C77.8566 19.1775 79.0147 19.9075 79.8603 20.94C80.6915 21.9743 81.3439 23.1404 81.7903 24.39C82.2903 25.63 82.4903 26.96 82.7903 28.07C82.9421 28.6087 83.1748 29.1212 83.4803 29.59C83.7295 30.0115 84.0715 30.3706 84.4803 30.64C84.6656 30.7184 84.8663 30.7537 85.0672 30.7433C85.2682 30.7329 85.4641 30.6771 85.6403 30.58C85.8903 30.48 86.1103 30.35 86.4603 30.18C86.6285 30.0892 86.8113 30.0283 87.0003 30C87.1125 29.9765 87.2282 29.9765 87.3403 30C87.5507 30.0588 87.7318 30.1937 87.8482 30.3785C87.9646 30.5633 88.0082 30.7848 87.9703 31C87.9117 31.2573 87.7992 31.4993 87.6403 31.71C87.244 32.2623 86.8024 32.7807 86.3203 33.26C85.8266 33.8417 85.1936 34.2889 84.4803 34.56C83.6889 34.7403 82.8589 34.628 82.1438 34.2438C81.4287 33.8596 80.8769 33.2295 80.5903 32.47H81.7903C81.507 33.228 81.0235 33.8951 80.3914 34.4005C79.7593 34.9058 79.0022 35.2305 78.2003 35.34C77.427 35.4473 76.639 35.3474 75.9169 35.0505C75.1948 34.7536 74.5645 34.2703 74.0903 33.65L74.6603 33.54C74.469 34.1374 74.1598 34.6904 73.751 35.1662C73.3422 35.642 72.8421 36.0309 72.2803 36.31C71.6955 36.5827 71.033 36.6393 70.4103 36.47C69.8037 36.2817 69.2673 35.916 68.8703 35.42H69.2503C68.966 35.828 68.5975 36.1703 68.1697 36.4239C67.7419 36.6775 67.2647 36.8364 66.7703 36.89C66.2342 36.9348 65.6987 36.7974 65.2503 36.5C64.6073 36.0346 64.1474 35.3589 63.9503 34.59C63.9101 34.4499 63.8866 34.3056 63.8803 34.16C63.8628 34.0574 63.8628 33.9526 63.8803 33.85C63.9082 33.7088 63.9843 33.5817 64.0956 33.4905C64.2069 33.3993 64.3464 33.3496 64.4903 33.35C64.6455 33.3555 64.7954 33.4078 64.9203 33.5L65.0803 33.6L65.3403 33.75C65.4894 33.8359 65.6516 33.8967 65.8203 33.93C65.9894 33.9553 66.1613 33.9553 66.3303 33.93C66.4504 33.9268 66.5676 33.8924 66.6703 33.83C66.76 33.7603 66.8295 33.668 66.8716 33.5625C66.9138 33.4571 66.9272 33.3423 66.9103 33.23V33.4C66.0851 30.6367 66.2226 27.675 67.3003 25C67.7588 23.6558 68.4344 22.3957 69.3003 21.27C70.145 20.1111 71.3354 19.2498 72.7003 18.81L72.7403 18.86Z" fill="#231F20"/>
<path d="M29.5807 16C25.9607 17.07 24.7807 21.39 24.3407 23C23.6981 25.4296 23.7327 27.9887 24.4407 30.4C24.4494 30.5847 24.4191 30.7692 24.3519 30.9414C24.2848 31.1137 24.1821 31.2699 24.0507 31.4C23.8821 31.5296 23.6882 31.6224 23.4815 31.6723C23.2748 31.7223 23.0599 31.7283 22.8507 31.69C21.8507 31.59 21.4607 30.9 21.2907 31.02C21.1207 31.14 21.4307 33.02 22.7307 33.55C23.3112 33.7297 23.9345 33.7157 24.5063 33.5101C25.0782 33.3044 25.5676 32.9183 25.9007 32.41C26.3312 32.9743 26.9606 33.3534 27.6607 33.47C29.0407 33.65 30.5907 32.47 31.1907 30.59C31.6409 31.1252 32.2235 31.533 32.8804 31.7727C33.5373 32.0125 34.2457 32.0758 34.9347 31.9564C35.6238 31.837 36.2695 31.5391 36.8074 31.0923C37.3454 30.6455 37.7568 30.0654 38.0007 29.41C38.2048 29.9077 38.5484 30.3358 38.9902 30.6428C39.432 30.9497 39.9531 31.1224 40.4907 31.14C41.4907 31.14 42.2307 30.34 43.1907 29.25C43.2407 29.2 44.1907 28.14 43.9907 27.93C43.7907 27.72 42.6607 28.85 41.4207 28.59C40.8551 28.4342 40.3649 28.079 40.0407 27.59C38.5207 25.73 38.7907 23.83 37.8707 21.3C37.36 19.409 36.203 17.7567 34.6007 16.63C33.071 15.7811 31.2727 15.5555 29.5807 16Z" fill="url(#paint5_linear)"/>
<path d="M29.6004 16.06C28.9462 16.2847 28.3368 16.6232 27.8004 17.06C27.2781 17.5013 26.8233 18.0168 26.4504 18.59C25.7653 19.7416 25.2753 20.9985 25.0004 22.31C24.6721 23.6172 24.5208 24.9625 24.5504 26.31C24.5768 27.6313 24.7649 28.9444 25.1104 30.22V30.31V30.39C25.1247 30.7327 25.0469 31.073 24.8851 31.3755C24.7233 31.678 24.4834 31.9316 24.1904 32.11C23.8837 32.2758 23.539 32.3585 23.1904 32.35C22.9094 32.3501 22.6299 32.3097 22.3604 32.23C22.0873 32.149 21.8277 32.0277 21.5904 31.87L21.2904 31.64L21.1704 31.55C21.1704 31.55 21.0904 31.55 21.2904 31.55C21.3781 31.5522 21.4645 31.5275 21.5377 31.4793C21.611 31.431 21.6678 31.3615 21.7004 31.28C21.7004 31.23 21.7004 31.28 21.7004 31.28C21.6913 31.3631 21.6913 31.4469 21.7004 31.53C21.7257 31.716 21.7762 31.8976 21.8504 32.07C21.9623 32.4353 22.1851 32.7568 22.4879 32.9897C22.7908 33.2227 23.1586 33.3556 23.5404 33.37C23.953 33.3559 24.3571 33.2487 24.7225 33.0565C25.0879 32.8643 25.4051 32.592 25.6504 32.26L25.8404 32.02L26.0304 32.26C26.3662 32.6877 26.8172 33.0103 27.3304 33.19C27.869 33.3254 28.4385 33.2578 28.9304 33C29.4158 32.744 29.8404 32.3863 30.1751 31.9515C30.5099 31.5166 30.7471 31.0147 30.8704 30.48L31.0304 29.89L31.4404 30.37C31.8603 30.8453 32.4001 31.1991 33.0035 31.3943C33.6069 31.5896 34.2517 31.6192 34.8704 31.48C35.4588 31.3481 36.003 31.0659 36.4499 30.6611C36.8968 30.2562 37.2312 29.7425 37.4204 29.17L37.8904 27.61L38.6204 29.13C38.8388 29.5613 39.1891 29.9117 39.6204 30.13C40.0101 30.3468 40.4676 30.4075 40.9004 30.3C41.3589 30.0784 41.7594 29.7532 42.0704 29.35C42.4699 28.9278 42.8376 28.4765 43.1704 28C43.2404 27.92 43.2904 27.75 43.2604 27.87C43.245 27.9533 43.2468 28.0388 43.2657 28.1214C43.2846 28.2039 43.3203 28.2817 43.3704 28.35C43.4677 28.4865 43.6089 28.5853 43.7704 28.63C43.8426 28.6482 43.9182 28.6482 43.9904 28.63C44.1404 28.63 44.0704 28.63 43.9904 28.63C43.7704 28.74 43.4404 28.93 43.1004 29.07C42.7082 29.2559 42.2795 29.3524 41.8454 29.3524C41.4113 29.3524 40.9827 29.2559 40.5904 29.07C39.9364 28.6981 39.3888 28.1644 39.0004 27.52C38.6244 26.9157 38.3412 26.2584 38.1604 25.57C37.8204 24.24 37.7204 23.03 37.3904 21.87C37.1085 20.6817 36.6501 19.5424 36.0304 18.49C35.348 17.4628 34.3603 16.6757 33.2067 16.2397C32.053 15.8038 30.7917 15.7409 29.6004 16.06ZM29.6004 15.91C30.8476 15.545 32.1732 15.545 33.4204 15.91C34.7051 16.2407 35.8507 16.9729 36.6904 18C37.515 19.0371 38.1636 20.2026 38.6104 21.45C39.1104 22.69 39.3104 24.02 39.6104 25.13C39.7656 25.6691 40.0016 26.1816 40.3104 26.65C40.5678 27.0515 40.9089 27.3926 41.3104 27.65C41.4957 27.7284 41.6964 27.7637 41.8973 27.7533C42.0982 27.7429 42.2942 27.6871 42.4704 27.59C42.7204 27.49 42.9404 27.36 43.2904 27.19C43.443 27.1101 43.6092 27.0592 43.7804 27.04C43.8929 27.0206 44.0079 27.0206 44.1204 27.04C44.3399 27.1054 44.5271 27.2502 44.6454 27.4462C44.7638 27.6422 44.8048 27.8754 44.7604 28.1C44.6952 28.3569 44.5797 28.5982 44.4204 28.81C44.0189 29.3583 43.5777 29.8763 43.1004 30.36C42.6066 30.9417 41.9736 31.3889 41.2604 31.66C40.4689 31.8403 39.639 31.728 38.9239 31.3438C38.2088 30.9596 37.657 30.3295 37.3704 29.57H38.5704C38.2957 30.3164 37.8259 30.9754 37.21 31.4786C36.5941 31.9819 35.8546 32.3108 35.0685 32.4313C34.2823 32.5518 33.4783 32.4594 32.74 32.1637C32.0017 31.868 31.3561 31.3798 30.8704 30.75L31.4404 30.64C31.2491 31.2347 30.9409 31.7852 30.5339 32.2592C30.1269 32.7331 29.6294 33.121 29.0704 33.4C28.4844 33.6801 27.8172 33.7405 27.1904 33.57C26.5856 33.3779 26.0502 33.0128 25.6504 32.52H26.0304C25.7522 32.9215 25.3933 33.2605 24.9766 33.5154C24.5599 33.7702 24.0946 33.9353 23.6104 34C23.0743 34.0448 22.5388 33.9074 22.0904 33.61C21.6597 33.3108 21.3149 32.904 21.0904 32.43C20.9706 32.1977 20.8767 31.9529 20.8104 31.7C20.775 31.5589 20.7516 31.4151 20.7404 31.27C20.7232 31.164 20.7232 31.056 20.7404 30.95C20.7703 30.8107 20.8473 30.6859 20.9584 30.5966C21.0695 30.5074 21.2079 30.4591 21.3504 30.46C21.5042 30.4643 21.6535 30.5129 21.7804 30.6L21.9404 30.71L22.2004 30.86C22.3495 30.9459 22.5116 31.0067 22.6804 31.04C22.8495 31.0652 23.0214 31.0652 23.1904 31.04C23.3105 31.0368 23.4277 31.0024 23.5304 30.94C23.6201 30.8703 23.6895 30.778 23.7317 30.6725C23.7739 30.5671 23.7872 30.4523 23.7704 30.34V30.51C23.3501 29.1169 23.161 27.6643 23.2104 26.21C23.2818 24.7686 23.5928 23.3492 24.1304 22.01C24.5889 20.6658 25.2645 19.4057 26.1304 18.28C27.0002 17.1533 28.1989 16.325 29.5604 15.91H29.6004Z" fill="#231F20"/>
<path d="M8.86001 10.79C5.24001 11.87 4.06001 16.19 3.62001 17.79C2.97726 20.2162 3.01185 22.7721 3.72001 25.18C3.72994 25.3648 3.70029 25.5497 3.63303 25.7221C3.56577 25.8946 3.46246 26.0507 3.33001 26.18C3.16314 26.313 2.96964 26.4086 2.76261 26.4604C2.55558 26.5122 2.33984 26.5188 2.13001 26.48C1.13001 26.38 0.740006 25.69 0.570006 25.81C0.400006 25.93 0.710006 27.81 2.01001 28.34C2.59071 28.5164 3.21284 28.5007 3.78394 28.2954C4.35504 28.09 4.84464 27.7058 5.18001 27.2C5.61317 27.7613 6.24127 28.1396 6.94001 28.26C8.32001 28.43 9.87001 27.26 10.47 25.38C10.9197 25.9224 11.5047 26.3365 12.1659 26.5802C12.827 26.8239 13.5408 26.8886 14.235 26.7679C14.9292 26.6471 15.5791 26.3451 16.1191 25.8924C16.6591 25.4397 17.0699 24.8524 17.31 24.19C17.5039 24.7012 17.8428 25.1448 18.2851 25.4663C18.7274 25.7878 19.2539 25.9733 19.8 26C20.8 26 21.54 25.2 22.5 24.11C22.55 24.05 23.5 22.99 23.3 22.78C23.1 22.57 21.97 23.71 20.72 23.45C20.16 23.288 19.6749 22.934 19.35 22.45C17.83 20.6 18.1 18.7 17.18 16.17C16.6724 14.2775 15.5147 12.6242 13.91 11.5C12.3836 10.6141 10.5715 10.3594 8.86001 10.79Z" fill="url(#paint6_linear)"/>
<path d="M8.88031 10.87C8.22608 11.0947 7.6167 11.4332 7.08031 11.87C6.55874 12.3083 6.10395 12.8203 5.73031 13.39C5.02951 14.5586 4.52927 15.8362 4.25031 17.17C3.92128 18.4771 3.76992 19.8225 3.80031 21.17C3.83391 22.4644 4.02191 23.7502 4.36031 25V25.09V25.17C4.37354 25.5126 4.29529 25.8525 4.13359 26.1548C3.9719 26.4571 3.7326 26.7108 3.44031 26.89C3.1336 27.0558 2.78887 27.1385 2.44031 27.13C2.18236 27.1203 1.92681 27.0766 1.68031 27C1.40715 26.919 1.14761 26.7977 0.910312 26.64C0.800312 26.57 0.700312 26.49 0.610312 26.42L0.490312 26.33C0.490312 26.33 0.410312 26.33 0.610312 26.33C0.693214 26.3278 0.773813 26.3023 0.842815 26.2563C0.911818 26.2102 0.966415 26.1457 1.00031 26.07C0.991227 26.1497 0.991227 26.2303 1.00031 26.31C1.02679 26.4989 1.07719 26.6838 1.15031 26.86C1.26475 27.2238 1.48825 27.5437 1.79055 27.7762C2.09285 28.0087 2.45932 28.1427 2.84031 28.16C3.25893 28.1569 3.67128 28.058 4.04571 27.8708C4.42015 27.6836 4.7467 27.4131 5.00031 27.08L5.19031 26.84L5.38031 27.07C5.71029 27.5036 6.16333 27.8277 6.68031 28C7.1992 28.1376 7.75047 28.0806 8.23031 27.84C8.71682 27.5829 9.14204 27.2237 9.47687 26.7871C9.8117 26.3504 10.0482 25.8465 10.1703 25.31L10.3303 24.73L10.7403 25.2C11.1591 25.6771 11.6985 26.0328 12.3019 26.2298C12.9054 26.4269 13.5507 26.458 14.1703 26.32C14.7562 26.1841 15.297 25.899 15.7403 25.4925C16.1835 25.0861 16.5142 24.5719 16.7003 24L17.1703 22.45L17.9003 24C18.1175 24.4321 18.4682 24.7828 18.9003 25C19.287 25.2252 19.7465 25.2898 20.1803 25.18C20.6367 24.9551 21.0365 24.6304 21.3503 24.23C21.7544 23.7985 22.1255 23.3372 22.4603 22.85C22.5203 22.77 22.5803 22.6 22.5503 22.72C22.5323 22.8032 22.5328 22.8893 22.5518 22.9722C22.5709 23.0552 22.6079 23.133 22.6603 23.2C22.7555 23.3366 22.8981 23.4328 23.0603 23.47C23.1326 23.4878 23.2081 23.4878 23.2803 23.47C23.4303 23.47 23.3603 23.47 23.3303 23.47C23.1103 23.58 22.7803 23.77 22.4403 23.91C22.0481 24.0959 21.6194 24.1924 21.1853 24.1924C20.7512 24.1924 20.3226 24.0959 19.9303 23.91C19.2602 23.5126 18.7052 22.9474 18.3203 22.27C17.9461 21.6683 17.6631 21.0146 17.4803 20.33C17.1403 19 17.0403 17.79 16.7103 16.62C16.4307 15.4341 15.9721 14.2978 15.3503 13.25C14.6607 12.2216 13.6636 11.4376 12.5015 11.0101C11.3394 10.5827 10.0719 10.5336 8.88031 10.87ZM8.88031 10.72C10.1282 10.36 11.4524 10.36 12.7003 10.72C13.9983 11.0509 15.1553 11.7907 16.0003 12.83C16.8355 13.8617 17.4882 15.0284 17.9303 16.28C18.4303 17.52 18.6303 18.84 18.9303 19.96C19.0802 20.4962 19.313 21.0057 19.6203 21.47C19.8751 21.8899 20.2159 22.2512 20.6203 22.53C20.8056 22.6084 21.0063 22.6437 21.2072 22.6333C21.4081 22.6229 21.6041 22.5671 21.7803 22.47C22.0303 22.37 22.2503 22.24 22.6003 22.07C22.7509 21.9853 22.9181 21.9341 23.0903 21.92C23.2023 21.8956 23.3183 21.8956 23.4303 21.92C23.6265 21.9765 23.7987 22.0959 23.9203 22.26C23.9923 22.3637 24.042 22.4813 24.0661 22.6053C24.0902 22.7292 24.0882 22.8568 24.0603 22.98C24.0016 23.2373 23.8892 23.4793 23.7303 23.69C23.3314 24.2372 22.89 24.7521 22.4103 25.23C21.9218 25.8174 21.2872 26.2658 20.5703 26.53C19.78 26.7131 18.9501 26.6032 18.2346 26.2206C17.5192 25.8381 16.9669 25.2089 16.6803 24.45H17.8803C17.6067 25.197 17.1378 25.8571 16.5224 26.3613C15.907 26.8656 15.1677 27.1957 14.3815 27.3172C13.5952 27.4387 12.7908 27.3472 12.0519 27.0522C11.313 26.7573 10.6667 26.2696 10.1803 25.64L10.7503 25.53C10.559 26.1247 10.2508 26.6752 9.84382 27.1492C9.43684 27.6231 8.93926 28.011 8.38031 28.29C7.79288 28.565 7.12755 28.6252 6.50031 28.46C5.90496 28.2554 5.38319 27.8797 5.00031 27.38H5.38031C5.09274 27.7848 4.72344 28.1249 4.29625 28.3781C3.86907 28.6313 3.39351 28.7921 2.90031 28.85C2.36459 28.8902 1.83052 28.7531 1.38031 28.46C0.949569 28.1608 0.604775 27.754 0.380312 27.28C0.254718 27.0468 0.160567 26.7979 0.100312 26.54C0.0547545 26.3998 0.0212987 26.2559 0.000312321 26.11C-0.0170312 26.0074 -0.0170312 25.9026 0.000312322 25.8C0.0298975 25.6597 0.106474 25.5336 0.217386 25.4427C0.328299 25.3518 0.466909 25.3015 0.610312 25.3C0.764422 25.3109 0.91284 25.3627 1.04031 25.45L1.20031 25.56L1.46031 25.71C1.60776 25.7973 1.7708 25.855 1.94031 25.88C2.10971 25.9002 2.28091 25.9002 2.45031 25.88C2.57042 25.8768 2.68762 25.8424 2.79031 25.78C2.87916 25.7096 2.94806 25.6172 2.99016 25.5119C3.03226 25.4067 3.0461 25.2923 3.03031 25.18V25.34C2.61744 23.9489 2.43172 22.5003 2.48031 21.05C2.54968 19.6084 2.86067 18.1886 3.40031 16.85C3.85557 15.5013 4.53141 14.2375 5.40031 13.11C6.27162 11.9761 7.47369 11.141 8.84031 10.72H8.88031Z" fill="#231F20"/>
<path d="M58.8502 78.17C56.8731 78.1041 54.9034 78.4427 53.0618 79.1649C51.2202 79.8871 49.5455 80.9777 48.1402 82.37C46.3998 84.2175 45.2086 86.5133 44.7002 89" stroke="#1E6F5D" stroke-width="1.5" stroke-miterlimit="10"/>
<path d="M43.9608 96.65C47.0867 96.65 49.6208 94.1159 49.6208 90.99C49.6208 87.8641 47.0867 85.33 43.9608 85.33C40.8348 85.33 38.3008 87.8641 38.3008 90.99C38.3008 94.1159 40.8348 96.65 43.9608 96.65Z" fill="url(#paint7_linear)"/>
<path d="M49.7001 91C49.7226 92.5611 49.2306 94.0863 48.3001 95.34C47.7904 95.9973 47.1299 96.5222 46.3745 96.8704C45.6191 97.2185 44.7909 97.3796 43.9601 97.34C42.3474 97.1922 40.8521 96.4338 39.7801 95.22C38.6866 94.0694 38.0166 92.5814 37.8801 91C37.8092 90.1801 37.9125 89.3544 38.183 88.5772C38.4536 87.7999 38.8854 87.0887 39.4501 86.49C40.0242 85.8648 40.7209 85.3645 41.4969 85.0204C42.2728 84.6763 43.1113 84.4958 43.9601 84.49C44.7971 84.4922 45.6228 84.6831 46.376 85.0484C47.1291 85.4137 47.7901 85.944 48.3101 86.6C49.2574 87.8674 49.7474 89.4184 49.7001 91ZM49.5501 91C49.5354 90.2807 49.3523 89.5749 49.0154 88.9393C48.6785 88.3036 48.1971 87.7559 47.6101 87.34C46.5686 86.557 45.3031 86.1293 44.0001 86.12C42.7029 86.1276 41.4538 86.6116 40.4901 87.48C39.4931 88.4014 38.8613 89.6509 38.7101 91C38.6366 91.7046 38.7265 92.4166 38.9727 93.0808C39.219 93.7451 39.615 94.3436 40.1301 94.83C40.6581 95.2837 41.2751 95.6221 41.9416 95.8236C42.608 96.0251 43.3091 96.0851 44.0001 96C45.3282 95.8987 46.6005 95.4237 47.6701 94.63C48.242 94.2108 48.7094 93.665 49.0355 93.0353C49.3616 92.4056 49.5377 91.709 49.5501 91Z" fill="#231F20"/>
<path d="M64.3602 19.92C67.4861 19.92 70.0202 17.3859 70.0202 14.26C70.0202 11.1341 67.4861 8.59999 64.3602 8.59999C61.2343 8.59999 58.7002 11.1341 58.7002 14.26C58.7002 17.3859 61.2343 19.92 64.3602 19.92Z" fill="url(#paint8_linear)"/>
<path d="M70.1005 14.26C70.126 15.8216 69.6337 17.3477 68.7005 18.6C68.1884 19.2514 67.5261 19.769 66.7702 20.1086C66.0144 20.4482 65.1876 20.5996 64.3605 20.55C62.752 20.4053 61.2599 19.6503 60.1905 18.44C59.1052 17.2999 58.4359 15.8273 58.2905 14.26C58.214 13.4412 58.3145 12.6155 58.5854 11.839C58.8564 11.0625 59.2912 10.3535 59.8605 9.75999C60.4304 9.13219 61.1249 8.63008 61.8997 8.28572C62.6745 7.94136 63.5126 7.76231 64.3605 7.75999C65.1993 7.76002 66.0273 7.94985 66.7824 8.31525C67.5374 8.68066 68.2 9.21218 68.7205 9.86999C69.6565 11.1388 70.1422 12.6838 70.1005 14.26ZM69.9505 14.26C69.9332 13.5416 69.7478 12.8372 69.4091 12.2033C69.0705 11.5695 68.5881 11.0238 68.0005 10.61C66.9485 9.82638 65.6723 9.40213 64.3605 9.39999C63.0663 9.40728 61.8201 9.8915 60.8605 10.76C59.8817 11.6831 59.2617 12.9231 59.1105 14.26C59.0377 14.966 59.1279 15.6794 59.3741 16.3451C59.6203 17.0108 60.0159 17.6112 60.5305 18.1C61.0514 18.5537 61.6606 18.8946 62.3198 19.1012C62.979 19.3077 63.6738 19.3754 64.3605 19.3C65.6797 19.2001 66.9428 18.7248 68.0005 17.93C68.6006 17.5202 69.0948 16.9739 69.4425 16.3358C69.7902 15.6978 69.9814 14.9864 70.0005 14.26H69.9505Z" fill="#231F20"/>
<defs>
<linearGradient id="paint0_linear" x1="67.9893" y1="59.2536" x2="90.1503" y2="52.6639" gradientUnits="userSpaceOnUse">
<stop offset="0.58" stop-color="white"/>
<stop offset="0.65" stop-color="#F5F6F6"/>
<stop offset="0.76" stop-color="#DBDCDD"/>
<stop offset="0.89" stop-color="#B1B3B5"/>
<stop offset="1" stop-color="#8D9092"/>
</linearGradient>
<linearGradient id="paint1_linear" x1="1968.57" y1="1481.05" x2="2498.45" y2="1455.23" gradientUnits="userSpaceOnUse">
<stop offset="0.58" stop-color="white"/>
<stop offset="0.65" stop-color="#F5F6F6"/>
<stop offset="0.76" stop-color="#DBDCDD"/>
<stop offset="0.89" stop-color="#B1B3B5"/>
<stop offset="1" stop-color="#8D9092"/>
</linearGradient>
<linearGradient id="paint2_linear" x1="1688.76" y1="1872.27" x2="2218.57" y2="1846.45" gradientUnits="userSpaceOnUse">
<stop offset="0.58" stop-color="white"/>
<stop offset="0.65" stop-color="#F5F6F6"/>
<stop offset="0.76" stop-color="#DBDCDD"/>
<stop offset="0.89" stop-color="#B1B3B5"/>
<stop offset="1" stop-color="#8D9092"/>
</linearGradient>
<linearGradient id="paint3_linear" x1="6684.1" y1="7400.85" x2="7211.22" y2="7400.85" gradientUnits="userSpaceOnUse">
<stop offset="0.58" stop-color="white"/>
<stop offset="0.65" stop-color="#F5F6F6"/>
<stop offset="0.76" stop-color="#DBDCDD"/>
<stop offset="0.89" stop-color="#B1B3B5"/>
<stop offset="1" stop-color="#8D9092"/>
</linearGradient>
<linearGradient id="paint4_linear" x1="6891.13" y1="6471.27" x2="7418.24" y2="6471.27" gradientUnits="userSpaceOnUse">
<stop offset="0.58" stop-color="white"/>
<stop offset="0.65" stop-color="#F5F6F6"/>
<stop offset="0.76" stop-color="#DBDCDD"/>
<stop offset="0.89" stop-color="#B1B3B5"/>
<stop offset="1" stop-color="#8D9092"/>
</linearGradient>
<linearGradient id="paint5_linear" x1="5916.7" y1="6205.85" x2="6442.92" y2="6205.85" gradientUnits="userSpaceOnUse">
<stop offset="0.58" stop-color="white"/>
<stop offset="0.65" stop-color="#F5F6F6"/>
<stop offset="0.76" stop-color="#DBDCDD"/>
<stop offset="0.89" stop-color="#B1B3B5"/>
<stop offset="1" stop-color="#8D9092"/>
</linearGradient>
<linearGradient id="paint6_linear" x1="5484.45" y1="5998.46" x2="6011.59" y2="5998.46" gradientUnits="userSpaceOnUse">
<stop offset="0.58" stop-color="white"/>
<stop offset="0.65" stop-color="#F5F6F6"/>
<stop offset="0.76" stop-color="#DBDCDD"/>
<stop offset="0.89" stop-color="#B1B3B5"/>
<stop offset="1" stop-color="#8D9092"/>
</linearGradient>
<linearGradient id="paint7_linear" x1="474.46" y1="1133.56" x2="598.641" y2="1096.66" gradientUnits="userSpaceOnUse">
<stop offset="0.58" stop-color="white"/>
<stop offset="0.65" stop-color="#F5F6F6"/>
<stop offset="0.76" stop-color="#DBDCDD"/>
<stop offset="0.89" stop-color="#B1B3B5"/>
<stop offset="1" stop-color="#8D9092"/>
</linearGradient>
<linearGradient id="paint8_linear" x1="725.788" y1="188.362" x2="850.081" y2="151.345" gradientUnits="userSpaceOnUse">
<stop offset="0.58" stop-color="white"/>
<stop offset="0.65" stop-color="#F5F6F6"/>
<stop offset="0.76" stop-color="#DBDCDD"/>
<stop offset="0.89" stop-color="#B1B3B5"/>
<stop offset="1" stop-color="#8D9092"/>
</linearGradient>
</defs>
</svg>
