<svg width="46" height="151" viewBox="0 0 46 151" fill="none" xmlns="http://www.w3.org/2000/svg">
<path d="M24.3401 150.87C22.8111 138.636 21.9565 126.328 21.7801 114C21.5701 101.67 22.1901 89.34 23.1801 77.06C24.1701 64.78 25.6601 52.53 27.6901 40.38C29.7382 28.2401 32.4523 16.2219 35.8201 4.38L36.0201 4.44C32.9113 16.3325 30.4609 28.3875 28.6801 40.55C26.8401 52.6967 25.5401 64.9067 24.7801 77.18C24.0001 89.44 23.7801 101.72 23.7801 113.99C23.7801 126.26 24.0701 138.55 24.5401 150.85L24.3401 150.87Z" fill="#1E6F5D"/>
<path d="M26.8105 106.84C27.4105 104.72 31.1005 91.97 38.4305 81.49C40.3705 78.72 43.6005 74.64 43.9305 75.49C44.3505 76.49 39.6305 84.22 34.9305 95.3C26.6105 114.58 24.2605 130.14 23.2905 130C22.3205 129.86 23.6005 118.23 26.8105 106.84Z" fill="#1E6F5D"/>
<path d="M26.7608 106.83C27.4108 104.44 28.2008 102.1 29.0108 99.76C29.8208 97.42 30.7008 95.11 31.6808 92.83C33.6116 88.247 36.086 83.9127 39.0508 79.92C39.8008 78.92 40.5908 77.92 41.4108 77.03C41.825 76.5523 42.2657 76.0983 42.7308 75.67C42.9854 75.4139 43.2924 75.2161 43.6308 75.09C43.7231 75.0655 43.8206 75.0686 43.9112 75.0988C44.0018 75.129 44.0816 75.185 44.1408 75.26C44.1871 75.3256 44.2178 75.4008 44.2308 75.48C44.2353 75.5399 44.2353 75.6001 44.2308 75.66C44.2216 75.8371 44.188 76.0121 44.1308 76.18C43.6962 77.3538 43.1748 78.4937 42.5708 79.59L40.9008 82.9C38.6408 87.29 36.5708 91.77 34.7308 96.35C32.8908 100.93 31.2608 105.58 29.7308 110.27C28.2008 114.96 26.9208 119.72 25.6308 124.48C25.3108 125.67 25.0008 126.87 24.6308 128.06C24.4621 128.685 24.2482 129.296 23.9908 129.89C23.9503 129.985 23.9 130.075 23.8408 130.16C23.7939 130.225 23.7403 130.286 23.6808 130.34C23.6184 130.399 23.5442 130.443 23.4631 130.471C23.3821 130.499 23.296 130.508 23.2108 130.5C23.0333 130.473 22.8725 130.38 22.7608 130.24C22.715 130.166 22.6749 130.09 22.6408 130.01C22.6093 129.909 22.5859 129.805 22.5708 129.7C22.5221 129.369 22.502 129.034 22.5108 128.7C22.6027 126.206 22.8835 123.722 23.3508 121.27C23.7841 118.83 24.3008 116.407 24.9008 114C25.4708 111.6 26.0708 109.2 26.7608 106.83ZM26.8608 106.83C25.5485 111.599 24.5926 116.459 24.0008 121.37C23.6782 123.794 23.4979 126.235 23.4608 128.68C23.4617 128.961 23.4851 129.242 23.5308 129.52C23.5255 129.567 23.5255 129.613 23.5308 129.66C23.5308 129.66 23.5308 129.66 23.4508 129.59C23.3952 129.551 23.3288 129.53 23.2608 129.53C22.9108 129.53 22.9908 129.66 22.9908 129.6C23.0226 129.562 23.0464 129.518 23.0608 129.47C23.2884 128.927 23.4788 128.369 23.6308 127.8C23.9608 126.63 24.2708 125.43 24.6308 124.24C27.0262 114.629 30.2241 105.236 34.1908 96.16C36.1908 91.63 38.3908 87.16 40.5608 82.76C41.7081 80.5956 42.7103 78.3573 43.5608 76.06C43.6014 75.9375 43.6217 75.8091 43.6208 75.68C43.6208 75.62 43.6208 75.59 43.6208 75.68C43.6208 75.77 43.7608 75.68 43.7208 75.74C43.4916 75.8557 43.285 76.0115 43.1108 76.2C42.681 76.6285 42.2737 77.0791 41.8908 77.55C41.1208 78.55 40.3908 79.49 39.6708 80.48C36.8292 84.4894 34.3303 88.7311 32.2008 93.16C30.0273 97.5599 28.2406 102.141 26.8608 106.85V106.83Z" fill="#231F20"/>
<path d="M22.5703 99.66C20.6703 98.51 21.8103 91.19 25.4103 86.24C28.5303 81.95 33.9303 78.86 35.5003 80.24C37.0703 81.62 34.2603 87.67 33.8203 88.58C30.7803 94.89 24.6703 100.93 22.5703 99.66Z" fill="#BF90C1" stroke="#231F20" stroke-miterlimit="10"/>
<path d="M19.0004 70.4C18.4104 68.29 14.7204 55.53 7.38043 45.06C5.44043 42.28 2.21043 38.2 1.88043 39.06C1.47043 40.12 6.18043 47.8 10.9304 58.87C19.2004 78.16 21.5504 93.72 22.5304 93.59C23.5104 93.46 22.2104 81.79 19.0004 70.4Z" fill="#1E6F5D"/>
<path d="M18.9404 70.42C17.5517 65.6838 15.7481 61.0793 13.5504 56.66C11.4198 52.238 8.92103 48.003 6.08038 44C5.36038 43 4.64038 42 3.86038 41.07C3.48109 40.5926 3.07721 40.1354 2.65038 39.7C2.46187 39.5077 2.24208 39.3488 2.00038 39.23C1.95038 39.23 2.07038 39.23 2.10038 39.17C2.13038 39.11 2.10038 39.17 2.10038 39.17C2.10305 39.2988 2.12324 39.4266 2.16038 39.55C3.02112 41.8464 4.02303 44.0873 5.16038 46.26C7.34038 50.69 9.54038 55.12 11.5304 59.65C15.4962 68.7274 18.6973 78.12 21.1004 87.73C21.4104 88.92 21.7204 90.12 22.1004 91.29C22.2513 91.8723 22.4417 92.4436 22.6704 93C22.6973 93.0413 22.7207 93.0848 22.7404 93.13C22.7404 93.19 22.8304 93.08 22.4704 93.05C22.4064 93.0549 22.3445 93.0755 22.2904 93.11C22.2304 93.16 22.2004 93.2 22.2104 93.18C22.213 93.1334 22.213 93.0866 22.2104 93.04C22.2606 92.7629 22.284 92.4816 22.2804 92.2C22.2536 89.7511 22.0733 87.3063 21.7404 84.88C21.1697 79.9968 20.2338 75.1632 18.9404 70.42ZM19.0404 70.42C19.7404 72.79 20.3304 75.19 20.9004 77.6C21.4704 80.01 22.0004 82.4 22.4104 84.84C22.8816 87.2882 23.1657 89.7687 23.2604 92.26C23.2683 92.5944 23.2482 92.9289 23.2004 93.26C23.1795 93.3647 23.1528 93.4682 23.1204 93.57C23.0879 93.6472 23.0477 93.7209 23.0004 93.79C22.9518 93.8639 22.8875 93.9261 22.812 93.9722C22.7366 94.0183 22.6519 94.0472 22.5639 94.0567C22.476 94.0663 22.3871 94.0563 22.3035 94.0275C22.2199 93.9986 22.1437 93.9517 22.0804 93.89C22.0241 93.8392 21.9738 93.7822 21.9304 93.72C21.8725 93.6328 21.8191 93.5426 21.7704 93.45C21.5191 92.855 21.3086 92.2436 21.1404 91.62C20.7904 90.42 20.4704 89.23 20.1404 88.03C18.8504 83.27 17.5504 78.52 16.0404 73.82C14.5304 69.12 12.8904 64.48 11.0404 59.9C9.19038 55.32 7.17038 50.85 4.90038 46.46L3.22038 43.16C2.62045 42.0616 2.09914 40.9221 1.66038 39.75C1.60769 39.5779 1.57744 39.3998 1.57038 39.22C1.55597 39.1609 1.55597 39.0991 1.57038 39.04C1.57857 38.9595 1.60982 38.8831 1.66038 38.82C1.71872 38.744 1.79846 38.6872 1.88935 38.6569C1.98024 38.6266 2.07811 38.6242 2.17038 38.65C2.50825 38.7817 2.81481 38.9827 3.07038 39.24C3.52971 39.6674 3.96694 40.118 4.38038 40.59C5.21038 41.53 5.99038 42.49 6.74038 43.48C9.70682 47.4716 12.1813 51.8062 14.1104 56.39C15.0904 58.67 15.9837 60.98 16.7904 63.32C17.6104 65.66 18.3904 68 19.0004 70.39L19.0404 70.42Z" fill="#231F20"/>
<path d="M22.8203 99.66C24.7303 98.51 23.5803 91.19 19.9803 86.24C16.8603 81.95 11.4603 78.86 9.89031 80.24C8.32031 81.62 11.1303 87.67 11.5703 88.58C14.6103 94.89 20.7203 100.93 22.8203 99.66Z" fill="#BF90C1" stroke="#231F20" stroke-miterlimit="10"/>
<path d="M22.77 101.48C21.95 99.41 27.3 94.27 33.15 92.48C38.24 90.95 44.41 91.76 44.85 93.77C45.29 95.78 39.37 99 38.47 99.43C32.19 102.66 23.68 103.76 22.77 101.48Z" fill="#BF90C1" stroke="#231F20" stroke-miterlimit="10"/>
<path d="M22.6103 101.81C23.4303 99.74 18.0803 94.61 12.2303 92.81C7.14035 91.32 1.00035 92.14 0.530346 94.14C0.0603459 96.14 6.00035 99.3 6.91035 99.77C13.1803 103 21.7003 104.1 22.6103 101.81Z" fill="#BF90C1" stroke="#231F20" stroke-miterlimit="10"/>
<path d="M24.5099 71.92C23.0899 71.06 23.9499 65.6 26.6299 61.92C28.9999 58.71 32.9999 56.41 34.1499 57.4C35.2999 58.39 33.2299 62.94 32.8999 63.62C30.6399 68.37 26.0799 72.87 24.5099 71.92Z" fill="#BF90C1" stroke="#231F20" stroke-miterlimit="10"/>
<path d="M24.7005 71.92C26.1205 71.06 25.2605 65.6 22.5905 61.92C20.2505 58.71 16.2305 56.41 15.0605 57.4C13.8905 58.39 15.9805 62.94 16.3105 63.62C18.5805 68.37 23.1305 72.87 24.7005 71.92Z" fill="#BF90C1" stroke="#231F20" stroke-miterlimit="10"/>
<path d="M24.6606 73.28C24.0506 71.73 28.0406 67.9 32.4006 66.59C36.2006 65.45 40.7906 66.06 41.1206 67.59C41.4506 69.12 37.0006 71.4 36.3606 71.75C31.6906 74.15 25.3406 75 24.6606 73.28Z" fill="#BF90C1" stroke="#231F20" stroke-miterlimit="10"/>
<path d="M24.5401 73.52C25.1501 71.98 21.1601 68.15 16.8001 66.84C13.0101 65.7 8.41007 66.31 8.08007 67.84C7.75007 69.37 12.1701 71.69 12.8401 72.04C17.5101 74.4 23.8701 75.23 24.5401 73.52Z" fill="#BF90C1" stroke="#231F20" stroke-miterlimit="10"/>
<path d="M26.4203 55.35C25.2603 54.51 26.3603 49.89 28.9103 46.92C31.1203 44.33 34.7303 42.63 35.6603 43.55C36.5903 44.47 34.5003 48.24 34.1703 48.8C31.9103 52.71 27.7003 56.27 26.4203 55.35Z" fill="#BF90C1" stroke="#231F20" stroke-miterlimit="10"/>
<path d="M26.5805 55.36C27.8505 54.72 27.4905 49.98 25.4405 46.64C23.6605 43.74 20.3705 41.5 19.3005 42.26C18.2305 43.02 19.7205 47.07 19.9505 47.68C21.5705 51.9 25.1705 56.07 26.5805 55.36Z" fill="#BF90C1" stroke="#231F20" stroke-miterlimit="10"/>
<path d="M28.2908 39.26C27.2308 38.5 28.2308 34.26 30.5508 31.57C32.5508 29.21 35.8408 27.67 36.6908 28.51C37.5408 29.35 35.6308 32.78 35.3308 33.29C33.2808 36.86 29.4508 40.09 28.2908 39.26Z" fill="#BF90C1" stroke="#231F20" stroke-miterlimit="10"/>
<path d="M28.4301 39.27C29.5901 38.68 29.2601 34.37 27.4301 31.27C25.8101 28.63 22.8101 26.58 21.8401 27.27C20.8701 27.96 22.2201 31.66 22.4301 32.21C23.8801 36.11 27.1501 39.91 28.4301 39.27Z" fill="#BF90C1" stroke="#231F20" stroke-miterlimit="10"/>
<path d="M30.8102 25.54C30.1702 24.95 31.1902 22.2 32.9702 20.54C34.5202 19.12 36.8602 18.36 37.3502 19C37.8402 19.64 36.2802 21.82 36.0002 22.13C34.3602 24.35 31.5202 26.2 30.8102 25.54Z" fill="#BF90C1" stroke="#231F20" stroke-miterlimit="10"/>
<path d="M30.9102 25.5599C31.7302 25.2699 31.9102 22.3499 30.9102 20.1499C30.0502 18.2299 28.2102 16.6099 27.5002 16.9999C26.7902 17.3899 27.3802 19.9999 27.5002 20.3599C28.1202 23.0599 30.0002 25.8899 30.9102 25.5599Z" fill="#BF90C1" stroke="#231F20" stroke-miterlimit="10"/>
<path d="M32.5202 15.5C31.8702 14.91 32.9002 12.17 34.6802 10.5C36.2302 9.12995 38.5602 8.35995 39.0602 8.99995C39.5602 9.63995 38.0002 11.78 37.7502 12.1C36.0702 14.31 33.2302 16.16 32.5202 15.5Z" fill="#BF90C1" stroke="#231F20" stroke-miterlimit="10"/>
<path d="M33.1404 15.61C33.9704 15.32 34.1404 12.4 33.1404 10.2C32.2704 8.28997 30.4304 6.65997 29.7204 7.04997C29.0104 7.43997 29.6104 10.05 29.7204 10.41C30.3504 13.12 32.2304 15.94 33.1404 15.61Z" fill="#BF90C1" stroke="#231F20" stroke-miterlimit="10"/>
<path d="M34.16 6.54996C33.7 6.12996 34.43 4.17996 35.69 3.01996C36.8 2.01996 38.45 1.46996 38.81 1.92996C39.17 2.38996 38.05 3.92996 37.88 4.12996C36.68 5.70996 34.66 6.99996 34.16 6.54996Z" fill="#BF90C1" stroke="#231F20" stroke-miterlimit="10"/>
<path d="M34.6008 6.62998C35.1908 6.41998 35.2908 4.33998 34.6008 2.77998C34.0008 1.41998 32.6608 0.269978 32.1508 0.539978C31.6408 0.809978 32.0708 2.65998 32.1508 2.92998C32.6208 4.84998 34.0008 6.85998 34.6008 6.62998Z" fill="#BF90C1" stroke="#231F20" stroke-miterlimit="10"/>
</svg>
