<svg width="31" height="115" viewBox="0 0 31 115" fill="none" xmlns="http://www.w3.org/2000/svg">
<path d="M19.4265 57.1931C20.4132 43.9433 22.7519 30.8336 26.4049 18.0753C27.7133 14.051 29.7599 8.32149 30.2967 9.89029C30.8335 11.4591 27.6462 23.2251 24.8616 40.5842C20.1311 70.4597 19.6278 96.379 18.8227 95.7651C18.0175 95.1513 17.9168 75.5753 19.4265 57.1931Z" fill="#1F705E"/>
<path d="M21.6059 35.4004C20.5658 42.6305 19.9619 49.9288 19.3245 57.1931C18.7206 64.4573 18.0831 71.6192 18.1838 79.1222C17.8818 82.7714 17.8818 86.4546 17.8818 90.1038V92.8663C17.8955 93.8496 17.9853 94.8302 18.1502 95.7992V96.0721V96.2767C18.2209 96.4238 18.3243 96.5523 18.4522 96.6518C18.5863 96.7497 18.7403 96.8158 18.9029 96.8453C19.0654 96.8748 19.2324 96.8669 19.3916 96.8224C19.5986 96.7624 19.7847 96.6442 19.9284 96.4813L20.1297 96.1403C20.1198 96.0382 20.1198 95.9354 20.1297 95.8333C20.1297 95.4923 19.9284 95.5605 20.1297 95.083C20.331 94.6056 20.331 94.1281 20.331 93.6848L20.5658 90.9223C21.1362 83.624 21.5723 76.3938 22.2098 69.1296C22.8472 61.8654 23.6524 54.6011 24.3905 47.371C25.1286 40.1409 26.2693 32.9449 27.7455 25.817C28.4836 22.2361 29.3223 18.5528 30.1275 15.1424C30.2953 14.2215 30.4966 13.3348 30.6643 12.414L30.8656 11.0157C30.8831 10.7546 30.8831 10.4925 30.8656 10.2313V9.71977V9.34462C30.7929 9.22167 30.6956 9.11562 30.58 9.03337C30.4644 8.95111 30.3331 8.89448 30.1946 8.86716C30.0389 8.89181 29.8903 8.94994 29.7585 9.03768C29.6933 9.01427 29.6223 9.01427 29.5572 9.03768C29.4563 9.08896 29.3654 9.15828 29.2888 9.24231L29.0204 9.58335L28.6513 10.2313L27.9468 11.5273C27.5442 12.3913 27.1751 13.2439 26.8396 14.0851C24.2501 20.9478 22.4926 28.1056 21.6059 35.4004Z" fill="#010101"/>
<path d="M17.2456 9.99259C16.7759 9.78796 14.7629 33.2518 15.199 60.0919C15.199 70.1527 15.7358 74.5181 15.7023 86.898C15.7023 105.451 14.6287 113.534 15.0984 114.352C16.0042 115.955 21.1038 91.7749 20.1309 67.3903C19.8625 59.2734 19.1915 58.8983 18.2856 45.2565C17.0107 23.8731 17.6482 10.2313 17.2456 9.99259Z" fill="#3E9582"/>
<path d="M17.2123 10.2313V10.436V10.8111V11.6296V13.2325C17.2123 14.3239 17.011 15.4152 16.944 16.643C16.944 18.8256 16.6756 21.0083 16.6085 23.191C16.4743 27.5564 16.4072 31.9217 16.4072 36.2871V62.4792V75.5753C16.4072 79.9748 16.4072 84.3402 16.2394 88.7055C16.0717 93.0709 16.2394 97.4362 16.0046 101.802V108.384V111.794V113.397C16.0046 113.636 16.0046 113.943 16.0046 114.147C16.0046 114.147 16.0046 114.147 15.7697 114.147H15.0652C15.2828 113.717 15.4409 113.258 15.5349 112.783C15.5349 112.272 15.8033 111.76 15.9375 111.214C16.0717 110.669 16.3736 109.1 16.5749 108.043C16.9439 105.928 17.2459 103.78 17.5478 101.597C18.1517 97.2998 18.5543 92.9686 18.8898 88.6373C19.2253 84.3061 19.4266 79.9407 19.4266 75.6094C19.4266 71.2782 19.4266 66.9128 19.0576 62.6157C18.6885 58.3185 18.1182 53.9191 17.8833 49.5537C17.6485 45.1883 17.4472 40.823 17.3801 36.4235C17.313 32.024 17.3801 27.6928 17.3801 23.2933V10.2313C17.3801 10.2313 17.1452 10.2313 17.2123 10.2313ZM17.2123 10.0267C17.3287 10.1702 17.3885 10.3525 17.3801 10.5383V13.403V16.8135C17.3801 18.9962 17.3801 21.1788 17.5814 23.3615C17.5814 27.7269 18.0175 32.0922 18.353 36.4576C18.6885 40.823 19.0911 45.1542 19.4602 49.4855C19.6615 51.6341 19.8628 53.8167 20.0976 55.9653C20.3325 58.1139 20.6344 60.2966 20.8357 62.5134C21.4794 71.2234 21.4121 79.9727 20.6344 88.6714C20.2318 93.0368 19.695 97.4021 18.9905 101.733C18.6214 103.882 18.2188 106.065 17.7491 108.213C17.5143 109.27 17.2459 110.362 16.9775 111.419C16.7091 112.476 16.6756 112.476 16.5078 113.022C16.3411 113.606 16.1045 114.167 15.8033 114.693C15.7155 114.841 15.5873 114.959 15.4342 115.034C15.3368 115.071 15.2297 115.071 15.1323 115.034C15.0224 115.065 14.9066 115.065 14.7968 115.034V114.693V114.42C14.7968 114.113 14.7968 113.84 14.7968 113.568C14.7968 113.295 14.7968 112.442 14.7968 111.897L14.9981 108.486C14.9981 106.303 15.2665 104.121 15.3336 101.938C15.3336 97.5727 15.6355 93.2073 15.602 88.8419C15.602 80.1112 15.0316 71.4146 14.6626 62.6498C14.2935 53.8849 14.4613 45.1201 14.9981 36.3894C15.2665 32.024 15.5684 27.6587 15.9375 23.2933L16.5078 16.7794L16.8433 13.3689L16.7762 11.5614V10.7429V10.3336V10.129L17.2123 10.0267Z" fill="#010101"/>
<path d="M14.9962 110.771C14.251 95.7292 12.1054 80.7929 8.58816 66.1625C7.68231 62.7521 6.47452 59.3417 4.99833 51.7705C2.2808 37.9241 1.744 26.6014 1.30786 27.0448C0.871708 27.4882 0.267812 51.1566 2.85115 71.6192C6.10547 97.5386 12.547 107.565 14.9962 110.771Z" fill="#3E9582"/>
<path d="M14.9632 110.703C14.9632 109.748 14.6948 108.861 14.5606 108.009C14.4264 107.156 14.3258 106.406 14.2251 105.485L13.4199 100.165C12.9838 96.7542 12.4805 93.105 11.9773 89.5922C10.9708 82.5326 9.79654 75.5412 8.2197 68.6522C7.44805 65.2417 6.44156 61.8313 5.70346 58.2503C4.96537 54.6694 4.49567 51.1566 3.89178 47.7462C3.28788 44.3357 2.78463 40.6183 2.31494 37.0715L1.61039 31.7853L1.24134 29.1252L1.04004 27.8292C1.04004 27.6587 1.04004 27.3517 1.04004 27.3517C1.04004 27.3517 1.04004 27.3517 1.37554 27.5223C1.71104 27.6928 1.77814 27.3517 1.74459 27.5223V27.2835C1.72554 27.3734 1.72554 27.4665 1.74459 27.5564C1.47619 30.9668 1.74459 34.616 1.74459 38.1628C1.74459 41.7097 1.97944 45.2906 2.14719 48.8375C2.50505 55.9312 3.08658 63.0136 3.89178 70.0845C4.63554 77.1347 5.82341 84.1291 7.44805 91.0246C8.28026 94.4932 9.31087 97.9094 10.5346 101.256C11.1721 102.927 11.8095 104.666 12.5812 106.133C12.9838 106.917 13.3864 107.702 13.8225 108.452C14.2587 109.202 14.6277 109.953 14.9632 110.703ZM14.9632 110.703L14.4264 110.191L14.0909 109.816C13.8225 109.441 13.4199 109.134 13.4199 108.725C13.4199 108.316 12.447 107.258 11.9773 106.474C11.0728 104.936 10.266 103.342 9.56169 101.699C8.10062 98.3834 6.87843 94.9639 5.90476 91.468C4.93182 88.0575 4.12662 84.6471 3.38853 80.9979C2.65043 77.3488 2.08009 74.0406 1.64394 70.4597C0.771645 63.366 0.335498 56.2041 0 49.0421C0 45.4725 0 41.8916 0 38.2992C0 36.4917 0 34.6842 0 32.9108C0 31.1373 0.335498 29.3298 0.603896 27.4882C0.603896 27.4882 0.603896 27.2494 0.603896 27.113C0.592882 27.0338 0.592882 26.9535 0.603896 26.8743C0.603896 26.8743 0.838745 26.6356 1.04004 26.6697C1.20611 26.6774 1.36262 26.7509 1.47619 26.8743C1.5874 27.1339 1.65542 27.4105 1.67749 27.6928C1.67749 28.1702 1.67749 28.6136 1.84524 29.057L2.11364 31.7171C2.11364 33.5246 2.41558 35.2981 2.65043 37.0715C3.05303 40.4819 3.52273 44.1311 4.19372 47.6439C4.86472 51.1566 5.63636 54.4647 6.57576 58.0457C7.51515 61.6267 9.05844 64.7984 10.0649 68.2088C11.8091 75.1543 13.0426 82.222 13.7554 89.3535C14.158 92.9345 14.4264 96.5154 14.6613 100.062C14.6613 101.836 14.8626 103.643 14.9632 105.417C14.9632 106.303 14.9632 107.258 14.9632 108.213C14.9632 109.168 14.9968 110.021 15.0303 110.873L14.9632 110.703Z" fill="#010101"/>
<path d="M12.2789 1.60293C12.9835 2.1486 10.8363 23.1569 13.2519 46.5525C14.5822 55.1512 15.2998 63.8363 15.399 72.5401C15.399 79.3609 14.5603 88.5009 13.5874 88.8079C11.9099 89.3535 9.22588 63.1614 9.49428 37.3784C9.72912 17.7002 11.6415 1.12547 12.2789 1.60293Z" fill="#1F705E" stroke="#010101" stroke-width="0.75" stroke-miterlimit="10"/>
<path d="M14.7959 108.009C16.0356 89.8233 15.6763 71.5619 13.7223 53.4416C12.2461 41.6414 10.0654 32.8766 10.3674 19.1326C10.4783 12.7994 11.2088 6.49309 12.5481 0.306931C10.5182 10.7095 9.16209 21.2363 8.48857 31.8194C7.3354 57.3863 9.45561 82.9972 14.7959 108.009Z" fill="#3E9582"/>
<path d="M14.7953 107.906C14.7953 106.713 14.7953 105.553 14.7953 104.496V94.4692C14.7953 89.9674 14.7953 85.4656 14.7953 80.8274C14.5605 71.8238 14.0572 62.8544 13.1178 53.919C12.6481 49.4514 12.0107 44.9837 11.4403 40.516C10.87 36.0483 10.4674 31.5125 10.2661 26.8743C10.2661 24.6234 10.2661 22.3384 10.2661 20.0534C10.2661 17.7684 10.2661 15.5175 10.5345 13.2325C10.8029 10.9475 10.9371 8.69662 11.1719 6.41163C11.1719 5.28619 11.4739 4.16074 11.6416 3.00119L11.9436 1.29597V0.477467V0.0341101V-0.204621C11.1048 -0.204621 13.1178 -0.579769 12.9836 -0.204621C12.8494 0.170528 12.9836 -0.204621 12.9836 -0.204621C12.9999 -0.102977 12.9999 0.000675052 12.9836 0.102319C11.5074 9.03767 10.4003 17.9389 9.62866 26.9084C9.01914 35.8751 8.86237 44.8678 9.15896 53.8508C9.46091 62.8203 10.0313 71.8238 11.0377 80.7592C11.5074 85.2269 12.0442 89.6945 12.6817 94.1622L13.6546 100.983L14.225 104.394L14.4934 106.065C14.6947 106.781 14.6947 107.292 14.7953 107.906ZM14.7953 108.111C14.7953 107.599 14.4263 107.02 14.2921 106.406L13.8895 104.735L13.1514 101.324C12.6481 99.1415 12.1784 96.9247 11.7758 94.7079C10.9706 90.2402 10.1655 85.8066 9.56156 81.3049C8.27391 72.3405 7.45638 63.3128 7.11242 54.2601C6.78398 45.1589 7.03052 36.0457 7.85052 26.9766C8.68232 18.0332 10.0492 9.1496 11.9436 0.375154C11.7758 0.647989 13.7888 0.375154 12.9501 0.375154V0.545676V0.954929V1.77343L12.3797 3.41044C12.1784 4.50178 11.9771 5.59313 11.8094 6.82088C11.4403 9.03767 11.2055 11.2886 11.0042 13.6418C10.6009 18.1772 10.5224 22.7365 10.7693 27.2835C11.2055 36.2871 13.3862 45.0519 14.594 54.0214C15.7294 63.0688 16.2562 72.1845 16.1709 81.3049C16.1709 85.8408 16.0031 90.3766 15.8354 94.9466C15.8354 97.1975 15.6005 99.4825 15.4328 101.768V103.473C15.4328 104.052 15.4328 104.666 15.4328 105.246C15.0302 105.928 14.8624 107.02 14.7953 108.111Z" fill="#010101"/>
</svg>
