<svg width="38" height="87" viewBox="0 0 38 87" fill="none" xmlns="http://www.w3.org/2000/svg">
<path d="M19.2098 56.17C21.436 56.6677 23.7467 56.6479 25.9641 56.1122C28.1815 55.5765 30.2463 54.5391 31.9998 53.08C34.35 50.9758 36.0047 48.2065 36.7441 45.1398C37.4836 42.0731 37.2728 38.8541 36.1398 35.91C31.66 36.4248 27.5093 38.5161 24.4298 41.81C22.6519 43.7385 21.2749 46.001 20.3788 48.4662C19.4827 50.9314 19.0854 53.55 19.2098 56.17Z" fill="#3E9581"/>
<path d="M19.2597 56.12C21.8843 56.3864 24.5354 56.0793 27.0297 55.22C29.4545 54.3095 31.6132 52.8073 33.3097 50.85C35.1035 48.892 36.3035 46.4643 36.7697 43.85C37.1775 41.219 36.7983 38.5261 35.6797 36.11L36.1897 36.42C31.5327 37.1654 27.3026 39.57 24.2797 43.19C22.748 44.9623 21.5457 46.9943 20.7297 49.19C19.8933 51.4128 19.3977 53.7491 19.2597 56.12ZM19.1497 56.21C18.7938 53.7423 18.9642 51.2272 19.6497 48.83C20.3285 46.402 21.4919 44.1365 23.0697 42.17C23.8664 41.1917 24.7573 40.294 25.7297 39.49C26.7246 38.725 27.7893 38.0554 28.9097 37.49C31.1349 36.3238 33.582 35.6422 36.0897 35.49H36.4897L36.5997 35.83C37.4416 38.4744 37.6539 41.279 37.2197 44.02C36.8392 46.7777 35.8112 49.406 34.2197 51.69C32.5354 53.9917 30.1321 55.6666 27.3897 56.45C24.6841 57.2224 21.8057 57.1386 19.1497 56.21Z" fill="#231F20"/>
<path d="M19.1902 56.3C19.9202 55.77 20.7602 55.14 21.6602 54.41C24.0776 52.4787 26.338 50.3587 28.4202 48.07C31.5835 44.4228 34.1854 40.3244 36.1402 35.91C32.0109 36.3557 28.1442 38.1519 25.1402 41.02C23.1478 43.0186 21.5906 45.4078 20.5666 48.0375C19.5426 50.6672 19.074 53.4804 19.1902 56.3Z" fill="#1E6F5D"/>
<path d="M19.2201 56.23L24.0001 51.65C25.5934 50.11 27.1234 48.5167 28.5901 46.87C30.0988 45.2459 31.4922 43.5183 32.7601 41.7C33.9714 39.8376 34.9773 37.8493 35.7601 35.77L36.1201 36.26C34.944 36.4486 33.791 36.7603 32.6801 37.19C31.5703 37.5884 30.4993 38.0872 29.4801 38.68C27.4554 39.8551 25.6653 41.3943 24.2001 43.22C22.6976 45.0265 21.514 47.0758 20.7001 49.28C20.2945 50.401 19.9605 51.5467 19.7001 52.71C19.5901 53.3 19.4701 53.89 19.3901 54.49C19.3901 54.78 19.3101 55.08 19.2801 55.39C19.2901 55.6713 19.27 55.9529 19.2201 56.23ZM19.1601 56.36C19.0677 56.0341 19.014 55.6985 19.0001 55.36C19.0001 55.06 19.0001 54.75 18.9501 54.44C18.9151 53.8205 18.9151 53.1995 18.9501 52.58C19.0454 51.3364 19.2563 50.1044 19.5801 48.9C19.9508 47.6911 20.426 46.5167 21.0001 45.39C21.3101 44.84 21.5901 44.27 21.9501 43.75C22.263 43.2124 22.6139 42.6977 23.0001 42.21C24.6053 40.2371 26.609 38.6253 28.8801 37.48C31.1208 36.3378 33.5781 35.6834 36.0901 35.56H36.7301L36.4501 36.09C35.4501 38.09 34.3401 40.09 33.2301 42.01C32.1662 44.01 30.9458 45.9226 29.5801 47.73C28.1442 49.4861 26.5362 51.0941 24.7801 52.53C23.9101 53.25 23.0101 53.94 22.0901 54.59C21.1701 55.24 20.0001 55.84 19.1601 56.36Z" fill="#231F20"/>
<path d="M19.0994 86.11C18.2931 82.5604 17.6888 78.968 17.2894 75.35C16.8594 71.74 16.6194 68.11 16.4594 64.49C16.1194 57.22 16.8394 49.97 17.4594 42.75C18.0794 35.53 18.9994 28.33 20.1994 21.18C21.4115 14.0427 22.9937 6.97314 24.9394 0L25.3194 0.09C23.9994 7.18 22.8994 14.3 22.1794 21.45C21.4594 28.6 20.8994 35.77 20.6594 43C20.5394 46.58 20.5061 50.1667 20.5594 53.76C20.6128 57.3533 20.5794 60.9367 20.4594 64.51C20.3394 68.1 20.2494 71.69 20.0994 75.29C19.9494 78.89 19.8094 82.49 19.4994 86.13L19.0994 86.11Z" fill="#1E6F5D"/>
<path d="M18.2297 61.71C16.0036 62.2084 13.6927 62.189 11.4752 61.6533C9.25767 61.1176 7.1928 60.0798 5.43973 58.62C3.08661 56.5178 1.4292 53.7491 0.687884 50.682C-0.053428 47.6149 0.156492 44.3949 1.28973 41.45C5.76951 41.9648 9.92019 44.0561 12.9997 47.35C14.7771 49.2793 16.1544 51.5417 17.0521 54.0065C17.9498 56.4713 18.3501 59.0896 18.2297 61.71Z" fill="#3E9581"/>
<path d="M18.2897 61.75C15.6199 62.646 12.7384 62.6949 10.0397 61.89C7.29726 61.1066 4.89402 59.4317 3.20972 57.13C1.65436 54.8317 0.633306 52.2143 0.22147 49.4698C-0.190366 46.7254 0.0174665 43.9236 0.829719 41.27L0.939719 40.93H1.33972C3.85084 41.0808 6.30142 41.7625 8.52972 42.93C9.64563 43.4978 10.7068 44.1673 11.6997 44.93C12.677 45.7323 13.5685 46.6337 14.3597 47.62C15.9441 49.5799 17.1113 51.8428 17.7897 54.27C18.4895 56.6989 18.66 59.2496 18.2897 61.75ZM18.1697 61.66C18.0326 59.2857 17.537 56.9459 16.6997 54.72C15.8837 52.5243 14.6814 50.4923 13.1497 48.72C11.6468 46.9405 9.84681 45.4349 7.82972 44.27C5.78218 43.135 3.55192 42.3667 1.23972 42L1.75972 41.69C0.650117 44.0945 0.271102 46.772 0.669719 49.39C1.12821 52.0047 2.32533 54.4337 4.11972 56.39C5.81781 58.3499 7.9805 59.8524 10.4097 60.76C12.9005 61.6194 15.5484 61.9265 18.1697 61.66Z" fill="#231F20"/>
<path d="M18.25 61.84C17.51 61.31 16.68 60.68 15.77 59.95C13.3539 58.0137 11.0905 55.8941 9.00004 53.61C5.8403 49.9621 3.24177 45.8638 1.29004 41.45C5.41893 41.8971 9.28519 43.6932 12.29 46.56C14.2823 48.5591 15.84 50.9483 16.8656 53.5777C17.8912 56.207 18.3625 59.0199 18.25 61.84Z" fill="#1E6F5D"/>
<path d="M18.2802 61.91C17.4502 61.38 16.2802 60.79 15.3402 60.1C14.4002 59.41 13.5202 58.76 12.6502 58C10.891 56.5642 9.27966 54.9562 7.8402 53.2C6.47811 51.3901 5.25781 49.4778 4.1902 47.48C3.0802 45.57 2.0002 43.6 1.0002 41.6L0.700195 41.07H1.3302C3.84613 41.1964 6.30678 41.8541 8.5502 43C10.8165 44.1482 12.8163 45.7597 14.4202 47.73C14.8303 48.2132 15.2014 48.7282 15.5302 49.27C15.8964 49.796 16.2303 50.3436 16.5302 50.91C17.0746 52.0461 17.5195 53.2272 17.8602 54.44C18.1936 55.6423 18.4047 56.8752 18.4902 58.12C18.5252 58.7395 18.5252 59.3605 18.4902 59.98C18.4902 60.29 18.4902 60.6 18.4402 60.9C18.4313 61.2422 18.3775 61.5818 18.2802 61.91ZM18.2102 61.77C18.1394 61.4953 18.0991 61.2136 18.0902 60.93C18.0902 60.63 18.0302 60.33 17.9902 60.03C17.9002 59.43 17.7802 58.84 17.6702 58.25C17.4191 57.0843 17.0849 55.938 16.6702 54.82C15.8598 52.6163 14.6796 50.5669 13.1802 48.76C11.711 46.9343 9.91763 45.3953 7.8902 44.22C6.87445 43.6272 5.80668 43.1285 4.7002 42.73C3.58928 42.3004 2.43628 41.9886 1.2602 41.8L1.6102 41.31C2.407 43.3922 3.42978 45.3808 4.6602 47.24C5.92187 49.063 7.31561 50.791 8.8302 52.41C10.2902 54.0633 11.8169 55.6567 13.4102 57.19L18.2102 61.77Z" fill="#231F20"/>
</svg>
