<svg width="70" height="133" viewBox="0 0 70 133" fill="none" xmlns="http://www.w3.org/2000/svg">
<g clip-path="url(#clip0)">
<path d="M0.669406 78.32C6.43941 66.67 27.5694 67 33.8394 67C42.0594 67.11 58.8994 67.32 64.6194 77.67C67.1194 82.18 65.6194 89.43 62.7794 103.93C60.5294 115.24 59.3194 120.93 55.5694 124.77C49.0594 131.36 39.7294 131.59 33.4694 131.77C27.0394 131.93 16.2194 132.2 9.46941 125.04C7.76941 123.25 6.38941 121.04 2.93941 101.95C-0.740594 81.74 -0.000594318 79.67 0.669406 78.32Z" fill="#8B5E3C"/>
<path d="M0.579122 78.28C1.63122 76.2287 3.14407 74.4488 4.99912 73.08C6.83291 71.6913 8.85263 70.567 10.9991 69.74C15.2817 68.112 19.7664 67.0758 24.3291 66.66C28.871 66.2105 33.4382 66.0702 37.9991 66.24C40.2893 66.2805 42.5757 66.4407 44.8491 66.72C47.1122 66.9727 49.3523 67.4006 51.5491 68C53.8002 68.5955 55.9673 69.4725 57.9991 70.61C60.0815 71.6958 61.9246 73.1886 63.4191 75C63.8032 75.4391 64.1385 75.9186 64.4191 76.43C64.7625 76.9254 65.0604 77.4509 65.3091 78C65.7797 79.0857 66.0702 80.2409 66.1691 81.42C66.3435 83.7125 66.2563 86.0173 65.9091 88.29C65.3091 92.8 64.4191 97.29 63.5891 101.71C62.7591 106.13 62.0091 110.64 60.9091 115.08C60.4039 117.339 59.6527 119.535 58.6691 121.63C58.1429 122.701 57.4953 123.707 56.7391 124.63C56.3575 125.083 55.9466 125.511 55.5091 125.91C55.0921 126.329 54.6478 126.72 54.1791 127.08C50.4289 129.939 45.9677 131.716 41.2791 132.22C38.9998 132.515 36.7067 132.692 34.4091 132.75C32.1391 132.82 29.8491 132.91 27.5391 132.83C22.8304 132.822 18.1832 131.76 13.9391 129.72C11.8156 128.596 9.90644 127.106 8.29912 125.32C7.51467 124.348 6.90249 123.249 6.48912 122.07C6.09683 120.972 5.76303 119.854 5.48912 118.72C4.89912 116.5 4.48912 114.26 4.02912 112.02C3.56912 109.78 3.23912 107.54 2.87912 105.3C2.18912 100.81 1.50912 96.3 0.949122 91.82C0.649122 89.56 0.359122 87.31 0.179122 85.05C0.0891219 83.92 -0.000878092 82.78 -0.000878092 81.64C-0.0793569 80.4897 0.119554 79.3374 0.579122 78.28ZM0.759122 78.37C0.329394 79.4035 0.151174 80.5242 0.239122 81.64C0.239122 82.77 0.339122 83.9 0.479122 85.02C0.739122 87.27 1.05912 89.51 1.47912 91.73C2.27912 96.19 3.18912 100.63 4.15912 105.06C5.12912 109.49 6.10912 113.91 7.31912 118.21C7.63912 119.28 7.96912 120.34 8.31912 121.34C8.67052 122.311 9.19199 123.212 9.85912 124C11.3111 125.57 13.0271 126.873 14.9291 127.85C18.9015 129.719 23.2294 130.711 27.6191 130.76C29.8391 130.87 32.0891 130.83 34.3491 130.76C36.5847 130.74 38.8177 130.603 41.0391 130.35C45.423 129.955 49.6214 128.394 53.1991 125.83C53.6419 125.526 54.063 125.192 54.4591 124.83C54.8668 124.479 55.251 124.101 55.6091 123.7C56.3232 122.871 56.9436 121.965 57.4591 121C58.4792 119.027 59.2806 116.948 59.8491 114.8C61.0491 110.46 61.9891 106.01 62.8491 101.57C63.7091 97.13 64.6991 92.7 65.2191 88.21C65.5088 85.9911 65.5389 83.7459 65.3091 81.52C65.1658 80.4406 64.8519 79.3909 64.3791 78.41C64.1342 77.9285 63.8463 77.4699 63.5191 77.04C63.2344 76.5714 62.899 76.1354 62.5191 75.74C61.0562 74.1053 59.2815 72.7794 57.2991 71.84C56.3281 71.3425 55.3261 70.9083 54.2991 70.54C53.2391 70.22 52.1891 69.86 51.1091 69.62C46.7534 68.6439 42.3117 68.1013 37.8491 68C33.3391 67.87 28.8491 67.68 24.3391 67.92C19.8377 68.0889 15.3802 68.8694 11.0891 70.24C8.94633 70.9518 6.92347 71.9834 5.08912 73.3C3.26903 74.628 1.78595 76.3645 0.759122 78.37Z" fill="#231F20"/>
<path d="M0.659376 77.37C0.839376 71.05 19.9994 65.44 35.9194 66C48.5494 66.45 65.2694 71 65.5394 76.92C65.8094 82.84 49.5994 89.65 35.2594 90.23C18.8294 90.91 0.489376 83.61 0.659376 77.37Z" fill="#A97C50"/>
<path d="M0.558594 77.37C0.599942 76.5858 0.871216 75.8311 1.33859 75.2C1.78182 74.5672 2.31012 73.9985 2.90859 73.51C4.091 72.5327 5.37901 71.6908 6.74859 71C9.48333 69.6037 12.3466 68.4751 15.2986 67.63C21.1964 65.877 27.3264 65.0307 33.4786 65.12C39.6044 65.3627 45.68 66.3294 51.5786 68C54.5417 68.7422 57.4331 69.7461 60.2186 71C61.6323 71.6536 62.9537 72.4909 64.1486 73.49C64.7706 74.0285 65.2803 74.6843 65.6486 75.42C66.0582 76.2142 66.1817 77.1253 65.9986 78C65.5345 79.5782 64.5952 80.9749 63.3086 82C62.1322 83.0372 60.8482 83.9457 59.4786 84.71C56.7878 86.2287 53.9457 87.462 50.9986 88.39C45.1257 90.3616 38.9736 91.3746 32.7786 91.39C26.5998 91.3134 20.4766 90.2117 14.6586 88.13C11.7585 87.1155 8.97045 85.8053 6.33859 84.22C5.02211 83.4323 3.79784 82.4998 2.68859 81.44C2.13259 80.9049 1.64853 80.2999 1.24859 79.64C0.803122 78.9663 0.56337 78.1776 0.558594 77.37ZM0.758594 77.37C0.771321 78.1144 0.996871 78.8396 1.40859 79.46C1.79815 80.0975 2.28005 80.6738 2.83859 81.17C3.96377 82.1728 5.21827 83.0204 6.56859 83.69C9.25494 85.0401 12.082 86.0898 14.9986 86.82C20.7946 88.3415 26.7565 89.1409 32.7486 89.2C38.7237 89.1948 44.6661 88.319 50.3886 86.6C53.2495 85.7662 56.0278 84.6716 58.6886 83.33C59.9935 82.6621 61.2382 81.8825 62.4086 81C63.5518 80.1905 64.4234 79.054 64.9086 77.74C65.0275 77.0755 64.9649 76.3912 64.7273 75.7593C64.4897 75.1275 64.0859 74.5715 63.5586 74.15C62.4784 73.1351 61.2512 72.2889 59.9186 71.64C57.2085 70.3201 54.3568 69.3136 51.4186 68.64C48.482 67.9316 45.4973 67.4403 42.4886 67.17C39.499 66.8641 36.4924 66.7572 33.4886 66.85C27.4835 67.017 21.5042 67.7063 15.6186 68.91C12.6677 69.4811 9.78042 70.3419 6.99859 71.48C5.60513 72.0506 4.29365 72.8039 3.09859 73.72C2.5033 74.175 1.98066 74.7178 1.54859 75.33C1.09202 75.9184 0.817423 76.6275 0.758594 77.37Z" fill="#231F20"/>
<path d="M7.75885 77.17C7.88885 72.68 22.5089 68.69 34.6489 69.1C44.2789 69.42 57.0389 72.66 57.2389 76.88C57.4389 81.1 45.0889 85.93 34.1489 86.34C21.6189 86.81 7.61885 81.61 7.75885 77.17Z" fill="#231F20" stroke="#231F20" stroke-width="3" stroke-miterlimit="10"/>
<path d="M33.5086 66.64C33.5086 66.97 33.5086 67.31 33.5086 67.64C33.5086 68.3067 33.5086 69.0067 33.5086 69.74C33.5086 75.85 33.2586 81.61 32.8886 86.93C31.8886 86.88 30.9686 86.81 30.0086 86.7C28.3909 86.5501 26.7821 86.3165 25.1886 86C24.5286 82.69 23.9186 79.16 23.3686 75.44C23.1686 74.06 22.9686 72.66 22.7886 71.23L22.4586 68.58C22.4586 68.41 22.4586 68.25 22.3986 68.08C20.9179 55.1348 20.5832 42.0841 21.3986 29.08C21.5486 26.8 21.7186 24.6 21.9386 22.42C22.6186 15.12 23.6286 8.35001 24.7986 2.17001C27.7484 13.1656 29.9534 24.3477 31.3986 35.64C31.6586 37.58 31.8686 39.48 32.0586 41.37C32.9986 50.3 33.4486 58.75 33.5086 66.64Z" fill="#3A7867"/>
<path d="M33.5586 66.64C33.5586 70.03 33.5586 73.41 33.5086 76.79C33.4586 80.17 33.3386 83.57 33.1686 86.95V87.23H32.8886L30.9386 87.11L29.9986 87L28.9986 86.87L25.1286 86.32H24.8786L24.8086 86C23.8686 80.75 22.8086 75.51 22.2486 70.21C21.6886 64.91 21.2486 59.59 21.0486 54.27C20.8486 48.95 20.7786 43.61 20.8586 38.27C20.8586 35.61 20.9886 32.94 21.1086 30.27C21.2286 27.6 21.4686 24.95 21.6486 22.27C22.2066 15.4727 23.1044 8.70758 24.3386 2L24.7186 0L25.2686 2C26.9986 8.43 28.5286 14.93 29.7186 21.49C30.3252 24.77 30.8619 28.06 31.3286 31.36C31.7886 34.66 32.1186 37.98 32.4586 41.3C32.8286 45.51 33.0886 49.73 33.2686 53.95C33.4486 58.17 33.5686 62.42 33.5586 66.64ZM33.4586 66.64C33.3786 62.42 33.2686 58.2 32.9386 53.99C32.6086 49.78 32.2086 45.58 31.6886 41.4C31.2586 38.11 30.8786 34.81 30.3486 31.53C29.8186 28.25 29.3486 24.97 28.7086 21.71C27.4686 15.19 26.0286 8.71 24.3486 2.28H25.2786C23.9986 8.9 22.9986 15.63 22.2486 22.41C22.0286 25.06 21.7386 27.7 21.5586 30.41C21.3786 33.12 21.2486 35.72 21.1886 38.41C21.0386 43.72 21.1886 49.05 21.4886 54.35C21.7886 59.65 22.3686 64.95 23.0786 70.21C23.4286 72.85 23.7886 75.48 24.2786 78.09L25.5786 85.95L25.2686 85.65L29.0686 86.28L30.0186 86.44L31.0186 86.53L32.9386 86.72L32.6386 86.98C32.9386 83.61 33.1586 80.24 33.3186 76.86C33.4786 73.48 33.4386 70 33.4586 66.64Z" fill="#231F20"/>
<path d="M25.4286 14.33C23.154 37.2502 24.0187 60.3736 27.9986 83.06L25.4286 14.33Z" fill="#3A7867"/>
<path d="M25.4289 14.33C25.4289 14.5 25.4289 14.66 25.3789 14.83" stroke="white" stroke-miterlimit="10" stroke-linecap="round"/>
<path d="M24.9983 19.6C23.4044 39.8313 24.2505 60.1809 27.5183 80.21" stroke="white" stroke-miterlimit="10" stroke-linecap="round" stroke-dasharray="0.96 4.79"/>
<path d="M27.8789 82.57C27.8789 82.73 27.9389 82.89 27.9589 83.06" stroke="white" stroke-miterlimit="10" stroke-linecap="round"/>
<path d="M45.4492 90L44.4492 90.18" stroke="#231F20" stroke-miterlimit="10"/>
<path d="M51.49 68.68V69.27C51.49 70.34 51.49 71.46 51.55 72.6C51.64 75.71 51.88 79.08 52.34 82.65C50.9798 83.3217 49.5767 83.9029 48.14 84.39C47.35 84.66 46.53 84.92 45.7 85.15C45.59 85.15 45.47 85.21 45.36 85.24L44.85 85.38C44.66 84.82 44.46 84.22 44.26 83.59C43.4104 80.8028 42.7423 77.9636 42.26 75.09C42.05 73.76 41.85 72.36 41.71 70.92C41.71 70.73 41.71 70.55 41.66 70.36C41.59 69.55 41.53 68.74 41.5 67.91C41.5 67.77 41.5 67.63 41.5 67.48C41.5 67.34 41.5 67.2 41.5 67.07C41.4215 64.5059 41.5251 61.9394 41.81 59.39C42.2508 55.481 43.1746 51.6417 44.56 47.96C45.01 46.76 45.56 45.55 46.11 44.35C46.62 43.3 47.17 42.25 47.79 41.19L47.85 41.09C47.8734 41.0624 47.8935 41.0322 47.91 41C52.5207 33.2394 59.1721 26.8924 67.14 22.65C63.4275 26.3258 60.3041 30.5521 57.88 35.18C53.41 43.73 52.66 51.27 51.88 59.48C51.68 62.12 51.5 65.21 51.49 68.68Z" fill="#3A7867"/>
<path d="M51.5386 68.68C51.5386 71.01 51.6186 73.35 51.7886 75.68C51.9586 78.01 52.2286 80.33 52.5586 82.68V82.83L52.4086 82.91C51.2173 83.5257 49.992 84.0733 48.7386 84.55C48.1086 84.79 47.4686 84.99 46.8386 85.21L45.8886 85.53L44.8886 85.8L44.5386 85.9L44.4186 85.56L43.8186 83.76V83.69V83.8C43.3786 82.41 42.9786 81 42.6286 79.57C42.2786 78.14 41.9986 76.71 41.7686 75.26L41.2386 71.07L41.1386 69.33L41.0586 67.61C41.0586 65.97 41.0586 64.28 41.1686 62.61C41.2786 60.94 41.4786 59.28 41.7586 57.61C42.2851 54.3164 43.1394 51.0837 44.3086 47.96V48.07V47.99L45.8486 44.37V44.44L47.5686 41L47.6586 40.84V40.96V40.89V40.83C49.913 36.8981 52.7218 33.3112 55.9986 30.18C59.2874 27.0291 62.9877 24.338 66.9986 22.18L69.9486 20.58L67.4886 23C64.5776 25.9399 62.0141 29.2047 59.8486 32.73C57.7125 36.2639 56.0325 40.054 54.8486 44.01C53.7003 47.9998 52.9006 52.0818 52.4586 56.21C51.8974 60.3439 51.5902 64.5084 51.5386 68.68ZM51.4386 68.68C51.4386 64.51 51.6986 60.33 52.0186 56.17C52.2837 51.9799 52.9467 47.8245 53.9986 43.76C55.1187 39.6894 56.8016 35.7952 58.9986 32.19C61.17 28.5713 63.7982 25.2473 66.8186 22.3L67.3986 23.09C63.4599 25.1725 59.8036 27.7501 56.5186 30.76C54.8713 32.2606 53.3309 33.8746 51.9086 35.59C50.4853 37.321 49.1791 39.1451 47.9986 41.05V40.93V41V41.08L46.2886 44.21V44.13L44.7386 47.71V47.65C43.5663 50.7492 42.7413 53.9689 42.2786 57.25C42.0539 58.8883 41.9137 60.5372 41.8586 62.19C41.7986 63.84 41.8586 65.48 41.8586 67.19L41.9986 69.11L42.1486 70.81L42.6786 75C42.9186 76.43 43.2286 77.84 43.5486 79.25C43.8686 80.66 44.2386 82.06 44.6486 83.45V83.57V83.44L45.2186 85.24L44.7386 85L45.7386 84.75L46.6886 84.48C47.3286 84.28 47.9686 84.12 48.5986 83.9C49.849 83.4845 51.0744 82.997 52.2686 82.44L52.1486 82.67C51.8986 80.35 51.7386 78.01 51.6286 75.67C51.5186 73.33 51.4486 71 51.4386 68.68Z" fill="#231F20"/>
<path d="M50.2691 40.89C50.2691 41.03 50.2691 41.16 50.2691 41.29C50.3291 45.53 50.2691 49.63 50.0791 53.61V53.67C49.8591 58.51 49.4891 63.17 49.0091 67.58C49.0091 67.81 49.0091 68.03 48.9291 68.25C48.8291 69.18 48.7291 70.1 48.6191 71.01C48.5191 71.74 48.4391 72.47 48.3291 73.18C47.8491 76.78 47.3291 80.18 46.7191 83.47C46.5991 84.17 46.4691 84.85 46.3291 85.47C45.6191 85.64 44.8691 85.81 44.1191 85.95C42.5491 86.26 40.9491 86.5 39.3591 86.66L38.3591 86.75C38.0091 81.43 37.7891 75.68 37.7891 69.58C37.7891 68.9 37.7891 68.21 37.7891 67.51C37.7891 67.15 37.7891 66.81 37.7891 66.45C37.7891 61.86 38.0091 57.1 38.3491 52.16C38.6191 47.96 39.0091 43.69 39.5491 39.25V39.3C39.6391 38.39 39.7491 37.47 39.8691 36.55C40.1091 34.73 40.3591 32.95 40.6191 31.19C42.0309 21.7176 43.9773 12.3326 46.4491 3.07999C48.1452 11.9732 49.2808 20.9643 49.8491 30C50.0791 33.71 50.2191 37.35 50.2691 40.89Z" fill="#3A7867"/>
<path d="M50.3182 40.89V41.3L50.2482 49.3V53.3C50.2482 54.64 50.0982 55.97 50.0282 57.3L49.5582 65.3L49.4282 67.3C49.4282 67.97 49.2882 68.64 49.2282 69.3C49.0982 70.62 48.9382 71.95 48.7682 73.3C48.2682 76.74 47.6782 80.17 47.1382 83.61V83.53V83.61L46.7382 85.61V85.87L46.4882 85.93L44.4882 86.33C43.8182 86.46 43.1382 86.53 42.4882 86.62L40.4882 86.9C39.8182 87 39.1382 87.07 38.4882 87.11H38.1782V86.81C37.9782 82.81 37.8682 78.87 37.7982 74.91C37.7282 70.95 37.7182 66.96 37.9082 63C38.0982 59.04 38.0882 55.07 38.3182 51.11L39.3182 39.22C39.6182 36.14 40.0582 33.1 40.4982 30.05C40.9382 27 41.4982 23.96 42.0182 20.93C42.9382 14.91 44.3682 8.91 45.9982 3L46.5382 0.809998L46.9982 3C48.1638 9.24857 49.0016 15.5539 49.5082 21.89C49.7582 25.05 49.9982 28.22 50.0682 31.39L50.3182 40.89ZM50.2182 40.89L49.7882 31.39C49.6082 28.23 49.2782 25.08 48.9082 21.93C48.5382 18.78 48.0782 15.65 47.5982 12.53C47.1182 9.41 46.5382 6.29 45.9982 3.18H46.9982C45.3482 9.14 43.9982 15.14 42.8282 21.16C42.2382 24.16 41.7082 27.16 41.2282 30.23C40.7482 33.3 40.2882 36.3 39.9282 39.34V39.4L38.7082 51.21C38.4982 53.21 38.4782 55.21 38.3582 57.15L38.0782 63.09C37.8482 67.09 37.8682 71.01 37.9782 74.98C38.0882 78.95 38.2982 82.9 38.6082 86.85L38.2782 86.57C38.9482 86.51 39.6182 86.43 40.2782 86.31L42.2782 85.98C42.9382 85.87 43.6082 85.78 44.2782 85.65L46.2782 85.19L45.9682 85.51L46.3382 83.51V83.58V83.51C46.8782 80.08 47.3382 76.65 47.9482 73.24C48.1382 71.93 48.3182 70.62 48.4682 69.24C48.5382 68.57 48.6382 67.92 48.6982 67.24L48.8782 65.24L49.6182 57.24C49.7382 55.91 49.8982 54.59 49.9682 53.24L50.0882 49.24L50.2582 41.24L50.2182 40.89Z" fill="#231F20"/>
<path d="M45.8388 15.28C46.9514 26.4465 47.3189 37.6747 46.9388 48.89C46.55 60.6642 45.3337 72.3965 43.2988 84" fill="#3A7867"/>
<path d="M45.8398 15.28C45.8398 15.45 45.8398 15.61 45.8398 15.78" stroke="white" stroke-miterlimit="10" stroke-linecap="round"/>
<path d="M46.3091 20.54C47.047 29.9709 47.2574 39.4356 46.9391 48.89C46.5829 59.6998 45.5308 70.4755 43.7891 81.15" stroke="white" stroke-miterlimit="10" stroke-linecap="round" stroke-dasharray="0.96 4.79"/>
<path d="M43.3888 83.51L43.2988 84.01" stroke="white" stroke-miterlimit="10" stroke-linecap="round"/>
<path d="M24.6792 85.85C21.9363 85.302 19.256 84.4778 16.6792 83.39C15.1289 80.7354 13.7527 77.9829 12.5592 75.15C12.0992 74.02 11.6892 72.93 11.3292 71.87L11.1592 71.38C8.56915 63.49 8.56915 57.23 9.40915 52.44C10.3192 47.22 12.1592 43.99 14.4092 34.32C16.2002 26.694 17.3376 18.9292 17.8092 11.11C19.5097 14.7466 20.911 18.5157 21.9992 22.38C23.1547 26.5424 23.9148 30.8047 24.2692 35.11C24.3892 36.67 24.4592 38.28 24.4792 39.93C24.4792 41.93 24.4192 43.53 24.2992 45.09C24.0892 47.58 23.7692 49.81 23.4992 52.53C22.9923 57.6232 22.8186 62.7441 22.9792 67.86C22.9792 68.04 22.9792 68.22 22.9792 68.4C22.9792 69.27 23.0592 70.16 23.0992 71.06C23.1892 72.44 23.2792 73.86 23.4092 75.33C23.6592 78.66 24.0792 82.16 24.6792 85.85Z" fill="#3A7867"/>
<path d="M24.7097 85.89C23.9497 85.79 23.3097 85.63 22.6198 85.48C21.9298 85.33 21.2598 85.15 20.6198 84.96C19.262 84.5859 17.9265 84.1352 16.6198 83.61H16.5497V83.54C14.9344 80.8593 13.5012 78.073 12.2597 75.2C11.0439 72.2907 10.0901 69.2788 9.40975 66.2C7.98334 60.0227 8.29485 53.5711 10.3097 47.56C11.3097 44.56 12.3097 41.66 13.1697 38.67C14.0297 35.68 14.7297 32.67 15.3297 29.59C16.5173 23.4817 17.2625 17.2956 17.5597 11.08L17.6198 9.84L18.1097 11C19.8356 14.6384 21.2636 18.4108 22.3797 22.28V22.34V22.4V22.29C23.5706 26.4722 24.3608 30.7581 24.7397 35.09C24.8097 36.77 24.9097 38.44 24.9497 40.09L24.7597 45.09C24.4097 48.59 23.9998 52 23.6897 55.36C23.3797 58.72 23.2597 62.13 23.2497 65.52C23.2397 68.91 23.4097 72.3 23.6597 75.7C23.9097 79.1 24.3397 82.56 24.7097 85.89ZM24.6397 85.82L23.1597 75.74C22.8297 72.36 22.5697 68.93 22.5097 65.53C22.4497 62.13 22.5097 58.7 22.7197 55.28C22.9297 51.86 23.3997 48.51 23.7197 45.12L23.8797 40.12C23.8797 39.3 23.8098 38.47 23.7898 37.65L23.6997 35.17C23.3666 30.8909 22.6334 26.6524 21.5097 22.51V22.45V22.39V22.51C20.4813 18.6552 19.1436 14.8897 17.5097 11.25L18.1097 11.14C17.6367 17.3627 16.7851 23.5508 15.5597 29.67C14.3392 35.786 12.7768 41.8289 10.8797 47.77C9.98439 50.7258 9.47023 53.7839 9.34975 56.87C9.26647 59.9505 9.53487 63.0304 10.1497 66.05C11.5134 72.1007 13.7858 77.91 16.8897 83.28L16.7797 83.18C18.0359 83.7581 19.3248 84.2623 20.6397 84.69C21.2997 84.91 21.9697 85.11 22.6397 85.3C23.3097 85.49 24.0497 85.63 24.6397 85.82Z" fill="#231F20"/>
<path d="M18.4382 21.63C21.5682 35.53 19.7082 44.72 17.3382 50.63C16.2282 53.37 15.0582 55.29 14.4782 58.71C12.9982 67.46 17.1582 75.47 20.9982 80.9" fill="#3A7867"/>
<path d="M18.4395 21.63C18.4395 21.8 18.5195 21.96 18.5495 22.12" stroke="white" stroke-miterlimit="10" stroke-linecap="round"/>
<path d="M19.4689 27.19C20.9989 38 19.3789 45.55 17.3389 50.62C16.2289 53.36 15.0589 55.28 14.4789 58.7C13.2089 66.17 16.0589 73.09 19.2889 78.34" stroke="white" stroke-miterlimit="10" stroke-linecap="round" stroke-dasharray="1.03 5.15"/>
<path d="M20.6895 80.5C20.7895 80.63 20.8795 80.77 20.9695 80.9" stroke="white" stroke-miterlimit="10" stroke-linecap="round"/>
<path d="M49.5986 89.11L48.8086 89.3" stroke="#231F20" stroke-miterlimit="10"/>
<path d="M43.4691 66.89L43.3791 67.78C43.2791 68.58 43.1891 69.35 43.0891 70.12C42.3062 75.7665 41.0587 81.3387 39.3591 86.78L38.3591 86.87L37.1691 86.94C35.7691 87 34.3591 87 32.9391 86.94C31.9391 86.89 31.0191 86.82 30.0591 86.71C29.2072 81.2381 28.7859 75.7078 28.7991 70.17C28.7991 69.36 28.7991 68.59 28.7991 67.85C28.7991 67.57 28.7991 67.31 28.7991 67.04C28.7991 65.68 28.9191 64.42 28.9991 63.25C29.6091 54.59 31.0791 49.73 32.0591 41.37C32.2491 39.82 32.4191 38.13 32.5591 36.28C33.2334 27.4961 33.0458 18.6673 31.9991 9.92001C35.6925 16.6471 38.5791 23.7864 40.5991 31.19C41.2658 33.61 41.8525 36.1433 42.3591 38.79C44.0989 48.0523 44.4728 57.5194 43.4691 66.89Z" fill="#3A7867"/>
<path d="M43.5193 66.9C43.3493 68.58 43.1593 70.27 42.8993 71.9C42.6393 73.53 42.3393 75.24 42.0393 76.9C41.3726 80.2333 40.5759 83.5367 39.6493 86.81V87H39.4393C38.6493 87.09 37.8693 87.17 37.0893 87.21H34.7293C33.9493 87.21 33.1593 87.26 32.3693 87.21L29.9993 87.12H29.6793V86.79C29.0716 83.0193 28.6876 79.216 28.5293 75.4C28.3823 71.5851 28.4658 67.7648 28.7793 63.96C29.0693 60.15 29.5893 56.37 30.2493 52.62C30.9093 48.87 31.5393 45.13 31.9693 41.36C32.1793 38.75 32.4593 36.15 32.5493 33.53C32.6393 30.91 32.7093 28.29 32.6793 25.67C32.5738 20.4296 32.1865 15.1988 31.5193 9.99999L31.2093 7.51999L32.4293 9.70999C34.8354 14.0336 36.8952 18.541 38.5893 23.19C39.4393 25.51 40.1893 27.87 40.8593 30.25C41.5293 32.63 41.9993 35 42.5193 37.44C43.4847 42.2869 44.0234 47.209 44.1293 52.15C44.261 57.0748 44.0572 62.0029 43.5193 66.9ZM43.4193 66.9C43.9173 62.0127 44.0109 57.0927 43.6993 52.19C43.3878 47.293 42.6924 42.4281 41.6193 37.64L40.7493 34.08C40.4593 32.89 40.2393 31.69 39.8793 30.51C39.2093 28.16 38.4593 25.83 37.6093 23.51C35.9275 18.9173 33.9224 14.4494 31.6093 10.14L32.5193 9.84999C33.1338 15.0801 33.4144 20.3441 33.3593 25.61C33.3593 28.2367 33.2626 30.8667 33.0693 33.5C32.9093 36.12 32.5793 38.73 32.2993 41.35C31.8593 45.14 31.1393 48.88 30.5293 52.63C29.8628 56.3894 29.432 60.1868 29.2393 64C29.0293 67.7871 29.0293 71.5829 29.2393 75.37C29.4293 79.15 29.8693 82.92 30.3893 86.67L30.0193 86.31L32.3293 86.52C33.0993 86.61 33.8793 86.52 34.6493 86.58H36.9693C37.7493 86.58 38.5193 86.52 39.2893 86.46L39.0293 86.67C40.0893 83.47 41.0293 80.2 41.7493 76.9C42.4903 73.5933 43.0478 70.2482 43.4193 66.88V66.9Z" fill="#231F20"/>
<path d="M35.4786 25.06C37.4176 28.8805 38.7085 32.9965 39.2986 37.24C40.3786 45.18 38.5586 51.18 37.5186 55.6C35.3081 65.3607 34.7303 75.4203 35.8086 85.37" fill="#3A7867"/>
<path d="M35.4785 25.06C35.5485 25.21 35.6285 25.35 35.6985 25.51" stroke="white" stroke-miterlimit="10" stroke-linecap="round"/>
<path d="M37.6485 30.23C38.4207 32.5053 38.9732 34.8494 39.2985 37.23C40.3785 45.17 38.5585 51.17 37.5185 55.59C35.5087 64.3449 34.8344 73.3534 35.5185 82.31" stroke="white" stroke-miterlimit="10" stroke-linecap="round" stroke-dasharray="1.02 5.11"/>
<path d="M35.7695 84.87C35.7695 85.03 35.7695 85.2 35.7695 85.37" stroke="white" stroke-miterlimit="10" stroke-linecap="round"/>
</g>
<defs>
<clipPath id="clip0">
<rect width="69.85" height="132.86" fill="white"/>
</clipPath>
</defs>
</svg>
