<svg width="35" height="19" viewBox="0 0 35 19" fill="none" xmlns="http://www.w3.org/2000/svg">
<g clip-path="url(#clip0_1477:169)">
<path d="M16.9992 15.25C15.5692 14.39 16.4292 8.92999 19.1092 5.24999C21.3992 1.99999 25.4292 -0.26001 26.5892 0.72999C27.7492 1.71999 25.6692 6.26999 25.3492 6.99999C23.0792 11.7 18.5192 16.2 16.9992 15.25Z" fill="#BF90C1" stroke="#231F20" stroke-miterlimit="10"/>
<path d="M17.1389 15.25C18.5589 14.39 17.7089 8.92999 15.0289 5.24999C12.6989 1.99999 8.66894 -0.26001 7.49894 0.72999C6.32894 1.71999 8.41894 6.26999 8.74894 6.99999C10.9989 11.7 15.5689 16.2 17.1389 15.25Z" fill="#BF90C1" stroke="#231F20" stroke-miterlimit="10"/>
<path d="M17.1088 16.61C16.4888 15.06 20.4788 11.23 24.8388 9.91999C28.6388 8.77999 33.2388 9.38999 33.5688 10.92C33.8988 12.45 29.4788 14.78 28.8088 15.12C24.1288 17.48 17.7788 18.31 17.1088 16.61Z" fill="#BF90C1" stroke="#231F20" stroke-miterlimit="10"/>
<path d="M16.9995 16.85C17.6095 15.31 13.6295 11.48 9.25952 10.17C5.44952 9.00001 0.849522 9.64001 0.519522 11.13C0.189522 12.62 4.60952 15 5.27952 15.33C9.99952 17.73 16.3095 18.56 16.9995 16.85Z" fill="#BF90C1" stroke="#231F20" stroke-miterlimit="10"/>
</g>
<defs>
<clipPath id="clip0_1477:169">
<rect width="34.09" height="18.25" fill="white"/>
</clipPath>
</defs>
</svg>
