<svg width="138" height="143" viewBox="0 0 138 143" fill="none" xmlns="http://www.w3.org/2000/svg">
<g clip-path="url(#clip0)">
<path d="M15.8398 78.1271V134.127L52.4798 135.557C52.2665 116.43 52.0532 97.3038 51.8398 78.1771L15.8398 78.1271Z" fill="#E5FAFF"/>
<path d="M15.8804 78.1571L16.0804 92.2771C16.147 96.9438 16.1937 101.61 16.2204 106.277C16.3004 115.577 16.2904 124.807 16.1504 134.097L15.8504 133.797C21.957 134.13 28.0637 134.42 34.1704 134.667C40.2804 134.887 46.3804 135.097 52.4904 135.257L52.2104 135.527C52.0204 125.967 51.8004 116.407 51.6704 106.837L51.4804 92.4971L51.3504 78.1271L51.8404 78.6171L33.9604 78.4071L15.8804 78.1571ZM15.8104 78.0871L33.7204 77.8371L51.8404 77.6371H52.3204V78.1271L52.5204 92.4771L52.6504 106.817C52.7404 116.387 52.7304 125.947 52.7504 135.517V135.797H52.4704C46.3704 135.484 40.267 135.207 34.1604 134.967C28.0504 134.747 21.9404 134.547 15.8304 134.407H15.5404V134.107C15.4104 124.717 15.4104 115.297 15.4704 105.947C15.4704 101.28 15.5137 96.6138 15.6004 91.9471L15.8104 78.0871Z" fill="#231F20"/>
<path d="M51.7909 78.1271L31.8809 48.5471L101.571 47.8271C107.904 57.5805 114.238 67.3238 120.571 77.0571L51.7909 78.1271Z" fill="#E5FAFF"/>
<path d="M51.7698 78.1671C48.3998 73.3371 44.9998 68.4871 41.6298 63.5671C38.2598 58.6471 34.8898 53.7171 31.5298 48.7771L31.0898 48.1371H31.8798C37.6798 48.0371 43.4898 48.0171 49.2998 47.9771H66.7198C72.5298 47.9771 78.3398 47.9771 84.1398 47.8571L101.56 47.5571H101.72L101.8 47.6871L111.41 62.2071L120.98 76.7771L121.48 77.5471H120.56L103.3 77.8171C97.5498 77.8971 91.7998 77.9771 86.0598 77.9971L68.8698 78.1071L51.7698 78.1671ZM51.7698 78.0771L69.0498 77.5971L86.2398 77.1671C92.0098 77.0271 97.7198 76.9071 103.41 76.8071L120.55 76.5471L120.13 77.3371L110.71 62.6771L101.33 48.0271L101.57 48.1471L84.1498 48.2171C78.3398 48.2171 72.5298 48.3571 66.7298 48.4471L49.3098 48.8171C43.4998 48.8971 37.6898 48.9871 31.8798 49.0071L32.2298 48.3471C35.5098 53.2671 38.7998 58.1771 42.0398 63.1471C45.2798 68.1171 48.5498 73.0271 51.8098 78.0771H51.7698Z" fill="#231F20"/>
<path d="M52.4805 78.5172L52.7805 135.747L122.28 134.657L120.51 76.3472L52.4805 78.5172Z" fill="#E5FAFF"/>
<path d="M52.5197 78.5471L52.9797 107.267C53.0597 116.777 53.2097 126.267 53.2097 135.747L52.7697 135.317C58.5597 135.227 64.3597 135.197 70.1497 135.157L87.5297 135.027C93.3164 134.974 99.1064 134.884 104.9 134.757L122.28 134.397L122.01 134.677L120.94 105.527C120.62 95.8071 120.25 86.0871 119.94 76.3671L120.48 76.8771L103.56 77.3871L86.5597 77.7871L52.5197 78.5471ZM52.4097 78.4771L86.3097 77.0871L103.31 76.3971L120.41 75.8171H120.93V76.3371C121.25 86.0571 121.48 95.7771 121.75 105.497L122.45 134.667V134.947H122.18L104.8 135.137C99.0097 135.137 93.2097 135.277 87.4197 135.397L70.0497 135.807C64.2597 135.947 58.4697 136.097 52.6797 136.187H52.2397V135.747C52.1397 126.157 52.2397 116.567 52.1797 106.997L52.4097 78.4771Z" fill="#231F20"/>
<path d="M31.8809 47.8271C32.0709 44.4871 32.2709 41.1571 32.4609 37.8271H101.581C101.391 41.0571 101.191 44.2872 101.001 47.5172L31.8809 47.8271Z" fill="#E5FAFF"/>
<path d="M31.8398 47.8672C31.9798 44.5772 32.0398 41.2172 32.1998 37.7972V37.5572H32.4498C38.2098 37.4638 43.9698 37.4105 49.7298 37.3972C52.6098 37.3972 55.4898 37.3972 58.3698 37.3972C61.2498 37.3972 64.1298 37.4238 67.0098 37.4772C72.7698 37.5672 78.5298 37.6572 84.2898 37.6672C90.0498 37.6772 95.8098 37.6672 101.57 37.5472H101.86V37.8372L101.41 47.5272V47.8872H101.05C95.2698 47.9972 89.4698 48.0372 83.6698 48.0872C77.8698 48.1372 72.0798 48.0872 66.2898 48.0872L48.9698 48.0272L40.4098 47.9672L31.8398 47.8672ZM31.9198 47.7972L40.6698 47.6172L49.3498 47.4772L66.6398 47.2072C72.3698 47.2072 78.0998 47.0772 83.8098 47.0872C89.5198 47.0972 95.2598 47.0872 101 47.0872L100.62 47.4472L101.3 37.7572L101.58 38.0472C95.8198 37.9672 90.0598 37.9272 84.2998 37.9272C78.5398 37.9272 72.7798 38.0372 67.0198 38.1172C64.1398 38.1638 61.2598 38.1938 58.3798 38.2072C55.4998 38.2205 52.6198 38.2205 49.7398 38.2072C43.9798 38.2072 38.2198 38.1472 32.4598 38.0472L32.7298 37.7972C32.4998 41.0972 32.1698 44.4072 31.9198 47.7972V47.7972Z" fill="#231F20"/>
<path d="M31.2298 48.4872L15.8398 78.1272H51.4098L31.2298 48.4872Z" fill="white"/>
<path d="M31.2402 48.5371C28.6902 53.6971 26.2402 58.7371 23.7602 63.6571C22.5302 66.1371 21.2902 68.5771 20.0102 71.0271C18.7302 73.4771 17.4102 75.8171 16.0802 78.2471L15.8402 77.8571C18.8402 77.9371 21.7802 77.9571 24.7402 77.9771C27.7002 77.9971 30.6802 77.9771 33.6402 77.8771C39.5802 77.7505 45.5135 77.6671 51.4402 77.6271L51.0302 78.4071C49.3435 75.9871 47.6768 73.5505 46.0302 71.0971C44.3902 68.6471 42.7402 66.2171 41.1302 63.7171L31.2402 48.5371ZM31.2402 48.4371L41.5402 62.8971C43.2902 65.3371 45.0102 67.8371 46.7402 70.3271C48.4702 72.8171 50.1802 75.3271 51.8502 77.8471L52.3702 78.6271H51.4102C45.4835 78.5871 39.5502 78.5038 33.6102 78.3771C30.6102 78.3071 27.6802 78.2971 24.7102 78.2771C21.7402 78.2571 18.7802 78.2771 15.8102 78.3871H15.4102L15.6102 78.0271C16.8502 75.4971 18.0702 72.9471 19.4102 70.4371C20.7502 67.9271 22.0202 65.4371 23.3502 62.9571C25.9602 58.0271 28.6502 53.1571 31.2302 48.4371H31.2402Z" fill="#231F20"/>
<path d="M76.5395 86.9672C75.2895 87.7172 67.3495 92.7072 66.2095 102.277C65.3695 109.357 68.7695 114.607 70.4195 117.167C71.6695 119.097 77.0595 126.877 86.6195 128.487C88.5859 128.987 90.6435 129.007 92.6195 128.547C101.059 126.147 103.909 113.077 104.239 106.097C104.399 102.717 104.569 97.8472 101.679 92.7472C100.759 91.1272 98.1795 86.5772 92.8095 84.5272C85.3095 81.6572 78.2195 85.9472 76.5395 86.9672Z" fill="#F04D4E"/>
<path d="M98.9698 103.927C100.422 103.927 101.6 102.75 101.6 101.297C101.6 99.8447 100.422 98.6672 98.9698 98.6672C97.5173 98.6672 96.3398 99.8447 96.3398 101.297C96.3398 102.75 97.5173 103.927 98.9698 103.927Z" fill="#F26B6C"/>
<path d="M75.4698 112.157C76.9224 112.157 78.0998 110.98 78.0998 109.527C78.0998 108.075 76.9224 106.897 75.4698 106.897C74.0173 106.897 72.8398 108.075 72.8398 109.527C72.8398 110.98 74.0173 112.157 75.4698 112.157Z" fill="#F26B6C"/>
<path d="M84.6201 74.0771C85.7101 78.7671 84.7501 81.2571 83.8501 82.5971C83.018 83.6879 82.1197 84.7266 81.1601 85.7071L77.8501 89.4071C77.6487 88.2923 77.5616 87.1597 77.5901 86.0271C77.4748 84.2691 77.8194 82.5114 78.5901 80.9271C79.3901 79.5671 80.0801 79.5371 81.7901 77.7971C82.883 76.6783 83.8335 75.4289 84.6201 74.0771V74.0771Z" fill="#3E9581"/>
<path d="M84.6205 74.0272C85.0825 75.4678 85.3054 76.9744 85.2805 78.4872C85.2847 80.0285 84.8133 81.5336 83.9305 82.7972L80.9305 86.1072C79.9305 87.1972 78.9305 88.3272 77.9905 89.4672L77.8105 89.6772L77.7505 89.3972C77.4549 87.9334 77.3407 86.4388 77.4105 84.9472C77.3679 83.4081 77.7558 81.8877 78.5305 80.5572C78.9667 79.9191 79.5198 79.3694 80.1605 78.9372C80.7428 78.4918 81.2941 78.0074 81.8105 77.4872C82.8592 76.4295 83.8004 75.2705 84.6205 74.0272V74.0272ZM84.6205 74.0272C83.946 75.3575 83.0876 76.5862 82.0705 77.6772C81.5606 78.2661 81.0056 78.8144 80.4105 79.3172C79.8245 79.7278 79.3194 80.2431 78.9205 80.8372C78.206 82.1168 77.8405 83.5617 77.8605 85.0272C77.7353 86.4937 77.7755 87.9696 77.9805 89.4272L77.7505 89.3572C78.7505 88.2772 79.7505 87.1972 80.7505 86.0672C81.7505 84.9372 82.6305 83.7672 83.5805 82.6372C84.3851 81.4203 84.8384 80.005 84.8905 78.5472C84.9542 77.0618 84.8637 75.5739 84.6205 74.1072V74.0272Z" fill="#231F20"/>
<path d="M84.6196 74.0771C83.6196 76.7271 82.5296 79.4971 81.2596 82.3471C80.1396 84.8471 78.9896 87.2071 77.8496 89.4071C78.7396 88.4071 79.9896 87.0671 81.4596 85.4071C82.5766 84.2829 83.566 83.0387 84.4096 81.6971C84.9596 80.5271 85.7896 78.1271 84.6196 74.0771Z" fill="#1E6F5D"/>
<path d="M84.6198 74.1072C83.5598 76.8772 82.7098 79.4372 81.6198 81.9372C81.0598 83.1972 80.3298 84.4172 79.7198 85.6672C79.1098 86.9172 78.4898 88.1772 77.9298 89.4572L77.7298 89.3172L80.6298 85.9172C81.6298 84.8072 82.5698 83.6472 83.4898 82.4972C84.37 81.3415 84.8822 79.9478 84.9598 78.4972C85.0577 77.0251 84.9431 75.5466 84.6198 74.1072ZM84.6198 74.1072C85.1628 75.5096 85.431 77.0034 85.4098 78.5072C85.4034 80.0611 84.8908 81.5706 83.9498 82.8072C82.1098 85.1872 79.9498 87.2972 77.9498 89.4872L77.3398 90.1372L77.7498 89.3472C78.3998 88.1072 79.0098 86.8572 79.5998 85.5872C80.1898 84.3172 80.7498 83.0672 81.2898 81.7472C82.3198 79.0772 83.5698 76.4572 84.6198 74.0272V74.1072Z" fill="#231F20"/>
<path d="M62.4707 82.7672C64.8507 86.9372 67.2507 88.1172 68.8207 88.4972C69.2307 88.5872 69.5707 88.6272 72.9007 88.9372L77.8507 89.4072C77.2312 88.4427 76.5141 87.5447 75.7107 86.7271C74.5946 85.3754 73.1427 84.3409 71.5007 83.7271C69.9907 83.2671 69.5007 83.7272 67.0307 83.5972C65.4825 83.5076 63.9511 83.2289 62.4707 82.7672V82.7672Z" fill="#3E9581"/>
<path d="M62.4902 82.7772C63.292 84.0104 64.2204 85.1566 65.2602 86.1972C66.2912 87.2282 67.5845 87.9578 69.0002 88.3072C70.4702 88.4972 71.9302 88.7472 73.4102 88.8972C74.8902 89.0472 76.4102 89.1672 77.8602 89.2672L77.7302 89.4772C76.8918 88.2677 75.9189 87.1573 74.8302 86.1672C73.8456 85.1016 72.6019 84.3093 71.2202 83.8672C70.5224 83.7036 69.801 83.6664 69.0902 83.7572C68.3412 83.8122 67.5891 83.8122 66.8402 83.7572C65.3519 83.633 63.8879 83.3032 62.4902 82.7772V82.7772ZM62.4902 82.7772C63.9376 83.1178 65.4144 83.3187 66.9002 83.3772C67.6342 83.4037 68.3693 83.3803 69.1002 83.3072C69.8623 83.1927 70.6393 83.2233 71.3902 83.3972C72.8657 83.8437 74.186 84.6961 75.2002 85.8572C76.2738 86.9043 77.2143 88.0799 78.0002 89.3572L78.1502 89.6072H77.8702C76.4002 89.4272 74.8702 89.2572 73.4302 89.1472L68.9502 88.7772C67.4456 88.4552 66.0789 87.6722 65.0402 86.5372C63.9573 85.4301 63.0683 84.149 62.4102 82.7472L62.4902 82.7772Z" fill="#231F20"/>
<path d="M62.4707 82.7672C64.9807 84.0472 67.6807 85.3172 70.5507 86.5372C73.0707 87.6172 75.5507 88.5372 77.8507 89.4072C76.5407 89.3072 74.6807 89.1472 72.4507 88.8972C70.8928 88.8221 69.3473 88.5807 67.8407 88.1772C66.6007 87.7272 64.4107 86.5272 62.4707 82.7672Z" fill="#1E6F5D"/>
<path d="M62.4102 82.7472C64.8102 83.7472 67.5102 84.8672 70.0902 86.1172C71.3802 86.7172 72.6502 87.2472 73.9402 87.7872C75.2302 88.3272 76.5302 88.7872 77.8502 89.2872L78.6902 89.5872L77.8002 89.5272C74.8002 89.3072 71.8002 89.1972 68.8602 88.6972C67.3288 88.4274 65.9257 87.6697 64.8602 86.5372C63.8111 85.4402 62.9798 84.1541 62.4102 82.7472V82.7472ZM62.4102 82.7472C63.1365 84.0291 64.0461 85.1981 65.1102 86.2172C66.1554 87.2278 67.4786 87.9034 68.9102 88.1572C70.3702 88.3772 71.8502 88.5772 73.3302 88.7272L77.7802 89.2572L77.7302 89.4872C76.4435 88.9339 75.1435 88.4139 73.8302 87.9272C72.5402 87.4272 71.1702 87.0272 69.9102 86.4772C67.5102 85.3972 65.1502 84.0972 62.4902 82.7772L62.4102 82.7472Z" fill="#231F20"/>
<path d="M97.6395 111.457C96.8195 111.907 97.2895 115.147 98.0995 115.287C98.6795 115.397 99.9695 113.997 99.4795 112.677C99.1595 111.797 98.1195 111.187 97.6395 111.457Z" fill="#D1CA73"/>
<path d="M72.9006 94.8272C72.0806 95.2772 72.5606 98.5172 73.3606 98.6572C73.9506 98.7672 75.2306 97.3672 74.7506 96.0472C74.4106 95.1672 73.4106 94.5672 72.9006 94.8272Z" fill="#D1CA73"/>
<path d="M94.4095 89.4672C93.5795 89.9172 94.0595 93.1572 94.8695 93.3072C95.4495 93.4072 96.7395 92.0071 96.2495 90.6971C95.9095 89.8072 94.8695 89.2072 94.4095 89.4672Z" fill="#D1CA73"/>
<path d="M83.8099 113.407C82.9799 113.857 83.4599 117.097 84.2699 117.247C84.8499 117.347 86.1399 115.947 85.6499 114.637C85.3199 113.747 84.2799 113.147 83.8099 113.407Z" fill="#D1CA73"/>
<path d="M92.8895 114.717C92.0695 115.167 92.5395 118.407 93.3495 118.547C93.9295 118.657 95.2195 117.257 94.7295 115.937C94.4095 115.027 93.4095 114.447 92.8895 114.717Z" fill="#D1CA73"/>
<path d="M69.4095 102.477C68.5795 102.927 69.0595 106.167 69.8695 106.317C70.4495 106.417 71.7395 105.017 71.2495 103.707C70.9095 102.827 69.8795 102.217 69.4095 102.477Z" fill="#D1CA73"/>
<path d="M88.2293 86.7772C87.4093 87.2272 87.8793 90.4672 88.6893 90.6072C89.2693 90.7172 90.5593 89.3172 90.0693 87.9972C89.7493 87.1172 88.7093 86.5072 88.2293 86.7772Z" fill="#D1CA73"/>
<path d="M64.4102 36.8972C67.6702 28.5905 70.9368 20.2772 74.2102 11.9572L108.09 9.02716C108.534 10.9605 108.662 12.9529 108.47 14.9272C108.328 16.4568 107.992 17.9622 107.47 19.4072L82.5402 21.5672C80.7802 26.9005 79.0268 32.2605 77.2802 37.6472L64.4102 36.8972Z" fill="white"/>
<path d="M64.4102 37.1872L69.0002 24.7272L71.4002 18.3872C72.2102 16.2772 73.0002 14.1572 73.8502 12.0572L73.9502 11.7972H74.2202C77.0402 11.5672 79.8602 11.3372 82.6902 11.1572L91.1402 10.5572C93.9602 10.3172 96.7802 10.1272 99.6002 9.85716C102.42 9.58716 105.26 9.34716 108.07 9.02716H108.28V9.23716C109.143 12.735 108.966 16.4086 107.77 19.8072L107.68 20.0472H107.43L95.0602 21.2472C90.9202 21.6472 86.7702 21.9872 82.6302 22.3372L83.0702 21.9872C82.1902 24.6672 81.3102 27.3472 80.3902 29.9872L77.6602 37.9872L77.5702 38.2472H77.3102L64.4102 37.1872ZM64.5002 37.1272L77.3502 37.5672L77.0002 37.7972L79.5202 29.7272C80.3602 27.0372 81.2302 24.3472 82.1002 21.6672L82.2102 21.3472H82.5402C86.6802 20.9772 90.8202 20.5972 94.9702 20.2772L107.41 19.2772L107.07 19.5372C108.307 16.2834 108.581 12.7425 107.86 9.33716L108.14 9.52716C105.32 9.71716 102.5 9.94716 99.6802 10.1772C96.8602 10.4072 94.0402 10.6972 91.2202 10.9472L82.7802 11.8372C79.9702 12.1472 77.1502 12.3972 74.3302 12.6572L74.7002 12.3772C73.9202 14.4372 73.0702 16.4672 72.2502 18.5172L69.7402 24.6572L64.5002 37.1272Z" fill="#231F20"/>
<path d="M80.2002 109.887C81.5589 109.887 82.6602 108.786 82.6602 107.427C82.6602 106.069 81.5589 104.967 80.2002 104.967C78.8416 104.967 77.7402 106.069 77.7402 107.427C77.7402 108.786 78.8416 109.887 80.2002 109.887Z" fill="#231F20" stroke="#231F20" stroke-width="0.75" stroke-miterlimit="10"/>
<path d="M75.2305 105.787C76.074 103.529 77.7683 101.691 79.9505 100.667" stroke="#231F20" stroke-miterlimit="10" stroke-linecap="round"/>
<path d="M90.4902 96.9072C91.585 96.4926 92.7501 96.2956 93.9202 96.3272C95.1365 96.3546 96.3357 96.6195 97.4502 97.1072" stroke="#231F20" stroke-miterlimit="10" stroke-linecap="round"/>
<path d="M94.9795 104.707C96.3382 104.707 97.4395 103.606 97.4395 102.247C97.4395 100.889 96.3382 99.7872 94.9795 99.7872C93.6209 99.7872 92.5195 100.889 92.5195 102.247C92.5195 103.606 93.6209 104.707 94.9795 104.707Z" fill="#231F20" stroke="#231F20" stroke-width="0.75" stroke-miterlimit="10"/>
<path d="M86.5898 107.537C87.3741 107.695 88.1865 107.636 88.9398 107.367C89.7035 107.074 90.3666 106.567 90.8498 105.907" stroke="#231F20" stroke-miterlimit="10" stroke-linecap="round"/>
</g>
<defs>
<clipPath id="clip0">
<rect width="138" height="143" fill="white"/>
</clipPath>
</defs>
</svg>
