<svg width="600" height="600" viewBox="0 0 600 600" fill="none" xmlns="http://www.w3.org/2000/svg">
<path d="M170.424 395.883C170.764 397.996 171.152 400.021 171.54 402.046C141.928 426.094 97.0882 429.47 64.2372 410.114C58.7416 406.82 53.442 402.95 49.381 398.043C38.9266 385.387 37.3736 366.729 43.3277 351.424C49.2818 336.119 61.8963 324.053 76.3092 316.245C99.5431 303.642 135.976 306.192 160.86 315.023C170.827 319.925 180.915 323.757 191.043 326.248L191.219 326.342C186.395 332.151 182.181 338.514 178.719 345.168C174.31 353.583 171.181 362.574 169.963 372.023C168.832 380.043 169.137 387.926 170.424 395.883Z" fill="#EAEAEA"/>
<path d="M237.892 285.124L237.573 285.294C228.287 292.223 218.953 299.241 210.182 306.902C204.761 311.708 199.469 316.697 194.746 322.106C193.541 323.502 192.337 324.898 191.132 326.295L190.956 326.2C180.964 323.669 170.741 319.878 160.774 314.976C120.953 295.279 85.053 257.937 74.5146 217.762C72.1026 208.519 70.5977 198.856 72.4862 189.426C75.3729 174.971 86.3347 162.811 99.5906 156.312C112.846 149.812 128.145 148.384 142.911 149.848C179.135 153.421 210.363 174.743 229.4 205.862L230.863 206.307C223.164 232.254 225.639 260.603 237.892 285.124Z" fill="#EAEAEA"/>
<path d="M369.706 416.922C370.199 415.371 370.827 413.779 371.232 412.18L372.425 412.707C386.303 421.527 401.282 426.398 417.051 428.742C443.006 439.171 461.142 461.404 468.439 488.598C472.196 502.31 472.318 517.928 464.498 529.733C458.268 539.213 447.443 545.203 436.243 547.244C425.042 549.285 413.453 547.825 402.491 544.773C365.571 534.469 335.118 508.114 321.407 472.365L319.998 471.607C326.003 468.25 331.75 464.527 337.198 460.303C349.334 450.817 359.524 439.037 366.285 425.188C367.529 422.451 368.685 419.666 369.706 416.922Z" fill="#EAEAEA"/>
<path d="M416.964 428.695C401.283 426.398 386.304 421.528 372.338 412.66L371.145 412.133C375.231 397.981 375.638 382.647 371.888 368.711C369.354 359.062 364.876 350.072 358.212 342.404L358.171 342.268C378.933 337.645 398.491 326.813 413.797 309.949C419.393 303.761 424.06 297.187 428.024 290.235L428.464 290.471C446.186 287.28 464.724 288.274 481.979 293.346C490.806 295.932 499.336 299.495 507.44 303.85C526.649 313.945 544.427 328.607 552.558 348.756C560.6 368.858 556.436 394.775 538.837 407.455C533.077 411.625 526.205 414.062 519.515 416.37C495.16 424.511 469.753 430.384 444.071 430.433C434.853 430.475 425.784 430.028 416.964 428.695Z" fill="#EAEAEA"/>
<path d="M343.486 130.032L343.473 130.479C335.711 129.713 327.922 129.842 320.242 130.823L320.127 130.194C328.053 123.895 331.464 112.9 330.284 102.843C329.103 92.7864 323.738 83.5459 316.844 76.0947C309.95 68.6436 301.533 62.7583 293.15 57.2318C293.15 57.2318 293.15 57.2318 293.062 57.1845C295.174 55.3676 297.238 53.6388 299.438 51.8693C299.986 51.4827 300.494 50.9608 301.212 50.8925C301.482 50.811 301.706 50.8176 301.882 50.9122C302.505 51.0201 303.034 51.3041 303.515 51.6762C330.22 67.0486 346.501 99.0706 343.486 130.032Z" fill="black"/>
<path d="M482.812 125.323C483.241 127.484 483.534 129.684 483.962 131.845C465.315 129.998 445.227 129.987 429.319 139.943C420.932 145.199 414.165 153.143 410.319 162.201C408.93 160.773 407.493 159.434 406.056 158.094C403.399 155.644 400.647 153.371 397.801 151.274L398.687 150.047C410.279 130.166 433.337 117.468 456.311 118.234C464.222 118.512 472.134 120.266 479.823 122.014C480.222 122.115 480.534 122.169 480.886 122.358C481.15 122.5 481.327 122.595 481.591 122.737C482.377 123.387 482.615 124.423 482.812 125.323Z" fill="black"/>
<path d="M227.092 490.703C235.587 493.906 248.438 496.611 257.384 495.175C232.801 506.486 211.414 524.736 196.519 547.383C202.321 528.137 204.57 504.938 200.361 485.307C199.416 480.939 198.248 476.565 196.896 472.319L197.844 472.034C202.475 477.361 207.937 481.772 214.191 485.133C218.243 487.31 222.667 489.006 227.092 490.703Z" fill="black"/>
<path d="M366.245 425.052C359.484 438.902 349.294 450.682 337.158 460.167C275.673 466.632 211.75 441.931 170.424 395.883L170.289 395.924C169.09 388.014 168.698 380.083 169.781 372.151C170.999 362.702 174.128 353.712 178.537 345.296L179.241 345.675C188.055 363.921 206.188 375.595 223.556 385.95C245.762 399.132 268.651 411.886 293.588 418.93C318.389 426.014 345.786 427 369.612 417.098C368.686 419.666 367.53 422.451 366.245 425.052Z" fill="black"/>
<path d="M371.975 368.758L369.869 368.875C355.336 379.229 335.565 377.573 317.946 374.235C296.411 370.156 274.842 364.241 255.929 353.169C237.064 342.01 217.215 327.824 210.221 307.037C218.993 299.376 228.326 292.359 237.613 285.429L237.931 285.259C243.718 296.884 251.814 307.591 261.92 316.882C288.978 341.526 325.152 349.84 358.252 342.538L358.292 342.674C364.828 350.159 369.393 359.197 371.975 368.758Z" fill="black"/>
<path d="M481.509 120.99C485.954 115.886 491.016 111.114 497.143 108.163C503.27 105.211 510.591 104.264 516.865 106.954C518.809 107.772 520.653 108.989 522.455 110.072C526.189 112.419 530.18 115.131 531.803 119.295C533.215 123.006 532.324 127.409 530.166 130.79C528.009 134.172 524.713 136.714 521.213 138.58C515.391 141.808 508.585 143.487 502.076 142.714C495.478 141.893 489.048 138.437 485.454 132.873L484.146 131.716C483.717 129.556 483.336 127.307 482.996 125.195C482.846 124.206 482.608 123.17 481.822 122.52C481.557 122.378 481.381 122.284 481.117 122.142L481.509 120.99Z" fill="#F0EF00"/>
<path d="M301.129 50.6219C300.5 50.7375 299.904 51.2121 299.356 51.5986C297.244 53.4155 295.18 55.1443 292.98 56.9139C292.98 56.9139 292.98 56.9139 293.068 56.9612L292.554 57.7067C281.041 58.2175 269.454 52.1045 263.255 42.3026C260.692 38.2004 258.995 33.5421 257.745 28.897C257.588 28.1318 257.344 27.3192 257.722 26.6145C258.054 25.9979 258.69 25.6587 259.327 25.3196C265.088 22.6259 271.935 22.5592 278.012 24.349C284.177 26.186 289.619 29.7914 294.323 34.1356C298.721 38.2025 302.675 43.7326 301.962 49.7068L301.841 50.777C301.624 50.5469 301.4 50.5404 301.129 50.6219Z" fill="#F0EF00"/>
<path d="M171.54 402.045C171.064 399.973 170.676 397.948 170.424 395.883L170.559 395.842C211.75 441.931 275.808 466.591 337.293 460.126C331.933 464.397 326.186 468.12 320.093 471.431C313.953 474.829 307.514 477.726 300.865 480.17C289.693 484.27 277.979 487.057 266.76 491.245C263.638 492.406 260.422 493.743 257.382 495.175C248.437 496.611 235.586 493.906 227.091 490.703C222.666 489.007 218.154 487.263 214.014 485.038C207.848 481.725 202.297 477.266 197.667 471.94L196.719 472.225C192.135 457.728 185.656 443.802 180.077 429.678C176.716 420.72 173.498 411.498 171.54 402.045Z" fill="#F0EF00"/>
<path d="M371.234 412.18C370.829 413.779 370.2 415.371 369.707 416.922C345.881 426.824 318.532 425.749 293.683 418.753C268.746 411.71 245.945 399.003 223.651 385.774C206.284 375.419 188.15 363.745 179.337 345.499L178.632 345.12C182.094 338.467 186.396 332.151 191.132 326.295C192.249 324.851 193.453 323.455 194.746 322.106C199.604 316.657 204.761 311.708 210.182 306.902C217.175 327.689 237.025 341.875 255.89 353.034C274.802 364.106 296.324 370.109 317.906 374.1C335.525 377.438 355.249 379.182 369.829 368.74L371.935 368.623C375.679 382.782 375.319 398.028 371.234 412.18Z" fill="#F0EF00"/>
<path d="M410.409 162.248C444.6 196.856 451.017 249.347 428.112 290.281C424.237 297.281 419.481 303.807 413.885 309.995C398.579 326.859 379.021 337.692 358.259 342.315C325.201 349.752 289.074 341.35 261.928 316.658C251.686 307.408 243.726 296.66 237.939 285.036C225.599 260.467 223.211 232.165 230.87 206.084C235.246 191.18 243.003 176.957 254.236 164.716C272.174 145.066 295.734 133.546 320.249 130.6C327.929 129.618 335.717 129.49 343.48 130.255C362.709 132.075 381.564 139.028 397.849 151.185C400.696 153.283 403.447 155.556 406.104 158.005C407.582 159.481 409.107 160.868 410.409 162.248Z" fill="#F0EF00"/>
<path d="M428.112 290.281C424.237 297.281 419.481 303.807 413.885 309.995C398.579 326.859 379.021 337.692 358.259 342.315C325.201 349.752 289.074 341.35 261.928 316.658C251.686 307.408 243.726 296.66 237.939 285.036C225.599 260.467 223.211 232.165 230.87 206.084C235.246 191.18 243.003 176.957 254.236 164.716C272.174 145.066 295.734 133.546 320.249 130.6C327.929 129.618 335.717 129.49 343.48 130.255C362.709 132.075 381.564 139.028 397.849 151.185C400.696 153.283 403.447 155.556 406.104 158.005C407.541 159.345 409.066 160.732 410.368 162.113C444.6 196.856 451.017 249.347 428.112 290.281Z" stroke="black" stroke-width="5" stroke-miterlimit="10" stroke-linecap="round" stroke-linejoin="round"/>
<path d="M428.551 290.519C446.273 287.327 464.811 288.321 482.066 293.393C490.893 295.98 499.423 299.542 507.527 303.897C526.736 313.993 544.514 328.654 552.644 348.804C560.687 368.906 556.523 394.822 538.924 407.502C533.164 411.672 526.292 414.109 519.602 416.418C495.247 424.559 469.84 430.432 444.157 430.48C434.94 430.522 425.918 429.988 417.139 428.789C401.458 426.493 386.479 421.622 372.513 412.755" stroke="black" stroke-width="5" stroke-miterlimit="10" stroke-linecap="round" stroke-linejoin="round"/>
<path d="M160.861 315.023C170.828 319.925 180.916 323.757 191.043 326.248" stroke="black" stroke-width="5" stroke-miterlimit="10" stroke-linecap="round" stroke-linejoin="round"/>
<path d="M229.447 205.774C210.497 174.702 179.182 153.333 142.958 149.76C128.192 148.296 112.893 149.724 99.6374 156.224C86.3816 162.723 75.4198 174.883 72.5331 189.339C70.6919 198.68 72.1494 208.432 74.5615 217.674C85.0998 257.849 121.088 295.239 160.821 314.888" stroke="black" stroke-width="5" stroke-miterlimit="10" stroke-linecap="round" stroke-linejoin="round"/>
<path d="M237.572 285.294C228.286 292.224 218.952 299.241 210.18 306.902C204.759 311.708 199.467 316.698 194.744 322.106C193.54 323.503 192.335 324.899 191.131 326.295C186.307 332.103 182.093 338.467 178.631 345.121C174.222 353.536 171.093 362.526 169.875 371.975C168.792 379.907 169.137 387.926 170.383 395.748C170.723 397.861 171.111 399.885 171.499 401.91C173.457 411.363 176.628 420.673 180.124 429.59C185.655 443.802 192.182 457.64 196.766 472.137C198.118 476.382 199.286 480.757 200.231 485.125C204.44 504.755 202.19 527.954 196.389 547.201" stroke="black" stroke-width="5" stroke-miterlimit="10" stroke-linecap="round" stroke-linejoin="round"/>
<path d="M196.431 547.336C211.326 524.689 232.713 506.438 257.296 495.128C260.336 493.696 263.504 492.447 266.673 491.198C277.892 487.01 289.519 484.176 300.779 480.123C307.38 477.767 313.866 474.782 320.006 471.384C326.011 468.026 331.758 464.303 337.206 460.079C349.342 450.593 359.532 438.814 366.294 424.964C367.578 422.363 368.687 419.666 369.707 416.922C370.2 415.371 370.829 413.779 371.234 412.18C375.32 398.028 375.727 382.694 371.976 368.758C369.442 359.109 364.965 350.119 358.3 342.451" stroke="black" stroke-width="5" stroke-miterlimit="10" stroke-linecap="round" stroke-linejoin="round"/>
<path d="M160.861 315.023C136.025 306.104 99.4559 303.594 76.222 316.198C61.8091 324.005 49.1473 336.16 43.2405 351.376C37.2865 366.681 38.8395 385.339 49.2938 397.996C53.3549 402.903 58.6072 406.86 64.15 410.066C96.9537 429.511 141.794 426.134 171.452 401.998C171.5 401.91 171.635 401.869 171.683 401.781" stroke="black" stroke-width="5" stroke-miterlimit="10" stroke-linecap="round" stroke-linejoin="round"/>
<path d="M415.107 427.924C415.771 428.167 416.347 428.363 416.964 428.695C442.919 439.123 461.055 461.357 468.352 488.551C472.109 502.263 472.23 517.881 464.411 529.686C458.181 539.166 447.356 545.155 436.156 547.197C424.955 549.238 413.365 547.778 402.404 544.726C365.484 534.421 335.031 508.066 321.32 472.317" stroke="black" stroke-width="5" stroke-miterlimit="10" stroke-linecap="round" stroke-linejoin="round"/>
<path d="M210.27 306.949C217.263 327.735 237.113 341.922 255.978 353.081C274.89 364.152 296.413 370.155 317.994 374.147C335.613 377.485 355.337 379.229 369.917 368.787" stroke="black" stroke-width="5" stroke-miterlimit="10" stroke-linecap="round" stroke-linejoin="round"/>
<path d="M179.337 345.499C188.15 363.744 206.284 375.419 223.652 385.774C245.857 398.956 268.747 411.71 293.683 418.753C318.485 425.837 345.882 426.823 369.707 416.922L369.843 416.881" stroke="black" stroke-width="5" stroke-miterlimit="10" stroke-linecap="round" stroke-linejoin="round"/>
<path d="M170.473 395.795C211.663 441.884 275.721 466.544 337.207 460.079C337.207 460.079 337.207 460.079 337.342 460.038" stroke="black" stroke-width="5" stroke-miterlimit="10" stroke-linecap="round" stroke-linejoin="round"/>
<path d="M197.667 471.939C202.297 477.265 207.76 481.677 214.014 485.038C218.242 487.31 222.666 489.006 227.091 490.702C235.586 493.906 248.437 496.611 257.383 495.174" stroke="black" stroke-width="5" stroke-miterlimit="10" stroke-linecap="round" stroke-linejoin="round"/>
<path d="M410.307 162.649C410.354 162.56 410.449 162.384 410.496 162.296C414.39 153.15 421.02 145.247 429.496 140.038C445.404 130.082 465.445 130.181 484.139 131.94C483.711 129.779 483.329 127.531 482.989 125.418C482.839 124.43 482.601 123.394 481.815 122.744C481.551 122.602 481.375 122.507 481.11 122.365C480.758 122.176 480.447 122.122 480.047 122.021C472.27 120.226 464.446 118.519 456.535 118.241C433.473 117.427 410.503 130.173 398.911 150.054" stroke="black" stroke-width="5" stroke-miterlimit="10" stroke-linecap="round" stroke-linejoin="round"/>
<path d="M320.174 130.106C328.099 123.807 331.511 112.812 330.33 102.755C329.15 92.6985 323.785 83.458 316.891 76.0069C309.997 68.5557 301.58 62.6704 293.197 57.1439C293.197 57.1439 293.197 57.1439 293.109 57.0966C295.221 55.2797 297.285 53.5509 299.485 51.7814C300.033 51.3948 300.541 50.8729 301.258 50.8046C301.529 50.7231 301.753 50.7297 301.929 50.8243C302.552 50.9322 303.081 51.2162 303.562 51.5883C330.301 67.3196 346.582 99.3416 343.615 130.215" stroke="black" stroke-width="5" stroke-miterlimit="10" stroke-linecap="round" stroke-linejoin="round"/>
<path d="M481.509 120.99C485.954 115.886 491.016 111.114 497.143 108.163C503.27 105.211 510.591 104.264 516.865 106.954C518.809 107.772 520.653 108.989 522.455 110.072C526.189 112.419 530.18 115.131 531.803 119.295C533.215 123.006 532.324 127.409 530.166 130.79C528.009 134.172 524.713 136.714 521.213 138.58C515.391 141.808 508.585 143.487 502.076 142.714C495.478 141.893 489.048 138.437 485.454 132.873" stroke="black" stroke-width="5" stroke-miterlimit="10" stroke-linecap="round" stroke-linejoin="round"/>
<path d="M302.057 49.531C302.858 43.6041 298.817 38.0267 294.418 33.9599C289.714 29.6156 284.273 26.0102 278.108 24.1732C271.943 22.3361 265.184 22.4501 259.422 25.1438C258.786 25.483 258.15 25.8221 257.818 26.4387C257.439 27.1434 257.637 28.0441 257.84 28.7212C259.09 33.3663 260.788 38.0246 263.351 42.1268C269.55 51.9287 281.048 57.9944 292.65 57.5309" stroke="black" stroke-width="5" stroke-miterlimit="10" stroke-linecap="round" stroke-linejoin="round"/>
<g opacity="0.62">
<path opacity="0.62" d="M214.865 190.446C204.934 179.773 194.657 168.688 181.275 162.746C175.225 160.062 168.783 158.53 162.246 157.174C150.107 154.624 137.724 152.738 125.304 153.669C112.883 154.601 100.465 158.485 90.9692 166.438C81.9337 173.957 75.9693 185.055 74.5093 196.645C73.0493 208.235 76.2225 220.498 83.1455 230.008C78.6054 210.993 87.6902 189.651 104.404 179.674C120.888 169.914 141.695 171.333 160.203 176.397C178.711 181.461 196.273 189.764 215.145 193.094C215.171 192.2 214.574 191.198 213.829 190.684" fill="white"/>
</g>
<g opacity="0.62">
<path opacity="0.62" d="M139.131 311.519C114.953 313.625 91.0149 325.85 78.2789 346.592C65.5903 367.247 66.2514 396.437 82.6363 414.324C68.971 408.91 54.2144 402.57 47.4848 389.531C41.9831 378.855 43.2591 365.918 46.4191 354.333C47.8236 349.185 49.5396 344.09 52.2246 339.516C58.4874 328.918 69.474 321.994 80.8824 317.453C100.213 309.791 121.83 308.012 142.098 312.546" fill="white"/>
</g>
<g opacity="0.62">
<path opacity="0.62" d="M376.46 386.608C428.35 406.66 485.728 412.064 540.43 401.954C527.809 414.243 509.519 418.492 492.109 421.737C465.97 426.649 439.051 430.688 412.843 425.799C407.37 424.788 402.086 423.424 396.862 421.525C389.423 418.89 382.234 415.368 375.749 410.747C379.644 403.077 380.32 393.791 377.516 385.7" fill="white"/>
</g>
<g opacity="0.62">
<path opacity="0.62" d="M323.677 472.789C330.306 471.016 336.616 467.936 342.017 463.8C339.436 470.927 344.63 478.373 349.701 483.936C365.876 501.369 385.313 515.901 406.839 526.334C422.233 533.812 440.057 539.303 456.443 534.372C446.353 544.276 431.205 548.169 417.11 546.725C403.014 545.281 389.728 539.162 377.828 531.519C355.655 517.22 337.23 497.215 324.803 474.075" fill="white"/>
</g>
<path d="M304.335 232.703C314.276 232.666 322.297 222.473 322.251 209.937C322.205 197.4 314.108 187.267 304.168 187.304C294.227 187.34 286.205 197.533 286.252 210.07C286.298 222.606 294.394 232.739 304.335 232.703Z" fill="black"/>
<path d="M311.043 214.699C316.013 214.681 320.024 209.562 320.001 203.266C319.977 196.97 315.929 191.881 310.959 191.899C305.988 191.918 301.978 197.036 302.001 203.332C302.024 209.628 306.072 214.717 311.043 214.699Z" fill="white"/>
<path d="M297.089 216.58C296.256 217.495 296.081 218.877 296.495 220.008C296.95 221.274 298.435 222.526 299.755 221.759C301.027 221.081 301.785 219.672 301.96 218.29C302.074 217.443 301.823 216.854 301.213 216.299C300.603 215.744 299.851 215.454 299.045 215.475C297.568 215.476 296.106 216.507 296.02 217.936C295.987 219.053 296.448 220.096 297.275 220.881C298.102 221.666 299.389 222.017 300.479 221.468C301.434 220.959 302.002 219.902 301.899 218.825C301.797 217.748 301.071 216.564 300.055 216.131C298.862 215.604 297.42 215.964 296.845 217.244C296.555 217.996 296.664 218.85 297.457 219.276C298.073 219.607 299.197 219.416 299.488 218.664C299.63 218.4 299.583 218.488 299.4 218.617C299.217 218.746 298.946 218.827 298.723 218.821C299.034 218.875 298.458 218.679 298.723 218.821C298.987 218.963 298.458 218.679 298.723 218.821C298.811 218.868 298.811 218.868 298.851 219.004C298.723 218.821 298.723 218.821 298.851 219.004C298.851 219.004 299.062 219.457 298.94 219.051C298.98 219.186 298.974 219.41 299.028 219.098C299.068 219.234 299.068 219.234 299.028 219.098C298.98 219.186 298.98 219.186 299.028 219.098C299.075 219.01 299.075 219.01 299.028 219.098C299.075 219.01 299.122 218.922 299.258 218.881C299.075 219.01 299.393 218.841 299.481 218.888C299.122 218.922 299.752 218.806 299.481 218.888C299.657 218.983 299.657 218.983 299.481 218.888C299.393 218.841 299.305 218.793 299.481 218.888C299.746 219.03 299.224 218.522 299.393 218.841C299.352 218.705 299.264 218.658 299.136 218.475C299.217 218.746 299.095 218.34 299.095 218.34C299.129 218.699 299.196 217.94 299.142 218.252C299 218.516 298.905 218.692 298.763 218.956C298.905 218.692 298.905 218.692 299.041 218.651C298.858 218.78 299.312 218.57 299.041 218.651C298.905 218.692 299.129 218.699 299.041 218.651C299.129 218.699 299.217 218.746 299.217 218.746C299.136 218.475 299.054 218.204 299.013 218.069C298.994 218.739 298.709 219.268 298.209 219.566C298.479 219.485 298.75 219.403 298.886 219.363C298.886 219.363 299.462 219.558 299.414 219.647L299.285 219.464C299.414 219.647 299.333 219.376 299.245 219.328C299.163 219.058 299.285 219.464 299.292 219.24C299.292 219.24 299.258 218.881 299.299 219.017C299.339 219.152 299.305 218.793 299.299 219.017C299.251 219.105 299.021 219.322 299.299 219.017C300.604 217.221 298.381 215.232 297.089 216.58Z" fill="white"/>
<path d="M379.047 256.798C388.963 257.508 397.728 247.947 398.625 235.441C399.521 222.936 392.209 212.222 382.293 211.511C372.377 210.801 363.611 220.362 362.715 232.868C361.819 245.373 369.131 256.087 379.047 256.798Z" fill="black"/>
<path d="M387.119 239.314C392.077 239.669 396.461 234.866 396.911 228.586C397.361 222.306 393.707 216.927 388.749 216.571C383.791 216.216 379.407 221.019 378.956 227.299C378.506 233.579 382.161 238.959 387.119 239.314Z" fill="white"/>
<path d="M372.944 240.202C372.024 241.07 371.849 242.452 372.216 243.671C372.582 244.89 373.843 246.135 375.292 245.551C376.605 245.008 377.586 243.605 377.849 242.271C378.011 241.336 377.807 240.659 377.109 240.057C376.675 239.597 376.059 239.265 375.436 239.157C374.101 238.894 372.334 239.648 372.024 241.07C371.72 242.269 372.175 243.535 373.042 244.456C373.781 245.193 374.886 245.673 375.969 245.347C377.188 244.981 377.939 243.795 377.884 242.63C377.828 241.465 377.143 240.416 376.086 239.848C374.853 239.185 373.452 239.681 372.924 240.873C372.546 241.578 372.831 242.526 373.536 242.904C374.24 243.283 375.188 242.998 375.567 242.293C375.662 242.117 375.662 242.117 375.52 242.381C375.702 242.252 375.567 242.293 375.384 242.422C375.201 242.551 375.066 242.592 374.978 242.544C375.113 242.503 375.113 242.503 374.89 242.497C374.314 242.301 374.89 242.497 374.89 242.497C374.714 242.402 374.626 242.355 374.802 242.449L374.89 242.497C375.019 242.68 374.978 242.544 374.89 242.497C374.978 242.544 374.931 242.632 375.019 242.68C374.937 242.409 374.931 242.632 374.971 242.768C374.89 242.497 375.019 242.68 374.924 242.856C374.931 242.632 374.931 242.632 374.924 242.856C375.019 242.68 375.019 242.68 374.971 242.768C374.924 242.856 374.924 242.856 375.019 242.68C374.836 242.808 374.924 242.856 375.019 242.68C375.019 242.68 375.56 242.517 375.201 242.551C375.425 242.557 375.425 242.557 375.337 242.51C375.249 242.463 375.249 242.463 375.425 242.557C375.337 242.51 375.249 242.463 375.249 242.463C375.425 242.557 375.425 242.557 375.337 242.51C375.073 242.368 375.29 242.598 375.208 242.327C375.12 242.28 375.086 241.921 375.167 242.192C375.079 242.144 375.045 241.786 375.126 242.056C375.086 241.921 375.133 241.833 375.133 241.833C375.174 241.968 375.174 241.968 375.18 241.745C375.038 242.009 374.944 242.185 374.802 242.449C374.849 242.361 375.032 242.233 374.896 242.273C375.032 242.233 375.032 242.233 375.032 242.233C375.079 242.144 375.032 242.233 375.208 242.327C375.12 242.28 375.208 242.327 375.337 242.51C375.303 242.151 375.18 241.745 375.146 241.386C375.032 242.233 374.836 242.808 374.111 243.1C374.382 243.019 374.653 242.937 374.789 242.897C375.012 242.903 375.188 242.998 375.364 243.092C375.188 242.998 375.364 243.092 375.276 243.045C375.147 242.862 375.405 243.228 375.276 243.045C375.276 243.045 375.242 242.686 375.236 242.91C375.195 242.774 375.242 242.686 375.201 242.551C375.242 242.686 375.201 242.551 375.201 242.551C375.208 242.327 375.201 242.551 375.249 242.463C375.431 242.334 375.019 242.68 375.296 242.375C375.939 241.812 375.789 240.823 375.267 240.316C374.44 239.531 373.54 239.728 372.944 240.202Z" fill="white"/>
<path d="M304.125 254.191C303.601 267.419 312.972 280.402 326.134 283.161C339.296 285.92 353.085 278.004 357.924 265.62C359.283 262.036 353.997 259.195 352.639 262.779C348.767 272.732 338.234 279.446 327.47 277.294C316.794 275.19 309.68 264.556 310.125 254.01C310.285 250.123 304.284 250.304 304.125 254.191Z" fill="black"/>
<path opacity="0.71" d="M254.176 253.397C263.621 259.741 274.773 259.679 279.084 253.26C283.394 246.841 279.232 236.495 269.787 230.152C260.342 223.809 249.191 223.871 244.88 230.29C240.569 236.709 244.731 247.054 254.176 253.397Z" fill="#F488B9"/>
<path opacity="0.71" d="M392.11 298.571C403.427 299.736 413.243 294.447 414.035 286.756C414.828 279.065 406.296 271.885 394.979 270.719C383.662 269.553 373.846 274.843 373.054 282.534C372.262 290.225 380.793 297.405 392.11 298.571Z" fill="#F488B9"/>
</svg>
