<svg width="506" height="604" viewBox="0 0 506 604" fill="none" xmlns="http://www.w3.org/2000/svg">
<path d="M167.895 161.107C240.471 110.812 349.926 142.877 412.24 232.795C474.553 322.714 466.227 436.402 393.568 486.754C391.842 487.95 389.977 489.121 388.194 490.235C315.666 535.508 210.056 502.847 149.223 415.066C90.2134 329.914 94.5655 223.482 156.844 169.739C160.365 166.569 164.032 163.784 167.895 161.107ZM381.854 253.731C333.894 184.525 249.759 159.854 193.868 198.587C137.977 237.319 131.536 324.759 179.496 393.965C227.455 463.172 311.59 487.842 367.481 449.11C423.372 410.377 429.814 322.937 381.854 253.731Z" fill="#E34C46"/>
<path d="M216.196 230.806C257.704 202.041 320.281 220.36 355.938 271.812C391.594 323.265 386.856 388.233 345.267 417.054C303.677 445.876 241.182 427.501 205.525 376.048C169.869 324.595 174.689 259.57 216.196 230.806ZM334.757 286.369C309.125 249.382 264.145 236.267 234.31 256.943C204.474 277.619 201.017 324.423 226.592 361.327C252.167 398.232 297.122 411.486 327.04 390.753C356.932 370.159 360.389 323.355 334.757 286.369Z" fill="#E34C46"/>
<path d="M259.884 293.848C272.953 284.791 292.53 290.569 303.751 306.761C314.972 322.953 313.426 343.369 300.439 352.369C287.453 361.369 267.794 355.648 256.573 339.456C245.351 323.264 246.816 302.904 259.884 293.848Z" fill="#E34C46"/>
<path d="M388.136 490.153L388.25 490.317C385.652 492.361 359.976 509.911 357.182 511.848C284.606 562.143 175.15 530.078 112.837 440.159C50.5231 350.241 58.8499 236.553 131.508 186.201C134.96 183.808 153.106 171.72 156.729 169.574C94.4509 223.318 90.0989 329.75 149.109 414.901C209.999 502.765 315.609 535.426 388.136 490.153Z" fill="#052C41"/>
<path d="M156.869 169.6C160.365 166.569 164.032 163.784 167.895 161.107C240.471 110.812 349.926 142.877 412.24 232.795C474.553 322.714 466.227 436.402 393.568 486.754C391.842 487.95 389.977 489.121 388.194 490.235C315.666 535.508 210.056 502.847 149.223 415.066C90.2134 329.914 94.5655 223.482 156.869 169.6Z" stroke="black" stroke-width="4" stroke-miterlimit="10"/>
<path d="M388.25 490.317C385.652 492.361 359.976 509.911 357.182 511.848C284.606 562.143 175.15 530.078 112.837 440.159C50.5231 350.241 58.8499 236.553 131.508 186.201C134.96 183.808 153.106 171.72 156.729 169.574" stroke="black" stroke-width="4" stroke-miterlimit="10"/>
<path d="M381.854 253.731C429.814 322.937 423.372 410.377 367.481 449.11C311.59 487.842 227.456 463.172 179.496 393.966C131.536 324.759 137.978 237.319 193.868 198.587C249.759 159.855 333.894 184.525 381.854 253.731Z" stroke="black" stroke-width="4" stroke-miterlimit="10"/>
<path d="M355.938 271.812C391.594 323.265 386.856 388.233 345.267 417.054C303.677 445.876 241.182 427.501 205.525 376.048C169.869 324.595 174.607 259.627 216.196 230.806C257.786 201.984 320.281 220.36 355.938 271.812Z" stroke="black" stroke-width="4" stroke-miterlimit="10"/>
<path d="M334.757 286.369C360.389 323.356 356.875 370.077 327.039 390.753C297.203 411.429 252.166 398.232 226.592 361.328C201.017 324.423 204.391 277.677 234.309 256.943C264.145 236.267 309.182 249.464 334.757 286.369Z" stroke="black" stroke-width="4" stroke-miterlimit="10"/>
<path d="M303.751 306.761C314.972 322.953 313.426 343.369 300.439 352.369C287.453 361.369 267.794 355.648 256.573 339.456C245.351 323.264 246.898 302.848 259.884 293.848C272.871 284.848 292.587 290.651 303.751 306.761Z" stroke="black" stroke-width="4" stroke-miterlimit="10"/>
<path d="M493.21 134.221L442.86 200.26L395.053 188.86L438.424 128.023L439.658 128.75L493.21 134.221Z" fill="#E34C46"/>
<path d="M429.292 104.665C447.065 93.4429 448.706 113.719 448.706 113.719L438.48 128.105L395.052 188.861L308.254 310.453L278.203 331.521L288.255 296.694L376.439 176.574L423.496 112.453L429.292 104.665Z" fill="#0B3E54"/>
<path d="M401.519 56.5092L423.472 112.591L376.498 176.656L352.633 103.77L401.519 56.5092Z" fill="#E34C46"/>
<path d="M376.497 176.656L288.313 296.775L278.26 331.603L308.311 310.534L395.052 188.86L438.505 127.966L448.731 113.579C448.731 113.579 447.008 93.3599 429.317 104.525L423.496 112.452L376.497 176.656Z" stroke="black" stroke-width="4" stroke-miterlimit="10" stroke-linecap="round" stroke-linejoin="round"/>
<path d="M376.498 176.656L352.633 103.77L401.519 56.5092L423.472 112.591" stroke="black" stroke-width="4" stroke-miterlimit="10"/>
<path d="M439.657 128.75L493.21 134.22L442.859 200.26L395.053 188.86" stroke="black" stroke-width="4" stroke-miterlimit="10"/>
<path d="M270.277 341.15C277.851 333.469 290.645 333.849 298.188 341.397C300.504 343.685 303.652 339.8 301.393 337.594C291.844 328.029 275.875 328.511 266.393 338.002C264.187 340.261 267.989 343.466 270.277 341.15Z" fill="black"/>
<path d="M273.61 338.233C281.303 327.914 280.24 313.564 271.198 304.379C268.964 302.034 265.734 305.975 267.993 308.182C275.029 315.35 275.654 326.962 269.751 334.946C267.83 337.616 271.632 340.821 273.61 338.233Z" fill="black"/>
</svg>
