<svg width="35" height="27" viewBox="0 0 35 27" fill="none" xmlns="http://www.w3.org/2000/svg">
<g clip-path="url(#clip0)">
<path d="M12.874 0.538841C7.71307 2.11166 6.03079 8.40292 5.4035 10.733C4.19169 15.2476 4.90452 19.2087 5.56032 21.5097C5.56032 21.6845 5.56032 22.4709 5.00431 22.9952C4.41979 23.5485 3.63568 23.4612 3.29352 23.4175C1.92489 23.2719 1.31185 22.267 1.06949 22.4418C0.713073 22.7039 1.26908 25.3544 3.12244 26.1262C4.5481 26.7233 6.41572 26.0825 7.62753 24.466C7.9982 24.932 8.86786 25.8495 10.1367 26.0097C12.1041 26.2573 14.3139 24.6117 15.1693 21.8155C16.4666 23.432 18.5053 24.2184 20.5155 23.8689C22.54 23.5194 24.2365 22.0631 24.9208 20.0825C25.5338 21.568 26.931 22.5583 28.4707 22.6019C29.9391 22.6456 30.9514 21.4369 32.32 19.8495C32.3913 19.7767 33.7171 18.233 33.4463 17.9272C33.1611 17.5922 31.5501 19.2816 29.7823 18.9029C29.0695 18.7573 28.4707 18.2913 27.8149 17.4757C25.6479 14.7816 26.0328 12.0146 24.7212 8.3301C24.0369 6.40777 22.9391 3.30583 20.0593 1.52913C19.8312 1.36894 16.5522 -0.582519 12.874 0.538841Z" fill="url(#paint0_linear)"/>
<path d="M12.9171 0.670616C11.9904 0.991004 11.135 1.45702 10.3652 2.06867C9.62383 2.70945 8.99653 3.46673 8.4833 4.29683C7.44256 5.97159 6.90081 7.89392 6.48737 9.80168C6.07393 11.7677 5.88859 13.6318 5.95987 15.5395C6.0169 17.4328 6.28778 19.3114 6.7725 21.1463L6.81527 21.3211V21.4667C6.81527 21.991 6.71548 22.4861 6.48737 22.9959C6.25926 23.5056 5.84582 23.9716 5.34684 24.2483C4.84786 24.5395 4.30611 24.6415 3.84989 24.6269C3.37943 24.6124 3.03727 24.5541 2.58106 24.423C2.15336 24.292 1.75417 24.0881 1.42627 23.8551C1.25519 23.7386 1.09837 23.6221 0.970058 23.5056L0.813235 23.3745C0.813235 23.3308 0.699182 23.3745 1.11262 23.4328C1.76843 23.4473 1.98228 22.7774 1.93951 22.8502C1.95376 22.7337 1.93951 22.8211 1.93951 22.8211C1.93951 22.8939 1.93951 23.0104 1.95376 23.1269C1.98228 23.3745 2.05356 23.6366 2.1391 23.8842C2.50977 24.9036 3.26537 25.69 4.33462 25.7046C5.40387 25.7628 6.53014 25.1075 7.25723 24.1755L7.6279 23.7095L7.98431 24.1609C8.46904 24.7726 9.08207 25.2677 9.76639 25.4861C10.465 25.69 11.2206 25.5735 11.9049 25.2531C13.2735 24.5832 14.2145 23.1415 14.5709 21.6269L14.8417 20.491L15.6544 21.4085C16.8519 22.7774 18.7623 23.3308 20.3876 22.8939C22.0271 22.4861 23.3102 21.1755 23.7664 19.6463L24.6646 16.6463L26.0617 19.5735C26.3326 20.1561 26.7888 20.6366 27.3305 20.9133C27.8438 21.2046 28.5851 21.2774 28.8988 21.1318C29.298 21.0007 29.854 20.4764 30.41 19.8357C30.966 19.1803 31.5933 18.4667 31.9354 17.8696C32.021 17.7677 32.0923 17.5056 32.0067 17.8114C31.9925 17.8551 31.9782 18.0298 31.9925 18.1318L32.0067 18.2192C32.021 18.2774 32.0352 18.3502 32.0495 18.423C32.0923 18.5541 32.1493 18.6997 32.2348 18.8017C32.3774 19.0201 32.691 19.2823 33.0047 19.3551C33.2185 19.4133 33.3041 19.4133 33.4609 19.3988C33.7745 19.3551 33.6747 19.3405 33.6462 19.3696C33.3611 19.5153 32.8764 19.8065 32.3631 20.025C31.8356 20.2434 31.2369 20.4328 30.5525 20.4764C29.8682 20.5201 29.1126 20.3745 28.4711 20.0395C27.188 19.326 26.632 18.4085 26.0332 17.5201C25.4629 16.5881 25.0637 15.5687 24.8071 14.5784C24.3224 12.5832 24.1941 10.8502 23.7664 9.17547C23.3102 7.44246 22.8682 5.73858 21.9701 4.28227C20.3305 1.29683 16.353 -0.319676 12.9171 0.670616ZM12.8316 0.393917C14.5994 -0.174045 16.5098 -0.0866659 18.3061 0.379353C20.1167 0.801684 21.8703 1.87935 23.1534 3.37935C24.4507 4.87935 25.3346 6.67062 26.0332 8.41819C26.7745 10.2386 27.0882 12.2046 27.5729 13.7628C27.801 14.5638 28.1147 15.2483 28.5281 15.8599C28.9273 16.4862 29.5118 17.0978 29.854 17.258C30.1676 17.4182 30.5525 17.4328 31.1941 17.1561C31.522 17.025 31.8071 16.8502 32.3346 16.5735C32.5057 16.5007 32.6198 16.3988 33.1615 16.326C33.3754 16.3114 33.5179 16.3114 33.7888 16.3696C34.1452 16.4716 34.5301 16.7483 34.687 17.0104C35.1004 17.7094 34.9721 18.0735 34.9578 18.3357C34.7582 19.0929 34.5872 19.224 34.4303 19.5153C33.7745 20.4619 33.1473 21.1027 32.4914 21.8017C31.8214 22.4861 31.0515 23.3308 29.7114 23.7823C28.2857 24.1755 27.1167 23.826 26.0475 23.2434C24.9925 22.6463 24.1941 21.6561 23.7664 20.5347L26.0617 20.4619C25.2063 22.8211 23.025 24.525 20.687 24.7871C18.3489 25.0929 15.9823 24.0298 14.6707 22.1949L15.7542 21.9764C15.1269 23.6949 13.9721 25.2823 12.2613 26.0541C11.4344 26.4473 10.4365 26.5638 9.50977 26.3017C8.58309 26.0395 7.82749 25.4425 7.24297 24.7434L7.98431 24.758C7.15743 25.9085 5.90285 26.826 4.36313 26.9862C3.60753 27.0735 2.76639 26.8696 2.08207 26.4182C1.41201 25.9667 0.898775 25.326 0.542359 24.6415C0.357023 24.292 0.214457 23.9279 0.11466 23.5201C0.057634 23.3162 0.0148641 23.0978 0.000607506 22.8502C0.000607506 22.69 -0.0136491 22.6027 0.0433774 22.326C0.0291207 22.2386 0.32851 21.3939 1.15539 21.4085C1.72566 21.4813 1.76843 21.6124 1.89674 21.6561L2.1391 21.8162C2.26741 21.9036 2.38146 21.9619 2.49552 22.0201C2.70937 22.1366 2.90896 22.1949 3.10855 22.224C3.27963 22.2531 3.57902 22.2677 3.7501 22.2386C3.93543 22.224 4.04949 22.1658 4.10651 22.1221C4.20631 22.0493 4.29185 21.8599 4.27759 21.525L4.32036 21.8454C3.72159 19.8065 3.43645 17.6366 3.52199 15.4959C3.60753 14.4328 3.73584 13.3696 3.99246 12.3357C4.24908 11.2871 4.59124 10.2968 4.96191 9.33566C5.70326 7.39877 6.65845 5.52013 7.9558 3.91819C9.22464 2.28712 10.8927 0.991004 12.8316 0.393917Z" fill="black"/>
</g>
<defs>
<linearGradient id="paint0_linear" x1="-0.517125" y1="18.0829" x2="31.18" y2="8.85648" gradientUnits="userSpaceOnUse">
<stop offset="0.5805" stop-color="white"/>
<stop offset="0.6379" stop-color="#F4F4F5"/>
<stop offset="0.7343" stop-color="#DEDFE0"/>
<stop offset="0.8577" stop-color="#BBBDBF"/>
<stop offset="1" stop-color="#8D9092"/>
</linearGradient>
<clipPath id="clip0">
<rect width="35" height="27" fill="white"/>
</clipPath>
</defs>
</svg>
