<svg width="437" height="297" viewBox="0 0 437 297" fill="none" xmlns="http://www.w3.org/2000/svg">
<path d="M226.301 18.8199C235.401 12.1199 246.901 7.81993 258.101 5.51993C277.001 1.71993 297.101 2.01993 315.101 9.11993C333.001 16.2199 348.501 30.7199 354.201 49.2199L354.301 50.1199C361.801 48.3199 370.001 49.0199 377.101 52.3199C389.701 58.2199 398.101 71.3199 399.801 85.1199C400.301 89.3199 400.301 93.6199 400.101 97.9199C399.501 108.82 397.701 119.72 393.601 129.82V130.22C399.101 130.72 404.501 132.32 409.401 135.02C422.101 142.12 430.601 155.62 433.101 170.02C434.301 176.92 434.201 183.92 433.301 190.82C431.001 207.42 423.301 223.32 411.001 234.72C398.701 246.12 381.801 252.52 365.101 251.32L362.401 251.22C361.401 253.62 360.101 255.82 358.501 257.92C354.801 262.62 349.601 265.92 344.301 268.62C328.101 277.12 309.701 281.52 291.401 281.42C287.001 281.42 282.401 281.02 278.401 279.12C274.201 277.02 271.401 273.52 269.601 269.32L266.301 270.92C256.001 286.92 234.601 290.62 215.601 292.02C200.601 293.12 185.501 293.62 170.401 293.62C158.101 293.62 144.701 292.82 135.601 284.52C131.901 281.12 129.301 276.82 127.301 272.12L126.301 272.22C118.701 283.22 103.401 284.92 90.1009 285.52C76.0009 286.12 61.4009 286.32 48.2009 281.02C21.5009 270.42 7.80087 240.32 4.10087 211.82C1.60087 192.02 2.90087 170.92 12.8009 153.52C22.7009 136.12 42.7009 123.62 62.5009 126.92L62.7009 126.62C59.9009 124.42 57.4009 121.82 55.5009 118.72C49.8009 109.52 50.8009 97.5199 54.3009 87.3199C63.8009 60.2199 93.9009 40.4199 121.701 47.3199C120.901 33.7199 129.501 20.7199 141.101 13.6199C152.701 6.51993 166.801 4.41994 180.401 4.71994C196.801 4.71994 213.601 8.51993 226.301 18.8199Z" fill="#F79AAB"/>
<path d="M185.201 171.52C171.601 167.12 156.501 170.92 143.901 177.62C137.801 180.82 131.901 184.92 127.801 190.52C123.101 197.02 121.101 205.12 120.001 213.12C117.701 230.62 119.401 248.72 124.801 265.52C125.501 267.72 126.301 269.82 127.201 272.02C129.201 276.72 131.801 281.02 135.501 284.42C144.601 292.72 158.001 293.52 170.301 293.52C185.401 293.52 200.401 293.02 215.501 291.92C234.501 290.52 255.901 286.82 266.201 270.82" stroke="black" stroke-width="5" stroke-miterlimit="10" stroke-linecap="round" stroke-linejoin="round"/>
<path d="M268.001 230.72C265.101 236.12 265.401 242.52 265.701 248.62C266.101 255.42 266.901 263.02 269.601 269.12C271.501 273.32 274.301 276.82 278.401 278.92C282.401 280.92 286.901 281.22 291.401 281.22C309.701 281.32 328.001 276.92 344.301 268.42C349.601 265.62 354.801 262.42 358.501 257.72C360.101 255.72 361.301 253.42 362.401 251.02C363.701 247.92 364.601 244.72 365.301 241.42C367.001 233.02 367.401 224.32 366.401 215.82" stroke="black" stroke-width="5" stroke-miterlimit="10" stroke-linecap="round" stroke-linejoin="round"/>
<path d="M364.9 251.22C381.6 252.42 398.5 245.92 410.8 234.62C423.1 223.22 430.8 207.32 433.1 190.72C434 183.82 434.1 176.82 432.9 169.92C430.4 155.62 421.9 142.02 409.2 134.92C404.4 132.22 399 130.62 393.4 130.12C384.4 129.32 375.1 131.52 368 137.02" stroke="black" stroke-width="5" stroke-miterlimit="10" stroke-linecap="round" stroke-linejoin="round"/>
<path d="M393.501 129.72C397.701 119.62 399.501 108.72 400.001 97.8201C400.201 93.5201 400.301 89.3201 399.701 85.0201C398.001 71.2201 389.601 58.1201 377.001 52.2201C370.001 48.9201 361.801 48.2201 354.201 50.0201C348.301 51.4201 342.801 54.4201 338.701 59.0201" stroke="black" stroke-width="5" stroke-miterlimit="10" stroke-linecap="round" stroke-linejoin="round"/>
<path d="M354.2 49.1203C348.5 30.6203 333.1 16.1203 315.1 9.02031C297.2 1.92031 277 1.62032 258.1 5.42032C246.9 7.72032 235.4 12.0203 226.3 18.7203C218.7 24.3203 212.7 31.6203 210 40.7203C215.6 42.3203 221.2 43.6203 226.9 44.7203" stroke="black" stroke-width="5" stroke-miterlimit="10" stroke-linecap="round" stroke-linejoin="round"/>
<path d="M226.3 18.8202C213.6 8.52018 196.7 4.72019 180.5 4.42019C166.9 4.12019 152.8 6.12018 141.2 13.3202C129.6 20.5202 121 33.4202 121.8 47.0202C94.0001 40.1202 63.8001 60.0202 54.4001 87.0202C50.8001 97.2202 49.9001 109.22 55.6001 118.42C57.5001 121.52 60.0001 124.12 62.8001 126.32C66.9001 129.52 71.6001 132.12 76.2001 134.62" stroke="black" stroke-width="5" stroke-miterlimit="10" stroke-linecap="round" stroke-linejoin="round"/>
<path d="M62.5009 126.621C42.8009 123.321 22.7009 135.921 12.8009 153.221C2.90087 170.621 1.60087 191.721 4.10087 211.521C7.70087 240.021 21.5009 270.121 48.2009 280.721C61.4009 285.921 75.9009 285.721 90.1009 285.221C103.401 284.721 118.701 282.921 126.301 271.921" stroke="black" stroke-width="5" stroke-miterlimit="10" stroke-linecap="round" stroke-linejoin="round"/>
<path d="M185.701 86.0203C166.601 82.3203 153.901 103.72 147.601 118.62C139.701 137.32 137.801 158.12 142.001 177.92C142.701 181.02 147.501 179.72 146.801 176.62C143.201 159.82 144.401 142.32 150.001 126.02C154.601 112.62 166.401 87.3203 184.301 90.8203C187.501 91.5203 188.901 86.7203 185.701 86.0203Z" fill="black"/>
<path d="M155.401 113.321C151.201 100.421 138.301 91.7206 124.701 93.2206C121.501 93.6206 121.501 98.6206 124.701 98.2206C136.001 96.9206 147.001 103.721 150.601 114.621C151.501 117.621 156.301 116.321 155.401 113.321Z" fill="black"/>
<path d="M360.701 203.12C363.601 170.82 343.301 140.42 312.201 131.12C295.901 126.22 277.501 130.72 261.801 123.62C255.101 120.62 249.501 115.12 241.901 114.22C233.101 113.22 225.001 117.82 217.801 122.22C215.001 123.92 217.601 128.22 220.301 126.52C228.301 121.72 237.401 116.52 246.801 120.72C252.901 123.52 258.001 127.82 264.501 129.82C278.601 134.22 293.601 131.52 307.901 135.02C338.601 142.52 358.601 171.82 355.801 203.02C355.401 206.32 360.501 206.22 360.701 203.12Z" fill="black"/>
<path d="M322.701 141.02C331.101 143.52 339.201 137.621 342.001 129.721C345.901 118.421 339.701 105.421 336.301 94.7205C335.301 91.6205 330.501 93.0205 331.501 96.0205C334.001 103.82 337.601 112.121 338.101 120.321C338.601 128.121 333.601 138.92 324.001 136.12C321.001 135.22 319.601 140.12 322.701 141.02Z" fill="black"/>
<path d="M297.001 79.62C295.101 90.12 297.801 100.42 304.801 108.52C306.901 110.92 310.401 107.42 308.301 105.02C302.501 98.32 300.201 89.62 301.801 81.02C302.401 77.82 297.601 76.42 297.001 79.62Z" fill="black"/>
<path d="M122.5 213.721C123.8 206.321 121.6 198.321 118.4 191.621C114.4 183.221 108.3 178.721 99.3 176.321C89.5 173.821 77 172.521 67.6 176.721C62.4 179.021 57.9 182.721 53.3 186.121C47.9 190.121 42.5 194.021 37.1 198.021C34.5 199.921 37 204.221 39.6 202.321C47.6 196.421 55.5 190.121 63.8 184.621C72.6 178.721 82.2 178.621 92.4 180.121C100.9 181.321 108.5 184.021 112.8 191.821C116 197.621 118.7 205.621 117.5 212.321C117.1 215.521 121.9 216.921 122.5 213.721Z" fill="black"/>
<path d="M277.301 129.921C267.701 136.021 260.001 144.421 254.801 154.521C253.301 157.421 257.601 159.921 259.101 157.021C263.901 147.621 270.901 139.921 279.801 134.221C282.501 132.521 280.001 128.221 277.301 129.921Z" fill="black"/>
<path d="M214.6 42.1198C208.6 49.4198 205.6 58.2198 206.2 67.7198C206.4 70.9198 211.4 70.9198 211.2 67.7198C210.7 59.6198 212.9 52.0198 218.1 45.6198C220.1 43.1198 216.6 39.6198 214.6 42.1198Z" fill="black"/>
<g opacity="0.36">
<path opacity="0.36" d="M35.4004 267.421C54.3004 269.721 73.4004 270.121 92.4004 268.521C98.2004 268.021 104.2 267.221 109.1 264.021C115.9 259.621 119.1 250.521 116.8 242.721C120.1 251.521 122.1 260.821 122.8 270.221C122.9 271.821 123 273.621 122 274.921C121.1 276.021 119.7 276.421 118.3 276.821C103.2 281.121 87.5004 285.421 72.0004 283.021C64.5004 281.921 57.2004 279.221 49.7004 278.021C46.4004 277.521 42.9004 277.221 40.0004 275.621C37.1004 274.021 34.8004 270.521 35.8004 267.321" fill="#D14961"/>
</g>
<g opacity="0.36">
<path opacity="0.36" d="M123.501 244.82C128.201 261.02 148.001 266.82 164.901 268.52C183.901 270.42 203.001 270.42 222.001 268.62C231.701 267.72 242.501 265.62 248.201 257.72C252.701 251.52 252.801 243.32 254.601 235.92C256.401 228.52 261.701 220.52 269.301 220.72C278.001 220.92 282.501 231.22 283.701 239.82C284.901 248.42 286.001 258.52 293.501 262.92C299.201 266.32 306.401 264.82 312.801 263.32C324.001 260.62 336.201 257.32 342.901 248.02C350.201 237.92 350.201 222.12 361.301 216.42C370.701 230.92 364.701 251.62 351.601 262.92C338.601 274.22 320.501 277.92 303.301 278.52C291.501 278.92 278.201 277.22 271.101 267.82C265.401 260.32 265.501 250.02 265.901 240.62C272.101 255.72 264.701 274.92 250.001 282.02C243.001 285.42 235.001 286.12 227.201 286.82C212.301 288.12 197.501 289.42 182.601 290.72C168.601 291.92 153.801 293.02 141.001 287.12C128.201 281.22 118.801 265.52 124.701 252.82" fill="#D14961"/>
</g>
<g opacity="0.36">
<path opacity="0.36" d="M372.1 139.22C381.3 132.42 394.1 134.22 405 137.32C412.4 139.42 419.9 142.22 425.1 147.82C429.3 152.42 431.5 158.52 432.8 164.62C437 184.22 432.4 206.02 419.2 221.12C412.7 228.52 404.4 234.22 396.2 239.82C387.7 245.62 378 251.62 368 249.42C371.3 241.92 372.7 233.62 372.2 225.42C389.1 222.62 404.3 211.32 411.9 196.02C413.5 192.72 414.8 189.22 414.9 185.52C415 182.52 414.2 179.52 413.2 176.62C406.7 157.92 390.2 143.12 370.9 138.72" fill="#D14961"/>
</g>
<g opacity="0.36">
<path opacity="0.36" d="M183.702 10.0199C196.602 10.0199 209.402 12.7199 221.202 17.9199C217.502 21.6199 213.902 25.3199 210.202 29.0199C207.802 31.4199 205.302 34.0199 204.602 37.4199C203.902 40.7199 205.902 44.9199 209.302 45.0199C207.602 51.0199 205.802 57.0199 204.102 63.0199C203.802 64.0199 203.502 64.9199 202.802 65.6199C201.202 67.2199 198.302 66.3199 197.002 64.5199C195.702 62.7199 195.502 60.4199 195.302 58.1199C193.602 41.0199 188.602 24.2199 180.602 8.91992" fill="#D14961"/>
</g>
<g opacity="0.36">
<path opacity="0.36" d="M327.4 16.9201C336.5 26.1201 344.7 36.1201 351.7 47.0201C343.3 49.5201 335.6 54.6201 330 61.4201C327.2 53.2201 327.1 44.4201 325.4 35.9201C323.8 27.4201 320.2 18.6201 312.9 14.1201C319.1 13.5201 325.6 16.0201 329.8 20.8201" fill="#D14961"/>
</g>
<g opacity="0.36">
<path opacity="0.36" d="M363.202 55.0203C372.502 51.6203 383.202 57.8203 388.102 66.5203C393.002 75.2203 393.602 85.5203 394.002 95.5203C394.202 100.72 394.502 105.82 394.702 111.02C394.902 115.72 395.002 120.82 392.402 124.72C389.802 128.62 383.302 130.22 380.402 126.52C381.002 120.72 381.602 114.82 382.102 109.02C383.102 98.7203 384.102 88.2203 381.502 78.3203C378.902 68.3203 372.102 58.8203 362.102 56.0203" fill="#D14961"/>
</g>
<g opacity="0.36">
<path opacity="0.36" d="M139.8 105.62C144.4 106.32 150.2 108.72 149.5 113.32C149.3 114.72 148.4 115.82 147.6 117.02C137.6 131.52 134.4 150.62 139.3 167.62C139.9 169.62 140.6 171.82 139.9 173.92C139.3 175.72 137.7 176.92 136.3 178.12C131.2 182.12 126 186.02 120.9 190.02C123.7 165.92 128 141.92 133.7 118.22C134.7 113.92 136 109.32 139.6 106.62" fill="#D14961"/>
</g>
</svg>
