<svg width="242" height="541" viewBox="0 0 242 541" fill="none" xmlns="http://www.w3.org/2000/svg">
<path d="M217.1 400.8L215.7 400.9C180.6 412.1 144.2 423.4 107.6 419.1C94.2999 417.6 81.2999 414 68.3999 410.5C54.5999 406.7 40.8999 402.9 27.0999 399.2L24.7999 399.1C24.6999 403 24.1999 406.9 23.1999 410.6L22.2999 410.4C12.7999 403.6 6.79991 392.6 4.29991 381.2C1.79991 369.8 2.59991 357.8 4.69991 346.3C6.79991 334.4 10.8999 321.9 20.4999 314.6L23.4999 314.2C26.4999 335.8 43.2999 353.2 59.0999 368.6C62.8999 372.3 66.9999 376.2 71.9999 377.9C76.0999 379.3 80.6999 379.1 84.6999 380.8C94.7999 385 97.1999 398.6 105.9 405.2C111.8 409.7 120.4 410.3 126.9 406.6C123.9 400.8 126.9 393.4 131.9 389.3C136.9 385.1 143.3 383.3 149.5 381.2C163.5 376.5 176.9 369.8 189.1 361.6C197.5 355.9 205.6 349.3 210.5 340.4C215.4 331.5 216.7 321.2 217 311H218.6C227.3 324.1 235.1 340.1 238.4 355.5C239.3 359.7 240 364.1 240 368.4C240 385 230.5 400 220.2 413L219.8 413.1C219 410.5 218.2 407.9 217.7 405.3C217.4 403.7 217.2 402.2 217.1 400.8Z" fill="#D45000"/>
<path d="M228 440.099C228.2 441.899 228.3 443.699 227.7 445.399C226.9 447.699 225 449.399 223.1 450.799C219.2 453.799 214.9 455.999 210.4 457.799C204.1 460.299 197.4 462.099 190.8 463.599C143.4 474.799 93.2 480.699 46.5 466.799C41 465.199 35.2 462.799 30.1 459.699C21.6 454.499 15.1 447.199 14.8 437.599C14.6 430.899 17.7 424.699 20.3 418.399H21.9C51.6 435.999 86.6 443.599 121.1 442.999C155.6 442.499 189.6 434.099 221.8 421.699L222.7 421.399C225 427.699 227.2 433.699 228 440.099Z" fill="#D45000"/>
<path d="M222.8 421.6L221.9 421.9C189.7 434.3 155.7 442.6 121.2 443.2C86.6999 443.7 51.6999 436.2 21.9999 418.6H20.3999C21.3999 416.2 22.3999 413.8 23.0999 411.3C23.1999 411.1 23.1999 410.8 23.2999 410.6C24.2999 406.9 24.6999 403 24.8999 399.1L27.1999 399.2C40.9999 403 54.6999 406.8 68.4999 410.5C81.3999 414 94.3999 417.6 107.7 419.1C144.3 423.3 180.7 412 215.8 400.9L217.2 400.8C217.3 402.3 217.6 403.8 217.9 405.3C218.4 407.9 219.1 410.5 220 413.1C220.7 415.9 221.8 418.8 222.8 421.6Z" fill="#77523D"/>
<path d="M204.7 483.5C214.6 488.4 221.6 499 221.5 510.2C221.5 512.6 221.2 515.2 220.1 517.3C217.4 522.6 211.1 524.9 205.3 526.5C182.5 532.9 156.9 537.1 136.3 525.4C132.9 523.4 129.6 521 127.4 517.7C125.1 514.2 124.3 510.1 123.4 506C122.4 501.4 120.8 488.8 119.8 484.2C119.5 491.6 119.2 498.9 118.9 506.3C118.7 510.7 118.5 515.2 116.7 519.1C113.9 525.1 107.8 528.9 101.8 531.7C77.9999 542.4 49.1999 541.1 26.3999 528.4C23.4999 526.8 20.5999 524.9 18.9999 522C16.7999 518 17.6999 513 18.6999 508.6C21.0999 498.6 25.2999 487.5 34.2999 483.2L33.5999 480.8C29.6999 475.4 27.9999 468.5 28.8999 462L29.9999 459.9C35.0999 463 40.8999 465.4 46.3999 467C92.9999 480.9 143.3 475 190.7 463.8C197.3 462.2 204 460.5 210.3 458L211.2 460.3C211.7 468.4 209.3 476.7 204.7 483.5Z" fill="#77523D"/>
<path d="M217.1 301.3C217.1 304.4 217.1 307.6 217 310.8C216.7 321.1 215.4 331.3 210.5 340.2C205.6 349.1 197.5 355.7 189.1 361.4C176.9 369.7 163.5 376.3 149.5 381C143.3 383.1 136.9 384.9 131.9 389.1C126.9 393.3 123.9 400.7 126.9 406.4C120.5 410.1 111.8 409.5 105.9 405C97.2 398.4 94.8 384.8 84.7 380.6C80.7 378.9 76.2 379.1 72 377.7C66.9 376 62.9 372.2 59.1 368.4C43.3 353 26.5 335.5 23.5 314C23.3 312.7 23.2 311.5 23.1 310.2C22.3 297 26.9 284.1 31.5 271.7C33 267.7 34.5 263.7 35.9 259.7C39.1 251.2 42.2 242.6 45.4 234.1L46.1 234.4C47.5 233.4 48.9 232.4 50.3 231.5L53.5 232.7C54.5 246.5 48.4 259.6 45.8 273.2C43.3 286.8 46 303.5 58.5 309.5C64.4 312.3 71.4 312.1 77.7 313.7C92.1 317.5 103.2 331.1 118.1 331.7C129.6 332.1 139.7 324.6 150.1 319.6C160.4 314.7 172 312.1 180.9 305C191.8 296.2 196.7 281.5 196.5 267.5C196.3 253.5 190.8 234.6 185.4 221.7C189 224.5 192.4 227.7 195.5 231.3C205.8 239.5 211.1 251.5 213.9 264.6C216.6 276.5 217 289.4 217.1 301.3Z" fill="#E2DFDE"/>
<path d="M210.6 214.1C219.1 227.9 220 249.2 214.6 264.5L214.1 264.6C211.3 251.4 205.9 239.4 195.7 231.3C195.8 230 195.8 228.6 195.9 227.3H197.4C202.2 223.4 206.7 219 210.6 214.1Z" fill="#F4DBC4"/>
<path d="M196.7 267.5C196.9 281.5 192 296.2 181.1 305C172.2 312.2 160.6 314.8 150.3 319.6C139.9 324.5 129.8 332.1 118.3 331.7C103.4 331.1 92.2999 317.5 77.8999 313.7C71.4999 312 64.5999 312.3 58.6999 309.5C46.2999 303.5 43.4999 286.8 45.9999 273.2C48.4999 259.6 54.5999 246.5 53.6999 232.7L50.4999 231.5C71.8999 217.2 95.8999 206.2 121.5 204.1C144.1 202.2 168 207.9 185.6 221.8C191 234.6 196.5 253.5 196.7 267.5Z" fill="#F4DBC4"/>
<path d="M159.8 89.2998C174 134.9 197 179.7 195.8 227.2C195.8 228.5 195.7 229.9 195.6 231.2C192.5 227.7 189.2 224.5 185.5 221.6C167.8 207.7 144 202 121.4 203.9C95.7998 206.1 71.7998 217.1 50.3998 231.3C48.9998 232.3 47.5998 233.2 46.1998 234.2L45.4998 233.9L44.9998 233.7C44.6998 232 44.3998 230.4 44.0998 228.7C39.9998 202.6 44.6998 175.6 52.9998 150.5C61.7998 123.7 74.4998 98.3998 85.3998 72.3998C90.1998 60.9998 94.5998 49.3998 98.6998 37.7998C103.3 24.9998 108.1 10.9998 119.2 2.99978C119.9 2.49978 120.7 1.99978 121.6 2.09979C122.4 2.19979 123 2.89978 123.6 3.49978C144.2 26.9998 150.5 59.3998 159.8 89.2998Z" fill="#188600"/>
<path d="M45.5 234.1C42.3 242.7 39.2 251.2 36 259.8C29.7 247.3 24.8 228.1 28.2 214.5C33 219.4 37.9 224.2 42.7 229.1L44.1 228.9C44.3 230.6 44.6 232.2 45 233.9L45.5 234.1Z" fill="#F4DBC4"/>
<path d="M46.1999 234.4C47.5999 233.4 48.9999 232.4 50.3999 231.5C71.7999 217.2 95.7999 206.2 121.4 204.1C144 202.2 167.9 207.9 185.5 221.8C189.1 224.6 192.5 227.8 195.6 231.4C195.7 230.1 195.7 228.7 195.8 227.4C197 179.9 174 135.1 159.8 89.5C150.5 59.6 144.3 27.2 123.6 3.69998C123.1 3.09998 122.5 2.49998 121.6 2.29998C120.7 2.19998 119.9 2.69998 119.2 3.19998C108 11.2 103.3 25.1 98.7999 38.1C94.6999 49.8 90.2999 61.3 85.4999 72.7C74.5999 98.7 61.8999 124 53.0999 150.8C44.7999 176 40.0999 202.9 44.1999 229C44.3999 230.7 44.6999 232.3 45.0999 234" stroke="black" stroke-width="4" stroke-miterlimit="10" stroke-linecap="round" stroke-linejoin="round"/>
<path d="M53.6 232.7C54.6 246.5 48.4999 259.6 45.8999 273.2C43.3999 286.8 46.1 303.5 58.6 309.5C64.5 312.3 71.5 312.1 77.8 313.7C92.2 317.5 103.3 331.1 118.2 331.7C129.7 332.1 139.8 324.6 150.2 319.6C160.5 314.7 172.1 312.1 181 305C191.9 296.2 196.8 281.5 196.6 267.5C196.4 253.5 190.9 234.6 185.5 221.7" stroke="black" stroke-width="4" stroke-miterlimit="10" stroke-linecap="round" stroke-linejoin="round"/>
<path d="M45.5001 234.1C42.3001 242.7 39.2001 251.2 36.0001 259.8C34.5001 263.8 33.0001 267.8 31.6001 271.8C27.0001 284.2 22.4001 297.1 23.2001 310.3C23.3001 311.6 23.4001 312.9 23.6001 314.1C26.6001 335.7 43.4001 353.1 59.2001 368.5C63.0001 372.2 67.1001 376.1 72.1001 377.8C76.2001 379.2 80.8001 379 84.8001 380.7C94.9001 384.9 97.3001 398.5 106 405.1C111.9 409.6 120.5 410.2 127 406.5C124 400.7 127 393.3 132 389.2C137 385 143.4 383.2 149.6 381.1C163.6 376.4 177 369.7 189.2 361.5C197.6 355.8 205.7 349.2 210.6 340.3C215.5 331.4 216.8 321.1 217.1 310.9C217.2 307.7 217.2 304.5 217.2 301.4C217.1 289.5 216.7 276.6 214.2 264.7C211.4 251.5 206 239.5 195.8 231.4" stroke="black" stroke-width="4" stroke-miterlimit="10" stroke-linecap="round" stroke-linejoin="round"/>
<path d="M42.8001 229.1C38.0001 224.2 33.1001 219.4 28.3001 214.5C24.9001 228.1 29.8001 247.3 36.1001 259.8" stroke="black" stroke-width="4" stroke-miterlimit="10" stroke-linecap="round" stroke-linejoin="round"/>
<path d="M197.3 227.3C202.2 223.5 206.7 219 210.6 214.1C219.1 227.9 220 249.2 214.6 264.5" stroke="black" stroke-width="4" stroke-miterlimit="10" stroke-linecap="round" stroke-linejoin="round"/>
<path d="M20.6 314.5C11 321.8 7.00001 334.3 4.80001 346.2C2.70001 357.7 1.9 369.6 4.4 381.1C6.9 392.5 12.9 403.5 22.4 410.3" stroke="black" stroke-width="4" stroke-miterlimit="10" stroke-linecap="round" stroke-linejoin="round"/>
<path d="M29 351.2C20.5 365.1 25.4 382.6 24.8 399C24.7 402.9 24.2 406.8 23.2 410.5C23.1 410.7 23.1 411 23 411.2C22.3 413.7 21.3 416.1 20.3 418.5C17.6 424.8 14.6 431 14.8 437.7C15.1 447.3 21.6 454.6 30.1 459.8C35.2 462.9 41 465.3 46.5 466.9C93.1 480.8 143.4 474.9 190.8 463.7C197.4 462.1 204.1 460.4 210.4 457.9C214.9 456.1 219.2 453.8 223.1 450.9C225 449.4 226.9 447.7 227.7 445.5C228.3 443.8 228.2 442 228 440.2C227.3 433.8 225.1 427.8 222.8 421.7C221.8 418.9 220.7 416 219.8 413.2C219 410.6 218.2 408 217.7 405.4C217.4 403.9 217.2 402.4 217 400.9C215.3 384.2 222 369.7 213.4 354.6" stroke="black" stroke-width="4" stroke-miterlimit="10" stroke-linecap="round" stroke-linejoin="round"/>
<path d="M220.2 412.9C230.5 399.9 240 384.8 240 368.3C240 364 239.3 359.6 238.4 355.4C235.2 340 227.3 324 218.6 310.9" stroke="black" stroke-width="4" stroke-miterlimit="10" stroke-linecap="round" stroke-linejoin="round"/>
<path d="M80.2 485.6C68.9 482.2 57 480.6 45.2 481C42.2 481.1 39.2 481.3 36.3 482.3C35.7 482.5 35 482.8 34.4 483.1C25.3 487.4 21.1 498.5 18.8 508.5C17.8 513 16.9 517.9 19.1 521.9C20.7 524.8 23.6 526.7 26.5 528.3C49.3 541 78.1 542.3 101.9 531.6C108 528.9 114 525.1 116.8 519C118.6 515 118.8 510.5 119 506.2C119.3 498.8 119.6 491.5 119.9 484.1" stroke="black" stroke-width="4" stroke-miterlimit="10" stroke-linecap="round" stroke-linejoin="round"/>
<path d="M119.9 484.2C120.9 488.8 122.5 501.4 123.5 506C124.4 510.1 125.2 514.2 127.5 517.7C129.6 521 132.9 523.4 136.4 525.4C156.9 537.1 182.6 532.9 205.4 526.5C211.2 524.9 217.5 522.6 220.2 517.3C221.3 515.1 221.6 512.6 221.6 510.2C221.6 499.1 214.7 488.4 204.8 483.5C203.3 482.8 201.7 482.2 200.1 481.7C194.9 480.3 189.3 480.3 183.9 480.5C174.1 480.9 164.1 481.8 155.5 486.4" stroke="black" stroke-width="4" stroke-miterlimit="10" stroke-linecap="round" stroke-linejoin="round"/>
<path d="M204.7 483.5C209.3 476.7 211.6 468.4 211.3 460.2" stroke="black" stroke-width="4" stroke-miterlimit="10" stroke-linecap="round" stroke-linejoin="round"/>
<path d="M28.9999 461.9C28.0999 468.5 29.7999 475.3 33.6999 480.7" stroke="black" stroke-width="4" stroke-miterlimit="10" stroke-linecap="round" stroke-linejoin="round"/>
<path d="M27.2 399.1C41 402.9 54.7 406.7 68.5 410.4C81.4 413.9 94.4 417.5 107.7 419C144.3 423.2 180.7 411.9 215.8 400.8" stroke="black" stroke-width="4" stroke-miterlimit="10" stroke-linecap="round" stroke-linejoin="round"/>
<path d="M22 418.6C51.7 436.2 86.7 443.8 121.2 443.2C155.7 442.7 189.7 434.3 221.9 421.9" stroke="black" stroke-width="4" stroke-miterlimit="10" stroke-linecap="round" stroke-linejoin="round"/>
<path d="M101.275 272.287C107.419 270.286 110.347 262.363 107.816 254.591C105.284 246.82 98.2518 242.142 92.108 244.143C85.9642 246.144 83.0358 254.067 85.5672 261.838C88.0986 269.61 95.1313 274.288 101.275 272.287Z" fill="black"/>
<path d="M101.872 259.738C104.97 258.729 106.455 254.76 105.19 250.875C103.924 246.989 100.386 244.657 97.2882 245.666C94.19 246.675 92.7045 250.643 93.9703 254.529C95.236 258.415 98.7736 260.747 101.872 259.738Z" fill="white"/>
<path d="M93.1999 263.4C92.6999 264.5 92.8999 265.6 93.5999 266.4C94.1999 267.2 95.3999 267.6 96.2999 267.1C97.3999 266.5 97.5999 264.9 97.4999 263.8C97.3999 263.1 97.0999 262.6 96.4999 262.3C96.0999 262.1 95.5999 262 95.0999 262C93.9999 262.1 92.5999 263.1 92.6999 264.3C92.6999 265.3 93.3999 266.2 94.1999 266.7C94.9999 267.1 95.9999 267.2 96.7999 266.7C97.6999 266.1 97.9999 264.9 97.5999 263.9C97.1999 263 96.2999 262.3 95.2999 262.2C94.0999 262.1 93.1999 263.1 93.1999 264.2C93.0999 265 93.8999 265.7 94.6999 265.7C95.5999 265.7 96.0999 265 96.1999 264.2C96.1999 264.7 95.6999 265.1 95.1999 265.2C95.3999 265.2 94.8999 265.1 95.0999 265.2C95.2999 265.2 94.7999 265 94.9999 265.2C95.1999 265.3 94.7999 265 94.9999 265.2C95.0999 265.3 95.1999 265.5 94.9999 265.1C95.0999 265.3 94.9999 265 94.9999 264.9C94.9999 264.8 94.9999 264.8 94.9999 264.8C94.9999 264.9 94.9999 264.9 94.9999 264.6C94.9999 264.5 95.0999 264.4 95.1999 264.3C95.2999 264.2 95.6999 264.1 95.4999 264.1C95.6999 264.1 95.7999 264.1 95.8999 264.1C95.8999 264.1 95.5999 264 95.7999 264.1C95.9999 264.2 95.7999 264.1 95.6999 264C95.7999 264.1 95.8999 264.1 95.7999 264.1C95.6999 264 95.6999 264.1 95.7999 264.1C95.8999 264.2 95.8999 264.2 95.7999 264.1C95.7999 264.1 95.7999 264 95.6999 264C95.7999 264.2 95.7999 264.1 95.6999 263.9C95.6999 264.2 95.6999 264.4 95.6999 264.7C95.5999 265 95.8999 264.6 95.5999 264.8C95.4999 264.9 95.3999 264.9 95.4999 264.9C95.5999 264.8 95.5999 264.9 95.3999 264.9C95.2999 264.9 95.2999 264.9 95.1999 264.9C95.3999 264.9 95.3999 264.9 95.0999 264.9C94.8999 264.8 95.0999 264.9 95.1999 265C94.9999 264.7 94.6999 264.4 94.4999 264.1C94.4999 264.1 94.5999 264.6 94.5999 264.3C94.5999 264.3 94.5999 264.7 94.5999 264.5C94.5999 264.3 94.4999 264.7 94.4999 264.7C94.5999 264.4 94.2999 264.8 94.4999 264.6C94.6999 264.5 94.8999 264.3 95.1999 264.2C95.3999 264.1 95.8999 264.2 95.9999 264.4C95.9999 264.4 95.8999 264.4 95.8999 264.3C95.7999 264.2 95.7999 264.2 95.8999 264.3C95.7999 263.9 95.9999 264.6 95.8999 264.2C95.8999 264 95.8999 264.1 95.8999 264.3C95.8999 264.4 95.8999 264.6 95.7999 264.7C96.0999 264 95.9999 263.1 95.2999 262.6C94.5999 262.5 93.4999 262.6 93.1999 263.4Z" fill="white"/>
<path d="M152.521 272.246C158.798 270.712 162.314 263.032 160.373 255.092C158.433 247.152 151.771 241.959 145.494 243.493C139.217 245.027 135.702 252.707 137.642 260.647C139.583 268.587 146.244 273.78 152.521 272.246Z" fill="black"/>
<path d="M153.952 259.773C157.117 258.999 158.896 255.154 157.926 251.184C156.956 247.214 153.603 244.623 150.438 245.396C147.273 246.17 145.493 250.015 146.464 253.985C147.434 257.955 150.786 260.546 153.952 259.773Z" fill="white"/>
<path d="M145 262.9C144.5 263.8 144.6 264.9 145.1 265.7C145.7 266.6 146.9 267.3 148 266.7C148.9 266.1 149.4 264.8 149.3 263.8C149.3 263 149 262.4 148.3 262C147.9 261.7 147.3 261.6 146.8 261.6C145.7 261.6 144.5 262.5 144.3 263.6C144.2 264.6 144.8 265.6 145.6 266.2C146.3 266.7 147.4 266.8 148.2 266.4C149.1 265.9 149.5 264.7 149.2 263.7C148.9 262.8 148.2 262.1 147.3 261.8C146.2 261.5 145 262.1 144.8 263.3C144.7 264.1 145 265 145.8 265.1C146.5 265.3 147.5 264.9 147.6 264.1C147.6 263.9 147.7 263.8 147.5 264.2C147.3 264.5 147 264.7 146.6 264.7C146.8 264.7 146.3 264.6 146.5 264.7C146.7 264.7 146.2 264.5 146.4 264.7C146.6 264.8 146.2 264.5 146.3 264.7C146.4 264.8 146.5 265 146.3 264.6C146.4 264.8 146.2 264.4 146.3 264.5C146.3 264.6 146.3 264.6 146.3 264.4C146.3 264.3 146.3 264.2 146.3 264.1C146.3 264.3 146.3 264.1 146.3 264C146.4 263.8 146.6 263.7 146.8 263.6C146.9 263.6 147.2 263.6 146.9 263.6C147.1 263.6 147.2 263.6 147.1 263.6C147 263.6 147 263.6 147.1 263.6C147.2 263.7 147.2 263.6 147.1 263.6C147.1 263.6 147 263.6 147 263.5C147.2 263.6 147.2 263.6 147.1 263.6C147 263.5 147 263.6 147.1 263.6C147.2 263.7 147.2 263.7 147.1 263.6C147.1 263.6 147.1 263.5 147 263.5C147 263.6 147 263.6 147.1 263.7C147.1 263.5 147.1 263.6 147.1 263.8C147 264.1 147 264.3 146.9 264.6C147 264.5 147.1 264.3 146.9 264.5C146.8 264.6 146.7 264.6 146.8 264.6C146.9 264.5 146.9 264.6 146.7 264.6C146.6 264.6 146.6 264.6 146.5 264.6C146.7 264.6 146.7 264.6 146.4 264.6C146.6 264.7 146.3 264.5 146.3 264.5C146.2 264.3 146 264.1 145.9 263.8C146 264.2 145.9 263.6 145.9 264C145.9 264.3 145.9 264 145.9 264.1C145.9 264.1 145.8 264.5 145.9 264.2C145.9 264.2 145.9 264.3 145.8 264.3C145.9 264.2 145.9 264.2 145.8 264.3C146 264.2 146.2 264 146.5 263.9C146.7 263.8 147 263.9 147.2 264C147.1 263.9 147.1 263.9 147.3 264.1C147.1 263.9 147.5 264.3 147.3 264C147.4 264.2 147.4 264.2 147.3 264.1C147.3 264 147.3 264 147.3 263.9C147.3 264 147.3 264.1 147.3 264.3C147.3 264.1 147.3 264.2 147.3 264.4C147.7 263.7 147.5 262.8 146.8 262.3C146.3 261.9 145.4 262.2 145 262.9Z" fill="white"/>
<path d="M105.9 285.3C108.3 293.5 116.2 299.6 125 298.7C133.8 297.7 140.1 290.1 140.8 281.6C140.9 279.7 137.9 279.7 137.8 281.6C137.3 288.7 131.8 295 124.6 295.7C117.4 296.4 110.8 291.4 108.8 284.6C108.2 282.7 105.3 283.5 105.9 285.3Z" fill="black"/>
<path opacity="0.71" d="M74.2659 295.051C81.3779 297.098 88.2702 294.842 89.6604 290.012C91.0505 285.183 86.412 279.608 79.3 277.561C72.188 275.514 65.2957 277.77 63.9056 282.6C62.5154 287.429 67.1539 293.004 74.2659 295.051Z" fill="#F488B9"/>
<path opacity="0.71" d="M168.87 295.604C176.11 294.072 181.136 288.844 180.095 283.927C179.055 279.01 172.342 276.267 165.102 277.798C157.862 279.33 152.837 284.558 153.877 289.475C154.917 294.392 161.63 297.135 168.87 295.604Z" fill="#F488B9"/>
<g opacity="0.44">
<path opacity="0.44" d="M120.6 14.5C118.8 30.9 117.1 47.5 112.8 63.4C104 96.8 84.6998 127 78.8998 161C76.6998 174.1 76.4998 187.5 77.0998 200.8C77.1998 203.9 77.3998 207.1 76.0998 209.8C74.8998 212.2 72.6998 213.9 70.4998 215.5C63.8998 220.3 56.6998 224.4 49.2998 227.8C40.9998 201.1 49.0998 172.2 58.6998 145.9C63.0998 133.7 67.8998 121.7 73.6998 110.1C79.8998 97.5 87.2998 85.4 92.0998 72.2C99.6998 51 101 26.1 117 10.1C117.8 9.3 118.7 8.5 119.9 8.5C123.4 8.5 122.2 14.1 119.8 16.7" fill="#1D600D"/>
</g>
<g opacity="0.56">
<path opacity="0.56" d="M27.7999 295.4C31.9999 274.8 39.8999 255 50.9999 237.2C49.6999 256 39.3999 273.4 38.3999 292.2C37.4999 311.2 46.2999 329.3 56.8999 345.1C60.1999 350 63.7999 354.8 68.4999 358.3C72.1999 361 76.3999 362.9 80.2999 365.3C94.6999 373.9 104.1 388.7 113.1 402.9C108.3 404.5 103.3 400.7 100.7 396.4C98.0999 392.1 96.5999 387 93.0999 383.3C89.5999 379.7 84.5999 378.1 79.9999 376.2C47.4999 362.9 25.0999 328.1 26.2999 293.1" fill="#C1BCBC"/>
</g>
</svg>
