<svg width="94" height="134" viewBox="0 0 94 134" fill="none" xmlns="http://www.w3.org/2000/svg">
<path d="M75.59 15.62C66.18 23.85 54.15 37.45 51.38 57C51.0022 59.9425 50.7886 62.9037 50.74 65.87C50.28 78.11 49.85 95.76 50.1 118.43" stroke="#1E6F5D" stroke-width="4" stroke-miterlimit="10" stroke-linecap="round"/>
<path d="M23.3398 29C33.1598 37.23 45.7198 50.83 48.6198 70.34C49.0108 73.2848 49.2311 76.2498 49.2798 79.22C49.7698 91.46 50.2098 109.1 49.9498 131.78" stroke="#1E6F5D" stroke-width="4" stroke-miterlimit="10" stroke-linecap="round"/>
<path d="M61.9995 25.57C62.5095 20.62 70.4295 13 70.4295 13C70.4295 13 80.1995 3.49999 89.4095 0.339994C89.647 0.221187 89.909 0.159332 90.1745 0.159332C90.4401 0.159332 90.702 0.221187 90.9395 0.339994C92.1295 1.20999 90.7195 4.96999 90.2295 6.33999C87.5595 13.45 71.1695 24.34 65.0895 28.34C64.652 28.4533 64.1944 28.4663 63.7512 28.378C63.3079 28.2897 62.8902 28.1024 62.5295 27.83C62.2768 27.5175 62.0978 27.1519 62.0061 26.7606C61.9143 26.3693 61.9121 25.9623 61.9995 25.57Z" fill="#8DC63F"/>
<path d="M61.9996 25.57C62.2826 23.9168 62.8984 22.3382 63.8096 20.93C64.6568 19.4899 65.6024 18.11 66.6396 16.8C68.6735 14.1468 71.0243 11.7524 73.6396 9.66999C76.2255 7.55286 78.9628 5.62772 81.8296 3.90999C83.2396 3.02999 84.7196 2.25999 86.2196 1.51999C86.9796 1.16999 87.7296 0.809994 88.5196 0.519994C88.9196 0.379994 89.2896 0.199994 89.7096 0.0899941C89.9268 0.0103699 90.1592 -0.0192908 90.3894 0.00321512C90.6197 0.0257211 90.8419 0.0998154 91.0396 0.219994C91.2077 0.381252 91.3407 0.575537 91.4302 0.790648C91.5197 1.00576 91.5637 1.23705 91.5596 1.46999C91.5781 1.90161 91.5513 2.33398 91.4796 2.75999C91.3298 3.59096 91.1192 4.40983 90.8496 5.20999C90.7296 5.59999 90.5896 5.99999 90.4496 6.38999L89.9096 7.55999C89.7217 7.94089 89.5079 8.30842 89.2696 8.65999C89.0513 9.00842 88.8108 9.34244 88.5496 9.65999C86.4767 12.2881 84.1301 14.6882 81.5496 16.82C78.9996 19 76.3096 21 73.5596 22.92C70.8096 24.84 67.9796 26.57 65.1496 28.32C64.7333 28.4239 64.3002 28.4411 63.877 28.3706C63.4538 28.3001 63.0496 28.1433 62.6896 27.91C62.3473 27.6354 62.1049 27.2559 61.9996 26.83C61.9298 26.4129 61.9298 25.9871 61.9996 25.57ZM62.0696 25.57C62.019 25.9837 62.0393 26.4031 62.1296 26.81C62.2177 27.2037 62.4361 27.556 62.7496 27.81C63.0971 28.0248 63.4858 28.1642 63.8906 28.2193C64.2954 28.2744 64.7073 28.244 65.0996 28.13C67.8596 26.26 70.5396 24.3 73.2196 22.33C75.8996 20.36 78.5496 18.33 81.0796 16.22C83.6394 14.1506 85.9845 11.8289 88.0796 9.28999C89.1155 8.02102 89.9118 6.57412 90.4296 5.01999C90.714 4.24773 90.9413 3.45559 91.1096 2.64999C91.1925 2.25865 91.236 1.86 91.2396 1.45999C91.2557 1.0923 91.1264 0.733048 90.8796 0.459994C90.7181 0.364217 90.537 0.306351 90.3499 0.290761C90.1628 0.275171 89.9747 0.302263 89.7996 0.369994C89.4065 0.483834 89.0193 0.617335 88.6396 0.769994C87.8496 1.04999 87.0996 1.38999 86.3396 1.76999C84.843 2.47238 83.3933 3.27071 81.9996 4.15999C79.2281 5.98473 76.5791 7.98902 74.0696 10.16C72.8096 11.23 71.5596 12.33 70.3596 13.46C69.1596 14.59 68.0596 15.83 66.9596 17.08C65.8674 18.3205 64.8649 19.6372 63.9596 21.02C63.0179 22.3898 62.3678 23.9385 62.0496 25.57H62.0696Z" fill="#231F20"/>
<path d="M65.9296 23.94C66.6296 19.16 73.2496 12.13 73.2496 12.13C73.2496 12.13 81.4296 3.44999 88.7596 0.849994C89.0396 0.749994 89.6096 0.569994 89.9496 0.929994C90.8096 1.83999 89.4696 5.41999 89.0096 6.66999C86.4996 13.44 73.1096 23.2 68.1496 26.67C67.7911 26.7702 67.4111 26.764 67.056 26.6521C66.7009 26.5403 66.386 26.3276 66.1496 26.04C65.8461 25.3836 65.7687 24.6451 65.9296 23.94Z" fill="#8DC63F"/>
<path d="M65.9 23.94C66.1741 22.5009 66.6807 21.1161 67.4 19.84C68.0845 18.5499 68.8493 17.3041 69.69 16.11C71.3372 13.686 73.2749 11.4729 75.46 9.51999C77.6207 7.55172 79.9273 5.7499 82.36 4.12999C83.5712 3.31465 84.8264 2.56684 86.12 1.88999C86.7693 1.54684 87.437 1.23971 88.12 0.96999C88.441 0.815464 88.7758 0.691581 89.12 0.59999C89.3224 0.540543 89.5377 0.540543 89.74 0.59999C89.9464 0.683909 90.1116 0.845502 90.2 1.04999C90.3452 1.41834 90.4001 1.8161 90.36 2.20999C90.3338 2.57896 90.287 2.94619 90.22 3.30999C90.0666 4.03256 89.8763 4.74682 89.65 5.44999C89.2207 6.85881 88.6053 8.20402 87.82 9.44999C86.1314 11.8566 84.1867 14.0729 82.02 16.06C79.87 18.06 77.65 19.94 75.32 21.69C72.99 23.44 70.58 25.09 68.16 26.69C67.7939 26.7652 67.4162 26.7652 67.05 26.69C66.6776 26.5915 66.354 26.3603 66.14 26.04C65.8079 25.3923 65.7226 24.6459 65.9 23.94ZM66 24C65.8502 24.6755 65.9386 25.3821 66.25 26C66.4475 26.2898 66.7478 26.4936 67.09 26.57C67.4193 26.644 67.7608 26.644 68.09 26.57C70.43 24.84 72.69 23 74.94 21.18C77.19 19.36 79.42 17.49 81.52 15.5C83.6613 13.5721 85.6043 11.4348 87.32 9.11999C88.1298 7.9372 88.7725 6.64839 89.23 5.28999C89.476 4.61576 89.683 3.92796 89.85 3.22999C90.0554 2.58284 90.0865 1.89297 89.94 1.22999C89.884 1.09105 89.7781 0.978087 89.643 0.91332C89.5079 0.848552 89.3535 0.836663 89.21 0.87999C88.8642 0.95257 88.5284 1.06673 88.21 1.21999C87.5265 1.47336 86.8587 1.76721 86.21 2.09999C84.9232 2.76573 83.6866 3.52441 82.51 4.36999C80.1807 6.09342 77.9722 7.9745 75.9 9.99999C74.9 11 73.79 12 72.84 13.07C71.89 14.14 70.94 15.25 70.04 16.39C68.29 18.64 66.53 21.08 66 24Z" fill="#231F20"/>
<path d="M63.5999 27.12C65.1899 22.22 72.8599 17.31 79.1199 11.35C81.1199 9.45 85.7699 4.78 91.4099 3.02C91.9699 2.84 92.7199 2.64 93.0099 3.02C94.0099 4.22 88.2699 11.29 82.6499 16.43C74.7599 23.64 64.6499 29.29 63.5999 27.97C63.4199 27.71 63.5299 27.34 63.5999 27.12Z" fill="#8DC63F"/>
<path d="M63.5602 27.11C64.1564 25.5431 65.0455 24.1041 66.1802 22.87C67.2733 21.607 68.435 20.4052 69.6602 19.27C72.0902 16.99 74.6602 14.91 77.1702 12.72C78.4302 11.64 79.6402 10.5 80.8902 9.38999C82.1466 8.29051 83.4584 7.25584 84.8202 6.28999C86.1885 5.32974 87.6333 4.48356 89.1402 3.75999C89.8987 3.40626 90.6766 3.09576 91.4702 2.82999C91.8855 2.66324 92.3346 2.5981 92.7802 2.63999C92.921 2.66867 93.0491 2.74121 93.1461 2.84721C93.2431 2.9532 93.3041 3.08721 93.3202 3.22999C93.3381 3.46702 93.3074 3.70519 93.2302 3.92999C92.5888 5.495 91.7157 6.95465 90.6402 8.25999C89.6402 9.59999 88.5502 10.88 87.4302 12.11C85.1917 14.5872 82.7681 16.8905 80.1802 19C77.6115 21.1411 74.8762 23.0739 72.0002 24.78C70.5639 25.6281 69.0853 26.4025 67.5702 27.1C66.8113 27.4494 66.0295 27.7467 65.2302 27.99C64.8243 28.1234 64.3966 28.1777 63.9702 28.15C63.7702 28.15 63.5202 27.98 63.4902 27.74C63.4616 27.5274 63.4857 27.3111 63.5602 27.11ZM63.6302 27.11C63.5578 27.2977 63.5337 27.5006 63.5602 27.7C63.5602 27.9 63.7802 27.99 63.9702 28.02C64.3775 28.0431 64.7853 27.9853 65.1702 27.85C65.9604 27.5819 66.7264 27.2473 67.4602 26.85C68.9262 26.0794 70.3484 25.2281 71.7202 24.3C74.4735 22.4533 77.1402 20.4767 79.7202 18.37C82.2654 16.255 84.6767 13.984 86.9402 11.57C88.0602 10.36 89.1702 9.12999 90.2102 7.84999C91.2926 6.62073 92.1888 5.23936 92.8702 3.74999C93.0002 3.43999 93.0002 3.04999 92.7002 2.99999C92.3145 2.95567 91.9237 3.00365 91.5602 3.13999L90.3902 3.51999C90.0102 3.67999 89.6202 3.81999 89.2502 3.99999C87.7489 4.68026 86.3242 5.51831 85.0002 6.49999C83.6597 7.4757 82.3898 8.54504 81.2002 9.69999C80.0102 10.85 78.8502 12.05 77.6202 13.18C75.1602 15.44 72.5502 17.5 70.0002 19.63C68.708 20.676 67.4823 21.8015 66.3302 23C65.1631 24.1822 64.2449 25.5866 63.6302 27.13V27.11Z" fill="#231F20"/>
<path d="M64.7798 26.2C66.7798 24.69 68.7798 23.26 70.7798 21.85C71.7798 21.16 72.8698 20.51 73.8598 19.76C74.8428 19.0084 75.7842 18.2039 76.6798 17.35C78.4798 15.63 80.2598 13.92 81.9998 12.17C83.7398 10.42 85.4998 8.65 87.3398 7C85.8753 9.01947 84.2714 10.9341 82.5398 12.73C80.8091 14.4992 78.958 16.1464 76.9998 17.66C75.9998 18.41 74.9998 19.17 73.9998 20C72.9998 20.83 72.1098 21.63 71.1398 22.41C69.152 23.917 67.0219 25.2266 64.7798 26.32C64.7798 26.32 64.7698 26.22 64.7798 26.2Z" fill="#231F20"/>
<path d="M69.8799 17.49L86.4199 3.06999L69.8799 17.49Z" fill="#8DC63F"/>
<path d="M69.8594 17.47C71.1194 16.1472 72.455 14.8984 73.8594 13.73C75.3183 12.6261 76.7139 11.4409 78.0394 10.18C80.6638 7.61937 83.4567 5.23738 86.3994 3.04999C83.8325 5.65724 81.0965 8.09251 78.2094 10.34C76.7844 11.4781 75.4287 12.7003 74.1494 14C72.799 15.2356 71.3801 16.3941 69.8994 17.47H69.8594Z" fill="#231F20"/>
<path d="M77.56 50.13C74.87 59.71 70.65 63.28 67.69 64.81C66.9 65.22 66.25 65.46 59.69 67.81L50 71.16C50.7779 68.9167 51.7832 66.7588 53 64.72C54.9 61.49 56.65 58.46 59.94 56.48C62.73 54.81 64.02 55.48 68.85 53.99C71.899 53.0609 74.8238 51.7648 77.56 50.13Z" fill="#3E9581"/>
<path d="M77.5894 50.09C76.9814 53.1602 75.8805 56.1117 74.3294 58.83C72.7902 61.6153 70.4487 63.8731 67.6094 65.31C64.6094 66.46 61.7194 67.22 58.7994 68.31C55.8794 69.4 52.9994 70.37 50.1194 71.47L49.6094 71.67L49.7694 71.12C50.6915 68.1567 51.9959 65.3262 53.6494 62.7C54.4262 61.3394 55.3231 60.0509 56.3294 58.85C57.3798 57.6434 58.6317 56.6283 60.0294 55.85C61.4581 55.135 63.0082 54.6941 64.5994 54.55C66.1003 54.3178 67.5838 53.9837 69.0394 53.55C71.9957 52.6792 74.8595 51.5203 77.5894 50.09ZM77.5294 50.17C74.9831 51.908 72.2062 53.2813 69.2794 54.25C67.8054 54.7505 66.2984 55.1482 64.7694 55.44C63.2951 55.6054 61.8642 56.0428 60.5494 56.73C57.9912 58.2974 55.8881 60.5074 54.4494 63.14C53.6594 64.45 52.8394 65.74 52.1494 67.08C51.4441 68.4304 50.8229 69.823 50.2894 71.25L49.9394 70.9C52.8694 69.96 55.7994 69.01 58.6894 67.9C60.1394 67.38 61.5794 66.83 63.0094 66.26C64.4394 65.69 65.9094 65.16 67.2494 64.53C69.8994 63.09 72.1187 60.9708 73.6794 58.39C75.2447 55.7911 76.535 53.0363 77.5294 50.17Z" fill="#231F20"/>
<path d="M77.5603 50.13C73.1603 53.96 68.3903 57.86 63.2403 61.76C58.7103 65.19 54.2403 68.32 50.0303 71.16C52.6003 70.31 56.2403 69.06 60.6003 67.45C67.6003 64.85 68.7603 64.18 69.5003 63.68C71.7503 62.16 75.6603 58.63 77.5603 50.13Z" fill="#1E6F5D"/>
<path d="M77.53 50.17C75.59 52.17 73.34 54.17 71.17 56.01C69 57.85 66.72 59.71 64.38 61.42C62.04 63.13 59.56 64.63 57.2 66.29C54.84 67.95 52.47 69.62 50.2 71.37L50 70.93C52.88 69.82 55.76 68.71 58.65 67.66C61.54 66.61 64.43 65.48 67.24 64.29C67.931 64.0079 68.5996 63.6736 69.24 63.29C69.859 62.8765 70.4472 62.4186 71 61.92C72.1198 60.9147 73.1047 59.7685 73.93 58.51C75.5247 55.9176 76.7372 53.1086 77.53 50.17ZM77.53 50.09C77.1062 53.1987 76.0877 56.1966 74.53 58.92C72.9651 61.7213 70.5432 63.9469 67.62 65.27C64.75 66.5 61.85 67.54 58.92 68.53C55.99 69.52 53.05 70.46 50.1 71.39L48.46 71.92L49.89 70.92C52.29 69.32 54.6533 67.6533 56.98 65.92C59.3 64.2 61.59 62.44 63.87 60.68L70.69 55.35C73 53.65 75.17 51.86 77.58 50.09H77.53Z" fill="#231F20"/>
<path d="M22.4697 73.11C25.1497 82.68 29.3697 86.26 32.3397 87.79C33.1197 88.19 33.7697 88.43 40.3397 90.73L49.9997 94.14C49.2372 91.9005 48.2523 89.7431 47.0597 87.7C45.1597 84.47 43.4097 81.43 40.1197 79.46C37.3397 77.79 36.0397 78.46 31.2097 76.97C28.1509 76.0419 25.2161 74.7457 22.4697 73.11Z" fill="#3E9581"/>
<path d="M22.4995 73.15C23.4836 76.0282 24.7709 78.7938 26.3395 81.4C27.8964 83.9839 30.1165 86.1039 32.7695 87.54C34.1095 88.18 35.5895 88.71 37.0095 89.28C38.4295 89.85 39.8795 90.4 41.3295 90.91C44.2195 91.98 47.1495 92.91 50.0895 93.91L49.7295 94.26C49.1991 92.8333 48.5813 91.4406 47.8795 90.09C47.1895 88.74 46.3695 87.45 45.5695 86.09C44.1289 83.4619 42.0304 81.2531 39.4795 79.68C38.1614 79.0007 36.732 78.5638 35.2595 78.39C30.6941 77.5289 26.3523 75.7459 22.4995 73.15ZM22.4395 73.07C25.175 74.4852 28.0419 75.6306 30.9995 76.49C32.4566 76.9179 33.9396 77.2519 35.4395 77.49C37.0272 77.6217 38.5751 78.0562 39.9995 78.77C41.4011 79.5424 42.654 80.5583 43.6995 81.77C44.708 82.9692 45.605 84.2579 46.3795 85.62C48.0338 88.2472 49.3413 91.0773 50.2695 94.04L50.4295 94.59L49.9095 94.39C47.0395 93.29 44.1495 92.2 41.2295 91.23C38.3095 90.26 35.3695 89.43 32.4295 88.28C29.5871 86.8437 27.2423 84.586 25.6995 81.8C24.1475 79.0856 23.0465 76.1372 22.4395 73.07Z" fill="#231F20"/>
<path d="M22.4697 73.11C26.8697 76.93 31.6397 80.84 36.7797 84.74C41.3097 88.17 45.7297 91.3 49.9997 94.14C47.4197 93.28 43.7797 92.03 39.4197 90.42C32.4197 87.83 31.2597 87.15 30.5297 86.66C28.2697 85.13 24.3697 81.61 22.4697 73.11Z" fill="#1E6F5D"/>
<path d="M22.4395 73.06C24.8495 74.83 27.0295 76.62 29.3295 78.4L36.1495 83.73C38.4295 85.49 40.7195 87.25 42.9995 89C45.2795 90.75 47.6895 92.37 50.0895 94L51.5195 95L49.8795 94.47C46.9995 93.43 43.9995 92.5 41.0995 91.5C38.1995 90.5 35.2695 89.5 32.3995 88.24C29.4777 86.9195 27.056 84.6975 25.4895 81.9C23.9169 79.1755 22.8815 76.1746 22.4395 73.06ZM22.4395 73.15C23.2632 76.0861 24.4988 78.8906 26.1095 81.48C26.9374 82.7365 27.922 83.8823 29.0395 84.89C29.5937 85.3911 30.1854 85.8491 30.8095 86.26C31.4497 86.6437 32.1183 86.978 32.8095 87.26C35.6095 88.45 38.4895 89.59 41.3895 90.63C44.2895 91.67 47.1595 92.79 50.0395 93.9L49.8295 94.33C47.5161 92.5833 45.1828 90.8933 42.8295 89.26C40.4595 87.61 37.9995 86.1 35.6395 84.4C33.2795 82.7 31.0795 80.84 28.8495 79C26.6195 77.16 24.4395 75.17 22.4895 73.15H22.4395Z" fill="#231F20"/>
<path d="M31.3097 32.49C30.8097 27.49 22.8897 19.87 22.8897 19.87C22.8897 19.87 13.1197 10.41 3.88972 7.26C3.65046 7.14108 3.3869 7.07919 3.11972 7.07919C2.85253 7.07919 2.58898 7.14108 2.34972 7.26C1.16972 8.13 2.57972 11.89 3.06972 13.2C5.72972 20.32 22.0697 31.2 28.1997 35.2C28.638 35.3119 29.096 35.3233 29.5393 35.2333C29.9826 35.1432 30.3998 34.9541 30.7597 34.68C31.004 34.3763 31.1797 34.0233 31.2746 33.6453C31.3696 33.2672 31.3816 32.8731 31.3097 32.49Z" fill="#8DC63F"/>
<path d="M31.2697 32.49C30.9576 30.86 30.3143 29.3114 29.3797 27.94C28.4744 26.5572 27.4718 25.2405 26.3797 24C25.2797 22.7533 24.1464 21.5467 22.9797 20.38C21.7797 19.25 20.5297 18.15 19.2697 17.08C16.7627 14.906 14.1134 12.9015 11.3397 11.08C9.94472 10.1809 8.49526 9.36938 6.99969 8.64999C6.23969 8.30999 5.48969 7.96999 4.70969 7.64999C4.31969 7.51999 3.92969 7.33999 3.54969 7.24999C3.37428 7.18822 3.18736 7.16605 3.00237 7.18507C2.81737 7.20409 2.63887 7.26382 2.47969 7.35999C2.35741 7.49478 2.26343 7.65273 2.20331 7.8245C2.14319 7.99628 2.11816 8.17837 2.12969 8.35999C2.12054 8.77565 2.15405 9.19116 2.22969 9.59999C2.39654 10.4157 2.62383 11.218 2.90969 12C3.42755 13.551 4.22391 14.9946 5.25969 16.26C7.37066 18.8042 9.73259 21.1293 12.3097 23.2C14.8297 25.35 17.4997 27.33 20.1597 29.31C22.8197 31.29 25.5197 33.24 28.2797 35.11C28.6703 35.2244 29.0806 35.2551 29.4839 35.1999C29.8871 35.1448 30.2742 35.0051 30.6197 34.79C30.9334 34.5345 31.1547 34.1832 31.2497 33.79C31.3294 33.3609 31.3362 32.9214 31.2697 32.49ZM31.3397 32.49C31.4146 32.9066 31.4146 33.3333 31.3397 33.75C31.2578 34.176 31.0318 34.5609 30.6997 34.84C30.3396 35.0733 29.9355 35.23 29.5123 35.3006C29.0891 35.3711 28.6559 35.3539 28.2397 35.25C25.3997 33.5 22.5597 31.76 19.8197 29.85C17.0797 27.94 14.4297 25.92 11.8197 23.79C9.23707 21.6605 6.89031 19.2601 4.81969 16.63C4.55866 16.3146 4.32135 15.9804 4.10969 15.63C3.86817 15.2786 3.651 14.9111 3.45969 14.53L2.92969 13.36C2.77969 12.97 2.64969 12.57 2.51969 12.17C2.2525 11.3691 2.04198 10.5504 1.88969 9.71999C1.81737 9.29741 1.79055 8.86829 1.80969 8.43999C1.80492 8.20696 1.84868 7.97549 1.9382 7.76029C2.02773 7.54509 2.16105 7.35087 2.32969 7.18999C2.51497 7.06819 2.72451 6.98811 2.9438 6.9553C3.16308 6.92249 3.38688 6.93774 3.59969 6.99999C4.01969 7.10999 4.38969 7.28999 4.77969 7.42999C5.56969 7.71999 6.31969 8.07999 7.07969 8.42999C8.58381 9.14935 10.0492 9.94711 11.4697 10.82C14.3365 12.5377 17.0738 14.4629 19.6597 16.58C20.9672 17.6269 22.2157 18.7452 23.3997 19.93C24.5707 21.1262 25.6725 22.3882 26.6997 23.71C27.7369 25.02 28.6824 26.3999 29.5297 27.84C30.4421 29.2512 31.058 30.8333 31.3397 32.49Z" fill="#231F20"/>
<path d="M27.3899 30.86C26.6899 26.08 20.0699 19.05 20.0699 19.05C20.0699 19.05 11.8999 10.37 4.56986 7.76999C4.27986 7.66999 3.71986 7.48999 3.37986 7.84999C2.51986 8.75999 3.84986 12.34 4.30986 13.59C6.82986 20.36 20.2199 30.12 25.1799 33.59C25.5279 33.6754 25.8926 33.6657 26.2356 33.5619C26.5787 33.4581 26.8875 33.264 27.1299 33C27.4664 32.3397 27.5585 31.5817 27.3899 30.86Z" fill="#8DC63F"/>
<path d="M27.3494 30.87C26.7894 28 24.9994 25.56 23.2794 23.28C22.3794 22.15 21.4394 21.05 20.4794 19.97C19.5194 18.89 18.4794 17.9 17.4194 16.9C15.3424 14.8783 13.127 13.0037 10.7894 11.29C9.61551 10.4398 8.38237 9.67453 7.09943 9C6.44994 8.66909 5.7822 8.37529 5.09943 8.12C4.78019 7.96881 4.44467 7.85473 4.09943 7.78C3.95607 7.73423 3.80064 7.74498 3.66493 7.81004C3.52923 7.8751 3.42352 7.98956 3.36943 8.13C3.22302 8.79298 3.25406 9.48285 3.45943 10.13C3.62788 10.8276 3.83486 11.5153 4.07943 12.19C4.53932 13.5649 5.18532 14.8704 5.99943 16.07C7.71239 18.3901 9.65561 20.531 11.7994 22.46C13.8994 24.46 16.1494 26.29 18.3794 28.14C20.6094 29.99 22.8894 31.8 25.2294 33.53C25.5588 33.6024 25.9 33.6024 26.2294 33.53C26.5705 33.4509 26.8699 33.2477 27.0694 32.96C27.4126 32.3202 27.5121 31.5776 27.3494 30.87ZM27.4194 30.87C27.6045 31.5853 27.519 32.3438 27.1794 33C26.9655 33.3204 26.6419 33.5515 26.2694 33.65C25.9033 33.7252 25.5256 33.7252 25.1594 33.65C22.7394 32.03 20.3094 30.41 17.9994 28.65C15.6894 26.89 13.4094 25 11.2594 23C9.09276 21.0129 7.14805 18.7966 5.45943 16.39C4.67417 15.144 4.05874 13.7988 3.62943 12.39C3.40182 11.688 3.21484 10.9735 3.06943 10.25C2.99356 9.88395 2.94344 9.51305 2.91943 9.14C2.88657 8.7528 2.94126 8.36318 3.07943 8C3.17046 7.7973 3.33479 7.63654 3.53943 7.55C3.74191 7.49111 3.95696 7.49111 4.15943 7.55C4.50264 7.64897 4.83711 7.77607 5.15943 7.93C5.84249 8.19971 6.51016 8.50684 7.15943 8.85C8.48064 9.50894 9.76277 10.2435 10.9994 11.05C13.4322 12.6699 15.7388 14.4717 17.8994 16.44C20.0698 18.3877 21.9971 20.5903 23.6394 23C24.477 24.1977 25.2385 25.4468 25.9194 26.74C26.6439 28.0209 27.1508 29.4131 27.4194 30.86V30.87Z" fill="#231F20"/>
<path d="M29.7196 34C28.1296 29.1 20.4596 24.18 14.1996 18.23C12.1996 16.33 7.54956 11.66 1.90956 9.89C1.35956 9.72 0.599556 9.52 0.309556 9.89C-0.690444 11.09 5.04956 18.16 10.6796 23.3C18.5596 30.5 28.6796 36.15 29.6796 34.84C29.8996 34.62 29.7996 34.26 29.7196 34Z" fill="#8DC63F"/>
<path d="M29.6898 34.05C29.0752 32.5089 28.1609 31.1052 26.9998 29.92C25.8516 28.7248 24.6327 27.5994 23.3498 26.55C20.7998 24.42 18.1898 22.36 15.7298 20.1C14.4998 18.97 13.3398 17.76 12.1498 16.62C10.9602 15.465 9.69039 14.3957 8.34984 13.42C7.01987 12.4366 5.58836 11.5985 4.07984 10.92C3.69984 10.74 3.30984 10.6 2.92984 10.44L1.75984 10.06C1.39958 9.92449 1.01228 9.87651 0.62984 9.91999C0.31984 9.91999 0.35984 10.36 0.47984 10.73C1.16366 12.2181 2.05965 13.5991 3.13984 14.83C4.13984 16.11 5.28984 17.34 6.41984 18.55C8.6785 20.9688 11.0901 23.2402 13.6398 25.35C16.1932 27.45 18.8598 29.4267 21.6398 31.28C23.0137 32.2103 24.4393 33.0617 25.9098 33.83C26.6402 34.2273 27.4029 34.5618 28.1898 34.83C28.5749 34.9646 28.9826 35.0223 29.3898 35C29.5798 35 29.7798 34.88 29.8098 34.68C29.8214 34.4634 29.7802 34.2472 29.6898 34.05ZM29.7598 34.05C29.8412 34.2494 29.8721 34.4658 29.8498 34.68C29.8225 34.7889 29.7613 34.8864 29.6751 34.9583C29.5888 35.0301 29.4819 35.0728 29.3698 35.08C28.9473 35.116 28.5219 35.065 28.1198 34.93C27.3183 34.6771 26.5363 34.3663 25.7798 34C24.2498 33.31 22.7798 32.51 21.3398 31.68C18.4626 30.0033 15.7209 28.1042 13.1398 26C10.5488 23.8578 8.12814 21.5174 5.89984 19C4.76651 17.7733 3.69651 16.49 2.68984 15.15C1.61118 13.845 0.734723 12.3854 0.0898398 10.82C0.0159927 10.5945 -0.0112255 10.3563 0.00983978 10.12C0.0238692 9.97804 0.0828387 9.84427 0.178165 9.73815C0.27349 9.63203 0.400197 9.55911 0.53984 9.52999C0.985426 9.48732 1.43474 9.55249 1.84984 9.72C2.64735 9.98399 3.42869 10.2945 4.18984 10.65C5.69326 11.3856 7.13464 12.2417 8.49984 13.21C9.86169 14.1758 11.1734 15.2105 12.4298 16.31C13.6898 17.42 14.8898 18.56 16.1498 19.63C18.6398 21.82 21.2298 23.91 23.6598 26.19C24.8876 27.3226 26.0494 28.5246 27.1398 29.79C28.2713 31.0152 29.1603 32.4438 29.7598 34V34.05Z" fill="#231F20"/>
<path d="M23.4402 24.41L6.91016 10L23.4402 24.41Z" fill="#8DC63F"/>
<path d="M23.4296 24.43C21.949 23.3641 20.527 22.2191 19.1696 21C17.8818 19.7019 16.5195 18.4799 15.0896 17.34C12.1976 15.0766 9.45832 12.6246 6.88965 10C9.82417 12.1901 12.6134 14.5684 15.2396 17.12C16.5607 18.389 17.9565 19.5778 19.4196 20.68C20.822 21.8508 22.1574 23.0994 23.4196 24.42L23.4296 24.43Z" fill="#231F20"/>
</svg>
