<svg width="25" height="42" viewBox="0 0 25 42" fill="none" xmlns="http://www.w3.org/2000/svg">
<path d="M8.99976 39.78C6.59976 36.78 -1.83024 25.4 0.999759 12.59C1.65976 9.59002 2.90976 3.91002 7.86976 1.43002C12.2798 -0.789978 18.4898 0.120022 21.5998 3.72002C23.6598 6.10002 23.8598 9.08002 23.8798 11.44C23.9498 16.54 23.2998 25.94 18.1598 38.92C17.5421 39.6076 16.7929 40.1645 15.9565 40.5578C15.1201 40.9511 14.2133 41.1729 13.2898 41.21C11.7389 41.2343 10.2259 40.73 8.99976 39.78Z" fill="#3A7867"/>
<path d="M9.00008 39.81C7.75371 38.2804 6.60477 36.6739 5.56008 35C4.49859 33.3354 3.5498 31.6015 2.72008 29.81C1.00669 26.2029 0.0795354 22.2727 7.87633e-05 18.28C-0.00876436 17.2782 0.0379741 16.2767 0.140079 15.28C0.260079 14.28 0.490079 13.28 0.670079 12.34C1.09685 10.4011 1.7479 8.51842 2.61008 6.73004C3.47788 4.92664 4.76765 3.35902 6.37008 2.16004C8.00002 0.993259 9.91324 0.285301 11.9101 0.110041C13.9069 -0.119953 15.9299 0.116233 17.8201 0.800041C18.7707 1.14508 19.6691 1.61954 20.4901 2.21004C21.3171 2.82023 22.0369 3.5637 22.6201 4.41004C23.692 6.15742 24.2756 8.16035 24.3101 10.21C24.4001 12.193 24.3801 14.1793 24.2501 16.16C23.936 20.1089 23.2666 24.0214 22.2501 27.85C21.2433 31.659 19.9496 35.3863 18.3801 39C17.1736 40.27 15.545 41.0559 13.8001 41.21C12.0803 41.3699 10.3642 40.8694 9.00008 39.81ZM9.00008 39.74C10.3399 40.7663 12.0212 41.242 13.7001 41.07C15.3723 40.8662 16.9069 40.0418 18.0001 38.76V38.83C20.7299 31.505 22.5045 23.8587 23.2801 16.08C23.4483 14.1449 23.5017 12.2015 23.4401 10.26C23.4347 8.3627 22.9386 6.499 22.0001 4.85004C21.482 4.06578 20.8482 3.3645 20.1201 2.77004C19.368 2.18508 18.5406 1.70409 17.6601 1.34004C15.866 0.616884 13.928 0.322407 12.0001 0.480041C10.058 0.620062 8.19095 1.28736 6.60008 2.41004C5.04025 3.58706 3.80213 5.13814 3.00008 6.92004C2.24644 8.71285 1.69634 10.5846 1.36008 12.5C1.00598 14.3989 0.845158 16.3288 0.880079 18.26C0.880079 18.75 0.880079 19.26 0.930079 19.71L1.09008 21.15C1.17008 22.15 1.38008 23.06 1.55008 24.01C1.98055 25.9066 2.5419 27.7711 3.23008 29.59C3.95193 31.4073 4.79378 33.1745 5.75008 34.88C6.72583 36.5695 7.8115 38.193 9.00008 39.74Z" fill="#231F20"/>
<path d="M17.7901 12.17C15.5101 5.67003 9.61011 3.17003 10.7901 1.22003C11.9701 -0.729971 18.3401 -0.0799708 21.6001 3.60003C23.7301 6.01003 23.8801 9.10003 23.8801 11.33C23.8801 21.53 20.6701 32.12 18.1601 38.92C17.5879 39.5853 16.8828 40.1235 16.0901 40.5C15.0101 41 13.1801 41.44 12.4501 40.96C9.73011 39.17 22.0001 24.32 17.7901 12.17Z" fill="#1E6F5D"/>
<path d="M17.7604 12.18C16.8449 9.76089 15.4231 7.56523 13.5904 5.74003C12.7104 4.80003 11.7404 4.00003 10.9204 2.91003L10.6504 2.48003C10.5787 2.32345 10.5153 2.16323 10.4604 2.00003C10.4326 1.82302 10.4433 1.64211 10.4916 1.46958C10.5399 1.29704 10.6248 1.13691 10.7404 1.00003C11.2204 0.48392 11.8698 0.157425 12.5704 0.0800297C15.2171 -0.207456 17.8783 0.47472 20.0604 2.00003C21.1562 2.74325 22.0664 3.72868 22.7204 4.88003C23.3408 6.04181 23.7345 7.31106 23.8804 8.62003C24.0257 9.91465 24.0658 11.2189 24.0004 12.52C24.0004 13.81 23.8804 15.11 23.7504 16.39C23.5037 18.97 23.1304 21.53 22.6304 24.07C21.5906 29.1464 20.17 34.1372 18.3804 39C17.3358 40.2034 15.9029 41.003 14.3304 41.26C13.9326 41.3423 13.5255 41.3692 13.1204 41.34C12.8986 41.3295 12.681 41.2751 12.4804 41.18C12.252 41.0706 12.0709 40.8824 11.9704 40.65C11.8162 40.2445 11.7883 39.8017 11.8904 39.38C11.9551 38.9893 12.0521 38.6047 12.1804 38.23C12.6704 36.76 13.3204 35.38 13.9204 33.98C14.5204 32.58 15.1304 31.2 15.7204 29.79C16.9151 27.0036 17.7939 24.0921 18.3404 21.11C18.8933 18.1315 18.6939 15.062 17.7604 12.18ZM17.7604 12.18C18.7128 15.0973 18.9595 18.1989 18.4804 21.23C18.0166 24.2319 17.2218 27.1732 16.1104 30C15.0504 32.86 13.6204 35.59 12.6404 38.42C12.5235 38.7694 12.4332 39.1271 12.3704 39.49C12.2775 39.8169 12.2775 40.1632 12.3704 40.49C12.4406 40.617 12.5458 40.7212 12.6734 40.7903C12.8009 40.8594 12.9456 40.8905 13.0904 40.88C13.4448 40.9097 13.8016 40.8895 14.1504 40.82C15.6382 40.6143 17.0036 39.8837 18.0004 38.76V38.84C19.8162 34.0072 21.2735 29.0471 22.3604 24C23.5343 18.9802 23.9489 13.8128 23.5904 8.67003C23.4371 7.40245 23.0397 6.17656 22.4204 5.06003C21.7794 3.96825 20.8968 3.03779 19.8404 2.34003C18.7795 1.63998 17.6105 1.11966 16.3804 0.80003C15.1656 0.437203 13.8898 0.324932 12.6304 0.47003C12.0289 0.521934 11.4604 0.76756 11.0104 1.17003C10.916 1.2683 10.846 1.38736 10.806 1.51763C10.7661 1.64791 10.7573 1.78574 10.7804 1.92003C10.7804 2.06003 10.8704 2.20003 10.9204 2.34003L11.1604 2.74003C11.9104 3.74003 12.8604 4.65003 13.7204 5.62003C15.5077 7.50428 16.8985 9.72824 17.8104 12.16L17.7604 12.18Z" fill="#231F20"/>
<path d="M3.2204 9.50002C1.7404 9.73002 1.2204 17.29 2.9204 24.12C4.7904 31.79 9.3504 38.46 10.3404 38.12C11.0004 37.91 10.2104 34.57 9.8904 33.2C8.3204 26.57 5.7104 26 5.4704 21.66C5.2804 18.1 7.0004 17 5.9204 13.56C5.3704 11.73 4.0904 9.37002 3.2204 9.50002Z" fill="#1E6F5D"/>
<path d="M3.23005 9.53004C2.92005 9.60004 2.74005 9.91004 2.61005 10.19C2.48322 10.4873 2.38283 10.7952 2.31005 11.11C2.15653 11.7308 2.05286 12.3628 2.00005 13C1.91503 14.2853 1.91503 15.5748 2.00005 16.86C2.1902 19.4379 2.60511 21.9943 3.24005 24.5C3.83827 27.0117 4.70318 29.4522 5.82005 31.78C6.36572 32.9499 6.99397 34.0794 7.70005 35.16C8.05005 35.7 8.42005 36.23 8.82005 36.73C9.18249 37.2377 9.64118 37.6693 10.1701 38C10.3901 38.11 10.4301 37.78 10.4401 37.47C10.4414 37.1554 10.418 36.8411 10.3701 36.53C10.2801 35.9 10.1501 35.27 10.0101 34.64C9.74362 33.3863 9.4098 32.1478 9.01005 30.93C8.59191 29.7205 8.05601 28.5549 7.41005 27.45C6.70498 26.3433 6.11523 25.1671 5.65005 23.94C5.24883 22.6678 5.12271 21.3248 5.28005 20C5.43005 18.67 5.95005 17.45 6.08005 16.2C6.17562 14.924 5.95941 13.6439 5.45005 12.47C5.22355 11.8672 4.93887 11.2877 4.60005 10.74C4.42406 10.4748 4.22315 10.227 4.00005 10C3.91176 9.87217 3.79759 9.76425 3.66495 9.68329C3.53231 9.60233 3.38415 9.55012 3.23005 9.53004ZM3.23005 9.53004C3.39646 9.53793 3.55927 9.58126 3.70758 9.65714C3.8559 9.73302 3.98629 9.8397 4.09005 9.97004C4.30934 10.2086 4.50679 10.4663 4.68005 10.74C5.02639 11.2896 5.33059 11.8645 5.59005 12.46C6.16472 13.6499 6.44916 14.959 6.42005 16.28C6.35005 17.62 5.86005 18.84 5.76005 20.1C5.63334 21.355 5.75568 22.6225 6.12005 23.83C6.58379 25.0206 7.16323 26.1627 7.85005 27.24C8.48935 28.3818 9.02162 29.5802 9.44005 30.82C9.85201 32.0613 10.186 33.3271 10.4401 34.61C10.5601 35.25 10.6801 35.89 10.7501 36.54C10.7755 36.8729 10.7755 37.2072 10.7501 37.54C10.7499 37.7214 10.716 37.9011 10.6501 38.07C10.6081 38.1797 10.5258 38.2691 10.4201 38.32C10.3679 38.3423 10.3118 38.3538 10.2551 38.3538C10.1983 38.3538 10.1422 38.3423 10.0901 38.32C9.51304 37.9691 9.02119 37.4943 8.65005 36.93C8.25162 36.4158 7.8843 35.8782 7.55005 35.32C6.86005 34.22 6.25005 33.07 5.67005 31.92C4.50304 29.5968 3.55559 27.1696 2.84005 24.67C2.16902 22.1326 1.8031 19.5242 1.75005 16.9C1.72284 15.598 1.77628 14.2955 1.91005 13C1.97607 12.3539 2.08295 11.7126 2.23005 11.08C2.30657 10.7605 2.41373 10.449 2.55005 10.15C2.69005 9.88004 2.87005 9.55004 3.22005 9.48004L3.23005 9.53004Z" fill="#231F20"/>
</svg>
