<svg width="33" height="35" viewBox="0 0 33 35" fill="none" xmlns="http://www.w3.org/2000/svg">
<path d="M12.0498 17C10.7198 15.69 12.6798 13.47 11.5598 10.3C10.2698 6.60001 6.05979 5.11001 6.27979 4.74001C6.49979 4.37001 8.27979 5.58001 11.3998 6.62001C14.5198 7.66001 15.3098 7.34001 16.3998 8.25001C18.2398 9.72001 19.8598 13.25 18.2398 15.61C16.8398 17.8 13.3398 18.31 12.0498 17Z" fill="#F8ED33" stroke="#010101" stroke-miterlimit="10"/>
<path d="M19.5792 0.510008C19.2792 0.710008 21.1692 3.51001 20.0592 4.93001C19.7192 5.39001 19.3892 5.30001 18.8592 5.67001C16.8592 7.03001 16.9192 11.4 18.2992 14.5C18.8092 15.63 19.1792 16.5 19.9792 16.71C21.7692 17.21 24.6692 14.27 25.3492 11.23C26.6092 5.58001 20.0492 0.210008 19.5792 0.510008Z" fill="#F8ED33" stroke="#010101" stroke-miterlimit="10"/>
<path d="M15.4892 17.85C11.8792 18.76 10.3092 24.77 11.5592 29.05C12.1467 30.9869 13.2909 32.7083 14.8492 34C16.6106 33.2151 18.1524 32.0099 19.3392 30.49C20.9892 28.33 23.4092 23.56 21.0992 20.27C20.4954 19.3704 19.6452 18.6637 18.6503 18.2346C17.6554 17.8054 16.558 17.6719 15.4892 17.85Z" fill="#F8ED33" stroke="#010101" stroke-miterlimit="10"/>
<path d="M19.2598 19.65C17.7098 21.28 19.7998 26.28 22.7798 29.06C23.1498 29.4 26.5398 32.5 28.3898 31.43C30.2398 30.36 30.0798 25.71 27.9898 22.76C25.6698 19.48 20.7398 18.1 19.2598 19.65Z" fill="#F8ED33" stroke="#010101" stroke-miterlimit="10"/>
<path d="M15.6496 16.71C14.4195 15.6922 12.8412 15.1936 11.2496 15.32C8.94964 15.49 8.55964 16.81 2.18964 21.86C1.48964 22.42 0.359643 23.29 0.509643 23.57C0.659643 23.85 3.27964 22.29 6.91964 22.43C8.41964 22.48 8.38964 22.79 10.5996 23.09C13.8296 23.51 16.3696 23.85 17.3296 22.51C18.2896 21.17 17.3796 18.24 15.6496 16.71Z" fill="#F8ED33" stroke="#010101" stroke-miterlimit="10"/>
<path d="M16.1296 14.46C15.6205 14.9099 15.2388 15.486 15.0229 16.1302C14.807 16.7744 14.7645 17.4641 14.8996 18.13C15.0295 18.8132 15.3443 19.4477 15.8098 19.9643C16.2753 20.481 16.8736 20.8599 17.5396 21.06L26.1396 20.43C26.0096 18.43 25.8696 16.43 25.7396 14.43L16.1296 14.46Z" fill="#F8ED33" stroke="#010101" stroke-miterlimit="10"/>
<path d="M21.6997 10.92C21.4797 11.15 21.8697 11.57 21.5897 12.08C21.3097 12.59 20.8697 12.47 20.6697 12.97C20.5397 13.3 20.6697 13.38 20.6197 13.71C20.3997 14.44 19.4097 14.43 19.3297 14.97C19.3297 15.36 19.7797 15.48 19.7897 15.97C19.7897 16.62 18.8997 16.9 18.9697 17.34C19.0397 17.78 20.2797 17.61 20.7197 18.34C21.1597 19.07 20.2397 20 20.7197 20.81C21.0297 21.32 21.4697 21.08 22.1697 21.76C22.7197 22.3 22.5497 22.57 23.1697 23.23C23.5797 23.69 23.6897 23.6 24.6597 24.33C25.6297 25.06 26.0697 25.61 26.3597 25.49C26.6497 25.37 26.4197 24.43 26.9297 24.01C27.4397 23.59 28.4097 24.38 29.0897 23.91C29.6097 23.55 29.2897 22.91 29.8697 22.33C30.4497 21.75 31.6197 21.9 31.6697 21.6C31.7197 21.3 29.7697 20.87 29.6697 20.13C29.5697 19.39 32.1597 18.55 32.0397 18.03C31.9197 17.51 29.7297 17.82 29.6197 17.35C29.5097 16.88 31.7297 16.06 31.6197 15.67C31.5097 15.28 29.2297 15.67 29.0997 15.25C28.9697 14.83 30.9097 14 30.7597 13.4C30.6597 13 29.7597 13.09 29.5697 12.56C29.3797 12.03 30.0897 11.46 29.9897 11.35C29.8897 11.24 27.7897 13.35 26.9897 12.87C26.1897 12.39 26.9897 9.64001 26.5797 9.50001C26.1697 9.36001 25.8797 11.21 24.6697 11.56C23.4597 11.91 22.0897 10.5 21.6997 10.92Z" fill="url(#paint0_linear)" stroke="#010101" stroke-width="0.5" stroke-miterlimit="10"/>
<path d="M24.4694 15.38C24.3494 17.38 25.5494 18.02 25.1794 19.78C24.9794 20.69 24.5794 20.86 24.7394 21.41C25.0494 22.48 27.0894 23.3 28.3694 22.54C28.6165 22.3988 28.8325 22.2091 29.0043 21.9822C29.1762 21.7554 29.3004 21.4961 29.3694 21.22C29.4894 20.44 28.8694 20.09 29.0594 19.46C29.2494 18.83 30.3694 18.63 30.3494 18.24C30.3294 17.85 28.3494 17.61 28.3494 17.1C28.3494 16.59 29.6594 16.42 29.6394 16.02C29.6194 15.62 27.7794 15.55 27.6894 15.02C27.5994 14.49 28.9694 13.9 28.8794 13.71C28.7894 13.52 27.8794 14.14 27.0694 13.8C26.2594 13.46 26.2894 12.72 25.8694 12.71C25.4494 12.7 24.5494 14 24.4694 15.38Z" fill="#FCEE23" stroke="#010101" stroke-width="0.5" stroke-miterlimit="10"/>
<defs>
<linearGradient id="paint0_linear" x1="18.9697" y1="17.5" x2="32.0497" y2="17.5" gradientUnits="userSpaceOnUse">
<stop offset="0.13" stop-color="#F8ED33"/>
<stop offset="1" stop-color="white"/>
</linearGradient>
</defs>
</svg>
