<svg width="68" height="69" viewBox="0 0 68 69" fill="none" xmlns="http://www.w3.org/2000/svg">
<path d="M2.44007 22.53C7.18007 12.76 24.8501 12.85 30.0901 12.88C37.0001 12.92 51.0001 13 55.8901 21.6C58.0001 25.36 56.8901 31.42 54.5201 43.6C52.7101 53 51.7401 57.82 48.6201 61C43.2301 66.55 35.4301 66.8 30.1901 67C24.9501 67.2 15.7801 67.47 10.0701 61.53C8.64007 60.05 7.47007 58.22 4.46007 42.28C1.28007 25.4 1.88007 23.67 2.44007 22.53Z" fill="#8B5E3C"/>
<path d="M2.35065 22.49C3.22101 20.7703 4.46875 19.2696 6.00065 18.1C7.53166 16.9296 9.21347 15.9709 11.0007 15.25C14.5714 13.8468 18.3152 12.9319 22.1307 12.53C25.9283 12.1056 29.7508 11.9452 33.5707 12.05C35.4891 12.0653 37.4053 12.1855 39.3107 12.41C41.2367 12.6053 43.1432 12.9599 45.0107 13.47C46.9072 13.9548 48.735 14.6772 50.4507 15.62C52.2024 16.5366 53.7528 17.7946 55.0107 19.32C55.3406 19.6907 55.6289 20.0965 55.8707 20.53C56.1561 20.9365 56.4038 21.3683 56.6107 21.82C57.013 22.7331 57.263 23.706 57.3507 24.7C57.5031 26.621 57.4394 28.5531 57.1607 30.46C56.6807 34.24 55.9807 37.96 55.3107 41.69C54.6407 45.42 54.0007 49.17 53.1107 52.89C52.7107 54.7937 52.1037 56.6481 51.3007 58.42C50.8624 59.3354 50.3259 60.2005 49.7007 61C49.3878 61.3847 49.0539 61.7519 48.7007 62.1C48.3526 62.4569 47.9819 62.7909 47.5907 63.1C44.4632 65.5424 40.7228 67.0753 36.7807 67.53C34.8634 67.786 32.9341 67.9429 31.0007 68C29.1107 68.08 27.1907 68.16 25.2507 68.12C21.2923 68.148 17.3786 67.2833 13.8007 65.59C11.9903 64.6481 10.3644 63.388 9.00065 61.87C8.32718 61.0493 7.79952 60.1191 7.44065 59.12C7.09744 58.1996 6.80368 57.2616 6.56065 56.31C5.56065 52.59 4.95065 48.84 4.34065 45.09C3.73065 41.34 3.18065 37.59 2.70065 33.82C2.47065 31.94 2.22065 30.05 2.06065 28.16C1.98065 27.22 1.90065 26.27 1.89065 25.31C1.81466 24.3466 1.97247 23.3792 2.35065 22.49ZM2.53065 22.58C2.17815 23.4442 2.03757 24.3803 2.12065 25.31C2.12065 26.25 2.22065 27.19 2.34065 28.13C2.59065 30 2.87065 31.88 3.24065 33.73C4.00065 37.45 4.77065 41.15 5.62065 44.84C6.47065 48.53 7.36065 52.21 8.40065 55.78C8.79881 57.4872 9.52567 59.1006 10.5407 60.53C11.753 61.8125 13.1814 62.872 14.7607 63.66C18.0683 65.1892 21.6667 65.9873 25.3107 66C27.1607 66.08 29.0307 66 30.9207 66C32.7829 65.975 34.6423 65.8481 36.4907 65.62C40.1285 65.2707 43.6076 63.9591 46.5707 61.82C46.9213 61.5505 47.2553 61.26 47.5707 60.95C47.9231 60.6363 48.257 60.3024 48.5707 59.95C49.1571 59.2787 49.6669 58.5441 50.0907 57.76C50.9477 56.1165 51.6186 54.3824 52.0907 52.59C53.0907 48.97 53.8507 45.25 54.5807 41.53C55.3107 37.81 56.0807 34.1 56.4807 30.35C56.7005 28.4998 56.7005 26.6301 56.4807 24.78C56.3512 23.8865 56.0812 23.0191 55.6807 22.21C55.4695 21.8135 55.2253 21.4355 54.9507 21.08C54.7075 20.699 54.426 20.3438 54.1107 20.02C52.8834 18.6735 51.3971 17.5885 49.7407 16.83C48.9149 16.4457 48.0667 16.1118 47.2007 15.83C46.3207 15.57 45.4507 15.29 44.5407 15.1C40.898 14.3138 37.1867 13.8884 33.4607 13.83C29.6907 13.74 25.9207 13.59 22.1807 13.83C18.44 13.9926 14.7391 14.6655 11.1807 15.83C9.39347 16.433 7.70774 17.3028 6.18065 18.41C4.65529 19.4961 3.4053 20.9242 2.53065 22.58Z" fill="#231F20"/>
<path d="M2.43027 21.74C2.54027 16.46 18.5203 11.64 31.8203 12.01C42.3803 12.3 56.3903 16.01 56.6503 20.95C56.9103 25.89 43.4003 31.68 31.4203 32.27C17.7003 32.94 2.32027 27 2.43027 21.74Z" fill="#A97C50"/>
<path d="M2.33008 21.74C2.41264 21.0937 2.62643 20.4712 2.95832 19.9106C3.29021 19.35 3.7332 18.8631 4.26008 18.48C5.24718 17.6543 6.31998 16.9369 7.46008 16.34C9.73085 15.138 12.1118 14.1568 14.5701 13.41C19.4865 11.8636 24.6165 11.1043 29.7701 11.16C34.8973 11.3395 39.9856 12.1215 44.9301 13.49C47.4188 14.1127 49.8481 14.9526 52.1901 16C53.383 16.5367 54.4995 17.2294 55.5101 18.06C56.042 18.5064 56.4804 19.0535 56.8001 19.67C57.1423 20.3385 57.2515 21.1023 57.1101 21.84C56.737 23.199 55.955 24.4104 54.8701 25.31C53.8918 26.1984 52.8187 26.9764 51.6701 27.63C49.4219 28.929 47.0418 29.9849 44.5701 30.78C39.662 32.4715 34.5113 33.353 29.3201 33.39C24.1376 33.3711 18.9965 32.4647 14.1201 30.71C11.6804 29.8637 9.33467 28.7679 7.12008 27.44C6.02662 26.7745 5.0104 25.9897 4.09008 25.1C3.58472 24.688 3.16819 24.1779 2.86567 23.6004C2.56316 23.0228 2.38095 22.3899 2.33008 21.74ZM2.53008 21.74C2.59429 22.357 2.78344 22.9545 3.08602 23.496C3.38861 24.0376 3.79828 24.5119 4.29008 24.89C5.24009 25.7061 6.29226 26.3953 7.42008 26.94C9.68235 28.0361 12.0606 28.8747 14.5101 29.44C19.3576 30.6278 24.3291 31.2354 29.3201 31.25C34.2954 31.2 39.2382 30.4425 44.0001 29C46.3788 28.2948 48.6884 27.3743 50.9001 26.25C51.9827 25.6737 53.0133 25.0045 53.9801 24.25C54.8969 23.582 55.5989 22.661 56.0001 21.6C56.0941 21.056 56.0396 20.4968 55.8425 19.9811C55.6454 19.4655 55.3129 19.0125 54.8801 18.67C53.9913 17.8312 52.9796 17.1332 51.8801 16.6C49.6133 15.5027 47.2276 14.6705 44.7701 14.12C42.3143 13.5638 39.8209 13.1895 37.3101 13C34.8096 12.7819 32.2975 12.7284 29.7901 12.84C24.7832 13.04 19.8005 13.6419 14.8901 14.64C12.4244 15.1288 10.0128 15.859 7.69008 16.82C6.52825 17.2999 5.43536 17.9321 4.44008 18.7C3.92718 19.0453 3.49227 19.4942 3.16331 20.0178C2.83436 20.5414 2.61865 21.128 2.53008 21.74Z" fill="#231F20"/>
<path d="M8.35002 21.53C8.44002 17.77 20.63 14.3399 30.78 14.5999C38.78 14.8099 49.51 17.4399 49.71 20.9599C49.91 24.4799 39.61 28.5999 30.47 28.9999C20 29.4999 8.27002 25.24 8.35002 21.53Z" fill="#231F20" stroke="#231F20" stroke-width="3" stroke-miterlimit="10"/>
<path d="M19.7002 27.9999C20.0702 25.6999 20.5202 23.4799 21.0502 21.3899C21.2202 20.6799 21.4002 19.9999 21.5902 19.3399C21.6502 19.1199 21.7202 18.8999 21.7902 18.6899C22.1802 17.3999 22.5902 16.1699 23.0502 14.9999C23.3169 14.3332 23.5969 13.6666 23.8902 12.9999C23.9948 12.7575 24.1116 12.5205 24.2402 12.2899C25.5216 9.37145 27.5668 6.8529 30.1602 4.9999C30.9868 4.45951 31.8857 4.03868 32.8302 3.7499C34.8302 3.1399 37.8802 2.9199 42.2002 4.8099C45.4902 6.2499 49.5402 8.9099 54.4702 13.5499" stroke="#1E6F5D" stroke-width="2" stroke-miterlimit="10"/>
<path d="M26.0002 19.09C26.9402 16.04 26.3202 13.14 24.3402 11.61C21.8402 9.68 17.5402 10.25 14.1302 13.16C16.008 13.5738 17.7662 14.4118 19.2702 15.61C20.4202 16.54 21.4802 17.78 21.2702 18.05C21.0602 18.32 18.8502 16.05 15.3802 16.16C11.2702 16.25 7.13018 19.71 7.25018 20.25C7.37018 20.79 9.85018 19.25 13.4502 19.38C16.2702 19.48 18.6302 20.47 18.4502 20.94C18.2702 21.41 16.7202 21.22 12.6102 21.64C6.55018 22.27 5.61018 22.91 5.09018 23.27C4.57018 23.63 2.28018 25.58 1.88018 30.86C3.30018 29.15 7.00018 25.09 11.3902 24.54C13.5502 24.26 16.2302 24.81 16.1302 25.54C16.0502 26.07 14.6602 26.61 14.0602 26.85C11.0602 28.03 9.92018 27.12 7.54018 27.65C6.11017 27.9963 4.76753 28.6355 3.5971 29.5271C2.42666 30.4187 1.45387 31.5433 0.740176 32.83C-0.329824 35 -0.129824 37.5 0.660176 37.6C1.66018 37.71 2.72018 34.17 5.86018 32.45C8.03018 31.25 10.6002 30.92 10.8002 31.64C11.0002 32.36 9.37018 34.09 1.73018 39.14C1.33465 40.3231 1.29984 41.5971 1.63018 42.8C1.80439 43.3802 2.09815 43.9176 2.49255 44.3774C2.88695 44.8372 3.37326 45.2094 3.92018 45.47C7.05018 43.9 8.57018 44 9.37018 44.53C10.1702 45.06 10.2302 45.64 10.9702 45.59C12.0802 45.51 13.2102 43.84 13.9702 42.76C15.3788 40.9242 16.248 38.7323 16.4802 36.43C16.5402 34.52 15.8302 33.98 16.4802 32.6C17.1302 31.22 18.4002 30.07 19.0102 30.23C20.5502 30.65 18.0102 40.36 14.6202 43.52C14.4002 43.73 13.8902 44.18 13.9502 44.33C14.1102 44.71 17.9502 43.8 19.7102 41.44C21.8102 38.69 19.5402 36.09 21.8802 30.68C21.9502 30.51 23.0002 28.09 23.4602 28.11C24.1802 28.16 22.9102 34.43 21.7002 39.86C25.0302 38.62 26.1502 37.04 26.5702 36.26C27.7702 33.99 26.9802 31.16 25.8402 27.07C25.3202 25.21 24.9402 24.42 25.2502 24.16C25.8102 23.69 28.3702 25.05 29.2502 27.57C30.3002 30.67 28.2502 34.04 28.9002 34.24C29.5502 34.44 32.0002 31.71 33.0202 28.6C34.0202 25.69 33.7802 22.14 31.6102 20.35C30.6637 19.6168 29.5379 19.1506 28.3502 19C27.5667 18.9126 26.7746 18.9429 26.0002 19.09Z" fill="#3A7867"/>
<path d="M11.5706 34.32C11.3406 34.05 8.15064 36.06 6.04064 39.19C5.87064 39.46 4.77064 41.09 4.98064 41.19C5.42064 41.54 11.9306 34.76 11.5706 34.32Z" fill="white"/>
<path d="M22.3199 12.82C22.5099 12.66 23.3999 13.25 23.9999 14.06C25.1799 15.67 25.0699 18 24.7799 18.13C24.4899 18.26 24.5299 17.66 23.2299 15C22.4899 13.48 22.1799 13 22.3199 12.82Z" fill="white"/>
<path d="M12.31 30.0899C11.64 29.7699 7.70997 27.9399 4.16997 30.1799C2.82997 31.0299 1.70997 32.3599 1.81997 32.5399C1.92997 32.7199 4.05997 30.9199 6.75997 30.0999C8.56873 29.5508 10.4992 29.5473 12.31 30.0899Z" fill="white"/>
<path d="M18.2106 22.4299C17.6147 22.6889 16.9904 22.8768 16.3506 22.9899C15.7641 23.1245 15.1614 23.175 14.5606 23.1399C13.9475 22.9966 13.3202 22.9228 12.6906 22.9199C12.0795 23.0026 11.4987 23.2363 11.0006 23.5999C10.5033 23.9673 9.98214 24.3014 9.44062 24.5999C8.93272 24.9169 8.40868 25.2073 7.87063 25.4699C6.72042 25.999 5.50723 26.3788 4.26063 26.5999L4.14062 26.4399C4.76553 25.2469 5.71552 24.2553 6.88063 23.5799C7.45869 23.2655 8.07334 23.0237 8.71063 22.8599C9.35795 22.6589 10.0329 22.561 10.7106 22.5699C11.36 22.5685 12.0061 22.4776 12.6306 22.2999C13.2306 22.1099 13.8206 21.6899 14.4606 21.4899C15.1181 21.3334 15.8031 21.3334 16.4606 21.4899C17.1422 21.5964 17.7876 21.8675 18.3406 22.2799L18.2106 22.4299Z" fill="#1E6F5D"/>
<path d="M20.5801 27.2899C21.0085 27.829 21.3001 28.4637 21.4301 29.1399C21.5847 29.7976 21.5847 30.4822 21.4301 31.1399C21.2501 31.7799 20.8501 32.3799 20.6801 32.9899C20.5155 33.6161 20.4414 34.2627 20.4601 34.9099C20.4879 35.5845 20.4103 36.2593 20.2301 36.9099C20.0838 37.5518 19.8587 38.1732 19.5601 38.7599C18.9242 39.9479 17.9589 40.9271 16.7801 41.5799L16.6201 41.4699C16.7951 40.2185 17.1312 38.995 17.6201 37.8299C17.8501 37.2799 18.1601 36.7699 18.4401 36.2299C18.741 35.6802 19.075 35.1492 19.4401 34.6399C19.7961 34.1274 20.0132 33.5313 20.0701 32.9099C20.0417 32.2647 19.9445 31.6244 19.7801 30.9999C19.7252 30.402 19.7555 29.7993 19.8701 29.2099C19.9656 28.5654 20.1368 27.9344 20.3801 27.3299L20.5801 27.2899Z" fill="#1E6F5D"/>
<path d="M25.4007 19.91C24.6827 20.9542 23.8799 21.9375 23.0007 22.85C22.155 23.7674 21.2352 24.6136 20.2507 25.38C19.2507 26.12 18.1007 26.73 17.1507 27.53C16.2004 28.3503 15.336 29.265 14.5707 30.26C13.8007 31.26 13.0107 32.26 12.1607 33.15C11.3107 34.04 10.4807 35 9.57066 35.86C7.74051 37.5885 5.72882 39.114 3.57066 40.41L3.43066 40.27C4.77347 38.1281 6.34247 36.1367 8.11066 34.33C8.98066 33.43 9.93066 32.62 10.8807 31.79C11.8274 30.9501 12.8296 30.175 13.8807 29.47C14.9185 28.7604 15.8862 27.9534 16.7707 27.06C17.6407 26.16 18.3507 25.06 19.1907 24.14C20.0427 23.2281 20.9841 22.404 22.0007 21.68C23.0229 20.9175 24.1263 20.2702 25.2907 19.75L25.4007 19.91Z" fill="#1E6F5D"/>
<path d="M24.1104 28.36C24.3204 28.23 26.7604 31.5 25.5404 35.13C25.2204 36.13 24.6604 37.03 24.4704 37.02C24.2804 37.01 24.8904 35.0199 24.8804 32.5499C24.8389 31.1222 24.5793 29.7092 24.1104 28.36Z" fill="white"/>
<path d="M46.4699 7.25995C46.2999 4.07995 47.6099 1.41995 49.8999 0.419953C52.8099 -0.840047 56.8299 0.769954 59.4299 4.41995C57.5055 4.34945 55.5913 4.72955 53.8399 5.52995C52.5099 6.15995 51.1699 7.09995 51.3199 7.40995C51.4699 7.71995 54.1499 6.10995 57.4899 6.99995C61.4899 8.08995 64.6199 12.45 64.3699 13C64.1199 13.55 62.0999 11.4 58.5799 10.64C55.8199 10.05 53.2799 10.44 53.3299 10.93C53.3799 11.42 54.9299 11.62 58.8199 13.04C64.5399 15.13 65.3399 16.04 65.7099 16.45C66.0799 16.86 67.8699 19.38 66.9699 24.6C65.9699 22.6 63.4099 17.75 59.2999 16.14C57.2999 15.35 54.5299 15.22 54.4499 15.98C54.3899 16.51 55.5999 17.38 56.1299 17.76C58.7399 19.63 60.0799 19.04 62.2599 20.13C63.5538 20.8148 64.693 21.7586 65.6065 22.9027C66.52 24.0467 67.1884 25.3665 67.5699 26.78C68.0799 29.16 67.2699 31.52 66.4799 31.42C65.4799 31.3 65.3199 27.6 62.6999 25.16C60.8899 23.47 58.4799 22.52 58.0999 23.16C57.7199 23.8 58.8899 25.88 65.0999 32.65C65.1997 33.8954 64.9246 35.1422 64.3099 36.23C63.9944 36.7445 63.5755 37.188 63.0798 37.5322C62.584 37.8765 62.0222 38.1141 61.4299 38.23C58.7899 35.95 57.2799 35.71 56.4299 35.98C55.5799 36.25 55.3199 36.85 54.6199 36.62C53.5599 36.27 52.8799 34.38 52.4299 33.16C51.5099 31.0333 51.2017 28.6922 51.5399 26.4C51.9499 24.53 52.7699 24.18 52.5399 22.7C52.3099 21.22 51.2999 19.77 50.6699 19.78C49.0699 19.78 49.1599 29.84 51.6699 33.78C51.8399 34.04 52.2199 34.59 52.1199 34.78C51.8799 35.1 48.4099 33.3 47.2499 30.57C45.8899 27.38 48.7199 25.42 47.7799 19.57C47.7799 19.4 47.3199 16.79 46.8799 16.7C46.1699 16.56 45.8799 22.96 45.7099 28.52C42.7799 26.52 42.0799 24.7 41.8699 23.83C41.2499 21.34 42.7099 18.83 44.8699 15.1C45.8699 13.43 46.3899 12.75 46.1499 12.42C45.7299 11.83 42.9099 12.53 41.4799 14.76C39.6999 17.52 40.8999 21.29 40.1899 21.32C39.4799 21.35 37.7999 18.1 37.5699 14.83C37.3599 11.83 38.4199 8.38995 40.9599 7.17995C42.0262 6.73046 43.1891 6.55844 44.3399 6.67995C45.0721 6.77988 45.7881 6.97485 46.4699 7.25995Z" fill="#3A7867"/>
<path d="M56.7005 25.5599C56.9905 25.3499 59.5905 28.0899 60.8705 31.6399C60.9805 31.9399 61.6405 33.7799 61.4105 33.8699C60.9005 34.0699 56.2505 25.8999 56.7005 25.5599Z" fill="white"/>
<path d="M51.54 2.0799C51.4 1.8799 50.39 2.2299 49.61 2.8699C48.07 4.1499 47.61 6.4299 47.86 6.6299C48.11 6.8299 48.22 6.2399 50.12 3.9799C51.21 2.6799 51.64 2.2399 51.54 2.0799Z" fill="white"/>
<path d="M57 21.28C57.73 21.13 62 20.28 64.87 23.36C65.96 24.51 66.73 26.07 66.57 26.22C66.41 26.37 64.8 24.1 62.38 22.64C60.7615 21.6625 58.8886 21.189 57 21.28Z" fill="white"/>
<path d="M53.1997 12.1999C53.8347 11.9484 54.5189 11.8458 55.1997 11.8999C55.8614 11.9247 56.5084 12.1027 57.0897 12.4199C57.6597 12.7699 58.0897 13.3199 58.6697 13.6499C59.2273 13.9798 59.8304 14.2258 60.4597 14.3799C61.1046 14.5391 61.7217 14.7954 62.2897 15.1399C62.8688 15.4552 63.4062 15.8416 63.8897 16.2899C64.8693 17.2235 65.563 18.4167 65.8897 19.7299L65.7297 19.8599C64.5761 19.3321 63.4941 18.6601 62.5097 17.8599C62.0397 17.4899 61.6297 17.0499 61.1997 16.6399C60.7439 16.2216 60.3194 15.7704 59.9297 15.2899C59.5291 14.8088 59.013 14.4372 58.4297 14.2099C57.8097 14.0687 57.1756 13.9982 56.5397 13.9999C55.95 13.8823 55.3783 13.6872 54.8397 13.4199C54.2512 13.1488 53.6945 12.8134 53.1797 12.4199L53.1997 12.1999Z" fill="#1E6F5D"/>
<path d="M49.8701 16.61C49.9492 17.2576 49.9492 17.9124 49.8701 18.56C49.8333 19.1556 49.719 19.7439 49.5301 20.31C49.2234 20.8613 48.9785 21.4448 48.8001 22.05C48.7067 22.6703 48.7756 23.3043 49.0001 23.89C49.2107 24.4727 49.3876 25.067 49.5301 25.67C49.6701 26.25 49.8501 26.82 49.9401 27.41C50.1325 28.6609 50.1628 29.9314 50.0301 31.19L49.8501 31.26C48.8697 30.3391 48.1753 29.1552 47.8501 27.85C47.703 27.194 47.6392 26.522 47.6601 25.85C47.6466 25.1748 47.7308 24.5011 47.9101 23.85C48.0978 23.2511 48.1956 22.6276 48.2001 22C48.2001 21.36 47.9401 20.69 47.9201 20C47.937 19.3377 48.1046 18.6879 48.4101 18.1C48.7059 17.474 49.1443 16.926 49.6901 16.5L49.8701 16.61Z" fill="#1E6F5D"/>
<path d="M47.0003 8.07996C48.0065 8.86974 48.9221 9.76856 49.7303 10.76C50.5519 11.7093 51.2724 12.7415 51.8803 13.84C52.4703 14.96 52.8803 16.18 53.5203 17.26C54.1554 18.331 54.8957 19.3359 55.7303 20.26C56.5633 21.2098 57.3349 22.2119 58.0403 23.26C58.7603 24.26 59.4803 25.32 60.1103 26.4C61.3803 28.5869 62.4128 30.9034 63.1903 33.31L63.0203 33.41C61.2338 31.6221 59.6447 29.6475 58.2803 27.52C57.6103 26.47 57.0303 25.37 56.4403 24.26C55.8503 23.15 55.2903 22 54.7903 20.89C54.3083 19.7378 53.7085 18.6386 53.0003 17.61C52.2703 16.61 51.3103 15.73 50.5203 14.76C49.7652 13.7794 49.096 12.7355 48.5203 11.64C47.8588 10.5426 47.2902 9.39197 46.8203 8.19996L47.0003 8.07996Z" fill="#1E6F5D"/>
<path d="M46.0006 16.71C45.8206 16.54 42.6506 19.1 43.0006 22.93C43.0806 23.93 43.3906 24.99 43.5806 25.02C43.7706 25.05 43.6606 22.97 44.2706 20.58C44.6427 19.208 45.2263 17.9023 46.0006 16.71Z" fill="white"/>
</svg>
