<svg width="37" height="34" viewBox="0 0 37 34" fill="none" xmlns="http://www.w3.org/2000/svg">
<g clip-path="url(#clip0)">
<path d="M12.994 19.0291C12.7015 24.9707 12.7353 29.3655 12.994 30.7011C13.0446 30.9465 13.1628 31.5515 13.5902 32.1679C14.1246 32.927 14.8333 33.2638 15.0864 33.3836C15.5196 33.5834 16.2002 33.8973 16.9764 33.7375C18.3488 33.4578 19.1926 31.8882 19.3163 30.6554C19.3782 30.0333 19.2601 29.5481 19.2151 29.394C18.4782 26.5916 15.9245 19.3715 15.677 18.6809C15.2439 18.738 14.8052 18.7951 14.3721 18.8521C13.9221 18.9035 13.4552 18.9663 12.994 19.0291Z" fill="white"/>
<path d="M13.0387 19.0691C13.2018 20.4275 13.213 21.8829 13.258 23.2813C13.2749 24.6911 13.303 26.1008 13.2918 27.5049L13.2524 29.6053C13.2524 30.3016 13.2693 30.9751 13.5168 31.5915C13.7699 32.2022 14.2424 32.7216 14.8274 33.0527C15.418 33.3666 16.0817 33.6405 16.7117 33.5378C17.336 33.4522 17.8591 33.0412 18.2079 32.5104C18.5566 31.9796 18.7703 31.3461 18.8322 30.7354C18.8716 30.4329 18.8491 30.1304 18.7928 29.8336C18.7422 29.5596 18.6185 29.2057 18.5229 28.8804C18.3147 28.2183 18.0841 27.5506 17.8535 26.8885C16.9479 24.223 16.1323 21.5234 15.3786 18.7894L15.7273 19.0063C15.2773 19.0292 14.8161 19.052 14.3717 19.0634L13.0387 19.0691ZM12.9543 18.9892C13.3649 18.8808 13.8261 18.7552 14.3099 18.6467C14.7599 18.5383 15.1986 18.447 15.643 18.35L15.8736 18.2986L15.9861 18.5611C17.1167 21.1581 18.146 23.795 18.9728 26.5118C19.1697 27.1967 19.3666 27.8759 19.5466 28.5722C19.6309 28.9261 19.7378 29.2457 19.7941 29.6738C19.8503 30.0733 19.8334 30.4842 19.7603 30.8838C19.6084 31.6714 19.2597 32.3792 18.7478 32.967C18.2472 33.5435 17.516 33.9944 16.7285 34.0058C15.9411 34.0286 15.2661 33.6919 14.6417 33.3552C14.0118 32.9899 13.4605 32.4591 13.1005 31.797C12.7124 31.1406 12.5887 30.3701 12.4818 29.6624C12.3749 28.9489 12.3187 28.2355 12.2849 27.522C12.2343 26.0951 12.3018 24.6739 12.3918 23.2585C12.5268 21.8316 12.6562 20.456 12.9543 18.9892Z" fill="black"/>
<path d="M16.1152 18.7893C18.1739 24.3599 19.9795 28.3552 20.8119 29.4453C20.9638 29.6451 21.3407 30.1417 22.0719 30.4784C22.9775 30.9008 23.9056 30.8494 24.2318 30.8266C24.7943 30.7866 25.683 30.7295 26.493 30.1873C27.9161 29.2342 28.2311 27.3735 27.8767 26.1863C27.6967 25.587 27.3649 25.2046 27.258 25.0847C25.3062 22.8987 19.5407 17.6078 18.9895 17.0999C18.5227 17.3738 18.0614 17.6478 17.5946 17.9217C17.0996 18.2071 16.6102 18.4982 16.1152 18.7893Z" fill="white"/>
<path d="M16.1655 18.8064C17.5379 21.352 18.6854 24.1088 19.9003 26.74C20.1928 27.402 20.4741 28.0755 20.7891 28.7148C21.0984 29.3426 21.4978 29.8848 22.0996 30.2273C22.6902 30.5698 23.4102 30.6896 24.1133 30.6611C24.8277 30.6268 25.542 30.5127 26.127 30.1531C26.7064 29.7935 27.1451 29.2399 27.3645 28.6063C27.5895 27.9785 27.6288 27.2822 27.4995 26.6601C27.4376 26.3519 27.3307 26.0665 27.162 25.8153C27.0832 25.6898 26.9876 25.5699 26.8864 25.4558L26.5151 25.0734C26.0089 24.5597 25.4858 24.0574 24.957 23.5551C22.8365 21.5575 20.7666 19.4914 18.7473 17.3624L19.1579 17.4081C18.6573 17.6535 18.1623 17.9104 17.6617 18.1444L16.1655 18.8064ZM16.0586 18.7722C16.4748 18.4526 16.9417 18.1044 17.431 17.7505C17.8923 17.4195 18.3479 17.1113 18.8091 16.7917L19.0004 16.6604L19.2197 16.8373C21.509 18.6752 23.7196 20.5986 25.7726 22.7104C26.2845 23.2412 26.7907 23.7777 27.2857 24.3314L27.657 24.7594C27.7976 24.925 27.9213 25.1019 28.0282 25.2902C28.2419 25.6669 28.3713 26.095 28.4219 26.5117C28.6132 28.1612 27.7638 29.8677 26.3295 30.5412C25.6264 30.8894 24.8558 30.975 24.1302 31.0092C23.3877 31.0549 22.6171 30.9693 21.8971 30.6611C21.1659 30.3757 20.5584 29.765 20.1366 29.1257C19.7091 28.4979 19.3379 27.8472 19.006 27.1852C18.3479 25.8496 17.8192 24.4684 17.3186 23.0757C17.0767 22.3737 16.8461 21.6716 16.6323 20.9639C16.5255 20.61 16.4298 20.2505 16.3286 19.8966C16.2161 19.4971 16.1373 19.1089 16.0586 18.7722Z" fill="black"/>
<path d="M10.7995 18.7437C10.3608 19.3487 7.88588 22.7561 6.13094 25.5185C5.93407 25.8325 5.53471 26.4717 5.37159 27.3906C5.29847 27.7902 5.07348 29.2056 5.9172 30.5869C6.23219 31.1005 6.72717 31.9453 7.65526 32.185C9.29771 32.6073 10.7714 30.7467 10.8839 30.5983C11.632 29.6223 11.7782 28.5607 11.8457 28.0413C12.3182 24.2743 12.6163 20.9182 12.7626 19.1204C12.1045 19.0062 11.452 18.8749 10.7995 18.7437Z" fill="white"/>
<path d="M10.8223 18.8008C10.5692 19.3545 10.2092 19.9538 9.88859 20.5188C9.55673 21.0896 9.21361 21.6489 8.8705 22.2082C8.17302 23.3155 7.47555 24.4228 6.7387 25.4958C6.35058 26.038 6.0356 26.5003 5.81623 27.0882C5.60811 27.659 5.50124 28.2925 5.54624 28.9204C5.59686 29.5482 5.8106 30.1532 6.17059 30.6897C6.50245 31.2319 6.94119 31.7228 7.50367 31.8883C8.0549 32.0595 8.63426 31.9282 9.12924 31.6143C9.62422 31.3061 10.0573 30.8609 10.4286 30.3929C10.7717 29.9363 11.0192 29.3941 11.1485 28.8176C11.2835 28.264 11.2948 27.5905 11.3623 26.9341C11.6154 24.32 11.9866 21.7174 12.4816 19.1147L12.7066 19.4172C12.1104 19.2289 11.4973 19.0177 10.8223 18.8008ZM10.7829 18.6924C11.4073 18.7266 12.0991 18.778 12.8079 18.8522L13.0385 18.875L13.0329 19.1547C12.9935 21.7973 12.8304 24.4456 12.5379 27.0711L12.4141 28.0528C12.3691 28.3838 12.3016 28.7491 12.2004 29.0973C11.9979 29.7936 11.6604 30.4671 11.171 31.0264C10.6929 31.5572 10.1305 31.9967 9.46673 32.2878C8.81425 32.5846 7.99303 32.6531 7.32368 32.3449C6.6487 32.0253 6.22121 31.4374 5.8781 30.8723C5.51811 30.3073 5.24812 29.6566 5.11875 28.9774C4.98376 28.2982 4.97813 27.5905 5.11313 26.8885C5.23125 26.1921 5.56874 25.4958 5.91747 24.9536C6.59808 23.8178 7.37992 22.7562 8.17302 21.706C8.57801 21.1866 8.98862 20.6729 9.41611 20.1706C9.86047 19.6627 10.2598 19.2004 10.7829 18.6924Z" fill="black"/>
<path d="M19.3496 16.7175C21.7064 18.287 23.8945 19.7253 26.3075 21.3178C27.14 21.8714 28.5518 22.8017 30.5205 22.9444C31.2236 22.9958 32.9223 23.1214 33.586 22.1111C34.0416 21.4205 33.7997 20.5415 33.541 19.6055C33.3948 19.069 32.956 17.5508 31.5723 16.5405C30.8073 15.9812 30.0649 15.7985 29.6486 15.7072C26.3806 14.9481 22.4151 14.2974 21.3633 14.1262C20.6883 14.9824 20.019 15.8499 19.3496 16.7175Z" fill="white"/>
<path d="M19.3998 16.7062C22.0773 18.1445 24.3384 19.3773 26.5209 20.8556C27.6177 21.6432 28.7258 22.3681 30.042 22.642C30.6888 22.7733 31.3863 22.8304 32.0388 22.7448C32.68 22.6534 33.3325 22.3395 33.5181 21.7574C33.6925 21.1809 33.4787 20.5245 33.265 19.8796C33.0513 19.2232 32.7756 18.641 32.41 18.1216C32.05 17.6022 31.6001 17.1628 31.0826 16.8431C30.5538 16.5178 29.997 16.3466 29.3276 16.2267C26.6558 15.6902 23.9784 15.108 21.301 14.4802L21.6441 14.3432C20.9804 15.0909 20.2098 15.8272 19.3998 16.7062ZM19.293 16.7233C19.8273 15.8729 20.4011 14.874 21.076 13.8866L21.1829 13.7268L21.4191 13.7496C24.1641 14.0122 26.8977 14.4003 29.5864 15.0738C30.2613 15.2279 31.0319 15.4962 31.6563 15.9413C32.2919 16.3751 32.815 16.963 33.1919 17.6194C33.5687 18.27 33.7881 19.0063 33.9119 19.7026C34.0356 20.3818 34.2381 21.1638 33.9119 21.9229C33.7544 22.2939 33.4562 22.585 33.1244 22.7619C32.7981 22.9502 32.4382 23.0359 32.0838 23.0929C31.7294 23.15 31.3751 23.1614 31.0263 23.1614C30.6776 23.1671 30.3288 23.15 29.9745 23.1215C28.557 23.0244 27.1396 22.4708 25.9696 21.7003C23.5566 20.1421 21.2167 18.3271 19.293 16.7233Z" fill="black"/>
<path d="M22.0035 11.0498C21.8516 11.8831 21.6997 12.7221 21.5479 13.5555C25.5865 14.56 28.8264 14.383 30.93 14.0691C33.0112 13.7552 35.9642 13.31 36.5155 11.5121C36.763 10.696 36.4761 9.7485 35.9642 9.1435C35.5368 8.63553 34.5018 7.84217 30.2888 8.49284C28.2807 8.80675 25.3783 9.46883 22.0035 11.0498Z" fill="white"/>
<path d="M22.0489 11.0842C21.9983 11.9917 21.9476 12.8193 21.8633 13.6183L21.6214 13.2416C24.3101 13.7153 26.9762 13.8637 29.693 13.8752C31.043 13.8409 32.4379 13.7268 33.7316 13.3386C34.3785 13.1503 35.0028 12.8649 35.4978 12.4483C35.9928 12.0373 36.2684 11.478 36.2122 10.8958C36.1672 10.3251 35.8859 9.73146 35.4978 9.37189C35.1322 9.04085 34.5247 8.89816 33.8947 8.8525C32.6235 8.76688 31.2792 8.97807 29.9461 9.155C27.2856 9.54311 24.6363 10.268 22.0489 11.0842ZM21.9589 11.0157C24.3607 9.49745 26.9875 8.52146 29.7492 7.97924C31.1273 7.7224 32.5335 7.55688 34.0072 7.73381C34.3728 7.77377 34.7497 7.85938 35.1209 7.99065C35.4922 8.12764 35.8859 8.32169 36.1897 8.65273C36.769 9.28627 37.039 10.0853 36.9996 10.9015C36.9828 11.3125 36.8421 11.7177 36.6284 12.0602C36.4146 12.4083 36.1109 12.6594 35.8072 12.8763C35.1772 13.2759 34.5022 13.4985 33.8272 13.6811C33.1523 13.8637 32.4717 13.995 31.7967 14.1377C31.1217 14.269 30.4467 14.4459 29.7549 14.5544C26.9931 15.0909 24.1132 14.7256 21.4695 13.8752L21.1602 13.7724L21.2333 13.4928C21.447 12.6252 21.7001 11.7805 21.9589 11.0157Z" fill="black"/>
<path d="M9.60725 17.3567C8.88727 17.5507 4.79241 18.6694 2.73373 19.5541C2.55373 19.634 2.16562 19.8052 1.80563 20.1819C1.09128 20.9296 0.883166 22.0654 1.06316 23.0072C1.14191 23.4124 1.29378 24.2115 1.92938 24.6395C2.73935 25.1818 3.82494 24.7879 4.4043 24.5768C7.34045 23.5095 9.66349 19.8623 10.4116 18.6066C10.1472 18.1957 9.87724 17.779 9.60725 17.3567Z" fill="white"/>
<path d="M9.59069 17.4139C9.19695 17.6536 8.67947 17.8533 8.22386 18.0531C7.75138 18.2529 7.27889 18.4355 6.80641 18.6125C5.85582 18.9606 4.90522 19.3088 3.95463 19.6113C3.4934 19.7654 2.96466 19.8967 2.5653 20.0508C2.16032 20.2277 1.78908 20.5245 1.54159 20.9354C1.03535 21.763 1.08598 22.8817 1.51909 23.7321C1.73283 24.1488 2.08157 24.4171 2.46968 24.4741C2.85779 24.5369 3.2909 24.4342 3.72964 24.2858C4.64086 23.9662 5.42833 23.4924 6.16518 22.8532C7.64451 21.6146 8.93821 20.0736 10.1869 18.4698L10.1925 18.7609C10.0013 18.3556 9.81568 17.9161 9.59069 17.4139ZM9.63006 17.3054C9.93943 17.6422 10.2938 18.036 10.6425 18.4641L10.7325 18.5725L10.6482 18.7551C9.78193 20.6501 8.58385 22.4365 6.90765 23.8063C6.06956 24.4684 5.04022 24.9878 3.99963 25.2447C3.46527 25.3702 2.85217 25.4444 2.26156 25.2161C1.65971 24.9992 1.23222 24.4627 1.06348 23.9262C0.748488 22.876 0.725988 21.7573 1.1591 20.7357C1.37284 20.2277 1.72158 19.7426 2.19969 19.4115C2.44156 19.2346 2.68342 19.1204 2.91404 19.0006C3.14466 18.8807 3.38652 18.7723 3.62277 18.6752C4.57898 18.2871 5.56895 18.0189 6.55892 17.7791C7.05953 17.6707 7.56013 17.5623 8.06074 17.4824C8.58385 17.4024 9.03946 17.3283 9.63006 17.3054Z" fill="black"/>
<path d="M9.73139 14.5942C7.49834 14.0463 5.62528 13.6011 4.08408 13.2244C3.73534 13.1388 3.07162 12.9733 2.30102 13.213C2.21664 13.2415 0.652947 13.7438 0.321083 15.2221C0.304209 15.2962 0.0285933 16.5862 0.754194 17.2311C1.3448 17.7619 2.28414 17.5679 2.73413 17.4822C4.15158 17.214 6.19901 16.9857 9.29828 16.98C9.44453 16.1866 9.59077 15.3876 9.73139 14.5942Z" fill="white"/>
<path d="M9.68627 14.6227C7.65009 14.423 6.02452 14.2289 4.40457 13.818C3.99959 13.7095 3.60585 13.5497 3.22899 13.4926C2.84088 13.4299 2.44714 13.4241 2.0534 13.5783C1.26593 13.8408 0.574079 14.5371 0.500956 15.3704C0.461583 15.7871 0.517831 16.2266 0.686575 16.5576C0.855319 16.8943 1.12531 17.0427 1.45155 17.0827C1.78341 17.1284 2.16028 17.0656 2.57089 16.9685C3.00962 16.8658 3.45961 16.7745 3.90959 16.7003C5.70391 16.3978 7.51509 16.4092 9.30378 16.5804L8.9213 16.9058C9.11254 16.2209 9.41065 15.496 9.68627 14.6227ZM9.78189 14.56C9.77064 15.2791 9.77627 16.1467 9.68627 17.0485L9.65815 17.3338L9.30378 17.3681C7.53759 17.5507 5.7939 17.6991 4.06146 17.8589C3.62835 17.9046 3.20087 17.9503 2.76775 18.013C2.30652 18.0872 1.77779 18.1443 1.23781 17.9788C0.967815 17.8932 0.703449 17.7505 0.495331 17.5336C0.287213 17.3167 0.157843 17.0542 0.0847203 16.7973C-0.0559 16.2665 0.000348122 15.7757 0.0959699 15.3076C0.309713 14.3259 1.03531 13.6125 1.84529 13.1274C2.25027 12.8762 2.75651 12.7164 3.25711 12.6879C3.51023 12.6707 3.75772 12.6879 3.99959 12.7221C4.23021 12.7621 4.46082 12.802 4.69144 12.8534C6.53075 13.2815 8.35882 13.9207 9.78189 14.56Z" fill="black"/>
<path d="M11.0301 12.7106C10.4957 11.6261 9.32576 9.69697 7.12646 8.68673C6.32211 8.31574 4.72467 7.58517 3.65595 8.37282C3.16097 8.7381 2.76161 9.44584 2.85161 10.1307C2.93598 10.77 3.44221 11.3179 6.32211 12.7676C7.23333 13.23 8.47079 13.8235 9.97824 14.4628C10.3326 13.8806 10.6813 13.2927 11.0301 12.7106Z" fill="white"/>
<path d="M10.974 12.7049C9.92219 11.4436 8.84222 10.245 7.52039 9.46304C7.3629 9.3546 7.19416 9.25186 7.03104 9.15483C6.86792 9.04639 6.6823 8.94365 6.51355 8.84092C6.16482 8.63544 5.81608 8.44709 5.43921 8.32723C5.06798 8.21308 4.66862 8.16172 4.303 8.25874C3.93739 8.35577 3.62803 8.58978 3.42553 8.90941C3.22866 9.22903 3.13304 9.61144 3.18367 9.93677C3.22866 10.2792 3.41428 10.4333 3.70677 10.6616C4.303 11.0897 5.04548 11.455 5.77108 11.8089C7.24478 12.5109 8.71285 13.23 10.1247 14.109L9.66345 14.2631C10.0459 13.778 10.4903 13.2757 10.974 12.7049ZM11.0865 12.7106C10.8728 13.3099 10.614 13.9834 10.2934 14.6626L10.1697 14.9252L9.83219 14.8167C9.03909 14.5599 8.25725 14.2574 7.48665 13.9492C6.71605 13.6296 5.94545 13.3042 5.22547 12.8705C4.85986 12.6536 4.49987 12.4367 4.14551 12.197C3.78552 11.9573 3.43116 11.7061 3.09929 11.3751C2.93617 11.2039 2.76743 11.0098 2.64931 10.753C2.52556 10.4961 2.49181 10.205 2.51431 9.95389C2.55931 9.44021 2.79555 9.00644 3.08804 8.65827C3.37491 8.3044 3.7799 8.04186 4.21301 7.92771C4.64612 7.80214 5.0961 7.81926 5.52921 7.85921C5.96232 7.90487 6.39543 7.9962 6.81167 8.11605C7.21665 8.23591 7.63289 8.3786 8.021 8.59549C8.80285 9.02356 9.4497 9.6571 9.97844 10.3477C10.4959 11.0669 10.884 11.8146 11.0865 12.7106Z" fill="black"/>
<path d="M13.6968 10.5706C12.1556 8.09921 11.0532 6.2842 10.4738 5.16552C10.3388 4.90297 10.0294 4.28655 9.42196 4.0982C8.90448 3.93839 8.41512 4.15528 8.12263 4.28655C7.96513 4.35504 6.94704 4.80594 6.69955 5.66778C6.48581 6.40977 6.92454 7.15175 7.68952 8.17911C8.48824 9.25784 9.69195 10.7019 11.4075 12.2657C12.1669 11.7007 12.9318 11.1356 13.6968 10.5706Z" fill="white"/>
<path d="M13.6402 10.5591C13.4771 10.3822 13.3421 10.2909 13.2183 10.1482L12.8133 9.68014C12.549 9.36623 12.3015 9.03519 12.054 8.70986C11.5759 8.04207 11.1146 7.36287 10.7153 6.64372C10.5128 6.28414 10.3384 5.90744 10.1809 5.51362C10.0291 5.11409 9.92219 4.79446 9.68032 4.54333C9.45533 4.2979 9.10096 4.17804 8.74098 4.25795C8.38099 4.32644 8.00975 4.51479 7.70039 4.73168C7.39102 4.95427 7.13228 5.25678 7.03666 5.5764C6.92979 5.90173 6.99166 6.19852 7.14915 6.50103C7.47539 7.10603 8.00975 7.73386 8.52161 8.33886C9.56782 9.54316 10.614 10.736 11.7052 11.9232L11.1428 11.8947C11.8627 11.4609 12.6896 11.0785 13.6402 10.5591ZM13.7527 10.5819C13.179 11.1926 12.4758 11.9403 11.6715 12.6367L11.424 12.8478L11.109 12.6081C9.79281 11.6036 8.60598 10.4164 7.64414 9.05231C7.1829 8.36169 6.64855 7.72245 6.36731 6.79211C6.23231 6.33551 6.26043 5.74192 6.5248 5.33097C6.77792 4.90861 7.1379 4.63465 7.49789 4.41206C7.87475 4.19517 8.24037 4.02394 8.66785 3.90408C9.08971 3.78993 9.61282 3.83559 10.0178 4.11526C10.4228 4.36639 10.7097 4.79446 10.9234 5.11979C11.1484 5.45083 11.3734 5.78758 11.5815 6.13574C11.9977 6.83207 12.3802 7.54551 12.7571 8.27608C12.9371 8.64137 13.1171 9.01236 13.2858 9.38906L13.5277 9.95981C13.6121 10.1596 13.7021 10.4107 13.7527 10.5819Z" fill="black"/>
<path d="M20.6832 1.8664C21.0263 1.55248 22.4044 0.268276 23.7599 0.673513C24.5474 0.907524 25.0368 1.62097 25.2111 2.00338C26.0324 3.80697 23.9399 6.99179 20.3232 10.0853C19.9744 9.97685 19.6313 9.86841 19.2826 9.76567C19.1363 9.14926 18.0789 4.2807 20.6832 1.8664Z" fill="white"/>
<path d="M20.6436 1.82082C21.1161 1.38704 21.5998 0.953267 22.1904 0.616521C22.4829 0.445294 22.8148 0.314019 23.186 0.262651C23.5516 0.216991 23.9566 0.251236 24.311 0.416756C24.671 0.57086 24.9803 0.810578 25.2222 1.10166C25.4641 1.38704 25.6666 1.71808 25.7678 2.12903C25.9815 2.9395 25.7059 3.67007 25.4191 4.27507C25.1153 4.89149 24.7385 5.428 24.3729 5.96451C24.0016 6.50103 23.6191 7.02612 23.231 7.54551C22.4604 8.59571 21.6279 9.62307 20.6605 10.4963L20.458 10.679L20.1655 10.5991L19.1137 10.3194L18.8155 10.2395L18.7255 9.89703C18.5343 9.18358 18.4274 8.46443 18.3824 7.73957C18.3543 7.009 18.3712 6.27272 18.5174 5.54786C18.6637 4.823 18.9449 4.12097 19.3162 3.49314C19.6874 2.8596 20.1374 2.30596 20.6436 1.82082ZM20.7167 1.90643C20.2217 2.38587 19.8899 3.0137 19.7211 3.66436C19.5355 4.32073 19.5299 4.99994 19.5186 5.66201C19.5074 6.32409 19.513 6.98617 19.5805 7.65396C19.6311 8.31603 19.7211 8.98953 19.8336 9.63448L19.4455 9.21212L20.4749 9.57741L19.9799 9.68014C20.953 8.88108 21.9711 8.12768 22.8823 7.2373C23.3323 6.79211 23.7485 6.30126 24.0804 5.76475C24.4291 5.23965 24.6878 4.64607 24.8228 4.04677C24.9578 3.45318 24.9916 2.84818 24.8228 2.40299C24.761 2.1861 24.6147 1.9578 24.4516 1.74662C24.2885 1.54115 24.1085 1.3528 23.9004 1.21011C23.501 0.924729 22.9273 0.816286 22.3254 0.97039C21.7348 1.12449 21.178 1.47266 20.7167 1.90643Z" fill="black"/>
<path d="M16.0977 9.49728C16.0583 9.05209 15.5296 3.57282 14.9053 2.45985C14.849 2.35711 14.7084 2.10598 14.4271 1.9747C13.9772 1.76352 13.4541 1.99183 13.0322 2.18018C12.6778 2.33999 12.2616 2.52263 11.9466 2.90504C11.8116 3.07056 11.4516 3.56712 11.5079 5.05108C11.536 5.75312 11.6429 8.52129 13.6847 10.2621C13.814 10.3705 13.9209 10.4504 13.9884 10.5018C14.6915 10.1651 15.3946 9.83403 16.0977 9.49728Z" fill="white"/>
<path d="M16.0475 9.46882C15.8956 9.1492 15.8 8.71542 15.6931 8.33872C15.5919 7.95061 15.5075 7.56249 15.4232 7.17438C15.2657 6.39815 15.1138 5.62192 15.0013 4.84569C14.945 4.45757 14.9057 4.06946 14.8663 3.68134C14.8213 3.30464 14.7932 2.8937 14.6751 2.57978C14.5626 2.25445 14.2982 2.04327 13.9495 2.07181C13.612 2.09464 13.2576 2.28299 12.9145 2.45992C12.577 2.63686 12.2958 2.88228 12.1439 3.16195C12.0089 3.43021 11.9751 3.7955 11.9695 4.14936C11.9751 4.86852 12.0539 5.65616 12.217 6.36961C12.5489 7.81933 13.1451 9.1492 14.2251 10.1537L13.8088 10.1138C14.4782 9.89118 15.2094 9.71425 16.0475 9.46882ZM16.1488 9.5259C15.5863 9.94826 14.9113 10.4391 14.1688 10.8786L13.9888 10.987L13.7526 10.8443C13.027 10.3992 12.3801 9.77132 11.9414 9.01792C11.4858 8.27594 11.2214 7.43122 11.1033 6.59221C10.9908 5.74178 10.9571 4.92559 11.1033 4.05804C11.1933 3.62998 11.3283 3.18479 11.6489 2.79667C11.9695 2.43709 12.3745 2.24874 12.7514 2.09464C13.1226 1.95766 13.4882 1.77502 13.9326 1.72365C14.1519 1.69511 14.3994 1.74077 14.6132 1.84921C14.8269 1.96337 15.0013 2.14601 15.125 2.32865C15.5863 3.11059 15.8169 3.8754 15.9913 4.67446C16.1431 5.46781 16.2106 6.27258 16.25 7.07164C16.2612 7.47117 16.2669 7.87641 16.2556 8.28165C16.2331 8.6983 16.2219 9.05217 16.1488 9.5259Z" fill="black"/>
<path d="M16.3791 1.49537C16.6153 1.20429 17.3578 0.30249 18.4603 0.30249C18.539 0.30249 19.6077 0.313905 20.1815 1.08443C20.9239 2.07754 20.1477 3.41882 19.8215 5.99865C19.6358 7.45978 19.6752 8.6755 19.7315 9.44602C18.674 9.44602 17.6165 9.44602 16.5647 9.44602C16.4578 9.14352 14.9954 4.80576 15.7491 2.6483C15.9741 1.99193 16.3791 1.49537 16.3791 1.49537Z" fill="white"/>
<path d="M16.3343 1.4611C16.6774 1.03874 17.0542 0.639207 17.5492 0.342414C18.0329 0.0399123 18.691 -0.0742391 19.2817 0.0456199C19.8779 0.136941 20.5472 0.530764 20.8285 1.22138C21.0985 1.92341 20.9578 2.57407 20.8116 3.09917C20.6597 3.64139 20.4572 4.13795 20.2997 4.65734C20.131 5.17102 20.0298 5.69612 19.9566 6.22692C19.8216 7.28853 19.9173 8.37297 20.1029 9.41745L20.1704 9.78844L19.7204 9.83981C18.6629 9.95396 17.6055 9.9825 16.5536 10.0282L16.1711 10.0453L16.0193 9.64575C15.7605 8.97797 15.5693 8.30447 15.4005 7.61957C15.2599 6.92895 15.1305 6.22692 15.108 5.50777C15.0855 4.78861 15.1699 4.05804 15.3612 3.35601C15.5524 2.62544 15.9068 2.00332 16.3343 1.4611ZM16.4243 1.5353C16.008 2.07181 15.783 2.7453 15.8055 3.40167C15.8111 4.06375 15.9799 4.72012 16.1205 5.36508C16.2611 6.01574 16.4018 6.6664 16.5761 7.31136C16.7336 7.96202 16.9136 8.61839 17.0936 9.25193L16.5592 8.86382C17.6167 8.90948 18.6742 8.93801 19.726 9.05217L19.3492 9.47453C19.3773 8.36155 19.5123 7.2714 19.6304 6.18697L19.9679 2.93365C20.0129 2.41426 20.041 1.92912 19.906 1.6152C19.7879 1.28987 19.4898 0.993077 19.0735 0.793312C18.6517 0.587839 18.1736 0.485103 17.6842 0.639207C17.1892 0.770481 16.7505 1.11864 16.4243 1.5353Z" fill="black"/>
<path d="M20.9023 9.65706C21.4086 8.45847 22.5504 6.28959 24.8847 4.82845C25.6778 4.33189 27.5621 3.14472 29.5983 3.66981C29.902 3.74972 31.2126 4.08076 31.432 4.97114C31.6176 5.71883 30.9314 6.47223 30.6108 6.83181C28.5296 9.12625 23.4335 10.3477 21.6392 10.7358C21.3917 10.3705 21.1498 10.0109 20.9023 9.65706Z" fill="white"/>
<path d="M20.8457 9.66281C21.0876 8.5213 21.5769 7.5396 22.2294 6.61497C22.8931 5.70747 23.7425 4.90841 24.7156 4.35477C25.6718 3.80684 26.7855 3.44727 27.8936 3.37307C28.4504 3.33312 29.0073 3.35595 29.5529 3.47581C30.0873 3.59566 30.6272 3.74406 31.1335 4.08651C31.381 4.26345 31.6172 4.51458 31.7353 4.85704C31.8591 5.19378 31.8253 5.57619 31.7297 5.8844C31.5216 6.51794 31.1504 6.97455 30.7622 7.3912C29.9466 8.24163 28.9792 8.84663 27.9892 9.33177C25.9812 10.2735 23.8381 10.7587 21.695 10.9698L21.5094 10.987L21.4476 10.8671C21.2226 10.439 21.0144 10.0338 20.8457 9.66281ZM20.9582 9.6514L21.8357 10.5874L21.5882 10.4904C23.6075 9.78267 25.6043 9.09776 27.4774 8.23021C28.4111 7.80214 29.3335 7.32842 30.0591 6.66634C30.7904 6.00426 31.5666 5.18808 30.8072 4.49746C30.4641 4.16642 29.9748 3.94383 29.4742 3.82967C28.9792 3.70411 28.4504 3.69269 27.9498 3.80114C26.9317 4.01232 26.0711 4.6059 25.2274 5.2052C24.8056 5.50199 24.4006 5.79308 24.0068 6.11841C23.6187 6.44945 23.2475 6.79761 22.8988 7.18002C22.1844 7.90488 21.5601 8.80097 20.9582 9.6514Z" fill="black"/>
<path d="M13.4934 10.7703C10.8385 12.4654 8.81917 16.124 9.92164 17.9333C11.0972 19.8567 15.6927 19.4914 18.5557 17.4253C20.7888 15.8157 22.8025 12.5681 21.7956 10.7703C20.7044 8.82968 16.3114 8.96666 13.4934 10.7703Z" fill="#FAF28A"/>
<path d="M13.5215 10.8216C12.3009 11.6035 11.4065 12.8306 10.8272 14.1091C10.5291 14.7484 10.3097 15.4105 10.186 16.0497C10.0903 16.689 10.0735 17.3282 10.3941 17.7734C10.6866 18.2357 11.2772 18.5953 11.9353 18.7722C12.5934 18.9606 13.3134 19.0119 14.0165 18.9492C14.7196 18.8807 15.4227 18.7208 16.0864 18.4697C16.7501 18.2186 17.3745 17.859 17.9482 17.4595C18.5219 17.0542 19.0113 16.552 19.4725 16.0269C19.9281 15.4961 20.3444 14.9367 20.6875 14.3374C21.025 13.7438 21.295 13.1046 21.4075 12.4825C21.475 12.1686 21.4637 11.8718 21.4468 11.5978C21.3906 11.3353 21.3118 11.0955 21.1487 10.8958C20.8562 10.4677 20.2487 10.2109 19.63 10.0396C19 9.87982 18.3138 9.79421 17.6163 9.78279C16.2214 9.75996 14.7533 10.0568 13.5215 10.8216ZM13.4652 10.7245C14.0783 10.325 14.7364 9.99968 15.4114 9.70859C16.092 9.42321 16.8007 9.17208 17.5432 9.0351C18.2857 8.89241 19.0619 8.82963 19.8438 8.96661C20.2375 9.01798 20.6312 9.14354 21.0137 9.32619C21.2106 9.40609 21.3906 9.54307 21.5762 9.65722C21.7449 9.80562 21.9306 9.9426 22.0768 10.1367C22.3918 10.5019 22.5493 10.9757 22.628 11.4323C22.6674 11.8832 22.6618 12.3341 22.5493 12.7336C22.358 13.5498 21.9981 14.2575 21.5818 14.9139C20.7437 16.2095 19.6131 17.2882 18.2688 18.0017C16.9357 18.7094 15.5127 19.1147 14.0558 19.3259C13.3246 19.4286 12.5821 19.4971 11.8172 19.4058C11.0691 19.3144 10.231 19.069 9.64035 18.3499C9.48286 18.1843 9.40411 17.9617 9.29161 17.762C9.22974 17.5508 9.14537 17.3282 9.13974 17.1113C9.07787 16.6775 9.12287 16.2552 9.21849 15.8614C9.39286 15.0623 9.76972 14.3717 10.2085 13.7496C11.1197 12.5053 12.2503 11.535 13.4652 10.7245Z" fill="black"/>
</g>
<defs>
<clipPath id="clip0">
<rect width="37" height="34" fill="white"/>
</clipPath>
</defs>
</svg>
