<svg width="89" height="133" viewBox="0 0 89 133" fill="none" xmlns="http://www.w3.org/2000/svg">
<path d="M81.3313 67.19C83.6962 82.3897 85.2915 97.6993 86.1113 113.06L21.1112 124.13C16.1344 109.531 12.1717 94.6053 9.25125 79.46C8.72458 76.7934 8.23125 74.0533 7.77125 71.24C7.21125 67.8467 6.71458 64.5133 6.28125 61.24C4.42083 47.5159 3.41889 33.689 3.28125 19.84L68.3512 8.76001C71.9112 20.99 75.2812 34.43 78.1413 49C78.5813 51.26 79.0113 53.54 79.4313 55.86C80.1312 59.6933 80.7646 63.47 81.3313 67.19Z" fill="white" stroke="#010101" stroke-miterlimit="10" stroke-linecap="round"/>
<path d="M2.9109 19.46C2.50423 17.1933 2.0909 14.9133 1.6709 12.62C2.9809 13.28 4.2909 13.96 5.5809 14.62L9.3809 11.16C10.9109 11.69 12.3809 12.22 13.9709 12.74L17.9709 9.91L23.9409 11.06L28.4309 8L34.1509 9.55L37.4909 6.29L43.0009 8.37L47.8509 4.28C49.6809 5.07 51.5009 5.87 53.3309 6.65L58.1909 2.85L62.1909 5.27C63.4409 4.06 65.8109 2.26 67.0509 1C67.7509 3.22 67.6009 6.1 68.3009 8.32C46.5809 12.06 24.6009 15.7 2.9109 19.46Z" fill="#1F705E" stroke="#010101" stroke-miterlimit="10" stroke-linecap="round"/>
<path d="M7.48117 23.06C8.38117 26.6 9.15117 30.16 9.84117 33.73C10.5312 37.3 11.1812 40.88 11.6812 44.49C12.1812 48.1 12.5212 51.72 13.0512 55.32C13.5812 58.92 14.2912 62.47 15.0012 66.06C15.7112 69.65 16.4712 73.19 17.1212 76.77C17.7712 80.35 18.4412 83.93 19.0212 87.52C20.1512 94.71 21.1312 101.92 21.7912 109.18C21.7943 109.192 21.7946 109.205 21.792 109.217C21.7894 109.229 21.784 109.24 21.7762 109.25C21.7684 109.26 21.7585 109.267 21.7472 109.273C21.7359 109.278 21.7236 109.28 21.7112 109.28C21.6904 109.28 21.6701 109.274 21.6537 109.261C21.6373 109.248 21.6258 109.23 21.6212 109.21C19.9012 102.13 18.4912 94.99 17.2212 87.82C16.6012 84.23 16.0812 80.63 15.5312 77.03C14.9812 73.43 14.5312 69.83 14.0712 66.21C13.6112 62.59 13.1312 58.99 12.4712 55.42C11.8112 51.85 11.0012 48.26 10.2912 44.69C9.58117 41.12 9.05117 37.53 8.54117 33.92C8.03117 30.31 7.61117 26.7 7.31117 23.06C7.30975 23.0487 7.31076 23.0372 7.31414 23.0263C7.31751 23.0154 7.32318 23.0053 7.33075 22.9968C7.33833 22.9883 7.34764 22.9815 7.35806 22.9769C7.36848 22.9722 7.37977 22.9699 7.39117 22.97C7.44117 22.98 7.48117 23.06 7.48117 23.06Z" fill="#010101"/>
<path d="M33.6407 117.06C35.5409 116.441 37.4738 115.926 39.4307 115.52C41.3725 115.087 43.335 114.754 45.3107 114.52C47.3107 114.3 49.3107 114.24 51.3107 113.98C53.2833 113.698 55.2395 113.311 57.1707 112.82C59.1107 112.34 61.0507 111.89 63.0107 111.53C64.9706 111.17 66.9106 110.75 68.8806 110.45C72.8282 109.84 76.8086 109.466 80.8007 109.33C80.8229 109.33 80.8444 109.338 80.861 109.353C80.8776 109.367 80.8882 109.388 80.8907 109.41C80.8903 109.429 80.8845 109.448 80.8739 109.464C80.8632 109.48 80.8482 109.492 80.8307 109.5C77.0036 110.64 73.1138 111.559 69.1807 112.25C67.1807 112.59 65.2507 112.85 63.2707 113.11C61.2907 113.37 59.2707 113.58 57.2707 113.75C55.2844 113.9 53.3079 114.16 51.3507 114.53C49.3507 114.91 47.4806 115.53 45.5307 115.93C43.5807 116.33 41.6107 116.62 39.6307 116.85C37.6391 117.089 35.6363 117.223 33.6307 117.25C33.6184 117.252 33.606 117.25 33.5943 117.247C33.5827 117.243 33.5721 117.236 33.5634 117.227C33.5547 117.219 33.5481 117.208 33.5441 117.196C33.5402 117.185 33.539 117.172 33.5407 117.16C33.5364 117.146 33.536 117.131 33.5395 117.117C33.543 117.103 33.5503 117.09 33.5605 117.08C33.5708 117.07 33.5837 117.062 33.5978 117.059C33.6119 117.055 33.6268 117.056 33.6407 117.06Z" fill="#010101"/>
<path d="M81.3313 67.19L9.25125 79.46C8.72458 76.7933 8.23125 74.0533 7.77125 71.24C7.21125 67.8467 6.71458 64.5133 6.28125 61.24L78.1413 49C78.5813 51.26 79.0212 53.54 79.4313 55.86C80.1312 59.6933 80.7646 63.47 81.3313 67.19Z" fill="#1F705E" stroke="#010101" stroke-miterlimit="10" stroke-linecap="round"/>
<path d="M53.5206 86.23C67.8806 81 75.9006 66.78 71.4206 54.47C66.9406 42.16 51.6606 36.47 37.2906 41.65C22.9206 46.83 14.9106 61.06 19.3906 73.41C23.8706 85.76 39.1506 91.46 53.5206 86.23Z" fill="#FAF28C" stroke="#010101" stroke-miterlimit="10"/>
<path d="M20.9209 124.35C21.2809 126.64 21.6509 128.93 22.0109 131.23C23.0309 130.17 24.0309 129.103 25.0109 128.03L29.7309 130.03L33.5409 127.03L38.2809 128.37L43.5209 125.37L48.7609 126.77L53.6509 123.41L57.8809 125.41L62.3509 121.63L68.2909 123.89C69.7509 122.53 71.2009 121.18 72.6709 119.83C74.6109 120.5 76.5609 121.15 78.5109 121.83C79.5109 120.62 80.5109 119.42 81.5109 118.22C83.1009 118.99 85.9209 119.86 87.5109 120.63C87.4409 118.3 86.3409 115.63 86.2709 113.31C64.5709 116.85 42.6409 120.72 20.9209 124.35Z" fill="#1F705E" stroke="#010101" stroke-miterlimit="10" stroke-linecap="round"/>
<path d="M80.691 61.84L80.951 63.34L78.511 64.16L77.811 64.39L77.891 66.12L78.171 72.79L78.001 72.42L76.701 68.78L75.401 65.06L67.541 64.89H67.001L67.661 64.71L75.391 62.55L74.931 53.71L77.061 62.02L79.061 61.94L80.691 61.84Z" fill="white" stroke="#010101" stroke-width="0.5" stroke-miterlimit="10" stroke-linecap="round"/>
<path d="M67.571 68.26L68.801 73.06L74.001 72.86L69.201 74.47L69.411 79.33L67.801 74.84L63.001 74.74L67.861 73.38L67.571 68.26Z" fill="white" stroke="#010101" stroke-width="0.5" stroke-miterlimit="10" stroke-linecap="round"/>
<path d="M39.7812 106.06C39.4681 105.892 39.1307 105.774 38.7812 105.71C38.452 105.635 38.1103 105.635 37.7812 105.71C37.5824 105.741 37.3878 105.795 37.2012 105.87C37.0284 105.932 36.8713 106.031 36.7412 106.16C36.6828 106.22 36.6403 106.293 36.6176 106.373C36.5949 106.454 36.5927 106.539 36.6112 106.62C36.6249 106.703 36.6584 106.782 36.7088 106.85C36.7593 106.918 36.8252 106.973 36.9012 107.01C37.0859 107.089 37.2814 107.139 37.4812 107.16H38.2712C38.5578 107.16 38.8378 107.18 39.1112 107.22C39.3749 107.238 39.6345 107.295 39.8812 107.39C40.1098 107.471 40.318 107.6 40.4912 107.77C40.664 107.959 40.7755 108.196 40.8112 108.45C40.8825 108.792 40.8256 109.148 40.6512 109.45C40.4705 109.761 40.212 110.019 39.9012 110.2C39.5554 110.405 39.1763 110.547 38.7812 110.62C38.2806 110.694 37.7717 110.694 37.2712 110.62C36.8057 110.549 36.3675 110.356 36.0012 110.06L36.6312 109.25C36.914 109.462 37.2387 109.61 37.5836 109.686C37.9285 109.762 38.2857 109.763 38.6312 109.69C38.8193 109.65 39.0034 109.593 39.1812 109.52C39.3552 109.451 39.5121 109.345 39.6412 109.21C39.698 109.145 39.7385 109.068 39.7594 108.985C39.7802 108.901 39.7808 108.814 39.7612 108.73C39.7508 108.65 39.7194 108.575 39.6701 108.512C39.6209 108.449 39.5557 108.4 39.4812 108.37C39.2972 108.28 39.0957 108.233 38.8912 108.23C38.6412 108.23 38.3812 108.23 38.1112 108.23C37.7384 108.193 37.3678 108.137 37.0012 108.06C36.6628 108.013 36.3405 107.887 36.0612 107.69C35.7873 107.451 35.6096 107.12 35.5612 106.76C35.5015 106.444 35.5584 106.117 35.7212 105.84C35.9097 105.537 36.1709 105.286 36.4812 105.11C36.8368 104.904 37.2261 104.761 37.6312 104.69C37.9249 104.639 38.2232 104.619 38.5212 104.63C38.8322 104.633 39.1414 104.677 39.4412 104.76C39.7338 104.836 40.0089 104.969 40.2512 105.15L39.7812 106.06ZM48.5512 107.99C48.3685 108.195 48.1639 108.379 47.9412 108.54C47.6883 108.73 47.4129 108.888 47.1212 109.01C46.8 109.149 46.4647 109.253 46.1212 109.32C45.5257 109.458 44.9066 109.458 44.3112 109.32C43.7876 109.178 43.3134 108.894 42.9412 108.5C42.5776 108.108 42.3376 107.618 42.2512 107.09C42.1255 106.518 42.1779 105.921 42.4012 105.38C42.6151 104.88 42.9608 104.448 43.4012 104.13C43.8633 103.791 44.3969 103.561 44.9612 103.46C45.4741 103.364 46.0029 103.394 46.5012 103.55C46.9693 103.693 47.3906 103.959 47.7212 104.32C48.0759 104.7 48.3092 105.177 48.3912 105.69L48.4712 106.21L43.4712 107.13C43.5612 107.356 43.6963 107.561 43.8682 107.733C44.0401 107.905 44.2453 108.04 44.4712 108.13C45.0038 108.347 45.59 108.396 46.1512 108.27C46.5485 108.211 46.9276 108.064 47.2612 107.84C47.5023 107.672 47.7266 107.481 47.9312 107.27L48.5512 107.99ZM45.1412 104.44C44.672 104.519 44.2291 104.711 43.8512 105C43.6765 105.145 43.5364 105.327 43.4413 105.533C43.3461 105.739 43.2982 105.963 43.3012 106.19L47.1712 105.48V105.36C47.1032 105.121 46.9549 104.912 46.7512 104.77C46.5322 104.608 46.279 104.499 46.0112 104.45C45.7267 104.379 45.4309 104.365 45.1412 104.41V104.44ZM56.3812 106.56C56.198 106.762 55.9935 106.943 55.7712 107.1C55.5128 107.29 55.2344 107.451 54.9412 107.58C54.6224 107.723 54.2862 107.824 53.9412 107.88C53.3422 108.005 52.7223 107.988 52.1312 107.83C51.6099 107.688 51.1366 107.408 50.7612 107.02C50.3995 106.627 50.1598 106.137 50.0712 105.61C49.9437 105.054 49.983 104.473 50.1839 103.94C50.3849 103.406 50.7387 102.944 51.2012 102.61C51.6633 102.271 52.1969 102.041 52.7612 101.94C53.2738 101.838 53.8038 101.869 54.3012 102.03C54.7693 102.173 55.1906 102.439 55.5212 102.8C55.878 103.178 56.1116 103.656 56.1912 104.17L56.2712 104.69L51.2712 105.61C51.3612 105.836 51.4963 106.041 51.6682 106.213C51.8401 106.385 52.0453 106.52 52.2712 106.61C52.8049 106.822 53.3896 106.871 53.9512 106.75C54.3484 106.691 54.7276 106.544 55.0612 106.32C55.2976 106.146 55.5214 105.955 55.7312 105.75L56.3812 106.56ZM53.0012 102.98C52.5306 103.054 52.0867 103.247 51.7112 103.54C51.5373 103.683 51.3976 103.863 51.3025 104.068C51.2073 104.272 51.159 104.495 51.1612 104.72L55.0012 104.06V103.94C54.931 103.699 54.7833 103.488 54.5812 103.34C54.3616 103.181 54.1084 103.075 53.8412 103.03C53.5669 102.96 53.2818 102.943 53.0012 102.98ZM63.2712 97.77L64.7312 105.77L63.6212 105.98L63.4612 105.09C63.343 105.303 63.191 105.496 63.0112 105.66C62.8116 105.862 62.5864 106.037 62.3412 106.18C62.0619 106.328 61.7618 106.432 61.4512 106.49C60.9147 106.594 60.3606 106.559 59.8412 106.39C59.353 106.224 58.9204 105.927 58.5912 105.53C58.2506 105.112 58.0264 104.612 57.9412 104.08C57.8319 103.547 57.87 102.993 58.0512 102.48C58.2174 101.992 58.5192 101.562 58.9212 101.24C59.339 100.892 59.8437 100.664 60.3812 100.58C60.8227 100.485 61.2796 100.485 61.7212 100.58C62.083 100.656 62.4241 100.81 62.7212 101.03L62.1512 97.95L63.2712 97.77ZM61.4712 105.47C61.8382 105.404 62.1824 105.246 62.4712 105.01C62.7386 104.791 62.9423 104.504 63.0612 104.18C63.1754 103.839 63.1995 103.473 63.1312 103.12C63.0801 102.752 62.9278 102.406 62.6912 102.12C62.4732 101.852 62.1811 101.653 61.8512 101.55C61.4926 101.434 61.1101 101.413 60.7412 101.49C60.3736 101.548 60.0282 101.703 59.7412 101.94C59.4718 102.153 59.2675 102.437 59.1512 102.76C59.0294 103.1 59.0017 103.466 59.0712 103.82C59.1251 104.189 59.2809 104.535 59.5212 104.82C59.7475 105.079 60.0368 105.275 60.3612 105.39C60.7086 105.508 61.0802 105.535 61.4412 105.47H61.4712ZM70.3212 100.47C70.0101 100.297 69.672 100.179 69.3212 100.12C68.9912 100.052 68.6511 100.052 68.3212 100.12C68.1263 100.154 67.9354 100.208 67.7512 100.28C67.5758 100.341 67.418 100.444 67.2912 100.58C67.2303 100.638 67.1862 100.711 67.1633 100.792C67.1404 100.873 67.1397 100.959 67.1612 101.04C67.1729 101.121 67.2046 101.199 67.2535 101.265C67.3023 101.331 67.3668 101.385 67.4412 101.42C67.6263 101.508 67.8267 101.558 68.0312 101.57H68.8212C69.1022 101.57 69.3829 101.59 69.6612 101.63C69.9247 101.649 70.1841 101.706 70.4312 101.8C70.6597 101.875 70.866 102.005 71.0312 102.18C71.2127 102.364 71.3287 102.603 71.3612 102.86C71.4297 103.202 71.3729 103.557 71.2011 103.86C71.0169 104.174 70.7553 104.436 70.4412 104.62C70.0975 104.827 69.7173 104.966 69.3212 105.03C68.8247 105.115 68.3176 105.115 67.8212 105.03C67.3369 104.959 66.8807 104.759 66.5012 104.45L67.1412 103.64C67.4144 103.831 67.719 103.974 68.0412 104.06C68.4102 104.14 68.7922 104.14 69.1612 104.06C69.3508 104.026 69.5356 103.969 69.7112 103.89C69.8827 103.821 70.039 103.719 70.1712 103.59C70.2292 103.524 70.2711 103.445 70.2936 103.36C70.3162 103.275 70.3188 103.186 70.3012 103.1C70.2856 103.022 70.2522 102.949 70.2036 102.887C70.155 102.824 70.0926 102.774 70.0211 102.74C69.8302 102.661 69.6275 102.614 69.4212 102.6C69.1811 102.6 68.9212 102.6 68.6412 102.6C68.2411 102.6 67.8512 102.6 67.4911 102.5C67.1315 102.458 66.7879 102.327 66.4911 102.12C66.2203 101.88 66.0461 101.549 66.0012 101.19C65.9367 100.874 65.9939 100.546 66.1612 100.27C66.3503 99.9702 66.6116 99.7227 66.9212 99.55C67.2761 99.342 67.6657 99.1997 68.0712 99.13C68.3775 99.0718 68.6895 99.0483 69.0012 99.06C69.3126 99.0576 69.6226 99.1014 69.9212 99.19C70.2153 99.2623 70.4912 99.3951 70.7312 99.58L70.3212 100.47Z" fill="#010101"/>
<path d="M34.7009 74.57C36.0009 70.39 43.0009 69.29 45.0009 68.96C47.7209 68.53 53.3009 67.64 55.7809 70.74C56.8609 72.08 56.7809 74.56 56.6609 79.52C56.5609 83.38 56.4809 85.34 55.4609 86.81C53.6809 89.36 50.6109 89.96 48.5509 90.37C46.4909 90.78 42.8809 91.49 40.2309 89.51C39.5709 89.02 38.9909 88.37 36.7709 82.25C34.4309 75.78 34.5609 75.06 34.7009 74.57Z" fill="#8B5E3C" stroke="#231F20" stroke-width="0.5" stroke-miterlimit="10"/>
<path d="M34.6504 74.26C34.3504 72.16 40.3704 69.26 45.6504 68.5C49.8504 67.93 55.6504 68.5 56.0604 70.43C56.4704 72.36 51.5104 75.53 46.8104 76.54C41.4204 77.7 34.9404 76.33 34.6504 74.26Z" fill="#A97C50" stroke="#231F20" stroke-width="0.5" stroke-miterlimit="10"/>
<path d="M37.0011 73.79C36.7911 72.3 41.3911 70.15 45.4311 69.59C48.6311 69.15 53.0311 69.5 53.3311 70.88C53.6311 72.26 49.8311 74.56 46.2411 75.32C42.1111 76.19 37.1911 75.26 37.0011 73.79Z" fill="#231F20" stroke="#231F20" stroke-width="0.5" stroke-miterlimit="10"/>
<path d="M29.8408 51.56C30.6208 49.76 32.9308 45.01 36.4208 44.73C41.5608 44.33 45.6308 53.89 46.8808 56.82C47.0008 57.11 47.1108 57.39 47.2308 57.67C48.1546 60.0267 48.8446 62.4684 49.2908 64.96C49.4908 66.08 49.6408 67.19 49.7508 68.3C49.7459 68.3666 49.7459 68.4334 49.7508 68.5C49.7508 68.83 49.7508 69.16 49.8208 69.5C49.8908 69.84 49.8808 70.41 49.8908 70.86C49.8956 70.9266 49.8956 70.9934 49.8908 71.06C49.8908 71.39 49.8908 71.73 49.8908 72.06C49.8908 72.73 49.8908 73.39 49.8908 74.06" stroke="#1E6F5D" stroke-miterlimit="10"/>
<path d="M41.8906 75.63C41.8906 74.7 41.8906 73.79 42.0006 72.92C42.0006 72.64 42.0006 72.35 42.0806 72.08C42.0758 71.9901 42.0758 71.8999 42.0806 71.81C42.1506 71.28 42.2306 70.81 42.3406 70.27C42.4006 69.97 42.4606 69.69 42.5406 69.42C42.5646 69.315 42.5947 69.2115 42.6306 69.11C42.9434 67.8638 43.5899 66.7264 44.5006 65.82C44.7956 65.5441 45.1333 65.3179 45.5006 65.15C46.6947 64.6255 48.0399 64.5578 49.2806 64.96C51.2243 65.5397 53.0565 66.4423 54.7006 67.63" stroke="#1E6F5D" stroke-width="2" stroke-miterlimit="10"/>
<path d="M43.001 75.65C43.081 74.65 43.181 73.65 43.311 72.55C43.311 72.3 43.371 72.04 43.411 71.79C43.451 71.54 43.411 71.57 43.411 71.46C43.491 70.95 43.571 70.46 43.661 69.92C43.661 69.67 43.751 69.41 43.791 69.16C43.831 68.91 43.791 68.93 43.861 68.82C44.0476 67.8267 44.2676 66.8267 44.521 65.82C45.0599 63.6652 45.7278 61.5447 46.521 59.47C46.7543 58.8633 46.9943 58.2633 47.241 57.67C48.4608 54.7466 49.9226 51.9302 51.611 49.25" stroke="#1E6F5D" stroke-miterlimit="10"/>
<path d="M50.3008 51.41C50.0599 52.423 50.0963 53.4822 50.406 54.4763C50.7156 55.4705 51.2872 56.3629 52.0608 57.06C53.1123 57.9014 54.419 58.3599 55.7658 58.3599C57.1125 58.3599 58.4192 57.9014 59.4708 57.06C57.9992 56.5263 56.6419 55.7187 55.4708 54.68C54.5608 53.87 53.6908 52.84 53.8308 52.68C53.9708 52.52 55.7608 54.4 58.3108 54.74C61.3108 55.13 64.1308 53.05 63.9908 52.64C63.8508 52.23 62.1608 53.08 59.5008 52.58C57.4108 52.2 55.6008 51.2 55.6908 50.87C55.7808 50.54 57.0008 50.88 60.0008 51.06C64.4208 51.27 65.1008 50.92 65.4208 50.7C65.7408 50.48 67.3208 49.32 67.2308 45.48C66.3108 46.57 63.8808 49.15 60.6908 49.07C59.1208 49.07 57.1008 48.32 57.1308 47.77C57.1308 47.39 58.1308 47.15 58.5508 47.04C60.6708 46.51 61.5508 47.31 63.3008 47.18C64.2634 47.1226 65.1945 46.8159 66.0027 46.29C66.8109 45.764 67.4685 45.0369 67.9108 44.18C68.5408 42.7 68.2108 40.84 67.6208 40.68C67.0308 40.52 66.3508 42.97 64.1708 43.89C62.6608 44.53 60.7908 44.48 60.5908 43.89C60.3908 43.3 61.4608 42.25 66.7208 39.38C66.942 38.4482 66.8594 37.4701 66.4852 36.5885C66.111 35.7069 65.4647 34.9681 64.6408 34.48C62.4608 35.28 61.3308 35.01 60.7008 34.56C60.0708 34.11 59.9808 33.65 59.4508 33.61C58.6308 33.54 57.9208 34.61 57.4508 35.35C56.4955 36.6013 55.9852 38.1358 56.0008 39.71C56.0908 41.11 56.6508 41.59 56.3008 42.53C55.9508 43.47 55.0708 44.18 54.6108 43.99C53.4408 43.52 54.6108 36.65 56.8708 34.7C57.0208 34.57 57.3608 34.3 57.3008 34.18C57.1608 33.89 54.4308 34.18 53.3008 35.66C51.9608 37.46 53.8208 39.66 52.5008 43.35C52.5008 43.46 51.8608 45.12 51.5008 45.05C50.9608 44.94 51.4408 40.46 51.9308 36.6C49.5708 37.14 48.8708 38.18 48.6108 38.71C47.8908 40.25 48.6808 42.42 49.8208 45.56C50.3408 46.98 50.6708 47.56 50.4608 47.76C50.0908 48.05 48.1108 46.76 47.3008 44.76C46.3008 42.36 47.5908 40.11 47.0708 39.89C46.5508 39.67 45.0008 41.46 44.4808 43.63C44.2285 44.3917 44.1343 45.1969 44.2039 45.9962C44.2734 46.7956 44.5053 47.5724 44.8853 48.2791C45.2653 48.9858 45.7855 49.6075 46.414 50.1063C47.0426 50.6051 47.7662 50.9704 48.5408 51.18C49.1128 51.3435 49.7059 51.421 50.3008 51.41Z" fill="#3A7867"/>
<path d="M53.4404 56.43C53.3104 56.53 52.6104 56 52.1104 55.33C51.1104 54.01 51.0404 52.33 51.2404 52.25C51.4404 52.17 51.4604 52.62 52.6104 54.72C53.2704 55.93 53.5304 56.35 53.4404 56.43Z" fill="white"/>
<path d="M50.8511 45.76C50.2189 45.0755 49.7507 44.256 49.4822 43.3637C49.2137 42.4715 49.1517 41.5298 49.3011 40.61C49.4711 39.94 49.8111 39.31 49.9511 39.34C50.0911 39.37 49.7911 40.77 49.9511 42.59C50.1108 43.6815 50.4134 44.7474 50.8511 45.76Z" fill="white"/>
<path d="M59.5508 44.84C60.0708 45.16 63.1008 46.94 65.5508 45.69C66.4708 45.21 67.2008 44.36 67.1108 44.21C67.0208 44.06 65.5808 45.21 63.6508 45.46C62.253 45.6461 60.8311 45.431 59.5508 44.84Z" fill="white"/>
<path d="M55.781 49.84C56.6431 49.7439 57.5142 49.764 58.371 49.9C58.786 50.0254 59.2108 50.1157 59.641 50.17C60.0756 50.1698 60.5063 50.0884 60.911 49.93C61.721 49.61 62.501 49.35 63.291 49.06C64.1069 48.7766 64.9383 48.5396 65.781 48.35V48.43C65.2243 49.1447 64.4947 49.7057 63.661 50.06C62.813 50.3965 61.9017 50.5433 60.991 50.49C60.5452 50.4499 60.0967 50.4499 59.651 50.49C59.211 50.49 58.771 50.7 58.311 50.73C57.3936 50.7585 56.4928 50.4805 55.751 49.94L55.781 49.84Z" fill="#1E6F5D"/>
<path d="M53.6913 45.99C53.1833 45.2295 52.9407 44.3225 53.0013 43.41C53.0013 42.96 53.2113 42.52 53.2713 42.08C53.328 41.6391 53.3448 41.1939 53.3213 40.75C53.2737 39.8322 53.4238 38.9148 53.7613 38.06C54.1294 37.2177 54.7079 36.4842 55.4413 35.93H55.5213C55.3013 36.83 55.0213 37.62 54.7513 38.41C54.4813 39.2 54.1613 39.96 53.8213 40.77C53.6488 41.1785 53.5571 41.6166 53.5513 42.06C53.5964 42.4925 53.6766 42.9206 53.7913 43.34C53.9112 44.1992 53.9112 45.0708 53.7913 45.93L53.6913 45.99Z" fill="#1E6F5D"/>
<path d="M50.6807 50.89C51.7538 49.6825 52.9465 48.5869 54.2407 47.62C54.9007 47.16 55.6107 46.76 56.2407 46.26C56.875 45.7595 57.4639 45.204 58.0007 44.6C59.0754 43.3937 60.2102 42.2423 61.4007 41.15C62.6157 40.0784 63.9167 39.1084 65.2907 38.25L65.3607 38.32C64.3851 39.6162 63.3012 40.8272 62.1207 41.94C61.5307 42.5 60.9107 43.01 60.2907 43.53C59.676 44.0793 59.0281 44.5902 58.3507 45.06C57.6805 45.5115 57.0453 46.0129 56.4507 46.56C55.8707 47.11 55.3407 47.74 54.7707 48.31C53.5864 49.4158 52.2368 50.3302 50.7707 51.02L50.6807 50.89Z" fill="#1E6F5D"/>
<path d="M50.6909 63.21C48.6909 63 47.0509 63.72 46.3709 65.1C45.5009 66.84 46.3709 69.37 48.5209 71.1C48.5453 69.9148 48.8431 68.7513 49.3909 67.7C49.8209 66.9 50.3909 66.11 50.6309 66.21C50.8709 66.31 49.7309 67.91 50.1809 69.99C50.7309 72.47 53.3109 74.56 53.6209 74.42C53.9309 74.28 52.7109 72.97 52.3609 70.78C52.0809 69.06 52.3609 67.52 52.7109 67.56C53.0609 67.6 53.0809 68.56 53.8309 71.01C54.9309 74.6 55.4309 75.12 55.7109 75.36C55.9909 75.6 57.4409 76.78 60.7109 76.36C59.5109 75.7 56.6109 73.95 55.7109 71.36C55.2909 70.08 55.3009 68.36 55.7709 68.36C56.2409 68.36 56.6009 69.12 56.7709 69.45C57.8409 71.13 57.4309 71.93 58.0309 73.3C58.4099 74.1327 58.9589 74.8769 59.6426 75.4849C60.3263 76.0928 61.1296 76.551 62.0009 76.83C63.4509 77.22 64.9309 76.83 64.9009 76.31C64.8709 75.79 62.5809 75.47 61.1609 73.78C60.1609 72.61 59.6809 71.1 60.0909 70.89C60.5009 70.68 61.7409 71.46 65.7109 75.48C66.4763 75.5658 67.2498 75.4195 67.9309 75.06C68.261 74.8864 68.5508 74.6454 68.7817 74.3525C69.0125 74.0596 69.1792 73.7215 69.2709 73.36C67.9509 71.66 67.8509 70.72 68.0509 70.18C68.2509 69.64 68.6209 69.53 68.5009 69.09C68.3209 68.42 67.1809 67.94 66.4409 67.63C65.1634 66.9919 63.7325 66.7251 62.3109 66.86C61.1509 67.05 60.9109 67.54 60.0009 67.33C59.0909 67.12 58.2409 66.48 58.2709 66.09C58.3309 65.09 64.5109 65.49 66.8209 67.16C66.9809 67.27 67.3109 67.52 67.3909 67.47C67.4709 67.42 66.6009 65.17 65.0009 64.37C63.0809 63.43 61.7909 65.11 58.2309 64.37C58.1309 64.37 56.5309 64 56.5009 63.72C56.4309 63.28 60.3809 63.3 63.8109 63.38C63.2318 62.2065 62.2268 61.2981 61.0009 60.84C59.4809 60.38 57.8709 61.19 55.5309 62.37C54.4709 62.91 54.0309 63.23 53.8409 63.07C53.4909 62.79 54.0109 61.07 55.4309 60.27C57.1809 59.27 59.4309 60.13 59.5109 59.69C59.5909 59.25 57.6109 58.12 55.6009 57.87C53.5909 57.62 51.6009 58.18 50.7809 59.71C50.471 60.3508 50.3266 61.059 50.3609 61.77C50.4012 62.2634 50.5123 62.7484 50.6909 63.21Z" fill="#3A7867"/>
<path d="M61.6208 70.06C61.4808 70.23 63.0808 71.92 65.2208 72.82C65.4008 72.9 66.5208 73.37 66.5808 73.23C66.7208 72.96 61.8408 69.83 61.6208 70.06Z" fill="white"/>
<path d="M47.3411 66.16C47.2111 66.07 47.4611 65.46 47.8811 65C48.1726 64.6623 48.5381 64.3963 48.9492 64.2229C49.3602 64.0494 49.8058 63.9732 50.2511 64C50.3111 64.08 50.0011 64.21 48.5511 65.31C47.7111 65.98 47.4311 66.23 47.3411 66.16Z" fill="white"/>
<path d="M59.0005 70.16C58.7519 70.9961 58.7131 71.8805 58.8875 72.7351C59.0619 73.5897 59.4442 74.3882 60.0005 75.06C60.4468 75.5944 61.0367 75.9899 61.7005 76.2C61.8205 76.08 60.4505 75.04 59.6405 73.51C59.1043 72.4799 58.8818 71.3152 59.0005 70.16Z" fill="white"/>
<path d="M53.6211 67.5C53.9916 68.1726 54.2579 68.8975 54.4111 69.65C54.4183 70.0371 54.4652 70.4225 54.5511 70.8C54.679 71.1716 54.8834 71.5123 55.1511 71.8C55.6911 72.37 56.1511 72.94 56.6111 73.52C57.068 74.1508 57.4695 74.82 57.8111 75.52L57.7411 75.6C56.971 75.3068 56.2844 74.8296 55.7411 74.21C55.2396 73.575 54.8753 72.8429 54.6711 72.06C54.5721 71.6772 54.4348 71.3053 54.2611 70.95C54.0711 70.61 53.7911 70.29 53.6111 69.95C53.2862 69.192 53.2541 68.3403 53.5211 67.56L53.6211 67.5Z" fill="#1E6F5D"/>
<path d="M56.291 65.5C56.8968 64.9411 57.6869 64.6243 58.511 64.61C58.921 64.61 59.321 64.76 59.711 64.79C60.1057 64.8063 60.501 64.7829 60.891 64.72C61.6885 64.5957 62.5034 64.6435 63.281 64.86C64.0594 65.0832 64.7705 65.4954 65.351 66.06V66.15C64.5774 66.1195 63.8079 66.0225 63.051 65.86C62.331 65.66 61.621 65.48 60.891 65.22C60.5256 65.0914 60.1373 65.0403 59.751 65.07C59.3759 65.1497 59.008 65.2601 58.651 65.4C57.9039 65.5711 57.1347 65.6251 56.371 65.56L56.291 65.5Z" fill="#1E6F5D"/>
<path d="M51.2512 63.46C52.6629 64.1077 53.9813 64.9418 55.1712 65.94C55.7412 66.45 56.2712 67.03 56.8712 67.52C57.4711 68.0021 58.1099 68.4336 58.7812 68.81C60.1312 69.56 61.4512 70.36 62.7212 71.23C63.9812 72.1276 65.1622 73.1312 66.2512 74.23V74.32C64.8253 73.7017 63.4566 72.9588 62.1612 72.1C61.5212 71.67 60.9012 71.2 60.2912 70.74C59.6616 70.2847 59.0666 69.7833 58.5112 69.24C57.9541 68.7037 57.3556 68.2122 56.7212 67.77C56.0812 67.34 55.3812 66.99 54.7212 66.59C53.4303 65.7292 52.26 64.7002 51.2412 63.53L51.2512 63.46Z" fill="#1E6F5D"/>
<path d="M56.5205 63.23C56.9672 62.6265 57.5671 62.1534 58.2581 61.8598C58.9491 61.5661 59.706 61.4626 60.4505 61.56C61.0605 61.64 61.7005 61.86 61.7105 61.98C61.7205 62.1 60.4505 61.98 58.9605 62.27C58.1013 62.4584 57.2777 62.7824 56.5205 63.23Z" fill="white"/>
<path d="M28.661 51.54C27.9191 50.6949 26.9617 50.0672 25.8909 49.7237C24.8201 49.3803 23.6761 49.3341 22.581 49.59C21.1989 49.9923 19.9937 50.8509 19.162 52.0258C18.3303 53.2007 17.9211 54.6227 18.001 56.06C19.3764 55.116 20.9162 54.4376 22.541 54.06C23.811 53.76 25.261 53.62 25.321 53.86C25.381 54.1 22.621 54.49 20.761 56.53C18.551 58.94 18.661 62.68 19.101 62.82C19.541 62.96 19.841 60.93 21.921 58.9C23.551 57.31 25.541 56.33 25.771 56.6C26.001 56.87 25.011 57.71 23.041 60.25C20.131 64.01 20.041 64.82 20.041 65.25C20.041 65.68 20.091 67.78 23.521 70.07C23.121 68.58 22.361 64.86 24.391 62.07C25.391 60.71 27.261 59.37 27.731 59.73C28.051 59.97 27.661 60.99 27.491 61.43C26.651 63.62 25.391 63.93 24.491 65.52C23.9499 66.406 23.6479 67.4173 23.6146 68.4549C23.5813 69.4926 23.8178 70.5211 24.301 71.44C25.221 72.91 27.061 73.76 27.561 73.34C28.061 72.92 26.331 70.82 26.871 68.34C27.241 66.62 28.431 65.01 29.041 65.17C29.651 65.33 29.951 66.95 29.231 73.34C29.8864 74.071 30.7474 74.5869 31.701 74.82C32.7453 75.0601 33.839 74.9585 34.821 74.53C35.451 72.11 36.391 71.29 37.171 71.01C37.951 70.73 38.4111 70.94 38.791 70.5C39.351 69.82 38.791 68.5 38.4711 67.68C37.9323 66.0774 36.8773 64.6987 35.4711 63.76C34.181 62.98 33.411 63.18 32.801 62.29C32.191 61.4 32.101 60.2 32.561 59.9C33.691 59.17 39.0111 64.43 39.3311 67.61C39.3311 67.83 39.331 68.3 39.521 68.32C39.871 68.32 41.341 65.82 40.701 63.86C39.951 61.57 36.9011 61.86 34.451 58.42C34.371 58.32 33.281 56.76 33.541 56.51C33.971 56.11 37.621 59.28 40.711 62.1C41.711 59.69 41.2111 58.43 40.9011 57.88C40.0011 56.3 37.601 55.65 34.1311 54.72C32.5711 54.3 31.811 54.21 31.801 53.93C31.801 53.43 34.141 52.48 36.341 52.93C39.071 53.54 40.251 56.05 40.771 55.74C41.291 55.43 40.771 52.95 39.141 51.15C38.3589 50.2237 37.3495 49.5165 36.2118 49.0975C35.0742 48.6786 33.8472 48.5623 32.651 48.76C31.6787 49.0239 30.7748 49.4947 30.001 50.14C29.4896 50.5401 29.0384 51.0116 28.661 51.54Z" fill="#3A7867"/>
<path d="M31.2611 65.8C30.9511 65.8 30.5811 68.45 31.5811 70.89C31.6711 71.1 32.1911 72.36 32.4011 72.3C32.8611 72.17 31.7611 65.76 31.2611 65.8Z" fill="white"/>
<path d="M22.3213 51.21C22.3213 51.04 23.2113 50.75 24.1013 50.72C25.8613 50.72 27.4213 51.63 27.3513 51.85C27.2813 52.07 26.8913 51.85 24.3513 51.53C22.8613 51.37 22.3313 51.34 22.3213 51.21Z" fill="white"/>
<path d="M33.3008 55.51C34.2919 55.3709 35.3017 55.4618 36.2519 55.7757C37.2022 56.0896 38.0675 56.618 38.7808 57.32C39.2608 57.87 39.6108 58.56 39.4908 58.67C39.3708 58.78 38.3308 57.67 36.6208 56.67C35.5722 56.1337 34.4552 55.7434 33.3008 55.51Z" fill="white"/>
<path d="M28.7411 63.72C28.1411 63.98 24.7411 65.55 24.3111 68.47C24.1611 69.57 24.4611 70.74 24.6511 70.74C24.8411 70.74 24.7611 68.82 25.6511 66.94C26.3548 65.5953 27.4265 64.4785 28.7411 63.72Z" fill="white"/>
<path d="M26.6608 57.32C26.2026 58.1266 25.6449 58.8724 25.0008 59.54C24.6425 59.8474 24.3082 60.1817 24.0008 60.54C23.7281 60.9187 23.5311 61.3465 23.4208 61.8L22.7108 64.43C22.4408 65.29 22.1908 66.15 21.8308 67.07H21.7308C21.4763 66.1224 21.4557 65.1273 21.6708 64.17C21.9072 63.2227 22.3361 62.3343 22.9308 61.56C23.228 61.1883 23.4955 60.7937 23.7308 60.38C23.9608 59.97 24.1108 59.48 24.3608 59.07C24.9024 58.2501 25.6902 57.6234 26.6108 57.28L26.6608 57.32Z" fill="#1E6F5D"/>
<path d="M31.3409 57.86C32.3241 57.8993 33.2694 58.2494 34.0409 58.86C34.4109 59.18 34.7109 59.59 35.0409 59.86C35.3939 60.1765 35.7718 60.4641 36.1709 60.72C36.9713 61.271 37.6517 61.9786 38.1709 62.8C38.6818 63.6352 38.9805 64.5828 39.0409 65.56H38.9509C38.3109 64.81 37.8009 64.07 37.2709 63.34L35.7609 61.07C35.4929 60.6772 35.1538 60.338 34.7609 60.07C34.358 59.836 33.9366 59.6353 33.5009 59.47C32.6727 59.0443 31.903 58.5132 31.2109 57.89L31.3409 57.86Z" fill="#1E6F5D"/>
<path d="M28.8809 52.19C29.2633 53.8819 29.4843 55.6063 29.5409 57.34C29.5409 58.2 29.4709 59.08 29.5409 59.94C29.593 60.806 29.7201 61.6659 29.9209 62.51C30.3109 64.2 30.6009 65.9 30.8309 67.62C31.0299 69.3457 31.0934 71.0844 31.0209 72.82H30.9209C30.409 71.1583 30.0246 69.4601 29.7709 67.74C29.6509 66.88 29.5809 66.02 29.5009 65.16C29.4077 64.2965 29.3643 63.4284 29.3709 62.56C29.3777 61.6907 29.3242 60.8219 29.2109 59.96C29.0909 59.1 28.8709 58.25 28.7309 57.4C28.4941 55.6662 28.5177 53.9068 28.8009 52.18L28.8809 52.19Z" fill="#1E6F5D"/>
<path d="M43.7904 71.68C43.9182 71.1454 43.8771 70.5843 43.673 70.074C43.4689 69.5636 43.1116 69.1291 42.6504 68.83C41.5404 68.23 39.8704 68.73 38.7104 70.11C39.483 70.1445 40.2367 70.3604 40.9104 70.74C41.4204 71.04 41.9104 71.46 41.8504 71.58C41.7904 71.7 40.7704 70.96 39.4004 71.21C38.7869 71.3453 38.2081 71.6062 37.7004 71.9762C37.1927 72.3462 36.7671 72.8174 36.4504 73.36C37.2288 73.0551 38.0274 72.8045 38.8404 72.61C39.9604 72.47 40.9604 72.71 40.9304 72.9C40.9004 73.09 40.2704 73.12 38.6604 73.56C36.3104 74.2 35.9604 74.56 35.7904 74.69C35.4376 75.1379 35.1846 75.656 35.0483 76.2096C34.9121 76.7632 34.8957 77.3396 35.0004 77.9C35.4504 77.13 36.6504 75.29 38.3504 74.78C39.1904 74.53 40.2804 74.58 40.2904 74.89C40.3004 75.2 39.7804 75.4 39.5604 75.54C38.4504 76.2 37.9404 75.91 37.0304 76.28C36.4891 76.5067 36.0007 76.8432 35.5962 77.2684C35.1917 77.6936 34.8799 78.1981 34.6804 78.75C34.4004 79.69 34.6804 80.66 34.9604 80.65C35.2404 80.64 35.5504 79.16 36.6804 78.27C37.4604 77.66 38.4604 77.36 38.5904 77.63C38.7204 77.9 38.1804 78.69 35.4804 81.19C35.4022 81.6825 35.4718 82.1871 35.6804 82.64C35.7874 82.8584 35.9386 83.0521 36.1246 83.2088C36.3105 83.3655 36.5271 83.4817 36.7604 83.55C37.8904 82.73 38.5004 82.68 38.8604 82.83C39.2204 82.98 39.2704 83.21 39.5604 83.14C39.8504 83.07 40.3304 82.3 40.5604 81.83C40.9949 81.01 41.1956 80.0864 41.1404 79.16C41.0404 78.4 40.7304 78.23 40.8804 77.65C41.0304 77.07 41.4704 76.52 41.7304 76.55C42.3704 76.61 41.9904 80.62 40.8504 82.09C40.7804 82.19 40.6104 82.4 40.6404 82.45C41.0779 82.3662 41.4918 82.1876 41.8528 81.9267C42.2139 81.6659 42.5135 81.3291 42.7304 80.94C43.3804 79.71 42.3204 78.83 42.8904 76.54C42.8904 76.47 43.1704 75.44 43.3504 75.42C43.5304 75.4 43.5504 77.96 43.4204 80.18C44.1813 79.8315 44.7842 79.2107 45.1104 78.44C45.4404 77.44 44.9404 76.44 44.2304 74.85C43.9004 74.15 43.7004 73.85 43.8104 73.74C43.9204 73.63 45.1004 73.89 45.5904 74.83C46.2104 75.99 45.5904 77.46 45.8904 77.5C46.1904 77.54 46.9504 76.29 47.1504 74.99C47.2905 74.4127 47.2623 73.8074 47.0691 73.2456C46.8759 72.6838 46.5259 72.1891 46.0604 71.82C45.6492 71.5996 45.1867 71.4926 44.7204 71.51C44.4037 71.5197 44.0902 71.577 43.7904 71.68Z" fill="#3A7867"/>
<path d="M39.0807 78.64C38.2408 79.1974 37.589 79.9956 37.2107 80.93C37.1607 81.05 36.8307 81.76 36.9207 81.8C37.8199 80.881 38.551 79.8115 39.0807 78.64Z" fill="white"/>
<path d="M42.0013 69.44C42.0613 69.36 42.4513 69.53 42.7413 69.82C42.9501 70.0185 43.1101 70.2626 43.209 70.5332C43.3079 70.8038 43.3429 71.0936 43.3113 71.38C43.3113 71.38 43.1813 71.21 42.5013 70.24C42.0513 69.69 41.9013 69.5 42.0013 69.44Z" fill="white"/>
<path d="M39.101 76.92C38.5602 76.7448 37.9846 76.7052 37.4249 76.8045C36.8652 76.9039 36.3385 77.1393 35.891 77.49C35.411 77.91 35.051 78.49 35.111 78.57C35.6802 78.1031 36.2781 77.6723 36.901 77.28C37.583 76.9463 38.3483 76.821 39.101 76.92Z" fill="white"/>
<path d="M40.9413 73.51C40.5493 73.838 40.0693 74.0433 39.5613 74.1C39.3089 74.07 39.0538 74.07 38.8013 74.1C38.5578 74.1649 38.3409 74.3049 38.1813 74.5C37.8528 74.8658 37.4913 75.2006 37.1013 75.5C36.6645 75.7795 36.1848 75.9856 35.6813 76.11L35.6113 76.04C35.7315 75.4948 36.0307 75.0054 36.4613 74.65C36.8843 74.3126 37.3938 74.1012 37.9313 74.04C38.1916 74.0141 38.4454 73.9431 38.6813 73.83C38.9113 73.7 39.1013 73.47 39.3413 73.34C39.5967 73.2241 39.8771 73.1743 40.1567 73.1953C40.4363 73.2162 40.7062 73.3073 40.9413 73.46V73.51Z" fill="#1E6F5D"/>
<path d="M42.2014 75.27C42.4249 75.4363 42.6026 75.6565 42.718 75.9101C42.8334 76.1636 42.8827 76.4422 42.8614 76.72C42.8614 77 42.6714 77.26 42.6414 77.51C42.6068 77.7713 42.6272 78.037 42.7014 78.29C42.8235 78.8198 42.7993 79.3729 42.6314 79.89C42.444 80.4102 42.0931 80.8558 41.6314 81.16H41.5414C41.4768 80.6464 41.5004 80.1256 41.6114 79.62C41.7452 79.1529 41.9261 78.7005 42.1514 78.27C42.2816 78.0538 42.3378 77.801 42.3114 77.55C42.2495 77.3021 42.1554 77.0634 42.0314 76.84C41.9105 76.343 41.9383 75.8213 42.1114 75.34L42.2014 75.27Z" fill="#1E6F5D"/>
<path d="M43.6304 72.06C43.2677 73.0187 42.713 73.8932 42.0004 74.63C41.6404 74.98 41.2004 75.27 40.8704 75.63C40.5346 76.0048 40.2489 76.4216 40.0204 76.87C39.5664 77.7661 39.0378 78.6224 38.4404 79.43C37.8145 80.2358 37.0849 80.9554 36.2704 81.57L36.1904 81.51C36.5301 80.5484 36.9977 79.6369 37.5804 78.8C37.8704 78.39 38.1904 78 38.5204 77.62C38.8428 77.2309 39.1974 76.8696 39.5804 76.54C39.9612 76.2156 40.2974 75.8424 40.5804 75.43C40.8704 75.02 41.0604 74.53 41.3204 74.09C41.8895 73.2444 42.6244 72.5232 43.4804 71.97L43.6304 72.06Z" fill="#1E6F5D"/>
<path d="M43.6611 75.47C44.0426 75.7742 44.3362 76.1744 44.512 76.6295C44.6877 77.0847 44.7392 77.5784 44.6611 78.06C44.6011 78.46 44.4411 78.87 44.3611 78.87C44.2811 78.87 44.3611 78.05 44.2311 77.08C44.1252 76.5172 43.9329 75.9741 43.6611 75.47Z" fill="white"/>
</svg>
