<svg width="90" height="149" viewBox="0 0 90 149" fill="none" xmlns="http://www.w3.org/2000/svg">
<path d="M18.29 52.32C31.41 61.75 37.54 71.48 40.7 78.61C45.25 88.84 43.7 93.61 48.17 117.07C52.17 137.78 55.92 147.24 54.54 147.78C52.54 148.58 42.06 128.68 34.34 109.32C26.9987 90.9379 21.6189 71.832 18.29 52.32Z" fill="#3A7867"/>
<path d="M18.25 52.26C19.11 52.85 20.12 53.46 21.01 54.14C21.9 54.82 22.76 55.44 23.6 56.14C25.3149 57.4997 26.9603 58.9449 28.53 60.47C30.09 62 31.6 63.59 33 65.28C34.446 66.9447 35.7821 68.7018 37 70.54C39.4366 74.2182 41.4209 78.1768 42.91 82.33C44.4 86.52 44.91 90.94 45.43 95.25C46.43 103.9 47.54 112.52 49.27 121.05C50.09 125.32 51.07 129.56 52.13 133.78C52.65 135.887 53.1967 137.993 53.77 140.1C54.3839 142.211 54.8813 144.354 55.26 146.52C55.2998 146.829 55.2998 147.141 55.26 147.45C55.2414 147.549 55.2146 147.646 55.18 147.74C55.1259 147.864 55.0438 147.973 54.94 148.06C54.8313 148.149 54.7011 148.208 54.5624 148.231C54.4237 148.254 54.2815 148.24 54.15 148.19C53.5634 147.921 53.0517 147.513 52.66 147C51.9409 146.151 51.273 145.259 50.66 144.33C49.44 142.5 48.34 140.61 47.28 138.7C45.15 134.88 43.17 130.99 41.28 127.05C37.51 119.18 34.04 111.16 31.06 102.95C28.032 94.7592 25.4384 86.4142 23.29 77.95C22.2 73.72 21.29 69.46 20.39 65.19C19.95 63.05 19.57 60.91 19.21 58.76L18.68 55.53C18.52 54.51 18.39 53.3 18.25 52.26ZM18.33 52.38C18.57 53.49 18.79 54.38 19.01 55.51L19.69 58.7C20.16 60.82 20.69 62.94 21.15 65.06C22.15 69.29 23.27 73.49 24.44 77.67C25.61 81.85 26.88 86.02 28.24 90.14C29.6 94.26 30.99 98.37 32.53 102.44C35.53 110.56 38.92 118.59 42.53 126.44C44.37 130.38 46.26 134.29 48.29 138.12C49.29 140.03 50.36 141.93 51.49 143.77C52.0457 144.68 52.6569 145.555 53.32 146.39C53.5894 146.765 53.929 147.084 54.32 147.33C54.39 147.33 54.32 147.33 54.32 147.33V147.23C54.3461 146.997 54.3461 146.763 54.32 146.53C53.9992 144.398 53.5652 142.285 53.02 140.2L51.5 133.85C50.5 129.61 49.56 125.35 48.64 121.09C48.19 118.96 47.76 116.82 47.35 114.69C46.94 112.56 46.51 110.41 46.12 108.26C45.34 103.97 44.68 99.66 44.12 95.35C43.6811 91.0583 42.8305 86.8188 41.58 82.69C40.1885 78.6402 38.3151 74.7724 36 71.17C33.6761 67.5238 30.9963 64.1172 28 61C26.49 59.45 24.93 57.94 23.3 56.51C22.5 55.77 21.65 55.1 20.82 54.39L18.33 52.38Z" fill="#231F20"/>
<path d="M53.7101 147.81C58.5301 133.07 61.6401 121.73 63.7101 113.81C64.8801 109.21 66.7101 101.56 72.8401 95.27C74.7101 93.34 79.1401 88.76 84.4601 89.18C86.6701 89.36 88.7201 90.37 88.8901 90.01C89.0601 89.65 86.2001 87.5 83.6301 86.42C83.6301 86.42 76.8301 83.56 67.6301 87.25C57.5201 91.2 51.3701 115.63 53.7101 147.81Z" fill="#3A7867"/>
<path d="M53.7196 147.73C53.9696 146.88 54.1196 146.07 54.3296 145.32L55.0196 142.91L56.3996 138L59.1196 128.25C60.033 125.01 60.9096 121.753 61.7496 118.48L62.9996 113.62C63.4296 111.98 63.8696 110.33 64.3896 108.71C65.4481 105.449 66.9523 102.349 68.8596 99.5C69.8149 98.0731 70.8959 96.7344 72.0896 95.5C73.2404 94.2441 74.4912 93.0836 75.8296 92.03C77.1721 90.96 78.6736 90.1064 80.2796 89.5C81.9183 88.8806 83.6923 88.708 85.4196 89C86.2562 89.1564 87.0841 89.3566 87.8996 89.6C88.0937 89.6545 88.2906 89.6979 88.4896 89.73C88.5696 89.73 88.6996 89.73 88.6696 89.73C88.6396 89.73 88.6696 89.73 88.5996 89.73C88.5296 89.73 88.5996 89.79 88.5996 89.82C88.5996 89.85 88.5996 89.82 88.5996 89.82C88.3617 89.5245 88.0821 89.2652 87.7696 89.05C86.4366 88.0683 84.9852 87.2586 83.4496 86.64C80.2802 85.6994 76.9357 85.5077 73.6796 86.08C72.0506 86.335 70.4521 86.7573 68.9096 87.34C68.5296 87.49 68.1296 87.62 67.7596 87.78C67.4157 87.9396 67.0817 88.1199 66.7596 88.32C66.4103 88.5147 66.076 88.7353 65.7596 88.98C65.4436 89.2209 65.143 89.4814 64.8596 89.76C62.5824 92.129 60.8159 94.9404 59.6696 98.02C58.416 101.111 57.4128 104.298 56.6696 107.55C53.6896 120.71 53.3996 134.39 53.7196 147.73ZM53.7196 147.88C53.6396 147.07 53.4996 146.21 53.4096 145.31L53.1896 142.76C53.0696 141.07 52.9396 139.38 52.8896 137.69C52.7596 134.31 52.6896 130.92 52.7996 127.53C52.9252 120.727 53.7088 113.952 55.1396 107.3C55.8429 103.953 56.847 100.676 58.1396 97.51C59.4125 94.2575 61.3427 91.3025 63.8096 88.83C64.1228 88.5207 64.4569 88.2334 64.8096 87.97C65.1857 87.6917 65.5837 87.4442 65.9996 87.23C66.392 87.0022 66.7996 86.8017 67.2196 86.63C67.6296 86.46 68.0296 86.34 68.4396 86.19C70.0623 85.627 71.7373 85.2283 73.4396 85C76.8836 84.4993 80.3976 84.8424 83.6796 86C85.2605 86.6942 86.746 87.5882 88.0996 88.66C88.4868 88.9347 88.8249 89.2728 89.0996 89.66C89.1543 89.7573 89.1787 89.8687 89.1696 89.98C89.1696 90.12 88.9496 90.35 88.8696 90.34C88.7219 90.3772 88.5673 90.3772 88.4196 90.34C88.2032 90.2997 87.9895 90.2462 87.7796 90.18C86.9806 89.9324 86.1696 89.7255 85.3496 89.56C83.721 89.268 82.044 89.4129 80.4896 89.98C78.9307 90.5692 77.4808 91.4141 76.1996 92.48C73.6049 94.6 71.3782 97.1341 69.6096 99.98C67.8756 102.835 66.5304 105.909 65.6096 109.12C64.6096 112.3 63.9596 115.63 63.0296 118.88C62.0996 122.13 61.1996 125.39 60.2296 128.63C59.2596 131.87 58.2296 135.08 57.1496 138.3C56.6296 139.9 56.0596 141.5 55.4996 143.09L54.6496 145.5C54.3396 146.33 53.9996 147.12 53.6996 147.88H53.7196Z" fill="#231F20"/>
<path d="M53.7098 135.33C57.0998 108.67 61.7098 89.05 65.0498 82.2C66.3198 79.64 68.2998 75.63 72.5198 73.63C75.7898 72.07 78.7998 72.48 78.8898 71.69C78.9998 70.69 74.0898 68.35 69.4798 68.69C61.3798 69.22 55.9398 77.69 53.7098 81.15C41.4198 100.19 51.6398 129.63 53.7098 135.33Z" fill="#3A7867"/>
<path d="M53.7001 135.26C53.8901 133.51 53.9401 131.91 54.1101 130.34C54.2801 128.77 54.4601 127.02 54.6801 125.34C55.1201 122.03 55.5301 118.72 56.0801 115.42C57.1501 108.83 58.3501 102.25 60.0801 95.78C60.9401 92.54 61.8901 89.33 63.0801 86.18C63.6413 84.5965 64.3095 83.0529 65.0801 81.56C65.8239 80.0431 66.7148 78.6028 67.7401 77.26C69.8415 74.5441 72.899 72.7311 76.2901 72.19L77.4501 72C77.825 71.9541 78.1919 71.8565 78.5401 71.71C78.6401 71.63 78.6001 71.71 78.5401 71.54C78.4455 71.3975 78.3271 71.2723 78.1901 71.17C77.8778 70.9339 77.5428 70.7296 77.1901 70.56C75.7204 69.8578 74.1467 69.3985 72.5301 69.2C69.3088 68.7427 66.0332 69.5098 63.3501 71.35C60.673 73.207 58.3554 75.5348 56.5101 78.22C54.5618 80.8544 52.9337 83.7111 51.6601 86.73C50.4496 89.7715 49.594 92.9424 49.1101 96.18C48.6346 99.4374 48.4339 102.729 48.5101 106.02C48.5553 109.327 48.8159 112.627 49.2901 115.9C49.7501 119.18 50.3501 122.44 51.1101 125.68C51.5001 127.29 51.9001 128.91 52.3401 130.51L53.0301 132.91L53.4001 134.11L53.5801 134.7C53.6315 134.884 53.6716 135.071 53.7001 135.26ZM53.7001 135.41C53.5809 135.208 53.4773 134.998 53.3901 134.78L53.1601 134.19L52.7301 133L51.8901 130.64C51.3501 129.06 50.8301 127.47 50.3801 125.86C49.4546 122.639 48.7035 119.371 48.1301 116.07C46.8986 109.45 46.713 102.678 47.5801 96C48.041 92.6292 48.9246 89.3299 50.2101 86.18C51.5831 83.0722 53.3148 80.1355 55.3701 77.43C57.357 74.6543 59.8508 72.2792 62.7201 70.43C65.6622 68.5423 69.2125 67.8451 72.6501 68.48C74.334 68.726 75.9678 69.2392 77.4901 70C77.8789 70.2081 78.2472 70.4526 78.5901 70.73C78.7823 70.8864 78.9449 71.0761 79.0701 71.29C79.1447 71.4383 79.1759 71.6047 79.1601 71.77C79.1117 71.9459 79.0016 72.0985 78.8501 72.2C78.4356 72.3879 77.993 72.5061 77.5401 72.55L76.3101 72.75C74.6852 72.9964 73.1193 73.5387 71.6901 74.35C70.2843 75.1931 69.0577 76.3042 68.0801 77.62C66.1593 80.3131 64.7087 83.3122 63.7901 86.49C62.7901 89.65 61.9901 92.88 61.2401 96.11C60.4901 99.34 59.8101 102.61 59.1101 105.86C58.4101 109.11 57.8001 112.38 57.2101 115.66C56.6201 118.94 56.0101 122.21 55.4601 125.49L54.6101 130.42C54.3501 132.15 54.0001 133.85 53.7201 135.41H53.7001Z" fill="#231F20"/>
<path d="M73.83 20.28C71.044 19.2978 68.1438 18.6761 65.2 18.43C62.269 18.1765 59.32 18.6292 56.6 19.75C53.9323 20.9554 51.621 22.8292 49.89 25.19C48.1667 27.5527 46.8175 30.1666 45.89 32.94C44.0368 38.5406 42.9273 44.3604 42.59 50.25C42.1805 56.1579 42.117 62.0847 42.4 68C43.0285 79.8198 44.3441 91.593 46.34 103.26C48.29 114.93 50.67 126.56 53.56 138.02L51.4 138.18C52.81 123.49 53.93 108.78 54.54 94.05C55.15 79.32 55.25 64.59 54.38 49.94C54.12 46.29 53.8 42.63 53.38 39C52.96 35.37 52.38 31.75 51.69 28.18C50.9956 24.6082 50.0295 21.0947 48.8 17.67C47.6317 14.2871 45.9632 11.0984 43.85 8.21C43.3174 7.50648 42.7395 6.8384 42.12 6.21C41.81 5.91 41.51 5.58 41.18 5.3L40.18 4.49C38.7913 3.45561 37.2257 2.68299 35.56 2.21C32.1036 1.37706 28.481 1.55056 25.12 2.71C18.17 4.88 12 9.18 6.2 13.67L6 13.44C8.74947 10.9511 11.6627 8.64927 14.72 6.55C17.7941 4.39929 21.1313 2.6517 24.65 1.35C28.2699 -0.0271066 32.2083 -0.339404 36 0.449999C37.9096 0.92303 39.7185 1.736 41.34 2.85L42.52 3.72C42.91 4.02 43.24 4.37 43.61 4.72C44.325 5.37949 44.9932 6.08787 45.61 6.84C47.9541 9.86911 49.8161 13.2422 51.13 16.84C52.478 20.3515 53.5512 23.9623 54.34 27.64C55.9191 34.9056 56.9486 42.2798 57.42 49.7C57.95 57.12 58.13 64.54 58.06 71.95C57.99 79.36 57.74 86.77 57.32 94.16C56.49 108.94 55.16 123.67 53.59 138.37L52.91 144.72L51.42 138.53C48.64 126.94 46.42 115.27 44.56 103.53C42.6583 91.7692 41.4694 79.9043 41 68C40.795 62.0436 40.9352 56.0802 41.42 50.14C41.8483 44.1733 43.0621 38.2892 45.03 32.64C46.0457 29.8059 47.4854 27.1423 49.3 24.74C51.1358 22.3216 53.5639 20.417 56.35 19.21C59.17 18.0998 62.2158 17.6848 65.23 18C68.2036 18.2917 71.1275 18.9639 73.93 20L73.83 20.28Z" fill="#1E6F5D"/>
<path d="M30.7402 102C33.7402 109.62 36.5902 115.53 38.6202 119.54C41.0002 124.1 41.2102 124.16 43.0002 128C46.0802 134.53 46.8202 137.53 49.7602 141.94C51.1602 144.047 52.7574 146.016 54.5302 147.82C56.0002 136.2 53.3502 129.35 50.6502 125.26C48.8902 122.57 47.3002 121.26 43.1802 116.96C38.7147 112.247 34.5593 107.25 30.7402 102Z" fill="#1E6F5D"/>
<path d="M30.7802 102C31.0202 102.54 31.3102 102.92 31.5002 103.37L32.1902 104.84L33.5802 107.77C34.4802 109.77 35.4402 111.66 36.4002 113.59C37.3602 115.52 38.3202 117.45 39.3102 119.36C40.3002 121.27 41.3102 123.13 42.3102 125.09C43.3102 127.05 44.0902 129.09 44.9102 131.09C45.7302 133.09 46.4602 135.09 47.3502 137.09C48.2378 139.046 49.3235 140.906 50.5902 142.64C51.8435 144.384 53.2526 146.011 54.8002 147.5L54.1502 147.71C54.6247 143.287 54.4393 138.818 53.6002 134.45C52.7637 130.139 50.7651 126.138 47.8202 122.88C46.3502 121.24 44.7202 119.65 43.2002 117.98C41.6802 116.31 40.2002 114.62 38.7302 112.89C37.2602 111.16 35.8902 109.36 34.5302 107.56C33.8502 106.66 33.2002 105.74 32.5302 104.81L31.5302 103.41L31.0602 102.71C31.0002 102.54 30.9402 102.3 30.7802 102ZM30.7002 101.87C30.8802 102.06 31.1302 102.28 31.3402 102.54L31.8802 103.19L32.9602 104.49L35.1402 107.06C36.6002 108.77 38.1402 110.42 39.6302 112.06C42.6302 115.41 45.8602 118.46 49.0202 121.76C52.1615 125.229 54.2436 129.525 55.0202 134.14C55.7656 138.654 55.7453 143.262 54.9602 147.77L54.8302 148.57L54.3002 147.99C51.343 144.79 48.864 141.179 46.9402 137.27C45.0602 133.35 43.3002 129.41 41.2402 125.66C39.0957 121.895 37.1432 118.023 35.3902 114.06C34.5102 112.06 33.7002 110.06 32.9002 108.06C32.4902 107.06 32.1302 106.06 31.7602 105.01L31.2202 103.48C31.0002 103 30.8602 102.37 30.7002 101.91V101.87Z" fill="#231F20"/>
<path d="M56.25 56.18C56.6291 53.5014 57.8478 51.0119 59.7308 49.0695C61.6139 47.1272 64.0644 45.8319 66.73 45.37C68.9582 45.0663 71.227 45.3621 73.3028 46.2269C75.3787 47.0917 77.1865 48.4942 78.54 50.29" stroke="#1E6F5D" stroke-width="1.5" stroke-miterlimit="10"/>
<path d="M45.5794 8.63C38.4094 7.34 31.8594 9.5 29.0894 14.13C28.1242 15.7698 27.6134 17.6372 27.6094 19.54" stroke="#1E6F5D" stroke-width="1.5" stroke-miterlimit="10"/>
<path d="M48.5303 14.26C51.3003 8.37999 56.2103 5.76999 59.6503 7.25999C61.3548 8.1482 62.6644 9.64329 63.3203 11.45" stroke="#1E6F5D" stroke-width="1.5" stroke-miterlimit="10"/>
<path d="M54.8094 38.47C52.8319 38.4 50.861 38.7366 49.0188 39.4591C47.1765 40.1815 45.5022 41.2744 44.0994 42.67C42.3564 44.5209 41.162 46.8198 40.6494 49.31" stroke="#1E6F5D" stroke-width="1.5" stroke-miterlimit="10"/>
<path d="M41.5896 60.14C41.0096 60.14 32.2496 60.61 29.5896 66.53C29.1401 67.5394 28.8889 68.6258 28.8496 69.73" stroke="#1E6F5D" stroke-width="1.5" stroke-miterlimit="10"/>
<path d="M56.25 77.14C56.6276 74.4608 57.8458 71.9705 59.7291 70.0279C61.6125 68.0853 64.0638 66.7905 66.73 66.33C68.9582 66.0264 71.227 66.3221 73.3028 67.1869C75.3787 68.0517 77.1865 69.4542 78.54 71.25" stroke="#1E6F5D" stroke-width="1.5" stroke-miterlimit="10"/>
<path d="M56.9998 78.17C55.0227 78.1042 53.0531 78.4427 51.2114 79.1649C49.3698 79.8871 47.6951 80.9778 46.2898 82.37C44.533 84.2128 43.3245 86.5087 42.7998 89" stroke="#1E6F5D" stroke-width="1.5" stroke-miterlimit="10"/>
<path d="M78.1502 57.98C81.2762 57.98 83.8102 55.4459 83.8102 52.32C83.8102 49.1941 81.2762 46.66 78.1502 46.66C75.0243 46.66 72.4902 49.1941 72.4902 52.32C72.4902 55.4459 75.0243 57.98 78.1502 57.98Z" fill="url(#paint0_linear)"/>
<path d="M83.8894 52.32C83.912 53.8811 83.42 55.4063 82.4894 56.66C81.9803 57.318 81.32 57.8433 80.5644 58.1915C79.8088 58.5397 78.9804 58.7004 78.1495 58.66C76.5428 58.4905 75.06 57.7187 73.9994 56.5C72.9142 55.3599 72.2448 53.8873 72.0994 52.32C72.0275 51.5015 72.1302 50.6771 72.4009 49.9013C72.6715 49.1255 73.1039 48.4161 73.6694 47.82C74.2405 47.191 74.9366 46.6881 75.7132 46.3437C76.4899 45.9993 77.3299 45.8209 78.1794 45.82C79.0174 45.8336 79.8414 46.0369 80.5895 46.4144C81.3377 46.792 81.9907 47.3341 82.4994 48C83.4189 49.2512 83.9068 50.7674 83.8894 52.32ZM83.7394 52.32C83.7248 51.6007 83.5417 50.8949 83.2047 50.2593C82.8678 49.6236 82.3865 49.0759 81.7995 48.66C80.7434 47.8769 79.4642 47.4528 78.1495 47.45C76.8532 47.4623 75.6056 47.9457 74.6394 48.81C73.66 49.7367 73.0401 50.9801 72.8894 52.32C72.8167 53.0245 72.907 53.7364 73.1532 54.4005C73.3994 55.0646 73.795 55.6632 74.3094 56.15C74.8307 56.6068 75.4412 56.9503 76.1023 57.1586C76.7633 57.3669 77.4605 57.4355 78.1495 57.36C79.4765 57.2616 80.7487 56.7902 81.8194 56C82.4061 55.5806 82.8856 55.0288 83.2192 54.3894C83.5528 53.7501 83.731 53.0411 83.7394 52.32Z" fill="#231F20"/>
<path d="M28.8397 77.06C31.9656 77.06 34.4997 74.5259 34.4997 71.4C34.4997 68.2741 31.9656 65.74 28.8397 65.74C25.7138 65.74 23.1797 68.2741 23.1797 71.4C23.1797 74.5259 25.7138 77.06 28.8397 77.06Z" fill="url(#paint1_linear)"/>
<path d="M34.5801 71.4C34.6041 72.9583 34.1119 74.4807 33.1801 75.73C32.6733 76.3905 32.0133 76.9177 31.2572 77.2662C30.5011 77.6146 29.6715 77.7738 28.8401 77.73C27.2301 77.5903 25.7362 76.8344 24.6701 75.62C23.5868 74.4825 22.9176 73.0138 22.7701 71.45C22.6934 70.6296 22.7939 69.8024 23.0647 69.0243C23.3356 68.2462 23.7706 67.5354 24.3401 66.94C24.91 66.3122 25.6045 65.8101 26.3793 65.4657C27.1541 65.1214 27.9922 64.9423 28.8401 64.94C29.6749 64.934 30.5003 65.1161 31.255 65.4727C32.0098 65.8293 32.6746 66.3513 33.2001 67C34.1382 68.2716 34.624 69.8204 34.5801 71.4ZM34.4301 71.4C34.415 70.6819 34.2328 69.9772 33.8977 69.3418C33.5627 68.7065 33.0842 68.158 32.5001 67.74C31.4426 66.9523 30.1587 66.5278 28.8401 66.53C27.5458 66.5373 26.2997 67.0215 25.3401 67.89C24.3549 68.8124 23.7339 70.0581 23.5901 71.4C23.5176 72.1036 23.607 72.8145 23.8514 73.4783C24.0958 74.1421 24.4887 74.7413 25.0001 75.23C25.5201 75.6855 26.129 76.0282 26.7882 76.2365C27.4475 76.4448 28.1427 76.514 28.8301 76.44C30.1612 76.3384 31.4366 75.8635 32.5101 75.07C33.0936 74.6499 33.5711 74.0993 33.9044 73.4622C34.2377 72.8251 34.4177 72.1189 34.4301 71.4Z" fill="#231F20"/>
<path d="M42.8495 49.55C45.9754 49.55 48.5095 47.0159 48.5095 43.89C48.5095 40.7641 45.9754 38.23 42.8495 38.23C39.7235 38.23 37.1895 40.7641 37.1895 43.89C37.1895 47.0159 39.7235 49.55 42.8495 49.55Z" fill="url(#paint2_linear)"/>
<path d="M48.5899 43.89C48.6139 45.4483 48.1216 46.9707 47.1899 48.22C46.683 48.8805 46.0231 49.4077 45.267 49.7562C44.5108 50.1046 43.6813 50.2638 42.8499 50.22C41.2372 50.0798 39.7404 49.3242 38.6699 48.11C37.5903 46.9711 36.9246 45.5025 36.7799 43.94C36.7032 43.1197 36.8036 42.2924 37.0745 41.5143C37.3454 40.7362 37.7803 40.0254 38.3499 39.43C38.9197 38.8022 39.6143 38.3001 40.3891 37.9557C41.1639 37.6114 42.002 37.4323 42.8499 37.43C43.6874 37.4293 44.5141 37.6189 45.2677 37.9844C46.0212 38.3499 46.6819 38.8818 47.1999 39.54C48.1364 40.7938 48.6258 42.3254 48.5899 43.89ZM48.4399 43.89C48.4256 43.1717 48.2436 42.4668 47.9085 41.8313C47.5735 41.1958 47.0945 40.6475 46.5099 40.23C45.4542 39.4364 44.1705 39.005 42.8499 39C41.5527 39.0076 40.3035 39.4916 39.3399 40.36C38.3576 41.2834 37.7401 42.5292 37.5999 43.87C37.5207 44.5762 37.6058 45.2912 37.8487 45.959C38.0916 46.6269 38.4855 47.2296 38.9999 47.72C39.5199 48.1755 40.1288 48.5182 40.788 48.7265C41.4472 48.9348 42.1425 49.004 42.8299 48.93C44.1579 48.8287 45.4302 48.3537 46.4999 47.56C47.0882 47.1431 47.5704 46.5938 47.9074 45.9563C48.2444 45.3188 48.4268 44.611 48.4399 43.89Z" fill="#231F20"/>
<path d="M76.7 79.27C79.826 79.27 82.36 76.7359 82.36 73.61C82.36 70.4841 79.826 67.95 76.7 67.95C73.5741 67.95 71.04 70.4841 71.04 73.61C71.04 76.7359 73.5741 79.27 76.7 79.27Z" fill="url(#paint3_linear)"/>
<path d="M82.4394 73.61C82.4646 75.1933 81.9575 76.7392 80.9994 78C80.4926 78.6605 79.8327 79.1877 79.0765 79.5362C78.3204 79.8846 77.4908 80.0438 76.6594 80C75.0479 79.8558 73.5525 79.1009 72.4794 77.89C71.398 76.7473 70.7293 75.2761 70.5794 73.71C70.5081 72.8907 70.6121 72.0657 70.8846 71.2898C71.157 70.5138 71.5916 69.8048 72.1594 69.21C72.7293 68.5822 73.4238 68.0801 74.1986 67.7357C74.9734 67.3914 75.8115 67.2123 76.6594 67.21C77.497 67.2093 78.3237 67.3989 79.0772 67.7644C79.8308 68.1299 80.4915 68.6618 81.0094 69.32C81.9476 70.5524 82.4505 72.0612 82.4394 73.61ZM82.2894 73.61C82.2682 72.9001 82.083 72.2048 81.7481 71.5785C81.4133 70.9522 80.938 70.4119 80.3594 70C79.3013 69.2136 78.0178 68.7893 76.6994 68.79C75.4023 68.7976 74.1531 69.2816 73.1894 70.15C72.2093 71.0709 71.592 72.3127 71.4494 73.65C71.3743 74.3562 71.4634 75.0702 71.7098 75.7363C71.9561 76.4024 72.353 77.0025 72.8694 77.49C73.3903 77.9437 73.9995 78.2846 74.6587 78.4912C75.3179 78.6977 76.0128 78.7654 76.6994 78.69C78.0272 78.5948 79.3003 78.1231 80.3694 77.33C80.9603 76.9054 81.4423 76.3471 81.776 75.7005C82.1097 75.0539 82.2857 74.3376 82.2894 73.61Z" fill="#231F20"/>
<path d="M27.6102 28.37C30.7361 28.37 33.2702 25.8359 33.2702 22.71C33.2702 19.5841 30.7361 17.05 27.6102 17.05C24.4843 17.05 21.9502 19.5841 21.9502 22.71C21.9502 25.8359 24.4843 28.37 27.6102 28.37Z" fill="url(#paint4_linear)"/>
<path d="M33.3502 22.71C33.3872 24.2654 32.9129 25.79 32.0002 27.05C31.4803 27.7053 30.8094 28.225 30.0449 28.5646C29.2804 28.9042 28.445 29.0536 27.6102 29C26.0028 28.8514 24.5121 28.097 23.4402 26.89C22.3549 25.7499 21.6856 24.2773 21.5402 22.71C21.4642 21.8897 21.565 21.0626 21.8358 20.2846C22.1067 19.5066 22.5412 18.7957 23.1102 18.2C23.6816 17.5741 24.3765 17.0733 25.1509 16.7291C25.9254 16.3849 26.7627 16.2047 27.6102 16.2C28.457 16.2025 29.2922 16.3973 30.0527 16.7697C30.8132 17.1422 31.4791 17.6825 32.0002 18.35C32.9192 19.6145 33.3939 21.1475 33.3502 22.71ZM33.2002 22.71C33.1852 21.9919 33.0029 21.2872 32.6679 20.6519C32.3328 20.0165 31.8543 19.468 31.2702 19.05C30.2104 18.2668 28.928 17.8428 27.6102 17.84C26.316 17.8473 25.0698 18.3315 24.1102 19.2C23.1272 20.124 22.5066 21.3688 22.3602 22.71C22.2875 23.4145 22.3777 24.1264 22.6239 24.7905C22.8702 25.4546 23.2658 26.0532 23.7802 26.54C24.3003 26.9955 24.9091 27.3382 25.5684 27.5465C26.2276 27.7548 26.9229 27.8241 27.6102 27.75C28.9413 27.6484 30.2167 27.1735 31.2902 26.38C31.8725 25.9594 32.3484 25.4085 32.68 24.7713C33.0117 24.1341 33.1898 23.4282 33.2002 22.71Z" fill="#231F20"/>
<path d="M6.09945 17.04C9.22538 17.04 11.7595 14.5059 11.7595 11.38C11.7595 8.25407 9.22538 5.72 6.09945 5.72C2.97352 5.72 0.439453 8.25407 0.439453 11.38C0.439453 14.5059 2.97352 17.04 6.09945 17.04Z" fill="url(#paint5_linear)"/>
<path d="M11.8398 11.38C11.8623 12.9411 11.3704 14.4663 10.4398 15.72C9.93302 16.3805 9.27306 16.9078 8.51694 17.2562C7.76081 17.6047 6.93124 17.7638 6.09984 17.72C4.48831 17.5758 2.99289 16.8209 1.91984 15.61C0.817005 14.4597 0.13969 12.9674 -0.000159862 11.38C-0.0728069 10.559 0.0325257 9.73196 0.30865 8.95536C0.584773 8.17876 1.02519 7.47087 1.59984 6.88C2.16973 6.2522 2.86424 5.75009 3.63905 5.40573C4.41386 5.06137 5.25195 4.88232 6.09984 4.88C6.93818 4.88053 7.76543 5.07166 8.51904 5.43894C9.27265 5.80621 9.93289 6.34002 10.4498 7C11.3928 8.26199 11.8826 9.80519 11.8398 11.38ZM11.6898 11.38C11.6732 10.6622 11.4903 9.95806 11.1554 9.32296C10.8205 8.68787 10.3428 8.13915 9.75984 7.72C8.70079 6.93651 7.4172 6.51566 6.09984 6.52C4.80381 6.52397 3.5545 7.00447 2.58984 7.87C1.61123 8.79611 0.994381 10.0404 0.84984 11.38C0.774799 12.0847 0.863951 12.7972 1.11031 13.4617C1.35667 14.1261 1.75355 14.7246 2.26984 15.21C2.7899 15.6655 3.39877 16.0082 4.058 16.2165C4.71722 16.4248 5.41248 16.4941 6.09984 16.42C7.42791 16.3187 8.70023 15.8437 9.76984 15.05C10.3551 14.6316 10.8338 14.0814 11.1673 13.4439C11.5009 12.8064 11.6798 12.0994 11.6898 11.38Z" fill="#231F20"/>
<defs>
<linearGradient id="paint0_linear" x1="72.7202" y1="53.93" x2="83.6902" y2="50.67" gradientUnits="userSpaceOnUse">
<stop offset="0.58" stop-color="white"/>
<stop offset="0.65" stop-color="#F5F6F6"/>
<stop offset="0.76" stop-color="#DBDCDD"/>
<stop offset="0.89" stop-color="#B1B3B5"/>
<stop offset="1" stop-color="#8D9092"/>
</linearGradient>
<linearGradient id="paint1_linear" x1="288.181" y1="892.213" x2="412.474" y2="855.31" gradientUnits="userSpaceOnUse">
<stop offset="0.58" stop-color="white"/>
<stop offset="0.65" stop-color="#F5F6F6"/>
<stop offset="0.76" stop-color="#DBDCDD"/>
<stop offset="0.89" stop-color="#B1B3B5"/>
<stop offset="1" stop-color="#8D9092"/>
</linearGradient>
<linearGradient id="paint2_linear" x1="460.784" y1="553.29" x2="584.964" y2="516.387" gradientUnits="userSpaceOnUse">
<stop offset="0.58" stop-color="white"/>
<stop offset="0.65" stop-color="#F5F6F6"/>
<stop offset="0.76" stop-color="#DBDCDD"/>
<stop offset="0.89" stop-color="#B1B3B5"/>
<stop offset="1" stop-color="#8D9092"/>
</linearGradient>
<linearGradient id="paint3_linear" x1="877.816" y1="919.554" x2="1002" y2="882.65" gradientUnits="userSpaceOnUse">
<stop offset="0.58" stop-color="white"/>
<stop offset="0.65" stop-color="#F5F6F6"/>
<stop offset="0.76" stop-color="#DBDCDD"/>
<stop offset="0.89" stop-color="#B1B3B5"/>
<stop offset="1" stop-color="#8D9092"/>
</linearGradient>
<linearGradient id="paint4_linear" x1="273.028" y1="292.352" x2="397.321" y2="255.449" gradientUnits="userSpaceOnUse">
<stop offset="0.58" stop-color="white"/>
<stop offset="0.65" stop-color="#F5F6F6"/>
<stop offset="0.76" stop-color="#DBDCDD"/>
<stop offset="0.89" stop-color="#B1B3B5"/>
<stop offset="1" stop-color="#8D9092"/>
</linearGradient>
<linearGradient id="paint5_linear" x1="8.02385" y1="152.88" x2="132.204" y2="115.864" gradientUnits="userSpaceOnUse">
<stop offset="0.58" stop-color="white"/>
<stop offset="0.65" stop-color="#F5F6F6"/>
<stop offset="0.76" stop-color="#DBDCDD"/>
<stop offset="0.89" stop-color="#B1B3B5"/>
<stop offset="1" stop-color="#8D9092"/>
</linearGradient>
</defs>
</svg>
