<svg width="26" height="30" viewBox="0 0 26 30" fill="none" xmlns="http://www.w3.org/2000/svg">
<g clip-path="url(#clip0)">
<path d="M1.13626 22.6174C1.91945 25.0413 2.72845 27.5505 5.00915 28.771C7.58247 30.1536 10.5259 29.0868 12.884 28.2333C22.1445 24.8791 25.2687 15.67 25.6215 13.5534C25.7334 12.8962 25.6732 12.3073 25.6646 12.2561C25.5871 11.5306 25.2428 9.93457 22.8331 7.92888C22.2736 7.468 20.2597 5.85492 15.2766 4.40399C11.1455 3.20911 9.03696 2.62874 6.62716 3.47369C4.50137 4.22476 3.1932 5.66715 2.6682 6.33287C1.17069 8.21907 0.929707 10.1309 0.602663 13.1607C0.292832 15.9346 -0.0428185 18.9559 1.13626 22.6174Z" fill="#ED1B36"/>
<path d="M1.22187 22.5918C1.74686 24.1793 2.28907 25.835 3.39069 27.0896C4.46649 28.3443 6.05868 28.9929 7.62505 28.899C9.20863 28.8222 10.732 28.2248 12.3155 27.6444C13.8475 27.0128 15.345 26.3983 16.7048 25.468C19.4675 23.7354 21.8859 21.2859 23.5039 18.35C24.3043 16.8905 24.967 15.3115 25.2854 13.707C25.4317 12.9133 25.3887 12.1024 25.0789 11.394C24.7776 10.6686 24.2871 10.0199 23.7277 9.4481C23.1596 8.87627 22.5142 8.34711 21.8429 7.92037C21.1543 7.49362 20.4228 7.11809 19.674 6.78523C18.1679 6.11951 16.5757 5.61596 14.9663 5.16361C13.3311 4.72833 11.6873 4.24185 10.1209 4.05408C9.33773 3.96873 8.58897 3.95166 7.86603 4.09675C7.14309 4.21624 6.42875 4.50643 5.76606 4.86489C4.42346 5.58182 3.2788 6.73402 2.54726 8.03132C1.83293 9.34569 1.5317 10.9844 1.22187 12.6401C0.920644 14.3044 0.610813 15.9517 0.550568 17.6245C0.473111 19.2973 0.722697 20.9872 1.22187 22.5918ZM1.05835 22.643C0.524749 21.0299 0.214918 19.3485 0.0772151 17.6416C-0.069094 15.9346 0.034183 14.2106 0.103034 12.5206C0.189099 10.8393 0.249344 9.03843 1.07556 7.30586C1.89317 5.59035 3.25299 4.24185 4.86239 3.28594C5.67139 2.81653 6.56646 2.47513 7.52177 2.2959C8.47708 2.10813 9.44961 2.14227 10.3533 2.28736C12.1606 2.57755 13.7786 3.13231 15.4139 3.62734C17.0749 4.13089 18.7015 4.76247 20.2593 5.57328C21.8256 6.34995 23.2973 7.45948 24.4162 8.83359C24.9842 9.51638 25.4748 10.2845 25.7588 11.1551C26.0428 12.0342 26.0428 12.973 25.8448 13.835C25.4231 15.5249 24.7604 17.0953 23.9773 18.6231C23.1941 20.1423 22.299 21.6188 21.2404 22.9929C20.1646 24.35 18.9081 25.5875 17.4966 26.6458C16.0938 27.7212 14.4499 28.4723 12.8061 29.0612C11.1967 29.6245 9.42379 30.128 7.57341 29.9744C5.72303 29.8549 3.96732 28.8393 3.01201 27.3628C2.03948 25.9033 1.57473 24.2475 1.05835 22.643Z" fill="black"/>
<path d="M3.28753 21.7809C3.98465 23.889 4.69898 26.0654 6.7387 27.1238C9.03662 28.3272 11.653 27.4054 13.7529 26.6629C22.0065 23.7525 24.7864 15.7553 25.1048 13.9203C25.1995 13.3485 25.1478 12.8364 25.1478 12.7937C25.079 12.1707 24.7692 10.7795 22.6175 9.0384C22.1184 8.62873 20.3196 7.23755 15.8787 5.97439C12.2038 4.93314 10.3276 4.42105 8.17597 5.16358C6.28256 5.81223 5.12069 7.06685 4.64734 7.63869C3.31335 9.27738 3.09818 10.9331 2.80557 13.5619C2.53016 15.9772 2.22894 18.5974 3.28753 21.7809Z" fill="#ED2A43"/>
<path d="M13.8302 4.51492C13.4343 4.64295 12.6167 4.96727 11.8852 5.75248C11.1192 6.57182 10.8696 7.45091 10.775 7.85205C12.0487 7.16073 13.3138 6.48648 14.579 5.80369C14.8974 6.19629 15.4741 6.79373 16.3519 7.28022C17.1523 7.72403 17.9011 7.89473 18.383 7.97154C16.2917 5.7098 15.9044 5.05262 16.0163 4.9246C16.1712 4.76243 17.1265 5.59885 18.865 5.88904C19.3642 5.97438 19.7859 5.98292 20.0785 5.98292C19.8117 5.65859 19.4158 5.24892 18.8478 4.89046C17.7806 4.22474 16.7306 4.12232 16.2056 4.11379C16.8339 4.07111 17.7892 3.92602 18.8133 3.40539C19.2953 3.15788 19.6826 2.88477 19.9924 2.62872C19.1748 2.44096 17.7548 2.23612 16.154 2.73114C15.6634 2.88477 15.2331 3.07253 14.8716 3.26884C14.579 2.88477 14.0798 2.32147 13.3052 1.85205C12.2811 1.22047 11.2999 1.06684 10.7663 1.02417C10.9471 1.41677 11.2483 1.963 11.7561 2.50923C12.2725 3.07253 12.8061 3.431 13.1847 3.64437C12.5909 3.46514 11.5753 3.22616 10.3188 3.33711C9.1053 3.4566 8.17581 3.83214 7.625 4.10525C8.31351 4.33569 9.18276 4.5576 10.1983 4.66002C11.6786 4.82218 12.9266 4.68562 13.8302 4.51492Z" fill="#009444"/>
<path d="M13.9162 4.48933C13.9076 4.51494 13.8646 4.60028 13.8043 4.61735L13.7269 4.65149L13.5978 4.72831L13.3482 4.88193C13.1847 4.99289 13.0297 5.09531 12.892 5.21479C12.5994 5.45377 12.3412 5.72688 12.1261 6.01707C11.6957 6.60597 11.4117 7.27169 11.3171 7.96302L10.5167 7.36558C11.7388 6.60597 12.9781 5.87198 14.226 5.16358L14.7424 4.8734L15.1469 5.35135C15.999 6.34993 17.2039 6.99858 18.4948 7.26316L17.8407 8.47511C17.3846 7.96302 16.9715 7.41678 16.5584 6.86202C16.3518 6.58037 16.1453 6.29872 15.9473 6C15.8526 5.84637 15.7494 5.69274 15.6547 5.50498C15.6117 5.39402 15.56 5.33428 15.517 5.0953C15.5084 5.03556 15.4998 4.93314 15.5428 4.80512C15.6031 4.63442 15.7494 4.51494 15.9215 4.46373C16.042 4.43812 16.1108 4.45519 16.1883 4.46373L16.3088 4.49787C16.7391 4.69417 16.9371 4.85633 17.2469 5.00996C17.5309 5.16358 17.8235 5.30868 18.1333 5.40256C18.7444 5.64154 19.4071 5.66714 20.0526 5.72688L19.846 6.16216C18.9854 5.05263 17.5567 4.42105 16.1711 4.48933L16.1797 3.76387C17.4793 3.61024 18.6928 3.03841 19.5878 2.16785L19.846 3.24324C18.2452 2.97866 16.61 3.2091 15.276 4.00284L14.6736 4.35277L14.2174 3.7724C13.3568 2.67994 12.04 2.0569 10.6888 1.93741L11.6011 0.657183C12.0314 1.57041 12.7285 2.37269 13.615 2.89331L20.3452 6.87909L12.9179 4.4808C12.1175 4.22475 11.274 4.07966 10.422 4.1138C9.56996 4.14794 8.70932 4.32717 7.90892 4.66856L7.83146 3.50782C8.75235 3.89189 9.72487 4.16501 10.7318 4.30156C11.231 4.36984 11.7474 4.43812 12.2552 4.44666C12.5134 4.45519 12.7715 4.45519 13.0297 4.45519L13.417 4.44666L13.615 4.43812C13.6924 4.41252 13.8732 4.46373 13.9162 4.48933ZM13.7441 4.53201C13.658 4.58321 13.7096 4.65149 13.6494 4.65149L13.4601 4.71124L13.0814 4.81366C12.8232 4.8734 12.5564 4.92461 12.2896 4.96728C11.756 5.05263 11.2224 5.11237 10.6802 5.11237C9.58717 5.12091 8.49416 4.98435 7.42696 4.71124L5.96387 4.3357L7.34089 3.5505C9.13103 2.52632 11.3945 2.23613 13.4428 2.82504L12.7543 4.41252C11.5236 3.75533 10.4995 2.69701 9.93143 1.41679L9.30316 0L10.8437 0.128023C11.7732 0.204836 12.6855 0.486486 13.4859 0.955903C14.2949 1.41679 14.992 2.04836 15.5256 2.7909L14.4756 2.56045C16.2141 1.63016 18.3227 1.47653 20.13 2.03129L21.3435 2.39829L20.3882 3.09815C19.1747 3.99431 17.6772 4.46373 16.2313 4.47226L16.2141 3.7468C17.0059 3.81508 17.7805 4.01138 18.469 4.36984C19.1747 4.71124 19.7858 5.22333 20.285 5.8037L20.6981 6.29018L20.0784 6.23898C19.3727 6.17923 18.6583 6.20484 17.9612 6.00853C17.617 5.92319 17.2727 5.8293 16.9371 5.70128C16.6186 5.59033 16.2313 5.4111 16.0248 5.35989C16.0678 5.36842 16.085 5.37696 16.1625 5.35989C16.3002 5.32575 16.4035 5.22333 16.4551 5.10384C16.4895 5.00996 16.4809 4.95021 16.4809 4.93314C16.4723 4.86486 16.5067 4.95021 16.5412 4.99289C16.6186 5.09531 16.7219 5.22333 16.8252 5.34282C17.0317 5.58179 17.2641 5.82077 17.4965 6.05974L18.9251 7.47653L20.3796 8.91892L18.271 8.68848C16.5928 8.50071 15.0264 7.57041 14.0023 6.25604L14.9232 6.43528C13.6408 7.08393 12.3498 7.70697 11.0417 8.30441L9.92282 8.8165L10.2499 7.70697C10.4995 6.86202 10.9642 6.09388 11.6011 5.52205C11.9195 5.23186 12.2638 4.99289 12.6424 4.80512C12.8318 4.71124 13.0211 4.62589 13.2191 4.56614L13.5117 4.4808L13.658 4.44666C13.6752 4.44666 13.7183 4.42959 13.7183 4.43812C13.701 4.45519 13.7096 4.52347 13.7441 4.53201Z" fill="black"/>
<path d="M2.03127 15.9004C1.72143 15.909 1.17062 19.1095 1.98823 22.3613C2.28085 23.522 2.81445 25.5192 4.57877 27.1494C5.32752 27.8407 6.57546 28.7198 6.86807 28.4637C7.29839 28.0797 4.71647 26.0228 3.76116 22.0797C3.32223 20.2788 2.78863 18.5121 2.3411 16.7112C2.22061 16.2333 2.13454 15.8919 2.03127 15.9004Z" fill="white"/>
<path d="M6.30796 9.42247C6.6264 9.61877 8.26162 7.98861 7.96039 7.3741C7.86572 7.1778 7.58171 7.10099 7.38376 7.12659C6.51451 7.22048 6.00673 9.24324 6.30796 9.42247Z" fill="#FFDE17"/>
<path d="M8.09015 12.5035C8.40859 12.6913 10.018 11.0953 9.71677 10.4893C9.6221 10.3015 9.34669 10.2247 9.14874 10.2503C8.2881 10.3442 7.78893 12.3243 8.09015 12.5035Z" fill="#FFDE17"/>
<path d="M17.548 11.3343C17.8664 11.522 19.4758 9.92603 19.1746 9.32005C19.0799 9.13229 18.8045 9.05547 18.6066 9.08108C17.7545 9.17496 17.2554 11.155 17.548 11.3343Z" fill="#FFDE17"/>
<path d="M20.9477 14.9616C21.2662 15.1494 22.8756 13.5533 22.5743 12.9474C22.4797 12.7596 22.2043 12.6828 22.0063 12.7084C21.1543 12.8023 20.6465 14.7824 20.9477 14.9616Z" fill="#FFDE17"/>
<path d="M13.6408 13.8265C13.9592 14.0142 15.5686 12.4182 15.2674 11.8122C15.1727 11.6245 14.8973 11.5477 14.6993 11.5733C13.8473 11.6671 13.3481 13.6472 13.6408 13.8265Z" fill="#FFDE17"/>
<path d="M16.0073 18.1622C16.3257 18.3499 17.9351 16.7539 17.6339 16.1479C17.5393 15.9602 17.2638 15.8834 17.0659 15.909C16.2139 15.9943 15.7061 17.9829 16.0073 18.1622Z" fill="#FFDE17"/>
<path d="M9.44953 16.8563C9.76797 17.0441 11.3774 15.4481 11.0761 14.8421C10.9815 14.6543 10.7061 14.5775 10.5081 14.6031C9.64748 14.6885 9.1483 16.6771 9.44953 16.8563Z" fill="#FFDE17"/>
<path d="M3.92414 17.9914C4.24258 18.1792 5.85198 16.5832 5.55075 15.9772C5.45608 15.7895 5.18068 15.7126 4.98273 15.7382C4.12209 15.8321 3.62291 17.8122 3.92414 17.9914Z" fill="#FFDE17"/>
<path d="M11.3343 20.9616C11.6527 21.1494 13.2621 19.5533 12.9609 18.9474C12.8662 18.7596 12.5908 18.6828 12.3929 18.7084C11.5322 18.7937 11.0331 20.7824 11.3343 20.9616Z" fill="#FFDE17"/>
<path d="M6.32551 22.1906C6.64394 22.3784 8.25334 20.7824 7.95212 20.1764C7.85745 19.9886 7.58204 19.9118 7.3841 19.9374C6.52345 20.0228 6.02428 22.0114 6.32551 22.1906Z" fill="#FFDE17"/>
<path d="M13.4085 25.596C13.727 25.7838 15.3364 24.1877 15.0351 23.5818C14.9405 23.394 14.665 23.3172 14.4671 23.3428C13.6065 23.4367 13.1073 25.4168 13.4085 25.596Z" fill="#FFDE17"/>
<path d="M7.49543 27.6871C7.81387 27.8748 9.42327 26.2788 9.12204 25.6728C9.02737 25.4851 8.75197 25.4083 8.55402 25.4339C7.69337 25.5277 7.1942 27.5078 7.49543 27.6871Z" fill="#FFDE17"/>
</g>
<defs>
<clipPath id="clip0">
<rect width="26" height="30" fill="white"/>
</clipPath>
</defs>
</svg>
